<svg xmlns="http://www.w3.org/2000/svg" width="1728" height="1032" fill="none"><path stroke="#fff" stroke-miterlimit="10" d="M499 303.8a43.2 43.2 0 0 0-37.8-42.8 43 43 0 0 0-65-31.3 53 53 0 0 0-65-43.8A53.1 53.1 0 0 0 306 200a78.3 78.3 0 0 0-82-58.9 78.6 78.6 0 0 0-72.3 70.6 43.2 43.2 0 0 0-60.3 29.6h-5A43.1 43.1 0 0 0 50.1 261a43.2 43.2 0 0 0-28 72.8c7.5 8 17.9 12.6 28.9 13.2h406.6a43.2 43.2 0 0 0 41.4-43.2Z"/><path stroke="#fff" stroke-miterlimit="10" d="M517 330.8a43.2 43.2 0 0 0-37.8-42.8 43 43 0 0 0-65-31.3 53 53 0 0 0-65-43.8A53.1 53.1 0 0 0 324 227a78.3 78.3 0 0 0-82-58.9 78.6 78.6 0 0 0-72.3 70.6 43.2 43.2 0 0 0-60.3 29.6h-5A43.1 43.1 0 0 0 68.1 288a43.2 43.2 0 0 0-28 72.8c7.5 8 17.9 12.6 28.9 13.2h406.6a43.2 43.2 0 0 0 41.4-43.2Z"/><path stroke="#fff" stroke-miterlimit="10" d="M535 337.8a43.2 43.2 0 0 0-37.8-42.8 43 43 0 0 0-65-31.3 53 53 0 0 0-65-43.8A53.1 53.1 0 0 0 342 234a78.3 78.3 0 0 0-82-58.9 78.6 78.6 0 0 0-72.3 70.6 43.2 43.2 0 0 0-60.3 29.6h-5A43.1 43.1 0 0 0 86.1 295a43.2 43.2 0 0 0-28 72.8c7.5 8 17.9 12.6 28.9 13.2h406.6a43.2 43.2 0 0 0 41.4-43.2Z"/><path stroke="#fff" stroke-miterlimit="10" d="M705 344.8a43.2 43.2 0 0 0-37.8-42.8 43 43 0 0 0-65-31.3 53 53 0 0 0-65-43.8A53.1 53.1 0 0 0 512 241a78.3 78.3 0 0 0-82-58.9 78.6 78.6 0 0 0-72.3 70.6 43.2 43.2 0 0 0-60.3 29.6h-5a43.1 43.1 0 0 0-36.2 19.6 43.2 43.2 0 0 0-28 72.8c7.5 8 17.9 12.6 28.9 13.2h406.6a43.2 43.2 0 0 0 41.4-43.2Z"/><path stroke="#fff" stroke-miterlimit="10" d="M723 351.8a43.2 43.2 0 0 0-37.8-42.8 43 43 0 0 0-65-31.3 53 53 0 0 0-65-43.8A53.1 53.1 0 0 0 530 248a78.3 78.3 0 0 0-82-58.9 78.6 78.6 0 0 0-72.3 70.6 43.2 43.2 0 0 0-60.3 29.6h-5a43.1 43.1 0 0 0-36.2 19.6 43.2 43.2 0 0 0-28 72.8c7.5 8 17.9 12.6 28.9 13.2h406.6a43.2 43.2 0 0 0 41.4-43.2Zm1037 523a43.1 43.1 0 0 0-37.8-42.8 43 43 0 0 0-65-31.3 53 53 0 0 0-90.3-29.6 78.4 78.4 0 0 0-131-36.7 78.3 78.3 0 0 0-23.3 48.4 43.3 43.3 0 0 0-60.3 29.6h-5a43.1 43.1 0 0 0-36.1 19.6 43.3 43.3 0 0 0-40.2 43.4 43 43 0 0 0 41 42.6h406.6a43.2 43.2 0 0 0 41.4-43.2Zm-620 134a43.1 43.1 0 0 0-37.8-42.8 43 43 0 0 0-65-31.3 53 53 0 0 0-90.3-29.6 78.3 78.3 0 0 0-82-58.9 78.6 78.6 0 0 0-72.3 70.6 43.2 43.2 0 0 0-60.3 29.6h-5a43.1 43.1 0 0 0-36.2 19.6 43.2 43.2 0 0 0-28 72.8c7.5 8 17.9 12.6 28.9 13.2h406.6a43.2 43.2 0 0 0 41.4-43.2Z"/><path stroke="#fff" stroke-miterlimit="10" d="M820 363.8a43.2 43.2 0 0 0-37.8-42.8 43 43 0 0 0-65-31.3 53 53 0 0 0-65-43.8A53.1 53.1 0 0 0 627 260a78.3 78.3 0 0 0-82-58.9 78.6 78.6 0 0 0-72.3 70.6 43.2 43.2 0 0 0-60.3 29.6h-5a43.1 43.1 0 0 0-36.2 19.6 43.2 43.2 0 0 0-28 72.8c7.5 8 17.9 12.6 28.9 13.2h406.6a43.2 43.2 0 0 0 41.4-43.2Zm455-109a43.1 43.1 0 0 0-37.8-42.8 43 43 0 0 0-65-31.3 53 53 0 0 0-90.3-29.6 78.4 78.4 0 0 0-131-36.7 78.2 78.2 0 0 0-23.3 48.4 43.2 43.2 0 0 0-60.3 29.6h-5a43.1 43.1 0 0 0-36.2 19.6 43.2 43.2 0 0 0-28 72.8c7.5 8 17.9 12.6 28.9 13.2h406.6a43.2 43.2 0 0 0 41.4-43.2Z"/><path stroke="#fff" stroke-miterlimit="10" d="M1740 290.8a43.1 43.1 0 0 0-37.8-42.8 43 43 0 0 0-65-31.3 53 53 0 0 0-90.3-29.6 78.4 78.4 0 0 0-131-36.7 78.3 78.3 0 0 0-23.3 48.4 43.3 43.3 0 0 0-60.3 29.6h-5a43.1 43.1 0 0 0-36.1 19.6 43.3 43.3 0 0 0-40.2 43.4 43 43 0 0 0 41 42.6h406.6a43.2 43.2 0 0 0 41.4-43.2Z"/><path stroke="#fff" stroke-miterlimit="10" d="M1680 334.8a43.1 43.1 0 0 0-37.8-42.8 43 43 0 0 0-65-31.3 53 53 0 0 0-90.3-29.6 78.4 78.4 0 0 0-131-36.7 78.3 78.3 0 0 0-23.3 48.4 43.3 43.3 0 0 0-60.3 29.6h-5a43.1 43.1 0 0 0-36.1 19.6 43.3 43.3 0 0 0-40.2 43.4 43 43 0 0 0 41 42.6h406.6a43.2 43.2 0 0 0 41.4-43.2Z"/><path stroke="#fff" stroke-miterlimit="10" d="M1520 294.8a43.1 43.1 0 0 0-37.8-42.8 43 43 0 0 0-65-31.3 53 53 0 0 0-90.3-29.6 78.4 78.4 0 0 0-131-36.7 78.3 78.3 0 0 0-23.3 48.4 43.3 43.3 0 0 0-60.3 29.6h-5a43.1 43.1 0 0 0-36.1 19.6 43.3 43.3 0 0 0-40.2 43.4 43 43 0 0 0 41 42.6h406.6a43.2 43.2 0 0 0 41.4-43.2Z"/><path stroke="#fff" stroke-miterlimit="10" d="M1520 194.8a43.1 43.1 0 0 0-37.8-42.8 43 43 0 0 0-65-31.3 53 53 0 0 0-90.3-29.6 78.4 78.4 0 0 0-131-36.7 78.3 78.3 0 0 0-23.3 48.4 43.3 43.3 0 0 0-60.3 29.6h-5a43.1 43.1 0 0 0-36.1 19.6 43.3 43.3 0 0 0-40.2 43.4 43 43 0 0 0 41 42.6h406.6a43.2 43.2 0 0 0 41.4-43.2Z"/><path stroke="#fff" stroke-miterlimit="10" d="M1711 172.8a43.1 43.1 0 0 0-37.8-42.8 43 43 0 0 0-65-31.3 53 53 0 0 0-90.3-29.6 78.4 78.4 0 0 0-131-36.7 78.3 78.3 0 0 0-23.3 48.4 43.3 43.3 0 0 0-60.3 29.6h-5a43.1 43.1 0 0 0-36.1 19.6 43.3 43.3 0 0 0-40.2 43.4 43 43 0 0 0 41 42.6h406.6a43.2 43.2 0 0 0 41.4-43.2Z"/><path stroke="#fff" stroke-miterlimit="10" d="M1832 225.8a43.1 43.1 0 0 0-37.8-42.8 43 43 0 0 0-65-31.3 53 53 0 0 0-90.3-29.6 78.4 78.4 0 0 0-131-36.7 78.3 78.3 0 0 0-23.3 48.4 43.3 43.3 0 0 0-60.3 29.6h-5a43.1 43.1 0 0 0-36.1 19.6 43.3 43.3 0 0 0-40.2 43.4 43 43 0 0 0 41 42.6h406.6a43.2 43.2 0 0 0 41.4-43.2Z"/><path stroke="#fff" stroke-miterlimit="10" d="M1800 408.8a43.1 43.1 0 0 0-37.8-42.8 43 43 0 0 0-65-31.3 53 53 0 0 0-90.3-29.6 78.4 78.4 0 0 0-131-36.7 78.3 78.3 0 0 0-23.3 48.4 43.3 43.3 0 0 0-60.3 29.6h-5a43.1 43.1 0 0 0-36.1 19.6 43.3 43.3 0 0 0-40.2 43.4 43 43 0 0 0 41 42.6h406.6a43.2 43.2 0 0 0 41.4-43.2Z"/><path stroke="#fff" stroke-miterlimit="10" d="M1800 468.8a43.1 43.1 0 0 0-37.8-42.8 43 43 0 0 0-65-31.3 53 53 0 0 0-90.3-29.6 78.4 78.4 0 0 0-131-36.7 78.3 78.3 0 0 0-23.3 48.4 43.3 43.3 0 0 0-60.3 29.6h-5a43.1 43.1 0 0 0-36.1 19.6 43.3 43.3 0 0 0-40.2 43.4 43 43 0 0 0 41 42.6h406.6a43.2 43.2 0 0 0 41.4-43.2Z"/><path stroke="#fff" stroke-miterlimit="10" d="M1800 468.8a43.1 43.1 0 0 0-37.8-42.8 43 43 0 0 0-65-31.3 53 53 0 0 0-90.3-29.6 78.4 78.4 0 0 0-131-36.7 78.3 78.3 0 0 0-23.3 48.4 43.3 43.3 0 0 0-60.3 29.6h-5a43.1 43.1 0 0 0-36.1 19.6 43.3 43.3 0 0 0-40.2 43.4 43 43 0 0 0 41 42.6h406.6a43.2 43.2 0 0 0 41.4-43.2Zm-1051 360a43.2 43.2 0 0 0-37.8-42.8 43 43 0 0 0-65-31.3 53 53 0 0 0-65-43.8A53.1 53.1 0 0 0 556 725a78.3 78.3 0 0 0-82-58.9 78.6 78.6 0 0 0-72.3 70.6 43.2 43.2 0 0 0-60.3 29.6h-5a43.1 43.1 0 0 0-36.2 19.6 43.2 43.2 0 0 0-28 72.8c7.5 8 17.9 12.6 28.9 13.2h406.6a43.2 43.2 0 0 0 41.4-43.2Z"/><path stroke="#fff" stroke-miterlimit="10" d="M509 754.8a43.2 43.2 0 0 0-37.8-42.8 43 43 0 0 0-65-31.3 53 53 0 0 0-65-43.8A53.1 53.1 0 0 0 316 651a78.3 78.3 0 0 0-82-58.9 78.6 78.6 0 0 0-72.3 70.6 43.2 43.2 0 0 0-60.3 29.6h-5A43.1 43.1 0 0 0 60.1 712a43.2 43.2 0 0 0-28 72.8c7.5 8 17.9 12.6 28.9 13.2h406.6a43.2 43.2 0 0 0 41.4-43.2Z"/><path stroke="#fff" stroke-miterlimit="10" d="M497 588.8a43.2 43.2 0 0 0-37.8-42.8 43 43 0 0 0-65-31.3 53 53 0 0 0-65-43.8A53.1 53.1 0 0 0 304 485a78.3 78.3 0 0 0-82-58.9 78.6 78.6 0 0 0-72.3 70.6 43.2 43.2 0 0 0-60.3 29.6h-5A43.1 43.1 0 0 0 48.1 546a43.2 43.2 0 0 0-28 72.8c7.5 8 17.9 12.6 28.9 13.2h406.6a43.2 43.2 0 0 0 41.4-43.2Z"/><path stroke="#fff" stroke-miterlimit="10" d="M417 588.8a43.2 43.2 0 0 0-37.8-42.8 43 43 0 0 0-65-31.3 53 53 0 0 0-65-43.8A53.1 53.1 0 0 0 224 485a78.3 78.3 0 0 0-82-58.9 78.6 78.6 0 0 0-72.3 70.6 43.2 43.2 0 0 0-60.3 29.6h-5A43.1 43.1 0 0 0-31.9 546a43.2 43.2 0 0 0-28 72.8c7.5 8 17.9 12.6 28.9 13.2h406.6a43.2 43.2 0 0 0 41.4-43.2Z"/><path stroke="#fff" stroke-miterlimit="10" d="M417 734.8a43.2 43.2 0 0 0-37.8-42.8 43 43 0 0 0-65-31.3 53 53 0 0 0-65-43.8A53.1 53.1 0 0 0 224 631a78.3 78.3 0 0 0-82-58.9 78.6 78.6 0 0 0-72.3 70.6 43.2 43.2 0 0 0-60.3 29.6h-5A43.1 43.1 0 0 0-31.9 692a43.2 43.2 0 0 0-28 72.8c7.5 8 17.9 12.6 28.9 13.2h406.6a43.2 43.2 0 0 0 41.4-43.2Z"/><path stroke="#fff" stroke-miterlimit="10" d="M569 834.8a43.2 43.2 0 0 0-37.8-42.8 43 43 0 0 0-65-31.3 53 53 0 0 0-65-43.8A53.1 53.1 0 0 0 376 731a78.3 78.3 0 0 0-82-58.9 78.6 78.6 0 0 0-72.3 70.6 43.2 43.2 0 0 0-60.3 29.6h-5a43.1 43.1 0 0 0-36.2 19.6 43.2 43.2 0 0 0-28 72.8c7.5 8 17.9 12.6 28.9 13.2h406.6a43.2 43.2 0 0 0 41.4-43.2Z"/><path stroke="#fff" stroke-miterlimit="10" d="M709 976.8a43.2 43.2 0 0 0-37.8-42.8 43 43 0 0 0-65-31.3 53 53 0 0 0-65-43.8A53.1 53.1 0 0 0 516 873a78.3 78.3 0 0 0-82-58.9 78.6 78.6 0 0 0-72.3 70.6 43.2 43.2 0 0 0-60.3 29.6h-5a43.1 43.1 0 0 0-36.2 19.6 43.2 43.2 0 0 0-28 72.8c7.5 8 17.9 12.6 28.9 13.2h406.6a43.2 43.2 0 0 0 41.4-43.2Z"/><path stroke="#fff" stroke-miterlimit="10" d="M820 982.8a43.2 43.2 0 0 0-37.8-42.8 43 43 0 0 0-65-31.3 53 53 0 0 0-65-43.8A53.1 53.1 0 0 0 627 879a78.3 78.3 0 0 0-82-58.9 78.6 78.6 0 0 0-72.3 70.6 43.2 43.2 0 0 0-60.3 29.6h-5a43.1 43.1 0 0 0-36.2 19.6 43.2 43.2 0 0 0-28 72.8c7.5 8 17.9 12.6 28.9 13.2h406.6a43.2 43.2 0 0 0 41.4-43.2Z"/><path stroke="#fff" stroke-miterlimit="10" d="M712 1054.8a43.2 43.2 0 0 0-37.8-42.8 43 43 0 0 0-65-31.3 53 53 0 0 0-65-43.8A53.1 53.1 0 0 0 519 951a78.3 78.3 0 0 0-82-58.9 78.6 78.6 0 0 0-72.3 70.6 43.2 43.2 0 0 0-60.3 29.6h-5a43.1 43.1 0 0 0-36.2 19.6 43.2 43.2 0 0 0-28 72.8c7.5 8 17.9 12.6 28.9 13.2h406.6a43.2 43.2 0 0 0 41.4-43.2Z"/><path stroke="#fff" stroke-miterlimit="10" d="M518 928.8a43.2 43.2 0 0 0-37.8-42.8 43 43 0 0 0-65-31.3 53 53 0 0 0-65-43.8A53.1 53.1 0 0 0 325 825a78.3 78.3 0 0 0-82-58.9 78.6 78.6 0 0 0-72.3 70.6 43.2 43.2 0 0 0-60.3 29.6h-5A43.1 43.1 0 0 0 69.1 886a43.2 43.2 0 0 0-28 72.8c7.5 8 17.9 12.6 28.9 13.2h406.6a43.2 43.2 0 0 0 41.4-43.2Zm-152-568a43.2 43.2 0 0 0-37.8-42.8 43 43 0 0 0-65-31.3 53 53 0 0 0-65-43.8A53.1 53.1 0 0 0 173 257a78.3 78.3 0 0 0-82-58.9 78.6 78.6 0 0 0-72.3 70.6 43.2 43.2 0 0 0-60.3 29.6h-5A43.1 43.1 0 0 0-82.9 318a43.2 43.2 0 0 0-28 72.8c7.5 8 17.9 12.6 28.9 13.2h406.6a43.2 43.2 0 0 0 41.4-43.2Z"/><path stroke="#fff" stroke-miterlimit="10" d="M474 248.8a43.2 43.2 0 0 0-37.8-42.8 43 43 0 0 0-65-31.3 53 53 0 0 0-65-43.8A53.1 53.1 0 0 0 281 145a78.3 78.3 0 0 0-82-58.9 78.6 78.6 0 0 0-72.3 70.6 43.2 43.2 0 0 0-60.3 29.6h-5A43.1 43.1 0 0 0 25.1 206a43.2 43.2 0 0 0-28 72.8c7.5 8 17.9 12.6 28.9 13.2h406.6a43.2 43.2 0 0 0 41.4-43.2Z"/><path stroke="#fff" stroke-miterlimit="10" d="M834 163.8a43.2 43.2 0 0 0-37.8-42.8 43 43 0 0 0-65-31.3 53 53 0 0 0-65-43.8A53.2 53.2 0 0 0 641 60a78.3 78.3 0 0 0-82-58.9 78.6 78.6 0 0 0-72.3 70.6 43.2 43.2 0 0 0-60.3 29.6h-5a43.1 43.1 0 0 0-36.2 19.6 43.2 43.2 0 0 0-28 72.8c7.5 8 17.9 12.6 28.9 13.2h406.6a43.2 43.2 0 0 0 41.4-43.2Z"/><path stroke="#fff" stroke-miterlimit="10" d="M849 172.8a43.2 43.2 0 0 0-37.8-42.8 43 43 0 0 0-65-31.3 53 53 0 0 0-65-43.8A53.2 53.2 0 0 0 656 69a78.3 78.3 0 0 0-82-58.9 78.6 78.6 0 0 0-72.3 70.6 43.2 43.2 0 0 0-60.3 29.6h-5a43.1 43.1 0 0 0-36.2 19.6 43.2 43.2 0 0 0-28 72.8c7.5 8 17.9 12.6 28.9 13.2h406.6a43.2 43.2 0 0 0 41.4-43.2Z"/><path stroke="#fff" stroke-miterlimit="10" d="M911 194.8a43.2 43.2 0 0 0-37.8-42.8 43 43 0 0 0-65-31.3 53 53 0 0 0-65-43.8A53.2 53.2 0 0 0 718 91a78.3 78.3 0 0 0-82-58.9 78.6 78.6 0 0 0-72.3 70.6 43.2 43.2 0 0 0-60.3 29.6h-5a43.1 43.1 0 0 0-36.2 19.6 43.2 43.2 0 0 0-28 72.8c7.5 8 17.9 12.6 28.9 13.2h406.6a43.2 43.2 0 0 0 41.4-43.2Z"/><path stroke="#fff" stroke-miterlimit="10" d="M953 243.8a43.2 43.2 0 0 0-37.8-42.8 43 43 0 0 0-65-31.3 53 53 0 0 0-65-43.8A53.1 53.1 0 0 0 760 140a78.3 78.3 0 0 0-82-58.9 78.6 78.6 0 0 0-72.3 70.6 43.2 43.2 0 0 0-60.3 29.6h-5a43.1 43.1 0 0 0-36.2 19.6 43.2 43.2 0 0 0-28 72.8c7.5 8 17.9 12.6 28.9 13.2h406.6a43.2 43.2 0 0 0 41.4-43.2Z"/><path stroke="#fff" stroke-miterlimit="10" d="M1013 291.8a43.1 43.1 0 0 0-37.8-42.8 43 43 0 0 0-65-31.3 53 53 0 0 0-65-43.8A53.1 53.1 0 0 0 820 188a78.3 78.3 0 0 0-82-58.9 78.6 78.6 0 0 0-72.3 70.6 43.2 43.2 0 0 0-60.3 29.6h-5a43.1 43.1 0 0 0-36.2 19.6 43.2 43.2 0 0 0-28 72.8c7.5 8 17.9 12.6 28.9 13.2h406.6a43.2 43.2 0 0 0 41.4-43.2Z"/><path stroke="#fff" stroke-miterlimit="10" d="M1180 376.8a43.1 43.1 0 0 0-37.8-42.8 43 43 0 0 0-65-31.3 53 53 0 0 0-90.3-29.6 78.3 78.3 0 0 0-82-58.9 78.6 78.6 0 0 0-72.3 70.6 43.2 43.2 0 0 0-60.3 29.6h-5a43.1 43.1 0 0 0-36.2 19.6 43.2 43.2 0 0 0-28 72.8c7.5 8 17.9 12.6 28.9 13.2h406.6a43.2 43.2 0 0 0 41.4-43.2Z"/><path stroke="#fff" stroke-miterlimit="10" d="M1631 376.8a43.1 43.1 0 0 0-37.8-42.8 43 43 0 0 0-65-31.3 53 53 0 0 0-90.3-29.6 78.4 78.4 0 0 0-131-36.7 78.3 78.3 0 0 0-23.3 48.4 43.3 43.3 0 0 0-60.3 29.6h-5a43.1 43.1 0 0 0-36.1 19.6 43.3 43.3 0 0 0-40.2 43.4 43 43 0 0 0 41 42.6h406.6a43.2 43.2 0 0 0 41.4-43.2Z"/><path stroke="#fff" stroke-miterlimit="10" d="M1740 522.8a43.1 43.1 0 0 0-37.8-42.8 43 43 0 0 0-65-31.3 53 53 0 0 0-90.3-29.6 78.4 78.4 0 0 0-131-36.7 78.3 78.3 0 0 0-23.3 48.4 43.3 43.3 0 0 0-60.3 29.6h-5a43.1 43.1 0 0 0-36.1 19.6 43.3 43.3 0 0 0-40.2 43.4 43 43 0 0 0 41 42.6h406.6a43.2 43.2 0 0 0 41.4-43.2Z"/><path stroke="#fff" stroke-miterlimit="10" d="M1740 582.8a43.1 43.1 0 0 0-37.8-42.8 43 43 0 0 0-65-31.3 53 53 0 0 0-90.3-29.6 78.4 78.4 0 0 0-131-36.7 78.3 78.3 0 0 0-23.3 48.4 43.3 43.3 0 0 0-60.3 29.6h-5a43.1 43.1 0 0 0-36.1 19.6 43.3 43.3 0 0 0-40.2 43.4 43 43 0 0 0 41 42.6h406.6a43.2 43.2 0 0 0 41.4-43.2Z"/><path stroke="#fff" stroke-miterlimit="10" d="M1871 574.8a43.1 43.1 0 0 0-37.8-42.8 43 43 0 0 0-65-31.3 53 53 0 0 0-90.3-29.6 78.4 78.4 0 0 0-131-36.7 78.3 78.3 0 0 0-23.3 48.4 43.3 43.3 0 0 0-60.3 29.6h-5a43.1 43.1 0 0 0-36.1 19.6 43.3 43.3 0 0 0-40.2 43.4 43 43 0 0 0 41 42.6h406.6a43.2 43.2 0 0 0 41.4-43.2Z"/><path stroke="#fff" stroke-miterlimit="10" d="M1840 774.8a43.1 43.1 0 0 0-37.8-42.8 43 43 0 0 0-65-31.3 53 53 0 0 0-90.3-29.6 78.4 78.4 0 0 0-131-36.7 78.3 78.3 0 0 0-23.3 48.4 43.3 43.3 0 0 0-60.3 29.6h-5a43.1 43.1 0 0 0-36.1 19.6 43.3 43.3 0 0 0-40.2 43.4 43 43 0 0 0 41 42.6h406.6a43.2 43.2 0 0 0 41.4-43.2Zm-583 96a43.1 43.1 0 0 0-37.8-42.8 43 43 0 0 0-65-31.3 53 53 0 0 0-90.3-29.6 78.4 78.4 0 0 0-131-36.7 78.2 78.2 0 0 0-23.3 48.4 43.2 43.2 0 0 0-60.3 29.6h-5a43.1 43.1 0 0 0-36.2 19.6 43.2 43.2 0 0 0-28 72.8c7.5 8 17.9 12.6 28.9 13.2h406.6a43.2 43.2 0 0 0 41.4-43.2Z"/><path stroke="#fff" stroke-miterlimit="10" d="M1013 870.8a43.1 43.1 0 0 0-37.8-42.8 43 43 0 0 0-65-31.3 53 53 0 0 0-65-43.8A53.1 53.1 0 0 0 820 767a78.3 78.3 0 0 0-82-58.9 78.6 78.6 0 0 0-72.3 70.6 43.2 43.2 0 0 0-60.3 29.6h-5a43.1 43.1 0 0 0-36.2 19.6 43.2 43.2 0 0 0-28 72.8c7.5 8 17.9 12.6 28.9 13.2h406.6a43.2 43.2 0 0 0 41.4-43.2Zm-605-422a43.2 43.2 0 0 0-37.8-42.8 43 43 0 0 0-65-31.3 53 53 0 0 0-65-43.8A53.1 53.1 0 0 0 215 345a78.3 78.3 0 0 0-82-58.9 78.6 78.6 0 0 0-72.3 70.6A43.2 43.2 0 0 0 .3 386.4h-5A43.1 43.1 0 0 0-40.9 406a43.2 43.2 0 0 0-28 72.8c7.5 8 17.9 12.6 28.9 13.2h406.6a43.2 43.2 0 0 0 41.4-43.2Z"/><path stroke="#fff" stroke-miterlimit="10" d="M437 574.8a43.2 43.2 0 0 0-37.8-42.8 43 43 0 0 0-65-31.3 53 53 0 0 0-65-43.8A53.1 53.1 0 0 0 244 471a78.3 78.3 0 0 0-82-58.9 78.6 78.6 0 0 0-72.3 70.6 43.2 43.2 0 0 0-60.3 29.6h-5A43.1 43.1 0 0 0-11.9 532a43.2 43.2 0 0 0-28 72.8c7.5 8 17.9 12.6 28.9 13.2h406.6a43.2 43.2 0 0 0 41.4-43.2Z"/><path stroke="#fff" stroke-miterlimit="10" d="M437 528.8a43.2 43.2 0 0 0-37.8-42.8 43 43 0 0 0-65-31.3 53 53 0 0 0-65-43.8A53.1 53.1 0 0 0 244 425a78.3 78.3 0 0 0-82-58.9 78.6 78.6 0 0 0-72.3 70.6 43.2 43.2 0 0 0-60.3 29.6h-5A43.1 43.1 0 0 0-11.9 486a43.2 43.2 0 0 0-28 72.8c7.5 8 17.9 12.6 28.9 13.2h406.6a43.2 43.2 0 0 0 41.4-43.2Zm723 500a43.1 43.1 0 0 0-37.8-42.8 43 43 0 0 0-65-31.3 53 53 0 0 0-90.3-29.6 78.3 78.3 0 0 0-82-58.9 78.6 78.6 0 0 0-72.3 70.6 43.2 43.2 0 0 0-60.3 29.6h-5a43.1 43.1 0 0 0-36.2 19.6 43.2 43.2 0 0 0-28 72.8c7.5 8 17.9 12.6 28.9 13.2h406.6a43.2 43.2 0 0 0 41.4-43.2Z"/><path stroke="#fff" stroke-miterlimit="10" d="M1249 948.8a43.1 43.1 0 0 0-37.8-42.8 43 43 0 0 0-65-31.3 53 53 0 0 0-90.3-29.6 78.4 78.4 0 0 0-131-36.7 78.2 78.2 0 0 0-23.3 48.4 43.2 43.2 0 0 0-60.3 29.6h-5a43.1 43.1 0 0 0-36.2 19.6 43.2 43.2 0 0 0-28 72.8c7.5 8 17.9 12.6 28.9 13.2h406.6a43.2 43.2 0 0 0 41.4-43.2Z"/><path stroke="#fff" stroke-miterlimit="10" d="M1691 928.8a43.1 43.1 0 0 0-37.8-42.8 43 43 0 0 0-65-31.3 53 53 0 0 0-90.3-29.6 78.4 78.4 0 0 0-131-36.7 78.3 78.3 0 0 0-23.3 48.4 43.3 43.3 0 0 0-60.3 29.6h-5a43.1 43.1 0 0 0-36.1 19.6 43.3 43.3 0 0 0-40.2 43.4 43 43 0 0 0 41 42.6h406.6a43.2 43.2 0 0 0 41.4-43.2Z"/><path stroke="#fff" stroke-miterlimit="10" d="M1715 867.8a43.1 43.1 0 0 0-37.8-42.8 43 43 0 0 0-65-31.3 53 53 0 0 0-90.3-29.6 78.4 78.4 0 0 0-131-36.7 78.3 78.3 0 0 0-23.3 48.4 43.3 43.3 0 0 0-60.3 29.6h-5a43.1 43.1 0 0 0-36.1 19.6 43.3 43.3 0 0 0-40.2 43.4 43 43 0 0 0 41 42.6h406.6a43.2 43.2 0 0 0 41.4-43.2Z"/><path stroke="#fff" stroke-miterlimit="10" d="M1760 754.8a43.1 43.1 0 0 0-37.8-42.8 43 43 0 0 0-65-31.3 53 53 0 0 0-90.3-29.6 78.4 78.4 0 0 0-131-36.7 78.3 78.3 0 0 0-23.3 48.4 43.3 43.3 0 0 0-60.3 29.6h-5a43.1 43.1 0 0 0-36.1 19.6 43.3 43.3 0 0 0-40.2 43.4 43 43 0 0 0 41 42.6h406.6a43.2 43.2 0 0 0 41.4-43.2Z"/><path stroke="#fff" stroke-miterlimit="10" d="M1760 834.8a43.1 43.1 0 0 0-37.8-42.8 43 43 0 0 0-65-31.3 53 53 0 0 0-90.3-29.6 78.4 78.4 0 0 0-131-36.7 78.3 78.3 0 0 0-23.3 48.4 43.3 43.3 0 0 0-60.3 29.6h-5a43.1 43.1 0 0 0-36.1 19.6 43.3 43.3 0 0 0-40.2 43.4 43 43 0 0 0 41 42.6h406.6a43.2 43.2 0 0 0 41.4-43.2Z"/><path stroke="#fff" stroke-miterlimit="10" d="M1796 888.8a43.1 43.1 0 0 0-37.8-42.8 43 43 0 0 0-65-31.3 53 53 0 0 0-90.3-29.6 78.4 78.4 0 0 0-131-36.7 78.3 78.3 0 0 0-23.3 48.4 43.3 43.3 0 0 0-60.3 29.6h-5a43.1 43.1 0 0 0-36.1 19.6 43.3 43.3 0 0 0-40.2 43.4 43 43 0 0 0 41 42.6h406.6a43.2 43.2 0 0 0 41.4-43.2Z"/><path stroke="#fff" stroke-miterlimit="10" d="M1814 895.8a43.1 43.1 0 0 0-37.8-42.8 43 43 0 0 0-65-31.3 53 53 0 0 0-90.3-29.6 78.4 78.4 0 0 0-131-36.7 78.3 78.3 0 0 0-23.3 48.4 43.3 43.3 0 0 0-60.3 29.6h-5a43.1 43.1 0 0 0-36.1 19.6 43.3 43.3 0 0 0-40.2 43.4 43 43 0 0 0 41 42.6h406.6a43.2 43.2 0 0 0 41.4-43.2Z"/><path stroke="#fff" stroke-miterlimit="10" d="M1832 902.8a43.1 43.1 0 0 0-37.8-42.8 43 43 0 0 0-65-31.3 53 53 0 0 0-90.3-29.6 78.4 78.4 0 0 0-131-36.7 78.3 78.3 0 0 0-23.3 48.4 43.3 43.3 0 0 0-60.3 29.6h-5a43.1 43.1 0 0 0-36.1 19.6 43.3 43.3 0 0 0-40.2 43.4 43 43 0 0 0 41 42.6h406.6a43.2 43.2 0 0 0 41.4-43.2Z"/><path fill="#fff" d="m831.4 432.9-30.2 41.5 1.1 12.8h36V500h12.4v-12.8h7.9V475h-7.9v-42h-19.3Zm-15.9 42 22.8-31v31h-22.8Zm63.3-13.4c0-24.3 33.8-24 33.8 0v9.7a17 17 0 0 1-33.8 0v-9.7Zm-12.5 9.7c0 40.1 58.9 40 58.9 0v-9.7c0-40-59-40.1-59 0v9.7Zm97.1-38.3-30.2 41.5 1.1 12.8h36V500h12.4v-12.8h7.9V475h-7.9v-42h-19.3Zm-15.9 42 22.8-31v31h-22.8ZM674.9 582.5l-33-41.7h-10.2V608h12.6v-45.3l35.4 45.4v-.1h7.8v-67.3H675v41.8Zm56.8-43c-23.3 0-34.6 17.7-34.6 35.4 0 17.6 11 34.6 34.6 34.6s34.2-17.3 34.4-34.7c.2-17.6-11.3-35.3-34.4-35.3Zm0 11.5c15.8 0 22.1 12.6 22 24-.2 11-6.2 23-22 23-15.9 0-21.8-11.9-22.1-23-.3-11.3 6.2-24 22-24Zm57.2 57h12.7v-55.7h21.3v-11.5h-55.3v11.5h21.3V608Zm73.8 0v-24.9h33.7v-11.7h-33.7v-18.3h35.6v-12.2H850V608h12.7Zm78-68.5c-23.3 0-34.6 17.7-34.6 35.4 0 17.6 11 34.6 34.5 34.6 23.6 0 34.3-17.3 34.5-34.7.2-17.6-11.3-35.3-34.5-35.3Zm0 11.5c15.8 0 22.1 12.6 22 24-.3 11-6.2 23-22 23-16 0-21.9-11.9-22.1-23-.3-11.3 6.2-24 22-24Zm90-10.1v38.5c0 11.5-5.9 18.5-16.3 18.5-10.5 0-17.4-6.4-17.4-18.5v-38.5h-12.6v38.5c0 20.2 13.8 30 29.9 30 16.9 0 29-10.1 29-30v-38.5h-12.5Zm69.2 41.6-32.9-41.7h-10.3V608h12.7v-45.3l35.3 45.4v-.1h7.9v-67.3h-12.7v41.8Zm49.8-41.7h-26.4V608h26.4c23.6 0 34-17.2 33.6-34.2-.3-16.6-10.5-33-33.6-33Zm-13.8 12h13.8c14.6 0 20.8 10.5 21 21 .3 10.9-5.7 22-21 22H1136v-43Z"/></svg>