<svg xmlns="http://www.w3.org/2000/svg" width="1555" height="437" fill="none"><path fill="#7BADD5" stroke="#fff" stroke-miterlimit="10" d="M463 410a25 25 0 0 0-22-24 25 25 0 0 0-37-18 30 30 0 0 0-51-17 45 45 0 0 0-88 7c-3-2-7-3-11-3a25 25 0 0 0-24 19h-2a25 25 0 0 0-21 12 25 25 0 0 0 0 49h232a25 25 0 0 0 24-25Z"/><path stroke="#fff" stroke-miterlimit="10" d="M379 401v36M355 425v9M314 414v22M267 405v30M230 436v-12"/><path fill="#7BADD5" stroke="#fff" stroke-miterlimit="10" d="M397 396a6 6 0 1 0 0-12 6 6 0 0 0 0 12ZM323 394a6 6 0 1 0 0-11 6 6 0 0 0 0 11ZM367 396a6 6 0 1 0 0-12 6 6 0 0 0 0 12ZM267 405a6 6 0 1 0 0-12 6 6 0 0 0 0 12ZM230 424a6 6 0 1 0 0-11 6 6 0 0 0 0 11ZM267 369a6 6 0 1 0 0-11 6 6 0 0 0 0 11Z"/><path fill="#7BADD5" d="M324 386a21 21 0 0 1 43 0"/><path stroke="#fff" stroke-miterlimit="10" d="M324 386a21 21 0 0 1 43 0M353 350l-3 15M405 368c-6 4-8 10-8 18M425 435a24 24 0 0 1 23-24M206 386a24 24 0 0 1 24 23"/><path fill="#7BADD5" stroke="#fff" stroke-miterlimit="10" d="M294 273a25 25 0 0 0-22-24 25 25 0 0 0-37-18 30 30 0 0 0-51-17 45 45 0 0 0-88 7c-3-2-7-3-11-3a25 25 0 0 0-24 19h-2a25 25 0 0 0-21 12 25 25 0 0 0 0 49h232a25 25 0 0 0 24-25Z"/><path stroke="#fff" stroke-miterlimit="10" d="M210 264v36M186 288v9M145 277v22M98 268v30M61 299v-12"/><path fill="#7BADD5" stroke="#fff" stroke-miterlimit="10" d="M228 259a6 6 0 1 0 0-12 6 6 0 0 0 0 12ZM154 257a6 6 0 1 0 0-11 6 6 0 0 0 0 11ZM198 259a6 6 0 1 0 0-12 6 6 0 0 0 0 12ZM98 268a6 6 0 1 0 0-12 6 6 0 0 0 0 12ZM61 287a6 6 0 1 0 0-11 6 6 0 0 0 0 11ZM98 232a6 6 0 1 0 0-11 6 6 0 0 0 0 11Z"/><path fill="#7BADD5" d="M155 249a21 21 0 0 1 43 0"/><path stroke="#fff" stroke-miterlimit="10" d="M155 249a21 21 0 0 1 43 0M184 213l-3 15M236 231c-6 4-8 10-8 18M256 298a24 24 0 0 1 23-24M37 249a24 24 0 0 1 24 23"/><path fill="#7BADD5" stroke="#fff" stroke-miterlimit="10" d="M457 236a25 25 0 0 0-22-24 25 25 0 0 0-37-18 30 30 0 0 0-51-17 45 45 0 0 0-88 7c-3-2-7-3-11-3a25 25 0 0 0-24 19h-2a25 25 0 0 0-21 12 25 25 0 0 0 0 49h232a25 25 0 0 0 24-25Z"/><path stroke="#fff" stroke-miterlimit="10" d="M373 227v36M349 251v9M308 240v22M261 231v30M224 262v-12"/><path fill="#7BADD5" stroke="#fff" stroke-miterlimit="10" d="M391 222a6 6 0 1 0 0-12 6 6 0 0 0 0 12ZM317 220a6 6 0 1 0 0-11 6 6 0 0 0 0 11ZM361 222a6 6 0 1 0 0-12 6 6 0 0 0 0 12ZM261 231a6 6 0 1 0 0-12 6 6 0 0 0 0 12ZM224 250a6 6 0 1 0 0-11 6 6 0 0 0 0 11ZM261 195a6 6 0 1 0 0-11 6 6 0 0 0 0 11Z"/><path fill="#7BADD5" d="M318 212a21 21 0 0 1 43 0"/><path stroke="#fff" stroke-miterlimit="10" d="M318 212a21 21 0 0 1 43 0M347 176l-3 15M399 194c-6 4-8 10-8 18M419 261a24 24 0 0 1 23-24M200 212a24 24 0 0 1 24 23"/><path fill="#7BADD5" stroke="#fff" stroke-miterlimit="10" d="M280 173a25 25 0 0 0-22-24 25 25 0 0 0-37-18 30 30 0 0 0-51-17 45 45 0 0 0-88 7c-3-2-7-3-11-3a25 25 0 0 0-24 19h-2a25 25 0 0 0-21 12 25 25 0 0 0 0 49h232a25 25 0 0 0 24-25Z"/><path stroke="#fff" stroke-miterlimit="10" d="M196 164v36M172 188v9M131 177v22M84 168v30M47 199v-12"/><path fill="#7BADD5" stroke="#fff" stroke-miterlimit="10" d="M214 159a6 6 0 1 0 0-12 6 6 0 0 0 0 12ZM140 157a6 6 0 1 0 0-11 6 6 0 0 0 0 11ZM184 159a6 6 0 1 0 0-12 6 6 0 0 0 0 12ZM84 168a6 6 0 1 0 0-12 6 6 0 0 0 0 12ZM47 187a6 6 0 1 0 0-11 6 6 0 0 0 0 11ZM84 132a6 6 0 1 0 0-11 6 6 0 0 0 0 11Z"/><path fill="#7BADD5" d="M141 149a21 21 0 0 1 43 0"/><path stroke="#fff" stroke-miterlimit="10" d="M141 149a21 21 0 0 1 43 0M170 113l-3 15M222 131c-6 4-8 10-8 18M242 198a24 24 0 0 1 23-24M23 149a24 24 0 0 1 24 23"/><path fill="#7BADD5" stroke="#fff" stroke-miterlimit="10" d="M1358 94a25 25 0 0 0-22-24 25 25 0 0 0-37-18 30 30 0 0 0-51-17 45 45 0 0 0-88 7c-3-2-7-3-11-3a25 25 0 0 0-24 19h-2a25 25 0 0 0-21 12 25 25 0 0 0 0 49h232a25 25 0 0 0 24-25Z"/><path stroke="#fff" stroke-miterlimit="10" d="M1274 85v36M1250 109v9M1209 98v22M1162 89v30M1125 120v-12"/><path fill="#7BADD5" stroke="#fff" stroke-miterlimit="10" d="M1292 80a6 6 0 1 0 0-12 6 6 0 0 0 0 12ZM1218 78a6 6 0 1 0 0-11 6 6 0 0 0 0 11ZM1262 80a6 6 0 1 0 0-12 6 6 0 0 0 0 12ZM1162 89a6 6 0 1 0 0-12 6 6 0 0 0 0 12ZM1125 108a6 6 0 1 0 0-11 6 6 0 0 0 0 11ZM1162 53a6 6 0 1 0 0-11 6 6 0 0 0 0 11Z"/><path fill="#7BADD5" d="M1219 70a21 21 0 0 1 43 0"/><path stroke="#fff" stroke-miterlimit="10" d="M1219 70a21 21 0 0 1 43 0M1248 34l-3 15M1300 52c-6 4-8 10-8 18M1320 119a24 24 0 0 1 23-24M1101 70a24 24 0 0 1 24 23"/><path fill="#7BADD5" stroke="#fff" stroke-miterlimit="10" d="M1497 170a25 25 0 0 0-22-24 25 25 0 0 0-37-18 30 30 0 0 0-51-17 45 45 0 0 0-88 7c-3-2-7-3-11-3a25 25 0 0 0-24 19h-2a25 25 0 0 0-21 12 25 25 0 0 0 0 49h232a25 25 0 0 0 24-25Z"/><path stroke="#fff" stroke-miterlimit="10" d="M1413 161v36M1389 185v9M1348 174v22M1301 165v30M1264 196v-12"/><path fill="#7BADD5" stroke="#fff" stroke-miterlimit="10" d="M1431 156a6 6 0 1 0 0-12 6 6 0 0 0 0 12ZM1357 154a6 6 0 1 0 0-11 6 6 0 0 0 0 11ZM1401 156a6 6 0 1 0 0-12 6 6 0 0 0 0 12ZM1301 165a6 6 0 1 0 0-12 6 6 0 0 0 0 12ZM1264 184a6 6 0 1 0 0-11 6 6 0 0 0 0 11ZM1301 129a6 6 0 1 0 0-11 6 6 0 0 0 0 11Z"/><path fill="#7BADD5" d="M1358 146a21 21 0 0 1 43 0"/><path stroke="#fff" stroke-miterlimit="10" d="M1358 146a21 21 0 0 1 43 0M1387 110l-3 15M1439 128c-6 4-8 10-8 18M1459 195a24 24 0 0 1 23-24M1240 146a24 24 0 0 1 24 23"/><path fill="#7BADD5" stroke="#fff" stroke-miterlimit="10" d="M1416 302a25 25 0 0 0-22-24 25 25 0 0 0-37-18 30 30 0 0 0-51-17 45 45 0 0 0-88 7c-3-2-7-3-11-3a25 25 0 0 0-24 19h-2a25 25 0 0 0-21 12 25 25 0 0 0 0 49h232a25 25 0 0 0 24-25Z"/><path stroke="#fff" stroke-miterlimit="10" d="M1332 293v36M1308 317v9M1267 306v22M1220 297v30M1183 328v-12"/><path fill="#7BADD5" stroke="#fff" stroke-miterlimit="10" d="M1350 288a6 6 0 1 0 0-12 6 6 0 0 0 0 12ZM1276 286a6 6 0 1 0 0-11 6 6 0 0 0 0 11ZM1320 288a6 6 0 1 0 0-12 6 6 0 0 0 0 12ZM1220 297a6 6 0 1 0 0-12 6 6 0 0 0 0 12ZM1183 316a6 6 0 1 0 0-11 6 6 0 0 0 0 11ZM1220 261a6 6 0 1 0 0-11 6 6 0 0 0 0 11Z"/><path fill="#7BADD5" d="M1277 278a21 21 0 0 1 43 0"/><path stroke="#fff" stroke-miterlimit="10" d="M1277 278a21 21 0 0 1 43 0M1306 242l-3 15M1358 260c-6 4-8 10-8 18M1378 327a24 24 0 0 1 23-24M1159 278a24 24 0 0 1 24 23"/><path fill="#7BADD5" stroke="#fff" stroke-miterlimit="10" d="M1554 349a25 25 0 0 0-22-24 25 25 0 0 0-37-18 30 30 0 0 0-51-17 45 45 0 0 0-88 7c-3-2-7-3-11-3a25 25 0 0 0-24 19h-2a25 25 0 0 0-21 12 25 25 0 0 0 0 49h232a25 25 0 0 0 24-25Z"/><path stroke="#fff" stroke-miterlimit="10" d="M1470 340v36M1446 364v9M1405 353v22M1358 344v30M1321 375v-12"/><path fill="#7BADD5" stroke="#fff" stroke-miterlimit="10" d="M1488 335a6 6 0 1 0 0-12 6 6 0 0 0 0 12ZM1414 333a6 6 0 1 0 0-11 6 6 0 0 0 0 11ZM1458 335a6 6 0 1 0 0-12 6 6 0 0 0 0 12ZM1358 344a6 6 0 1 0 0-12 6 6 0 0 0 0 12ZM1321 363a6 6 0 1 0 0-11 6 6 0 0 0 0 11ZM1358 308a6 6 0 1 0 0-11 6 6 0 0 0 0 11Z"/><path fill="#7BADD5" d="M1415 325a21 21 0 0 1 43 0"/><path stroke="#fff" stroke-miterlimit="10" d="M1415 325a21 21 0 0 1 43 0M1444 289l-3 15M1496 307c-6 4-8 10-8 18M1516 374a24 24 0 0 1 23-24M1297 325a24 24 0 0 1 24 23"/><path fill="#7BADD5" stroke="#fff" stroke-miterlimit="10" d="M355 326a25 25 0 0 0-22-24 25 25 0 0 0-37-18 30 30 0 0 0-51-17 45 45 0 0 0-88 7c-3-2-7-3-11-3a25 25 0 0 0-24 19h-2a25 25 0 0 0-21 12 25 25 0 0 0 0 49h232a25 25 0 0 0 24-25Z"/><path stroke="#fff" stroke-miterlimit="10" d="M271 317v36M247 341v9M206 330v22M159 321v30M122 352v-12"/><path fill="#7BADD5" stroke="#fff" stroke-miterlimit="10" d="M289 312a6 6 0 1 0 0-12 6 6 0 0 0 0 12ZM215 310a6 6 0 1 0 0-11 6 6 0 0 0 0 11ZM259 312a6 6 0 1 0 0-12 6 6 0 0 0 0 12ZM159 321a6 6 0 1 0 0-12 6 6 0 0 0 0 12ZM122 340a6 6 0 1 0 0-11 6 6 0 0 0 0 11ZM159 285a6 6 0 1 0 0-11 6 6 0 0 0 0 11Z"/><path fill="#7BADD5" d="M216 302a21 21 0 0 1 43 0"/><path stroke="#fff" stroke-miterlimit="10" d="M216 302a21 21 0 0 1 43 0M245 266l-3 15M297 284c-6 4-8 10-8 18M317 351a24 24 0 0 1 23-24M98 302a24 24 0 0 1 24 23"/></svg>