<svg xmlns="http://www.w3.org/2000/svg" xmlns:xlink="http://www.w3.org/1999/xlink" width="940" height="92" fill="none"><defs><path id="reuse-0" fill="#fff" d="M85.454 31.323c0-1.251 1.077-2.098 2.385-2.098h11.925c1.308 0 2.424.883 2.424 2.098"/><path id="reuse-1" stroke="#fff" stroke-miterlimit="10" stroke-width=".5" d="M85.454 31.323c0-1.251 1.077-2.098 2.385-2.098h11.925c1.308 0 2.424.883 2.424 2.098"/></defs><path fill="#fff" stroke="#fff" stroke-miterlimit="10" stroke-width=".5" d="M178.586 43.317h-22.735c-7.963 0-7.54-7.469-7.54-7.469h-20.619c-12.349-14.9-29.929-14.68-29.929-14.68v-1.913c0-2.65-3.654-2.613-3.654-2.613-3.309 0-3.963 2.613-3.963 2.613v1.729c-19.273 0-30.698 14.864-30.698 14.864H40.483c-.346 6.954-8.117 7.358-8.117 7.358H11.285c.923 7.69-10.348 6.402-10.348 6.402-.231 0 0 34.365 0 34.365 9.348 0 9.31 7.027 9.31 7.027h167.839c0-7.322 9.079-6.623 9.079-6.623V49.792c-9.886-.036-8.579-6.475-8.579-6.475Z"/><path fill="#000" d="M64.68 86.29c.461-.037.77-.147.884-.257.116-.148.193-.442.193-.92v-5.114c0-.405-.077-.7-.193-.81-.115-.11-.423-.22-.846-.257v-.221h3.424c.692 0 1.308.073 1.77.258.884.33 1.346.92 1.346 1.802 0 .589-.192 1.03-.616 1.362-.384.33-.961.515-1.615.625l2.539 2.98c.153.184.307.332.461.405.154.074.347.147.616.147v.221h-2l-3.078-3.642-.539.036v2.318c0 .442.077.7.193.847.154.11.423.183.923.22v.221h-3.424l-.038-.22Zm4.193-4.12c.654-.258 1-.736 1-1.436 0-.698-.308-1.14-.885-1.398-.308-.147-.73-.183-1.23-.183-.347 0-.578.036-.655.073-.077.037-.115.147-.115.331v2.907c.885-.037 1.5-.147 1.885-.295ZM75.375 86.29c.462-.037.73-.11.885-.22.115-.111.192-.369.192-.81v-5.261c0-.405-.077-.7-.192-.81-.116-.11-.423-.22-.885-.22v-.221h6.54l.038 1.692h-.308c-.115-.515-.269-.846-.461-.993-.192-.148-.693-.221-1.385-.221h-1.693c-.192 0-.307.037-.346.073-.038.074-.077.148-.077.332v2.649h1.885c.539 0 .846-.074 1-.221.154-.147.27-.442.347-.92h.307v2.723h-.307c-.077-.442-.193-.773-.347-.92-.154-.147-.461-.22-1-.22h-1.846v2.906c0 .22.077.368.23.404.154.037.616.074 1.385.074.847 0 1.462-.074 1.847-.257.385-.184.77-.59 1.077-1.288h.346l-.577 1.986h-6.655v-.257ZM85.415 86.51v-.22c.308-.037.539-.147.73-.331.155-.184.424-.736.809-1.583L89.53 78.6h.231l3.078 6.696c.192.442.384.7.5.81.115.11.346.184.615.22v.221h-3.154v-.257c.346-.037.577-.074.692-.11.116-.037.154-.148.154-.332 0-.073-.038-.147-.077-.294-.038-.147-.115-.294-.154-.442l-.5-1.14h-3.27c-.308.772-.5 1.25-.577 1.398-.077.184-.077.294-.077.405 0 .184.077.33.27.404.115.037.307.074.577.11v.221h-2.424Zm5.309-3.053L89.3 80.219l-1.423 3.238h2.847ZM96.763 86.29c.461-.037.73-.11.884-.22.116-.111.193-.369.193-.81v-5.261c0-.405-.077-.7-.193-.81-.115-.11-.423-.22-.884-.22v-.221h3.5v.22c-.461.037-.769.11-.923.221-.154.11-.23.368-.23.773v5.592c0 .147.038.22.076.294.039.074.154.11.308.148.077 0 .192.037.308.037h.577c1.115 0 1.846-.074 2.231-.258.385-.184.769-.626 1.116-1.325h.307l-.615 2.06h-6.655v-.22ZM105.726 78.674h6.963l.077 1.987h-.308c-.154-.626-.346-1.03-.538-1.215-.193-.183-.693-.294-1.424-.294h-.692v6.034c0 .442.077.736.231.846.154.11.461.184.962.221v.22h-3.578v-.183c.539-.037.846-.11.962-.258.115-.11.192-.441.192-.956v-5.887h-.692c-.693 0-1.154.11-1.385.294-.231.184-.423.589-.539 1.251h-.308l.077-2.06ZM119.191 78.674v.22c-.308 0-.5 0-.654.074-.154.074-.231.147-.231.331 0 .037 0 .11.038.184.039.074.077.184.154.295l1.808 2.538 1.77-2.575c.077-.11.115-.22.154-.294a.271.271 0 0 0 .038-.148c0-.184-.077-.294-.269-.33-.116-.038-.308-.038-.577-.074v-.221h2.693v.22c-.231 0-.462.074-.654.221-.308.221-.654.589-1.039 1.14l-1.808 2.65v2.281c0 .442.077.736.231.846.154.11.5.184 1.038.221v.22h-3.769v-.183c.577-.037.923-.11 1.038-.22.116-.111.193-.442.193-.957v-2.06l-1.616-2.282c-.577-.773-.962-1.288-1.193-1.508-.23-.221-.5-.332-.807-.368v-.221h3.462Z"/><path stroke="#000" stroke-miterlimit="10" stroke-width=".5" d="M127.846 82.132h35.699M24.749 82.132h35.7"/><path fill="#000" d="m124.999 68.261-4.116-7.542h1.808c2.308 0 2.538-2.944 2.538-2.944v-4.378c0-3.127-3.077-3.017-3.077-3.017h-7.386v1.067c.846 0 1.539.662 1.539 1.472v14.79c0 .847-.693 1.509-1.577 1.509v1.104h4.577v-1.104c-.923 0-1.654-.7-1.654-1.582v-6.844h1.77l4.77 8.426h-.577v1.067h3v-1.067c-.654 0-1.308-.368-1.615-.957Zm-7.309-8.683v-7.69h4.347s1.577.295 1.577 1.803v4.121s-.269 1.803-1.885 1.803-4.039-.037-4.039-.037ZM111.958 68.261l-4.116-7.542h1.808c2.308 0 2.539-2.944 2.539-2.944v-4.378c0-3.127-3.078-3.017-3.078-3.017h-7.386v1.067c.846 0 1.539.662 1.539 1.472v14.79c0 .847-.693 1.509-1.577 1.509v1.104h4.577v-1.104c-.923 0-1.654-.7-1.654-1.582v-6.844h1.77l4.77 8.426h-.577v1.067h3v-1.067a1.803 1.803 0 0 1-1.615-.957Zm-7.348-8.683v-7.69h4.347s1.577.295 1.577 1.803v4.121s-.269 1.803-1.885 1.803c-1.615 0-4.039-.037-4.039-.037ZM70.412 50.306v1.25h1.577V69.07h-1.654v1.251h4.309v-1.03h-1.655V53.654l4.155 12.325h.73l4.002-12.288v15.6h-1.424v.993h4.617v-.993h-1.616V51.483h1.692v-1.177h-3.692l-3.809 11.553h-.346l-3.5-11.48s-3.31-.073-3.386-.073ZM48.791 50.306v.957c.462 0 .847.367.847.809v16.667h-1.193v.956h3.347v-.882h-1.077V52.587c0-.037.038-.037.038 0l7.348 12.325v3.753h-1.154v.883h3.385v-.956H59.14V52.477c0-.663.538-1.178 1.23-1.178v-.993h-3.038v.883c.423 0 .769.331.769.736v8.572l-6.155-10.191c-.038 0-3.154.074-3.154 0ZM162.352 50.307v1.398c.654 0 1.192.515 1.192 1.14v23.731h-1.692v1.399h4.77v-1.251h-1.539V53.618c0-.037.077-.074.077-.037l10.464 17.55v5.335h-1.732v1.251h4.809v-1.361h-1.731V53.397c0-.92.808-1.692 1.77-1.692v-1.398h-4.309v1.25c.577 0 1.077.479 1.077 1.03v12.216l-8.771-14.533c.077.037-4.385.147-4.385.037ZM132.192 70.285v-1.214h-.5c-.615 0-.961.037-.961-1.177v-15.38c0-1.03.769-1.067 1.461-1.067h.116v-1.214h-4.809v1.215h.5c.616 0 .962.036.962 1.177v15.38c0 1.177-.769 1.066-1.462 1.066h-.115v1.214h4.808ZM93.378 50.233c-3.539 0-6.424 4.636-6.424 10.34 0 5.702 2.885 10.338 6.424 10.338 3.54 0 6.425-4.636 6.425-10.339 0-5.74-2.847-10.339-6.425-10.339Zm0 19.059c-2.615 0-4.77-3.863-4.77-8.646 0-4.783 2.116-8.647 4.77-8.647 2.655 0 4.77 3.864 4.77 8.647s-2.115 8.646-4.77 8.646ZM46.907 73.891v-1.435h-.615c-.731 0-1.154.074-1.154-1.398V52.919c0-1.214.885-1.287 1.73-1.287h.116v-1.399h-5.693v1.435h.615c.731 0 1.154.074 1.154 1.398v18.14c0 1.397-.884 1.287-1.73 1.287h-.116v1.435l5.693-.037ZM13.209 50.27v1.582h.115c.962 0 1.808.662 2 1.545l5.386 24.577 1.924.074 3.923-16.226 3.77 16.226h2.232l5.5-25.056c.154-.772.885-1.361 1.732-1.361h.115V50.27h-5.693v1.508h.615c.731 0 1.308.626 1.154 1.325l-4.039 19.684-4.5-19.684c-.155-.736.422-1.398 1.192-1.398h1.115v-1.399h-6.77v1.509h.461c.577 0 1.077.405 1.193.92l1.115 5.74-3.5 14.348-4.386-19.757c-.154-.662.385-1.325 1.116-1.325h1.192v-1.398c-.076.037-7.116-.22-6.962-.073ZM139.002 69.219c3.77.147 4.54-4.416 1.924-6.807-2.616-2.392-7.078-1.84-6.732-7.69.346-5.85 6.347-5.224 7.424-3.238v-1.287h1.693v6.475h-.462s-.23-5.114-4.308-5.114c-4.078 0-3.77 5.225.269 6.807 4.232 1.655 5.578 4.93 5.155 7.69-.423 2.759-1.77 4.598-4.886 4.709-3.154.147-3.231-2.171-3.231-2.171v2.244h-1.193v-7.763h.693s-.423 5.997 3.654 6.145ZM153.62 49.718c-4.04 0-7.309 5.261-7.309 11.737 0 6.475 3.269 11.736 7.309 11.736 4.039 0 7.309-5.26 7.309-11.736.038-6.476-3.232-11.737-7.309-11.737Zm0 21.707c-3.001 0-5.424-4.415-5.424-9.86 0-5.445 2.423-9.86 5.424-9.86 3 0 5.424 4.415 5.424 9.86 0 5.445-2.424 9.86-5.424 9.86Z"/><path fill="#fff" stroke="#fff" stroke-miterlimit="10" stroke-width=".5" d="M101.996 36.915v-3.973H85.069c-.038 0 0 3.973 0 3.973H83.3v1.95h4.617V36.4c.039-.625.423-1.214.846-1.655a2.731 2.731 0 0 1 1.808-.663h6.771c.654 0 1.308.258 1.808.663.5.441.808 1.03.846 1.655v2.465h3.693v-1.95h-1.692Z"/><path fill="#fff" stroke="#fff" stroke-miterlimit="10" stroke-width=".5" d="M104.074 31.36H83.57v1.656h20.504V31.36Z"/><use xlink:href="#reuse-0"/><use xlink:href="#reuse-1" stroke-miterlimit="10" stroke-width=".5"/><use xlink:href="#reuse-0"/><use xlink:href="#reuse-1" stroke-miterlimit="10" stroke-width=".5"/><path fill="#fff" stroke="#fff" stroke-miterlimit="10" stroke-width=".5" d="M99.265 27.091H88.378v2.134h10.887v-2.134Z"/><path fill="#fff" stroke="#fff" stroke-miterlimit="10" stroke-width=".5" d="M100.111 25.472h-12.54v1.656h12.54v-1.656ZM99.418 12.485H88.685v12.951h10.733v-12.95Z"/><path fill="#fff" stroke="#fff" stroke-miterlimit="10" stroke-width=".5" d="M97.033 18.74h-5.886c-.616 0-1.116.441-1.116 1.03v3.201c0 .589.5 1.03 1.077 1.03h5.886c.616 0 1.116-.441 1.116-1.03v-3.2c0-.553-.462-1.031-1.077-1.031Z"/><path fill="#fff" stroke="#fff" stroke-miterlimit="10" stroke-width=".5" d="M95.148 19.99h-2.116c-.307 0-.5.185-.5.48v1.802c0 .258.193.478.5.478h2.116c.308 0 .5-.184.5-.478v-1.803a.497.497 0 0 0-.5-.478ZM96.11 16.973h-4.116v1.73h4.116v-1.73Z"/><path fill="#fff" stroke="#fff" stroke-miterlimit="10" stroke-width=".5" d="M96.034 13.884h-3.886c-.923 0-1.654.662-1.654 1.545 0 .883.77 1.545 1.654 1.545h3.886c.923 0 1.654-.662 1.654-1.545 0-.846-.77-1.545-1.654-1.545ZM100.419 11.528c0 .257-.116.478-.308.662a.632.632 0 0 1-.346.184c-.116.037-.27.11-.423.11H88.609c-.27-.037-.5-.147-.654-.33-.154-.185-.27-.442-.27-.663 0-.22.116-.478.27-.662.154-.184.423-.295.654-.331h10.733c.269 0 .538.11.692.294.269.257.385.478.385.736Z"/><path fill="#fff" d="M90.3 10.572V9.137c0-1.362 1.155-3.422 2.617-3.422h2.27c1.423 0 2.615 2.097 2.615 3.422v1.435"/><path stroke="#fff" stroke-miterlimit="10" stroke-width=".5" d="M90.3 10.572V9.137c0-1.362 1.155-3.422 2.617-3.422h2.27c1.423 0 2.615 2.097 2.615 3.422v1.435"/><path fill="#fff" d="M90.3 9.1h7.502-7.501Z"/><path stroke="#fff" stroke-miterlimit="10" stroke-width=".5" d="M90.3 9.1h7.502"/><path fill="#fff" d="m474.724 39.326-7.602-.457-.362-1.097c1.72-.824 3.711-1.372 5.249-2.195 3.529-2.012 3.801-2.287 4.253-4.573 1.177-5.854 2.263-11.615 5.702-16.92 4.796-7.682 11.583-9.42 20.271-8.231 0 1.28.09 2.652.181 4.847l-7.692-1.28c-3.258-.549-6.426-.915-7.602 3.292-1.81 6.677-3.529 13.536-5.249 20.212a13.723 13.723 0 0 1 6.154 1.28c1.176.367 2.624.64 3.258 1.556a16.753 16.753 0 0 1-4.254.365c-5.882-.274-5.882 1.372-6.877 6.86-1.81 9.511-2.806 19.663-6.335 28.717-1.358 3.293-.905 2.378-4.525 11.34-.452 1.098-3.529 6.403-4.615 7.135 3.439-17.194 6.696-33.84 10.045-50.85ZM297.712 44.174v1.738a7.559 7.559 0 0 1 5.43-2.104 5.65 5.65 0 0 1 2.627.567 5.707 5.707 0 0 1 2.079 1.72 10.135 10.135 0 0 1 1.719 6.219 10.31 10.31 0 0 1-2.172 6.402 6.358 6.358 0 0 1-2.274 2.079 6.282 6.282 0 0 1-2.974.756 8.633 8.633 0 0 1-5.249-1.92 8.272 8.272 0 0 1-2.353 2.194 1.259 1.259 0 0 1-.609-.274 1.289 1.289 0 0 1-.387-.549 8.385 8.385 0 0 0 1.177-4.116v-20.12l-2.805-.549a4.034 4.034 0 0 1-.181-1.372 18.564 18.564 0 0 1 5.791-1.28l.362.274c-.09 3.201-.181 6.677-.181 10.335Zm4.435 2.103a8.628 8.628 0 0 0-4.435 1.555v9.146a6.792 6.792 0 0 0 2.221 1.604c.84.378 1.747.578 2.666.59l1.267-.182.905-.457a8.103 8.103 0 0 0 1.81-5.213 9.5 9.5 0 0 0-1.176-4.94 3.741 3.741 0 0 0-1.337-1.514 3.68 3.68 0 0 0-1.921-.589ZM314.363 55.697v-9.146a14.338 14.338 0 0 0-2.715-.731 8.355 8.355 0 0 1 .181-1.647h5.34l.271.275v9.877c0 3.11.905 4.573 2.715 4.573a5.128 5.128 0 0 0 2.444-.823 17.9 17.9 0 0 0 2.352-1.92V46.55l-2.714-.731a4.603 4.603 0 0 1 .181-1.647h5.339l.271.275c0 2.378-.09 5.853-.09 10.334v1.28c-.004.949.057 1.896.181 2.836l2.262-.549c.341.338.536.798.543 1.28a6.414 6.414 0 0 1-1.991 1.373 4.752 4.752 0 0 1-2.081.457c-.453 0-.815-.275-1.086-1.006a8.11 8.11 0 0 1-.724-2.378 17.36 17.36 0 0 1-2.805 2.56 5.66 5.66 0 0 1-2.987.824c-3.258.091-4.887-1.83-4.887-5.762ZM335.178 56.43V46.368l-2.624-.458a2.68 2.68 0 0 1-.091-1.463c.889-.224 1.8-.346 2.715-.366l1.177-4.938a5.286 5.286 0 0 1 1.81.183v4.755h5.61a15.22 15.22 0 0 1-.181 2.195h-5.429v8.689c0 2.652.543 4.024 1.719 4.024a10.492 10.492 0 0 0 3.529-.823 2.58 2.58 0 0 1 .543 1.646 10.685 10.685 0 0 1-5.52 1.646 2.51 2.51 0 0 1-1.377-.196 2.54 2.54 0 0 1-1.066-.901 7.66 7.66 0 0 1-.815-3.933ZM347.576 56.43V46.368l-2.625-.458a3.9 3.9 0 0 1-.09-1.463 12.178 12.178 0 0 1 2.715-.366l1.176-4.938a5.281 5.281 0 0 1 1.81.183v4.755h5.611a15.363 15.363 0 0 1-.181 2.195h-5.43v8.689c0 2.652.634 4.024 1.72 4.024a9.683 9.683 0 0 0 3.529-.823c.391.46.615 1.04.634 1.646a10.959 10.959 0 0 1-5.521 1.646 2.69 2.69 0 0 1-1.415-.2 2.725 2.725 0 0 1-1.119-.897 7.659 7.659 0 0 1-.814-3.933ZM357.983 52.862a9.666 9.666 0 0 1 2.263-6.31 6.544 6.544 0 0 1 2.365-2.102 6.463 6.463 0 0 1 3.065-.734c2.262 0 3.891.549 4.886 1.83a6.904 6.904 0 0 1 1.448 4.572c.01.736-.05 1.471-.181 2.195l-.271.366H360.97c.077.992.259 1.974.543 2.927a7.04 7.04 0 0 0 1.538 2.469 4.408 4.408 0 0 0 2.806 1.006 16.587 16.587 0 0 0 5.61-1.28c.367.328.594.787.634 1.28a16.77 16.77 0 0 1-3.348 1.83 9.06 9.06 0 0 1-3.53.73c-2.443 0-4.253-.73-5.43-2.377a10.232 10.232 0 0 1-1.81-6.402Zm4.797-6.128a7.174 7.174 0 0 0-1.72 3.933h7.874a10.342 10.342 0 0 0-.181-1.738 4.342 4.342 0 0 0-.543-1.372 3.099 3.099 0 0 0-1.086-1.097 5.836 5.836 0 0 0-1.901-.366 3.41 3.41 0 0 0-2.443.64ZM379.884 43.808l.271.274c.245 1.024.426 2.063.543 3.11 1.448-2.287 3.167-3.384 4.977-3.384a9.14 9.14 0 0 1 2.896.457 27.365 27.365 0 0 1-.633 6.22c-.621.18-1.28.18-1.901 0a30.648 30.648 0 0 0-.362-4.025h-.905a3.95 3.95 0 0 0-2.081.549 8.575 8.575 0 0 0-1.991 2.286v6.951c0 .915.09 1.83.181 2.744 1.411.006 2.814.221 4.163.64a5.435 5.435 0 0 1-.181 1.555h-9.864a3.136 3.136 0 0 1-.272-1.555 19.8 19.8 0 0 0 2.896-.64c.073-.668.103-1.34.091-2.012V47.1l-2.806-.64a3.605 3.605 0 0 1-.09-1.372 17.22 17.22 0 0 1 5.068-1.28ZM403.141 56.886V50.85a7.57 7.57 0 0 0-.634-3.567c-.362-.732-1.176-1.098-2.443-1.098a6.923 6.923 0 0 0-3.982 1.464v8.505c0 .915 0 1.83.09 2.744.937.04 1.858.258 2.715.64a3.135 3.135 0 0 1-.271 1.555h-8.236a3.146 3.146 0 0 1-.271-1.555l2.805-.64c.101-.666.162-1.338.181-2.012V47.1l-2.805-.64a3.797 3.797 0 0 1-.181-1.372 17.943 17.943 0 0 1 5.068-1.28l.271.274c.189.692.34 1.395.453 2.103a7.512 7.512 0 0 1 2.462-1.801 7.448 7.448 0 0 1 2.968-.668c2.292 0 3.74.915 4.343 2.744a7.79 7.79 0 0 1 2.605-2.001 7.712 7.712 0 0 1 3.187-.743c3.168 0 4.797 1.92 4.797 5.762v6.676c0 .915 0 1.83.09 2.744a6.544 6.544 0 0 1 2.624.64 3.135 3.135 0 0 1-.271 1.555h-8.235a3.136 3.136 0 0 1-.272-1.555 19.8 19.8 0 0 0 2.896-.64c.073-.668.104-1.34.091-2.012V50.85a9.154 9.154 0 0 0-.543-3.567c-.362-.732-1.267-1.098-2.534-1.098a7.827 7.827 0 0 0-4.073 1.555c0 .55.091 1.098.091 1.738v6.676c0 .64 0 1.555.09 2.744.783.09 1.547.307 2.263.64a3.615 3.615 0 0 1-.181 1.555h-7.602a3.692 3.692 0 0 1-.271-1.555l2.534-.64a16.74 16.74 0 0 0 .181-2.012ZM426.58 54.325v1.83c0 .914.09 1.828.181 2.743a6.907 6.907 0 0 1 2.624.64 5.435 5.435 0 0 1-.181 1.555h-8.325a3.136 3.136 0 0 1-.272-1.555c.984-.116 1.954-.33 2.896-.64.077-.668.107-1.34.09-2.012v-9.969l-2.805-.549a2.494 2.494 0 0 1-.09-1.372 20.802 20.802 0 0 1 5.791-1.28l.272.274c-.091 3.201-.181 6.677-.181 10.335Zm-1.901-13.444a2.432 2.432 0 0 1-1.448-.549 1.657 1.657 0 0 1-.633-1.372 2.85 2.85 0 0 1 .724-1.92 1.977 1.977 0 0 1 3.167-.274 1.649 1.649 0 0 1 .634 1.372 2.854 2.854 0 0 1-.724 1.92 2.262 2.262 0 0 1-1.72.823ZM436.987 44.174v11.98c0 .915.091 1.83.091 2.744a7.44 7.44 0 0 1 2.714.64 3.135 3.135 0 0 1-.271 1.556h-8.235a3.136 3.136 0 0 1-.272-1.555l2.896-.64c.073-.669.104-1.34.091-2.013v-20.12l-2.806-.549a2.494 2.494 0 0 1-.09-1.372 17.487 17.487 0 0 1 5.792-1.28l.271.274c-.09 3.201-.181 6.677-.181 10.335ZM447.213 44.173v7.408a19.035 19.035 0 0 0 2.896-1.28l3.257-4.024-2.172-.549a4.339 4.339 0 0 1 .272-1.555h7.33c.135.507.196 1.03.181 1.555a8.617 8.617 0 0 1-2.353.732l-4.525 4.847a26.231 26.231 0 0 0 3.892 6.402c.401.479.857.909 1.357 1.28a4.306 4.306 0 0 0 1.629.275h1.086a1.468 1.468 0 0 1 .453 1.372 5.036 5.036 0 0 1-1.991.64l-2.444.274c-1.176 0-2.353-.823-3.439-2.56a27.479 27.479 0 0 1-2.805-6.128l-2.624.732v2.652c0 .914.09 1.829.181 2.744a6.907 6.907 0 0 1 2.624.64 5.435 5.435 0 0 1-.181 1.554h-8.326a3.135 3.135 0 0 1-.271-1.554c.979-.141 1.947-.355 2.896-.64.073-.668.103-1.34.09-2.013v-20.12l-2.805-.549a2.494 2.494 0 0 1-.091-1.372 18.032 18.032 0 0 1 5.792-1.28l.272.274c-.091 3.11-.181 6.585-.181 10.243Z"/><path fill="#fff" d="M485.493 57.343c.013-.65.165-1.289.446-1.873.282-.584.685-1.1 1.183-1.51a8.856 8.856 0 0 1 3.53-2.196 28.253 28.253 0 0 1 4.615-1.189 8.49 8.49 0 0 0-.633-3.475 2.636 2.636 0 0 0-1.019-.914 2.599 2.599 0 0 0-1.334-.275 8.694 8.694 0 0 0-2.806.366c-.208.93-.299 1.882-.271 2.835a2.87 2.87 0 0 1-2.082.274 9.14 9.14 0 0 1-.814-3.84 12.121 12.121 0 0 1 6.335-1.83l1.719.183a7.92 7.92 0 0 1 1.81.823 3.64 3.64 0 0 1 1.538 1.738c.381.927.565 1.923.543 2.926v6.768c-.049.95.012 1.9.181 2.836l2.263-.55c.341.339.536.799.543 1.281a6.216 6.216 0 0 1-4.073 1.83 1.08 1.08 0 0 1-.995-.732 5.696 5.696 0 0 1-.724-2.104c-2.172 1.92-4.163 2.835-5.882 2.835a3.945 3.945 0 0 1-2.896-1.097 4.417 4.417 0 0 1-1.177-3.11Zm5.883 1.555a4.31 4.31 0 0 0 1.9-.549 7.777 7.777 0 0 0 1.991-1.371V52.77a23.57 23.57 0 0 0-3.801.64l-2.081.824a3.22 3.22 0 0 0-.724 2.195 2.38 2.38 0 0 0 .724 1.738 2.615 2.615 0 0 0 1.991.731ZM508.208 44.174v11.98c0 .915.09 1.83.181 2.744a6.907 6.907 0 0 1 2.624.64 5.435 5.435 0 0 1-.181 1.556h-8.326a3.146 3.146 0 0 1-.271-1.555 19.8 19.8 0 0 0 2.896-.64c.073-.669.103-1.34.09-2.013v-20.12l-2.805-.549a2.495 2.495 0 0 1-.091-1.372 18.032 18.032 0 0 1 5.792-1.28l.272.274c-.091 3.201-.181 6.677-.181 10.335ZM518.524 44.174v11.98c0 .915 0 1.83.091 2.744a6.548 6.548 0 0 1 2.624.64 5.435 5.435 0 0 1-.181 1.556h-8.325a3.41 3.41 0 0 1-.181-1.555l2.805-.64a16.74 16.74 0 0 0 .181-2.013v-20.12l-2.896-.549a3.687 3.687 0 0 1-.09-1.372 18.564 18.564 0 0 1 5.791-1.28l.272.274c-.091 3.201-.091 6.677-.091 10.335ZM529.203 61.46a13.084 13.084 0 0 1-5.52-.916 21.84 21.84 0 0 1 .633-5.304 2.509 2.509 0 0 1 1.629 0c.053 1.225.174 2.447.362 3.658a8.781 8.781 0 0 0 3.258.458 4.036 4.036 0 0 0 2.443-.55c.249-.284.434-.619.543-.981a2.69 2.69 0 0 0 .091-1.122c0-1.006-.543-1.829-1.81-2.56l-1.719-.732-1.81-.732a6.315 6.315 0 0 1-1.539-.823 3.644 3.644 0 0 1-1.267-1.372 4.25 4.25 0 0 1-.452-1.92c-.04-.727.115-1.45.45-2.095a4.012 4.012 0 0 1 1.45-1.564 8.078 8.078 0 0 1 4.344-1.097 17.115 17.115 0 0 1 5.068.64 14.844 14.844 0 0 1-.634 4.481 2.42 2.42 0 0 1-1.81-.091c-.09-.823-.271-1.738-.452-2.744a6.897 6.897 0 0 0-2.262-.366 4.661 4.661 0 0 0-2.534.458 1.936 1.936 0 0 0-.634 1.646 2.195 2.195 0 0 0 .905 1.646 8.314 8.314 0 0 0 2.172 1.19l2.534 1.005a5.89 5.89 0 0 1 2.172 1.738 3.96 3.96 0 0 1 .905 2.652 4.992 4.992 0 0 1-.435 2.228 4.932 4.932 0 0 1-1.375 1.796 7.724 7.724 0 0 1-4.706 1.372ZM564.041 58.03h-2.778V36.735h2.778V58.03ZM571.248 42.205l.087 1.99c1.196-1.522 2.759-2.282 4.689-2.282 3.309 0 4.978 1.886 5.007 5.66V58.03h-2.677V47.558c-.01-1.14-.271-1.984-.782-2.53-.502-.546-1.288-.82-2.359-.82-.868 0-1.63.235-2.286.703a4.75 4.75 0 0 0-1.534 1.843V58.03h-2.677V42.205h2.532ZM587.601 42.205l.087 1.99c1.196-1.522 2.759-2.282 4.688-2.282 3.31 0 4.979 1.886 5.008 5.66V58.03h-2.678V47.558c-.009-1.14-.27-1.984-.781-2.53-.502-.546-1.288-.82-2.359-.82-.868 0-1.63.235-2.286.703a4.75 4.75 0 0 0-1.534 1.843V58.03h-2.678V42.205h2.533ZM616.443 46.607h5.875v2.56h-5.875v6.727h-2.692v-6.727h-5.876v-2.56h5.876v-6.215h2.692v6.215ZM639.568 48.538c-2.383-.692-4.119-1.54-5.21-2.545-1.08-1.014-1.62-2.262-1.62-3.744 0-1.677.66-3.062 1.982-4.154 1.332-1.101 3.058-1.652 5.181-1.652 1.447 0 2.735.283 3.864.848 1.138.566 2.016 1.346 2.634 2.34.627.995.94 2.082.94 3.262h-2.793c0-1.288-.405-2.297-1.215-3.028-.811-.74-1.954-1.111-3.43-1.111-1.37 0-2.441.307-3.213.921-.762.605-1.143 1.448-1.143 2.53 0 .868.362 1.604 1.085 2.209.734.594 1.973 1.14 3.72 1.638 1.755.497 3.125 1.048 4.11 1.652.993.595 1.726 1.292 2.199 2.092.483.8.724 1.74.724 2.822 0 1.726-.666 3.11-1.997 4.154-1.332 1.033-3.112 1.55-5.34 1.55-1.447 0-2.798-.278-4.052-.834-1.255-.565-2.224-1.335-2.909-2.31-.675-.975-1.013-2.082-1.013-3.32h2.793c0 1.287.468 2.306 1.404 3.056.945.741 2.204 1.112 3.777 1.112 1.466 0 2.59-.302 3.372-.907.781-.604 1.172-1.428 1.172-2.471 0-1.044-.362-1.848-1.086-2.414-.723-.575-2.035-1.14-3.936-1.696ZM663.765 50.293c0 2.408-.546 4.348-1.636 5.82-1.09 1.473-2.566 2.21-4.428 2.21-1.901 0-3.396-.61-4.486-1.83v7.62h-2.677V42.206h2.445l.13 1.755c1.091-1.365 2.605-2.047 4.545-2.047 1.881 0 3.367.716 4.457 2.15 1.1 1.433 1.65 3.427 1.65 5.981v.249Zm-2.678-.307c0-1.784-.376-3.193-1.128-4.227-.753-1.033-1.785-1.55-3.097-1.55-1.621 0-2.837.726-3.647 2.179v7.561c.801 1.443 2.026 2.165 3.676 2.165 1.283 0 2.301-.512 3.053-1.536.762-1.034 1.143-2.564 1.143-4.592ZM676.847 58.03c-.155-.312-.28-.868-.376-1.668-1.245 1.307-2.731 1.96-4.458 1.96-1.543 0-2.812-.439-3.806-1.316-.984-.888-1.476-2.009-1.476-3.364 0-1.648.618-2.925 1.853-3.832 1.244-.916 2.99-1.375 5.238-1.375h2.605v-1.243c0-.945-.28-1.696-.839-2.252-.56-.565-1.385-.848-2.475-.848-.955 0-1.756.244-2.402.731-.647.488-.97 1.078-.97 1.77h-2.691c0-.79.275-1.55.824-2.282.56-.74 1.313-1.326 2.258-1.755.955-.429 2.002-.643 3.14-.643 1.804 0 3.218.458 4.24 1.374 1.023.907 1.554 2.16 1.592 3.76v7.282c0 1.453.184 2.608.55 3.467v.234h-2.807Zm-4.443-2.063c.839 0 1.635-.219 2.388-.658.752-.438 1.297-1.009 1.635-1.71V50.35h-2.098c-3.28 0-4.921.97-4.921 2.91 0 .849.28 1.512.84 1.99.559.477 1.278.716 2.156.716Z"/><g fill="#fff" clip-path="url(#a)"><path d="M791.037 18v10.08c-2.604.692-2.881.502-2.866-1.886.016-2.731.068-5.463.105-8.194h2.761ZM795.767 18.438c.489-.043.886-.107 1.283-.107 8.288 0 16.576-.126 24.859.092 3.179.083 6.429.656 9.482 1.548 5.937 1.738 9.685 5.686 10.609 11.952.831 5.628.424 11.072-3.555 15.527-1.48 1.655-3.616 2.734-5.485 4.037-.427.297-.969.435-1.745.772 1.69.567 3.057.944 4.358 1.478 4.823 1.974 7.938 5.493 9.126 10.548 1.089 4.647.991 9.288-.68 13.819-1.459 3.96-4.177 6.814-7.901 8.764-.36.19-.72.377-1.071.585-.061.037-.065.178-.126.374 3.352.868 6.752.938 10.147.7 4.749-.335 9.332-1.325 13.185-4.36 4.407-3.47 6.275-8.326 7.075-13.623.447-2.955.616-5.974.628-8.969.065-13.742.028-27.485.028-41.227V18.58c2.302-.54 2.456-.435 2.456 1.665v42.603c0 4.497-.456 8.927-1.844 13.243-2.877 8.938-9.313 13.408-18.395 14.505-5.992.724-11.941.57-17.749-1.327a3.19 3.19 0 0 0-1.046-.153c-6.74.19-13.48.432-20.221.58-3.887.082-7.774.014-11.661.014h-1.76V18.44h.003Zm29.73 68.657c-.252-.393-.302-.552-.412-.635-5.082-3.868-7.485-9.273-8.184-15.333-.603-5.233-.548-10.545-.708-15.824-.034-1.165-.36-1.615-1.585-1.6-5.01.052-10.018.046-15.028.003-1.123-.01-1.52.356-1.517 1.49.03 10.223.03 20.446 0 30.67-.003 1.112.351 1.508 1.495 1.501 7.821-.046 15.641-.03 23.465-.052.751 0 1.505-.132 2.471-.22h.003Zm-6.882-26.863c-.03 5.153.194 10.272 1.859 15.22 1.539 4.57 4.223 8.216 8.615 10.441.504.254 1.203.448 1.717.313 5.011-1.31 8.904-3.955 10.747-9.04 1.194-3.293 1.33-6.668.973-10.082-.69-6.628-4.414-10.797-10.877-12.133-3.868-.8-7.897-.843-11.852-1.224-.978-.095-1.206.457-1.188 1.316.034 1.728.009 3.46.006 5.19Zm-2.637-8.95c.064-.378.178-.718.178-1.061.01-9.414 0-18.831.025-28.245.003-1.153-.569-1.318-1.533-1.312-5.013.027-10.024.037-15.037-.006-1.096-.01-1.554.279-1.548 1.453.037 9.312.034 18.625 0 27.938-.003 1.107.427 1.358 1.452 1.352 5.115-.04 10.231-.019 15.343-.025.35 0 .701-.058 1.117-.095h.003Zm2.64-15.297c0 4.675.025 9.35-.018 14.024-.009 1.06.323 1.462 1.4 1.383 2.186-.16 4.395-.117 6.565-.38 6.688-.819 11.252-4.544 12.511-10.383.465-2.155.588-4.448.446-6.652-.378-5.892-3.478-9.978-9.162-11.646-3.192-.935-6.605-1.122-9.92-1.643-1.357-.214-1.886.26-1.855 1.726.092 4.522.033 9.046.033 13.568v.003ZM883.348 18.549V85.19c0 1.435.724 2.153 2.173 2.155 8.39 0 16.776-.028 25.166.028 1.391.009 1.847-.377 1.844-1.79-.037-21.072-.037-42.141-.003-63.213 0-1.318-.379-1.744-1.742-1.732-7.008.065-14.016.01-21.024.05-1.114.006-1.723-.301-1.446-1.45.086-.356.55-.678.914-.887.23-.131.6-.03.908-.03h49.03v2.348h-1.76c-6.907 0-13.81.034-20.716-.028-1.351-.012-1.733.38-1.733 1.726.04 21.072.04 42.14 0 63.212 0 1.429.431 1.852 1.825 1.794 2.345-.099 4.697-.028 7.233-.028.037.77.067 1.444.107 2.268-.615.037-1.102.092-1.591.092-13.299.007-26.597-.021-39.896.037-1.456.006-1.8-.453-1.797-1.811.034-22.599.021-45.194.024-67.792 0-1.956.148-2.048 2.49-1.594l-.006.003ZM875.845 89.639h-2.326v-71.2h2.326v71.2ZM790.907 36.313v53.136c-2.4.772-2.742.543-2.742-1.845V38.312c0-2.37.077-2.428 2.742-2Z"/></g><defs><clipPath id="a"><path fill="#fff" d="M788.165 18h151v73h-151z"/></clipPath></defs></svg>