<svg xmlns="http://www.w3.org/2000/svg" xmlns:xlink="http://www.w3.org/1999/xlink" width="292" height="162" fill="none"><defs><path id="reuse-0" fill="#fff" d="M212.032 115.234c0-.972.836-1.629 1.852-1.629h9.259c1.015 0 1.881.686 1.881 1.629"/><path id="reuse-1" stroke="#fff" stroke-miterlimit="10" stroke-width=".388" d="M212.032 115.234c0-.972.836-1.629 1.852-1.629h9.259c1.015 0 1.881.686 1.881 1.629"/></defs><path fill="#fff" d="m136.513 27.226-5.28-.317-.251-.76c1.194-.57 2.577-.95 3.645-1.52 2.451-1.392 2.64-1.582 2.954-3.165.817-4.052 1.571-8.041 3.96-11.714 3.331-5.318 8.045-6.521 14.078-5.698 0 .886.063 1.836.126 3.356l-5.342-.887c-2.263-.38-4.463-.633-5.28 2.28-1.257 4.622-2.451 9.37-3.645 13.993a9.558 9.558 0 0 1 4.274.886c.817.253 1.822.443 2.262 1.076-.97.21-1.962.295-2.954.254-4.085-.19-4.085.95-4.776 4.748-1.257 6.585-1.949 13.614-4.4 19.882-.943 2.28-.628 1.646-3.142 7.851-.315.76-2.452 4.432-3.206 4.939 2.388-11.904 4.651-23.427 6.977-35.204ZM13.576 30.582v1.203a5.258 5.258 0 0 1 3.771-1.456 3.934 3.934 0 0 1 1.825.392 3.965 3.965 0 0 1 1.444 1.19 7.003 7.003 0 0 1 1.194 4.306A7.126 7.126 0 0 1 20.3 40.65a4.411 4.411 0 0 1-1.58 1.44 4.375 4.375 0 0 1-2.065.523 6.007 6.007 0 0 1-3.645-1.33 5.733 5.733 0 0 1-1.635 1.52.876.876 0 0 1-.691-.57 5.794 5.794 0 0 0 .817-2.849v-13.93l-1.948-.38a2.805 2.805 0 0 1-.126-.95 12.93 12.93 0 0 1 4.022-.886l.252.19a249.091 249.091 0 0 0-.126 7.155Zm3.08 1.456a6.005 6.005 0 0 0-3.08 1.077v6.331a4.685 4.685 0 0 0 3.394 1.52l.88-.127.629-.316a5.598 5.598 0 0 0 1.257-3.61 6.56 6.56 0 0 0-.817-3.418 2.59 2.59 0 0 0-.929-1.049c-.399-.257-.86-.398-1.334-.408ZM25.14 38.56v-6.332c-.61-.23-1.242-.4-1.885-.507.004-.383.046-.765.126-1.14h3.708l.188.19v6.839c0 2.153.629 3.166 1.886 3.166a3.564 3.564 0 0 0 1.697-.57c.581-.396 1.128-.84 1.634-1.33v-6.648l-1.886-.507a3.19 3.19 0 0 1 .126-1.14h3.708l.189.19c0 1.647-.063 4.053-.063 7.155v.887c-.002.656.04 1.312.126 1.962l1.571-.38c.237.234.372.553.377.887a4.46 4.46 0 0 1-1.383.95 3.312 3.312 0 0 1-1.445.316c-.314 0-.566-.19-.754-.696a5.603 5.603 0 0 1-.503-1.646 12.032 12.032 0 0 1-1.949 1.772 3.937 3.937 0 0 1-2.074.57c-2.262.064-3.394-1.266-3.394-3.989ZM39.596 39.066v-6.965l-1.822-.316a1.849 1.849 0 0 1-.063-1.013 8.485 8.485 0 0 1 1.886-.253l.817-3.42c.423-.03.848.013 1.257.127v3.293h3.896a10.579 10.579 0 0 1-.125 1.52H41.67v6.014c0 1.836.377 2.786 1.194 2.786a7.308 7.308 0 0 0 2.45-.57c.255.324.388.727.378 1.14a7.438 7.438 0 0 1-3.834 1.14 1.748 1.748 0 0 1-1.697-.76 5.288 5.288 0 0 1-.566-2.723ZM48.206 39.066v-6.965l-1.822-.316a2.679 2.679 0 0 1-.063-1.013 8.485 8.485 0 0 1 1.886-.253l.817-3.42c.423-.03.848.013 1.257.127v3.293h3.896a10.579 10.579 0 0 1-.125 1.52H50.28v6.014c0 1.836.44 2.786 1.194 2.786a6.744 6.744 0 0 0 2.45-.57c.273.318.428.72.44 1.14a7.626 7.626 0 0 1-3.833 1.14 1.873 1.873 0 0 1-1.76-.76 5.288 5.288 0 0 1-.566-2.723ZM55.435 36.597a6.678 6.678 0 0 1 1.571-4.37 4.535 4.535 0 0 1 1.643-1.454 4.498 4.498 0 0 1 2.128-.508c1.571 0 2.703.38 3.394 1.266a4.772 4.772 0 0 1 1.006 3.166 7.98 7.98 0 0 1-.126 1.52l-.189.253H57.51c.053.687.18 1.366.377 2.026a4.88 4.88 0 0 0 1.068 1.71c.55.451 1.239.697 1.949.696a11.556 11.556 0 0 0 3.896-.886c.255.227.413.545.44.886-.725.51-1.505.934-2.325 1.267a6.31 6.31 0 0 1-2.451.506c-1.697 0-2.954-.506-3.771-1.646a7.066 7.066 0 0 1-1.257-4.432Zm3.33-4.243a4.957 4.957 0 0 0-1.193 2.723h5.468a7.082 7.082 0 0 0-.126-1.203 2.991 2.991 0 0 0-.377-.95 2.146 2.146 0 0 0-.754-.76 4.057 4.057 0 0 0-1.32-.253 2.375 2.375 0 0 0-1.697.443ZM70.644 30.328l.189.19c.17.71.296 1.428.377 2.153 1.006-1.583 2.2-2.343 3.457-2.343a6.366 6.366 0 0 1 2.011.317 18.876 18.876 0 0 1-.44 4.305 2.372 2.372 0 0 1-1.32 0 21.226 21.226 0 0 0-.251-2.786h-.629a2.749 2.749 0 0 0-1.445.38c-.551.44-1.02.977-1.383 1.583v4.812c0 .633.063 1.267.126 1.9.98.004 1.954.153 2.89.443.011.363-.031.726-.125 1.076h-6.85a2.167 2.167 0 0 1-.19-1.076 13.81 13.81 0 0 0 2.012-.443c.05-.463.072-.928.063-1.393v-6.838l-1.948-.444a2.487 2.487 0 0 1-.063-.95 11.994 11.994 0 0 1 3.52-.886ZM86.797 39.382v-4.179a5.226 5.226 0 0 0-.44-2.469c-.251-.507-.817-.76-1.697-.76a4.817 4.817 0 0 0-2.765 1.013v5.889c0 .633 0 1.266.063 1.9.65.027 1.29.177 1.885.442.03.37-.035.74-.189 1.077h-5.719a2.167 2.167 0 0 1-.189-1.077l1.949-.443c.07-.461.112-.926.126-1.393v-6.775l-1.949-.443a2.615 2.615 0 0 1-.126-.95 12.492 12.492 0 0 1 3.52-.886l.189.19c.13.48.236.965.314 1.456a5.218 5.218 0 0 1 1.71-1.247 5.185 5.185 0 0 1 2.061-.462c1.592 0 2.598.633 3.017 1.9a5.41 5.41 0 0 1 1.808-1.386 5.374 5.374 0 0 1 2.214-.514c2.2 0 3.331 1.33 3.331 3.989v4.622c0 .633 0 1.266.063 1.9.632.019 1.252.17 1.823.442.03.37-.035.74-.189 1.077h-5.72a2.166 2.166 0 0 1-.188-1.077c.68-.097 1.353-.245 2.012-.443.05-.462.071-.928.062-1.393v-4.179c.04-.84-.088-1.68-.377-2.469-.251-.507-.88-.76-1.76-.76a5.444 5.444 0 0 0-2.828 1.077c0 .38.063.76.063 1.203v4.622c0 .443 0 1.076.063 1.9a5.125 5.125 0 0 1 1.571.442c.038.364-.005.732-.126 1.077H85.1a2.548 2.548 0 0 1-.188-1.077l1.76-.443c.07-.461.111-.926.125-1.393ZM103.075 37.61v1.266c0 .633.063 1.266.126 1.9.63.026 1.25.176 1.823.442.01.363-.032.726-.126 1.077h-5.782a2.166 2.166 0 0 1-.189-1.077c.683-.08 1.357-.228 2.011-.443.054-.462.075-.928.063-1.393v-6.901l-1.948-.38a1.72 1.72 0 0 1-.063-.95 14.487 14.487 0 0 1 4.022-.886l.189.19a248.688 248.688 0 0 0-.126 7.154Zm-1.32-9.308a1.687 1.687 0 0 1-1.005-.38 1.137 1.137 0 0 1-.44-.95 1.967 1.967 0 0 1 .503-1.33 1.377 1.377 0 0 1 2.199-.19 1.134 1.134 0 0 1 .44.95c.004.491-.176.966-.502 1.33a1.576 1.576 0 0 1-1.195.57ZM110.304 30.581v8.295c0 .633.063 1.266.063 1.9.65.027 1.29.178 1.885.443.03.369-.035.74-.188 1.076h-5.72a2.165 2.165 0 0 1-.188-1.076l2.011-.444c.051-.462.072-.927.063-1.392v-13.93l-1.949-.38a1.736 1.736 0 0 1-.063-.95 12.188 12.188 0 0 1 4.023-.886l.188.19a252.524 252.524 0 0 0-.125 7.154ZM117.405 30.582v5.128a13.193 13.193 0 0 0 2.012-.886l2.262-2.786-1.508-.38c-.004-.367.06-.732.188-1.076h5.091c.094.35.136.713.126 1.076a5.997 5.997 0 0 1-1.634.507l-3.143 3.355a18.149 18.149 0 0 0 2.703 4.433c.279.331.595.629.943.886.361.136.745.2 1.131.19h.754a1.01 1.01 0 0 1 .314.95 3.499 3.499 0 0 1-1.382.443l-1.697.19c-.817 0-1.634-.57-2.389-1.773a18.993 18.993 0 0 1-1.948-4.242l-1.823.506v1.837c0 .633.063 1.266.126 1.899.63.027 1.25.177 1.823.443.01.363-.032.726-.126 1.077h-5.782a2.165 2.165 0 0 1-.189-1.077 13.77 13.77 0 0 0 2.011-.443c.051-.462.072-.928.063-1.393v-13.93l-1.948-.38a1.717 1.717 0 0 1-.063-.95 12.56 12.56 0 0 1 4.022-.886l.189.19a240.073 240.073 0 0 0-.126 7.092Z"/><path fill="#fff" d="M143.992 39.699a3.116 3.116 0 0 1 1.131-2.343 6.157 6.157 0 0 1 2.452-1.52 19.66 19.66 0 0 1 3.205-.823 5.865 5.865 0 0 0-.44-2.406 1.823 1.823 0 0 0-1.634-.823 6.06 6.06 0 0 0-1.949.254 7.944 7.944 0 0 0-.188 1.962 1.999 1.999 0 0 1-1.446.19 6.313 6.313 0 0 1-.565-2.659 8.435 8.435 0 0 1 4.399-1.266l1.194.126c.441.137.864.328 1.257.57.477.273.853.696 1.069 1.203a5.04 5.04 0 0 1 .377 2.026v4.686a8.494 8.494 0 0 0 .126 1.963l1.571-.38c.237.233.372.552.377.886a4.322 4.322 0 0 1-2.828 1.266.75.75 0 0 1-.692-.506 3.945 3.945 0 0 1-.502-1.456c-1.509 1.33-2.891 1.962-4.086 1.962a2.743 2.743 0 0 1-2.011-.76 3.053 3.053 0 0 1-.817-2.152Zm4.085 1.076a3.001 3.001 0 0 0 1.32-.38 5.404 5.404 0 0 0 1.383-.95v-2.912a16.43 16.43 0 0 0-2.64.443l-1.445.57c-.35.426-.529.968-.503 1.52a1.648 1.648 0 0 0 .503 1.203 1.82 1.82 0 0 0 1.382.506ZM159.767 30.582v8.294c0 .634.063 1.267.125 1.9a4.81 4.81 0 0 1 1.823.443c.01.363-.032.726-.126 1.077h-5.782a2.154 2.154 0 0 1-.188-1.077c.68-.097 1.352-.245 2.011-.443.051-.463.072-.928.063-1.393v-13.93l-1.949-.38a1.726 1.726 0 0 1-.063-.95 12.56 12.56 0 0 1 4.023-.886l.188.19a252.524 252.524 0 0 0-.125 7.155ZM166.932 30.582v8.294c0 .634 0 1.267.063 1.9.631.02 1.251.17 1.822.443.01.363-.032.726-.126 1.077h-5.782a2.36 2.36 0 0 1-.126-1.077l1.949-.443c.07-.461.112-.927.126-1.393v-13.93l-2.012-.38a2.576 2.576 0 0 1-.063-.95 12.935 12.935 0 0 1 4.023-.886l.189.19c-.063 2.216-.063 4.622-.063 7.155ZM174.349 42.548a9.113 9.113 0 0 1-3.834-.633 15.046 15.046 0 0 1 .44-3.672 1.747 1.747 0 0 1 1.131 0c.037.848.121 1.694.251 2.532a6.121 6.121 0 0 0 2.263.317 2.812 2.812 0 0 0 1.697-.38 1.847 1.847 0 0 0 .44-1.456c0-.697-.377-1.267-1.257-1.773l-1.194-.507-1.257-.506a4.392 4.392 0 0 1-1.069-.57 2.533 2.533 0 0 1-.88-.95 2.935 2.935 0 0 1-.314-1.33 2.796 2.796 0 0 1 1.32-2.532 5.623 5.623 0 0 1 3.017-.76c1.188-.029 2.375.12 3.52.443a10.28 10.28 0 0 1-.44 3.103c-.412.142-.862.12-1.257-.063-.063-.57-.189-1.203-.315-1.9a4.804 4.804 0 0 0-1.571-.253 3.249 3.249 0 0 0-1.76.316 1.34 1.34 0 0 0-.44 1.14 1.535 1.535 0 0 0 .629 1.14c.459.348.968.626 1.508.823l1.76.696a4.081 4.081 0 0 1 1.508 1.203c.427.514.651 1.168.629 1.837a3.44 3.44 0 0 1-1.257 2.785 5.377 5.377 0 0 1-3.268.95ZM198.544 40.174h-1.93V25.432h1.93v14.742ZM203.549 29.219l.06 1.377c.831-1.053 1.917-1.58 3.257-1.58 2.298 0 3.457 1.306 3.477 3.919v7.24h-1.859v-7.25c-.007-.79-.188-1.374-.543-1.752-.348-.378-.894-.567-1.638-.567-.603 0-1.132.162-1.588.486-.456.324-.811.75-1.065 1.276v7.806h-1.86V29.22h1.759ZM214.906 29.219l.061 1.377c.831-1.053 1.916-1.58 3.256-1.58 2.298 0 3.458 1.306 3.478 3.919v7.24h-1.86v-7.25c-.006-.79-.187-1.374-.542-1.752-.349-.378-.895-.567-1.639-.567-.603 0-1.132.162-1.588.486-.455.324-.81.75-1.065 1.276v7.806h-1.859V29.22h1.758ZM234.937 32.266h4.081v1.772h-4.081v4.658h-1.869v-4.658h-4.081v-1.772h4.081v-4.303h1.869v4.303ZM250.998 33.603c-1.655-.48-2.861-1.067-3.618-1.762-.75-.702-1.126-1.566-1.126-2.592 0-1.16.459-2.12 1.377-2.875.925-.763 2.124-1.144 3.598-1.144 1.005 0 1.9.195 2.684.587.791.391 1.4.931 1.829 1.62.436.688.653 1.44.653 2.258h-1.939c0-.891-.282-1.59-.845-2.096-.562-.513-1.356-.77-2.382-.77-.951 0-1.695.213-2.231.638-.529.419-.794 1.003-.794 1.752 0 .6.251 1.11.754 1.529.509.411 1.37.79 2.583 1.134 1.219.344 2.171.725 2.854 1.144.69.412 1.2.894 1.528 1.448.335.553.503 1.205.503 1.954 0 1.195-.463 2.153-1.387 2.875-.925.716-2.161 1.074-3.709 1.074a6.886 6.886 0 0 1-2.814-.578c-.871-.391-1.545-.924-2.02-1.6a3.932 3.932 0 0 1-.704-2.298h1.94c0 .891.325 1.597.975 2.116.656.514 1.531.77 2.623.77 1.018 0 1.799-.21 2.342-.628.542-.418.814-.989.814-1.71 0-.723-.251-1.28-.754-1.672-.503-.398-1.414-.79-2.734-1.174ZM267.803 34.818c0 1.667-.379 3.01-1.136 4.03-.757 1.019-1.782 1.529-3.075 1.529-1.32 0-2.359-.422-3.116-1.266v5.275h-1.859V29.22h1.698l.091 1.215c.757-.945 1.809-1.418 3.156-1.418 1.306 0 2.338.496 3.095 1.489.764.992 1.146 2.372 1.146 4.14v.173Zm-1.859-.213c0-1.235-.262-2.21-.784-2.926-.523-.715-1.24-1.073-2.151-1.073-1.126 0-1.97.503-2.533 1.509v5.234c.556 1 1.407 1.499 2.553 1.499.891 0 1.598-.355 2.121-1.063.529-.716.794-1.776.794-3.18ZM276.889 40.174c-.108-.216-.195-.6-.262-1.154-.864.904-1.896 1.357-3.095 1.357-1.072 0-1.953-.304-2.644-.912-.683-.614-1.025-1.39-1.025-2.328 0-1.141.429-2.025 1.287-2.653.864-.635 2.077-.952 3.638-.952h1.809v-.86c0-.655-.194-1.175-.583-1.56-.388-.391-.961-.587-1.718-.587-.664 0-1.22.169-1.669.506-.449.338-.673.746-.673 1.225h-1.87c0-.547.191-1.073.573-1.58.389-.512.912-.917 1.568-1.214a5.274 5.274 0 0 1 2.181-.446c1.253 0 2.235.318 2.945.952.71.628 1.079 1.495 1.106 2.602v5.042c0 1.006.127 1.806.381 2.4v.162h-1.949Zm-3.086-1.428c.583 0 1.136-.151 1.658-.455.523-.304.902-.699 1.136-1.185v-2.248h-1.457c-2.278 0-3.417.672-3.417 2.015 0 .588.194 1.047.583 1.377.388.331.887.496 1.497.496Z"/><g fill="#fff" clip-path="url(#a)"><path d="M2.273 95.353v8.081c-2.061.556-2.28.404-2.269-1.511.013-2.19.054-4.38.083-6.57h2.186ZM6.019 95.704c.388-.035.702-.086 1.016-.086 6.564 0 13.127-.101 19.686.074 2.517.066 5.091.526 7.509 1.24 4.701 1.394 7.67 4.56 8.401 9.585.658 4.512.336 8.878-2.815 12.449-1.172 1.328-2.864 2.193-4.343 3.237-.339.239-.768.349-1.382.62 1.338.455 2.42.757 3.451 1.185 3.82 1.583 6.286 4.404 7.227 8.458.862 3.726.784 7.447-.54 11.08-1.154 3.176-3.306 5.464-6.255 7.028-.286.152-.57.302-.849.469-.048.03-.05.143-.1.3 2.655.696 5.348.752 8.036.56 3.76-.268 7.39-1.062 10.441-3.495 3.49-2.782 4.97-6.676 5.603-10.923.354-2.37.488-4.791.498-7.192.05-11.019.021-22.039.021-33.058v-1.418c1.823-.433 1.945-.35 1.945 1.335v34.161c0 3.606-.36 7.157-1.46 10.618-2.278 7.168-7.375 10.752-14.567 11.631-4.745.581-9.456.458-14.055-1.064a2.512 2.512 0 0 0-.829-.123c-5.338.153-10.675.347-16.013.465-3.078.066-6.156.012-9.234.012H6.017V95.704h.002Zm23.544 55.051c-.2-.314-.24-.442-.327-.508-4.024-3.102-5.927-7.436-6.48-12.295-.478-4.196-.434-8.456-.561-12.688-.027-.934-.285-1.296-1.255-1.283a629.5 629.5 0 0 1-11.901.002c-.89-.007-1.204.285-1.202 1.195.025 8.197.025 16.394 0 24.592-.002.892.278 1.209 1.185 1.204 6.193-.037 12.386-.024 18.581-.042.595 0 1.192-.105 1.957-.177h.003Zm-5.45-21.539c-.024 4.132.154 8.237 1.472 12.204 1.219 3.665 3.344 6.587 6.822 8.372.4.204.953.359 1.36.251 3.968-1.05 7.05-3.171 8.51-7.249.946-2.64 1.054-5.346.77-8.084-.545-5.314-3.494-8.657-8.612-9.729-3.064-.642-6.254-.676-9.386-.981-.775-.076-.956.366-.94 1.055.026 1.386.006 2.775.004 4.161Zm-2.089-7.177c.052-.303.142-.575.142-.851.007-7.548 0-15.099.02-22.648.002-.924-.452-1.057-1.215-1.052-3.97.022-7.938.03-11.908-.005-.868-.007-1.23.224-1.226 1.165.03 7.468.027 14.935 0 22.403-.002.887.339 1.089 1.15 1.084 4.051-.032 8.102-.015 12.15-.02.278 0 .556-.047.885-.076h.002Zm2.091-12.266c0 3.749.02 7.497-.014 11.246-.008.85.256 1.172 1.109 1.108 1.73-.128 3.48-.093 5.198-.305 5.297-.656 8.91-3.642 9.908-8.325.368-1.728.465-3.566.353-5.334-.3-4.724-2.754-8-7.255-9.337-2.528-.75-5.23-.9-7.856-1.318-1.075-.172-1.494.209-1.47 1.384.074 3.625.027 7.253.027 10.879v.002ZM75.376 95.792v53.437c0 1.15.574 1.726 1.72 1.728 6.645 0 13.286-.022 19.93.022 1.102.007 1.462-.302 1.46-1.435-.03-16.897-.03-33.79-.003-50.687 0-1.057-.3-1.398-1.38-1.388-5.549.051-11.098.007-16.648.039-.882.005-1.365-.241-1.145-1.163.068-.285.436-.543.724-.71.182-.106.475-.025.718-.025h38.828v1.883h-1.394c-5.469 0-10.936.027-16.405-.022-1.07-.01-1.372.305-1.372 1.384.031 16.896.031 33.79 0 50.686 0 1.146.341 1.485 1.445 1.438 1.857-.079 3.719-.022 5.728-.022.029.617.053 1.158.085 1.819-.488.029-.873.074-1.26.074-10.531.004-21.063-.018-31.594.029-1.153.005-1.426-.364-1.423-1.453.026-18.12.017-36.238.02-54.358 0-1.568.116-1.642 1.97-1.278l-.004.002ZM69.434 152.795h-1.842V95.704h1.842v57.091ZM2.17 110.036v42.607c-1.9.619-2.171.435-2.171-1.48v-39.524c0-1.9.061-1.947 2.172-1.603Z"/></g><path fill="#fff" stroke="#fff" stroke-miterlimit="10" stroke-width=".388" d="M284.34 124.547h-17.651c-6.182 0-5.854-5.799-5.854-5.799h-16.008c-9.587-11.568-23.236-11.397-23.236-11.397v-1.485c0-2.057-2.838-2.029-2.838-2.029-2.568 0-3.076 2.029-3.076 2.029v1.342c-14.963 0-23.833 11.54-23.833 11.54h-14.725c-.268 5.399-6.301 5.713-6.301 5.713h-16.367c.716 5.97-8.034 4.971-8.034 4.971-.18 0 0 26.679 0 26.679 7.257 0 7.227 5.456 7.227 5.456h130.308c0-5.684 7.048-5.142 7.048-5.142v-26.851c-7.675-.028-6.66-5.027-6.66-5.027Z"/><path fill="#000" d="M195.904 157.91c.359-.028.598-.114.687-.2.09-.114.15-.342.15-.714v-3.97c0-.315-.06-.543-.15-.629-.089-.085-.328-.171-.657-.2v-.171h2.658c.538 0 1.016.057 1.374.2.687.257 1.045.714 1.045 1.4 0 .457-.149.799-.477 1.056-.299.258-.747.4-1.255.486l1.971 2.314c.12.143.239.257.359.314.119.057.269.114.478.114v.172h-1.553l-2.39-2.828-.418.028v1.8c0 .343.06.543.149.657.12.086.329.143.717.171v.172h-2.658l-.03-.172Zm3.256-3.199c.507-.2.776-.571.776-1.114 0-.543-.239-.886-.687-1.086-.239-.114-.567-.142-.955-.142-.269 0-.448.028-.508.057-.06.028-.09.114-.09.257v2.257c.687-.029 1.165-.115 1.464-.229ZM204.207 157.91c.358-.029.568-.086.687-.171.09-.086.149-.286.149-.629v-4.085c0-.314-.059-.542-.149-.628-.09-.086-.329-.171-.687-.171v-.172h5.077l.03 1.314h-.239c-.089-.4-.209-.657-.358-.771-.149-.114-.538-.171-1.075-.171h-1.314c-.15 0-.239.028-.269.057a.463.463 0 0 0-.06.257v2.056h1.463c.419 0 .658-.057.777-.171.119-.114.209-.343.269-.714h.239v2.114h-.239c-.06-.343-.15-.6-.269-.714-.119-.115-.358-.172-.777-.172h-1.433v2.257c0 .171.06.285.179.314.12.029.478.057 1.075.057.657 0 1.135-.057 1.434-.2.299-.143.597-.457.836-1h.269l-.448 1.543h-5.167v-.2ZM212.003 158.081v-.171a.941.941 0 0 0 .567-.257c.12-.143.329-.571.628-1.228l2.001-4.485h.179l2.389 5.199c.15.343.299.542.388.628.09.086.269.143.478.172v.171h-2.449v-.2a3.3 3.3 0 0 0 .538-.086c.089-.028.119-.114.119-.257 0-.057-.03-.114-.059-.228-.03-.115-.09-.229-.12-.343l-.388-.886h-2.539c-.239.6-.388.972-.448 1.086-.06.143-.06.228-.06.314 0 .143.06.257.21.314.089.029.238.057.448.086v.171h-1.882Zm4.122-2.37-1.106-2.514-1.105 2.514h2.211ZM220.813 157.91c.359-.029.568-.086.687-.171.09-.086.15-.286.15-.629v-4.085c0-.314-.06-.542-.15-.628-.089-.086-.328-.171-.687-.171v-.172h2.718v.172c-.358.028-.597.085-.716.171-.12.086-.18.286-.18.6v4.342c0 .114.03.171.06.228.03.057.12.086.239.114.06 0 .149.029.239.029h.448c.866 0 1.434-.057 1.732-.2.299-.143.598-.486.866-1.028h.239l-.478 1.599h-5.167v-.171ZM227.772 151.997h5.405l.06 1.543h-.239c-.119-.486-.269-.8-.418-.943-.149-.143-.537-.229-1.105-.229h-.538v4.685c0 .343.06.571.18.657.119.086.358.143.746.171v.172h-2.777v-.143c.418-.029.657-.086.746-.2.09-.086.15-.343.15-.743v-4.57h-.538c-.537 0-.896.086-1.075.229-.179.142-.329.457-.418.971h-.239l.06-1.6ZM238.225 151.997v.171c-.239 0-.388 0-.508.058-.119.057-.179.114-.179.257 0 .028 0 .085.03.143.03.057.06.142.119.228l1.404 1.971 1.374-2c.06-.085.09-.171.119-.228.03-.057.03-.086.03-.114 0-.143-.059-.229-.209-.257-.089-.029-.239-.029-.448-.058v-.171h2.091v.171a.84.84 0 0 0-.508.172c-.239.171-.508.457-.806.885l-1.404 2.057v1.771c0 .343.06.571.179.657.12.086.389.143.807.171v.172h-2.927v-.143c.448-.029.717-.086.806-.171.09-.086.15-.343.15-.743v-1.6l-1.255-1.771c-.448-.6-.747-1-.926-1.171a1.056 1.056 0 0 0-.627-.286v-.171h2.688Z"/><path stroke="#000" stroke-miterlimit="10" stroke-width=".388" d="M244.946 154.683h27.716M164.903 154.683h27.716"/><path fill="#000" d="m242.734 143.914-3.196-5.856h1.404c1.792 0 1.971-2.285 1.971-2.285v-3.4c0-2.428-2.389-2.342-2.389-2.342h-5.734v.829c.657 0 1.194.514 1.194 1.142v11.483c0 .657-.537 1.171-1.224 1.171v.857h3.554v-.857c-.717 0-1.284-.542-1.284-1.228v-5.313h1.373l3.704 6.541h-.448v.829h2.329v-.829c-.507 0-1.015-.285-1.254-.742Zm-5.675-6.742v-5.97h3.375s1.225.229 1.225 1.4v3.199s-.209 1.4-1.464 1.4c-1.254 0-3.136-.029-3.136-.029ZM232.611 143.914l-3.196-5.856h1.404c1.792 0 1.971-2.285 1.971-2.285v-3.4c0-2.428-2.389-2.342-2.389-2.342h-5.734v.829c.657 0 1.194.514 1.194 1.142v11.483c0 .657-.537 1.171-1.224 1.171v.857h3.554v-.857c-.717 0-1.284-.542-1.284-1.228v-5.313h1.373l3.704 6.541h-.448v.829h2.329v-.829a1.4 1.4 0 0 1-1.254-.742Zm-5.704-6.742v-5.97h3.374s1.225.229 1.225 1.4v3.199s-.209 1.4-1.463 1.4c-1.255 0-3.136-.029-3.136-.029ZM200.356 129.973v.971h1.224v13.597h-1.284v.971h3.345v-.799h-1.284v-12.14l3.225 9.569h.568l3.106-9.541v12.112h-1.105v.771h3.584v-.771h-1.255v-13.826h1.315v-.914h-2.868l-2.956 8.97h-.269l-2.718-8.913s-2.569-.057-2.628-.057ZM183.57 129.973v.743c.358 0 .657.285.657.628v12.94h-.926v.743h2.598v-.686h-.836v-12.597c0-.028.03-.028.03 0l5.704 9.569v2.914h-.896v.686h2.629v-.743h-.926v-12.512c0-.514.418-.914.955-.914v-.771H190.2v.686c.328 0 .597.257.597.571v6.656l-4.778-7.913c-.03 0-2.449.057-2.449 0ZM271.736 129.974v1.086c.508 0 .926.4.926.885v18.425h-1.314v1.085h3.703v-.971h-1.195v-17.939c0-.028.06-.057.06-.028l8.124 13.625v4.142h-1.344v.971h3.733v-1.057h-1.344v-17.824c0-.714.627-1.314 1.374-1.314v-1.086h-3.345v.972c.448 0 .836.371.836.799v9.484l-6.809-11.283c.059.028-3.405.114-3.405.028ZM248.32 145.485v-.943h-.388c-.478 0-.747.029-.747-.914v-11.94c0-.8.598-.828 1.135-.828h.09v-.943h-3.733v.943h.388c.478 0 .746.028.746.914v11.94c0 .914-.597.828-1.134.828h-.09v.943h3.733ZM218.185 129.917c-2.748 0-4.988 3.599-4.988 8.027 0 4.427 2.24 8.026 4.988 8.026s4.988-3.599 4.988-8.026c0-4.456-2.21-8.027-4.988-8.027Zm0 14.797c-2.031 0-3.703-3-3.703-6.713 0-3.714 1.642-6.713 3.703-6.713s3.703 2.999 3.703 6.713c0 3.713-1.642 6.713-3.703 6.713ZM182.106 148.284v-1.114h-.478c-.568 0-.896.057-.896-1.085v-14.083c0-.942.687-1 1.344-1h.09v-1.085h-4.421v1.114h.478c.568 0 .896.057.896 1.085v14.083c0 1.085-.687 1-1.344 1h-.089v1.114l4.42-.029ZM155.943 129.945v1.229h.09c.747 0 1.404.514 1.553 1.199l4.181 19.082 1.494.057 3.046-12.597 2.927 12.597h1.732l4.271-19.453c.12-.6.687-1.057 1.344-1.057h.09v-1.057h-4.421v1.171h.478c.568 0 1.016.486.896 1.029l-3.136 15.282-3.494-15.282c-.12-.572.328-1.086.926-1.086h.866v-1.085h-5.257v1.171h.359c.448 0 .836.314.926.714l.866 4.456-2.718 11.141-3.405-15.34c-.119-.514.299-1.028.866-1.028h.926v-1.086c-.06.029-5.525-.171-5.406-.057ZM253.607 144.656c2.927.115 3.525-3.427 1.494-5.284-2.031-1.857-5.496-1.428-5.227-5.97.269-4.542 4.928-4.056 5.764-2.514v-1h1.315v5.028h-.359s-.179-3.971-3.345-3.971c-3.166 0-2.927 4.056.209 5.285 3.285 1.285 4.331 3.827 4.002 5.97-.328 2.142-1.374 3.57-3.793 3.656-2.449.114-2.509-1.685-2.509-1.685v1.742h-.925v-6.027h.537s-.328 4.656 2.837 4.77ZM264.956 129.517c-3.136 0-5.675 4.084-5.675 9.112 0 5.027 2.539 9.112 5.675 9.112 3.136 0 5.675-4.085 5.675-9.112.029-5.028-2.509-9.112-5.675-9.112Zm0 16.853c-2.33 0-4.211-3.428-4.211-7.656 0-4.227 1.881-7.655 4.211-7.655s4.211 3.428 4.211 7.655c0 4.228-1.881 7.656-4.211 7.656Z"/><path fill="#fff" stroke="#fff" stroke-miterlimit="10" stroke-width=".388" d="M224.875 119.576v-3.085h-13.141c-.03 0 0 3.085 0 3.085h-1.374v1.514h3.584v-1.914c.03-.486.329-.943.657-1.286a2.126 2.126 0 0 1 1.404-.514h5.257c.507 0 1.015.2 1.403.514.389.343.628.8.657 1.286v1.914h2.868v-1.514h-1.315Z"/><path fill="#fff" stroke="#fff" stroke-miterlimit="10" stroke-width=".388" d="M226.488 115.262h-15.919v1.286h15.919v-1.286Z"/><use xlink:href="#reuse-0"/><use xlink:href="#reuse-1" stroke-miterlimit="10" stroke-width=".388"/><use xlink:href="#reuse-0"/><use xlink:href="#reuse-1" stroke-miterlimit="10" stroke-width=".388"/><path fill="#fff" stroke="#fff" stroke-miterlimit="10" stroke-width=".388" d="M222.756 111.948h-8.452v1.657h8.452v-1.657Z"/><path fill="#fff" stroke="#fff" stroke-miterlimit="10" stroke-width=".388" d="M223.413 110.692h-9.736v1.285h9.736v-1.285ZM222.875 100.609h-8.333v10.055h8.333v-10.055Z"/><path fill="#fff" stroke="#fff" stroke-miterlimit="10" stroke-width=".388" d="M221.024 105.465h-4.57c-.478 0-.866.343-.866.8v2.485c0 .457.388.8.836.8h4.57c.478 0 .866-.343.866-.8v-2.485c0-.429-.359-.8-.836-.8Z"/><path fill="#fff" stroke="#fff" stroke-miterlimit="10" stroke-width=".388" d="M219.558 106.436h-1.642c-.239 0-.389.143-.389.371v1.4c0 .2.15.371.389.371h1.642c.239 0 .389-.142.389-.371v-1.4a.386.386 0 0 0-.389-.371ZM220.305 104.094h-3.196v1.342h3.196v-1.342Z"/><path fill="#fff" stroke="#fff" stroke-miterlimit="10" stroke-width=".388" d="M220.247 101.694h-3.016c-.717 0-1.285.515-1.285 1.2 0 .686.598 1.2 1.285 1.2h3.016c.717 0 1.284-.514 1.284-1.2 0-.657-.597-1.2-1.284-1.2ZM223.652 99.865c0 .2-.089.372-.239.514a.483.483 0 0 1-.268.143c-.09.029-.209.086-.329.086h-8.333a.782.782 0 0 1-.507-.257.866.866 0 0 1-.209-.514c0-.172.089-.372.209-.514.119-.143.328-.229.507-.258h8.333c.209 0 .418.086.538.229.209.2.298.371.298.571Z"/><path fill="#fff" d="M215.797 99.123V98.01c0-1.057.896-2.656 2.031-2.656h1.762c1.105 0 2.031 1.628 2.031 2.656v1.114"/><path stroke="#fff" stroke-miterlimit="10" stroke-width=".388" d="M215.797 99.123V98.01c0-1.057.896-2.656 2.031-2.656h1.762c1.105 0 2.031 1.628 2.031 2.656v1.114"/><path fill="#fff" d="M215.797 97.98h5.824-5.824Z"/><path stroke="#fff" stroke-miterlimit="10" stroke-width=".388" d="M215.797 97.98h5.824"/><defs><clipPath id="a"><path fill="#fff" d="M0 95.353h119.578v58.534H0z"/></clipPath></defs></svg>