<svg xmlns="http://www.w3.org/2000/svg" viewBox="0 0 535 397"><g clip-path="url(#a)"><path fill="none" stroke="#fff" stroke-miterlimit="10" d="M75 151v220c0 13 12 23 27 23h70c15 0 27-10 27-23v-98m113-1v99c0 13 12 23 28 23h54c15 0 28-10 28-23V78"/><path fill="none" stroke="#fff" stroke-miterlimit="10" d="M353 258v65c0 14 13 26 28 26h72c15 0 28-12 28-26V204"/><path fill="#7badd5" d="M507 57c0-8-6-14-13-15-1-7-7-13-15-13l-8 2a19 19 0 0 0-26-14l-6 4c-3-13-15-21-28-21-14 1-25 11-26 25a15 15 0 0 0-21 10h-2c-5 0-9 3-12 7a15 15 0 0 0-14 16c0 8 6 14 14 15h143c4 0 8-2 10-5s4-7 4-11Z"/><path fill="#7badd5" d="M431 72h-19v2h19v-2Zm-3 2h-13v4h13v-4Zm107 146c0-4-4-8-8-9-1-5-5-8-10-8-1-1-3 0-5 1 0-3-2-6-5-8s-6-3-9-2l-6 3c-2-8-10-14-18-13s-15 8-15 16a9 9 0 0 0-14 7h-1c-3 0-6 1-8 4-4 1-8 5-8 9 0 5 3 9 8 10h90a9 9 0 0 0 9-10Z"/><path fill="#7badd5" d="M491 229h-19v2h19v-2Zm-3 2h-13v4h13v-4Z"/><path fill="#7badd5" stroke="#fff" stroke-miterlimit="10" d="M394 247c0-11-8-20-19-22a22 22 0 0 0-33-16 27 27 0 0 0-32-22c-5 1-10 4-13 7-5-18-22-30-41-29s-34 16-36 35l-9-2c-10 0-20 7-22 17h-2c-7 0-14 4-18 10-11 1-20 11-20 22s9 21 20 22h204c12-1 21-10 21-22Z"/><path fill="none" stroke="#fff" stroke-miterlimit="10" d="M168 225c12 0 21 9 21 21m171 23c0-12 9-21 21-21m-39-39c-4 4-6 9-6 16m-39-31-2 13"/><path fill="#7badd5" d="M272 225c0-10 8-18 18-18s18 8 19 18"/><path fill="none" stroke="#fff" stroke-miterlimit="10" d="M272 225c0-10 8-18 18-18s18 8 19 18"/><path fill="#7badd5" stroke="#fff" stroke-miterlimit="10" d="M221 210a5 5 0 1 0 0-10 5 5 0 0 0 0 10Zm-32 49a5 5 0 1 0 0-10 5 5 0 0 0 0 10Zm32-17a5 5 0 1 0 0-10 5 5 0 0 0 0 10Zm88-8a5 5 0 1 0 0-10 5 5 0 0 0 0 10Zm-38-1a5 5 0 1 0 0-10 5 5 0 0 0 0 10Zm65 1a5 5 0 1 0 0-10 5 5 0 0 0 0 10Z"/><path fill="none" stroke="#fff" stroke-miterlimit="10" d="M189 270v-11m32-17v27m42-19v20m36-10v8m21-30v32"/><path fill="#fff" d="M208 269h-19v2h19v-2Zm-3 2h-13v4h13v-4Zm117-2h-18v2h18v-2Zm-3 2h-13v4h13v-4Zm44-2h-19v2h19v-2Zm-3 2h-13v4h13v-4Z"/><path fill="#7badd5" d="M149 152c0-6-5-12-11-13-1-6-7-11-13-11-3 0-5 0-7 2 0-5-3-9-7-12s-8-3-13-2c-3 1-6 2-8 5-2-12-13-20-25-19s-21 10-22 22l-5-1c-6 0-12 4-13 10h-2c-4 0-9 2-11 6-7 1-12 6-12 13 0 4 1 7 3 10s6 4 10 4h124c3 0 7-2 9-5l3-9Z"/><path fill="#7badd5" d="M84 165H65v2h19v-2Zm-3 2H68v4h13v-4Z"/><clipPath id="a"><path fill="#fff" d="M0 0h535v395H0Z"/></clipPath></g></svg>