<svg xmlns="http://www.w3.org/2000/svg" fill="none" viewBox="0 0 390 386"><path fill="#7BADD5" stroke="#EEE" stroke-miterlimit="10" d="M343 232a25 25 0 0 0-22-24 25 25 0 0 0-37-18 30 30 0 0 0-51-17 45 45 0 0 0-88 7c-3-2-7-3-11-3a25 25 0 0 0-24 19h-2a25 25 0 0 0-21 12 25 25 0 0 0 0 49h232a25 25 0 0 0 24-25Z"/><path stroke="#EEE" stroke-miterlimit="10" d="M86 208a24 24 0 0 1 24 23m195 26a24 24 0 0 1 23-24m-43-43c-6 4-8 10-8 18m-44-36-3 15"/><path fill="#7BADD5" d="M204 208a21 21 0 0 1 43 0"/><path stroke="#EEE" stroke-miterlimit="10" d="M204 208a21 21 0 0 1 43 0"/><path fill="#7BADD5" stroke="#EEE" stroke-miterlimit="10" d="M147 191a6 6 0 1 0 0-11 6 6 0 0 0 0 11Zm-37 55a6 6 0 1 0 0-11 6 6 0 0 0 0 11Zm37-19a6 6 0 1 0 0-12 6 6 0 0 0 0 12Zm100-9a6 6 0 1 0 0-12 6 6 0 0 0 0 12Zm-44-2a6 6 0 1 0 0-11 6 6 0 0 0 0 11Zm74 2a6 6 0 1 0 0-12 6 6 0 0 0 0 12Z"/><path stroke="#EEE" stroke-miterlimit="10" d="M110 258v-12m37-19v30m47-21v22m41-11v9m24-33v36"/><path fill="#60BDD6" stroke="#EEE" d="M111 259v-1h20v1h-20Zm3 5v-4h14v4h-14Zm135-5v-1h20v1h-20Zm3 5v-4h13v4h-13Z"/><path stroke="#fff" stroke-miterlimit="10" d="M21 89v191c0 11 10 20 22 20h56c12 0 22-9 22-20v-16"/><path fill="#7BADD5" d="M106 68a15 15 0 0 0-13-15 15 15 0 0 0-23-11 18 18 0 0 0-31-10 27 27 0 0 0-54 4l-6-2a15 15 0 0 0-15 12h-1a15 15 0 0 0-13 7 15 15 0 0 0-10 25c3 3 6 5 10 5H91a15 15 0 0 0 15-15Z"/><path fill="#7BADD5" d="M32 82H10v2h22v-2Zm-4 2H14v5h14v-5Z"/><path stroke="#fff" stroke-miterlimit="10" d="M259 265v85c0 19 11 35 24 35h63c13 0 24-16 24-35V68"/><path fill="#7BADD5" d="M446 50a13 13 0 0 0-12-13 13 13 0 0 0-13-12l-7 2a16 16 0 0 0-28-9 24 24 0 0 0-47 4 13 13 0 0 0-19 9h-2a13 13 0 0 0-11 6 13 13 0 0 0 1 27h125a13 13 0 0 0 13-14Z"/><path fill="#7BADD5" d="M379 63h-17v2h17v-2Zm-3 2h-11v3h11v-3Z"/></svg>