<svg xmlns="http://www.w3.org/2000/svg" xmlns:xlink="http://www.w3.org/1999/xlink" width="349" height="365" fill="none"><defs><path id="i" fill="#383838" d="M307.42 283.87h-1.4a2.27 2.27 0 0 0 2.05 1.3v-.65a.65.65 0 0 0-.65-.65Z" opacity=".2"/></defs><rect width="349" height="363.99" y=".31" fill="#fff" rx="20"/><g fill="#000" clip-path="url(#a)"><path d="M39.38 36.46c-.51 0-1-.27-1.25-.72-.25-.45-.24-1 .04-1.43l2.58-4.05a1.44 1.44 0 0 1 2.5.06c.24.46.21 1-.07 1.43L40.6 35.8c-.27.42-.72.66-1.22.66Zm4.42 0c-.51 0-.99-.28-1.24-.72-.25-.45-.24-1 .04-1.43l2.57-4.04a1.44 1.44 0 0 1 2.52.06c.23.46.2 1-.1 1.43l-2.57 4.04c-.26.42-.72.66-1.21.66Zm4.33.04c.73 0 1.33-.59 1.33-1.3 0-.72-.6-1.3-1.33-1.3-.73 0-1.33.58-1.33 1.3 0 .71.6 1.3 1.33 1.3Zm57.67-2.53c.4 0 .65.29.65.75v1.6h.54V34.7c0-.8-.37-1.26-1.08-1.26-.27 0-.7.08-.97.59a.9.9 0 0 0-.73-.56 1 1 0 0 0-.3-.01c-.23.01-.63.15-.78.47v-.43h-.54v2.84h.54V34.8c0-.6.4-.83.78-.83.37 0 .6.28.6.75v1.6h.55V34.8c0-.48.28-.83.75-.83Zm-5.21 1.88a.9.9 0 0 0 .66-.27.93.93 0 0 0 .26-.68.9.9 0 0 0-.92-.93.9.9 0 0 0-.93.93c0 .25.09.5.26.68a.9.9 0 0 0 .66.27Zm0 .53c-.8 0-1.46-.59-1.46-1.48 0-.9.66-1.47 1.46-1.47.8 0 1.46.57 1.46 1.47s-.67 1.49-1.47 1.49Zm-4.27-1.48c0-.9.68-1.47 1.48-1.47.4 0 .8.16 1.08.45l-.42.36a.93.93 0 0 0-.66-.27.9.9 0 0 0-.94.93c0 .38.23.73.58.88.35.14.75.06 1.02-.2l.42.34c-.28.3-.67.47-1.08.46-.8 0-1.48-.59-1.48-1.48Zm-1.74.88a.38.38 0 0 1 .37-.38.38.38 0 0 1 .37.38.38.38 0 0 1-.37.36.38.38 0 0 1-.37-.36Zm1.48-5.88h-1.94l-1.36 3.5-1.35-3.5h-1.94l2.36 5.53-1.47 3.67h1.93l3.77-9.2Zm-11.8 3.08c0 .88.78 1.46 1.54 1.46.75 0 1.48-.54 1.48-1.47 0-.92-.73-1.46-1.48-1.46-.76 0-1.53.58-1.53 1.46Zm3.02 3.09v-.7c-.4.6-1.31.82-1.78.82a3.14 3.14 0 0 1-3.12-3.22 3.14 3.14 0 0 1 3.12-3.2c.39 0 1.3.12 1.78.81v-.68h1.8v6.17h-1.8Zm-5.42 0h-1.8v-.77c-.3.57-1.04.9-1.8.9-1.57 0-2.96-1.26-2.96-3.2 0-1.98 1.39-3.24 2.96-3.24.76 0 1.5.32 1.8.89v-4.12h1.8v9.54Zm-1.84-3.1a1.4 1.4 0 0 0-1.42-1.48 1.4 1.4 0 0 0-1.42 1.47c0 .92.65 1.5 1.42 1.5.76 0 1.42-.61 1.42-1.5Zm-9.2-.17c0-.94.5-1.25 1.13-1.25.62 0 1.06.4 1.06 1.22v3.3h1.83v-3.7c0-1.75-.87-2.6-2.25-2.6a2 2 0 0 0-1.76 1.02v-.9H69v6.18h1.82V32.8Zm-5.51 3.37a3.1 3.1 0 0 1-3.18-3.2 3.1 3.1 0 0 1 3.18-3.21 3.1 3.1 0 0 1 3.18 3.2 3.11 3.11 0 0 1-3.18 3.21Zm0-1.8c.76 0 1.39-.55 1.39-1.4 0-.84-.63-1.41-1.4-1.41-.36 0-.72.14-.98.4-.26.27-.4.63-.39 1 0 .86.63 1.42 1.38 1.42Zm-6.44-2.82c.54 0 1 .42 1 1.23v3.29h1.82v-3.5c0-1.87-.91-2.81-2.36-2.81a2.1 2.1 0 0 0-1.84 1.1c-.34-.72-1-1.09-1.96-1.09-.69 0-1.31.4-1.6 1.02v-.9h-1.82v6.18h1.82V32.8c0-.94.51-1.25 1.06-1.25.52 0 1 .4 1 1.19v3.33h1.83V32.8c0-.9.47-1.25 1.05-1.25Z"/></g><g fill="#000" clip-path="url(#b)"><path d="M177.6 33.23v-1.46c0-1.37.7-2.21 1.84-2.21.65 0 1.06.26 1.41.58l-.43.59a1.4 1.4 0 0 0-.98-.4c-.68 0-1.06.5-1.06 1.4v1.5c0 .88.33 1.34 1 1.34.47 0 .8-.2 1.04-.4l.35.6c-.3.29-.82.58-1.41.58-1.09-.03-1.77-.85-1.77-2.12Zm6.86-.33v.43c0 1.17-.57 2.02-1.66 2.02-1.08 0-1.65-.81-1.65-2.02v-.42c0-1.17.57-1.99 1.65-1.99 1.09-.03 1.66.82 1.66 1.99Zm-2.5-.02v.45c0 .85.27 1.27.82 1.27.54 0 .84-.42.84-1.27v-.45c0-.82-.3-1.24-.84-1.24-.52 0-.82.42-.82 1.24Zm6.11-.56v2.93h-.81V32.4c0-.52-.22-.75-.55-.75-.32 0-.57.2-.76.52v3.06h-.81v-4.2h.7l.06.42c.24-.35.57-.55 1.03-.55.65 0 1.14.52 1.14 1.43Zm.49 2.44.38-.55c.3.26.6.42 1 .42.41 0 .68-.13.68-.45v-.07c0-.3-.13-.39-.6-.58l-.43-.2c-.54-.23-.84-.55-.84-1.07v-.17c0-.68.54-1.13 1.33-1.13a2 2 0 0 1 1.33.52l-.38.55a1.4 1.4 0 0 0-.92-.33c-.38 0-.55.2-.55.4v.06c0 .23.11.36.57.55l.44.2c.49.23.87.49.87 1.14v.16c0 .78-.66 1.17-1.42 1.17a2.37 2.37 0 0 1-1.46-.62Zm5.48.46c-.16.06-.4.1-.62.1-.68 0-1.06-.36-1.06-1.14v-2.44h-.54v-.72h.54l.05-1.04h.74v1.04h.76v.72h-.76v2.37c0 .3.13.46.43.46.14 0 .24 0 .35-.03l.11.68Zm2.66-4.23-.13.91c-.06 0-.14-.03-.22-.03-.4 0-.73.2-.92.84v2.5h-.82v-4.19h.6l.13.65c.22-.55.6-.75.95-.75.17 0 .3.04.41.07Zm3.37.03v4.2h-.7l-.06-.46c-.27.36-.63.59-1.06.59-.63 0-1.11-.49-1.11-1.27v-3.03h.81v2.96c0 .4.16.6.49.6.3 0 .6-.2.79-.56v-3.03h.84Zm.65 2.28v-.36c0-1.2.57-2.05 1.6-2.05.49 0 .84.2 1.17.55l-.38.52a.93.93 0 0 0-.73-.32c-.52 0-.82.42-.82 1.27v.39c0 .85.3 1.27.82 1.27.32 0 .54-.16.76-.33l.32.59c-.3.3-.73.49-1.14.49-1 0-1.6-.82-1.6-2.02Zm5.35 1.92c-.17.06-.41.1-.63.1-.68 0-1.06-.36-1.06-1.14v-2.44h-.54v-.72h.54l.06-1.04h.73v1.04h.76v.72h-.73v2.37c0 .3.13.46.43.46.14 0 .25 0 .36-.03l.08.68Zm1.65-4.2v4.2h-.81v-3.48h-.52v-.72h1.33Zm-.95-1.24c0-.32.22-.58.5-.58.26 0 .48.26.48.58 0 .33-.22.6-.49.6-.24 0-.49-.27-.49-.6Zm4.89 3.12v.43c0 1.17-.57 2.02-1.66 2.02-1.08 0-1.65-.81-1.65-2.02v-.42c0-1.17.57-1.99 1.65-1.99 1.09-.03 1.66.82 1.66 1.99Zm-2.47-.02v.45c0 .85.27 1.27.81 1.27.55 0 .84-.42.84-1.27v-.45c0-.82-.3-1.24-.84-1.24s-.81.42-.81 1.24Zm6.08-.56v2.93h-.82V32.4c0-.52-.21-.75-.54-.75-.32 0-.57.2-.76.52v3.06h-.81v-4.2h.7l.06.42c.24-.35.57-.55 1.03-.55.65 0 1.14.52 1.14 1.43Zm2.44.91v-1.46c0-1.37.7-2.21 1.85-2.21.65 0 1.06.26 1.41.58l-.43.59a1.4 1.4 0 0 0-.98-.4c-.68 0-1.06.5-1.06 1.4v1.5c0 .88.33 1.34 1 1.34.47 0 .8-.2 1.04-.4l.35.6c-.3.29-.82.58-1.41.58-1.09-.03-1.77-.85-1.77-2.12Zm4.64 1.01c0 .23.06.33.25.33h.13l.09.68a1 1 0 0 1-.47.1c-.48 0-.81-.33-.81-.94v-5.05h.81v4.88Zm4.05-1.34v.43c0 1.17-.57 2.02-1.66 2.02-1.08 0-1.65-.81-1.65-2.02v-.42c0-1.17.57-1.99 1.65-1.99 1.09-.03 1.66.82 1.66 1.99Zm-2.5-.02v.45c0 .85.27 1.27.82 1.27.54 0 .84-.42.84-1.27v-.45c0-.82-.3-1.24-.84-1.24-.52 0-.82.42-.82 1.24Zm6.05-1.86v4.2h-.7l-.06-.46c-.27.36-.62.59-1.06.59-.62 0-1.1-.49-1.1-1.27v-3.03h.8v2.96c0 .4.17.6.5.6.3 0 .6-.2.78-.56v-3.03h.84Zm3.75-1.66v5.86h-.65l-.08-.46c-.25.33-.55.56-.98.56-.81 0-1.39-.78-1.39-1.99v-.45c0-1.17.58-1.99 1.44-1.99.36 0 .6.13.85.36v-1.89h.81Zm-.81 4.75V32a.85.85 0 0 0-.71-.36c-.46 0-.76.42-.76 1.24v.48c0 .85.27 1.24.73 1.24.33 0 .55-.2.74-.49Zm-57.33-4.42h-1.41l-1.69 2.24V29.7h-1.16v5.53h1.16v-2.08l1.6 2.08h1.5l-2.15-2.73 2.15-2.8Zm-6.16 2.27-1.09-.13c-.63-.1-.79-.26-.79-.52 0-.29.33-.55.95-.55.6 0 .93.26.98.68h1.17c-.06-1.17-.87-1.88-2.07-1.88-1.4 0-2.14.68-2.14 1.88 0 .98.46 1.44 1.47 1.57l1.08.13c.4.06.6.26.6.48 0 .3-.27.56-.95.56-.79 0-1.09-.23-1.14-.72h-1.14c.05 1.27.73 1.92 2.22 1.92 1.36 0 2.12-.71 2.12-1.79.03-.94-.43-1.5-1.27-1.63Zm-7.28 3.26h3.72v-1.2h-2.55v-.98h2.03v-1.2h-2.03v-.95h2.55v-1.2h-3.72v5.53Zm-2.8-5.53h-2.17v5.53h2.17c1.66 0 2.12-.75 2.12-2.8 0-1.95-.43-2.73-2.12-2.73ZM159.3 34h-.95v-3.15h.95c.73 0 .95.23.95 1.53 0 1.2-.25 1.62-.95 1.62Zm-5.32-4.48c-1.69 0-2.55 1.24-2.55 2.9 0 1.7.86 2.93 2.55 2.93 1.68 0 2.55-1.24 2.55-2.93 0-1.66-.87-2.9-2.55-2.9Zm0 4.6c-.87 0-1.36-.66-1.36-1.7 0-1 .49-1.66 1.36-1.66.87 0 1.36.65 1.36 1.66 0 1.07-.5 1.7-1.36 1.7Zm-6.9-3.22h1.5v4.32h1.16v-4.33h1.5v-1.2h-4.16v1.2Zm-1.71 2.2c0 .72-.38 1.01-1 1.01-.63 0-1-.3-1-1v-3.42h-1.17v3.58c0 1.6 1.2 2.08 2.2 2.08 1 0 2.17-.49 2.17-2.08v-3.58h-1.17v3.41h-.03Zm-6.65-3.41-1.76 5.53h1.22l.3-1.04h1.98l.3 1.04H142l-1.8-5.53h-1.49Zm.11 3.32.65-2.18.63 2.18h-1.28Zm-10.64 2.21 4.13-3.1h2.14c.08 0 .14.07.14.17 0 .07-.03.1-.06.13l-2.03 1.46c-.14.1-.2.3-.2.43v.9h2.59v-5.33c0-.1-.09-.2-.17-.2h-2.47l-4.1 3.07v2.47h.03Z"/></g><g clip-path="url(#c)"><path fill="#000" d="M263.87 26.56h1.78v1.88h-1.78v-1.88Zm31.21 0h1.79v1.88h-1.79v-1.88Z"/><path fill="#E2E2E2" d="M259.92 29.12a2.7 2.7 0 0 0-2.08.85c-.04-.3-.24-.69-1.01-.69h-1.68v1.76h.69c.11 0 .15.04.15.16v8.04h2v-3.25c.31.29.9.69 1.84.69 1.95 0 3.32-1.56 3.32-3.78 0-2.26-1.3-3.78-3.23-3.78Zm-.4 5.81c-1.08 0-1.57-1.03-1.57-1.99 0-1.5.82-2.05 1.6-2.05.94 0 1.57.82 1.57 2.04 0 1.38-.8 2-1.6 2Z"/><path fill="#E2E2E2" d="M265.78 34.61v-4.26c0-.72-.34-1.07-1.05-1.07h-1.79v1.76h.69c.12 0 .15.04.15.16v4.24c0 .73.34 1.07 1.06 1.07h1.79v-1.74h-.7c-.1 0-.15-.05-.15-.16Z"/><path fill="#E2E2E2" d="M271 29.12c-1.12 0-1.77.5-2.08.85-.04-.3-.24-.69-1-.69h-1.69v1.76h.7c.1 0 .14.04.14.16v8.04h2v-3.25c.31.29.91.69 1.84.69 1.96 0 3.32-1.56 3.32-3.78 0-2.26-1.3-3.78-3.22-3.78m-.41 5.81c-1.07 0-1.56-1.03-1.56-2 0-1.5.82-2.04 1.59-2.04.94 0 1.58.82 1.58 2.04 0 1.38-.81 2-1.61 2Zm7.32-5.81c-2.15 0-3.66 1.55-3.66 3.78a3.7 3.7 0 0 0 3.87 3.78 4.32 4.32 0 0 0 2.88-1.1l.08-.07-.87-1.45-.13.12s-.8.74-1.84.74c-1 0-1.74-.62-1.91-1.58h4.74l.01-.13c0-.02.05-.44.05-.65 0-2.06-1.3-3.44-3.22-3.44Zm-1.5 2.73c.2-.7.75-1.1 1.5-1.1.6 0 1.07.45 1.15 1.1h-2.66Zm11.99 2.76v-6.98c0-.72-.35-1.07-1.07-1.07h-1.79v1.76h.69c.12 0 .15.04.15.16v1.26c-.3-.27-.87-.62-1.86-.62-1.94 0-3.3 1.55-3.3 3.78 0 2.26 1.3 3.78 3.23 3.78 1.1 0 1.74-.52 2.05-.87.04.3.25.7 1 .7h1.73v-1.74h-.68c-.1 0-.15-.05-.15-.16Zm-3.57.32c-.95 0-1.56-.8-1.56-2.03 0-1.2.64-2 1.59-2 1.08 0 1.56 1 1.56 1.99 0 1.5-.82 2.04-1.59 2.04Zm8.86-5.74c-.84 0-1.6.48-2.06 1.25v-.17c0-.65-.36-.99-1.06-.99h-1.72v1.76h.68c.12 0 .16.04.16.16v5.31h2v-2.9c0-.37.05-.74.14-1.08.3-1 1.1-1.35 1.75-1.35.23 0 .4.02.4.02l.16.03v-2l-.12-.01s-.17-.03-.33-.03Zm3.3 5.42v-4.26c0-.72-.34-1.07-1.05-1.07h-1.62v1.76h.52c.11 0 .15.04.15.16v4.24c0 .73.34 1.07 1.06 1.07h1.78v-1.74h-.69c-.1 0-.15-.05-.15-.16Z"/><path fill="#E2E2E2" d="M304.52 31.04v-1.76h-1.07c-.62 0-.96.22-1.15.75l-1.3 3.65a5.9 5.9 0 0 0-.13.43c-.04-.14-.08-.3-.13-.43l-1.3-3.65c-.2-.54-.53-.75-1.16-.75h-1.14v1.76h.3c.15 0 .2.06.24.15l2.02 5.32h2.25l2.02-5.32c.03-.1.08-.15.24-.15h.3Z"/><path fill="#E2E2E2" d="M310.95 33.21c0-.02.04-.44.04-.65 0-2.06-1.3-3.44-3.22-3.44-2.15 0-3.66 1.55-3.66 3.78a3.7 3.7 0 0 0 3.87 3.78 4.32 4.32 0 0 0 2.88-1.1l.08-.07-.87-1.45-.13.12s-.8.74-1.84.74c-1 0-1.74-.62-1.91-1.58h4.74l.02-.13Zm-4.69-1.35a1.5 1.5 0 0 1 1.51-1.12c.6 0 1.07.46 1.15 1.12h-2.66Z"/><path fill="#000" d="M293.7 29.19c-.65 0-1.25.3-1.7.78h2.15v-.73l-.12-.02s-.17-.03-.33-.03Zm8.6.84-.09.23 2.3.18v-1.16h-1.06c-.62 0-.96.22-1.15.75Zm-42.38-.91a2.7 2.7 0 0 0-2.08.85c-.04-.3-.24-.69-1.01-.69h-1.68v1.76h.69c.11 0 .15.04.15.16v4.48c.94-.33 1.88-.64 2.82-.93-.58-.34-.86-1.1-.86-1.81 0-1.5.82-2.05 1.6-2.05.94 0 1.57.82 1.57 2.04 0 .5-.1.91-.29 1.22l2.28-.62c.02-.2.04-.41.04-.63 0-2.26-1.3-3.78-3.23-3.78Zm4.8.16h-1.78v1.76h.69c.12 0 .15.04.15.16v2.17l2-.48v-2.54c0-.72-.34-1.07-1.05-1.07Zm-.86-2.72h1.79v1.88h-1.78v-1.88Zm7.15 2.56c-1.13 0-1.77.5-2.09.85-.04-.3-.23-.69-1-.69h-1.69v1.76h.7c.1 0 .15.04.15.16v1.4l2.05-.42c.23-.93.88-1.29 1.5-1.29.56 0 1.01.3 1.29.79.69-.12 1.38-.23 2.08-.33a3.06 3.06 0 0 0-3-2.23Zm6.91 0c-1.57 0-2.8.83-3.34 2.15.85-.13 1.7-.24 2.57-.35.22-.11.48-.18.77-.18.11 0 .21.02.31.05.8-.09 1.58-.17 2.38-.24a3.04 3.04 0 0 0-2.69-1.43Zm9.42-2.56h-1.79v1.76h.7c.1 0 .15.04.15.16v1.26a2.7 2.7 0 0 0-1.87-.62 3.1 3.1 0 0 0-2.57 1.3 132 132 0 0 1 6.45-.38v-2.4c0-.73-.35-1.08-1.07-1.08Zm3.24 2.72h-1.72v.75c.9-.03 1.83-.05 2.75-.06-.1-.45-.44-.69-1.03-.69Zm4.5-2.72h1.79v1.88h-1.79v-1.88Zm.87 2.72h-1.62v.69c.88 0 1.76.02 2.64.05-.1-.5-.44-.74-1.02-.74Zm2.33 0h-1.14v.74c.78.02 1.55.05 2.32.09l-.03-.08c-.2-.54-.52-.75-1.15-.75Zm9.5-.16c-1.24 0-2.25.5-2.9 1.35a126 126 0 0 1 2.8.28l.42.05c.89.1 1.77.2 2.64.33a3.02 3.02 0 0 0-2.97-2.01Z"/></g><path fill="#000" d="m43.39 66.7-4.63 2.98 4.63 2.94-4.63 2.95-4.64-2.99 4.64-2.94-4.64-2.94 4.64-2.95 4.63 2.95Zm-4.63 9.81 4.63-2.94 4.59 2.94-4.6 2.94-4.62-2.94Zm4.63-3.93 4.63-2.94-4.63-2.94 4.59-2.95 4.63 2.95-4.63 2.98 4.63 2.94-4.63 2.95-4.6-2.99Zm12.83-5.88H60c2.4 0 4.36 1.37 4.36 4.55v.67c0 3.14-1.85 4.59-4.28 4.59h-3.85V66.7Zm2.12 1.76v6.24h1.61c1.34 0 2.24-.86 2.24-2.86v-.51c0-1.96-.94-2.87-2.32-2.87h-1.53Zm7.1.12h1.7l.27 1.85c.31-1.26 1.1-1.93 2.59-1.93h.51v2.12h-.86c-1.7 0-2.12.6-2.12 2.28v3.61h-2.04v-7.93h-.04Zm5.5 4.12v-.2c0-2.66 1.69-4.12 4-4.12 2.32 0 4.01 1.46 4.01 4.13v.2c0 2.62-1.6 4.04-4 4.04s-4-1.42-4-4.05Zm5.89 0v-.2c0-1.49-.75-2.39-1.92-2.39-1.18 0-1.93.83-1.93 2.4v.2c0 1.4.75 2.23 1.93 2.23 1.17 0 1.92-.82 1.92-2.24Zm3.22-4.12h1.73l.2 1.5a2.67 2.67 0 0 1 2.58-1.7c2.04 0 3.34 1.46 3.34 4.13v.23c0 2.6-1.45 4-3.34 4-1.25 0-2.12-.58-2.5-1.49v4H80V68.59h.04Zm5.77 4.12v-.2c0-1.56-.83-2.35-1.88-2.35-1.06 0-1.93.9-1.93 2.36v.15c0 1.42.75 2.28 1.89 2.28 1.13 0 1.92-.79 1.92-2.24Zm5.14 2.36-.16 1.45h-1.76v-10.6h2V70c.43-1.06 1.33-1.6 2.59-1.6 1.88.03 3.3 1.33 3.3 3.96v.23c0 2.63-1.34 4.17-3.34 4.17-1.33-.04-2.2-.67-2.63-1.7Zm3.85-2.48v-.2c0-1.44-.79-2.27-1.89-2.27-1.1 0-1.92.94-1.92 2.32v.15c0 1.5.75 2.36 1.88 2.36 1.14 0 1.93-.79 1.93-2.36Zm2.98.12v-.2c0-2.66 1.73-4.12 4.04-4.12 2.32 0 4 1.46 4 4.13v.2c0 2.62-1.64 4.04-4 4.04-2.35 0-4.04-1.42-4.04-4.05Zm5.97 0v-.2c0-1.49-.75-2.39-1.93-2.39-1.17 0-1.92.83-1.92 2.4v.2c0 1.4.75 2.23 1.92 2.23 1.18 0 1.93-.82 1.93-2.24Zm4.79-.31-2.8-3.8h2.4l1.61 2.39 1.61-2.4h2.36l-2.83 3.8 2.98 4.13h-2.35l-1.8-2.63-1.77 2.63h-2.44l3.03-4.12Zm44.82-5.28h1.23v6.26c0 1.66-.73 2.79-2.43 2.79-.5.02-1-.06-1.46-.23v-1.2c.4.18.83.26 1.26.23 1.03 0 1.4-.6 1.4-1.5v-6.35Zm3.49-.5a.8.8 0 0 1 .8.74v.1a.83.83 0 0 1-1.17.91.84.84 0 0 1-.46-.92.77.77 0 0 1 .41-.74.76.76 0 0 1 .29-.09h.13Zm-.6 2.66h1.17v6.82h-1.17v-6.82Zm2.96 0h1.14v1.2c.4-.8 1.1-1.36 2.42-1.3v1.17c-1.53-.17-2.42.3-2.42 1.73v4.06h-1.14v-6.86Zm9.08 5.63a2.43 2.43 0 0 1-2.32 1.36c-1.8 0-2.73-1.56-2.73-3.56s.97-3.56 2.9-3.56a2.2 2.2 0 0 1 2.16 1.33v-1.2h1.2v6.82h-1.2v-1.2Zm-1.99.26c1.06 0 2-.66 2-2.2v-.56c0-1.53-.87-2.2-1.87-2.2s-2 .87-2 2.47.64 2.5 1.87 2.5Zm10.15 1.1a6.49 6.49 0 0 1-3.23-.7V74.3c1.03.5 2.15.76 3.3.76 1.36 0 1.86-.53 1.86-1.33s-.5-1.23-2.2-1.66c-1.7-.43-2.93-1.2-2.93-2.66 0-1.47 1.07-2.43 3.16-2.43a5.5 5.5 0 0 1 2.76.66v1.2a5.56 5.56 0 0 0-2.82-.66c-1.17 0-1.87.4-1.87 1.23s.57 1.1 2.17 1.5c1.6.4 2.96 1.1 2.96 2.72 0 1.63-.94 2.63-3.16 2.63Zm4.22-3.59c0-2.06 1.2-3.53 3.23-3.53 2.03 0 3.26 1.5 3.26 3.53s-1.2 3.59-3.26 3.59c-2.06 0-3.23-1.53-3.23-3.6Zm1.13 0c0 1.3.67 2.5 2.1 2.5 1.43 0 2.1-1.2 2.1-2.5s-.64-2.43-2.1-2.43c-1.47 0-2.1 1.13-2.1 2.43Zm8.35-3.4h1.76v1.07h-1.76v5.75H189v-5.75h-1.1v-1.07h1.1v-.76c0-1.26.7-2.13 2.2-2.13.25 0 .5.03.76.1v1.1l-.74-.07a.97.97 0 0 0-1.1 1.03l.04.73Zm5.75 5.69.74-.1V76a2.2 2.2 0 0 1-.8.1c-1.47 0-2.16-.83-2.16-2.13v-3.62h-1.13v-1.07h1.1v-1.46h1.16v1.46h1.8v1.07h-1.8v3.6c0 .62.36 1.02 1.1 1.02Zm1.07-5.69h1.3l1.96 5.8 2-5.8h1.13l2 5.8 1.96-5.8h1.3l-2.5 6.82h-1.53l-1.17-3.29-.63-2.13-.63 2.13-1.2 3.3h-1.5l-2.49-6.83Zm17.03 5.63a2.36 2.36 0 0 1-2.3 1.36c-1.82 0-2.75-1.56-2.75-3.56s.96-3.56 2.89-3.56a2.2 2.2 0 0 1 2.16 1.33v-1.2h1.2v6.82h-1.2v-1.2Zm-2 .26c1.07 0 2-.66 2-2.2v-.56c0-1.53-.86-2.2-1.86-2.2s-2 .87-2 2.47.67 2.5 1.87 2.5Zm4.99-5.89h1.14v1.2c.4-.8 1.1-1.36 2.43-1.3v1.17c-1.5-.17-2.43.3-2.43 1.73v4.06H217v-6.86Zm7.72 6.99c-2.56 0-3.69-1.5-3.69-3.6 0-2.09 1.17-3.52 3.26-3.52 2.1 0 2.93 1.47 2.93 3.53v.53h-5c.18 1.16.94 1.93 2.54 1.93.71 0 1.42-.13 2.1-.37v1.1c-.68.27-1.4.4-2.14.4Zm-2.52-4.06h3.82c-.07-1.26-.63-2-1.8-2-1.16 0-1.9.8-2.02 2Zm-74.55-.93-5.1-5.06-.46-.5-3.82 3.83-1.73 1.73a.43.43 0 0 0-.12.52l.12.15 3.46 3.49 2.1 2.06 3.78-3.8.07-.06 1.7-1.7a.5.5 0 0 0 0-.66Zm-5.59 2.1-1.73-1.77 1.73-1.73 1.76 1.73-1.76 1.77Z"/><path fill="#E2E2E2" d="M142.06 69.87a2.92 2.92 0 0 1 0-4.12l-3.83 3.8 2.07 2.09 1.76-1.77Zm1.76 1.73-1.76 1.73a2.94 2.94 0 0 1 0 4.16l3.82-3.82-2.06-2.07Z"/><path fill="#000" d="M254.43 69.14h1.07c.67 0 1.37.14 1.37.92 0 .67-.43 1.15-1.7 1.15H254l.43-2.06Zm-4.72 7.59h3.11l.64-3.08h2.12c2.68 0 4.42-1.77 4.42-3.84 0-2.25-1.2-3.3-3.08-3.3h-5.06l-2.15 10.22Zm14.12-6.7.38 3.05h-1.96l1.58-3.05Zm-6.72 6.7h3.21l.78-1.45h3.32l.16 1.45h3.08l-1.55-10.21H263l-5.9 10.2Zm13.8-6.4 2.49-3.8h3.7l-4.99 6.42-.78 3.78h-3.13l.78-3.75-2.2-6.46h3.17l.95 3.8Zm13.69 2.5c-.2 1.05-1 4.13-5.26 4.13-2.97 0-4.39-1.93-4.39-4.66 0-3.3 2.06-6.05 5.55-6.05 2.27 0 4.3.99 4.36 4.04h-2.97c.03-.96-.43-1.5-1.4-1.5-1.73 0-2.38 2-2.38 3.45 0 .86.22 2.14 1.66 2.14 1 0 1.56-.67 1.75-1.58l3.08.04Zm1.82-6.3h3.16l-.76 3.53h2.87l.75-3.54h3.16l-2.14 10.2h-3.13l.83-4.04h-2.87l-.86 4.05h-3.13l2.12-10.2Zm10.02 0h8.44l-.54 2.62h-5.3l-.27 1.26h4.93l-.5 2.43h-4.93L298 74.1h5.4l-.53 2.63h-8.58l2.15-10.2Z"/><path fill="#000" d="m307.05 71.32-2.36-4.8h3.44l.99 2.65 2.03-2.65h3.73l-4.26 4.8 2.49 5.4h-3.54l-1.12-2.83-2.39 2.84h-3.86l4.85-5.41ZM47.7 103.87H35.48c-.81 0-1.48.66-1.48 1.48v12.22c0 .82.67 1.48 1.48 1.48H47.7c.82 0 1.48-.66 1.48-1.48v-12.22c0-.82-.66-1.48-1.48-1.48Z"/><path fill="#E2E2E2" d="M46.5 105.86h-3.2c-.4 0-.72.32-.72.71v5.22c0 .39.32.71.71.71h3.22a.7.7 0 0 0 .7-.71v-5.22a.7.7 0 0 0-.7-.71Zm-6.6 0h-3.22a.7.7 0 0 0-.71.71v9.01c0 .4.32.72.71.72h3.22a.7.7 0 0 0 .71-.72v-9c0-.4-.32-.72-.71-.72Z"/><path fill="#000" d="M81.22 122.5a1.77 1.77 0 0 1-1.78-1.8 1.78 1.78 0 1 1 3.56 0 1.78 1.78 0 0 1-1.78 1.8Zm1.78.25a.77.77 0 0 0 .65.62h.21c.05 0 .08-.02.11-.05a.15.15 0 0 0 .05-.1v-4.98a.15.15 0 0 0-.16-.15h-.7a.15.15 0 0 0-.16.15v.4a2.24 2.24 0 0 0-1.78-.74 2.8 2.8 0 1 0 .97 5.41c.31-.12.59-.31.81-.56Zm2.7-.73c.43.31.95.49 1.48.49.46 0 .95-.25.95-.68 0-.43-1.04-.64-1.72-.86-.67-.21-1.22-.7-1.22-1.44s1-1.66 2-1.66c.57 0 1.14.18 1.62.5.15.11.06.24.06.24l-.4.55a.15.15 0 0 1-.04.05.15.15 0 0 1-.05.03h-.06a.15.15 0 0 1-.06-.02c-.3-.24-.69-.37-1.08-.37-.67 0-.95.28-.95.62 0 .34.46.52 1.01.67.56.16 1.94.56 1.94 1.7 0 1.13-.95 1.65-2 1.65-.74.02-1.46-.2-2.06-.64a.19.19 0 0 1-.03-.22l.4-.55a.14.14 0 0 1 .1-.08h.06c.02 0 .04 0 .06.02Zm8.76.73a.77.77 0 0 0 .65.62h.21c.04 0 .08-.02.1-.05a.15.15 0 0 0 .05-.1v-4.98a.15.15 0 0 0-.15-.15h-.7a.15.15 0 0 0-.16.15v.4a2.24 2.24 0 0 0-1.78-.74 2.8 2.8 0 1 0 .97 5.41c.3-.12.58-.31.81-.56Zm-1.78-.24a1.77 1.77 0 0 1-1.66-1.12 1.78 1.78 0 0 1-.12-.7 1.78 1.78 0 1 1 3.56 0 1.78 1.78 0 0 1-1.78 1.82Zm9.12.4v-2.58c0-1.44-.92-2.43-2.4-2.43a1.8 1.8 0 0 0-1.47.74.58.58 0 0 0-.64-.55h-.22a.15.15 0 0 0-.15.15v5c0 .05.01.09.04.11.03.03.07.05.11.05h.83c0-.03.03-.06.03-.1v-2.94a1.41 1.41 0 0 1 1.41-1.41 1.4 1.4 0 0 1 1.32.86c.07.18.1.36.1.55v2.95a.18.18 0 0 0 .18.15h.83c0-.03.03-.06.03-.1v-.45Zm5.47-.16a.77.77 0 0 0 .64.62h.22c.04 0 .08-.02.12-.04a.18.18 0 0 0 .06-.11v-4.98h-.03a.15.15 0 0 0-.15-.15h-.7a.15.15 0 0 0-.16.15v.4a2.24 2.24 0 0 0-1.78-.74 2.8 2.8 0 1 0 .97 5.41c.3-.12.58-.31.8-.56Zm-1.78-.24a1.77 1.77 0 0 1-1.66-1.12 1.78 1.78 0 0 1-.13-.7 1.78 1.78 0 0 1 3.57 0 1.78 1.78 0 0 1-1.78 1.82Zm-8.91-13.11a2.46 2.46 0 1 0 0 4.9 2.46 2.46 0 0 0 0-4.9Zm-6.36 0a2.46 2.46 0 1 0 0 4.9 2.46 2.46 0 0 0 0-4.9Zm5.62-3.08a2.46 2.46 0 1 1-4.91 0 2.46 2.46 0 0 1 4.91 0Zm53.2 4.96a4.12 4.12 0 0 0-3.66 2.18 4.19 4.19 0 0 0-6.17-1.36v-3.48a.83.83 0 0 0-1.65 0v6.85a4.15 4.15 0 0 0 7.81 1.88 4.13 4.13 0 1 0 3.67-6.07Zm-7.33 6.63a2.5 2.5 0 1 1-.04-5.01 2.5 2.5 0 0 1 .04 5Zm7.33 0a2.5 2.5 0 1 1-.04-5.01 2.5 2.5 0 0 1 .04 5Z"/><path fill="#000" d="m158.75 118.27-2.12-2.84 2.12-2.86a.82.82 0 0 0-.79-1.3.85.85 0 0 0-.55.32l-1.83 2.45-1.83-2.45a.82.82 0 0 0-1.32.98l2.12 2.86-2.12 2.84a.82.82 0 0 0 1.32.98l1.83-2.44 1.83 2.44a.85.85 0 0 0 1.16.16.82.82 0 0 0 .18-1.14Zm39.07 3.04h-1.3v-5.13h1.3v5.13Zm10.45-3.64a2.25 2.25 0 0 0-1.11-.28 1.32 1.32 0 0 0-1.4 1.36 1.37 1.37 0 0 0 .86 1.3c.17.06.35.1.54.09.39 0 .77-.1 1.11-.28v1.36c-.38.12-.78.19-1.17.19-1.49 0-2.75-1-2.75-2.66 0-1.67 1.14-2.66 2.75-2.66.4 0 .79.07 1.17.19v1.39Zm-13.54 0a2.2 2.2 0 0 0-1.08-.28 1.4 1.4 0 1 0 0 2.75c.38 0 .75-.1 1.08-.28v1.36a3.6 3.6 0 0 1-1.17.19c-1.45 0-2.75-1-2.75-2.66a2.61 2.61 0 0 1 2.75-2.66c.4 0 .8.07 1.17.19v1.39Zm17.62-.28a1.36 1.36 0 1 0 0 2.72 1.36 1.36 0 0 0 0-2.72Zm2.72 1.36a2.7 2.7 0 0 1-3.21 2.73 2.72 2.72 0 0 1 .49-5.39 2.63 2.63 0 0 1 2.72 2.66Zm-12.33-1.4a5.33 5.33 0 0 0-1.02-.15c-.53 0-.8.16-.8.4 0 .25.37.44.58.5l.37.12c.84.28 1.2.84 1.2 1.45 0 1.3-1.1 1.74-2.1 1.74a9.6 9.6 0 0 1-1.41-.13v-1.2c.4.12.81.2 1.23.21.65 0 .93-.18.93-.5 0-.3-.25-.4-.56-.49l-.28-.09c-.74-.25-1.32-.65-1.32-1.51 0-.87.7-1.61 1.91-1.61.43.01.85.07 1.27.15v1.12Zm-13.29-6.7a.65.65 0 0 0-.65-.62.63.63 0 0 0-.46.17.63.63 0 0 0-.2.45v1.36a.62.62 0 0 0 .66.62.65.65 0 0 0 .65-.62v-1.36Zm3.52-1.76a.66.66 0 0 0-.19-.46.64.64 0 0 0-.46-.2.68.68 0 0 0-.65.66V112a.65.65 0 1 0 1.3 0v-3.12Zm3.56-2.41a.65.65 0 0 0-1.11-.46.65.65 0 0 0-.2.46v6.83a.65.65 0 0 0 .66.62.67.67 0 0 0 .65-.62v-6.83Zm3.52 2.4a.64.64 0 0 0-.2-.45.64.64 0 0 0-.9 0 .68.68 0 0 0-.2.46V112a.65.65 0 0 0 1.1.46.65.65 0 0 0 .2-.46v-3.12Zm3.52 1.77a.62.62 0 0 0-.65-.62.62.62 0 0 0-.61.62v1.36a.62.62 0 0 0 .37.6c.08.03.16.05.24.05a.65.65 0 0 0 .65-.65v-1.36Zm3.56-1.76a.68.68 0 0 0-.68-.62.62.62 0 0 0-.62.62V112a.65.65 0 1 0 1.3 0v-3.12Zm3.52-2.41a.66.66 0 0 0-.19-.46.64.64 0 0 0-.46-.2.65.65 0 0 0-.65.66v6.83a.65.65 0 0 0 .87.61.64.64 0 0 0 .37-.34.66.66 0 0 0 .06-.24v-6.86Zm3.52 2.4a.65.65 0 0 0-.35-.72.65.65 0 0 0-.91.73V112a.62.62 0 0 0 .37.6c.08.03.16.05.24.05a.65.65 0 0 0 .65-.65v-3.12Zm3.56 1.77a.65.65 0 0 0-.65-.62.62.62 0 0 0-.6.38.62.62 0 0 0-.05.24v1.36a.65.65 0 1 0 1.3 0v-1.36Zm-.74 9.98v.1h-.25v.58h-.1v-.58h-.21v-.1h.56Zm.03 0h.15l.19.56h.03l.18-.56h.16v.68h-.13v-.55l-.18.55h-.1l-.21-.55v.55h-.1v-.68Z"/><g clip-path="url(#d)"><path fill="#000" d="M253.97 120.53a6.92 6.92 0 0 0 6.99-6.85 6.92 6.92 0 0 0-7-6.86 6.93 6.93 0 0 0-6.99 6.86 6.92 6.92 0 0 0 7 6.85Z"/><path fill="#E2E2E2" d="m250.32 113.66 1.2-1.17a.2.2 0 0 0-.02-.3.21.21 0 0 0-.14-.05c-.06 0-.1.02-.15.05l-1.2 1.17-1.19-1.17a.22.22 0 0 0-.3 0 .2.2 0 0 0 0 .3l1.2 1.17-1.2 1.17a.21.21 0 0 0-.07.15c0 .02 0 .05.02.08a.22.22 0 0 0 .11.11c.03.02.06.02.09.02s.05 0 .08-.02a.24.24 0 0 0 .07-.04l1.2-1.17 1.19 1.16a.2.2 0 0 0 .1.06.22.22 0 0 0 .23-.09.2.2 0 0 0 .02-.2.22.22 0 0 0-.05-.06l-1.19-1.17m7.1 0c0 .2.17.38.38.38.1 0 .2-.04.28-.11a.38.38 0 0 0 0-.54.4.4 0 0 0-.28-.11.38.38 0 0 0-.38.38m-.74 0c0-.6.5-1.1 1.12-1.1.62 0 1.13.5 1.13 1.1 0 .6-.5 1.1-1.13 1.1-.3 0-.58-.12-.8-.32a1.1 1.1 0 0 1-.32-.78Zm-.44 0c0 .85.7 1.53 1.56 1.53.87 0 1.57-.68 1.57-1.53s-.7-1.54-1.57-1.54a1.56 1.56 0 0 0-1.56 1.54Zm-.12-1.51h-.06a.9.9 0 0 0-.55.18.22.22 0 0 0-.36-.1.21.21 0 0 0-.06.14v2.6c0 .05.03.1.07.13a.2.2 0 0 0 .29 0 .2.2 0 0 0 .07-.14v-1.6c0-.52.05-.73.51-.8h.1a.2.2 0 0 0 .2-.2.2.2 0 0 0-.06-.15.22.22 0 0 0-.15-.06m-4.1 1.26v-.02c.06-.24.2-.45.4-.6a1.15 1.15 0 0 1 1.4 0c.2.16.34.37.4.61h-2.2Zm2.64-.04a1.54 1.54 0 0 0-1.58-1.24 1.56 1.56 0 0 0-1.43 1c-.1.3-.12.6-.05.91a1.55 1.55 0 0 0 1.33 1.15c.2.02.38.01.57-.04a1.56 1.56 0 0 0 .87-.57c.09-.1.07-.26-.02-.33-.08-.06-.21-.08-.32.05l-.07.1a1.15 1.15 0 0 1-.84.38 1.15 1.15 0 0 1-1.12-.92v-.03h2.23c.3-.01.47-.22.43-.46Z"/></g><path fill="#000" d="M292.97 116.94v2.45c0 .94-1.04.96-1.04.96s-1.06-.02-1.06-.95v-2.46s-.04-.42-.64-.42v2.94a1.62 1.62 0 0 0 1.7 1.45 1.6 1.6 0 0 0 1.68-1.45v-2.94c-.58 0-.64.42-.64.42Zm14.59 0v2.45c0 .94-1.04.96-1.04.96s-1.06-.02-1.06-.95v-2.46s-.04-.42-.64-.42v2.94a1.7 1.7 0 0 0 2.83 1.08c.3-.28.5-.67.55-1.09v-2.93c-.6 0-.64.42-.64.42Zm-8.17 2.51v-2.93c-.58 0-.64.42-.64.42v3.91h.64v-1.4Zm10.57 0v-2.93c-.6 0-.64.42-.64.42v3.91h.64v-1.4Zm4.96 0v-2.93c-.6 0-.64.42-.64.42v3.91h.64v-1.4Zm-18.45.9h-1.14v-1.45h1.16c.1 0 .6.07.6.71a.74.74 0 0 1-.62.74Zm-1.14-3.27h.96a.62.62 0 0 1 .66.66c0 .6-.64.64-.64.64h-.98v-1.3Zm1.64 1.54a1.12 1.12 0 0 0 .62-.98c0-.7-.64-1.12-1.24-1.12h-1.64v4.33h2.1s.9-.24.9-1.05c0-.83-.48-1.18-.74-1.18Zm5.11 1.75c-.83 0-1.23-.73-1.23-1.65 0-.92.4-1.66 1.23-1.66.84 0 1.24.74 1.24 1.66 0 .92-.4 1.65-1.24 1.65Zm2.04-.08h-.78c.4-.42.63-.97.62-1.55 0-.96-.42-2.22-1.91-2.22 0 0-1.74-.12-1.86 2.18-.12 2.3 1.86 2.15 1.86 2.15a9.6 9.6 0 0 1 1.45-.06h1s-.04-.5-.38-.5Zm9.62-3.23h-3.16v-.54h3.16v.54Z"/><path fill="#000" d="M312.5 116.52v4.33h-.62v-4.33h.62Z"/><path fill="#000" fill-rule="evenodd" d="M298.63 104.53H298v-.66h.62v.66Zm1.24 3.25h-.62v-.66h.62v.66Zm0-2.01h-.62v-.64h.62v.64Zm.62-.64h-.62v-.64h.62v.64Zm0 1.71h-.62v-.64h.62v.64Zm.61-.78h-.61v-.64h.62v.64Z" clip-rule="evenodd"/><path fill="#000" fill-rule="evenodd" d="M298 105.56h.63v3.46h.6v-.62h.64v1.36h.64v-2.26h.62v4.66a3.85 3.85 0 0 0 1.85 2.96c-1.83 0-4.97-.84-4.97-4.56v-5Zm6.76 7.32s2.48-.14 3.22-3.48v-5.43s-3.12-.36-3.12 1.94-.1 6.97-.1 6.97Z" clip-rule="evenodd"/><path fill="#000" d="M290.4 122.17h.23l.58.94v-.94h.22v1.28h-.24l-.58-.94v.94h-.22v-1.28Zm3.37 0h.92v.2h-.7v.34h.64v.18H294v.36h.7v.2h-.92v-1.28Zm3.12 0h1.04v.2h-.4v1.08h-.24v-1.08h-.4v-.2Zm3.24 0h.22l.24.98.26-.98h.22l.26.98.24-.98h.22l-.36 1.28h-.22l-.26-.98-.26.98h-.22l-.34-1.28Zm3.97.64c0 .24.1.48.38.48s.38-.24.38-.48-.1-.48-.38-.48-.38.24-.38.48Zm1 0a.63.63 0 0 1-.37.6.66.66 0 1 1-.25-1.27.6.6 0 0 1 .46.2.63.63 0 0 1 .16.47Zm2.54-.04h.38a.2.2 0 0 0 .16-.05.2.2 0 0 0 .06-.16c0-.17-.12-.19-.22-.19h-.38v.4Zm-.22-.58h.62c.28 0 .42.12.42.34 0 .07-.02.14-.06.2-.03.06-.1.1-.16.12.06.01.11.05.15.1.04.04.06.1.05.16-.01.12 0 .24.06.34h-.24a.57.57 0 0 1-.02-.18c0-.24-.06-.34-.26-.34h-.34v.52h-.22v-1.26Zm3.34.01h.22v.57l.56-.58h.28l-.5.5.54.76h-.28l-.42-.6-.18.18v.42h-.22v-1.26Zm3.42.83c0 .2.14.28.32.28s.28-.1.28-.2a.16.16 0 0 0-.1-.16l-.38-.1a.32.32 0 0 1-.28-.32c0-.26.22-.38.46-.38.24 0 .48.14.48.4h-.22c0-.16-.12-.22-.28-.22-.16 0-.22.04-.22.16s.06.14.14.18l.38.1a.3.3 0 0 1 .17.12.3.3 0 0 1 .07.2c0 .28-.26.4-.5.4s-.54-.14-.54-.46h.22Z"/><path fill="#E2E2E2" d="M36.56 160.73c1.18 0 2.15-.96 2.15-2.13v-2.14h-2.15a2.14 2.14 0 1 0 0 4.27Z"/><path fill="#000" d="M34.4 154.32c0-1.18.97-2.14 2.15-2.14h2.15v4.28h-2.15a2.14 2.14 0 0 1-2.14-2.14Z"/><path fill="#E2E2E2" d="M34.4 150.04c0-1.18.97-2.14 2.15-2.14h2.15v4.28h-2.15a2.14 2.14 0 0 1-2.14-2.14Z"/><path fill="#000" d="M38.69 147.9h2.15a2.14 2.14 0 0 1 0 4.28h-2.15v-4.28Z"/><path fill="#E2E2E2" d="M43 154.32c0 1.18-.96 2.14-2.14 2.14a2.16 2.16 0 0 1-2.17-2.14 2.14 2.14 0 0 1 4.29 0h.03Z"/><path fill="#000" d="M45.29 150.04v6.68h.88v-3.19h2.11v-.83h-2.11v-1.82h2.75v-.84h-3.63Zm5.22 1.36c.32 0 .58-.25.58-.56 0-.31-.26-.53-.58-.53a.57.57 0 0 0-.57.56c0 .15.06.3.17.4.1.11.25.17.41.17v-.04Zm-.44.84v4.48h.84v-4.48h-.87.03Zm4.15-.13c-1.17 0-1.99 1-1.99 2.11 0 1.11.83 2.1 2 2.1a1.8 1.8 0 0 0 1.3-.52v.6c-.01.35-.15.7-.4.95a1.38 1.38 0 0 1-1.77.15l-.44.74a2.3 2.3 0 0 0 3.17-.73c.2-.34.31-.73.31-1.13v-4.14h-.88v.4a1.74 1.74 0 0 0-1.3-.53Zm-1.1 2.11a1.15 1.15 0 0 1 .57-1.1 1.21 1.21 0 0 1 1.84 1.1 1.15 1.15 0 0 1-.57 1.1 1.21 1.21 0 0 1-1.84-1.1Zm6.34-1.16a.95.95 0 0 0-.92.94v2.84h-.85v-4.5h.85v.38c.25-.34.66-.55 1.1-.54.54-.01 1.04.28 1.3.76a1.7 1.7 0 0 1 1.33-.76c.97 0 1.57.8 1.57 1.77v2.87H63v-2.86a.96.96 0 0 0-.4-.92.91.91 0 0 0-1.35.4.96.96 0 0 0-.07.52v2.85h-.81v-2.84c0-.25-.1-.49-.27-.66a.92.92 0 0 0-.66-.28l.03.03Zm8.92-.23a2.04 2.04 0 0 0-1.5-.65c-1.26 0-2.14 1.1-2.14 2.35 0 1.27.89 2.35 2.15 2.35a2.02 2.02 0 0 0 1.5-.64v.51h.84v-4.5h-.85v.58Zm-2.8 1.74a1.4 1.4 0 0 1 .66-1.33 1.39 1.39 0 0 1 2 .57c.11.23.16.5.14.76.05.54-.21 1.06-.67 1.34a1.39 1.39 0 0 1-1.99-.58c-.11-.23-.17-.5-.15-.76Z"/><g fill="#000" clip-path="url(#e)"><path d="M107.09 156.06h-2.45a.11.11 0 0 0-.11.1v1.2c0 .06.05.1.11.1h.96v1.48s-.22.07-.8.07c-.7 0-1.68-.25-1.68-2.37s1.02-2.4 1.97-2.4c.82 0 1.18.14 1.4.2.07.03.14-.04.14-.1l.27-1.15a.1.1 0 0 0-.04-.08c-.09-.07-.65-.38-2.07-.38-1.63 0-3.3.68-3.3 3.98s1.92 3.8 3.53 3.8c1.33 0 2.14-.57 2.14-.57.04-.02.04-.06.04-.09v-3.68a.11.11 0 0 0-.11-.11Zm12.58-2.94a.12.12 0 0 0-.11-.11h-1.38a.12.12 0 0 0-.11.11v2.63h-2.15v-2.63a.12.12 0 0 0-.11-.11h-1.38a.12.12 0 0 0-.12.11v7.12c0 .06.06.11.12.11h1.38c.06 0 .11-.05.11-.11v-3.04h2.15v3.04c0 .06.04.11.1.11h1.38c.07 0 .12-.05.12-.1v-7.13Zm-9.99.94a.89.89 0 1 0-1.77 0 .89.89 0 0 0 1.77 0Zm-.09 4.68v-3.29a.12.12 0 0 0-.12-.11h-1.37c-.06 0-.12.06-.12.13v4.7c0 .14.08.18.2.18h1.24c.13 0 .17-.07.17-.18v-1.43Zm15.31-3.39h-1.36a.11.11 0 0 0-.12.12v3.48s-.34.26-.84.26c-.49 0-.62-.23-.62-.7v-3.04a.12.12 0 0 0-.12-.12h-1.39a.11.11 0 0 0-.11.12v3.27c0 1.4.8 1.76 1.9 1.76.9 0 1.62-.5 1.62-.5l.05.3c.02.03.06.06.1.06h.88c.06 0 .12-.06.12-.12v-4.78a.1.1 0 0 0-.1-.1Zm3.73-.15c-.77 0-1.3.33-1.3.33v-2.4a.12.12 0 0 0-.11-.12h-1.39a.12.12 0 0 0-.11.11v7.12c0 .06.05.11.11.11h.96c.04 0 .07-.02.1-.06.02-.04.05-.33.05-.33s.57.53 1.63.53c1.26 0 1.98-.63 1.98-2.83 0-2.18-1.14-2.47-1.92-2.47Zm-.54 4c-.48-.01-.8-.23-.8-.23v-2.25s.32-.2.71-.23c.5-.05.97.1.97 1.26 0 1.23-.22 1.47-.88 1.45Zm-14.56-3.86h-1.03v-1.35c0-.05-.02-.07-.08-.07h-1.4c-.06 0-.1.02-.1.07v1.4l-.75.18a.11.11 0 0 0-.08.1v.88c0 .06.06.12.12.12h.72v2.1c0 1.56 1.11 1.72 1.86 1.72.34 0 .75-.11.82-.13a.1.1 0 0 0 .06-.1v-.97a.12.12 0 0 0-.11-.11l-.37.02c-.51 0-.68-.23-.68-.53v-2h1.02c.07 0 .12-.05.12-.12v-1.1a.12.12 0 0 0-.12-.11Z"/></g><g fill="#000" clip-path="url(#f)"><path d="M91.53 147.9a6.56 6.56 0 0 0-2.07 12.8c.32.06.44-.14.44-.31v-1.22c-1.83.4-2.21-.78-2.21-.78-.3-.76-.73-.96-.73-.96-.6-.4.05-.4.05-.4.65.05 1 .68 1 .68.58 1 1.53.71 1.9.54.06-.42.23-.71.42-.88-1.45-.16-2.98-.72-2.98-3.24 0-.72.25-1.3.67-1.76-.07-.17-.29-.84.07-1.74 0 0 .55-.18 1.8.67a6.3 6.3 0 0 1 3.28 0c1.25-.85 1.8-.67 1.8-.67.35.9.13 1.57.06 1.74.42.46.67 1.04.67 1.76 0 2.52-1.53 3.08-2.99 3.24.24.2.45.6.45 1.22l-.01 1.8c0 .17.12.38.45.31a6.57 6.57 0 0 0-2.07-12.8Z"/><path d="M87.43 157.26c-.01.03-.07.04-.11.02-.05-.02-.08-.07-.06-.1.01-.03.06-.04.11-.02s.08.07.06.1Zm.32.29c-.03.03-.09.01-.13-.03-.04-.05-.05-.1-.02-.14.03-.03.1-.01.13.03.05.05.05.1.02.14m.22.37c-.04.03-.1 0-.14-.06-.04-.06-.04-.13 0-.16.04-.02.1 0 .14.06.04.06.04.13 0 .16m.38.43c-.04.03-.12.02-.17-.03-.06-.05-.07-.13-.04-.17.04-.04.11-.03.17.03.06.05.08.13.04.16Zm.48.14c-.02.05-.09.07-.16.05-.08-.02-.13-.08-.11-.13.01-.06.09-.08.16-.06.08.03.13.09.11.14Zm.55.06c0 .05-.06.1-.14.1-.08 0-.14-.04-.14-.1 0-.05.06-.1.14-.1.08 0 .14.05.14.1Zm.54-.02c0 .05-.05.1-.12.12-.08.01-.15-.02-.16-.07 0-.06.05-.1.12-.12.08-.02.15.01.16.07Z"/></g><path fill="#000" d="M178.71 158.15a2.5 2.5 0 0 1-.5-1.64c0-.72.17-1.27.5-1.67.33-.4.78-.6 1.36-.6.58 0 1.02.2 1.35.6.33.4.5.95.5 1.67 0 .7-.17 1.24-.5 1.64-.33.4-.77.6-1.35.6-.58 0-1.03-.2-1.36-.6Zm-2.54-6.08h8.05v8.66h-8.05v-1.9l.25-.67c.01-.04.02-.1.01-.14l-.26-1.98v-3.97Zm.52 4.44a3.5 3.5 0 0 0 1 2.56 3.1 3.1 0 0 0 2.38.97 3.27 3.27 0 0 0 2.36-.97 3.49 3.49 0 0 0 1.02-2.56 3.44 3.44 0 0 0-2.1-3.29c-.4-.17-.84-.26-1.28-.25a3.18 3.18 0 0 0-2.38.98 3.52 3.52 0 0 0-1 2.55Zm8.11-4.62v8.43l.7-.7v-8.54l-.7.81Zm-7.44-1.29-.82.9h7.84l.78-.9h-7.8Zm-3.25.7.5-1.42-7.84 1.1-.1.34.24.97 7.2-.98Zm.51.3.4 2.74.6 4.3.22-.61-.94-7.24-.28.8Zm-8.27 1.87.16.07-3.16 7.17-6.98-3.15 3.16-7.16 6.82 3.07Zm-1.5 1.8a3.6 3.6 0 0 0-.91-2.37c-.3-.3-.66-.56-1.08-.73a3.2 3.2 0 0 0-1.26-.27h-.02a3.44 3.44 0 0 0-2.43 1.1 4.1 4.1 0 0 0-1.13 2.83c0 .42.07.83.21 1.23a3.09 3.09 0 0 0 1.77 1.85c.42.17.84.26 1.26.26h.02a3.37 3.37 0 0 0 2.43-1.09c.33-.34.6-.76.8-1.24.22-.5.33-1.03.34-1.56Zm9.78.48.54 3.85-7.8 1.1-.82-5.81.6-1.38c.01 0 0 0 0 0a.28.28 0 0 0 .02-.18l-.11-.48 7.02-.95.55 3.85Zm-.89 3.21c0-.07 0-.14-.02-.2l-.82-5.6a.94.94 0 0 0-.27-.59.6.6 0 0 0-.41-.15.8.8 0 0 0-.13.01.65.65 0 0 0-.49.3.8.8 0 0 0-.1.43v.2l.31 2.15-2.4.36-.31-2.16a.95.95 0 0 0-.26-.57.58.58 0 0 0-.42-.16h-.11a.69.69 0 0 0-.5.3.8.8 0 0 0-.12.43c0 .07 0 .14.02.2l.82 5.61c.04.26.13.45.28.58.11.1.26.15.42.15l.14-.01c.1-.01.19-.04.27-.1a.62.62 0 0 0 .2-.2c.07-.13.1-.27.1-.42 0-.07 0-.14-.02-.2l-.33-2.22 2.4-.35.34 2.21c.02.22.11.42.27.58.12.1.27.16.43.15h.12a.65.65 0 0 0 .48-.3.8.8 0 0 0 .11-.43Zm-7.28-6.07-.45-1.8-6.95-3.19.56 1.9 6.84 3.09Zm-7.4-2.9-.51-1.76-2.47 5.85.3 2 2.69-6.09Zm3.29 3.38a1.58 1.58 0 0 0-1.48.05c-.46.25-.84.72-1.13 1.4-.18.39-.28.8-.29 1.23 0 .19.03.37.08.54.14.5.47.87 1 1.1.23.1.47.14.7.14.27 0 .53-.07.76-.2a2.7 2.7 0 0 0 1.12-1.38c.18-.4.28-.82.3-1.26 0-.18-.03-.36-.07-.52a1.6 1.6 0 0 0-1-1.1Zm-7.88.53.84 5.56-7.73 1.21-1.24-7.58 6.38-.98 1.44-.22.3 2Zm-.82 4.93-.01-.14a.59.59 0 0 0-.13-.28.58.58 0 0 0-.26-.18 1.22 1.22 0 0 0-.4-.05c-.15 0-.32.01-.5.04l-2.2.38c.02-.17.1-.4.25-.66.22-.38.46-.75.73-1.1l.26-.33.17-.23c.5-.66.81-1.2.93-1.62a3.39 3.39 0 0 0 .1-1.42 1.41 1.41 0 0 0-.12-.39.55.55 0 0 0-.2-.22.75.75 0 0 0-.38-.08c-.13 0-.3.01-.48.05l-2.54.43c-.3.05-.53.14-.68.28a.55.55 0 0 0-.17.4l.01.14c.04.21.15.37.33.45a1 1 0 0 0 .39.07 2 2 0 0 0 .34-.03l2.12-.36c.01.17 0 .34-.06.5-.07.18-.23.43-.48.75l-.32.4c-.58.7-.98 1.29-1.23 1.78a3.87 3.87 0 0 0-.43 1.55 1.96 1.96 0 0 0 .16.78c.05.1.12.19.22.25.08.04.2.06.37.06.21 0 .5-.03.86-.1l2.3-.38c.4-.08.69-.17.85-.3a.53.53 0 0 0 .2-.44Zm1.08-7.45-.03.18.98 6.44.22-1.2-.96-6.48-.2 1.07Zm-.12-2.44-7.78 1.25-.46 2.3 7.79-1.19.45-2.36Z"/><path fill="#000" fill-rule="evenodd" d="M243.38 151.53c.2.35.3.74.3 1.14v5.26a1.8 1.8 0 0 0 1.71 1.7h.57v-6.96a2.33 2.33 0 0 1 3.46-2.01c.35.22.65.52.88.88.15.36.24.74.26 1.13v5.26a1.8 1.8 0 0 0 1.7 1.7h.62v-6.96a4.68 4.68 0 0 0-6.57-4.23c-.6.27-1.14.67-1.58 1.17a4.6 4.6 0 0 0-3.5-1.58c-.92 0-1.82.28-2.58.79a3.45 3.45 0 0 0-2.06-.79v11.6h.57a1.7 1.7 0 0 0 1.7-1.7v-5.26a2.24 2.24 0 0 1 2.28-2.32 2.28 2.28 0 0 1 2.02 1.19h.22Zm-39.76 8.1h9.28v-.56a1.75 1.75 0 0 0-1.7-1.71h-5.88l7.01-6.96v-.57a1.75 1.75 0 0 0-1.7-1.71h-9.38v.57a1.8 1.8 0 0 0 1.7 1.7h5.83l-6.96 6.97v.61a1.84 1.84 0 0 0 1.75 1.71l.05-.04Zm30.82-9.89a5.82 5.82 0 0 1 0 8.23 5.91 5.91 0 0 1-8.23 0 5.83 5.83 0 1 1 8.23-8.23Zm-1.66 1.62a3.5 3.5 0 0 1-2.45 5.97 3.45 3.45 0 0 1-2.46-1.02 3.5 3.5 0 0 1 2.46-5.97 3.46 3.46 0 0 1 2.45 1.02Zm-14.67-3.33a5.83 5.83 0 0 1 4.12 9.94 5.82 5.82 0 0 1-8.2-8.23 5.64 5.64 0 0 1 4.08-1.7Zm2.5 3.33a3.5 3.5 0 1 1-4.96 4.96 3.5 3.5 0 0 1 4.96-4.96Zm62.85 5.85.57-1.31c.66.46 1.45.7 2.25.7.62 0 1-.25 1-.6-.03-.96-3.6-.21-3.63-2.65 0-1.24 1.1-2.2 2.66-2.2.94 0 1.88.21 2.52.75l-.5 1.36a3.95 3.95 0 0 0-2.1-.67c-.49 0-.8.22-.8.51 0 .97 3.59.46 3.64 2.8 0 1.26-1.07 2.17-2.63 2.17a4.99 4.99 0 0 1-2.98-.86Zm21.96-1.8a1.72 1.72 0 0 1-1.45.83 1.64 1.64 0 0 1-1.64-1.63 1.65 1.65 0 0 1 1-1.54 1.65 1.65 0 0 1 1.47.1c.25.15.47.36.62.6l1.55-.85a3.46 3.46 0 1 0 0 3.38l-1.55-.89Zm-15.57-7.14h1.99v9.66h-1.99v-9.66Zm17.9 0v9.66h1.99v-2.9l2.33 2.9h2.53l-2.98-3.43 2.76-3.22h-2.42l-2.22 2.66v-5.67h-1.99Z" clip-rule="evenodd"/><path fill="#000" d="M297.69 155.44a1.8 1.8 0 0 1-1.53.8 1.64 1.64 0 0 1-1.64-1.63 1.64 1.64 0 0 1 1.64-1.67 1.78 1.78 0 0 1 1.53.86v1.64Zm0-4.16v.78c-.32-.54-1.13-.91-1.96-.91-1.72 0-3.09 1.53-3.09 3.43 0 1.9 1.37 3.49 3.09 3.49.83 0 1.63-.38 1.96-.94v.78h1.98v-6.63h-1.98Z"/><path fill="#000" fill-rule="evenodd" d="M271.28 155.41a1.26 1.26 0 0 1-1.24 1.24 1.23 1.23 0 0 1-1.2-1.24 1.2 1.2 0 0 1 1.2-1.2h1.24v1.2Zm.59 0a1.23 1.23 0 0 1 2.03-.75c.22.2.37.46.41.75v3.06a1.24 1.24 0 0 1-2.03.76c-.22-.2-.37-.47-.41-.76v-3.06Zm1.23-4.88a1.2 1.2 0 0 1-1.23-1.21 1.24 1.24 0 0 1 .7-1.3 1.25 1.25 0 0 1 1.03 0 1.23 1.23 0 0 1 .71 1.3v1.2h-1.2Zm0 .62a1.24 1.24 0 0 1 0 2.44h-3.06a1.23 1.23 0 0 1-1.3-.7 1.24 1.24 0 0 1 1.3-1.74h3.06Zm4.86 1.23a1.24 1.24 0 0 1 1.24-1.23 1.23 1.23 0 0 1 .75 2.02c-.2.23-.46.37-.75.42h-1.24v-1.21Zm-.59 0a1.23 1.23 0 0 1-1.24 1.2 1.2 1.2 0 0 1-1.2-1.2v-3.06a1.23 1.23 0 0 1 1.2-1.23 1.26 1.26 0 0 1 1.24 1.23v3.06Zm-1.24 4.86a1.26 1.26 0 0 1 1.24 1.23 1.23 1.23 0 0 1-1.24 1.21 1.2 1.2 0 0 1-1.2-1.2v-1.24h1.2Zm0-.6a1.23 1.23 0 0 1-1.2-1.23 1.2 1.2 0 0 1 1.2-1.2h3.06a1.2 1.2 0 0 1 1.21 1.2 1.23 1.23 0 0 1-1.2 1.24h-3.06Z" clip-rule="evenodd"/><path fill="#000" d="M62.33 191.08h2.41c-.4-2.54-2.62-4.31-5.51-4.31-3.42 0-5.99 2.49-5.99 6.67 0 4.1 2.45 6.64 6.06 6.64 3.23 0 5.55-2.06 5.55-5.4v-1.56h-5.3v1.84h3.01c-.04 1.84-1.28 3.01-3.25 3.01-2.19 0-3.69-1.62-3.69-4.56 0-2.92 1.53-4.54 3.64-4.54 1.58 0 2.66.84 3.07 2.21Zm4.11 8.82h2.31v-9.71h-2.3v9.72Zm1.17-11.26c.73 0 1.33-.55 1.33-1.24 0-.68-.6-1.24-1.33-1.24-.73 0-1.34.55-1.34 1.24 0 .7.6 1.24 1.34 1.24Zm8.06 1.55h-1.93v-2.34h-2.31v2.34h-1.4v1.77h1.4v5.4c-.01 1.83 1.33 2.74 3.06 2.68.46 0 .92-.08 1.36-.22l-.39-1.8c-.22.06-.44.09-.67.1-.58 0-1.05-.21-1.05-1.13v-5.03h1.93v-1.77Zm1.79 9.71h8.13v-1.96h-5.76v-11h-2.37v12.96Zm12.54.2c1.55 0 2.47-.71 2.89-1.53h.07v1.34h2.23v-6.51c0-2.57-2.11-3.34-3.99-3.34-2.06 0-3.64.9-4.15 2.68l2.16.3c.23-.66.88-1.23 2.01-1.23 1.07 0 1.66.54 1.66 1.5v.04c0 .66-.7.69-2.42.87-1.9.2-3.72.77-3.72 2.96-.01 1.9 1.4 2.92 3.27 2.92Zm.77-1.68c-.97 0-1.65-.44-1.65-1.28 0-.88.77-1.24 1.8-1.4.6-.07 1.82-.23 2.11-.47v1.15c.01 1.08-.87 2-2.26 2Zm6.12 1.48h2.27v-1.53h.13c.37.71 1.13 1.7 2.81 1.7 2.31 0 4.04-1.81 4.04-5.01 0-3.24-1.78-5-4.04-5a2.91 2.91 0 0 0-2.8 1.73h-.1v-4.85h-2.31v12.96Zm2.26-4.86c0-1.89.82-3.1 2.3-3.1 1.55 0 2.34 1.3 2.34 3.1 0 1.81-.8 3.16-2.33 3.16-1.48 0-2.3-1.27-2.3-3.16Z"/><path fill="#E2E2E2" d="m48.89 191.38-.02-.06-2.25-5.8a.58.58 0 0 0-.49-.37.59.59 0 0 0-.5.19.59.59 0 0 0-.13.23l-1.52 4.6h-6.13l-1.52-4.6a.59.59 0 0 0-.63-.42.6.6 0 0 0-.5.36l-2.24 5.81-.02.06a4.1 4.1 0 0 0 1.38 4.78h.01l.02.02 3.42 2.54 1.7 1.27 1.02.77a.7.7 0 0 0 .84 0l1.03-.77 1.7-1.27 3.43-2.55.01-.01a4.13 4.13 0 0 0 1.39-4.78Z"/><path fill="#000" d="m48.89 191.38-.02-.06a7.6 7.6 0 0 0-3.02 1.35l-4.93 3.7 3.14 2.35 3.44-2.55v-.01a4.13 4.13 0 0 0 1.39-4.78Z"/><path fill="#E2E2E2" d="m37.77 198.72 1.7 1.27 1.02.77a.7.7 0 0 0 .84 0l1.03-.77 1.7-1.27-3.15-2.35-3.14 2.35Z"/><path fill="#000" d="M35.98 192.67a7.6 7.6 0 0 0-3.02-1.35l-.02.06a4.1 4.1 0 0 0 1.38 4.78h.01l.02.02 3.42 2.54 3.14-2.35-4.93-3.7Zm124.4 6.06c-.82.56-2.12.78-3.46.78-4.33 0-6.75-2.55-6.75-6.7 0-4.16 2.42-6.76 6.7-6.76a5.8 5.8 0 0 1 3.47.91v1.73a5.88 5.88 0 0 0-3.47-.9c-3.07 0-4.93 2.03-4.93 5.01 0 2.99 1.9 5.02 5.02 5.02a7.1 7.1 0 0 0 3.38-.82l.04 1.73Zm1.25-4.41c0-2.99 1.74-5.15 4.72-5.15 2.99 0 4.72 2.16 4.72 5.15 0 2.98-1.73 5.23-4.72 5.23-2.98 0-4.72-2.25-4.72-5.23Zm1.65 0c0 1.9.95 3.63 3.07 3.63s3.03-1.73 3.03-3.63-.91-3.55-3.03-3.55c-2.12 0-3.07 1.69-3.07 3.55Zm18.26 5.02h-1.73v-6.02c0-1.82-.7-2.6-2.34-2.6-1.65 0-2.68 1.04-2.68 3.08v5.53h-1.73v-9.95h1.73v1.6a3.47 3.47 0 0 1 3.16-1.81c2.29 0 3.59 1.6 3.59 4.33v5.84Zm4.75-9.96h2.6v1.56h-2.6v8.4h-1.64v-8.4h-1.64v-1.56h1.64v-1.12c0-1.86 1.04-3.11 3.16-3.11.4.01.78.07 1.17.17v1.6l-1.08-.13c-1.09 0-1.6.65-1.6 1.51v1.08Zm7.1 10c-1.64 0-2.68-.78-2.68-2.6v-11.6h1.73v11.39c0 .9.6 1.2 1.34 1.2h.47v1.52c-.27.1-.57.13-.86.09Zm2.34-10h1.73v6.02c0 1.77.69 2.6 2.33 2.6 1.65 0 2.69-1.09 2.69-3.08v-5.54h1.73v9.96h-1.74v-1.65a3.5 3.5 0 0 1-3.15 1.86c-2.3 0-3.6-1.6-3.6-4.33v-5.84Zm15.83 10.17c-3.76 0-5.36-2.16-5.36-5.23 0-3.07 1.64-5.15 4.67-5.15 3.03 0 4.32 2.12 4.32 5.15v.78h-7.26c.21 1.68 1.34 2.8 3.67 2.8a8.95 8.95 0 0 0 3.03-.56v1.6c-.97.43-2.01.64-3.07.61Zm-3.68-5.93h5.59c-.1-1.81-.96-2.9-2.65-2.9-1.68 0-2.76 1.17-2.94 2.9Zm17.83 5.72h-1.73v-6.02c0-1.82-.74-2.6-2.34-2.6-1.6 0-2.68 1.04-2.68 3.08v5.53h-1.73v-9.95h1.73v1.6a3.46 3.46 0 0 1 3.11-1.81c2.3 0 3.64 1.6 3.64 4.33v5.84Zm9.43-.26c-.78.32-1.62.46-2.47.43-3.54 0-5.19-2.12-5.19-5.2 0-3.06 1.65-5.14 5.2-5.14.81-.04 1.63.12 2.37.47v1.56a5.66 5.66 0 0 0-2.25-.47c-2.6 0-3.63 1.64-3.63 3.59 0 1.94 1.08 3.59 3.68 3.59.76 0 1.53-.13 2.25-.4l.04 1.57Zm6.7.47c-3.72 0-5.36-2.16-5.36-5.23 0-3.07 1.69-5.15 4.72-5.15s4.28 2.12 4.28 5.15v.78h-7.27c.26 1.68 1.34 2.8 3.68 2.8a8.95 8.95 0 0 0 3.03-.56v1.6c-.97.43-2.02.64-3.07.61Zm-3.63-5.93h5.54c-.09-1.81-.95-2.9-2.64-2.9-1.69 0-2.73 1.17-2.9 2.9ZM130.4 196.4l-.44.73a.48.48 0 0 0 .13.6l2.99 1.82a.48.48 0 0 0 .6-.13l.44-.69c1.16-1.95 2.33-1.69 4.45-.7l2.95 1.4a.43.43 0 0 0 .56-.22h.04l1.39-3.2a.44.44 0 0 0-.22-.57l-2.94-1.43c-3.98-1.9-7.36-1.77-9.95 2.43v-.05Z"/><path fill="#000" d="m143.64 189.17.43-.74c.05-.1.07-.21.05-.32a.47.47 0 0 0-.18-.28l-2.99-1.82a.44.44 0 0 0-.33-.06.42.42 0 0 0-.27.2l-.48.72c-1.12 1.95-2.34 1.7-4.41.7l-2.94-1.39a.48.48 0 0 0-.6.22l-1.4 3.2a.38.38 0 0 0-.02.33.38.38 0 0 0 .24.23l2.94 1.43c3.98 1.9 7.36 1.78 9.96-2.42Zm164.3.53h-2.68v2.66h2.68a1.15 1.15 0 0 1 1.05 1.58 1.15 1.15 0 0 1-1.06.7h-2.67v2.66h2.68a3.83 3.83 0 0 0 3.81-3.8 3.79 3.79 0 0 0-3.81-3.8Zm-15.23 14.06c3.2 0 5.95-1.87 7.24-4.56h3.4v4.56h1.91v-4.56h2.68a5.71 5.71 0 0 0 5.72-5.7 5.7 5.7 0 0 0-5.72-5.7h-4.58v6.84h-2.72a8 8 0 0 0-7.93-6.84h-9.4l-9.36 15.96h2.23l2.67-4.56h9.61v4.56h4.25Zm23.63-10.25a8.37 8.37 0 0 1-8.4 8.34v4.56h-7.25v-3.55a10.7 10.7 0 0 1-7.98 3.55h-6.92v-4.56h-5.4l-2.67 4.56h-8.48l12.47-21.26h11c3.16 0 6.02 1.37 7.98 3.55v-3.55h7.25a8.34 8.34 0 0 1 8.4 8.35Zm-30.54-3.8v4.94h-4.26l-1.56 2.65h8.49v-7.6l-2.67.01Zm13.02 6.07a6.1 6.1 0 0 1-6.1 6.07h-2.33v-2.65h2.32a3.45 3.45 0 0 0 3.43-3.42 3.42 3.42 0 0 0-3.43-3.42h-2.33v-2.66h2.33a6.1 6.1 0 0 1 6.1 6.08"/><path fill="#000" fill-rule="evenodd" d="M36.53 255.55v-7.93h-3.08v7.93h3.08Zm.24-8.6 5.25-6.45h-3.18l-5.24 6.44h3.17Zm.58.67v7.93h3.08v-3.99c0-.82.86-1.5 2.26-1.1v-2.84c-1.06-.25-2.26.84-2.26 1.37v-1.37h-3.08Z" clip-rule="evenodd"/><path fill="#000" d="M77.43 251.41h15.49v-15.48H77.43v15.48Z"/><path fill="#E2E2E2" d="M89.6 240.74a4.15 4.15 0 0 0-5.87 0l-.1.07-.58-.05a3.5 3.5 0 0 0-2.5 1.06 3.52 3.52 0 0 0 2.5 6.02h3.7a4.15 4.15 0 0 0 2.84-7.1Zm-6.53 6.34a2.82 2.82 0 0 1-1.96-4.76c.52-.5 1.23-.8 1.96-.8h.4l.43.1c.27.08.51.2.73.38.11.06.22.15.3.25l.1.07 1.11 1.14a.4.4 0 0 1 0 .55.33.33 0 0 1-.25.1.38.38 0 0 1-.28-.1l-.93-.9-.17-.2-.1-.1a2.02 2.02 0 0 0-.94-.46h-.4a2 2 0 0 0 .05 3.98h.35l.33.3c.16.18.35.33.56.45h-1.29Zm6-1a3.4 3.4 0 0 1-1.24.77l-.43.13c-.22.06-.45.1-.68.1h-.07c-.79 0-1.54-.28-2.14-.78l-.26-.23-1.58-1.58a.4.4 0 0 1 0-.56.33.33 0 0 1 .25-.1.38.38 0 0 1 .28.1l1.56 1.6c.16.13.32.26.5.37a2.65 2.65 0 0 0 1.99.3.97.97 0 0 0 .4-.15c.31-.13.6-.32.84-.55a2.65 2.65 0 0 0 0-3.7 2.67 2.67 0 0 0-3.33-.3 2.5 2.5 0 0 0-.7-.44 3.4 3.4 0 0 1 4.6 5.01Z"/><g fill="#000" clip-path="url(#g)"><path d="M136.48 232.23c-3.71.27-6.86.52-7.01.55-.42.08-.8.36-.97.72l-.16.33.02 7.73.02 7.73.24.48c.13.27 1.03 1.5 2.02 2.78 1.95 2.51 2.1 2.65 2.83 2.73.22.02 1.84-.06 3.59-.16l6.26-.37c7.22-.44 6.85-.4 7.27-.76.52-.42.48.28.5-9.12.02-7.97.01-8.5-.1-8.73-.15-.28-.4-.47-3.7-2.77-2.2-1.53-2.35-1.61-3.34-1.63-.4-.01-3.77.2-7.47.49Zm8.33 1a34.6 34.6 0 0 1 2.92 2.03c.1.09.12.16.08.2-.1.1-14.2.93-14.6.87a1.85 1.85 0 0 1-.62-.25 18.58 18.58 0 0 1-2.25-1.83c0-.25-.05-.25 6.23-.7 1.2-.08 3.18-.23 4.38-.33 2.6-.2 3.38-.2 3.86.02Zm4.48 4.04c.1.1.2.3.22.5.03.17.04 3.47.03 7.32-.03 6.6-.03 7.02-.16 7.2a.75.75 0 0 1-.33.29c-.31.12-15.08.96-15.38.87a1.15 1.15 0 0 1-.44-.26l-.18-.2-.02-7.11c-.02-5 0-7.2.06-7.4a.78.78 0 0 1 .25-.4c.13-.08 1-.15 4.02-.33l7.26-.43c4.46-.27 4.45-.27 4.67-.05Z"/><path d="M145.32 239.71c-.8.05-1.5.13-1.6.17a.74.74 0 0 0-.41.57c-.03.24.05.27.85.37l.35.04v3.15c0 1.87-.03 3.1-.07 3.07a421.8 421.8 0 0 1-2.34-3.54c-1.25-1.9-2.3-3.47-2.3-3.49-.02-.02-.84.03-1.82.1-1.2.08-1.86.15-2 .22-.2.12-.45.5-.45.76 0 .16.29.24.88.24h.31v9.05l-.5.16c-.4.11-.53.19-.6.33-.12.25-.1.48.01.48l1.85-.1c1.9-.12 2.12-.17 2.32-.56.06-.12.1-.24.1-.28 0-.03-.25-.12-.56-.2l-.7-.15c-.13-.04-.14-.27-.14-3.44v-3.4l2.25 3.52c2.37 3.68 2.67 4.1 3.03 4.29.45.23 1.6.07 2.18-.3l.18-.11.01-5.03.03-5.03.39-.08c.47-.09.68-.3.68-.67 0-.23-.01-.25-.24-.24l-1.69.1Z"/></g><g clip-path="url(#h)"><path fill="#000" d="m182.87 249.82 3.8-2.91c2.02 2.64 4.17 3.85 6.56 3.85 2.37 0 4.46-1.2 6.39-3.81l3.85 2.84c-2.78 3.77-6.24 5.76-10.25 5.76-3.99 0-7.48-1.98-10.35-5.73Zm10.34-12.66-6.77 5.83-3.13-3.62 9.92-8.55 9.83 8.55-3.14 3.62-6.7-5.83Z"/></g><path fill="#000" d="M244.69 255.52a10.65 10.65 0 0 1-9.4-9.28 10.59 10.59 0 0 1 5.84-10.8 10.71 10.71 0 0 1 8.33-.45 10.67 10.67 0 0 1 6.74 7.73c.28 1.3.28 3.18 0 4.48a10.62 10.62 0 0 1-11.51 8.32Zm.65-9.56v-5.24l-1.43-.02c-1.62-.02-2.11.03-2.73.23a4.15 4.15 0 0 0-2.75 2.95 4.91 4.91 0 0 0-.05 1.97 4.27 4.27 0 0 0 2.8 3.13c.43.15.53.17 1.1.19l.61.02v-1.49l-.48-.03a2.54 2.54 0 0 1-1.83-.8 2.74 2.74 0 0 1 .72-4.35c.54-.25.75-.3 1.7-.3h.82v4.48c0 2.46.02 4.48.03 4.5.02.02.36.03.76.02l.73-.02v-5.24Zm4.4 3.17a4.25 4.25 0 0 0 3.25-2.51c.24-.6.31-.96.31-1.68 0-.57 0-.74-.1-1.07a4.24 4.24 0 0 0-3.89-3.16l-.6-.03.02.77.01.76.54.03c.57.03.8.1 1.18.33.57.35 1 .85 1.2 1.42.14.37.18 1.23.07 1.65a2.6 2.6 0 0 1-1.38 1.72c-.5.25-.94.33-1.85.33h-.71v-9h-1.54v10.49h1.6c.89 0 1.72-.02 1.9-.05Zm48.75-12.46a5.2 5.2 0 0 1 8.38 1.11 6.3 6.3 0 0 1 2.6-.56c1.65.11 3.2.85 4.32 2.08a6.66 6.66 0 0 1 0 9.02 6.46 6.46 0 0 1-4.31 2.07c-.43 0-.85-.03-1.27-.1a4.67 4.67 0 0 1-6.16 1.95 5.4 5.4 0 0 1-5.06 3.31 5.29 5.29 0 0 1-4.88-3.57 4.9 4.9 0 0 1-4.56-1.4 5.08 5.08 0 0 1-1.44-3.58 5.2 5.2 0 0 1 2.46-4.43 6.04 6.04 0 0 1 1.23-6.5 5.74 5.74 0 0 1 8.69.6Z"/><path fill="#E2E2E2" d="M290.4 245.35c0 .06 0 .06.04.06l.16.11c.27.15.57.23.88.22.63 0 1.01-.33 1.01-.86 0-.47-.44-.67-.85-.78h-.05c-.3-.11-.55-.2-.55-.39 0-.2.14-.3.38-.3.27 0 .53.06.77.19 0 0 .08.03.08-.03 0-.05.11-.3.14-.33.03-.03 0-.06-.03-.06a1.55 1.55 0 0 0-.88-.25h-.05c-.57 0-.96.33-.96.84 0 .52.44.7.82.8h.08c.28.09.55.17.55.4 0 .19-.16.33-.44.33a1.5 1.5 0 0 1-.79-.23l-.08-.05c-.03-.03-.08-.06-.08.03l-.14.33v-.03Zm8.97 0c-.03.06 0 .06 0 .06l.19.11c.27.15.57.23.88.22.63 0 .98-.33.98-.86 0-.47-.4-.67-.82-.78h-.06c-.3-.11-.54-.2-.54-.39 0-.2.13-.3.38-.3a1.74 1.74 0 0 1 .8.2.05.05 0 0 0 .04-.02l.01-.02c.03-.11.08-.23.14-.33v-.06a1.54 1.54 0 0 0-.88-.25h-.08c-.55 0-.93.33-.93.84 0 .52.4.7.82.8h.05c.3.09.55.17.55.4 0 .19-.16.33-.4.33a1.5 1.5 0 0 1-.8-.23l-.11-.05c0-.03-.06-.03-.09.03l-.1.33-.03-.03Zm6.1-1.06c.02.26-.04.5-.16.73a.59.59 0 0 1-.5.26.6.6 0 0 1-.5-.26 1.35 1.35 0 0 1-.15-.73 1.3 1.3 0 0 1 .17-.7.6.6 0 0 1 .49-.25.6.6 0 0 1 .5.26c.11.21.17.45.16.7Zm.53-.55a1.43 1.43 0 0 0-.25-.45 1.46 1.46 0 0 0-.38-.3c-.18-.07-.36-.1-.55-.12-.19.01-.37.05-.55.12-.15.07-.28.17-.38.3-.11.14-.2.29-.25.45-.1.36-.1.75 0 1.11.05.18.13.34.25.47.1.13.23.23.38.28.17.09.36.12.55.12a1.22 1.22 0 0 0 .93-.4c.12-.13.2-.3.25-.47.07-.36.07-.74 0-1.11Zm4.19 1.45-.01-.03h-.03l-.02-.01h-.02l-.22.06h-.3a.78.78 0 0 1-.58-.22c-.16-.2-.24-.46-.22-.72 0-.24.07-.47.2-.67a.7.7 0 0 1 .57-.25l.55.05s.02.03.05-.02c.03-.06.08-.23.11-.37.03-.13 0-.05-.03-.05l-.32-.09h-.39c-.2.01-.39.05-.57.12-.16.07-.3.17-.41.3a1.5 1.5 0 0 0-.33 1c-.03.38.1.75.32 1.03a1.26 1.26 0 0 0 1.02.4c.24 0 .49-.05.71-.14 0 0 .06 0 .03-.06l-.11-.33Zm.88-1.17c.02-.15.07-.29.13-.42a.54.54 0 0 1 .5-.25.51.51 0 0 1 .49.25c.08.12.12.27.1.42h-1.23Zm1.72-.37a1.9 1.9 0 0 0-.22-.41c-.1-.1-.2-.19-.33-.25a1.36 1.36 0 0 0-.49-.12c-.2.01-.4.05-.57.12a1.1 1.1 0 0 0-.39.3c-.1.15-.2.3-.25.48-.1.36-.1.75 0 1.11a1.18 1.18 0 0 0 .69.75 2.22 2.22 0 0 0 1.51-.08s.02-.03 0-.09l-.11-.33h-.06c-.22.1-.46.15-.71.14a.93.93 0 0 1-.6-.2.93.93 0 0 1-.2-.58h1.75a.06.06 0 0 0 .03-.03v-.03a2 2 0 0 0-.05-.75v-.03Zm-15.56.4c.02-.15.07-.3.14-.42a.55.55 0 0 1 .5-.25.51.51 0 0 1 .48.25c.08.12.12.27.11.41h-1.23Zm1.73-.37a1.94 1.94 0 0 0-.22-.42c-.1-.1-.2-.18-.33-.25a1.3 1.3 0 0 0-.5-.1c-.2 0-.39.04-.57.1-.15.08-.3.19-.41.31a1.92 1.92 0 0 0-.22 1.59 1.17 1.17 0 0 0 .69.75c.2.06.41.09.63.08.3.02.6-.04.87-.16 0 0 .03-.03 0-.09l-.1-.33h-.06c-.23.1-.47.15-.72.14a.92.92 0 0 1-.6-.2.93.93 0 0 1-.19-.58h1.73a.05.05 0 0 0 .05-.06 2 2 0 0 0-.05-.75v-.03Zm-5.45 1.53-.12-.08a.57.57 0 0 1-.05-.25.4.4 0 0 1 .17-.33.62.62 0 0 1 .49-.12h.46v.81l-.46.06a.7.7 0 0 1-.5-.11v.02Zm.68-1.25h-.27a.97.97 0 0 0-.42.06.94.94 0 0 0-.38.16c-.1.08-.18.18-.25.28a.92.92 0 0 0-.08.42c0 .13.03.27.08.39.05.11.13.2.22.28.11.07.23.13.36.16h.99l.44-.08.1-.05c.06 0 .03-.06.03-.06v-1.61a.97.97 0 0 0-.27-.78 1.1 1.1 0 0 0-.8-.25l-.44.05a1.41 1.41 0 0 0-.56.2l-.01.02v.02l.03.01.1.34c.03.05.06.02.06.02h.03c.24-.12.5-.19.77-.2a.6.6 0 0 1 .4.15c.12.05.14.16.14.42v.05h-.27Zm13.94-.92a.09.09 0 0 0-.02-.05l-.3-.06a.86.86 0 0 0-.44.08l-.3.23V243a.06.06 0 0 0-.06-.05h-.44a.05.05 0 0 0-.05.05v2.62a.05.05 0 0 0 .05.06h.47c.01 0 .03 0 .04-.02a.06.06 0 0 0 .01-.04v-1.34c-.01-.14 0-.3.06-.44.03-.1.07-.2.14-.28l.21-.11h.44c.03.03.03 0 .06-.03l.13-.39Z"/><path fill="#E2E2E2" d="m303.86 241.82-.17-.06h-.24a.97.97 0 0 0-.71.25c-.2.22-.33.5-.36.81v.11h-.4l-.02.02-.01.02v.02l-.1.36.02.04.04.02h.39l-.39 2.2c-.01.15-.05.3-.1.44a.7.7 0 0 1-.12.25l-.16.11h-.33l-.1-.05s-.04 0-.06.05c-.04.12-.08.23-.14.34a.1.1 0 0 0 0 .04l.03.04.16.05h.25a.9.9 0 0 0 .77-.27 2.24 2.24 0 0 0 .35-.98l.39-2.25h.57c.02 0 .03 0 .04-.02a.06.06 0 0 0 .02-.04l.08-.36v-.02a.06.06 0 0 0-.06-.04h-.57c.02 0 .02-.2.1-.39l.12-.2.16-.07h.38c.06.02.06 0 .06-.03l.14-.36c.02-.03 0-.06-.03-.06v.03Zm-7.73 3.78c0 .03 0 .06-.02.06h-.49a.06.06 0 0 1-.03-.03v-3.78a.06.06 0 0 1 .03-.03h.49c.02 0 .02.03.02.05v3.73Z"/><path fill="#383838" d="M38 284.25h-4.3v7.13H38v-7.13Zm0 7.13h-4.3v4.29H38v-4.29Z"/><path fill="#000" d="M49.42 279.96h-4.29v7.86h4.29v-7.86Z"/><path fill="#383838" d="M49.42 287.81h-4.29v7.86h4.29v-7.86Zm-4.22-3.56v-4.29h-7.13v4.29h7.14Z"/><path fill="#383838" d="M45.2 295.67v-4.29h-7.13v4.29h7.14Z"/><path fill="#383838" d="m45.7 288.31 7.78 5.5a1.08 1.08 0 0 0 1.5-.38c.1-.16.15-.35.15-.55v-10.06a1.07 1.07 0 0 0-1.65-.93l-7.78 5.5a.58.58 0 0 0-.23.46.57.57 0 0 0 .23.46Z" opacity=".85"/><path fill="#383838" d="m33.71 284.25 4.29-4.29v4.29h-4.3Zm69.69-.31 4.07-3.98h11.19a1.06 1.06 0 0 1 .74.31.98.98 0 0 1 .3.74v2.93h-16.3Zm16.3 7.94-3.04 3.97h-9.2v-3.97h12.23Zm0-7.94h-12.23v3.97h12.22v-3.97Z"/><path fill="#000" d="M107.47 283.94h-4.08v3.97h4.08v-3.97Zm12.23 3.96h-12.23v3.98h12.22v-3.97Z"/><path fill="#383838" d="M107.47 287.9h-4.08v3.98h4.08v-3.97Z"/><path fill="#000" d="M103.4 291.88h4.07v3.97h-3.08a1 1 0 0 1-.7-.28.96.96 0 0 1-.3-.7v-2.99Z"/><path fill="#383838" d="M175.29 288.69a4.32 4.32 0 0 0 4.28-4.36 4.32 4.32 0 0 0-4.28-4.37 4.32 4.32 0 0 0-4.28 4.37c0 2.4 1.91 4.36 4.28 4.36Z"/><path fill="#383838" d="M179.3 291.95a3.72 3.72 0 0 0 3.68-3.75 3.71 3.71 0 0 0-3.68-3.75 3.71 3.71 0 0 0-3.68 3.75 3.71 3.71 0 0 0 3.68 3.75Z"/><path fill="#383838" d="M175.74 294.68a2.95 2.95 0 0 0 2.92-2.98 2.95 2.95 0 0 0-2.92-2.98 2.95 2.95 0 0 0-2.93 2.98 2.95 2.95 0 0 0 2.93 2.98Z"/><path fill="#383838" d="M176.04 283.19h-4.91a4.44 4.44 0 0 0 1.5 4.62 4.24 4.24 0 0 0 2.66.91h.36a2.9 2.9 0 0 0-2.03.9 3 3 0 0 0-.84 2.08v.25h3.26c.16-.01.3-.08.42-.2a.65.65 0 0 0 .18-.42v-7.52a.65.65 0 0 0-.18-.43.63.63 0 0 0-.42-.19Z" opacity=".1"/><path fill="#383838" d="M175.59 283.65h-4.56a4.43 4.43 0 0 0 .75 3.27 4.3 4.3 0 0 0 2.81 1.74l.7.06h.36a2.88 2.88 0 0 0-2.06.93 2.98 2.98 0 0 0-.72 2.76h2.72c.16-.01.3-.08.42-.2a.65.65 0 0 0 .18-.42v-7.52a.65.65 0 0 0-.18-.43.63.63 0 0 0-.42-.19Z" opacity=".2"/><path fill="#383838" d="M175.59 283.65h-4.56a4.43 4.43 0 0 0 .75 3.27 4.3 4.3 0 0 0 2.81 1.74l.7.06h.36a2.9 2.9 0 0 0-1.95.82c-.53.51-.86 1.2-.92 1.95h2.8a.66.66 0 0 0 .43-.2.65.65 0 0 0 .18-.42v-6.6a.65.65 0 0 0-.18-.43.63.63 0 0 0-.42-.19Z" opacity=".2"/><path fill="#383838" d="M175.13 283.65h-4.1a4.43 4.43 0 0 0 .75 3.27 4.3 4.3 0 0 0 2.81 1.74l.7.06h.36a2.9 2.9 0 0 0-1.95.82c-.53.51-.86 1.2-.92 1.95h2.35a.62.62 0 0 0 .42-.2.64.64 0 0 0 .19-.42v-6.6a.64.64 0 0 0-.6-.62Z" opacity=".2"/><path fill="#000" d="M169.1 283.65h6.04a.6.6 0 0 1 .42.18.6.6 0 0 1 .18.44v6.14c0 .16-.06.32-.18.44a.6.6 0 0 1-.42.17h-6.04a.6.6 0 0 1-.42-.17.62.62 0 0 1-.18-.44v-6.14a.6.6 0 0 1 .18-.44.6.6 0 0 1 .42-.18Z"/><path fill="#383838" d="M171.06 287.25c-.16-.1-.29-.24-.39-.4a1.16 1.16 0 0 1-.12-.56c0-.25.1-.5.24-.7.18-.19.4-.34.64-.43a3.77 3.77 0 0 1 2.02.03v.83l-.52-.22c-.2-.05-.4-.07-.6-.06-.22-.02-.44.02-.63.12a.4.4 0 0 0-.24.4.33.33 0 0 0 .09.25l.3.21.51.25h.1c.22.1.44.2.66.34.16.1.3.23.39.4.1.18.16.4.15.61.02.27-.05.53-.21.74-.17.19-.38.34-.6.43-.29.08-.59.13-.88.12l-.78-.06-.64-.18v-.9c.2.15.43.26.66.31.23.09.46.13.7.13.22 0 .44-.05.63-.16a.37.37 0 0 0 .21-.37.4.4 0 0 0-.12-.3l-.33-.25-.63-.28-.6-.33v.03Zm62.26 1.73 5.6 5.6c.57.57 1.5.57 2.07 0l1.85-1.85c.58-.58.58-1.5 0-2.08l-5.6-5.6a1.47 1.47 0 0 0-2.07 0l-1.85 1.86c-.57.57-.57 1.5 0 2.07Z"/><path fill="#383838" d="m246.51 281-9.53 9.53c-.57.57-.57 1.5 0 2.07l2.03 2.03c.57.57 1.5.57 2.07 0l9.53-9.53c.57-.57.57-1.5 0-2.07L248.6 281a1.47 1.47 0 0 0-2.08 0Zm61.56 4.2a2.3 2.3 0 1 0 0-4.58 2.3 2.3 0 0 0 0 4.58Z"/><path fill="#383838" d="M307.91 283.4h-2.04a2.29 2.29 0 0 0 2.7 1.68v-1.09a.66.66 0 0 0-.66-.59Z" opacity=".1"/><use xlink:href="#i" opacity=".2"/><path fill="#000" d="M313.21 285.32a1.7 1.7 0 1 0 0-3.4 1.7 1.7 0 0 0 0 3.4Zm1.49.53h-3.84l-.13.01a.3.3 0 0 0-.19.17.32.32 0 0 0-.02.13v3.96a2.51 2.51 0 0 0 1.95 2.48 2.45 2.45 0 0 0 2.9-1.89c.03-.16.05-.33.04-.5v-3.65a.71.71 0 0 0-.71-.71Z"/><path fill="#383838" d="M312 286.56v4.65a3.94 3.94 0 0 1-7.56 1.49 3.05 3.05 0 0 1-.15-.5 3.46 3.46 0 0 1-.12-1v-4.64a.7.7 0 0 1 .22-.51.72.72 0 0 1 .52-.2h6.35a.72.72 0 0 1 .69.43c.03.1.05.19.05.28Z"/><use xlink:href="#i" opacity=".2"/><path fill="#383838" d="M308.56 285.85v6.2a.62.62 0 0 1-.5.61h-3.62a3.06 3.06 0 0 1-.15-.5 3.45 3.45 0 0 1-.12-.98v-4.65a.71.71 0 0 1 .74-.71h3.65v.03Z" opacity=".1"/><path fill="#383838" d="M308.07 285.85v6.81a.65.65 0 0 1-.65.53h-2.73a3.83 3.83 0 0 1-.52-1.98v-4.65a.7.7 0 0 1 .22-.51.72.72 0 0 1 .52-.2h3.16Z" opacity=".2"/><path fill="#383838" d="M308.07 285.85v5.7a.66.66 0 0 1-.2.46.65.65 0 0 1-.45.19h-3.13a3.46 3.46 0 0 1-.12-1v-4.64a.7.7 0 0 1 .22-.51.72.72 0 0 1 .52-.2h3.16Z" opacity=".2"/><path fill="#383838" d="M304.91 285.85a.71.71 0 0 0-.74.71v4.65c-.01.33.03.67.12.99h2.66a.64.64 0 0 0 .46-.2.64.64 0 0 0 .2-.45v-5.7h-2.7Z" opacity=".2"/><path fill="#000" d="M300.42 283.87h6.5a.68.68 0 0 1 .69.65v6.53a.64.64 0 0 1-.2.47.65.65 0 0 1-.49.18h-6.5a.65.65 0 0 1-.65-.65v-6.53a.65.65 0 0 1 .65-.65Z"/><path fill="#383838" d="M305.62 286.31h-1.45v3.94h-.96v-3.94h-1.49v-.96h3.9v.96ZM41.5 338.08h-4.97v-13.23l4.96 4.13v9.1Zm13.22 0h4.96v-13.23l-4.96 4.13v9.1Z"/><path fill="#000" d="M54.72 328.98v-5.79a2.56 2.56 0 0 1 2.48-2.48 2.48 2.48 0 0 1 2.48 2.48v1.66l-4.96 4.13Z"/><path fill="#383838" d="m41.5 328.98-4.97-4.13v-1.66a2.56 2.56 0 0 1 2.48-2.48 2.48 2.48 0 0 1 2.48 2.48v5.8Z"/><path fill="#383838" d="m54.72 328.98-6.61 4.96-6.62-4.96v-5.79l6.62 4.96 6.61-4.96v5.8Zm30.19-8.27h3.12v13.75h-4.35v-12.52a1.23 1.23 0 0 1 1.23-1.23Z"/><path fill="#000" d="M101.05 325.05H96.7v9.41h4.34v-9.4Z"/><path fill="#383838" d="M101.12 325.13h-4.34v-4.35h3.11a1.23 1.23 0 0 1 1.23 1.23v3.12Zm-13.09 9.33h-4.35v3.62h4.34v-3.62Zm10.85 2.17-2.17 1.45v-3.62h4.34l-2.17 2.17Z"/><path fill="#383838" d="M96.7 334.46h-8.67v3.62h8.68v-3.62Zm0-13.75h-8.67v3.62h8.68v-3.62Zm35.97 0 3.02 5.29 3.02-5.29h-6.04Zm6.8 12.09 3.02 5.28 3.02-5.29h-6.04Zm-14.35 0 3.02 5.28 3.02-5.29h-6.04Z"/><path fill="#383838" d="M125.12 332.8h6.04l4.53-6.8-3.02-5.29-7.55 12.08Zm10.58-6.8 3.77 6.8h6.04l-6.8-12.09"/><path fill="#383838" d="M128.14 338.08h14.35l-3.02-5.29h-8.3l-3.03 5.29Z"/><path fill="#000" d="m173.08 337.28 10.93-8.29a1652.7 1652.7 0 0 0-10.93-8.28v6.1c0 .04 0 .07.02.1.01.03.03.05.06.06l1.72 1.58.5.44-.08.07-2.14 1.93a.22.22 0 0 0-.06.08.26.26 0 0 0-.02.1v6.1Zm-3.65-11.57v6.57l3.63-3.29-3.63-3.28Z"/><path fill="#000" d="M173.08 337.28v-6.1c0-.04 0-.08.02-.11a.2.2 0 0 1 .06-.08l2.14-1.93.08-.07-.5-.44-1.72-1.58a.14.14 0 0 1-.06-.06.18.18 0 0 1-.02-.1v-6.1c3.65 2.74 7.3 5.5 10.93 8.28l-10.93 8.29Zm36.56-16.57h2.2v14.03h-4V322.5a1.8 1.8 0 0 1 1.8-1.8Zm10.88 4.68h-4.67v9.35h4.67v-9.35Z"/><path fill="#000" d="M209.84 320.78v4.67h6v-4.67h-6Z"/><path fill="#383838" d="M220.52 334.74h-4.67v3.34h4.67v-3.34Zm-4.67 0h-4v3.34h4v-3.34Zm-8.02 0h4.01v3.34h-3a1 1 0 0 1-1-1v-2.34Zm8.02-14.03 4.67 4.68h-4.67v-4.68Z"/><g clip-path="url(#j)"><path fill="#000" fill-rule="evenodd" d="m244.52 322.08 9.97-2-.03 18-9.94-2.15v-13.85Zm3.54 9.35a4 4 0 0 1-.6-3.56c.5-1.67 1.77-2.23 2.84-1.85.6.23 1.15.76 1.44 1.57a4.04 4.04 0 0 1-.59 3.75c-.83 1.03-2.23 1.13-3.09.09Zm.78-.87a3.07 3.07 0 0 1-.3-2.23c.24-1.03.87-1.39 1.4-1.15.3.14.56.47.7.98a3.18 3.18 0 0 1-.3 2.34c-.4.65-1.08.71-1.5.06Zm6.3-6.69h5.8a.6.6 0 0 1 .58.62v.22l-4.55 3.19-.32.24c-.18.12-.2.1-.38-.01a18.1 18.1 0 0 1-1.13-.77v-3.49Zm6.38 2.25v6.45c0 .51-.4.94-.9.94h-5.47v-4.77c.32.23.76.52 1.03.7.22.14.26.2.5.05.11-.06.22-.15.3-.2l4.54-3.16Z" clip-rule="evenodd"/></g><path fill="#383838" d="m295.86 325.49 5.58 3.34 3.35-1.41c.68-.3 1.42-.45 2.16-.45h.37a8.38 8.38 0 0 0-15.07-2.53h.07c1.26 0 2.48.37 3.54 1.05Z"/><path fill="#000" d="M295.86 325.49a6.62 6.62 0 0 0-3.54-1h-.07a6.64 6.64 0 0 0-6.59 6.73 7.14 7.14 0 0 0 1.2 3.75l4.94-2.08 2.2-.93 4.91-2.05 2.53-1.08-5.58-3.34Zm11.46 1.52h-.37c-.74 0-1.48.15-2.16.45l-3.35 1.41.97.56 3.2 1.94 1.38.81 4.72 2.83a5.41 5.41 0 0 0-4.39-7.96V327Z"/><path fill="#383838" d="m306.99 332.15-1.38-.82-3.2-1.94-.97-.56-2.53 1.08-4.91 2.05-2.2.93-4.95 2.08a6.74 6.74 0 0 0 5.47 2.87h14.63a5.43 5.43 0 0 0 4.76-2.87l-4.72-2.82Z"/><defs><clipPath id="a"><path fill="#fff" d="M37.95 26.53H107v12.81H37.95z"/></clipPath><clipPath id="b"><path fill="#fff" d="M128.1 26.53h105.87v12.04H128.1z"/></clipPath><clipPath id="c"><path fill="#fff" d="M255.09 26.53h55.96v12.81h-55.96z"/></clipPath><clipPath id="d"><path fill="#fff" d="M246.97 106.67H261v14.02h-14.02z"/></clipPath><clipPath id="e"><path fill="#fff" d="M101.45 152.5h29.14v8.24h-29.14z"/></clipPath><clipPath id="f"><path fill="#fff" d="M84.98 147.9h13.14v12.83H84.98z"/></clipPath><clipPath id="g"><path fill="#fff" d="M128.34 231.47h22.77v24.08h-22.77z"/></clipPath><clipPath id="h"><path fill="#fff" d="M180.8 230.82h24.73v24.73H180.8z"/></clipPath><clipPath id="j"><path fill="#fff" d="M244.52 320.08h17v18h-17z"/></clipPath></defs></svg>