<svg xmlns="http://www.w3.org/2000/svg" xmlns:xlink="http://www.w3.org/1999/xlink" width="349" height="367" fill="none"><defs><path id="reuse-0" fill="#383838" d="M307.419 285.849h-1.394a2.268 2.268 0 0 0 2.045 1.3v-.65a.652.652 0 0 0-.651-.65Z" opacity=".2"/></defs><rect width="349" height="365.967" y=".311" fill="#fff" rx="20"/><g fill="#000" clip-path="url(#a)"><path d="M36.01 37.998a1.66 1.66 0 0 1-1.446-.838 1.604 1.604 0 0 1 .046-1.652l2.977-4.675a1.66 1.66 0 0 1 1.47-.799c.597.014 1.141.35 1.422.877a1.603 1.603 0 0 1-.09 1.649l-2.975 4.675A1.66 1.66 0 0 1 36.01 38ZM41.118 37.999c-.6 0-1.153-.321-1.443-.837a1.6 1.6 0 0 1 .046-1.647l2.971-4.665a1.658 1.658 0 0 1 1.471-.816 1.655 1.655 0 0 1 1.432.882c.276.53.236 1.165-.107 1.657l-2.971 4.664a1.657 1.657 0 0 1-1.399.762ZM46.111 38.037c.847 0 1.533-.672 1.533-1.5 0-.83-.686-1.501-1.533-1.501-.847 0-1.533.672-1.533 1.5 0 .83.686 1.501 1.533 1.501ZM112.701 35.124c.463 0 .74.329.74.868v1.849h.629v-1.89c0-.918-.432-1.45-1.244-1.45-.318 0-.823.087-1.124.672a1.029 1.029 0 0 0-.843-.637 1.447 1.447 0 0 0-.353-.021c-.259.02-.72.182-.892.546v-.49h-.629v3.27h.629v-1.765c0-.686.449-.952.899-.952.422 0 .698.322.698.861v1.856h.626v-1.765c0-.546.328-.959.864-.952Zm-6.027 2.17c.288.007.565-.108.767-.316a1.07 1.07 0 0 0 .298-.782c0-.66-.485-1.072-1.065-1.072-.581 0-1.065.413-1.065 1.072-.011.29.096.572.297.78.2.208.477.323.763.318h.005Zm0 .614c-.92 0-1.687-.68-1.687-1.716 0-1.037.767-1.695 1.687-1.695s1.694.658 1.694 1.695c0 1.036-.779 1.719-1.698 1.719l.004-.004Zm-4.926-1.716-.007.004c0-1.037.788-1.695 1.714-1.699.471-.009.923.182 1.245.525l-.477.406a1.076 1.076 0 0 0-.768-.307c-.58 0-1.085.413-1.085 1.07 0 .445.264.846.67 1.016.406.17.872.076 1.183-.238l.484.406c-.323.347-.778.54-1.252.532-.919 0-1.707-.679-1.707-1.715Zm-2.015 1.021a.436.436 0 0 1 .431-.44.436.436 0 0 1 .43.44c-.012.23-.2.41-.43.413a.435.435 0 0 1-.43-.413ZM101.453 30.415h-2.24l-1.57 4.047-1.562-4.048h-2.24l2.723 6.397-1.694 4.229h2.224l4.359-10.625ZM87.83 33.971c0 1.022.893 1.694 1.77 1.694.863 0 1.71-.625 1.71-1.694 0-1.07-.847-1.696-1.71-1.696-.877 0-1.77.673-1.77 1.695v.001Zm3.48 3.572v-.81c-.454.688-1.514.948-2.058.948-1.8 0-3.601-1.42-3.601-3.71s1.8-3.71 3.601-3.71c.454 0 1.514.151 2.058.946v-.791h2.088v7.128H91.31v-.001Zm-6.253 0h-2.088v-.886c-.349.656-1.195 1.038-2.073 1.038-1.816 0-3.42-1.45-3.42-3.695 0-2.288 1.604-3.74 3.42-3.74.877 0 1.725.365 2.073 1.022v-4.752h2.088v11.013Zm-2.134-3.588c0-1.069-.771-1.695-1.633-1.695-.894 0-1.635.672-1.635 1.695 0 1.056.741 1.724 1.634 1.724.879.002 1.634-.701 1.634-1.724Zm-10.61-.184c0-1.084.56-1.45 1.302-1.45.71 0 1.225.472 1.225 1.419v3.801h2.103v-4.259c0-2.03-.999-3.023-2.588-3.023-.832 0-1.664.474-2.042 1.191v-1.037H70.21v7.128h2.102v-3.77Zm-6.373 3.893c-1.997 0-3.663-1.465-3.663-3.71s1.664-3.696 3.663-3.696c2 0 3.678 1.45 3.678 3.696 0 2.246-1.68 3.71-3.678 3.71Zm0-2.075c.877 0 1.605-.643 1.605-1.634 0-.962-.727-1.619-1.605-1.619a1.557 1.557 0 0 0-1.136.468c-.3.306-.464.722-.453 1.15.001.994.727 1.635 1.59 1.635Zm-7.433-3.268c.62 0 1.165.489 1.165 1.42v3.802h2.088v-4.049c0-2.152-1.046-3.236-2.724-3.236-.498 0-1.437.152-2.118 1.267-.394-.825-1.15-1.252-2.268-1.252a2.02 2.02 0 0 0-1.846 1.176v-1.035H50.7v7.128h2.103v-3.771c0-1.084.59-1.45 1.225-1.45.606 0 1.15.472 1.165 1.373v3.848h2.104v-3.771c0-1.037.545-1.45 1.21-1.45Z"/></g><g clip-path="url(#b)"><path fill="#000" d="M148.587 26.567h2.059v2.174h-2.059v-2.174Zm36.046 0h2.058v2.174h-2.058v-2.174Z"/><path fill="#E2E2E2" d="M144.036 29.52c-1.298 0-2.048.584-2.41.987-.043-.347-.272-.798-1.164-.798h-1.938v2.033h.794c.135 0 .178.043.178.177v9.28h2.309v-3.483c0-.094-.001-.182-.004-.26.361.332 1.05.789 2.126.789 2.257 0 3.835-1.793 3.835-4.362 0-2.61-1.498-4.363-3.726-4.363Zm-.47 6.709c-1.243 0-1.808-1.193-1.808-2.299 0-1.74.95-2.361 1.839-2.361 1.091 0 1.824.942 1.824 2.345 0 1.6-.933 2.315-1.855 2.315Z"/><path fill="#E2E2E2" d="M150.802 35.863v-4.918c0-.831-.399-1.236-1.218-1.236h-2.063v2.033h.794c.134 0 .177.043.177.177v4.901c0 .843.388 1.236 1.217 1.236h2.066V36.04h-.795c-.128 0-.178-.05-.178-.178Z"/><path fill="#E2E2E2" d="M156.833 29.52c-1.298 0-2.047.584-2.411.987-.043-.347-.27-.798-1.162-.798h-1.939v2.033h.795c.134 0 .177.043.177.177v9.28h2.311v-3.483c0-.094-.003-.182-.006-.26.36.332 1.051.789 2.127.789 2.257 0 3.834-1.793 3.834-4.362 0-2.61-1.497-4.363-3.725-4.363m-.472 6.709c-1.24 0-1.806-1.193-1.806-2.299 0-1.74.949-2.361 1.839-2.361 1.09 0 1.823.942 1.823 2.345 0 1.6-.931 2.315-1.856 2.315Zm8.454-6.709c-2.487 0-4.227 1.795-4.227 4.363 0 2.527 1.877 4.362 4.463 4.362 2.035 0 3.278-1.207 3.331-1.258l.093-.092-1.006-1.674-.15.142c-.009.008-.922.85-2.128.85-1.157 0-2.004-.707-2.204-1.818h5.476l.013-.151c.004-.021.05-.514.05-.754 0-2.374-1.492-3.97-3.711-3.97Zm-1.742 3.158c.251-.819.877-1.283 1.742-1.283.695 0 1.231.53 1.325 1.283h-3.067Zm13.851 3.184v-8.06c0-.83-.405-1.235-1.234-1.235h-2.064v2.032h.794c.134 0 .178.044.178.178v1.457c-.341-.308-1.006-.714-2.152-.714-2.241 0-3.805 1.795-3.805 4.363 0 2.61 1.499 4.362 3.727 4.362 1.274 0 2.008-.593 2.367-1.006.047.36.279.817 1.144.817h2V36.04h-.778c-.128 0-.177-.051-.177-.179Zm-4.118.367c-1.098 0-1.809-.921-1.809-2.346 0-1.385.74-2.314 1.841-2.314 1.248 0 1.807 1.153 1.807 2.299 0 1.741-.951 2.36-1.839 2.36Zm10.224-6.63c-.961 0-1.846.556-2.371 1.442v-.191c0-.757-.416-1.141-1.234-1.141h-1.985v2.033h.794c.134 0 .178.042.178.177v6.137h2.309v-3.34c0-.44.056-.864.165-1.256.347-1.152 1.271-1.562 2.018-1.562.265 0 .458.029.461.03l.193.028v-2.3l-.14-.024a2.724 2.724 0 0 0-.388-.033Zm3.815 6.263v-4.917c0-.832-.398-1.236-1.217-1.236h-1.867v2.033h.597c.134 0 .177.043.177.177v4.9c0 .844.388 1.236 1.218 1.236h2.065v-2.014h-.796c-.128 0-.177-.051-.177-.179Z"/><path fill="#E2E2E2" d="M195.525 31.742v-2.033h-1.232c-.72 0-1.106.25-1.334.865l-1.505 4.214a6.66 6.66 0 0 0-.143.5 5.734 5.734 0 0 0-.152-.503l-1.506-4.213c-.231-.62-.604-.863-1.334-.863h-1.309v2.033h.34c.18 0 .238.06.281.174l2.33 6.14h2.596l2.331-6.14c.042-.113.102-.174.283-.174h.354Z"/><path fill="#E2E2E2" d="M202.945 34.244c.002-.021.049-.514.049-.754 0-2.374-1.491-3.97-3.711-3.97-2.488 0-4.226 1.795-4.226 4.363 0 2.527 1.875 4.362 4.462 4.362 2.035 0 3.279-1.207 3.33-1.258l.094-.092-1.004-1.673-.152.142c-.008.007-.926.85-2.127.85-1.158 0-2.005-.708-2.206-1.819h5.478l.013-.151Zm-5.404-1.566c.252-.819.877-1.283 1.742-1.283.697 0 1.23.53 1.325 1.284h-3.067Z"/><path fill="#000" d="M183.032 29.599c-.746 0-1.441.338-1.963.901.441-.004.884-.007 1.328-.007.39 0 .776.003 1.164.006v-.843l-.141-.024a2.724 2.724 0 0 0-.388-.033Zm9.926.975-.095.268c.893.061 1.779.13 2.662.205v-1.338h-1.232c-.72 0-1.107.25-1.335.865Zm-48.922-1.054c-1.298 0-2.049.584-2.41.987-.044-.347-.272-.798-1.164-.798h-1.938v2.033h.794c.135 0 .178.043.178.177v5.171a96.868 96.868 0 0 1 3.257-1.07c-.679-.389-.995-1.263-.995-2.09 0-1.74.95-2.361 1.839-2.361 1.091 0 1.824.942 1.824 2.345 0 .59-.128 1.057-.334 1.414.872-.248 1.747-.485 2.625-.71.029-.238.05-.482.05-.735 0-2.61-1.498-4.363-3.726-4.363Zm5.548.19h-2.063v2.032h.795c.133 0 .176.043.176.177v2.503a114.11 114.11 0 0 1 2.311-.552v-2.925c0-.831-.4-1.236-1.219-1.236Zm-.998-3.143h2.059v2.174h-2.059v-2.174Zm8.249 2.953c-1.298 0-2.047.584-2.411.987-.043-.347-.27-.798-1.163-.798h-1.938v2.033h.795c.133 0 .177.043.177.177v1.621c.788-.167 1.578-.328 2.369-.482.264-1.074 1.014-1.49 1.733-1.49.65 0 1.168.34 1.484.908.797-.133 1.599-.261 2.409-.383-.526-1.589-1.786-2.573-3.455-2.573Zm7.983 0c-1.818 0-3.232.96-3.864 2.477.982-.141 1.974-.274 2.974-.397a1.9 1.9 0 0 1 .89-.205c.127 0 .245.024.36.057a143.83 143.83 0 0 1 2.746-.285c-.634-1.032-1.73-1.647-3.106-1.647Zm10.874-2.953h-2.064v2.032h.795c.133 0 .177.044.177.178v1.457c-.34-.308-1.006-.714-2.152-.714-1.254 0-2.296.563-2.97 1.51 2.479-.21 4.962-.357 7.449-.443v-2.785c0-.83-.406-1.235-1.235-1.235Zm3.736 3.142h-1.986v.863a154.69 154.69 0 0 1 3.18-.07c-.117-.524-.515-.793-1.194-.793Zm5.204-3.142h2.058v2.174h-2.058v-2.174Zm.998 3.142h-1.866v.79c1.019.01 2.034.029 3.044.056-.115-.565-.5-.846-1.178-.846Zm2.689 0h-1.31v.853c.897.026 1.788.059 2.674.1l-.031-.09c-.231-.62-.603-.863-1.333-.863Zm10.964-.189c-1.419 0-2.591.585-3.34 1.563 1.085.095 2.163.202 3.228.32.165.018.326.035.487.054 1.029.116 2.046.244 3.055.382-.528-1.432-1.777-2.319-3.43-2.319Z"/></g><path fill="#000" d="M235.115 33.591h-3.835v.747h.916a1.357 1.357 0 1 1 0 2.715h-1.697l-3.055 3.055h3.191c1.086-.034 5.974-.509 5.974-3.733a3.217 3.217 0 0 0-1.494-2.784Z"/><path fill="#E2E2E2" d="M237.627 36.137c0-1.697-1.663-2.648-2.071-2.817l-.441.271a3.218 3.218 0 0 1 1.494 2.784c0 3.224-4.888 3.7-5.974 3.733 6.653-.067 6.992-2.919 6.992-3.97Z"/><path fill="#000" d="M231.178 26.531h-3.734v13.577l3.055-3.054v-2.716h.679s2.24.136 3.937-.747l.204-.102.238-.17a3.06 3.06 0 0 0 1.188-1.493c.144-.39.213-.805.203-1.222 0-4.073-3.666-4.073-5.77-4.073Zm1.358 5.77h-1.358a.678.678 0 0 1-.679-.678v-1.358a.68.68 0 0 1 .679-.679h1.358a1.358 1.358 0 0 1 0 2.715Z"/><path fill="#E2E2E2" d="M233.452 29.925a1.428 1.428 0 0 1 .441 1.019 1.36 1.36 0 0 1-1.357 1.357h-1.358a.678.678 0 0 1-.679-.678v-1.358s0-1.63.815-2.478a3.368 3.368 0 0 0-2.105 1.731c-1.425 2.546-1.765 10.59-1.765 10.59l3.055-2.342v-3.428h.679c2.715 0 5.091-1.358 5.091-3.53v-.17a.035.035 0 0 1-.024-.01.035.035 0 0 1-.01-.024c-.848-.509-2.511-.645-2.783-.678Z"/><path fill="#E2E2E2" d="M232.705 27.584a4.747 4.747 0 0 0-1.391.203c-.815.849-.815 2.478-.815 2.478a.68.68 0 0 1 .679-.679h1.358c.335.005.659.125.916.34.272.034 1.935.17 2.783.678 0 .01.004.018.01.024.007.007.015.01.024.01-.102-1.697-1.663-3.055-3.564-3.055Zm-.509 9.47h-1.697v.678h1.358c1.12 0 1.697-.916 1.697-2.036a1.356 1.356 0 0 1-1.358 1.358Z"/><path fill="#000" d="m245.434 30.876 1.799 5.499h-.679l-.509-1.596h-2.206l-.51 1.596h-.644l1.799-5.499h.95Zm-1.426 3.36h1.867l-.577-1.867-.339-1.052h-.034c-.102.34-.204.645-.306 1.052l-.611 1.867ZM251.272 34.542v-3.666h.611v3.598c0 1.324-.747 2.003-2.003 2.003-1.256 0-1.901-.713-1.901-1.901v-3.7h.611v3.598c0 .984.544 1.426 1.358 1.426.815 0 1.324-.374 1.324-1.358ZM254.157 31.453h-1.46v-.577h3.564v.577h-1.459v4.922h-.645v-4.922ZM258.706 36.477c-1.324 0-2.139-.781-2.139-2.818 0-2.036.849-2.85 2.173-2.85 1.323 0 2.138.78 2.138 2.782 0 2.003-.882 2.886-2.172 2.886Zm.034-.577c.916 0 1.493-.544 1.493-2.24 0-1.698-.611-2.309-1.527-2.309-.917 0-1.494.543-1.494 2.24s.611 2.309 1.528 2.309ZM262.065 30.876h1.46c1.663 0 2.41.848 2.41 2.715s-.713 2.784-2.41 2.784h-1.46v-5.499Zm.645 4.956h.815c1.188 0 1.765-.611 1.765-2.173 0-1.561-.645-2.206-1.833-2.206h-.747v4.379ZM267.157 36.375v-5.499h2.919v.577h-2.308v1.867h2.037v.543h-2.037v1.969h2.41v.543h-3.021ZM273.708 34.983c0-1.256-2.613-.984-2.613-2.715 0-.815.712-1.46 1.697-1.46a2.306 2.306 0 0 1 1.425.441l-.373.51a1.563 1.563 0 0 0-1.086-.374c-.645 0-1.019.34-1.019.849 0 1.29 2.614 1.018 2.614 2.715 0 .815-.645 1.528-1.833 1.528a2.647 2.647 0 0 1-1.731-.577l.373-.51a2.21 2.21 0 0 0 1.426.51c.747 0 1.12-.408 1.12-.917ZM276.118 36.375h-.645v-5.499h.645v5.499Zm2.138-5.499h.747l-1.969 2.75 2.138 2.749h-.814l-2.037-2.716 1.935-2.783ZM282.125 33.286a1.42 1.42 0 0 1-1.154.475 1.497 1.497 0 0 1-1.154-.475 1.622 1.622 0 0 1-.475-1.154 1.569 1.569 0 0 1 .475-1.154 1.527 1.527 0 0 1 1.154-.51 1.733 1.733 0 0 1 1.664 1.664 1.521 1.521 0 0 1-.51 1.154Zm-2.138-2.173a1.396 1.396 0 0 0-.407 1.019 1.357 1.357 0 0 0 .407.984 1.259 1.259 0 0 0 .984.441 1.325 1.325 0 0 0 1.019-.441 1.369 1.369 0 0 0 .407-.984 1.385 1.385 0 0 0-.876-1.324 1.423 1.423 0 0 0-.55-.102 1.355 1.355 0 0 0-.984.407Zm.95.102.51.068a.442.442 0 0 1 .271.441.437.437 0 0 1-.17.374l-.271.068a.51.51 0 0 1 .305.203.372.372 0 0 1 .102.272v.271c0 .034 0 .068.034.068h-.305v-.204a.481.481 0 0 0-.17-.407l-.373-.068h-.238v.713h-.306v-1.799h.611Zm.34.272-.374-.068h-.271v.679h.271l.306-.068a.272.272 0 0 0 .204-.271.274.274 0 0 0-.136-.272ZM290.034 31.317c.176.261.27.568.272.883a1.223 1.223 0 0 1-.713 1.154c.273.078.505.261.645.509.169.237.252.524.237.815-.006.32-.087.633-.237.916l-.408.441a1.558 1.558 0 0 1-.644.272c-.268.059-.542.082-.815.068h-2.546V30.74h2.75a1.764 1.764 0 0 1 1.459.577Zm-3.089.407v1.222h1.392c.212.012.424-.035.611-.135.136-.068.204-.238.204-.475a.541.541 0 0 0-.306-.544l-.645-.068h-1.256Zm0 2.173v1.493h1.392c.195.017.391-.006.577-.068a.745.745 0 0 0 .373-.712.61.61 0 0 0-.373-.611 1.257 1.257 0 0 0-.577-.102h-1.392ZM292.58 36.375h-1.188V30.74h1.188v5.635ZM297.434 30.74h1.697v5.635h-1.086v-4.718l-1.087 4.718h-1.154l-1.052-4.718v4.718h-1.086V30.74h1.697l1.052 4.447 1.019-4.447ZM303.103 34.678a1.18 1.18 0 0 0 .102.543.712.712 0 0 0 .712.407.848.848 0 0 0 .577-.204.98.98 0 0 0 .238-.645.781.781 0 0 0-.441-.746 2.376 2.376 0 0 0-.815-.102v-.78c.253.017.508-.017.747-.103a.606.606 0 0 0 .373-.645.669.669 0 0 0-.203-.509.615.615 0 0 0-.51-.203.645.645 0 0 0-.577.237 1.218 1.218 0 0 0-.169.645h-1.019c.013-.265.058-.527.136-.78.106-.221.256-.418.441-.578a1.29 1.29 0 0 1 .51-.305c.23-.075.471-.11.712-.102.465-.02.922.124 1.29.407a1.456 1.456 0 0 1 .204 1.935.952.952 0 0 1-.407.272c.172.04.327.135.441.271a1.399 1.399 0 0 1 .407 1.053c.013.464-.157.916-.475 1.255a1.971 1.971 0 0 1-1.46.543c-.78 0-1.323-.271-1.629-.78a2.444 2.444 0 0 1-.271-1.086h1.086ZM309.076 32.234a.549.549 0 0 0-.102-.306.641.641 0 0 0-.543-.271.748.748 0 0 0-.747.61 2.335 2.335 0 0 0-.17.985c.112-.161.264-.29.442-.373a1.96 1.96 0 0 1 .644-.102 1.528 1.528 0 0 1 1.188.509 1.697 1.697 0 0 1 .476 1.29c.015.49-.141.97-.442 1.357a1.733 1.733 0 0 1-1.459.611 1.697 1.697 0 0 1-1.561-.882 3.872 3.872 0 0 1-.374-1.765c0-.352.023-.703.068-1.052.02-.422.148-.831.373-1.188.139-.269.351-.492.611-.645a1.7 1.7 0 0 1 .917-.238c.454-.022.901.123 1.256.407a1.434 1.434 0 0 1 .509 1.053h-1.086Zm-1.324 3.122a.743.743 0 0 0 .645.272.576.576 0 0 0 .543-.272.952.952 0 0 0 .237-.712 1.281 1.281 0 0 0-.237-.747.811.811 0 0 0-.611-.238.645.645 0 0 0-.475.17 1.024 1.024 0 0 0-.34.815c0 .257.084.507.238.712ZM314.202 31.52a5.404 5.404 0 0 1 0 4.278 1.6 1.6 0 0 1-1.494.746 1.628 1.628 0 0 1-1.493-.746 5.808 5.808 0 0 1 0-4.277 1.626 1.626 0 0 1 1.493-.747 1.599 1.599 0 0 1 1.494.747Zm-2.139 3.599a.645.645 0 0 0 .645.51.61.61 0 0 0 .645-.51 5.17 5.17 0 0 0 .17-1.46 5.26 5.26 0 0 0-.17-1.493.611.611 0 0 0-.645-.475.645.645 0 0 0-.645.475c-.112.49-.158.992-.135 1.493-.021.49.024.982.135 1.46ZM43.388 68.678l-4.632 2.983 4.632 2.944-4.632 2.944-4.632-2.983 4.632-2.944-4.632-2.944 4.632-2.944 4.632 2.944Zm-4.632 9.813 4.632-2.944 4.592 2.944-4.592 2.944-4.632-2.944Zm4.632-3.925 4.631-2.944-4.631-2.944 4.592-2.944 4.632 2.944-4.632 2.983 4.632 2.944-4.632 2.944-4.592-2.983ZM56.223 68.678h3.768c2.394 0 4.357 1.374 4.357 4.553v.667c0 3.14-1.845 4.593-4.279 4.593h-3.846v-9.813Zm2.12 1.766v6.241h1.609c1.334 0 2.237-.863 2.237-2.865v-.51c0-1.963-.942-2.866-2.316-2.866h-1.53Zm7.104.118h1.688l.275 1.845c.314-1.257 1.099-1.924 2.59-1.924h.51v2.12h-.863c-1.688 0-2.12.589-2.12 2.276v3.612h-2.04v-7.93h-.04Zm5.495 4.121v-.196c0-2.67 1.688-4.121 4.004-4.121s4.004 1.452 4.004 4.121v.196c0 2.63-1.61 4.043-4.004 4.043-2.394 0-4.004-1.413-4.004-4.043Zm5.888 0v-.196c0-1.492-.746-2.394-1.923-2.394-1.178 0-1.923.824-1.923 2.394v.196c0 1.413.745 2.238 1.923 2.238 1.177 0 1.923-.825 1.923-2.238Zm3.219-4.121h1.727l.196 1.491a2.67 2.67 0 0 1 2.591-1.688c2.041 0 3.337 1.453 3.337 4.122v.236c0 2.59-1.453 4.003-3.337 4.003-1.256 0-2.12-.588-2.512-1.491v4.003H80.01V70.562h.039Zm5.77 4.121v-.196c0-1.57-.824-2.355-1.884-2.355s-1.923.903-1.923 2.355v.157c0 1.413.745 2.277 1.884 2.277 1.138 0 1.923-.785 1.923-2.238Zm5.142 2.355-.157 1.453h-1.766V67.893h2.002v4.082c.431-1.06 1.334-1.61 2.59-1.61 1.885.04 3.297 1.335 3.297 3.965v.236c0 2.63-1.334 4.16-3.336 4.16-1.334-.039-2.198-.667-2.63-1.688Zm3.847-2.472v-.197c0-1.452-.785-2.276-1.884-2.276-1.1 0-1.924.942-1.924 2.316v.156c0 1.492.746 2.356 1.885 2.356 1.138 0 1.923-.785 1.923-2.356Zm2.983.117v-.196c0-2.67 1.727-4.121 4.043-4.121s4.004 1.452 4.004 4.121v.196c0 2.63-1.649 4.043-4.004 4.043-2.355 0-4.043-1.413-4.043-4.043Zm5.966 0v-.196c0-1.492-.745-2.394-1.923-2.394-1.177 0-1.923.824-1.923 2.394v.196c0 1.413.746 2.238 1.923 2.238 1.178 0 1.923-.825 1.923-2.238Zm4.789-.314-2.787-3.807h2.395l1.609 2.394 1.609-2.394h2.356l-2.827 3.807 2.984 4.122h-2.356l-1.805-2.63-1.766 2.63h-2.434l3.022-4.122ZM153.37 69.093h1.231v6.254c0 1.663-.732 2.794-2.428 2.794a3.661 3.661 0 0 1-1.464-.233v-1.197c.397.176.83.256 1.264.233 1.031 0 1.397-.599 1.397-1.497v-6.354ZM156.863 68.594a.797.797 0 0 1 .798.732v.1a.833.833 0 0 1-.458.917.834.834 0 0 1-1.164-.552.833.833 0 0 1-.008-.365.772.772 0 0 1 .176-.561.765.765 0 0 1 .523-.27h.133Zm-.599 2.661h1.164v6.82h-1.164v-6.82ZM159.225 71.255h1.131v1.198c.399-.798 1.097-1.364 2.428-1.297v1.164c-1.53-.166-2.428.3-2.428 1.73v4.058h-1.131v-6.853ZM168.306 76.877a2.426 2.426 0 0 1-2.328 1.364c-1.797 0-2.728-1.564-2.728-3.56 0-1.995.965-3.559 2.894-3.559a2.194 2.194 0 0 1 2.162 1.33v-1.197h1.198v6.82h-1.198v-1.198Zm-1.996.266c1.065 0 1.996-.665 1.996-2.195v-.566c0-1.53-.865-2.195-1.863-2.195s-1.995.865-1.995 2.461c0 1.597.632 2.495 1.862 2.495ZM176.456 78.241a6.49 6.49 0 0 1-3.227-.698v-1.265a7.622 7.622 0 0 0 3.294.765c1.364 0 1.863-.532 1.863-1.33s-.499-1.23-2.196-1.663c-1.696-.433-2.927-1.198-2.927-2.662 0-1.463 1.064-2.428 3.16-2.428.962-.02 1.913.21 2.761.666v1.197a5.557 5.557 0 0 0-2.828-.665c-1.164 0-1.862.399-1.862 1.23 0 .832.565 1.098 2.162 1.497 1.596.4 2.96 1.098 2.96 2.728 0 1.63-.931 2.628-3.16 2.628ZM180.681 74.649c0-2.063 1.197-3.526 3.226-3.526 2.03 0 3.26 1.496 3.26 3.526 0 2.029-1.197 3.592-3.26 3.592-2.062 0-3.226-1.53-3.226-3.592Zm1.131 0c0 1.297.665 2.495 2.095 2.495 1.431 0 2.096-1.198 2.096-2.495 0-1.298-.632-2.429-2.096-2.429-1.463 0-2.095 1.131-2.095 2.429ZM190.16 71.255h1.763v1.065h-1.763v5.755h-1.164V72.32h-1.098v-1.065h1.098v-.765c0-1.264.699-2.129 2.196-2.129.258 0 .515.034.765.1v1.098l-.732-.067a.965.965 0 0 0-1.098 1.031l.033.732ZM195.915 76.944l.732-.1v1.131a2.193 2.193 0 0 1-.798.1c-1.464 0-2.162-.832-2.162-2.129V72.32h-1.131v-1.064h1.097v-1.464h1.165v1.464h1.796v1.064h-1.796v3.593c0 .632.366 1.03 1.097 1.03ZM196.98 71.256h1.298l1.962 5.788 1.996-5.788h1.131l1.996 5.788 1.963-5.788h1.297l-2.495 6.82h-1.53l-1.164-3.294-.632-2.129-.632 2.129-1.198 3.293h-1.497l-2.495-6.82ZM214.012 76.877a2.356 2.356 0 0 1-2.295 1.364c-1.83 0-2.761-1.564-2.761-3.56 0-1.995.965-3.559 2.894-3.559a2.194 2.194 0 0 1 2.162 1.33v-1.197h1.198v6.82h-1.198v-1.198Zm-1.996.266c1.065 0 1.996-.665 1.996-2.195v-.566c0-1.53-.865-2.195-1.863-2.195-.997 0-1.995.865-1.995 2.461 0 1.597.665 2.495 1.862 2.495ZM217.006 71.255h1.131v1.198c.399-.798 1.098-1.364 2.428-1.297v1.164c-1.497-.166-2.428.3-2.428 1.73v4.058h-1.131v-6.853ZM224.724 78.241c-2.562 0-3.693-1.497-3.693-3.592 0-2.096 1.165-3.526 3.26-3.526 2.096 0 2.928 1.463 2.928 3.526v.532h-4.99c.166 1.164.931 1.93 2.528 1.93a6.322 6.322 0 0 0 2.096-.367v1.098c-.677.272-1.4.408-2.129.4Zm-2.528-4.058h3.825c-.067-1.264-.632-1.996-1.796-1.996-1.165 0-1.896.798-2.029 1.996ZM147.648 73.251l-5.089-5.056-.466-.499-3.825 3.826-1.73 1.73a.43.43 0 0 0-.115.516.43.43 0 0 0 .115.149l3.46 3.493 2.095 2.062 3.792-3.792.067-.067 1.696-1.696a.498.498 0 0 0 0-.666Zm-5.588 2.096-1.73-1.763 1.73-1.73 1.763 1.73-1.763 1.763Z"/><path fill="#E2E2E2" d="M142.06 71.854a2.925 2.925 0 0 1 0-4.124l-3.826 3.792 2.063 2.095 1.763-1.763ZM143.823 73.584l-1.763 1.73a2.94 2.94 0 0 1 .866 2.079 2.922 2.922 0 0 1-.866 2.079l3.825-3.826-2.062-2.062Z"/><path fill="#000" d="M254.429 71.126h1.071c.67 0 1.366.134 1.366.911 0 .67-.428 1.152-1.687 1.152h-1.18l.43-2.063Zm-4.715 7.582h3.107l.643-3.08h2.117c2.679 0 4.421-1.769 4.421-3.832 0-2.25-1.206-3.296-3.081-3.296h-5.056l-2.151 10.208Zm14.118-6.698.376 3.054h-1.956l1.58-3.054Zm-6.724 6.698h3.215l.777-1.446h3.323l.161 1.446h3.08l-1.555-10.207h-3.107l-5.894 10.207Zm13.797-6.403 2.492-3.803h3.697l-4.983 6.43-.778 3.777h-3.134l.777-3.751-2.196-6.457h3.168l.957 3.804Zm13.69 2.512c-.187 1.045-.99 4.126-5.251 4.126-2.974 0-4.394-1.929-4.394-4.662 0-3.295 2.063-6.055 5.546-6.055 2.277 0 4.306.99 4.367 4.045h-2.973c.026-.964-.429-1.507-1.393-1.507-1.741 0-2.384 2.01-2.384 3.456 0 .858.215 2.144 1.661 2.144.99 0 1.554-.67 1.742-1.581l3.079.034Zm1.823-6.315h3.161l-.757 3.535h2.867l.75-3.536h3.161l-2.137 10.207h-3.134l.83-4.046h-2.867l-.857 4.046h-3.134l2.117-10.206Zm10.019 0h8.439l-.536 2.626h-5.304l-.268 1.26h4.93l-.502 2.437h-4.93l-.268 1.26h5.411l-.536 2.626h-8.579l2.143-10.21Z"/><path fill="#000" d="m307.047 73.297-2.357-4.796h3.436l.99 2.653 2.036-2.653h3.724l-4.259 4.796 2.491 5.411h-3.536l-1.125-2.84-2.385 2.84h-3.864l4.849-5.41ZM47.704 105.847h-12.22a1.48 1.48 0 0 0-1.48 1.479v12.226c0 .817.662 1.48 1.48 1.48h12.22a1.48 1.48 0 0 0 1.48-1.48v-12.226a1.48 1.48 0 0 0-1.48-1.479Z"/><path fill="#E2E2E2" d="M46.505 107.837H43.29a.714.714 0 0 0-.714.714v5.215c0 .395.32.714.715.714h3.214a.714.714 0 0 0 .714-.714v-5.215a.714.714 0 0 0-.714-.714ZM39.898 107.837h-3.215a.714.714 0 0 0-.714.714v9.011c0 .395.32.715.714.715h3.215c.394 0 .714-.32.714-.715v-9.011a.714.714 0 0 0-.714-.714Z"/><path fill="#000" d="M81.224 124.489a1.79 1.79 0 0 1-1.271-.532 1.784 1.784 0 0 1-.51-1.28 1.78 1.78 0 0 1 3.562 0 1.776 1.776 0 0 1-.51 1.28 1.79 1.79 0 0 1-1.27.532Zm1.78.246a.766.766 0 0 0 .646.614h.215a.153.153 0 0 0 .153-.153v-4.976a.153.153 0 0 0-.154-.153h-.706a.153.153 0 0 0-.153.153v.399a2.242 2.242 0 0 0-1.781-.737 2.796 2.796 0 0 0 0 5.59 2.367 2.367 0 0 0 1.78-.737Zm2.704-.737c.426.317.942.489 1.474.491.46 0 .952-.246.952-.676 0-.43-1.044-.644-1.72-.859-.676-.215-1.228-.707-1.228-1.444s1.013-1.658 1.996-1.658a3.008 3.008 0 0 1 1.627.491c.154.123.062.246.062.246l-.4.552a.149.149 0 0 1-.094.078.162.162 0 0 1-.12-.016 1.724 1.724 0 0 0-1.075-.369c-.676 0-.952.277-.952.615 0 .337.46.522 1.013.675.553.154 1.935.553 1.935 1.689 0 1.137-.952 1.659-1.996 1.659a3.347 3.347 0 0 1-2.058-.645.186.186 0 0 1-.03-.215l.399-.553a.156.156 0 0 1 .156-.082c.02.003.04.01.059.021Zm8.753.737a.767.767 0 0 0 .645.614h.215a.153.153 0 0 0 .153-.153v-4.976a.153.153 0 0 0-.154-.153h-.706a.153.153 0 0 0-.153.153v.399a2.24 2.24 0 0 0-1.782-.737 2.796 2.796 0 0 0 0 5.59 2.367 2.367 0 0 0 1.782-.737Zm-1.782-.246a1.79 1.79 0 0 1-1.27-.532 1.784 1.784 0 0 1-.511-1.28 1.78 1.78 0 0 1 3.563 0 1.776 1.776 0 0 1-.511 1.28 1.79 1.79 0 0 1-1.27.532Zm9.122.399v-2.579c0-1.444-.921-2.427-2.396-2.427a1.807 1.807 0 0 0-1.474.737.58.58 0 0 0-.203-.415.588.588 0 0 0-.442-.137h-.215a.153.153 0 0 0-.153.153v5.006a.154.154 0 0 0 .153.154h.83c0-.031.03-.062.03-.092v-2.949a1.414 1.414 0 0 1 1.413-1.412 1.376 1.376 0 0 1 1.314.867c.069.173.103.359.099.545v2.949a.19.19 0 0 0 .063.111.184.184 0 0 0 .121.042h.829c0-.03.031-.061.031-.092v-.461Zm5.467-.153a.76.76 0 0 0 .645.614h.215a.177.177 0 0 0 .12-.043.18.18 0 0 0 .064-.11v-4.976h-.031a.153.153 0 0 0-.153-.153h-.707a.153.153 0 0 0-.153.153v.399a2.241 2.241 0 0 0-1.782-.737 2.795 2.795 0 0 0 0 5.59 2.371 2.371 0 0 0 1.782-.737Zm-1.782-.246a1.787 1.787 0 0 1-1.27-.532 1.773 1.773 0 0 1-.511-1.28 1.781 1.781 0 0 1 3.563 0 1.773 1.773 0 0 1-.511 1.28 1.788 1.788 0 0 1-1.271.532ZM96.58 111.375a2.457 2.457 0 1 0 0 4.913 2.457 2.457 0 0 0 0-4.913Zm-6.357 0a2.457 2.457 0 1 0 0 4.913 2.457 2.457 0 0 0 0-4.913Zm5.62-3.071a2.458 2.458 0 1 1-4.915-.001 2.458 2.458 0 0 1 4.915.001ZM149.037 113.256a4.124 4.124 0 0 0-3.662 2.189 4.18 4.18 0 0 0-6.165-1.363v-3.484a.826.826 0 0 0-1.652 0v6.857a4.153 4.153 0 0 0 7.817 1.876 4.128 4.128 0 0 0 7.184.19 4.133 4.133 0 0 0-3.522-6.265Zm-7.325 6.633a2.497 2.497 0 0 1-2.327-1.528 2.5 2.5 0 0 1 4.383-2.365 2.5 2.5 0 0 1-2.056 3.893Zm7.325 0a2.496 2.496 0 0 1-2.327-1.528 2.508 2.508 0 0 1 .528-2.734 2.5 2.5 0 0 1 4.278 1.761c0 .659-.26 1.292-.724 1.761a2.505 2.505 0 0 1-1.755.74Z"/><path fill="#000" d="m158.753 120.247-2.122-2.837 2.122-2.858a.824.824 0 0 0-.79-1.294.847.847 0 0 0-.55.311l-1.831 2.457-1.832-2.457a.825.825 0 0 0-1.317.983l2.121 2.858-2.121 2.837a.822.822 0 0 0 .216 1.085.826.826 0 0 0 1.101-.103l1.832-2.434 1.831 2.434a.847.847 0 0 0 1.162.157.826.826 0 0 0 .178-1.139ZM197.824 123.294h-1.299v-5.131h1.299v5.131ZM208.271 119.647a2.265 2.265 0 0 0-1.113-.279 1.34 1.34 0 0 0-.991.378 1.337 1.337 0 0 0-.4.982c-.004.184.029.367.097.538a1.374 1.374 0 0 0 .757.756c.17.068.353.101.537.097.388 0 .77-.096 1.113-.278v1.36c-.38.123-.776.186-1.175.185-1.483 0-2.751-.989-2.751-2.658s1.144-2.658 2.751-2.658a4.26 4.26 0 0 1 1.175.186v1.391Zm-13.538 0a2.19 2.19 0 0 0-1.082-.279 1.399 1.399 0 0 0-1.471.796 1.399 1.399 0 0 0 0 1.16 1.397 1.397 0 0 0 .879.756c.192.056.394.069.592.039.378-.003.75-.098 1.082-.278v1.36a3.6 3.6 0 0 1-1.174.185c-1.453 0-2.751-.989-2.751-2.658a2.617 2.617 0 0 1 .801-1.923 2.642 2.642 0 0 1 1.95-.735c.398.007.793.069 1.174.186v1.391Zm17.617-.279a1.36 1.36 0 1 0 .003 2.72 1.36 1.36 0 0 0-.003-2.72Zm2.72 1.36a2.722 2.722 0 0 1-3.211 2.737 2.721 2.721 0 0 1 .491-5.395 2.63 2.63 0 0 1 2.72 2.658Zm-12.332-1.39a5.407 5.407 0 0 0-1.02-.155c-.525 0-.803.155-.803.402 0 .247.37.432.587.494l.371.124c.834.278 1.205.834 1.205 1.453 0 1.298-1.113 1.73-2.102 1.73-.476-.009-.951-.05-1.421-.123v-1.206c.4.127.816.2 1.236.217.649 0 .927-.186.927-.495s-.247-.402-.556-.494l-.278-.093c-.742-.247-1.329-.649-1.329-1.515 0-.865.711-1.607 1.916-1.607.426.014.85.066 1.267.155v1.113ZM189.448 112.631a.648.648 0 0 0-.65-.618.61.61 0 0 0-.599.374.62.62 0 0 0-.05.244v1.36a.627.627 0 0 0 .192.448.62.62 0 0 0 .457.17.652.652 0 0 0 .65-.618v-1.36Zm3.523-1.762a.657.657 0 0 0-.19-.459.657.657 0 0 0-.459-.19.678.678 0 0 0-.649.649v3.122a.649.649 0 1 0 1.298 0v-3.122Zm3.554-2.411a.649.649 0 1 0-1.298 0v6.831a.65.65 0 0 0 .649.618.679.679 0 0 0 .649-.618v-6.831Zm3.524 2.411a.639.639 0 0 0-.05-.248.638.638 0 0 0-.351-.352.66.66 0 0 0-.248-.049.678.678 0 0 0-.649.649v3.122a.641.641 0 0 0 .4.599.647.647 0 0 0 .898-.599v-3.122Zm3.523 1.762a.62.62 0 0 0-.649-.618.618.618 0 0 0-.618.618v1.36a.628.628 0 0 0 .17.457.615.615 0 0 0 .448.192.653.653 0 0 0 .649-.649v-1.36Zm3.555-1.762a.681.681 0 0 0-.68-.618.616.616 0 0 0-.618.618v3.122a.649.649 0 1 0 1.298 0v-3.122Zm3.523-2.411a.66.66 0 0 0-.19-.459.657.657 0 0 0-.459-.19.649.649 0 0 0-.649.649v6.831a.65.65 0 0 0 1.298.031v-6.862Zm3.524 2.411a.651.651 0 0 0-.915-.726.643.643 0 0 0-.351.438.651.651 0 0 0-.002.288v3.122a.628.628 0 0 0 .17.457.609.609 0 0 0 .448.192.65.65 0 0 0 .65-.649v-3.122Zm3.554 1.762a.648.648 0 0 0-.649-.618.604.604 0 0 0-.457.169.619.619 0 0 0-.192.449v1.36a.649.649 0 1 0 1.298 0v-1.36ZM216.986 122.614v.092h-.247v.588h-.093v-.588h-.216v-.092h.556Zm.031 0h.154l.186.556h.031l.185-.556h.155v.68h-.124v-.557l-.185.557h-.093l-.216-.557v.557h-.093v-.68Z"/><g clip-path="url(#c)"><path fill="#000" d="M253.966 122.512c3.862 0 6.993-3.069 6.993-6.854 0-3.786-3.13-6.854-6.993-6.854-3.862 0-6.993 3.068-6.993 6.854 0 3.785 3.131 6.854 6.993 6.854Z"/><path fill="#E2E2E2" d="m250.321 115.639 1.193-1.173a.205.205 0 0 0-.011-.286.215.215 0 0 0-.293-.008l-1.192 1.168-1.198-1.17a.217.217 0 0 0-.303.002.206.206 0 0 0 .002.296l1.194 1.17-1.193 1.17a.209.209 0 0 0-.054.23.221.221 0 0 0 .117.117.22.22 0 0 0 .167-.001.208.208 0 0 0 .07-.048l1.196-1.17 1.191 1.166a.22.22 0 0 0 .235.051.213.213 0 0 0 .118-.275.215.215 0 0 0-.046-.068l-1.193-1.172m7.094.001c0 .21.175.381.39.381.103 0 .202-.04.275-.112a.375.375 0 0 0 0-.538.392.392 0 0 0-.276-.112.386.386 0 0 0-.388.381m-.737 0c0-.608.504-1.103 1.125-1.103.62 0 1.126.495 1.126 1.103s-.506 1.103-1.126 1.103c-.298 0-.584-.117-.795-.324a1.09 1.09 0 0 1-.33-.779Zm-.443 0c0 .847.704 1.537 1.568 1.537.865 0 1.569-.689 1.569-1.537 0-.847-.704-1.536-1.569-1.536-.416 0-.814.163-1.108.451a1.52 1.52 0 0 0-.46 1.085Zm-.111-1.51h-.065a.904.904 0 0 0-.548.181.207.207 0 0 0-.076-.118.223.223 0 0 0-.134-.047.214.214 0 0 0-.212.209l.001 2.588a.207.207 0 0 0 .067.141.215.215 0 0 0 .294-.001.206.206 0 0 0 .066-.14v-1.592c0-.53.05-.745.514-.801.043-.006.089-.005.09-.005.126-.004.217-.09.217-.205a.212.212 0 0 0-.064-.149.216.216 0 0 0-.151-.061m-4.105 1.257.001-.017c.062-.241.205-.454.405-.605a1.155 1.155 0 0 1 1.399.01c.198.155.337.37.396.612h-2.202.001Zm2.638-.039a1.53 1.53 0 0 0-.694-1.004 1.605 1.605 0 0 0-1.747.045 1.534 1.534 0 0 0-.615 1.633c.08.299.249.569.486.773.237.205.532.335.845.374.19.023.374.013.564-.036.166-.04.325-.106.469-.196.152-.096.278-.222.402-.373l.007-.008c.085-.104.069-.252-.024-.322-.079-.059-.212-.083-.316.048a1.95 1.95 0 0 1-.075.096c-.083.09-.186.176-.309.244a1.146 1.146 0 0 1-1.6-.606 1.076 1.076 0 0 1-.048-.177l-.003-.032h2.233c.306-.006.47-.218.425-.46v.001Z"/></g><path fill="#000" d="M292.971 118.917v2.459c0 .939-1.039.959-1.039.959s-1.059-.02-1.059-.959v-2.459s-.04-.419-.64-.419v2.938a1.619 1.619 0 0 0 1.699 1.458 1.596 1.596 0 0 0 1.679-1.458v-2.938c-.58 0-.64.419-.64.419ZM307.561 118.917v2.459c0 .939-1.039.959-1.039.959s-1.059-.02-1.059-.959v-2.459s-.04-.419-.64-.419v2.938a1.699 1.699 0 0 0 3.378 0v-2.938c-.6 0-.64.419-.64.419ZM299.387 121.436v-2.938c-.58 0-.64.419-.64.419v3.918h.64v-1.399ZM309.96 121.436v-2.938c-.6 0-.64.419-.64.419v3.918h.64v-1.399ZM314.916 121.436v-2.938c-.6 0-.64.419-.64.419v3.918h.64v-1.399ZM296.469 122.335h-1.139v-1.459h1.159c.1 0 .599.08.599.719a.74.74 0 0 1-.619.74Zm-1.139-3.278h.959a.619.619 0 0 1 .659.66c0 .599-.639.639-.639.639h-.979v-1.299Zm1.638 1.539a1.121 1.121 0 0 0 .62-.979c0-.7-.64-1.119-1.239-1.119h-1.639v4.337h2.098s.9-.24.9-1.06c0-.819-.48-1.179-.74-1.179ZM302.085 122.355c-.84 0-1.24-.74-1.24-1.659s.4-1.659 1.24-1.659c.839 0 1.239.74 1.239 1.659s-.4 1.659-1.239 1.659Zm2.038-.08h-.779c.399-.421.621-.979.619-1.559 0-.959-.419-2.218-1.918-2.218 0 0-1.739-.12-1.859 2.178-.12 2.299 1.859 2.159 1.859 2.159a9.354 9.354 0 0 1 1.459-.06h.999s-.04-.5-.38-.5ZM313.737 119.037h-3.158v-.539h3.158v.539Z"/><path fill="#000" d="M312.497 118.498v4.337h-.619v-4.337h.619Z"/><path fill="#000" fill-rule="evenodd" d="M298.627 106.506h-.619v-.659h.619v.659ZM299.867 109.764h-.62v-.66h.62v.66ZM299.867 107.745h-.62v-.64h.62v.64ZM300.487 107.106h-.62v-.64h.62v.64ZM300.487 108.825h-.62v-.64h.62v.64ZM301.106 108.045h-.62v-.639h.62v.639Z" clip-rule="evenodd"/><path fill="#000" fill-rule="evenodd" d="M298.008 107.545h.619v3.458h.6v-.62h.64v1.359h.639v-2.258h.62v4.657a3.854 3.854 0 0 0 1.858 2.958c-1.838 0-4.976-.84-4.976-4.557v-4.997ZM304.763 114.86s2.478-.139 3.217-3.477v-5.436s-3.117-.36-3.117 1.938c0 2.299-.1 6.975-.1 6.975Z" clip-rule="evenodd"/><path fill="#000" d="M290.394 124.154h.239l.58.939v-.939h.22v1.279h-.24l-.58-.939v.939h-.219v-1.279ZM293.771 124.154h.92v.2h-.7v.339h.64v.18h-.64v.36h.7v.2h-.92v-1.279ZM296.889 124.154h1.039v.2h-.4v1.079h-.24v-1.079h-.399v-.2ZM300.127 124.154h.22l.24.979.259-.979h.22l.26.979.24-.979h.22l-.36 1.279h-.22l-.26-.979-.259.979h-.22l-.34-1.279ZM304.104 124.793c0 .24.1.48.38.48s.379-.24.379-.48-.099-.479-.379-.479-.38.239-.38.479Zm.999 0a.607.607 0 0 1-.166.465.622.622 0 0 1-.453.195.664.664 0 0 1-.467-.193.664.664 0 0 1 0-.933.66.66 0 0 1 .713-.143.625.625 0 0 1 .338.36c.029.08.041.165.035.249ZM307.641 124.753h.379a.203.203 0 0 0 .21-.132c.01-.028.013-.058.01-.087 0-.16-.12-.18-.22-.18h-.379v.399Zm-.22-.579h.619c.28 0 .42.12.42.34a.315.315 0 0 1-.22.319.239.239 0 0 1 .2.26.643.643 0 0 0 .06.34h-.24a.576.576 0 0 1-.02-.18c0-.24-.06-.34-.259-.34h-.34v.52h-.22v-1.259ZM310.759 124.174h.22v.579l.559-.579h.28l-.5.499.54.76h-.28l-.419-.6-.18.18v.42h-.22v-1.259ZM314.177 125.013c0 .2.14.28.32.28s.279-.1.279-.2a.155.155 0 0 0-.023-.096.164.164 0 0 0-.076-.064l-.38-.1a.316.316 0 0 1-.28-.319c0-.26.22-.38.46-.38.24 0 .479.14.479.4h-.22c0-.16-.119-.22-.279-.22-.16 0-.22.04-.22.16 0 .119.06.139.14.179l.379.1a.32.32 0 0 1 .24.32c0 .28-.26.4-.499.4-.24 0-.54-.14-.54-.46h.22Z"/><path fill="#E2E2E2" d="M36.558 162.713c1.186 0 2.15-.958 2.15-2.138v-2.137h-2.15c-1.187 0-2.15.958-2.15 2.137 0 1.18.963 2.138 2.15 2.138Z"/><path fill="#000" d="M34.405 156.299c0-1.18.963-2.137 2.15-2.137h2.15v4.276h-2.15a2.144 2.144 0 0 1-2.15-2.137v-.002Z"/><path fill="#E2E2E2" d="M34.405 152.022c0-1.18.963-2.137 2.15-2.137h2.15v4.277h-2.15a2.145 2.145 0 0 1-2.15-2.138v-.002Z"/><path fill="#000" d="M38.685 149.885h2.15c1.186 0 2.15.957 2.15 2.137 0 1.18-.964 2.137-2.15 2.137h-2.15v-4.274Z"/><path fill="#E2E2E2" d="M43.007 156.299c0 1.18-.963 2.137-2.15 2.137-1.186 0-2.172-.957-2.172-2.137 0-1.18.964-2.137 2.15-2.137s2.15.957 2.15 2.137h.022Z"/><path fill="#000" d="M45.285 152.023v6.68h.881v-3.189h2.119v-.83h-2.119v-1.825h2.753v-.836h-3.634Zm5.228 1.357c.32 0 .576-.25.576-.561 0-.311-.26-.529-.576-.529a.57.57 0 0 0-.576.562c0 .151.062.291.172.401.11.111.253.168.411.168l-.007-.041Zm-.445.843v4.48h.846v-4.48h-.874.028Zm4.155-.134c-1.173 0-1.989 1.003-1.989 2.113s.823 2.107 1.989 2.107a1.782 1.782 0 0 0 1.299-.532v.595a1.386 1.386 0 0 1-.398.96 1.377 1.377 0 0 1-.98.401 1.469 1.469 0 0 1-.782-.254l-.446.745a2.301 2.301 0 0 0 2.311.08c.357-.191.655-.472.862-.813.206-.342.315-.732.314-1.129v-4.146h-.881v.401a1.766 1.766 0 0 0-.592-.399 1.796 1.796 0 0 0-.707-.129Zm-1.104 2.113c-.02-.217.022-.436.123-.631.1-.195.255-.358.446-.472.39-.234.88-.234 1.268 0s.607.662.57 1.103c.02.218-.023.436-.124.631-.1.195-.255.359-.446.473-.39.234-.88.234-1.268 0a1.175 1.175 0 0 1-.57-1.104ZM59.458 155.041a.92.92 0 0 0-.651.275.95.95 0 0 0-.271.662v2.846h-.85v-4.498h.85v.379c.258-.349.668-.55 1.097-.543a1.47 1.47 0 0 1 1.316.762c.33-.47.806-.756 1.322-.762.968 0 1.57.792 1.573 1.772v2.864h-.85v-2.854a.951.951 0 0 0-.413-.922.92.92 0 0 0-.998-.004.953.953 0 0 0-.41.926v2.847h-.816v-2.843a.948.948 0 0 0-.27-.662.92.92 0 0 0-.652-.275l.023.03Zm8.924-.235a2.017 2.017 0 0 0-1.497-.641c-1.266 0-2.148 1.088-2.148 2.35s.892 2.35 2.148 2.35a2.055 2.055 0 0 0 1.497-.641v.51h.85v-4.499h-.85v.571Zm-2.809 1.746a1.438 1.438 0 0 1 .668-1.336c.453-.282.991-.282 1.474 0 .22.139.4.337.518.573.117.235.17.499.15.763a1.438 1.438 0 0 1-.668 1.336c-.453.282-.992.282-1.474 0a1.436 1.436 0 0 1-.518-.573c-.118-.236-.17-.5-.15-.763Z"/><g fill="#000" clip-path="url(#d)"><path d="M107.088 158.035h-2.446a.115.115 0 0 0-.115.114v1.184c0 .063.052.115.115.115h.954v1.469s-.214.075-.803.075c-.7 0-1.671-.252-1.671-2.374 0-2.121 1.017-2.402 1.966-2.402.826 0 1.179.143 1.405.212.069.023.138-.046.138-.109l.272-1.143a.1.1 0 0 0-.046-.086c-.087-.069-.648-.383-2.064-.383-1.631 0-3.302.686-3.302 3.986 0 3.3 1.914 3.791 3.527 3.791 1.336 0 2.145-.566 2.145-.566.035-.017.035-.063.035-.086v-3.683c.006-.063-.046-.114-.11-.114ZM119.675 155.101a.115.115 0 0 0-.115-.114h-1.376a.115.115 0 0 0-.116.114v2.631h-2.145v-2.631a.115.115 0 0 0-.116-.114h-1.376a.115.115 0 0 0-.116.114v7.115c0 .063.052.114.116.114h1.376a.115.115 0 0 0 .116-.114v-3.037h2.145l-.006 3.042c0 .063.052.115.116.115h1.376a.116.116 0 0 0 .115-.115v-7.12h.006ZM109.684 156.039a.885.885 0 1 0-1.77-.001.885.885 0 0 0 1.77.001ZM109.586 160.717v-3.283a.115.115 0 0 0-.116-.114h-1.37c-.064 0-.121.063-.121.126v4.706c0 .138.086.178.202.178h1.237c.133 0 .168-.069.168-.183v-1.43ZM124.902 157.331h-1.365a.115.115 0 0 0-.115.114v3.489s-.347.252-.839.252c-.491 0-.624-.223-.624-.698v-3.043a.116.116 0 0 0-.116-.114h-1.388a.115.115 0 0 0-.115.114v3.272c0 1.412.798 1.761 1.896 1.761.902 0 1.625-.492 1.625-.492s.035.258.052.292c.017.029.058.063.098.063l.879-.006a.115.115 0 0 0 .116-.114v-4.776a.106.106 0 0 0-.104-.114ZM128.632 157.171c-.775 0-1.301.344-1.301.344v-2.414a.115.115 0 0 0-.116-.114h-1.382a.115.115 0 0 0-.115.114v7.115c0 .063.052.114.115.114h.954c.041 0 .076-.023.099-.063.023-.04.058-.326.058-.326s.566.526 1.63.526c1.255 0 1.972-.629 1.972-2.825.005-2.185-1.139-2.471-1.914-2.471Zm-.544 4.01a1.59 1.59 0 0 1-.792-.229v-2.254s.318-.194.706-.228c.491-.046.965.103.965 1.264 0 1.224-.214 1.469-.879 1.447ZM113.534 157.321h-1.029v-1.35c0-.052-.029-.075-.087-.075h-1.405c-.052 0-.087.023-.087.075v1.395s-.705.166-.751.183a.111.111 0 0 0-.081.109v.875c0 .063.052.114.115.114h.723v2.105c0 1.561 1.11 1.716 1.856 1.716.341 0 .752-.109.821-.132.041-.017.064-.057.064-.103v-.961a.115.115 0 0 0-.116-.114c-.058 0-.214.023-.37.023-.509 0-.676-.235-.676-.532v-2.002h1.023a.115.115 0 0 0 .116-.114v-1.098a.115.115 0 0 0-.116-.114Z"/></g><g fill="#000" clip-path="url(#e)"><path d="M91.526 149.885c-3.616 0-6.547 2.94-6.547 6.568a6.567 6.567 0 0 0 4.477 6.232c.327.061.447-.142.447-.316 0-.156-.006-.674-.009-1.223-1.821.398-2.206-.775-2.206-.775-.297-.759-.726-.961-.726-.961-.594-.407.044-.399.044-.399.658.046 1.004.677 1.004.677.584 1.004 1.532.714 1.905.546.059-.425.229-.714.416-.878-1.454-.166-2.983-.73-2.983-3.246 0-.717.256-1.303.675-1.763-.068-.166-.292-.834.063-1.738 0 0 .55-.177 1.8.673a6.216 6.216 0 0 1 3.28 0c1.25-.85 1.798-.673 1.798-.673.357.904.133 1.572.065 1.738.42.46.673 1.046.673 1.763 0 2.522-1.531 3.078-2.99 3.24.236.204.445.604.445 1.217 0 .878-.008 1.586-.008 1.802 0 .175.118.38.45.315a6.566 6.566 0 0 0 4.474-6.231c0-3.628-2.932-6.568-6.547-6.568Z"/><path d="M87.43 159.241c-.014.032-.065.042-.112.02-.047-.022-.074-.066-.059-.099.014-.033.066-.043.113-.02.048.021.075.066.058.099Zm.322.288c-.03.029-.092.016-.133-.03-.043-.046-.051-.107-.02-.137.033-.029.092-.015.135.031.043.046.05.107.018.136m.221.369c-.04.028-.105.002-.146-.057-.04-.058-.04-.128 0-.156.041-.028.106-.003.147.055.04.059.04.129 0 .158m.373.427c-.036.04-.112.029-.168-.025-.058-.053-.074-.128-.038-.168.037-.04.114-.029.17.025.057.053.074.129.036.168Zm.483.144c-.016.052-.09.075-.164.053-.074-.022-.122-.083-.107-.135.015-.051.089-.076.164-.052.074.022.122.082.107.134Zm.55.061c.001.055-.062.1-.14.1-.078.002-.141-.042-.142-.095 0-.055.061-.099.14-.1.078-.002.141.042.141.095Zm.54-.02c.009.053-.046.107-.123.121-.076.014-.146-.018-.156-.071-.01-.054.046-.108.122-.122.077-.014.146.018.156.072Z"/></g><path fill="#000" d="M178.712 160.135c-.331-.399-.499-.945-.499-1.647 0-.715.168-1.271.498-1.671.329-.401.778-.601 1.359-.601.576 0 1.02.2 1.351.601.33.4.498.956.498 1.671 0 .699-.168 1.245-.498 1.645-.331.398-.775.597-1.351.597-.578 0-1.025-.197-1.358-.595Zm-2.539-6.082h8.048v8.66h-8.048v-1.898l.242-.675a.294.294 0 0 0 .016-.138l-.258-1.981v-3.968Zm.519 4.433c0 .501.083.968.253 1.399.17.432.419.821.751 1.164.31.319.665.563 1.064.726a3.44 3.44 0 0 0 1.312.244c.457 0 .887-.081 1.286-.244a3.287 3.287 0 0 0 1.078-.726c.335-.343.588-.73.759-1.161.171-.431.256-.897.256-1.402 0-.502-.085-.969-.256-1.398a3.447 3.447 0 0 0-.759-1.154 3.256 3.256 0 0 0-1.077-.737 3.312 3.312 0 0 0-1.289-.248 3.178 3.178 0 0 0-2.376.985 3.341 3.341 0 0 0-.751 1.149 3.823 3.823 0 0 0-.251 1.403Zm8.11-4.615v8.431l.702-.702v-8.54l-.702.811Zm-7.441-1.29-.819.892h7.836l.78-.901-7.797.009Zm-3.251.705.495-1.42-7.833 1.092-.103.342.245.968 7.196-.982Zm.513.293.39 2.745.61 4.303.222-.62-.94-7.239-.282.811Zm-8.271 1.875.159.071-3.158 7.165-6.985-3.149 3.157-7.166 6.827 3.079Zm-1.506 1.802c0-.428-.075-.845-.227-1.257a3.192 3.192 0 0 0-.682-1.117 3.168 3.168 0 0 0-1.074-.735 3.221 3.221 0 0 0-1.266-.266h-.02a3.16 3.16 0 0 0-1.279.287 3.455 3.455 0 0 0-1.149.805 4.109 4.109 0 0 0-.796 1.24 4.101 4.101 0 0 0-.338 1.593c0 .421.072.832.215 1.237a3.094 3.094 0 0 0 1.774 1.844 3.19 3.19 0 0 0 1.26.264h.012a3.265 3.265 0 0 0 1.276-.275 3.65 3.65 0 0 0 1.16-.815c.33-.342.596-.757.8-1.237a4.047 4.047 0 0 0 .334-1.568Zm9.78.473.547 3.851-7.796 1.095-.824-5.809.604-1.371c.003-.003 0-.008 0-.011a.28.28 0 0 0 .016-.176l-.117-.474 7.022-.958.548 3.853Zm-.886 3.215a1.59 1.59 0 0 0-.016-.207l-.823-5.601c-.037-.258-.126-.453-.268-.582a.6.6 0 0 0-.417-.154.922.922 0 0 0-.129.01.651.651 0 0 0-.485.297.81.81 0 0 0-.111.432c0 .064.005.131.016.201l.306 2.154-2.407.354-.306-2.154a.958.958 0 0 0-.264-.576.587.587 0 0 0-.413-.163.908.908 0 0 0-.116.01.671.671 0 0 0-.504.294.786.786 0 0 0-.113.434c0 .069.006.137.017.205l.824 5.603c.037.257.127.453.276.579.114.099.261.15.424.148a.967.967 0 0 0 .142-.009.612.612 0 0 0 .463-.297.816.816 0 0 0 .103-.421 1.38 1.38 0 0 0-.016-.204l-.336-2.215 2.407-.352.336 2.212a.913.913 0 0 0 .272.576.621.621 0 0 0 .423.154.8.8 0 0 0 .129-.01.636.636 0 0 0 .48-.294.806.806 0 0 0 .106-.424Zm-7.275-6.077-.452-1.8-6.955-3.182.56 1.894 6.847 3.088Zm-7.397-2.897-.521-1.756-2.463 5.846.301 2.001 2.683-6.091Zm3.28 3.382a1.822 1.822 0 0 0-.715-.157 1.556 1.556 0 0 0-.765.204c-.462.256-.841.721-1.131 1.403a3.158 3.158 0 0 0-.283 1.228c0 .189.025.368.072.538.142.509.47.868.996 1.093.243.103.478.154.706.154.268-.001.532-.071.766-.203.461-.254.835-.711 1.119-1.379a3.26 3.26 0 0 0 .291-1.259c0-.185-.023-.361-.069-.527-.139-.511-.463-.872-.986-1.094l-.001-.001Zm-7.882.525.845 5.565-7.734 1.211-1.238-7.587 6.384-.977 1.439-.221.304 2.009Zm-.816 4.935a.784.784 0 0 0-.012-.137.586.586 0 0 0-.127-.289.591.591 0 0 0-.261-.173 1.215 1.215 0 0 0-.402-.057c-.146 0-.316.016-.507.049l-2.192.375c.023-.17.106-.392.255-.662.216-.382.46-.746.731-1.09l.253-.34c.041-.051.099-.127.175-.228.502-.658.812-1.193.93-1.614.085-.299.129-.607.13-.917 0-.173-.013-.343-.042-.513a1.414 1.414 0 0 0-.114-.382.548.548 0 0 0-.193-.228.736.736 0 0 0-.38-.079c-.136 0-.297.017-.488.049l-2.533.435c-.307.052-.533.143-.679.277a.545.545 0 0 0-.173.408c0 .044.004.087.012.13.036.216.147.374.328.454a.931.931 0 0 0 .387.072c.102 0 .215-.011.337-.033l2.122-.357c.017.169-.004.341-.062.501-.066.176-.222.426-.473.746l-.327.406c-.571.692-.979 1.283-1.229 1.774a3.867 3.867 0 0 0-.364 1 2.747 2.747 0 0 0-.058.55c0 .127.009.248.029.367.022.146.065.287.127.42.047.1.122.184.217.241.082.046.204.064.372.066a5.4 5.4 0 0 0 .859-.095l2.299-.392c.408-.072.69-.168.854-.303a.55.55 0 0 0 .15-.192.548.548 0 0 0 .049-.239Zm1.082-7.446-.033.177.978 6.437.228-1.192-.966-6.488-.204 1.067-.003-.001Zm-.119-2.443-7.78 1.246-.461 2.306 7.787-1.191.452-2.36.002-.001Z"/><path fill="#000" fill-rule="evenodd" d="M243.377 153.516c.198.346.304.739.306 1.138v5.255a1.799 1.799 0 0 0 1.708 1.708h.569v-6.963a2.33 2.33 0 0 1 1.153-1.997 2.32 2.32 0 0 1 2.307-.017c.353.223.653.522.876.876.158.359.247.745.262 1.138v5.255a1.799 1.799 0 0 0 1.708 1.708h.613v-6.963a4.683 4.683 0 0 0-4.642-4.642 4.606 4.606 0 0 0-3.503 1.577 4.585 4.585 0 0 0-3.503-1.577 4.73 4.73 0 0 0-2.584.789 3.462 3.462 0 0 0-2.058-.789v11.605h.57a1.707 1.707 0 0 0 1.707-1.708v-5.255a2.245 2.245 0 0 1 .638-1.652 2.237 2.237 0 0 1 1.64-.669 2.272 2.272 0 0 1 2.014 1.183h.219Zm-39.761 8.101h9.283v-.57a1.751 1.751 0 0 0-1.708-1.707h-5.868l7.007-6.963v-.569a1.752 1.752 0 0 0-1.708-1.708h-9.371v.569a1.794 1.794 0 0 0 1.708 1.708h5.824l-6.963 6.963v.613a1.84 1.84 0 0 0 1.752 1.708l.044-.044Zm30.828-9.897a5.824 5.824 0 0 1 0 8.233 5.913 5.913 0 0 1-8.233 0 5.822 5.822 0 0 1-.129-8.362 5.813 5.813 0 0 1 4.208-1.706 5.841 5.841 0 0 1 4.154 1.835Zm-1.664 1.62a3.506 3.506 0 0 1 0 4.949 3.467 3.467 0 0 1-3.78.754 3.467 3.467 0 0 1-1.125-.754 3.505 3.505 0 0 1 0-4.949 3.467 3.467 0 0 1 3.78-.754c.421.175.803.431 1.125.754Zm-14.67-3.328a5.828 5.828 0 0 1 5.377 3.596 5.821 5.821 0 0 1-1.261 6.345 5.825 5.825 0 0 1-8.188-8.233 5.642 5.642 0 0 1 4.072-1.708Zm2.496 3.328a3.504 3.504 0 0 1-4.421 5.393 3.508 3.508 0 0 1-1.488-3.599 3.504 3.504 0 0 1 5.909-1.794ZM283.463 159.191l.563-1.315a3.869 3.869 0 0 0 2.255.698c.617 0 .993-.242.993-.591-.027-.966-3.596-.214-3.623-2.657 0-1.234 1.1-2.2 2.657-2.2.939 0 1.878.214 2.523.751l-.51 1.369a3.942 3.942 0 0 0-2.094-.671c-.483 0-.805.215-.805.51 0 .966 3.596.456 3.65 2.791 0 1.261-1.073 2.174-2.63 2.174a4.995 4.995 0 0 1-2.979-.859Zm21.954-1.798a1.717 1.717 0 0 1-1.449.832 1.637 1.637 0 0 1-1.638-1.637 1.645 1.645 0 0 1 1.005-1.537 1.634 1.634 0 0 1 1.465.101c.254.145.466.353.617.604l1.556-.859a3.456 3.456 0 0 0-3.894-1.659 3.457 3.457 0 0 0-2.589 3.35 3.461 3.461 0 0 0 6.483 1.691l-1.556-.886Zm-15.567-7.139h1.987v9.662h-1.987v-9.662Zm17.902 0v9.662h1.986v-2.899l2.335 2.899h2.523l-2.98-3.436 2.765-3.22h-2.416l-2.227 2.657v-5.663h-1.986Z" clip-rule="evenodd"/><path fill="#000" d="M297.687 157.42a1.798 1.798 0 0 1-1.53.805 1.636 1.636 0 0 1-1.637-1.637 1.645 1.645 0 0 1 .47-1.175 1.639 1.639 0 0 1 1.167-.489 1.767 1.767 0 0 1 1.53.859v1.637Zm0-4.16v.778c-.322-.536-1.127-.912-1.959-.912-1.718 0-3.086 1.53-3.086 3.435 0 1.906 1.368 3.489 3.086 3.489.832 0 1.637-.375 1.959-.939v.778h1.986v-6.629h-1.986Z"/><path fill="#000" fill-rule="evenodd" d="M271.278 157.393a1.262 1.262 0 0 1-1.234 1.235 1.234 1.234 0 0 1-1.208-1.235 1.207 1.207 0 0 1 1.208-1.207h1.234v1.207Zm.591 0a1.235 1.235 0 0 1 2.442 0v3.06a1.235 1.235 0 0 1-2.442 0v-3.06ZM273.103 152.509a1.206 1.206 0 0 1-1.14-.74 1.194 1.194 0 0 1-.095-.468 1.24 1.24 0 0 1 .286-.988 1.246 1.246 0 0 1 .935-.428 1.23 1.23 0 0 1 .935.428 1.222 1.222 0 0 1 .286.988v1.208h-1.207Zm0 .617a1.233 1.233 0 0 1 .753 2.027 1.233 1.233 0 0 1-.753.415h-3.06a1.242 1.242 0 0 1-.988-.286 1.236 1.236 0 0 1 .988-2.156h3.06ZM277.96 154.361a1.235 1.235 0 0 1 1.235-1.235 1.235 1.235 0 0 1 0 2.442h-1.235v-1.207Zm-.59 0a1.234 1.234 0 0 1-1.235 1.207 1.21 1.21 0 0 1-.854-.353 1.21 1.21 0 0 1-.353-.854v-3.06a1.235 1.235 0 0 1 1.207-1.235 1.263 1.263 0 0 1 1.235 1.235v3.06ZM276.135 159.218a1.262 1.262 0 0 1 1.235 1.235 1.234 1.234 0 0 1-1.235 1.208 1.21 1.21 0 0 1-1.207-1.208v-1.235h1.207Zm0-.59a1.234 1.234 0 0 1-1.207-1.235c0-.32.127-.627.353-.854a1.21 1.21 0 0 1 .854-.353h3.06a1.209 1.209 0 0 1 1.208 1.207 1.234 1.234 0 0 1-1.208 1.235h-3.06Z" clip-rule="evenodd"/><path fill="#000" d="M62.33 193.063h2.413c-.402-2.544-2.623-4.316-5.514-4.316-3.42 0-5.986 2.493-5.986 6.67 0 4.102 2.451 6.647 6.056 6.647 3.236 0 5.552-2.065 5.552-5.406v-1.557h-5.303v1.835h3.012c-.038 1.849-1.282 3.019-3.248 3.019-2.188 0-3.688-1.626-3.688-4.563 0-2.918 1.525-4.538 3.637-4.538 1.576 0 2.654.835 3.07 2.209ZM66.444 201.886h2.31v-9.717h-2.31v9.717Zm1.165-11.262c.734 0 1.334-.558 1.334-1.24 0-.683-.6-1.247-1.334-1.247-.734 0-1.34.556-1.34 1.247 0 .69.596 1.24 1.336 1.24h.004ZM75.674 192.169H73.74v-2.335h-2.31v2.335h-1.39v1.772h1.39v5.406c-.013 1.829 1.328 2.731 3.063 2.677.462-.009.92-.086 1.36-.228l-.39-1.792c-.22.057-.448.087-.676.09-.581 0-1.047-.203-1.047-1.128v-5.03h1.934v-1.767ZM77.463 201.885h8.123v-1.968h-5.755v-10.995h-2.368v12.963ZM90.01 202.082c1.537 0 2.455-.715 2.877-1.532h.076v1.335h2.224v-6.506c0-2.57-2.112-3.342-3.982-3.342-2.061 0-3.644.911-4.154 2.683l2.157.305c.23-.665.88-1.235 2.013-1.235 1.073 0 1.66.545 1.66 1.5v.038c0 .658-.696.69-2.426.873-1.901.203-3.72.766-3.72 2.956-.006 1.912 1.404 2.925 3.274 2.925Zm.758-1.681c-.963 0-1.653-.437-1.653-1.278 0-.881.772-1.247 1.8-1.393.608-.082 1.82-.235 2.119-.474v1.145c.006 1.079-.875 1.997-2.266 1.997v.003ZM96.889 201.885h2.272v-1.531h.133c.364.709 1.124 1.703 2.809 1.703 2.31 0 4.039-1.818 4.039-5.02 0-3.24-1.78-5-4.046-5-1.729 0-2.45 1.032-2.802 1.734h-.097v-4.849h-2.308v12.963Zm2.265-4.86c0-1.891.817-3.109 2.304-3.109 1.538 0 2.33 1.298 2.33 3.109s-.804 3.151-2.33 3.151c-1.475 0-2.304-1.266-2.304-3.151Z"/><path fill="#E2E2E2" d="m48.888 193.363-.023-.059-2.245-5.809a.583.583 0 0 0-.49-.366.586.586 0 0 0-.498.188.588.588 0 0 0-.134.237l-1.515 4.603h-6.138l-1.515-4.603a.591.591 0 0 0-.632-.425.597.597 0 0 0-.49.366l-2.244 5.81-.024.058a4.101 4.101 0 0 0-.113 2.618c.25.862.775 1.62 1.497 2.16l.008.007.02.014 3.415 2.539 1.694 1.27 1.03.773a.702.702 0 0 0 .839 0l1.03-.773 1.694-1.27 3.44-2.553.01-.008A4.133 4.133 0 0 0 49 195.981c.25-.862.21-1.781-.112-2.618Z"/><path fill="#000" d="m48.888 193.363-.022-.059a7.594 7.594 0 0 0-3.019 1.346l-4.93 3.698 3.14 2.353 3.44-2.553.009-.008A4.133 4.133 0 0 0 49 195.98a4.1 4.1 0 0 0-.113-2.617Z"/><path fill="#E2E2E2" d="m37.767 200.702 1.694 1.27 1.03.772a.702.702 0 0 0 .839 0l1.029-.772 1.694-1.27-3.139-2.353-3.147 2.353Z"/><path fill="#000" d="M35.981 194.65a7.603 7.603 0 0 0-3.017-1.345l-.024.057a4.104 4.104 0 0 0-.113 2.619c.25.862.775 1.62 1.497 2.16l.008.006.02.015 3.415 2.539 3.141-2.353-4.927-3.698ZM160.379 200.71c-.822.563-2.12.779-3.461.779-4.326 0-6.749-2.552-6.749-6.706 0-4.153 2.423-6.749 6.706-6.749 1.255 0 2.553.216 3.461.909v1.73a5.88 5.88 0 0 0-3.461-.908c-3.072 0-4.932 2.033-4.932 5.018 0 2.986 1.903 5.019 5.018 5.019a7.096 7.096 0 0 0 3.375-.822l.043 1.73Zm1.255-4.412c0-2.986 1.731-5.149 4.716-5.149 2.985 0 4.716 2.163 4.716 5.149 0 2.985-1.731 5.235-4.716 5.235-2.985 0-4.716-2.25-4.716-5.235Zm1.644 0c0 1.903.952 3.634 3.072 3.634s3.028-1.731 3.028-3.634c0-1.904-.908-3.548-3.028-3.548s-3.072 1.687-3.072 3.548Zm18.258 5.018h-1.731v-6.014c0-1.817-.692-2.595-2.336-2.595s-2.683 1.038-2.683 3.071v5.538h-1.73v-9.951h1.73v1.601a3.458 3.458 0 0 1 3.159-1.817c2.293 0 3.591 1.601 3.591 4.327v5.84Zm4.759-9.951h2.595v1.558h-2.595v8.393h-1.644v-8.393h-1.644v-1.558h1.644v-1.124c0-1.861 1.038-3.116 3.158-3.116.394.016.786.074 1.168.174v1.6l-1.082-.129c-1.081 0-1.6.649-1.6 1.514v1.081Zm7.095 9.994c-1.644 0-2.682-.778-2.682-2.595v-11.595h1.73v11.378c0 .909.606 1.212 1.341 1.212h.476v1.514a1.896 1.896 0 0 1-.865.086Zm2.336-9.994h1.731v6.014c0 1.774.692 2.596 2.336 2.596s2.682-1.082 2.682-3.072v-5.538h1.731v9.951h-1.731v-1.644a3.497 3.497 0 0 1-3.158 1.861c-2.293 0-3.591-1.601-3.591-4.327v-5.841Zm15.835 10.168c-3.764 0-5.365-2.164-5.365-5.235 0-3.072 1.644-5.149 4.673-5.149 3.028 0 4.326 2.12 4.326 5.149v.778h-7.268c.216 1.688 1.341 2.812 3.677 2.812a8.954 8.954 0 0 0 3.029-.562v1.601a7.229 7.229 0 0 1-3.072.606Zm-3.677-5.928h5.581c-.087-1.817-.952-2.898-2.64-2.898-1.687 0-2.768 1.168-2.941 2.898Zm17.824 5.711h-1.73v-6.014c0-1.817-.736-2.595-2.336-2.595-1.601 0-2.683 1.038-2.683 3.071v5.538h-1.73v-9.951h1.73v1.601a3.459 3.459 0 0 1 3.115-1.817c2.293 0 3.634 1.601 3.634 4.327v5.84Zm9.432-.259a5.847 5.847 0 0 1-2.466.432c-3.548 0-5.192-2.12-5.192-5.191 0-3.072 1.644-5.149 5.192-5.149a4.97 4.97 0 0 1 2.379.476v1.557a5.671 5.671 0 0 0-2.249-.475c-2.596 0-3.634 1.644-3.634 3.591 0 1.946 1.081 3.59 3.677 3.59a6.465 6.465 0 0 0 2.25-.389l.043 1.558Zm6.706.476c-3.721 0-5.365-2.164-5.365-5.235 0-3.072 1.688-5.149 4.716-5.149 3.029 0 4.283 2.12 4.283 5.149v.778h-7.268c.259 1.688 1.341 2.812 3.677 2.812a8.954 8.954 0 0 0 3.029-.562v1.601a7.229 7.229 0 0 1-3.072.606Zm-3.634-5.928h5.538c-.087-1.817-.952-2.898-2.639-2.898-1.688 0-2.726 1.168-2.899 2.898ZM130.397 198.374l-.433.736a.477.477 0 0 0 .13.605l2.985 1.818a.48.48 0 0 0 .606-.13l.432-.692c1.168-1.947 2.337-1.688 4.457-.693l2.942 1.385a.435.435 0 0 0 .562-.217h.043l1.385-3.201a.435.435 0 0 0-.217-.563l-2.942-1.427c-3.98-1.904-7.355-1.774-9.95 2.423v-.044Z"/><path fill="#000" d="m143.636 191.149.432-.735a.474.474 0 0 0-.129-.606l-2.986-1.817a.437.437 0 0 0-.33-.063.431.431 0 0 0-.275.193l-.476.735c-1.125 1.947-2.337 1.687-4.413.692l-2.942-1.384a.478.478 0 0 0-.606.216l-1.384 3.202a.378.378 0 0 0-.025.332.38.38 0 0 0 .241.23l2.942 1.428c3.98 1.904 7.355 1.774 9.951-2.423ZM307.935 191.683h-2.672v2.656h2.672a1.15 1.15 0 0 1 1.145 1.142 1.145 1.145 0 0 1-.334.806 1.147 1.147 0 0 1-.811.333h-2.672v2.657h2.672a3.825 3.825 0 0 0 2.698-1.113 3.79 3.79 0 0 0 1.119-2.684 3.79 3.79 0 0 0-1.119-2.684 3.83 3.83 0 0 0-2.698-1.113Zm-15.228 14.055a8.018 8.018 0 0 0 7.243-4.561h3.406v4.561h1.908v-4.561h2.672c3.164 0 5.728-2.551 5.728-5.696 0-3.145-2.564-5.697-5.728-5.697h-4.58v6.837h-2.718c-.554-3.864-3.894-6.837-7.931-6.837h-9.398l-9.356 15.954h2.23l2.671-4.561h9.606v4.561h4.247Zm23.628-10.249c0 4.613-3.761 8.345-8.4 8.345v4.557h-7.25v-3.554a10.693 10.693 0 0 1-7.978 3.555h-6.917v-4.558h-5.401l-2.671 4.557h-8.474l12.467-21.266h10.996c3.164 0 6.018 1.377 7.979 3.558v-3.558h7.25a8.425 8.425 0 0 1 5.938 2.449 8.339 8.339 0 0 1 2.461 5.907v.008Zm-30.538-3.798v4.937h-4.262l-1.557 2.657h8.491v-7.602l-2.672.008Zm13.026 6.067c0 3.356-2.737 6.076-6.108 6.076h-2.329v-2.657h2.329a3.446 3.446 0 0 0 2.425-1.004 3.409 3.409 0 0 0 1.004-2.415 3.42 3.42 0 0 0-1.009-2.416 3.456 3.456 0 0 0-2.428-1.003h-2.329v-2.656h2.329c3.372 0 6.108 2.72 6.108 6.075"/><path fill="#000" fill-rule="evenodd" d="M36.532 257.533v-7.937h-3.079v7.937h3.079Zm.24-8.61 5.243-6.446h-3.174l-5.244 6.446h3.175Zm.577.673v7.937h3.079v-3.992c0-.818.866-1.491 2.261-1.107v-2.838c-1.058-.24-2.261.842-2.261 1.371v-1.371h-3.079Z" clip-rule="evenodd"/><path fill="#000" d="M77.432 253.393h15.486v-15.486H77.432v15.486Z"/><path fill="#E2E2E2" d="M89.593 242.717a4.153 4.153 0 0 0-5.867 0l-.1.076-.58-.051a3.513 3.513 0 0 0-2.493 1.058 3.524 3.524 0 0 0 2.493 6.018h3.702a4.15 4.15 0 0 0 3.773-2.609 4.153 4.153 0 0 0-.928-4.492Zm-6.522 6.346a2.824 2.824 0 0 1-2.69-3.334c.1-.536.352-1.031.726-1.426a2.87 2.87 0 0 1 1.964-.805h.403l.428.1c.265.08.512.208.73.378.112.07.214.155.303.252l.1.075 1.108 1.134a.399.399 0 0 1 0 .553.32.32 0 0 1-.252.101.376.376 0 0 1-.276-.101l-.932-.906-.176-.201-.101-.101a2.009 2.009 0 0 0-.932-.453h-.403a2.086 2.086 0 0 0-1.36.579 1.987 1.987 0 0 0 .302 3.066 1.98 1.98 0 0 0 1.109.333h.352l.328.302c.16.179.346.332.553.454h-1.284Zm5.993-1.008c-.348.349-.77.615-1.234.781l-.428.126a3.19 3.19 0 0 1-.68.101h-.075a3.356 3.356 0 0 1-2.14-.781l-.252-.227-1.587-1.586a.403.403 0 0 1 0-.554.333.333 0 0 1 .252-.101.382.382 0 0 1 .277.101l1.561 1.586c.157.14.326.266.504.378.406.257.88.388 1.36.378.212.001.423-.024.63-.076.142-.023.279-.075.402-.151.308-.134.59-.321.831-.554a2.644 2.644 0 0 0 0-3.701 2.664 2.664 0 0 0-1.863-.756c-.521.003-1.03.16-1.46.453a2.53 2.53 0 0 0-.706-.428 3.403 3.403 0 0 1 4.608 5.011Z"/><g fill="#000" clip-path="url(#f)"><path d="M136.477 234.21c-3.708.273-6.86.523-7.008.553a1.355 1.355 0 0 0-.971.722l-.156.325.015 7.731.022 7.731.237.479c.134.266 1.038 1.504 2.025 2.779 1.95 2.513 2.091 2.653 2.832 2.727.216.022 1.832-.052 3.583-.155 1.757-.11 4.575-.28 6.266-.376 7.223-.435 6.852-.399 7.267-.752.519-.428.482.272.504-9.124.015-7.968.008-8.491-.111-8.734-.141-.273-.393-.464-3.686-2.764-2.202-1.533-2.358-1.614-3.344-1.629-.408-.014-3.775.207-7.475.487Zm8.335 1.009c.312.14 2.588 1.717 2.922 2.02.089.089.119.162.074.206-.104.089-14.194.922-14.602.863a1.85 1.85 0 0 1-.615-.244c-.646-.434-2.247-1.739-2.247-1.835 0-.25-.052-.25 6.229-.7 1.202-.081 3.175-.228 4.376-.324 2.602-.206 3.381-.199 3.863.014Zm4.479 4.032c.104.103.193.302.223.494.022.177.037 3.478.022 7.326-.022 6.603-.03 7.016-.156 7.207a.75.75 0 0 1-.334.281c-.311.125-15.076.958-15.38.869a1.147 1.147 0 0 1-.437-.257l-.179-.192-.022-7.119c-.015-4.997 0-7.208.06-7.407.044-.148.156-.325.252-.383.134-.089 1.009-.163 4.02-.339 2.114-.118 5.384-.317 7.26-.428 4.464-.273 4.449-.273 4.671-.052Z"/><path d="M145.324 241.691c-.801.052-1.513.125-1.595.17-.245.125-.393.331-.422.567-.022.243.052.273.852.369l.349.044v3.147c0 1.872-.03 3.11-.067 3.073-.037-.044-1.09-1.635-2.343-3.537a430.732 430.732 0 0 0-2.307-3.493c-.015-.015-.83.029-1.809.096-1.202.081-1.862.154-1.995.228-.216.11-.453.501-.453.759 0 .155.282.236.875.236h.312v9.05l-.504.155c-.393.118-.527.192-.594.339-.118.251-.111.479.008.479.044 0 .882-.052 1.846-.11 1.906-.111 2.121-.162 2.321-.553.06-.118.111-.243.111-.28 0-.03-.259-.118-.571-.192l-.704-.162c-.126-.037-.134-.265-.134-3.434v-3.398l2.254 3.515c2.366 3.685 2.663 4.106 3.026 4.29.453.236 1.602.073 2.181-.302l.178-.111.015-5.026.022-5.034.393-.073c.467-.089.682-.302.682-.671 0-.236-.015-.251-.237-.243-.133.006-.897.05-1.69.102Z"/></g><g clip-path="url(#g)"><path fill="#000" d="m182.866 251.803 3.802-2.914c2.021 2.638 4.167 3.853 6.557 3.853 2.377 0 4.461-1.201 6.391-3.816l3.858 2.842c-2.784 3.772-6.243 5.765-10.249 5.765-3.993 0-7.486-1.98-10.359-5.73Zm10.345-12.662-6.767 5.832-3.129-3.627 9.912-8.542 9.833 8.548-3.143 3.616-6.706-5.827Z"/></g><path fill="#000" d="M244.685 257.499c-4.895-.531-8.77-4.353-9.403-9.275-.073-.57-.073-1.994 0-2.565.463-3.599 2.611-6.623 5.843-8.228 2.565-1.274 5.665-1.445 8.339-.461a10.672 10.672 0 0 1 6.732 7.733c.288 1.302.288 3.176 0 4.477-.706 3.189-2.795 5.863-5.681 7.273-1.027.502-1.859.77-2.986.962-.654.111-2.176.156-2.844.084Zm.653-9.555v-5.246l-1.423-.017c-1.629-.018-2.115.024-2.74.232a4.157 4.157 0 0 0-2.743 2.952c-.147.573-.168 1.429-.048 1.97a4.272 4.272 0 0 0 2.794 3.129c.43.148.536.166 1.094.185l.618.019v-1.49l-.478-.023c-.761-.037-1.295-.274-1.831-.811-.648-.65-.905-1.584-.7-2.549a2.61 2.61 0 0 1 1.423-1.795c.532-.253.75-.29 1.704-.29h.814v4.468c0 2.458.015 4.484.032 4.501.018.018.359.027.758.02l.726-.018v-5.246.009Zm4.406 3.168c1.455-.236 2.725-1.219 3.248-2.514.242-.599.309-.959.313-1.68.003-.564-.014-.741-.103-1.069a4.242 4.242 0 0 0-2.298-2.777c-.557-.264-.927-.353-1.592-.383l-.596-.027.013.764.013.765.536.028c.577.03.8.092 1.185.328.569.349.995.853 1.205 1.427.136.371.168 1.227.062 1.648a2.611 2.611 0 0 1-1.382 1.717c-.507.251-.935.327-1.851.329l-.711.002v-9H246.247v10.492h1.597c.894 0 1.731-.022 1.9-.05ZM298.49 238.648a5.21 5.21 0 0 1 1.724-1.217 5.15 5.15 0 0 1 2.057-.426 5.23 5.23 0 0 1 2.669.744 5.343 5.343 0 0 1 1.933 2.012 6.253 6.253 0 0 1 2.603-.556 6.448 6.448 0 0 1 4.316 2.072 6.66 6.66 0 0 1 1.755 4.512 6.66 6.66 0 0 1-1.755 4.511 6.453 6.453 0 0 1-4.316 2.073 6.43 6.43 0 0 1-1.261-.112 4.756 4.756 0 0 1-2.705 2.206 4.664 4.664 0 0 1-3.458-.257 5.415 5.415 0 0 1-2.024 2.454 5.284 5.284 0 0 1-3.033.868 5.288 5.288 0 0 1-2.986-1.02 5.422 5.422 0 0 1-1.902-2.552 4.29 4.29 0 0 1-1.041.111 4.925 4.925 0 0 1-1.906-.396 5 5 0 0 1-1.612-1.108 5.133 5.133 0 0 1-1.441-3.591 5.2 5.2 0 0 1 .654-2.546 5.092 5.092 0 0 1 1.812-1.88 6.05 6.05 0 0 1-.466-2.339 5.92 5.92 0 0 1 1.693-4.153 5.734 5.734 0 0 1 4.088-1.721 5.64 5.64 0 0 1 2.572.599 5.722 5.722 0 0 1 2.03 1.712Z"/><path fill="#E2E2E2" d="M290.409 247.334c0 .055 0 .055.028.055l.164.112c.268.152.57.229.877.222.63 0 1.013-.334 1.013-.863 0-.473-.438-.668-.849-.779h-.055c-.301-.112-.548-.195-.548-.39s.137-.306.384-.306c.267.002.53.068.767.195 0 0 .082.028.082-.028s.11-.306.137-.334c.027-.028 0-.056-.027-.056a1.546 1.546 0 0 0-.877-.25h-.055c-.575 0-.959.334-.959.835 0 .529.439.696.822.807h.082c.274.084.548.167.548.39 0 .195-.164.334-.438.334a1.459 1.459 0 0 1-.794-.223l-.083-.055c-.027-.028-.082-.056-.082.027l-.137.334v-.027Zm8.958 0c-.027.055 0 .055 0 .055l.192.112c.268.152.57.229.877.222.63 0 .986-.334.986-.863 0-.473-.411-.668-.822-.779h-.055c-.301-.112-.547-.195-.547-.39s.137-.306.383-.306c.267.005.529.071.767.195a.065.065 0 0 0 .023.009c.009.001.017 0 .025-.003a.046.046 0 0 0 .021-.013.046.046 0 0 0 .013-.021c.034-.116.08-.228.137-.334v-.056a1.54 1.54 0 0 0-.876-.25h-.083c-.547 0-.931.334-.931.835 0 .529.411.696.822.807h.055c.301.084.548.167.548.39 0 .195-.165.334-.411.334a1.462 1.462 0 0 1-.795-.223l-.109-.055c0-.028-.055-.028-.083.027l-.109.334-.028-.027Zm6.11-1.058c.013.252-.044.503-.165.724a.598.598 0 0 1-.986 0 1.352 1.352 0 0 1-.164-.724 1.29 1.29 0 0 1 .164-.696.599.599 0 0 1 .986 0c.119.211.176.453.165.696Zm.52-.557a1.427 1.427 0 0 0-.246-.445 1.46 1.46 0 0 0-.384-.307 1.776 1.776 0 0 0-.548-.111 1.585 1.585 0 0 0-.548.111c-.149.072-.28.176-.383.307a1.43 1.43 0 0 0-.247.445c-.11.363-.11.751 0 1.114.049.173.133.334.247.473a.818.818 0 0 0 .383.278c.171.082.359.121.548.112a1.22 1.22 0 0 0 .548-.112.99.99 0 0 0 .384-.278c.114-.139.198-.3.246-.473a2.86 2.86 0 0 0 0-1.114Zm4.192 1.448a.057.057 0 0 0-.035-.035.065.065 0 0 0-.024-.002.05.05 0 0 0-.024.009l-.219.055h-.301a.781.781 0 0 1-.575-.222 1.071 1.071 0 0 1-.22-.724 1.22 1.22 0 0 1 .192-.668.71.71 0 0 1 .575-.251l.548.056s.028.028.055-.028c.028-.056.082-.223.11-.362.027-.139 0-.056-.028-.056l-.328-.083h-.384a1.768 1.768 0 0 0-.575.111c-.158.07-.298.174-.411.307a1.43 1.43 0 0 0-.247.445c-.056.18-.084.368-.082.557-.023.373.095.741.329 1.03a1.262 1.262 0 0 0 1.013.39c.245.002.487-.046.713-.14 0 0 .055 0 .027-.055l-.109-.334Zm.876-1.17a1.49 1.49 0 0 1 .137-.417.549.549 0 0 1 .493-.251.513.513 0 0 1 .493.251c.081.123.12.27.11.417h-1.233Zm1.726-.362a1.865 1.865 0 0 0-.219-.417 1.294 1.294 0 0 0-.329-.251 1.293 1.293 0 0 0-.493-.111 1.768 1.768 0 0 0-.575.111 1.1 1.1 0 0 0-.384.307 1.557 1.557 0 0 0-.246.473c-.11.363-.11.751 0 1.113.049.165.133.318.246.446.123.132.273.237.439.306.204.061.417.089.63.084.301.014.601-.044.876-.167 0 0 .028-.028 0-.084l-.109-.334h-.055c-.223.102-.467.15-.712.139a.916.916 0 0 1-.603-.195.93.93 0 0 1-.192-.584h1.726a.054.054 0 0 0 .021-.005.057.057 0 0 0 .03-.03 2.007 2.007 0 0 0-.051-.773v-.028Zm-15.56.39c.024-.145.071-.286.137-.417a.542.542 0 0 1 .493-.251.512.512 0 0 1 .493.251.674.674 0 0 1 .109.417h-1.232Zm1.726-.362a1.91 1.91 0 0 0-.22-.417 1.272 1.272 0 0 0-.328-.251 1.298 1.298 0 0 0-.494-.111c-.196.004-.39.042-.575.111a1.596 1.596 0 0 0-.411.306c-.089.15-.162.308-.219.474-.11.362-.11.75 0 1.113.049.165.133.317.247.446.123.132.272.237.438.306.204.061.417.089.63.083a1.92 1.92 0 0 0 .877-.167s.027-.027 0-.083l-.11-.334h-.055c-.223.102-.467.15-.712.139a.928.928 0 0 1-.603-.195.925.925 0 0 1-.191-.585h1.726a.05.05 0 0 0 .038-.016.051.051 0 0 0 .016-.039c.03-.252.011-.507-.054-.752v-.028Zm-5.452 1.531-.11-.083a.571.571 0 0 1-.055-.251.394.394 0 0 1 .165-.334.622.622 0 0 1 .493-.111h.466v.807l-.466.056a.705.705 0 0 1-.493-.111v.027Zm.685-1.252h-.274a.956.956 0 0 0-.411.055.97.97 0 0 0-.384.167 1.172 1.172 0 0 0-.246.279.92.92 0 0 0-.082.417.902.902 0 0 0 .082.39.69.69 0 0 0 .219.279c.11.072.23.128.356.167h.986l.439-.084.109-.056c.055 0 .028-.055.028-.055v-1.615a.971.971 0 0 0-.274-.78 1.086 1.086 0 0 0-.795-.25l-.438.056a1.412 1.412 0 0 0-.548.194.025.025 0 0 0-.019.009.024.024 0 0 0-.008.019c0 .008.002.015.008.02a.027.027 0 0 0 .019.008l.11.334c.027.056.054.028.054.028h.028c.237-.123.5-.19.767-.195a.628.628 0 0 1 .411.139c.109.056.137.167.137.418v.056h-.274Zm13.944-.919a.09.09 0 0 0-.027-.056l-.302-.055a.86.86 0 0 0-.438.083l-.301.223v-.223a.052.052 0 0 0-.017-.039.052.052 0 0 0-.038-.017h-.439a.052.052 0 0 0-.038.017.051.051 0 0 0-.016.039v2.617c0 .015.005.029.016.039.01.011.024.017.038.017h.466a.052.052 0 0 0 .039-.017.055.055 0 0 0 .016-.039v-1.336a1.089 1.089 0 0 1 .055-.446.85.85 0 0 1 .137-.278l.219-.111h.438c.028.027.028 0 .055-.028l.137-.39Z"/><path fill="#E2E2E2" d="m303.859 243.798-.164-.056h-.247a.981.981 0 0 0-.712.251 1.372 1.372 0 0 0-.356.807v.112h-.384a.052.052 0 0 0-.021.004.057.057 0 0 0-.029.03.052.052 0 0 0-.004.021l-.083.362a.06.06 0 0 0 .016.04c.011.01.025.016.039.016h.384l-.384 2.199a1.753 1.753 0 0 1-.109.446.693.693 0 0 1-.11.25l-.164.112h-.329l-.11-.056s-.027 0-.054.056c-.034.116-.08.228-.137.334-.002.015 0 .03.005.044a.107.107 0 0 0 .022.039l.164.056h.247a.897.897 0 0 0 .767-.278c.095-.117.169-.248.219-.39.065-.19.111-.386.137-.585l.384-2.255h.575a.057.057 0 0 0 .039-.016.06.06 0 0 0 .016-.04l.082-.361a.054.054 0 0 0-.016-.04.057.057 0 0 0-.018-.012.052.052 0 0 0-.021-.004h-.575c.027 0 .027-.195.109-.39.031-.068.068-.133.11-.195l.164-.083h.384c.055.028.055 0 .055-.028l.137-.362c.027-.028 0-.056-.028-.056v.028Zm-7.725 3.786c0 .028 0 .056-.028.056h-.465a.05.05 0 0 1-.021-.004.057.057 0 0 1-.018-.012.054.054 0 0 1-.016-.04v-3.73a.05.05 0 0 1 .004-.021.076.076 0 0 1 .012-.019.057.057 0 0 1 .018-.012.071.071 0 0 1 .021-.004h.465c.028 0 .028.028.028.056v3.73Z"/><path fill="#383838" d="M37.997 286.228h-4.282v7.136h4.282v-7.136Z"/><path fill="#383838" d="M37.997 293.364h-4.282v4.282h4.282v-4.282Z"/><path fill="#000" d="M49.416 281.945h-4.282v7.851h4.282v-7.851Z"/><path fill="#383838" d="M49.416 289.796h-4.282v7.85h4.282v-7.85ZM45.205 286.227v-4.282h-7.137v4.282h7.137Z"/><path fill="#383838" d="M45.205 297.646v-4.282h-7.137v4.282h7.137Z"/><path fill="#383838" d="m45.705 290.295 7.78 5.496a1.068 1.068 0 0 0 1.641-.928V284.8a1.07 1.07 0 0 0-1.642-.928l-7.78 5.495a.572.572 0 0 0 0 .928Z" opacity=".85"/><path fill="#383838" d="m33.715 286.227 4.282-4.282v4.282h-4.282ZM103.392 285.917l4.075-3.972h11.19a1.062 1.062 0 0 1 .747.309 1 1 0 0 1 .291.738v2.925h-16.303ZM119.695 293.86l-3.038 3.972h-9.189v-3.972h12.227Z"/><path fill="#383838" d="M119.695 285.917h-12.227v3.972h12.227v-3.972Z"/><path fill="#000" d="M107.467 285.917h-4.075v3.972h4.075v-3.972ZM119.695 289.888h-12.227v3.972h12.227v-3.972Z"/><path fill="#383838" d="M107.467 289.888h-4.075v3.972h4.075v-3.972Z"/><path fill="#000" d="M103.392 293.86h4.075v3.972h-3.075c-.265 0-.52-.103-.707-.286a.958.958 0 0 1-.293-.689v-2.997Z"/><path fill="#383838" d="M175.287 290.671c2.366 0 4.283-1.954 4.283-4.363 0-2.409-1.917-4.363-4.283-4.363-2.365 0-4.282 1.954-4.282 4.363 0 2.409 1.917 4.363 4.282 4.363Z"/><path fill="#383838" d="M179.298 293.927c2.032 0 3.68-1.678 3.68-3.748 0-2.07-1.648-3.748-3.68-3.748s-3.679 1.678-3.679 3.748c0 2.07 1.647 3.748 3.679 3.748Z"/><path fill="#383838" d="M175.739 296.661c1.615 0 2.925-1.334 2.925-2.98s-1.31-2.98-2.925-2.98c-1.616 0-2.926 1.334-2.926 2.98s1.31 2.98 2.926 2.98Z"/><path fill="#383838" d="M176.041 285.171h-4.916a4.437 4.437 0 0 0 .409 3.328c.28.5.655.938 1.102 1.289.448.352.959.61 1.505.759.374.099.759.15 1.146.154h.362a2.9 2.9 0 0 0-2.03.894 3.003 3.003 0 0 0-.835 2.086v.246h3.257a.634.634 0 0 0 .418-.188.654.654 0 0 0 .185-.426v-7.528a.654.654 0 0 0-.185-.426.63.63 0 0 0-.418-.188Z" opacity=".1"/><path fill="#383838" d="M175.587 285.632h-4.554a4.43 4.43 0 0 0 .052 1.709c.128.56.365 1.089.696 1.555.332.467.751.861 1.234 1.16.482.3 1.018.498 1.577.584l.694.061h.362a2.916 2.916 0 0 0-2.062.927 2.99 2.99 0 0 0-.613.991 3.027 3.027 0 0 0-.19 1.154c0 .209.031.416.09.615h2.714a.635.635 0 0 0 .604-.615v-7.527a.659.659 0 0 0-.185-.426.626.626 0 0 0-.419-.188Z" opacity=".2"/><path fill="#383838" d="M175.587 285.632h-4.554a4.43 4.43 0 0 0 .052 1.709c.128.56.365 1.089.696 1.555.332.467.751.861 1.234 1.16.482.3 1.018.498 1.577.584l.694.061h.362a2.929 2.929 0 0 0-1.952.824 3.032 3.032 0 0 0-.913 1.941h2.804a.626.626 0 0 0 .419-.188.659.659 0 0 0 .185-.426v-6.606a.659.659 0 0 0-.185-.426.626.626 0 0 0-.419-.188Z" opacity=".2"/><path fill="#383838" d="M175.135 285.632h-4.102a4.43 4.43 0 0 0 .052 1.709c.128.56.365 1.089.696 1.555.332.467.751.861 1.234 1.16.482.3 1.018.498 1.577.584l.694.061h.362a2.929 2.929 0 0 0-1.952.824 3.032 3.032 0 0 0-.913 1.941h2.352a.621.621 0 0 0 .418-.188.649.649 0 0 0 .185-.426v-6.606a.649.649 0 0 0-.185-.426.621.621 0 0 0-.418-.188Z" opacity=".2"/><path fill="#000" d="M169.104 285.632h6.032c.16 0 .313.065.426.18a.62.62 0 0 1 .177.434v6.145a.62.62 0 0 1-.177.434.593.593 0 0 1-.426.18h-6.032a.593.593 0 0 1-.426-.18.62.62 0 0 1-.177-.434v-6.145a.62.62 0 0 1 .177-.434.597.597 0 0 1 .426-.18Z"/><path fill="#383838" d="M171.064 289.227a1.225 1.225 0 0 1-.392-.399 1.164 1.164 0 0 1-.121-.553c.007-.256.091-.503.242-.707.178-.187.394-.334.633-.43a3.76 3.76 0 0 1 2.021.031v.829l-.513-.215a1.917 1.917 0 0 0-.603-.061 1.154 1.154 0 0 0-.634.123.4.4 0 0 0-.241.399.344.344 0 0 0 .091.246l.301.215.513.246h.09c.23.094.452.207.664.338.165.092.301.231.392.399.11.185.162.399.151.614.024.265-.052.528-.211.738-.165.19-.372.337-.604.43a2.873 2.873 0 0 1-.874.123l-.784-.062-.634-.184v-.891c.2.146.425.25.664.307.221.088.457.13.694.123.221.012.441-.041.633-.153a.369.369 0 0 0 .211-.369.397.397 0 0 0-.121-.307l-.331-.246-.634-.277-.603-.338v.031ZM233.322 290.964l5.596 5.596a1.466 1.466 0 0 0 2.074 0l1.853-1.852a1.466 1.466 0 0 0 0-2.074l-5.596-5.596a1.467 1.467 0 0 0-2.075 0l-1.852 1.852a1.466 1.466 0 0 0 0 2.074Z"/><path fill="#383838" d="m246.511 282.982-9.528 9.528a1.468 1.468 0 0 0 0 2.074l2.027 2.026a1.466 1.466 0 0 0 2.074 0l9.528-9.527a1.467 1.467 0 0 0 0-2.075l-2.026-2.026a1.467 1.467 0 0 0-2.075 0ZM308.068 287.18a2.292 2.292 0 1 0 0-4.584 2.292 2.292 0 0 0 0 4.584Z"/><path fill="#383838" d="M307.914 285.383h-2.044a2.292 2.292 0 0 0 2.695 1.673v-1.084a.655.655 0 0 0-.211-.421.66.66 0 0 0-.44-.168Z" opacity=".1"/><use xlink:href="#reuse-0" opacity=".2"/><path fill="#000" d="M313.211 287.304a1.704 1.704 0 1 0 0-3.408 1.704 1.704 0 0 0 0 3.408ZM314.697 287.831h-3.84a.297.297 0 0 0-.129.014.29.29 0 0 0-.111.065.298.298 0 0 0-.075.104.323.323 0 0 0-.026.126v3.965a2.51 2.51 0 0 0 1.951 2.478 2.452 2.452 0 0 0 2.535-1.008c.182-.267.31-.566.376-.882.026-.164.037-.329.031-.495v-3.655a.715.715 0 0 0-.208-.504.715.715 0 0 0-.504-.208Z"/><path fill="#383838" d="M312.003 288.543v4.646a3.935 3.935 0 0 1-7.31 1.982 3.813 3.813 0 0 1-.248-.495 3.094 3.094 0 0 1-.154-.496 3.455 3.455 0 0 1-.124-.991v-4.646a.712.712 0 0 1 .743-.712h6.349a.719.719 0 0 1 .524.197.72.72 0 0 1 .22.515Z"/><use xlink:href="#reuse-0" opacity=".2"/><path fill="#383838" d="M308.565 287.83v6.195a.615.615 0 0 1-.496.619h-3.624a3.051 3.051 0 0 1-.154-.495 3.46 3.46 0 0 1-.124-.991v-4.646a.708.708 0 0 1 .461-.667.696.696 0 0 1 .282-.045h3.655v.03Z" opacity=".1"/><path fill="#383838" d="M308.069 287.831v6.814a.647.647 0 0 1-.65.526h-2.726a3.813 3.813 0 0 1-.248-.495 3.094 3.094 0 0 1-.154-.496 3.455 3.455 0 0 1-.124-.991v-4.646a.712.712 0 0 1 .743-.712h3.159Z" opacity=".2"/><path fill="#383838" d="M308.069 287.831v5.699c0 .085-.017.17-.049.249a.68.68 0 0 1-.141.211.668.668 0 0 1-.211.141.665.665 0 0 1-.249.049h-3.128a3.455 3.455 0 0 1-.124-.991v-4.646a.712.712 0 0 1 .743-.712h3.159Z" opacity=".2"/><path fill="#383838" d="M304.91 287.831a.714.714 0 0 0-.743.712v4.646c-.007.335.035.668.124.991h2.663a.662.662 0 0 0 .46-.19.662.662 0 0 0 .191-.46v-5.699h-2.695Z" opacity=".2"/><path fill="#000" d="M300.419 285.849h6.504a.683.683 0 0 1 .682.65v6.535a.65.65 0 0 1-.682.651h-6.504a.65.65 0 0 1-.65-.651v-6.535a.65.65 0 0 1 .65-.65Z"/><path fill="#383838" d="M305.624 288.295h-1.456v3.934h-.96v-3.934h-1.486v-.96h3.902v.96ZM41.49 340.058h-4.96v-13.231l4.96 4.135v9.096ZM54.722 340.058h4.961v-13.231l-4.961 4.135v9.096Z"/><path fill="#000" d="M54.722 330.962v-5.789a2.564 2.564 0 0 1 2.48-2.481 2.482 2.482 0 0 1 2.481 2.481v1.654l-4.961 4.135Z"/><path fill="#383838" d="m41.49 330.962-4.96-4.135v-1.654a2.564 2.564 0 0 1 2.48-2.481 2.482 2.482 0 0 1 2.48 2.481v5.789ZM54.722 330.962l-6.615 4.961-6.616-4.961v-5.789l6.616 4.962 6.615-4.962v5.789ZM84.914 322.692h3.111v13.748h-4.341v-12.518a1.227 1.227 0 0 1 1.23-1.23Z"/><path fill="#000" d="M101.049 327.034h-4.341v9.406h4.341v-9.406Z"/><path fill="#383838" d="M101.122 327.106h-4.341v-4.341h3.111a1.23 1.23 0 0 1 1.23 1.23v3.111ZM88.025 336.44h-4.341v3.618h4.341v-3.618ZM98.879 338.611l-2.171 1.447v-3.618h4.341l-2.17 2.171ZM96.708 336.44h-8.683v3.618h8.683v-3.618ZM96.708 322.692h-8.683v3.618h8.683v-3.618ZM132.672 322.692l3.02 5.286 3.02-5.286h-6.04ZM139.467 334.773l3.02 5.285 3.02-5.285h-6.04ZM125.121 334.773l3.02 5.285 3.02-5.285h-6.04Z"/><path fill="#383838" d="M125.121 334.773h6.04l4.53-6.795-3.02-5.286-7.55 12.081ZM135.691 327.978l3.776 6.795h6.04l-6.795-12.081"/><path fill="#383838" d="M128.141 340.058h14.345l-3.02-5.285h-8.305l-3.02 5.285Z"/><path fill="#000" d="m173.081 339.257 10.927-8.282a1432.771 1432.771 0 0 0-10.927-8.283v6.101a.192.192 0 0 0 .018.095c.014.028.035.05.06.064l1.721 1.58.496.443-.078.063-2.139 1.928a.22.22 0 0 0-.059.083.257.257 0 0 0-.019.107v6.101Zm-3.651-11.57v6.575l3.625-3.287-3.625-3.288Z"/><path fill="#000" d="M173.081 339.257v-6.101a.242.242 0 0 1 .078-.19l2.138-1.928.079-.063-.496-.443-1.721-1.58a.149.149 0 0 1-.06-.064.182.182 0 0 1-.018-.095v-6.101c3.651 2.74 7.293 5.501 10.927 8.283l-10.927 8.282ZM209.637 322.692h2.204v14.026h-4.007v-12.222a1.802 1.802 0 0 1 1.803-1.804ZM220.524 327.368h-4.675v9.35h4.675v-9.35Z"/><path fill="#000" d="M209.838 322.759v4.676h6.011v-4.676h-6.011Z"/><path fill="#383838" d="M220.524 336.718h-4.675v3.34h4.675v-3.34ZM215.848 336.718h-4.007v3.34h4.007v-3.34ZM207.834 336.718h4.007v3.34h-3.005a1.003 1.003 0 0 1-1.002-1.002v-2.338ZM215.849 322.692l4.675 4.676h-4.675v-4.676Z"/><g clip-path="url(#h)"><path fill="#000" fill-rule="evenodd" d="m244.524 324.065 9.971-2.004-.034 17.994-9.937-2.146v-13.844Zm3.536 9.345c-.754-.919-.964-2.362-.603-3.561.502-1.667 1.775-2.231 2.84-1.845.609.221 1.15.754 1.439 1.57.139.391.213.838.218 1.294.01.818-.262 1.78-.801 2.451-.828 1.03-2.233 1.135-3.091.091h-.002Zm.776-.873c-.371-.573-.472-1.474-.296-2.223.244-1.039.87-1.391 1.391-1.15.3.139.564.471.705.981.067.244.104.522.106.808.005.509-.128 1.111-.393 1.53-.405.644-1.092.708-1.513.057v-.003Zm6.31-6.684h5.788c.323 0 .588.276.588.613v.221l-4.549 3.193c-.06.041-.205.159-.327.239-.178.121-.19.098-.378-.013-.289-.167-.789-.522-1.125-.764v-3.489h.003Zm6.378 2.251v6.443c0 .514-.405.939-.902.939h-5.476v-4.765c.329.226.766.525 1.036.697.217.139.257.203.499.057.111-.067.22-.155.294-.206l4.549-3.162v-.003Z" clip-rule="evenodd"/></g><path fill="#383838" d="m295.859 327.466 5.582 3.349 3.349-1.414a5.329 5.329 0 0 1 2.158-.447h.373a8.372 8.372 0 0 0-15.071-2.53h.074a6.62 6.62 0 0 1 3.535 1.042Z"/><path fill="#000" d="M295.859 327.466a6.622 6.622 0 0 0-3.535-1.005h-.074a6.675 6.675 0 0 0-4.688 2.003 6.669 6.669 0 0 0-1.898 4.732 7.147 7.147 0 0 0 1.19 3.759l4.949-2.084 2.196-.931 4.912-2.046 2.53-1.079-5.582-3.349ZM307.321 328.991h-.372a5.33 5.33 0 0 0-2.159.447l-3.349 1.414.968.558 3.2 1.935 1.377.819 4.726 2.828a5.398 5.398 0 0 0-2.196-7.331 5.144 5.144 0 0 0-2.195-.633v-.037Z"/><path fill="#383838" d="m306.986 334.126-1.377-.818-3.2-1.935-.968-.559-2.53 1.08-4.912 2.046-2.195.93-4.95 2.084a6.74 6.74 0 0 0 5.471 2.866h14.624a5.43 5.43 0 0 0 4.763-2.866l-4.726-2.828Z"/><defs><clipPath id="a"><path fill="#fff" d="M34.357 26.531h79.713v14.79H34.357z"/></clipPath><clipPath id="b"><path fill="#fff" d="M138.451 26.531h64.611v14.79h-64.611z"/></clipPath><clipPath id="c"><path fill="#fff" d="M246.973 108.652h14.016v14.016h-14.016z"/></clipPath><clipPath id="d"><path fill="#fff" d="M101.451 154.478h29.141v8.235h-29.141z"/></clipPath><clipPath id="e"><path fill="#fff" d="M84.98 149.885h13.144v12.828H84.98z"/></clipPath><clipPath id="f"><path fill="#fff" d="M128.342 233.454h22.767v24.08h-22.767z"/></clipPath><clipPath id="g"><path fill="#fff" d="M180.804 232.804h24.729v24.729h-24.729z"/></clipPath><clipPath id="h"><path fill="#fff" d="M244.524 322.058h17v18h-17z"/></clipPath></defs></svg>