<svg xmlns="http://www.w3.org/2000/svg" xmlns:xlink="http://www.w3.org/1999/xlink" viewBox="0 0 1484 198"><defs><path id="h" d="M1154.93 173.27h-2.89a4.72 4.72 0 0 0 4.24 2.7v-1.35c0-.36-.14-.7-.39-.96-.26-.25-.6-.4-.96-.4Z"/></defs><g clip-path="url(#a)"><g opacity=".4"><g clip-path="url(#b)"><path fill="#fff" d="M39.74 16.74h-4.4a.2.2 0 0 0-.2.2v2.13c0 .12.1.2.2.2h1.72v2.65s-.38.13-1.44.13c-1.26 0-3-.45-3-4.26 0-3.82 1.82-4.32 3.53-4.32 1.48 0 2.12.26 2.52.38.13.04.71-2.38.65-2.41-.15-.12-1.16-.69-3.7-.69-2.93 0-5.94 1.24-5.94 7.17s3.44 6.82 6.34 6.82c2.4 0 3.86-1.02 3.86-1.02.06-.03.06-.11.06-.15v-6.63c.01-.1-.08-.2-.2-.2Zm22.63-5.28a.2.2 0 0 0-.2-.2h-2.48a.2.2 0 0 0-.2.2v4.73h-3.86v-4.73a.2.2 0 0 0-.21-.2h-2.47a.2.2 0 0 0-.21.2v12.8c0 .1.1.2.2.2h2.48c.11 0 .2-.1.2-.2v-5.47h3.86v5.47c0 .12.09.2.2.2h2.47c.12 0 .21-.08.21-.2v-12.8h.01Zm-17.96 1.69a1.6 1.6 0 1 0-3.18-.36 1.6 1.6 0 0 0 3.18.36Zm-.18 2.51a.2.2 0 0 0-.2-.2h-2.47c-.11 0-.22.1-.22.22v8.46c0 .25.16.32.37.32h2.22c.24 0 .3-.12.3-.33m27.54-8.66h-2.45a.2.2 0 0 0-.21.21v6.27s-.63.45-1.5.45c-.9 0-1.13-.4-1.13-1.25v-5.47a.2.2 0 0 0-.2-.2h-2.5a.2.2 0 0 0-.21.2v5.88c0 2.54 1.43 3.17 3.4 3.17 1.63 0 2.93-.89 2.93-.89s.06.47.1.53c.02.05.1.11.17.11l1.58-.01c.11 0 .2-.1.2-.2v-8.59a.19.19 0 0 0-.18-.2Zm6.71-.28c-1.4 0-2.34.61-2.34.61v-4.34a.2.2 0 0 0-.21-.2h-2.49a.2.2 0 0 0-.2.2v12.8c0 .1.09.2.2.2h1.72c.07 0 .13-.04.18-.11.04-.08.1-.59.1-.59s1.02.95 2.93.95c2.26 0 3.55-1.14 3.55-5.08 0-3.93-2.05-4.44-3.44-4.44Zm-.98 7.2c-.5 0-1-.14-1.43-.4v-4.06s.58-.35 1.27-.41c.89-.08 1.74.18 1.74 2.27 0 2.2-.39 2.64-1.58 2.6Zm-26.17-6.94h-1.85v-2.42c0-.1-.05-.14-.15-.14H46.8c-.1 0-.15.04-.15.14v2.5l-1.36.33a.2.2 0 0 0-.14.2v1.57c0 .12.1.2.2.2h1.3v3.8c0 2.8 2 3.08 3.34 3.08.62 0 1.35-.2 1.48-.24a.2.2 0 0 0 .11-.18v-1.73a.2.2 0 0 0-.2-.2c-.1 0-.39.03-.67.03-.92 0-1.22-.42-1.22-.95v-3.6h1.84a.2.2 0 0 0 .21-.2v-1.98a.2.2 0 0 0-.2-.2Z"/><clipPath id="b"><path fill="#fff" d="M29.61 10.34h52.4v14.81H29.6Z"/></clipPath></g><g clip-path="url(#c)"><path fill="#fff" d="M11.77 2.1a11.8 11.8 0 0 1 3.72 23.01c-.59.11-.8-.26-.8-.57l.01-3.24c0-1.1-.37-1.82-.8-2.19 2.63-.29 5.37-1.29 5.37-5.82.02-1.17-.4-2.3-1.2-3.17.12-.3.52-1.5-.12-3.12 0 0-.98-.33-3.23 1.19a11.24 11.24 0 0 0-5.9 0c-2.25-1.52-2.8-2.2-3.23-1.21s-.47 2.1-.12 3.13a4.58 4.58 0 0 0-1.21 3.17c0 4.53 2.75 5.53 5.36 5.83-.34.3-.64.82-.74 1.58-.68.3-2.38.82-3.43-.98 0 0-.62-1.13-1.8-1.22 0 0-1.15-.01-.08.72 0 0 .77.36 1.3 1.72 0 0 .69 2.12 3.97 1.4l.01 2.2c0 .31-.21.67-.8.57a11.8 11.8 0 0 1 3.72-23.01v.01ZM4.4 18.9c-.02.07-.11.08-.2.04-.08-.04-.13-.12-.1-.17.03-.06.12-.08.2-.04.09.04.14.12.1.18v-.01Zm.59.53c-.06.05-.17.02-.24-.06-.08-.08-.1-.2-.04-.24.06-.06.17-.03.24.05l.04.25Zm.4.66c-.08.05-.2 0-.27-.1s-.07-.23 0-.28c.07-.06.2-.01.26.1.08.1.08.23 0 .28h.01Zm.66.77c-.06.07-.2.05-.3-.05s-.13-.23-.06-.3c.06-.07.2-.05.3.04.1.1.13.24.06.3v.01Zm.87.26c-.03.09-.16.13-.3.1-.12-.05-.21-.16-.18-.25.02-.1.16-.14.3-.1.12.04.21.15.18.25Zm1 .1c0 .1-.12.18-.26.19-.14 0-.25-.08-.25-.18s.1-.17.25-.18c.14 0 .25.08.25.18l.01-.01Zm.96-.03c.02.1-.08.2-.22.22-.13.02-.26-.04-.28-.13-.02-.1.08-.2.22-.22.14-.03.26.03.28.13Z"/><clipPath id="c"><path fill="#fff" d="M0 2.09h23.63v23.06H0Z"/></clipPath></g><path fill="#fff" d="M215.32 9.28h1.89c1.18 0 2.4.24 2.4 1.6 0 1.19-.75 2.04-2.97 2.04h-2.08l.76-3.64ZM207 22.66h5.48l1.14-5.44h3.73c4.73 0 7.8-3.12 7.8-6.76 0-3.97-2.13-5.81-5.44-5.81h-8.92l-3.79 18Zm24.9-11.82.67 5.39h-3.45l2.79-5.39Zm-11.85 11.82h5.67l1.37-2.56h5.86l.28 2.56h5.44l-2.74-18.01h-5.49l-10.4 18Zm24.34-11.3 4.4-6.71h6.51l-8.79 11.34-1.37 6.67h-5.53l1.37-6.62-3.87-11.4h5.59l1.69 6.72Zm24.15 4.43c-.33 1.84-1.75 7.28-9.27 7.28-5.24 0-7.75-3.4-7.75-8.22 0-5.82 3.64-10.69 9.79-10.69 4.01 0 7.6 1.75 7.7 7.14h-5.25c.05-1.7-.75-2.66-2.45-2.66-3.07 0-4.2 3.55-4.2 6.1 0 1.51.37 3.78 2.92 3.78 1.75 0 2.74-1.18 3.08-2.79l5.43.06Zm3.21-11.14h5.58L276 10.89h5.05l1.32-6.24h5.58l-3.77 18h-5.53l1.47-7.13h-5.06l-1.51 7.14h-5.53l3.73-18.01Zm17.68 0h14.89l-.95 4.63h-9.36l-.47 2.23h8.7l-.89 4.3h-8.7l-.47 2.22h9.55l-.95 4.63h-15.13l3.78-18.01Z"/><path fill="#fff" d="m308.15 13.1-4.16-8.45h6.06l1.75 4.68 3.59-4.68h6.57l-7.52 8.46 4.4 9.54h-6.24l-1.98-5-4.21 5h-6.82l8.56-9.54Zm207.42 8.6a5.23 5.23 0 0 1-1.06-3.47c0-1.5.35-2.68 1.05-3.52a3.52 3.52 0 0 1 2.88-1.27 3.5 3.5 0 0 1 2.87 1.27c.7.84 1.05 2.01 1.05 3.52a5.3 5.3 0 0 1-1.05 3.46c-.7.84-1.77 1.3-2.87 1.25-1.1.05-2.17-.4-2.88-1.25Zm-5.39-12.81h17.06v18.23h-17.06v-4l.52-1.42c.03-.1.04-.19.03-.29l-.55-4.17V8.9Zm1.1 9.33a7.32 7.32 0 0 0 4.39 6.92c.84.35 1.77.52 2.78.52a6.95 6.95 0 0 0 5.01-2.04 7.36 7.36 0 0 0 2.15-5.4c.01-1-.17-2-.54-2.94a7.23 7.23 0 0 0-3.9-3.98 7.1 7.1 0 0 0-2.73-.52 6.8 6.8 0 0 0-5.03 2.07 7 7 0 0 0-1.6 2.42 7.98 7.98 0 0 0-.53 2.95Zm17.2-9.71v17.74l1.48-1.48V6.8l-1.49 1.7ZM512.7 5.79l-1.73 1.88h16.6l1.66-1.9-16.53.02Zm-6.89 1.49 1.05-3-16.6 2.3-.22.73.52 2.03 15.25-2.06Zm1.09.61.83 5.78 1.29 9.06.47-1.3-2-15.24-.6 1.7Zm-17.53 3.95.34.15-6.7 15.08-14.8-6.63 6.7-15.08 14.46 6.48Zm-3.19 3.8a7.5 7.5 0 0 0-1.93-5 6.72 6.72 0 0 0-2.27-1.55 6.85 6.85 0 0 0-2.69-.56h-.04a7.3 7.3 0 0 0-5.15 2.3 8.57 8.57 0 0 0-1.68 2.6 8.6 8.6 0 0 0-.72 3.36c0 .89.16 1.75.46 2.6.63 1.78 2 3.2 3.76 3.88.87.38 1.77.56 2.67.56h.02c.91 0 1.81-.2 2.7-.58a7.7 7.7 0 0 0 2.47-1.71 8.5 8.5 0 0 0 1.7-2.6c.45-1.05.69-2.17.7-3.3Zm20.73.99 1.15 8.1-16.52 2.3-1.74-12.22 1.28-2.88v-.03a.6.6 0 0 0 .03-.37l-.25-1 14.88-2.01 1.17 8.1Zm-1.88 6.76c0-.14-.01-.29-.04-.43l-1.74-11.79c-.04-.46-.24-.9-.57-1.23a1.28 1.28 0 0 0-.88-.32c-.3 0-.6.08-.86.22-.18.1-.33.25-.44.43a1.6 1.6 0 0 0-.24.9c0 .14.01.28.04.43l.64 4.53-5.1.75-.64-4.54a2.01 2.01 0 0 0-.56-1.2 1.25 1.25 0 0 0-.88-.35c-.08 0-.16 0-.25.02-.43.04-.82.27-1.06.62-.17.27-.25.59-.24.91 0 .15 0 .3.03.43l1.75 11.8c.08.54.27.95.58 1.21.25.21.56.32.9.32.1 0 .2 0 .3-.02.41-.04.78-.27.99-.63.15-.27.22-.58.21-.88 0-.15 0-.3-.03-.43l-.71-4.66 5.1-.75.71 4.66c.04.46.25.9.58 1.21.25.22.56.33.9.33l.27-.02c.41-.04.79-.27 1.01-.62.16-.27.24-.58.23-.9ZM489.6 10.6l-.96-3.78L473.9.12l1.19 3.99 14.51 6.5Zm-15.68-6.1-1.1-3.69-5.22 12.3.64 4.22 5.68-12.82Zm6.95 7.12a3.9 3.9 0 0 0-1.51-.33c-.57 0-1.13.15-1.62.43a5.8 5.8 0 0 0-2.4 2.96 6.76 6.76 0 0 0-.6 2.58c0 .4.06.78.16 1.13.3 1.07 1 1.83 2.1 2.3.52.22 1.02.33 1.5.33.57 0 1.13-.15 1.63-.43a5.69 5.69 0 0 0 2.37-2.9 6.8 6.8 0 0 0 .61-2.65c0-.39-.05-.76-.14-1.11a3.38 3.38 0 0 0-2.1-2.3Zm-16.7 1.11 1.8 11.71-16.4 2.55-2.62-15.97 13.53-2.05 3.05-.47.64 4.23Zm-1.73 10.39c0-.1 0-.2-.02-.3a1.16 1.16 0 0 0-.83-.96 2.6 2.6 0 0 0-.85-.12c-.3 0-.67.03-1.07.1l-4.65.79c.05-.36.23-.83.54-1.4.46-.8.98-1.57 1.55-2.3l.91-1.19c.85-1 1.52-2.16 1.97-3.4.28-.97.34-2 .19-3a2.9 2.9 0 0 0-.25-.8c-.08-.2-.22-.37-.4-.49a1.57 1.57 0 0 0-.8-.16c-.3 0-.64.03-1.04.1l-5.37.92a2.8 2.8 0 0 0-1.44.58c-.24.22-.38.53-.37.86 0 .1.01.18.03.27.07.46.31.79.7.96.25.1.53.16.81.15.22 0 .46-.03.72-.07l4.5-.75c.03.36-.01.72-.14 1.05-.13.37-.47.9-1 1.57l-.7.86a21.3 21.3 0 0 0-2.6 3.73 8.04 8.04 0 0 0-.77 2.1c-.13.64-.15 1.3-.06 1.94.05.3.14.6.27.88.1.21.26.39.46.5.17.1.43.14.79.15.45 0 1.06-.07 1.82-.2l4.87-.83a4.03 4.03 0 0 0 1.81-.64c.27-.22.43-.55.42-.9Zm2.3-15.68-.07.38 2.07 13.54.48-2.5-2.05-13.66-.43 2.25Zm-.26-5.14L448 4.93l-.98 4.85 16.5-2.5.96-4.97Zm233.78 8.48h3.52c-.59-3.71-3.83-6.3-8.05-6.3-4.99 0-8.74 3.64-8.74 9.74 0 5.99 3.58 9.7 8.84 9.7 4.73 0 8.1-3.01 8.1-7.9v-2.26h-7.73v2.68h4.4c-.06 2.7-1.88 4.4-4.75 4.4-3.2 0-5.38-2.37-5.38-6.66 0-4.26 2.23-6.62 5.3-6.62 2.3 0 3.88 1.22 4.49 3.22Zm6 12.88h3.38V9.48h-3.38v14.18Zm1.7-16.44c1.08 0 1.95-.81 1.95-1.8 0-1-.87-1.83-1.94-1.83-1.08 0-1.96.82-1.96 1.82 0 1.01.87 1.81 1.95 1.81Zm11.77 2.26h-2.82v-3.4h-3.37v3.4h-2.03v2.58h2.03v7.9c-.02 2.66 1.94 3.98 4.47 3.9a6.9 6.9 0 0 0 1.98-.33l-.57-2.62c-.32.09-.65.13-.98.14-.85 0-1.53-.3-1.53-1.65v-7.34h2.82V9.48Zm2.61 14.18h11.86V20.8h-8.4V4.74h-3.46v18.92Zm18.32.29c2.24 0 3.58-1.05 4.2-2.24h.11v1.95h3.25v-9.5c0-3.75-3.09-4.87-5.82-4.87-3 0-5.31 1.33-6.06 3.91l3.15.45c.33-.97 1.28-1.8 2.94-1.8 1.56 0 2.42.79 2.42 2.18v.06c0 .96-1.01 1-3.54 1.27-2.77.3-5.43 1.12-5.43 4.32 0 2.79 2.05 4.27 4.78 4.27Zm1.1-2.46c-1.4 0-2.4-.63-2.4-1.86 0-1.29 1.12-1.82 2.62-2.03.89-.12 2.66-.35 3.1-.7v1.67c0 1.58-1.28 2.92-3.31 2.92Zm8.94 2.17h3.3v-2.23h.2a4.32 4.32 0 0 0 4.1 2.48c3.37 0 5.9-2.65 5.9-7.33 0-4.73-2.6-7.3-5.91-7.3a4.25 4.25 0 0 0-4.09 2.54h-.14V4.74h-3.37v18.92Zm3.3-7.1c0-2.75 1.2-4.53 3.37-4.53 2.24 0 3.4 1.9 3.4 4.54s-1.17 4.6-3.4 4.6c-2.15 0-3.36-1.85-3.36-4.6Z"/><path fill="#ebebeb" d="m678.64 11.22-.03-.08-3.28-8.48a.87.87 0 0 0-1.64.08l-2.21 6.72h-8.96l-2.21-6.72a.87.87 0 0 0-1.64-.08l-3.27 8.48-.04.08a5.99 5.99 0 0 0 2.02 6.98h.01l.03.03 4.99 3.7 2.47 1.86 1.5 1.12a1 1 0 0 0 1.23 0l1.5-1.12 2.47-1.86 5.02-3.72.02-.02a6.04 6.04 0 0 0 2.02-6.97Z"/><path fill="#fff" d="m678.64 11.22-.03-.08c-1.6.32-3.1 1-4.41 1.96l-7.2 5.4 4.59 3.43 5.02-3.72.01-.02a6.03 6.03 0 0 0 2.02-6.97Z"/><path fill="#ebebeb" d="m662.4 21.93 2.48 1.86 1.5 1.12a1 1 0 0 0 1.23 0l1.5-1.12 2.47-1.86L667 18.5l-4.6 3.43Z"/><path fill="#fff" d="M659.8 13.1c-1.3-.97-2.8-1.64-4.4-1.96l-.04.08a5.99 5.99 0 0 0 2.02 6.98h.01l.03.03 4.99 3.7 4.58-3.43-7.2-5.4Z"/><path fill="#ebebeb" d="M891.77 27.23a4.55 4.55 0 0 0 4.57-4.53v-4.54h-4.57a4.55 4.55 0 0 0-4.56 4.54c0 2.5 2.05 4.53 4.56 4.53Z"/><path fill="#fff" d="M887.2 13.62c0-2.5 2.05-4.54 4.57-4.54h4.56v9.08h-4.56a4.55 4.55 0 0 1-4.56-4.54Z"/><path fill="#ebebeb" d="M887.2 4.54c0-2.5 2.05-4.54 4.57-4.54h4.56v9.08h-4.56a4.55 4.55 0 0 1-4.56-4.54Z"/><path fill="#fff" d="M896.3 0h4.56a4.55 4.55 0 0 1 4.56 4.54c0 2.5-2.04 4.53-4.56 4.53h-4.57V0Z"/><path fill="#ebebeb" d="M905.47 13.62a4.6 4.6 0 0 1-9.17 0 4.56 4.56 0 1 1 9.13 0h.04Z"/><path fill="#fff" d="M910.3 4.54v14.18h1.88v-6.77h4.5v-1.76h-4.5V6.3h5.84V4.54h-7.72Zm11.1 2.88a1.2 1.2 0 0 0 1.23-1.2c0-.65-.56-1.11-1.23-1.11a1.2 1.2 0 0 0-1.22 1.19c0 .32.13.62.37.85.23.24.53.36.87.36l-.02-.09Zm-.94 1.79v9.51h1.8V9.21h-1.86.06Zm8.82-.28c-2.49 0-4.22 2.13-4.22 4.48 0 2.36 1.74 4.47 4.22 4.47a3.8 3.8 0 0 0 2.76-1.13v1.27a2.9 2.9 0 0 1-4.59 2.35l-.94 1.58a4.9 4.9 0 0 0 6.73-1.56 4.6 4.6 0 0 0 .67-2.4V9.2h-1.87v.86a3.7 3.7 0 0 0-2.76-1.12Zm-2.35 4.48a2.4 2.4 0 0 1 1.21-2.34c.83-.5 1.87-.5 2.7 0a2.5 2.5 0 0 1 1.2 2.34c.1.95-.38 1.86-1.2 2.34-.83.5-1.87.5-2.7 0a2.5 2.5 0 0 1-1.2-2.34Zm13.47-2.46c-.53 0-1.02.2-1.39.58-.37.37-.57.88-.58 1.4v6.05h-1.8V9.43h1.8v.8a2.85 2.85 0 0 1 2.33-1.15c1.15-.03 2.23.6 2.8 1.62.7-1 1.7-1.6 2.8-1.62 2.06 0 3.34 1.68 3.34 3.76v6.08h-1.8v-6.06c.1-.76-.24-1.52-.88-1.95a1.94 1.94 0 0 0-2.99 1.95v6.05h-1.73v-6.04a1.97 1.97 0 0 0-1.96-1.99l.05.07Zm18.94-.5a4.35 4.35 0 0 0-3.18-1.36c-2.69 0-4.56 2.3-4.56 4.99 0 2.68 1.9 4.98 4.56 4.98a4.3 4.3 0 0 0 3.18-1.36v1.09h1.8V9.24h-1.8v1.2Zm-5.97 3.7a3.05 3.05 0 0 1 1.42-2.83 2.95 2.95 0 0 1 4.23 1.21c.25.5.36 1.06.32 1.62a3.05 3.05 0 0 1-1.42 2.84 2.95 2.95 0 0 1-4.23-1.22 3.1 3.1 0 0 1-.32-1.62Z"/><g clip-path="url(#d)"><path fill="#fff" d="M1089.17 21.05c-1.1 0-2.1-.58-2.65-1.53a2.9 2.9 0 0 1 .09-3.01l5.45-8.54a3.05 3.05 0 0 1 5.3.14c.51.96.44 2.11-.17 3.01l-5.45 8.54a3.04 3.04 0 0 1-2.57 1.4Zm9.36 0c-1.1 0-2.12-.58-2.65-1.53a2.9 2.9 0 0 1 .09-3l5.44-8.52a3.05 3.05 0 0 1 5.32.12c.5.97.43 2.13-.2 3.03l-5.44 8.51a3.04 3.04 0 0 1-2.56 1.4Zm9.14.07a2.78 2.78 0 0 0 2.81-2.74 2.78 2.78 0 0 0-2.81-2.74 2.78 2.78 0 0 0-2.81 2.74 2.78 2.78 0 0 0 2.81 2.74Zm121.97-5.32c.84 0 1.35.6 1.35 1.59v3.37h1.15v-3.45c0-1.67-.79-2.64-2.28-2.64-.58 0-1.5.15-2.05 1.22a1.9 1.9 0 0 0-1.55-1.16 2.67 2.67 0 0 0-.65-.04c-.47.04-1.31.33-1.63 1v-.9h-1.15v5.97h1.15v-3.22c0-1.25.82-1.74 1.65-1.74.77 0 1.28.6 1.28 1.58v3.38h1.14v-3.22c0-1 .6-1.75 1.59-1.74Zm-11.04 3.96a1.9 1.9 0 0 0 1.4-.57c.37-.38.57-.9.55-1.43a1.9 1.9 0 0 0-1.95-1.96c-1.07 0-1.95.76-1.95 1.96a1.93 1.93 0 0 0 1.94 2h.01Zm0 1.12a3.02 3.02 0 0 1-3.09-3.13 3 3 0 0 1 3.09-3.1 3 3 0 0 1 3.1 3.1c0 1.9-1.43 3.14-3.11 3.14h.01Zm-9.03-3.13h-.01c0-1.88 1.44-3.08 3.14-3.1.86 0 1.69.34 2.28.97l-.87.74a1.98 1.98 0 0 0-1.41-.56c-1.06 0-1.99.75-1.99 1.95 0 .81.49 1.54 1.23 1.86.74.3 1.6.13 2.17-.44l.88.74c-.59.64-1.42.99-2.29.97a3.06 3.06 0 0 1-3.13-3.13Zm-3.69 1.87a.8.8 0 0 1 1.35-.57.8.8 0 0 1 .23.57.8.8 0 0 1-.79.75.8.8 0 0 1-.79-.75Zm3.16-12.42h-4.11l-2.87 7.4-2.86-7.4h-4.11l4.99 11.68-3.1 7.72h4.07l7.99-19.4Zm-24.95 6.5c0 1.87 1.63 3.1 3.24 3.1a3.05 3.05 0 0 0 3.13-3.1c0-1.95-1.55-3.1-3.13-3.1-1.61 0-3.24 1.23-3.24 3.1Zm6.37 6.52v-1.48c-.83 1.26-2.77 1.73-3.77 1.73-3.3 0-6.6-2.59-6.6-6.77s3.3-6.77 6.6-6.77c.83 0 2.77.27 3.77 1.73V7.2h3.82v13.01h-3.82Zm-11.45 0h-3.83V18.6c-.64 1.2-2.19 1.9-3.79 1.9-3.33 0-6.27-2.65-6.27-6.75 0-4.17 2.94-6.82 6.27-6.82 1.6 0 3.16.66 3.79 1.86V.12h3.83v20.1Zm-3.91-6.55c0-1.95-1.41-3.1-2.99-3.1-1.64 0-3 1.23-3 3.1 0 1.93 1.36 3.15 3 3.15 1.6 0 2.99-1.28 2.99-3.15Zm-19.43-.33c0-1.98 1.02-2.65 2.38-2.65 1.3 0 2.24.86 2.24 2.59v6.94h3.86v-7.78c0-3.7-1.83-5.51-4.74-5.51-1.53 0-3.05.86-3.75 2.17V7.2h-3.84v13.02h3.85v-6.88Zm-11.68 7.1a6.56 6.56 0 0 1-6.71-6.77c0-4.1 3.05-6.75 6.71-6.75a6.55 6.55 0 0 1 6.74 6.75c0 4.1-3.08 6.77-6.74 6.77Zm0-3.79a2.87 2.87 0 0 0 2.94-2.98 2.88 2.88 0 0 0-2.94-2.95 2.86 2.86 0 0 0-2.91 2.95 2.86 2.86 0 0 0 2.91 2.98Zm-13.61-5.96c1.13 0 2.13.9 2.13 2.59v6.94h3.83v-7.39c0-3.93-1.92-5.9-4.99-5.9-.91 0-2.63.27-3.88 2.3-.72-1.5-2.11-2.28-4.16-2.28a3.7 3.7 0 0 0-3.38 2.15V7.2h-3.85v13.02h3.85v-6.88c0-1.98 1.08-2.65 2.25-2.65 1.1 0 2.1.86 2.13 2.5v7.03h3.85v-6.88c0-1.9 1-2.65 2.22-2.65Z"/><clipPath id="d"><path fill="#fff" d="M1086.14.12h146v27h-146Z"/></clipPath></g><g clip-path="url(#e)"><path fill="#fff" d="M1374.87.68h3.6V4.5h-3.6V.68Zm63.04 0h3.6V4.5h-3.6V.68Z"/><path fill="#ebebeb" d="M1366.91 5.87a5.48 5.48 0 0 0-4.22 1.74c-.07-.61-.47-1.4-2.03-1.4h-3.39v3.57h1.39c.23 0 .31.07.31.31V26.4h4.04v-6.12l-.01-.46a5.36 5.36 0 0 0 3.72 1.39c3.94 0 6.7-3.15 6.7-7.67 0-4.58-2.62-7.67-6.51-7.67Zm-.82 11.8c-2.18 0-3.17-2.1-3.17-4.04 0-3.07 1.67-4.16 3.22-4.16 1.91 0 3.19 1.66 3.19 4.13 0 2.81-1.63 4.07-3.24 4.07Z"/><path fill="#ebebeb" d="M1378.74 17.02V8.38c0-1.46-.7-2.17-2.13-2.17H1373v3.57h1.39c.24 0 .31.07.31.3v8.63c0 1.48.68 2.17 2.13 2.17h3.61v-3.54h-1.39c-.22 0-.31-.1-.31-.32Z"/><path fill="#ebebeb" d="M1389.29 5.87a5.48 5.48 0 0 0-4.22 1.74c-.07-.61-.47-1.4-2.03-1.4h-3.39v3.57h1.39c.23 0 .31.07.31.3V26.4h4.04v-6.12l-.01-.46a5.36 5.36 0 0 0 3.72 1.39c3.95 0 6.71-3.15 6.71-7.67 0-4.58-2.62-7.67-6.52-7.67m-.82 11.8c-2.17 0-3.16-2.1-3.16-4.04 0-3.07 1.66-4.16 3.21-4.16 1.91 0 3.19 1.66 3.19 4.13 0 2.81-1.63 4.07-3.24 4.07Zm14.78-11.8c-4.35 0-7.39 3.16-7.39 7.67 0 4.44 3.28 7.67 7.81 7.67a8.7 8.7 0 0 0 5.82-2.21l.16-.16-1.76-2.95-.26.25a6.02 6.02 0 0 1-3.72 1.5 3.72 3.72 0 0 1-3.85-3.2h9.57l.02-.26c.01-.04.09-.9.09-1.33 0-4.17-2.61-6.98-6.49-6.98Zm-3.04 5.55a3 3 0 0 1 3.04-2.25c1.22 0 2.15.93 2.32 2.25h-5.36Zm24.22 5.6V2.85c0-1.46-.71-2.17-2.16-2.17h-3.61v3.57h1.39c.23 0 .31.08.31.32v2.56a5.38 5.38 0 0 0-3.76-1.26c-3.92 0-6.66 3.16-6.66 7.67 0 4.59 2.62 7.67 6.52 7.67 1.58.06 3.1-.6 4.14-1.77.08.64.49 1.44 2 1.44h3.5v-3.54h-1.36c-.22 0-.31-.1-.31-.32Zm-7.2.65c-1.92 0-3.17-1.62-3.17-4.13 0-2.43 1.3-4.07 3.22-4.07 2.19 0 3.16 2.03 3.16 4.05 0 3.06-1.66 4.15-3.21 4.15ZM1435.11 6c-1.68 0-3.23.98-4.15 2.54V8.2c0-1.33-.73-2-2.16-2h-3.47v3.57h1.39c.23 0 .31.07.31.3v10.8h4.04V15c0-.77.1-1.51.29-2.2a3.63 3.63 0 0 1 3.53-2.75c.46 0 .8.05.8.05l.34.06V6.1l-.24-.04c-.02 0-.36-.06-.68-.06Zm6.67 11.01V8.38c0-1.46-.7-2.18-2.13-2.18h-3.26v3.58h1.04c.24 0 .31.07.31.3v8.62c0 1.49.68 2.18 2.13 2.18h3.61v-3.54h-1.39c-.22 0-.31-.1-.31-.32Z"/><path fill="#ebebeb" d="M1456.96 9.78V6.2h-2.16c-1.26 0-1.93.44-2.33 1.52l-2.63 7.41c-.1.3-.18.58-.25.88-.08-.3-.17-.6-.27-.88l-2.63-7.4c-.41-1.1-1.06-1.53-2.33-1.53h-2.3v3.58h.6c.31 0 .42.1.49.3l4.08 10.8h4.54l4.07-10.8c.08-.2.18-.3.5-.3h.62Z"/><path fill="#ebebeb" d="M1469.94 14.18c0-.04.08-.9.08-1.33 0-4.17-2.61-6.98-6.49-6.98-4.35 0-7.39 3.16-7.39 7.67 0 4.44 3.28 7.67 7.8 7.67 2.15 0 4.23-.78 5.83-2.21l.16-.16-1.75-2.95-.27.25a6.08 6.08 0 0 1-3.72 1.5 3.74 3.74 0 0 1-3.86-3.2h9.58l.03-.26Zm-9.46-2.76a3.02 3.02 0 0 1 3.05-2.25c1.22 0 2.15.93 2.32 2.25h-5.37Z"/><path fill="#fff" d="M1435.11 6.01c-1.31 0-2.52.6-3.43 1.59l2.32-.02 2.03.01V6.11l-.24-.04c-.01 0-.36-.06-.68-.06Zm17.36 1.71-.17.48c1.57.1 3.11.22 4.66.36V6.2h-2.16c-1.26 0-1.93.44-2.33 1.52Zm-85.56-1.85a5.46 5.46 0 0 0-4.22 1.74c-.07-.61-.47-1.4-2.03-1.4h-3.39v3.57h1.39c.23 0 .31.07.31.3v9.1c1.89-.66 3.78-1.29 5.69-1.88-1.18-.68-1.74-2.22-1.74-3.68 0-3.06 1.67-4.15 3.22-4.15 1.91 0 3.19 1.66 3.19 4.13 0 1.03-.22 1.85-.58 2.48 1.52-.43 3.05-.85 4.59-1.25.05-.41.08-.84.08-1.29 0-4.58-2.62-7.67-6.51-7.67Zm9.7.33H1373v3.58h1.39c.24 0 .31.07.31.3v4.41c1.34-.34 2.69-.66 4.04-.97V8.38c0-1.46-.7-2.18-2.13-2.18Zm-1.74-5.52h3.6V4.5h-3.6V.68Zm14.42 5.2a5.43 5.43 0 0 0-4.21 1.73c-.08-.61-.48-1.4-2.04-1.4h-3.39v3.57h1.39c.24 0 .31.07.31.3v2.86c1.38-.3 2.76-.58 4.14-.85.47-1.89 1.78-2.62 3.04-2.62 1.13 0 2.04.6 2.59 1.6 1.4-.23 2.8-.46 4.21-.67-.92-2.8-3.12-4.53-6.04-4.53Zm13.96 0a7.01 7.01 0 0 0-6.75 4.35c1.71-.25 3.45-.48 5.2-.7.45-.24.97-.36 1.55-.36.23 0 .43.04.63.1 1.59-.18 3.19-.35 4.81-.5a6.13 6.13 0 0 0-5.44-2.9Zm19.02-5.2h-3.61v3.57h1.39c.24 0 .31.08.31.32v2.56a5.38 5.38 0 0 0-3.76-1.26c-2.19 0-4.02 1-5.2 2.66 4.34-.37 8.68-.63 13.03-.78v-4.9c0-1.46-.71-2.17-2.16-2.17Zm6.54 5.52h-3.48v1.52c1.85-.06 3.7-.1 5.56-.12-.2-.92-.9-1.4-2.08-1.4Zm9.1-5.52h3.6V4.5h-3.6V.68Zm1.74 5.52h-3.26v1.4c1.78.01 3.56.04 5.32.1-.2-1-.87-1.5-2.06-1.5Zm4.7 0h-2.29v1.5c1.57.05 3.13.1 4.68.18l-.05-.16c-.41-1.09-1.06-1.52-2.34-1.52Zm19.18-.33a7.14 7.14 0 0 0-5.84 2.75c1.9.17 3.78.36 5.65.56l.85.1c1.8.2 3.58.43 5.34.67a6.1 6.1 0 0 0-6-4.08Z"/><clipPath id="e"><path fill="#fff" d="M1357.14.62h113v26h-113Z"/></clipPath></g><path fill="#fff" d="M21 51.18a8.82 8.82 0 0 1 14.2 1.89c1.4-.63 2.9-.95 4.42-.94a10.9 10.9 0 0 1 7.31 3.51 11.29 11.29 0 0 1 0 15.3 10.94 10.94 0 0 1-7.31 3.51c-.72.01-1.43-.05-2.14-.19A8.06 8.06 0 0 1 32.9 78a7.92 7.92 0 0 1-5.87-.43 9.17 9.17 0 0 1-3.43 4.16 8.95 8.95 0 0 1-10.2-.26 9.19 9.19 0 0 1-3.23-4.33c-2.81.6-5.73-.3-7.73-2.36A8.8 8.8 0 0 1 4.18 61.2a10.23 10.23 0 0 1 2.08-11.02 9.72 9.72 0 0 1 14.73 1Z"/><path d="M7.3 65.94v.03l-.01.02v-.05h.01Zm0 .03q.32-.64.36-.6l.14.1c.41.25.87.38 1.35.38.46 0 .74-.24.74-.57q0-.38-1.06-.66c-.66-.19-1.4-.47-1.4-1.37 0-.85.65-1.42 1.62-1.42q1.15.14 1.59.42c.04 0-.33.72-.33.72a2.7 2.7 0 0 0-1.3-.33c-.42 0-.65.2-.65.52q0 .33 1.02.66c.7.2 1.44.52 1.44 1.32 0 .9-.65 1.46-1.72 1.46a2.75 2.75 0 0 1-1.48-.38q-.32-.18-.32-.25Zm15.55-.6.19.1c.4.25.87.38 1.34.38.42 0 .7-.24.7-.57q0-.38-1.02-.66c-.69-.19-1.39-.47-1.39-1.37 0-.85.65-1.42 1.57-1.42q1.19.14 1.63.42-.29.74-.33.73a2.93 2.93 0 0 0-1.34-.34c-.42 0-.65.2-.65.52s.42.46.93.66q1.48.52 1.48 1.32c0 .9-.6 1.46-1.66 1.46a2.82 2.82 0 0 1-1.5-.38l-.32-.18m10.36-1.9v.01Zm0 0a2.2 2.2 0 0 0-.28-1.17 1 1 0 0 0-.84-.44c-.33 0-.64.17-.83.44-.2.36-.3.77-.28 1.18-.02.42.08.85.28 1.22a1 1 0 0 0 1.67 0c.2-.37.3-.8.28-1.22Zm.88.95c-.08.3-.22.57-.42.8-.4.44-.98.68-1.58.66a2 2 0 0 1-.93-.18 1.52 1.52 0 0 1-.65-.47 2.46 2.46 0 0 1-.42-.8 3.26 3.26 0 0 1 0-1.9c.1-.27.24-.53.42-.75s.4-.4.65-.52c.3-.12.61-.19.93-.19.32.01.63.08.93.2a2.13 2.13 0 0 1 1.07 1.26 5 5 0 0 1 0 1.9Zm7.24 1.23c-.38.16-.79.23-1.2.23a2.14 2.14 0 0 1-1.72-.66 2.5 2.5 0 0 1-.56-1.74 2.6 2.6 0 0 1 .55-1.7c.2-.22.44-.4.7-.52.32-.12.65-.19.98-.19h.65l.56.14c.04 0-.23.76-.23.76l-.93-.1a1.2 1.2 0 0 0-.98.43c-.22.33-.32.73-.32 1.13-.03.44.1.88.37 1.23.26.26.62.4.98.38h.5l.38-.1m1.63-1.94h2.08c.02-.25-.05-.5-.18-.7a.87.87 0 0 0-.84-.43.93.93 0 0 0-.84.43c-.1.22-.19.46-.22.7Zm2.91-.6v.04c.11.42.06 1.36.01 1.36h-2.93c0 .36.1.72.33 1 .29.23.65.34 1.02.33.41.02.83-.06 1.2-.24l.28.71c-.46.21-.98.31-1.48.28a3.5 3.5 0 0 1-1.07-.14 2 2 0 0 1-1.16-1.27 3.26 3.26 0 0 1 0-1.89c.09-.29.23-.56.42-.8.17-.22.39-.4.65-.52a2.2 2.2 0 0 1 1.81 0c.2.11.4.26.56.43.15.21.27.45.37.7h-.01Zm-24.28.65c.01-.25-.05-.5-.19-.7a.87.87 0 0 0-.84-.43.93.93 0 0 0-.83.43 2.5 2.5 0 0 0-.23.7h2.09Zm.83-.56a4.2 4.2 0 0 1 0 1.36h-2.92c-.01.36.1.72.32 1 .29.23.66.34 1.03.33.4.01.82-.07 1.2-.24l.28.57c.05.1-.98.45-1.49.42-.36.01-.72-.04-1.06-.14a2 2 0 0 1-1.16-1.27c-.27-.9-.14-1.89.37-2.69a2.2 2.2 0 0 1 2.5-.52c.2.11.4.26.56.43.15.21.27.45.37.7v.05Zm-8.41 2.7.8-.1v-1.38h-.79c-.44-.04-.6.01-.84.2a.67.67 0 0 0-.28.56c0 .15.03.3.09.42l.19.15m1.63-2.13v-.1c0-.42-.05-.6-.23-.7-.2-.16-.45-.24-.7-.24-.46.01-.9.13-1.3.33q-.1.05-.14-.04-.24-.63-.22-.65c.3-.18.62-.3.96-.34l.74-.1c.49-.04.97.1 1.35.42.35.35.52.84.46 1.33q.06 2.82-.04 2.82l-.19.1-.74.14q-1.55.26-2.28-.28a1.14 1.14 0 0 1-.37-.47 1.67 1.67 0 0 1-.14-.67c-.01-.24.04-.48.14-.7.12-.17.26-.34.42-.47.19-.14.42-.24.65-.28.22-.09.46-.12.7-.1h.93Zm22.85-.84h-.75l-.37.2c-.25.35-.36.79-.32 1.22v2.26c0 .03-.98.03-.98 0v-4.5a9 9 0 0 1 .9 0q.02.02.03.44l.51-.37c.23-.11.48-.16.74-.15l.52.1m-7.16-1.95q-.22.71-.32.66h-.65q-.54-.01-.54.46c-.11.72-.07.68-.11.68q1.07.05 1.07.1-.15.66-.17.67-.02.02-1.04.03l-.65 3.82a6.9 6.9 0 0 1-.23 1c-.09.23-.22.45-.38.65-.33.36-1.3.48-1.3.48h-.41l-.35-.08c-.03-.04.2-.52.25-.72q.05-.1.28 0h.56l.28-.19c.08-.13.15-.28.18-.43.09-.25.16-.5.19-.75l.65-3.73h-.65c-.03 0 .1-.8.14-.8h.65v-.19c.04-.52.26-1 .61-1.37.32-.3.76-.45 1.2-.43h.42M17 66.37c0 .04 0 .1-.05.1h-.79a.1.1 0 0 1-.06-.04.1.1 0 0 1-.03-.06v-6.34a.1.1 0 0 1 .06-.09.1.1 0 0 1 .03 0h.8c.04 0 .04.04.04.1v6.33Z"/><path fill="#fff" fill-rule="evenodd" d="m164.06 71.03.96-2.23a6.55 6.55 0 0 0 3.82 1.18c1.05 0 1.68-.4 1.68-1-.04-1.63-6.1-.36-6.14-4.5 0-2.1 1.87-3.73 4.5-3.73 1.6 0 3.19.36 4.28 1.27l-.86 2.32a6.69 6.69 0 0 0-3.55-1.14c-.82 0-1.37.37-1.37.87 0 1.64 6.1.77 6.2 4.73 0 2.14-1.83 3.69-4.47 3.69a8.46 8.46 0 0 1-5.05-1.46Zm39.86-1.55a5.87 5.87 0 1 1 0-5.73l-2.64 1.46a2.93 2.93 0 0 0-1.04-1.03 2.77 2.77 0 0 0-4.19 2.44 2.78 2.78 0 0 0 2.77 2.77c1-.01 1.94-.55 2.46-1.41l2.64 1.5Zm-29.03-13.6h3.37v16.38h-3.37V55.88Zm33.72 0v9.6l3.77-4.5h4.1l-4.69 5.46 5.05 5.81h-4.28l-3.95-4.9v4.91h-3.37V55.88h3.37Zm-20.43 9.37a3 3 0 0 0-2.6-1.45 2.77 2.77 0 0 0-2.77 2.82 2.78 2.78 0 0 0 2.77 2.77c1.04.02 2.02-.5 2.6-1.36v-2.78Zm3.36-4.27v11.23h-3.36v-1.32c-.55.96-1.92 1.6-3.32 1.6-2.92 0-5.24-2.69-5.24-5.92 0-3.22 2.32-5.82 5.24-5.82 1.41 0 2.77.64 3.32 1.54v-1.31h3.36Zm-48.14 7a2.14 2.14 0 0 1-2.09 2.1 2.09 2.09 0 0 1-1.45-3.55c.39-.38.9-.6 1.45-.6h2.1v2.05h-.01Zm1 0a2.1 2.1 0 0 1 4.15 0v5.19a2.1 2.1 0 0 1-4.15 0v-5.19Zm2.1-8.28a2.05 2.05 0 0 1-2.1-2.05 2.1 2.1 0 1 1 4.15 0v2.05h-2.05Zm0 1.05a2.1 2.1 0 0 1 0 4.14h-5.19a2.1 2.1 0 1 1 0-4.14h5.19Zm8.23 2.09c0-1.16.94-2.1 2.1-2.1a2.1 2.1 0 0 1 0 4.15h-2.1v-2.05Zm-1 0a2.09 2.09 0 0 1-3.54 1.45c-.38-.39-.6-.9-.6-1.45v-5.19a2.1 2.1 0 0 1 2.05-2.09c1.15.02 2.08.95 2.1 2.1v5.18h-.01Zm-2.09 8.24c1.15.02 2.07.94 2.1 2.09a2.09 2.09 0 0 1-3.55 1.45c-.38-.39-.6-.9-.6-1.45v-2.1h2.05v.01Zm0-1a2.09 2.09 0 0 1-1.45-3.55c.38-.38.9-.6 1.45-.6h5.19c1.13 0 2.04.92 2.04 2.05a2.1 2.1 0 0 1-2.04 2.1h-5.19Z" clip-rule="evenodd"/><path fill="#fff" d="M325.3 61.16a7 7 0 0 0-6.2 3.71 7.08 7.08 0 0 0-10.46-2.31v-5.9a1.4 1.4 0 1 0-2.8 0v11.62a7.04 7.04 0 0 0 13.25 3.18 7.01 7.01 0 1 0 6.21-10.3Zm-12.42 11.25a4.25 4.25 0 1 1-.07-8.5 4.25 4.25 0 0 1 .07 8.5Zm12.42 0a4.24 4.24 0 1 1-.07-8.48 4.24 4.24 0 0 1 .07 8.48Z"/><path fill="#fff" d="m341.77 73.01-3.6-4.8 3.6-4.85a1.4 1.4 0 0 0-.3-1.94 1.44 1.44 0 0 0-1.97.27l-3.1 4.16-3.1-4.16a1.4 1.4 0 0 0-2.24 1.67l3.6 4.84-3.6 4.81a1.4 1.4 0 0 0 2.23 1.67l3.1-4.13 3.11 4.13c.48.6 1.35.71 1.97.26.6-.46.74-1.31.3-1.93ZM442.89 77c-6.55 0-11.85-5.2-11.85-11.62s5.3-11.62 11.85-11.62c6.56 0 11.86 5.2 11.86 11.62S449.44 77 442.9 77h-.01Zm-4.16-13.64c.06-.07.1-.15.1-.24s-.04-.18-.11-.24a.37.37 0 0 0-.5-.02l-2.02 1.98-2.03-1.98a.37.37 0 0 0-.52 0 .35.35 0 0 0-.1.26c0 .1.04.18.1.25l2.03 1.98-2.02 1.98a.35.35 0 0 0-.12.25c0 .05 0 .1.03.14.04.1.1.16.2.2.14.06.3.03.4-.08l2.02-1.99 2.02 1.98a.37.37 0 0 0 .57-.04.35.35 0 0 0-.05-.45l-2.01-2 2.01-1.98Zm10.01 2a.66.66 0 0 0 1.13.44.64.64 0 0 0 0-.9.67.67 0 0 0-.47-.2.65.65 0 0 0-.47.19l-.19.46Zm-1.25 0a1.9 1.9 0 0 1 1.9-1.88 1.9 1.9 0 0 1 1.92 1.87 1.9 1.9 0 0 1-1.91 1.87c-.5 0-1-.2-1.35-.55a1.85 1.85 0 0 1-.56-1.32Zm-.75 0c0 1.43 1.2 2.6 2.66 2.6a2.64 2.64 0 0 0 2.66-2.6c0-1.45-1.2-2.6-2.66-2.6-.7 0-1.38.26-1.88.75s-.78 1.15-.78 1.84Zm-.19-2.57h-.11c-.33 0-.66.1-.93.3a.37.37 0 0 0-.5-.25.36.36 0 0 0-.22.33v4.4a.37.37 0 0 0 .61.23.31.31 0 0 0 .12-.24v-2.7c0-.9.09-1.26.87-1.36h.16c.21 0 .36-.16.36-.35a.4.4 0 0 0-.1-.26l-.26-.1Zm-6.96 2.13v-.03c.1-.4.35-.77.69-1.02a1.95 1.95 0 0 1 3.04 1.05h-3.73Zm4.47-.07a2.6 2.6 0 0 0-2.67-2.1 2.64 2.64 0 0 0-2.51 3.24c.14.51.42.97.82 1.32.9.77 2.19.87 3.19.24.26-.16.47-.38.68-.63l.01-.02a.37.37 0 0 0-.32-.62.4.4 0 0 0-.25.16l-.13.16a1.95 1.95 0 0 1-3.24-.6l-.08-.3v-.07h3.78c.52 0 .8-.37.72-.78Z"/><path fill="#fff" fill-rule="evenodd" d="M565.65 77.94V64.48h5.22v13.46h-5.22Zm.25-14.6 8.88-10.93h5.39l-8.9 10.93h-5.37Zm11.58 1.14v2.33c0-.9 2.03-2.74 3.83-2.32v3.33a6.8 6.8 0 1 1-.6 1.34c-2.01-.32-3.23.74-3.23 2.01v6.77h-5.22V64.48h5.22Zm7.63 6.77a2.07 2.07 0 1 0 4.14 0 2.07 2.07 0 0 0-4.14 0ZM549 64.48v1.39a4.3 4.3 0 0 1 3.35-1.63c1.32-.08 3.67.32 4.08 2.2.48-1.55 2.28-2.12 3.5-2.2 1.23-.09 4.24.65 4.24 3.91v9.79h-5.22v-8.08c0-2.2-2.36-1.88-2.36-.08v8.16h-5.22v-7.99c0-2.04-2.37-1.63-2.37-.09v8.08h-5.2V64.48h5.2Z" clip-rule="evenodd"/><path fill="#fff" d="M736.39 56.85h-3.7v3.66h3.7c.87 0 1.57.71 1.58 1.58a1.57 1.57 0 0 1-1.58 1.57h-3.7v3.67h3.7a5.23 5.23 0 1 0 0-10.48Zm-21.02 19.4c4.41 0 8.22-2.58 10-6.3h4.7v6.3h2.63v-6.3h3.69c4.36 0 7.9-3.52 7.9-7.86a7.89 7.89 0 0 0-7.9-7.86h-6.32v9.43h-3.76a11.04 11.04 0 0 0-10.94-9.43H702.4l-12.92 22.02h3.08l3.69-6.3h13.26v6.3h5.86Zm32.6-14.15c0 6.37-5.18 11.52-11.58 11.52v6.29h-10.01V75a14.76 14.76 0 0 1-11.01 4.9h-9.55v-6.29h-7.45l-3.69 6.29h-11.7l17.21-29.35h15.18c4.37 0 8.3 1.9 11 4.9v-4.9h10.02c3.07 0 6.02 1.21 8.2 3.38a11.5 11.5 0 0 1 3.39 8.15v.01Zm-42.14-5.24v6.81h-5.88l-2.15 3.67h11.72v-10.5l-3.69.02Zm17.98 8.37a8.41 8.41 0 0 1-8.43 8.39h-3.22v-3.67h3.22a4.72 4.72 0 1 0-.01-9.44h-3.22v-3.66h3.22a8.4 8.4 0 0 1 8.43 8.38"/><path fill="#fff" fill-rule="evenodd" d="M908.4 61.4c.33.6.51 1.26.52 1.94v8.9a3.04 3.04 0 0 0 2.9 2.9h.96v-11.8a3.93 3.93 0 0 1 5.86-3.42c.6.38 1.1.89 1.49 1.49.27.6.42 1.26.44 1.93v8.9a3.04 3.04 0 0 0 2.9 2.9h1.04v-11.8a7.94 7.94 0 0 0-11.13-7.18 7.8 7.8 0 0 0-2.68 1.98 7.8 7.8 0 0 0-5.94-2.67 8.02 8.02 0 0 0-4.38 1.34 5.87 5.87 0 0 0-3.49-1.34v19.67h.97c1.6 0 2.9-1.3 2.9-2.9v-8.9a3.79 3.79 0 0 1 3.85-3.94 3.86 3.86 0 0 1 3.42 2h.37Zm-67.41 13.74h15.74v-.96a2.97 2.97 0 0 0-2.9-2.9h-9.95l11.88-11.8v-.97a2.97 2.97 0 0 0-2.9-2.9h-15.88v.97a3.05 3.05 0 0 0 2.9 2.9h9.87l-11.8 11.8v1.04a3.12 3.12 0 0 0 2.96 2.9l.08-.08Zm52.26-16.78a9.88 9.88 0 0 1 0 13.96 10.02 10.02 0 0 1-13.95 0 9.87 9.87 0 1 1 13.95-13.96Zm-2.82 2.75a5.94 5.94 0 0 1-4.16 10.12 5.87 5.87 0 0 1-5.89-5.92c0-3.26 2.64-5.9 5.9-5.93 1.56 0 3.05.62 4.15 1.73Zm-24.87-5.64a9.88 9.88 0 0 1 6.98 16.85 9.87 9.87 0 0 1-13.88-13.96 9.59 9.59 0 0 1 6.9-2.9Zm4.23 5.64a5.95 5.95 0 1 1-8.12 8.7 5.95 5.95 0 0 1 8.12-8.7Z" clip-rule="evenodd"/><path fill="#fff" d="M1058.33 75.34c-1.21.89-3.12 1.23-5.09 1.23-6.36 0-9.93-4.05-9.93-10.66 0-6.6 3.57-10.73 9.87-10.73 1.84 0 3.75.34 5.09 1.44v2.76a8.17 8.17 0 0 0-5.09-1.45c-4.52 0-7.26 3.23-7.26 7.98s2.8 7.98 7.38 7.98a9.84 9.84 0 0 0 4.97-1.3l.06 2.75Zm1.85-7.02c0-4.75 2.54-8.19 6.93-8.19s6.94 3.44 6.94 8.19-2.55 8.32-6.94 8.32-6.93-3.57-6.93-8.32Zm2.41 0c0 3.03 1.4 5.78 4.52 5.78s4.46-2.75 4.46-5.78-1.34-5.64-4.46-5.64-4.52 2.68-4.52 5.64Zm26.86 7.98h-2.55v-9.56c0-2.9-1.01-4.13-3.43-4.13s-3.95 1.65-3.95 4.88v8.8h-2.54v-15.8h2.54v2.54a5.34 5.34 0 0 1 1.94-2.16c.81-.5 1.75-.76 2.71-.73 3.37 0 5.28 2.55 5.28 6.88v9.29Zm7-15.82h3.82v2.47h-3.82V76.3h-2.42V62.95h-2.42v-2.47h2.42v-1.8c0-2.95 1.53-4.95 4.65-4.95.58.03 1.15.12 1.72.28v2.55l-1.6-.21c-1.59 0-2.35 1.03-2.35 2.4v1.73Zm10.44 15.89c-2.42 0-3.95-1.24-3.95-4.13V53.8h2.55v18.1c0 1.44.89 1.92 1.97 1.92h.7v2.41c-.41.15-.85.2-1.27.14Zm3.43-15.9h2.55v9.57c0 2.82 1.02 4.13 3.43 4.13 2.42 0 3.95-1.72 3.95-4.89v-8.8h2.55V76.3h-2.55v-2.62c-.43.9-1.1 1.66-1.94 2.2-.82.51-1.75.78-2.71.76-3.37 0-5.28-2.54-5.28-6.88v-9.28Zm23.29 16.17c-5.53 0-7.89-3.44-7.89-8.32 0-4.89 2.42-8.19 6.88-8.19 4.45 0 6.36 3.37 6.36 8.19v1.24h-10.69c.32 2.68 1.97 4.47 5.41 4.47 1.52-.02 3.03-.32 4.45-.9v2.55c-1.42.67-2.96 1-4.52.96Zm-5.4-9.42h8.2c-.12-2.9-1.4-4.61-3.88-4.61s-4.07 1.86-4.32 4.6Zm26.21 9.08h-2.54v-9.56c0-2.9-1.08-4.13-3.44-4.13-2.35 0-3.94 1.65-3.94 4.88v8.8h-2.55v-15.8h2.55v2.54a5.28 5.28 0 0 1 1.91-2.14 4.8 4.8 0 0 1 2.67-.75c3.37 0 5.34 2.55 5.34 6.88v9.29Zm13.88-.41c-1.14.5-2.38.74-3.63.68-5.22 0-7.64-3.37-7.64-8.25 0-4.89 2.42-8.19 7.64-8.19a6.9 6.9 0 0 1 3.5.76v2.48a7.8 7.8 0 0 0-3.31-.76c-3.82 0-5.34 2.61-5.34 5.7 0 3.1 1.59 5.72 5.4 5.72a8.9 8.9 0 0 0 3.31-.62l.07 2.48Zm9.86.75c-5.47 0-7.89-3.44-7.89-8.32 0-4.89 2.48-8.19 6.94-8.19 4.45 0 6.3 3.37 6.3 8.19v1.24h-10.69c.38 2.68 1.97 4.47 5.41 4.47a12.3 12.3 0 0 0 4.45-.9v2.55a10 10 0 0 1-4.52.96Zm-5.34-9.42h8.14c-.13-2.9-1.4-4.61-3.88-4.61s-4.01 1.86-4.26 4.6Zm-158.59 4.4-.64 1.17a.84.84 0 0 0-.07.52.8.8 0 0 0 .26.44l4.39 2.9a.67.67 0 0 0 .89-.21l.64-1.1c1.72-3.1 3.44-2.69 6.56-1.1l4.32 2.2a.6.6 0 0 0 .48 0 .63.63 0 0 0 .35-.35h.06l2.04-5.09a.71.71 0 0 0-.32-.9l-4.33-2.26c-5.85-3.03-10.81-2.82-14.63 3.85v-.07Z"/><path fill="#fff" d="m1033.7 60.13.64-1.17c.08-.16.1-.34.07-.52a.81.81 0 0 0-.26-.44l-4.39-2.89a.66.66 0 0 0-.24-.1.58.58 0 0 0-.48.1.76.76 0 0 0-.18.2l-.7 1.18c-1.65 3.1-3.43 2.68-6.49 1.1l-4.32-2.2a.66.66 0 0 0-.51-.02.7.7 0 0 0-.38.36l-2.04 5.09a.59.59 0 0 0-.07.26c-.02.18.04.37.17.5.06.06.14.1.22.13l4.32 2.27c5.86 3.03 10.82 2.83 14.64-3.85Zm255.96 5.7h-8.58v1.65h2.05c.81 0 1.58.32 2.15.88a2.98 2.98 0 0 1 0 4.25c-.57.56-1.34.87-2.15.87h-3.79l-6.83 6.75h7.13c2.43-.07 13.36-1.12 13.36-8.25a7.04 7.04 0 0 0-3.34-6.15Z"/><path fill="#ebebeb" d="M1295.28 71.46c0-3.75-3.72-5.85-4.63-6.23l-.99.6a7.15 7.15 0 0 1 3.34 6.15c0 7.13-10.93 8.18-13.36 8.25 14.88-.15 15.64-6.45 15.64-8.77Z"/><path fill="#fff" d="M1280.86 50.23h-8.35v30l6.83-6.75v-6h1.52s5.01.3 8.8-1.65l.46-.22.53-.38a6.71 6.71 0 0 0 2.65-3.3c.33-.86.48-1.77.46-2.7 0-9-8.2-9-12.9-9Zm3.03 12.75h-3.03c-.41 0-.79-.15-1.08-.43a1.5 1.5 0 0 1-.44-1.07v-3a1.5 1.5 0 0 1 1.52-1.5h3.03c.81 0 1.58.32 2.15.88a2.98 2.98 0 0 1 0 4.25c-.57.56-1.34.87-2.15.87Z"/><path fill="#ebebeb" d="M1285.94 57.73c.62.58.98 1.4.99 2.25a3 3 0 0 1-3.04 3h-3.03c-.41 0-.79-.15-1.08-.43a1.5 1.5 0 0 1-.44-1.07v-3s0-3.6 1.82-5.47a7.54 7.54 0 0 0-4.71 3.82c-3.18 5.63-3.94 23.4-3.94 23.4l6.83-5.17v-7.58h1.52c6.07 0 11.38-3 11.38-7.8v-.37c-.02 0-.04 0-.05-.02-.02-.02-.02-.04-.02-.06-1.9-1.12-5.62-1.42-6.23-1.5Z"/><path fill="#ebebeb" d="M1284.27 52.56c-1.05 0-2.1.15-3.11.45-1.82 1.87-1.82 5.47-1.82 5.47a1.5 1.5 0 0 1 1.52-1.5h3.03a3.3 3.3 0 0 1 2.05.75c.61.08 4.33.38 6.23 1.5 0 .02 0 .04.02.06l.05.02c-.23-3.75-3.72-6.75-7.97-6.75Zm-1.14 20.92h-3.79v1.5h3.03c2.51 0 3.8-2.02 3.8-4.5a3 3 0 0 1-3.04 3Z"/><path d="M29.18 115.71a7.04 7.04 0 0 0-9.95 0l-.17.13-.98-.08a5.9 5.9 0 0 0-4.23 1.79 5.97 5.97 0 0 0 4.23 10.2h6.27a7.04 7.04 0 0 0 4.83-12.04Zm-11.06 10.76a4.78 4.78 0 0 1-3.33-8.07 4.87 4.87 0 0 1 3.33-1.36h.68l.73.17c.45.13.87.35 1.24.64.19.12.36.26.5.43l2.06 2.04c.25.26.25.68 0 .94a.55.55 0 0 1-.43.17.64.64 0 0 1-.47-.17l-2.05-2.04c-.45-.4-1-.66-1.58-.77h-.68a3.38 3.38 0 0 0 .09 6.75h.6l.55.5c.27.3.59.57.94.77h-2.18Zm10.16-1.7c-.6.59-1.3 1.04-2.1 1.32l-.72.21c-.37.1-.76.16-1.15.17h-.13a5.68 5.68 0 0 1-3.63-1.32l-3.12-3.08a.68.68 0 0 1 0-.93.54.54 0 0 1 .43-.17c.09-.01.17 0 .26.03a.6.6 0 0 1 .21.14l2.65 2.69c.27.23.55.45.85.64a4.3 4.3 0 0 0 4.06.25c.52-.22 1-.54 1.4-.94a4.48 4.48 0 0 0 0-6.27 4.44 4.44 0 0 0-5.64-.51 3.89 3.89 0 0 0-1.18-.73 5.77 5.77 0 1 1 7.81 8.5Z"/><path fill="#fff" d="m1312.74 59.83 4.02 12.15h-1.52l-1.14-3.52h-4.93l-1.14 3.52h-1.44l4.02-12.15h2.13Zm-3.19 7.43h4.17l-1.29-4.13-.76-2.32h-.07c-.23.75-.46 1.42-.69 2.32l-1.36 4.13Zm16.24.67v-8.1h1.37v7.95c0 2.93-1.67 4.43-4.48 4.43s-4.25-1.58-4.25-4.2v-8.18h1.37v7.95c0 2.18 1.21 3.15 3.03 3.15s2.96-.82 2.96-3Zm6.45-6.82h-3.26v-1.28h7.97v1.28h-3.26v10.87h-1.45V61.11Zm10.17 11.1c-2.96 0-4.78-1.73-4.78-6.23s1.9-6.3 4.86-6.3 4.78 1.73 4.78 6.15c0 4.43-1.97 6.38-4.86 6.38Zm.08-1.28c2.05 0 3.34-1.2 3.34-4.95s-1.37-5.1-3.42-5.1c-2.04 0-3.33 1.2-3.33 4.95s1.36 5.1 3.41 5.1Zm7.44-11.1h3.26c3.72 0 5.39 1.88 5.39 6 0 4.13-1.59 6.15-5.39 6.15h-3.26V59.83Zm1.44 10.95h1.82c2.66 0 3.95-1.35 3.95-4.8s-1.44-4.87-4.1-4.87h-1.67v9.67Zm9.95 1.2V59.83h6.52v1.28h-5.16v4.12h4.56v1.2h-4.56v4.35h5.39v1.2h-6.75Zm14.65-3.08c0-2.77-5.85-2.17-5.85-6 0-1.8 1.59-3.22 3.8-3.22a5.18 5.18 0 0 1 3.18.98l-.83 1.12a3.52 3.52 0 0 0-2.43-.82c-1.44 0-2.28.75-2.28 1.87 0 2.85 5.85 2.25 5.85 6 0 1.8-1.44 3.38-4.1 3.38a5.96 5.96 0 0 1-3.87-1.28l.83-1.12a5 5 0 0 0 3.19 1.12c1.67 0 2.51-.9 2.51-2.02Zm5.38 3.08h-1.44V59.83h1.44v12.15Zm4.79-12.15h1.67l-4.41 6.08 4.79 6.07h-1.83l-4.55-6 4.33-6.15Zm8.65 5.33a3.16 3.16 0 0 1-2.58 1.05 3.4 3.4 0 0 1-2.58-1.05 3.54 3.54 0 0 1-1.06-2.55c-.03-.96.36-1.9 1.06-2.55a3.4 3.4 0 0 1 2.58-1.13 3.82 3.82 0 0 1 3.72 3.68c0 .48-.1.96-.29 1.4-.2.44-.49.83-.85 1.15Zm-4.78-4.8c-.61.59-.94 1.4-.91 2.25a2.9 2.9 0 0 0 .91 2.18c.55.64 1.36 1 2.2.97.87.02 1.7-.34 2.28-.98a3 3 0 0 0 .68-1 3.17 3.17 0 0 0-1.73-4.1c-.4-.15-.81-.23-1.23-.22a3.1 3.1 0 0 0-2.2.9Zm2.12.22 1.14.15c.19.08.36.22.46.4a1 1 0 0 1 .15.58.91.91 0 0 1-.09.46.88.88 0 0 1-.29.36l-.61.15c.28.07.52.23.68.45a.8.8 0 0 1 .23.6v.6c0 .08 0 .15.08.15h-.68v-.45c0-.17-.02-.34-.08-.5a1.17 1.17 0 0 0-.3-.4l-.84-.15h-.53v1.58h-.68v-3.98h1.36Zm.76.6-.83-.15h-.61v1.5h.61l.68-.15a.6.6 0 0 0 .33-.22c.09-.1.13-.24.13-.38a.68.68 0 0 0-.06-.34.62.62 0 0 0-.25-.26Zm19.58-.37c.4.58.61 1.25.61 1.95.03.65-.19 1.3-.61 1.8-.26.33-.6.58-.98.75.61.17 1.13.58 1.44 1.12.38.53.56 1.16.53 1.8-.01.71-.19 1.4-.53 2.03l-.91.97c-.43.31-.92.52-1.44.6-.6.14-1.2.19-1.82.15h-5.7V59.53h6.15c1.23-.1 2.43.37 3.26 1.28Zm-6.9.9v2.7h3.11c.47.03.95-.08 1.37-.3.3-.15.45-.53.45-1.05.04-.5-.23-.98-.68-1.2l-1.44-.15h-2.81Zm0 4.8v3.3h3.11c.44.04.87-.01 1.29-.15.56-.32.89-.94.83-1.58a1.34 1.34 0 0 0-.83-1.35c-.4-.17-.85-.25-1.29-.22h-3.11Zm12.6 5.47h-2.66V59.53h2.66v12.45Zm10.85-12.45h3.8v12.45h-2.43V61.56l-2.43 10.42h-2.58l-2.35-10.42v10.42h-2.43V59.53h3.79l2.35 9.83 2.28-9.83Zm12.68 8.7c-.02.42.06.83.23 1.2.29.6.92.96 1.59.9.47.02.93-.14 1.29-.45.35-.4.53-.9.53-1.42.02-.34-.06-.68-.24-.97a1.7 1.7 0 0 0-.74-.68 5.41 5.41 0 0 0-1.83-.23v-1.72a4.1 4.1 0 0 0 1.67-.23c.57-.22.92-.81.84-1.42 0-.42-.16-.83-.46-1.13a1.4 1.4 0 0 0-1.14-.45c-.5-.06-.98.14-1.29.53-.25.43-.39.92-.38 1.42h-2.27c.02-.58.13-1.16.3-1.72.44-.9 1.2-1.59 2.13-1.95a4.72 4.72 0 0 1 1.59-.23 4.42 4.42 0 0 1 2.88.9 3.21 3.21 0 0 1 .46 4.27c-.25.28-.56.5-.91.61.39.09.73.3.99.6a3.2 3.2 0 0 1 .91 2.32 3.88 3.88 0 0 1-1.07 2.78 4.37 4.37 0 0 1-3.26 1.2c-1.75 0-2.96-.6-3.64-1.73a5.3 5.3 0 0 1-.61-2.4h2.43Zm13.36-5.4c-.01-.24-.1-.47-.23-.67a1.5 1.5 0 0 0-1.21-.6 1.64 1.64 0 0 0-1.67 1.35 4.92 4.92 0 0 0-.38 2.17c.25-.35.59-.64.98-.82a4.5 4.5 0 0 1 2.9.05c.46.19.87.48 1.2.85.75.75 1.14 1.8 1.06 2.85a4.6 4.6 0 0 1-.98 3 3.9 3.9 0 0 1-3.27 1.35 3.8 3.8 0 0 1-3.49-1.95 8.48 8.48 0 0 1-.83-3.9c0-.78.05-1.55.15-2.33.04-.93.33-1.83.83-2.62.31-.6.79-1.09 1.37-1.43a3.83 3.83 0 0 1 2.05-.52 4.22 4.22 0 0 1 2.81.9c.7.58 1.1 1.42 1.14 2.32h-2.43Zm-2.96 6.9c.35.43.89.66 1.44.6.48.05.95-.19 1.21-.6.2-.2.34-.46.43-.73.1-.27.13-.56.11-.84 0-.6-.19-1.17-.54-1.65a1.76 1.76 0 0 0-1.36-.53c-.2 0-.39.02-.57.08a1.7 1.7 0 0 0-.5.3c-.5.46-.78 1.12-.75 1.8 0 .57.18 1.12.53 1.57Zm14.42-8.47a11.83 11.83 0 0 1 0 9.45 3.62 3.62 0 0 1-3.34 1.65c-1.33.1-2.6-.54-3.34-1.65a12.66 12.66 0 0 1 0-9.45 3.68 3.68 0 0 1 3.34-1.65 3.61 3.61 0 0 1 3.34 1.65Zm-4.78 7.95c.15.67.75 1.14 1.44 1.12.34.03.67-.07.94-.28s.45-.5.5-.84c.28-1.05.41-2.14.38-3.23.03-1.1-.09-2.22-.38-3.3a1.36 1.36 0 0 0-1.44-1.05c-.33 0-.64.1-.91.28-.26.2-.45.46-.53.77-.25 1.09-.36 2.2-.31 3.3a12.1 12.1 0 0 0 .31 3.23ZM8.56 133.81H34.8v-26.25H8.56v26.25Zm153.19-26.25h-20.72a2.5 2.5 0 0 0-2.5 2.5v20.74a2.5 2.5 0 0 0 2.5 2.5h20.72a2.5 2.5 0 0 0 2.51-2.5v-20.73a2.5 2.5 0 0 0-2.5-2.51Z"/><path d="M159.72 110.93h-5.45c-.67 0-1.21.55-1.21 1.21V121c0 .67.54 1.2 1.21 1.2h5.45a1.2 1.2 0 0 0 1.21-1.2v-8.84c0-.67-.54-1.22-1.21-1.22Zm-11.2 0h-5.45c-.67 0-1.21.55-1.21 1.21v15.28c0 .67.54 1.21 1.2 1.21h5.46c.67 0 1.2-.54 1.2-1.2v-15.29c0-.66-.53-1.2-1.2-1.2Z"/><path fill="#fff" d="M263 139.17a3.02 3.02 0 0 1-3.02-3.08 3.02 3.02 0 1 1 6.04 0 3.01 3.01 0 0 1-3.02 3.08Zm3.02.41c.1.55.55.96 1.1 1.04h.36c.14 0 .26-.12.26-.26v-8.43a.26.26 0 0 0-.26-.26h-1.2a.26.26 0 0 0-.26.26v.67a3.8 3.8 0 0 0-3.02-1.25 4.73 4.73 0 1 0 1.64 9.18c.52-.22 1-.54 1.38-.95Zm4.58-1.25c.72.54 1.6.83 2.5.84.78 0 1.61-.42 1.61-1.15s-1.76-1.1-2.91-1.46-2.08-1.2-2.08-2.44c0-1.25 1.71-2.82 3.38-2.82.98.01 1.94.3 2.76.84.26.2.1.41.1.41q-.9 1.08-.93 1.07a.27.27 0 0 1-.1-.03 2.92 2.92 0 0 0-1.83-.62c-1.14 0-1.61.47-1.61 1.04s.78.89 1.71 1.15c.94.26 3.29.93 3.29 2.86s-1.62 2.81-3.39 2.81a5.67 5.67 0 0 1-3.49-1.1c-.1-.1.82-1.44.89-1.43.04 0 .07.01.1.03Zm14.84 1.25c.1.55.55.96 1.1 1.04h.36c.07 0 .14-.02.18-.07a.26.26 0 0 0 .08-.19v-8.43a.26.26 0 0 0-.26-.26h-1.2a.26.26 0 0 0-.26.26v.67a3.8 3.8 0 0 0-3.02-1.25 4.74 4.74 0 1 0 1.64 9.18c.52-.22 1-.54 1.38-.95Zm-3.02-.41a3.02 3.02 0 0 1-3.02-3.08 3.02 3.02 0 1 1 6.04 0 3.03 3.03 0 0 1-3.02 3.08Zm15.47-3.7c0-2.45-1.57-4.12-4.07-4.12a3.06 3.06 0 0 0-2.5 1.25.99.99 0 0 0-1.09-.93h-.36a.26.26 0 0 0-.26.26v8.48c0 .07 1.72.06 1.72 0v-4.89a2.4 2.4 0 1 1 4.79 0v5c0 .07 1.77.03 1.77-.03m9.26-.91c.1.55.55.96 1.1 1.04h.36a.3.3 0 0 0 .2-.07.3.3 0 0 0 .11-.19v-8.43h-.05a.26.26 0 0 0-.26-.26h-1.2a.26.26 0 0 0-.26.26v.67a3.8 3.8 0 0 0-3.02-1.25 4.73 4.73 0 1 0 1.65 9.18c.52-.22.99-.54 1.37-.95Zm-3.02-.41a3.02 3.02 0 0 1-3.02-3.08 3.02 3.02 0 1 1 6.04 0 3.01 3.01 0 0 1-3.02 3.08Zm-15.1-22.24a4.17 4.17 0 1 0-.4 8.33 4.17 4.17 0 0 0 .4-8.33Zm-10.77 0a4.17 4.17 0 1 0 0 8.34 4.17 4.17 0 0 0 0-8.34Zm9.53-5.2a4.17 4.17 0 1 1-8.34 0 4.17 4.17 0 0 1 8.34 0Zm131.53 25.41h-2.2v-8.7h2.2v8.7Zm17.72-6.18a3.83 3.83 0 0 0-1.9-.47 2.25 2.25 0 0 0-2.35 2.3 2.3 2.3 0 0 0 2.36 2.36c.66 0 1.3-.16 1.89-.47v2.3c-.65.21-1.32.32-2 .32-2.51 0-4.66-1.68-4.66-4.51s1.94-4.5 4.66-4.5c.68 0 1.35.1 2 .3v2.37Zm-22.96 0a3.72 3.72 0 0 0-1.83-.47 2.35 2.35 0 0 0-2.5 3.3 2.35 2.35 0 0 0 2.5 1.36 3.9 3.9 0 0 0 1.83-.47v2.3a6.1 6.1 0 0 1-1.99.32c-2.46 0-4.66-1.68-4.66-4.51a4.46 4.46 0 0 1 4.66-4.5c.68 0 1.35.1 2 .3v2.37Zm29.87-.47a2.3 2.3 0 1 0 0 4.6 2.3 2.3 0 0 0 0-4.6Zm4.61 2.3a4.6 4.6 0 1 1-4.6-4.5 4.47 4.47 0 0 1 4.6 4.5Zm-20.9-2.36a9.2 9.2 0 0 0-1.73-.26c-.9 0-1.37.26-1.37.68s.63.74 1 .84l.63.21c1.41.47 2.04 1.41 2.04 2.46 0 2.2-1.88 2.94-3.56 2.94a19.6 19.6 0 0 1-2.41-.21v-2.05c.68.22 1.38.34 2.1.37 1.1 0 1.57-.31 1.57-.84 0-.52-.42-.68-.95-.84l-.47-.15c-1.25-.42-2.25-1.1-2.25-2.57s1.2-2.73 3.25-2.73c.72.03 1.44.12 2.15.27v1.88Zm-22.53-11.37a1.1 1.1 0 0 0-1.1-1.05c-.44-.03-.85.23-1.02.64a.98.98 0 0 0-.09.41v2.3c0 .45.27.85.69 1 .13.04.27.06.41.06a1.1 1.1 0 0 0 1.1-1.05v-2.3Zm5.97-2.98c0-.3-.11-.57-.32-.78-.2-.2-.49-.33-.78-.33-.6.03-1.07.5-1.1 1.1v5.3a1.1 1.1 0 0 0 2.2 0v-5.3Zm6.02-4.1a1.1 1.1 0 0 0-2.2 0v11.59a1.1 1.1 0 0 0 1.1 1.05 1.15 1.15 0 0 0 1.1-1.05v-11.58Zm5.98 4.1a1.1 1.1 0 0 0-1.1-1.1c-.6.03-1.07.5-1.1 1.1v5.29a1.1 1.1 0 0 0 2.2 0v-5.3Zm5.97 2.98a1.05 1.05 0 0 0-1.1-1.05 1.03 1.03 0 0 0-1.05 1.05v2.3c-.02.29.09.57.29.78.2.21.47.33.76.33a1.1 1.1 0 0 0 1.1-1.1v-2.3Zm6.03-2.98a1.15 1.15 0 0 0-1.16-1.05c-.58 0-1.04.47-1.04 1.05v5.29a1.1 1.1 0 0 0 2.2 0v-5.3Zm5.97-4.1a1.1 1.1 0 0 0-2.2 0v11.59a1.1 1.1 0 0 0 2.2.05v-11.63Zm5.97 4.1a1.09 1.09 0 0 0-1.31-1.31 1.1 1.1 0 0 0-.83 1.3v5.3a1.04 1.04 0 0 0 1.04 1.1 1.1 1.1 0 0 0 1.1-1.1v-5.3Zm6.03 2.98a1.1 1.1 0 0 0-1.1-1.05 1.04 1.04 0 0 0-1.1 1.05v2.3a1.1 1.1 0 0 0 2.2 0v-2.3Zm-1.26 16.93v.15h-.42v1h-.15v-1h-.37V136h.94Zm.06 0h.26l.31.94h.05l.32-.94h.26v1.15h-.21v-.94l-.31.94h-.16l-.37-.94v.94h-.15v-1.15Zm114.23 6.11a18.05 18.05 0 0 1-15.93-15.72 24.3 24.3 0 0 1 0-4.35 17.95 17.95 0 0 1 9.9-13.95 18.17 18.17 0 0 1 14.14-.78 18.1 18.1 0 0 1 11.41 13.11c.5 2.2.5 5.39 0 7.6a18 18 0 0 1-14.69 13.95c-1.1.2-3.69.27-4.82.15Zm1.12-25.09-2.42-.03c-2.76-.03-3.58.05-4.64.4a7.04 7.04 0 0 0-4.65 5 8.34 8.34 0 0 0-.08 3.34 7.25 7.25 0 0 0 4.73 5.3c.73.26.91.29 1.86.32l1.05.03v-2.52l-.82-.04a4.3 4.3 0 0 1-3.1-1.38 4.64 4.64 0 0 1 1.23-7.36c.9-.43 1.27-.5 2.89-.5h1.38q.02 15.18.05 15.21t2.52.01m7.47-3.51c2.44-.38 4.52-2 5.5-4.26.39-.9.57-1.87.53-2.85 0-.96-.02-1.26-.17-1.81a7.2 7.2 0 0 0-3.9-4.71 6.08 6.08 0 0 0-2.7-.65l-1-.05.04 2.6.9.04c.98.05 1.36.16 2.01.56.97.59 1.7 1.44 2.05 2.42.23.63.28 2.08.1 2.8a4.42 4.42 0 0 1-2.34 2.9c-.86.43-1.59.56-3.14.56h-1.2v-15.25h-2.61v17.79h2.7c1.52 0 2.94-.04 3.23-.1Z"/><g clip-path="url(#f)"><path fill="#fff" d="M709.46 104.24c1.67.03 11.68 6.99 11.91 7.45.2.41.22 29.55-.66 30.27-.7.6-28.65 2.22-29.02 2.18-1.25-.13-7.16-7.72-8.23-9.34l-.4-.81-.07-26.21.27-.55a2.3 2.3 0 0 1 1.65-1.23l24.55-1.76Zm1.46 2.54c-.82-.36-24.53 1.29-24.53 1.71 0 .16 2.71 2.37 3.81 3.12a3 3 0 0 0 1.04.4c.69.1 24.58-1.31 24.76-1.46.07-.07.02-.2-.13-.35a63.32 63.32 0 0 0-4.95-3.43v.01Zm7.59 6.83c-.38-.37-26.81 1.24-27.04 1.39-.17.1-.35.4-.43.65-.07.23-.09 8.44-.06 24.63l.3.32c.21.2.46.35.74.44.52.15 25.55-1.26 26.08-1.48.18-.06.44-.27.56-.47.22-.32.26-24.34.23-24.64-.05-.32-.2-.66-.37-.84h-.01Zm-3.86 3.97c.38-.02.4.01.4.41 0 .41-.6.83-1.82 1.26l-.06 17.06-.3.18c-.99.64-2.94.92-3.7.52-.41-.21-3.4-4.63-8.95-13.24 0 7.68.08 11.54.22 11.59l1.2.27c.52.13.97.28.97.33a2 2 0 0 1-.19.47c-.34.66-.71.75-3.94.94l-3.13.18c-.2 0-.21-.38-.01-.81.11-.25.34-.37 1-.57l.86-.26v-15.35h-.53c-1.01 0-1.48-.13-1.48-.4 0-.44.4-1.1.77-1.28.22-.13 6.42-.58 6.44-.55.02.01 2.65 3.99 7.89 11.92.04.04.08-3.48.12-10.55-1.39-.2-2.07-.43-2.05-.7.05-.4.31-.76.72-.96l5.57-.46Z"/><clipPath id="f"><path fill="#fff" d="M683 103.78h38.6v40.82H683Z"/></clipPath></g><g clip-path="url(#g)"><path fill="#fff" d="m819.09 135.44 6.44-4.94c3.43 4.48 7.07 6.54 11.12 6.54 4.03 0 7.56-2.04 10.83-6.47l6.54 4.81c-4.72 6.4-10.58 9.78-17.37 9.78-6.77 0-12.7-3.36-17.56-9.72Zm17.53-21.46-11.47 9.88-5.3-6.14 16.8-14.48 16.67 14.49-5.33 6.13-11.37-9.88Z"/><clipPath id="g"><path fill="#fff" d="M815.6 103.23h41.91v41.92H815.6Z"/></clipPath></g><path fill="#fff" d="m967.22 115.88-7.85 5.06 7.85 4.99-7.85 4.99-7.85-5.06 7.85-5-7.85-4.98 7.85-5 7.85 5Zm-7.85 16.63 7.85-4.99 7.79 5-7.79 4.99-7.85-5Zm7.85-6.65 7.85-5-7.85-4.98 7.79-5 7.85 5-7.85 5.06 7.85 4.99-7.85 4.99-7.79-5.06Zm21.76-9.98h6.39c4.06 0 7.39 2.33 7.39 7.72v1.13c0 5.32-3.13 7.78-7.26 7.78h-6.52v-16.63Zm3.6 3v10.57h2.72c2.27 0 3.8-1.46 3.8-4.85v-.87c0-3.33-1.6-4.86-3.93-4.86h-2.6Zm12.04.2h2.86l.47 3.12c.53-2.13 1.86-3.26 4.39-3.26h.86v3.6h-1.46c-2.86 0-3.59 1-3.59 3.85v6.12h-3.46v-13.44h-.07Zm9.32 6.98v-.33c0-4.53 2.86-6.99 6.78-6.99 3.93 0 6.79 2.46 6.79 6.99v.33c0 4.46-2.73 6.85-6.79 6.85s-6.78-2.4-6.78-6.85Zm9.98 0v-.33c0-2.53-1.27-4.06-3.26-4.06-2 0-3.26 1.4-3.26 4.06v.33c0 2.4 1.26 3.8 3.26 3.8 1.99 0 3.26-1.4 3.26-3.8Zm5.46-6.99h2.92l.34 2.53a4.48 4.48 0 0 1 4.39-2.86c3.46 0 5.65 2.46 5.65 6.99v.4c0 4.39-2.46 6.78-5.65 6.78-2.13 0-3.6-1-4.26-2.52v6.78h-3.46v-18.1h.07Zm9.78 6.99v-.33c0-2.66-1.4-4-3.2-4-1.79 0-3.26 1.53-3.26 4v.26c0 2.4 1.27 3.86 3.2 3.86s3.26-1.33 3.26-3.79Zm8.72 4-.27 2.45h-3v-17.96h3.4v6.92c.73-1.8 2.26-2.73 4.39-2.73 3.19.07 5.59 2.26 5.59 6.72v.4c0 4.46-2.26 7.05-5.66 7.05-2.26-.06-3.72-1.13-4.45-2.86Zm6.52-4.2v-.33c0-2.46-1.33-3.86-3.2-3.86-1.86 0-3.26 1.6-3.26 3.92v.27c0 2.53 1.27 4 3.2 4s3.26-1.34 3.26-4Zm5.05.2v-.33c0-4.53 2.93-6.99 6.86-6.99s6.79 2.46 6.79 6.99v.33c0 4.46-2.8 6.85-6.79 6.85s-6.86-2.4-6.86-6.85Zm10.12 0v-.33c0-2.53-1.26-4.06-3.26-4.06s-3.26 1.4-3.26 4.06v.33c0 2.4 1.26 3.8 3.26 3.8s3.26-1.4 3.26-3.8Zm8.12-.53-4.73-6.46h4.06l2.73 4.06 2.73-4.06h3.99l-4.79 6.46 5.06 6.98h-3.99l-3.07-4.45-2.99 4.45h-4.13l5.13-6.98Zm131.85-8.95h2.09v10.6c0 2.83-1.24 4.74-4.12 4.74-.85.04-1.69-.1-2.48-.4v-2.02c.67.3 1.41.43 2.14.4 1.75 0 2.37-1.02 2.37-2.55v-10.77Zm5.92-.84c.7 0 1.3.53 1.36 1.24v.17c.12.63-.2 1.27-.78 1.55-.38.18-.83.18-1.21 0a1.4 1.4 0 0 1-.78-1.55c-.01-.17 0-.34.06-.5.15-.51.6-.87 1.13-.91h.22Zm-1.01 4.5h1.97v11.57h-1.97v-11.56Zm5.02.01h1.91v2.03c.68-1.35 1.86-2.31 4.12-2.2v1.97c-2.59-.28-4.12.51-4.12 2.94v6.88h-1.91v-11.62Zm15.39 9.53a4.09 4.09 0 0 1-3.95 2.31c-3.04 0-4.62-2.65-4.62-6.03 0-3.39 1.63-6.04 4.91-6.04 1.57-.1 3.04.81 3.66 2.26v-2.03h2.03v11.56h-2.03v-2.03Zm-3.38.45c1.8 0 3.38-1.13 3.38-3.72v-.96c0-2.6-1.47-3.72-3.16-3.72s-3.38 1.47-3.38 4.17 1.07 4.23 3.16 4.23Zm17.2 1.87c-1.9.08-3.78-.33-5.47-1.2v-2.14c1.74.85 3.65 1.3 5.58 1.3 2.31 0 3.16-.9 3.16-2.25 0-1.36-.85-2.09-3.72-2.82-2.88-.74-4.97-2.03-4.97-4.52 0-2.48 1.81-4.11 5.36-4.11a9.46 9.46 0 0 1 4.68 1.13v2.03a9.4 9.4 0 0 0-4.79-1.13c-1.97 0-3.16.67-3.16 2.08 0 1.42.96 1.87 3.67 2.54 2.7.68 5.02 1.86 5.02 4.63 0 2.76-1.58 4.45-5.36 4.45Zm7.16-6.1c0-3.5 2.03-5.98 5.47-5.98s5.53 2.54 5.53 5.98-2.03 6.1-5.53 6.1-5.47-2.6-5.47-6.1Zm1.92 0c0 2.2 1.13 4.23 3.55 4.23 2.43 0 3.55-2.03 3.55-4.23s-1.07-4.11-3.55-4.11-3.55 1.91-3.55 4.11Zm14.15-5.75h2.99v1.8h-2.99v9.76h-1.97v-9.76h-1.86v-1.8h1.86v-1.3c0-2.14 1.18-3.6 3.72-3.6.44 0 .88.05 1.3.16v1.86l-1.24-.11a1.65 1.65 0 0 0-1.86 1.75l.05 1.24Zm9.76 9.65 1.24-.18v1.92c-.44.14-.9.2-1.35.17-2.48 0-3.67-1.41-3.67-3.6v-6.16h-1.92v-1.8h1.86v-2.48h1.98v2.48h3.04v1.8h-3.04v6.1c0 1.07.62 1.74 1.86 1.74Zm1.8-9.65h2.2l3.33 9.81 3.39-9.81h1.91l3.39 9.81 3.32-9.81h2.2l-4.23 11.56h-2.59l-1.97-5.58-1.08-3.61-1.07 3.6-2.03 5.59h-2.54l-4.23-11.56Zm28.88 9.53a3.98 3.98 0 0 1-3.89 2.31c-3.1 0-4.68-2.65-4.68-6.03 0-3.39 1.63-6.04 4.9-6.04 1.58-.1 3.05.8 3.67 2.26v-2.03h2.03v11.56h-2.03v-2.03Zm-3.38.45c1.8 0 3.38-1.13 3.38-3.72v-.96c0-2.6-1.47-3.72-3.16-3.72s-3.38 1.47-3.38 4.17 1.13 4.23 3.16 4.23Zm8.45-9.98h1.92v2.03c.68-1.35 1.86-2.31 4.12-2.2v1.97c-2.54-.28-4.12.51-4.12 2.94v6.88h-1.92v-11.62Zm13.09 11.85c-4.34 0-6.26-2.55-6.26-6.1s1.97-5.98 5.53-5.98c3.55 0 4.96 2.48 4.96 5.98v.9h-8.46c.28 1.98 1.58 3.28 4.29 3.28 1.21-.01 2.41-.22 3.55-.63v1.86c-1.15.47-2.38.7-3.61.68Zm-4.29-6.89h6.49c-.11-2.14-1.07-3.38-3.05-3.38-1.97 0-3.21 1.35-3.44 3.38Zm-126.38-1.58-8.63-8.57-.79-.84-6.48 6.48-2.94 2.93a.69.69 0 0 0-.19.26c-.05.1-.07.2-.07.3 0 .12.02.22.07.32.04.1.11.18.19.25l5.87 5.92 3.55 3.5 6.43-6.43.11-.11 2.88-2.88a.84.84 0 0 0 0-1.13Zm-9.47 3.56-2.94-3 2.94-2.93 2.98 2.94-2.98 2.99Z"/><path fill="#ebebeb" d="M1190.37 121.26a4.94 4.94 0 0 1 0-6.99l-6.49 6.43 3.5 3.55 2.99-2.99Zm2.99 2.94-2.99 2.93a5 5 0 0 1 0 7.05l6.48-6.49-3.49-3.5Z"/><path fill="#fff" d="M1433.38 129.71s.1-.71 1.08-.71v4.99a2.71 2.71 0 0 1-2.84 2.47 2.75 2.75 0 0 1-2.88-2.47v-4.98c1.01 0 1.08.71 1.08.71v4.17c0 1.59 1.8 1.62 1.8 1.62s1.76-.03 1.76-1.62v-4.18Zm24.73 0s.07-.71 1.09-.71v4.99a2.89 2.89 0 0 1-5.73 0v-4.98c1.02 0 1.09.71 1.09.71v4.17c0 1.59 1.79 1.62 1.79 1.62s1.76-.03 1.76-1.62v-4.18Zm-13.85 6.64h-1.09v-6.64s.1-.71 1.09-.71v7.35Zm17.92 0h-1.08v-6.64s.06-.71 1.08-.71v7.35Zm8.4 0h-1.08v-6.64s.07-.71 1.08-.71v7.35Zm-30.51-1.27c.19-.22.29-.52.29-.82 0-1.08-.85-1.22-1.02-1.22h-1.96v2.47h1.93c.3-.05.56-.2.76-.43Zm-2.69-2.92h1.66s1.08-.07 1.08-1.08c.02-.3-.09-.6-.3-.82-.11-.1-.24-.19-.38-.24a.94.94 0 0 0-.44-.06h-1.62v2.2Zm4.03 2.4c0 1.4-1.52 1.8-1.52 1.8h-3.56v-7.35h2.78c1.01 0 2.1.71 2.1 1.9-.01.34-.11.68-.3.97-.18.3-.44.53-.75.68.44 0 1.25.62 1.25 2Zm7.42.98c1.42 0 2.1-1.25 2.1-2.8 0-1.56-.68-2.82-2.1-2.82s-2.1 1.26-2.1 2.82c0 1.55.68 2.81 2.1 2.81v-.01Zm4.1.72q-3.35 0-4.17.1s-3.35.24-3.15-3.65c.21-3.9 3.15-3.7 3.15-3.7 2.54 0 3.26 2.13 3.26 3.76 0 .98-.38 1.92-1.05 2.64h1.32c.57 0 .64.85.64.85Zm15.66-6.34h-2.11v6.44h-1.05v-6.44h-2.2v-.91h5.36v.91Z"/><path fill="#fff" fill-rule="evenodd" d="M1442.97 108.68h-1.05v-1.12h1.05v1.12Zm2.1 5.52h-1.05v-1.12h1.05v1.12Zm0-3.42h-1.05v-1.09h1.05v1.09Zm1.05-1.08h-1.05v-1.09h1.05v1.08Zm0 2.9h-1.05v-1.08h1.05v1.09Zm1.05-1.31h-1.05v-1.09h1.05v1.09Z" clip-rule="evenodd"/><path fill="#fff" fill-rule="evenodd" d="M1441.92 110.44h1.05v5.86h1.02v-1.05h1.08v2.3h1.08v-3.82h1.05v7.9a6.6 6.6 0 0 0 3.16 5c-3.12 0-8.44-1.42-8.44-7.72v-8.47Zm11.45 12.4s4.2-.24 5.46-5.9v-9.21s-5.29-.61-5.29 3.29-.17 11.82-.17 11.82Z" clip-rule="evenodd"/><path fill="#fff" d="M1429.01 138.6h.41l.98 1.59v-1.6h.37v2.18h-.4l-.99-1.6v1.6h-.37v-2.17Zm5.73 0h1.55v.34h-1.18v.57h1.08v.3h-1.08v.62h1.18v.34h-1.55v-2.17Zm5.28 0h1.76v.34h-.67v1.83h-.41v-1.83h-.68v-.34Zm5.49 0h.37l.41 1.66.44-1.66h.37l.44 1.66.41-1.66h.37l-.61 2.17h-.37l-.44-1.67-.44 1.67h-.37l-.58-2.17Zm6.74 1.08c0 .4.17.81.65.81.47 0 .64-.4.64-.8 0-.41-.17-.82-.64-.82-.48 0-.65.4-.65.81Zm1.7 0a1 1 0 0 1-.06.42 1.2 1.2 0 0 1-.22.37 1.1 1.1 0 0 1-1.89-.79 1.12 1.12 0 0 1 1.54-1.03c.13.06.25.14.35.24.09.1.17.23.22.37a1 1 0 0 1 .06.42Zm4.3-.07h.64l.15-.01c.05-.02.1-.04.13-.08a.32.32 0 0 0 .08-.13c.02-.05.02-.1.02-.15 0-.27-.21-.3-.38-.3h-.64v.67Zm-.37-.98h1.05c.47 0 .71.2.71.58 0 .12-.03.23-.09.33a.57.57 0 0 1-.28.2c.1.03.19.08.25.16.07.08.1.19.09.29-.02.2.01.4.1.58h-.41c-.03-.1-.04-.2-.03-.3 0-.42-.1-.59-.44-.59h-.58v.89h-.37v-2.14Zm5.66 0h.37v.98l.95-.98h.47l-.85.85.92 1.29h-.47l-.72-1.02-.3.3v.72h-.37v-2.14Zm5.79 1.42c0 .34.24.48.54.48.31 0 .48-.17.48-.34a.31.31 0 0 0-.04-.16.29.29 0 0 0-.13-.11l-.65-.17a.55.55 0 0 1-.34-.18.58.58 0 0 1-.13-.36c0-.44.37-.65.78-.65s.81.24.81.68h-.37c0-.27-.2-.37-.47-.37-.28 0-.38.07-.38.27s.1.24.24.3l.64.17c.25.06.42.3.41.55 0 .47-.44.67-.85.67-.4 0-.91-.23-.91-.78h.37Z"/><path fill="#f2f2f2" d="M9.32 197.78H0v-24.85l9.32 7.76v17.09Z"/><path fill="#d1d1d1" d="m34.17 180.69 9.32-7.76v24.85h-9.32v-17.09Zm-24.85.01L0 172.92v-3.11a4.82 4.82 0 0 1 4.66-4.66 4.66 4.66 0 0 1 4.66 4.66v10.89Z"/><path fill="#fff" d="M34.17 180.7v-10.88a4.81 4.81 0 0 1 4.66-4.66 4.66 4.66 0 0 1 4.66 4.66v3.1l-9.32 7.77Z"/><path fill="#f2f2f2" d="M34.17 180.7 21.75 190l-12.43-9.3v-10.87l12.43 9.32 12.42-9.32v10.87Zm117.63-15.54h5.85v25.82h-8.16v-23.51a2.31 2.31 0 0 1 2.31-2.31Z"/><path fill="#fff" d="M182.11 173.31h-8.16v17.67h8.16v-17.67Z"/><path fill="#e2e2e2" d="M182.25 173.45h-8.16v-8.16h5.85a2.3 2.3 0 0 1 2.3 2.32v5.84Z"/><path fill="#c7c7c7" d="M157.65 190.98h-8.16v6.8h8.16v-6.8Zm20.38 4.08-4.07 2.72v-6.8h8.15l-4.08 4.08Z"/><path fill="#d1d1d1" d="M173.96 190.98h-16.31v6.8h16.3v-6.8Z"/><path fill="#f2f2f2" d="M173.96 165.16h-16.31v6.8h16.3v-6.8Z"/><path fill="#c7c7c7" d="m302.43 165.16 5.67 9.93 5.67-9.93h-11.34Z"/><path fill="#f2f2f2" d="m315.2 187.85 5.67 9.93 5.67-9.93h-11.35Z"/><path fill="#e2e2e2" d="m288.25 187.85 5.67 9.93 5.67-9.93h-11.34Z"/><path fill="#d1d1d1" d="M288.25 187.85h11.34l8.51-12.76-5.67-9.93-14.18 22.69Z"/><path fill="#ccc" d="m308.1 175.09 7.1 12.76h11.34l-12.77-22.7"/><path fill="#f2f2f2" d="M293.92 197.78h26.94l-5.67-9.93h-15.6l-5.67 9.93Z"/><path fill="#fff" d="M435.93 165.16h4.13v26.34h-7.52v-22.95a3.4 3.4 0 0 1 3.38-3.4Zm20.45 8.78h-8.79v17.56h8.79v-17.56Z"/><path fill="#fff" d="M436.3 165.28v8.79h11.3v-8.78h-11.3Z"/><path fill="#e2e2e2" d="M456.38 191.5h-8.79v6.28h8.79v-6.28Z"/><path fill="#f2f2f2" d="M447.6 191.5h-7.54v6.28h7.53v-6.28Z"/><path fill="#c7c7c7" d="M432.54 191.5h7.52v6.28h-5.64a1.89 1.89 0 0 1-1.88-1.88v-4.4Z"/><path fill="#f2f2f2" d="m447.6 165.16 8.77 8.78h-8.78v-8.78Z"/><path fill="#e3e3e3" d="M571.27 174.06h-8.9v14.82h8.9v-14.82Z"/><path fill="#e2e2e2" d="M571.36 188.88h-8.9v8.9h8.9v-8.9Z"/><path fill="#fff" d="M595.09 165.16h-8.9v16.3h8.9v-16.3Z"/><path fill="#f2f2f2" d="M595 181.47h-8.9v16.3h8.9v-16.3Z"/><path fill="#ccc" d="M586.25 174.06v-8.9h-14.83v8.9h14.83Z"/><path fill="#f2f2f2" d="M586.25 197.78v-8.9h-14.83v8.9h14.83Z"/><path fill="#c7c7c7" d="m587.28 182.5 16.17 11.42a2.22 2.22 0 0 0 3.4-1.92v-20.91a2.22 2.22 0 0 0-3.4-1.93l-16.17 11.42a1.18 1.18 0 0 0 0 1.93Z" opacity=".85"/><path fill="#f2f2f2" d="m562.37 174.06 8.9-8.9v8.9h-8.9Z"/><path fill="#eee" d="m713.38 173.41 8.47-8.25h23.25a2.11 2.11 0 0 1 2.15 2.17v6.08h-33.87Z"/><path fill="#e4e4e4" d="m747.25 189.91-6.3 8.25h-19.1v-8.25h25.4Zm0-8.25h-25.4v-8.25h25.4v8.25Zm-25.4 8.25h-8.47v-8.25h8.47v8.25Z"/><path fill="#fff" d="M721.85 181.66h-8.47v-8.25h8.47v8.25Zm25.4 8.25h-25.4v-8.25h25.4v8.25Zm-25.4 0v8.25h-6.4a2.1 2.1 0 0 1-1.46-.59 2 2 0 0 1-.6-1.43v-6.23h8.46Z"/><path fill="#e4e4e4" d="M868.46 183.29c4.92 0 8.9-4.06 8.9-9.07 0-5-3.98-9.06-8.9-9.06a8.98 8.98 0 0 0-8.9 9.06 9 9 0 0 0 8.9 9.07Z"/><path fill="#eee" d="M876.8 190.05a7.72 7.72 0 0 0 7.64-7.79c0-4.3-3.42-7.78-7.65-7.78a7.72 7.72 0 0 0-7.64 7.78c0 4.3 3.42 7.8 7.64 7.8Z"/><path fill="#e4e4e4" d="M869.4 195.73a6.14 6.14 0 0 0 6.08-6.19 6.13 6.13 0 0 0-6.08-6.19 6.14 6.14 0 0 0-6.08 6.2 6.13 6.13 0 0 0 6.08 6.18Z"/><path d="M868.15 172.82h-8.52a9.16 9.16 0 0 0 1.55 6.78 8.88 8.88 0 0 0 5.84 3.62l1.44.13h.75a6.08 6.08 0 0 0-4.05 1.71 6.3 6.3 0 0 0-1.9 4.03h4.89a1.31 1.31 0 0 0 1.25-1.27V174.1a1.35 1.35 0 0 0-1.25-1.29Z" opacity=".2"/><path fill="#fff" d="M855.62 172.82h12.53c.33 0 .65.13.88.37.24.24.37.57.37.9v12.77c0 .34-.13.66-.37.9-.23.24-.55.38-.88.38h-12.53a1.29 1.29 0 0 1-1.26-1.28V174.1c0-.33.13-.66.37-.9s.55-.37.89-.37Z"/><path d="M859.69 180.31a2.7 2.7 0 0 1-.82-.83 2.6 2.6 0 0 1 .25-2.62c.38-.39.83-.7 1.32-.9a7.81 7.81 0 0 1 4.2.07v1.72l-1.07-.44c-.4-.1-.83-.16-1.25-.13-.45-.04-.9.05-1.32.25a.82.82 0 0 0-.5.83c0 .19.07.37.2.51l.62.45 1.26.51c.47.2.93.43 1.37.7.34.2.63.48.81.83.23.4.34.83.32 1.28.05.55-.1 1.1-.44 1.53-.34.4-.77.7-1.25.9-.6.17-1.2.26-1.82.25l-1.63-.13-1.32-.38v-1.85c.42.3.89.52 1.38.64.46.18.95.27 1.44.25.46.03.92-.08 1.32-.32a.75.75 0 0 0 .34-.3c.08-.15.11-.3.1-.46a.83.83 0 0 0-.25-.64l-.7-.5-1.3-.58-1.26-.64Z"/><path fill="#eee" d="m995.01 183.9 11.63 11.62a3.05 3.05 0 0 0 4.31 0l3.85-3.84a3.05 3.05 0 0 0 0-4.31l-11.63-11.63a3.04 3.04 0 0 0-4.3 0L995 179.6a3.05 3.05 0 0 0 0 4.3Z"/><path fill="#e4e4e4" d="m1022.41 167.31-19.79 19.8a3.05 3.05 0 0 0 0 4.3l4.21 4.22a3.05 3.05 0 0 0 4.31 0l19.79-19.8a3.05 3.05 0 0 0 0-4.3l-4.21-4.22a3.05 3.05 0 0 0-4.31 0Z"/><path fill="#f2f2f2" d="M1156.28 176.03a4.77 4.77 0 1 0 .44-9.53 4.77 4.77 0 0 0-.44 9.53Z"/><use xlink:href="#h" fill="none" opacity=".2"/><path fill="#fff" d="M1166.97 176.3a3.55 3.55 0 1 0 0-7.1 3.55 3.55 0 0 0 0 7.1Zm3.08 1.09h-7.98q-.09 0-.7 8.87a5.22 5.22 0 0 0 4.05 5.15 5.09 5.09 0 0 0 6.05-3.92c.05-.34.07-.69.06-1.03v-7.6a1.47 1.47 0 0 0-1.48-1.47Z"/><path fill="#f2f2f2" d="M1164.56 188.52a8.2 8.2 0 0 1-11.23 7.5 8.22 8.22 0 0 1-4.47-4.42 5.35 5.35 0 0 1-.32-1.02 6.83 6.83 0 0 1-.26-2.06q1.14-11.14 1.54-11.13h13.19c.4-.01.8.14 1.09.41"/><use xlink:href="#h" fill="none" opacity=".2"/><path fill="#fff" d="M1140.39 173.27h13.51a1.4 1.4 0 0 1 1.42 1.35v13.57c0 .37-.16.72-.42.98-.27.26-.63.4-1 .38h-13.51c-.36 0-.7-.15-.95-.4-.26-.25-.4-.6-.4-.96v-13.57c0-.36.14-.7.4-.96.25-.25.59-.4.95-.4Z"/><path d="M1151.2 178.35h-3.02v8.17h-2v-8.17h-3.08v-2h8.1v2Z"/><path fill="#eee" d="M1290.05 172.17h-.14a15.73 15.73 0 0 1 28.31 4.75h-.7c-1.4 0-2.78.28-4.06.84l-6.29 2.66-10.48-6.29a12.33 12.33 0 0 0-6.64-1.96Zm36.42 19.77a10.18 10.18 0 0 1-8.95 5.4h-27.47a12.55 12.55 0 0 1-10.27-5.4l9.29-3.9 4.13-1.75 9.22-3.85 4.75-2.02 1.82 1.04 6.01 3.64 2.59 1.54 8.88 5.3Z"/><path fill="#fff" d="M1296.6 174.16a12.43 12.43 0 0 0-6.64-1.9h-.14a12.52 12.52 0 0 0-12.37 12.66c.07 2.52.84 4.96 2.23 7.06l9.3-3.92 4.12-1.74 9.23-3.85 4.75-2.02-10.48-6.3Zm21.53 2.87h-.7a9.94 9.94 0 0 0-4.06.83l-6.29 2.66 1.82 1.04 6.01 3.64 2.6 1.54 8.86 5.3a10.14 10.14 0 0 0-8.24-14.96v-.06Zm125.86 2.86-3.24-2.97a.33.33 0 0 1-.11-.12.27.27 0 0 1-.03-.18v-11.46c6.86 5.15 13.7 10.34 20.52 15.56l-20.52 15.55v-11.46c0-.07 0-.14.03-.2s.07-.1.11-.15l4.02-3.63.15-.11-.93-.83Zm-3.43.83-6.81 6.17v-12.35l6.81 6.18Z"/></g><clipPath id="a"><path fill="#fff" d="M0 0h1484v197.78H0Z"/></clipPath></g></svg>