<svg xmlns="http://www.w3.org/2000/svg" xmlns:xlink="http://www.w3.org/1999/xlink" width="1400" height="195" fill="none"><defs><path id="j" fill="#000" d="M1006 167.7h-2.7a4.4 4.4 0 0 0 4 2.6V169a1.3 1.3 0 0 0-1.3-1.3Z" opacity=".2"/></defs><g clip-path="url(#a)" opacity=".4"><g fill="#fff" clip-path="url(#b)"><path d="M37.5 16.6h-4.2l-.2.2v2l.2.2H35v2.5s-.3.2-1.3.2c-1.2 0-2.8-.5-2.8-4 0-3.7 1.7-4.1 3.3-4.1 1.4 0 2 .2 2.4.3 0 0 .2 0 .2-.2l.5-2H37c-.2-.2-1.1-.7-3.5-.7-2.8 0-5.6 1.2-5.6 6.8 0 5.5 3.2 6.4 6 6.4 2.2 0 3.6-1 3.6-1v-6.4l-.1-.2Zm21.3-4.9c0-.1 0-.2-.2-.2h-2.3c-.1 0-.2 0-.2.2V16h-3.6v-4.4l-.2-.2h-2.4s-.2 0-.2.2v12l.2.2h2.4s.2 0 .2-.2v-5.1H56v5.1c0 .1 0 .2.2.2h2.3c.1 0 .2 0 .2-.2v-12Zm-16.9 1.6a1.5 1.5 0 1 0-3 0 1.5 1.5 0 0 0 3 0Zm-.2 7.9v-5.6s0-.2-.2-.2h-2.3l-.2.2v8c0 .3.1.3.3.3h2.1c.2 0 .3-.1.3-.3v-2.4Zm26-5.8h-2.3c-.2 0-.2.1-.2.2v6s-.6.4-1.5.4c-.8 0-1-.4-1-1.2v-5.2l-.2-.2H60l-.2.2v5.6c0 2.4 1.4 3 3.3 3 1.5 0 2.7-.9 2.7-.9v.5l.3.1h1.5l.1-.2v-8l-.1-.3Zm6.3-.2c-1.3 0-2.2.6-2.2.6v-4.1l-.2-.2h-2.4l-.1.2v12l.1.2H71l.1-.6s1 .9 2.8.9c2.1 0 3.3-1.1 3.3-4.8 0-3.7-1.9-4.2-3.2-4.2ZM73 22c-.7 0-1.3-.4-1.3-.4v-3.8s.6-.4 1.2-.4c.9-.1 1.7.2 1.7 2.1 0 2-.4 2.5-1.5 2.5Zm-24.6-6.6h-1.7v-2.3H44v2.4l-1.3.3-.1.2v1.5s0 .2.2.2H44v3.5c0 2.7 1.9 3 3.1 3 .6 0 1.3-.2 1.4-.3l.1-.1V22s0-.2-.2-.2h-.6c-.8 0-1.1-.3-1.1-.8v-3.4h1.7l.2-.2v-1.9s0-.2-.2-.2Z"/></g><g fill="#fff" clip-path="url(#c)"><path d="M11.1 2.8a11.1 11.1 0 0 0-3.5 21.7c.5.1.7-.2.7-.5v-2c-3 .6-3.7-1.4-3.7-1.4C4 19.3 3.4 19 3.4 19c-1-.7 0-.7 0-.7 1.2 0 1.7 1.1 1.7 1.1 1 1.7 2.6 1.3 3.3 1 0-.8.4-1.2.7-1.5-2.5-.3-5-1.3-5-5.5a5 5 0 0 1 1-3 4 4 0 0 1 .2-3s.9-.3 3 1.2a10.6 10.6 0 0 1 5.6 0c2.1-1.5 3-1.2 3-1.2a4 4 0 0 1 .1 3c.7.8 1.2 1.8 1.2 3 0 4.3-2.6 5.2-5 5.5.3.3.7 1 .7 2v3c0 .4.2.7.7.6a11.1 11.1 0 0 0-3.5-21.7Z"/><path d="M4.2 18.7H4c-.1 0-.2 0-.1-.1 0-.1 0-.1.2 0Zm.5.5h-.2v-.3h.2v.3m.4.6-.3-.1v-.3l.3.1v.3m.6.7h-.3v-.3h.2l.1.3Zm.8.3s-.1.1-.2 0c-.2 0-.3 0-.2-.2 0 0 .1-.1.2 0 .2 0 .3 0 .2.2Zm1 0c0 .2-.1.2-.3.2H7c0-.1 0-.2.2-.2s.3 0 .3.2Zm.9 0-.2.2h-.3c0-.2 0-.3.2-.3l.3.1Z"/></g><path fill="#fff" d="M203 9.6h1.8c1.1 0 2.3.2 2.3 1.5 0 1.1-.7 2-2.8 2h-2l.7-3.5Zm-7.8 12.6h5.1l1.1-5.1h3.5c4.5 0 7.4-3 7.4-6.4 0-3.7-2-5.5-5.1-5.5h-8.4l-3.6 17Zm23.5-11.1.6 5H216l2.7-5Zm-11.2 11.1h5.3l1.3-2.4h5.5l.3 2.4h5.1l-2.6-17h-5.1l-9.8 17Zm23-10.6 4-6.4h6.2L232.4 16l-1.3 6.3H226l1.3-6.2-3.6-10.8h5.2l1.6 6.4Zm22.7 4.1c-.3 1.8-1.6 7-8.7 7-5 0-7.3-3.3-7.3-7.8 0-5.5 3.4-10.1 9.2-10.1 3.8 0 7.1 1.6 7.2 6.7h-4.9c0-1.6-.7-2.5-2.3-2.5-3 0-4 3.3-4 5.8 0 1.4.4 3.5 2.8 3.5 1.6 0 2.6-1 2.9-2.6h5.1Zm3-10.5h5.3l-1.3 6h4.8l1.2-6h5.3l-3.5 17h-5.3l1.4-6.7h-4.8l-1.4 6.7h-5.2l3.5-17Zm16.7 0h14l-.9 4.4h-8.8l-.4 2.1h8.2l-.9 4H276l-.4 2.2h9l-.9 4.3h-14.3l3.6-17Z"/><path fill="#fff" d="m290.5 13.2-3.9-8h5.7l1.7 4.5 3.4-4.5h6.2l-7.1 8 4.1 9h-5.9l-1.8-4.7-4 4.7h-6.4l8-9Zm195.6 8.1a5 5 0 0 1-1-3.3 5 5 0 0 1 1-3.3c.7-.8 1.6-1.2 2.7-1.2 1.2 0 2 .4 2.7 1.2a5 5 0 0 1 1 3.3 5 5 0 0 1-1 3.3c-.6.8-1.5 1.2-2.7 1.2-1.1 0-2-.4-2.7-1.2Zm-5-12h16v17.1h-16v-3.7l.4-1.4V21l-.5-3.9V9.2Zm1 8.7a7 7 0 0 0 4.1 6.5 7 7 0 0 0 2.6.6 6.6 6.6 0 0 0 6.2-4.2 7.4 7.4 0 0 0 0-5.6 6.8 6.8 0 0 0-6.2-4.3 6.4 6.4 0 0 0-4.7 2c-.7.6-1.2 1.4-1.5 2.3-.4.8-.5 1.8-.5 2.7Zm16.2-9v16.7l1.4-1.4v-17L498.3 9Zm-14.9-2.6-1.6 1.8h15.6l1.6-1.8h-15.6ZM477 7.7l1-2.8-15.6 2.2-.2.6.4 2 14.4-2Zm1 .6.8 5.4 1.2 8.6.5-1.2-1.9-14.4-.6 1.6ZM461.4 12l.3.2-6.3 14.2-14-6.3L447.9 6l13.6 6.1Zm-3 3.6a7 7 0 0 0-1.8-4.7 6.5 6.5 0 0 0-4.7-2c-.9 0-1.8.2-2.6.6a6 6 0 0 0-2.3 1.6 8.1 8.1 0 0 0-2.3 5.6c0 .8.2 1.6.5 2.4a6.1 6.1 0 0 0 3.5 3.7 6.6 6.6 0 0 0 5 0c1-.4 1.8-1 2.4-1.6a8 8 0 0 0 1.6-2.5c.5-1 .7-2 .7-3.1Zm19.6 1 1 7.6-15.5 2.2-1.7-11.6 1.2-2.7v-.4l-.2-1 14-1.8 1.2 7.6Zm-1.8 6.3v-.4l-1.7-11.1c0-.5-.2-1-.5-1.2l-.9-.3a1.8 1.8 0 0 0-.8.2l-.4.4-.2.9v.4l.6 4.3-4.8.7-.6-4.3c0-.4-.2-.8-.5-1.1a1 1 0 0 0-.8-.4h-.3a1.4 1.4 0 0 0-1 .6l-.2.9v.4l1.7 11.1c0 .5.2 1 .5 1.2.3.2.5.3.9.3h.3a1.2 1.2 0 0 0 .9-.6l.2-.9v-.4l-.7-4.4 4.8-.7.7 4.4c0 .4.2.9.5 1.2.2.2.5.3.9.3a1.7 1.7 0 0 0 .8-.2l.4-.4.2-.9Zm-14.6-12-.9-3.6L446.8 1l1.2 3.7 13.6 6.2ZM447 5l-1-3.5-5 11.6.6 4 5.4-12Zm6.5 6.7c-.4-.2-1-.3-1.4-.3-.5 0-1 .1-1.5.4-1 .5-1.7 1.4-2.3 2.8l-.6 2.4c0 .4 0 .8.2 1.1a3.6 3.6 0 0 0 3.4 2.5c.5 0 1-.2 1.5-.4 1-.5 1.7-1.4 2.3-2.8.3-.7.5-1.6.5-2.5l-.1-1c-.3-1-1-1.7-2-2.2Zm-15.7 1 1.7 11.1-15.5 2.4-2.5-15 12.8-2L437 9l.6 4Zm-1.7 9.9v-.3l-.2-.6-.6-.3a1 1 0 0 0-.8-.1h-1l-4.4.8a17.4 17.4 0 0 1 2-3.5l.5-.7a16.2 16.2 0 0 0 2.2-3.6 6.6 6.6 0 0 0 .2-2.9l-.2-.7a1 1 0 0 0-.4-.5l-.8-.1a6 6 0 0 0-1 0l-5 1c-.6 0-1 .2-1.4.5a1 1 0 0 0-.3.8v.3c0 .4.3.7.7.9l.7.1h.7l4.3-.8c0 .4 0 .7-.2 1-.1.4-.4.9-1 1.5l-.6.8a20 20 0 0 0-2.4 3.5 7.6 7.6 0 0 0-.9 3.1l.1.7.3.9c0 .2.2.3.4.4l.7.2c.5 0 1 0 1.7-.2l4.6-.8c.9-.1 1.4-.3 1.7-.6a1 1 0 0 0 .4-.8Zm2.2-14.8v.3L440 21l.4-2.4-1.9-12.8-.4 2ZM438 3l-15.6 2.5-.9 4.6 15.6-2.4.9-4.7Zm220.4 8h3.3c-.6-3.5-3.6-6-7.6-6-4.7 0-8.2 3.5-8.2 9.3 0 5.6 3.3 9.1 8.3 9.1 4.5 0 7.6-2.8 7.6-7.4v-2.2h-7.3v2.6h4.2c0 2.5-1.8 4.1-4.5 4.1-3 0-5-2.2-5-6.3 0-4 2-6.2 5-6.2 2.1 0 3.6 1.1 4.2 3Zm5.6 12.2h3.2V9.8H664v13.4Zm1.6-15.5c1 0 1.9-.8 1.9-1.7 0-1-.8-1.8-1.9-1.8-1 0-1.8.8-1.8 1.8s.8 1.7 1.8 1.7Zm11.1 2.1h-2.6V6.6h-3.2v3.2h-2v2.4h2v7.5c0 2.5 1.8 3.7 4.2 3.7.7 0 1.3-.2 1.9-.4l-.5-2.4a4 4 0 0 1-1 .1c-.8 0-1.4-.3-1.4-1.5v-7h2.6V9.8Zm2.5 13.4h11.2v-2.7h-8V5.3h-3.2v17.9Zm17.3.2c2 0 3.4-1 4-2v1.8h3.1v-9c0-3.5-3-4.6-5.5-4.6-2.8 0-5 1.3-5.7 3.7l3 .4c.3-.9 1.2-1.7 2.7-1.7 1.5 0 2.3.8 2.3 2v.1c0 1-1 1-3.3 1.2-2.6.3-5.1 1.1-5.1 4.1 0 2.6 1.9 4 4.5 4Zm1-2.3c-1.3 0-2.3-.6-2.3-1.7 0-1.2 1.1-1.8 2.5-2 .9 0 2.5-.3 3-.6v1.6c0 1.5-1.3 2.7-3.2 2.7Zm8.5 2.1h3V21h.2a4 4 0 0 0 4 2.3c3 0 5.5-2.5 5.5-6.9 0-4.5-2.5-6.9-5.6-6.9a4 4 0 0 0-3.9 2.4V5.3h-3.3v17.9Zm3-6.7c0-2.6 1.2-4.3 3.2-4.3 2.1 0 3.2 1.8 3.2 4.3s-1 4.3-3.2 4.3c-2 0-3.1-1.7-3.1-4.3Z"/><path fill="#EBEBEB" d="m639.9 11.4-3.1-8-.4-.4a.8.8 0 0 0-1.2.4l-2 6.4h-8.5l-2.1-6.4a.8.8 0 0 0-.9-.5.8.8 0 0 0-.6.5l-3.1 8a5.6 5.6 0 0 0 1.8 6.6l4.8 3.5 2.3 1.8 1.4 1a1 1 0 0 0 1.2 0l1.4-1 2.3-1.8L638 18a5.7 5.7 0 0 0 1.9-6.6Z"/><path fill="#fff" d="M639.9 11.4c-1.6.3-3 .9-4.2 1.8l-6.8 5.1 4.3 3.2L638 18a5.7 5.7 0 0 0 1.9-6.6Z"/><path fill="#EBEBEB" d="m624.6 21.5 2.3 1.8 1.4 1a1 1 0 0 0 1.2 0l1.4-1 2.3-1.8-4.3-3.2-4.3 3.2Z"/><path fill="#fff" d="M622.1 13.2c-1.2-.9-2.6-1.5-4.1-1.8a5.6 5.6 0 0 0 1.8 6.6l4.8 3.5 4.3-3.2-6.8-5Z"/><path fill="#EBEBEB" d="M840.8 26.5c2.4 0 4.3-1.9 4.3-4.2V18h-4.3a4.3 4.3 0 1 0 0 8.6Z"/><path fill="#fff" d="M836.5 13.7c0-2.4 2-4.3 4.3-4.3h4.3V18h-4.3c-2.3 0-4.3-2-4.3-4.3Z"/><path fill="#EBEBEB" d="M836.5 5.1c0-2.3 2-4.2 4.3-4.2h4.3v8.5h-4.3a4.3 4.3 0 0 1-4.3-4.3Z"/><path fill="#fff" d="M845.1.9h4.3c2.4 0 4.3 1.9 4.3 4.2 0 2.4-2 4.3-4.3 4.3h-4.3V1Z"/><path fill="#EBEBEB" d="M853.8 13.7a4.3 4.3 0 0 1-8.7 0 4.3 4.3 0 0 1 8.6 0Z"/><path fill="#fff" d="M858.3 5.1v13.4h1.8v-6.4h4.2v-1.6h-4.2V6.8h5.5V5.1h-7.3ZM868.8 8c.6 0 1.1-.5 1.1-1.2 0-.6-.5-1-1.1-1-.7 0-1.2.5-1.2 1.1 0 .3.1.6.4.8.2.2.5.3.8.3Zm-1 1.6v9h1.8v-9h-1.8Zm8.4-.2c-2.3 0-4 2-4 4.2s1.7 4.2 4 4.2a3.6 3.6 0 0 0 2.6-1v1.1c0 .8-.3 1.5-.8 2a2.7 2.7 0 0 1-3.5.3l-1 1.5A4.6 4.6 0 0 0 880 20c.5-.7.7-1.5.7-2.3V9.5h-1.8v.8a3.5 3.5 0 0 0-2.6-1Zm-2.2 4.2a2.3 2.3 0 0 1 1.1-2.2c.8-.5 1.8-.5 2.6 0 .7.5 1.2 1.3 1.1 2.2 0 .4 0 .9-.2 1.3s-.5.7-1 1c-.7.4-1.7.4-2.5 0a2.4 2.4 0 0 1-1.1-2.3Zm12.7-2.4c-.5 0-1 .2-1.3.5a2 2 0 0 0-.6 1.4v5.7h-1.7v-9h1.7v.7c.6-.7 1.4-1 2.2-1a3 3 0 0 1 2.7 1.4c.6-.9 1.6-1.5 2.6-1.5 2 0 3.2 1.6 3.2 3.6v5.7h-1.7V13a2 2 0 0 0-.9-1.9 1.8 1.8 0 0 0-2.8 1.9v5.7h-1.6V13c0-.5-.2-1-.6-1.3-.3-.4-.8-.6-1.3-.6Zm17.8-.5a4 4 0 0 0-3-1.3c-2.5 0-4.3 2.2-4.3 4.7 0 2.6 1.8 4.7 4.3 4.7a4 4 0 0 0 3-1.2v1h1.7v-9h-1.7v1.1Zm-5.6 3.5c0-1 .5-2.1 1.4-2.7a2.8 2.8 0 0 1 4 1.2c.2.4.3 1 .2 1.5a3 3 0 0 1-1.3 2.7 2.8 2.8 0 0 1-4-1.2 3 3 0 0 1-.3-1.5Z"/><g fill="#fff" clip-path="url(#d)"><path d="M1027 20.7c-1 0-2-.5-2.5-1.4a3 3 0 0 1 0-2.9l5.2-8c.5-1 1.5-1.4 2.5-1.4s2 .6 2.5 1.5c.5 1 .4 2-.2 2.8l-5.1 8c-.5 1-1.5 1.4-2.4 1.4Zm8.8 0c-1 0-2-.5-2.5-1.4a3 3 0 0 1 0-2.9l5.2-8a2.9 2.9 0 0 1 5 .1c.5 1 .4 2-.2 2.9l-5.1 8c-.5.8-1.4 1.3-2.4 1.3Zm8.6.1c1.5 0 2.7-1.2 2.7-2.6 0-1.4-1.2-2.6-2.7-2.6a2.6 2.6 0 0 0-2.6 2.6c0 1.4 1.2 2.6 2.6 2.6Zm115-5c.8 0 1.3.5 1.3 1.5v3.1h1v-3.2c0-1.6-.7-2.5-2-2.5a2 2 0 0 0-2 1.1c-.3-.6-.8-1-1.5-1h-.6c-.4 0-1.2.2-1.5.9v-.9h-1.1v5.6h1v-3c0-1.2.8-1.6 1.6-1.6s1.2.5 1.2 1.4v3.2h1.1v-3c0-1 .6-1.7 1.5-1.6Zm-10.4 3.7c.5 0 1-.2 1.3-.6.4-.3.6-.8.5-1.3 0-1.1-.8-1.8-1.8-1.8s-1.8.7-1.8 1.8a1.8 1.8 0 0 0 1.8 1.9Zm0 1c-1.6 0-3-1.1-3-2.9 0-1.8 1.4-3 3-3s3 1.2 3 3-1.4 3-3 3Zm-8.5-2.9c0-1.8 1.3-3 3-3 .8 0 1.5.4 2 1l-.7.7c-.4-.4-.9-.6-1.4-.5-1 0-1.8.7-1.8 1.8 0 .8.4 1.5 1.1 1.7.7.3 1.5.2 2-.4l.9.7a3 3 0 0 1-2.2 1 3 3 0 0 1-3-3Zm-3.5 1.8a.8.8 0 0 1 .8-.8.8.8 0 0 1 .7.8c0 .3-.3.7-.8.7a.8.8 0 0 1-.7-.7Zm3-11.7h-3.9l-2.7 7-2.7-7h-3.9l4.7 11-2.9 7.2h3.9l7.5-18.2Zm-23.5 6c0 1.8 1.5 3 3 3s3-1 3-3c0-1.8-1.5-2.8-3-2.8s-3 1.1-3 2.9Zm6 6.2v-1.4c-.8 1.2-2.7 1.7-3.6 1.7a6.2 6.2 0 0 1-6.2-6.4c0-4 3.1-6.4 6.2-6.4.8 0 2.6.3 3.6 1.6V7.7h3.6v12.2h-3.6Zm-10.8 0h-3.6v-1.5c-.6 1.1-2.1 1.8-3.6 1.8-3.2 0-6-2.5-6-6.4 0-4 2.8-6.4 6-6.4 1.5 0 3 .6 3.6 1.7V1h3.6v19Zm-3.7-6.2c0-1.8-1.3-2.9-2.8-2.9a2.8 2.8 0 0 0-2.9 3c0 1.8 1.3 3 2.9 3 1.5 0 2.8-1.3 2.8-3Zm-18.3-.3c0-1.8 1-2.5 2.2-2.5 1.2 0 2.1.9 2.1 2.5v6.5h3.7v-7.3c0-3.5-1.8-5.2-4.5-5.2a4 4 0 0 0-3.5 2V7.7h-3.7v12.2h3.7v-6.5Zm-11 6.7a6.2 6.2 0 0 1-6.4-6.4c0-3.8 2.9-6.3 6.4-6.3 3.4 0 6.3 2.5 6.3 6.3 0 4-2.9 6.4-6.3 6.4Zm0-3.5c1.5 0 2.7-1.1 2.7-2.9 0-1.6-1.2-2.7-2.7-2.7a2.7 2.7 0 0 0-2.8 2.7c0 1.8 1.3 2.9 2.8 2.9Zm-12.9-5.7c1 0 2 .9 2 2.5v6.5h3.6v-7c0-3.6-1.8-5.5-4.7-5.5a4 4 0 0 0-3.6 2.2c-.7-1.5-2-2.2-4-2.2-1.3 0-2.6.8-3.1 2V7.7h-3.7v12.2h3.7v-6.5c0-1.8 1-2.5 2-2.5 1.1 0 2 .9 2.1 2.4v6.6h3.6v-6.5c0-1.8 1-2.5 2.1-2.5Z"/></g><g clip-path="url(#e)"><path fill="#fff" d="M1296.3 1.5h3.4v3.6h-3.4V1.5Zm59.5 0h3.4v3.6h-3.4V1.5Z"/><path fill="#EBEBEB" d="M1288.8 6.4c-2.1 0-3.3 1-4 1.6 0-.5-.4-1.3-1.8-1.3h-3.3v3.4h1.4c.2 0 .3 0 .3.3v15.4h3.8v-6.3a5 5 0 0 0 3.5 1.4c3.7 0 6.3-3 6.3-7.3s-2.5-7.2-6.2-7.2Zm-.7 11.1c-2 0-3-2-3-3.8 0-2.9 1.6-4 3-4 1.8 0 3 1.7 3 4 0 2.6-1.5 3.8-3 3.8Z"/><path fill="#EBEBEB" d="M1300 17V8.7c0-1.4-.7-2-2-2h-3.4V10h1.3c.2 0 .3 0 .3.3v8.1c0 1.4.6 2 2 2h3.4v-3.3h-1.3c-.2 0-.3 0-.3-.3Z"/><path fill="#EBEBEB" d="M1310 6.4c-2.2 0-3.4 1-4 1.6-.1-.5-.5-1.3-2-1.3h-3.2v3.4h1.4c.2 0 .3 0 .3.3v15.4h3.8v-6.3a5 5 0 0 0 3.5 1.4c3.7 0 6.3-3 6.3-7.3s-2.5-7.2-6.2-7.2m-.7 11.1c-2 0-3-2-3-3.8 0-2.9 1.5-4 3-4 1.8 0 3 1.7 3 4 0 2.6-1.5 3.8-3 3.8Zm14-11.1c-4.2 0-7 3-7 7.2a7 7 0 0 0 7.3 7.3c3.3 0 5.4-2 5.5-2.1l.1-.2-1.6-2.8-.3.3s-1.5 1.4-3.5 1.4a3.5 3.5 0 0 1-3.6-3h9v-.3l.1-1.2c0-4-2.4-6.6-6-6.6Zm-3 5.2a2.8 2.8 0 0 1 3-2.1c1 0 2 .9 2 2.1h-5Zm22.9 5.3V3.5c0-1.3-.7-2-2-2h-3.5v3.4h1.4c.2 0 .2 0 .2.3v2.4a5 5 0 0 0-3.5-1.2c-3.7 0-6.3 3-6.3 7.2 0 4.4 2.5 7.3 6.2 7.3a5 5 0 0 0 3.9-1.7c0 .6.4 1.3 1.8 1.3h3.4v-3.3h-1.3c-.2 0-.3 0-.3-.3Zm-6.8.6c-1.8 0-3-1.5-3-3.9 0-2.3 1.2-3.8 3-3.8 2.1 0 3 1.9 3 3.8 0 2.9-1.5 4-3 4Zm16.8-11c-1.5 0-3 1-3.9 2.4v-.3c0-1.3-.7-1.9-2-1.9h-3.3v3.4h1.3c.3 0 .3 0 .3.3v10.1h3.8V15c0-.7.1-1.4.3-2 .6-2 2.1-2.7 3.3-2.7h.8l.3.1V6.6h-.9Zm6.3 10.4V8.8c0-1.4-.6-2-2-2h-3V10h1c.2 0 .2 0 .2.3v8.1c0 1.4.7 2 2 2h3.4v-3.3h-1.3c-.2 0-.3 0-.3-.3Z"/><path fill="#EBEBEB" d="M1373.8 10V6.8h-2c-1.3 0-2 .4-2.3 1.4l-2.5 7-.2.9-.3-.9-2.4-7c-.4-1-1-1.4-2.2-1.4h-2.2v3.4h.6c.3 0 .4 0 .4.3l3.9 10.1h4.3l3.8-10.1c0-.2.2-.3.5-.3h.5Z"/><path fill="#EBEBEB" d="M1386 14.2V13c0-4-2.4-6.6-6-6.6-4.2 0-7 3-7 7.2a7 7 0 0 0 7.3 7.3 8 8 0 0 0 5.5-2.1l.2-.2-1.7-2.8-.2.3s-1.5 1.4-3.5 1.4-3.3-1.2-3.7-3h9v-.3Zm-9-2.6a2.8 2.8 0 0 1 3-2.1c1 0 2 .9 2.1 2.1h-5Z"/><path fill="#fff" d="M1353.2 6.5c-1.3 0-2.4.6-3.3 1.5h4.2V6.6h-1Zm16.3 1.6-.1.5 4.3.3V6.7h-2c-1.2 0-1.8.4-2.2 1.4Zm-80.7-1.7c-2.1 0-3.3 1-4 1.6 0-.5-.4-1.3-1.8-1.3h-3.3v3.4h1.4c.2 0 .3 0 .3.3v8.5l5.3-1.7c-1.1-.7-1.6-2.1-1.6-3.5 0-2.9 1.6-4 3-4 1.8 0 3 1.7 3 4 0 1-.2 1.7-.5 2.3l4.3-1.2v-1.2c0-4.3-2.4-7.2-6-7.2Zm9.2.3h-3.4v3.4h1.3c.2 0 .3 0 .3.3v4.1l3.8-.9V8.8c0-1.4-.7-2-2-2Zm-1.7-5.2h3.4v3.6h-3.4V1.5Zm13.7 4.9c-2.2 0-3.4 1-4 1.6-.1-.5-.5-1.3-2-1.3h-3.1v3.4h1.3c.2 0 .3 0 .3.3V13l3.9-.8c.4-1.8 1.6-2.5 2.8-2.5 1 0 2 .6 2.5 1.5l4-.6c-1-2.7-3-4.3-5.8-4.3Zm13.1 0c-3 0-5.3 1.6-6.4 4.1a233 233 0 0 1 11.5-1.4 5.8 5.8 0 0 0-5-2.7Zm18-4.9h-3.5v3.4h1.4c.2 0 .2 0 .2.3v2.4a5 5 0 0 0-3.5-1.2c-2 0-3.8 1-5 2.5 4.2-.3 8.3-.6 12.4-.7V3.5c0-1.3-.7-2-2-2Zm6.1 5.2h-3.3v1.4h5.3c-.2-1-.9-1.4-2-1.4Zm8.6-5.2h3.4v3.6h-3.4V1.5Zm1.6 5.2h-3V8l5 .1c-.2-1-.9-1.4-2-1.4Zm4.5 0h-2.2v1.4l4.4.2V8c-.4-1-1-1.4-2.2-1.4Zm18-.3a7 7 0 0 0-5.5 2.6l5.4.5.8.1 5 .6a6 6 0 0 0-5.7-3.8Z"/></g><path fill="#fff" d="M19.8 49.1A8.3 8.3 0 0 1 33.2 51a10 10 0 0 1 4.2-.9c2.6.2 5 1.4 6.9 3.3a10.6 10.6 0 0 1 0 14.4c-1.8 2-4.3 3.2-7 3.4-.6 0-1.3 0-2-.2a7.5 7.5 0 0 1-9.9 3.1 8.6 8.6 0 0 1-8 5.3 8.5 8.5 0 0 1-7.8-5.7l-1.7.2a7.9 7.9 0 0 1-5.6-2.4A8.1 8.1 0 0 1 0 65.6a8.3 8.3 0 0 1 4-7 9.7 9.7 0 0 1 1.9-10.4 9.2 9.2 0 0 1 13.9 1Z"/><path fill="#000" d="m6.9 63 .3.3c.4.2.9.3 1.4.3 1 0 1.6-.5 1.6-1.4 0-.7-.7-1-1.4-1.2-.5-.2-1-.3-1-.6s.3-.5.7-.5l1.2.3h.2l.2-.6a3 3 0 0 0-1.5-.5c-1 0-1.6.6-1.6 1.4 0 .8.7 1 1.3 1.3h.2c.4 0 .8.2.8.6 0 .3-.2.5-.7.5-.4 0-.9-.1-1.2-.3l-.2-.1s-.1-.1-.1 0l-.2.5Zm14.3 0 .3.3c.4.2 1 .3 1.4.3 1 0 1.6-.5 1.6-1.4 0-.7-.7-1-1.3-1.2H23c-.5-.2-.9-.3-.9-.6s.2-.5.6-.5a2.8 2.8 0 0 1 1.3.3l.3-.6c-.4-.3-1-.5-1.4-.5h-.1c-1 0-1.5.6-1.5 1.4 0 .8.6 1 1.3 1.3.6 0 1 .2 1 .6 0 .3-.3.5-.7.5-.5 0-.9-.1-1.3-.3l-.2-.1-.3.5Zm9.8-1.7-.3 1.2a1 1 0 0 1-.8.4 1 1 0 0 1-.8-.4c-.2-.4-.3-.8-.2-1.2 0-.4 0-.8.2-1.1a1 1 0 0 1 .8-.4 1 1 0 0 1 .8.4c.2.3.3.7.3 1.1Zm.8-.9-.4-.7-.6-.5-.9-.2-.9.2-.6.5-.4.7a3 3 0 0 0 0 1.8l.4.8.6.4 1 .2a2 2 0 0 0 1.4-.6l.4-.8v-1.8Zm6.7 2.3h-1a1.2 1.2 0 0 1-.9-.3c-.2-.3-.4-.7-.3-1.1 0-.4 0-.8.3-1.1a1.1 1.1 0 0 1 .9-.4h.9s0 .1 0 0l.2-.5v-.1L38 59h-.7l-.9.2-.6.5-.4.7-.2 1c0 .5.2 1.1.6 1.6a2 2 0 0 0 1.6.6c.4 0 .8 0 1.1-.2 0 0 .1 0 0-.1l-.1-.6Zm1.4-1.8.2-.7a.9.9 0 0 1 .8-.4.8.8 0 0 1 .8.4l.2.7h-2Zm2.8-.6a3 3 0 0 0-.4-.7 2 2 0 0 0-.5-.4 2 2 0 0 0-1.7 0 1 1 0 0 0-.6.5l-.4.8a3 3 0 0 0 0 1.7 1.9 1.9 0 0 0 1 1.2l1 .2c.5 0 1 0 1.5-.3v-.1l-.2-.6h-.1c-.4.2-.7.3-1.1.3-.4 0-.7-.1-1-.3-.2-.3-.3-.6-.3-1h2.8v-1.3Zm-25 .6.3-.7a.9.9 0 0 1 .8-.4.8.8 0 0 1 .8.4l.2.7h-2Zm2.8-.6a3 3 0 0 0-.3-.6 2 2 0 0 0-.5-.4 2 2 0 0 0-2.4.5 3 3 0 0 0-.4 2.5 1.9 1.9 0 0 0 1.1 1.2l1 .1c.5 0 1 0 1.5-.2v-.2l-.2-.5h-.1c-.4.2-.8.2-1.1.2-.4 0-.7 0-1-.3-.2-.3-.3-.6-.3-1h2.8v-1.2Zm-8.7 2.5-.2-.2v-.4a.6.6 0 0 1 .2-.5 1 1 0 0 1 .8-.2h.8v1.3l-.8.1c-.3 0-.5 0-.8-.2Zm1.1-2h-1.1l-.6.3-.4.5-.1.6.1.7.4.4.5.3h1.6l.7-.2h.2v-2.7a1.5 1.5 0 0 0-.4-1.3 2 2 0 0 0-1.3-.4l-.7.1a2.3 2.3 0 0 0-.9.4l.2.6h.1a3 3 0 0 1 1.3-.3c.2 0 .5 0 .6.2.2.1.3.3.3.7h-.5Zm22.3-1.5-.5-.2c-.3 0-.5 0-.7.2l-.5.3v-.4h-.8v4.3h.8v-2.2a1.8 1.8 0 0 1 .4-1.1l.3-.2h.7l.3-.7Z"/><path fill="#000" d="m28.4 57.4-.3-.1h-.4c-.4 0-.8 0-1.1.4-.3.3-.5.8-.6 1.3v.1h-.6v.1l-.2.6h.7l-.6 3.6-.2.7-.2.4-.2.2h-.8c0 .2-.2.4-.3.5a.2.2 0 0 0 0 .2h.7a1.4 1.4 0 0 0 1.3-.4l.3-.6.2-1 .7-3.6h.9l.2-.6V59h-1l.2-.6.1-.3.3-.2h.7l.2-.6Zm-12.4 6h-.8v-6h.8v6Z"/><path fill="#fff" fill-rule="evenodd" d="m145.8 67.8.9-2c1 .7 2.3 1 3.6 1 1 0 1.6-.3 1.6-.9 0-1.5-5.8-.3-5.8-4.2 0-2 1.7-3.6 4.2-3.6 1.5 0 3 .4 4 1.2l-.8 2.2c-1-.6-2.1-1-3.3-1-.8 0-1.3.3-1.3.8 0 1.5 5.8.7 5.8 4.4 0 2-1.7 3.5-4.2 3.5a8 8 0 0 1-4.7-1.4Zm35-2.8a2.7 2.7 0 0 1-2.2 1.3 2.6 2.6 0 0 1-2.7-2.6 2.6 2.6 0 0 1 4-2.3c.4.2.7.5 1 1l2.5-1.4a5.5 5.5 0 1 0 0 5.4l-2.5-1.4ZM156 53.5h3.2V69H156V53.5Zm28.6 0V69h3.2v-4.6l3.7 4.6h4l-4.7-5.5 4.4-5.1h-3.9l-3.5 4.2v-9h-3.2Z" clip-rule="evenodd"/><path fill="#fff" d="M168.5 65a2.9 2.9 0 0 1-2.4 1.3 2.6 2.6 0 0 1-2.7-2.6 2.6 2.6 0 0 1 2.7-2.7 2.8 2.8 0 0 1 2.4 1.4V65Zm0-6.6v1.2c-.5-.9-1.8-1.5-3.1-1.5-2.8 0-5 2.5-5 5.5s2.2 5.6 5 5.6c1.3 0 2.6-.6 3.1-1.5v1.2h3.2V58.4h-3.2Z"/><path fill="#fff" fill-rule="evenodd" d="M126.3 65a2 2 0 0 1-2 2 2 2 0 0 1-2-2 2 2 0 0 1 2-2h2v2Zm1 0a2 2 0 0 1 3.2-1.2c.3.3.6.7.6 1.2v4.8a2 2 0 0 1-3.9 0V65Zm1.9-7.9a2 2 0 0 1-2-1.9 2 2 0 0 1 3.5-1.6 2 2 0 0 1 .4 1.6v2h-1.9Zm0 1a2 2 0 0 1 0 4h-4.9a2 2 0 1 1 0-4h5Zm7.8 2a2 2 0 0 1 2-2 2 2 0 0 1 0 4h-2v-2Zm-1 0a2 2 0 0 1-3.3 1.4 2 2 0 0 1-.6-1.4v-4.9a2 2 0 0 1 2-2 2 2 0 0 1 2 2v5Zm-2 7.8a2 2 0 0 1 2 2 2 2 0 0 1-2 1.9 2 2 0 0 1-1.9-2v-2h2Zm0-1a2 2 0 0 1-1.3-3.3 2 2 0 0 1 1.4-.6h4.9a2 2 0 0 1 1.9 2 2 2 0 0 1-2 2h-4.8Z" clip-rule="evenodd"/><path fill="#fff" d="M288.9 58.5A6.6 6.6 0 0 0 283 62a6.7 6.7 0 0 0-9.8-2.2v-5.5a1.3 1.3 0 1 0-2.7 0v11a6.6 6.6 0 0 0 12.5 3 6.6 6.6 0 1 0 5.9-9.8Zm-11.7 10.6a4 4 0 1 1 0-8 4 4 0 0 1 0 8Zm11.7 0a4 4 0 1 1 0-8 4 4 0 0 1 0 8Z"/><path fill="#fff" d="m304.4 69.7-3.4-4.5 3.4-4.6a1.3 1.3 0 0 0-1.2-2c-.4 0-.7.2-1 .4l-2.8 4-3-4a1.3 1.3 0 0 0-2 1.6l3.3 4.6-3.4 4.5a1.3 1.3 0 0 0 2.1 1.6l3-4 2.9 4a1.4 1.4 0 0 0 1.8.2 1.3 1.3 0 0 0 .3-1.8Z"/><g clip-path="url(#f)"><path fill="#fff" d="M390.8 73.3a11 11 0 0 0 11.2-11c0-6-5-10.9-11.2-10.9a11 11 0 0 0-11.1 11c0 6 5 11 11.1 11Z"/><path fill="#000" d="m385 62.3 2-1.8V60a.3.3 0 0 0-.6 0l-1.9 1.9-1.9-2a.3.3 0 0 0-.5 0v.6l2 1.8-2 1.9a.3.3 0 0 0 0 .2.3.3 0 0 0 0 .3.3.3 0 0 0 .4 0h.1l2-1.9 1.8 1.9a.3.3 0 0 0 .6 0v-.3a.3.3 0 0 0 0-.2l-2-1.9m11.4 0c0 .4.2.6.6.6l.4-.1a.6.6 0 0 0 0-.9.6.6 0 0 0-.4-.2c-.4 0-.6.3-.6.6m-1.2 0c0-1 .8-1.7 1.8-1.7s1.8.8 1.8 1.7c0 1-.8 1.8-1.8 1.8-.5 0-1-.2-1.3-.5-.3-.4-.5-.8-.5-1.3Zm-.7 0c0 1.4 1.1 2.5 2.5 2.5s2.5-1.1 2.5-2.5c0-1.3-1.1-2.4-2.5-2.4-.7 0-1.3.2-1.8.7-.5.5-.7 1-.7 1.7Zm-.2-2.4h-.1l-.9.3-.1-.2a.3.3 0 0 0-.3 0 .3.3 0 0 0-.3.3v4.1l.1.2a.3.3 0 0 0 .5 0l.1-.2V62c0-.9.1-1.2.8-1.3h.2c.2 0 .3-.2.3-.3a.3.3 0 0 0-.3-.4m-6.6 2c.1-.4.4-.7.7-1a1.8 1.8 0 0 1 2.2 0c.3.3.6.6.6 1h-3.5Zm4.2 0a2.4 2.4 0 0 0-2.5-2c-.5 0-1 .2-1.4.4a2.5 2.5 0 0 0-1 2.6l.8 1.3a2.6 2.6 0 0 0 3 .2c.3-.1.5-.3.7-.6v-.5h-.5l-.2.2a2 2 0 0 1-.5.4 1.8 1.8 0 0 1-2.5-1l-.1-.2v-.1h3.6c.5 0 .7-.3.6-.7Z"/></g><path fill="#fff" fill-rule="evenodd" d="M502.6 74.3V61.7h-5v12.6h5Zm.4-13.7 8.4-10.3h-5.1l-8.4 10.3h5Zm.9 1v12.7h5V68c0-1.3 1.3-2.4 3.5-1.8v-4.5c-1.7-.4-3.6 1.3-3.6 2.1v-2.1H504Z" clip-rule="evenodd"/><path fill="#fff" fill-rule="evenodd" d="M518 61.6a6.4 6.4 0 1 0 0 12.9 6.4 6.4 0 0 0 0-12.9Zm0 4.5a2 2 0 1 1 0 3.9 2 2 0 0 1 0-4Zm-41-4.4v12.6h5v-7.6c0-1.4 2.2-1.8 2.2.1v7.5h5v-7.6c0-1.7 2.2-2 2.2 0v7.6h4.9v-9.2c0-3-2.9-3.7-4-3.7-1.2.1-2.9.6-3.3 2.1-.4-1.8-2.6-2.1-3.9-2A4 4 0 0 0 482 63v-1.3h-5Z" clip-rule="evenodd"/><path fill="#fff" d="M649.7 54.5h-3.4v3.4h3.4a1.5 1.5 0 0 1 1.5 1.5 1.5 1.5 0 0 1-.4 1 1.5 1.5 0 0 1-1 .5h-3.5v3.4h3.4a5 5 0 0 0 5-4.9 5 5 0 0 0-5-5ZM630 72.8c4.2 0 7.8-2.5 9.5-6h4.4v6h2.5v-6h3.4a7.4 7.4 0 1 0 0-14.8h-6v8.9h-3.5c-.7-5-5-9-10.3-9h-12.2l-12.2 20.9h3l3.4-6h12.5v6h5.5Zm30.8-13.4c0 6-5 10.9-11 10.9v5.9h-9.4v-4.6a14 14 0 0 1-10.4 4.6h-9v-6h-7l-3.5 6h-11l16.2-27.7H630a14 14 0 0 1 10.4 4.7v-4.7h9.4a11 11 0 0 1 11 10.9Zm-39.8-5V61h-5.5l-2 3.5h11v-10H621Zm17 8a8 8 0 0 1-8 7.9h-3v-3.5h3a4.5 4.5 0 0 0 4.5-4.4 4.4 4.4 0 0 0-4.5-4.5h-3v-3.4h3a8 8 0 0 1 8 7.9"/><g fill="#fff" clip-path="url(#g)"><path d="M854.9 64v-3.5c0-3.3 1.7-5.3 4.4-5.3 1.6 0 2.6.6 3.4 1.4l-1 1.4c-.7-.6-1.3-1-2.4-1-1.6 0-2.5 1.2-2.5 3.4V64c0 2.1.8 3.2 2.4 3.2 1.1 0 1.9-.4 2.5-1l.8 1.5a5 5 0 0 1-3.4 1.4c-2.6 0-4.2-2-4.2-5Zm16.5-.8v1c0 2.9-1.4 5-4 5s-4-2-4-5v-1c0-2.8 1.4-4.8 4-4.8s4 2 4 4.8Zm-6 0v1c0 2 .7 3.1 2 3.1s2-1 2-3v-1.1c0-2-.7-3-2-3s-2 1-2 3Zm14.7-1.4v7h-2V62c0-1.3-.5-1.8-1.3-1.8-.7 0-1.3.4-1.8 1.2v7.4h-2V58.7h1.7l.2 1c.6-.9 1.4-1.3 2.5-1.3 1.5 0 2.7 1.2 2.7 3.4Zm1.2 5.9.9-1.3c.7.6 1.4 1 2.4 1s1.7-.3 1.7-1.1V66c0-.7-.4-1-1.5-1.4l-1-.5c-1.3-.5-2-1.3-2-2.5v-.4c0-1.7 1.3-2.8 3.1-2.8a5 5 0 0 1 3.3 1.3l-1 1.3c-.8-.6-1.4-.8-2.2-.8-.9 0-1.3.5-1.3 1v.1c0 .6.3.9 1.4 1.4l1 .4c1.2.6 2.1 1.2 2.1 2.8v.4c0 1.8-1.6 2.8-3.4 2.8a5.7 5.7 0 0 1-3.5-1.5Zm13.2 1.1c-.4.2-1 .2-1.5.2-1.6 0-2.6-.8-2.6-2.7v-5.9h-1.3v-1.7h1.3l.2-2.5h1.7v2.5h1.9v1.7h-1.9v5.7c0 .7.4 1.1 1 1.1h1l.2 1.6Zm6.4-10.2-.3 2.2h-.5c-1 0-1.8.4-2.3 2v6h-2V58.7h1.5l.3 1.6c.6-1.4 1.5-1.9 2.3-1.9l1 .2Zm8.1.1v10h-1.7l-.1-1c-.7.9-1.5 1.4-2.6 1.4-1.5 0-2.7-1.2-2.7-3v-7.3h2v7c0 1 .4 1.5 1.2 1.5.7 0 1.4-.5 1.9-1.3v-7.3h2Zm1.6 5.5v-.9c0-2.9 1.4-5 3.8-5 1.2 0 2 .5 2.8 1.4l-.9 1.3a2 2 0 0 0-1.7-.8c-1.3 0-2 1-2 3v1c0 2 .7 3 2 3 .8 0 1.3-.4 1.8-.8l.8 1.5c-.7.7-1.8 1.1-2.8 1.1-2.4 0-3.8-2-3.8-4.8Zm12.9 4.6c-.4.2-1 .2-1.5.2-1.7 0-2.6-.8-2.6-2.7v-5.9h-1.3v-1.7h1.3l.1-2.5h1.8v2.5h1.8v1.7h-1.7v5.7c0 .7.3 1.1 1 1.1h.9l.2 1.6Zm3.9-10.1v10h-2v-8.3h-1.2v-1.7h3.2Zm-2.2-3c0-.8.5-1.4 1.1-1.4.7 0 1.2.6 1.2 1.4 0 .8-.5 1.4-1.2 1.4-.6 0-1.1-.6-1.1-1.4Zm11.8 7.5v1c0 2.9-1.4 5-4 5-2.7 0-4-2-4-5v-1c0-2.8 1.3-4.8 4-4.8 2.6 0 4 2 4 4.8Zm-6 0v1c0 2 .6 3.1 2 3.1 1.2 0 2-1 2-3v-1.1c0-2-.8-3-2-3-1.4 0-2 1-2 3Zm14.6-1.4v7h-2V62c0-1.3-.5-1.8-1.2-1.8-.8 0-1.4.4-1.9 1.2v7.4h-2V58.7h1.8v1a3 3 0 0 1 2.6-1.3c1.5 0 2.7 1.2 2.7 3.4Zm5.9 2.2v-3.5c0-3.3 1.7-5.3 4.5-5.3 1.5 0 2.5.6 3.4 1.4l-1 1.4c-.7-.6-1.4-1-2.4-1-1.7 0-2.6 1.2-2.6 3.4V64c0 2.1.8 3.2 2.4 3.2 1.1 0 2-.4 2.5-1l.9 1.5a5 5 0 0 1-3.4 1.4c-2.7 0-4.3-2-4.3-5Zm11.2 2.4c0 .6.1.8.6.8h.3l.2 1.7-1.1.2c-1.2 0-2-.8-2-2.3V54.7h2v11.7Zm9.7-3.2v1c0 2.9-1.3 5-4 5-2.6 0-4-2-4-5v-1c0-2.8 1.4-4.8 4-4.8 2.7 0 4 2 4 4.8Zm-6 0v1c0 2 .7 3.1 2 3.1s2-1 2-3v-1.1c0-2-.7-3-2-3s-2 1-2 3Zm14.6-4.5v10h-1.7l-.1-1c-.7.9-1.5 1.4-2.6 1.4-1.5 0-2.7-1.2-2.7-3v-7.3h2v7c0 1 .4 1.5 1.2 1.5.7 0 1.4-.5 1.9-1.3v-7.3h2Zm9-4v14h-1.5l-.2-1a3 3 0 0 1-2.4 1.3c-2 0-3.3-1.9-3.3-4.8v-1c0-2.9 1.3-4.8 3.4-4.8.9 0 1.5.3 2 .8v-4.5h2ZM988 66v-5a2 2 0 0 0-1.6-1c-1.2 0-1.9 1-1.9 3v1.2c0 2 .7 3 1.8 3 .8 0 1.3-.5 1.8-1.2ZM850 55.5h-3.4l-4 5.4v-5.4h-2.9v13.3h2.8v-5l3.9 5h3.6l-5.2-6.6 5.2-6.7ZM835.1 61l-2.6-.4c-1.5-.2-1.9-.6-1.9-1.2 0-.7.8-1.3 2.3-1.3 1.4 0 2.2.6 2.4 1.6h2.8c-.2-2.8-2.1-4.5-5-4.5-3.4 0-5.2 1.6-5.2 4.5 0 2.4 1.1 3.5 3.6 3.8l2.6.3c1 .1 1.4.6 1.4 1.2 0 .7-.6 1.3-2.3 1.3-1.9 0-2.6-.6-2.7-1.7h-2.8c.2 3 1.8 4.6 5.4 4.6 3.3 0 5.1-1.7 5.1-4.3 0-2.3-1-3.6-3-4Zm-17.5 7.8h9v-3h-6.2v-2.3h5v-2.9h-5v-2.2h6.2v-3h-9v13.4Zm-6.7-13.3h-5.3v13.3h5.3c4 0 5-1.8 5-6.7 0-4.7-1-6.6-5-6.6Zm-.1 10.4h-2.3v-7.6h2.3c1.8 0 2.3.5 2.3 3.7 0 2.9-.6 3.9-2.3 3.9ZM798 55c-4 0-6.2 3-6.2 7 0 4.1 2.1 7.1 6.2 7.1 4 0 6.1-3 6.1-7s-2-7-6.1-7Zm0 11.1c-2.1 0-3.3-1.5-3.3-4s1.2-4 3.3-4c2 0 3.3 1.5 3.3 4s-1.2 4-3.3 4Zm-16.6-7.7h3.6v10.4h2.8V58.4h3.6v-3h-10v3Zm-4.1 5.3c0 1.7-1 2.4-2.5 2.4s-2.4-.7-2.4-2.4v-8.2h-2.8V64c0 3.8 2.9 5 5.3 5s5.2-1.2 5.2-5v-8.6h-2.8v8.2Zm-16.1-8.2L757 68.8h3l.7-2.5h4.7l.7 2.5h3l-4.3-13.3h-3.6Zm.3 8 1.6-5.3 1.5 5.3h-3.1Zm-25.6 5.3 10-7.5h5c.3 0 .4.2.4.4l-.1.4-5 3.5c-.3.2-.4.7-.4 1v2.2h6.2V55.9c0-.2-.2-.4-.4-.4h-6l-9.8 7.3v6Z"/></g><path fill="#fff" fill-rule="evenodd" d="M1133 58.8c.3.5.5 1.1.5 1.8V69a2.7 2.7 0 0 0 2.8 2.7h.8V60.6a3.7 3.7 0 0 1 3.7-3.7c.7 0 1.3.1 1.9.5.5.3 1 .8 1.4 1.4.2.5.4 1.2.4 1.8V69a2.7 2.7 0 0 0 2.8 2.7h.9V60.6a7.4 7.4 0 0 0-13-5 7.2 7.2 0 0 0-5.6-2.4 7 7 0 0 0-4.1 1.2c-1-.7-2.1-1.2-3.3-1.2v18.5h.9a2.7 2.7 0 0 0 2.7-2.7v-8.4a3.7 3.7 0 0 1 1-2.7 3.6 3.6 0 0 1 2.6-1 3.6 3.6 0 0 1 3.3 1.9h.3Zm-63.5 13h14.8v-1a2.8 2.8 0 0 0-2.7-2.7h-9.4l11.2-11.2V56a2.8 2.8 0 0 0-2.8-2.7h-15v1a3 3 0 0 0 1 1.8c.4.5 1 .8 1.8.8h9.3l-11.1 11.2v1a3 3 0 0 0 2.8 2.7Zm49.2-16a9.3 9.3 0 1 1-13.1 13.2 9.5 9.5 0 0 1-3-6.6 9.3 9.3 0 0 1 9.5-9.4 9.3 9.3 0 0 1 6.6 2.9Zm-2.6 2.7a5.6 5.6 0 0 1-6 9.1 5.6 5.6 0 0 1-3.5-5.2 5.6 5.6 0 0 1 3.4-5.1 5.5 5.5 0 0 1 6 1.2Zm-23.5-5.3a9.3 9.3 0 0 1 6.6 15.8 9.3 9.3 0 0 1-15.3-6.7c-.1-2.3.7-4.6 2.2-6.4a9 9 0 0 1 6.5-2.7Zm4 5.3a5.6 5.6 0 0 1-7 8.6 5 5 0 0 1-2.1-2.5 5.6 5.6 0 0 1 9.1-6.1Z" clip-rule="evenodd"/><path fill="#fff" d="M1265.5 71.9a9 9 0 0 1-4.8 1.2c-6 0-9.4-3.9-9.4-10 0-6.3 3.4-10.2 9.3-10.2 1.8 0 3.6.3 4.8 1.3v2.6a7.7 7.7 0 0 0-4.8-1.3c-4.3 0-6.8 3-6.8 7.5s2.6 7.5 7 7.5c1.6 0 3.2-.4 4.6-1.2v2.6Zm1.7-6.6c0-4.5 2.4-7.7 6.5-7.7 4.2 0 6.6 3.2 6.6 7.7s-2.4 7.8-6.5 7.8c-4.2 0-6.6-3.3-6.6-7.8Zm2.3 0c0 2.8 1.3 5.4 4.3 5.4 2.9 0 4.2-2.6 4.2-5.4 0-2.9-1.3-5.3-4.3-5.3-2.9 0-4.2 2.5-4.2 5.3Zm25.3 7.5h-2.4v-9c0-2.7-1-4-3.2-4-2.3 0-3.8 1.6-3.8 4.7v8.3h-2.4v-15h2.5v2.5a5 5 0 0 1 1.8-2c.8-.5 1.6-.8 2.5-.7 3.2 0 5 2.4 5 6.4v8.8Zm6.6-15h3.6v2.4h-3.6v12.6h-2.3V60.2h-2.3V58h2.3v-1.7c0-2.8 1.5-4.7 4.4-4.7.6 0 1.1.1 1.6.3v2.4l-1.5-.2c-1.5 0-2.2 1-2.2 2.3V58Zm9.8 15c-2.2 0-3.7-1.1-3.7-3.8V51.6h2.4v17c0 1.4.9 1.9 1.9 1.9h.7v2.2c-.4.2-.8.2-1.3.2Zm3.3-15h2.4V67c0 2.7 1 3.9 3.2 3.9 2.3 0 3.8-1.6 3.8-4.6V58h2.3v14.9h-2.4v-2.5a4.6 4.6 0 0 1-4.3 2.8c-3.2 0-5-2.4-5-6.5V58Zm22 15.3c-5.3 0-7.5-3.2-7.5-7.8s2.3-7.7 6.5-7.7 6 3.1 6 7.7v1.1h-10c.2 2.6 1.8 4.3 5 4.3 1.5 0 2.9-.3 4.2-.9v2.4a9 9 0 0 1-4.3 1Zm-5.2-8.9h7.8c-.1-2.7-1.3-4.3-3.7-4.3-2.3 0-3.8 1.7-4 4.3Zm24.8 8.6h-2.4v-9c0-2.7-1-4-3.3-4-2.2 0-3.7 1.6-3.7 4.7v8.3h-2.4v-15h2.4v2.5a5 5 0 0 1 1.8-2 4 4 0 0 1 2.5-.7c3.2 0 5 2.4 5 6.4v8.8Zm13-.4c-1 .5-2.2.7-3.4.7-4.9 0-7.2-3.2-7.2-7.8s2.3-7.7 7.2-7.7c1.2-.1 2.3.1 3.3.7v2.3c-1-.5-2-.7-3-.7-3.7 0-5.1 2.5-5.1 5.4 0 2.9 1.5 5.4 5 5.4 1.1 0 2.2-.2 3.2-.6v2.3Zm9.4.7c-5.2 0-7.5-3.2-7.5-7.8s2.3-7.7 6.6-7.7c4.2 0 5.9 3.1 5.9 7.7v1.1h-10c.3 2.6 1.8 4.3 5 4.3 1.5 0 2.9-.3 4.2-.9v2.4a9 9 0 0 1-4.2 1Zm-5-8.9h7.6c-.1-2.7-1.3-4.3-3.7-4.3-2.3 0-3.8 1.7-4 4.3Zm-149.6 4.2-.6 1v.6c0 .1 0 .3.2.4l4.1 2.7h.5c.1 0 .3 0 .3-.2l.6-1c1.7-3 3.3-2.5 6.2-1l4.1 2h.5l.3-.3 2-4.8v-.5l-.3-.3-4.1-2.2c-5.5-2.8-10.2-2.6-13.8 3.7v-.1Z"/><path fill="#fff" d="m1242.3 57.6.5-1.1.1-.5-.2-.5-4.2-2.7h-.7l-.1.2-.7 1.1c-1.5 3-3.2 2.5-6.1 1l-4-2h-.6l-.3.3-2 4.8v.5a.6.6 0 0 0 .4.3l4 2.2c5.6 2.8 10.2 2.6 13.8-3.6Zm-1242 75h30v-30H.3v30Z"/><path fill="#000" d="M23.8 112a8 8 0 0 0-11.3 0h-1.3a6.8 6.8 0 0 0-4.9 2 6.8 6.8 0 0 0 4.9 11.6h7.1a8 8 0 0 0 7.8-9.6 8 8 0 0 0-2.3-4Zm-12.6 12.2a5.5 5.5 0 0 1-5.2-6.5c.2-1 .7-2 1.4-2.7 1-1 2.4-1.6 3.8-1.6h.8l.8.2 1.4.7.6.5.2.2 2.2 2.2a.8.8 0 0 1 0 1 .6.6 0 0 1-.5.2.7.7 0 0 1-.6-.2l-1.8-1.7-.3-.4-.2-.2a5 5 0 0 0-1.8-.9h-.8c-1 0-2 .5-2.6 1.2a3.8 3.8 0 0 0 2.7 6.5h.7l.6.6c.3.4.7.6 1.1.9h-2.5Zm11.6-2a6 6 0 0 1-2.4 1.5l-.8.3-1.3.2H18c-1.5 0-3-.6-4.1-1.5l-.5-.5-3-3a.8.8 0 0 1 0-1.1l.2-.2h.2a.7.7 0 0 1 .6.2l3 3 1 .8c.7.5 1.7.7 2.6.7l1.2-.1c.3 0 .6-.2.8-.3l1.6-1a5.1 5.1 0 0 0 0-7.2 5 5 0 0 0-6.4-.6c-.4-.4-.9-.7-1.4-.9a6.6 6.6 0 0 1 9 9.7Z"/><path fill="#fff" d="M124.2 132a2.8 2.8 0 0 1-2.8-2.8 2.8 2.8 0 0 1 5.7 0 2.8 2.8 0 0 1-2.9 2.9Zm2.9.5a1.2 1.2 0 0 0 1 1h.3a.2.2 0 0 0 .3-.3v-8a.2.2 0 0 0-.3-.2h-1a.2.2 0 0 0-.3.3v.6a3.6 3.6 0 0 0-2.9-1.2 4.5 4.5 0 1 0 1.6 8.7 3 3 0 0 0 1.3-1Zm4.3-1.2a4 4 0 0 0 2.3.8c.8 0 1.6-.4 1.6-1.1 0-.7-1.7-1-2.8-1.4-1-.3-2-1.1-2-2.3 0-1.2 1.7-2.6 3.2-2.6 1 0 1.9.2 2.6.7.3.2.1.4.1.4l-.6 1h-.2a.2.2 0 0 1-.1 0c-.5-.4-1.1-.6-1.8-.6-1 0-1.5.5-1.5 1 0 .6.8.9 1.6 1.1 1 .2 3.1.9 3.1 2.7 0 1.8-1.5 2.6-3.2 2.6-1.1 0-2.3-.3-3.3-1a.3.3 0 0 1 0-.3l.6-1a.2.2 0 0 1 .4 0Zm14 1.2a1.2 1.2 0 0 0 1 1h.3a.2.2 0 0 0 .3-.3v-8a.2.2 0 0 0-.3-.2h-1a.2.2 0 0 0-.3.3v.6a3.6 3.6 0 0 0-2.9-1.2 4.5 4.5 0 1 0 1.6 8.7c.5-.2 1-.5 1.3-1Zm-2.9-.4a2.9 2.9 0 0 1-2.8-3 2.9 2.9 0 1 1 5.5 1.2 2.8 2.8 0 0 1-2.7 1.8Zm14.6.6v-4.1c0-2.3-1.5-3.9-3.8-3.9a2.9 2.9 0 0 0-2.4 1.2 1 1 0 0 0-.6-.9 1 1 0 0 0-.4 0h-.4a.2.2 0 0 0-.2.3v8a.2.2 0 0 0 .2.2h1.4v-4.9a2.3 2.3 0 0 1 2.3-2.2 2.2 2.2 0 0 1 2 1.4c.2.2.2.5.2.8v4.8a.3.3 0 0 0 .3.2h1.4v-.9Zm8.7-.2a1.2 1.2 0 0 0 1 1h.4a.3.3 0 0 0 .3-.3v-8a.2.2 0 0 0-.3-.2h-1.1a.2.2 0 0 0-.3.3v.6a3.6 3.6 0 0 0-2.8-1.2 4.5 4.5 0 1 0 1.5 8.7c.5-.2 1-.5 1.3-1Zm-2.8-.4a2.9 2.9 0 0 1-2.8-3 2.8 2.8 0 0 1 5.6 0 2.8 2.8 0 0 1-2.8 3Zm-14.2-21a4 4 0 1 0 0 7.9 4 4 0 0 0 0-7.9Zm-10.2 0a4 4 0 1 0 0 7.9 4 4 0 0 0 0-7.9Zm9-4.9a4 4 0 1 1-7.9 0 4 4 0 0 1 7.9 0Zm125 24h-2.1V122h2v8.2Zm16.7-5.9a4 4 0 0 0-1.8-.4 2.1 2.1 0 0 0-2.2 2.2 2.2 2.2 0 0 0 2.2 2.2 4 4 0 0 0 1.8-.5v2.2a6 6 0 0 1-2 .3c-2.3 0-4.3-1.6-4.3-4.2 0-2.7 1.8-4.3 4.4-4.3l1.9.3v2.2Zm-21.7 0c-.5-.3-1.1-.4-1.7-.4a2.2 2.2 0 1 0 0 4.4c.6 0 1.2-.2 1.7-.5v2.2c-.6.2-1.2.3-1.9.3-2.3 0-4.4-1.6-4.4-4.2a4.2 4.2 0 0 1 4.4-4.3 7 7 0 0 1 2 .3v2.2Zm28.2-.4a2.2 2.2 0 1 0 0 4.3 2.2 2.2 0 0 0 0-4.3Zm4.3 2.2a4.3 4.3 0 1 1-4.3-4.3 4.2 4.2 0 0 1 4.3 4.3Zm-19.7-2.3-1.6-.2c-.9 0-1.3.2-1.3.6 0 .4.6.7 1 .8l.5.2c1.4.5 2 1.4 2 2.3 0 2.1-1.8 2.8-3.4 2.8-.8 0-1.5 0-2.3-.2v-2c.7.3 1.3.4 2 .4 1 0 1.5-.3 1.5-.8 0-.4-.4-.6-1-.7l-.4-.2c-1.1-.4-2-1-2-2.4s1-2.6 3-2.6a7 7 0 0 1 2 .3v1.7Zm-21.2-10.7a1 1 0 0 0-1-1 1 1 0 0 0-1 .6l-.1.4v2.2a1 1 0 0 0 .3.7 1 1 0 0 0 .7.3 1 1 0 0 0 1-1V113Zm5.6-2.8a1 1 0 0 0-1-1 1 1 0 0 0-1 1v5a1 1 0 1 0 2 0v-5Zm5.7-3.8a1 1 0 1 0-2.1 0v10.9a1 1 0 0 0 1 1 1 1 0 0 0 1-1v-11Zm5.6 3.8a1 1 0 0 0-1-1 1 1 0 0 0-1 1v5a1 1 0 0 0 1 1 1 1 0 0 0 1-1v-5Zm5.6 2.8a1 1 0 0 0-.6-1 1 1 0 0 0-.4 0 1 1 0 0 0-1 1v2.2a1 1 0 0 0 .6 1h.4a1 1 0 0 0 1-1V113Zm5.7-2.8a1 1 0 0 0-1-1 1 1 0 0 0-1 1v5a1 1 0 0 0 1.7.7c.2-.2.3-.4.3-.7v-5Zm5.7-3.8a1 1 0 0 0-1-1 1 1 0 0 0-1.1 1v10.9a1 1 0 0 0 1.7.7 1 1 0 0 0 .4-.7v-11Zm5.6 3.8a1 1 0 0 0-2-.5v5.5a1 1 0 0 0 .6 1h.4a1 1 0 0 0 1-1v-5Zm5.7 2.8a1 1 0 0 0-1-1 1 1 0 0 0-1.1 1v2.2a1 1 0 1 0 2 0V113Zm-1.2 15.9v.2h-.4v1h-.2v-1h-.3v-.1h.9Zm0 0h.3l.3 1 .3-1h.3v1.2h-.2v-1l-.3 1h-.2l-.3-1v1h-.2V129Zm118-26h-24.3a3 3 0 0 0-3 3v24.3a3 3 0 0 0 3 3h24.3a3 3 0 0 0 3-3V106a3 3 0 0 0-3-3Z"/><path fill="#000" d="M418.8 107h-6.4c-.8 0-1.4.6-1.4 1.4v10.4c0 .8.6 1.4 1.4 1.4h6.4c.8 0 1.4-.6 1.4-1.4v-10.4c0-.8-.6-1.4-1.4-1.4Zm-13.1 0h-6.4c-.8 0-1.4.6-1.4 1.4v18c0 .8.6 1.4 1.4 1.4h6.4c.7 0 1.4-.6 1.4-1.4v-18c0-.8-.7-1.4-1.4-1.4Z"/><path fill="#fff" d="M531.6 134.8a17 17 0 0 1-5.6-32c4-2 9-2.3 13.3-.8a17 17 0 0 1 10.7 19.6 17 17 0 0 1-18.4 13.2Zm1-15.2v-8.4h-2.2c-2.6 0-3.4 0-4.4.3a6.6 6.6 0 0 0-4.4 4.8 8 8 0 0 0 0 3.1 6.8 6.8 0 0 0 4.4 5c.7.2.9.3 1.8.3h1v-2.4h-.8a4 4 0 0 1-3-1.3 4.4 4.4 0 0 1 1.2-7c.9-.3 1.2-.4 2.8-.4h1.3V128h2.4v-8.3Zm7.1 5a6.6 6.6 0 0 0 5.7-6.7l-.1-1.7a6.8 6.8 0 0 0-6.3-5h-1l.1 1.2v1.2h.9c1 0 1.3.2 1.9.5.9.6 1.6 1.4 2 2.3.1.6.2 2 0 2.7a4.2 4.2 0 0 1-2.2 2.7 6 6 0 0 1-3 .5h-1.1V108h-2.5v16.8h5.6Z"/><g fill="#fff" clip-path="url(#h)"><path d="m655.8 100-11.2.8c-.7.1-1.3.6-1.6 1.2l-.2.5v24.7l.4.8 3.3 4.4c3 4 3.3 4.2 4.5 4.4l5.7-.3 10-.6c11.6-.7 11-.6 11.7-1.2.8-.7.7.5.8-14.6 0-12.7 0-13.5-.2-14-.2-.4-.6-.7-5.9-4.3-3.5-2.5-3.8-2.6-5.4-2.7l-11.9.8Zm13.3 1.5a55.6 55.6 0 0 1 4.8 3.6 812 812 0 0 1-23.3 1.4 3 3 0 0 1-1-.4c-1-.7-3.6-2.8-3.6-3 0-.3 0-.3 10-1l7-.6c4.1-.3 5.4-.3 6.1 0Zm7.2 6.5c.2.1.3.5.3.8v11.7c0 10.5 0 11.2-.2 11.5 0 .2-.3.4-.5.5a593 593 0 0 1-24.6 1.3l-.7-.4-.3-.3V110l.5-.6c.2-.1 1.6-.3 6.4-.6l11.6-.6c7.2-.5 7.1-.5 7.5-.1Z"/><path d="M670 111.9c-1.3 0-2.5.2-2.6.3-.4.2-.6.5-.7.9 0 .4.1.4 1.4.6h.5v10a716.1 716.1 0 0 1-7.5-11.3 48.5 48.5 0 0 0-6 .5c-.4.2-.8.8-.8 1.3 0 .2.4.3 1.4.3h.5V129l-.8.3c-.6.1-.9.3-1 .5-.2.4-.1.8 0 .8l3-.2c3-.2 3.4-.3 3.7-.9l.2-.5-1-.3-1-.2c-.3 0-.3-.4-.3-5.5v-5.4l3.6 5.6c3.8 5.9 4.3 6.5 4.9 6.8.7.4 2.5.2 3.5-.4l.2-.2v-8l.1-8.1.6-.1c.8-.2 1.1-.5 1.1-1s0-.5-.4-.5l-2.7.2Z"/></g><g clip-path="url(#i)"><path fill="#fff" d="m772 128.6 6.1-4.7c3.3 4.2 6.7 6.2 10.5 6.2s7.1-2 10.2-6.1l6.2 4.5c-4.5 6-10 9.2-16.4 9.2-6.4 0-12-3.1-16.5-9.1Zm16.6-20.3-10.8 9.3-5-5.7 15.8-13.7 15.7 13.7-5 5.7-10.7-9.3Z"/></g><path fill="#fff" d="m912.7 110.1-7.4 4.8 7.4 4.7-7.4 4.7-7.4-4.8 7.4-4.7-7.4-4.7 7.4-4.7 7.4 4.7Zm-7.4 15.7 7.4-4.7 7.3 4.7-7.3 4.7-7.4-4.7Zm7.4-6.3 7.4-4.7-7.4-4.7 7.3-4.7 7.4 4.7-7.4 4.8 7.4 4.7-7.4 4.7-7.3-4.8Zm20.5-9.4h6c3.8 0 7 2.2 7 7.3v1c0 5-3 7.4-6.9 7.4h-6.1v-15.7Zm3.4 2.8v10h2.6c2 0 3.5-1.4 3.5-4.6v-.8c0-3.1-1.5-4.6-3.7-4.6h-2.4Zm11.3.2h2.7l.5 3c.5-2 1.7-3 4.1-3h.8v3.3h-1.3c-2.7 0-3.4 1-3.4 3.6v5.8H948v-12.7Zm8.8 6.6v-.3c0-4.3 2.7-6.6 6.4-6.6s6.4 2.3 6.4 6.6v.3c0 4.2-2.5 6.5-6.4 6.5-3.8 0-6.4-2.3-6.4-6.5Zm9.4 0v-.3c0-2.4-1.2-3.8-3-3.8-2 0-3.1 1.3-3.1 3.8v.3c0 2.3 1.2 3.6 3 3.6 2 0 3.1-1.3 3.1-3.6Zm5.2-6.6h2.7l.4 2.4a4.3 4.3 0 0 1 4.1-2.7c3.3 0 5.3 2.3 5.3 6.6v.4c0 4.1-2.3 6.4-5.3 6.4-2 0-3.4-1-4-2.4v6.4h-3.3v-17Zm9.2 6.6v-.3c0-2.5-1.3-3.8-3-3.8s-3 1.5-3 3.8v.3c0 2.2 1.1 3.6 3 3.6 1.8 0 3-1.3 3-3.6Zm8.2 3.8-.2 2.3h-2.9v-17h3.3v6.6c.6-1.7 2-2.6 4-2.6 3.1 0 5.4 2.2 5.4 6.4v.3c0 4.2-2.2 6.7-5.4 6.7-2.1 0-3.5-1-4.2-2.7Zm6.2-4v-.3c0-2.3-1.3-3.6-3-3.6-1.8 0-3.1 1.5-3.1 3.7v.2c0 2.4 1.2 3.8 3 3.8s3-1.3 3-3.8Zm4.7.2v-.3c0-4.3 2.8-6.6 6.5-6.6s6.4 2.3 6.4 6.6v.3c0 4.2-2.6 6.5-6.4 6.5-3.8 0-6.5-2.3-6.5-6.5Zm9.6 0v-.3c0-2.4-1.2-3.8-3-3.8-2 0-3.2 1.3-3.2 3.8v.3c0 2.3 1.2 3.6 3.1 3.6 1.9 0 3-1.3 3-3.6Zm7.6-.5-4.4-6h3.8l2.6 3.8 2.6-3.9h3.7l-4.5 6.1 4.8 6.6h-3.8l-2.9-4.2-2.8 4.2h-3.9l4.8-6.6Zm125.3-8.4h2v10c0 2.6-1.2 4.4-4 4.4-.7 0-1.5 0-2.3-.3v-2c.7.3 1.4.5 2 .4 1.7 0 2.3-1 2.3-2.4v-10.1Zm5.6-.8c.3 0 .6.1.8.3.3.2.4.5.5.9v.7l-.3.5a1.3 1.3 0 0 1-2.3-.5v-1.1l.2-.4.4-.3.5-.1h.2Zm-1 4.2h1.9v11h-1.9v-11Zm4.8 0h1.8v2c.6-1.3 1.7-2.2 3.9-2.1v1.8c-2.5-.2-4 .5-4 2.8v6.5h-1.7v-11Zm14.5 9c-.4.7-.9 1.3-1.6 1.7-.6.4-1.4.6-2.2.5-2.8 0-4.3-2.5-4.3-5.7s1.5-5.7 4.6-5.7a3.5 3.5 0 0 1 3.5 2.2v-2h1.9v11h-2v-2Zm-3.2.5c1.7 0 3.2-1.1 3.2-3.6v-.9c0-2.4-1.4-3.5-3-3.5s-3.2 1.4-3.2 4c0 2.5 1 4 3 4Zm16.2 1.7c-1.8 0-3.6-.3-5.2-1.1v-2c1.7.8 3.5 1.2 5.3 1.2 2.2 0 3-.9 3-2.1 0-1.3-.8-2-3.5-2.7-2.7-.7-4.7-2-4.7-4.2 0-2.4 1.7-4 5-4 1.6 0 3.1.4 4.5 1.1v2c-1.4-.8-3-1.2-4.6-1.1-1.8 0-3 .6-3 2 0 1.3 1 1.7 3.5 2.3 2.6.7 4.8 1.8 4.8 4.4 0 2.6-1.5 4.2-5.1 4.2Zm6.8-5.7c0-3.3 1.9-5.7 5.1-5.7 3.3 0 5.2 2.4 5.2 5.7 0 3.2-1.9 5.7-5.2 5.7-3.3 0-5.2-2.4-5.2-5.7Zm1.8 0c0 2 1 4 3.3 4s3.4-2 3.4-4c0-2.1-1-4-3.4-4-2.3 0-3.3 1.9-3.3 4Zm13.4-5.5h2.7v1.7h-2.8v9.2h-1.9V116h-1.7v-1.7h1.8V113c0-2 1-3.4 3.5-3.4.4 0 .8 0 1.2.2v1.7h-1.2a1.5 1.5 0 0 0-1.3.3l-.3.6c-.1.2-.2.4-.1.7v1.1Zm9.1 9.1 1.2-.1v1.8c-.4.1-.9.2-1.3.1-2.3 0-3.5-1.3-3.5-3.4V116h-1.8v-1.7h1.8V112h1.8v2.3h3v1.7h-3v5.8c0 1 .6 1.6 1.8 1.6Zm1.7-9.1h2l3.2 9.3 3.2-9.3h1.8l3.2 9.3 3.1-9.3h2.1l-4 11h-2.4l-1.9-5.3-1-3.4-1 3.4-2 5.2h-2.3l-4-10.9Zm27.2 9a3.8 3.8 0 0 1-3.6 2.2c-3 0-4.5-2.5-4.5-5.7s1.6-5.7 4.7-5.7a3.5 3.5 0 0 1 3.4 2.2v-2h2v11h-2v-2Zm-3.2.5c1.8 0 3.2-1.1 3.2-3.6v-.9c0-2.4-1.3-3.5-3-3.5-1.5 0-3.1 1.4-3.1 4 0 2.5 1 4 3 4Zm8-9.5h1.8v2c.7-1.3 1.8-2.2 4-2.1v1.8c-2.5-.2-4 .5-4 2.8v6.5h-1.8v-11Zm12.4 11.2c-4.1 0-6-2.4-6-5.7 0-3.4 2-5.7 5.3-5.7s4.7 2.4 4.7 5.7v.8h-8c.2 1.9 1.5 3.1 4 3.1 1.1 0 2.3-.2 3.4-.6v1.8c-1.1.4-2.3.6-3.4.6Zm-4-6.5h6c0-2-1-3.2-2.8-3.2-1.9 0-3 1.3-3.3 3.2Zm-119.2-1.5-8.2-8-.7-.9-6.1 6.2-2.8 2.7-.2.3v.6l.2.2 5.5 5.6 3.4 3.3 6-6 .1-.2 2.8-2.7.2-.5-.3-.6Zm-9 3.4-2.8-2.8 2.8-2.8 2.8 2.8-2.8 2.8Z"/><path fill="#EBEBEB" d="M1124 115.2a4.7 4.7 0 0 1 0-6.6l-6.1 6 3.3 3.4 2.8-2.8Zm2.8 2.8-2.8 2.7a4.6 4.6 0 0 1 0 6.6l6.1-6-3.3-3.3Z"/><path fill="#fff" d="M1354.1 123.2v3.9c0 1.5-1.7 1.5-1.7 1.5s-1.7 0-1.7-1.5v-4s0-.6-1-.6v4.7a2.6 2.6 0 0 0 2.7 2.3 2.6 2.6 0 0 0 2.7-2.3v-4.7c-1 0-1 .7-1 .7Zm23.3 0v3.9c0 1.5-1.6 1.5-1.6 1.5s-1.7 0-1.7-1.5v-4s-.1-.6-1-.6v4.7a2.7 2.7 0 0 0 2.6 2.4 2.7 2.7 0 0 0 2.7-2.4v-4.7c-1 0-1 .7-1 .7Zm-13.1 4v-4.7c-.9 0-1 .7-1 .7v6.2h1v-2.2Zm17 0v-4.7c-1 0-1 .7-1 .7v6.2h1v-2.2Zm7.9 0v-4.7c-1 0-1 .7-1 .7v6.2h1v-2.2Zm-29.5 1.4h-1.8v-2.3h1.8c.2 0 1 .1 1 1.2 0 .2-.1.5-.3.7-.2.2-.4.4-.7.4Zm-1.8-5.2h1.9l.4.3.2.3v.4c0 1-1 1-1 1h-1.5v-2Zm2.6 2.5.7-.7c.2-.3.3-.6.3-1 0-1-1-1.7-2-1.7h-2.6v7h3.3s1.5-.5 1.5-1.8-.8-1.8-1.2-1.8Zm8.2 2.8c-1.4 0-2-1.2-2-2.7 0-1.5.6-2.6 2-2.6 1.3 0 2 1.1 2 2.6s-.7 2.7-2 2.7Zm3.2-.2h-1.2c.6-.6 1-1.5 1-2.5 0-1.5-.7-3.5-3.1-3.5 0 0-2.8-.2-3 3.5-.2 3.7 3 3.4 3 3.4h3.9s0-.9-.6-.9Zm15.4-5.1h-5v-.9h5v.9Z"/><path fill="#fff" d="M1385.3 122.5v7h-1v-7h1Z"/><path fill="#fff" fill-rule="evenodd" d="M1363.1 103.3h-1v-1h1v1Zm2 5.2h-1v-1h1v1Zm0-3.2h-1v-1h1v1Zm1-1h-1v-1h1v1Zm0 2.7h-1v-1h1v1Zm1-1.2h-1v-1h1v1Z" clip-rule="evenodd"/><path fill="#fff" fill-rule="evenodd" d="M1362.2 105h1v5.5h.9v-1h1v2.2h1v-3.6h1v7.4a6.3 6.3 0 0 0 3 4.8c-3 0-8-1.4-8-7.3v-8Zm10.8 11.7s4-.2 5-5.6v-8.7s-4.9-.5-4.9 3.1l-.1 11.2Z" clip-rule="evenodd"/><path fill="#fff" d="M1350 131.5h.4l.9 1.5v-1.5h.3v2h-.3l-1-1.4v1.5h-.3v-2Zm5.4 0h1.4v.4h-1v.5h1v.3h-1v.6h1v.3h-1.4v-2Zm5 0h1.6v.4h-.6v1.7h-.4v-1.7h-.6v-.4Zm5.1 0h.4l.4 1.6.4-1.6h.3l.5 1.6.3-1.6h.4l-.6 2h-.3l-.5-1.5-.4 1.6h-.3l-.6-2Zm6.4 1.1c0 .3.1.7.6.7s.6-.4.6-.7c0-.4-.1-.8-.6-.8s-.6.4-.6.8Zm1.6 0v.4l-.3.3-.3.2a1 1 0 0 1-.4.1 1 1 0 0 1-.8-.3 1 1 0 0 1 0-1.5c.3-.2.5-.3.8-.3h.4l.3.3.2.4s.1.2 0 .4Zm4-.1h1v-.2l.1-.2c0-.2-.2-.2-.3-.2h-.7v.6Zm-.3-1h1c.4 0 .7.3.7.6l-.1.3-.3.2c.1 0 .2 0 .3.2v.2l.1.6h-.4v-.3c0-.4 0-.5-.4-.5h-.5v.8h-.4v-2Zm5.3.1h.4v.9l.9-1h.4l-.8.9.9 1.2h-.5l-.6-1-.3.3v.7h-.4v-2Zm5.5 1.4c0 .2.2.4.5.4s.5-.2.5-.4v-.1l-.2-.1-.6-.2-.3-.1-.2-.4c0-.4.4-.6.8-.6s.7.2.7.6h-.3c0-.2-.2-.3-.5-.3-.2 0-.3 0-.3.3 0 .1 0 .2.2.2l.6.2c.1 0 .2 0 .3.2l.1.3c0 .5-.4.6-.8.6s-.9-.2-.9-.7h.4Z"/><path fill="#F2F2F2" d="M8.8 190.8H0v-23.4l8.8 7.3v16.1Z"/><path fill="#D1D1D1" d="M32.2 190.8H41v-23.4l-8.8 7.3v16.1Z"/><path fill="#fff" d="M32.2 174.7v-10.2a4.5 4.5 0 0 1 4.4-4.4 4.4 4.4 0 0 1 4.4 4.4v2.9l-8.8 7.3Z"/><path fill="#C7C7C7" d="M8.8 174.7 0 167.4v-3a4.5 4.5 0 0 1 4.4-4.3 4.4 4.4 0 0 1 4.4 4.4v10.2Z"/><path fill="#F2F2F2" d="m32.2 174.7-11.7 8.8-11.7-8.8v-10.2l11.7 8.7 11.7-8.7v10.2ZM132.8 160h5.5v24.4h-7.7v-22.2a2.2 2.2 0 0 1 2.2-2.1Z"/><path fill="#fff" d="M161.3 167.8h-7.7v16.6h7.7v-16.6Z"/><path fill="#E2E2E2" d="M161.5 167.9h-7.7v-7.7h5.5a2.2 2.2 0 0 1 2.2 2.2v5.5Z"/><path fill="#C7C7C7" d="M138.3 184.4h-7.7v6.4h7.7v-6.4Zm19.2 3.9-3.9 2.5v-6.4h7.7l-3.8 3.9Z"/><path fill="#D1D1D1" d="M153.6 184.4h-15.3v6.4h15.3v-6.4Z"/><path fill="#F2F2F2" d="M153.6 160h-15.3v6.5h15.3V160Z"/><path fill="#C7C7C7" d="m264.4 160 5.4 9.4 5.3-9.3h-10.7Z"/><path fill="#F2F2F2" d="m276.4 181.5 5.4 9.3 5.3-9.3h-10.7Z"/><path fill="#E2E2E2" d="m251 181.5 5.4 9.3 5.3-9.3H251Z"/><path fill="#D1D1D1" d="M251 181.5h10.7l8-12-5.3-9.4-13.4 21.4Z"/><path fill="#CCC" d="m269.8 169.4 6.6 12h10.7l-12-21.3"/><path fill="#F2F2F2" d="M256.4 190.8h25.4l-5.4-9.3h-14.7l-5.3 9.3Z"/><path fill="#fff" d="M380 160h3.8v25h-7v-21.7a3.2 3.2 0 0 1 3.1-3.2Zm19.2 8.3h-8.3V185h8.3v-16.6Z"/><path fill="#fff" d="M380.3 160.2v8.3h10.6v-8.3h-10.6Z"/><path fill="#E2E2E2" d="M399.2 185h-8.3v5.8h8.3V185Z"/><path fill="#F2F2F2" d="M391 185h-7.2v5.8h7.1V185Z"/><path fill="#C7C7C7" d="M376.7 185h7.1v5.8h-5.3a1.8 1.8 0 0 1-1.8-1.8v-4Z"/><path fill="#F2F2F2" d="m391 160 8.2 8.3h-8.3v-8.2Z"/><path fill="#E3E3E3" d="M497.2 168.5h-8.4v14h8.4v-14Z"/><path fill="#E2E2E2" d="M497.2 182.4h-8.4v8.4h8.4v-8.4Z"/><path fill="#fff" d="M519.5 160h-8.4v15.4h8.4v-15.3Z"/><path fill="#F2F2F2" d="M519.5 175.4h-8.4v15.4h8.4v-15.4Z"/><path fill="#CCC" d="M511.3 168.5V160h-14v8.4h14Z"/><path fill="#F2F2F2" d="M511.3 190.8v-8.4h-14v8.4h14Z"/><path fill="#C7C7C7" d="m512.3 176.4 15.2 10.8a2 2 0 0 0 3.2-1.8v-19.7a2.1 2.1 0 0 0-3.2-1.9l-15.2 10.8a1.1 1.1 0 0 0-.5 1 1.1 1.1 0 0 0 .5.8Z" opacity=".8"/><path fill="#F2F2F2" d="m488.8 168.5 8.4-8.4v8.4h-8.4Z"/><path fill="#EEE" d="m620.5 167.8 8-7.7h22a2 2 0 0 1 1.4.6 2 2 0 0 1 .6 1.4v5.7h-32Z"/><path fill="#E4E4E4" d="m652.5 183.4-6 7.8h-18v-7.8h24Zm0-15.6h-24v7.8h24v-7.8Z"/><path fill="#fff" d="M628.5 167.8h-8v7.8h8v-7.8Zm24 7.8h-24v7.8h24v-7.8Z"/><path fill="#E4E4E4" d="M628.5 175.6h-8v7.8h8v-7.8Z"/><path fill="#fff" d="M620.5 183.4h8v7.8h-6a2 2 0 0 1-1.4-.6c-.4-.3-.6-.8-.6-1.3v-5.9Z"/><path fill="#E4E4E4" d="M756.6 177.2c4.7 0 8.4-3.9 8.4-8.6 0-4.7-3.7-8.5-8.4-8.5a8.5 8.5 0 0 0-8.4 8.5c0 4.7 3.8 8.6 8.4 8.6Z"/><path fill="#EEE" d="M764.5 183.5c4 0 7.2-3.3 7.2-7.3s-3.2-7.3-7.2-7.3-7.2 3.2-7.2 7.3c0 4 3.2 7.3 7.2 7.3Z"/><path fill="#E4E4E4" d="M757.5 188.9c3.2 0 5.7-2.6 5.7-5.8 0-3.3-2.5-5.9-5.7-5.9a5.8 5.8 0 0 0-5.7 5.9c0 3.2 2.6 5.8 5.7 5.8Z"/><path fill="#000" d="M758.1 166.4h-9.6a8.7 8.7 0 0 0 3 9 8.3 8.3 0 0 0 5.1 1.8h.7a5.9 5.9 0 0 0-5.6 5.8v.5h6.4c.3 0 .6-.1.8-.3.2-.3.4-.6.4-.9v-14.7c0-.3-.2-.6-.4-.8a1 1 0 0 0-.8-.4Z" opacity=".1"/><path fill="#000" d="M757.2 167.3h-8.9a8.6 8.6 0 0 0 3.9 8.7c1 .5 2 1 3 1.1l1.4.1h.7a5.6 5.6 0 0 0-4 1.8 5.8 5.8 0 0 0-1.4 5.4h5.3c.3 0 .6-.1.8-.3.3-.3.4-.5.4-.9v-14.7a1 1 0 0 0-.4-.8 1 1 0 0 0-.8-.4Z" opacity=".2"/><path fill="#000" d="M757.2 167.3h-8.9a8.6 8.6 0 0 0 3.9 8.7c1 .5 2 1 3 1.1l1.4.1h.7c-1.4 0-2.7.6-3.8 1.6a6 6 0 0 0-1.8 3.8h5.5c.3 0 .6-.1.8-.3.3-.3.4-.6.4-.9v-13c0-.2-.1-.5-.4-.7a1 1 0 0 0-.8-.4Z" opacity=".2"/><path fill="#000" d="M756.3 167.3h-8a8.6 8.6 0 0 0 3.9 8.7c1 .5 2 1 3 1.1l1.4.1h.7c-1.4 0-2.7.6-3.8 1.6a6 6 0 0 0-1.8 3.8h4.6l.9-.3.3-.9v-13a1 1 0 0 0-.3-.7c-.3-.3-.6-.4-.9-.4Z" opacity=".2"/><path fill="#fff" d="M744.5 167.3h11.8l.9.3.3.9v12c0 .3-.1.7-.3.9l-.9.3h-11.8c-.3 0-.6-.1-.8-.3-.2-.2-.4-.6-.4-.9v-12c0-.3.2-.6.4-.9.2-.2.5-.3.8-.3Z"/><path fill="#000" d="M748.4 174.3c-.4-.2-.6-.4-.8-.8-.2-.3-.3-.7-.2-1 0-.5.1-1 .4-1.4.4-.4.8-.7 1.3-.9 1.3-.3 2.6-.3 4 .1v1.6l-1-.4-1.3-.1c-.4 0-.8 0-1.2.2a.8.8 0 0 0-.5.8.7.7 0 0 0 .2.5l.6.4 1 .5h.2l1.3.6c.3.2.6.5.7.8.3.4.4.8.3 1.2 0 .6 0 1-.4 1.5a3 3 0 0 1-1.2.8c-.5.2-1 .3-1.7.3l-1.5-.2-1.2-.3v-1.8c.3.3.8.5 1.3.6.4.2.8.3 1.3.3a3 3 0 0 0 1.3-.3l.3-.3v-.4a.8.8 0 0 0-.2-.6l-.6-.5-1.3-.6-1.1-.6Z"/><path fill="#EEE" d="m865.6 177.7 11 11c1 1.1 2.9 1.1 4 0l3.6-3.6c1.2-1.2 1.2-3 0-4.1l-11-11a2.9 2.9 0 0 0-4 0l-3.6 3.7a2.9 2.9 0 0 0 0 4Z"/><path fill="#E4E4E4" d="m891.4 162.1-18.6 18.7a2.9 2.9 0 0 0 0 4l4 4c1 1.1 2.9 1.1 4 0l18.7-18.7c1-1 1-3 0-4l-4-4a2.9 2.9 0 0 0-4 0Z"/><path fill="#F2F2F2" d="M1007.3 170.3a4.5 4.5 0 1 0 0-9 4.5 4.5 0 0 0 0 9Z"/><path fill="#000" d="M1007 166.8h-4a4.5 4.5 0 0 0 5.2 3.3V168c0-.4-.1-.7-.4-.9-.2-.2-.5-.3-.8-.3Z" opacity=".1"/><use xlink:href="#j" opacity=".2"/><path fill="#fff" d="M1017.3 170.6a3.3 3.3 0 1 0 0-6.7 3.3 3.3 0 0 0 0 6.7Zm3 1h-7.6a.6.6 0 0 0-.6.6v7.8a5 5 0 0 0 5.7 4.8 4.8 4.8 0 0 0 3.8-3.7V173a1.4 1.4 0 0 0-1.4-1.4Z"/><path fill="#F2F2F2" d="M1015 173v9a7.7 7.7 0 0 1-14.8 3c-.2-.3-.3-.6-.3-1-.2-.6-.3-1.3-.3-2v-9a1.4 1.4 0 0 1 1.5-1.4h13a1.4 1.4 0 0 1 .8.8v.6Z"/><use xlink:href="#j" opacity=".2"/><path fill="#000" d="M1008.2 171.6v12.1c0 .3 0 .6-.2.8l-.7.4h-7.1c-.2-.3-.3-.6-.3-1-.2-.6-.3-1.2-.3-1.9v-9a1.4 1.4 0 0 1 1.5-1.5h7.1Z" opacity=".1"/><path fill="#000" d="M1007.3 171.6v13.3c0 .3-.2.6-.5.8-.2.2-.5.3-.8.3h-5.3a7.1 7.1 0 0 1-1-4v-9a1.4 1.4 0 0 1 1.4-1.4h6.2Z" opacity=".2"/><path fill="#000" d="M1007.3 171.6v11.2l-.1.4c0 .2-.2.3-.3.5l-.4.2-.5.1h-6.1c-.2-.6-.3-1.3-.3-2v-9a1.4 1.4 0 0 1 1.5-1.4h6.2Z" opacity=".2"/><path fill="#000" d="M1001 171.6a1.4 1.4 0 0 0-1.4 1.4v9c0 .7.1 1.4.3 2h5.2a1.3 1.3 0 0 0 .9-.3l.3-.5v-11.6h-5.2Z" opacity=".2"/><path fill="#fff" d="M992.3 167.7h12.7a1.3 1.3 0 0 1 1.4 1.3v12.8a1.2 1.2 0 0 1-.4 1l-.5.2h-13.2a1.3 1.3 0 0 1-1.3-1.2V169a1.3 1.3 0 0 1 1.3-1.3Z"/><path fill="#000" d="M1002.5 172.5h-2.9v7.7h-1.9v-7.7h-2.9v-1.9h7.7v1.9Z"/><g clip-path="url(#k)"><path fill="#fff" fill-rule="evenodd" d="m1111 160.8 21.5-4.2v37.7l-21.5-4.5v-29Zm7.6 19.6c-1.6-2-2-5-1.3-7.5 1.1-3.5 3.9-4.7 6.2-3.9a5 5 0 0 1 3 3.3 8.2 8.2 0 0 1-1.2 7.9c-1.8 2.1-4.8 2.4-6.7.2Zm1.7-1.9a6 6 0 0 1-.6-4.6c.5-2.2 1.8-3 3-2.4.6.3 1.2 1 1.5 2l.2 1.7c0 1-.3 2.4-.8 3.2-.9 1.4-2.4 1.5-3.3.1Zm13.7-14h12.5c.7 0 1.3.6 1.3 1.3v.5l-9.9 6.7-.7.5c-.4.2-.4.2-.8 0a40 40 0 0 1-2.5-1.7v-7.3Zm13.8 4.8v13.5c0 1-1 2-2 2H1134v-10l2.2 1.4c.5.3.5.4 1 .1l.7-.4 9.8-6.6Z" clip-rule="evenodd"/></g><path fill="#EEE" d="m1255.6 168.5 10 6 5.9-2.6c1.2-.5 2.5-.8 3.8-.7h.6a14.8 14.8 0 0 0-26.7-4.5h.2c2.2 0 4.4.6 6.2 1.8Z"/><path fill="#fff" d="M1255.6 168.5c-1.8-1.2-4-1.8-6.2-1.8h-.2a11.8 11.8 0 0 0-11.6 12c0 2.3.8 4.6 2 6.6l8.9-3.7 3.8-1.6 8.7-3.6 4.5-2-9.9-5.9Zm20.4 2.7h-.7a10 10 0 0 0-3.8.8l-6 2.5 1.7 1 5.7 3.4 2.4 1.5 8.4 5a9.6 9.6 0 0 0-7.8-14.1Z"/><path fill="#E4E4E4" d="m1275.3 180.3-2.4-1.4-5.7-3.5-1.7-1-4.5 2-8.7 3.6-3.8 1.6-8.8 3.7a12 12 0 0 0 9.7 5.1h25.9a9.6 9.6 0 0 0 8.4-5l-8.4-5Z"/><path fill="#fff" d="m1381 189.4 19.3-14.7-19.3-14.6V171l.1.2 3 2.8 1 .7-.2.1-3.8 3.5-.1.1v11Zm-6.5-20.5v11.7l6.4-5.9-6.4-5.8Z"/><path fill="#fff" d="M1381 189.4v-11l.1-.1 3.8-3.5h.1l-.9-.9-3-2.7-.1-.2v-10.9l19.3 14.6-19.3 14.7Z"/></g><defs><clipPath id="a"><path fill="#fff" d="M0 .9h1400v193.4H0z"/></clipPath><clipPath id="b"><path fill="#fff" d="M28 10.6h49.3v14H28z"/></clipPath><clipPath id="c"><path fill="#fff" d="M0 2.8h22.3v21.7H0z"/></clipPath><clipPath id="d"><path fill="#fff" d="M1024.1 1h137.7v25.5h-137.7z"/></clipPath><clipPath id="e"><path fill="#fff" d="M1279.6 1.4h106.5V26h-106.5z"/></clipPath><clipPath id="f"><path fill="#fff" d="M379.7 51.2H402v22.4h-22.4z"/></clipPath><clipPath id="g"><path fill="#fff" d="M735.7 47.9h255v29h-255z"/></clipPath><clipPath id="h"><path fill="#fff" d="M642.8 98.7h36.4v38.5h-36.4z"/></clipPath><clipPath id="i"><path fill="#fff" d="M768.8 98.2h39.5v39.5h-39.5z"/></clipPath><clipPath id="k"><path fill="#fff" d="M1111 156.6h36.8v37.7H1111z"/></clipPath></defs></svg>