<svg xmlns="http://www.w3.org/2000/svg" width="1422" height="203" fill="none"><g clip-path="url(#a)" opacity=".4"><g fill="#EEE" clip-path="url(#b)"><path d="M37.5 20.3h-4.2s-.2 0-.2.2v2l.2.2H35v2.5l-1.3.1c-1.2 0-2.8-.4-2.8-4s1.7-4 3.3-4c1.4 0 2 .2 2.4.3l.2-.2.5-2H37c-.2-.2-1.1-.7-3.5-.7-2.8 0-5.6 1.1-5.6 6.7s3.2 6.4 6 6.4c2.2 0 3.6-1 3.6-1v-6.3l-.1-.2Zm21.3-5s0-.2-.2-.2h-2.3l-.2.2v4.5h-3.6v-4.5l-.2-.2h-2.4l-.2.2v12c0 .2.1.3.2.3h2.4l.2-.2v-5.2H56v5.2c0 .1 0 .2.2.2h2.3l.2-.2v-12ZM41.9 17a1.5 1.5 0 1 0-3 0 1.5 1.5 0 0 0 3 0Zm-.2 7.8v-5.5c0-.1 0-.2-.2-.2h-2.3l-.2.2v8c0 .2.1.3.3.3h2.1c.2 0 .3-.1.3-.3v-2.5Zm26-5.7h-2.3c-.2 0-.2.1-.2.2v6s-.6.3-1.5.3c-.8 0-1-.3-1-1.1v-5.2l-.2-.2H60l-.2.2v5.5c0 2.4 1.4 3 3.3 3 1.5 0 2.7-.8 2.7-.8v.5l.3.1h1.5l.1-.2v-8.1l-.1-.2Zm6.3-.3c-1.3 0-2.2.6-2.2.6v-4c0-.2-.1-.3-.2-.3h-2.4l-.1.2v12l.1.3H71l.1-.1.1-.6s1 1 2.8 1c2.1 0 3.3-1.2 3.3-4.9s-1.9-4.2-3.2-4.2Zm-1 6.8c-.7 0-1.3-.4-1.3-.4v-3.8L73 21c.9 0 1.7.2 1.7 2.2s-.4 2.5-1.5 2.4ZM48.4 19h-1.7v-2.2l-.2-.1h-2.4l-.1.1v2.4l-1.3.3-.1.2V21c0 .2 0 .2.2.2H44V25c0 2.7 1.9 3 3.1 3 .6 0 1.3-.3 1.4-.3l.1-.2v-1.6c0-.1 0-.2-.2-.2h-.6c-.8 0-1.1-.4-1.1-.9v-3.4h1.7c.1 0 .2 0 .2-.2v-1.8c0-.1 0-.2-.2-.2Z"/></g><g fill="#EEE" clip-path="url(#c)"><path d="M11.1 6.5a11.1 11.1 0 0 0-3.5 21.7c.5 0 .7-.3.7-.6v-2c-3 .6-3.7-1.3-3.7-1.3-.5-1.3-1.2-1.7-1.2-1.7-1-.7 0-.6 0-.6a2 2 0 0 1 1.7 1c1 1.7 2.6 1.2 3.3 1 0-.8.4-1.3.7-1.6-2.5-.2-5-1.2-5-5.5a5 5 0 0 1 1-3 4 4 0 0 1 .2-2.9s.9-.3 3 1.1a10.6 10.6 0 0 1 5.6 0c2.1-1.4 3-1.1 3-1.1a4 4 0 0 1 .1 3c.7.7 1.2 1.7 1.2 3 0 4.2-2.6 5.2-5 5.4.3.4.7 1 .7 2v3.1c0 .3.2.7.7.6a11.1 11.1 0 0 0-3.5-21.7Z"/><path d="M4.2 22.3c0 .1-.2.1-.2 0h-.1c0-.1 0-.2.2-.1v.1Zm.5.5h-.2c-.1 0-.1-.2 0-.2 0-.1.1 0 .2 0v.2m.4.7-.3-.1V23h.3v.4m.6.7h-.3v-.3c0-.1.2 0 .2 0 .1 0 .2.2.1.3Zm.8.2c0 .1-.1.2-.2.1-.2 0-.3-.1-.2-.2l.2-.1c.2 0 .3.1.2.2Zm1 .1c0 .1-.1.2-.3.2-.1 0-.2 0-.2-.2l.2-.1.3.1Zm.9 0-.2.2-.3-.1c0-.1 0-.2.2-.2l.3.1Z"/></g><path fill="#EEE" d="M153 13.3h1.8c1.1 0 2.3.2 2.3 1.5 0 1.1-.7 1.9-2.8 1.9h-2l.7-3.4Zm-7.8 12.6h5.1l1.1-5.1h3.5c4.5 0 7.4-3 7.4-6.4 0-3.8-2-5.5-5.1-5.5h-8.4l-3.6 17Zm23.5-11.2.6 5.1H166l2.7-5ZM157.5 26h5.3l1.3-2.4h5.5l.3 2.4h5.1l-2.6-17h-5.1l-9.8 17Zm23-10.7 4-6.3h6.2l-8.3 10.7-1.3 6.3H176l1.3-6.3L173.6 9h5.2l1.6 6.3Zm22.7 4.2c-.3 1.7-1.6 6.9-8.7 6.9-5 0-7.3-3.2-7.3-7.8 0-5.5 3.4-10 9.2-10 3.8 0 7.1 1.6 7.2 6.7h-4.9c0-1.6-.7-2.5-2.3-2.5-3 0-4 3.3-4 5.7 0 1.4.4 3.6 2.8 3.6 1.6 0 2.6-1.1 2.9-2.6h5.1Zm3-10.5h5.3l-1.3 5.9h4.8l1.2-5.9h5.3L218 26h-5.3l1.4-6.7h-4.8l-1.4 6.7h-5.2l3.5-17Zm16.7 0h14l-.9 4.4h-8.8l-.4 2h8.2l-.9 4.1H226l-.4 2.1h9l-.9 4.4h-14.3L223 9Z"/><path fill="#EEE" d="m240.5 16.9-3.9-8h5.7l1.7 4.4 3.4-4.4h6.2l-7.1 8 4.1 9h-5.9l-1.8-4.7-4 4.7h-6.4l8-9Z"/><path fill="#9D9D9D" fill-rule="evenodd" d="m346 2.8-1-.3c.5-.9.9-.8 1 .3Z" clip-rule="evenodd"/><path fill="#B7B7B7" fill-rule="evenodd" d="M345 2.5a10 10 0 0 0-1.3 7.3l-1.8-.3c-1.5.2-3 .2-4.4 0 .3-1.8.9-3.6 1.6-5.3.6-.8 1.4-1.4 2.3-1.8l3.6.1Z" clip-rule="evenodd"/><path fill="#B7B7B7" fill-rule="evenodd" d="m345 2.5 1 .3.2.1 1 1.9-.8 1-1.7 3.2-.9.8h-.1c-.5-2.6 0-5 1.3-7.3Z" clip-rule="evenodd"/><path fill="#B7B7B7" fill-rule="evenodd" d="M346.2 2.9c1 .2 2 .6 2.9 1-.7 0-1.3.4-1.7.9h-.2l-1-1.9Z" clip-rule="evenodd"/><path fill="#9D9D9D" fill-rule="evenodd" d="M347.2 4.8h.2l3 3.1c1 1.2 1.4 2.5 1 4-.4.9-.9 1.7-1.5 2.5a9.5 9.5 0 0 0-6.1-4.5v-.1l.9-.8 1.7-3.2.8-1Z" clip-rule="evenodd"/><path fill="#E5E5E5" fill-rule="evenodd" d="M337.5 9.5c1.4.2 3 .2 4.4 0 .6 0 1.2 0 1.8.3h.1v.2a14 14 0 0 1-4.2 2.2c-1 .3-1.9.4-2.8.3l-.4-1.1-.5-3.2c.4.6.9 1 1.6 1.3Z" clip-rule="evenodd"/><path fill="#E5E5E5" fill-rule="evenodd" d="M343.8 10c0 .5.2 1 .5 1.5a22 22 0 0 1 2.3 4l-4.2 1c-1.7.3-3-.1-4.2-1.3-.6-.8-1-1.7-1.4-2.7 1 0 1.9 0 2.8-.3 1.5-.5 2.9-1.3 4.2-2.2Z" clip-rule="evenodd"/><path fill="#E5E5E5" fill-rule="evenodd" d="M343.8 9.9c2.7.7 4.7 2.2 6 4.5v.1l-.7.8h-.1l-2.4.1c-.7-1.4-1.4-2.7-2.3-4-.3-.4-.4-.9-.5-1.4Z" clip-rule="evenodd"/><path fill="#B7B7B7" fill-rule="evenodd" d="m336.4 11.4.4 1.1a2 2 0 0 1-1.2-.2l.8-1Z" clip-rule="evenodd"/><path fill="#E5E5E5" fill-rule="evenodd" d="m349.9 14.5.4.8H349l.8-.8Z" clip-rule="evenodd"/><path fill="#9D9D9D" fill-rule="evenodd" d="M349 15.3c-.8.8-1.6 1.5-2.6 2.1v-.1l.2-1.9h2.4Zm-23.7 6.9h4.5c.4.5.3.9-.1 1.2l-3.3.1v2.1h3c.4.5.3.8-.1 1.1l-3 .1v2.9c-.3.5-.7.5-1.2.1a103.5 103.5 0 0 1 .2-7.6Zm7.2 0c.3 0 .6 0 .8.4v6.3h3.5c.5.4.5.7.1 1.1h-4.6l-.2-.2v-7.2l.4-.4Zm6.3 0c.4 0 .6 0 .8.4l.2 4.9c.6 1.4 1.7 1.7 3 1 .4 0 .7-.3.8-.6l.3-5.3c.3-.5.7-.5 1-.2.2 1.7.3 3.4.2 5-.7 2.2-2.2 3-4.5 2.6a3.6 3.6 0 0 1-2.1-2.5v-5l.3-.3Zm9 .1h.6l2.2 2.8 2.2-2.7c.7-.2 1 .1.8.8l-2.1 3c.6 1 1.2 2 2 2.8.3.9 0 1.2-.9 1-.6-1-1.3-1.8-2-2.7l-2 2.7c-.8.3-1.2 0-1-.8l2.1-3-2.1-3c-.1-.3 0-.6.2-.9Zm8.4 0h.7l2 2.8c.9-.9 1.6-1.8 2.2-2.7.8-.2 1 .2.9 1l-2.2 2.8a32 32 0 0 0 2 2.7c.5.9.2 1.3-.7 1.1a61 61 0 0 1-2.1-2.7l-2.1 2.7c-1 .2-1.2-.2-.8-1 .8-1 1.5-1.9 2-2.8l-2-2.8a1 1 0 0 1 .1-1Z" clip-rule="evenodd"/><path fill="#EEE" d="M498.9 25a5 5 0 0 1-1-3.3 5 5 0 0 1 1-3.3c.6-.8 1.5-1.2 2.7-1.2 1.1 0 2 .4 2.7 1.2a5 5 0 0 1 1 3.3 5 5 0 0 1-1 3.3c-.7.8-1.6 1.2-2.7 1.2-1.2 0-2-.4-2.7-1.2Zm-5.1-12.1h16v17.2h-16v-3.8l.5-1.3v-.3l-.5-4V13Zm1 8.8a7 7 0 0 0 4.1 6.5 7 7 0 0 0 2.7.5 6.6 6.6 0 0 0 6.2-4.2c.4-.9.5-1.8.5-2.8a6.8 6.8 0 0 0-6.8-7 6.4 6.4 0 0 0-4.7 2c-.6.6-1.1 1.4-1.5 2.2-.3.9-.5 1.8-.5 2.8Zm16.2-9.2v16.8l1.4-1.4v-17l-1.4 1.6ZM496.2 10l-1.7 1.8h15.7l1.5-1.8h-15.5Zm-6.5 1.4 1-2.8-15.7 2.1-.2.7.5 2 14.4-2Zm1 .6.8 5.4 1.2 8.5.4-1.2-1.8-14.3-.6 1.6Zm-16.5 3.7.3.1-6.3 14.2-14-6.2 6.3-14.2 13.7 6Zm-3 3.6a7.1 7.1 0 0 0-1.9-4.8 6.5 6.5 0 0 0-4.7-2c-.9 0-1.7.3-2.5.6-1 .4-1.7 1-2.3 1.6-.7.7-1.2 1.5-1.6 2.5a7.3 7.3 0 0 0-.2 5.6 6.1 6.1 0 0 0 3.5 3.7 7 7 0 0 0 2.5.5 7.3 7.3 0 0 0 6.5-4.6c.4-1 .6-2 .7-3.1Zm19.5.9 1 7.6-15.5 2.2-1.6-11.5 1.2-2.7v-.4l-.2-1 14-1.8 1 7.6Zm-1.8 6.4v-.4L487.2 15c0-.6-.2-1-.5-1.2-.2-.2-.5-.3-.8-.3a1.8 1.8 0 0 0-.8.2l-.4.4-.3.9v.4l.7 4.2-4.8.7-.6-4.2c0-.5-.3-.9-.6-1.2-.2-.2-.5-.3-.8-.3h-.2a1.4 1.4 0 0 0-1 .6l-.3.9v.4l1.7 11c0 .6.3 1 .6 1.2.2.2.5.3.8.3h.3a1.2 1.2 0 0 0 1-.6l.1-.8v-.4l-.7-4.4 4.8-.7.7 4.4c0 .4.2.8.5 1.1l.9.3a1.7 1.7 0 0 0 .8-.2c.2 0 .3-.2.4-.4.2-.2.2-.5.2-.8Zm-14.5-12-1-3.7-13.8-6.3 1.1 3.8 13.7 6.1Zm-14.8-5.8-1-3.5-5 11.6.6 4 5.4-12.1Zm6.6 6.7-1.5-.3c-.5 0-1 .1-1.5.4-1 .5-1.7 1.4-2.3 2.8-.3.7-.5 1.6-.5 2.4l.1 1c.3 1 1 1.8 2 2.2l1.4.3c.6 0 1-.1 1.6-.4.9-.5 1.6-1.4 2.2-2.7.3-.8.5-1.6.6-2.5 0-.4 0-.7-.2-1a3 3 0 0 0-2-2.2Zm-15.8 1 1.7 11-15.5 2.5-2.4-15 12.7-2 2.9-.5.6 4Zm-1.6 9.8V26c0-.2-.2-.4-.3-.5l-.5-.4h-1.8l-4.4.8c0-.4.2-.8.5-1.4l1.5-2.1.5-.7a16.2 16.2 0 0 0 2.2-3.7 6.6 6.6 0 0 0 .1-2.8c0-.3 0-.5-.2-.7a1 1 0 0 0-.4-.5l-.7-.2a6 6 0 0 0-1 .1l-5 .9c-.7.1-1.1.3-1.4.6a1 1 0 0 0-.4.8v.2c.1.4.3.8.7 1h1.5l4.2-.7-.1 1-1 1.5-.6.8c-1.2 1.3-2 2.5-2.5 3.5a7.6 7.6 0 0 0-.8 3v.8c0 .3.2.6.3.8 0 .2.2.4.4.5l.8.1c.4 0 1 0 1.7-.2l4.6-.7 1.7-.6a1 1 0 0 0 .4-.9Zm2.1-14.8v.4l2 12.8.4-2.4-2-12.9-.4 2.1Zm-.2-4.8-15.5 2.5-1 4.5 15.6-2.3.9-4.7Z"/><g clip-path="url(#d)"><path fill="#fff" d="m641.1 19.9-2.6-7.2a.3.3 0 0 0-.6 0l-2.7 7.2a.3.3 0 0 0 0 .3h.2l.1.1h5.3a.3.3 0 0 0 .3-.4m1.2 4H634a.3.3 0 0 0-.3.2l-1.7 4.4a.3.3 0 0 1-.3.2h-3.6a.3.3 0 0 1-.3-.4l8.3-20.8a.3.3 0 0 1 .3-.2h3.5c.1 0 .3 0 .3.2l8.3 20.8a.3.3 0 0 1-.1.4h-3.8a.3.3 0 0 1-.3-.2l-1.6-4.4a.3.3 0 0 0-.4-.2m8-9.3h3a.3.3 0 0 1 .4.3v13.5l-.1.2-.3.1H650l-.1-.3V14.9a.3.3 0 0 1 .3-.3Zm14.6 3.3a.3.3 0 0 1-.3.3c-1.6 0-2.7.4-3.4 1.1-.8.7-1.1 2-1.1 3.6v5.5a.3.3 0 0 1-.4.3h-3.3V14.8a.3.3 0 0 1 .3-.3h3a.3.3 0 0 1 .4.3v2.7A5 5 0 0 1 662 15c.8-.5 1.7-.8 2.9-.8h.1v3.7Zm8.5-.2a.3.3 0 0 0-.3.4v5.6c0 .5 0 1 .3 1.2.2.2.6.4 1.2.4h.3a.3.3 0 0 1 .3.3v2.8a.3.3 0 0 1-.3.3h-1.3c-1.4 0-2.5-.3-3.2-1a4.3 4.3 0 0 1-1.1-3.1V18a.3.3 0 0 0-.3-.4h-2a.3.3 0 0 1-.3-.3v-2.5a.3.3 0 0 1 .3-.3h2a.3.3 0 0 0 .3-.3v-5a.3.3 0 0 1 .3-.4h3.1a.3.3 0 0 1 .4.4v5a.3.3 0 0 0 .3.3h2.2a.3.3 0 0 1 .4.3v2.5l-.1.2-.3.1h-2.2Zm14.2 6.8a4 4 0 0 0 1-2.8 4 4 0 0 0-1-3 3.7 3.7 0 0 0-2.8-1 4 4 0 0 0-2.8 1 4 4 0 0 0-1 3 4 4 0 0 0 1 2.8c.7.8 1.7 1.1 2.8 1.1a4 4 0 0 0 2.8-1Zm-7.2 3.8c-1-.6-1.8-1.5-2.4-2.6a8.5 8.5 0 0 1-1-4c0-1.6.4-3 1-4.1.6-1.1 1.4-2 2.4-2.6a6.8 6.8 0 0 1 6.3-.2 5 5 0 0 1 1.9 1.8v-1.7l.1-.2.3-.1h3a.3.3 0 0 1 .4.3v13.5a.3.3 0 0 1-.4.3h-3a.3.3 0 0 1-.4-.3v-1.7a5 5 0 0 1-2 1.8c-.7.5-1.6.7-2.8.7-1.2 0-2.3-.3-3.4-1Zm24.7-3.8a4 4 0 0 0 1-2.8 4 4 0 0 0-1-3 3.7 3.7 0 0 0-2.8-1c-1.1 0-2 .3-2.7 1a4 4 0 0 0-1.1 3 4 4 0 0 0 1 2.8c.8.8 1.7 1.1 2.8 1.1 1.2 0 2-.3 2.8-1Zm-4.7 4a5 5 0 0 1-1.8-1.8h-.1v1.7a.3.3 0 0 1-.3.3H695a.3.3 0 0 1-.4-.3V7.6l.1-.2h3.7l.1.2v9a5 5 0 0 1 2-1.8c.7-.5 1.7-.7 2.8-.7 1.2 0 2.4.3 3.4 1a6 6 0 0 1 2.5 2.5c.6 1.1.9 2.5.9 4 0 1.6-.3 3-1 4.1a6 6 0 0 1-2.4 2.6 6.8 6.8 0 0 1-6.3.2m14.9.2h-3.1a.3.3 0 0 1-.4-.3V7.6a.3.3 0 0 1 .4-.3h3a.3.3 0 0 1 .4.3v20.8a.3.3 0 0 1-.3.3Zm7.3-10.8a3 3 0 0 0-1 1.7c-.1.2 0 .4.3.4h5.8c.2 0 .4-.2.4-.4-.1-.7-.5-1.3-1-1.7-.5-.5-1.3-.7-2.2-.7-1 0-1.7.2-2.3.7ZM730 16a8 8 0 0 1 1.8 5.6v.7l-.3.1h-9.9a.3.3 0 0 0-.2.1.3.3 0 0 0 0 .3c0 .9.5 1.6 1.1 2.1a4 4 0 0 0 2.7 1c1.5 0 2.8-.6 4-1.7.1-.2.4-.1.5 0l1.5 2.2v.4a11 11 0 0 1-2.5 1.7 9 9 0 0 1-3.5.7c-1.5 0-2.8-.3-4-1-1.1-.6-2-1.5-2.6-2.6a8 8 0 0 1-1-4c0-1.4.3-2.7 1-3.9.5-1.1 1.4-2 2.5-2.6a7 7 0 0 1 3.9-1c2.1 0 3.8.7 5 2Zm-76-6.5a2.3 2.3 0 1 1-4.6 0 2.3 2.3 0 0 1 4.6 0Z"/><path fill="#E4E4E4" d="m597.9 1.3-14.7 6a1 1 0 0 0 0 1.9L598 15c1.3.6 2.7.6 4 0l14.8-5.8a1 1 0 0 0 0-1.8l-14.7-6.1a5.5 5.5 0 0 0-4.2 0"/><path fill="#EBEBEB" d="M601.3 18.2V33a1 1 0 0 0 1.4.9l16.4-6.4a1 1 0 0 0 .6-1V12a1 1 0 0 0-1.3-1l-16.5 6.4a1 1 0 0 0-.6 1Z"/><path fill="#F2F2F2" d="m597.5 19-5 2.4-.4.2-10.3 5c-.7.2-1.5-.2-1.5-1V12c0-.2.1-.5.3-.6l.3-.2c.2-.2.6-.2.9-.1l15.6 6.2c.8.3.8 1.4 0 1.8Z"/><path fill="#9D9D9D" d="m597.5 19-5 2.4-11.9-10.1.3-.2c.2-.2.6-.2.9-.1l15.6 6.2c.8.3.8 1.4 0 1.8Z"/></g><path fill="#EEE" d="M840.6 14.7h3.3c-.5-3.5-3.6-6-7.6-6-4.7 0-8.2 3.5-8.2 9.2 0 5.7 3.4 9.2 8.3 9.2 4.5 0 7.7-2.9 7.7-7.5v-2.1h-7.3V20h4.1c0 2.6-1.8 4.2-4.5 4.2-3 0-5-2.3-5-6.3s2-6.3 5-6.3c2.1 0 3.6 1.2 4.2 3Zm5.7 12.1h3.1V13.5h-3.1v13.3Zm1.6-15.5c1 0 1.8-.7 1.8-1.7s-.8-1.7-1.8-1.7-1.9.8-1.9 1.7c0 1 .8 1.7 1.9 1.7Zm11.1 2.2h-2.7v-3.3h-3.2v3.3h-1.9v2.4h2v7.4c-.1 2.6 1.7 3.8 4.1 3.7a7 7 0 0 0 2-.3l-.6-2.5-1 .2c-.8 0-1.4-.3-1.4-1.6v-7h2.7v-2.3Zm2.4 13.3h11.2v-2.7h-8V9h-3.2v17.8Zm17.3.3c2.1 0 3.4-1 4-2.1v1.8h3.1v-9c0-3.5-2.9-4.5-5.5-4.5-2.8 0-5 1.2-5.7 3.7l3 .4c.3-1 1.2-1.7 2.8-1.7 1.4 0 2.2.7 2.2 2v.1c0 1-1 1-3.3 1.2-2.6.3-5.1 1-5.1 4 0 2.7 2 4.1 4.5 4.1Zm1-2.3c-1.3 0-2.2-.6-2.2-1.8 0-1.2 1-1.7 2.4-1.9.9-.1 2.5-.3 3-.6V22c0 1.5-1.3 2.8-3.2 2.8Zm8.5 2h3v-2h.3a4 4 0 0 0 3.8 2.3c3.2 0 5.6-2.5 5.6-7 0-4.4-2.5-6.8-5.6-6.8a4 4 0 0 0-3.8 2.4h-.2V9h-3.1v17.8Zm3-6.7c0-2.6 1.2-4.2 3.2-4.2 2.2 0 3.3 1.7 3.3 4.2s-1.2 4.4-3.3 4.4c-2 0-3.1-1.8-3.1-4.4Z"/><path fill="#EBEBEB" d="M822.1 15.1 819 7c0-.2-.2-.4-.3-.5a.8.8 0 0 0-1.3.5l-2 6.3h-8.5l-2-6.3a.8.8 0 0 0-1-.6.8.8 0 0 0-.6.5l-3.1 8v.1a5.7 5.7 0 0 0 1.9 6.6l4.7 3.5 2.3 1.7 1.4 1.1a1 1 0 0 0 1.2 0l1.4-1 2.3-1.8 4.8-3.5A5.7 5.7 0 0 0 822 15Z"/><path fill="#EEE" d="M822.1 15.1c-1.5.2-3 .9-4.2 1.8l-6.8 5 4.3 3.3 4.8-3.5a5.7 5.7 0 0 0 1.9-6.6Z"/><path fill="#EBEBEB" d="m806.8 25.2 2.3 1.7 1.4 1.1a1 1 0 0 0 1.2 0l1.4-1 2.3-1.8-4.3-3.2-4.3 3.2Z"/><path fill="#EEE" d="M804.3 16.9a9 9 0 0 0-4.1-1.9v.1a5.7 5.7 0 0 0 1.9 6.6l4.7 3.5L811 22l-6.8-5.1Z"/><path fill="#EBEBEB" d="M973 30.2c2.4 0 4.4-2 4.4-4.3v-4.3H973a4.3 4.3 0 1 0 0 8.6Z"/><path fill="#EEE" d="M968.8 17.4c0-2.4 1.9-4.3 4.3-4.3h4.3v8.5H973a4.2 4.2 0 0 1-4.3-4.2Z"/><path fill="#EBEBEB" d="M968.8 8.8c0-2.4 1.9-4.3 4.3-4.3h4.3v8.6H973c-2.4 0-4.3-2-4.3-4.3Z"/><path fill="#EEE" d="M977.3 4.5h4.3a4.3 4.3 0 1 1 0 8.6h-4.3V4.5Z"/><path fill="#EBEBEB" d="M986 17.4a4.3 4.3 0 0 1-8.7 0 4.3 4.3 0 0 1 8.6 0Z"/><path fill="#EEE" d="M990.5 8.8v13.4h1.8v-6.4h4.2V14h-4.2v-3.6h5.5V8.8h-7.3Zm10.5 2.7c.6 0 1.1-.5 1.1-1.1 0-.6-.5-1-1.1-1-.6 0-1.2.4-1.2 1 0 .4.2.6.4.9.2.2.5.3.8.3Zm-.9 1.7v9h1.7v-9h-1.8.1Zm8.3-.3c-2.3 0-4 2-4 4.3 0 2.2 1.7 4.2 4 4.2a3.6 3.6 0 0 0 2.6-1v1.1c0 .7-.3 1.4-.8 2a2.8 2.8 0 0 1-3.5.2l-.9 1.5a4.6 4.6 0 0 0 6.4-1.5 4 4 0 0 0 .6-2.2v-8.3h-1.8v.8a3.5 3.5 0 0 0-2.6-1Zm-2.2 4.3a2.3 2.3 0 0 1 1.1-2.2c.8-.5 1.8-.5 2.6 0 .8.4 1.2 1.3 1.1 2.2a2.3 2.3 0 0 1-1.1 2.2c-.8.4-1.8.4-2.5 0a2.4 2.4 0 0 1-1.2-2.2Zm12.7-2.4c-.5 0-1 .2-1.3.6a2 2 0 0 0-.6 1.3v5.7h-1.6v-9h1.6v.8a3 3 0 0 1 4.9.4 3 3 0 0 1 2.6-1.5c2 0 3.2 1.6 3.2 3.5v5.8h-1.7v-5.8a1.9 1.9 0 0 0-1.8-2.1c-.4 0-.8.1-1 .3a1.9 1.9 0 0 0-.8 1.9v5.6h-1.7v-5.6c0-.5-.2-1-.5-1.4-.4-.3-.9-.5-1.4-.5h.1Zm17.9-.4a4 4 0 0 0-3-1.3c-2.6 0-4.3 2.2-4.3 4.7s1.8 4.7 4.3 4.7a4 4 0 0 0 3-1.3v1h1.7v-9h-1.7v1.2Zm-5.7 3.5c0-1.1.5-2.1 1.4-2.7a2.8 2.8 0 0 1 4 1.1c.2.5.3 1 .3 1.6 0 1-.5 2-1.4 2.6a2.8 2.8 0 0 1-4-1.1l-.3-1.5Z"/><g fill="#EEE" clip-path="url(#e)"><path d="M1109.2 24.4c-1 0-2-.6-2.5-1.5s-.5-2 0-2.8l5.2-8c.5-1 1.5-1.5 2.5-1.4 1 0 2 .6 2.5 1.5s.4 2-.2 2.8l-5 8a3 3 0 0 1-2.5 1.4Zm8.8 0c-1 0-2-.6-2.5-1.5s-.5-2 0-2.8l5.2-8c.5-1 1.5-1.5 2.6-1.4 1 0 2 .6 2.4 1.5.5.9.4 2-.2 2.8l-5 8a3 3 0 0 1-2.5 1.4Zm8.6 0c1.5 0 2.7-1.1 2.7-2.5 0-1.5-1.2-2.6-2.7-2.6a2.6 2.6 0 0 0-2.6 2.6c0 1.4 1.2 2.5 2.6 2.5Zm115-5c.8 0 1.3.6 1.3 1.5v3.2h1v-3.3c0-1.5-.7-2.5-2-2.5a2 2 0 0 0-2 1.2c-.3-.6-.8-1-1.5-1l-.6-.1c-.4 0-1.2.3-1.5 1v-1h-1v5.7h1v-3c0-1.2.8-1.7 1.5-1.7.8 0 1.3.6 1.3 1.5v3.2h1v-3c0-1 .6-1.7 1.5-1.7Zm-10.4 3.8a1.8 1.8 0 0 0 1.8-2c0-1-.8-1.8-1.8-1.8s-1.8.7-1.8 1.9a1.8 1.8 0 0 0 1.8 1.9Zm0 1a2.9 2.9 0 0 1-2.9-3c0-1.7 1.3-2.9 3-2.9 1.5 0 2.8 1.2 2.8 3a3 3 0 0 1-2.9 3Zm-8.5-3a3 3 0 0 1 3-2.9 3 3 0 0 1 2.1 1l-.8.6c-.4-.3-.8-.5-1.3-.5-1 0-2 .7-2 1.9a2 2 0 0 0 1.2 1.7c.7.3 1.5.1 2-.4l1 .7a3 3 0 0 1-2.2 1 3 3 0 0 1-3-3Zm-3.5 1.8.2-.5c.2-.2.4-.2.6-.2a.8.8 0 0 1 .7.7c0 .4-.3.7-.7.7a.8.8 0 0 1-.8-.7Zm3-11.7h-3.9l-2.7 7-2.7-7h-3.8l4.7 11-3 7.3h3.9l7.5-18.3Zm-23.5 6.1c0 1.8 1.5 3 3 3s3-1.1 3-3c0-1.8-1.5-2.9-3-2.9s-3 1.2-3 3Zm6 6.2v-1.4c-.8 1.2-2.6 1.6-3.6 1.6a6.2 6.2 0 0 1-6.2-6.4c0-4 3.1-6.3 6.2-6.3.8 0 2.7.2 3.6 1.6v-1.4h3.6v12.3h-3.6Zm-10.8 0h-3.6V22c-.6 1-2 1.7-3.6 1.7-3.1 0-5.9-2.4-5.9-6.3 0-4 2.8-6.5 5.9-6.5 1.5 0 3 .7 3.6 1.8V4.6h3.6v19Zm-3.7-6.2c0-1.8-1.3-3-2.8-3a2.8 2.8 0 0 0-2.8 3c0 1.8 1.2 3 2.8 3 1.5 0 2.8-1.2 2.8-3Zm-18.3-.3c0-1.9 1-2.5 2.2-2.5 1.3 0 2.1.8 2.1 2.4v6.6h3.7v-7.3c0-3.5-1.8-5.3-4.5-5.3a4 4 0 0 0-3.5 2.1v-1.8h-3.7v12.3h3.7V17Zm-11 6.7a6.2 6.2 0 0 1-6.4-6.4c0-3.9 3-6.4 6.4-6.4 3.4 0 6.3 2.5 6.3 6.4 0 3.9-2.9 6.4-6.3 6.4Zm0-3.6c1.5 0 2.7-1 2.7-2.8 0-1.6-1.2-2.8-2.7-2.8a2.7 2.7 0 0 0-2.8 2.8c0 1.7 1.3 2.8 2.8 2.8Zm-12.9-5.6c1.1 0 2 .8 2 2.4v6.6h3.7v-7c0-3.7-1.9-5.6-4.8-5.6-.8 0-2.4.3-3.6 2.2-.7-1.4-2-2.1-4-2.1-1.3 0-2.5.8-3.1 2v-1.8h-3.7v12.3h3.7V17c0-1.9 1-2.5 2.1-2.5 1 0 2 .8 2 2.4v6.6h3.7V17c0-1.8.9-2.5 2-2.5Z"/></g><g clip-path="url(#f)"><path fill="#EEE" d="M1328.6 5.2h3.4v3.6h-3.4V5.2Zm59.4 0h3.4v3.6h-3.4V5.2Z"/><path fill="#EBEBEB" d="M1321 10c-2 0-3.3 1-4 1.7 0-.6-.4-1.3-1.8-1.3h-3.2v3.3h1.3c.2 0 .3.1.3.3v15.4h3.8v-6.2a5 5 0 0 0 3.5 1.3c3.7 0 6.3-3 6.3-7.2 0-4.3-2.5-7.2-6.1-7.2Zm-.7 11.2c-2 0-3-2-3-3.8 0-3 1.6-4 3-4 1.8 0 3 1.6 3 4 0 2.6-1.5 3.8-3 3.8Z"/><path fill="#EBEBEB" d="M1332.2 20.6v-8.2c0-1.4-.6-2-2-2h-3.4v3.3h1.3c.2 0 .3.1.3.3v8.2c0 1.4.6 2 2 2h3.4v-3.3h-1.3c-.2 0-.3-.1-.3-.3Zm10-10.6a5 5 0 0 0-4 1.7c0-.6-.5-1.3-2-1.3h-3.1v3.3h1.3c.2 0 .3.1.3.3v15.4h3.8v-6.2a5 5 0 0 0 3.5 1.3c3.7 0 6.3-3 6.3-7.2 0-4.3-2.5-7.2-6.1-7.2m-.8 11c-2 0-3-1.9-3-3.7 0-3 1.6-4 3-4 1.8 0 3 1.6 3 4 0 2.6-1.5 3.8-3 3.8Zm14-11c-4.2 0-7 3-7 7.2a7 7 0 0 0 7.3 7.2c3.4 0 5.4-2 5.5-2l.2-.2-1.7-2.8-.3.2s-1.5 1.5-3.5 1.5a3.5 3.5 0 0 1-3.6-3h9v-.3l.1-1.3c0-3.9-2.4-6.5-6-6.5Zm-3 5.2a2.8 2.8 0 0 1 3-2.1c1 0 2 .8 2.1 2h-5Zm22.9 5.3V7.2c0-1.4-.7-2-2-2h-3.5v3.3h1.4c.2 0 .3.1.3.3v2.4a5 5 0 0 0-3.6-1.1c-3.7 0-6.3 3-6.3 7.2 0 4.3 2.5 7.2 6.2 7.2a5 5 0 0 0 3.9-1.6c0 .5.4 1.3 1.9 1.3h3.3v-3.3h-1.3c-.2 0-.3-.1-.3-.3Zm-6.8.6c-1.8 0-3-1.6-3-4 0-2.2 1.2-3.7 3-3.7 2.1 0 3 1.9 3 3.8 0 2.8-1.5 3.9-3 3.9Zm16.9-11c-1.6 0-3 1-4 2.4v-.3c0-1.3-.6-2-2-2h-3.3v3.4h1.4c.2 0 .3.1.3.3v10.2h3.8v-5.5c0-.8 0-1.5.2-2.1.6-2 2.1-2.6 3.4-2.6h1v-3.7h-.2l-.6-.1Zm6.3 10.4v-8.2c0-1.4-.7-2-2-2h-3.1v3.3h1c.2 0 .2.1.2.3v8.2c0 1.4.7 2 2 2h3.5v-3.3h-1.3c-.3 0-.3-.1-.3-.3Z"/><path fill="#EBEBEB" d="M1406 13.7v-3.3h-2c-1.3 0-1.9.4-2.3 1.4l-2.5 7-.2.8-.2-.8-2.5-7c-.4-1-1-1.4-2.2-1.4h-2.2v3.3h.6c.3 0 .4.1.4.3l3.9 10.2h4.3l3.8-10.2c0-.2.2-.3.5-.3h.6Z"/><path fill="#EBEBEB" d="M1418.2 17.9v-1.3c0-3.9-2.4-6.5-6-6.5-4.1 0-7 3-7 7.2a7 7 0 0 0 7.3 7.2c3.4 0 5.5-2 5.5-2l.2-.2-1.7-2.8-.2.2s-1.5 1.5-3.5 1.5-3.3-1.2-3.6-3h9v-.3Zm-9-2.6a2.8 2.8 0 0 1 3-2.1 2 2 0 0 1 2.1 2h-5Z"/><path fill="#EEE" d="M1385.4 10.2c-1.3 0-2.4.5-3.3 1.5h4.2v-1.4h-.3l-.6-.1Zm16.3 1.6-.1.4 4.4.4v-2.2h-2c-1.3 0-1.9.4-2.3 1.4Zm-80.6-1.7c-2.2 0-3.4 1-4 1.6 0-.6-.5-1.3-2-1.3h-3.1v3.3h1.3c.2 0 .3.1.3.3v8.6a160 160 0 0 1 5.3-1.8c-1-.6-1.6-2-1.6-3.4 0-3 1.6-4 3-4 1.8 0 3 1.6 3 4 0 1-.2 1.7-.5 2.3l4.3-1.2.1-1.2c0-4.3-2.5-7.2-6.1-7.2Zm9.1.3h-3.4v3.3h1.3c.2 0 .3.1.3.3v4.2l3.8-1v-4.8c0-1.4-.6-2-2-2Zm-1.6-5.2h3.4v3.6h-3.4V5.2Zm13.6 4.9c-2.2 0-3.4 1-4 1.6 0-.6-.5-1.3-2-1.3h-3.1v3.3h1.3c.2 0 .3.1.3.3v2.7l3.9-.8c.4-1.8 1.7-2.4 2.8-2.4 1.1 0 2 .5 2.5 1.5l4-.7c-1-2.6-3-4.2-5.7-4.2Zm13.1 0c-3 0-5.3 1.5-6.3 4a224.8 224.8 0 0 1 11.5-1.3 5.8 5.8 0 0 0-5.2-2.7Zm18-5h-3.5v3.4h1.4c.2 0 .3.1.3.3v2.4a5 5 0 0 0-3.6-1.1c-2 0-3.8.9-4.9 2.5 4.1-.4 8.2-.6 12.3-.8V7.2c0-1.4-.7-2-2-2Zm6.1 5.3h-3.3v1.4l5.3-.1c-.2-.9-.9-1.3-2-1.3Zm8.6-5.2h3.4v3.6h-3.4V5.2Zm1.7 5.2h-3.1v1.3h5c-.2-.9-.8-1.3-2-1.3Zm4.4 0h-2.2v1.4l4.4.1v-.1c-.4-1-1-1.4-2.2-1.4Zm18-.3c-2.3 0-4.2 1-5.4 2.5l5.3.6h.8l5 .7c-.8-2.4-3-3.8-5.6-3.8Z"/></g><path fill="#EEE" d="M19.8 49.5a8.2 8.2 0 0 1 6-2.6 8.2 8.2 0 0 1 7.2 4.4c1.3-.6 2.7-1 4-1a10.5 10.5 0 0 1 6.8 17.5 9.7 9.7 0 0 1-6.7 3.4c-.7 0-1.4 0-2-.2a7.4 7.4 0 0 1-9.7 3.1c-.7 1.6-1.8 3-3.2 3.9a8.3 8.3 0 0 1-12.5-4.3l-1.6.2a7.7 7.7 0 0 1-5.6-2.4 8 8 0 0 1-2.3-5.7 8.2 8.2 0 0 1 4-7A9.6 9.6 0 0 1 6 48.6a9 9 0 0 1 13.7.9Z"/><path fill="#272727" d="M7 63.2v.1l.3.2c.5.2 1 .4 1.4.3 1 0 1.6-.5 1.6-1.3s-.7-1-1.3-1.3h-.1c-.5-.1-.9-.3-.9-.6s.2-.5.6-.5c.4 0 .9.2 1.2.4h.2l.2-.6v-.1c-.5-.3-1-.4-1.4-.4h-.1c-1 0-1.5.5-1.5 1.3 0 .9.6 1.1 1.3 1.3.5.1 1 .3 1 .6s-.3.5-.7.5c-.5 0-1 0-1.3-.3l-.1-.1h-.2l-.2.6Zm14.1 0v.1l.3.2c.5.2 1 .4 1.4.3 1 0 1.6-.5 1.6-1.3s-.7-1-1.3-1.3H23c-.5-.1-.9-.3-.9-.6s.3-.5.6-.5a2.7 2.7 0 0 1 1.3.4l.3-.6v-.1c-.4-.3-.9-.4-1.4-.4h-.1c-.9 0-1.5.5-1.5 1.3 0 .9.7 1.1 1.3 1.3h.1c.5.1.9.3.9.6s-.3.5-.7.5c-.4 0-.9 0-1.2-.3l-.2-.1h-.1l-.2.6Zm9.7-1.6c0 .4-.1.8-.3 1.1a1 1 0 0 1-.8.4 1 1 0 0 1-.7-.4 2 2 0 0 1-.3-1.1c0-.4 0-.8.3-1.1a1 1 0 0 1 .7-.5 1 1 0 0 1 .8.5c.2.3.3.7.3 1Zm.8-1c0-.2-.2-.4-.4-.6l-.6-.5-.9-.2c-.3 0-.6 0-.8.2a1 1 0 0 0-.6.5l-.4.7a3 3 0 0 0 0 1.7c0 .3.2.6.4.8.1.2.3.3.6.4.2.2.5.2.8.2a2 2 0 0 0 1.5-.6l.4-.8v-1.7Zm6.6 2.4v-.1H38l-.4.1h-.5a1.2 1.2 0 0 1-.9-.3l-.3-1.2c0-.4.1-.7.3-1a1.1 1.1 0 0 1 1-.4h.8l.2-.6c0-.2 0 0 0 0l-.5-.2h-.6c-.3 0-.7 0-1 .2l-.6.5-.4.7-.1.9c0 .5.1 1.1.5 1.6a2 2 0 0 0 1.6.6c.4 0 .8 0 1.1-.2 0 0 .1 0 0-.1l-.1-.5Zm1.4-1.9c0-.2 0-.4.2-.6a.9.9 0 0 1 .8-.4.8.8 0 0 1 .8.4l.1.6h-2Zm2.7-.6a3 3 0 0 0-.3-.6 2 2 0 0 0-.6-.4 2 2 0 0 0-1.6 0l-.7.5c-.1.2-.3.4-.3.7a3 3 0 0 0 0 1.8 1.9 1.9 0 0 0 1 1.2l1 .1c.5 0 1 0 1.4-.3v-.1l-.2-.5-1.2.2-1-.3-.2-1h2.7v-1.2Zm-24.5.7c0-.3 0-.5.2-.7a.9.9 0 0 1 .8-.4.8.8 0 0 1 .7.4c.2.2.2.4.2.7h-2Zm2.7-.6a3 3 0 0 0-.3-.7 2 2 0 0 0-.6-.4 2 2 0 0 0-2.3.5 3 3 0 0 0-.3 2.5 1.9 1.9 0 0 0 1 1.2c.4.1.7.2 1 .1.5 0 1 0 1.4-.2v-.2l-.2-.5c-.4.2-.8.3-1.2.2-.3 0-.6 0-1-.3l-.2-.9h2.7v-1.3ZM11.9 63l-.2-.1v-.4a.6.6 0 0 1 .2-.5 1 1 0 0 1 .8-.2h.7V63h-.7l-.8-.1Zm1-2h-.3l-.7.1-.6.3-.4.4-.1.7.1.6c0 .2.2.3.4.4l.5.3h1.6l.7-.1.1-.1c.1 0 0-.1 0-.1v-2.6a1.5 1.5 0 0 0-.4-1.2c-.3-.3-.8-.4-1.2-.4l-.7.1a2.2 2.2 0 0 0-.9.3l.2.6c0 .1.1 0 .1 0l1.3-.2c.2 0 .4 0 .6.2.2 0 .2.2.2.6v.1H13Zm22-1.4v-.1l-.5-.1-.6.1-.5.4v-.4h-.8v4.2h.8v-2.1a1.7 1.7 0 0 1 .3-1.2l.4-.2h.7l.3-.6Z"/><path fill="#272727" d="M28.2 57.6h-.6c-.4 0-.8 0-1.1.3-.4.4-.6.8-.6 1.3v.2h-.7l-.1.7h.7l-.6 3.5-.2.7-.2.4-.2.2h-.8l-.2.5a.2.2 0 0 0 0 .2h.7a1.4 1.4 0 0 0 1.2-.4l.3-.6.2-1 .6-3.5h1l.2-.7h-1.1l.2-.7.2-.3.3-.1h.6l.3-.6v-.1Zm-12.1 6v.1h-.9v-6h.8v6Z"/><path fill="#EEE" fill-rule="evenodd" d="m157.3 75.2.9-2c1 .6 2.3 1 3.6 1 1 0 1.6-.4 1.6-1 0-1.4-5.8-.2-5.8-4 0-2 1.7-3.5 4.2-3.5 1.5 0 3 .3 4 1.2L165 69c-1-.6-2.1-1-3.3-1-.8 0-1.3.3-1.3.8 0 1.5 5.7.7 5.8 4.3 0 2-1.7 3.4-4.2 3.4a8 8 0 0 1-4.7-1.3Zm35-2.8a2.7 2.7 0 0 1-4.2.5 2.5 2.5 0 0 1-.6-2.8 2.5 2.5 0 0 1 1.4-1.4 2.7 2.7 0 0 1 2.4.2c.4.2.7.5 1 1l2.4-1.4a6 6 0 0 0-2.6-2.4 5.6 5.6 0 0 0-6.5 1.7 5.3 5.3 0 0 0 0 6.6 5.5 5.5 0 0 0 6.5 1.7 6 6 0 0 0 2.6-2.4l-2.5-1.3Zm-24.8-11.2h3.1v15.1h-3.1v-15Zm28.5 0v15.1h3.1v-4.5l3.7 4.5h4l-4.7-5.4 4.4-5h-3.8l-3.6 4.2v-8.9H196Z" clip-rule="evenodd"/><path fill="#EEE" d="M180 72.4a2.8 2.8 0 0 1-2.5 1.3c-.7 0-1.3-.3-1.8-.8s-.8-1.1-.8-1.8a2.5 2.5 0 0 1 .7-1.8 2.6 2.6 0 0 1 2-.8 2.9 2.9 0 0 1 2.3 1.4v2.5Zm0-6.5v1.2a4.2 4.2 0 0 0-3.2-1.4c-2.7 0-4.9 2.4-4.9 5.4 0 3 2.2 5.4 5 5.4 1.2 0 2.5-.6 3-1.5v1.3h3.2V65.9h-3.2Z"/><path fill="#EEE" fill-rule="evenodd" d="M137.9 72.4c0 .5-.2 1-.6 1.3a2 2 0 0 1-1.4.6 2 2 0 0 1-1.3-.6c-.4-.3-.6-.8-.6-1.3s.2-1 .6-1.4a2 2 0 0 1 1.3-.5h2v1.9Zm1 0c0-.5.2-1 .6-1.2a2 2 0 0 1 3.2 1.2V77c0 .5-.3 1-.6 1.2a2 2 0 0 1-2.6 0 2 2 0 0 1-.7-1.2v-4.7Zm1.9-7.6a2 2 0 0 1-1.4-.6 1.9 1.9 0 0 1-.6-1.3 1.9 1.9 0 0 1 .5-1.6 2 2 0 0 1 1.5-.6 2 2 0 0 1 1.5.6 2 2 0 0 1 .4 1.6v1.9h-1.9Zm0 1c.5 0 .9.2 1.2.6a1.9 1.9 0 0 1 0 2.5 2 2 0 0 1-1.2.6H136a2 2 0 0 1-1.5-.4 2 2 0 0 1-.7-1.5 1.9 1.9 0 0 1 .7-1.4 2 2 0 0 1 1.5-.5h5Zm7.7 1.8c0-.5.2-1 .6-1.3a2 2 0 0 1 1.4-.6c.5 0 .9.3 1.2.7a1.9 1.9 0 0 1 0 2.5 2 2 0 0 1-1.2.6h-2v-1.9Zm-.9 0c0 .5-.2 1-.6 1.4a2 2 0 0 1-2.7 0 2 2 0 0 1-.6-1.4V63c0-.5.2-1 .6-1.4a2 2 0 0 1 1.3-.6c.6 0 1 .3 1.4.6.4.4.6.9.6 1.4v4.7Zm-2 7.6c.6 0 1 .2 1.4.6.4.3.6.8.6 1.3s-.2 1-.6 1.4a2 2 0 0 1-2.7 0 2 2 0 0 1-.6-1.4v-1.9h2Zm0-1a2 2 0 0 1-1.3-.5c-.4-.3-.6-.8-.6-1.3s.2-1 .6-1.4a2 2 0 0 1 1.3-.5h5c.4 0 .9.2 1.3.5a1.9 1.9 0 0 1 0 2.7 2 2 0 0 1-1.4.6h-4.9Z" clip-rule="evenodd"/><path fill="#EEE" d="M290.6 65.9a6.6 6.6 0 0 0-5.8 3.4 6.5 6.5 0 0 0-7.2-3.3c-.9.2-1.8.6-2.5 1.2v-5.5c0-.3-.2-.6-.4-.9a1.3 1.3 0 0 0-2.2 1v10.6a6.4 6.4 0 0 0 5 6.2 6.6 6.6 0 0 0 7.3-3.2 6.5 6.5 0 0 0 5.6 3.4 6.6 6.6 0 0 0 5.7-3.1 6.4 6.4 0 0 0-2.3-9c-1-.5-2-.8-3.2-.8ZM279 76.2a4 4 0 0 1-3.6-2.3 3.9 3.9 0 0 1 .8-4.3 4 4 0 0 1 6.7 2.7c0 1-.4 2-1.1 2.8a4 4 0 0 1-2.8 1.1Zm11.6 0a4 4 0 0 1-3.7-2.3 3.9 3.9 0 0 1 .8-4.3 4 4 0 0 1 6.8 2.7c0 1-.4 2-1.2 2.8a4 4 0 0 1-2.7 1.1Z"/><path fill="#EEE" d="m305.9 76.8-3.4-4.4 3.4-4.5a1.3 1.3 0 0 0-.3-1.8 1.3 1.3 0 0 0-1.9.3l-2.8 3.8-3-3.8a1.3 1.3 0 0 0-2.2.6c0 .3 0 .6.2 1l3.3 4.4-3.3 4.4a1.3 1.3 0 0 0 .3 1.7 1.3 1.3 0 0 0 1.8-.2l2.9-3.8 2.8 3.8a1.3 1.3 0 0 0 1.9.3 1.3 1.3 0 0 0 .3-1.8Z"/><g clip-path="url(#g)"><path fill="#EEE" d="M382.5 80.6a11 11 0 0 0 11.1-11c0-6-5-10.9-11.1-10.9a11 11 0 0 0-11.2 11c0 6 5 11 11.2 11Z"/><path fill="#272727" d="m376.6 69.7 2-2v-.4a.3.3 0 0 0-.5 0l-2 1.9-1.9-1.9a.3.3 0 0 0-.4 0l-.1.2v.3l2 1.9-2 1.8a.3.3 0 0 0 0 .3.3.3 0 0 0 0 .2.3.3 0 0 0 .4 0h.1l2-1.9L378 72a.3.3 0 0 0 .5 0v-.2a.3.3 0 0 0 0-.3l-2-1.8m11.4 0c0 .3.3.6.6.6l.4-.2a.6.6 0 0 0 0-.9.6.6 0 0 0-.4-.2c-.3 0-.6.3-.6.7m-1.2 0c0-1 .8-1.8 1.8-1.8s1.8.8 1.8 1.8-.8 1.7-1.8 1.7c-.5 0-1-.2-1.3-.5-.3-.3-.5-.8-.5-1.2Zm-.7 0c0 1.3 1.1 2.4 2.5 2.4s2.5-1 2.5-2.4-1.1-2.5-2.5-2.5c-.7 0-1.3.3-1.8.7-.4.5-.7 1.1-.7 1.8Zm-.2-2.5c-.4 0-.7.1-1 .3v-.2a.3.3 0 0 0-.4 0 .3.3 0 0 0-.2.3V72a.3.3 0 0 0 .5 0l.1-.3v-2.5c0-.9.1-1.2.9-1.3h.1c.2 0 .4-.1.4-.3a.3.3 0 0 0-.4-.4m-6.5 2c0-.4.3-.7.6-1a1.8 1.8 0 0 1 2.2 0c.4.3.6.7.7 1h-3.5Zm4.2 0a2.4 2.4 0 0 0-2.5-2c-.5 0-1 .2-1.4.5a2.5 2.5 0 0 0-1 2.6c.1.4.4.9.8 1.2a2.6 2.6 0 0 0 3 .2l.6-.6c.2-.1.1-.4 0-.5h-.5l-.1.2a2 2 0 0 1-.5.4 1.8 1.8 0 0 1-2.6-1V70h3.5c.5 0 .7-.4.7-.8Z"/></g><path fill="#EEE" fill-rule="evenodd" d="M484.2 81.7V69h-4.9v12.7h5Zm.4-13.8 8.4-10.3h-5l-8.5 10.3h5.1Zm1 1v12.8h4.8v-6.4c0-1.3 1.4-2.4 3.7-1.8V69c-1.7-.4-3.7 1.3-3.7 2.2V69h-4.9Z" clip-rule="evenodd"/><path fill="#EEE" fill-rule="evenodd" d="M499.6 69a6.4 6.4 0 1 0 0 12.8 6.4 6.4 0 0 0 0-12.9Zm0 4.4a2 2 0 1 1 0 4 2 2 0 0 1 0-4Zm-41-4.4v12.7h5V74c0-1.5 2.2-1.9 2.2 0v7.6h5V74c0-1.7 2.2-2 2.2 0v7.7h5v-9.3c0-3-3-3.7-4-3.7-1.2.1-3 .7-3.4 2.1-.4-1.7-2.6-2.1-3.8-2a4 4 0 0 0-3.2 1.5V69h-5Z" clip-rule="evenodd"/><path fill="#EEE" d="M621.4 61.8h-3.5v3.4h3.5a1.5 1.5 0 0 1 1.5 1.5 1.5 1.5 0 0 1-.5 1 1.5 1.5 0 0 1-1 .5h-3.5v3.5h3.5a5 5 0 0 0 5-5 5 5 0 0 0-5-5ZM601.5 80c4.2 0 7.8-2.5 9.5-6h4.4v6h2.5v-6h3.5c4 0 7.4-3.3 7.4-7.4 0-4-3.3-7.4-7.4-7.4h-6v9H612c-.8-5.1-5.1-9-10.4-9h-12.2L577.2 80h3l3.4-6H596v6h5.5Zm30.8-13.4a11 11 0 0 1-11 10.9v6H612v-4.7a14 14 0 0 1-10.4 4.6h-9v-6h-7l-3.5 6h-11L587.2 56h14.3a14 14 0 0 1 10.4 4.6V56h9.5a11 11 0 0 1 10.9 10.8Zm-39.7-5v6.5H587l-2 3.5h11v-10h-3.4Zm17 8a8 8 0 0 1-8 7.9h-3V74h3a4.5 4.5 0 0 0 4.4-4.4 4.4 4.4 0 0 0-4.5-4.5h-3v-3.4h3a8 8 0 0 1 8 7.9"/><g fill="#EEE" clip-path="url(#h)"><path d="M816.5 71.3v-3.5c0-3.3 1.7-5.3 4.4-5.3 1.6 0 2.6.6 3.4 1.4l-1 1.4c-.7-.5-1.3-1-2.4-1-1.6 0-2.5 1.2-2.5 3.4v3.6c0 2.2.8 3.2 2.4 3.2 1.1 0 2-.4 2.5-.9l.8 1.4a5 5 0 0 1-3.4 1.4c-2.6 0-4.2-2-4.2-5Zm16.5-.7v1c0 2.8-1.3 4.8-4 4.8-2.6 0-4-2-4-4.8v-1c0-2.9 1.4-4.8 4-4.8 2.7-.1 4 2 4 4.8Zm-6-.1v1c0 2.1.7 3.1 2 3.1s2-1 2-3v-1.1c0-2-.7-3-2-3s-2 1-2 3Zm14.7-1.4v7h-2v-6.8c0-1.3-.5-1.8-1.2-1.8-.8 0-1.4.5-1.9 1.2v7.4h-2V66h1.8l.1 1a3 3 0 0 1 2.5-1.3c1.6 0 2.7 1.2 2.7 3.4ZM843 75l.8-1.3c.7.6 1.5 1 2.4 1 1 0 1.7-.3 1.7-1v-.2c0-.8-.3-1-1.5-1.5l-1-.4c-1.3-.6-2-1.4-2-2.6v-.4c0-1.7 1.3-2.8 3.2-2.8a5 5 0 0 1 3.2 1.3l-1 1.3c-.8-.6-1.4-.7-2.2-.7-.9 0-1.3.4-1.3.9v.1c0 .6.3 1 1.4 1.4l1 .5c1.2.5 2.1 1.1 2.1 2.7v.4c0 1.9-1.5 2.8-3.4 2.8A5.7 5.7 0 0 1 843 75Zm13.1 1.1c-.4.2-1 .3-1.5.3-1.6 0-2.5-1-2.5-2.8v-5.9h-1.3V66h1.3l.1-2.5h1.8V66h1.8v1.7H854v5.8c0 .7.3 1 1 1h.9l.2 1.6Zm6.4-10.1-.3 2.1h-.5c-1 0-1.8.4-2.2 2v6h-2V66h1.4l.4 1.6c.5-1.4 1.4-1.8 2.2-1.8l1 .1Zm8.1 0v10.1H869l-.1-1c-.7.8-1.5 1.3-2.5 1.3-1.6 0-2.7-1.1-2.7-3V66h2v7.1c0 1 .3 1.4 1.1 1.4.7 0 1.4-.4 2-1.3V66h2Zm1.6 5.5v-.9c0-2.9 1.4-5 3.9-5 1.1 0 2 .6 2.8 1.4l-1 1.3a2 2 0 0 0-1.7-.8c-1.3 0-2 1-2 3v1c0 2 .7 3 2 3 .8 0 1.3-.3 1.8-.7l.8 1.4c-.7.7-1.8 1.2-2.7 1.2-2.5 0-3.9-2-3.9-5Zm12.8 4.6c-.3.2-.9.3-1.4.3-1.7 0-2.6-1-2.6-2.8v-5.9h-1.3V66h1.3l.2-2.5h1.7V66h1.9v1.7H883v5.8c0 .7.3 1 1 1h.9l.2 1.6Zm4-10.1v10.1h-1.9v-8.4H886V66h3.2Zm-2.2-3c0-.8.5-1.4 1.2-1.4.6 0 1.1.6 1.1 1.4 0 .8-.5 1.4-1.1 1.4-.6 0-1.2-.6-1.2-1.4Zm11.8 7.6v1c0 2.8-1.4 4.8-4 4.8-2.7 0-4-2-4-4.8v-1c0-2.9 1.3-4.8 4-4.8 2.6-.1 4 2 4 4.8Zm-6-.1v1c0 2.1.7 3.1 2 3.1s2-1 2-3v-1.1c0-2-.7-3-2-3s-2 1-2 3Zm14.6-1.4v7h-2v-6.8c0-1.3-.4-1.8-1.2-1.8-.8 0-1.4.5-1.9 1.2v7.4h-2V66h1.8l.1 1a3 3 0 0 1 2.5-1.3c1.6 0 2.7 1.2 2.7 3.4Zm5.9 2.2v-3.5c0-3.3 1.7-5.3 4.5-5.3 1.5 0 2.5.6 3.4 1.4l-1 1.4c-.7-.5-1.4-1-2.4-1-1.7 0-2.6 1.2-2.6 3.4v3.6c0 2.2.8 3.2 2.4 3.2 1.2 0 2-.4 2.5-.9l.9 1.4a5 5 0 0 1-3.4 1.4c-2.6 0-4.3-2-4.3-5Zm11.2 2.5c0 .5.1.7.6.7h.3l.2 1.7c-.3.2-.6.2-1 .2-1.3 0-2-.8-2-2.2V62h2v11.8Zm9.7-3.2v1c0 2.8-1.3 4.8-4 4.8-2.5 0-4-2-4-4.8v-1c0-2.9 1.5-4.8 4-4.8 2.7-.1 4 2 4 4.8Zm-6-.1v1c0 2.1.7 3.1 2 3.1s2-1 2-3v-1.1c0-2-.7-3-2-3-1.2 0-2 1-2 3Zm14.6-4.5v10.1H941l-.1-1c-.7.8-1.5 1.3-2.6 1.3-1.5 0-2.6-1.1-2.6-3V66h2v7.1c0 1 .3 1.4 1.1 1.4.7 0 1.4-.4 1.9-1.3V66h2Zm9-4v14.1h-1.5l-.2-1c-.6.7-1.3 1.3-2.4 1.3-2 0-3.3-2-3.3-4.8v-1.1c0-2.8 1.4-4.8 3.5-4.8.8 0 1.4.3 2 .9V62h2Zm-2 11.5v-5.1a2 2 0 0 0-1.6-1c-1.1 0-1.8 1.1-1.8 3v1.2c0 2 .6 3 1.7 3 .8 0 1.3-.4 1.8-1.1Zm-138-10.7h-3.4l-4 5.4v-5.4h-2.9V76h2.8v-5l3.9 5h3.6l-5.2-6.6 5.2-6.7Zm-14.9 5.5-2.6-.3c-1.5-.3-1.9-.7-1.9-1.3 0-.7.8-1.3 2.3-1.3 1.5 0 2.2.6 2.4 1.6h2.8c-.1-2.8-2.1-4.5-5-4.5-3.4 0-5.1 1.6-5.1 4.5 0 2.4 1 3.5 3.5 3.8l2.6.3c1 .2 1.4.6 1.4 1.2 0 .7-.6 1.3-2.2 1.3-2 0-2.7-.5-2.8-1.7h-2.7c0 3 1.7 4.6 5.3 4.6 3.3 0 5.1-1.7 5.1-4.3 0-2.3-1-3.6-3-4Zm-17.5 7.8h9v-2.9H782V71h5v-3h-5v-2.2h6.2v-3h-9v13.4Zm-6.7-13.3h-5.2V76h5.2c4 0 5-1.8 5-6.7 0-4.7-1-6.6-5-6.6Zm0 10.4H770v-7.6h2.3c1.8 0 2.3.6 2.3 3.7 0 2.9-.6 4-2.3 4Zm-12.9-10.8c-4 0-6.1 3-6.1 7s2 7 6.1 7c4 0 6.2-3 6.2-7s-2.1-7-6.2-7Zm0 11c-2 0-3.3-1.5-3.3-4s1.2-4 3.3-4c2.1 0 3.3 1.5 3.3 4 0 2.6-1.2 4-3.3 4ZM743 65.7h3.6V76h2.8V65.7h3.6v-3h-10v3Zm-4.1 5.3c0 1.7-1 2.5-2.4 2.5-1.5 0-2.5-.8-2.5-2.5v-8.2h-2.8v8.6c0 3.9 3 5 5.3 5 2.4 0 5.3-1.1 5.3-5v-8.6h-2.9V71Zm-16-8.2L718.6 76h3l.7-2.5h4.7l.8 2.5h3l-4.3-13.3h-3.6Zm.2 8 1.6-5.3 1.5 5.3h-3Zm-25.6 5.3 10-7.4h5.1c.2 0 .3.1.3.4l-.1.3-5 3.5c-.2.2-.4.7-.4 1v2.2h6.2V63.3c0-.3-.2-.5-.3-.5h-6l-9.9 7.4v6h.1Z"/></g><g clip-path="url(#i)"><path fill="#fff" d="M1021.7 63.6h5.3V76h2.6v5h-7.9V63.6ZM1046 75h-5.2V62.6h-2.6v-4.8h7.8V75Z"/><path fill="#E4E4E4" d="M1020.5 56.6h16.5v14.2l-6.3-8.2h-10.2v-6Zm26.6 25.5h-16.5V67.9l6.3 8.2h10.2"/><g clip-path="url(#j)"><path fill="#212221" d="M1032 65.5h.2v.1l.1.2v.4h-.1a1.2 1.2 0 0 1-.4 0h-.1v-.4l.2-.1a.6.6 0 0 1 .2 0v-.1h-.1a.7.7 0 0 0-.2 0v-.2h.1Zm0 .6h.1v-.2h-.2v.2h.1Zm.7-.8h-.2v-.1h.2Zm0 1h-.2v-.8h.2v.7Zm.6-.6a.5.5 0 0 0-.2 0v.5h-.2v-.7a.9.9 0 0 1 .3 0h.1v.2Zm.9.1v.2l-.1.1-.2.1h-.1a1 1 0 0 1-.3 0v-1l.2-.1v.4a.4.4 0 0 1 .3 0 .3.3 0 0 1 .1.2v.1Zm-.3 0-.1-.2h-.1v.5l.2-.1v-.2Zm.7-.3h.2v.7a1.2 1.2 0 0 1-.4 0h-.1v-.4l.1-.1a.6.6 0 0 1 .2 0v-.1a.8.8 0 0 0-.3 0v-.2h.4Zm0 .6v-.2h-.1v.2Zm.7 0V66l-.1-.1h-.1v-.4h.2a.7.7 0 0 1 .3 0v.2h-.4.1l.2.1v.4h-.2a.7.7 0 0 1-.3 0V66h.2Zm.4-.2v-.3l.2-.1h.4v.4h-.4v.1h.2a.6.6 0 0 0 .2 0v.2h-.5l-.1-.2Zm.5-.1v-.1h-.4.3Z"/><path fill="#FF6448" d="m1030 66.8-.6-.5v-1l.7.5 1-.7v1l-1 .7Zm0-.3.8-.6v-.3l-.7.6-.4-.4v.3l.4.4Z"/></g></g><path fill="#EEE" fill-rule="evenodd" d="M1182.5 66c.3.5.5 1.1.5 1.7v8.1c0 .7.3 1.3.8 1.8s1.2.8 2 .8h.8V67.7a3.6 3.6 0 0 1 1.8-3 3.7 3.7 0 0 1 3.7 0c.6.3 1 .7 1.4 1.3.3.5.4 1.1.4 1.7v8.1c0 .7.3 1.3.8 1.8s1.2.8 2 .8h.9V67.7c0-1.8-.8-3.6-2.2-5a7.6 7.6 0 0 0-10.7.3 7.2 7.2 0 0 0-5.6-2.4c-1.4 0-2.8.4-4 1.2-1-.7-2.1-1.1-3.3-1.2v17.8h.9c.7 0 1.4-.2 1.9-.7.5-.5.8-1.2.8-1.9v-8a3.4 3.4 0 0 1 2.2-3.4l1.4-.2c.7 0 1.3.1 1.9.5.5.3 1 .7 1.3 1.3h.3Zm-63 12.4h14.8v-.8a2.7 2.7 0 0 0-2.8-2.7h-9.2l11-10.7v-.8c0-.7-.2-1.4-.7-1.9-.5-.5-1.2-.7-2-.8h-14.8v1c0 .6.4 1.3.9 1.7.5.5 1.1.8 1.8.8h9.3l-11 10.7v1c0 .7.3 1.3.8 1.8a3 3 0 0 0 1.9.8Zm48.9-15.2a8.8 8.8 0 0 1 0 12.7 9.5 9.5 0 0 1-13 0 9 9 0 0 1-3-6.4 8.7 8.7 0 0 1 2.8-6.5 9.2 9.2 0 0 1 6.6-2.6 9.5 9.5 0 0 1 6.6 2.8Zm-2.6 2.5c1 1 1.6 2.4 1.6 3.8a5.3 5.3 0 0 1-3.4 5 5.6 5.6 0 0 1-6-1.2 5.3 5.3 0 0 1 1.8-8.7 5.6 5.6 0 0 1 6 1.1Zm-23.3-5a9 9 0 0 1 8.5 5.5c.7 1.6 1 3.4.6 5.1a8.8 8.8 0 0 1-2.6 4.6 9.4 9.4 0 0 1-12.5-.5 8.8 8.8 0 0 1-.4-12.2 9 9 0 0 1 6.4-2.6Zm4 5c.8.8 1.3 1.7 1.5 2.8a5.3 5.3 0 0 1-2.4 5.5 5.6 5.6 0 0 1-8.2-2.4 5.3 5.3 0 0 1 1.2-5.9 5.6 5.6 0 0 1 7.9 0Z" clip-rule="evenodd"/><path fill="#EEE" d="M1305.5 78.9a9 9 0 0 1-4.8 1c-6 0-9.4-3.6-9.4-9.5 0-6 3.4-9.7 9.3-9.7 1.7 0 3.5.3 4.8 1.3v2.5a7.4 7.4 0 0 0-4.8-1.3c-4.2 0-6.8 2.9-6.8 7.2 0 4.2 2.6 7.2 7 7.2 1.5 0 3.2-.4 4.6-1.2v2.5Zm1.7-6.4c0-4.2 2.4-7.3 6.5-7.3s6.5 3 6.5 7.3-2.4 7.5-6.5 7.5-6.5-3.2-6.5-7.5Zm2.3 0c0 2.8 1.3 5.2 4.2 5.2 3 0 4.2-2.4 4.2-5.2 0-2.7-1.3-5-4.2-5-3 0-4.2 2.4-4.2 5Zm25.2 7.2h-2.4v-8.6c0-2.6-1-3.7-3.2-3.7-2.3 0-3.7 1.5-3.7 4.4v8h-2.4V65.4h2.4v2.3a4.8 4.8 0 0 1 4.3-2.6c3.2 0 5 2.3 5 6.2v8.3Zm6.6-14.2h3.6v2.2h-3.6v12h-2.3v-12h-2.3v-2.2h2.3v-1.6c0-2.7 1.4-4.5 4.4-4.5l1.6.3v2.2l-1.5-.1c-1.5 0-2.2.9-2.2 2.1v1.6Zm9.8 14.3c-2.3 0-3.7-1.1-3.7-3.7V59.5h2.4v16.3c0 1.3.8 1.7 1.8 1.7h.7v2.2h-1.2Zm3.2-14.3h2.4V74c0 2.5 1 3.7 3.2 3.7 2.3 0 3.8-1.5 3.8-4.4v-8h2.3v14.3h-2.3v-2.3a5 5 0 0 1-1.9 2c-.7.4-1.6.7-2.5.6-3.2 0-5-2.3-5-6.2v-8.3Zm22 14.5c-5.3 0-7.5-3-7.5-7.5 0-4.4 2.3-7.3 6.5-7.3 4.1 0 6 3 6 7.3v1.2h-10.1c.3 2.4 1.8 4 5 4a12 12 0 0 0 4.3-.8v2.3c-1.4.6-2.8.9-4.3.8Zm-5.2-8.5h7.7c0-2.6-1.3-4.1-3.6-4.1s-3.8 1.7-4 4.1Zm24.7 8.2h-2.4v-8.6c0-2.6-1-3.7-3.3-3.7-2.2 0-3.7 1.5-3.7 4.4v8h-2.4V65.4h2.4v2.3a4.8 4.8 0 0 1 4.3-2.6c3.2 0 5 2.3 5 6.2v8.3Zm13-.3c-1 .4-2.2.6-3.4.6-5 0-7.2-3-7.2-7.5 0-4.4 2.3-7.3 7.2-7.3 1.1 0 2.3.1 3.3.6v2.3c-1-.5-2-.7-3.1-.7-3.6 0-5 2.4-5 5.1 0 2.8 1.5 5.2 5 5.2 1.1 0 2.2-.2 3.1-.6l.1 2.3Zm9.3.6c-5.2 0-7.4-3-7.4-7.5 0-4.4 2.3-7.3 6.5-7.3s5.9 3 5.9 7.3v1.2h-10c.3 2.4 1.8 4 5 4a12 12 0 0 0 4.2-.8v2.3c-1.3.6-2.8.9-4.2.8Zm-5-8.5h7.6c-.1-2.6-1.3-4.1-3.6-4.1-2.4 0-3.8 1.7-4 4.1Zm-149.1 4-.6 1v.5c0 .2 0 .3.2.4l4.1 2.6.5.1c.1 0 .3-.1.3-.3l.7-1c1.6-2.7 3.2-2.4 6.1-1l4 2h.5c.2 0 .3-.1.4-.3l2-4.5v-.5l-.4-.4-4-2c-5.5-2.7-10.2-2.5-13.8 3.5Z"/><path fill="#EEE" d="m1282.3 65.2.6-1v-.6c0-.1 0-.3-.2-.4l-4.1-2.6a.6.6 0 0 0-.5 0h-.2l-.1.2-.7 1c-1.5 2.9-3.2 2.5-6.1 1l-4-2a.6.6 0 0 0-.9.4l-2 4.6v.5a.5.5 0 0 0 .4.3l4 2c5.5 2.8 10.2 2.6 13.8-3.4ZM.3 139.9h30v-30H.3v30Z"/><path fill="#272727" d="M23.8 119.2a8 8 0 0 0-11.3 0l-.2.2-1.1-.1a6.8 6.8 0 0 0-4.9 2 6.8 6.8 0 0 0 4.9 11.7h7.1a8 8 0 0 0 7.8-9.7 8 8 0 0 0-2.3-4Zm-12.6 12.3a5.5 5.5 0 0 1-3.8-9.2 6 6 0 0 1 3.8-1.6h.8l.8.2c.5.2 1 .4 1.4.8.3.1.5.3.6.5l.2.1 2.2 2.2a.8.8 0 0 1 0 1 .6.6 0 0 1-.5.3.7.7 0 0 1-.6-.2l-1.8-1.8-.3-.4-.2-.2c-.5-.4-1.1-.7-1.8-.8h-.8c-1 0-2 .4-2.6 1a3.8 3.8 0 0 0 2.7 6.6h.7l.6.6c.3.4.7.7 1.1.9h-2.5Zm11.6-2c-.7.7-1.5 1.2-2.4 1.6l-.8.2-1.3.2H18c-1.5 0-3-.5-4.1-1.5l-.5-.4-3-3.1a.8.8 0 0 1 0-1c0-.1 0-.2.2-.2h.2a.7.7 0 0 1 .6.1l3 3c.3.4.6.6 1 .8a4 4 0 0 0 2.6.7l1.2-.1c.3 0 .6-.1.8-.3l1.6-1a5.1 5.1 0 0 0 0-7.2 5 5 0 0 0-6.4-.6c-.4-.4-.9-.6-1.4-.8a6.6 6.6 0 0 1 9 9.7Z"/><g clip-path="url(#k)"><path fill="#B7B7B7" d="M148 108.8a23.6 23.6 0 0 1 22.3 14c.1.3.2.6.1 1 0 .5-.5 1-1 1-.7 0-1.3-.3-1.5-.8a20.8 20.8 0 0 0-38.3 0 1.3 1.3 0 0 1-2.5-1 23.5 23.5 0 0 1 20.8-14.2Z"/><path fill="#EBEBEB" d="M144 124c0-.2.2-.4.5-.4h1c.1 0 .4.1.4.4v8.6l3.5-3.9c.3-.2.4-.5.8-.6h1.4c.2 0 .4.2.4.4l-.4.4-3.8 3.7 3.7 4.2.4.6c.1.2 0 .4-.2.4h-1.8l-.5-.6-3.5-4.4v4.4l-.1.4c-.2.3-.6.2-.9.2l-.7-.1c-.2-.1-.2-.3-.2-.4V124Zm-5.3 4c.6 0 1.3-.1 1.8.1.2.1.5.3.4.6l-.3.9c0 .2-.3.3-.6.3l-1.4-.3c-.4 0-.7.2-1 .4a4 4 0 0 0-.6 1.5v5.8c0 .3-.3.5-.5.5h-1c-.2 0-.5-.2-.4-.5v-8.8c0-.3.3-.4.5-.4.3 0 .8 0 1 .2l.4 1.2c.4-.6 1-1.2 1.7-1.4Zm-33 .3.4-.2h1.3c.2 0 .4.2.4.4l1.3 5.3.4 1.6.1 1.5.4-2.1 1.7-6.3c0-.2.3-.4.5-.4h1.5c.3 0 .5.2.6.4l1.3 4.6.7 3 .1.8c.2-1.6.6-3.1 1-4.7l.8-3.7c0-.3.3-.4.5-.4h1.2c.2 0 .3.3.3.5l-2.4 8.8c0 .2-.3.4-.5.4h-1.8c-.3 0-.5-.1-.5-.3l-1.7-6-.3-2.2-.3 1.9-1.7 6.2c0 .4-.4.4-.7.4h-1.7a.4.4 0 0 1-.4-.4l-2.4-8.7v-.4Zm71.8-.2h1.2c.3 0 .5.2.6.4l2.2 5.7.3 1.1 1-3.2 1.2-3.6c0-.2.2-.4.4-.4h1c.3 0 .5 0 .7.2v.3l-3.4 9.8-.7 1.6c-.5.7-1.2 1.3-2 1.6-.3 0-.6.3-1 .2l-.3-.5c-.1-.2-.3-.3-.3-.5s.2-.3.4-.4c.3 0 .7-.2 1-.5a4 4 0 0 0 1.2-2.3c0-.3-.3-.7-.4-1l-3.3-7.7-.2-.5c0-.2.2-.3.4-.3Zm-51 1.2c-.6.2-1.1.5-1.4 1-.5 1-.6 2-.6 3 0 .8.2 1.7.8 2.5.4.5 1 .8 1.8.8.6 0 1.3-.2 1.7-.7.6-.6.7-1.5.8-2.3l-.1-2.3c-.2-.7-.5-1.3-1.1-1.7-.6-.3-1.3-.3-1.9-.3Zm.3-1.3a4 4 0 0 1 3 .8 4 4 0 0 1 1.7 2.3 7 7 0 0 1 0 3.5c-.3 1-.9 2-1.8 2.6a5 5 0 0 1-5.9-.6 5 5 0 0 1-1.2-3.1c-.1-1.3 0-2.6.8-3.7a4 4 0 0 1 2.2-1.6c.4-.2.8-.2 1.2-.2Zm31.8 1.3c-.6 0-1.2.4-1.4 1-.5 1-.5 2-.5 3.2 0 .7.1 1.4.4 2 .3.5.7.9 1.2 1 .7.1 1.6 0 2.1-.6s.7-1.4.8-2.1c0-.9 0-1.7-.2-2.6a3 3 0 0 0-.8-1.5 2 2 0 0 0-1.6-.4Zm2.6-5.4c0-.2.2-.4.4-.4h1c.2 0 .5.2.4.5v13.3c0 .2-.2.4-.4.4h-.8a.5.5 0 0 1-.4-.3l-.2-.9c-.4.5-.8 1-1.4 1.1-.8.3-1.7.3-2.5.1a3 3 0 0 1-2-1.5 7.4 7.4 0 0 1-.7-3.8 5 5 0 0 1 1-3.1 3 3 0 0 1 2.3-1.3c.8-.1 1.7 0 2.4.5.4.2.6.6.9.9v-5.5Zm8.9 5.5a2 2 0 0 0-.8.3c-.5.4-.7 1-.9 1.6v2.7c0 .7.2 1.5.7 2 .4.4 1 .5 1.6.5a2 2 0 0 0 1.7-.7c.5-.6.6-1.4.7-2.1a8 8 0 0 0-.2-2.7c-.2-.5-.5-1-1-1.4-.5-.3-1.2-.3-1.8-.2Zm-.8-1.3c.8-.2 1.8-.2 2.6 0s1.6.6 2 1.3c.6.7.8 1.5 1 2.4v5.5c0 .1 0 .3-.2.3-.2.2-.4.1-.6.1-.3 0-.6 0-.7-.2-.2-.3-.2-.7-.3-1a3 3 0 0 1-1.2 1 3.7 3.7 0 0 1-4.7-1.3 5 5 0 0 1-.9-3.3c0-1.1.2-2.3.8-3.2a4 4 0 0 1 2.2-1.6Zm17.2 7.3c-.5.2-.8.8-.7 1.3.2.6.8 1 1.4.7a1 1 0 1 0-.7-2Zm0-.2h1c.4.3.7.7.7 1.3 0 .6-.5 1.1-1 1.2-.7.1-1.5-.3-1.6-1-.2-.7.3-1.4 1-1.5Z"/><path fill="#EBEBEB" d="M186.7 135.9v.4h.4v-.3l-.4-.1Zm-.4-.2h1c.3.3.2.7 0 .8l.2.6h-.4l-.2-.6h-.2v.6h-.4v-1.4Z"/></g><path fill="#EEE" d="M268.3 139a2.9 2.9 0 0 1-2-.8 2.8 2.8 0 0 1 0-4 2.8 2.8 0 0 1 4 0c.6.6.8 1.3.8 2a2.8 2.8 0 0 1-2.8 2.9Zm2.8.5.4.6c.2.2.4.3.7.3h.5v-8a.2.2 0 0 0-.2-.3h-1.1a.2.2 0 0 0-.3.3v.6a3.6 3.6 0 0 0-2.8-1.2c-1.2 0-2.3.5-3.1 1.3a4.4 4.4 0 0 0 3.1 7.5 3.8 3.8 0 0 0 2.8-1.1Zm4.3-1.2a4 4 0 0 0 2.4.8c.7 0 1.5-.4 1.5-1 0-.8-1.7-1-2.7-1.4-1.1-.4-2-1.1-2-2.3 0-1.2 1.6-2.6 3.2-2.6a5 5 0 0 1 2.6.8c.2.2 0 .4 0 .4l-.6.8a.2.2 0 0 1-.1.1h-.2c-.5-.4-1.1-.6-1.7-.6-1.1 0-1.5.5-1.5 1s.7.8 1.6 1c.9.3 3 1 3 2.7 0 1.8-1.5 2.6-3.1 2.6-1.2 0-2.3-.3-3.3-1a.3.3 0 0 1 0-.3l.6-.9a.2.2 0 0 1 .3 0Zm14 1.2a1.2 1.2 0 0 0 1 1h.3a.2.2 0 0 0 .2-.3v-8h-1.3a.2.2 0 0 0-.3.2v.6a3.6 3.6 0 0 0-2.8-1.2c-1.2 0-2.3.5-3.1 1.3a4.4 4.4 0 0 0 3.1 7.5 3.8 3.8 0 0 0 2.8-1.1Zm-2.9-.4a2.9 2.9 0 0 1-2-.8 2.8 2.8 0 0 1-.8-2c0-.8.3-1.5.8-2a2.8 2.8 0 0 1 4.6 3 2.8 2.8 0 0 1-1.5 1.6l-1.1.2Zm14.5.6v-4c0-2.3-1.5-3.9-3.8-3.9a3 3 0 0 0-2.4 1.2.9.9 0 0 0-.3-.6 1 1 0 0 0-.7-.3h-.3a.2.2 0 0 0-.3.3v7.8l.1.2h1.5v-4.7c0-.6.3-1.1.7-1.6.4-.4 1-.6 1.6-.6a2.2 2.2 0 0 1 1.6.6 2.2 2.2 0 0 1 .6 1.6v4.6l.1.2h1.5v-.8Zm8.7-.2a1.2 1.2 0 0 0 1 1h.3a.3.3 0 0 0 .3-.3v-7.8a.2.2 0 0 0-.3-.3h-1l-.2.1v.8a3.6 3.6 0 0 0-2.9-1.2c-1.1 0-2.3.5-3.1 1.3a4.4 4.4 0 0 0 3.1 7.5 3.8 3.8 0 0 0 2.9-1.1Zm-2.9-.4a2.9 2.9 0 0 1-2-.8 2.8 2.8 0 0 1-.8-2c0-.8.3-1.5.8-2a2.8 2.8 0 0 1 4.7 3 2.8 2.8 0 0 1-2.7 1.8Zm-14.1-20.6c-1 0-2 .4-2.8 1.1a3.8 3.8 0 0 0 2.8 6.6c1 0 2-.4 2.8-1.1a3.8 3.8 0 0 0-2.8-6.6Zm-10.1 0a4 4 0 0 0-3.6 2.4 3.8 3.8 0 0 0 2.8 5.2 4 4 0 0 0 4-1.6 3.8 3.8 0 0 0-.4-4.9 4 4 0 0 0-2.8-1.1Zm9-4.8c0 1-.5 2-1.2 2.7a4 4 0 0 1-6.7-2.7c0-1 .4-2 1.2-2.8a4 4 0 0 1 6.6 2.8Zm111 23.3h-2v-8h2v8Zm16.7-5.6a4 4 0 0 0-1.8-.5 2.2 2.2 0 0 0-1.6.6 2 2 0 0 0-.6 1.6 2.1 2.1 0 0 0 1.4 2l.8.1a4 4 0 0 0 1.8-.4v2.1c-.6.2-1.2.3-1.9.3-2.3 0-4.4-1.5-4.4-4.1 0-2.7 1.9-4.2 4.4-4.2.7 0 1.3.1 1.9.3v2.2Zm-21.6 0c-.5-.3-1.1-.5-1.7-.5a2.3 2.3 0 0 0-1.8.5 2.2 2.2 0 0 0-.8 1.7 2.1 2.1 0 0 0 .8 1.6 2.2 2.2 0 0 0 1.8.5c.6 0 1.2-.1 1.7-.4v2.1c-.6.2-1.2.3-1.9.3-2.3 0-4.3-1.5-4.3-4.1a4 4 0 0 1 1.2-3 4.2 4.2 0 0 1 3.1-1.2 7 7 0 0 1 2 .3v2.2Zm28-.5c-.5 0-1 .3-1.4.7a2.1 2.1 0 0 0 0 3 2.2 2.2 0 0 0 3 0 2.1 2.1 0 0 0 0-3c-.4-.4-1-.7-1.5-.7Zm4.4 2.2a4.3 4.3 0 0 1-5.1 4.3c-.8-.2-1.6-.6-2.2-1.2a4.2 4.2 0 0 1-1-4.7 4.4 4.4 0 0 1 4-2.6 4.3 4.3 0 0 1 3 1.2 4 4 0 0 1 1.3 3Zm-19.6-2.2-1.7-.3c-.8 0-1.2.3-1.2.7 0 .4.6.6.9.7l.6.2c1.3.5 2 1.3 2 2.3 0 2-1.9 2.7-3.4 2.7-.8 0-1.5 0-2.3-.2v-1.9l2 .4c1 0 1.4-.3 1.4-.8s-.3-.6-.8-.8l-.5-.1c-1.2-.4-2.1-1-2.1-2.4 0-1.3 1.1-2.5 3-2.5l2 .2v1.8Zm-21.2-10.5a1 1 0 0 0-.3-.7 1 1 0 0 0-.7-.3 1 1 0 0 0-1 1v2.1a1 1 0 0 0 .2.7 1 1 0 0 0 .8.3c.2 0 .5-.1.7-.3.2-.2.3-.4.3-.7v-2Zm5.6-2.7a1 1 0 0 0-.3-.8 1 1 0 0 0-.7-.3c-.3 0-.6.2-.7.4a1 1 0 0 0-.4.7v4.8c0 .3.1.6.3.7a1 1 0 0 0 1.5 0c.2-.1.3-.4.3-.7v-4.8Zm5.7-3.8a1 1 0 0 0-.3-.7 1 1 0 0 0-1.8.7v10.7c0 .2.1.5.3.6.2.2.5.3.7.3.3 0 .6 0 .7-.3.2-.1.4-.4.4-.6v-10.7Zm5.6 3.8a1 1 0 0 0-.3-.8 1 1 0 0 0-.7-.3c-.3 0-.6.2-.8.4a1 1 0 0 0-.3.7v4.8a1 1 0 0 0 .3.7 1 1 0 0 0 .8.3c.2 0 .5 0 .7-.3.2-.1.3-.4.3-.7v-4.8Zm5.6 2.7a1 1 0 0 0-.6-.9 1 1 0 0 0-.4 0 1 1 0 0 0-.7.2 1 1 0 0 0-.3.7v2.1a1 1 0 0 0 .3.7 1 1 0 0 0 .7.3c.2 0 .5 0 .7-.3.2-.1.3-.4.3-.7v-2Zm5.7-2.7a1 1 0 0 0-.4-.7 1 1 0 0 0-.7-.3 1 1 0 0 0-.7.3 1 1 0 0 0-.3.7v4.8c0 .3.1.6.3.7a1 1 0 0 0 1.5 0c.2-.1.3-.4.3-.7v-4.8Zm5.6-3.8a1 1 0 0 0-.3-.7 1 1 0 0 0-.8-.3 1 1 0 0 0-.7.3 1 1 0 0 0-.3.7v10.7a1 1 0 0 0 2 .4v-11.1Zm5.6 3.8a1 1 0 0 0-.2-.9 1 1 0 0 0-1.3-.3 1 1 0 0 0-.5.7v5.3a1 1 0 0 0 .2.7 1 1 0 0 0 .8.3c.2 0 .5 0 .7-.3.2-.1.3-.4.3-.7v-4.8Zm5.7 2.7a1 1 0 0 0-.4-.7 1 1 0 0 0-.7-.3 1 1 0 0 0-1 .6v2.5c0 .3.1.6.3.7a1 1 0 0 0 1.5 0c.2-.1.3-.4.3-.7v-2Zm-1.2 15.6v.1h-.4v1h-.2v-1h-.3v-.1h.9Zm0 0h.3l.3.9.3-.9h.3v1h-.2v-.8l-.3.9h-.2l-.3-1v1h-.2V136Zm104-25.6h-24.3a3 3 0 0 0-3 3v24.3a3 3 0 0 0 3 2.9h24.3a3 3 0 0 0 3-3v-24.3a3 3 0 0 0-3-3Z"/><path fill="#272727" d="M534.8 114.3h-6.4c-.8 0-1.4.7-1.4 1.4v10.4c0 .8.6 1.5 1.4 1.5h6.4c.8 0 1.4-.7 1.4-1.5v-10.4c0-.7-.6-1.4-1.4-1.4Zm-13.1 0h-6.4c-.8 0-1.5.7-1.5 1.4v18c0 .8.7 1.4 1.5 1.4h6.4c.7 0 1.4-.6 1.4-1.4v-18c0-.7-.7-1.4-1.4-1.4Z"/><path fill="#EEE" d="M633.6 142.2a17 17 0 0 1-15-19 17 17 0 0 1 33.4-1.5 17 17 0 0 1-18.4 20.5Zm1-15.3v-8.4h-2.2c-2.6 0-3.4 0-4.4.4a6.6 6.6 0 0 0-4.4 4.7 8 8 0 0 0 0 3.1 6.8 6.8 0 0 0 4.4 5c.7.3.9.3 1.8.3h1v-2.3h-.8a4 4 0 0 1-3-1.4 4.4 4.4 0 0 1 1.2-7c.9-.3 1.2-.4 2.8-.4h1.3v14.4h2.4v-8.4Zm7.1 5a6.6 6.6 0 0 0 5.7-6.6l-.1-1.8a6.8 6.8 0 0 0-6.3-5h-1l.1 1.2v1.2h.9c.9 0 1.3.2 1.9.6a4 4 0 0 1 1.9 2.2c.2.6.3 2 .1 2.7a4.2 4.2 0 0 1-2.2 2.7 6 6 0 0 1-3 .6h-1.1v-14.4H636V132h5.6Z"/><g fill="#EEE" clip-path="url(#l)"><path d="m743.8 107.2-11.2 1c-.7 0-1.3.5-1.6 1l-.2.6v24.7l.4.8 3.3 4.4c3 4 3.3 4.3 4.5 4.4l5.7-.3 10-.6c11.6-.7 11-.6 11.6-1.2.9-.6.8.5.9-14.5 0-12.8 0-13.6-.2-14a27 27 0 0 0-6-4.4c-3.4-2.5-3.7-2.6-5.3-2.6l-12 .7ZM757 109a55.4 55.4 0 0 1 4.8 3.5c-.2.2-22.7 1.5-23.3 1.4a3 3 0 0 1-1-.4c-1-.7-3.6-2.8-3.6-3 0-.3-.1-.3 10-1l7-.6c4.1-.3 5.3-.3 6.1 0Zm7.2 6.4c.1.2.3.5.3.8v11.7c0 10.6 0 11.2-.2 11.5l-.5.5c-.5.2-24.1 1.5-24.6 1.4l-.7-.4-.3-.4v-23.3l.5-.6 6.4-.5 11.6-.7c7.1-.5 7.1-.5 7.5-.1Z"/><path d="M758 119.2a8 8 0 0 0-2.6.3c-.4.2-.6.5-.7.9 0 .4 0 .4 1.4.6h.5v10a738.7 738.7 0 0 1-7.5-11.3 48.5 48.5 0 0 0-6.1.6c-.3.1-.7.8-.7 1.2 0 .2.4.4 1.4.4h.5v14.4l-.8.3c-.7.2-.9.3-1 .5-.2.4-.2.8 0 .8l3-.2c3-.2 3.4-.3 3.7-.9l.2-.4-1-.3-1-.3c-.3 0-.3-.4-.3-5.5V125l3.6 5.6c3.8 5.9 4.3 6.6 4.9 6.9.7.3 2.5 0 3.4-.5l.3-.2v-16l.7-.2c.8-.1 1.1-.5 1.1-1 0-.4 0-.5-.4-.5l-2.7.2Z"/></g><g clip-path="url(#m)"><path fill="#EEE" d="m846 135.9 6.1-4.7c3.2 4.2 6.7 6.2 10.5 6.2s7.1-2 10.2-6.1l6.2 4.5c-4.5 6-10 9.2-16.4 9.2-6.4 0-12-3.1-16.6-9.1Zm16.6-20.3-10.8 9.4-5-5.8 15.8-13.7 15.7 13.7-5 5.8-10.7-9.4Z"/></g><path fill="#EEE" d="m973 117.8-7.4 4.6 7.4 4.6-7.4 4.6-7.3-4.7 7.3-4.6-7.3-4.5 7.3-4.6 7.4 4.6Zm-7.4 15.3 7.4-4.6 7.3 4.6-7.3 4.5-7.4-4.5Zm7.4-6.2 7.4-4.6-7.4-4.5 7.3-4.6 7.4 4.6-7.4 4.6 7.4 4.6-7.4 4.6-7.3-4.7Zm20.5-9.1h6c3.8 0 6.9 2.1 6.9 7v1c0 5-3 7.3-6.8 7.3h-6.1v-15.3Zm3.3 2.7v9.7h2.6c2.1 0 3.6-1.3 3.6-4.4v-.8c0-3-1.5-4.5-3.7-4.5h-2.5Zm11.3.2h2.7l.5 2.9c.5-2 1.7-3 4-3h1v3.3h-1.5c-2.7 0-3.3.9-3.3 3.5v5.7h-3.3v-12.4Zm8.8 6.4v-.3c0-4.1 2.7-6.4 6.4-6.4s6.3 2.3 6.3 6.4v.3c0 4.1-2.5 6.3-6.3 6.3s-6.4-2.2-6.4-6.3Zm9.4 0v-.3c0-2.3-1.2-3.7-3-3.7-2 0-3.2 1.3-3.2 3.7v.3c0 2.2 1.2 3.5 3.1 3.5 1.9 0 3-1.3 3-3.5Zm5-6.4h2.8l.4 2.3c.3-.8.8-1.5 1.6-2 .7-.4 1.6-.6 2.5-.6 3.2 0 5.3 2.3 5.3 6.4v.4c0 4-2.3 6.2-5.3 6.2-2 0-3.4-.9-4-2.3v6.2h-3.3v-16.6Zm9.3 6.4v-.3c0-2.4-1.3-3.7-3-3.7s-3 1.4-3 3.7v.3c0 2.2 1.1 3.5 3 3.5 1.7 0 3-1.2 3-3.5Zm8.2 3.7-.3 2.3h-2.8v-16.6h3.2v6.4c.7-1.7 2.1-2.5 4.1-2.5 3 0 5.3 2 5.3 6.2v.3c0 4.1-2.2 6.5-5.3 6.5-2.2 0-3.5-1-4.2-2.6Zm6-3.9v-.3c0-2.2-1.2-3.5-3-3.5-1.7 0-3 1.4-3 3.6v.2c0 2.4 1.2 3.7 3 3.7s3-1.2 3-3.7Zm4.8.2v-.3c0-4.1 2.8-6.4 6.5-6.4s6.4 2.3 6.4 6.4v.3c0 4.1-2.7 6.3-6.4 6.3-3.8 0-6.5-2.2-6.5-6.3Zm9.5 0v-.3c0-2.3-1.1-3.7-3-3.7s-3 1.3-3 3.7v.3c0 2.2 1.1 3.5 3 3.5s3-1.3 3-3.5Zm7.7-.5-4.5-6h3.8l2.6 3.8 2.6-3.7h3.7l-4.5 6 4.8 6.4h-3.8l-2.9-4.1-2.8 4h-3.8l4.8-6.4Zm111.6-8.2h2v9.8c0 2.6-1.3 4.4-4 4.4-.8 0-1.5 0-2.3-.4v-1.8c.7.2 1.3.4 2 .3 1.7 0 2.3-1 2.3-2.3v-10Zm5.6-.8.8.3c.2.2.4.5.4.8v.8c0 .2-.2.3-.3.5l-.4.3a1.3 1.3 0 0 1-1.2 0l-.4-.3a1.3 1.3 0 0 1-.3-1.1v-.5l.3-.4a1.2 1.2 0 0 1 .8-.4h.2Zm-1 4.2h1.8v10.7h-1.8v-10.7Zm4.7 0h1.8v1.9c.6-1.3 1.7-2.2 3.8-2v1.8c-2.4-.3-3.8.4-3.8 2.7v6.4h-1.8v-10.8Zm14.5 8.8a4 4 0 0 1-1.6 1.6 4 4 0 0 1-2.2.6c-2.8 0-4.3-2.5-4.3-5.6 0-3.2 1.5-5.6 4.6-5.6a3.5 3.5 0 0 1 3.5 2v-1.8h1.9v10.7h-2v-1.9Zm-3.2.4c1.7 0 3.2-1 3.2-3.4v-1c0-2.3-1.4-3.4-3-3.4s-3.2 1.4-3.2 4c0 2.4 1 3.8 3 3.8Zm16.1 1.8c-1.8 0-3.5-.3-5.1-1.1v-2c1.6.8 3.4 1.2 5.2 1.2 2.2 0 3-.9 3-2.1 0-1.3-.8-2-3.5-2.6-2.7-.7-4.7-2-4.7-4.2 0-2.3 1.7-3.8 5-3.8a9 9 0 0 1 4.5 1v1.9a9 9 0 0 0-4.5-1c-1.9 0-3 .6-3 1.9 0 1.3 1 1.7 3.5 2.3 2.5.7 4.7 1.8 4.7 4.3 0 2.6-1.5 4.2-5 4.2Zm6.8-5.7c0-3.2 1.9-5.5 5.1-5.5 3.2 0 5.2 2.3 5.2 5.5s-2 5.7-5.2 5.7c-3.3 0-5.1-2.4-5.1-5.7Zm1.8 0c0 2 1 4 3.3 4s3.3-2 3.3-4-1-3.8-3.3-3.8-3.3 1.8-3.3 3.8Zm13.3-5.3h2.8v1.7h-2.8v9h-1.9v-9h-1.7v-1.7h1.7v-1.2c0-2 1.1-3.4 3.5-3.4.4 0 .8 0 1.2.2v1.7h-1.1a1.5 1.5 0 0 0-1.7.9v1.8Zm9.1 8.9 1.2-.1v1.7c-.4.2-.8.2-1.3.2-2.3 0-3.4-1.3-3.4-3.3v-5.7h-1.8v-1.7h1.7v-2.3h1.9v2.3h2.8v1.7h-2.8v5.6c0 1 .6 1.6 1.7 1.6Zm1.7-8.9h2.1l3.1 9 3.2-9h1.8l3.2 9 3.1-9h2l-3.9 10.7h-2.4l-1.9-5.2-1-3.3-1 3.3-2 5.2h-2.3l-4-10.7Zm27.2 8.8c-.3.7-.9 1.3-1.5 1.6-.7.4-1.4.6-2.2.6-3 0-4.4-2.5-4.4-5.6 0-3.2 1.5-5.6 4.6-5.6.7 0 1.5.1 2 .5.7.4 1.2.9 1.5 1.6v-2h1.9v10.8h-2v-1.9Zm-3.2.4c1.7 0 3.2-1 3.2-3.4v-1c0-2.3-1.4-3.4-3-3.4s-3.2 1.4-3.2 4c0 2.4 1 3.8 3 3.8Zm7.9-9.2h1.8v1.9c.7-1.3 1.8-2.2 3.9-2v1.8c-2.4-.3-3.9.4-3.9 2.7v6.4h-1.8v-10.8Zm12.3 11c-4 0-5.8-2.4-5.8-5.7 0-3.3 1.8-5.5 5.1-5.5 3.4 0 4.7 2.3 4.7 5.5v.9h-8c.3 1.8 1.5 3 4 3 1.2 0 2.3-.2 3.4-.6v1.7c-1 .5-2.2.7-3.4.7Zm-4-6.4h6c0-2-1-3.2-2.8-3.2-1.8 0-3 1.3-3.2 3.2Zm-118.8-1.4-8-8-.8-.8-6.1 6-2.8 2.7-.1.3-.1.2v.3l.2.3 5.5 5.5 3.4 3.2 6-6h.1l2.7-2.7a.8.8 0 0 0 0-1Zm-8.9 3.2-2.7-2.8 2.7-2.7 2.9 2.7-2.9 2.8Z"/><path fill="#EBEBEB" d="M1170.3 122.7a4.6 4.6 0 0 1 0-6.5l-6 6 3.2 3.3 2.8-2.8Zm2.9 2.7-2.9 2.8a4.6 4.6 0 0 1 1 5c-.2.6-.5 1-1 1.5l6.1-6-3.3-3.3Z"/><path fill="#EEE" d="M1386.2 130.4v3.9c0 1.5-1.6 1.5-1.6 1.5s-1.7 0-1.7-1.5v-4s0-.6-1-.6v4.7a2.6 2.6 0 0 0 2.7 2.3c.7 0 1.3-.2 1.8-.6.5-.5.8-1 .9-1.7v-4.7c-1 0-1 .7-1 .7Zm23.2 0v3.9c0 1.5-1.7 1.5-1.7 1.5s-1.7 0-1.7-1.5v-4s0-.6-1-.6v4.7a2.7 2.7 0 0 0 2.7 2.4 2.7 2.7 0 0 0 2.7-2.4v-4.7c-1 0-1 .7-1 .7Zm-13 4v-4.7c-1 0-1 .7-1 .7v6.2h1v-2.2Zm16.8 0v-4.7c-1 0-1 .7-1 .7v6.2h1v-2.2Zm7.8 0v-4.7c-1 0-1 .7-1 .7v6.2h1v-2.2Zm-29.2 1.4h-1.8v-2.3h1.8c.2 0 1 .1 1 1.1a1.2 1.2 0 0 1-1 1.2Zm-1.8-5.2h1.5a1 1 0 0 1 1 .6v.5c0 .9-1 1-1 1h-1.5v-2Zm2.6 2.4c.3-.1.5-.3.7-.6.2-.3.3-.6.3-1 0-1-1-1.7-2-1.7h-2.6v6.9h3.3s1.5-.4 1.5-1.7c0-1.3-.8-1.9-1.2-1.9Zm8.1 2.8c-1.4 0-2-1.1-2-2.6s.6-2.6 2-2.6c1.3 0 2 1.1 2 2.6s-.7 2.6-2 2.6Zm3.2 0h-1.2c.6-.8 1-1.6 1-2.6 0-1.5-.7-3.5-3-3.5 0 0-2.8-.2-3 3.5-.2 3.6 3 3.4 3 3.4l2.2-.1h1.6s0-.8-.6-.8Zm15.3-5.2h-5v-.9h5v.9Z"/><path fill="#EEE" d="M1417.2 129.7v6.9h-1v-6.9h1Z"/><path fill="#EEE" fill-rule="evenodd" d="M1395.2 110.7h-1v-1h1v1Zm2 5.2h-1v-1h1v1Zm0-3.2h-1v-1h1v1Zm1-1h-1v-1h1v1Zm0 2.7h-1v-1h1v1Zm.9-1.3h-1v-1h1v1Z" clip-rule="evenodd"/><path fill="#EEE" fill-rule="evenodd" d="M1394.2 112.4h1v5.4h1v-1h1v2.2h1v-3.6h1v7.4a6.2 6.2 0 0 0 3 4.7c-3 0-8-1.3-8-7.2v-8ZM1405 124s3.8-.3 5-5.6v-8.6s-5-.6-5 3V124Z" clip-rule="evenodd"/><path fill="#EEE" d="M1382.2 138.7h.3l1 1.5v-1.5h.3v2h-.4l-.9-1.5v1.5h-.3v-2Zm5.3 0h1.5v.3h-1.1v.5h1v.3h-1v.6h1v.3h-1.4v-2Zm5 0h1.6v.3h-.6v1.7h-.4V139h-.6v-.3Zm5.1 0h.3l.4 1.5.4-1.5h.4l.4 1.5.4-1.5h.3l-.6 2h-.3l-.4-1.5-.4 1.5h-.4l-.5-2Zm6.3 1c0 .4.1.8.6.8.4 0 .6-.4.6-.8s-.2-.8-.6-.8c-.5 0-.6.4-.6.8Zm1.6 0v.4l-.3.3-.3.3a1 1 0 0 1-.4 0 1 1 0 0 1-.8-.3 1 1 0 0 1 0-1.4c.2-.2.5-.3.8-.3h.4l.3.3.2.3v.4Zm4-.1h.6a.3.3 0 0 0 .3 0v-.4c0-.3-.2-.3-.3-.3h-.6v.6Zm-.4-.9h1c.5 0 .7.2.7.6l-.1.3-.3.2.3.1v.3l.1.5h-.3v-.3c0-.3-.2-.5-.5-.5h-.5v.8h-.4v-2Zm5.3 0h.4v1l.9-1h.4l-.8.8.9 1.2h-.5l-.6-1-.3.4v.6h-.4v-2Zm5.4 1.3c0 .4.3.5.5.5.3 0 .5-.2.5-.3v-.2h-.2l-.6-.2-.3-.2-.1-.3c0-.5.3-.6.7-.6.4 0 .8.2.8.6h-.4c0-.3-.2-.4-.4-.4-.3 0-.4.1-.4.3 0 .2.1.2.3.3l.6.1.2.2.1.3c0 .5-.4.7-.8.7-.3 0-.8-.2-.8-.7h.3Z"/><path fill="#F2F2F2" d="M9.4 197.7H1v-22.4l8.4 7v15.4Z"/><path fill="#D1D1D1" d="M32 197.7h8.5v-22.4l-8.4 7v15.4Z"/><path fill="#EEE" d="M32 182.3v-9.8c.1-1.1.6-2.1 1.3-3 .8-.7 1.9-1.2 3-1.2s2.2.4 3 1.2c.8.8 1.2 1.9 1.2 3v2.8l-8.4 7Z"/><path fill="#C7C7C7" d="m9.4 182.3-8.4-7v-2.8c0-1.1.4-2.1 1.2-3 .8-.7 1.9-1.2 3-1.2s2.2.4 3 1.2c.8.8 1.2 1.9 1.2 3v9.8Z"/><path fill="#F2F2F2" d="m32 182.3-11.2 8.4-11.4-8.4v-9.8l11.4 8.4 11.3-8.4v9.8Zm101.5-14h5.3v23.3h-7.4v-21.2a2 2 0 0 1 2.1-2.1Z"/><path fill="#EEE" d="M161 175.7h-7.3v16h7.4v-16Z"/><path fill="#E2E2E2" d="M161.2 175.8h-7.4v-7.4h5.3a2.1 2.1 0 0 1 2 2v5.4Z"/><path fill="#C7C7C7" d="M138.8 191.6h-7.4v6.2h7.4v-6.2Zm18.6 3.7-3.7 2.5v-6.2h7.4l-3.7 3.7Z"/><path fill="#D1D1D1" d="M153.7 191.6h-14.9v6.2h14.9v-6.2Z"/><path fill="#F2F2F2" d="M153.7 168.3h-14.9v6.1h14.9v-6.1Z"/><path fill="#C7C7C7" d="m264.8 168.3 5.2 9 5.1-9h-10.3Z"/><path fill="#F2F2F2" d="m276.4 188.8 5.2 9 5.1-9h-10.3Z"/><path fill="#E2E2E2" d="m252 188.8 5 9 5.2-9H252Z"/><path fill="#D1D1D1" d="M252 188.8h10.2l7.8-11.5-5.2-9-12.9 20.5Z"/><path fill="#CCC" d="m270 177.3 6.4 11.5h10.3l-11.6-20.5"/><path fill="#F2F2F2" d="M257 197.8h24.6l-5.2-9h-14.2l-5.1 9Z"/><path fill="#EEE" d="M380.5 168.3h3.7v23.9h-6.7v-20.9c0-.8.3-1.6.9-2.1a3 3 0 0 1 2.1-1Zm18.3 7.9H391v16h7.8v-16Z"/><path fill="#EEE" d="M380.9 168.4v8h10v-8h-10Z"/><path fill="#E2E2E2" d="M398.8 192.2H391v5.7h7.8v-5.7Z"/><path fill="#F2F2F2" d="M391 192.2h-6.8v5.7h6.8v-5.7Z"/><path fill="#C7C7C7" d="M377.5 192.2h6.7v5.7h-5c-.5 0-1-.2-1.2-.5-.3-.3-.5-.8-.5-1.2v-4Z"/><path fill="#F2F2F2" d="m391 168.3 7.8 8H391v-8Z"/><path fill="#E3E3E3" d="M497.8 176.3h-8.1v13.4h8.1v-13.4Z"/><path fill="#E2E2E2" d="M497.8 189.7h-8.1v8h8.1v-8Z"/><path fill="#EEE" d="M519.4 168.3h-8V183h8v-14.7Z"/><path fill="#F2F2F2" d="M519.4 183h-8v14.7h8V183Z"/><path fill="#CCC" d="M511.5 176.3v-8h-13.6v8h13.6Z"/><path fill="#F2F2F2" d="M511.5 197.7v-8h-13.6v8h13.6Z"/><path fill="#C7C7C7" d="m512.4 184 14.8 10.2a2 2 0 0 0 2.8-.7c.2-.3.3-.6.3-1v-18.9a2 2 0 0 0-1-1.7 2 2 0 0 0-2.1 0l-14.8 10.3a1 1 0 0 0-.4.9 1 1 0 0 0 .4.8Z" opacity=".8"/><path fill="#F2F2F2" d="m489.7 176.3 8.1-8v8h-8.1Z"/><path fill="#EEE" d="m620.5 175.8 8-7.8h22a2 2 0 0 1 1.4.6 2 2 0 0 1 .6 1.5v5.7h-32Z"/><path fill="#E4E4E4" d="m652.5 191.4-6 7.7h-18v-7.7h24Zm0-15.6h-24v7.8h24v-7.8Z"/><path fill="#EEE" d="M628.5 175.8h-8v7.8h8v-7.8Zm24 7.8h-24v7.8h24v-7.8Z"/><path fill="#E4E4E4" d="M628.5 183.6h-8v7.8h8v-7.8Z"/><path fill="#EEE" d="M620.5 191.4h8v7.7h-6a2 2 0 0 1-1.4-.5 2 2 0 0 1-.6-1.4v-5.8Z"/><path fill="#E4E4E4" d="M756.6 185.1c4.7 0 8.4-3.8 8.4-8.5s-3.7-8.6-8.4-8.6a8.5 8.5 0 0 0-8.4 8.6c0 4.7 3.8 8.5 8.4 8.5Z"/><path fill="#EEE" d="M764.5 191.5c4 0 7.2-3.3 7.2-7.3 0-4.1-3.2-7.4-7.2-7.4s-7.2 3.3-7.2 7.4c0 4 3.2 7.3 7.2 7.3Z"/><path fill="#E4E4E4" d="M757.5 196.9c3.2 0 5.7-2.7 5.7-5.9s-2.5-5.8-5.7-5.8a5.8 5.8 0 0 0-5.7 5.8c0 3.2 2.6 5.9 5.7 5.9Z"/><path fill="#272727" d="M758.1 174.3h-9.6a8.7 8.7 0 0 0 3 9 8.3 8.3 0 0 0 5.1 1.9h.7c-1.5 0-2.9.6-4 1.7a6.2 6.2 0 0 0-1.6 4.1v.5h6.4c.3 0 .6-.1.8-.4.2-.2.4-.5.4-.8v-14.7c0-.4-.2-.7-.4-.9l-.8-.4Z" opacity=".1"/><path fill="#272727" d="M757.2 175.3h-8.9a8.6 8.6 0 0 0 3.9 8.6c1 .6 2 1 3 1.2h2.2a5.6 5.6 0 0 0-4 1.9 5.8 5.8 0 0 0-1.4 5.4h5.3c.3 0 .6-.1.8-.4.3-.2.4-.5.4-.8v-14.7c0-.4-.1-.7-.4-.9-.2-.2-.5-.3-.8-.3Z" opacity=".2"/><path fill="#272727" d="M757.2 175.3h-8.9a8.6 8.6 0 0 0 3.9 8.6c1 .6 2 1 3 1.2h2.2c-1.4.1-2.7.7-3.8 1.7a6 6 0 0 0-1.8 3.8h5.5c.3 0 .6-.2.8-.4.3-.2.4-.5.4-.8v-13a1 1 0 0 0-.4-.8c-.2-.2-.5-.3-.8-.3Z" opacity=".2"/><path fill="#272727" d="M756.3 175.3h-8a8.6 8.6 0 0 0 3.9 8.6c1 .6 2 1 3 1.2h2.2c-1.4.1-2.7.7-3.8 1.7a6 6 0 0 0-1.8 3.8h4.6c.3 0 .6-.2.9-.4.2-.2.3-.5.3-.8v-13c0-.3-.1-.6-.3-.8l-.9-.3Z" opacity=".2"/><path fill="#EEE" d="M744.5 175.3h11.8c.3 0 .6 0 .9.3.2.2.3.5.3.9v12c0 .3-.1.6-.3.8-.3.3-.6.4-.9.4h-11.8a1 1 0 0 1-.8-.4c-.2-.2-.4-.5-.4-.8v-12c0-.4.2-.7.4-.9.2-.2.5-.3.8-.3Z"/><path fill="#272727" d="M748.4 182.3c-.4-.2-.6-.5-.8-.8-.2-.3-.3-.7-.2-1 0-.6.1-1 .4-1.5l1.3-.8a9 9 0 0 1 4 0v1.7l-1-.4-1.3-.2c-.4 0-.8 0-1.2.3-.2 0-.3.2-.4.3v.5a.7.7 0 0 0 .1.4l.6.5 1 .4h.2l1.3.7c.3.2.6.5.7.8.3.4.4.8.3 1.2 0 .5 0 1-.4 1.4a3 3 0 0 1-1.2.9c-.5.2-1 .2-1.7.2h-1.5l-1.2-.5v-1.7c.3.3.8.5 1.3.6.4.2.8.3 1.3.2.4 0 .9 0 1.3-.3l.3-.3v-.4a.8.8 0 0 0-.2-.6l-.6-.5-1.3-.5-1.1-.7Z"/><path fill="#EEE" d="m865.6 185.7 11 11c1 1 2.9 1 4 0l3.6-3.7c1.2-1 1.2-3 0-4l-11-11a2.9 2.9 0 0 0-4 0l-3.6 3.6a2.9 2.9 0 0 0 0 4.1Z"/><path fill="#E4E4E4" d="m891.4 170-18.6 18.7a2.9 2.9 0 0 0 0 4l4 4c1 1.2 2.9 1.2 4 0l18.7-18.6c1-1.1 1-3 0-4l-4-4a2.9 2.9 0 0 0-4 0Z"/><path fill="#F2F2F2" d="M1007.3 178.3a4.5 4.5 0 1 0 0-9 4.5 4.5 0 0 0 0 9Z"/><path fill="#272727" d="M1007 174.8h-4a4.5 4.5 0 0 0 5.2 3.2v-2c0-.4-.1-.7-.4-1l-.8-.2Z" opacity=".1"/><path fill="#272727" d="M1006 175.7h-2.7a4.4 4.4 0 0 0 4 2.5V177a1.3 1.3 0 0 0-1.3-1.2Z" opacity=".2"/><path fill="#EEE" d="M1017.3 178.5a3.3 3.3 0 1 0 0-6.6 3.3 3.3 0 0 0 0 6.6Zm3 1.1h-7.6a.6.6 0 0 0-.6.6v7.7a5 5 0 0 0 5.7 5 4.8 4.8 0 0 0 3.8-3.8V181a1.4 1.4 0 0 0-1.4-1.4Z"/><path fill="#F2F2F2" d="M1015 181v9a7.7 7.7 0 0 1-14.8 3 7 7 0 0 1-.3-1c-.2-.6-.3-1.3-.3-2v-9a1.4 1.4 0 0 1 1.5-1.4h13a1.4 1.4 0 0 1 .8.8v.6Z"/><path fill="#272727" d="M1006 175.7h-2.7a4.4 4.4 0 0 0 4 2.5V177a1.3 1.3 0 0 0-1.3-1.2Z" opacity=".2"/><path fill="#272727" d="M1008.2 179.6v12c0 .4 0 .7-.2.9l-.7.4h-7.1c-.2-.3-.3-.6-.3-1-.2-.6-.3-1.3-.3-2v-9a1.4 1.4 0 0 1 1.5-1.4h7.1Z" opacity=".1"/><path fill="#272727" d="M1007.3 179.6v13.3c0 .3-.2.6-.5.8l-.8.2h-5.3a7.1 7.1 0 0 1-1-3.8V181a1.4 1.4 0 0 1 1.4-1.4h6.2Z" opacity=".2"/><path fill="#272727" d="M1007.3 179.6v11.1l-.1.5c0 .2-.2.3-.3.4l-.4.3h-6.6c-.2-.5-.3-1.2-.3-1.8V181a1.4 1.4 0 0 1 1.5-1.4h6.2Z" opacity=".2"/><path fill="#272727" d="M1001 179.6a1.4 1.4 0 0 0-1.4 1.4v9c0 .7.1 1.4.3 2h5.2a1.3 1.3 0 0 0 .9-.4l.3-.4v-11.6h-5.2Z" opacity=".2"/><path fill="#EEE" d="M992.3 175.7h12.7a1.3 1.3 0 0 1 1.4 1.2v12.8a1.2 1.2 0 0 1-.4 1l-.5.2-.5.1h-12.7a1.3 1.3 0 0 1-1.3-1.3V177a1.3 1.3 0 0 1 1.3-1.2Z"/><path fill="#272727" d="M1002.5 180.5h-2.9v7.7h-1.9v-7.7h-2.9v-2h7.7v2Z"/><path fill="#C5C5C5" d="M1146.3 166.3h-21a1.7 1.7 0 0 0-1.8 1.8v1.9l11.9 3.7 12.7-3.7v-2a1.7 1.7 0 0 0-1.8-1.7Z"/><path fill="#686868" d="m1150.1 185.1.4-1.7a.8.8 0 0 0-.4-.7l-13.3-7.5-.2-.1a1.8 1.8 0 0 0-1.6 0h-.2l-13.3 7.6a1 1 0 0 0-.3.3l-.2.4.5 1.7 14 10.3 14.6-10.3Z"/><path fill="#EBEBEB" d="M1140.7 170h-8.6l-2.5 3.7 2.5 3.6 8.6 7.3h7.4v-7.3l-7.4-7.3Z"/><path fill="#DDD" d="M1123.5 170h8.6v7.3h-8.6V170Z"/><path fill="#EEE" d="M1140.7 170h7.4v7.3h-7.4V170Z"/><path fill="#C5C5C5" d="m1140.7 184.6-8.6-7.3h-8.6v7.3l8.6 7.3 13.3 2.2-4.7-9.5Z"/><path fill="#DDD" d="M1132.1 177.3h8.6v7.3h-8.6v-7.3Z"/><path fill="#8C8C8C" d="M1123.5 184.6h8.6v7.3h-8.6v-7.3Z"/><path fill="#DDD" d="M1140.7 184.6h7.4v7.3h-7.4v-7.3Z"/><path fill="#686868" d="m1136 194.6-14.5-10.4.6-1.1a92045.3 92045.3 0 0 0 13.7 7.6h.3l13.4-7.6.6 1-14 10.5Z" opacity=".5"/><path fill="#DEDEDE" d="m1150.1 184.1-13.3 7.5a1.8 1.8 0 0 1-1.8.2l4.6 6.1 10.2 2.2.5-.6c.2-.3.2-.6.2-.9v-15.2.4l-.4.3Z"/><path fill="#272727" d="M1150.5 198.6v-.9l-12.2-6.9-1.5.8a1.8 1.8 0 0 1-1.8.2l4.6 6.1 10.2 2.2.5-.6c.2-.3.2-.6.2-.9Z" opacity=".1"/><path fill="#272727" d="m1150.5 199.1-13.5-7.6-.2.1a1.8 1.8 0 0 1-1.8.2l4.6 6.1 10.2 2.2c.3-.2.6-.6.7-1Z" opacity=".1"/><path fill="#EBEBEB" d="M1121.5 184.1a.9.9 0 0 1-.4-.3v-.4 15.2a1.9 1.9 0 0 0 .5 1.3 1.9 1.9 0 0 0 1.3.6h25.8a1.8 1.8 0 0 0 .7-.2l.3-.1-28.2-16Z"/><path fill="#272727" d="M1133.3 194v-20a1.6 1.6 0 0 0-1.6-1.6h-8.2v9.1l-2 1.2a1 1 0 0 0-.3.3l-.2.4v12.2h10.7c.4 0 .8-.2 1.1-.5.4-.3.5-.7.5-1.1Z" opacity=".1"/><path fill="#272727" d="M1132.1 195.2v-20c0-.3-.2-.8-.5-1-.3-.4-.7-.5-1.1-.5h-7v7.8l-2 1.2a1 1 0 0 0-.3.3l-.2.4v13.4h9.5c.4 0 .8-.2 1.1-.5.3-.3.5-.7.5-1.1Z" opacity=".2"/><path fill="#272727" d="M1132.1 192.8v-17.5c0-.5-.2-.9-.5-1.2-.3-.3-.7-.4-1.1-.4h-7v7.8l-2 1.2a1 1 0 0 0-.3.3l-.2.4v11h9.5c.4 0 .8-.2 1.1-.5.3-.3.5-.7.5-1.2Z" opacity=".2"/><path fill="#272727" d="M1130.9 192.8v-17.5c0-.5-.2-.9-.5-1.2-.3-.3-.7-.4-1.2-.4h-5.7v7.8l-2 1.2a1 1 0 0 0-.3.3l-.2.4v11h8.2c.5 0 .9-.2 1.2-.5.3-.3.5-.7.5-1.2Z" opacity=".2"/><path fill="#DDD" d="M1112.8 173.7h16.4a1.6 1.6 0 0 1 1.7 1.6v16.2c0 .5-.2.9-.5 1.2-.3.3-.7.5-1.2.5h-16.4a1.6 1.6 0 0 1-1.6-1.7v-16.2c0-.5.2-.9.5-1.2.3-.3.7-.4 1.1-.4Z"/><path fill="#EEE" d="M1116 180.3a5 5 0 0 1 2-2.2c1-.5 2-.8 3.2-.8 1 0 2 .3 3 .8a5 5 0 0 1 2 2c.4 1 .6 2.1.6 3.2s-.2 2.2-.7 3.2c-.4 1-1.1 1.7-2 2.2a6 6 0 0 1-3.1.8c-1 0-2.1-.2-3-.8a5 5 0 0 1-2-2c-.5-1-.7-2-.7-3.1 0-1.2.2-2.3.7-3.3Zm2.1 5.2c.3.6.6 1.1 1.2 1.5a3 3 0 0 0 1.7.5c.7 0 1.4-.2 2-.6a3 3 0 0 0 1-1.4c.3-.7.4-1.3.4-2s-.1-1.4-.4-2a3 3 0 0 0-1-1.6 3 3 0 0 0-1.9-.6 3.1 3.1 0 0 0-3 2 5.8 5.8 0 0 0 0 4.2Zm141.8-9 9.8 6 6-2.6a10 10 0 0 1 3.8-.8h.7a14.8 14.8 0 0 0-26.7-4.5h.1c2.2 0 4.4.7 6.3 1.9Z"/><path fill="#EEE" d="M1259.9 176.5c-2-1.2-4-1.8-6.3-1.8h-.1a11.9 11.9 0 0 0-11.7 12c0 2.3.8 4.6 2.1 6.6l8.8-3.7 3.9-1.7 8.7-3.6 4.5-1.9-10-6Zm20.3 2.7h-.7c-1.3 0-2.6.2-3.8.8l-6 2.5 1.8 1 5.6 3.4 2.5 1.4 8.3 5a9.6 9.6 0 0 0-7.7-14v-.1Z"/><path fill="#E4E4E4" d="m1279.6 188.3-2.5-1.5-5.6-3.4-1.8-1-4.4 2-8.7 3.5-4 1.7-8.7 3.7a12 12 0 0 0 9.7 5h25.9a9.7 9.7 0 0 0 8.4-5l-8.3-5Z"/><path fill="#EEE" d="m1385.2 197.4 19.3-14.7-19.3-14.7v11l.1.1 3 2.8 1 .8-.2.1-3.8 3.4v.2l-.1.2v10.8Zm-6.5-20.5v11.6l6.4-5.8-6.4-5.8Z"/><path fill="#EEE" d="M1385.2 197.4v-11l.1-.2 3.8-3.4.2-.1-1-.8-3-2.8v-.1l-.1-.2V168l19.3 14.7-19.3 14.7Z"/></g><defs><clipPath id="a"><path fill="#fff" d="M0 .9h1421.3v202H0z"/></clipPath><clipPath id="b"><path fill="#fff" d="M28 14.3h49.3v14H28z"/></clipPath><clipPath id="c"><path fill="#fff" d="M0 6.5h22.3v21.7H0z"/></clipPath><clipPath id="d"><path fill="#fff" d="M580.3.9h151.6v33H580.3z"/></clipPath><clipPath id="e"><path fill="#fff" d="M1106.3 4.6H1244v25.5h-137.7z"/></clipPath><clipPath id="f"><path fill="#fff" d="M1311.8 5.1h106.5v24.5h-106.5z"/></clipPath><clipPath id="g"><path fill="#fff" d="M371.3 58.5h22.4v22.4h-22.4z"/></clipPath><clipPath id="h"><path fill="#fff" d="M697.3 55.2h255v29h-255z"/></clipPath><clipPath id="i"><path fill="#fff" d="M1017.3 53.2h33.1v33h-33.1z"/></clipPath><clipPath id="j"><path fill="#fff" d="M1029.4 65h7v1.8h-7z"/></clipPath><clipPath id="k"><path fill="#fff" d="M105.7 108.8h82.4v33h-82.4z"/></clipPath><clipPath id="l"><path fill="#fff" d="M730.8 106h36.4v38.5h-36.4z"/></clipPath><clipPath id="m"><path fill="#fff" d="M842.7 105.5h39.5V145h-39.5z"/></clipPath></defs></svg>