<svg xmlns="http://www.w3.org/2000/svg" xmlns:xlink="http://www.w3.org/1999/xlink" fill="none" viewBox="0 0 314 403"><defs><path id="h" fill="#383838" d="M304.01 344.8h-1.54a2.5 2.5 0 0 0 2.26 1.45v-.72a.72.72 0 0 0-.72-.72Z" opacity=".2"/></defs><path stroke="#000" d="m116 1 39.5 16.5L194 1"/><g fill="#000" clip-path="url(#a)"><path d="M3.83 70.68c-.66 0-1.28-.35-1.6-.93-.32-.57-.3-1.27.05-1.82l3.3-5.17a1.84 1.84 0 0 1 3.19.08c.3.58.27 1.28-.1 1.83l-3.29 5.17c-.34.53-.93.85-1.55.84Zm5.65 0c-.67 0-1.28-.35-1.6-.92-.32-.57-.3-1.27.05-1.82l3.29-5.16a1.83 1.83 0 0 1 3.21.07c.3.59.26 1.29-.12 1.83l-3.29 5.16c-.33.53-.92.84-1.54.84Zm5.52.05c.93 0 1.7-.75 1.7-1.66 0-.92-.77-1.66-1.7-1.66-.94 0-1.7.74-1.7 1.66 0 .91.76 1.66 1.7 1.66Zm73.65-3.23c.51 0 .82.37.82.96v2.05h.7v-2.1c0-1-.48-1.6-1.38-1.6-.35 0-.91.1-1.25.75a1.14 1.14 0 0 0-.93-.7 1.6 1.6 0 0 0-.39-.03c-.29.02-.8.2-.98.6v-.54h-.7v3.62h.7v-1.95c0-.76.5-1.06.99-1.06.47 0 .77.36.77.96v2.05h.7v-1.95c0-.6.36-1.06.95-1.06Zm-6.67 2.4c.32.01.63-.12.85-.35.22-.23.34-.54.33-.86 0-.73-.53-1.19-1.18-1.19-.64 0-1.17.46-1.17 1.19a1.15 1.15 0 0 0 1.17 1.22Zm0 .68a1.83 1.83 0 0 1-1.86-1.9c0-1.14.85-1.87 1.86-1.87 1.02 0 1.88.73 1.88 1.87 0 1.15-.86 1.9-1.88 1.9Zm-5.45-1.9c0-1.14.87-1.87 1.9-1.87.51-.01 1.01.2 1.37.58l-.53.45a1.19 1.19 0 0 0-.85-.34c-.64 0-1.2.46-1.2 1.18 0 .5.3.94.74 1.13.45.19.97.08 1.31-.27l.54.45c-.36.39-.86.6-1.39.6a1.85 1.85 0 0 1-1.89-1.9Zm-2.22 1.13a.48.48 0 0 1 .47-.48.48.48 0 0 1 .48.48.48.48 0 0 1-.48.46.48.48 0 0 1-.47-.46Zm1.89-7.51h-2.47L72 66.76l-1.72-4.48H67.8l3.01 7.08-1.87 4.68h2.46l4.82-11.76Zm-15.06 3.93c0 1.13.99 1.87 1.96 1.87.95 0 1.89-.69 1.89-1.87 0-1.18-.94-1.88-1.89-1.88-.97 0-1.96.75-1.96 1.88ZM65 70.18v-.9c-.5.76-1.67 1.05-2.28 1.05a4 4 0 0 1-3.98-4.1 4 4 0 0 1 3.98-4.1c.5 0 1.68.16 2.28 1.04v-.87h2.31v7.88H65Zm-6.92 0h-2.3v-.98c-.4.73-1.33 1.15-2.3 1.15-2 0-3.78-1.6-3.78-4.09 0-2.53 1.77-4.14 3.78-4.14.97 0 1.91.4 2.3 1.14V58h2.3v12.18Zm-2.36-3.97c0-1.18-.85-1.87-1.8-1.87-.99 0-1.81.74-1.81 1.87 0 1.17.82 1.9 1.8 1.9.98.01 1.81-.77 1.81-1.9Zm-11.73-.2c0-1.2.62-1.6 1.44-1.6.79 0 1.35.52 1.35 1.56v4.2h2.33v-4.7c0-2.25-1.1-3.35-2.86-3.35a2.6 2.6 0 0 0-2.26 1.32V62.3h-2.33v7.89h2.33V66Zm-7.05 4.3a3.96 3.96 0 0 1-4.05-4.1 3.95 3.95 0 0 1 4.05-4.09c2.21 0 4.07 1.6 4.07 4.09 0 2.48-1.86 4.1-4.07 4.1Zm0-2.3c.97 0 1.78-.7 1.78-1.8 0-1.06-.8-1.79-1.78-1.79a1.75 1.75 0 0 0-1.76 1.79c0 1.1.8 1.8 1.76 1.8Zm-8.22-3.6c.69 0 1.29.53 1.29 1.56v4.21h2.3V65.7c0-2.38-1.15-3.58-3-3.58-.56 0-1.6.17-2.35 1.4-.43-.9-1.27-1.38-2.5-1.38-.88 0-1.68.5-2.05 1.3V62.3h-2.32v7.88h2.32V66c0-1.2.65-1.6 1.36-1.6.67 0 1.27.52 1.28 1.51v4.26h2.33V66c0-1.15.6-1.6 1.34-1.6Z"/></g><g clip-path="url(#b)"><path fill="#000" d="M128.34 58.04h2.28v2.4h-2.28v-2.4Zm39.87 0h2.27v2.4h-2.27v-2.4Z"/><path fill="#E2E2E2" d="M123.3 61.3c-1.43 0-2.26.65-2.66 1.1-.05-.39-.3-.89-1.29-.89h-2.14v2.25h.88c.15 0 .2.05.2.2v10.26h2.55v-4.14c.4.37 1.16.88 2.34.88 2.5 0 4.25-1.99 4.25-4.83 0-2.88-1.66-4.82-4.13-4.82Zm-.51 7.43c-1.38 0-2-1.32-2-2.55 0-1.92 1.05-2.6 2.03-2.6 1.2 0 2.02 1.03 2.02 2.59 0 1.77-1.03 2.56-2.05 2.56Z"/><path fill="#E2E2E2" d="M130.79 68.32v-5.44c0-.92-.44-1.36-1.35-1.36h-2.28v2.24h.88c.15 0 .2.05.2.2v5.42c0 .93.42 1.37 1.34 1.37h2.28v-2.23h-.88c-.14 0-.2-.06-.2-.2Z"/><path fill="#E2E2E2" d="M137.46 61.3c-1.44 0-2.26.65-2.67 1.1-.04-.39-.3-.89-1.28-.89h-2.15v2.25h.88c.15 0 .2.05.2.2v10.26H135v-3.85l-.01-.29c.4.37 1.16.88 2.35.88 2.5 0 4.24-1.99 4.24-4.83 0-2.88-1.66-4.82-4.12-4.82m-.52 7.42c-1.37 0-2-1.32-2-2.55 0-1.92 1.05-2.6 2.04-2.6 1.2 0 2.01 1.03 2.01 2.59 0 1.77-1.03 2.56-2.05 2.56Zm9.35-7.42c-2.75 0-4.68 1.98-4.68 4.82 0 2.8 2.08 4.83 4.94 4.83a5.52 5.52 0 0 0 3.69-1.4l.1-.1-1.12-1.85-.16.16c-.01 0-1.02.94-2.35.94a2.36 2.36 0 0 1-2.44-2.01h6.05l.02-.17c0-.02.05-.57.05-.83 0-2.63-1.65-4.4-4.1-4.4Zm-1.93 3.49a1.9 1.9 0 0 1 1.93-1.42c.77 0 1.36.59 1.47 1.42h-3.4Zm15.32 3.52v-8.91c0-.92-.45-1.37-1.36-1.37h-2.29v2.25h.88c.15 0 .2.05.2.2v1.6a3.43 3.43 0 0 0-2.38-.78c-2.48 0-4.2 1.98-4.2 4.82 0 2.89 1.65 4.83 4.11 4.83 1.41 0 2.23-.66 2.62-1.12.05.4.31.9 1.27.9h2.2v-2.22h-.85c-.14 0-.2-.06-.2-.2Zm-4.55.4c-1.22 0-2-1.01-2-2.59 0-1.53.81-2.56 2.03-2.56 1.38 0 2 1.28 2 2.54 0 1.93-1.05 2.62-2.03 2.62Zm11.3-7.33a3.1 3.1 0 0 0-2.62 1.6v-.21c0-.84-.46-1.27-1.36-1.27h-2.2v2.25h.88c.15 0 .2.05.2.2v6.79h2.55v-3.7c0-.48.06-.95.18-1.39a2.3 2.3 0 0 1 2.24-1.72c.29 0 .5.03.5.03l.22.03v-2.54l-.16-.03s-.22-.04-.42-.04Zm4.22 6.93v-5.44c0-.92-.44-1.37-1.34-1.37h-2.07v2.25h.66c.15 0 .2.05.2.2v5.42c0 .93.43 1.37 1.35 1.37h2.28v-2.23h-.88c-.14 0-.2-.06-.2-.2Z"/><path fill="#E2E2E2" d="M180.25 63.76v-2.25h-1.36c-.8 0-1.22.28-1.47.96l-1.67 4.66-.16.55c-.05-.18-.1-.38-.16-.55l-1.67-4.66c-.26-.69-.67-.96-1.47-.96h-1.45v2.25h.37c.2 0 .26.07.31.2l2.58 6.79h2.87l2.58-6.8c.05-.12.11-.19.31-.19h.4Z"/><path fill="#E2E2E2" d="M188.46 66.53c0-.02.05-.57.05-.83 0-2.63-1.64-4.4-4.1-4.4-2.75 0-4.67 2-4.67 4.83 0 2.8 2.07 4.83 4.93 4.83a5.52 5.52 0 0 0 3.69-1.4l.1-.1-1.11-1.85-.17.16s-1.02.94-2.35.94a2.36 2.36 0 0 1-2.44-2.01h6.06l.01-.17Zm-5.98-1.73a1.9 1.9 0 0 1 1.93-1.42c.77 0 1.36.59 1.47 1.42h-3.4Z"/><path fill="#000" d="M166.44 61.4c-.83 0-1.6.37-2.18.99h2.77v-.93l-.16-.03c-.01 0-.23-.04-.43-.04Zm10.97 1.07-.1.3 2.94.22v-1.48h-1.36c-.8 0-1.22.28-1.47.96Zm-54.1-1.16c-1.44 0-2.27.64-2.67 1.09-.05-.39-.3-.89-1.29-.89h-2.14v2.25h.88c.15 0 .2.05.2.2v5.72c1.19-.42 2.39-.81 3.6-1.18-.75-.43-1.1-1.4-1.1-2.32 0-1.92 1.05-2.6 2.03-2.6 1.2 0 2.02 1.03 2.02 2.59a3.1 3.1 0 0 1-.37 1.56c.96-.27 1.93-.54 2.9-.79a7 7 0 0 0 .06-.8c0-2.9-1.66-4.83-4.13-4.83Zm6.13.2h-2.28v2.25h.88c.15 0 .2.05.2.2v2.77c.84-.21 1.7-.42 2.55-.61v-3.24c0-.92-.44-1.37-1.35-1.37Zm-1.1-3.47h2.28v2.4h-2.28v-2.4Zm9.12 3.27c-1.43 0-2.26.64-2.67 1.09-.04-.39-.3-.89-1.28-.89h-2.14v2.25h.87c.15 0 .2.05.2.2v1.8c.87-.2 1.75-.37 2.62-.54.3-1.19 1.12-1.65 1.92-1.65.72 0 1.29.38 1.64 1l2.66-.42a3.9 3.9 0 0 0-3.82-2.84Zm8.83 0a4.44 4.44 0 0 0-4.27 2.74c1.08-.16 2.18-.3 3.29-.44.28-.15.6-.23.98-.23.14 0 .27.03.4.06 1-.11 2.02-.22 3.04-.31a3.88 3.88 0 0 0-3.44-1.82Zm12.03-3.27h-2.28v2.25h.87c.15 0 .2.05.2.2v1.6a3.43 3.43 0 0 0-2.38-.78c-1.39 0-2.54.62-3.28 1.66 2.74-.23 5.48-.39 8.23-.48V59.4c0-.92-.44-1.37-1.36-1.37Zm4.13 3.47h-2.2v.96c1.17-.04 2.34-.06 3.52-.08-.13-.58-.57-.88-1.32-.88Zm5.76-3.47h2.27v2.4h-2.27v-2.4Zm1.1 3.47h-2.06v.88c1.12.01 2.25.03 3.36.06-.13-.62-.55-.94-1.3-.94Zm2.97 0h-1.44v.95l2.95.1-.03-.09c-.26-.69-.67-.96-1.48-.96Zm12.13-.2c-1.57 0-2.87.64-3.7 1.72 1.2.1 2.4.23 3.58.36l.53.06c1.14.13 2.27.27 3.38.42a3.85 3.85 0 0 0-3.79-2.56Z"/></g><path fill="#000" d="M224.04 65.8h-4.24v.83h1.01a1.5 1.5 0 1 1 0 3h-1.88l-3.37 3.39h3.53c1.2-.04 6.6-.57 6.6-4.13a3.57 3.57 0 0 0-1.65-3.08Z"/><path fill="#E2E2E2" d="M226.82 68.62c0-1.87-1.84-2.92-2.3-3.11l-.48.3a3.56 3.56 0 0 1 1.65 3.08c0 3.56-5.4 4.09-6.6 4.13 7.35-.08 7.73-3.23 7.73-4.4Z"/><path fill="#000" d="M219.69 58h-4.13v15.02l3.38-3.38v-3h.75s2.47.14 4.35-.83l.23-.11.26-.2c.6-.39 1.06-.97 1.31-1.64.16-.44.24-.9.23-1.36 0-4.5-4.06-4.5-6.38-4.5Zm1.5 6.38h-1.5a.75.75 0 0 1-.75-.75v-1.5a.75.75 0 0 1 .75-.75h1.5a1.5 1.5 0 0 1 0 3Z"/><path fill="#E2E2E2" d="M222.2 61.75a1.58 1.58 0 0 1 .49 1.13 1.5 1.5 0 0 1-1.5 1.5h-1.5a.75.75 0 0 1-.75-.75v-1.5s0-1.8.9-2.74a3.72 3.72 0 0 0-2.33 1.91c-1.58 2.82-1.95 11.72-1.95 11.72l3.38-2.6v-3.79h.75c3 0 5.63-1.5 5.63-3.9v-.19h-.03l-.01-.03c-.94-.57-2.78-.72-3.08-.76Z"/><path fill="#E2E2E2" d="M221.38 59.16c-.53 0-1.04.08-1.54.23-.9.94-.9 2.74-.9 2.74a.75.75 0 0 1 .75-.75h1.5c.37 0 .73.14 1.01.37.3.04 2.14.2 3.08.75a.04.04 0 0 0 .04.04c-.11-1.87-1.84-3.38-3.94-3.38Zm-.57 10.48h-1.87v.75h1.5c1.24 0 1.87-1.02 1.87-2.25a1.5 1.5 0 0 1-1.5 1.5Z"/><path fill="#000" d="m235.45 62.8 2 6.09h-.76l-.56-1.77h-2.44l-.56 1.77h-.72l2-6.08h1.04Zm-1.57 3.72h2.06l-.64-2.06-.37-1.17h-.04c-.11.38-.22.72-.34 1.17l-.67 2.06Zm8.03.34v-4.05h.68v3.97c0 1.47-.83 2.22-2.22 2.22-1.39 0-2.1-.79-2.1-2.1v-4.1h.67v3.98c0 1.1.6 1.58 1.5 1.58s1.47-.41 1.47-1.5Zm3.19-3.42h-1.61v-.63h3.94v.63h-1.62v5.45h-.7v-5.45Zm5.03 5.56c-1.46 0-2.36-.86-2.36-3.12 0-2.25.94-3.15 2.4-3.15s2.36.86 2.36 3.08c0 2.21-.97 3.19-2.4 3.19Zm.04-.64c1.01 0 1.65-.6 1.65-2.48 0-1.87-.67-2.55-1.69-2.55-1.01 0-1.65.6-1.65 2.48s.68 2.55 1.69 2.55Zm3.68-5.56h1.61c1.84 0 2.67.94 2.67 3 0 2.07-.79 3.09-2.67 3.09h-1.61V62.8Zm.71 5.49h.9c1.32 0 1.96-.68 1.96-2.4 0-1.73-.72-2.45-2.03-2.45h-.83v4.85Zm4.92.6V62.8h3.23v.63h-2.56v2.07h2.26v.6h-2.26v2.18h2.67v.6h-3.34Zm7.25-1.54c0-1.4-2.9-1.1-2.9-3 0-.9.8-1.62 1.88-1.62.57-.02 1.12.16 1.58.49l-.41.56a1.73 1.73 0 0 0-1.2-.41c-.72 0-1.13.37-1.13.94 0 1.42 2.89 1.12 2.89 3 0 .9-.71 1.69-2.03 1.69-.7.02-1.37-.2-1.91-.64l.41-.56c.44.37 1 .57 1.58.56.82 0 1.24-.45 1.24-1.01Zm2.67 1.54h-.72V62.8h.71v6.08Zm2.36-6.08h.82l-2.18 3.04 2.37 3.04h-.9l-2.25-3 2.14-3.08Zm4.28 2.66a1.58 1.58 0 0 1-1.28.53 1.65 1.65 0 0 1-1.28-.53 1.8 1.8 0 0 1-.52-1.28 1.75 1.75 0 0 1 .52-1.27 1.69 1.69 0 0 1 1.28-.57 1.92 1.92 0 0 1 1.84 1.84 1.7 1.7 0 0 1-.56 1.28Zm-2.37-2.4a1.52 1.52 0 0 0-.45 1.12 1.51 1.51 0 0 0 .45 1.1 1.4 1.4 0 0 0 1.09.48 1.46 1.46 0 0 0 1.13-.49 1.5 1.5 0 0 0 .44-1.09 1.53 1.53 0 0 0-1.57-1.57 1.5 1.5 0 0 0-1.09.45Zm1.05.11.56.08a.49.49 0 0 1 .3.48c0 .08 0 .16-.04.23a.48.48 0 0 1-.14.19l-.3.07c.13.03.25.11.33.23a.42.42 0 0 1 .12.3v.3c0 .04 0 .07.03.07h-.33v-.22a.52.52 0 0 0-.2-.45l-.4-.08h-.27v.79h-.33v-1.99h.67Zm.38.3-.42-.07h-.3v.75h.3l.34-.08a.3.3 0 0 0 .22-.3.3.3 0 0 0-.14-.3Zm9.68-.18c.2.28.3.62.3.97a1.35 1.35 0 0 1-.79 1.28c.3.08.56.28.72.56.18.26.28.58.26.9 0 .35-.1.7-.26 1.01l-.45.5a2 2 0 0 1-.72.3c-.3.06-.6.08-.9.07h-2.81v-6.24h3.04a1.95 1.95 0 0 1 1.61.64Zm-3.41.44v1.35h1.53c.24.02.47-.03.68-.15.15-.07.23-.26.23-.52a.6.6 0 0 0-.34-.6l-.72-.08h-1.38Zm0 2.4v1.66h1.53c.22.02.44 0 .64-.08a.82.82 0 0 0 .42-.79.68.68 0 0 0-.42-.67c-.2-.09-.42-.13-.64-.11h-1.53Zm6.23 2.75h-1.32v-6.24h1.32v6.24Zm5.37-6.24h1.87v6.24h-1.2v-5.22l-1.2 5.22h-1.27L290 63.67v5.22h-1.2v-6.24h1.88l1.16 4.92 1.13-4.92Zm6.27 4.36c-.01.2.02.41.1.6a.79.79 0 0 0 .8.45c.23 0 .46-.07.63-.22.18-.2.27-.46.27-.72a.86.86 0 0 0-.5-.82c-.28-.1-.59-.13-.9-.12v-.86c.29.02.57-.02.83-.11a.68.68 0 0 0 .42-.72.74.74 0 0 0-.23-.56.68.68 0 0 0-.56-.22.71.71 0 0 0-.64.26c-.13.21-.2.46-.19.71h-1.12c.01-.3.06-.58.15-.86a1.96 1.96 0 0 1 1.05-.98c.25-.08.52-.12.79-.11a2.2 2.2 0 0 1 1.42.45 1.61 1.61 0 0 1 .23 2.14c-.12.14-.28.24-.45.3.19.05.36.15.49.3a1.53 1.53 0 0 1 .45 1.16 2 2 0 0 1-.53 1.4 2.18 2.18 0 0 1-1.61.6c-.87 0-1.47-.3-1.8-.87a2.7 2.7 0 0 1-.3-1.2h1.2Zm6.6-2.71a.6.6 0 0 0-.11-.33.71.71 0 0 0-.6-.3.82.82 0 0 0-.83.67c-.14.35-.2.72-.18 1.1.12-.18.29-.33.48-.42a2.18 2.18 0 0 1 1.44.02c.22.1.43.25.6.43a1.89 1.89 0 0 1 .52 1.43c.01.54-.16 1.07-.5 1.5a1.91 1.91 0 0 1-1.6.67 1.87 1.87 0 0 1-1.73-.97 4.27 4.27 0 0 1-.41-1.95c0-.4.02-.78.07-1.17.02-.46.16-.92.41-1.31a1.88 1.88 0 0 1 1.69-.98c.5-.02 1 .14 1.4.45a1.57 1.57 0 0 1 .55 1.17h-1.2Zm-1.46 3.46a.82.82 0 0 0 .71.3.64.64 0 0 0 .6-.3 1.05 1.05 0 0 0 .26-.79c0-.3-.09-.58-.26-.82a.9.9 0 0 0-.67-.27.71.71 0 0 0-.53.2 1.13 1.13 0 0 0-.37.9c0 .28.09.55.26.78Zm7.13-4.24a5.97 5.97 0 0 1 0 4.73 1.77 1.77 0 0 1-1.65.82 1.8 1.8 0 0 1-1.65-.82 6.42 6.42 0 0 1 0-4.73 1.81 1.81 0 0 1 1.65-.83 1.77 1.77 0 0 1 1.65.83Zm-2.36 3.98a.71.71 0 0 0 .71.56.68.68 0 0 0 .71-.56c.14-.53.2-1.07.2-1.62a5.86 5.86 0 0 0-.2-1.65.67.67 0 0 0-.71-.52.71.71 0 0 0-.71.52c-.13.54-.18 1.1-.15 1.65a6 6 0 0 0 .15 1.62ZM11.99 104.61l-5.12 3.3 5.12 3.26-5.12 3.26-5.13-3.3 5.13-3.26-5.13-3.26 5.13-3.25 5.12 3.25Zm-5.12 10.86 5.12-3.26 5.08 3.26-5.08 3.25-5.12-3.25Zm5.12-4.34 5.12-3.26-5.12-3.26 5.08-3.25 5.12 3.25-5.12 3.3 5.12 3.26-5.12 3.26-5.08-3.3Zm14.19-6.52h4.17c2.65 0 4.82 1.52 4.82 5.04v.74c0 3.47-2.04 5.08-4.73 5.08h-4.26V104.6Zm2.35 1.96v6.9h1.78c1.48 0 2.47-.95 2.47-3.17v-.56c0-2.17-1.04-3.17-2.56-3.17h-1.7Zm7.86.13h1.86l.3 2.04c.35-1.4 1.22-2.13 2.87-2.13H42v2.35h-.96c-1.86 0-2.34.65-2.34 2.51v4h-2.26v-8.77h-.04Zm6.07 4.56v-.22c0-2.95 1.87-4.56 4.43-4.56 2.56 0 4.43 1.6 4.43 4.56v.22c0 2.9-1.78 4.47-4.43 4.47-2.65 0-4.43-1.56-4.43-4.47Zm6.52 0v-.22c0-1.65-.83-2.65-2.13-2.65-1.3 0-2.13.91-2.13 2.65v.22c0 1.56.83 2.47 2.13 2.47 1.3 0 2.13-.91 2.13-2.47Zm3.56-4.56h1.9l.22 1.65a2.96 2.96 0 0 1 2.87-1.87c2.26 0 3.69 1.6 3.69 4.56v.26c0 2.87-1.6 4.43-3.69 4.43-1.39 0-2.34-.65-2.78-1.65v4.43H52.5V106.7h.05Zm6.38 4.56v-.22c0-1.74-.91-2.6-2.09-2.6-1.17 0-2.12 1-2.12 2.6v.17c0 1.57.82 2.52 2.08 2.52 1.26 0 2.13-.87 2.13-2.47Zm5.69 2.6-.18 1.6h-1.95v-11.71h2.21v4.51c.48-1.17 1.48-1.78 2.87-1.78 2.08.05 3.64 1.48 3.64 4.39v.26c0 2.9-1.47 4.6-3.69 4.6-1.47-.05-2.43-.74-2.9-1.87Zm4.25-2.73v-.22c0-1.6-.87-2.52-2.08-2.52-1.22 0-2.13 1.04-2.13 2.56v.18c0 1.65.82 2.6 2.08 2.6 1.26 0 2.13-.87 2.13-2.6Zm3.3.13v-.22c0-2.95 1.91-4.56 4.47-4.56 2.56 0 4.43 1.6 4.43 4.56v.22c0 2.9-1.82 4.47-4.43 4.47-2.6 0-4.47-1.56-4.47-4.47Zm6.6 0v-.22c0-1.65-.83-2.65-2.13-2.65-1.3 0-2.13.91-2.13 2.65v.22c0 1.56.83 2.47 2.13 2.47 1.3 0 2.13-.91 2.13-2.47Zm5.3-.35-3.09-4.21h2.65l1.78 2.65 1.78-2.65h2.6l-3.12 4.2 3.3 4.57h-2.6l-2-2.91-1.96 2.9h-2.69l3.35-4.55Zm49.57-5.84h1.36V112c0 1.84-.8 3.1-2.69 3.1-.55.02-1.1-.07-1.61-.27v-1.32c.44.2.91.28 1.4.26 1.13 0 1.54-.67 1.54-1.66v-7.03Zm3.87-.55a.89.89 0 0 1 .88.81v.11a.92.92 0 1 1-1.8 0 .86.86 0 0 1 .19-.62.87.87 0 0 1 .58-.3h.14Zm-.67 2.95h1.29V115h-1.29v-7.54Zm3.27 0h1.26v1.32c.44-.88 1.21-1.5 2.68-1.44v1.3c-1.69-.2-2.68.32-2.68 1.9v4.5h-1.26v-7.58Zm10.05 6.21a2.68 2.68 0 0 1-2.58 1.51c-1.98 0-3.01-1.73-3.01-3.94 0-2.2 1.06-3.93 3.2-3.93a2.43 2.43 0 0 1 2.39 1.47v-1.32h1.32V115h-1.32v-1.33Zm-2.2.3c1.17 0 2.2-.74 2.2-2.43v-.63c0-1.69-.96-2.42-2.06-2.42s-2.2.95-2.2 2.72c0 1.76.69 2.76 2.05 2.76Zm11.21 1.22a7.17 7.17 0 0 1-3.56-.78v-1.4c1.13.55 2.38.84 3.64.85 1.5 0 2.06-.6 2.06-1.47 0-.89-.55-1.37-2.43-1.84-1.88-.48-3.24-1.33-3.24-2.95 0-1.61 1.18-2.68 3.5-2.68a6.18 6.18 0 0 1 3.05.73V107a6.15 6.15 0 0 0-3.13-.74c-1.29 0-2.06.44-2.06 1.36 0 .92.63 1.22 2.4 1.66 1.76.44 3.27 1.21 3.27 3.02 0 1.8-1.03 2.9-3.5 2.9Zm4.68-3.98c0-2.28 1.32-3.9 3.56-3.9 2.25 0 3.61 1.65 3.61 3.9 0 2.24-1.32 3.97-3.6 3.97-2.29 0-3.57-1.69-3.57-3.97Zm1.25 0c0 1.43.73 2.76 2.31 2.76 1.59 0 2.32-1.33 2.32-2.76 0-1.44-.7-2.69-2.31-2.69-1.62 0-2.32 1.25-2.32 2.69Zm9.23-3.75h1.95v1.17h-1.95v6.37h-1.29v-6.37h-1.21v-1.17h1.21v-.85c0-1.4.78-2.36 2.43-2.36.29 0 .57.04.85.12v1.21l-.81-.07a1.06 1.06 0 0 0-1.22 1.14l.04.8Zm6.37 6.29.8-.11v1.25c-.28.09-.58.13-.88.1-1.62 0-2.39-.91-2.39-2.35v-4h-1.25v-1.18h1.22v-1.62h1.28v1.62h1.99v1.17h-1.99v3.98c0 .7.4 1.14 1.22 1.14Zm1.17-6.29h1.44l2.17 6.4 2.2-6.4h1.26l2.2 6.4 2.18-6.4h1.43l-2.76 7.54h-1.7l-1.28-3.64-.7-2.36-.7 2.36-1.32 3.64h-1.66l-2.76-7.54Zm18.84 6.21a2.61 2.61 0 0 1-2.54 1.51c-2.02 0-3.05-1.73-3.05-3.94 0-2.2 1.06-3.93 3.2-3.93a2.42 2.42 0 0 1 2.4 1.47v-1.32h1.31V115h-1.32v-1.33Zm-2.2.3c1.17 0 2.2-.74 2.2-2.43v-.63c0-1.69-.96-2.42-2.06-2.42s-2.2.95-2.2 2.72c0 1.76.73 2.76 2.05 2.76Zm5.51-6.51h1.25v1.32c.44-.88 1.22-1.5 2.69-1.44v1.3c-1.66-.2-2.69.32-2.69 1.9v4.5h-1.25v-7.58Zm8.54 7.73c-2.84 0-4.09-1.66-4.09-3.98 0-2.32 1.3-3.9 3.6-3.9 2.33 0 3.25 1.62 3.25 3.9v.59h-5.52c.18 1.28 1.03 2.13 2.8 2.13.78 0 1.57-.14 2.31-.4v1.21a6.1 6.1 0 0 1-2.35.44Zm-2.8-4.5h4.23c-.07-1.4-.7-2.2-1.98-2.2-1.3 0-2.1.88-2.25 2.2Zm-82.45-1.03-5.63-5.59-.51-.55-4.23 4.23-1.92 1.91a.49.49 0 0 0-.17.37.48.48 0 0 0 .17.37l3.83 3.86 2.32 2.28 4.2-4.2.06-.06 1.88-1.88a.55.55 0 0 0 0-.74Zm-6.18 2.32-1.91-1.95 1.91-1.91 1.95 1.91-1.95 1.95Z"/><path fill="#E2E2E2" d="M121.12 108.13a3.24 3.24 0 0 1 0-4.56l-4.23 4.2 2.28 2.3 1.95-1.94Zm1.95 1.91-1.95 1.91a3.22 3.22 0 0 1 0 4.6l4.23-4.23-2.28-2.28Z"/><path fill="#000" d="M245.4 107.32h1.19c.74 0 1.5.15 1.5 1.01 0 .74-.47 1.27-1.86 1.27h-1.3l.47-2.28Zm-5.21 8.39h3.44l.7-3.4h2.35c2.96 0 4.89-1.97 4.89-4.25 0-2.49-1.34-3.64-3.41-3.64h-5.6l-2.37 11.29Zm15.61-7.41.42 3.38h-2.16l1.74-3.38Zm-7.43 7.4h3.55l.86-1.6h3.68l.18 1.6h3.4l-1.72-11.28h-3.44l-6.51 11.29Zm15.26-7.07 2.75-4.21h4.1l-5.52 7.11-.86 4.18h-3.47l.86-4.15-2.43-7.14h3.5l1.07 4.2Zm15.14 2.77c-.2 1.16-1.1 4.57-5.81 4.57-3.29 0-4.86-2.14-4.86-5.16 0-3.64 2.28-6.7 6.13-6.7 2.52 0 4.77 1.1 4.83 4.48h-3.29c.04-1.07-.47-1.67-1.53-1.67-1.93 0-2.64 2.22-2.64 3.82 0 .95.24 2.38 1.84 2.38 1.1 0 1.71-.75 1.92-1.75l3.4.03Zm2.01-6.98h3.5l-.84 3.91h3.17l.83-3.91h3.5l-2.36 11.29h-3.47l.92-4.48h-3.17l-.95 4.48h-3.47l2.34-11.29Zm11.09 0h9.33l-.6 2.9h-5.86l-.3 1.4h5.46l-.56 2.7h-5.45l-.3 1.39h5.99l-.6 2.9h-9.49l2.38-11.29Z"/><path fill="#000" d="m303.6 109.72-2.6-5.3h3.8l1.09 2.93 2.25-2.93h4.12l-4.71 5.3 2.75 5.99h-3.9l-1.25-3.14-2.64 3.14h-4.27l5.36-5.99Zm-286.84 36H3.25c-.9 0-1.64.74-1.64 1.64v13.52c0 .9.73 1.64 1.64 1.64h13.51c.9 0 1.64-.73 1.64-1.64v-13.52c0-.9-.73-1.64-1.64-1.64Z"/><path fill="#E2E2E2" d="M15.44 147.93h-3.56a.79.79 0 0 0-.79.78v5.77c0 .44.35.8.79.8h3.56a.8.8 0 0 0 .79-.8v-5.76a.79.79 0 0 0-.8-.8Zm-7.31 0H4.57a.79.79 0 0 0-.79.78v9.97c0 .44.35.8.8.8h3.55a.8.8 0 0 0 .79-.8v-9.97a.79.79 0 0 0-.8-.78Z"/><path fill="#000" d="M53.83 166.34a1.97 1.97 0 0 1-1.97-2 1.97 1.97 0 1 1 3.94 0 1.97 1.97 0 0 1-1.97 2Zm1.97.28a.85.85 0 0 0 .72.67h.24a.17.17 0 0 0 .17-.17v-5.5a.17.17 0 0 0-.05-.12.17.17 0 0 0-.12-.05h-.79a.17.17 0 0 0-.12.05.17.17 0 0 0-.05.12v.44a2.48 2.48 0 0 0-1.97-.81 3.1 3.1 0 1 0 1.08 5.98c.34-.14.64-.35.9-.61Zm3-.82c.47.35 1.04.54 1.62.54.51 0 1.06-.27 1.06-.74 0-.48-1.16-.72-1.9-.95-.75-.24-1.36-.79-1.36-1.6 0-.82 1.12-1.84 2.2-1.84.64 0 1.27.2 1.8.55.17.13.07.27.07.27l-.44.61a.18.18 0 0 1-.04.05.16.16 0 0 1-.06.04h-.07a.17.17 0 0 1-.07-.02 1.9 1.9 0 0 0-1.19-.4c-.74 0-1.05.3-1.05.67 0 .37.51.58 1.12.75.61.17 2.14.6 2.14 1.87 0 1.25-1.05 1.83-2.2 1.83a3.7 3.7 0 0 1-2.28-.71.2.2 0 0 1-.04-.24l.45-.61a.17.17 0 0 1 .1-.09h.07c.02 0 .04 0 .06.02Zm9.67.81a.85.85 0 0 0 .72.68h.24a.17.17 0 0 0 .17-.17v-5.5a.17.17 0 0 0-.05-.12.17.17 0 0 0-.12-.05h-.79a.17.17 0 0 0-.17.17v.44a2.48 2.48 0 0 0-1.97-.81 3.1 3.1 0 1 0 1.08 5.98c.34-.14.64-.35.9-.61Zm-1.97-.27a1.97 1.97 0 0 1-1.97-2 1.97 1.97 0 1 1 3.94 0 1.97 1.97 0 0 1-1.97 2Zm10.1.44v-2.85c0-1.6-1.03-2.68-2.66-2.68a2 2 0 0 0-1.63.81.64.64 0 0 0-.71-.6h-.24a.17.17 0 0 0-.17.17v5.53a.17.17 0 0 0 .17.17h.92c0-.04.03-.07.03-.1v-3.26a1.56 1.56 0 0 1 1.57-1.57 1.52 1.52 0 0 1 1.56 1.56v3.28a.2.2 0 0 0 .2.17h.92c0-.04.03-.07.03-.1v-.51Zm6.04-.16a.85.85 0 0 0 .71.67h.24a.2.2 0 0 0 .2-.17v-5.5h-.03a.17.17 0 0 0-.17-.17h-.78a.17.17 0 0 0-.17.17v.44a2.48 2.48 0 0 0-1.97-.81 3.1 3.1 0 1 0 1.07 5.98c.34-.14.65-.35.9-.61Zm-1.97-.28a1.97 1.97 0 0 1-1.97-2 1.97 1.97 0 1 1 3.94 0 1.97 1.97 0 0 1-1.97 2Zm-9.85-14.5a2.72 2.72 0 1 0 0 5.44 2.72 2.72 0 0 0 0-5.44Zm-7.03 0a2.72 2.72 0 1 0 0 5.44 2.72 2.72 0 0 0 0-5.44Zm6.21-3.4a2.72 2.72 0 1 1-5.43 0 2.72 2.72 0 0 1 5.43 0Zm58.84 5.48a4.57 4.57 0 0 0-4.05 2.42 4.61 4.61 0 0 0-6.82-1.5v-3.86a.92.92 0 0 0-1.56-.65.92.92 0 0 0-.27.65v7.58a4.59 4.59 0 0 0 8.65 2.08 4.57 4.57 0 1 0 4.05-6.72Zm-8.1 7.34a2.77 2.77 0 1 1-.05-5.54 2.77 2.77 0 0 1 .05 5.53Zm8.1 0a2.76 2.76 0 1 1-.05-5.53 2.76 2.76 0 0 1 .05 5.53Z"/><path fill="#000" d="m139.58 161.65-2.34-3.14 2.34-3.16a.91.91 0 0 0-.87-1.43.94.94 0 0 0-.6.34l-2.04 2.72-2.02-2.72a.92.92 0 0 0-1.57.45c-.04.22 0 .45.11.64l2.35 3.16-2.35 3.14a.92.92 0 0 0 .24 1.2.92.92 0 0 0 1.22-.11l2.02-2.7 2.03 2.7a.94.94 0 0 0 1.28.17.91.91 0 0 0 .2-1.26Zm43.22 3.37h-1.44v-5.67h1.43v5.67Zm11.55-4.03a2.5 2.5 0 0 0-1.23-.31 1.46 1.46 0 0 0-1.43.91c-.08.2-.11.4-.1.6a1.5 1.5 0 0 0 .94 1.43c.18.07.39.1.59.1.43 0 .85-.1 1.23-.3v1.5c-.42.14-.86.2-1.3.2-1.64 0-3.04-1.09-3.04-2.94 0-1.84 1.26-2.94 3.04-2.94.44.01.88.08 1.3.2V161Zm-14.97 0c-.37-.2-.78-.31-1.2-.31a1.54 1.54 0 0 0-1.23 2.69 1.54 1.54 0 0 0 1.23.35c.42 0 .83-.1 1.2-.3v1.5c-.42.14-.86.2-1.3.2-1.6 0-3.05-1.09-3.05-2.94a2.9 2.9 0 0 1 3.05-2.94c.44.01.88.08 1.3.2V161Zm19.48-.31a1.5 1.5 0 1 0 0 3 1.5 1.5 0 0 0 0-3Zm3.01 1.5a3 3 0 1 1-3-2.94 2.9 2.9 0 0 1 3 2.94Zm-13.64-1.53a5.9 5.9 0 0 0-1.13-.18c-.58 0-.89.18-.89.45s.41.48.65.55l.41.13c.93.31 1.34.93 1.34 1.6 0 1.45-1.23 1.92-2.33 1.92-.53 0-1.05-.05-1.57-.13v-1.34c.44.14.9.22 1.37.24.71 0 1.02-.2 1.02-.54 0-.35-.27-.45-.61-.55l-.31-.1c-.82-.28-1.47-.72-1.47-1.68s.79-1.78 2.12-1.78c.47.02.94.08 1.4.17v1.24Zm-14.7-7.42a.71.71 0 0 0-.72-.69.69.69 0 0 0-.71.69v1.5a.68.68 0 0 0 .44.64.7.7 0 0 0 .27.05.72.72 0 0 0 .72-.69v-1.5Zm3.9-1.95a.72.72 0 0 0-.72-.72.76.76 0 0 0-.72.72v3.45a.71.71 0 0 0 .72.72.72.72 0 0 0 .72-.72v-3.45Zm3.93-2.67a.72.72 0 0 0-1.44 0v7.56a.72.72 0 0 0 .72.68.75.75 0 0 0 .72-.68v-7.56Zm3.9 2.67a.72.72 0 0 0-.72-.72.76.76 0 0 0-.72.72v3.45a.7.7 0 0 0 .21.5.72.72 0 0 0 1.23-.5v-3.45Zm3.9 1.95a.7.7 0 0 0-.22-.5.67.67 0 0 0-.5-.19.69.69 0 0 0-.69.69v1.5a.68.68 0 0 0 .69.72.72.72 0 0 0 .71-.72v-1.5Zm3.93-1.95a.75.75 0 0 0-.76-.68.69.69 0 0 0-.68.68v3.45a.72.72 0 0 0 1.44 0v-3.45Zm3.9-2.67a.72.72 0 0 0-.73-.72.72.72 0 0 0-.71.72v7.56a.72.72 0 0 0 .68.72.7.7 0 0 0 .52-.19.74.74 0 0 0 .23-.5v-7.59Zm3.89 2.67a.71.71 0 0 0-.14-.6.73.73 0 0 0-.56-.27.72.72 0 0 0-.7.87v3.45a.7.7 0 0 0 .19.5.7.7 0 0 0 1 0 .72.72 0 0 0 .2-.5v-3.45Zm3.93 1.95a.72.72 0 0 0-.72-.69.68.68 0 0 0-.72.69v1.5a.72.72 0 0 0 .72.72.72.72 0 0 0 .72-.72v-1.5Zm-.82 11.04v.1h-.27v.65h-.1v-.65h-.25v-.1h.62Zm.03 0h.17l.21.61h.03l.2-.61h.18v.75h-.14v-.61l-.2.61h-.1l-.24-.61v.61h-.1v-.75Z"/><g clip-path="url(#c)"><path fill="#000" d="M244.9 164.16c4.26 0 7.73-3.4 7.73-7.58a7.66 7.66 0 0 0-7.74-7.59 7.66 7.66 0 0 0-7.73 7.59 7.66 7.66 0 0 0 7.73 7.58Z"/><path fill="#E2E2E2" d="m240.86 156.56 1.32-1.3a.23.23 0 0 0-.01-.32.24.24 0 0 0-.16-.07.24.24 0 0 0-.17.06l-1.32 1.3-1.32-1.3a.24.24 0 0 0-.17-.07.24.24 0 0 0-.17.07.23.23 0 0 0 0 .33l1.33 1.3-1.32 1.29a.23.23 0 0 0-.01.33l.08.05a.24.24 0 0 0 .18 0 .23.23 0 0 0 .08-.05l1.32-1.3 1.32 1.3c.03.03.07.05.12.06.05.01.1 0 .14-.01a.23.23 0 0 0 .08-.38l-1.32-1.3m7.85 0c0 .24.19.43.43.43.11 0 .22-.05.3-.13a.42.42 0 0 0 .13-.3.42.42 0 0 0-.13-.3.43.43 0 0 0-.3-.12.43.43 0 0 0-.43.43m-.82 0c0-.68.56-1.22 1.25-1.22.68 0 1.24.54 1.24 1.22a1.25 1.25 0 0 1-2.12.86 1.2 1.2 0 0 1-.37-.86Zm-.49 0c0 .93.78 1.7 1.74 1.7.95 0 1.73-.77 1.73-1.7 0-.94-.78-1.7-1.73-1.7-.46 0-.9.18-1.23.5-.33.31-.5.74-.5 1.2Zm-.12-1.68h-.07a1 1 0 0 0-.6.2.24.24 0 0 0-.4-.1.22.22 0 0 0-.06.07.22.22 0 0 0-.02.08V158c0 .06.03.11.08.15.04.04.1.06.16.06s.12-.02.16-.06c.05-.04.07-.1.08-.15v-1.76c0-.6.05-.83.56-.9h.1c.14 0 .24-.1.24-.22a.24.24 0 0 0-.06-.17.24.24 0 0 0-.17-.06m-4.54 1.39v-.02c.07-.27.22-.5.45-.67a1.27 1.27 0 0 1 1.54 0c.22.18.38.42.44.69h-2.43Zm2.91-.05a1.7 1.7 0 0 0-1.74-1.37 1.72 1.72 0 0 0-1.58 1.11 1.68 1.68 0 0 0 1.42 2.28c.2.02.41.01.62-.04a1.7 1.7 0 0 0 .96-.63l.01-.01c.1-.12.08-.28-.03-.36a.24.24 0 0 0-.34.05l-.09.11c-.09.1-.2.2-.34.27a1.27 1.27 0 0 1-1.82-.86v-.04h2.47c.33 0 .52-.24.46-.5Z"/></g><path fill="#000" d="M288.03 160.18v2.72c0 1.04-1.15 1.06-1.15 1.06s-1.17-.02-1.17-1.06v-2.72s-.04-.46-.7-.46v3.25a1.8 1.8 0 0 0 1.87 1.6 1.77 1.77 0 0 0 1.86-1.6v-3.25c-.64 0-.7.46-.7.46Zm16.14 0v2.72c0 1.04-1.15 1.06-1.15 1.06s-1.17-.02-1.17-1.06v-2.72s-.05-.46-.71-.46v3.25a1.88 1.88 0 0 0 3.74 0v-3.25c-.67 0-.71.46-.71.46Zm-9.04 2.79v-3.25c-.64 0-.71.46-.71.46v4.33h.7v-1.54Zm11.69 0v-3.25c-.66 0-.7.46-.7.46v4.33h.7v-1.54Zm5.48 0v-3.25c-.66 0-.7.46-.7.46v4.33h.7v-1.54Zm-20.4.99h-1.26v-1.61h1.28c.11 0 .66.09.66.8a.81.81 0 0 1-.69.82v-.01Zm-1.26-3.63h1.06a.7.7 0 0 1 .53.2.7.7 0 0 1 .2.53c0 .67-.7.71-.7.71h-1.1v-1.44Zm1.81 1.7a1.23 1.23 0 0 0 .69-1.08c0-.77-.71-1.23-1.37-1.23h-1.82v4.8h2.32s1-.27 1-1.18c0-.9-.53-1.3-.82-1.3Zm5.66 1.95c-.93 0-1.37-.81-1.37-1.83s.44-1.84 1.37-1.84c.93 0 1.37.82 1.37 1.84 0 1.01-.44 1.83-1.37 1.83Zm2.25-.09h-.86a2.5 2.5 0 0 0 .69-1.72c0-1.06-.47-2.45-2.12-2.45 0 0-1.93-.14-2.06 2.4-.13 2.55 2.06 2.4 2.06 2.4.53-.07 1.07-.1 1.61-.07h1.1s-.04-.56-.41-.56Zm10.64-3.58h-3.5v-.6h3.5v.6Z"/><path fill="#000" d="M309.63 159.72v4.8h-.69v-4.8h.69Z"/><path fill="#000" fill-rule="evenodd" d="M294.29 146.45h-.69v-.73h.69v.73Zm1.37 3.61h-.69v-.73h.69v.73Zm0-2.24h-.69v-.7h.69v.7Zm.68-.7h-.68v-.71h.68v.7Zm0 1.9h-.68v-.7h.68v.7Zm.69-.86h-.69v-.71h.69v.7Z" clip-rule="evenodd"/><path fill="#000" fill-rule="evenodd" d="M293.6 147.6h.69v3.83h.66v-.69h.7v1.5h.72v-2.5h.68v5.16a4.26 4.26 0 0 0 2.06 3.27c-2.04 0-5.5-.93-5.5-5.04v-5.53Zm7.47 8.1s2.74-.16 3.56-3.85v-6.01s-3.45-.4-3.45 2.14-.1 7.71-.1 7.71Z" clip-rule="evenodd"/><path fill="#000" d="M285.18 165.97h.26l.65 1.04v-1.04h.24v1.42h-.27l-.64-1.04v1.04h-.24v-1.42Zm3.74 0h1.01v.22h-.77v.38h.7v.2h-.7v.4h.77v.22h-1.01v-1.42Zm3.44 0h1.15v.22h-.44v1.2h-.26v-1.2h-.45v-.22Zm3.58 0h.25l.26 1.09.3-1.09h.23l.3 1.09.26-1.09h.24l-.4 1.42h-.24l-.29-1.09-.29 1.09h-.24l-.38-1.42Zm4.4.71c0 .26.11.53.42.53s.42-.27.42-.53c0-.27-.1-.53-.42-.53-.3 0-.42.26-.42.53Zm1.1 0a.68.68 0 0 1-.18.51.7.7 0 0 1-.5.22.73.73 0 1 1 .28-1.4.7.7 0 0 1 .37.4.8.8 0 0 1 .04.27Zm2.82-.05h.42a.21.21 0 0 0 .18-.06.22.22 0 0 0 .06-.18c0-.17-.13-.2-.24-.2h-.42v.44ZM304 166h.69c.3 0 .46.14.46.38a.35.35 0 0 1-.24.35.26.26 0 0 1 .22.3.7.7 0 0 0 .07.37h-.27a.64.64 0 0 1-.02-.2c0-.27-.07-.38-.29-.38h-.37v.58H304V166Zm3.7 0h.25v.63l.62-.64h.3l-.55.56.6.84h-.3l-.47-.67-.2.2v.47h-.25v-1.4Zm3.79.92c0 .22.15.31.35.31.2 0 .3-.1.3-.22a.17.17 0 0 0-.1-.18l-.42-.1a.35.35 0 0 1-.3-.35c-.01-.3.23-.43.5-.43.26 0 .53.15.53.44h-.25c0-.17-.13-.24-.3-.24-.18 0-.25.04-.25.17 0 .14.07.16.16.2l.42.11a.35.35 0 0 1 .26.36c0 .3-.29.44-.55.44-.27 0-.6-.15-.6-.5h.25Z"/><path fill="#E2E2E2" d="M4.43 208.62a2.37 2.37 0 0 0 2.38-2.37v-2.36H4.43a2.37 2.37 0 0 0-2.37 2.37c0 1.3 1.06 2.36 2.37 2.36Z"/><path fill="#000" d="M2.05 201.53c0-1.3 1.07-2.37 2.38-2.37h2.38v4.73H4.43a2.37 2.37 0 0 1-2.38-2.36Z"/><path fill="#E2E2E2" d="M2.05 196.8a2.38 2.38 0 0 1 2.38-2.37h2.38v4.73H4.43a2.37 2.37 0 0 1-2.38-2.36Z"/><path fill="#000" d="M6.79 194.43h2.38a2.37 2.37 0 0 1 2.37 2.36 2.37 2.37 0 0 1-2.37 2.37H6.79v-4.73Z"/><path fill="#E2E2E2" d="M11.57 201.53a2.4 2.4 0 0 1-4.78 0c0-1.3 1.06-2.37 2.38-2.37a2.37 2.37 0 0 1 2.37 2.37h.03Z"/><path fill="#000" d="M14.09 196.8v7.38h.97v-3.52h2.34v-.92h-2.34v-2.02h3.05v-.92h-4.02Zm5.78 1.5c.35 0 .64-.28.64-.62 0-.35-.3-.59-.64-.59a.63.63 0 0 0-.64.62c0 .17.07.32.2.45a.6.6 0 0 0 .45.18l-.01-.04Zm-.5.93v4.95h.94v-4.95h-.96.03Zm4.6-.15c-1.3 0-2.2 1.11-2.2 2.34 0 1.23.91 2.33 2.2 2.33a1.96 1.96 0 0 0 1.44-.59v.66c0 .4-.16.77-.44 1.06a1.53 1.53 0 0 1-1.95.16l-.5.83a2.55 2.55 0 0 0 3.52-.81c.22-.38.34-.81.34-1.25v-4.59h-.97v.44a1.94 1.94 0 0 0-1.44-.58Zm-1.22 2.34a1.3 1.3 0 0 1 .63-1.22c.43-.26.97-.26 1.4 0 .43.26.67.73.63 1.22a1.27 1.27 0 0 1-.63 1.22c-.43.26-.97.26-1.4 0a1.3 1.3 0 0 1-.63-1.22Zm7.01-1.29a1.02 1.02 0 0 0-1.02 1.04v3.15h-.94v-4.98h.94v.42c.29-.38.74-.6 1.22-.6.6-.01 1.15.31 1.45.84.37-.52.9-.83 1.46-.84 1.07 0 1.74.88 1.74 1.96v3.17h-.94v-3.16a1.05 1.05 0 0 0-.45-1.02 1.01 1.01 0 0 0-1.48.44c-.08.18-.1.39-.08.58v3.15h-.9v-3.14a1.05 1.05 0 0 0-1.02-1.04l.02.03Zm9.87-.26a2.26 2.26 0 0 0-1.65-.7c-1.4 0-2.38 1.2-2.38 2.6 0 1.39.99 2.6 2.38 2.6a2.23 2.23 0 0 0 1.65-.72v.57h.94v-4.98h-.94v.63Zm-3.1 1.94a1.6 1.6 0 0 1 .73-1.48 1.54 1.54 0 0 1 2.2.63c.14.26.2.55.17.84.05.6-.23 1.17-.74 1.48a1.54 1.54 0 0 1-2.2-.63 1.62 1.62 0 0 1-.16-.84Z"/><g fill="#000" clip-path="url(#d)"><path d="M82.44 203.44h-2.7a.13.13 0 0 0-.13.13v1.31c0 .07.06.13.13.13h1.05v1.62s-.24.09-.89.09c-.77 0-1.85-.28-1.85-2.63 0-2.35 1.13-2.66 2.18-2.66.91 0 1.3.16 1.55.24.08.02.16-.05.16-.12l.3-1.27a.11.11 0 0 0-.05-.1c-.1-.07-.72-.42-2.29-.42-1.8 0-3.65.76-3.65 4.41 0 3.65 2.12 4.2 3.9 4.2 1.48 0 2.37-.63 2.37-.63.04-.02.04-.07.04-.1v-4.07a.12.12 0 0 0-.12-.13Zm13.92-3.24a.13.13 0 0 0-.13-.13h-1.52a.13.13 0 0 0-.13.13v2.91h-2.37v-2.91a.13.13 0 0 0-.13-.13h-1.52a.13.13 0 0 0-.13.13v7.87c0 .07.06.13.13.13h1.52c.07 0 .13-.06.13-.13v-3.36h2.37v3.36c0 .08.06.13.13.13h1.52c.07 0 .13-.05.13-.13v-7.87Zm-11.05 1.04a.98.98 0 1 0-1.96 0 .98.98 0 0 0 1.96 0Zm-.11 5.17v-3.63a.13.13 0 0 0-.12-.13h-1.52c-.07 0-.13.07-.13.14v5.2c0 .16.1.2.22.2h1.37c.15 0 .18-.07.18-.2v-1.58Zm16.94-3.74h-1.5a.13.13 0 0 0-.13.12v3.86s-.39.28-.93.28-.7-.25-.7-.77v-3.37a.13.13 0 0 0-.12-.12h-1.53a.13.13 0 0 0-.13.12v3.62c0 1.56.88 1.95 2.1 1.95 1 0 1.8-.54 1.8-.54s.03.28.05.32c.02.03.06.07.1.07h.98c.07 0 .13-.06.13-.14v-5.28a.12.12 0 0 0-.12-.12Zm4.13-.18c-.86 0-1.44.38-1.44.38v-2.67a.13.13 0 0 0-.13-.13h-1.53a.13.13 0 0 0-.12.13v7.87c0 .07.05.13.12.13h1.06c.04 0 .08-.03.1-.07.03-.05.07-.37.07-.37s.63.59 1.8.59c1.4 0 2.19-.7 2.19-3.13 0-2.41-1.26-2.73-2.12-2.73Zm-.6 4.43c-.53 0-.88-.25-.88-.25v-2.5s.35-.2.78-.24c.55-.06 1.07.11 1.07 1.4 0 1.35-.24 1.62-.97 1.6Zm-16.1-4.26h-1.14v-1.5c0-.06-.03-.08-.1-.08h-1.55c-.06 0-.1.02-.1.08v1.55l-.82.2a.12.12 0 0 0-.1.12v.97c0 .06.06.12.13.12h.8v2.33c0 1.73 1.23 1.9 2.06 1.9.37 0 .83-.12.9-.15a.12.12 0 0 0 .07-.11v-1.06a.13.13 0 0 0-.12-.13l-.41.02c-.57 0-.75-.25-.75-.58v-2.22h1.13c.07 0 .13-.06.13-.12v-1.22a.13.13 0 0 0-.13-.13Z"/></g><g fill="#000" clip-path="url(#e)"><path d="M65.23 194.43a7.25 7.25 0 0 0-2.29 14.16c.36.06.5-.16.5-.35l-.01-1.35c-2.02.44-2.44-.86-2.44-.86-.33-.84-.8-1.06-.8-1.06-.67-.46.04-.44.04-.44.73.05 1.11.74 1.11.74.65 1.11 1.7.8 2.1.6.07-.46.26-.78.47-.96-1.61-.19-3.3-.81-3.3-3.6 0-.79.28-1.44.74-1.94-.07-.19-.32-.93.08-1.93 0 0 .6-.2 1.99.75a6.89 6.89 0 0 1 3.62 0c1.39-.94 2-.75 2-.75.39 1 .14 1.74.06 1.93.47.5.75 1.15.75 1.95 0 2.79-1.7 3.4-3.3 3.58.25.22.48.67.48 1.34v2c0 .2.13.42.5.35a7.26 7.26 0 0 0-2.3-14.16Z"/><path d="M60.7 204.78c-.02.03-.07.05-.12.02-.06-.02-.09-.07-.07-.1.02-.04.07-.06.13-.03.05.02.08.07.06.1Zm.36.32c-.04.03-.1.02-.15-.04-.05-.05-.06-.11-.02-.15.03-.03.1-.01.15.04.04.05.05.12.02.15m.24.4c-.04.04-.12 0-.16-.06-.05-.06-.05-.14 0-.17.04-.03.12 0 .16.06.05.07.05.14 0 .18m.41.47c-.04.04-.12.03-.18-.03-.07-.06-.08-.14-.04-.19.04-.04.12-.03.18.03.07.06.09.15.04.19Zm.54.16c-.02.06-.1.08-.18.06-.09-.03-.14-.1-.12-.15.01-.06.1-.09.18-.06.08.02.13.09.12.15Zm.6.07c0 .05-.06.1-.15.1-.08 0-.15-.04-.16-.1 0-.06.07-.1.16-.11.08 0 .16.05.16.1Zm.6-.03c.01.06-.05.12-.13.14-.09.01-.16-.02-.17-.08-.02-.06.05-.12.13-.14.09-.01.16.02.17.08Z"/></g><path fill="#000" d="M161.66 205.77a2.76 2.76 0 0 1-.55-1.82c0-.8.18-1.4.55-1.85.36-.45.86-.67 1.5-.67s1.13.22 1.5.67c.36.44.55 1.06.55 1.85 0 .77-.19 1.37-.56 1.82-.36.44-.85.66-1.49.66s-1.13-.22-1.5-.66Zm-2.8-6.73h8.9v9.58h-8.9v-2.1l.26-.75c.02-.05.02-.1.02-.15l-.29-2.19v-4.39Zm.56 4.9a3.87 3.87 0 0 0 2.29 3.64c.44.18.93.27 1.45.27a3.64 3.64 0 0 0 2.61-1.07 3.86 3.86 0 0 0 1.13-2.84 3.8 3.8 0 0 0-2.31-3.64 3.67 3.67 0 0 0-1.43-.27 3.52 3.52 0 0 0-2.63 1.1c-.36.35-.64.79-.83 1.26a4.2 4.2 0 0 0-.27 1.56Zm8.98-5.1v9.32l.77-.77v-9.45l-.77.9Zm-8.24-1.43-.9.99h8.67l.86-1-8.63.01Zm-3.6.78.56-1.57-8.67 1.21-.11.38.27 1.07 7.96-1.09Zm.58.33.43 3.03.67 4.76.25-.68-1.04-8.01-.31.9Zm-9.15 2.07.17.08-3.49 7.92-7.72-3.48 3.49-7.93 7.55 3.41Zm-1.67 2a3.98 3.98 0 0 0-1-2.63 3.5 3.5 0 0 0-1.19-.81c-.44-.2-.92-.3-1.4-.3h-.02a3.8 3.8 0 0 0-2.69 1.2c-.36.39-.65.85-.88 1.38a4.52 4.52 0 0 0-.37 1.76c0 .47.08.92.24 1.37a3.41 3.41 0 0 0 1.96 2.04 3.42 3.42 0 0 0 2.81-.01 4 4 0 0 0 1.29-.9c.36-.38.66-.84.88-1.37.24-.55.37-1.14.37-1.74Zm10.82.52.6 4.26-8.62 1.2-.9-6.42.66-1.51v-.02a.33.33 0 0 0 .02-.2l-.13-.51 7.76-1.06.61 4.26Zm-.98 3.55c0-.07 0-.15-.02-.23l-.9-6.2c-.05-.28-.15-.5-.3-.63a.67.67 0 0 0-.47-.17.97.97 0 0 0-.44.1.72.72 0 0 0-.24.23.89.89 0 0 0-.12.48c0 .07 0 .15.02.22l.34 2.39-2.66.39-.34-2.38a1.06 1.06 0 0 0-.3-.64.65.65 0 0 0-.58-.17.75.75 0 0 0-.56.32.87.87 0 0 0-.12.48c0 .08 0 .16.02.23l.9 6.2a1 1 0 0 0 .31.64.7.7 0 0 0 .47.16h.16a.68.68 0 0 0 .51-.34c.08-.14.12-.3.12-.46l-.02-.23-.37-2.45 2.66-.39.37 2.45c.02.24.13.47.3.64.13.11.3.17.47.17a.98.98 0 0 0 .44-.11.7.7 0 0 0 .23-.23c.08-.14.13-.3.12-.47Zm-8.05-6.72-.5-1.99-7.69-3.52.62 2.1 7.57 3.41Zm-8.18-3.2-.57-1.94-2.73 6.46.33 2.21 2.97-6.73Zm3.63 3.74a2.02 2.02 0 0 0-.8-.18c-.29 0-.58.08-.84.23-.5.28-.93.8-1.25 1.55-.2.43-.3.9-.31 1.36 0 .2.03.4.08.6.16.56.52.96 1.1 1.2a2 2 0 0 0 .78.17c.3 0 .59-.07.85-.22.5-.28.92-.79 1.24-1.53.2-.43.3-.9.32-1.39 0-.2-.03-.4-.08-.58a1.77 1.77 0 0 0-1.09-1.21Zm-8.72.58.94 6.15-8.56 1.34-1.37-8.39 7.06-1.08 1.6-.24.33 2.22Zm-.9 5.46-.01-.16a.66.66 0 0 0-.14-.31.65.65 0 0 0-.3-.2 1.61 1.61 0 0 0-.44-.06c-.16 0-.35.02-.56.06l-2.42.41c.02-.19.12-.43.28-.73.24-.42.5-.83.8-1.2l.29-.38.2-.26c.55-.72.89-1.32 1.02-1.78a3.74 3.74 0 0 0 .1-1.58 1.53 1.53 0 0 0-.13-.43.6.6 0 0 0-.21-.25.82.82 0 0 0-.42-.08c-.15 0-.33.01-.54.05l-2.8.48c-.34.06-.6.16-.75.3a.6.6 0 0 0-.2.46c0 .05 0 .1.02.14.04.24.16.42.36.5a.9.9 0 0 0 .43.08c.11 0 .24 0 .37-.03l2.35-.4c.02.19 0 .38-.07.56-.07.2-.25.47-.52.82l-.37.45c-.63.77-1.08 1.42-1.35 1.96a4.27 4.27 0 0 0-.47 1.72c0 .14 0 .27.03.4.02.16.07.32.14.47.05.1.14.2.24.26.1.06.23.08.41.08.24 0 .55-.04.95-.1l2.55-.44c.45-.08.76-.19.94-.34a.6.6 0 0 0 .22-.47Zm1.2-8.24-.04.2 1.08 7.12.25-1.32-1.06-7.18-.23 1.18Zm-.14-2.7-8.6 1.38-.51 2.55 8.61-1.32.5-2.6v-.01Z"/><path fill="#000" fill-rule="evenodd" d="M233.18 198.45c.22.38.33.81.34 1.26v5.8a1.99 1.99 0 0 0 1.89 1.9h.63v-7.7a2.57 2.57 0 0 1 3.82-2.23c.4.25.72.58.97.97.18.4.27.82.3 1.26v5.8a1.99 1.99 0 0 0 1.88 1.9h.68v-7.7a5.19 5.19 0 0 0-7.26-4.69c-.67.3-1.27.74-1.75 1.3a5.1 5.1 0 0 0-6.73-.88 3.83 3.83 0 0 0-2.28-.87v12.84h.63a1.89 1.89 0 0 0 1.89-1.9v-5.8a2.48 2.48 0 0 1 2.52-2.57 2.51 2.51 0 0 1 2.23 1.3h.24Zm-43.98 8.96h10.27v-.63a1.94 1.94 0 0 0-1.89-1.9h-6.49l7.75-7.7v-.62a1.94 1.94 0 0 0-1.89-1.9H186.6v.64a1.98 1.98 0 0 0 1.89 1.89h6.44l-7.7 7.7v.68a2.03 2.03 0 0 0 1.93 1.89l.05-.05Zm34.1-10.95a6.45 6.45 0 0 1 0 9.1 6.54 6.54 0 0 1-9.1 0 6.42 6.42 0 0 1 1.99-10.66 6.45 6.45 0 0 1 7.1 1.56Zm-1.84 1.8a3.88 3.88 0 0 1-2.71 6.6 3.82 3.82 0 0 1-2.72-1.13 3.87 3.87 0 0 1 2.72-6.6 3.82 3.82 0 0 1 2.7 1.12Zm-16.23-3.69a6.44 6.44 0 0 1 4.56 11 6.44 6.44 0 0 1-9.06-9.1 6.26 6.26 0 0 1 4.5-1.9Zm2.76 3.68a3.87 3.87 0 1 1-5.47 5.49 3.87 3.87 0 0 1 5.47-5.49Zm69.52 6.47.63-1.45c.73.51 1.6.78 2.49.77.68 0 1.1-.26 1.1-.65-.03-1.07-3.98-.24-4-2.94 0-1.36 1.2-2.43 2.93-2.43 1.04 0 2.08.23 2.79.83l-.56 1.51a4.36 4.36 0 0 0-2.32-.74c-.53 0-.89.24-.89.56 0 1.07 3.98.5 4.04 3.09 0 1.4-1.19 2.4-2.91 2.4a5.51 5.51 0 0 1-3.3-.94Zm24.29-1.98a1.9 1.9 0 0 1-1.6.92 1.81 1.81 0 0 1-1.82-1.81 1.8 1.8 0 0 1 1.11-1.7 1.83 1.83 0 0 1 1.62.1c.28.17.52.4.69.68l1.72-.96a3.83 3.83 0 1 0 0 3.75l-1.72-.98Zm-17.22-7.9h2.2v10.69h-2.2v-10.69Zm19.8 0v10.69h2.2v-3.21l2.58 3.2h2.79l-3.3-3.8 3.06-3.56h-2.67l-2.47 2.94v-6.26h-2.2Z" clip-rule="evenodd"/><path fill="#000" d="M293.25 202.77a2 2 0 0 1-1.7.89 1.81 1.81 0 0 1-1.68-2.52 1.8 1.8 0 0 1 1.69-1.13 1.95 1.95 0 0 1 1.69.95v1.8Zm0-4.6v.86c-.36-.6-1.25-1.01-2.17-1.01-1.9 0-3.41 1.69-3.41 3.8 0 2.1 1.51 3.86 3.41 3.86.92 0 1.81-.42 2.17-1.04v.86h2.2v-7.34h-2.2Z"/><path fill="#000" fill-rule="evenodd" d="M264.04 202.74a1.4 1.4 0 0 1-1.37 1.36 1.37 1.37 0 0 1-1.33-1.36 1.34 1.34 0 0 1 1.33-1.34h1.37v1.34Zm.65 0a1.37 1.37 0 0 1 2.7 0v3.38a1.37 1.37 0 0 1-2.24.83 1.37 1.37 0 0 1-.46-.83v-3.38Zm1.37-5.41a1.35 1.35 0 0 1-1.26-.81 1.35 1.35 0 0 1-.11-.52 1.37 1.37 0 0 1 2.38-1.1 1.36 1.36 0 0 1 .32 1.1v1.33h-1.33Zm0 .69a1.37 1.37 0 0 1 0 2.7h-3.39a1.36 1.36 0 0 1-1.44-.78 1.36 1.36 0 0 1 .86-1.88c.19-.06.39-.07.58-.04h3.39Zm5.37 1.36a1.36 1.36 0 0 1 1.36-1.36 1.36 1.36 0 0 1 0 2.7h-1.36v-1.34Zm-.66 0a1.36 1.36 0 0 1-1.36 1.34 1.34 1.34 0 0 1-1.34-1.34V196a1.36 1.36 0 0 1 1.34-1.37 1.4 1.4 0 0 1 1.36 1.37v3.38Zm-1.36 5.37a1.4 1.4 0 0 1 1.36 1.37 1.36 1.36 0 0 1-2.3.94 1.3 1.3 0 0 1-.4-.94v-1.37h1.34Zm0-.65a1.36 1.36 0 0 1-1.34-1.36 1.34 1.34 0 0 1 1.34-1.34h3.38a1.34 1.34 0 0 1 1.34 1.34 1.36 1.36 0 0 1-1.34 1.36h-3.38Z" clip-rule="evenodd"/><path fill="#000" d="M32.94 242.19h2.67c-.45-2.82-2.9-4.78-6.1-4.78-3.78 0-6.62 2.76-6.62 7.38 0 4.54 2.7 7.35 6.7 7.35 3.58 0 6.14-2.28 6.14-5.98v-1.72h-5.87v2.03h3.33c-.04 2.04-1.41 3.34-3.59 3.34-2.42 0-4.08-1.8-4.08-5.05 0-3.23 1.69-5.02 4.02-5.02 1.75 0 2.94.93 3.4 2.45Zm4.55 9.75h2.55V241.2H37.5v10.75Zm1.29-12.45c.8 0 1.47-.62 1.47-1.37 0-.76-.66-1.38-1.47-1.38-.81 0-1.48.61-1.48 1.38 0 .76.65 1.37 1.47 1.37Zm8.92 1.71h-2.14v-2.58H43v2.58h-1.54v1.96H43v5.98c-.01 2.02 1.47 3.02 3.39 2.96.51-.01 1.02-.1 1.5-.25l-.43-1.99c-.24.07-.5.1-.74.1-.65 0-1.16-.22-1.16-1.24v-5.57h2.14v-1.95Zm1.97 10.74h8.99v-2.17h-6.37V237.6h-2.62v14.33Zm13.88.22c1.7 0 2.72-.79 3.18-1.7h.09v1.48h2.46v-7.2c0-2.83-2.34-3.69-4.4-3.69-2.29 0-4.04 1.01-4.6 2.97l2.39.34c.25-.74.97-1.37 2.22-1.37 1.19 0 1.84.6 1.84 1.66v.04c0 .73-.77.77-2.69.97-2.1.22-4.1.84-4.1 3.27-.02 2.11 1.54 3.23 3.61 3.23Zm.84-1.86c-1.06 0-1.83-.48-1.83-1.41 0-.97.86-1.38 2-1.54.67-.1 2-.26 2.34-.53v1.27c0 1.2-.97 2.2-2.5 2.2v.01Zm6.77 1.64h2.51v-1.69h.15c.4.78 1.24 1.88 3.1 1.88 2.56 0 4.47-2 4.47-5.55 0-3.58-1.96-5.53-4.47-5.53a3.22 3.22 0 0 0-3.1 1.92h-.1v-5.36h-2.56v14.33Zm2.5-5.37c0-2.1.9-3.44 2.55-3.44 1.7 0 2.58 1.44 2.58 3.44s-.89 3.48-2.58 3.48c-1.63 0-2.54-1.4-2.54-3.48Z"/><path fill="#E2E2E2" d="m18.07 242.52-.02-.07-2.49-6.42a.64.64 0 0 0-.54-.4.67.67 0 0 0-.55.2.65.65 0 0 0-.15.26l-1.67 5.1h-6.8l-1.67-5.1a.65.65 0 0 0-.4-.43.65.65 0 0 0-.58.06.64.64 0 0 0-.26.3l-2.48 6.43-.03.07a4.54 4.54 0 0 0 1.53 5.28l.01.01.02.02 3.78 2.8 1.87 1.4 1.14.86a.77.77 0 0 0 .93 0l1.14-.85 1.87-1.4 3.8-2.83h.02a4.57 4.57 0 0 0 1.53-5.3Z"/><path fill="#000" d="m18.07 242.52-.02-.07a8.4 8.4 0 0 0-3.34 1.5l-5.46 4.08 3.48 2.6 3.8-2.82h.01a4.57 4.57 0 0 0 1.53-5.3Z"/><path fill="#E2E2E2" d="m5.77 250.63 1.87 1.41 1.14.85a.77.77 0 0 0 .93 0l1.14-.85 1.87-1.4-3.47-2.6-3.48 2.6Z"/><path fill="#000" d="M3.8 243.94a8.4 8.4 0 0 0-3.34-1.49l-.03.07a4.54 4.54 0 0 0 1.53 5.28l.01.01.02.02 3.78 2.8 3.47-2.6-5.44-4.09Zm137.58 6.71c-.9.62-2.34.86-3.83.86-4.78 0-7.46-2.83-7.46-7.42 0-4.6 2.68-7.47 7.42-7.47 1.38 0 2.82.24 3.82 1v1.92a6.5 6.5 0 0 0-3.82-1c-3.4 0-5.46 2.25-5.46 5.55s2.1 5.55 5.55 5.55c1.3.01 2.58-.3 3.73-.9l.05 1.9Zm1.39-4.89c0-3.3 1.91-5.69 5.22-5.69 3.3 0 5.21 2.4 5.21 5.7 0 3.3-1.91 5.78-5.21 5.78s-5.22-2.48-5.22-5.79Zm1.82 0c0 2.11 1.05 4.02 3.4 4.02 2.34 0 3.34-1.91 3.34-4.02 0-2.1-1-3.92-3.34-3.92-2.35 0-3.4 1.87-3.4 3.92Zm20.2 5.56h-1.92v-6.66c0-2-.77-2.87-2.59-2.87-1.81 0-2.96 1.15-2.96 3.4v6.13h-1.92V240.3h1.92v1.77a3.83 3.83 0 0 1 3.49-2.01c2.53 0 3.97 1.77 3.97 4.78v6.47Zm5.25-11.01h2.88v1.72h-2.88v9.28h-1.81v-9.28h-1.82v-1.72h1.82v-1.25c0-2.05 1.15-3.44 3.49-3.44a6 6 0 0 1 1.3.2v1.76l-1.2-.14c-1.2 0-1.78.72-1.78 1.67v1.2Zm7.85 11.05c-1.82 0-2.96-.86-2.96-2.87v-12.82h1.9v12.58c0 1 .68 1.34 1.5 1.34h.52v1.68c-.3.1-.64.13-.96.1Zm2.59-11.05h1.91v6.65c0 1.96.77 2.87 2.58 2.87 1.82 0 2.97-1.2 2.97-3.4v-6.12h1.91v11h-1.9v-1.81a3.88 3.88 0 0 1-3.5 2.05c-2.54 0-3.97-1.77-3.97-4.78v-6.46Zm17.51 11.24c-4.16 0-5.93-2.39-5.93-5.79s1.81-5.69 5.16-5.69 4.79 2.34 4.79 5.7v.85h-8.04c.24 1.87 1.48 3.12 4.07 3.12a9.93 9.93 0 0 0 3.35-.63v1.77c-1.07.47-2.23.7-3.4.67Zm-4.07-6.55h6.18c-.1-2.01-1.06-3.2-2.92-3.2-1.87 0-3.07 1.28-3.26 3.2Zm19.72 6.31h-1.92v-6.65c0-2-.81-2.87-2.58-2.87s-2.97 1.15-2.97 3.4v6.13h-1.91V240.3h1.91v1.77a3.83 3.83 0 0 1 3.45-2.01c2.53 0 4.02 1.77 4.02 4.78v6.47Zm10.43-.28c-.87.35-1.8.52-2.73.48-3.92 0-5.74-2.35-5.74-5.75s1.82-5.69 5.74-5.69a5.5 5.5 0 0 1 2.63.53v1.72a6.27 6.27 0 0 0-2.49-.53c-2.87 0-4.01 1.82-4.01 3.97 0 2.16 1.2 3.98 4.06 3.98.85 0 1.7-.15 2.49-.44l.05 1.73Zm7.42.52c-4.12 0-5.94-2.39-5.94-5.79s1.87-5.69 5.22-5.69c3.35 0 4.73 2.34 4.73 5.7v.85h-8.03c.28 1.87 1.48 3.12 4.06 3.12a9.93 9.93 0 0 0 3.35-.63v1.77c-1.07.47-2.23.7-3.4.67Zm-4.02-6.55h6.12c-.1-2.01-1.05-3.2-2.92-3.2-1.86 0-3.01 1.28-3.2 3.2Zm-119.25 3.06-.48.81a.53.53 0 0 0 .15.67l3.3 2.01c.1.06.24.08.36.06.12-.03.23-.1.3-.2l.49-.76c1.29-2.16 2.58-1.87 4.92-.77l3.26 1.53a.48.48 0 0 0 .62-.24h.05l1.53-3.54a.48.48 0 0 0-.24-.62l-3.25-1.58c-4.4-2.1-8.14-1.96-11 2.68v-.05Z"/><path fill="#000" d="m122.86 240.07.48-.81a.53.53 0 0 0-.14-.67l-3.3-2.01a.47.47 0 0 0-.37-.07.48.48 0 0 0-.3.21l-.53.81c-1.24 2.16-2.58 1.87-4.88.77l-3.25-1.53a.53.53 0 0 0-.67.24l-1.54 3.54a.43.43 0 0 0 .08.52c.05.05.1.08.16.1l3.26 1.58c4.4 2.1 8.13 1.96 11-2.68Zm181.72.59h-2.95v2.94h2.95a1.27 1.27 0 0 1 1.27 1.26 1.27 1.27 0 0 1-.78 1.17c-.16.06-.32.1-.49.1h-2.95v2.93h2.95a4.24 4.24 0 0 0 4.22-4.2 4.19 4.19 0 0 0-4.22-4.2Zm-16.84 15.54a8.87 8.87 0 0 0 8-5.04h3.78v5.04h2.1v-5.04h2.96c3.5 0 6.34-2.82 6.34-6.3s-2.84-6.3-6.34-6.3h-5.06v7.56h-3a8.85 8.85 0 0 0-8.78-7.56h-10.4L267 256.2h2.46l2.96-5.04h10.62v5.04h4.7Zm26.13-11.33c0 5.1-4.16 9.23-9.29 9.23v5.04h-8.02v-3.93a11.83 11.83 0 0 1-8.82 3.93h-7.65v-5.04h-5.97l-2.96 5.04h-9.37l13.79-23.52h12.16c3.5 0 6.65 1.52 8.82 3.94v-3.94h8.02a9.23 9.23 0 0 1 9.29 9.24v.01Zm-33.77-4.2v5.46h-4.72l-1.72 2.94h9.4v-8.4h-2.96Zm14.4 6.71a6.74 6.74 0 0 1-6.75 6.72h-2.58v-2.94h2.58a3.8 3.8 0 0 0 3.79-3.78 3.78 3.78 0 0 0-3.8-3.78h-2.58v-2.94h2.58c3.73 0 6.75 3 6.75 6.72"/><path fill="#000" fill-rule="evenodd" d="M4.4 313.5v-8.79H1v8.78h3.4Zm.27-9.53 5.8-7.13H6.96l-5.8 7.13h3.51Zm.64.74v8.78h3.4v-4.41c0-.9.96-1.65 2.5-1.23v-3.14c-1.17-.26-2.5.94-2.5 1.52v-1.52h-3.4Z" clip-rule="evenodd"/><path fill="#000" d="M49.64 308.91h17.13v-17.13H49.64v17.13Z"/><path fill="#E2E2E2" d="M63.1 297.1a4.6 4.6 0 0 0-6.5 0l-.1.09-.65-.06a3.87 3.87 0 0 0-2.76 1.17 3.9 3.9 0 0 0 2.76 6.66h4.1a4.6 4.6 0 0 0 3.14-7.85Zm-7.22 7.02a3.12 3.12 0 0 1-2.17-5.26 3.18 3.18 0 0 1 2.17-.9h.45l.47.12c.3.09.56.23.8.42.13.07.24.17.34.28l.11.08 1.23 1.25a.44.44 0 0 1 0 .62.37.37 0 0 1-.28.11.42.42 0 0 1-.3-.11l-1.04-1-.2-.23-.1-.11c-.3-.26-.65-.43-1.03-.5h-.45a2.2 2.2 0 0 0 .06 4.4h.38l.37.33c.17.2.38.37.61.5h-1.42Zm6.63-1.11a3.7 3.7 0 0 1-1.37.86l-.47.14c-.25.07-.5.1-.75.11h-.09c-.86 0-1.7-.3-2.36-.86l-.28-.25-1.76-1.75a.45.45 0 0 1 0-.62.37.37 0 0 1 .28-.11.42.42 0 0 1 .3.11l1.74 1.76c.17.15.36.3.55.41.45.29.97.43 1.5.42a2.82 2.82 0 0 0 2.07-.86 2.93 2.93 0 0 0 0-4.1 2.95 2.95 0 0 0-3.68-.33 2.8 2.8 0 0 0-.78-.47 3.76 3.76 0 1 1 5.1 5.54"/><g fill="#000" clip-path="url(#f)"><path d="M114.95 287.7c-4.1.3-7.59.57-7.75.6-.46.09-.88.4-1.08.8l-.17.36.02 8.56.02 8.55.26.53c.15.29 1.15 1.66 2.24 3.07 2.16 2.78 2.32 2.93 3.14 3.01.23.03 2.02-.05 3.96-.17l6.93-.41c7.99-.48 7.58-.44 8.04-.83.57-.48.53.3.55-10.1.02-8.8.01-9.38-.12-9.65-.16-.3-.44-.52-4.08-3.06-2.43-1.7-2.6-1.79-3.7-1.8-.45-.02-4.17.22-8.26.53Zm9.22 1.11c.34.16 2.86 1.9 3.23 2.24.1.1.13.18.08.22-.12.1-15.7 1.02-16.15.96-.2-.04-.5-.16-.68-.27a20.7 20.7 0 0 1-2.49-2.03c0-.28-.05-.28 6.9-.78 1.32-.08 3.5-.25 4.83-.35 2.88-.23 3.74-.22 4.28.01Zm4.95 4.46c.11.12.21.34.25.55.02.2.04 3.84.02 8.1-.02 7.3-.03 7.76-.17 7.97a.83.83 0 0 1-.37.31c-.34.14-16.68 1.06-17.01.96a1.27 1.27 0 0 1-.49-.28l-.2-.21-.02-7.88c-.01-5.53 0-7.97.07-8.19a.85.85 0 0 1 .28-.42c.14-.1 1.11-.18 4.44-.38l8.03-.47c4.94-.3 4.92-.3 5.17-.06Z"/><path d="M124.73 295.97c-.88.06-1.67.14-1.76.19a.82.82 0 0 0-.47.63c-.02.26.06.3.94.4l.39.05v3.48a35 35 0 0 1-.07 3.4c-.05-.05-1.21-1.8-2.6-3.91a545.7 545.7 0 0 0-2.55-3.86c-.01-.02-.92.03-2 .1a12 12 0 0 0-2.2.25c-.24.13-.5.56-.5.84 0 .17.3.26.96.26h.35v10.01l-.56.18c-.44.13-.58.2-.66.37-.13.28-.12.53.01.53l2.04-.12c2.11-.12 2.35-.18 2.57-.61.07-.13.12-.27.12-.31a2 2 0 0 0-.63-.22l-.78-.17c-.14-.04-.14-.3-.14-3.8v-3.76l2.49 3.89c2.61 4.07 2.94 4.54 3.34 4.74.5.26 1.78.08 2.42-.33l.2-.13.01-5.55.02-5.57.44-.08c.52-.1.75-.34.75-.74 0-.26-.01-.28-.26-.27l-1.87.1Z"/></g><g clip-path="url(#g)"><path fill="#000" d="m166.25 307.15 4.2-3.22c2.24 2.92 4.62 4.26 7.26 4.26 2.63 0 4.93-1.33 7.07-4.22l4.26 3.15c-3.07 4.17-6.9 6.37-11.33 6.37-4.42 0-8.28-2.19-11.46-6.34Zm11.44-14-7.48 6.45-3.46-4.01 10.96-9.45 10.88 9.46-3.48 4-7.42-6.45Z"/></g><path fill="#000" d="M234.63 313.45a11.77 11.77 0 0 1-10.4-10.25 11.7 11.7 0 0 1 6.46-11.94 11.83 11.83 0 0 1 9.22-.51 11.8 11.8 0 0 1 7.45 8.55c.32 1.44.32 3.51 0 4.95a11.74 11.74 0 0 1-12.73 9.2Zm.72-10.56v-5.8l-1.57-.02c-1.8-.02-2.34.02-3.04.25a4.6 4.6 0 0 0-3.03 3.27 5.46 5.46 0 0 0-.05 2.18 4.73 4.73 0 0 0 3.09 3.46c.47.16.59.18 1.2.2l.69.02v-1.65l-.53-.02a2.8 2.8 0 0 1-2.02-.9 3.03 3.03 0 0 1 .8-4.8c.59-.28.83-.32 1.88-.32h.9v4.94c0 2.72.02 4.96.04 4.98.02.02.4.03.84.02l.8-.02v-5.8Zm4.87 3.5a4.71 4.71 0 0 0 3.6-2.78c.26-.66.34-1.06.34-1.86 0-.62-.02-.82-.11-1.18a4.7 4.7 0 0 0-4.3-3.5l-.67-.03.02.85.01.85.6.03c.63.03.88.1 1.3.36.64.38 1.1.94 1.34 1.58.15.4.19 1.36.07 1.82a2.89 2.89 0 0 1-1.53 1.9 4.1 4.1 0 0 1-2.05.36h-.78v-9.95h-1.71v11.6h1.77c.99 0 1.91-.02 2.1-.05Zm53.91-13.79a5.76 5.76 0 0 1 9.28 1.24 6.9 6.9 0 0 1 2.88-.62c1.81.12 3.52.94 4.77 2.3a7.36 7.36 0 0 1 0 9.97 7.14 7.14 0 0 1-4.77 2.3 7.1 7.1 0 0 1-1.4-.13 5.17 5.17 0 0 1-6.82 2.15 5.84 5.84 0 0 1-11-.28 5.44 5.44 0 0 1-5.04-1.54 5.6 5.6 0 0 1-1.59-3.96 5.73 5.73 0 0 1 2.73-4.9 6.55 6.55 0 0 1 1.36-7.18 6.34 6.34 0 0 1 9.6.65"/><path fill="#E2E2E2" d="M285.2 302.21c0 .06 0 .06.03.06l.18.13c.3.16.63.25.97.24.7 0 1.12-.37 1.12-.95 0-.53-.49-.74-.94-.87h-.06c-.33-.12-.6-.21-.6-.43 0-.21.15-.33.42-.33.3 0 .58.07.85.21 0 0 .09.03.09-.03s.12-.34.15-.37c.03-.03 0-.06-.03-.06a1.71 1.71 0 0 0-.97-.28h-.06c-.64 0-1.06.37-1.06.93 0 .58.48.77.9.89h.1c.3.1.6.18.6.43 0 .22-.18.37-.48.37a1.6 1.6 0 0 1-.88-.25l-.1-.06c-.02-.03-.08-.06-.08.03l-.15.37v-.03Zm9.9 0c-.03.06 0 .06 0 .06l.22.13c.3.16.63.25.97.24.7 0 1.09-.37 1.09-.95 0-.53-.46-.74-.91-.87h-.06c-.34-.12-.6-.21-.6-.43 0-.21.14-.33.42-.33a1.92 1.92 0 0 1 .87.22h.03l.02-.02.02-.02c.03-.13.08-.25.15-.37v-.06a1.71 1.71 0 0 0-.97-.28h-.1c-.6 0-1.02.37-1.02.93 0 .58.45.77.9.89h.06c.34.1.61.18.61.43 0 .22-.18.37-.45.37a1.6 1.6 0 0 1-.88-.25l-.12-.06c0-.03-.06-.03-.1.03l-.12.37-.03-.03Zm6.76-1.17c.02.28-.05.56-.18.8a.67.67 0 0 1-.55.29.66.66 0 0 1-.54-.29 1.5 1.5 0 0 1-.18-.8c-.02-.27.05-.54.18-.77a.66.66 0 0 1 1.09 0c.13.24.2.5.18.77Zm.58-.62a1.59 1.59 0 0 0-.28-.49 1.63 1.63 0 0 0-.42-.34c-.2-.07-.4-.11-.6-.12-.21 0-.42.05-.61.12-.17.08-.31.2-.43.34-.12.15-.2.32-.27.5-.12.4-.12.83 0 1.23.06.19.15.37.27.52.11.14.26.25.43.3.19.1.4.14.6.13.21 0 .42-.03.61-.12.16-.07.3-.17.42-.31.13-.15.22-.33.28-.52.08-.41.08-.83 0-1.24Zm4.63 1.6-.01-.02-.02-.01h-.06l-.24.07h-.33a.88.88 0 0 1-.64-.25 1.19 1.19 0 0 1-.24-.8c0-.26.07-.52.2-.74a.8.8 0 0 1 .65-.28l.6.07s.03.03.06-.04c.03-.06.1-.24.12-.4.03-.15 0-.06-.03-.06l-.36-.09h-.42c-.22 0-.44.05-.64.12a1.37 1.37 0 0 0-.73.84 2 2 0 0 0-.09.61c-.02.41.1.82.37 1.14a1.38 1.38 0 0 0 1.12.43 2 2 0 0 0 .78-.15s.06 0 .03-.06l-.12-.37Zm.97-1.29c.03-.16.08-.31.15-.46a.6.6 0 0 1 .55-.28.57.57 0 0 1 .55.28c.08.14.13.3.12.46h-1.37Zm1.91-.4a2.1 2.1 0 0 0-.24-.46c-.1-.11-.23-.2-.36-.28a1.4 1.4 0 0 0-.55-.12c-.22 0-.43.05-.64.12-.16.08-.3.2-.42.34a1.99 1.99 0 0 0-.27 1.76c.05.18.14.35.27.49.13.15.3.26.48.34.23.07.46.1.7.1.33 0 .67-.06.97-.2 0 0 .03-.02 0-.09l-.12-.37h-.06c-.25.12-.52.17-.79.16-.24 0-.48-.07-.67-.22a1.03 1.03 0 0 1-.2-.64h1.9a.06.06 0 0 0 .04-.02l.02-.02v-.03c.03-.27.01-.56-.06-.83v-.03Zm-17.2.43c.02-.16.07-.31.14-.46a.6.6 0 0 1 .55-.28.57.57 0 0 1 .54.28c.1.14.13.3.12.46h-1.36Zm1.9-.4a2.1 2.1 0 0 0-.24-.46 1.4 1.4 0 0 0-.37-.27 1.43 1.43 0 0 0-1.63.33 2.13 2.13 0 0 0-.24 1.75 1.3 1.3 0 0 0 .75.84c.23.07.46.1.7.1.33 0 .66-.06.97-.2 0 0 .03-.02 0-.08l-.12-.38h-.06c-.25.12-.52.17-.79.16-.24 0-.48-.07-.67-.22a1.02 1.02 0 0 1-.2-.64h1.9a.06.06 0 0 0 .06-.06c.03-.28.01-.56-.06-.84v-.03Zm-6.03 1.7-.12-.1a.64.64 0 0 1-.06-.27.44.44 0 0 1 .18-.37.68.68 0 0 1 .55-.13h.51v.9l-.51.06a.78.78 0 0 1-.55-.12v.03Zm.76-1.39h-.3a1.2 1.2 0 0 0-.46.06c-.15.03-.3.1-.42.19-.11.08-.2.19-.28.3-.06.15-.1.3-.09.47 0 .15.03.3.1.43.05.12.13.23.24.3.12.09.25.15.39.2h1.09l.49-.1.12-.06c.06 0 .03-.06.03-.06v-1.79a1.07 1.07 0 0 0-.3-.86 1.2 1.2 0 0 0-.88-.28l-.49.06a1.55 1.55 0 0 0-.63.23v.04h.02l.13.38c.03.06.06.03.06.03h.03c.26-.14.55-.21.84-.22a.7.7 0 0 1 .46.16c.12.06.15.18.15.46v.06h-.3Zm15.42-1.02a.1.1 0 0 0-.03-.06l-.33-.06a.96.96 0 0 0-.49.1l-.33.24v-.25c0-.01 0-.03-.02-.04a.06.06 0 0 0-.04-.02h-.49c-.01 0-.03 0-.04.02a.06.06 0 0 0-.02.05v2.89c0 .02 0 .03.02.04l.04.02h.52c.01 0 .03 0 .04-.02a.06.06 0 0 0 .02-.04v-1.48a1.23 1.23 0 0 1 .21-.8l.24-.12h.49c.03.03.03 0 .06-.03l.15-.44"/><path fill="#E2E2E2" d="m300.07 298.3-.18-.06h-.27c-.29-.02-.57.08-.79.28-.22.24-.36.56-.4.89v.12H298l-.02.02-.01.02v.02l-.1.4c0 .02 0 .04.02.05l.04.01h.43l-.43 2.44a2.27 2.27 0 0 1-.24.77l-.18.12h-.37l-.12-.06s-.03 0-.06.06c-.03.13-.09.25-.15.37v.05l.03.04.18.06h.28a.99.99 0 0 0 .84-.3c.1-.13.2-.28.25-.44.07-.2.12-.42.15-.64l.42-2.5h.64l.04-.01a.06.06 0 0 0 .02-.05l.09-.4v-.02l-.02-.02-.02-.01h-.66c.03 0 .03-.22.12-.44.04-.07.08-.15.13-.21l.18-.1h.42c.06.03.06 0 .06-.03l.15-.4c.03-.03 0-.06-.03-.06v.03Zm-8.54 4.19c0 .03 0 .06-.03.06h-.54l-.02-.02-.01-.02v-4.17l.01-.02.02-.01.02-.01h.52c.03 0 .03.03.03.06v4.13Z"/><path fill="#383838" d="M6.03 345.23H1.29v7.9h4.74v-7.9Z"/><path fill="#383838" d="M6.03 353.12H1.29v4.74h4.74v-4.74Z"/><path fill="#000" d="M18.66 340.5h-4.74v8.68h4.74v-8.69Z"/><path fill="#383838" d="M18.66 349.18h-4.74v8.68h4.74v-8.69ZM14 345.23v-4.74H6.1v4.74H14Z"/><path fill="#383838" d="M14 357.86v-4.74H6.1v4.74H14Z"/><path fill="#383838" d="m14.55 349.73 8.6 6.08a1.18 1.18 0 0 0 1.82-1.03v-11.13a1.18 1.18 0 0 0-1.82-1.03l-8.6 6.08a.64.64 0 0 0-.26.51.63.63 0 0 0 .26.52Z" opacity=".85"/><path fill="#383838" d="m1.29 345.23 4.74-4.74v4.74H1.29Zm77.06-.35 4.51-4.39h12.38a1.17 1.17 0 0 1 .82.34 1.12 1.12 0 0 1 .32.82v3.24H78.35Zm18.03 8.79-3.36 4.4H82.86v-4.4h13.52Z"/><path fill="#383838" d="M96.38 344.88H82.86v4.4h13.52v-4.4Z"/><path fill="#000" d="M82.86 344.88h-4.5v4.4h4.5v-4.4Zm13.52 4.4H82.86v4.39h13.52v-4.4Z"/><path fill="#383838" d="M82.86 349.28h-4.5v4.39h4.5v-4.4Z"/><path fill="#000" d="M78.35 353.67h4.51v4.4h-3.4c-.3 0-.57-.12-.78-.32-.21-.2-.33-.48-.33-.76v-3.32Z"/><path fill="#383838" d="M157.87 350.14a4.78 4.78 0 0 0 4.74-4.82 4.78 4.78 0 0 0-4.74-4.83 4.78 4.78 0 0 0-4.74 4.83 4.78 4.78 0 0 0 4.74 4.82Z"/><path fill="#383838" d="M162.3 353.74a4.1 4.1 0 0 0 4.08-4.14 4.1 4.1 0 0 0-4.07-4.15 4.1 4.1 0 0 0-4.07 4.15 4.1 4.1 0 0 0 4.07 4.14Z"/><path fill="#383838" d="M158.37 356.77a3.27 3.27 0 0 0 3.24-3.3c0-1.82-1.45-3.3-3.24-3.3a3.27 3.27 0 0 0-3.24 3.3c0 1.82 1.45 3.3 3.24 3.3Z"/><path fill="#383838" d="M158.7 344.06h-5.43a4.94 4.94 0 0 0 1.67 5.1 4.71 4.71 0 0 0 2.93 1.02h.4a3.2 3.2 0 0 0-2.25.99 3.31 3.31 0 0 0-.92 2.3v.27h3.6a.7.7 0 0 0 .47-.2c.12-.13.2-.3.2-.48v-8.32a.72.72 0 0 0-.2-.47.7.7 0 0 0-.47-.21Z" opacity=".1"/><path fill="#383838" d="M158.2 344.57h-5.03a4.87 4.87 0 0 0 2.19 4.9c.53.32 1.12.54 1.74.64l.77.07h.4a3.19 3.19 0 0 0-2.28 1.02 3.31 3.31 0 0 0-.79 3.05h3a.71.71 0 0 0 .67-.68v-8.32a.71.71 0 0 0-.67-.68Z" opacity=".2"/><path fill="#383838" d="M158.2 344.57h-5.03a4.87 4.87 0 0 0 2.19 4.9c.53.32 1.12.54 1.74.64l.77.07h.4c-.8.02-1.58.34-2.16.9a3.36 3.36 0 0 0-1.01 2.15h3.1a.7.7 0 0 0 .47-.2c.12-.13.2-.3.2-.47v-7.31a.71.71 0 0 0-.67-.68Z" opacity=".2"/><path fill="#383838" d="M157.7 344.57h-4.53a4.87 4.87 0 0 0 2.19 4.9c.53.32 1.12.54 1.74.64l.77.07h.4c-.8.02-1.58.34-2.16.9a3.36 3.36 0 0 0-1.01 2.15h2.6a.7.7 0 0 0 .47-.2c.12-.13.2-.3.2-.47v-7.31a.72.72 0 0 0-.2-.47.7.7 0 0 0-.47-.21Z" opacity=".2"/><path fill="#000" d="M151.03 344.57h6.67c.18 0 .35.07.47.2.13.13.2.3.2.48v6.8c0 .18-.07.35-.2.48a.7.7 0 0 1-.47.2h-6.67a.66.66 0 0 1-.47-.2.69.69 0 0 1-.2-.48v-6.8c0-.18.07-.35.2-.48s.3-.2.47-.2Z"/><path fill="#383838" d="M153.2 348.55a1.35 1.35 0 0 1-.43-.45c-.1-.19-.14-.4-.14-.6.01-.29.1-.56.27-.79a2 2 0 0 1 .7-.47c.73-.2 1.5-.19 2.24.03v.92l-.57-.24a2.12 2.12 0 0 0-.67-.07c-.24-.02-.48.03-.7.14a.44.44 0 0 0-.27.44.39.39 0 0 0 .1.27l.34.24.56.27h.1c.26.1.5.23.74.37.18.1.33.26.43.44.12.21.18.45.17.69.03.29-.06.58-.23.81-.19.21-.42.37-.67.48-.32.1-.64.14-.97.13l-.87-.07-.7-.2v-.99c.22.17.47.28.74.35.24.1.5.14.76.13.25.01.5-.05.7-.17a.4.4 0 0 0 .24-.4.45.45 0 0 0-.14-.35l-.36-.27-.7-.3-.67-.38v.04Zm68.86 1.92 6.19 6.19c.63.63 1.66.63 2.3 0l2.04-2.05c.63-.63.63-1.66 0-2.3l-6.19-6.19a1.62 1.62 0 0 0-2.3 0l-2.04 2.05a1.62 1.62 0 0 0 0 2.3Z"/><path fill="#383838" d="m236.64 341.64-10.53 10.54a1.62 1.62 0 0 0 0 2.3l2.24 2.23c.63.64 1.66.64 2.3 0l10.53-10.54c.63-.63.63-1.66 0-2.29l-2.24-2.24a1.62 1.62 0 0 0-2.3 0Zm68.09 4.64a2.54 2.54 0 1 0 0-5.07 2.54 2.54 0 0 0 0 5.07Z"/><path fill="#383838" d="M304.56 344.3h-2.26a2.53 2.53 0 0 0 2.98 1.84v-1.2a.72.72 0 0 0-.72-.65Z" opacity=".1"/><use xlink:href="#h" opacity=".2"/><path fill="#000" d="M310.42 346.42a1.88 1.88 0 1 0 0-3.77 1.88 1.88 0 0 0 0 3.77Zm1.64.58h-4.25a.34.34 0 0 0-.37.34v4.39a2.78 2.78 0 0 0 2.16 2.74 2.7 2.7 0 0 0 3.21-2.1c.03-.17.05-.36.04-.54v-4.04a.79.79 0 0 0-.79-.79Z"/><path fill="#383838" d="M309.08 347.79v5.14a4.36 4.36 0 0 1-8.36 1.64 3.28 3.28 0 0 1-.17-.55c-.1-.35-.14-.72-.13-1.1v-5.13a.78.78 0 0 1 .82-.79h7.02a.77.77 0 0 1 .76.48c.04.1.06.2.06.3Z"/><use xlink:href="#h" opacity=".2"/><path fill="#383838" d="M305.28 347v6.85a.69.69 0 0 1-.55.69h-4a3.28 3.28 0 0 1-.18-.55c-.1-.36-.14-.73-.13-1.1v-5.14a.78.78 0 0 1 .82-.78h4.04v.03Z" opacity=".1"/><path fill="#383838" d="M304.73 347v7.54a.72.72 0 0 1-.72.58H301a4.06 4.06 0 0 1-.58-2.2v-5.13a.78.78 0 0 1 .82-.79h3.5Z" opacity=".2"/><path fill="#383838" d="M304.73 347v6.3a.72.72 0 0 1-.72.72h-3.46c-.1-.35-.14-.72-.13-1.1v-5.13a.78.78 0 0 1 .82-.79h3.5Z" opacity=".2"/><path fill="#383838" d="M301.24 347a.77.77 0 0 0-.58.22.8.8 0 0 0-.25.57v5.14c0 .37.04.74.14 1.1h2.95a.74.74 0 0 0 .5-.21.74.74 0 0 0 .22-.52V347h-2.98Z" opacity=".2"/><path fill="#000" d="M296.27 344.8h7.2a.75.75 0 0 1 .75.73v7.23a.72.72 0 0 1-.76.72h-7.2a.71.71 0 0 1-.71-.72v-7.23a.72.72 0 0 1 .72-.72Z"/><path fill="#383838" d="M302.02 347.51h-1.6v4.36h-1.07v-4.36h-1.64v-1.06h4.31v1.06ZM6 402.86H1.02v-13.23l4.96 4.13v9.1Zm13.22 0h4.96v-13.23l-4.96 4.13v9.1Z"/><path fill="#000" d="M19.22 393.76v-5.79a2.56 2.56 0 0 1 2.48-2.48 2.48 2.48 0 0 1 2.48 2.48v1.66l-4.96 4.13Z"/><path fill="#383838" d="m6 393.76-4.97-4.13v-1.66a2.56 2.56 0 0 1 2.48-2.48 2.48 2.48 0 0 1 2.48 2.48v5.8Z"/><path fill="#383838" d="m19.22 393.76-6.61 4.96-6.62-4.96v-5.79l6.62 4.96 6.61-4.96v5.8Zm36.19-8.26h3.12v13.74h-4.35v-12.52a1.23 1.23 0 0 1 1.23-1.23Z"/><path fill="#000" d="M71.55 389.83H67.2v9.4h4.34v-9.4Z"/><path fill="#383838" d="M71.62 389.9h-4.34v-4.34h3.11a1.23 1.23 0 0 1 1.23 1.23v3.11Zm-13.1 9.34h-4.34v3.62h4.34v-3.62Zm10.86 2.17-2.17 1.45v-3.62h4.34l-2.17 2.17Z"/><path fill="#383838" d="M67.2 399.24h-8.67v3.62h8.68v-3.62Zm0-13.74h-8.67v3.61h8.68v-3.62Zm41.97 0 3.02 5.28 3.02-5.29h-6.04Zm6.8 12.07 3.02 5.29 3.02-5.29h-6.04Zm-14.35 0 3.02 5.29 3.02-5.29h-6.04Z"/><path fill="#383838" d="M101.62 397.57h6.04l4.53-6.8-3.02-5.28-7.55 12.08Zm10.58-6.79 3.77 6.8H122l-6.8-12.09"/><path fill="#383838" d="M104.64 402.86H119l-3.02-5.29h-8.3l-3.03 5.29Z"/><path fill="#000" d="m155.58 402.06 10.93-8.29a1652.7 1652.7 0 0 0-10.93-8.28v6.1c0 .04 0 .07.02.1.01.02.03.05.06.06l1.72 1.58.5.44-.08.07-2.14 1.93a.23.23 0 0 0-.06.08.26.26 0 0 0-.02.1v6.1Zm-3.65-11.57v6.57l3.63-3.29-3.63-3.28Z"/><path fill="#000" d="M155.58 402.06v-6.1a.24.24 0 0 1 .08-.2l2.14-1.92.08-.07-.5-.44-1.72-1.58a.14.14 0 0 1-.06-.06.18.18 0 0 1-.02-.1v-6.1c3.65 2.74 7.3 5.5 10.93 8.28l-10.93 8.29Zm42.56-16.56h2.2v14.02h-4V387.3a1.8 1.8 0 0 1 1.8-1.8Zm10.88 4.67h-4.67v9.35h4.67v-9.35Z"/><path fill="#000" d="M198.34 385.56v4.67h6v-4.67h-6Z"/><path fill="#383838" d="M209.02 399.52h-4.67v3.34h4.67v-3.34Zm-4.67 0h-4v3.34h4v-3.34Zm-8.02 0h4.01v3.34h-3a1 1 0 0 1-1-1v-2.34Zm8.02-14.02 4.67 4.67h-4.67v-4.68Z"/><g clip-path="url(#i)"><path fill="#000" fill-rule="evenodd" d="m239.02 386.87 9.97-2.01-.03 18-9.94-2.15v-13.84Zm3.54 9.34a4 4 0 0 1-.6-3.56c.5-1.67 1.77-2.23 2.84-1.85.6.22 1.15.76 1.44 1.57a4.04 4.04 0 0 1-.59 3.75c-.83 1.03-2.23 1.13-3.09.09Zm.78-.87a3.07 3.07 0 0 1-.3-2.23c.24-1.04.87-1.39 1.4-1.15.3.14.56.48.7.98a3.18 3.18 0 0 1-.3 2.34c-.4.65-1.08.71-1.5.06Zm6.3-6.69h5.8a.6.6 0 0 1 .58.62v.22l-4.55 3.19-.32.24c-.18.12-.2.1-.38-.02-.3-.16-.8-.52-1.13-.76v-3.49Zm6.38 2.25v6.45c0 .51-.4.94-.9.94h-5.47v-4.77c.32.23.76.53 1.03.7.22.14.26.2.5.05.11-.06.22-.15.3-.2l4.54-3.16Z" clip-rule="evenodd"/></g><path fill="#383838" d="m296.36 390.26 5.58 3.35 3.35-1.41c.68-.3 1.42-.45 2.16-.45h.37a8.37 8.37 0 0 0-15.07-2.53h.07c1.26 0 2.48.37 3.54 1.04Z"/><path fill="#000" d="M296.36 390.26a6.62 6.62 0 0 0-3.54-1h-.07a6.66 6.66 0 0 0-6.59 6.74 7.14 7.14 0 0 0 1.2 3.75l4.94-2.08 2.2-.93 4.91-2.05 2.53-1.08-5.58-3.35Zm11.46 1.54h-.37a5.19 5.19 0 0 0-2.16.44l-3.35 1.41.97.56 3.2 1.93 1.38.82 4.72 2.83a5.41 5.41 0 0 0-4.39-7.96v-.04Z"/><path fill="#383838" d="m307.49 396.93-1.38-.82-3.2-1.94-.97-.56-2.53 1.08-4.91 2.05-2.2.93-4.95 2.08a6.74 6.74 0 0 0 5.47 2.87h14.63a5.44 5.44 0 0 0 4.76-2.87l-4.72-2.82Z"/><defs><clipPath id="a"><path fill="#fff" d="M2 58h88.16v16.36H2z"/></clipPath><clipPath id="b"><path fill="#fff" d="M117.13 58h71.46v16.36h-71.46z"/></clipPath><clipPath id="c"><path fill="#fff" d="M237.16 148.83h15.5v15.5h-15.5z"/></clipPath><clipPath id="d"><path fill="#fff" d="M76.2 199.51h32.24v9.11H76.2z"/></clipPath><clipPath id="e"><path fill="#fff" d="M57.99 194.43h14.54v14.2H57.99z"/></clipPath><clipPath id="f"><path fill="#fff" d="M105.95 286.86h25.18v26.63h-25.18z"/></clipPath><clipPath id="g"><path fill="#fff" d="M163.97 286.14h27.35v27.35h-27.35z"/></clipPath><clipPath id="i"><path fill="#fff" d="M239.02 384.86h17v18h-17z"/></clipPath></defs></svg>