<svg xmlns="http://www.w3.org/2000/svg" width="350" height="262" fill="none"><g fill="#272727" clip-path="url(#a)"><path d="M32.5 16.1h-3.6l-.2.2v1.8l.2.1h1.4v2.2H29c-1 0-2.5-.3-2.5-3.4s1.5-3.5 3-3.5c1.2 0 1.7.2 2 .3.1 0 .2 0 .2-.2l.4-1.7c-.2-.2-1-.6-3.1-.6-2.4 0-4.8 1-4.8 5.8 0 4.9 2.8 5.6 5.1 5.6 2 0 3.2-.9 3.2-.9v-5.5l-.1-.2ZM51 11.8l-.2-.1h-2l-.2.1v3.9h-3.1v-3.9l-.2-.1h-2l-.2.1v10.5s0 .2.2.2h2l.2-.2v-4.5h3.1v4.5s0 .2.2.2h2l.2-.2V11.8Zm-14.7 1.4a1.3 1.3 0 1 0-2.6 0 1.3 1.3 0 0 0 2.6 0Zm-.2 6.8v-4.7L36 15h-2c-.1 0-.2 0-.2.2v6.9c0 .2.1.3.3.3h1.8c.2 0 .2-.1.2-.3V20Zm22.5-4.9h-2l-.1.2v5.1s-.5.4-1.3.4c-.7 0-.9-.4-.9-1v-4.5c0-.1 0-.2-.2-.2h-2s-.2 0-.2.2V20c0 2 1.2 2.6 2.8 2.6 1.4 0 2.4-.8 2.4-.8v.5h1.5l.2-.1v-7c0-.1 0-.2-.2-.2Zm5.5-.2a4 4 0 0 0-1.9.5v-3.6l-.2-.1h-2l-.2.1v10.5l.2.2h1.4l.2-.1v-.5s.9.8 2.4.8c1.9 0 3-1 3-4.2s-1.7-3.6-2.9-3.6Zm-.8 5.9c-.7 0-1.1-.4-1.1-.4v-3.3s.4-.3 1-.3c.7 0 1.4.1 1.4 1.8 0 1.8-.3 2.2-1.3 2.2ZM42 15h-1.6v-1.9l-.1-.1h-2l-.2.1v2l-1 .3c-.2 0-.2.1-.2.2v1.3l.2.1h1v3.1c0 2.3 1.7 2.6 2.7 2.6l1.3-.2v-1.6l-.1-.2h-.6c-.7 0-1-.3-1-.7v-3H42l.2-.1v-1.6c0-.1 0-.2-.2-.2Z"/></g><g fill="#272727" clip-path="url(#b)"><path d="M9.6 4.2a9.6 9.6 0 0 0-3 18.8c.5 0 .6-.2.6-.5v-1.8c-2.7.6-3.2-1.1-3.2-1.1-.5-1.1-1-1.4-1-1.4-1-.6 0-.6 0-.6 1 0 1.4 1 1.4 1 1 1.4 2.3 1 2.8.8.1-.6.4-1 .7-1.3-2.2-.3-4.4-1-4.4-4.8a4 4 0 0 1 1-2.6c-.1-.2-.5-1.2 0-2.5 0 0 .9-.3 2.7 1a9.2 9.2 0 0 1 4.8 0c1.9-1.3 2.7-1 2.7-1 .5 1.3.2 2.3 0 2.5.7.7 1 1.6 1 2.6 0 3.7-2.2 4.5-4.3 4.8.3.3.6.9.6 1.8v2.6c0 .3.2.6.7.5a9.6 9.6 0 0 0-3-18.8Z"/><path d="M3.6 18h-.2v-.2h.1l.1.1Zm.5.3h-.2s-.1-.2 0-.2H4c.1.1.1.2 0 .2m.4.6-.2-.1v-.2h.2v.3m.5.6h-.2v-.3h.2v.3Zm.8.2-.3.1c-.1 0-.2-.1-.1-.2 0 0 0-.1.2 0l.2.1Zm.8.1-.2.2c-.2 0-.3-.1-.3-.2l.3-.1.2.1Zm.8 0L7 20l-.3-.1.2-.2h.3Z"/></g><path fill="#272727" d="M101.5 10h1.6c1 0 2 .2 2 1.4 0 1-.7 1.6-2.5 1.6H101l.6-3Zm-6.8 11h4.5l1-4.5h3c3.8 0 6.4-2.5 6.4-5.5 0-3.2-1.8-4.7-4.5-4.7h-7.3l-3 14.7Zm20.4-9.7.5 4.4h-2.8l2.3-4.4Zm-9.7 9.7h4.6l1.1-2.1h4.8l.3 2h4.4l-2.2-14.6h-4.5L105.4 21Zm19.9-9.3 3.6-5.4h5.3l-7.2 9.2-1 5.5h-4.5l1.1-5.4-3.2-9.3h4.6l1.4 5.4Zm19.7 3.7c-.3 1.5-1.4 6-7.6 6-4.2 0-6.3-2.9-6.3-6.8 0-4.8 3-8.7 8-8.7 3.3 0 6.2 1.4 6.3 5.8h-4.3c0-1.4-.6-2.2-2-2.2-2.5 0-3.4 3-3.4 5 0 1.2.3 3.1 2.4 3.1 1.4 0 2.2-1 2.5-2.3h4.4Zm2.6-9.1h4.6l-1.1 5h4.1l1.1-5h4.6L157.8 21h-4.5l1.2-5.9h-4.2l-1.2 5.9h-4.5l3-14.7Zm14.5 0h12.1l-.7 3.8h-7.7l-.4 1.8h7.1l-.7 3.5h-7l-.5 1.8h7.8l-.7 3.8H159l3-14.7Z"/><path fill="#272727" d="m177.4 13.2-3.4-7h5l1.4 3.9 2.9-3.8h5.4l-6.2 6.9 3.6 7.8h-5l-1.7-4.1-3.4 4h-5.6l7-7.7Zm42.9 4.8v3.4c0 1.3-1.4 1.3-1.4 1.3s-1.4 0-1.4-1.3V18s-.1-.6-1-.6v4a2.2 2.2 0 0 0 2.4 2 2.2 2.2 0 0 0 2.3-2v-4c-.8 0-.9.6-.9.6Zm20.1 0v3.4c0 1.3-1.5 1.3-1.5 1.3s-1.4 0-1.4-1.3V18s0-.6-.9-.6v4a2.3 2.3 0 0 0 4.6 0v-4c-.8 0-.8.6-.8.6Zm-11.3 3.5v-4c-.8 0-.8.5-.8.5v5.4h.8v-2Zm14.6 0v-4c-.9 0-1 .5-1 .5v5.4h1v-2Zm6.8 0v-4c-.9 0-1 .5-1 .5v5.4h1v-2Zm-25.4 1.2h-1.5v-2h1.6c.1 0 .8.1.8 1a1 1 0 0 1-.9 1Zm-1.5-4.5h1.3a.8.8 0 0 1 .8.6l.1.3c0 .8-.9.9-.9.9h-1.3v-1.8Zm2.2 2.1a1.5 1.5 0 0 0 .9-1.3c0-1-.9-1.6-1.7-1.6h-2.3v6h2.9s1.2-.3 1.2-1.5c0-1-.6-1.6-1-1.6Zm7 2.4c-1.1 0-1.7-1-1.7-2.2 0-1.3.6-2.3 1.7-2.3 1.2 0 1.8 1 1.8 2.3 0 1.2-.6 2.2-1.8 2.2Zm2.8 0h-1c.5-.6.8-1.4.8-2.2 0-1.3-.5-3-2.6-3 0 0-2.4-.2-2.6 3-.1 3 2.6 2.9 2.6 2.9h3.4s0-.8-.6-.8Zm13.2-4.5h-4.3v-.8h4.3v.8Z"/><path fill="#272727" d="M247.1 17.4v6h-.8v-6h.8Z"/><path fill="#272727" fill-rule="evenodd" d="M228.1 1h-.8V0h.8v1Zm1.7 4.4h-.8v-.9h.8v1Zm0-2.7h-.8v-1h.8v1Zm.9-.9h-.9V.9h.9v.9Zm0 2.3h-.9v-.8h.9V4Zm.8-1.1h-.8v-.8h.8v.9Z" clip-rule="evenodd"/><path fill="#272727" fill-rule="evenodd" d="M227.3 2.4h.8V7h.8v-.8h.9v1.9h.9V5h.8v6.4a5.3 5.3 0 0 0 2.6 4c-2.5 0-6.8-1.1-6.8-6.2v-7Zm9.2 10s3.4-.2 4.4-4.7V.2s-4.2-.5-4.2 2.7l-.2 9.5Z" clip-rule="evenodd"/><path fill="#272727" d="M216.8 25.2h.3l.8 1.3v-1.3h.3V27h-.3l-.8-1.3V27h-.3v-1.8Zm4.6 0h1.3v.3h-1v.5h1v.2h-1v.5h1v.3h-1.3v-1.8Zm4.3 0h1.4v.3h-.5V27h-.3v-1.5h-.6v-.3Zm4.5 0h.3l.3 1.4.3-1.4h.3l.4 1.4.3-1.4h.3L232 27h-.3l-.3-1.4-.4 1.4h-.3l-.4-1.8Zm5.4.8c0 .4.2.7.5.7.4 0 .6-.3.6-.6s-.2-.7-.6-.7c-.3 0-.5.4-.5.7Zm1.4 0a.9.9 0 0 1-.9 1 .9.9 0 0 1-.6-1.6.9.9 0 0 1 1-.1.9.9 0 0 1 .5.8Zm3.5 0h.5a.3.3 0 0 0 .2 0 .3.3 0 0 0 .1-.3c0-.2-.2-.2-.3-.2h-.5v.5Zm-.3-.8h.8c.4 0 .6.2.6.5a.4.4 0 0 1-.3.4.3.3 0 0 1 .3.4v.5h-.3v-.3c0-.3 0-.4-.4-.4h-.4v.7h-.3v-1.8Zm4.6 0h.3v.8l.7-.8h.4l-.7.7.8 1h-.4l-.6-.8-.2.3v.6h-.3v-1.8Zm4.6 1.2c0 .3.2.4.5.4.2 0 .4-.2.4-.3v-.1l-.2-.1-.5-.2a.4.4 0 0 1-.4-.4c0-.4.3-.5.7-.5.3 0 .6.2.6.5h-.3c0-.2-.1-.3-.4-.3-.2 0-.3 0-.3.2s.1.2.2.3l.5.1a.4.4 0 0 1 .4.5c0 .4-.4.5-.7.5-.3 0-.8-.2-.8-.6h.3Zm85.1-6.2c-.6-.7-.9-1.6-.9-2.8 0-1.3.3-2.2.9-3a3 3 0 0 1 2.3-1c1 0 1.8.4 2.4 1 .5.8.8 1.7.8 3 0 1.2-.3 2.1-.8 2.8-.6.7-1.4 1-2.4 1s-1.7-.3-2.3-1ZM330 9.7h14v15h-14v-3.3l.4-1.2V20l-.4-3.4V9.7Zm.9 7.7a6 6 0 0 0 3.6 5.7 6 6 0 0 0 2.2.3c.8 0 1.6-.1 2.3-.4a5.7 5.7 0 0 0 3.1-3.2 6.4 6.4 0 0 0 0-4.8 6 6 0 0 0-3.1-3.3c-.7-.3-1.5-.4-2.3-.4a5.6 5.6 0 0 0-4 1.7c-.7.5-1 1.2-1.4 2a6 6 0 0 0-.4 2.4Zm14-8V24l1.2-1.2V8L345 9.4ZM332 7.2l-1.4 1.5h13.6l1.3-1.5H332Zm-5.6 1.2.9-2.4-13.6 1.8-.2.6.4 1.7 12.5-1.7Zm.9.5.7 4.7 1 7.4.4-1L328 7.5l-.5 1.4ZM313 12.1l.3.2-5.5 12.3-12.1-5.4 5.5-12.4 11.8 5.3Zm-2.6 3.1a6.1 6.1 0 0 0-1.6-4c-.5-.6-1.1-1-1.9-1.3-.7-.3-1.4-.5-2.2-.5a6 6 0 0 0-4.2 1.9 7 7 0 0 0-1.4 2.1 7 7 0 0 0-.6 2.8c0 .7.2 1.4.4 2.1a5.3 5.3 0 0 0 3 3.2c.8.3 1.5.4 2.3.4.7 0 1.5-.1 2.2-.4.8-.4 1.4-.8 2-1.4a7 7 0 0 0 1.4-2.2 7 7 0 0 0 .6-2.7Zm16.9.9 1 6.6-13.5 1.9-1.5-10 1-2.4.1-.3-.2-.8 12.2-1.7.9 6.7Zm-1.5 5.5v-.4l-1.5-9.6c0-.4-.2-.8-.4-1a1 1 0 0 0-.8-.3 1.5 1.5 0 0 0-.7.2l-.3.4c-.2.2-.2.4-.2.7v.3l.5 3.7-4.1.7-.6-3.7c0-.4-.2-.8-.4-1a1 1 0 0 0-.7-.3h-.2a1.2 1.2 0 0 0-1 .5l-.1.8v.3l1.4 9.6c.1.5.3.8.5 1 .2.2.5.3.8.3h.2a1 1 0 0 0 .8-.5l.2-.8v-.3l-.6-3.8 4.1-.6.6 3.8c0 .4.2.7.5 1l.7.2a1.5 1.5 0 0 0 .7-.1l.4-.4.2-.7ZM313.3 11l-.8-3-12-5.5 1 3.2 11.8 5.3Zm-12.8-5-1-3-4.2 10 .5 3.5L300.5 6Zm5.5 6c-.3-.2-.8-.3-1.2-.3-.5 0-1 .1-1.3.3-.8.5-1.5 1.3-2 2.5-.3.6-.4 1.3-.5 2 0 .4 0 .7.2 1 .2.9.8 1.5 1.7 1.9.4.2.8.2 1.2.2.5 0 1 0 1.3-.3.8-.4 1.5-1.2 2-2.4a8 8 0 0 0 .5-2.1l-.1-1A3 3 0 0 0 306 12Zm-13.6.9 1.5 9.5-13.4 2.1-2.2-13 11-1.7 2.6-.4.5 3.5Zm-1.4 8.5V21a1 1 0 0 0-.3-.5 1 1 0 0 0-.4-.3h-1.6l-3.8.7c0-.3.2-.7.5-1.2l1.2-1.9.5-.5a14.6 14.6 0 0 0 1.9-3.2 5.8 5.8 0 0 0 .1-2.5c0-.2 0-.4-.2-.6a1 1 0 0 0-.3-.4l-.7-.2-.8.1-4.4.8c-.5 0-1 .2-1.2.5a1 1 0 0 0-.3.7v.2c.1.4.3.6.6.8h1.4l3.7-.6c0 .3 0 .6-.2.9 0 .3-.3.7-.8 1.3l-.5.7c-1 1.1-1.7 2.2-2.2 3a6.6 6.6 0 0 0-.7 2.7v.6c0 .3.2.5.3.7 0 .2.2.3.3.4l.7.2 1.5-.2 4-.7c.7-.1 1.2-.3 1.4-.5a1 1 0 0 0 .4-.7Zm2-12.9-.1.4 1.7 11 .4-2-1.7-11.2-.3 1.9Zm-.3-4.2-13.4 2.2-.8 4 13.5-2 .7-4.1Z"/><path fill="#272727" fill-rule="evenodd" d="m20.5 57.4.7-1.8c1 .7 2 1 3.2 1 .8 0 1.3-.3 1.3-.8 0-1.3-5-.3-5-3.6 0-1.7 1.5-3 3.7-3 1.3 0 2.6.3 3.5 1l-.7 1.9c-.9-.6-1.9-.9-3-1-.6 0-1 .4-1 .8 0 1.3 5 .6 5 3.7 0 1.7-1.5 3-3.6 3a7 7 0 0 1-4.1-1.2ZM50.7 55a2.3 2.3 0 0 1-3.5.5c-.5-.5-.7-1-.7-1.6a2.2 2.2 0 0 1 .6-1.6 2.3 2.3 0 0 1 1.6-.7 2.4 2.4 0 0 1 2 1.2l2.2-1.2a4.9 4.9 0 0 0-8-.6 4.6 4.6 0 0 0 0 5.8 4.8 4.8 0 0 0 5.7 1.4c1-.4 1.8-1.1 2.3-2L50.7 55Zm-21.4-9.7H32v13h-2.7v-13Zm24.7 0v13h2.7v-3.8l3.2 3.9h3.5l-4.1-4.6 3.8-4.4h-3.3l-3 3.6v-7.7H54Z" clip-rule="evenodd"/><path fill="#272727" d="M40 55a2.5 2.5 0 0 1-2 1.1c-.6 0-1.2-.2-1.6-.6-.4-.5-.7-1-.7-1.6a2.2 2.2 0 0 1 .7-1.6 2.3 2.3 0 0 1 1.6-.7 2.5 2.5 0 0 1 2 1.2V55Zm0-5.6v1c-.4-.7-1.5-1.2-2.6-1.2-2.4 0-4.3 2-4.3 4.7 0 2.5 2 4.7 4.3 4.7 1.1 0 2.2-.5 2.7-1.3v1h2.7v-8.9h-2.7Z"/><path fill="#272727" fill-rule="evenodd" d="M3.7 55c0 .4-.2.8-.6 1.2-.3.3-.7.4-1.1.5-.5 0-1-.2-1.2-.5A2 2 0 0 1 .3 55c0-.4.2-.9.5-1.2.3-.3.7-.4 1.2-.4h1.7V55Zm.8 0c0-.4.2-.8.5-1a1.7 1.7 0 0 1 2.3 0c.3.2.5.6.5 1v4c0 .4-.2.8-.5 1A1.7 1.7 0 0 1 5 60c-.3-.2-.5-.6-.5-1v-4Zm1.7-6.6a1.7 1.7 0 0 1-1.2-.5 1.6 1.6 0 0 1-.5-1.1 1.6 1.6 0 0 1 .4-1.4 1.7 1.7 0 0 1 1.3-.6 1.7 1.7 0 0 1 1.2.6 1.7 1.7 0 0 1 .4 1.4v1.6H6.2Zm0 .8c.4 0 .7.3 1 .6a1.6 1.6 0 0 1 0 2.2c-.3.3-.6.5-1 .5H2a1.7 1.7 0 0 1-1.4-.4A1.7 1.7 0 0 1 0 51a1.6 1.6 0 0 1 .6-1.3 1.7 1.7 0 0 1 1.4-.4h4.2Zm6.7 1.7c0-.5.2-.9.5-1.2.3-.3.7-.5 1.2-.5.4 0 .8.3 1 .6a1.6 1.6 0 0 1 0 2.2c-.2.3-.6.5-1 .5h-1.7V51Zm-.8 0c0 .4-.2.8-.6 1.1a1.7 1.7 0 0 1-2.3 0c-.3-.3-.5-.7-.5-1.1v-4.1a1.7 1.7 0 0 1 1.7-1.7c.4 0 .8.2 1.2.5.3.3.5.7.5 1.2v4Zm-1.7 6.5c.4 0 .8.2 1.2.5.3.4.5.8.5 1.2 0 .5-.2.9-.6 1.2a1.7 1.7 0 0 1-2.3 0c-.3-.3-.5-.8-.5-1.2v-1.7h1.7Zm0-.7c-.5 0-1-.2-1.2-.5a2 2 0 0 1-.5-1.2c0-.4.2-.9.5-1.2.3-.3.7-.4 1.2-.4h4.2c.4 0 .8.1 1.2.4a1.6 1.6 0 0 1 0 2.4 3 3 0 0 1-1.2.5h-4.2Z" clip-rule="evenodd"/><path fill="#272727" d="M130 60.6c-1 .7-2.5 1-4.1 1-5.2 0-8.1-3.2-8.1-8.3 0-5.2 2.9-8.4 8-8.4 1.5 0 3 .2 4.2 1.1v2.2a6.9 6.9 0 0 0-4.2-1.2c-3.6 0-5.9 2.5-5.9 6.3 0 3.7 2.3 6.2 6 6.2 1.4 0 2.8-.4 4-1l.1 2.1Zm1.5-5.5c0-3.7 2.1-6.4 5.7-6.4s5.6 2.7 5.6 6.4-2 6.5-5.6 6.5c-3.6 0-5.7-2.8-5.7-6.5Zm2 0c0 2.4 1.1 4.5 3.7 4.5 2.5 0 3.6-2.1 3.6-4.5 0-2.3-1-4.4-3.6-4.4s-3.7 2.1-3.7 4.4Zm21.9 6.3h-2.1v-7.5c0-2.3-.8-3.2-2.8-3.2-2 0-3.2 1.3-3.2 3.8v6.9h-2V49h2v2c.4-.7 1-1.3 1.6-1.7a4 4 0 0 1 2.2-.6c2.7 0 4.3 2 4.3 5.4v7.3ZM161 49h3v2h-3v10.4h-2V50.9h-2V49h2v-1.4c0-2.3 1.3-3.8 3.8-3.8.5 0 1 0 1.4.2v2l-1.3-.2c-1.3 0-2 .8-2 1.9V49Zm8.5 12.4c-2 0-3.2-1-3.2-3.2V43.8h2v14.1c0 1.2.8 1.5 1.6 1.5h.6v2h-1Zm2.8-12.4h2v7.5c0 2.2.9 3.2 2.8 3.2 2 0 3.3-1.3 3.3-3.8V49h2v12.4h-2v-2a6 6 0 0 1-1.6 1.6 4 4 0 0 1-2.2.6c-2.8 0-4.3-2-4.3-5.3V49Zm19 12.6c-4.6 0-6.5-2.7-6.5-6.5s2-6.4 5.6-6.4c3.6 0 5.2 2.7 5.2 6.4v1H187c.3 2 1.6 3.5 4.4 3.5a11 11 0 0 0 3.6-.7v2c-1.1.5-2.4.8-3.7.7Zm-4.5-7.3h6.7c0-2.3-1.1-3.6-3.1-3.6s-3.4 1.4-3.6 3.6Zm21.4 7h-2V54c0-2.3-1-3.2-2.9-3.2s-3.2 1.3-3.2 3.8v6.9h-2V49h2v2c.4-.7 1-1.3 1.6-1.7a4 4 0 0 1 2.1-.6c2.8 0 4.4 2 4.4 5.4v7.3Zm11.3-.3a8 8 0 0 1-3 .6c-4.2 0-6.2-2.7-6.2-6.5s2-6.4 6.2-6.4c1 0 2 .2 2.9.6v2c-.9-.4-1.8-.6-2.7-.6-3.1 0-4.4 2-4.4 4.4 0 2.5 1.3 4.5 4.4 4.5 1 0 1.9-.2 2.7-.5v2Zm8 .6c-4.4 0-6.4-2.7-6.4-6.5s2-6.4 5.7-6.4c3.6 0 5 2.7 5 6.4v1h-8.6c.3 2 1.6 3.5 4.4 3.5 1.2 0 2.4-.3 3.6-.7v2c-1.2.5-2.4.8-3.7.7Zm-4.3-7.3h6.6c-.1-2.3-1.1-3.6-3.2-3.6-2 0-3.2 1.4-3.4 3.6ZM94.1 57.7l-.5 1a.6.6 0 0 0 .1.7l3.6 2.2a.6.6 0 0 0 .7-.1l.6-.9c1.4-2.4 2.8-2 5.3-.8l3.5 1.7h.4l.3-.3 1.7-4v-.4l-.2-.3-3.6-1.7c-4.7-2.4-8.8-2.2-11.9 3Z"/><path fill="#272727" d="m110 48.7.5-.9a.6.6 0 0 0-.2-.7l-3.5-2.3a.5.5 0 0 0-.4 0 .5.5 0 0 0-.4.2l-.5.9c-1.4 2.4-2.8 2-5.3.9L96.7 45h-.5l-.3.3-1.6 4a.5.5 0 0 0 0 .6h.2l3.6 1.9c4.7 2.3 8.8 2.2 11.9-3Zm186.9 1.6h2.9c-.5-3-3.2-5.1-6.6-5.1-4 0-7.2 3-7.2 8 0 4.8 3 7.9 7.3 7.9 3.8 0 6.6-2.5 6.6-6.5v-1.8h-6.3V55h3.6c0 2.2-1.6 3.6-4 3.6-2.5 0-4.3-2-4.3-5.5s1.8-5.4 4.3-5.4c1.9 0 3.2 1 3.7 2.6Zm4.9 10.6h2.7V49.3h-2.7v11.6Zm1.4-13.5c.9 0 1.6-.6 1.6-1.4 0-.9-.7-1.5-1.6-1.5-.9 0-1.6.6-1.6 1.5 0 .8.7 1.4 1.6 1.4Zm9.6 1.9h-2.3v-2.8h-2.8v2.8h-1.6v2.1h1.6v6.4c0 2.2 1.6 3.3 3.7 3.2.5 0 1 0 1.6-.2l-.5-2.2-.8.1c-.7 0-1.2-.2-1.2-1.3v-6h2.3v-2.1Zm2.2 11.6h9.6v-2.4h-6.8v-13h-2.9v15.4Zm14.9.2c1.8 0 3-.8 3.4-1.8h.1v1.6h2.7V53c0-3-2.6-4-4.8-4-2.4 0-4.3 1.1-5 3.2l2.6.4c.3-.8 1-1.5 2.4-1.5 1.3 0 2 .7 2 1.8 0 .8-.8.9-2.9 1-2.2.3-4.4 1-4.4 3.6 0 2.3 1.7 3.5 3.9 3.5Zm.9-2c-1.2 0-2-.5-2-1.5s1-1.5 2.2-1.7c.7 0 2.1-.3 2.5-.6v1.4c0 1.3-1 2.4-2.7 2.4Zm7.3 1.8h2.7V59h.2c.4.9 1.3 2 3.3 2 2.8 0 4.8-2 4.8-6 0-3.8-2-5.9-4.8-5.9-2 0-3 1.3-3.3 2h-.1v-5.7H338V61Zm2.7-5.8c0-2.3 1-3.7 2.7-3.7 1.9 0 2.8 1.5 2.8 3.7 0 2.1-1 3.7-2.8 3.7-1.7 0-2.7-1.5-2.7-3.7Z"/><path fill="#949494" d="m280.9 50.7-2.8-7-.2-.3a.7.7 0 0 0-1 .4l-1.9 5.5h-7.3l-1.8-5.5a.7.7 0 0 0-1-.4c-.2 0-.3.2-.4.3l-2.6 7a4.9 4.9 0 0 0 1.6 5.7l4 3 2.1 1.6 1.2.9a.8.8 0 0 0 1 0l1.3-1 2-1.4 4-3 .1-.1a5 5 0 0 0 1.7-5.7Z"/><path fill="#272727" d="M280.9 50.7a9 9 0 0 0-3.7 1.5l-5.9 4.5 3.8 2.8 4-3 .1-.1a5 5 0 0 0 1.7-5.7Z"/><path fill="#949494" d="m267.6 59.5 2 1.5 1.2.9a.8.8 0 0 0 1 0l1.3-1 2-1.4-3.8-2.8-3.7 2.8Z"/><path fill="#272727" d="M265.5 52.2a9 9 0 0 0-3.6-1.6v.1a4.9 4.9 0 0 0 1.6 5.7l4 3 3.8-2.7-5.8-4.5ZM9.4 87.4l-4.6 2.8 4.6 2.7-4.6 2.7-4.5-2.8 4.5-2.7-4.5-2.7 4.5-2.7 4.6 2.7Zm-4.6 9 4.6-2.7 4.5 2.7-4.5 2.7-4.6-2.7Zm4.6-3.6 4.5-2.7-4.5-2.7 4.5-2.7 4.6 2.7-4.6 2.8 4.6 2.7-4.6 2.7-4.5-2.8ZM22 87.4h3.7c2.4 0 4.3 1.3 4.3 4.2v.6c0 2.9-1.8 4.2-4.2 4.2H22v-9Zm2.1 1.7v5.7h1.6c1.3 0 2.2-.8 2.2-2.7v-.4c0-1.8-1-2.6-2.3-2.6h-1.5Zm7 0h1.7L33 91c.4-1.2 1.1-1.8 2.6-1.8h.5v2h-.9c-1.6 0-2 .5-2 2v3.3h-2v-7.2Zm5.4 3.8v-.1c0-2.5 1.7-3.8 4-3.8 2.2 0 4 1.3 4 3.8v.1c0 2.4-1.7 3.7-4 3.7-2.4 0-4-1.3-4-3.7Zm5.8 0v-.1c0-1.4-.7-2.2-1.9-2.2-1.1 0-1.9.7-1.9 2.2v.1c0 1.3.8 2 2 2 1 0 1.8-.7 1.8-2Zm3.2-3.7h1.7l.2 1.3c.2-.4.5-.8 1-1.1.5-.3 1-.4 1.5-.4 2 0 3.3 1.3 3.3 3.8v.2c0 2.3-1.4 3.6-3.3 3.6-1.2 0-2-.5-2.4-1.3v3.6h-2v-9.7Zm5.7 3.7v-.1c0-1.5-.8-2.2-1.9-2.2-1 0-1.9.8-1.9 2.2v.1c0 1.3.8 2 1.9 2 1.1 0 1.9-.6 1.9-2Zm5 2.2-.1 1.3h-1.8v-9.7h2v3.8c.4-1 1.3-1.5 2.6-1.5 1.8 0 3.2 1.2 3.2 3.6v.2c0 2.4-1.3 3.8-3.3 3.8-1.3 0-2.1-.6-2.6-1.5Zm3.8-2.3v-.2c0-1.3-.7-2-1.8-2s-2 .8-2 2v.2c0 1.4.8 2.2 2 2.2 1 0 1.8-.7 1.8-2.2Zm3 .1v-.1c0-2.5 1.7-3.8 4-3.8 2.2 0 3.9 1.3 3.9 3.8v.1c0 2.4-1.6 3.7-4 3.7-2.3 0-4-1.3-4-3.7Zm5.8 0v-.1c0-1.4-.7-2.2-1.9-2.2-1.1 0-1.8.7-1.8 2.2v.1c0 1.3.7 2 1.8 2 1.2 0 2-.7 2-2Zm4.8-.3-2.8-3.4h2.4l1.6 2.2 1.5-2.2h2.4l-2.8 3.4 3 3.8h-2.4L74.7 94 73 96.4h-2.4l3-3.8Zm63.9-11.5A6.8 6.8 0 0 1 146 80c1 .6 2 1.5 2.5 2.6 1-.5 2.2-.8 3.4-.8a8.4 8.4 0 0 1 0 16.9l-1.6-.1a6.2 6.2 0 0 1-8 2.4 7 7 0 0 1-13-.3l-1.3.2a6.5 6.5 0 0 1-6.4-6.5 6.6 6.6 0 0 1 3.2-5.7 7.7 7.7 0 0 1 1.6-8.3 7.5 7.5 0 0 1 11.2.7"/><path fill="#EEE" d="M127 92.2v.1l.3.2c.3.2.7.3 1.1.2.9 0 1.4-.4 1.4-1 0-.7-.6-1-1.2-1-.4-.2-.7-.3-.7-.6 0-.2.1-.3.5-.3.3 0 .7 0 1 .2l.2-.5a2 2 0 0 0-1.1-.3h-.1c-.7 0-1.2.4-1.2 1 0 .7.5 1 1 1h.1c.4.2.7.3.7.6 0 .2-.2.4-.5.4a2 2 0 0 1-1-.3h-.2c0-.1 0-.1 0 0l-.3.4Zm11.7 0v.1l.2.2c.4.2.8.3 1.2.2.8 0 1.3-.4 1.3-1 0-.7-.6-1-1.1-1-.5-.2-.8-.3-.8-.6 0-.2.2-.3.5-.3a2.3 2.3 0 0 1 1 .2h.1l.2-.5a2 2 0 0 0-1.2-.3c-.8 0-1.3.4-1.3 1 0 .7.6 1 1 1h.2c.4.2.7.3.7.6 0 .2-.2.4-.6.4a2 2 0 0 1-1-.3h-.1c0-.1-.1-.1-.1 0l-.2.4Zm8-1.3-.3 1a.8.8 0 0 1-1.3 0l-.2-1c0-.3 0-.6.2-.9a.8.8 0 0 1 .7-.3.8.8 0 0 1 .6.3c.2.3.2.6.2.9Zm.6-.7-.3-.6-.5-.4-.7-.1-.7.1-.5.4-.4.6v1.4l.4.6c0 .2.3.3.5.4l.7.1a1.6 1.6 0 0 0 1.2-.5l.3-.6v-1.4Zm5.4 1.8h-.7a1 1 0 0 1-.8-.2c-.2-.3-.3-.6-.3-1l.3-.8a1 1 0 0 1 .7-.3h.8l.1-.4v-.1l-.4-.1h-.5l-.8.1-.5.4-.3.6-.1.7c0 .5.1 1 .4 1.3a1.6 1.6 0 0 0 1.3.5c.3 0 .7 0 1-.2l-.2-.5Zm1.2-1.5c0-.1 0-.3.2-.5a.7.7 0 0 1 .6-.3.7.7 0 0 1 .6.3l.2.5h-1.6Zm2.2-.4-.3-.6-.4-.3-.6-.1-.8.1-.5.4a2 2 0 0 0-.3.6v1.4a1.5 1.5 0 0 0 .9 1l.8.1c.4 0 .8 0 1.1-.2v-.1l-.1-.4a2 2 0 0 1-1 .1c-.3 0-.6 0-.8-.2l-.2-.8h2.2v-1Zm-20.2.5.2-.6a.7.7 0 0 1 .6-.3.7.7 0 0 1 .7.3l.1.6H136Zm2.2-.5-.2-.5c-.2-.2-.3-.3-.5-.3a1.7 1.7 0 0 0-1.9.3l-.3.7v1.4a1.5 1.5 0 0 0 1 1h.7c.4 0 .8 0 1.2-.2l-.2-.5a2 2 0 0 1-1 .2 1 1 0 0 1-.7-.3 1 1 0 0 1-.3-.7h2.3v-1Zm-7 2-.2-.1v-.4a.5.5 0 0 1 .2-.4.8.8 0 0 1 .6-.1h.6v1h-.6a1 1 0 0 1-.6 0Zm.9-1.6h-.9c-.2 0-.4.1-.5.3-.2 0-.3.2-.4.3v1l.3.4.5.2h1.8l.2-.2v-2.1a1.2 1.2 0 0 0-.3-1c-.3-.2-.7-.4-1-.3h-.6a1.9 1.9 0 0 0-.8.3l.2.5h.1l1-.2c.2 0 .4 0 .5.2.2 0 .2.2.2.5h-.3Zm18-1.2-.4-.1h-.5l-.4.3v-.3h-.7v3.4h.7V91a1.4 1.4 0 0 1 .3-1h.8v-.1l.3-.5"/><path fill="#EEE" d="M144.5 87.7h-.5c-.4 0-.7 0-1 .3-.2.3-.4.6-.4 1v.2h-.5l-.2.5h.6l-.5 2.9c0 .2 0 .4-.2.5l-.1.4-.2.1h-.6l-.2.4v.1l.2.1h.3a1.2 1.2 0 0 0 1-.3l.3-.5.2-.8.5-2.9h.8l.1-.5h-.8l.1-.6.2-.2.2-.1h.5l.3-.5v-.1Zm-10 4.9h-.7v-4.8h.6v4.8Z"/><path fill="#272727" d="M206 102.3a2.3 2.3 0 0 1-1.6-.7 2.1 2.1 0 0 1 0-3 2.2 2.2 0 0 1 3.1 0 2 2 0 0 1 .5 2.3 2.1 2.1 0 0 1-1.2 1.2l-.8.2Zm2.2.3c0 .1 0 .3.2.4.2.2.3.3.5.3h.3a.2.2 0 0 0 .2-.2v-6h-1.1l-.1.1v.5a2.7 2.7 0 0 0-2.2-.9c-1 0-1.8.4-2.5 1a3.3 3.3 0 0 0 0 4.7 3.5 3.5 0 0 0 3.7.7l1-.6Zm3.3-1c.5.5 1.1.7 1.8.7.5 0 1.1-.3 1.1-.8s-1.2-.8-2-1c-.9-.3-1.6-.9-1.6-1.8 0-.8 1.3-2 2.5-2 .7 0 1.4.3 2 .7.2.1 0 .2 0 .2l-.4.7a.2.2 0 0 1-.2 0 .2.2 0 0 1-.1 0c-.4-.2-.9-.4-1.3-.4-.9 0-1.2.4-1.2.8s.6.6 1.2.8c.7.1 2.4.6 2.4 2 0 1.3-1.1 2-2.4 2-1 0-1.8-.3-2.6-.8a.2.2 0 0 1 0-.3l.5-.6v-.1h.1a.2.2 0 0 1 .2 0Zm10.7 1 .3.4c.1.2.3.3.5.3h.4V97h-1.2v.6a2.7 2.7 0 0 0-2.2-.9c-.9 0-1.8.4-2.4 1a3.3 3.3 0 0 0 0 4.7 3.5 3.5 0 0 0 3.6.7c.4-.1.7-.4 1-.6Zm-2.2-.3a2.3 2.3 0 0 1-1.5-.7 2.1 2.1 0 0 1-.7-1.5c0-.5.3-1 .7-1.5a2.2 2.2 0 0 1 3 0 2 2 0 0 1 .5 2.3 2.1 2.1 0 0 1-1.1 1.2l-.9.2Zm11.2.4v-3c0-1.7-1.1-2.9-3-2.9a2.3 2.3 0 0 0-1.8.9.7.7 0 0 0-.2-.5.7.7 0 0 0-.5-.2h-.4v6.3h1.1v-3.6c0-.4.2-.9.6-1.2.3-.3.7-.5 1.2-.5a1.7 1.7 0 0 1 1.2.5 1.6 1.6 0 0 1 .5 1.2v3.6h1.2v-.6Zm6.7-.1.3.4c.1.2.3.3.5.3h.4V97h-1.2v.6a2.7 2.7 0 0 0-2.2-.9c-.9 0-1.8.4-2.4 1a3.3 3.3 0 0 0 0 4.7 3.5 3.5 0 0 0 3.6.7c.4-.1.7-.4 1-.6Zm-2.2-.3a2.3 2.3 0 0 1-1.5-.7 2 2 0 0 1 0-3 2.2 2.2 0 0 1 3 0 2 2 0 0 1 .5 2.3 2 2 0 0 1-1.1 1.2l-.9.2Zm-10.9-15.6a3 3 0 0 0-2.1.9 2.9 2.9 0 0 0 0 4.1 3 3 0 0 0 4.2 0 2.9 2.9 0 0 0 0-4.1 3 3 0 0 0-2.1-.9Zm-7.8 0a3 3 0 0 0-1.7.5 3 3 0 0 0-1 1.3 2.8 2.8 0 0 0 .6 3.2 3 3 0 0 0 3.2.6 3 3 0 0 0 1.4-1 2.8 2.8 0 0 0-.4-3.7 3 3 0 0 0-2.1-.9Zm6.9-3.6c0 .8-.3 1.5-.9 2a3 3 0 0 1-4.3 0 2.9 2.9 0 0 1 0-4 3 3 0 0 1 4.3 0c.6.5.9 1.2.9 2Z"/><path fill="#272727" fill-rule="evenodd" d="M335.3 89c.3.4.4.9.4 1.3v6.3c0 .6.3 1 .7 1.5.4.3 1 .6 1.5.6h.7v-8.4c0-.5.1-1 .4-1.4l1-1a3 3 0 0 1 3 0c.4.3.8.6 1 1 .3.5.4 1 .4 1.4v6.3c0 .6.3 1 .7 1.5.4.3 1 .6 1.5.6h.8v-8.4c0-1.4-.7-2.9-1.8-3.9a6 6 0 0 0-8.5.2 5.8 5.8 0 0 0-4.5-1.8 6 6 0 0 0-3.2.9c-.8-.6-1.7-1-2.6-1v14h.7a2 2 0 0 0 2.1-2.1v-6.3a2.6 2.6 0 0 1 .8-2 2.8 2.8 0 0 1 2.1-.8c.5 0 1 .2 1.5.4.4.3.8.6 1 1h.3Zm-50.2 9.7h11.7V98c0-.5-.2-1-.6-1.4-.4-.4-1-.6-1.5-.6h-7.5l8.9-8.4v-.7c0-.5-.2-1-.6-1.4-.4-.4-1-.6-1.6-.6h-11.8v.6c0 .6.3 1 .7 1.5.4.3.9.6 1.5.6h7.3l-8.8 8.4v.7c0 .5.3 1 .7 1.4.4.4 1 .6 1.5.7v-.1Zm39-11.9a6.8 6.8 0 0 1 0 9.9 7.7 7.7 0 0 1-12.1-2.3 6.7 6.7 0 0 1 1.5-7.7 7.4 7.4 0 0 1 5.3-2.1 7.7 7.7 0 0 1 5.3 2.2Zm-2.2 2c.9.7 1.3 1.8 1.3 3 0 1-.4 2.1-1.3 2.9a4.4 4.4 0 0 1-3 1.2 4.6 4.6 0 0 1-3.1-1.2 4.1 4.1 0 0 1-1.3-3c0-1 .4-2.2 1.3-3a4.4 4.4 0 0 1 3-1.2 4.6 4.6 0 0 1 3.1 1.3Zm-18.5-4a7 7 0 0 1 6.8 4.3 6.7 6.7 0 0 1-1.6 7.6 7.6 7.6 0 0 1-10-.4 6.8 6.8 0 0 1-.4-9.5 7.2 7.2 0 0 1 5.2-2Zm3.2 4a4 4 0 0 1 1 4.6c-.4.7-1 1.4-1.7 1.8a4.6 4.6 0 0 1-5 0 4.3 4.3 0 0 1-1.6-1.9 4 4 0 0 1 1-4.5c.8-.8 2-1.3 3.1-1.3 1.2 0 2.3.5 3.2 1.3Z" clip-rule="evenodd"/><g fill="#272727" clip-path="url(#c)"><path d="M2 135.5a2 2 0 0 1-1.8-1c-.3-.6-.3-1.3.1-1.9l3.5-5.5c.4-.6 1-1 1.7-1a2 2 0 0 1 1.7 1.1 2 2 0 0 1-.1 2l-3.5 5.4a2 2 0 0 1-1.7 1Zm6 0a2 2 0 0 1-1.8-1c-.3-.6-.3-1.3.1-1.9l3.5-5.5c.3-.6 1-1 1.7-1a2 2 0 0 1 1.7 1.1 2 2 0 0 1-.1 2l-3.5 5.4a2 2 0 0 1-1.7 1Zm5.8.1a1.8 1.8 0 1 0 0-3.5c-1 0-1.8.7-1.8 1.7s.8 1.8 1.8 1.8Zm78.2-3.4c.5 0 .9.3.9 1v2.1h.7v-2.2c0-1-.5-1.7-1.5-1.7-.3 0-1 .1-1.3.8-.2-.4-.5-.7-1-.7h-.4c-.3 0-.8.2-1 .6v-.6h-.8v3.8h.8v-2c0-.8.5-1.1 1-1.1s.8.3.8 1v2.1h.8v-2c0-.7.4-1.2 1-1.1Zm-7 2.5c.2 0 .6-.1.8-.4.2-.2.4-.5.4-.9 0-.8-.6-1.2-1.3-1.2-.7 0-1.2.4-1.2 1.2 0 .4 0 .7.3 1 .2.2.6.3.9.3Zm0 .7c-1.2 0-2-.8-2-2s.8-2 2-2c1 0 1.9.8 1.9 2s-1 2-2 2Zm-5.9-2c0-1.2 1-2 2-2a2 2 0 0 1 1.5.6l-.6.5c-.2-.2-.5-.4-.9-.3-.7 0-1.2.4-1.2 1.2 0 .5.3 1 .7 1.2.5.2 1 0 1.4-.3l.6.5a2 2 0 0 1-1.5.6c-1 0-2-.8-2-2Zm-2.3 1.2a.5.5 0 0 1 .5-.5.5.5 0 0 1 .5.5c0 .3-.3.5-.5.5a.5.5 0 0 1-.5-.5Zm2-8H76l-1.8 4.8-1.8-4.8h-2.7l3.2 7.5-2 5h2.7l5-12.5Zm-16 4.2c0 1.2 1 2 2 2s2-.7 2-2a2 2 0 0 0-4 0Zm4 4.2v-1c-.5.8-1.7 1.2-2.3 1.2a4.2 4.2 0 0 1-4.3-4.4c0-2.7 2.1-4.3 4.3-4.3.5 0 1.7.1 2.4 1v-.9h2.4v8.4H67Zm-7.3 0h-2.4v-1c-.4.7-1.4 1.2-2.5 1.2-2 0-4-1.7-4-4.4 0-2.6 2-4.3 4-4.3 1 0 2 .4 2.5 1.2V122h2.4v13Zm-2.5-4.2c0-1.3-.9-2-1.9-2-1 0-2 .8-2 2s1 2 2 2 2-.8 2-2Zm-12.4-.2c0-1.3.6-1.7 1.5-1.7.8 0 1.4.5 1.4 1.6v4.5H50v-5c0-2.4-1.2-3.5-3-3.5-1 0-2 .5-2.4 1.4v-1.3H42v8.4h2.5v-4.4ZM37 135a4.2 4.2 0 0 1-4.3-4.3c0-2.6 2-4.3 4.3-4.3s4.3 1.7 4.3 4.3c0 2.6-2 4.3-4.3 4.3Zm0-2.4c1 0 1.9-.7 1.9-2 0-1-.9-1.8-2-1.8-.4 0-.9.2-1.3.5-.3.4-.5.9-.5 1.4 0 1.2.9 1.9 1.9 1.9Zm-8.7-3.8c.7 0 1.3.5 1.3 1.6v4.5h2.5v-4.8c0-2.5-1.3-3.7-3.2-3.7-.6 0-1.7.1-2.5 1.4-.5-1-1.4-1.4-2.7-1.4-.9 0-1.7.5-2.1 1.4v-1.3h-2.5v8.4h2.5v-4.4c0-1.3.7-1.7 1.4-1.7s1.3.5 1.4 1.6v4.5h2.4v-4.4c0-1.2.7-1.7 1.5-1.7Z"/></g><path fill="#272727" d="M139 127.5a5.7 5.7 0 0 0-5 3 5.7 5.7 0 0 0-3.7-2.9 5.7 5.7 0 0 0-4.7 1v-4.7c0-.3-.1-.6-.3-.8a1.1 1.1 0 0 0-1.6 0c-.2.2-.3.5-.3.8v9.2a5.6 5.6 0 0 0 4.3 5.4 5.7 5.7 0 0 0 6.3-2.8 5.6 5.6 0 0 0 4.9 3 5.7 5.7 0 0 0 5-2.8 5.6 5.6 0 0 0-2-7.7 6 6 0 0 0-2.9-.7Zm-10 9a3.4 3.4 0 0 1-3.1-2.1 3.3 3.3 0 0 1 .7-3.7 3.4 3.4 0 0 1 5.8 2.4 3 3 0 0 1-1 2.3c-.6.7-1.5 1-2.4 1Zm10 0a3.4 3.4 0 0 1-3.1-2.1 3.3 3.3 0 0 1 .7-3.7 3.4 3.4 0 0 1 5.8 2.4 3 3 0 0 1-1 2.3c-.6.7-1.5 1-2.4 1Z"/><path fill="#272727" d="m152.3 137-3-4 3-3.8a1.1 1.1 0 0 0-1-1.7c-.4 0-.7.2-.8.4l-2.5 3.3-2.5-3.3a1.1 1.1 0 0 0-2 .5c0 .3 0 .6.2.8l2.9 3.9-3 3.8a1.1 1.1 0 0 0 .4 1.5 1.1 1.1 0 0 0 1.5-.2l2.5-3.2 2.5 3.2a1.2 1.2 0 0 0 1.5.3 1.1 1.1 0 0 0 .3-1.6Z"/><g fill="#272727" clip-path="url(#d)"><path d="M257.5 131.8v-2.2c0-2 1-3.4 2.8-3.4 1 0 1.6.4 2.2 1l-.7.8c-.4-.3-.8-.6-1.5-.6-1 0-1.6.7-1.6 2.1v2.3c0 1.3.5 2 1.5 2 .7 0 1.2-.3 1.6-.6l.5.9c-.4.4-1.2.9-2.1.9-1.7 0-2.7-1.3-2.7-3.2Zm10.5-.5v.6c0 1.8-.9 3-2.6 3-1.6 0-2.5-1.1-2.5-3v-.6c0-1.8.9-3 2.5-3 1.7 0 2.6 1.2 2.6 3Zm-3.8 0v.6c0 1.3.4 2 1.2 2 .8 0 1.3-.7 1.3-2v-.7c0-1.2-.5-1.8-1.3-1.8s-1.2.6-1.2 1.8Zm9.3-.9v4.4h-1.3v-4.3c0-.8-.3-1.1-.8-1.1s-.9.3-1.2.8v4.6H269v-6.4h1l.2.7c.3-.6.8-.9 1.5-.9 1 0 1.8.8 1.8 2.2Zm.7 3.7.6-.8c.4.4.9.6 1.5.6s1-.2 1-.7c0-.5-.2-.7-.9-1l-.6-.3c-.9-.3-1.3-.8-1.3-1.6v-.2c0-1 .8-1.8 2-1.8a3 3 0 0 1 2 .8l-.5.9c-.6-.4-1-.5-1.4-.5-.6 0-.9.3-.9.6 0 .4.2.6.9.9l.7.3c.7.3 1.3.7 1.3 1.7v.3c0 1.1-1 1.7-2.2 1.7-.9 0-1.7-.4-2.2-.9Zm8.4.7-1 .1c-1 0-1.6-.5-1.6-1.7v-3.7h-.8v-1h.8v-1.6h1.2v1.5h1.1v1.1h-1.1v3.6c0 .5.2.7.7.7h.5l.2 1Zm4-6.4-.2 1.4h-.3c-.7 0-1.1.2-1.4 1.2v3.8h-1.3v-6.4h1l.1 1c.4-.8 1-1.1 1.5-1.1h.6Zm5.1 0v6.4h-1l-.1-.7c-.4.5-1 .9-1.6.9-1 0-1.7-.8-1.7-2v-4.5h1.2v4.5c0 .6.3.9.7.9.5 0 1-.3 1.2-.9v-4.6h1.3Zm1 3.5v-.6c0-1.8.9-3 2.5-3a2 2 0 0 1 1.7.8l-.5.8c-.4-.4-.7-.5-1.2-.5-.7 0-1.2.6-1.2 1.9v.6c0 1.3.5 1.9 1.2 1.9.5 0 .9-.2 1.2-.5l.5.9c-.5.4-1.1.7-1.7.7-1.6 0-2.5-1.2-2.5-3Zm8.2 2.9-1 .1c-1 0-1.6-.5-1.6-1.7v-3.7h-.8v-1h.8v-1.6h1.2v1.5h1.2v1.1h-1.2v3.6c0 .5.2.7.7.7h.5l.2 1Zm2.5-6.4v6.4H302v-5.3h-.7v-1h2Zm-1.5-1.8c0-.5.4-1 .8-1s.7.5.7 1-.3.9-.7.9c-.4 0-.8-.4-.8-1Zm7.5 4.7v.6c0 1.8-.9 3-2.5 3-1.7 0-2.6-1.1-2.6-3v-.6c0-1.8.9-3 2.6-3 1.6 0 2.5 1.2 2.5 3Zm-3.8 0v.6c0 1.3.4 2 1.3 2 .8 0 1.2-.7 1.2-2v-.7c0-1.2-.4-1.8-1.2-1.8-.9 0-1.3.6-1.3 1.8Zm9.3-.9v4.4h-1.3v-4.3c0-.8-.3-1.1-.8-1.1s-.9.3-1.2.8v4.6h-1.2v-6.4h1l.2.7c.3-.6.8-.9 1.5-.9 1 0 1.8.8 1.8 2.2Zm3.7 1.4v-2.2c0-2 1-3.4 2.8-3.4 1 0 1.6.4 2.1 1l-.6.8c-.4-.3-.8-.6-1.5-.6-1 0-1.6.7-1.6 2.1v2.3c0 1.3.5 2 1.5 2 .7 0 1.2-.3 1.6-.6l.5.9c-.4.4-1.2.9-2.1.9-1.7 0-2.7-1.3-2.7-3.2Zm7.1 1.5c0 .4 0 .5.3.5h.2l.2 1-.7.2c-.8 0-1.3-.5-1.3-1.4v-7.7h1.3v7.4Zm6.1-2v.6c0 1.8-.8 3-2.5 3s-2.5-1.1-2.5-3v-.6c0-1.8.8-3 2.5-3s2.5 1.2 2.5 3Zm-3.8 0v.6c0 1.3.4 2 1.3 2 .8 0 1.2-.7 1.2-2v-.7c0-1.2-.4-1.8-1.2-1.8-.8 0-1.3.6-1.3 1.8Zm9.2-2.9v6.4h-1l-.1-.7c-.4.5-1 .9-1.6.9-1 0-1.7-.8-1.7-2v-4.5h1.2v4.5c0 .6.3.9.7.9.5 0 1-.3 1.2-.9v-4.6h1.3Zm5.8-2.4v8.8h-1l-.2-.7c-.4.5-.8.8-1.5.8-1.2 0-2-1.1-2-3v-.7c0-1.7.8-3 2.1-3 .6 0 1 .2 1.3.6v-2.9h1.2Zm-1.3 7.1V130c-.2-.3-.6-.5-1-.5-.8 0-1.2.6-1.2 1.8v.8c0 1.3.4 1.9 1 1.9s.9-.3 1.2-.8Zm-87.3-6.7h-2.1l-2.6 3.4v-3.4h-1.8v8.4h1.8v-3.2l2.4 3.2h2.3l-3.3-4.1 3.3-4.3Zm-9.4 3.5-1.6-.2c-1-.2-1.2-.4-1.2-.8 0-.5.5-.9 1.4-.9 1 0 1.4.4 1.5 1h1.8c-.1-1.7-1.3-2.8-3.2-2.8-2.1 0-3.2 1-3.2 2.9 0 1.5.7 2.1 2.2 2.3l1.7.2c.6.1.9.4.9.8s-.4.8-1.5.8c-1.2 0-1.6-.3-1.7-1h-1.7c0 1.9 1 2.8 3.3 2.8 2.1 0 3.3-1 3.3-2.7 0-1.4-.7-2.2-2-2.4Zm-11 4.9h5.6V133h-3.9v-1.5h3.1v-1.8h-3v-1.5h3.8v-1.8H234v8.4Zm-4.3-8.4h-3.3v8.4h3.3c2.5 0 3.2-1.1 3.2-4.2 0-3-.6-4.2-3.2-4.2Zm0 6.6h-1.5v-4.8h1.5c1 0 1.4.3 1.4 2.3 0 1.8-.4 2.5-1.4 2.5Zm-8.2-6.8c-2.5 0-3.8 1.8-3.8 4.4 0 2.5 1.3 4.4 3.8 4.4 2.6 0 4-1.9 4-4.4 0-2.6-1.4-4.4-4-4.4Zm0 7c-1.3 0-2-1-2-2.6s.7-2.6 2-2.6c1.4 0 2.1 1 2.1 2.6s-.7 2.5-2 2.5Zm-10.5-5h2.3v6.6h1.8v-6.6h2.3v-1.8H211v1.8Zm-2.6 3.4c0 1-.5 1.5-1.5 1.5s-1.5-.4-1.5-1.5v-5.2h-1.8v5.4c0 2.4 1.8 3.2 3.4 3.2 1.5 0 3.3-.8 3.3-3.2v-5.4h-1.8v5.2Zm-10.1-5.2-2.7 8.4h1.9l.5-1.6h3l.4 1.6h2l-2.8-8.4h-2.3Zm.2 5 1-3.3 1 3.3h-2Zm-16.2 3.4 6.3-4.7h3.2c.2 0 .2.1.2.3v.2l-3.1 2.2c-.2.1-.3.4-.3.6v1.4h3.9v-8c0-.2-.1-.4-.3-.4h-3.7l-6.3 4.6v3.8Z"/></g><path fill="#272727" d="M34.3 164h-2.4v2.3h2.4a1 1 0 0 1 1 1 1 1 0 0 1-.6 1 1 1 0 0 1-.4 0h-2.4v2.4h2.4a3.4 3.4 0 0 0 3.4-3.4 3.4 3.4 0 0 0-3.4-3.3Zm-13.5 12.4a7 7 0 0 0 6.4-4h3v4H32v-4h2.4a5 5 0 0 0 5-5 5 5 0 0 0-5-5.1h-4v6h-2.5a7 7 0 0 0-7-6h-8.3l-8.3 14.1h2l2.3-4H17v4h3.8Zm21-9c0 4-3.4 7.3-7.5 7.3v4h-6.4v-3a9.5 9.5 0 0 1-7.1 3h-6.1v-4H9.9l-2.4 4H0L11 160h9.8c2.8 0 5.3 1.3 7 3.2V160h6.5a7.5 7.5 0 0 1 7.4 7.4ZM14.6 164v4.4h-3.8l-1.4 2.3H17V164h-2.3Zm11.5 5.4c0 3-2.4 5.3-5.4 5.3h-2v-2.3h2a3 3 0 0 0 3-3 3 3 0 0 0-3-3h-2V164h2c3 0 5.4 2.4 5.4 5.4"/><g fill="#272727" clip-path="url(#e)"><path d="m97.5 156.8-8 .6c-.5 0-1 .4-1.1.8l-.2.4v17.2l.3.5 2.3 3.1c2.3 2.8 2.4 3 3.3 3h4l7.2-.5c8.3-.5 7.8-.4 8.3-.8.6-.5.6.3.6-10.2l-.1-9.8a19 19 0 0 0-4.2-3c-2.6-1.8-2.7-1.8-3.9-1.9l-8.5.6Zm9.5 1.1a39.7 39.7 0 0 1 3.4 2.5l-16.6 1-.7-.3-2.6-2c0-.3 0-.3 7.1-.9l5-.3c3-.2 3.9-.2 4.4 0Zm5.1 4.5.3.6v8.1c0 7.4 0 7.9-.2 8 0 .2-.2.3-.4.4l-17.5 1c-.2 0-.4-.2-.5-.3l-.2-.3v-16.2l.3-.4 4.6-.4c2.4 0 6.2-.3 8.3-.4 5-.3 5-.3 5.3-.1Z"/><path d="M107.6 165.1c-1 0-1.7.2-1.8.2-.3.2-.5.4-.5.6 0 .3 0 .3 1 .5h.4v3.5c0 2.1 0 3.5-.1 3.4a491 491 0 0 1-5.3-7.8 35.3 35.3 0 0 0-4.4.4c-.2 0-.5.5-.5.8 0 .2.3.3 1 .3h.4v10l-.6.2-.7.4v.6l2.1-.2c2.2 0 2.5-.1 2.7-.6l.1-.3-.6-.2-.8-.2c-.2 0-.2-.3-.2-3.8V169l2.6 4c2.7 4 3 4.5 3.4 4.7.6.3 1.9 0 2.5-.3l.2-.2V166h.5c.6-.2.8-.4.8-.8 0-.3 0-.3-.3-.3l-1.9.1Z"/></g><path fill="#272727" d="M171.3 177.4h-1.4v-5.5h1.4v5.5Zm11.3-3.9-1.2-.3a1.5 1.5 0 0 0-1 .4 1.4 1.4 0 0 0-.5 1 1.4 1.4 0 0 0 .4 1.1 1.5 1.5 0 0 0 1.1.4c.4 0 .8 0 1.2-.3v1.5l-1.3.2c-1.6 0-3-1-3-2.8 0-1.8 1.3-2.9 3-2.9l1.3.2v1.5Zm-14.7 0c-.3-.2-.7-.3-1.2-.3a1.5 1.5 0 0 0-1.5.9 1.5 1.5 0 0 0 .3 1.7 1.5 1.5 0 0 0 1.2.3c.5 0 .9 0 1.2-.3v1.5a4 4 0 0 1-1.3.2c-1.5 0-3-1-3-2.8a2.8 2.8 0 0 1 2-2.7 3 3 0 0 1 1-.2l1.3.2v1.5Zm19.1-.3c-.4 0-.7.2-1 .4a1.4 1.4 0 0 0 0 2 1.5 1.5 0 0 0 2 0 1.4 1.4 0 0 0 0-2c-.2-.2-.6-.4-1-.4Zm3 1.5a2.9 2.9 0 0 1-1.8 2.7 3 3 0 0 1-3.2-.6 2.9 2.9 0 0 1-.7-3.2c.2-.5.6-1 1-1.3a3 3 0 0 1 1.7-.5 3 3 0 0 1 2.1.8 2.8 2.8 0 0 1 .9 2Zm-13.4-1.5a6 6 0 0 0-1.1-.2c-.6 0-.9.2-.9.4 0 .3.4.5.7.6l.4.1c.9.3 1.3.9 1.3 1.5 0 1.4-1.2 1.9-2.3 1.9l-1.5-.1V176l1.3.2c.7 0 1-.2 1-.5 0-.4-.3-.5-.6-.6h-.3c-.8-.3-1.4-.7-1.4-1.7 0-.9.7-1.7 2-1.7l1.4.2v1.2Zm-14.4-7.2-.2-.4a.7.7 0 0 0-.5-.2.7.7 0 0 0-.5.2.7.7 0 0 0-.2.4v1.5a.7.7 0 0 0 .2.5l.2.1h.3l.5-.1.2-.5V166Zm3.8-1.8a.7.7 0 0 0-.4-.7h-.3c-.2 0-.4 0-.5.2l-.2.5v3.3c0 .2 0 .4.2.5a.7.7 0 0 0 1 0l.2-.5v-3.3Zm3.9-2.6-.2-.5a.7.7 0 0 0-.5-.2c-.2 0-.4 0-.5.2-.2.2-.2.3-.2.5v7.3c0 .2 0 .3.2.4.1.2.3.2.5.2.1 0 .3 0 .4-.2.2 0 .3-.3.3-.4v-7.3Zm3.8 2.6a.7.7 0 0 0-.7-.7c-.2 0-.4 0-.5.2l-.2.5v3.3a.7.7 0 0 0 .7.7c.2 0 .4 0 .5-.2l.2-.5v-3.3Zm3.8 1.8a.6.6 0 0 0-.2-.4.7.7 0 0 0-.5-.2c-.2 0-.3 0-.5.2l-.2.4v1.5a.7.7 0 0 0 .2.5l.2.1h.3l.5-.1.2-.5V166Zm3.9-1.8c0-.2-.1-.4-.3-.5a.7.7 0 0 0-.5-.2c-.1 0-.3 0-.4.2-.2.1-.2.3-.2.5v3.3c0 .2 0 .4.2.5a.7.7 0 0 0 1 0l.2-.5v-3.3Zm3.8-2.6a.7.7 0 0 0-.2-.5.7.7 0 0 0-1 0l-.2.5v7.3c0 .2 0 .3.2.4a.7.7 0 0 0 1.1-.1v-7.6Zm3.8 2.6a.7.7 0 0 0-.4-.8.7.7 0 0 0-.6 0 .7.7 0 0 0-.4.5v3.6a.6.6 0 0 0 .2.5.7.7 0 0 0 .5.2c.2 0 .4 0 .5-.2l.2-.5v-3.3Zm3.9 1.8-.2-.4a.7.7 0 0 0-.5-.2.7.7 0 0 0-.5.2.6.6 0 0 0-.2.4v1.5c0 .2 0 .4.2.5a.7.7 0 0 0 1 0l.2-.5V166Zm-.9 10.7h-.2v.7h-.1v-.6h-.2v-.1h.6Zm.1 0h.2l.2.6.2-.6h.2v.7h-.2v-.6l-.2.6-.3-.6v.6h-.1v-.7Z"/><path fill="#272727" fill-rule="evenodd" d="M258 159.2h-16.6a2 2 0 0 0-2 2v16.6c0 1.1.9 2 2 2h16.5a2 2 0 0 0 2-2v-16.6a2 2 0 0 0-2-2Zm-1.7 2.7h-4.4a1 1 0 0 0-1 1v7c0 .6.5 1 1 1h4.4c.5 0 1-.4 1-1v-7c0-.6-.5-1-1-1Zm-13.3 0h4.3c.6 0 1 .4 1 1V175c0 .5-.4 1-1 1H243a1 1 0 0 1-1-1v-12.2c0-.6.5-1 1-1Zm85.5 17.8v-11h-4.3v11h4.3Zm.3-11.9 7.3-9h-4.4l-7.3 9h4.4Zm.8 1v11h4.3v-5.6c0-1.1 1.2-2 3.1-1.5v-4c-1.4-.3-3 1.2-3 2v-2h-4.4Z" clip-rule="evenodd"/><path fill="#272727" fill-rule="evenodd" d="M341.8 168.7a5.6 5.6 0 1 0 0 11.1 5.6 5.6 0 0 0 0-11Zm0 3.9a1.7 1.7 0 1 1 0 3.4 1.7 1.7 0 0 1 0-3.4Zm-35.4-3.8v11h4.3V173c0-1.2 1.9-1.5 1.9.1v6.5h4.3V173c0-1.5 1.9-1.8 1.9 0v6.6h4.2v-8c0-2.6-2.4-3.2-3.4-3.1-1 0-2.5.5-2.9 1.8-.3-1.6-2.2-2-3.3-1.8-1.1 0-2 .4-2.7 1.3v-1.1h-4.3Z" clip-rule="evenodd"/><g clip-path="url(#f)"><path fill="#272727" d="M15.8 203.8a4.4 4.4 0 0 0-3.6-1.7 4.5 4.5 0 0 0-3.3 1.4 5 5 0 0 0-1 1.7 6 6 0 0 0-.4 2.2c0 .8.1 1.5.4 2.1a4.9 4.9 0 0 0 2.5 2.8c.6.2 1.2.3 1.9.3.6 0 1.3 0 1.8-.3a3 3 0 0 0 1.3-.9l.7-.9.4-1.2h-4.3v-2.8h7a6.3 6.3 0 0 1 .2 1.5c0 1-.1 2-.4 3a6.7 6.7 0 0 1-6.8 4.8 7.7 7.7 0 0 1-7-5c-.4-1-.6-2.2-.6-3.4a9 9 0 0 1 .6-3.4 8 8 0 0 1 1.6-2.6 7.5 7.5 0 0 1 8.6-1.7c1 .5 1.7 1.1 2.4 1.9l-2 2.2ZM34 211c0 1.4-.5 2.5-1.4 3.4a5 5 0 0 1-3.5 1.2c-1.2 0-2.2-.4-3.1-1.1a6 6 0 0 1-2-3.2l1.8-.8.5 1.3.8 1c.3.3.6.5 1 .6.3.2.7.3 1 .3a3 3 0 0 0 2.2-.8c.5-.4.8-1 .8-1.9 0-.7-.3-1.2-.7-1.7-.4-.5-1.2-1-2.4-1.3a24 24 0 0 1-2.1-1 4.1 4.1 0 0 1-2.3-3.8 4 4 0 0 1 1.3-3c.8-.8 1.9-1.3 3.1-1.3 1.1 0 2 .3 2.9 1 .8.6 1.3 1.4 1.6 2.3l-1.7.8a3 3 0 0 0-1-1.5c-.4-.4-1-.6-1.7-.6s-1.3.2-1.8.7a2 2 0 0 0-.8 1.6c0 .5.2 1 .6 1.4.4.4 1.4.9 2.8 1.4a7 7 0 0 1 3.2 2c.6.8.9 1.8.9 3Zm10.3 4.3h-1.8v-1.6c-.4.6-.8 1-1.4 1.4a4 4 0 0 1-1.8.5c-1.2 0-2.2-.4-2.8-1.1a5 5 0 0 1-1-3.3v-6.9h1.9v6.8c0 1.8.8 2.6 2.4 2.6.8 0 1.4-.3 1.9-1 .5-.6.7-1.4.7-2.3v-6h1.9v10.9Zm4.2-14.7c0 .4-.1.7-.4 1-.2.3-.5.4-.9.4s-.7-.1-1-.4c-.2-.3-.3-.6-.3-1s.1-.8.4-1c.2-.4.5-.5.9-.5s.7.2 1 .4c.2.3.3.7.3 1Zm-.4 3.7v11h-1.8v-11h1.8Zm5.7 11.1c-.8 0-1.4-.2-2-.8-.5-.5-.8-1.3-.8-2.3v-6h-1.7v-2H51V201h2v3.3h2.4v2H53v5.4c0 .7 0 1.2.3 1.4.3.3.6.4.9.4a1.9 1.9 0 0 0 .8-.2l.6 1.8a4 4 0 0 1-1.7.3Zm7 .2c-1.5 0-2.7-.5-3.6-1.6a6.2 6.2 0 0 1-1.4-4.2c0-1.7.4-3 1.3-4.2 1-1 2.1-1.6 3.6-1.6 1.4 0 2.6.5 3.5 1.5.8 1 1.3 2.6 1.3 4.5v.2h-7.8c0 1 .3 2 1 2.6a3 3 0 0 0 2.2 1c1.2 0 2-.7 2.8-2l1.6.9a4.9 4.9 0 0 1-4.5 3Zm-3-7.1h5.7a3 3 0 0 0-.8-2c-.5-.4-1.2-.7-2-.7s-1.4.3-1.9.8c-.5.4-.8 1-1 1.9Z"/></g><g fill="#272727" clip-path="url(#g)"><path d="M105.2 198.9a8.7 8.7 0 0 0-2.7 16.9c.4 0 .6-.2.6-.4v-1.6c-2.4.5-3-1-3-1-.3-1-1-1.3-1-1.3-.7-.6.1-.6.1-.6 1 0 1.4 1 1.4 1 .7 1.3 2 .9 2.5.6 0-.5.3-.9.5-1.1-1.9-.2-3.9-1-3.9-4.3 0-1 .3-1.7.9-2.3-.1-.2-.4-1.1 0-2.3 0 0 .8-.3 2.5.9a8.3 8.3 0 0 1 4.3 0c1.6-1.2 2.4-1 2.4-1 .4 1.3.1 2.2 0 2.4.6.6 1 1.4 1 2.3 0 3.3-2 4-4 4.3.3.2.6.8.6 1.6v2.4c0 .2.1.5.6.4a8.7 8.7 0 0 0-2.8-17Z"/><path d="M99.8 211.2h-.2c0-.1 0-.1.1 0h.1Zm.4.4h-.1c-.1 0-.1-.2 0-.2h.1v.2m.3.5h-.2v-.3h.2v.3m.5.6h-.2v-.3h.2v.3Zm.7.2h-.3l-.1-.2h.2c.1 0 .2 0 .2.2Zm.7 0-.2.2c-.1 0-.2 0-.2-.2h.4Zm.7 0s0 .2-.2.2l-.2-.1s0-.2.2-.2l.2.1Z"/></g><g fill="#272727" clip-path="url(#h)"><path d="M134.4 206.3h-5.5l-.2.2v2.5l.2.2h2.2v3.1s-.5.2-1.8.2c-1.6 0-3.7-.6-3.7-5s2.2-5 4.3-5c1.9 0 2.7.3 3.2.4.1 0 .3 0 .3-.2l.6-2.4-.1-.1c-.2-.2-1.5-.8-4.6-.8-3.6 0-7.4 1.4-7.4 8.3 0 6.8 4.3 7.9 7.9 7.9 3 0 4.7-1.2 4.7-1.2l.1-.2v-7.7c0-.1 0-.2-.2-.2Zm27.9-6.1c0-.2 0-.3-.2-.3h-3c-.2 0-.3.1-.3.3v5.5H154v-5.5c0-.2-.1-.3-.3-.3h-3c-.2 0-.3.1-.3.3V215c0 .1.1.2.3.2h3c.2 0 .3 0 .3-.2v-6.3h4.8v6.3c0 .2 0 .3.2.3h3c.2 0 .3-.1.3-.3v-14.8Zm-22.2 1.9c0-1-.8-1.8-2-1.8-1 0-1.9.8-1.9 1.8s1 1.9 2 1.9 2-.9 2-1.9Zm-.1 9.8V205l-.3-.2h-3c-.2 0-.3.1-.3.3v9.8c0 .3.2.3.4.3h2.8c.3 0 .3 0 .3-.3v-3Zm34-7.1h-3.1c-.1 0-.3.1-.3.3v7.2s-.7.6-1.8.6-1.4-.5-1.4-1.5v-6.3c0-.2-.1-.3-.3-.3h-3c-.2 0-.3.1-.3.3v6.8c0 3 1.8 3.7 4.2 3.7 2 0 3.6-1 3.6-1l.1.5.3.2h2s.2-.1.2-.3v-10s-.1-.2-.3-.2Zm8.2-.3a6 6 0 0 0-2.9.7v-5c0-.2 0-.3-.2-.3h-3c-.2 0-.3.1-.3.3V215c0 .1 0 .2.2.2h2.3l.2-.8s1.2 1.1 3.6 1.1c2.8 0 4.4-1.3 4.4-5.9 0-4.5-2.6-5.1-4.3-5.1Zm-1.2 8.4c-1 0-1.7-.5-1.7-.5v-4.7s.7-.4 1.5-.5c1.1 0 2.2.2 2.2 2.6 0 2.6-.5 3.1-2 3Zm-32.3-8.1h-2.3V202c0-.1 0-.2-.2-.2h-3.1c-.1 0-.2 0-.2.2v2.9l-1.7.4-.1.2v1.8c0 .2 0 .3.2.3h1.6v4.4c0 3.2 2.5 3.5 4.1 3.5l1.9-.2.1-.3v-2s-.1-.2-.3-.2h-.8c-1.1 0-1.5-.4-1.5-1v-4.2h2.3c.1 0 .2-.1.2-.3V205s0-.2-.2-.2Z"/></g><path fill="#272727" d="M217.6 213.6v-11l9.9-3.7 5.4 1.7v15l-5.4 1.5-10-3.5 10 1.2v-13l-6.5 1.6v8.7l-3.4 1.5Zm25.8 0c-1.5 0-2.8-.4-3.7-1.4-1-1-1.4-2.4-1.4-4a6 6 0 0 1 1.4-4.2 5 5 0 0 1 3.9-1.6 5 5 0 0 1 3.7 1.5c.9 1 1.4 2.4 1.4 4a6 6 0 0 1-1.5 4.2 5 5 0 0 1-3.8 1.6Zm.1-10c-1.2 0-2 .4-2.8 1.2-.7.8-1 2-1 3.3 0 1.3.3 2.4 1 3.2.7.8 1.6 1.2 2.7 1.2 1.2 0 2.2-.3 2.9-1.1.7-.8 1-1.9 1-3.3a5 5 0 0 0-1-3.3 3.5 3.5 0 0 0-2.8-1.2Zm9.7-1.8c-.7 0-1.3.3-1.7.7-.5.5-.8 1.1-.8 2v1.2h-1.3v1h1.3v6.8h1.3v-6.7h3v6.7h1.3v-6.7h1.9v-1h-1.9v-1.3c0-1 .5-1.6 1.3-1.6.3 0 .6 0 .9.2V202l-1-.2c-.6 0-1.2.3-1.7.7-.5.5-.7 1.1-.7 2v1.2H252v-1.2c0-1 .4-1.6 1.3-1.6.3 0 .6 0 .9.2V202l-1-.2Zm6.8 2a.8.8 0 0 1-.6-.3.8.8 0 0 1-.2-.6c0-.2 0-.4.2-.5a.8.8 0 0 1 .6-.3l.6.3.2.5a.7.7 0 0 1-.2.6c-.2.2-.4.2-.6.2Zm.6 9.7h-1.3v-7.8h1.3v7.8Zm7.1-.3c-.6.3-1.3.5-2.1.5a4 4 0 0 1-2.7-1 4 4 0 0 1-1-2.9c0-1.3.3-2.3 1-3a4 4 0 0 1 3-1.3c.7 0 1.3.2 1.9.4v1.3c-.6-.4-1.3-.6-2-.6s-1.4.3-1.9.8c-.5.6-.8 1.4-.8 2.3 0 1 .3 1.6.8 2.2.4.5 1.1.7 2 .7.6 0 1.2-.2 1.8-.6v1.2Zm7.7-3.3H270c0 .9.2 1.6.7 2 .4.5 1 .7 1.8.7 1 0 1.7-.2 2.5-.8v1.1c-.7.5-1.6.8-2.8.8-1 0-2-.4-2.6-1a5 5 0 0 1-1-3 4 4 0 0 1 1.1-3c.7-.8 1.6-1.2 2.6-1.2s1.8.4 2.4 1c.5.7.8 1.6.8 2.8v.6Zm-1.3-1c0-.7-.1-1.3-.5-1.7-.3-.4-.8-.6-1.4-.6a2 2 0 0 0-1.5.6 3 3 0 0 0-.8 1.7h4.2Zm64.4-6.2h-2.2v2.3h2.2c.2 0 .5 0 .6.3a1 1 0 0 1-.3 1.5 1 1 0 0 1-.3.1h-2.2v2.3h2.2c.8 0 1.6-.4 2.2-1a3.2 3.2 0 0 0 0-4.5c-.6-.6-1.4-1-2.2-1Zm-12.6 12c2.6 0 4.9-1.6 6-4h2.8v4h1.6v-4h2.2c2.6 0 4.7-2 4.7-4.7s-2.1-4.9-4.7-4.9h-3.8v5.8h-2.3a6.7 6.7 0 0 0-6.5-5.8H318l-7.8 13.5h1.9l2.2-3.8h8v3.8h3.5Zm19.5-8.7c0 3.9-3 7-7 7v3.9h-6v-3c-1.6 1.8-4 3-6.5 3H320V213h-4.4l-2.3 3.9h-7l10.4-18h9c2.7 0 5 1.1 6.7 3v-3h6a7 7 0 0 1 4.9 2c1.3 1.4 2 3.2 2 5Zm-25.3-3.3v4.2h-3.5l-1.3 2.3h7v-6.5h-2.2ZM331 208a5 5 0 0 1-5 5.1h-2v-2.2h2c.7 0 1.4-.3 2-.9a3 3 0 0 0 0-4c-.6-.6-1.3-1-2-1h-2v-2.2h2a5 5 0 0 1 5 5.2"/><g fill="#272727" clip-path="url(#i)"><path d="M20.3 241.4A13.8 13.8 0 0 0 16 247c-.5.7-1.7.3-1.6-.6l.2-.4a15.4 15.4 0 0 1 7.6-7.7 16.2 16.2 0 0 1 21.7 8c0 .4-.1.7-.3.9a.9.9 0 0 1-1.5-.4 13.7 13.7 0 0 0-9.2-7.8l-.4-.1a14.6 14.6 0 0 0-12.2 2.6Z"/><path d="M37.6 255a2 2 0 0 1-1 .8 3 3 0 0 1-1.7 0 2 2 0 0 1-1.2-.9c-.4-.5-.5-1.1-.5-1.8V252l.1-.8c.1-.4.3-.7.6-1 .5-.5 1.3-.8 2-.7a2 2 0 0 1 1.7.9 610.2 610.2 0 0 1 0-3.7l.3-.2h.6c.1 0 .3.1.3.3v8.8c0 .2-.1.3-.3.3a4 4 0 0 1-.5 0l-.2-.1-.1-.2-.1-.5Zm-.5-.4c.3-.4.4-1 .5-1.4v-1c-.1-.8-.4-1.9-1.5-2-.4 0-.8.1-1.1.5l-.2.4a3 3 0 0 0-.2.8 7.3 7.3 0 0 0 0 2c.2.5.4 1 .9 1 .5.2 1.2.1 1.6-.3Zm-9.9-2v3c0 .2-.2.3-.3.3h-.6c-.2 0-.4-.1-.4-.3v-8.8c0-.2.2-.3.4-.3h.6c.1 0 .2 0 .3.2a159.5 159.5 0 0 0 0 5.7l2.4-2.5.3-.3.3-.1h1s.2 0 .1.2v.1a977.5 977.5 0 0 0-2.8 2.7 1310 1310 0 0 1 2.7 3.3h-1c-.2 0-.4 0-.5-.2l-2.5-3Zm-15.4 1.9c-.2-.4-.4-1-.4-1.5 0-1 .2-2.3 1-3a3 3 0 0 1 1.2-.5c1.1-.3 2.4 0 3.2.8.3.3.5.7.6 1.2.2.6.2 1.2.2 1.7a4 4 0 0 1-.6 1.5c-.4.6-1 1-1.9 1.2h-1.5c-.7-.3-1.4-.7-1.8-1.4Zm1.9.4.5.1c.5.1 1 0 1.4-.3.4-.4.5-1 .6-1.6v-1c0-.5-.2-1-.5-1.3-.4-.5-1-.6-1.5-.5-.4 0-.8.2-1 .6a3 3 0 0 0-.5 1.8c0 .7.2 1.8 1 2.2Zm7.4-4.5c.5-.6 1-1 1.8-1 .3 0 .7 0 .8.2l.1.3-.2.5c0 .2-.1.2-.3.2h-.2a7 7 0 0 0-.6-.1 1 1 0 0 0-.6 0 2 2 0 0 0-.7 1.6v3.5c0 .2-.2.3-.4.3h-.6c-.2 0-.3-.1-.3-.3a4558.3 4558.3 0 0 1 .2-6.1h.5s.3 0 .3.2l.2.6Zm24.6 4.6-.4.4c-.2.2-.4.4-.7.4h-1.3c-.6 0-1.1-.4-1.5-.8a3 3 0 0 1-.7-1.5 5 5 0 0 1 0-1.9l.4-1c.4-.6 1.1-1 1.9-1.2h1.4c.7.2 1.3.6 1.7 1.3.3.6.4 1.2.4 1.9a1873 1873 0 0 1 0 3c-.1.2-.2.2-.4.2h-.3l-.4-.1v-.3a37.8 37.8 0 0 1-.1-.4Zm0-2.9c-.1-.5-.2-1-.6-1.4-.3-.4-.8-.5-1.3-.4-1 0-1.2.8-1.3 1.5l-.1 1c0 1 .2 2.1 1.4 2.2.6 0 1.1 0 1.5-.6.2-.3.3-.8.3-1.2v-1ZM0 249.7c0-.2.1-.2.2-.2h.9a2831.3 2831.3 0 0 1 1.6 5.7l.2-1.3 1.2-4.1c0-.2.1-.3.3-.3h1.2l.2.2a4091.8 4091.8 0 0 0 1.4 5.6l.3-1.6 1-4c0-.2.1-.2.3-.2h.8c.1 0 .2.1.2.3a4370.2 4370.2 0 0 0-1.7 6h-.3a59.5 59.5 0 0 1-1.5-.2 4359.6 4359.6 0 0 1-1.5-4.4l-.1.3-1.1 4.2-.4.2H1.8l-.2-.3L0 250v-.2Zm50.4 8.7h-.9l-.2-.4v-.2c0-.2.2-.2.4-.2l.6-.5c.4-.3.6-.8.7-1.3v-.2l-2.6-5.7v-.3l.2-.1h.9c.2 0 .3 0 .4.3a5156.9 5156.9 0 0 0 1.7 4.4l.3-1 1.1-3.4.1-.2.4-.1h.6c.2 0 .4 0 .4.3l-2.5 7a2.5 2.5 0 0 1-1.6 1.6Zm5.3-3.9v.3l-.1-.3a.7.7 0 0 0-1.2 0c-.3.5 0 1 .4 1.2.4 0 .9-.2 1-.6v.3c-.3.4-.8.5-1.3.3a.8.8 0 0 1 0-1.4l.5-.2c.3 0 .6.1.7.4Z"/><path d="M55.2 255a4.4 4.4 0 0 0 .2.4h-.2l-.2-.3h-.1v.3h-.3v-1h.3c.2 0 .4 0 .5.2 0 .2 0 .3-.2.4Zm-.3-.4v.3h.1a.2.2 0 0 0 .2 0v-.2h-.4Z"/></g><path fill="#272727" d="M100.4 259a11.6 11.6 0 0 1-10.2-12.9 11.5 11.5 0 0 1 15.4-9.4A11.6 11.6 0 0 1 113 250a11.6 11.6 0 0 1-12.6 9Zm.7-10.4V243h-1.5c-1.8 0-2.3 0-3 .3a4.5 4.5 0 0 0-3 3.2 5 5 0 0 0 0 2.1 4.7 4.7 0 0 0 3 3.4c.5.2.6.2 1.2.2h.7v-1.6H98c-.9 0-1.5-.3-2-.9a3 3 0 0 1 .8-4.7c.5-.3.8-.3 1.8-.3h.9v9.8h1.6v-5.8Zm4.8 3.5a5 5 0 0 0 3.6-2.8c.2-.6.3-1 .3-1.8l-.1-1.2a4.6 4.6 0 0 0-4.2-3.4h-.7v1.6h.6c.7.1.9.2 1.3.4.6.4 1.1 1 1.3 1.6.2.4.2 1.3.1 1.8-.2.8-.7 1.5-1.5 1.8a4 4 0 0 1-2 .4h-.8v-9.8h-1.7v11.4h3.8Z"/><path fill="#949494" d="M150 254.5c1.2 0 2.3-1 2.3-2.3v-2.4h-2.4c-1.3 0-2.3 1-2.3 2.4 0 1.2 1 2.3 2.3 2.3Z"/><path fill="#272727" d="M147.6 247.5c0-1.2 1-2.3 2.3-2.3h2.4v4.6h-2.4c-1.3 0-2.3-1-2.3-2.3Z"/><path fill="#949494" d="M147.6 242.9c0-1.3 1-2.3 2.3-2.3h2.4v4.6h-2.4c-1.3 0-2.3-1-2.3-2.3Z"/><path fill="#272727" d="M152.2 240.6h2.4c1.2 0 2.3 1 2.3 2.3 0 1.3-1 2.3-2.3 2.3h-2.4v-4.6Z"/><path fill="#949494" d="M157 247.5c0 1.3-1.1 2.3-2.4 2.3-1.3 0-2.4-1-2.4-2.3a2.3 2.3 0 0 1 4.7 0Z"/><path fill="#272727" d="M159.4 242.9v7.2h1v-3.4h2.2v-1h-2.3v-1.9h3v-.9h-4Zm5.7 1.5c.3 0 .6-.3.6-.6 0-.4-.3-.6-.6-.6-.4 0-.7.3-.7.6 0 .2 0 .3.2.4l.5.2Zm-.5.9v4.8h.9v-4.8h-1Zm4.5-.2a2.2 2.2 0 0 0-2.2 2.3c0 1.2 1 2.3 2.2 2.3a2 2 0 0 0 1.4-.6v.7a1.5 1.5 0 0 1-1 1.3l-.5.1c-.3 0-.6 0-.9-.2l-.4.8a2.5 2.5 0 0 0 3.4-.8l.3-1.2v-4.5h-1v.4a1.9 1.9 0 0 0-1.3-.6Zm-1.2 2.3.1-.7.5-.5c.4-.2 1-.2 1.4 0 .4.3.6.7.6 1.2a1.2 1.2 0 0 1-.6 1.2c-.5.3-1 .3-1.4 0-.4-.2-.7-.7-.6-1.2Zm6.8-1.2a1 1 0 0 0-.7.3 1 1 0 0 0-.3.7v3h-.9v-4.8h1v.4c.2-.4.7-.6 1.1-.6.6 0 1.2.3 1.5.8.3-.5.8-.8 1.4-.8 1 0 1.7.9 1.7 2v3h-1v-3a1 1 0 0 0-.4-1 1 1 0 0 0-1 0 1 1 0 0 0-.5 1v3h-.9v-3a1 1 0 0 0-.3-.8 1 1 0 0 0-.7-.3Zm9.7-.3a2.2 2.2 0 0 0-1.6-.7c-1.4 0-2.3 1.2-2.3 2.6 0 1.3 1 2.5 2.3 2.5a2.2 2.2 0 0 0 1.6-.7v.6h1v-5h-1v.7Zm-3 1.9c0-.6.2-1.1.7-1.4a1.5 1.5 0 0 1 2.1.6c.2.2.2.5.2.8 0 .6-.2 1.1-.7 1.4a1.5 1.5 0 0 1-2.2-.6 1 1 0 0 1-.1-.8Z"/><g clip-path="url(#j)"><path fill="#272727" d="M232 261.5c8 0 14.3-6.3 14.3-14s-6.4-14-14.2-14c-8 0-14.3 6.3-14.3 14s6.4 14 14.3 14Z"/><path fill="#EEE" d="m224.6 247.5 2.5-2.4a.4.4 0 0 0 0-.6.4.4 0 0 0-.7 0l-2.4 2.4-2.4-2.4a.4.4 0 0 0-.7 0 .4.4 0 0 0 0 .6l2.5 2.4-2.5 2.4a.4.4 0 0 0 0 .3.4.4 0 0 0 .2.4.5.5 0 0 0 .3 0l.2-.1 2.4-2.4 2.4 2.4h.3a.4.4 0 0 0 .4 0 .4.4 0 0 0 0-.6l-2.5-2.4m14.5 0c0 .4.4.8.8.8l.6-.3.2-.5-.2-.6a.8.8 0 0 0-.6-.2c-.4 0-.8.4-.8.8m-1.5 0c0-1.3 1-2.3 2.3-2.3a2.3 2.3 0 1 1 0 4.5c-.6 0-1.2-.2-1.6-.6a2 2 0 0 1-.7-1.6Zm-1 0c0 1.7 1.5 3.1 3.3 3.1 1.8 0 3.2-1.4 3.2-3.1 0-1.7-1.4-3.1-3.2-3.1-.9 0-1.7.3-2.3.9-.6.6-1 1.4-1 2.2Zm-.1-3h-.2c-.4 0-.8 0-1 .3l-.2-.3a.5.5 0 0 0-.5 0 .4.4 0 0 0-.2.2v5.7a.4.4 0 0 0 .7 0l.1-.3V247c0-1 .1-1.5 1-1.6h.3c.2 0 .4-.2.4-.5l-.1-.3h-.3M228 247c.1-.6.4-1 .8-1.3a2.3 2.3 0 0 1 2.9 0c.4.3.7.8.8 1.3H228Zm5.4-.1a3.1 3.1 0 0 0-3.2-2.5c-.7 0-1.3.2-1.8.5a3.2 3.2 0 0 0-1.3 3.4 3.3 3.3 0 0 0 3.9 2.3l1-.5.8-.7c.2-.3.1-.6 0-.7-.2-.1-.5-.2-.7.1l-.2.2a1 1 0 0 1-.6.5 2.3 2.3 0 0 1-3.3-1.6h4.5c.6 0 1-.5.9-1Z"/></g><g clip-path="url(#k)"><mask id="l" width="67" height="14" x="278" y="241" maskUnits="userSpaceOnUse" style="mask-type:luminance"><path fill="#fff" d="M344.9 241h-66v13h66v-13Z"/></mask><g mask="url(#l)"><path fill="#272727" d="M318.2 252.3h2.1V249c0-2 1.8-2 2.7-1.8V245c-1.5-.1-2.3.3-2.7 1v-1h-2v7.2Zm11 0h1.3l2.1-2.7 1.9 2.7h2.4L334 248l2.6-3H334l-2.9 3.6v-7.2h-2v10.8Zm-23.8 0h1.6l2.5-4.6 2.4 4.6h1.7l3.7-7.2h-2.5l-2.2 4.6-2.2-4.6h-1.8l-2.2 4.6-2.2-4.6h-2.5l3.7 7.2Zm20.4-8.2c.7 0 1.3-.6 1.3-1.3 0-.7-.6-1.3-1.3-1.3-.7 0-1.3.6-1.3 1.3 0 .7.6 1.3 1.3 1.3Zm1.1 1h-2.1v7.2h2V245Zm-43.2.6c1 0 1.5.2 2.2 1l4 3.8.1.2v.1l-.1.3-2.7 2.6-.2.2h-.2l-.2-.2-7.6-7.4c-.2-.2-.2-.6.2-.6h4.5Zm11.1-4.7c-1 0-1.5.2-2.2 1l-4 3.8-.1.2v.2l.2.2 2.6 2.6.3.2h.1l.2-.2 7.6-7.4c.2-.2.2-.6-.2-.6h-4.5Zm48.1 9a2 2 0 0 1-1.7.8c-1 0-1.8-.6-2-1.5h5.7v-.6c0-2-1.5-3.7-3.8-3.7a3.8 3.8 0 0 0-3.9 3.7c0 2.1 1.7 3.8 4 3.8 1.6 0 2.6-.7 3.2-1.5l-1.5-1Zm-1.9-3.4c1 0 1.6.5 1.9 1.3H339c.3-.8 1-1.3 2-1.3Z"/></g></g><defs><clipPath id="a"><path fill="#fff" d="M24.2 11H67v12H24.2z"/></clipPath><clipPath id="b"><path fill="#fff" d="M0 4.2h19.3V23H0z"/></clipPath><clipPath id="c"><path fill="#fff" d="M0 122h93.6v17.4H0z"/></clipPath><clipPath id="d"><path fill="#fff" d="M182.2 121.7h161.2v18.2H182.2z"/></clipPath><clipPath id="e"><path fill="#fff" d="M88.2 156h26v26.8h-26z"/></clipPath><clipPath id="f"><path fill="#fff" d="M4.6 198.9h61v17h-61z"/></clipPath><clipPath id="g"><path fill="#fff" d="M96.6 198.9H114v16.9H96.6z"/></clipPath><clipPath id="h"><path fill="#fff" d="M121.9 198.9h64.7V216h-64.7z"/></clipPath><clipPath id="i"><path fill="#fff" d="M0 236.7h55.7v21.6H0z"/></clipPath><clipPath id="j"><path fill="#fff" d="M217.8 233.2h28.6v28.6h-28.6z"/></clipPath><clipPath id="k"><path fill="#fff" d="M278.9 241h66v13h-66z"/></clipPath></defs></svg>