<svg xmlns="http://www.w3.org/2000/svg" xmlns:xlink="http://www.w3.org/1999/xlink" width="314" height="401" fill="none"><defs><path id="i" fill="#383838" d="M304.01 342.66h-1.54a2.5 2.5 0 0 0 2.26 1.44v-.72a.72.72 0 0 0-.72-.72Z" opacity=".2"/></defs><path stroke="#000" d="m116 1 39.5 16.5L194 1"/><g fill="#000" clip-path="url(#a)"><path d="M5.6 69.13a1.6 1.6 0 0 1-1.4-.82c-.28-.5-.27-1.11.04-1.6l2.9-4.54a1.61 1.61 0 0 1 2.8.08c.27.5.24 1.12-.09 1.6l-2.88 4.54c-.3.46-.82.74-1.37.74Zm4.96 0a1.6 1.6 0 0 1-1.4-.81c-.28-.5-.26-1.12.04-1.6l2.89-4.53c.3-.5.84-.8 1.43-.8a1.6 1.6 0 0 1 1.39.86 1.6 1.6 0 0 1-.1 1.61l-2.9 4.53c-.29.46-.8.74-1.35.74Zm4.84.04c.83 0 1.5-.66 1.5-1.46 0-.8-.67-1.46-1.5-1.46-.82 0-1.48.66-1.48 1.46 0 .8.66 1.46 1.48 1.46Zm64.63-2.83c.45 0 .72.32.72.84v1.8h.6v-1.84c0-.89-.41-1.4-1.2-1.4-.3 0-.8.08-1.1.65a1 1 0 0 0-.8-.62 1.4 1.4 0 0 0-.35-.02c-.25.02-.7.17-.87.53v-.48h-.6v3.17h.6v-1.7c0-.67.44-.93.88-.93.4 0 .67.31.67.83v1.8h.61v-1.7c0-.54.32-.94.84-.93Zm-5.85 2.1a1 1 0 0 0 .74-.3c.2-.2.3-.48.3-.76a1 1 0 0 0-1.04-1.04 1 1 0 0 0-1.03 1.04 1 1 0 0 0 1.03 1.07Zm0 .6a1.6 1.6 0 0 1-1.64-1.67c0-1 .75-1.64 1.64-1.64.9 0 1.64.64 1.64 1.64 0 1.01-.75 1.67-1.64 1.67Zm-4.78-1.67c0-1 .76-1.64 1.66-1.64.45 0 .9.18 1.2.51l-.46.4c-.2-.2-.47-.3-.74-.3-.57 0-1.06.4-1.06 1.03 0 .44.26.82.65.99.4.17.85.07 1.15-.23l.47.4c-.31.33-.75.52-1.21.51-.9 0-1.66-.66-1.66-1.67Zm-1.96 1a.42.42 0 0 1 .42-.43.42.42 0 0 1 .42.43c-.01.22-.2.4-.42.4a.42.42 0 0 1-.42-.4Zm1.67-6.6h-2.17L65.4 65.7l-1.51-3.93h-2.17l2.64 6.2-1.65 4.1h2.16l4.23-10.3ZM55.9 65.22c0 1 .87 1.64 1.72 1.64.84 0 1.66-.6 1.66-1.64s-.82-1.65-1.66-1.65c-.85 0-1.72.66-1.72 1.65Zm3.38 3.47v-.79c-.44.67-1.47.92-2 .92a3.51 3.51 0 0 1-3.5-3.6c0-2.22 1.75-3.6 3.5-3.6.44 0 1.47.15 2 .92v-.77h2.03v6.92h-2.03Zm-6.07 0h-2.03v-.86c-.33.63-1.15 1-2 1-1.77 0-3.33-1.4-3.33-3.58 0-2.22 1.56-3.63 3.32-3.63.85 0 1.68.35 2.01 1V58h2.03v10.69Zm-2.07-3.49c0-1.03-.75-1.64-1.59-1.64-.86 0-1.58.65-1.58 1.64 0 1.03.72 1.68 1.58 1.68.86 0 1.59-.68 1.59-1.68Zm-10.3-.17c0-1.06.55-1.41 1.27-1.41.69 0 1.19.46 1.19 1.38v3.69h2.04v-4.14c0-1.97-.97-2.93-2.51-2.93a2.3 2.3 0 0 0-1.99 1.15v-1H38.8v6.92h2.04v-3.66Zm-6.18 3.77a3.48 3.48 0 0 1-3.56-3.6 3.46 3.46 0 0 1 3.56-3.58c1.94 0 3.57 1.4 3.57 3.58s-1.63 3.6-3.57 3.6Zm0-2.01c.85 0 1.56-.62 1.56-1.59 0-.93-.7-1.57-1.56-1.57a1.54 1.54 0 0 0-1.54 1.57c0 .97.7 1.59 1.54 1.59Zm-7.21-3.17c.6 0 1.13.47 1.13 1.38v3.69h2.02v-3.93c0-2.1-1.01-3.14-2.64-3.14-.48 0-1.4.14-2.06 1.23-.38-.8-1.11-1.22-2.2-1.22-.77 0-1.47.44-1.79 1.14v-1h-2.04v6.92h2.04v-3.66c0-1.06.57-1.41 1.19-1.41.59 0 1.11.46 1.13 1.33v3.74h2.04v-3.66c0-1.01.53-1.41 1.18-1.41Z"/></g><g fill="#000" clip-path="url(#b)"><path d="M160.47 65.51v-1.64c0-1.53.79-2.48 2.06-2.48.73 0 1.19.3 1.59.66l-.5.65c-.3-.25-.6-.43-1.09-.43-.76 0-1.18.54-1.18 1.56v1.68c0 .98.36 1.5 1.12 1.5.52 0 .88-.22 1.16-.44l.4.65c-.34.33-.92.66-1.59.66-1.22-.04-1.97-.95-1.97-2.37Zm7.69-.36v.47c0 1.31-.64 2.26-1.85 2.26-1.22 0-1.86-.91-1.86-2.26v-.47c0-1.32.64-2.23 1.86-2.23 1.21-.03 1.85.91 1.85 2.23Zm-2.8-.04v.51c0 .95.3 1.42.91 1.42.61 0 .95-.47.95-1.42v-.51c0-.91-.34-1.39-.95-1.39-.57 0-.9.48-.9 1.39Zm6.84-.62v3.28h-.9v-3.2c0-.59-.25-.85-.62-.85-.36 0-.64.22-.85.59v3.42h-.91v-4.7h.8l.05.48c.27-.4.64-.62 1.16-.62.73 0 1.28.58 1.28 1.6Zm.55 2.73.43-.62c.33.3.67.48 1.12.48.46 0 .76-.15.76-.51v-.07c0-.33-.15-.44-.67-.66l-.48-.22c-.61-.26-.94-.62-.94-1.2v-.19c0-.76.6-1.27 1.49-1.27.54 0 1.09.22 1.49.58l-.43.62c-.4-.29-.67-.36-1.03-.36-.43 0-.61.22-.61.43v.08c0 .25.12.4.64.62l.48.22c.55.25.98.54.98 1.27v.18c0 .88-.73 1.32-1.59 1.32a2.66 2.66 0 0 1-1.64-.7Zm6.15.51c-.19.08-.46.11-.7.11-.76 0-1.19-.4-1.19-1.27v-2.74h-.6v-.8h.6l.06-1.17h.82v1.17h.85v.8h-.85v2.67c0 .32.16.5.49.5.15 0 .27 0 .4-.03l.12.76Zm2.98-4.73-.16 1.02c-.06 0-.15-.04-.24-.04-.45 0-.82.22-1.03.95v2.8h-.91v-4.7h.66l.16.73c.24-.62.66-.84 1.06-.84.18 0 .34.04.46.08Zm3.77.03v4.7h-.8l-.05-.5c-.3.4-.7.65-1.19.65-.7 0-1.25-.55-1.25-1.42v-3.4h.92v3.33c0 .43.18.65.54.65.34 0 .67-.22.89-.62v-3.39h.94Zm.73 2.55v-.4c0-1.35.64-2.3 1.8-2.3.54 0 .94.22 1.3.63l-.43.58a1.04 1.04 0 0 0-.82-.37c-.57 0-.9.48-.9 1.43v.43c0 .95.32 1.43.9 1.43.37 0 .61-.19.86-.37l.36.66a1.9 1.9 0 0 1-1.28.54c-1.12 0-1.8-.9-1.8-2.26Zm5.99 2.15a1.9 1.9 0 0 1-.7.11c-.76 0-1.19-.4-1.19-1.27v-2.74h-.6v-.8h.6l.06-1.17h.83v1.17h.85v.8h-.82v2.67c0 .32.15.5.48.5.16 0 .28 0 .4-.03l.09.76Zm1.86-4.7v4.7h-.92v-3.9h-.57v-.8h1.49Zm-1.07-1.38c0-.37.24-.66.55-.66.3 0 .55.3.55.66 0 .36-.25.65-.55.65-.28 0-.55-.29-.55-.65Zm5.48 3.5v.47c0 1.31-.64 2.26-1.86 2.26-1.22 0-1.85-.91-1.85-2.26v-.47c0-1.32.63-2.23 1.85-2.23 1.22-.03 1.86.91 1.86 2.23Zm-2.77-.04v.51c0 .95.3 1.42.91 1.42.6 0 .94-.47.94-1.42v-.51c0-.91-.33-1.39-.94-1.39-.6 0-.91.48-.91 1.39Zm6.81-.62v3.28h-.91v-3.2c0-.59-.25-.85-.61-.85-.37 0-.64.22-.85.59v3.42h-.91v-4.7h.79l.06.48c.27-.4.64-.62 1.15-.62.73 0 1.28.58 1.28 1.6Zm2.74 1.02v-1.64c0-1.53.79-2.48 2.07-2.48.73 0 1.18.3 1.58.66l-.49.65c-.3-.25-.6-.43-1.1-.43-.75 0-1.18.54-1.18 1.56v1.68c0 .98.37 1.5 1.13 1.5.51 0 .88-.22 1.15-.44l.4.65c-.34.33-.91.66-1.58.66-1.22-.04-1.98-.95-1.98-2.37Zm5.2 1.13c0 .26.06.37.27.37h.15l.1.76c-.16.07-.3.11-.52.11-.55 0-.91-.36-.91-1.06v-5.65h.9v5.47Zm4.53-1.49v.47c0 1.31-.64 2.26-1.85 2.26-1.22 0-1.86-.91-1.86-2.26v-.47c0-1.32.64-2.23 1.86-2.23 1.21-.03 1.85.91 1.85 2.23Zm-2.8-.04v.51c0 .95.3 1.42.91 1.42.61 0 .95-.47.95-1.42v-.51c0-.91-.34-1.39-.95-1.39-.57 0-.9.48-.9 1.39Zm6.78-2.08v4.7h-.78l-.07-.5c-.3.4-.7.65-1.18.65-.7 0-1.25-.55-1.25-1.42v-3.4h.91v3.33c0 .43.19.65.55.65.34 0 .67-.22.88-.62v-3.39h.94Zm4.2-1.86v6.56h-.73l-.09-.5c-.27.36-.6.61-1.1.61-.9 0-1.54-.87-1.54-2.22v-.51c0-1.31.63-2.22 1.6-2.22.4 0 .68.14.95.4v-2.12h.91Zm-.91 5.33v-2.37a.95.95 0 0 0-.8-.4c-.5 0-.84.47-.84 1.38v.55c0 .94.3 1.38.82 1.38.36 0 .6-.22.82-.54Zm-64.24-4.96h-1.58l-1.88 2.51v-2.51h-1.31v6.2h1.3V65.4l1.8 2.33h1.67l-2.4-3.06 2.4-3.13Zm-6.9 2.55-1.22-.15c-.7-.1-.88-.29-.88-.58 0-.33.37-.62 1.07-.62.66 0 1.03.3 1.1.77h1.3c-.06-1.32-.97-2.12-2.31-2.12-1.59 0-2.4.77-2.4 2.12 0 1.09.51 1.6 1.64 1.75l1.21.14c.46.07.67.3.67.55 0 .33-.3.62-1.06.62-.88 0-1.22-.26-1.28-.8h-1.28c.06 1.42.82 2.15 2.5 2.15 1.52 0 2.37-.8 2.37-2 .03-1.07-.49-1.69-1.43-1.83Zm-8.15 3.64h4.17V66.4h-2.86v-1.1h2.28v-1.35h-2.28V62.9h2.86v-1.35h-4.17v6.2ZM140 61.54h-2.44v6.2H140c1.85 0 2.37-.84 2.37-3.14 0-2.19-.49-3.06-2.37-3.06Zm-.03 4.85h-1.07v-3.54h1.06c.83 0 1.07.25 1.07 1.71 0 1.35-.27 1.83-1.06 1.83ZM134 61.35c-1.88 0-2.85 1.39-2.85 3.25 0 1.9.97 3.28 2.85 3.28 1.89 0 2.86-1.38 2.86-3.28 0-1.86-.97-3.25-2.86-3.25Zm0 5.15c-.97 0-1.52-.73-1.52-1.9 0-1.13.55-1.86 1.52-1.86.98 0 1.52.73 1.52 1.86 0 1.2-.54 1.9-1.52 1.9Zm-7.72-3.61h1.67v4.84h1.3V62.9h1.68v-1.35h-4.65v1.35Zm-1.92 2.47c0 .8-.42 1.14-1.12 1.14-.7 0-1.13-.33-1.13-1.14v-3.82h-1.3v4c0 1.8 1.33 2.34 2.46 2.34 1.12 0 2.43-.55 2.43-2.33v-4.01h-1.3v3.82h-.04Zm-7.45-3.82-1.98 6.2h1.37l.34-1.17h2.22l.33 1.16h1.4l-2-6.2h-1.68Zm.12 3.72.73-2.45.7 2.45h-1.43Zm-11.92 2.47 4.62-3.46h2.4c.1 0 .16.07.16.18 0 .08-.03.11-.06.15l-2.28 1.64c-.16.1-.22.33-.22.47v1.02h2.9v-5.97c0-.11-.1-.22-.19-.22h-2.77l-4.6 3.42v2.77h.04Z"/></g><g clip-path="url(#c)"><path fill="#000" d="M257.13 58.03h2v2.11h-2v-2.1Zm34.98 0h2v2.11h-2v-2.1Z"/><path fill="#E2E2E2" d="M252.72 60.9c-1.26 0-2 .57-2.34.96-.04-.34-.27-.78-1.13-.78h-1.88v1.98h.77c.13 0 .17.04.17.17v9h2.24V68.6c.35.32 1.02.77 2.06.77 2.2 0 3.72-1.74 3.72-4.24 0-2.53-1.45-4.23-3.61-4.23Zm-.46 6.51c-1.2 0-1.75-1.16-1.75-2.23 0-1.69.92-2.3 1.78-2.3 1.06 0 1.77.92 1.77 2.28 0 1.56-.9 2.25-1.8 2.25Z"/><path fill="#E2E2E2" d="M259.28 67.06v-4.78c0-.8-.38-1.2-1.18-1.2h-2v1.98h.77c.13 0 .17.04.17.17v4.76c0 .81.38 1.2 1.18 1.2h2v-1.96h-.77c-.12 0-.17-.05-.17-.17Z"/><path fill="#E2E2E2" d="M265.14 60.9c-1.26 0-2 .57-2.34.96-.05-.34-.27-.78-1.13-.78h-1.88v1.98h.77c.13 0 .17.04.17.17v9h2.24V68.6c.35.32 1.02.77 2.06.77 2.2 0 3.72-1.74 3.72-4.24 0-2.53-1.45-4.23-3.61-4.23m-.46 6.51c-1.2 0-1.75-1.16-1.75-2.23 0-1.69.92-2.3 1.78-2.3 1.06 0 1.77.92 1.77 2.28 0 1.56-.9 2.25-1.8 2.25Zm8.2-6.5c-2.41 0-4.1 1.73-4.1 4.22a4.14 4.14 0 0 0 4.33 4.24 4.84 4.84 0 0 0 3.23-1.22l.1-.1-.98-1.62-.15.14s-.9.83-2.06.83a2.07 2.07 0 0 1-2.14-1.77h5.31l.02-.15c0-.02.04-.5.04-.73 0-2.3-1.44-3.85-3.6-3.85Zm-1.69 3.06c.25-.8.85-1.25 1.7-1.25.67 0 1.19.51 1.28 1.25h-2.98Zm13.44 3.09v-7.83c0-.8-.39-1.2-1.2-1.2h-2v1.98h.77c.13 0 .18.04.18.17v1.41a3 3 0 0 0-2.1-.69c-2.17 0-3.68 1.74-3.68 4.23 0 2.54 1.45 4.24 3.61 4.24 1.24 0 1.95-.58 2.3-.98.05.35.27.8 1.11.8h1.94v-1.96h-.75c-.13 0-.18-.05-.18-.17Zm-4 .35c-1.06 0-1.75-.9-1.75-2.28 0-1.34.72-2.24 1.79-2.24 1.21 0 1.75 1.12 1.75 2.23 0 1.69-.92 2.3-1.78 2.3Zm9.93-6.43c-.93 0-1.8.54-2.3 1.4v-.19c0-.73-.4-1.1-1.2-1.1h-1.93v1.97h.78c.13 0 .17.04.17.17v5.95h2.24v-3.24c0-.42.05-.84.16-1.22a2.01 2.01 0 0 1 1.96-1.51c.25 0 .44.03.44.03l.2.02v-2.23l-.14-.02c-.01 0-.2-.03-.38-.03Zm3.7 6.08v-4.78c0-.8-.38-1.2-1.18-1.2h-1.81v1.98h.58c.13 0 .17.04.17.17v4.75c0 .82.38 1.2 1.18 1.2h2v-1.95h-.77c-.12 0-.17-.05-.17-.17Z"/><path fill="#E2E2E2" d="M302.69 63.06v-1.98h-1.2c-.7 0-1.07.25-1.3.84l-1.46 4.1c-.05.15-.1.31-.13.48l-.15-.49-1.46-4.09c-.23-.6-.59-.84-1.3-.84h-1.27v1.98h.33c.18 0 .23.06.27.17l2.27 5.95h2.51l2.27-5.95c.04-.11.1-.17.27-.17h.35Z"/><path fill="#E2E2E2" d="M309.89 65.48c0-.02.04-.5.04-.73 0-2.3-1.44-3.85-3.6-3.85-2.41 0-4.1 1.74-4.1 4.23a4.14 4.14 0 0 0 4.33 4.24 4.84 4.84 0 0 0 3.23-1.22l.1-.1-.98-1.62-.15.14s-.9.83-2.06.83a2.07 2.07 0 0 1-2.14-1.77h5.31l.02-.15Zm-5.25-1.51c.25-.8.85-1.25 1.7-1.25.67 0 1.19.51 1.28 1.25h-2.98Z"/><path fill="#000" d="M290.56 60.98c-.72 0-1.4.33-1.9.87h2.41v-.82l-.13-.02c-.01 0-.2-.03-.38-.03Zm9.63.94-.09.26 2.58.2v-1.3h-1.2c-.69 0-1.06.25-1.29.84Zm-47.47-1.02c-1.26 0-2 .57-2.34.96-.04-.34-.27-.78-1.13-.78h-1.88v1.98h.77c.13 0 .17.04.17.17v5.02c1.05-.37 2.1-.71 3.16-1.04-.66-.38-.96-1.23-.96-2.03 0-1.69.92-2.3 1.78-2.3 1.06 0 1.77.92 1.77 2.28 0 .58-.12 1.03-.32 1.38l2.55-.7c.02-.22.04-.46.04-.7 0-2.54-1.45-4.24-3.61-4.24Zm5.38.18h-2v1.98h.77c.13 0 .17.04.17.17v2.43l2.24-.54v-2.84c0-.8-.38-1.2-1.18-1.2Zm-.97-3.05h2v2.11h-2v-2.1Zm8 2.87c-1.25 0-1.98.57-2.33.96-.04-.34-.26-.78-1.13-.78h-1.88v1.98h.77c.13 0 .17.04.17.17v1.57l2.3-.47c.26-1.04.99-1.44 1.68-1.44.63 0 1.14.33 1.44.88l2.34-.37a3.42 3.42 0 0 0-3.35-2.5Zm7.75 0a3.9 3.9 0 0 0-3.75 2.4l2.9-.38c.24-.13.53-.2.86-.2.12 0 .23.02.34.06.88-.1 1.77-.2 2.67-.28a3.4 3.4 0 0 0-3.01-1.6Zm10.56-2.87h-2v1.98h.77c.13 0 .17.04.17.17v1.41a3 3 0 0 0-2.09-.69c-1.22 0-2.23.55-2.88 1.47 2.4-.2 4.81-.35 7.23-.43v-2.7c0-.81-.4-1.2-1.2-1.2Zm3.62 3.05h-1.92v.84l3.08-.07c-.11-.5-.5-.77-1.16-.77Zm5.05-3.05h2v2.11h-2v-2.1Zm.97 3.05h-1.8v.77c.98.01 1.97.03 2.95.06-.12-.55-.49-.83-1.15-.83Zm2.61 0h-1.27v.83l2.6.1-.03-.09c-.23-.6-.6-.84-1.3-.84Zm10.64-.18c-1.38 0-2.51.57-3.24 1.52 1.05.09 2.1.2 3.13.3l.48.06c1 .11 1.98.24 2.96.37a3.38 3.38 0 0 0-3.33-2.25Z"/></g><path fill="#000" d="m13.16 102.58-5.08 3.28 5.08 3.23-5.08 3.22L3 109.05l5.08-3.23L3 102.58l5.08-3.23 5.08 3.23Zm-5.08 10.77 5.08-3.23 5.04 3.23-5.04 3.23-5.08-3.23Zm5.08-4.3 5.08-3.24-5.08-3.23 5.04-3.23 5.08 3.23-5.08 3.28 5.08 3.23-5.08 3.22-5.04-3.27Zm14.08-6.47h4.14c2.62 0 4.78 1.51 4.78 5v.73c0 3.45-2.03 5.04-4.7 5.04h-4.22v-10.77Zm2.33 1.94v6.85h1.77c1.46 0 2.45-.95 2.45-3.15v-.55c0-2.16-1.03-3.15-2.54-3.15h-1.68Zm7.8.13h1.85l.3 2.02c.34-1.37 1.2-2.1 2.84-2.1h.56v2.32h-.95c-1.85 0-2.32.65-2.32 2.5v3.96H37.4v-8.7h-.05Zm6.02 4.52v-.21c0-2.93 1.85-4.52 4.4-4.52 2.54 0 4.39 1.59 4.39 4.52v.21c0 2.89-1.77 4.44-4.4 4.44-2.62 0-4.39-1.55-4.39-4.44Zm6.46 0v-.21c0-1.64-.82-2.63-2.1-2.63-1.3 0-2.12.9-2.12 2.63v.21c0 1.55.82 2.46 2.11 2.46 1.3 0 2.11-.9 2.11-2.46Zm3.53-4.52h1.9l.21 1.64a2.93 2.93 0 0 1 2.84-1.86c2.24 0 3.67 1.6 3.67 4.53v.26c0 2.84-1.6 4.39-3.66 4.39-1.38 0-2.33-.65-2.76-1.64v4.4h-2.24v-11.72h.04Zm6.33 4.52v-.21c0-1.73-.9-2.59-2.06-2.59-1.17 0-2.11 1-2.11 2.59v.17c0 1.55.81 2.5 2.06 2.5s2.11-.86 2.11-2.46Zm5.64 2.59-.17 1.59h-1.94v-11.63h2.2v4.48c.47-1.16 1.46-1.77 2.84-1.77 2.07.05 3.62 1.47 3.62 4.35v.26c0 2.89-1.46 4.57-3.66 4.57-1.46-.05-2.41-.73-2.89-1.85Zm4.22-2.72v-.21c0-1.6-.86-2.5-2.06-2.5-1.2 0-2.11 1.03-2.11 2.54v.17c0 1.64.82 2.59 2.06 2.59 1.25 0 2.11-.86 2.11-2.59Zm3.28.13v-.21c0-2.93 1.9-4.52 4.43-4.52 2.54 0 4.4 1.59 4.4 4.52v.21c0 2.89-1.81 4.44-4.4 4.44-2.58 0-4.43-1.55-4.43-4.44Zm6.54 0v-.21c0-1.64-.82-2.63-2.1-2.63-1.3 0-2.12.9-2.12 2.63v.21c0 1.55.82 2.46 2.11 2.46 1.3 0 2.11-.9 2.11-2.46Zm5.26-.34-3.06-4.18h2.63l1.76 2.63 1.77-2.63h2.58l-3.1 4.18 3.27 4.52h-2.58l-1.98-2.89-1.94 2.89h-2.67l3.32-4.52Zm49.17-5.79h1.35v6.86c0 1.82-.8 3.07-2.67 3.07a4.17 4.17 0 0 1-1.6-.26v-1.31c.43.19.9.28 1.38.25 1.14 0 1.54-.66 1.54-1.64v-6.97Zm3.83-.54a.88.88 0 0 1 .88.8v.1a.92.92 0 0 1-.9 1.1.91.91 0 0 1-.9-1.1.85.85 0 0 1 .46-.82c.1-.05.2-.08.31-.09h.15Zm-.66 2.91h1.28v7.48H137v-7.48Zm3.25 0h1.24v1.31c.44-.87 1.2-1.5 2.67-1.42v1.28c-1.68-.18-2.67.33-2.67 1.9v4.45h-1.24v-7.52Zm9.96 6.17a2.66 2.66 0 0 1-2.55 1.5c-1.97 0-3-1.72-3-3.91 0-2.19 1.07-3.9 3.18-3.9a2.41 2.41 0 0 1 2.37 1.45v-1.3h1.32v7.47h-1.32v-1.31Zm-2.19.3c1.17 0 2.2-.74 2.2-2.42v-.62c0-1.68-.96-2.4-2.05-2.4-1.1 0-2.19.94-2.19 2.7 0 1.75.7 2.73 2.04 2.73Zm11.14 1.2a7.13 7.13 0 0 1-3.55-.77v-1.39c1.13.55 2.37.84 3.62.84 1.5 0 2.04-.58 2.04-1.46 0-.87-.54-1.35-2.4-1.82-1.87-.48-3.22-1.32-3.22-2.92 0-1.6 1.17-2.67 3.47-2.67 1.05-.02 2.1.23 3.03.73v1.32a6.1 6.1 0 0 0-3.1-.73c-1.28 0-2.05.44-2.05 1.35 0 .91.62 1.2 2.37 1.64 1.76.44 3.25 1.2 3.25 3 0 1.78-1.02 2.88-3.47 2.88Zm4.63-3.95c0-2.26 1.31-3.86 3.54-3.86 2.22 0 3.58 1.64 3.58 3.86 0 2.23-1.32 3.95-3.58 3.95s-3.54-1.68-3.54-3.95Zm1.24 0c0 1.43.73 2.74 2.3 2.74 1.57 0 2.3-1.31 2.3-2.74 0-1.42-.7-2.66-2.3-2.66-1.6 0-2.3 1.24-2.3 2.66Zm9.16-3.72h1.93v1.17h-1.93v6.31h-1.28v-6.31h-1.2v-1.17h1.2v-.84c0-1.38.77-2.33 2.41-2.33.28 0 .57.03.84.1v1.21l-.8-.07a1.05 1.05 0 0 0-1.14.66c-.06.15-.08.31-.07.47l.04.8Zm6.32 6.24.8-.1v1.23c-.29.1-.58.13-.88.11-1.6 0-2.37-.91-2.37-2.33v-3.98h-1.24v-1.17h1.2v-1.6h1.28v1.6h1.97v1.17h-1.97v3.94c0 .7.4 1.13 1.2 1.13Zm1.16-6.24h1.42l2.16 6.35 2.19-6.35h1.24l2.19 6.35 2.15-6.35h1.42l-2.73 7.48h-1.68l-1.28-3.61-.7-2.34-.69 2.34-1.31 3.61h-1.64l-2.74-7.48Zm18.69 6.17a2.6 2.6 0 0 1-2.52 1.5c-2 0-3.03-1.72-3.03-3.91 0-2.19 1.06-3.9 3.17-3.9a2.4 2.4 0 0 1 2.38 1.45v-1.3h1.31v7.47h-1.31v-1.31Zm-2.2.3c1.17 0 2.2-.74 2.2-2.42v-.62c0-1.68-.95-2.4-2.05-2.4-1.1 0-2.19.94-2.19 2.7 0 1.75.73 2.73 2.05 2.73Zm5.48-6.47h1.24v1.31c.44-.87 1.2-1.5 2.66-1.42v1.28c-1.64-.18-2.66.33-2.66 1.9v4.45h-1.24v-7.52Zm8.47 7.67c-2.81 0-4.05-1.65-4.05-3.95 0-2.3 1.27-3.86 3.57-3.86s3.21 1.6 3.21 3.86v.59h-5.47c.18 1.28 1.02 2.11 2.77 2.11.79 0 1.56-.13 2.3-.4v1.2a6.2 6.2 0 0 1-2.33.45Zm-2.78-4.46h4.2c-.07-1.38-.7-2.19-1.97-2.19-1.28 0-2.08.88-2.23 2.2Zm-81.78-1.02-5.58-5.55-.51-.54-4.2 4.2-1.9 1.9a.47.47 0 0 0-.17.36.47.47 0 0 0 .17.36l3.8 3.83 2.3 2.27 4.16-4.17.07-.07 1.86-1.86a.55.55 0 0 0 0-.73Zm-6.13 2.3-1.9-1.93 1.9-1.9 1.94 1.9-1.94 1.93Z"/><path fill="#E2E2E2" d="M121.41 106.07a3.21 3.21 0 0 1 0-4.53l-4.2 4.16 2.27 2.3 1.93-1.93Zm1.93 1.9-1.93 1.9a3.24 3.24 0 0 1 .7 3.51c-.16.4-.4.75-.7 1.05l4.2-4.2-2.27-2.26Z"/><path fill="#000" d="M244.69 105.27h1.17c.74 0 1.5.15 1.5 1 0 .73-.47 1.26-1.85 1.26h-1.3l.48-2.26Zm-5.18 8.32h3.41l.7-3.38h2.33c2.94 0 4.85-1.94 4.85-4.2 0-2.48-1.32-3.62-3.38-3.62h-5.55l-2.36 11.2Zm15.5-7.35.4 3.35h-2.14l1.73-3.35Zm-7.38 7.35h3.52L252 112h3.65l.18 1.59h3.38l-1.71-11.2h-3.4l-6.47 11.2Zm15.13-7.03 2.74-4.17h4.05l-5.47 7.05-.85 4.15h-3.44l.85-4.12-2.4-7.08h3.47l1.05 4.17Zm15.02 2.76c-.2 1.14-1.09 4.52-5.76 4.52-3.26 0-4.82-2.11-4.82-5.11 0-3.62 2.26-6.64 6.08-6.64 2.5 0 4.73 1.08 4.8 4.44h-3.27c.03-1.06-.47-1.66-1.52-1.66-1.92 0-2.62 2.2-2.62 3.8 0 .93.23 2.34 1.82 2.34 1.09 0 1.7-.73 1.91-1.73l3.38.04Zm2-6.93h3.47l-.83 3.88h3.14l.82-3.88h3.47l-2.34 11.2h-3.44l.91-4.44h-3.14l-.94 4.44h-3.44l2.32-11.2Zm11 0h9.25l-.59 2.88h-5.82l-.3 1.38h5.42l-.55 2.68h-5.41l-.3 1.38h5.94l-.59 2.88h-9.4l2.34-11.2Z"/><path fill="#000" d="m302.41 107.65-2.59-5.26h3.78l1.08 2.9 2.23-2.9H311l-4.67 5.26 2.73 5.94h-3.88l-1.23-3.12-2.62 3.12h-4.24l5.32-5.94ZM16.76 143.58H3.25c-.9 0-1.64.73-1.64 1.63v13.53c0 .9.73 1.63 1.64 1.63h13.51c.9 0 1.64-.73 1.64-1.63V145.2c0-.9-.73-1.63-1.64-1.63Z"/><path fill="#E2E2E2" d="M15.44 145.78h-3.56a.79.79 0 0 0-.79.79v5.77c0 .43.35.79.79.79h3.56a.8.8 0 0 0 .79-.8v-5.76a.79.79 0 0 0-.8-.79Zm-7.31 0H4.57a.79.79 0 0 0-.79.79v9.97c0 .43.35.79.8.79h3.55a.8.8 0 0 0 .79-.8v-9.96a.79.79 0 0 0-.8-.79Z"/><path fill="#000" d="M53.83 164.2a1.96 1.96 0 0 1-1.83-1.24c-.1-.25-.14-.5-.14-.77a1.97 1.97 0 0 1 3.94 0 1.97 1.97 0 0 1-1.97 2Zm1.97.27a.85.85 0 0 0 .72.68h.24a.17.17 0 0 0 .17-.17v-5.5a.17.17 0 0 0-.17-.17h-.79a.17.17 0 0 0-.17.17v.44a2.48 2.48 0 0 0-1.97-.82 3.1 3.1 0 1 0 1.08 5.99c.34-.14.64-.35.9-.62Zm3-.82a2.8 2.8 0 0 0 1.62.55c.51 0 1.06-.27 1.06-.75 0-.47-1.16-.71-1.9-.95-.75-.24-1.36-.78-1.36-1.6 0-.81 1.12-1.83 2.2-1.83.64 0 1.27.2 1.8.54.17.14.07.27.07.27l-.44.62a.16.16 0 0 1-.04.05.16.16 0 0 1-.06.03h-.07a.17.17 0 0 1-.07-.02 1.9 1.9 0 0 0-1.19-.4c-.74 0-1.05.3-1.05.68 0 .37.51.57 1.12.74.61.17 2.14.61 2.14 1.87 0 1.26-1.05 1.84-2.2 1.84a3.7 3.7 0 0 1-2.28-.72.2.2 0 0 1-.04-.24l.45-.6a.16.16 0 0 1 .04-.06.16.16 0 0 1 .06-.03.09.09 0 0 1 .07 0l.06.01Zm9.67.82a.85.85 0 0 0 .72.68h.24a.17.17 0 0 0 .17-.17v-5.5a.17.17 0 0 0-.17-.17h-.79a.17.17 0 0 0-.17.17v.44a2.48 2.48 0 0 0-1.97-.82 3.1 3.1 0 1 0 1.08 5.99c.34-.14.64-.35.9-.62Zm-1.97-.27a1.96 1.96 0 0 1-1.83-1.24c-.1-.25-.14-.5-.14-.77a1.97 1.97 0 1 1 3.8.77 1.98 1.98 0 0 1-1.83 1.24Zm10.1.44v-2.85c0-1.6-1.03-2.69-2.66-2.69a2.01 2.01 0 0 0-1.63.82.65.65 0 0 0-.22-.46.65.65 0 0 0-.49-.15h-.24a.17.17 0 0 0-.17.17V165a.17.17 0 0 0 .17.17h.92c0-.03.03-.06.03-.1v-3.26a1.56 1.56 0 0 1 1.57-1.56 1.54 1.54 0 0 1 1.56 1.56v3.27c0 .05.03.1.07.12a.2.2 0 0 0 .13.05h.92l.03-.1v-.51Zm6.04-.17a.85.85 0 0 0 .71.68h.24a.2.2 0 0 0 .13-.05.2.2 0 0 0 .07-.12v-5.5h-.03a.17.17 0 0 0-.17-.17h-.78a.17.17 0 0 0-.17.17v.44a2.48 2.48 0 0 0-1.97-.82 3.09 3.09 0 1 0 1.07 5.99c.34-.14.65-.35.9-.62Zm-1.97-.27a1.96 1.96 0 0 1-1.83-1.24c-.1-.25-.15-.5-.14-.77a1.97 1.97 0 1 1 3.8.77 1.98 1.98 0 0 1-1.83 1.24Zm-9.85-14.5a2.72 2.72 0 1 0 0 5.42 2.72 2.72 0 0 0 0-5.43Zm-7.03 0a2.71 2.71 0 1 0 0 5.42 2.71 2.71 0 0 0 0-5.43Zm6.21-3.4a2.72 2.72 0 1 1-5.43 0 2.72 2.72 0 0 1 5.43 0Zm58.84 5.47a4.58 4.58 0 0 0-4.05 2.42 4.6 4.6 0 0 0-6.82-1.5v-3.86a.91.91 0 0 0-1.83 0v7.59a4.59 4.59 0 0 0 8.65 2.07 4.57 4.57 0 1 0 4.05-6.72Zm-8.1 7.34a2.77 2.77 0 1 1-.05-5.54 2.77 2.77 0 0 1 .05 5.54Zm8.1 0a2.76 2.76 0 1 1-.05-5.53 2.76 2.76 0 0 1 .05 5.53Z"/><path fill="#000" d="m139.58 159.5-2.34-3.13 2.34-3.16a.91.91 0 0 0-.87-1.44.94.94 0 0 0-.6.35l-2.04 2.72-2.02-2.72a.92.92 0 0 0-1.46 1.09l2.35 3.16-2.35 3.13a.92.92 0 0 0 .87 1.38.92.92 0 0 0 .59-.29l2.02-2.7 2.03 2.7a.94.94 0 0 0 1.28.17.91.91 0 0 0 .2-1.25Zm43.22 3.38h-1.44v-5.68h1.43v5.68Zm11.55-4.04a2.5 2.5 0 0 0-1.23-.3 1.48 1.48 0 0 0-1.54 1.5 1.49 1.49 0 0 0 .94 1.43c.2.07.4.11.6.1.43 0 .85-.1 1.23-.3v1.5c-.42.14-.86.2-1.3.2-1.64 0-3.04-1.09-3.04-2.93 0-1.85 1.26-2.94 3.04-2.94.44 0 .88.07 1.3.2v1.54Zm-14.97 0c-.37-.2-.78-.3-1.2-.3a1.54 1.54 0 0 0-1.23 2.68 1.53 1.53 0 0 0 1.23.36c.42 0 .83-.11 1.2-.31v1.5c-.42.14-.86.21-1.3.2-1.6 0-3.05-1.09-3.05-2.93a2.9 2.9 0 0 1 3.05-2.94c.44 0 .88.07 1.3.2v1.54Zm19.48-.3a1.5 1.5 0 1 0 0 3 1.5 1.5 0 0 0 0-3Zm3.01 1.5a3 3 0 1 1-3-2.94 2.93 2.93 0 0 1 2.78 1.8c.15.35.22.75.22 1.14Zm-13.64-1.54c-.37-.1-.75-.15-1.13-.17-.58 0-.89.17-.89.44 0 .28.41.48.65.55l.41.14c.93.3 1.34.92 1.34 1.6 0 1.44-1.23 1.92-2.33 1.92-.53-.01-1.05-.06-1.57-.14v-1.33c.44.14.9.22 1.37.24.71 0 1.02-.2 1.02-.55 0-.34-.27-.44-.61-.55l-.31-.1c-.82-.27-1.47-.72-1.47-1.67 0-.96.79-1.78 2.12-1.78.47.01.94.07 1.4.17v1.23Zm-14.7-7.42a.71.71 0 0 0-.72-.68.68.68 0 0 0-.66.41.68.68 0 0 0-.05.27v1.5a.68.68 0 0 0 .2.5.67.67 0 0 0 .51.19.72.72 0 0 0 .72-.68v-1.5Zm3.9-1.95a.72.72 0 0 0-.72-.71.76.76 0 0 0-.72.71v3.46a.72.72 0 1 0 1.44 0v-3.46Zm3.93-2.66a.72.72 0 0 0-.72-.72.72.72 0 0 0-.72.72v7.55a.72.72 0 0 0 .72.69.75.75 0 0 0 .72-.69v-7.55Zm3.9 2.66a.72.72 0 0 0-.72-.71.76.76 0 0 0-.72.71v3.46c0 .1.02.18.06.27a.73.73 0 0 0 .38.39.72.72 0 0 0 1-.66v-3.46Zm3.9 1.95a.68.68 0 0 0-.72-.68.69.69 0 0 0-.69.68v1.5a.69.69 0 0 0 .69.72.71.71 0 0 0 .71-.71v-1.5Zm3.93-1.95a.75.75 0 0 0-.76-.68.69.69 0 0 0-.68.68v3.46a.72.72 0 0 0 .72.71.72.72 0 0 0 .72-.71v-3.46Zm3.9-2.66a.72.72 0 0 0-1.44 0v7.55a.72.72 0 0 0 1.2.53.72.72 0 0 0 .23-.5v-7.58Zm3.89 2.66a.72.72 0 0 0-.7-.87.7.7 0 0 0-.56.27.72.72 0 0 0-.14.6v3.46a.7.7 0 0 0 .19.5.68.68 0 0 0 .5.21.72.72 0 0 0 .7-.71v-3.46Zm3.93 1.95a.72.72 0 0 0-.72-.68.68.68 0 0 0-.72.68v1.5a.72.72 0 0 0 1.44 0v-1.5Zm-.82 11.04v.1h-.27v.66h-.1v-.65h-.25v-.1h.62Zm.03 0h.17l.21.62h.03l.2-.62h.18v.76h-.14v-.62l-.2.62h-.1l-.24-.62v.62h-.1v-.76Z"/><g clip-path="url(#d)"><path fill="#000" d="M244.9 162.01c4.26 0 7.73-3.4 7.73-7.58a7.66 7.66 0 0 0-7.74-7.58 7.66 7.66 0 0 0-7.73 7.58 7.66 7.66 0 0 0 7.73 7.58Z"/><path fill="#E2E2E2" d="m240.86 154.41 1.32-1.3a.23.23 0 0 0-.01-.31.23.23 0 0 0-.16-.07.23.23 0 0 0-.17.06l-1.32 1.29-1.32-1.3a.24.24 0 0 0-.17-.06.24.24 0 0 0-.17.07.23.23 0 0 0 0 .33l1.33 1.29-1.32 1.3a.24.24 0 0 0-.08.16c0 .03 0 .06.02.09 0 .03.03.05.05.07.02.03.05.04.08.06l.09.01.1-.01a.24.24 0 0 0 .07-.06l1.32-1.3 1.32 1.3a.24.24 0 0 0 .26.05.24.24 0 0 0 .1-.08.23.23 0 0 0 .03-.22.23.23 0 0 0-.05-.07l-1.32-1.3m7.85 0c0 .23.19.42.43.42a.42.42 0 0 0 .43-.42.42.42 0 0 0-.13-.3.43.43 0 0 0-.3-.12.42.42 0 0 0-.43.42m-.82 0c0-.67.56-1.22 1.25-1.22.68 0 1.24.55 1.24 1.22a1.25 1.25 0 0 1-2.12.86 1.2 1.2 0 0 1-.37-.86Zm-.49 0c0 .94.78 1.7 1.74 1.7.95 0 1.73-.76 1.73-1.7s-.78-1.7-1.73-1.7c-.46 0-.9.18-1.23.5-.33.32-.5.75-.5 1.2Zm-.12-1.67h-.07a1 1 0 0 0-.6.2.24.24 0 0 0-.4-.11.22.22 0 0 0-.07.16v2.86c0 .06.03.12.07.16a.24.24 0 0 0 .32 0c.05-.04.07-.1.08-.16v-1.76c0-.59.05-.82.56-.89h.1c.14 0 .24-.1.24-.23a.23.23 0 0 0-.23-.23m-4.54 1.4v-.03c.07-.27.22-.5.45-.67a1.27 1.27 0 0 1 1.98.69h-2.43Zm2.91-.05a1.7 1.7 0 0 0-1.74-1.38 1.73 1.73 0 0 0-1.58 1.11c-.12.33-.14.68-.06 1.01a1.76 1.76 0 0 0 2.61 1.01c.18-.1.32-.24.45-.4l.01-.02a.23.23 0 0 0-.03-.35c-.08-.07-.23-.1-.34.05l-.09.1c-.09.1-.2.2-.34.28a1.27 1.27 0 0 1-1.77-.67 1.32 1.32 0 0 1-.05-.2v-.03h2.47c.33-.01.52-.25.46-.51Z"/></g><path fill="#000" d="M288.03 158.03v2.72c0 1.04-1.15 1.06-1.15 1.06s-1.17-.02-1.17-1.06v-2.72s-.04-.46-.7-.46v3.25a1.79 1.79 0 0 0 1.87 1.61 1.77 1.77 0 0 0 1.86-1.61v-3.25c-.64 0-.7.47-.7.47Zm16.14 0v2.72c0 1.04-1.15 1.06-1.15 1.06s-1.17-.02-1.17-1.06v-2.72s-.05-.46-.71-.46v3.25a1.87 1.87 0 0 0 3.74 0v-3.25c-.67 0-.71.47-.71.47Zm-9.04 2.79v-3.25c-.64 0-.71.47-.71.47v4.33h.7v-1.55Zm11.69 0v-3.25c-.66 0-.7.47-.7.47v4.33h.7v-1.55Zm5.48 0v-3.25c-.66 0-.7.47-.7.47v4.33h.7v-1.55Zm-20.4.99h-1.26v-1.6h1.28c.11 0 .66.08.66.79a.82.82 0 0 1-.68.81Zm-1.26-3.62h1.06a.68.68 0 0 1 .73.73c0 .66-.7.7-.7.7h-1.1v-1.43Zm1.81 1.7a1.24 1.24 0 0 0 .69-1.08c0-.78-.71-1.24-1.37-1.24h-1.82v4.8h2.32s1-.27 1-1.17c0-.91-.53-1.3-.82-1.3Zm5.66 1.95c-.93 0-1.37-.82-1.37-1.84 0-1.01.44-1.83 1.37-1.83.93 0 1.37.82 1.37 1.83 0 1.02-.44 1.84-1.37 1.84Zm2.25-.1h-.86a2.5 2.5 0 0 0 .69-1.72c0-1.06-.47-2.45-2.12-2.45 0 0-1.93-.13-2.06 2.41-.13 2.54 2.06 2.39 2.06 2.39a9.6 9.6 0 0 1 1.61-.07h1.1s-.04-.55-.41-.55Zm10.64-3.57h-3.5v-.6h3.5v.6Z"/><path fill="#000" d="M309.63 157.57v4.8h-.69v-4.8h.69Z"/><path fill="#000" fill-rule="evenodd" d="M294.29 144.3h-.69v-.72h.69v.73Zm1.37 3.61h-.69v-.73h.69v.73Zm0-2.23h-.69v-.7h.69v.7Zm.68-.71h-.68v-.7h.68v.7Zm0 1.9h-.68v-.7h.68v.7Zm.69-.86h-.69v-.7h.69v.7Z" clip-rule="evenodd"/><path fill="#000" fill-rule="evenodd" d="M293.6 145.46h.69v3.82h.66v-.68h.7v1.5h.72v-2.5h.68v5.15a4.27 4.27 0 0 0 2.06 3.27c-2.04 0-5.5-.93-5.5-5.04v-5.52Zm7.47 8.09s2.74-.16 3.56-3.85v-6.01s-3.45-.4-3.45 2.14-.1 7.72-.1 7.72Z" clip-rule="evenodd"/><path fill="#000" d="M285.18 163.83h.26l.65 1.04v-1.04h.24v1.41h-.27l-.64-1.04v1.04h-.24v-1.41Zm3.74 0h1.01v.22h-.77v.37h.7v.2h-.7v.4h.77v.22h-1.01v-1.41Zm3.44 0h1.15v.22h-.44v1.2h-.26v-1.2h-.45v-.22Zm3.58 0h.25l.26 1.08.3-1.08h.23l.3 1.08.26-1.08h.24l-.4 1.41h-.24l-.29-1.08-.29 1.08h-.24l-.38-1.41Zm4.4.7c0 .27.11.53.42.53s.42-.26.42-.53c0-.26-.1-.53-.42-.53-.3 0-.42.27-.42.53Zm1.1 0a.68.68 0 0 1-.4.68.73.73 0 1 1 0-1.35.68.68 0 0 1 .4.67Zm2.82-.04h.42a.23.23 0 0 0 .18-.06.21.21 0 0 0 .06-.18c0-.18-.13-.2-.24-.2h-.42v.44Zm-.25-.64h.69c.3 0 .46.13.46.37a.35.35 0 0 1-.24.36.27.27 0 0 1 .22.28.7.7 0 0 0 .07.38h-.27a.63.63 0 0 1-.02-.2c0-.26-.07-.37-.29-.37h-.37v.57H304v-1.4Zm3.69 0h.25v.64l.62-.64h.3l-.55.55.6.84h-.3l-.47-.66-.2.2v.46h-.25v-1.4Zm3.79.93c0 .22.15.3.35.3.2 0 .3-.1.3-.22.01-.03 0-.07-.02-.1a.18.18 0 0 0-.08-.07l-.42-.11a.36.36 0 0 1-.31-.36c0-.28.24-.42.5-.42.27 0 .54.16.54.45h-.25c0-.18-.13-.25-.3-.25-.18 0-.25.05-.25.18s.07.16.16.2l.42.1c.07.03.14.08.2.14a.4.4 0 0 1 .06.22c0 .31-.29.44-.55.44-.27 0-.6-.15-.6-.5h.25Z"/><path fill="#E2E2E2" d="M4.43 206.47a2.37 2.37 0 0 0 2.38-2.36v-2.37H4.43a2.37 2.37 0 0 0-2.37 2.37c0 1.3 1.06 2.36 2.37 2.36Z"/><path fill="#000" d="M2.05 199.38c0-1.3 1.07-2.36 2.38-2.36h2.38v4.73H4.43a2.37 2.37 0 0 1-2.38-2.37Z"/><path fill="#E2E2E2" d="M2.05 194.65c0-1.3 1.07-2.37 2.38-2.37h2.38v4.73H4.43a2.37 2.37 0 0 1-2.38-2.36Z"/><path fill="#000" d="M6.79 192.28h2.38a2.37 2.37 0 0 1 2.37 2.37c0 1.3-1.06 2.36-2.37 2.36H6.79v-4.72Z"/><path fill="#E2E2E2" d="M11.57 199.38a2.4 2.4 0 0 1-4.78 0c0-1.3 1.06-2.36 2.38-2.36a2.37 2.37 0 0 1 2.37 2.36h.03Z"/><path fill="#000" d="M14.09 194.65v7.39h.97v-3.53h2.34v-.92h-2.34v-2.02h3.05v-.92h-4.02Zm5.78 1.5c.35 0 .64-.28.64-.62 0-.34-.3-.58-.64-.58a.63.63 0 0 0-.64.62c0 .16.07.32.2.44a.6.6 0 0 0 .45.19l-.01-.05Zm-.5.93v4.96h.94v-4.96h-.96.03Zm4.6-.15c-1.3 0-2.2 1.11-2.2 2.34 0 1.23.91 2.33 2.2 2.33a1.96 1.96 0 0 0 1.44-.59v.66c0 .4-.16.78-.44 1.06a1.53 1.53 0 0 1-1.95.17l-.5.82a2.55 2.55 0 0 0 3.52-.81c.22-.38.34-.81.34-1.25v-4.58h-.97v.44a1.94 1.94 0 0 0-1.44-.59Zm-1.22 2.34a1.3 1.3 0 0 1 .63-1.22c.43-.26.97-.26 1.4 0 .43.26.67.73.63 1.22a1.27 1.27 0 0 1-.63 1.22c-.43.26-.97.26-1.4 0a1.3 1.3 0 0 1-.63-1.22Zm7.01-1.28c-.27 0-.53.1-.72.3-.19.2-.3.46-.3.73v3.15h-.94v-4.97h.94v.42c.29-.39.74-.61 1.22-.6.6-.02 1.15.3 1.45.84.37-.52.9-.84 1.46-.85 1.07 0 1.74.88 1.74 1.97v3.16h-.94V199a1.05 1.05 0 0 0-.45-1.02 1.01 1.01 0 0 0-1.48.44c-.08.18-.1.38-.08.58v3.14h-.9V199c0-.27-.11-.54-.3-.73a1 1 0 0 0-.72-.3l.02.03Zm9.87-.26a2.26 2.26 0 0 0-1.65-.71c-1.4 0-2.38 1.2-2.38 2.6 0 1.4.99 2.6 2.38 2.6a2.23 2.23 0 0 0 1.65-.71v.56h.94v-4.97h-.94v.63Zm-3.1 1.93a1.6 1.6 0 0 1 .73-1.48 1.54 1.54 0 0 1 2.2.63c.14.26.2.56.17.85.05.6-.23 1.16-.74 1.48a1.54 1.54 0 0 1-2.2-.64 1.62 1.62 0 0 1-.16-.84Z"/><g fill="#000" clip-path="url(#e)"><path d="M82.44 201.3h-2.7a.13.13 0 0 0-.13.13v1.3c0 .07.06.13.13.13h1.05v1.63s-.24.08-.89.08c-.77 0-1.85-.28-1.85-2.63 0-2.34 1.13-2.65 2.18-2.65.91 0 1.3.16 1.55.23.08.03.16-.05.16-.12l.3-1.26a.11.11 0 0 0-.05-.1c-.1-.07-.72-.42-2.29-.42-1.8 0-3.65.76-3.65 4.4 0 3.66 2.12 4.2 3.9 4.2 1.48 0 2.37-.63 2.37-.63.04-.02.04-.07.04-.1v-4.06a.12.12 0 0 0-.12-.13Zm13.92-3.25a.13.13 0 0 0-.13-.12h-1.52a.13.13 0 0 0-.13.12v2.91h-2.37v-2.9a.13.13 0 0 0-.13-.13h-1.52a.13.13 0 0 0-.13.12v7.87c0 .07.06.13.13.13h1.52c.07 0 .13-.06.13-.13v-3.36h2.37v3.37c0 .07.06.13.13.13h1.52c.07 0 .13-.06.13-.13v-7.88Zm-11.05 1.05a.98.98 0 1 0-1.96 0 .98.98 0 0 0 1.96 0Zm-.11 5.17v-3.64a.13.13 0 0 0-.12-.12h-1.52c-.07 0-.13.07-.13.14v5.2c0 .16.1.2.22.2h1.37c.15 0 .18-.08.18-.2v-1.58Zm16.94-3.75h-1.5a.13.13 0 0 0-.13.13v3.86s-.39.27-.93.27-.7-.24-.7-.77v-3.36a.13.13 0 0 0-.12-.13h-1.53a.13.13 0 0 0-.13.13v3.62c0 1.56.88 1.94 2.1 1.94 1 0 1.8-.54 1.8-.54s.03.28.05.32c.02.03.06.07.1.07h.98c.07 0 .13-.06.13-.13v-5.28a.12.12 0 0 0-.12-.13Zm4.13-.18c-.86 0-1.44.38-1.44.38v-2.67a.13.13 0 0 0-.13-.12h-1.53a.13.13 0 0 0-.12.12v7.87c0 .07.05.13.12.13h1.06c.04 0 .08-.03.1-.07.03-.04.07-.36.07-.36s.63.58 1.8.58c1.4 0 2.19-.7 2.19-3.12s-1.26-2.74-2.12-2.74Zm-.6 4.44c-.53-.02-.88-.25-.88-.25v-2.5s.35-.21.78-.25c.55-.05 1.07.11 1.07 1.4 0 1.35-.24 1.62-.97 1.6Zm-16.1-4.28h-1.14v-1.48c0-.06-.03-.09-.1-.09h-1.55c-.06 0-.1.03-.1.09v1.54l-.82.2a.12.12 0 0 0-.1.12v.97c0 .07.06.13.13.13h.8v2.32c0 1.73 1.23 1.9 2.06 1.9.37 0 .83-.12.9-.14a.12.12 0 0 0 .07-.12v-1.06a.13.13 0 0 0-.12-.13c-.07 0-.24.03-.41.03-.57 0-.75-.26-.75-.59v-2.21h1.13c.07 0 .13-.06.13-.13v-1.22a.13.13 0 0 0-.13-.12Z"/></g><g fill="#000" clip-path="url(#f)"><path d="M65.23 192.28a7.25 7.25 0 0 0-2.29 14.16c.36.07.5-.16.5-.35l-.01-1.35c-2.02.44-2.44-.86-2.44-.86-.33-.84-.8-1.06-.8-1.06-.67-.45.04-.44.04-.44.73.05 1.11.75 1.11.75.65 1.1 1.7.79 2.1.6.07-.47.26-.79.47-.97-1.61-.18-3.3-.8-3.3-3.59 0-.8.28-1.44.74-1.95-.07-.18-.32-.92.08-1.92 0 0 .6-.2 1.99.74a6.89 6.89 0 0 1 3.62 0c1.39-.94 2-.74 2-.74.39 1 .14 1.74.06 1.92.47.5.75 1.16.75 1.95 0 2.79-1.7 3.4-3.3 3.58.25.23.48.67.48 1.35v2c0 .19.13.41.5.34a7.26 7.26 0 0 0-2.3-14.16Z"/><path d="M60.7 202.63c-.02.04-.07.05-.12.03-.06-.03-.09-.08-.07-.11.02-.04.07-.05.13-.03.05.03.08.08.06.11Zm.36.32c-.04.03-.1.02-.15-.03-.05-.05-.06-.12-.02-.15.03-.03.1-.02.15.03.04.05.05.12.02.15m.24.41c-.04.03-.12 0-.16-.06-.05-.07-.05-.15 0-.18.04-.03.12 0 .16.06.05.07.05.15 0 .18m.41.47c-.04.05-.12.03-.18-.03-.07-.05-.08-.14-.04-.18.04-.05.12-.03.18.03.07.06.09.14.04.18Zm.54.16c-.02.06-.1.08-.18.06-.09-.03-.14-.1-.12-.15.01-.06.1-.08.18-.06.08.03.13.1.12.15Zm.6.07c0 .06-.06.1-.15.11-.08 0-.15-.05-.16-.1 0-.07.07-.11.16-.12.08 0 .16.05.16.1Zm.6-.02c.01.06-.05.12-.13.13-.09.02-.16-.02-.17-.08-.02-.06.05-.12.13-.13.09-.02.16.02.17.08Z"/></g><path fill="#000" d="M161.66 203.62a2.76 2.76 0 0 1-.55-1.82c0-.79.18-1.4.55-1.85.36-.44.86-.66 1.5-.66s1.13.22 1.5.66c.36.45.55 1.06.55 1.85 0 .77-.19 1.38-.56 1.82-.36.44-.85.66-1.49.66s-1.13-.22-1.5-.66Zm-2.8-6.72h8.9v9.57h-8.9v-2.1l.26-.74c.02-.05.02-.1.02-.15l-.29-2.2v-4.38Zm.56 4.9a3.87 3.87 0 0 0 2.29 3.64c.44.18.93.27 1.45.27a3.64 3.64 0 0 0 2.62-1.07 3.86 3.86 0 0 0 1.12-2.84 3.8 3.8 0 0 0-2.31-3.64 3.67 3.67 0 0 0-1.43-.27 3.52 3.52 0 0 0-2.63 1.09c-.36.36-.64.79-.83 1.27a4.2 4.2 0 0 0-.27 1.55Zm8.98-5.1v9.32l.77-.78v-9.44l-.77.9Zm-8.24-1.43-.9.98h8.67l.86-1-8.63.02Zm-3.6.78.56-1.57-8.67 1.2-.11.38.27 1.07 7.96-1.08Zm.58.32.43 3.04.67 4.76.25-.69-1.04-8-.31.9Zm-9.15 2.07.17.08-3.49 7.93-7.72-3.48 3.49-7.93 7.55 3.4Zm-1.67 2a3.98 3.98 0 0 0-1-2.63 3.5 3.5 0 0 0-1.19-.81c-.44-.2-.92-.3-1.4-.3h-.02a3.8 3.8 0 0 0-2.69 1.2 5 5 0 0 0-.88 1.38 4.52 4.52 0 0 0-.37 1.77c0 .46.08.92.24 1.36a3.41 3.41 0 0 0 1.96 2.04 3.42 3.42 0 0 0 2.81 0 4 4 0 0 0 1.29-.91c.36-.38.66-.84.88-1.37.24-.54.37-1.13.37-1.73Zm10.82.52.6 4.26-8.62 1.21-.9-6.42.66-1.52v-.01a.33.33 0 0 0 .02-.2l-.13-.52 7.76-1.06.61 4.26Zm-.98 3.56c0-.08 0-.16-.02-.23l-.9-6.2c-.05-.28-.15-.5-.3-.64a.67.67 0 0 0-.47-.17.97.97 0 0 0-.44.11.72.72 0 0 0-.24.23.89.89 0 0 0-.12.48c0 .07 0 .14.02.22l.34 2.38-2.66.4-.34-2.39a1.06 1.06 0 0 0-.3-.64.65.65 0 0 0-.58-.17.75.75 0 0 0-.56.33.87.87 0 0 0-.12.48c0 .07 0 .15.02.23l.9 6.2a1 1 0 0 0 .31.63.7.7 0 0 0 .47.17l.16-.01a.68.68 0 0 0 .51-.33c.08-.14.12-.3.12-.47l-.02-.22-.37-2.45 2.66-.4.37 2.45c.02.25.13.47.3.64.13.11.3.18.47.17a.98.98 0 0 0 .44-.11.7.7 0 0 0 .23-.22c.08-.15.13-.3.12-.47Zm-8.05-6.72-.5-2-7.69-3.52.62 2.1 7.57 3.42Zm-8.18-3.2-.57-1.95-2.73 6.47.33 2.2 2.97-6.73Zm3.63 3.73a2.02 2.02 0 0 0-.8-.17c-.29 0-.58.08-.84.22-.5.29-.93.8-1.25 1.56-.2.42-.3.88-.31 1.35 0 .21.03.41.08.6.16.56.52.96 1.1 1.2a2 2 0 0 0 .78.18c.3 0 .59-.08.85-.23.5-.28.92-.78 1.24-1.52.2-.44.3-.91.32-1.4 0-.2-.03-.4-.08-.58a1.77 1.77 0 0 0-1.09-1.2Zm-8.72.58.94 6.16-8.56 1.34-1.37-8.4 7.06-1.07 1.6-.25.33 2.22Zm-.9 5.46-.01-.15a.66.66 0 0 0-.14-.32.65.65 0 0 0-.3-.2 2.97 2.97 0 0 0-1 0l-2.42.41c.02-.18.12-.43.28-.73.24-.42.5-.82.8-1.2l.29-.38.2-.25c.55-.73.89-1.32 1.02-1.79a3.74 3.74 0 0 0 .1-1.58 1.53 1.53 0 0 0-.13-.42.6.6 0 0 0-.21-.25.82.82 0 0 0-.42-.09 4 4 0 0 0-.54.05l-2.8.48c-.34.06-.6.16-.75.31a.6.6 0 0 0-.2.45c0 .05 0 .1.02.15.04.23.16.41.36.5.13.05.28.08.43.08.11 0 .24-.01.37-.04l2.35-.4c.02.2 0 .38-.07.56-.07.2-.25.47-.52.83l-.37.45c-.63.76-1.08 1.41-1.35 1.96a4.27 4.27 0 0 0-.47 1.71c0 .14 0 .28.03.4.02.17.07.33.14.47.05.11.14.2.24.27.1.05.23.07.41.07.24 0 .55-.03.95-.1l2.55-.44c.45-.08.76-.18.94-.33a.6.6 0 0 0 .22-.48Zm1.2-8.24-.04.2 1.08 7.12.25-1.32-1.06-7.17-.23 1.18Zm-.14-2.7-8.6 1.38-.51 2.55 8.61-1.32.5-2.6Z"/><path fill="#000" fill-rule="evenodd" d="M233.18 196.3c.22.38.33.82.34 1.26v5.81a1.99 1.99 0 0 0 1.89 1.9h.63v-7.71a2.57 2.57 0 0 1 3.82-2.23c.4.25.72.58.97.97.18.4.27.83.3 1.26v5.81a1.99 1.99 0 0 0 1.88 1.9h.68v-7.71a5.19 5.19 0 0 0-7.26-4.69 5.1 5.1 0 0 0-1.75 1.3 5.1 5.1 0 0 0-6.73-.87 3.83 3.83 0 0 0-2.28-.87v12.83h.63a1.89 1.89 0 0 0 1.89-1.89v-5.81a2.48 2.48 0 0 1 2.52-2.57 2.51 2.51 0 0 1 2.23 1.31h.24Zm-43.98 8.96h10.27v-.63a1.94 1.94 0 0 0-1.89-1.89h-6.49l7.75-7.7v-.63a1.94 1.94 0 0 0-1.89-1.89H186.6v.63a1.98 1.98 0 0 0 1.89 1.9h6.44l-7.7 7.7v.67a2.03 2.03 0 0 0 1.93 1.89l.05-.05Zm34.1-10.94a6.45 6.45 0 0 1 0 9.1 6.54 6.54 0 0 1-9.1 0 6.42 6.42 0 0 1 1.99-10.66 6.45 6.45 0 0 1 7.1 1.56Zm-1.84 1.79a3.88 3.88 0 0 1-2.71 6.6 3.82 3.82 0 0 1-2.72-1.13 3.87 3.87 0 0 1 2.72-6.6 3.82 3.82 0 0 1 2.7 1.13Zm-16.23-3.68a6.44 6.44 0 0 1 4.56 10.99 6.44 6.44 0 0 1-9.06-9.1 6.26 6.26 0 0 1 4.5-1.9Zm2.76 3.68a3.87 3.87 0 1 1-5.47 5.48 3.87 3.87 0 0 1 5.47-5.48Zm69.52 6.47.63-1.46c.73.51 1.6.78 2.49.78.68 0 1.1-.27 1.1-.66-.03-1.07-3.98-.24-4-2.94 0-1.36 1.2-2.43 2.93-2.43a4.4 4.4 0 0 1 2.79.83l-.56 1.52a4.36 4.36 0 0 0-2.32-.75c-.53 0-.89.24-.89.57 0 1.07 3.98.5 4.04 3.08 0 1.4-1.19 2.4-2.91 2.4a5.51 5.51 0 0 1-3.3-.94Zm24.29-1.99a1.9 1.9 0 0 1-1.6.92 1.81 1.81 0 0 1-1.82-1.81 1.8 1.8 0 0 1 1.11-1.7 1.83 1.83 0 0 1 1.62.11c.28.16.52.4.69.67l1.72-.95a3.83 3.83 0 1 0 0 3.74l-1.72-.98Zm-17.22-7.9h2.2v10.69h-2.2v-10.69Zm19.8 0v10.69h2.2v-3.2l2.58 3.2h2.79l-3.3-3.8 3.06-3.56h-2.67l-2.47 2.94v-6.27h-2.2Z" clip-rule="evenodd"/><path fill="#000" d="M293.25 200.62a2 2 0 0 1-1.7.89 1.81 1.81 0 0 1-1.68-2.51 1.8 1.8 0 0 1 1.69-1.14 1.95 1.95 0 0 1 1.69.95v1.81Zm0-4.6v.86c-.36-.6-1.25-1.01-2.17-1.01-1.9 0-3.41 1.7-3.41 3.8 0 2.1 1.51 3.86 3.41 3.86.92 0 1.81-.42 2.17-1.04v.86h2.2v-7.33h-2.2Z"/><path fill="#000" fill-rule="evenodd" d="M264.04 200.59a1.4 1.4 0 0 1-1.37 1.37 1.37 1.37 0 0 1-1.33-1.37 1.34 1.34 0 0 1 1.33-1.34h1.37v1.34Zm.65 0a1.37 1.37 0 0 1 2.7 0v3.38a1.37 1.37 0 0 1-2.24.84 1.37 1.37 0 0 1-.46-.84v-3.38Zm1.37-5.4a1.35 1.35 0 0 1-1.26-.82 1.31 1.31 0 0 1-.11-.52 1.37 1.37 0 0 1 2.38-1.1 1.36 1.36 0 0 1 .32 1.1v1.34h-1.33Zm0 .68a1.37 1.37 0 0 1 0 2.7h-3.39a1.36 1.36 0 0 1-1.44-.78 1.36 1.36 0 0 1 .86-1.88c.19-.06.39-.07.58-.04h3.39Zm5.37 1.37a1.36 1.36 0 0 1 1.36-1.37 1.36 1.36 0 0 1 0 2.7h-1.36v-1.33Zm-.66 0a1.36 1.36 0 0 1-1.36 1.33 1.34 1.34 0 0 1-1.34-1.33v-3.39a1.36 1.36 0 0 1 1.34-1.36 1.4 1.4 0 0 1 1.36 1.36v3.39Zm-1.36 5.36a1.4 1.4 0 0 1 1.36 1.37 1.36 1.36 0 0 1-2.3.95c-.26-.25-.4-.6-.4-.95v-1.36h1.34Zm0-.64a1.36 1.36 0 0 1-1.34-1.37 1.34 1.34 0 0 1 1.34-1.34h3.38a1.34 1.34 0 0 1 1.34 1.34 1.36 1.36 0 0 1-1.34 1.37h-3.38Z" clip-rule="evenodd"/><path fill="#000" d="M32.94 240.04h2.67c-.45-2.81-2.9-4.77-6.1-4.77-3.78 0-6.62 2.75-6.62 7.37 0 4.54 2.7 7.36 6.7 7.36 3.58 0 6.14-2.29 6.14-5.98v-1.73h-5.87v2.03h3.33c-.04 2.05-1.41 3.34-3.59 3.34-2.42 0-4.08-1.8-4.08-5.04 0-3.23 1.69-5.02 4.02-5.02 1.75 0 2.94.92 3.4 2.44Zm4.55 9.76h2.55v-10.75H37.5v10.75Zm1.29-12.46c.8 0 1.47-.61 1.47-1.37 0-.75-.66-1.38-1.47-1.38-.81 0-1.48.62-1.48 1.38 0 .77.65 1.37 1.47 1.37Zm8.92 1.71h-2.14v-2.58H43v2.58h-1.54v1.96H43V247c-.01 2.02 1.47 3.02 3.39 2.96.51 0 1.02-.1 1.5-.25l-.43-1.98c-.24.06-.5.1-.74.1-.65 0-1.16-.23-1.16-1.25v-5.56h2.14v-1.96Zm1.97 10.75h8.99v-2.18h-6.37v-12.16h-2.62v14.34Zm13.88.22c1.7 0 2.72-.8 3.18-1.7h.09v1.48h2.46v-7.2c0-2.84-2.34-3.7-4.4-3.7-2.29 0-4.04 1.01-4.6 2.97l2.39.34c.25-.74.97-1.37 2.22-1.37 1.19 0 1.84.6 1.84 1.66v.05c0 .72-.77.76-2.69.96-2.1.23-4.1.85-4.1 3.27-.02 2.12 1.54 3.24 3.61 3.24Zm.84-1.86c-1.06 0-1.83-.49-1.83-1.42 0-.97.86-1.38 2-1.54.67-.09 2-.26 2.34-.52v1.26c0 1.2-.97 2.21-2.5 2.21Zm6.77 1.64h2.51v-1.7h.15c.4.79 1.24 1.89 3.1 1.89 2.56 0 4.47-2.01 4.47-5.55 0-3.59-1.96-5.53-4.47-5.53a3.22 3.22 0 0 0-3.1 1.91h-.1v-5.36h-2.56v14.34Zm2.5-5.38c0-2.09.9-3.44 2.55-3.44 1.7 0 2.58 1.44 2.58 3.44s-.89 3.49-2.58 3.49c-1.63 0-2.54-1.4-2.54-3.49Z"/><path fill="#E2E2E2" d="m18.07 240.37-.02-.06-2.49-6.43a.64.64 0 0 0-.54-.4.67.67 0 0 0-.55.2.65.65 0 0 0-.15.27l-1.67 5.09h-6.8l-1.67-5.1a.65.65 0 0 0-.4-.42.65.65 0 0 0-.58.06.64.64 0 0 0-.26.3l-2.48 6.43-.03.06a4.54 4.54 0 0 0 1.53 5.29h.01l.02.02 3.78 2.8 1.87 1.41 1.14.86a.77.77 0 0 0 .93 0l1.14-.86 1.87-1.4 3.8-2.83h.02a4.57 4.57 0 0 0 1.53-5.29Z"/><path fill="#000" d="m18.07 240.37-.02-.06a8.4 8.4 0 0 0-3.34 1.49l-5.46 4.09 3.48 2.6 3.8-2.83h.01a4.57 4.57 0 0 0 1.53-5.29Z"/><path fill="#E2E2E2" d="m5.77 248.49 1.87 1.4 1.14.86a.77.77 0 0 0 .93 0l1.14-.86 1.87-1.4-3.47-2.6-3.48 2.6Z"/><path fill="#000" d="M3.8 241.8a8.4 8.4 0 0 0-3.34-1.5l-.03.07a4.54 4.54 0 0 0 1.53 5.29h.01l.02.02 3.78 2.8 3.47-2.6-5.44-4.08Zm137.58 6.7c-.9.62-2.34.86-3.83.86-4.78 0-7.46-2.82-7.46-7.42 0-4.59 2.68-7.46 7.42-7.46 1.38 0 2.82.24 3.82 1v1.92a6.5 6.5 0 0 0-3.82-1c-3.4 0-5.46 2.24-5.46 5.54s2.1 5.55 5.55 5.55c1.3.01 2.58-.3 3.73-.9l.05 1.9Zm1.39-4.88c0-3.3 1.91-5.7 5.22-5.7 3.3 0 5.21 2.4 5.21 5.7 0 3.3-1.91 5.79-5.21 5.79s-5.22-2.49-5.22-5.8Zm1.82 0c0 2.1 1.05 4.02 3.4 4.02 2.34 0 3.34-1.92 3.34-4.02 0-2.1-1-3.93-3.34-3.93-2.35 0-3.4 1.87-3.4 3.93Zm20.2 5.55h-1.92v-6.65c0-2.01-.77-2.87-2.59-2.87-1.81 0-2.96 1.14-2.96 3.4v6.12h-1.92v-11h1.92v1.76a3.83 3.83 0 0 1 3.49-2c2.53 0 3.97 1.76 3.97 4.78v6.46Zm5.25-11h2.88v1.72h-2.88v9.28h-1.81v-9.28h-1.82v-1.73h1.82v-1.24c0-2.06 1.15-3.45 3.49-3.45a6 6 0 0 1 1.3.2v1.77l-1.2-.15c-1.2 0-1.78.72-1.78 1.68v1.2Zm7.85 11.05c-1.82 0-2.96-.87-2.96-2.87v-12.83h1.9v12.59c0 1 .68 1.34 1.5 1.34h.52v1.67c-.3.1-.64.14-.96.1Zm2.59-11.06h1.91v6.65c0 1.97.77 2.88 2.58 2.88 1.82 0 2.97-1.2 2.97-3.4v-6.13h1.91v11h-1.9v-1.81a3.88 3.88 0 0 1-3.5 2.06c-2.54 0-3.97-1.77-3.97-4.79v-6.46Zm17.51 11.25c-4.16 0-5.93-2.4-5.93-5.8 0-3.39 1.81-5.69 5.16-5.69s4.79 2.35 4.79 5.7v.86h-8.04c.24 1.87 1.48 3.11 4.07 3.11a9.93 9.93 0 0 0 3.35-.62v1.77c-1.07.47-2.23.7-3.4.67Zm-4.07-6.56h6.18c-.1-2-1.06-3.2-2.92-3.2-1.87 0-3.07 1.29-3.26 3.2Zm19.72 6.32h-1.92v-6.65c0-2.01-.81-2.87-2.58-2.87s-2.97 1.14-2.97 3.4v6.12h-1.91v-11h1.91v1.76a3.83 3.83 0 0 1 3.45-2c2.53 0 4.02 1.76 4.02 4.78v6.46Zm10.43-.29c-.87.36-1.8.52-2.73.48-3.92 0-5.74-2.35-5.74-5.74 0-3.4 1.82-5.7 5.74-5.7a5.5 5.5 0 0 1 2.63.53v1.72a6.27 6.27 0 0 0-2.49-.52c-2.87 0-4.01 1.81-4.01 3.97 0 2.15 1.2 3.97 4.06 3.97.85 0 1.7-.14 2.49-.43l.05 1.72Zm7.42.53c-4.12 0-5.94-2.4-5.94-5.8 0-3.39 1.87-5.69 5.22-5.69 3.35 0 4.73 2.35 4.73 5.7v.86h-8.03c.28 1.87 1.48 3.11 4.06 3.11a9.93 9.93 0 0 0 3.35-.62v1.77c-1.07.47-2.23.7-3.4.67Zm-4.02-6.56h6.12c-.1-2-1.05-3.2-2.92-3.2-1.86 0-3.01 1.29-3.2 3.2Zm-119.25 3.06-.48.82a.53.53 0 0 0 .15.67l3.3 2c.1.07.24.09.36.06s.23-.1.3-.2l.49-.76c1.29-2.15 2.58-1.87 4.92-.77l3.26 1.53a.48.48 0 0 0 .62-.23h.05l1.53-3.55a.48.48 0 0 0-.24-.62l-3.25-1.58c-4.4-2.1-8.14-1.96-11 2.68v-.05Z"/><path fill="#000" d="m122.86 237.92.48-.81a.53.53 0 0 0-.14-.67l-3.3-2a.47.47 0 0 0-.37-.08.48.48 0 0 0-.3.21l-.53.82c-1.24 2.15-2.58 1.86-4.88.76l-3.25-1.53a.53.53 0 0 0-.67.24l-1.54 3.54a.43.43 0 0 0 .08.53l.16.1 3.26 1.57c4.4 2.1 8.13 1.97 11-2.68Zm181.72.59h-2.95v2.94h2.95a1.27 1.27 0 0 1 1.27 1.27 1.27 1.27 0 0 1-.78 1.16c-.16.06-.32.1-.49.1h-2.95v2.93h2.95a4.24 4.24 0 0 0 4.22-4.2 4.19 4.19 0 0 0-4.22-4.2Zm-16.84 15.55a8.87 8.87 0 0 0 8-5.05h3.78v5.05h2.1V249h2.96c3.5 0 6.34-2.82 6.34-6.3 0-3.47-2.84-6.3-6.34-6.3h-5.06v7.56h-3a8.85 8.85 0 0 0-8.78-7.56h-10.4L267 254.06h2.46l2.96-5.05h10.62v5.05h4.7Zm26.13-11.34c0 5.1-4.16 9.23-9.29 9.23V257h-8.02v-3.93a11.83 11.83 0 0 1-8.82 3.94h-7.65v-5.05h-5.97l-2.96 5.04h-9.37l13.79-23.52h12.16c3.5 0 6.65 1.53 8.82 3.94v-3.94h8.02c2.47 0 4.83.98 6.57 2.71a9.23 9.23 0 0 1 2.72 6.53v.01Zm-33.77-4.2v5.46h-4.72l-1.72 2.94h9.4v-8.4h-2.96Zm14.4 6.71a6.74 6.74 0 0 1-6.75 6.72h-2.58v-2.94h2.58a3.8 3.8 0 0 0 3.79-3.78 3.78 3.78 0 0 0-3.8-3.78h-2.58v-2.94h2.58a6.73 6.73 0 0 1 6.75 6.72"/><path fill="#000" fill-rule="evenodd" d="M4.4 311.35v-8.78H1v8.78h3.4Zm.27-9.53 5.8-7.13H6.96l-5.8 7.13h3.51Zm.64.75v8.78h3.4v-4.42c0-.9.96-1.65 2.5-1.22v-3.14c-1.17-.27-2.5.93-2.5 1.51v-1.51h-3.4Z" clip-rule="evenodd"/><path fill="#000" d="M49.64 306.77h17.13v-17.13H49.64v17.13Z"/><path fill="#E2E2E2" d="M63.1 294.96a4.6 4.6 0 0 0-6.5 0l-.1.08-.65-.05a3.87 3.87 0 0 0-2.76 1.17 3.9 3.9 0 0 0 2.76 6.65h4.1a4.6 4.6 0 0 0 3.14-7.85Zm-7.22 7.02a3.12 3.12 0 0 1-2.17-5.27 3.17 3.17 0 0 1 2.17-.89h.45l.47.11c.3.1.56.23.8.42.13.08.24.17.34.28l.11.08 1.23 1.26a.45.45 0 0 1 0 .61.36.36 0 0 1-.28.11.42.42 0 0 1-.3-.11l-1.04-1-.2-.23-.1-.1c-.3-.26-.65-.43-1.03-.5h-.45c-.56.01-1.1.24-1.5.63a2.2 2.2 0 0 0 1.55 3.76h.4l.36.34c.17.2.38.36.61.5h-1.42Zm6.63-1.12c-.39.39-.85.68-1.37.87l-.47.14c-.25.06-.5.1-.75.1h-.09c-.86 0-1.7-.3-2.36-.86l-.28-.25-1.76-1.75a.45.45 0 0 1 0-.61.36.36 0 0 1 .28-.11.42.42 0 0 1 .3.1l1.74 1.76c.17.15.36.3.55.42.45.28.97.43 1.5.42a2.77 2.77 0 0 0 1.15-.25 2.93 2.93 0 0 0 .92-4.7 2.9 2.9 0 0 0-3.68-.33c-.23-.21-.5-.38-.78-.49a3.77 3.77 0 0 1 5.1 5.54Z"/><g fill="#000" clip-path="url(#g)"><path d="M114.95 285.55c-4.1.3-7.59.58-7.75.61-.46.08-.88.4-1.08.8l-.17.36.02 8.55.02 8.55.26.53c.15.3 1.15 1.66 2.24 3.07 2.16 2.78 2.32 2.94 3.14 3.02.23.02 2.02-.06 3.96-.17l6.93-.42c7.99-.48 7.58-.44 8.04-.83.57-.47.53.3.55-10.1.02-8.8.01-9.38-.12-9.65-.16-.3-.44-.51-4.08-3.06-2.43-1.7-2.6-1.78-3.7-1.8-.45-.01-4.17.23-8.26.54Zm9.22 1.12c.34.15 2.86 1.9 3.23 2.23.1.1.13.18.08.23-.12.1-15.7 1.02-16.15.95-.2-.03-.5-.15-.68-.27a20.59 20.59 0 0 1-2.49-2.03c0-.27-.05-.27 6.9-.77 1.32-.1 3.5-.25 4.83-.36 2.88-.23 3.74-.22 4.28.02Zm4.95 4.45c.11.12.21.34.25.55.02.2.04 3.85.02 8.1-.02 7.3-.03 7.76-.17 7.98a.84.84 0 0 1-.37.3c-.34.14-16.68 1.07-17.01.97a1.28 1.28 0 0 1-.49-.29l-.2-.2-.02-7.88c-.01-5.53 0-7.98.07-8.2a.85.85 0 0 1 .28-.42c.14-.1 1.11-.18 4.44-.37l8.03-.48c4.94-.3 4.92-.3 5.17-.06Z"/><path d="M124.73 293.82c-.88.06-1.67.14-1.76.2a.82.82 0 0 0-.47.62c-.02.27.06.3.94.4l.39.06v3.48a35 35 0 0 1-.07 3.4c-.05-.05-1.21-1.81-2.6-3.92a531 531 0 0 0-2.55-3.86c-.01-.02-.92.03-2 .1-1.33.1-2.06.18-2.2.26-.24.12-.5.55-.5.84 0 .17.3.26.96.26h.35v10l-.56.18c-.44.13-.58.21-.66.38-.13.27-.12.52.01.52l2.04-.12c2.11-.12 2.35-.18 2.57-.6.07-.14.12-.28.12-.32 0-.03-.28-.13-.63-.21l-.78-.18c-.14-.04-.14-.3-.14-3.8v-3.76l2.49 3.9c2.61 4.07 2.94 4.53 3.34 4.74.5.26 1.78.08 2.42-.34l.2-.12.01-5.56.02-5.57.44-.08c.52-.1.75-.33.75-.74 0-.26-.01-.28-.26-.27l-1.87.11Z"/></g><g clip-path="url(#h)"><path fill="#000" d="m166.25 305 4.2-3.21c2.24 2.91 4.62 4.26 7.26 4.26 2.63 0 4.93-1.33 7.07-4.22l4.26 3.14c-3.07 4.17-6.9 6.38-11.33 6.38-4.42 0-8.28-2.2-11.46-6.34Zm11.44-14-7.48 6.45-3.46-4L177.7 284l10.88 9.45-3.48 4-7.42-6.45Z"/></g><path fill="#000" d="M234.63 311.3a11.78 11.78 0 0 1-10.4-10.25c-.08-.63-.08-2.2 0-2.84a11.71 11.71 0 0 1 6.46-9.1c2.84-1.4 6.26-1.6 9.22-.5a11.8 11.8 0 0 1 7.45 8.55c.32 1.44.32 3.5 0 4.95a11.75 11.75 0 0 1-12.73 9.2Zm.72-10.56v-5.8l-1.57-.02c-1.8-.02-2.34.03-3.04.26a4.6 4.6 0 0 0-3.03 3.26 5.45 5.45 0 0 0-.05 2.18 4.73 4.73 0 0 0 3.09 3.46c.47.17.59.18 1.2.2l.69.03v-1.65l-.53-.03a2.8 2.8 0 0 1-2.02-.9 3.03 3.03 0 0 1 .8-4.8c.59-.28.83-.32 1.88-.32h.9v4.94c0 2.72.02 4.96.04 4.98.02.02.4.03.84.02l.8-.02v-5.8.01Zm4.87 3.5a4.7 4.7 0 0 0 3.6-2.78c.26-.66.34-1.06.34-1.85 0-.63-.02-.82-.11-1.19a4.7 4.7 0 0 0-4.3-3.5l-.67-.02.02.84.01.85.6.03c.63.03.88.1 1.3.36.64.39 1.1.95 1.34 1.58.15.41.19 1.36.07 1.82a2.88 2.88 0 0 1-1.53 1.9 4.1 4.1 0 0 1-2.05.37h-.78v-9.95h-1.71v11.6h1.77c.99 0 1.91-.03 2.1-.06Zm53.91-13.78a5.74 5.74 0 0 1 9.28 1.23 6.9 6.9 0 0 1 2.88-.62c1.81.13 3.52.94 4.77 2.3a7.36 7.36 0 0 1 0 9.98 7.14 7.14 0 0 1-4.77 2.29 7.1 7.1 0 0 1-1.4-.13 5.17 5.17 0 0 1-6.82 2.16 5.85 5.85 0 0 1-11-.28 5.44 5.44 0 0 1-5.04-1.54 5.6 5.6 0 0 1-1.59-3.97 5.73 5.73 0 0 1 2.73-4.9 6.68 6.68 0 0 1 1.35-7.17 6.34 6.34 0 0 1 9.62.65Z"/><path fill="#E2E2E2" d="M285.2 300.07c0 .06 0 .06.03.06l.18.12c.3.17.63.25.97.25.7 0 1.12-.37 1.12-.96 0-.52-.49-.74-.94-.86h-.06c-.33-.12-.6-.22-.6-.43 0-.22.15-.34.42-.34.3 0 .58.08.85.22 0 0 .09.03.09-.03 0-.07.12-.34.15-.38.03-.03 0-.06-.03-.06a1.7 1.7 0 0 0-.97-.27h-.06c-.64 0-1.06.37-1.06.92 0 .58.48.77.9.9h.1c.3.09.6.18.6.42 0 .22-.18.37-.48.37-.31 0-.62-.08-.88-.24l-.1-.06c-.02-.03-.08-.07-.08.03l-.15.37v-.03Zm9.9 0c-.03.06 0 .06 0 .06l.22.12c.3.17.63.25.97.25.7 0 1.09-.37 1.09-.96 0-.52-.46-.74-.91-.86h-.06c-.34-.12-.6-.22-.6-.43 0-.22.14-.34.42-.34a1.9 1.9 0 0 1 .87.23h.03l.02-.02.02-.02c.03-.13.08-.26.15-.38v-.06a1.7 1.7 0 0 0-.97-.27h-.1c-.6 0-1.02.37-1.02.92 0 .58.45.77.9.9h.06c.34.09.61.18.61.42 0 .22-.18.37-.45.37-.31 0-.62-.08-.88-.24l-.12-.06c0-.03-.06-.03-.1.03l-.12.37-.03-.03Zm6.76-1.18c.02.28-.05.56-.18.8a.66.66 0 0 1-.85.22.66.66 0 0 1-.24-.21 1.5 1.5 0 0 1-.18-.8c-.02-.27.05-.54.18-.77a.66.66 0 0 1 .85-.22c.1.05.18.13.24.22.13.23.2.5.18.76Zm.58-.61a1.57 1.57 0 0 0-.28-.5 1.63 1.63 0 0 0-.42-.33c-.2-.07-.4-.12-.6-.13a1.8 1.8 0 0 0-.61.13c-.17.08-.31.2-.43.34s-.2.31-.27.49c-.12.4-.12.83 0 1.23.06.2.15.37.27.53.11.14.26.24.43.3.19.1.4.14.6.13a1.36 1.36 0 0 0 1.03-.44c.13-.15.22-.33.28-.52.08-.4.08-.82 0-1.23Zm4.63 1.6-.01-.02-.02-.02H307l-.03.01-.24.06h-.33a.88.88 0 0 1-.64-.25 1.18 1.18 0 0 1-.24-.8c0-.26.07-.51.2-.73a.8.8 0 0 1 .65-.28l.6.06s.03.03.06-.03.1-.25.12-.4c.03-.16 0-.06-.03-.06l-.36-.1h-.42c-.22.01-.44.05-.64.13-.17.07-.33.2-.45.34-.13.14-.22.31-.28.49a2 2 0 0 0-.09.62c-.02.4.1.82.37 1.14a1.4 1.4 0 0 0 1.12.43c.27 0 .53-.05.78-.16 0 0 .06 0 .03-.06l-.12-.37Zm.97-1.3c.03-.15.08-.3.15-.45a.6.6 0 0 1 .55-.28.5.5 0 0 1 .31.06c.1.05.18.12.24.22.08.13.13.3.12.46h-1.37Zm1.91-.4a2.12 2.12 0 0 0-.24-.45 1.2 1.2 0 0 0-.36-.28 1.44 1.44 0 0 0-1.19 0 1.37 1.37 0 0 0-.69.86c-.13.4-.13.83 0 1.23a1.22 1.22 0 0 0 .75.83c.23.07.46.1.7.1.33.01.67-.05.97-.19 0 0 .03-.03 0-.1l-.12-.36h-.06a1.7 1.7 0 0 1-.79.15c-.24.01-.48-.06-.67-.21a1.03 1.03 0 0 1-.2-.65h1.92l.02-.02.02-.02v-.02c.03-.28.01-.56-.06-.83v-.03Zm-17.2.44c.02-.16.07-.32.14-.46a.61.61 0 0 1 .55-.28.57.57 0 0 1 .54.28c.1.13.13.3.12.46h-1.36Zm1.9-.4a2.1 2.1 0 0 0-.24-.46 1.3 1.3 0 0 0-.37-.28 1.45 1.45 0 0 0-1.18 0c-.17.09-.32.2-.45.34-.1.16-.18.34-.25.52-.12.4-.12.83 0 1.23a1.3 1.3 0 0 0 .76.83c.23.07.46.1.7.1.33.01.66-.05.97-.19 0 0 .03-.03 0-.1l-.12-.36h-.06c-.25.11-.52.17-.79.15-.24.01-.48-.06-.67-.21a1.02 1.02 0 0 1-.2-.65h1.9c.02 0 .03 0 .04-.02a.06.06 0 0 0 .02-.04c.03-.28.01-.56-.06-.83v-.03Zm-6.03 1.7-.12-.1a.63.63 0 0 1-.06-.28.44.44 0 0 1 .18-.37.69.69 0 0 1 .55-.12h.51v.9l-.51.05a.78.78 0 0 1-.55-.12v.03Zm.76-1.4h-.3c-.16 0-.31.02-.46.07-.15.03-.3.09-.42.18-.11.09-.2.2-.28.31-.06.15-.1.3-.09.46 0 .15.03.3.1.43.05.13.13.23.24.31.12.08.25.14.39.19h1.09l.49-.1.12-.06c.06 0 .03-.06.03-.06v-1.79a1.07 1.07 0 0 0-.3-.86 1.2 1.2 0 0 0-.88-.28l-.49.07a1.57 1.57 0 0 0-.63.22v.04l.02.01.13.37c.03.07.06.03.06.03h.03c.26-.13.55-.2.84-.21.17 0 .33.05.46.15.12.06.15.19.15.46v.07h-.3Zm15.42-1.01a.1.1 0 0 0-.03-.06l-.33-.06a.96.96 0 0 0-.49.09l-.33.25v-.25a.06.06 0 0 0-.06-.06h-.49c-.01 0-.03 0-.04.02a.06.06 0 0 0-.02.04v2.9l.02.04.04.01h.52l.04-.01a.06.06 0 0 0 .02-.05v-1.48a1.23 1.23 0 0 1 .21-.8l.24-.12h.49c.03.03.03 0 .06-.03l.15-.43Z"/><path fill="#E2E2E2" d="m300.07 296.15-.18-.06h-.27c-.29-.01-.57.09-.79.28-.22.25-.36.56-.4.9v.12H298l-.02.01-.01.02v.03l-.1.4c0 .01 0 .03.02.04l.04.02h.43l-.43 2.43c-.02.17-.06.34-.12.5a.66.66 0 0 1-.12.27l-.18.13h-.37l-.12-.07s-.03 0-.06.06a1.9 1.9 0 0 1-.15.38v.04l.03.05.18.06h.28a.99.99 0 0 0 .84-.3c.1-.14.2-.28.25-.44.07-.21.12-.43.15-.65l.42-2.5h.68a.06.06 0 0 0 .02-.05l.09-.4v-.03l-.02-.02-.02-.01h-.66c.03 0 .03-.22.12-.44l.13-.21.18-.1h.42c.06.04.06 0 .06-.02l.15-.4c.03-.04 0-.07-.03-.07v.03Zm-8.54 4.2c0 .02 0 .05-.03.05h-.54l-.02-.01-.01-.02v-4.18l.01-.02.02-.01h.54c.03 0 .03.03.03.06v4.12Z"/><path fill="#383838" d="M6.03 343.08H1.29v7.9h4.74v-7.9Zm0 7.9H1.29v4.73h4.74v-4.73Z"/><path fill="#000" d="M18.66 338.35h-4.74v8.68h4.74v-8.68Z"/><path fill="#383838" d="M18.66 347.03h-4.74v8.68h4.74v-8.68ZM14 343.08v-4.73H6.1v4.73H14Z"/><path fill="#383838" d="M14 355.71v-4.73H6.1v4.73H14Z"/><path fill="#383838" d="m14.55 347.58 8.6 6.08a1.18 1.18 0 0 0 1.82-1.03V341.5a1.18 1.18 0 0 0-1.82-1.02l-8.6 6.07a.64.64 0 0 0-.26.52.63.63 0 0 0 .26.51Z" opacity=".85"/><path fill="#383838" d="m1.29 343.08 4.74-4.73v4.73H1.29Zm77.06-.34 4.51-4.4h12.38a1.17 1.17 0 0 1 .82.35 1.12 1.12 0 0 1 .32.81v3.24H78.35Zm18.03 8.78-3.36 4.4H82.86v-4.4h13.52Z"/><path fill="#383838" d="M96.38 342.74H82.86v4.4h13.52v-4.4Z"/><path fill="#000" d="M82.86 342.74h-4.5v4.4h4.5v-4.4Zm13.52 4.39H82.86v4.4h13.52v-4.4Z"/><path fill="#383838" d="M82.86 347.13h-4.5v4.4h4.5v-4.4Z"/><path fill="#000" d="M78.35 351.52h4.51v4.4h-3.4c-.3 0-.57-.12-.78-.32-.21-.2-.33-.48-.33-.76v-3.32Z"/><path fill="#383838" d="M157.87 348a4.78 4.78 0 0 0 4.74-4.83 4.78 4.78 0 0 0-4.74-4.82 4.78 4.78 0 0 0-4.74 4.82 4.78 4.78 0 0 0 4.74 4.83Z"/><path fill="#383838" d="M162.3 351.6a4.1 4.1 0 0 0 4.08-4.15 4.1 4.1 0 0 0-4.07-4.14 4.1 4.1 0 0 0-4.07 4.14 4.1 4.1 0 0 0 4.07 4.15Z"/><path fill="#383838" d="M158.37 354.62a3.27 3.27 0 0 0 3.24-3.3 3.27 3.27 0 0 0-3.24-3.29 3.27 3.27 0 0 0-3.24 3.3c0 1.82 1.45 3.3 3.24 3.3Z"/><path fill="#383838" d="M158.7 341.91h-5.43a4.94 4.94 0 0 0 1.67 5.11 4.71 4.71 0 0 0 2.93 1.01h.4a3.2 3.2 0 0 0-2.25.99 3.33 3.33 0 0 0-.92 2.3v.28h3.6a.7.7 0 0 0 .67-.68v-8.33a.72.72 0 0 0-.2-.47.7.7 0 0 0-.47-.2Z" opacity=".1"/><path fill="#383838" d="M158.2 342.42h-5.03a4.87 4.87 0 0 0 2.19 4.9c.53.33 1.12.55 1.74.64l.77.07h.4a3.19 3.19 0 0 0-2.28 1.03 3.31 3.31 0 0 0-.79 3.05h3a.71.71 0 0 0 .67-.68v-8.33a.71.71 0 0 0-.67-.68Z" opacity=".2"/><path fill="#383838" d="M158.2 342.42h-5.03a4.87 4.87 0 0 0 2.19 4.9c.53.33 1.12.55 1.74.64l.77.07h.4c-.8.02-1.58.35-2.16.91a3.36 3.36 0 0 0-1.01 2.15h3.1a.7.7 0 0 0 .67-.68v-7.3a.71.71 0 0 0-.67-.69Z" opacity=".2"/><path fill="#383838" d="M157.7 342.42h-4.53a4.87 4.87 0 0 0 2.19 4.9c.53.33 1.12.55 1.74.64l.77.07h.4c-.8.02-1.58.35-2.16.91a3.36 3.36 0 0 0-1.01 2.15h2.6a.7.7 0 0 0 .47-.21c.12-.13.2-.3.2-.47v-7.3a.72.72 0 0 0-.2-.48.7.7 0 0 0-.47-.2Z" opacity=".2"/><path fill="#000" d="M151.03 342.42h6.67c.18 0 .35.07.47.2.13.13.2.3.2.48v6.8c0 .18-.07.35-.2.48-.12.13-.3.2-.47.2h-6.67a.66.66 0 0 1-.47-.2.69.69 0 0 1-.2-.48v-6.8c0-.18.07-.35.2-.48s.3-.2.47-.2Z"/><path fill="#383838" d="M153.2 346.4a1.35 1.35 0 0 1-.43-.44 1.33 1.33 0 0 1 .13-1.4 2 2 0 0 1 .7-.47c.73-.2 1.5-.18 2.24.03v.92l-.57-.24a2.12 2.12 0 0 0-.67-.06c-.24-.03-.48.02-.7.13a.44.44 0 0 0-.27.44.39.39 0 0 0 .1.27l.34.24.56.27h.1c.26.1.5.23.74.38.18.1.33.25.43.44.12.2.18.44.17.68.03.3-.06.58-.23.81-.19.22-.42.38-.67.48-.32.1-.64.14-.97.14l-.87-.07-.7-.2v-1c.22.17.47.29.74.35.24.1.5.14.76.13.25.02.5-.04.7-.17a.4.4 0 0 0 .24-.4.45.45 0 0 0-.14-.34l-.36-.27-.7-.31-.67-.37v.03Zm68.86 1.92 6.19 6.2c.63.63 1.66.63 2.3 0l2.04-2.06c.63-.63.63-1.66 0-2.3l-6.19-6.18a1.62 1.62 0 0 0-2.3 0l-2.04 2.05a1.62 1.62 0 0 0 0 2.3Z"/><path fill="#383838" d="m236.64 339.5-10.53 10.53a1.62 1.62 0 0 0 0 2.3l2.24 2.24c.63.63 1.66.63 2.3 0l10.53-10.54c.63-.64.63-1.66 0-2.3l-2.24-2.24a1.62 1.62 0 0 0-2.3 0Zm68.09 4.64a2.54 2.54 0 1 0 0-5.07 2.54 2.54 0 0 0 0 5.07Z"/><path fill="#383838" d="M304.56 342.15h-2.26a2.53 2.53 0 0 0 2.98 1.85v-1.2a.72.72 0 0 0-.72-.65Z" opacity=".1"/><use xlink:href="#i" opacity=".2"/><path fill="#000" d="M310.42 344.27a1.88 1.88 0 1 0 0-3.77 1.88 1.88 0 0 0 0 3.77Zm1.64.59h-4.25a.34.34 0 0 0-.37.34v4.38a2.78 2.78 0 0 0 2.16 2.74 2.7 2.7 0 0 0 3.21-2.09c.03-.18.05-.36.04-.55v-4.04a.79.79 0 0 0-.79-.78Z"/><path fill="#383838" d="M309.08 345.64v5.14a4.36 4.36 0 0 1-8.36 1.65 3.28 3.28 0 0 1-.17-.55c-.1-.36-.14-.73-.13-1.1v-5.14a.78.78 0 0 1 .82-.78h7.02c.1-.01.21 0 .31.04a.77.77 0 0 1 .45.43c.04.1.06.2.06.31Z"/><use xlink:href="#i" opacity=".2"/><path fill="#383838" d="M305.28 344.86v6.85a.69.69 0 0 1-.55.68h-4a3.28 3.28 0 0 1-.18-.55c-.1-.35-.14-.72-.13-1.1v-5.13a.78.78 0 0 1 .82-.79h4.04v.04Z" opacity=".1"/><path fill="#383838" d="M304.73 344.86v7.53a.72.72 0 0 1-.72.58H301a4.06 4.06 0 0 1-.58-2.19v-5.14a.78.78 0 0 1 .82-.78h3.5Z" opacity=".2"/><path fill="#383838" d="M304.73 344.86v6.3a.72.72 0 0 1-.72.72h-3.46c-.1-.36-.14-.73-.13-1.1v-5.14a.78.78 0 0 1 .82-.78h3.5Z" opacity=".2"/><path fill="#383838" d="M301.24 344.86a.77.77 0 0 0-.58.21.8.8 0 0 0-.25.57v5.14c0 .37.04.74.14 1.1h2.95a.74.74 0 0 0 .5-.21.74.74 0 0 0 .22-.51v-6.3h-2.98Z" opacity=".2"/><path fill="#000" d="M296.27 342.66h7.2a.75.75 0 0 1 .75.72v7.23a.72.72 0 0 1-.76.72h-7.2a.71.71 0 0 1-.71-.72v-7.23a.72.72 0 0 1 .72-.72Z"/><path fill="#383838" d="M302.02 345.37h-1.6v4.35h-1.07v-4.35h-1.64v-1.06h4.31v1.06ZM6 400.71H1.02v-13.23l4.96 4.14v9.1Zm13.22 0h4.96v-13.23l-4.96 4.14v9.1Z"/><path fill="#000" d="M19.22 391.62v-5.8a2.56 2.56 0 0 1 2.48-2.47 2.48 2.48 0 0 1 2.48 2.48v1.65l-4.96 4.14Z"/><path fill="#383838" d="m6 391.62-4.97-4.14v-1.65a2.56 2.56 0 0 1 2.48-2.48 2.48 2.48 0 0 1 2.48 2.48v5.79Z"/><path fill="#383838" d="m19.22 391.62-6.61 4.96-6.62-4.96v-5.8l6.62 4.97 6.61-4.96v5.79Zm36.19-8.27h3.12v13.74h-4.35v-12.51a1.23 1.23 0 0 1 1.23-1.23Z"/><path fill="#000" d="M71.55 387.69H67.2v9.4h4.34v-9.4Z"/><path fill="#383838" d="M71.62 387.76h-4.34v-4.34h3.11a1.23 1.23 0 0 1 1.23 1.23v3.11Zm-13.1 9.34h-4.34v3.61h4.34v-3.62Zm10.86 2.16-2.17 1.45v-3.62h4.34l-2.17 2.17Z"/><path fill="#383838" d="M67.2 397.1h-8.67v3.61h8.68v-3.62Zm0-13.75h-8.67v3.61h8.68v-3.61Zm41.97 0 3.02 5.28 3.02-5.28h-6.04Zm6.8 12.08 3.02 5.28 3.02-5.28h-6.04Zm-14.35 0 3.02 5.28 3.02-5.28h-6.04Z"/><path fill="#383838" d="M101.62 395.43h6.04l4.53-6.8-3.02-5.28-7.55 12.08Zm10.58-6.8 3.77 6.8H122l-6.8-12.08m-10.56 17.36H119l-3.02-5.28h-8.3l-3.03 5.28Z"/><path fill="#000" d="m155.58 399.91 10.93-8.28a1459.2 1459.2 0 0 0-10.93-8.28v6.1c0 .03 0 .06.02.1l.06.06 1.72 1.58.5.44-.08.06-2.14 1.93a.22.22 0 0 0-.06.08.26.26 0 0 0-.02.11v6.1Zm-3.65-11.57v6.58l3.63-3.3-3.63-3.28Z"/><path fill="#000" d="M155.58 399.91v-6.1a.24.24 0 0 1 .08-.19l2.14-1.93.08-.06-.5-.44-1.72-1.58a.14.14 0 0 1-.06-.07.18.18 0 0 1-.02-.1v-6.1c3.65 2.75 7.3 5.5 10.93 8.29l-10.93 8.28Zm42.56-16.56h2.2v14.02h-4v-12.22a1.8 1.8 0 0 1 1.8-1.8Zm10.88 4.67h-4.67v9.35h4.67v-9.35Z"/><path fill="#000" d="M198.34 383.41v4.68h6v-4.68h-6Z"/><path fill="#383838" d="M209.02 397.37h-4.67v3.34h4.67v-3.34Zm-4.67 0h-4v3.34h4v-3.34Zm-8.02 0h4.01v3.34h-3a1 1 0 0 1-1-1v-2.34Zm8.02-14.02 4.67 4.67h-4.67v-4.67Z"/><g clip-path="url(#j)"><path fill="#000" fill-rule="evenodd" d="m239.02 384.72 9.97-2-.03 17.99-9.94-2.15v-13.84Zm3.54 9.34a4 4 0 0 1-.6-3.56c.5-1.67 1.77-2.23 2.84-1.84.6.22 1.15.75 1.44 1.57a4.04 4.04 0 0 1-.59 3.74c-.83 1.03-2.23 1.14-3.09.1Zm.78-.87a3.07 3.07 0 0 1-.3-2.22c.24-1.04.87-1.4 1.4-1.15.3.14.56.47.7.98a3.17 3.17 0 0 1-.3 2.34c-.4.64-1.08.7-1.5.05Zm6.3-6.68h5.8a.6.6 0 0 1 .58.6v.23l-4.55 3.2c-.06.03-.2.15-.32.23-.18.12-.2.1-.38-.01-.3-.17-.8-.52-1.13-.76v-3.5Zm6.38 2.25v6.44c0 .51-.4.94-.9.94h-5.47v-4.76l1.03.7c.22.13.26.2.5.05.11-.07.22-.16.3-.2l4.54-3.17Z" clip-rule="evenodd"/></g><path fill="#383838" d="m296.36 388.12 5.58 3.35 3.35-1.42c.68-.3 1.42-.44 2.16-.44h.37a8.38 8.38 0 0 0-15.07-2.53h.07c1.26 0 2.48.37 3.54 1.04Z"/><path fill="#000" d="M296.36 388.12a6.62 6.62 0 0 0-3.54-1h-.07a6.66 6.66 0 0 0-5.4 10.49l4.95-2.09 2.2-.93 4.91-2.04 2.53-1.08-5.58-3.35Zm11.46 1.52h-.37c-.74 0-1.48.15-2.16.45l-3.35 1.42.97.55 3.2 1.94 1.38.82 4.72 2.82a5.4 5.4 0 0 0-4.39-7.96v-.04Z"/><path fill="#383838" d="m307.49 394.78-1.38-.82-3.2-1.93-.97-.56-2.53 1.08-4.91 2.04-2.2.93-4.95 2.09a6.75 6.75 0 0 0 5.47 2.86h14.63a5.43 5.43 0 0 0 4.76-2.86l-4.72-2.83Z"/><defs><clipPath id="a"><path fill="#fff" d="M4 58h77.36v14.35H4z"/></clipPath><clipPath id="b"><path fill="#fff" d="M105.02 58h118.62v13.49H105.02z"/></clipPath><clipPath id="c"><path fill="#fff" d="M247.3 58H310v14.35h-62.7z"/></clipPath><clipPath id="d"><path fill="#fff" d="M237.16 146.68h15.5v15.5h-15.5z"/></clipPath><clipPath id="e"><path fill="#fff" d="M76.2 197.37h32.24v9.1H76.2z"/></clipPath><clipPath id="f"><path fill="#fff" d="M57.99 192.28h14.54v14.2H57.99z"/></clipPath><clipPath id="g"><path fill="#fff" d="M105.95 284.71h25.18v26.63h-25.18z"/></clipPath><clipPath id="h"><path fill="#fff" d="M163.97 284h27.35v27.35h-27.35z"/></clipPath><clipPath id="j"><path fill="#fff" d="M239.02 382.71h17v18h-17z"/></clipPath></defs></svg>