<svg width="160" height="196" viewBox="0 0 160 196" fill="none" xmlns="http://www.w3.org/2000/svg">
<path d="M80.0013 158.646C123.436 158.646 158.647 123.435 158.647 80C158.647 36.5652 123.436 1.35425 80.0013 1.35425C36.5664 1.35425 1.35547 36.5652 1.35547 80C1.35547 123.435 36.5664 158.646 80.0013 158.646Z" stroke="white" stroke-width="2.7084" stroke-miterlimit="10"/>
<path d="M49.6996 34.7461H70.5621C70.5833 35.1728 70.62 35.5705 70.6204 35.9681C70.6242 41.0988 70.6376 46.2297 70.6078 51.3603C70.6031 52.1738 70.7835 52.76 71.4488 53.3026C72.909 54.4931 74.3175 55.7523 75.679 57.0547C76.0346 57.395 76.3212 57.9933 76.3307 58.4793C76.3898 61.4963 76.4802 64.5209 76.3273 67.5313C76.1777 70.4759 78.6169 72.1993 81.0118 72.1998C84.5959 72.2006 88.1805 72.1649 91.7632 72.2329C92.4013 72.2451 93.1617 72.5351 93.6447 72.9525C97.4962 76.2808 101.295 79.6707 105.109 83.0427C105.278 83.1925 105.451 83.3415 105.6 83.5101C106.657 84.7026 107.708 85.9002 108.878 87.2306C108.145 87.9718 107.183 88.849 106.347 89.8338C105.975 90.2721 105.737 90.9101 105.655 91.4882C105.539 92.3017 105.624 93.144 105.626 93.974C105.629 95.5066 105.667 95.5501 107.231 95.8314C107.602 97.3812 107.543 97.4387 105.964 97.596C101.013 98.0894 96.0606 98.5784 91.1147 99.1259C90.1962 99.2276 89.6901 99.013 89.5081 98.0906C89.4358 97.7244 89.2129 97.385 89.1596 97.0187C88.8745 95.0584 87.3387 94.1355 85.9543 93.0797C85.4484 92.6937 84.8798 92.3569 84.4698 91.8848C83.65 90.9404 82.8278 90.1069 81.4599 90.5094C80.7967 88.8236 80.6648 88.7019 78.8713 88.7508C78.0475 88.7733 77.5618 88.4959 76.9854 87.8679C76.5062 87.3457 75.5515 87.163 74.774 87.0374C73.9282 86.9008 73.0435 87.002 72.1758 87.0022C69.9646 87.0022 68.8821 85.9409 68.9218 83.7215C68.9391 82.758 68.9984 81.8767 67.6496 81.8598C67.4419 81.8573 67.1808 81.627 67.0404 81.4327C65.2332 78.9334 63.3332 76.5297 60.8044 74.6895C60.4831 74.4557 60.2949 73.9238 60.2357 73.5032C60.2125 73.3383 60.6839 73.0231 60.981 72.9077C62.2864 72.401 61.8742 71.2781 61.8047 70.3868C61.7796 70.0666 61.0949 69.6628 60.6446 69.5379C59.6117 69.2512 58.8552 68.7447 58.6961 67.6422C58.5512 66.6387 58.42 65.6216 58.4285 64.6118C58.4347 63.8648 58.2074 63.3936 57.542 63.0951C56.6176 62.6806 56.2296 61.9838 55.9719 60.9633C55.7074 59.9153 55.0098 58.9342 54.3452 58.0402C53.4489 56.8343 52.9363 55.5807 53.1483 54.0658C53.3355 52.7277 52.9787 51.5693 52.0812 50.5254C51.4455 49.7862 50.9451 48.9298 50.3926 48.1202C49.293 46.509 49.2517 44.9659 50.5061 43.4919C51.9087 41.8436 51.542 40.0498 51.1073 38.2785C50.8241 37.1244 50.2308 36.0465 49.6996 34.7463V34.7461Z" fill="white"/>
<path d="M81.0782 52.1731C81.3101 50.5458 81.3868 48.99 81.7685 47.5131C83.0855 42.4179 89.1274 40.328 92.9212 43.6351C95.0062 45.4525 95.5387 47.9535 95.6751 50.5759C95.7021 51.0938 95.679 51.6139 95.679 52.1592C95.9262 52.2105 96.0652 52.257 96.2067 52.266C98.1124 52.3863 99.1431 53.2569 99.1671 55.1232C99.2232 59.4566 99.1912 63.7923 99.1167 68.1257C99.0894 69.711 97.9912 70.6318 96.3815 70.6413C91.4439 70.6706 86.5064 70.6997 81.5688 70.7111C78.7287 70.7177 77.8163 69.8139 77.8403 67C77.8731 63.1565 77.9324 59.3131 77.9947 55.4699C78.0377 52.8176 79.1639 52.4769 81.078 52.1731H81.0782ZM83.5027 52.2447C86.7731 52.2447 89.6296 52.2601 92.4852 52.2132C92.6951 52.2098 93.0913 51.7404 93.0717 51.5164C92.9513 50.137 92.8928 48.7214 92.5158 47.4027C91.9755 45.5126 90.5268 44.5716 88.6265 44.5425C86.6633 44.5125 85.1129 45.4196 84.5145 47.2829C84.0285 48.7958 83.8623 50.4114 83.5027 52.2447ZM90.4276 66.144C90.2836 65.0656 90.2028 64.0633 90.0005 63.0861C89.8649 62.4305 89.9741 61.9959 90.4566 61.49C91.5052 60.3898 91.37 58.7374 90.2663 57.7691C89.232 56.8618 87.672 56.937 86.7031 57.9409C85.7406 58.9383 85.7121 60.6216 86.7902 61.5807C87.4069 62.1293 87.4534 62.6419 87.3118 63.3545C87.1325 64.2566 87.0519 65.1783 86.9218 66.1442L90.4276 66.144Z" fill="white"/>
<path d="M120.344 124.928C118.395 124.928 116.548 124.961 114.704 124.896C114.391 124.884 113.939 124.507 113.816 124.195C113.488 123.358 113.252 122.475 113.079 121.591C112.953 120.942 112.631 120.716 112.013 120.726C110.166 120.753 108.319 120.789 106.473 120.762C105.814 120.753 105.515 121 105.391 121.616C105.272 122.205 105 122.774 104.951 123.365C104.838 124.735 104.111 125.051 102.842 124.956C101.306 124.84 99.755 124.928 98.043 124.928C98.1755 124.435 98.2679 124.019 98.3983 123.616C100.551 116.95 102.712 110.287 104.858 103.619C105.049 103.028 105.281 102.664 106.019 102.683C108.13 102.735 110.243 102.674 112.353 102.73C112.695 102.74 113.234 103.054 113.332 103.345C115.685 110.381 117.991 117.432 120.302 124.481C120.336 124.583 120.324 124.698 120.344 124.928ZM109.225 106.653C108.43 109.834 107.688 112.805 106.938 115.803H111.584C110.8 112.763 110.042 109.82 109.225 106.653Z" fill="white"/>
<path d="M86.717 117.668V124.845H80.8555V102.782C82.0414 102.782 83.1967 102.759 84.3507 102.787C86.5321 102.839 88.73 102.773 90.8899 103.024C94.6153 103.456 96.7032 105.893 96.8405 109.653C96.9789 113.445 94.8464 116.478 91.3764 117.201C89.918 117.505 88.3972 117.51 86.7168 117.668H86.717ZM86.8035 107.606V112.679C88.243 112.797 89.555 112.737 90.3523 111.415C90.9055 110.497 91.0299 109.46 90.3968 108.536C89.5144 107.248 88.1411 107.688 86.8035 107.606Z" fill="white"/>
<path d="M55.4867 108.536C54.0138 108.131 52.696 107.635 51.334 107.422C48.7605 107.019 47.0014 108.172 46.252 110.663C45.6077 112.805 45.604 114.989 46.2246 117.14C46.8726 119.385 48.6886 120.601 51.1805 120.302C52.8436 120.102 54.4715 119.609 56.2699 119.214C56.2699 120.622 56.2921 122.108 56.2452 123.593C56.2384 123.807 55.9388 124.12 55.7084 124.203C52.306 125.427 48.858 125.69 45.4268 124.385C42.9151 123.429 41.2792 121.57 40.4635 119.012C39.4507 115.836 39.3733 112.627 40.3582 109.442C41.449 105.914 43.8497 103.661 47.4319 102.811C50.7739 102.018 54.007 102.537 57.2363 104.028C56.6387 105.567 56.059 107.061 55.4865 108.536L55.4867 108.536Z" fill="white"/>
<path d="M77.3325 104.084C76.7398 105.629 76.165 107.127 75.6069 108.581C74.347 108.195 73.2223 107.74 72.0533 107.512C68.8762 106.892 67.08 108.042 66.2587 111.176C65.763 113.066 65.7683 114.986 66.3006 116.871C67.0199 119.418 68.7287 120.631 71.3686 120.299C73.0266 120.09 74.6488 119.597 76.4328 119.199C76.4328 120.602 76.4602 122.053 76.4064 123.502C76.3972 123.749 76.0863 124.116 75.8363 124.203C72.2002 125.476 68.539 125.758 64.9439 124.116C62.5295 123.012 61.1213 120.992 60.4205 118.485C59.5376 115.325 59.5122 112.165 60.6304 109.045C61.8306 105.696 64.1977 103.634 67.633 102.778C70.5271 102.057 74.4753 102.57 77.3325 104.084Z" fill="white"/>
<path d="M67.25 92.1624C68.7009 90.4051 70.3743 90.4513 72.2143 91.2474C72.2771 92.3208 71.9396 93.0619 70.7108 93.2596C69.9034 93.3896 69.1218 93.6813 68.2342 93.9267C67.8995 93.3266 67.576 92.7469 67.25 92.1624Z" fill="white"/>
<path d="M81.0838 94.4579C80.98 95.0363 80.9332 95.7464 79.9617 95.7178C78.8587 95.6855 77.5568 94.5349 77.7212 93.5212C77.7923 93.0829 78.3825 92.4967 78.8286 92.3999C79.7437 92.2013 81.0665 93.4707 81.0838 94.4579Z" fill="white"/>
<path d="M77.6641 98.453C77.802 98.2492 77.9413 97.8258 78.2193 97.6934C78.4971 97.5612 78.9958 97.6001 79.2519 97.7762C79.7729 98.1344 80.2643 98.5858 80.6332 99.0962C80.8517 99.3985 81.0079 100.109 80.8508 100.247C80.484 100.568 79.8562 100.89 79.4325 100.791C78.3732 100.544 77.9363 99.6245 77.6641 98.453Z" fill="white"/>
<path d="M68.1227 183.094H66.554C66.4613 182.643 66.2989 182.246 66.067 181.905C65.8392 181.563 65.5609 181.276 65.232 181.044C64.9073 180.808 64.5467 180.631 64.1503 180.513C63.754 180.395 63.3407 180.336 62.9106 180.336C62.1262 180.336 61.4156 180.534 60.7789 180.93C60.1463 181.327 59.6424 181.911 59.2671 182.683C58.896 183.454 58.7105 184.401 58.7105 185.523C58.7105 186.644 58.896 187.591 59.2671 188.363C59.6424 189.135 60.1463 189.719 60.7789 190.115C61.4156 190.511 62.1262 190.71 62.9106 190.71C63.3407 190.71 63.754 190.651 64.1503 190.532C64.5467 190.414 64.9073 190.239 65.232 190.007C65.5609 189.771 65.8392 189.482 66.067 189.141C66.2989 188.795 66.4613 188.399 66.554 187.952H68.1227C68.0047 188.614 67.7896 189.206 67.4775 189.729C67.1655 190.252 66.7775 190.697 66.3137 191.064C65.8498 191.426 65.329 191.703 64.7513 191.892C64.1778 192.082 63.5642 192.177 62.9106 192.177C61.8057 192.177 60.8232 191.907 59.9629 191.367C59.1026 190.828 58.4258 190.06 57.9324 189.065C57.439 188.07 57.1923 186.889 57.1923 185.523C57.1923 184.156 57.439 182.976 57.9324 181.98C58.4258 180.985 59.1026 180.218 59.9629 179.678C60.8232 179.138 61.8057 178.868 62.9106 178.868C63.5642 178.868 64.1778 178.963 64.7513 179.153C65.329 179.343 65.8498 179.621 66.3137 179.988C66.7775 180.351 67.1655 180.793 67.4775 181.316C67.7896 181.835 68.0047 182.427 68.1227 183.094ZM81.082 183.094H79.5133C79.4205 182.643 79.2582 182.246 79.0263 181.905C78.7985 181.563 78.5202 181.276 78.1913 181.044C77.8666 180.808 77.506 180.631 77.1096 180.513C76.7132 180.395 76.3 180.336 75.8698 180.336C75.0855 180.336 74.3749 180.534 73.7382 180.93C73.1056 181.327 72.6017 181.911 72.2264 182.683C71.8553 183.454 71.6697 184.401 71.6697 185.523C71.6697 186.644 71.8553 187.591 72.2264 188.363C72.6017 189.135 73.1056 189.719 73.7382 190.115C74.3749 190.511 75.0855 190.71 75.8698 190.71C76.3 190.71 76.7132 190.651 77.1096 190.532C77.506 190.414 77.8666 190.239 78.1913 190.007C78.5202 189.771 78.7985 189.482 79.0263 189.141C79.2582 188.795 79.4205 188.399 79.5133 187.952H81.082C80.964 188.614 80.7489 189.206 80.4368 189.729C80.1248 190.252 79.7368 190.697 79.2729 191.064C78.8091 191.426 78.2883 191.703 77.7106 191.892C77.137 192.082 76.5235 192.177 75.8698 192.177C74.765 192.177 73.7824 191.907 72.9222 191.367C72.0619 190.828 71.3851 190.06 70.8917 189.065C70.3983 188.07 70.1516 186.889 70.1516 185.523C70.1516 184.156 70.3983 182.976 70.8917 181.98C71.3851 180.985 72.0619 180.218 72.9222 179.678C73.7824 179.138 74.765 178.868 75.8698 178.868C76.5235 178.868 77.137 178.963 77.7106 179.153C78.2883 179.343 78.8091 179.621 79.2729 179.988C79.7368 180.351 80.1248 180.793 80.4368 181.316C80.7489 181.835 80.964 182.427 81.082 183.094ZM83.617 192V179.045H87.9942C89.0105 179.045 89.8412 179.229 90.4864 179.596C91.1358 179.958 91.6166 180.45 91.9286 181.07C92.2407 181.689 92.3967 182.381 92.3967 183.144C92.3967 183.908 92.2407 184.601 91.9286 185.225C91.6208 185.85 91.1443 186.347 90.4991 186.718C89.8539 187.085 89.0273 187.269 88.0195 187.269H84.882V185.877H87.9689C88.6647 185.877 89.2234 185.757 89.6451 185.516C90.0668 185.276 90.3726 184.951 90.5623 184.542C90.7563 184.129 90.8533 183.663 90.8533 183.144C90.8533 182.626 90.7563 182.162 90.5623 181.753C90.3726 181.344 90.0647 181.023 89.6388 180.791C89.2129 180.555 88.6478 180.437 87.9436 180.437H85.1857V192H83.617ZM94.133 192H92.4884L97.2452 179.045H98.8645L103.621 192H101.977L98.1054 181.095H98.0042L94.133 192ZM94.7403 186.94H101.369V188.331H94.7403V186.94Z" fill="white"/>
</svg>
