<svg xmlns="http://www.w3.org/2000/svg" fill="none" viewBox="0 0 434 429"><path fill="#fff" d="M20.61 25.03h4.13V3.13h-4.72l-6.85 9.42-6.85-9.41H1.56v21.9H5.7V9.1l6.98 9.54h.81l7.13-9.5v15.88Zm20.15-13.32c-.88-1.54-2.85-2.5-4.91-2.5-4.5-.04-8.04 2.75-8.04 8.06 0 5.42 3.37 8.23 7.94 8.2 1.72-.03 4.13-.9 5-2.72l.2 2.25h3.6V9.58h-3.67l-.12 2.13Zm-4.57.9c6 0 6 9.36 0 9.36-2.53 0-4.57-1.76-4.57-4.7 0-2.94 2.04-4.66 4.57-4.66Zm15.4-3.1V25h-3.82V9.52h3.82Zm-4.16-4.28c0 2.97 4.5 2.97 4.5 0s-4.5-2.97-4.5 0Zm7.61-2.1V25h3.79V3.14h-3.79ZM18.02 177.1a8.06 8.06 0 0 1-5.5 2.22c-5.42 0-7.52-3.78-7.55-7.41-.03-3.66 2.26-7.6 7.54-7.6 1.91 0 3.85.65 5.29 2.06l2.75-2.66a11.3 11.3 0 0 0-8.04-3.34c-7.91 0-11.63 5.81-11.6 11.54.03 5.7 3.47 11.29 11.6 11.29 3.16 0 6.07-1.03 8.32-3.25l-2.81-2.85Zm16.3-7.7c-.88-1.53-2.86-2.5-4.92-2.5-4.5-.03-8.04 2.76-8.04 8.07 0 5.41 3.38 8.23 7.95 8.2 1.72-.03 4.13-.9 5-2.72l.19 2.25h3.6v-15.42h-3.66l-.13 2.13Zm-4.58.91c6.01 0 6.01 9.36 0 9.36-2.53 0-4.56-1.76-4.56-4.7 0-2.94 2.03-4.66 4.56-4.66Zm11.59-9.47v21.86h3.78v-21.86h-3.78Zm22.41 15.51c.6-6.35-2.63-9.54-7.79-9.54-5 0-8.2 3.38-8.2 8.07 0 4.94 3.17 8.23 8.48 8.23 2.35 0 5-.82 6.63-2.5l-2.44-2.42c-.87.91-2.72 1.44-4.12 1.44-2.7 0-4.35-1.37-4.6-3.28h12.04Zm-11.98-3.16c.56-2 2.25-3 4.32-3 2.19 0 3.75 1 4 3h-8.32Zm30.1 9.51v-8.1c0-4.85-2.92-7.57-6.55-7.57-1.94 0-3.5.78-5.06 2.31l-.25-2.1h-3.41v15.46h3.78v-7.88c0-2.35 1.6-4.32 3.94-4.32 2.44 0 3.73 1.78 3.73 4.13v8.07h3.81Zm10.75-12.23a4.4 4.4 0 0 1 4.47 4.5 4.37 4.37 0 0 1-4.47 4.54 4.33 4.33 0 0 1-4.38-4.54c0-2.78 1.94-4.5 4.38-4.5Zm4.72-9.63v8.53c-.9-1.6-3.44-2.47-5.07-2.47-4.5 0-7.85 2.76-7.85 8.07 0 5.07 3.41 8.07 7.95 8.07 1.87 0 3.78-.62 4.97-2.47l.25 2.13h3.57v-21.86h-3.82Zm19.24 8.57c-.87-1.54-2.84-2.5-4.9-2.5-4.51-.04-8.05 2.75-8.05 8.06 0 5.41 3.38 8.23 7.95 8.2 1.72-.03 4.13-.9 5-2.72l.19 2.25h3.6v-15.42h-3.66l-.13 2.13Zm-4.56.9c6 0 6 9.36 0 9.36-2.54 0-4.57-1.76-4.57-4.7 0-2.94 2.03-4.66 4.56-4.66Zm11.58-3.03v15.42h3.81v-8.13c0-2.85 1.85-3.91 3.85-3.91a3.8 3.8 0 0 1 2.75 1l1.72-3.32a5.85 5.85 0 0 0-3.97-1.47c-1.56 0-3.16.28-4.34 2.2l-.29-1.8h-3.53ZM18.02 332.2a8.06 8.06 0 0 1-5.5 2.22c-5.42 0-7.52-3.79-7.55-7.42-.03-3.66 2.26-7.6 7.54-7.6 1.91 0 3.85.66 5.29 2.06l2.75-2.65a11.3 11.3 0 0 0-8.04-3.35C4.6 315.46.88 321.28.91 327c.03 5.7 3.47 11.3 11.6 11.3 3.16 0 6.07-1.04 8.32-3.26l-2.81-2.85Zm11.8-10.14c-4.9 0-7.97 3.63-7.97 8.04 0 4.44 3 8.04 8.01 8.04 5 0 8.04-3.6 8.04-8.04 0-4.41-3.16-8.04-8.07-8.04Zm.04 3.47c2.57 0 4.2 2.25 4.2 4.57 0 2.34-1.42 4.53-4.2 4.53-2.78 0-4.2-2.19-4.2-4.53 0-2.32 1.45-4.57 4.2-4.57ZM55.7 337.8v-8.1c0-4.85-2.9-7.57-6.53-7.57-1.94 0-3.5.78-5.07 2.32l-.25-2.1h-3.41v15.45h3.78v-7.88c0-2.35 1.6-4.32 3.95-4.32 2.44 0 3.72 1.79 3.72 4.13v8.07h3.81Zm4.18-19.36v3.97H57v3.29h2.88v6.66c0 3.85 2.18 5.76 5.53 5.63a8.54 8.54 0 0 0 3.16-.66l-1.06-3.25a4.4 4.4 0 0 1-1.85.47c-1.19 0-2-.72-2-2.19v-6.66h4.29v-3.29h-4.26v-4.38l-3.81.41Zm23.03 6.07c-.88-1.53-2.85-2.5-4.91-2.5-4.5-.03-8.04 2.75-8.04 8.07 0 5.4 3.38 8.22 7.95 8.2 1.72-.04 4.12-.91 5-2.73l.19 2.25h3.6v-15.42h-3.67l-.12 2.13Zm-4.57.9c6 0 6 9.36 0 9.36-2.53 0-4.56-1.75-4.56-4.7 0-2.93 2.03-4.65 4.56-4.65Zm22.59 7.92a4.64 4.64 0 0 1-3.38 1.28c-2.38 0-4.38-1.56-4.38-4.5 0-2.7 1.88-4.57 4.44-4.57 1.07 0 2.2.4 3.1 1.22l2.4-2.53a7.32 7.32 0 0 0-5.56-2.29c-4.47 0-8.2 2.7-8.2 8.17s3.73 8.16 8.2 8.16c2.28 0 4.16-.69 5.94-2.44l-2.56-2.5Zm5.8-14.89v3.97h-2.87v3.29h2.87v6.66c0 3.85 2.2 5.76 5.54 5.63a8.54 8.54 0 0 0 3.16-.66l-1.07-3.25c-.56.28-1.25.47-1.84.47-1.19 0-2-.72-2-2.19v-6.66h4.28v-3.29h-4.25v-4.38l-3.82.41Zm23.13 5.54c-1.78-1.57-3.6-2.04-6-2.04-2.82 0-6.51 1.26-6.51 4.82 0 3.5 3.47 4.57 6.38 4.79 2.19.12 3.07.56 3.07 1.62 0 1.13-1.35 1.88-2.79 1.85-1.72-.03-4.22-.94-5.32-2.16l-1.87 2.72c2.25 2.35 4.69 2.75 7.13 2.75 4.41 0 6.63-2.34 6.63-5.06 0-4.1-3.69-4.76-6.6-4.94-1.97-.13-2.88-.7-2.88-1.7 0-.96 1-1.53 2.82-1.53a5.2 5.2 0 0 1 3.81 1.38l2.13-2.5Z"/><path fill="#A490B0" d="M32.88 53.44H6.46a6.72 6.72 0 0 0-4.54 1.97A6.59 6.59 0 0 0 0 59.95l.34 47.36a6.6 6.6 0 0 0 2 4.5 6.73 6.73 0 0 0 4.58 1.9l35.37-.23a6.72 6.72 0 0 0 4.55-1.98 6.59 6.59 0 0 0 1.92-4.53l-.34-38.5-15.54-15.03Z"/><path fill="#907C9C" d="M32.54 53.44v9.65a6.34 6.34 0 0 0 4.07 5.94c.8.32 1.65.47 2.5.45h9.2v-.78L32.87 53.44h-.34Z"/><path fill="#fff" d="M8 89.44c-.01-.37.1-.67.35-.9.24-.25.54-.38.9-.38a1.25 1.25 0 0 1 1.28 1.26c0 .36-.11.67-.35.9-.25.26-.56.39-.92.39A1.26 1.26 0 0 1 8 89.44Zm6.63.98-2.36.02-.07-9.23 2.63-.02c1.03 0 1.75.04 2.18.14a2.66 2.66 0 0 1 1.84 1.55c.18.42.28.9.28 1.42 0 .55-.08 1.03-.26 1.45a2.4 2.4 0 0 1-1.7 1.48c-.31.09-.88.14-1.68.14h-.88l.02 3.05Zm-.04-5.07h.48c.6 0 1.02-.1 1.27-.27.24-.16.35-.44.35-.84 0-.39-.12-.66-.36-.82-.23-.17-.65-.25-1.25-.24h-.5l.01 2.17Zm6.25 2.05c.4.42.77.74 1.12.94.37.21.73.31 1.09.31.33 0 .6-.1.82-.28a.85.85 0 0 0 .32-.69c0-.3-.09-.53-.27-.7a3.4 3.4 0 0 0-1.29-.5 4.18 4.18 0 0 1-1.91-.94c-.38-.4-.58-.93-.58-1.61 0-.88.28-1.6.87-2.16a3.18 3.18 0 0 1 2.3-.86 4.74 4.74 0 0 1 2.74.8l-.78 1.82a3.3 3.3 0 0 0-.88-.54 2.4 2.4 0 0 0-.9-.18c-.29 0-.53.08-.73.22a.65.65 0 0 0-.28.56c0 .22.09.4.25.55a2.82 2.82 0 0 0 1.08.42c1.02.27 1.7.57 2.03.9.22.22.39.49.51.82.11.3.17.66.17 1.05.01.98-.3 1.77-.94 2.38-.65.6-1.5.9-2.57.9-.66 0-1.24-.1-1.76-.3a5.09 5.09 0 0 1-1.53-1.03l1.12-1.88Zm8.45 2.92-.05-7.05-2.07.02-.01-2.18 6.65-.05.01 2.18-2.06.02.05 7.05-2.52.01Z"/><path fill="#A490B0" d="M32.8 209.83H6.45a6.7 6.7 0 0 0-4.54 1.97A6.57 6.57 0 0 0 0 216.32l.34 47.25c.06 1.7.77 3.3 2 4.49a6.7 6.7 0 0 0 4.56 1.9l35.29-.23a6.7 6.7 0 0 0 4.53-1.97 6.57 6.57 0 0 0 1.92-4.53l-.34-38.4-15.5-15Z"/><path fill="#907C9C" d="M32.46 209.83v9.63a6.32 6.32 0 0 0 4.06 5.93c.8.31 1.64.47 2.5.45h9.16v-.78L32.8 209.83h-.34Z"/><path fill="#fff" d="M7.97 245.78c0-.37.12-.67.36-.9.24-.25.54-.38.9-.38a1.25 1.25 0 0 1 1.28 1.26 1.24 1.24 0 0 1-1.27 1.28 1.25 1.25 0 0 1-1.27-1.26Zm4.06 1-.04-6.35 2.24-.02.04 6.35-2.24.02Zm.23-8h.01c0-.23.08-.42.24-.57a.8.8 0 0 1 .6-.25.8.8 0 0 1 .83.82c0 .24-.07.44-.24.6a.8.8 0 0 1-.59.25.8.8 0 0 1-.6-.25.8.8 0 0 1-.25-.6Zm10.62-.93.02 2.75c-.37-.4-.7-.67-1.03-.85a2.5 2.5 0 0 0-1.1-.25 2.28 2.28 0 0 0-2.13 1.3c-.1.2-.17.41-.22.66a4.4 4.4 0 0 0-.06.73c0 .74.24 1.35.7 1.84a2.3 2.3 0 0 0 1.74.7c.38 0 .74-.09 1.1-.27.32-.17.66-.45 1.02-.85l.02 2.75a5.83 5.83 0 0 1-2.38.6c-.5 0-.96-.06-1.4-.18-.44-.11-.83-.3-1.17-.53a4.77 4.77 0 0 1-2.15-4.1 5.08 5.08 0 0 1 .73-2.71c.16-.25.37-.52.63-.79.43-.45.93-.8 1.47-1.01a4.78 4.78 0 0 1 1.82-.35 5.57 5.57 0 0 1 2.39.56Zm6.14 5.63c0-.5-.14-.9-.4-1.17a1.4 1.4 0 0 0-1.1-.43c-.44 0-.8.15-1.06.43-.26.3-.4.7-.4 1.19.01.5.15.89.42 1.17.26.28.61.42 1.07.42.45 0 .81-.15 1.07-.43.27-.28.4-.68.4-1.18Zm1.94-3.19.05 6.36-2.06.01v-1.03a3 3 0 0 1-1 .98c-.36.2-.79.31-1.28.31-.85 0-1.53-.3-2.04-.91-.25-.3-.44-.67-.57-1.08-.13-.42-.2-.88-.2-1.4a3.6 3.6 0 0 1 .78-2.48 2.7 2.7 0 0 1 2.13-.93c.48 0 .89.1 1.23.3.35.2.65.5.9.93v-1.04l2.06-.02Zm1.8 6.35-.06-9.75 2.24-.02.07 9.75-2.25.02Z"/><path fill="#A490B0" d="M32.8 367.53H6.45a6.71 6.71 0 0 0-4.54 1.97A6.57 6.57 0 0 0 0 374.02l.34 47.25c.06 1.7.77 3.3 2 4.49a6.71 6.71 0 0 0 4.56 1.9l35.29-.23a6.7 6.7 0 0 0 4.53-1.98 6.57 6.57 0 0 0 1.92-4.52l-.34-38.4-15.5-15Z"/><path fill="#907C9C" d="M32.46 367.53v9.63a6.33 6.33 0 0 0 4.06 5.93c.8.31 1.64.47 2.5.45h9.16v-.78L32.8 367.53h-.34Z"/><path fill="#fff" d="M7.81 401.19c0-.36.12-.66.35-.9.25-.25.54-.37.9-.37a1.25 1.25 0 0 1 1.29 1.25c0 .37-.12.67-.36.91-.25.25-.55.38-.91.38a1.25 1.25 0 0 1-1.27-1.27Zm6.62.99-2.35.01L12 393l2.63-.03c1.01 0 1.74.04 2.17.14a2.65 2.65 0 0 1 1.83 1.55c.19.42.28.9.28 1.41 0 .56-.08 1.04-.26 1.45a2.4 2.4 0 0 1-1.69 1.48 7.3 7.3 0 0 1-1.68.14h-.88l.02 3.05Zm-.04-5.07h.48c.6 0 1.02-.1 1.27-.27.23-.16.35-.44.35-.84 0-.38-.12-.65-.36-.81-.23-.17-.65-.25-1.25-.25h-.5l.01 2.17Zm6.24 2.05c.39.42.76.74 1.11.94.37.2.74.3 1.09.3.33 0 .6-.09.82-.27a.85.85 0 0 0 .32-.69c0-.3-.1-.54-.27-.7a3.7 3.7 0 0 0-1.28-.5 4.16 4.16 0 0 1-1.92-.94 2.2 2.2 0 0 1-.57-1.6 2.8 2.8 0 0 1 .87-2.16 3.18 3.18 0 0 1 2.28-.85 4.73 4.73 0 0 1 2.74.8l-.77 1.81a3.27 3.27 0 0 0-.88-.55 2.4 2.4 0 0 0-.9-.17c-.29 0-.53.07-.73.22a.65.65 0 0 0-.28.56c0 .22.09.4.25.55a2.83 2.83 0 0 0 1.08.41c1.02.27 1.7.57 2.03.9.21.22.38.5.5.82.12.3.17.66.18 1.05a3.1 3.1 0 0 1-.95 2.37c-.64.6-1.5.9-2.56.9-.65 0-1.24-.1-1.76-.3a5.06 5.06 0 0 1-1.52-1.03l1.12-1.87Zm8.43 2.91-.05-7.03-2.07.02-.01-2.18 6.63-.05.02 2.18-2.06.01.04 7.04-2.5.01Z"/><path fill="#7BADD5" d="M94.77 53.44H68.35a6.72 6.72 0 0 0-4.54 1.97 6.59 6.59 0 0 0-1.92 4.54l.34 47.36a6.6 6.6 0 0 0 2 4.5 6.73 6.73 0 0 0 4.58 1.9l35.37-.23a6.72 6.72 0 0 0 4.55-1.98 6.59 6.59 0 0 0 1.92-4.53l-.34-38.5-15.54-15.03Z"/><path fill="#6799C1" d="M94.43 53.44v9.65a6.34 6.34 0 0 0 4.07 5.94c.8.32 1.65.47 2.5.45h9.2v-.78L94.76 53.44h-.34Z"/><path fill="#fff" d="M69.88 89.44c0-.37.12-.67.36-.9.24-.25.54-.38.9-.38a1.25 1.25 0 0 1 1.29 1.26c0 .36-.12.67-.36.9-.25.26-.56.39-.92.39a1.26 1.26 0 0 1-1.27-1.27Zm14.87.93-2.35.01-.57-3.98a24.09 24.09 0 0 1-.2-2.07 12.96 12.96 0 0 1-.42 1.74l-1.23 4.33-1.68.01-1.28-4.31a9.15 9.15 0 0 1-.43-1.73 20.3 20.3 0 0 1-.15 1.55l-.05.51-.51 4-2.34.02 1.36-9.25 2.49-.01 1.42 4.75.06.17c.12.4.2.75.25 1.08 0-.11.04-.3.09-.56l.18-.7 1.38-4.77 2.5-.01 1.48 9.22Zm1.74-3c.4.43.76.74 1.12.95.37.2.73.3 1.09.3.33 0 .6-.09.82-.27a.85.85 0 0 0 .32-.7c0-.3-.1-.53-.27-.7-.2-.16-.63-.33-1.29-.5a4.18 4.18 0 0 1-1.91-.94 2.17 2.17 0 0 1-.58-1.6c0-.89.28-1.61.87-2.17a3.18 3.18 0 0 1 2.29-.85 4.74 4.74 0 0 1 2.75.8l-.78 1.82a3.3 3.3 0 0 0-.88-.55 2.4 2.4 0 0 0-.9-.18c-.29 0-.53.08-.73.23a.65.65 0 0 0-.28.56c0 .22.09.4.25.55a2.82 2.82 0 0 0 1.08.41c1.02.27 1.7.57 2.03.91.22.21.39.48.51.81.11.31.17.66.17 1.06.01.97-.3 1.76-.94 2.37-.65.6-1.5.9-2.57.9-.66.01-1.24-.1-1.76-.3a5.09 5.09 0 0 1-1.53-1.03l1.12-1.88Zm11.48-.5-.01-1.93 4.94-.03c0 .09 0 .15.02.2v.34c.01 1.6-.4 2.83-1.22 3.7a4.68 4.68 0 0 1-3.54 1.35c-.73 0-1.4-.1-2-.32a4.67 4.67 0 0 1-2.88-3.52 5.25 5.25 0 0 1 .24-2.86 4.86 4.86 0 0 1 2.63-2.6 5.4 5.4 0 0 1 1.94-.36 5.14 5.14 0 0 1 3.06.93 4.06 4.06 0 0 1 1.1 1.17L100.09 84a2.7 2.7 0 0 0-.88-.8c-.33-.17-.7-.25-1.1-.25a2.2 2.2 0 0 0-1.76.77c-.43.5-.64 1.18-.63 2.06 0 .89.22 1.58.66 2.08.42.5 1.02.74 1.77.74a2.5 2.5 0 0 0 1.6-.5c.43-.31.68-.73.74-1.24l-2.5.02Z"/><path fill="#7BADD5" d="M94.54 209.83H68.18a6.7 6.7 0 0 0-4.53 1.97 6.57 6.57 0 0 0-1.91 4.52l.34 47.25c.05 1.7.77 3.3 1.99 4.49a6.7 6.7 0 0 0 4.57 1.9l35.28-.23a6.7 6.7 0 0 0 4.54-1.97 6.57 6.57 0 0 0 1.91-4.53l-.34-38.4-15.5-15Z"/><path fill="#6799C1" d="M94.2 209.83v9.63a6.32 6.32 0 0 0 4.06 5.93c.8.31 1.64.47 2.5.45h9.16v-.78l-15.38-15.23h-.34Z"/><path fill="#fff" d="M69.71 245.78c0-.37.11-.67.35-.9.24-.25.54-.38.9-.38a1.25 1.25 0 0 1 1.28 1.26c0 .36-.11.67-.35.9-.25.26-.56.38-.91.38a1.25 1.25 0 0 1-1.27-1.26Zm6.62.98-2.35.02-.07-9.21 2.62-.02c1.02 0 1.75.04 2.17.14a2.65 2.65 0 0 1 1.84 1.54c.18.43.28.9.28 1.42 0 .55-.08 1.03-.26 1.45a2.4 2.4 0 0 1-1.69 1.48 7.3 7.3 0 0 1-1.68.14h-.88l.02 3.04Zm-.04-5.06h.48c.6-.01 1.02-.1 1.26-.27.24-.16.36-.44.36-.84 0-.38-.13-.65-.36-.82-.23-.16-.65-.24-1.25-.24h-.5l.01 2.17Zm6.24 2.04c.39.43.76.74 1.11.94.37.21.73.31 1.09.31.33 0 .6-.1.82-.27a.85.85 0 0 0 .32-.7c0-.3-.1-.53-.27-.7-.2-.16-.63-.33-1.29-.5a4.16 4.16 0 0 1-1.9-.93c-.39-.4-.58-.93-.59-1.6 0-.89.29-1.6.88-2.16a3.18 3.18 0 0 1 2.28-.86 4.73 4.73 0 0 1 2.74.8l-.77 1.82a3.27 3.27 0 0 0-.89-.55c-.3-.12-.6-.18-.88-.18-.3 0-.54.08-.74.23a.65.65 0 0 0-.28.56c0 .22.09.4.25.55a2.82 2.82 0 0 0 1.07.41 4.6 4.6 0 0 1 2.04.9c.21.22.38.49.5.81.12.31.17.66.18 1.06 0 .97-.31 1.76-.95 2.36-.64.6-1.5.9-2.56.9a4.49 4.49 0 0 1-1.76-.3 5.06 5.06 0 0 1-1.52-1.02l1.12-1.88Zm8.42 2.92-.05-7.03-2.06.01-.02-2.17 6.64-.05.02 2.18-2.07.01.05 7.03-2.5.02Z"/><path fill="#7BADD5" d="M94.54 367.53H68.18a6.71 6.71 0 0 0-4.53 1.97 6.57 6.57 0 0 0-1.91 4.52l.34 47.25c.05 1.7.77 3.3 1.99 4.49a6.71 6.71 0 0 0 4.57 1.9l35.28-.23a6.7 6.7 0 0 0 4.54-1.98 6.57 6.57 0 0 0 1.91-4.52l-.34-38.4-15.5-15Z"/><path fill="#6799C1" d="M94.2 367.53v9.63a6.33 6.33 0 0 0 4.06 5.93c.8.31 1.64.47 2.5.45h9.16v-.78l-15.38-15.23h-.34Z"/><path fill="#fff" d="M64.95 400.5c0-.35.12-.65.36-.9.24-.24.54-.36.9-.37a1.25 1.25 0 0 1 1.28 1.26c0 .37-.12.67-.35.9-.26.26-.56.38-.92.39a1.25 1.25 0 0 1-1.27-1.27Zm6.03 1-2.9-6.33 2.39-.02 1.1 2.8.05.1c.11.31.2.6.26.89a5 5 0 0 1 .3-1l1.06-2.81 2.34-.02-2.84 6.38h-1.76Zm12.12-8.94.02 2.75c-.36-.4-.7-.67-1.02-.85a2.52 2.52 0 0 0-1.11-.25 2.28 2.28 0 0 0-2.13 1.3 3.54 3.54 0 0 0-.28 1.39c.01.74.24 1.35.7 1.84a2.3 2.3 0 0 0 1.74.7c.38 0 .75-.09 1.11-.27a3.7 3.7 0 0 0 1.01-.85l.02 2.75a5.83 5.83 0 0 1-2.38.6c-.5 0-.96-.06-1.4-.18-.43-.11-.82-.3-1.17-.53a4.77 4.77 0 0 1-2.14-4.1 5.08 5.08 0 0 1 .73-2.71c.16-.25.37-.52.62-.79.44-.45.93-.8 1.48-1.01a4.78 4.78 0 0 1 1.81-.35 5.57 5.57 0 0 1 2.4.56Zm6.14 5.63c0-.5-.13-.9-.4-1.17a1.4 1.4 0 0 0-1.09-.43c-.45 0-.8.15-1.06.43-.27.3-.4.7-.4 1.19 0 .5.14.89.41 1.17.26.28.62.42 1.08.42.45 0 .8-.15 1.07-.43.27-.29.4-.68.4-1.18ZM91.2 395l.05 6.36-2.06.01v-1.03a3 3 0 0 1-1 .98c-.37.2-.8.31-1.28.31-.85 0-1.53-.3-2.04-.91-.25-.3-.44-.67-.58-1.08a4.7 4.7 0 0 1-.2-1.4c0-1.04.25-1.87.78-2.48a2.7 2.7 0 0 1 2.13-.93c.48 0 .9.1 1.24.3.35.2.65.5.9.93v-1.04l2.06-.01Zm1.75 6.35-.05-6.36 2.12-.01v1.5c.23-.56.52-.97.89-1.24a2.3 2.3 0 0 1 1.37-.42 2.1 2.1 0 0 1 .4.03h.14l-.2 2.05a3.27 3.27 0 0 0-.4-.1l-.37-.03c-.55 0-.97.18-1.26.51-.3.34-.44.8-.43 1.42l.02 2.63-2.23.02Zm10.58-3.25c0-.5-.13-.89-.39-1.17a1.43 1.43 0 0 0-1.08-.42c-.46 0-.81.15-1.07.44-.26.29-.39.68-.38 1.17 0 .5.13.9.4 1.18.25.28.61.41 1.07.41.45 0 .81-.14 1.08-.43.25-.28.38-.67.37-1.18Zm1.94-6.6.07 9.76-2.06.01v-1.03c-.29.44-.61.76-.97.96a2.1 2.1 0 0 1-1.18.33c-.89.01-1.6-.3-2.14-.91a3.7 3.7 0 0 1-.8-2.48c-.02-1 .24-1.83.77-2.47a2.6 2.6 0 0 1 2.05-.94c.53 0 .97.1 1.3.3.33.17.64.49.92.95a7.12 7.12 0 0 1-.08-1.13l-.03-3.33 2.15-.01Z"/><path fill="#A7B88F" d="M156.66 53.44h-26.41a6.72 6.72 0 0 0-4.55 1.97 6.59 6.59 0 0 0-1.92 4.54l.34 47.36a6.6 6.6 0 0 0 2 4.5 6.73 6.73 0 0 0 4.58 1.9l35.38-.23a6.72 6.72 0 0 0 4.54-1.98 6.59 6.59 0 0 0 1.92-4.53l-.34-38.5-15.54-15.03Z"/><path fill="#93A47B" d="M156.32 53.44v9.65a6.34 6.34 0 0 0 4.07 5.94c.8.32 1.65.47 2.51.45h9.19v-.78l-15.43-15.26h-.34Z"/><path fill="#fff" d="M131.78 89.44c0-.37.11-.67.35-.9.24-.25.54-.38.9-.38.37 0 .68.12.92.36s.36.54.37.9c0 .36-.12.67-.36.9-.25.26-.56.39-.92.39a1.26 1.26 0 0 1-1.26-1.27Zm4.27 1-.06-9.23 5.65-.04.02 2.02-3.2.03v1.6l3.03-.02.01 1.98-3.02.02.01 1.56 3.2-.03.02 2.07-5.66.04Zm17.92-.12-2.35.01-.58-3.98-.1-.94c-.03-.27-.07-.64-.1-1.13a12.82 12.82 0 0 1-.42 1.74l-1.22 4.33-1.68.01-1.28-4.32a9.16 9.16 0 0 1-.44-1.73l-.08 1.04-.06.52-.05.51-.52 4-2.34.01 1.37-9.24 2.49-.01 1.42 4.75.05.17c.13.4.21.75.26 1.08 0-.11.04-.3.09-.56l.18-.71 1.38-4.76 2.5-.01 1.48 9.22Zm1.35-.01-.06-9.23 2.51-.02.05 7.07 3.13-.02.02 2.16-5.65.04Z"/><path fill="#A7B88F" d="M156.28 209.83h-26.36a6.7 6.7 0 0 0-4.53 1.97 6.57 6.57 0 0 0-1.92 4.52l.34 47.25c.06 1.7.77 3.3 2 4.49a6.7 6.7 0 0 0 4.56 1.9l35.3-.23a6.7 6.7 0 0 0 4.53-1.97 6.57 6.57 0 0 0 1.91-4.53l-.34-38.4-15.5-15Z"/><path fill="#93A47B" d="M155.94 209.83v9.63a6.3 6.3 0 0 0 1.92 4.55 6.44 6.44 0 0 0 4.64 1.83h9.16v-.78l-15.38-15.23h-.34Z"/><path fill="#fff" d="M131.45 245.78c0-.37.11-.67.35-.9.24-.25.54-.38.9-.38a1.25 1.25 0 0 1 1.28 1.26c0 .36-.11.67-.35.9-.25.26-.56.38-.91.38a1.25 1.25 0 0 1-1.27-1.26Zm6.9.98-3.93-9.18 2.67-.02 1.88 5.14.02.09.08.3.22.84c.05-.25.11-.5.19-.76l.12-.48 1.8-5.16 2.66-.02-3.8 9.24-1.91.01Zm13.13-8.94.02 2.74c-.36-.39-.7-.67-1.02-.84a2.53 2.53 0 0 0-1.11-.25 2.28 2.28 0 0 0-2.12 1.3c-.1.2-.17.4-.22.65a4.5 4.5 0 0 0-.06.73c0 .74.23 1.35.69 1.84a2.3 2.3 0 0 0 1.75.71c.37 0 .74-.1 1.1-.28a3.8 3.8 0 0 0 1.02-.85l.01 2.75a5.84 5.84 0 0 1-2.38.6c-.5 0-.96-.06-1.4-.17a4.78 4.78 0 0 1-3.32-4.63 5.08 5.08 0 0 1 .74-2.72c.16-.25.37-.51.62-.78.44-.46.93-.8 1.48-1.02a4.77 4.77 0 0 1 1.82-.34 5.5 5.5 0 0 1 2.38.56Zm1.87 5.86c.39.43.76.74 1.11.94.37.21.73.31 1.09.31.33 0 .6-.1.82-.28a.85.85 0 0 0 .32-.68c0-.3-.1-.54-.27-.71a3.8 3.8 0 0 0-1.28-.5 4.17 4.17 0 0 1-1.92-.93c-.38-.4-.57-.93-.57-1.61a2.8 2.8 0 0 1 .87-2.16 3.17 3.17 0 0 1 2.28-.85 4.76 4.76 0 0 1 2.74.8l-.77 1.81a3.3 3.3 0 0 0-.89-.54c-.3-.12-.6-.18-.88-.18-.3 0-.54.08-.74.23a.65.65 0 0 0-.28.55c0 .22.09.4.25.55a2.83 2.83 0 0 0 1.08.42 4.6 4.6 0 0 1 2.03.9c.21.22.38.48.5.81.12.31.17.66.18 1.06 0 .97-.31 1.76-.95 2.36-.64.6-1.5.9-2.56.9-.65.01-1.24-.1-1.76-.3a5.1 5.1 0 0 1-1.52-1.02l1.12-1.88Z"/><path fill="#A7B88F" d="M156.28 367.53h-26.36a6.71 6.71 0 0 0-4.53 1.97 6.57 6.57 0 0 0-1.92 4.52l.34 47.25c.06 1.7.77 3.3 2 4.49a6.71 6.71 0 0 0 4.56 1.9l35.3-.23a6.7 6.7 0 0 0 4.53-1.98 6.57 6.57 0 0 0 1.91-4.52l-.34-38.4-15.5-15Z"/><path fill="#93A47B" d="M155.94 367.53v9.63a6.31 6.31 0 0 0 1.92 4.55 6.44 6.44 0 0 0 4.64 1.83h9.16v-.78l-15.38-15.23h-.34Z"/><path fill="#fff" d="M129.19 400.5c0-.37.11-.67.35-.91.24-.25.54-.37.9-.37a1.25 1.25 0 0 1 1.28 1.25 1.25 1.25 0 0 1-1.26 1.29 1.25 1.25 0 0 1-1.27-1.27Zm7.47-6.1.02.03a4 4 0 0 1 .3.72 2.55 2.55 0 0 1 .31-.75l1.1-2.15 2.98-.02-3.04 4.45 3.43 4.76-2.85.01-1.59-2.71a7.57 7.57 0 0 1-.2-.38l-.12-.38a2.67 2.67 0 0 1-.3.76l-1.56 2.74-2.85.02 3.38-4.85-3.12-4.36 3-.02 1.11 2.13Zm6.28 4.05c.39.43.76.74 1.11.94.37.21.73.31 1.09.31.33 0 .6-.1.82-.27a.85.85 0 0 0 .32-.7c0-.3-.1-.53-.28-.7a3.7 3.7 0 0 0-1.28-.5 4.16 4.16 0 0 1-1.9-.93c-.39-.4-.58-.93-.59-1.6 0-.89.29-1.6.88-2.17a3.18 3.18 0 0 1 2.28-.85 4.7 4.7 0 0 1 2.74.8l-.77 1.82a3.3 3.3 0 0 0-.89-.55c-.3-.12-.6-.18-.88-.18-.3 0-.54.08-.74.23a.65.65 0 0 0-.28.55c0 .23.09.41.25.56.17.13.5.26.97.39h.05l.05.02a4.6 4.6 0 0 1 2.04.9c.21.22.38.49.5.81.12.31.17.66.17 1.06.01.97-.3 1.76-.94 2.36-.64.6-1.5.9-2.56.9a4.46 4.46 0 0 1-1.76-.3 5.05 5.05 0 0 1-1.52-1.02l1.12-1.88Zm7.1 2.93-.07-9.21 2.51-.02.05 7.06 3.12-.02.01 2.15-5.62.04Zm10.06-7.14.01.02c.16.3.26.54.3.73a2.6 2.6 0 0 1 .32-.76l1.1-2.14 2.98-.02-3.05 4.45 3.44 4.75-2.85.02-1.59-2.72a8.98 8.98 0 0 1-.2-.37l-.13-.38a2.9 2.9 0 0 1-.3.76l-1.55 2.74-2.85.02 3.38-4.85-3.12-4.36 2.99-.02 1.12 2.13Z"/><path fill="#D88E8C" d="M218.53 209.83h-26.36a6.7 6.7 0 0 0-4.53 1.97 6.57 6.57 0 0 0-1.91 4.52l.34 47.25c.05 1.7.77 3.3 1.99 4.49a6.7 6.7 0 0 0 4.56 1.9l35.3-.23a6.7 6.7 0 0 0 4.53-1.97 6.57 6.57 0 0 0 1.91-4.53l-.34-38.4-15.5-15Z"/><path fill="#C47A78" d="M218.19 209.83v9.63a6.3 6.3 0 0 0 1.93 4.55 6.44 6.44 0 0 0 4.63 1.83h9.16v-.78l-15.38-15.23h-.34Z"/><path fill="#fff" d="M193.7 245.78c0-.37.11-.67.35-.9.24-.25.54-.38.9-.38a1.25 1.25 0 0 1 1.28 1.26c0 .36-.11.67-.35.9-.25.26-.56.38-.91.38a1.25 1.25 0 0 1-1.27-1.26Zm4.33 1-.07-9.21 2.54-.02.06 9.21-2.53.02Zm11.18-8.93.01 2.74c-.36-.39-.7-.67-1.02-.84a2.52 2.52 0 0 0-1.1-.25 2.28 2.28 0 0 0-2.13 1.3c-.1.2-.17.41-.22.65a4.5 4.5 0 0 0-.06.73c0 .74.24 1.35.7 1.84a2.46 2.46 0 0 0 2.85.43c.31-.16.65-.44 1-.84l.03 2.74a5.89 5.89 0 0 1-2.38.6c-.5 0-.96-.05-1.4-.17a4.78 4.78 0 0 1-3.32-4.63 5.08 5.08 0 0 1 .73-2.72 5.13 5.13 0 0 1 2.1-1.8 4.78 4.78 0 0 1 1.82-.34 5.5 5.5 0 0 1 2.39.56Zm1.86 5.86c.4.43.76.74 1.12.94.37.21.73.31 1.08.31.33 0 .6-.1.82-.28a.85.85 0 0 0 .32-.68c0-.3-.09-.54-.27-.71a3.8 3.8 0 0 0-1.28-.5 4.17 4.17 0 0 1-1.92-.93c-.38-.4-.57-.93-.57-1.6 0-.89.28-1.6.87-2.17a3.17 3.17 0 0 1 2.28-.85 4.73 4.73 0 0 1 2.74.8l-.77 1.82a3.28 3.28 0 0 0-.88-.55 2.4 2.4 0 0 0-.9-.18c-.28 0-.53.08-.72.23a.65.65 0 0 0-.28.55c0 .23.08.41.25.56a2.79 2.79 0 0 0 1.07.41c1.02.27 1.7.57 2.03.9.21.22.38.49.5.81.12.31.18.66.18 1.06 0 .97-.3 1.76-.95 2.36-.64.6-1.5.9-2.56.9a4.6 4.6 0 0 1-1.75-.3 5.07 5.07 0 0 1-1.53-1.02l1.12-1.88Z"/><path fill="#D88E8C" d="M218.53 367.53h-26.36a6.71 6.71 0 0 0-4.53 1.97 6.57 6.57 0 0 0-1.91 4.52l.34 47.25c.05 1.7.77 3.3 1.99 4.49a6.71 6.71 0 0 0 4.56 1.9l35.3-.23a6.7 6.7 0 0 0 4.53-1.98 6.57 6.57 0 0 0 1.91-4.52l-.34-38.4-15.5-15Z"/><path fill="#C47A78" d="M218.19 367.53v9.63a6.31 6.31 0 0 0 1.93 4.55 6.44 6.44 0 0 0 4.63 1.83h9.16v-.78l-15.38-15.23h-.34Z"/><path fill="#fff" d="M193.68 400.48a1.23 1.23 0 0 1 1.25-1.27 1.25 1.25 0 0 1 1.28 1.25c0 .36-.11.67-.35.9-.25.25-.56.38-.92.38a1.26 1.26 0 0 1-1.26-1.26Zm10.88-7.9.01 2.74c-.36-.38-.7-.67-1.02-.84a2.53 2.53 0 0 0-1.1-.25 2.28 2.28 0 0 0-2.13 1.3c-.1.2-.17.41-.22.66-.04.23-.06.48-.06.73 0 .73.23 1.35.69 1.83a2.3 2.3 0 0 0 1.75.71c.38 0 .74-.1 1.1-.27.32-.17.66-.45 1.02-.85l.02 2.75a5.9 5.9 0 0 1-2.38.6c-.5 0-.97-.06-1.4-.18-.44-.12-.83-.3-1.18-.53a4.78 4.78 0 0 1-1.58-1.73 5.18 5.18 0 0 1-.56-2.37 5.08 5.08 0 0 1 .73-2.71c.16-.26.37-.52.62-.79.44-.45.93-.8 1.48-1.01a4.76 4.76 0 0 1 1.82-.35 5.5 5.5 0 0 1 2.39.56Zm1.86 5.86c.39.43.76.74 1.12.95.37.2.73.3 1.08.3.33 0 .6-.1.82-.27a.85.85 0 0 0 .32-.7c0-.3-.1-.53-.27-.7a3.8 3.8 0 0 0-1.28-.5 4.17 4.17 0 0 1-1.92-.93c-.38-.4-.57-.93-.57-1.6 0-.89.28-1.6.87-2.17a3.17 3.17 0 0 1 2.28-.85 4.73 4.73 0 0 1 2.75.8l-.78 1.82a3.3 3.3 0 0 0-.88-.55 2.4 2.4 0 0 0-.9-.18c-.28 0-.53.08-.73.23a.65.65 0 0 0-.28.56c0 .22.09.4.25.55a2.83 2.83 0 0 0 1.08.41 4.6 4.6 0 0 1 2.03.9c.21.22.38.49.5.81.12.31.18.67.18 1.06 0 .97-.31 1.76-.95 2.37-.64.6-1.5.9-2.56.9-.65 0-1.24-.1-1.76-.3a5.1 5.1 0 0 1-1.52-1.03l1.12-1.88Zm9.73 2.91-3.92-9.18 2.66-.02 1.88 5.14.02.09a10.14 10.14 0 0 1 .3 1.14c.05-.25.12-.5.19-.75.05-.25.1-.41.12-.48l1.8-5.17 2.66-.02-3.8 9.24-1.9.01Z"/><g clip-path="url(#a)"><path fill="url(#b)" d="m219.63 54.43-.23.13c-.35.21-.69.45-1 .7l.65-.44h5.47l1 7.35-4.98 4.84-4.98 3.38v3.88a7.72 7.72 0 0 0 3.84 6.64l5.24 3.1-11.07 6.28h-2.14l-3.98-2.34a7.72 7.72 0 0 1-3.84-6.64V68.24a7.72 7.72 0 0 1 3.84-6.64l11.95-7.04.23-.13Z"/><path fill="url(#c)" d="m219.63 54.43-.23.13c-.35.21-.69.45-1 .7l.65-.44h5.47l1 7.35-4.98 4.84-4.98 3.38v3.88a7.72 7.72 0 0 0 3.84 6.64l5.24 3.1-11.07 6.28h-2.14l-3.98-2.34a7.72 7.72 0 0 1-3.84-6.64V68.24a7.72 7.72 0 0 1 3.84-6.64l11.95-7.04.23-.13Z"/><path fill="url(#d)" d="M231.5 69.92v4.35a7.72 7.72 0 0 1-3.85 6.64l-11.95 7.04a8.15 8.15 0 0 1-7.97.16l11.67 6.88a8.15 8.15 0 0 0 8.25 0l11.95-7.04a7.72 7.72 0 0 0 3.84-6.64v-3.14l-1-1.46-10.95-6.79Z"/><path fill="url(#e)" d="M231.5 69.92v4.35a7.72 7.72 0 0 1-3.85 6.64l-11.95 7.04a8.15 8.15 0 0 1-7.97.16l11.67 6.88a8.15 8.15 0 0 0 8.25 0l11.95-7.04a7.72 7.72 0 0 0 3.84-6.64v-3.14l-1-1.46-10.95-6.79Z"/><path fill="url(#f)" d="m239.6 61.6-11.95-7.04a8.15 8.15 0 0 0-8-.14l-.25.14a7.72 7.72 0 0 0-3.84 6.64v9.2l3.84-2.26a8.15 8.15 0 0 1 8.25 0l11.95 7.04a7.73 7.73 0 0 1 3.84 6.13V68.24a7.72 7.72 0 0 0-3.84-6.64Z"/><path fill="url(#g)" d="m239.6 61.6-11.95-7.04a8.15 8.15 0 0 0-8-.14l-.25.14a7.72 7.72 0 0 0-3.84 6.64v9.2l3.84-2.26a8.15 8.15 0 0 1 8.25 0l11.95 7.04a7.73 7.73 0 0 1 3.84 6.13V68.24a7.72 7.72 0 0 0-3.84-6.64Z"/></g><path fill="#fff" d="M198.51 106.81c0-.8.12-1.49.36-2.03.18-.41.43-.77.74-1.1.32-.32.66-.56 1.03-.71a4.4 4.4 0 0 1 1.72-.32c1.17 0 2.1.37 2.8 1.1a4.13 4.13 0 0 1 1.06 3.03c0 1.28-.34 2.29-1.04 3.01a3.71 3.71 0 0 1-2.8 1.09 3.75 3.75 0 0 1-2.82-1.08 4.12 4.12 0 0 1-1.05-2.99Zm1.66-.05c0 .9.2 1.58.62 2.05.42.46.94.7 1.58.7a2 2 0 0 0 1.58-.7c.4-.46.62-1.15.62-2.07 0-.91-.2-1.6-.6-2.04-.4-.45-.94-.67-1.6-.67-.66 0-1.2.22-1.6.68-.4.45-.6 1.14-.6 2.05Zm6.75-1.78h.84v-.43c0-.49.05-.85.15-1.09.1-.24.3-.43.57-.58.28-.15.63-.23 1.06-.23.43 0 .86.07 1.27.2l-.2 1.06a3 3 0 0 0-.7-.08c-.22 0-.38.05-.48.15-.1.1-.14.3-.14.6v.4h1.14v1.2h-1.14v4.56h-1.53v-4.56h-.84v-1.2Zm3.8 0h.85v-.43c0-.49.05-.85.16-1.09.1-.24.29-.43.56-.58.28-.15.63-.23 1.06-.23.43 0 .86.07 1.27.2l-.2 1.06a3 3 0 0 0-.7-.08c-.22 0-.38.05-.48.15-.1.1-.14.3-.14.6v.4h1.14v1.2h-1.14v4.56h-1.53v-4.56h-.84v-1.2Zm4.49-.78v-1.41h1.52v1.41h-1.52Zm0 6.54v-5.76h1.52v5.76h-1.52Zm8.22-4.06-1.5.27c-.05-.3-.17-.52-.35-.67a.99.99 0 0 0-.7-.23c-.37 0-.67.13-.9.4-.23.26-.34.7-.34 1.3 0 .7.11 1.17.34 1.46.23.28.54.42.93.42.29 0 .53-.08.71-.24.19-.17.31-.45.4-.86l1.49.26c-.16.69-.45 1.2-.9 1.56-.44.35-1.03.52-1.77.52-.84 0-1.52-.26-2.02-.8a3.1 3.1 0 0 1-.75-2.2c0-.95.25-1.7.76-2.22.5-.53 1.18-.8 2.04-.8.7 0 1.25.15 1.67.46.41.3.71.76.9 1.37Zm4.61 2.23 1.52.25c-.2.56-.5.98-.93 1.28a2.7 2.7 0 0 1-1.58.43c-1 0-1.74-.33-2.22-.98a3.3 3.3 0 0 1-.57-1.98c0-.96.25-1.7.75-2.25.5-.54 1.13-.8 1.9-.8.85 0 1.53.27 2.02.84.5.57.73 1.43.71 2.6h-3.82c.01.45.14.8.37 1.06.24.25.53.37.88.37.24 0 .44-.06.6-.2.17-.12.29-.33.37-.62Zm.09-1.54c-.01-.44-.13-.78-.34-1a1.05 1.05 0 0 0-.8-.35c-.33 0-.6.12-.82.36-.22.24-.32.57-.32.99h2.28Zm2.5 1.26 1.47-.18c.04.38.17.67.38.86.2.2.45.3.75.3s.57-.12.79-.35c.21-.24.32-.57.32-.97 0-.38-.1-.69-.3-.91a.98.98 0 0 0-.76-.34c-.2 0-.43.04-.7.12l.17-1.25c.41.02.72-.07.94-.26.22-.2.33-.45.33-.76a.87.87 0 0 0-.24-.64.86.86 0 0 0-.64-.24.92.92 0 0 0-.66.27c-.19.18-.3.45-.34.8l-1.4-.25c.1-.48.24-.86.43-1.15a2 2 0 0 1 .83-.67 2.7 2.7 0 0 1 1.19-.25c.75 0 1.35.23 1.8.71.37.4.56.83.56 1.33 0 .7-.39 1.25-1.15 1.67.46.1.82.31 1.1.65.27.34.4.75.4 1.23 0 .7-.25 1.3-.76 1.79a2.6 2.6 0 0 1-1.9.74c-.72 0-1.32-.2-1.8-.62a2.45 2.45 0 0 1-.82-1.63Zm11.5-3.9-1.47.17c-.04-.3-.13-.53-.28-.67a.82.82 0 0 0-.6-.22 1 1 0 0 0-.81.43c-.22.3-.36.9-.42 1.81.38-.45.85-.67 1.41-.67.64 0 1.19.24 1.64.72.45.49.68 1.12.68 1.88a2.7 2.7 0 0 1-.71 1.96c-.48.5-1.1.74-1.84.74-.8 0-1.47-.31-1.98-.94-.52-.62-.78-1.64-.78-3.07 0-1.45.27-2.5.8-3.15a2.6 2.6 0 0 1 2.1-.96c.61 0 1.11.17 1.5.5.4.34.66.83.76 1.48Zm-3.45 3.33c0 .5.11.88.34 1.15a1 1 0 0 0 .78.4.9.9 0 0 0 .7-.33c.2-.22.29-.58.29-1.08 0-.52-.1-.9-.3-1.14a.95.95 0 0 0-.76-.36c-.3 0-.54.12-.75.35-.2.23-.3.56-.3 1.01Zm4.6.64 1.53-.16c.04.34.17.62.38.82a1.05 1.05 0 0 0 1.55-.09c.22-.26.33-.65.33-1.17 0-.49-.11-.85-.33-1.1a1.1 1.1 0 0 0-.85-.36c-.44 0-.83.19-1.18.58l-1.24-.18.78-4.14h4.03v1.42h-2.87l-.24 1.36a2.3 2.3 0 0 1 2.76.48c.47.49.7 1.13.7 1.91 0 .66-.18 1.24-.56 1.76a2.52 2.52 0 0 1-2.16 1.05c-.73 0-1.33-.2-1.8-.6a2.42 2.42 0 0 1-.82-1.58Z"/><g clip-path="url(#h)"><path fill="url(#i)" d="m269.6 211.9-.22.13c-.35.2-.69.44-1 .7l.64-.44h5.47l.99 7.32-4.97 4.84-4.96 3.36v3.88a7.7 7.7 0 0 0 3.83 6.62l5.23 3.09-11.05 6.27h-2.13l-3.97-2.34a7.7 7.7 0 0 1-3.83-6.62v-13.04a7.7 7.7 0 0 1 3.83-6.62l11.92-7.03.22-.12Z"/><path fill="url(#j)" d="m269.6 211.9-.22.13c-.35.2-.69.44-1 .7l.64-.44h5.47l.99 7.32-4.97 4.84-4.96 3.36v3.88a7.7 7.7 0 0 0 3.83 6.62l5.23 3.09-11.05 6.27h-2.13l-3.97-2.34a7.7 7.7 0 0 1-3.83-6.62v-13.04a7.7 7.7 0 0 1 3.83-6.62l11.92-7.03.22-.12Z"/><path fill="url(#k)" d="M281.44 227.35v4.34a7.7 7.7 0 0 1-3.83 6.62l-11.92 7.03a8.13 8.13 0 0 1-7.96.15l11.65 6.87a8.13 8.13 0 0 0 8.23 0l11.92-7.03a7.7 7.7 0 0 0 3.83-6.62v-3.13l-1-1.45-10.92-6.78Z"/><path fill="url(#l)" d="M281.44 227.35v4.34a7.7 7.7 0 0 1-3.83 6.62l-11.92 7.03a8.13 8.13 0 0 1-7.96.15l11.65 6.87a8.13 8.13 0 0 0 8.23 0l11.92-7.03a7.7 7.7 0 0 0 3.83-6.62v-3.13l-1-1.45-10.92-6.78Z"/><path fill="url(#m)" d="m289.53 219.05-11.92-7.03a8.13 8.13 0 0 0-8-.13l-.23.14a7.7 7.7 0 0 0-3.83 6.62v9.18l3.83-2.26a8.13 8.13 0 0 1 8.23 0l11.92 7.02a7.7 7.7 0 0 1 3.83 6.12v-13.04a7.7 7.7 0 0 0-3.83-6.62Z"/><path fill="url(#n)" d="m289.53 219.05-11.92-7.03a8.13 8.13 0 0 0-8-.13l-.23.14a7.7 7.7 0 0 0-3.83 6.62v9.18l3.83-2.26a8.13 8.13 0 0 1 8.23 0l11.92 7.02a7.7 7.7 0 0 1 3.83 6.12v-13.04a7.7 7.7 0 0 0-3.83-6.62Z"/></g><path fill="#fff" d="M248.47 264.18c0-.81.13-1.49.37-2.04.18-.4.42-.76.73-1.09.32-.32.66-.56 1.03-.71.5-.2 1.07-.31 1.71-.31 1.17 0 2.1.36 2.8 1.08a4.2 4.2 0 0 1 1.06 3.03c0 1.28-.35 2.28-1.04 3a3.7 3.7 0 0 1-2.8 1.09 3.74 3.74 0 0 1-2.81-1.08 4.1 4.1 0 0 1-1.05-2.97Zm1.66-.06c0 .9.2 1.58.62 2.05.41.46.94.7 1.58.7a2 2 0 0 0 1.57-.7c.4-.46.61-1.15.61-2.07 0-.9-.2-1.59-.6-2.03-.4-.45-.92-.68-1.58-.68s-1.2.23-1.6.69c-.4.45-.6 1.13-.6 2.04Zm6.73-1.77h.84v-.44c0-.48.06-.84.16-1.08.1-.24.29-.43.56-.58a2.2 2.2 0 0 1 1.05-.22c.44 0 .86.06 1.28.2l-.21 1.05a3 3 0 0 0-.7-.08c-.22 0-.38.05-.47.15-.1.1-.14.3-.14.6v.4h1.13v1.2h-1.13v4.55h-1.53v-4.56h-.84v-1.2Zm3.8 0h.85v-.44c0-.48.05-.84.15-1.08.1-.24.3-.43.57-.58.27-.15.62-.22 1.04-.22.44 0 .86.06 1.28.2l-.2 1.05a2.98 2.98 0 0 0-.7-.08c-.23 0-.38.05-.48.15-.1.1-.14.3-.14.6v.4h1.13v1.2h-1.13v4.55h-1.52v-4.56h-.85v-1.2Zm4.47-.78v-1.4h1.52v1.4h-1.52Zm0 6.53v-5.75h1.52v5.75h-1.52Zm8.2-4.05-1.5.27c-.04-.3-.16-.53-.34-.68-.18-.15-.4-.23-.7-.23-.37 0-.68.13-.9.4-.23.26-.34.7-.34 1.3 0 .69.12 1.17.34 1.45.23.29.54.43.93.43.29 0 .52-.09.7-.25.2-.16.32-.45.4-.85l1.5.26a2.7 2.7 0 0 1-.9 1.55c-.44.35-1.03.53-1.77.53-.84 0-1.51-.27-2.01-.8a3.1 3.1 0 0 1-.75-2.2c0-.95.25-1.69.75-2.22.5-.53 1.18-.8 2.04-.8.7 0 1.25.16 1.66.46.42.3.71.76.9 1.38Zm4.6 2.22 1.52.25c-.2.56-.5.98-.93 1.27a2.7 2.7 0 0 1-1.57.44c-1 0-1.74-.33-2.22-.99a3.29 3.29 0 0 1-.57-1.98c0-.95.25-1.7.75-2.23.5-.54 1.13-.81 1.89-.81.85 0 1.53.28 2.02.85.5.56.73 1.42.7 2.59h-3.8c.01.45.13.8.37 1.05.23.25.52.38.87.38.24 0 .44-.07.6-.2.17-.13.29-.34.37-.62Zm.09-1.54c-.01-.44-.13-.78-.34-1a1.04 1.04 0 0 0-.8-.35c-.32 0-.6.12-.81.36a1.4 1.4 0 0 0-.32.99h2.27Zm2.49 1.26 1.47-.18c.04.38.17.66.38.86.2.2.45.3.74.3.32 0 .58-.12.8-.36.21-.24.32-.56.32-.96 0-.38-.1-.69-.31-.91a.98.98 0 0 0-.75-.34c-.2 0-.43.04-.7.12l.17-1.24c.4 0 .72-.08.94-.27a.93.93 0 0 0 .32-.75.86.86 0 0 0-.24-.64.86.86 0 0 0-.63-.24.91.91 0 0 0-.66.27c-.19.18-.3.44-.34.79l-1.4-.24c.1-.48.24-.86.44-1.15.2-.28.47-.51.82-.67a2.7 2.7 0 0 1 1.19-.25c.74 0 1.34.24 1.8.71.36.4.55.83.55 1.32 0 .7-.38 1.26-1.14 1.67a1.84 1.84 0 0 1 1.5 1.88c0 .7-.26 1.3-.77 1.78-.5.5-1.14.74-1.9.74-.71 0-1.3-.2-1.78-.62a2.44 2.44 0 0 1-.82-1.62Zm11.48-3.89-1.47.17c-.04-.3-.13-.53-.28-.67a.82.82 0 0 0-.6-.22 1 1 0 0 0-.8.43c-.23.3-.37.9-.43 1.8a1.8 1.8 0 0 1 1.42-.67c.63 0 1.18.25 1.63.73.45.48.68 1.1.68 1.87 0 .81-.24 1.46-.72 1.95-.47.5-1.08.74-1.83.74-.8 0-1.46-.31-1.98-.93-.51-.63-.77-1.65-.77-3.06 0-1.46.27-2.5.8-3.15a2.6 2.6 0 0 1 2.1-.96c.6 0 1.1.17 1.5.5.4.34.64.83.75 1.47Zm-3.45 3.32c0 .5.12.88.34 1.15a1 1 0 0 0 .79.4c.28 0 .51-.11.7-.33.19-.22.28-.58.28-1.08 0-.52-.1-.9-.3-1.13a.95.95 0 0 0-.76-.37c-.3 0-.54.12-.74.35-.2.23-.3.56-.3 1.01Zm4.6.63 1.52-.15c.04.34.17.61.38.81a1.05 1.05 0 0 0 1.54-.08c.22-.26.33-.65.33-1.17 0-.49-.1-.85-.33-1.1-.21-.24-.5-.36-.85-.36-.43 0-.82.2-1.17.58l-1.24-.18.79-4.13h4.02v1.42h-2.87l-.24 1.35a2.3 2.3 0 0 1 2.75.48c.47.5.7 1.13.7 1.91 0 .65-.18 1.24-.56 1.75a2.52 2.52 0 0 1-2.15 1.05c-.73 0-1.33-.2-1.8-.59-.45-.4-.73-.92-.82-1.58Z"/><g clip-path="url(#o)"><path fill="url(#p)" d="m269.6 369.6-.22.13c-.35.2-.69.44-1 .7l.64-.44h5.47l.99 7.32-4.97 4.84-4.96 3.36v3.88a7.7 7.7 0 0 0 3.83 6.62l5.23 3.09-11.05 6.27h-2.13l-3.97-2.34a7.7 7.7 0 0 1-3.83-6.62v-13.04a7.7 7.7 0 0 1 3.83-6.62l11.92-7.02.22-.13Z"/><path fill="url(#q)" d="m269.6 369.6-.22.13c-.35.2-.69.44-1 .7l.64-.44h5.47l.99 7.32-4.97 4.84-4.96 3.36v3.88a7.7 7.7 0 0 0 3.83 6.62l5.23 3.09-11.05 6.27h-2.13l-3.97-2.34a7.7 7.7 0 0 1-3.83-6.62v-13.04a7.7 7.7 0 0 1 3.83-6.62l11.92-7.02.22-.13Z"/><path fill="url(#r)" d="M281.44 385.05v4.34a7.7 7.7 0 0 1-3.83 6.62l-11.92 7.03a8.13 8.13 0 0 1-7.96.15l11.65 6.87a8.13 8.13 0 0 0 8.23 0l11.92-7.03a7.7 7.7 0 0 0 3.83-6.62v-3.13l-1-1.45-10.92-6.78Z"/><path fill="url(#s)" d="M281.44 385.05v4.34a7.7 7.7 0 0 1-3.83 6.62l-11.92 7.03a8.13 8.13 0 0 1-7.96.15l11.65 6.87a8.13 8.13 0 0 0 8.23 0l11.92-7.03a7.7 7.7 0 0 0 3.83-6.62v-3.13l-1-1.45-10.92-6.78Z"/><path fill="url(#t)" d="m289.53 376.75-11.92-7.03a8.13 8.13 0 0 0-8-.13l-.23.14a7.7 7.7 0 0 0-3.83 6.62v9.18l3.83-2.26a8.13 8.13 0 0 1 8.23 0l11.92 7.02a7.7 7.7 0 0 1 3.83 6.12v-13.04a7.7 7.7 0 0 0-3.83-6.62Z"/><path fill="url(#u)" d="m289.53 376.75-11.92-7.03a8.13 8.13 0 0 0-8-.13l-.23.14a7.7 7.7 0 0 0-3.83 6.62v9.18l3.83-2.26a8.13 8.13 0 0 1 8.23 0l11.92 7.02a7.7 7.7 0 0 1 3.83 6.12v-13.04a7.7 7.7 0 0 0-3.83-6.62Z"/></g><path fill="#fff" d="M248.47 421.88c0-.81.13-1.49.37-2.04.18-.4.42-.76.73-1.09.32-.32.66-.56 1.03-.71.5-.21 1.07-.31 1.71-.31 1.17 0 2.1.36 2.8 1.08a4.2 4.2 0 0 1 1.06 3.03c0 1.28-.35 2.28-1.04 3a3.7 3.7 0 0 1-2.8 1.09 3.74 3.74 0 0 1-2.81-1.08 4.1 4.1 0 0 1-1.05-2.97Zm1.66-.06c0 .9.2 1.58.62 2.05.41.46.94.7 1.58.7a2 2 0 0 0 1.57-.7c.4-.46.61-1.15.61-2.07 0-.9-.2-1.59-.6-2.03-.4-.45-.92-.67-1.58-.67s-1.2.22-1.6.68c-.4.45-.6 1.13-.6 2.04Zm6.73-1.77h.84v-.44c0-.48.06-.84.16-1.08.1-.24.29-.43.56-.58a2.2 2.2 0 0 1 1.05-.22c.44 0 .86.06 1.28.2l-.21 1.05a3.05 3.05 0 0 0-.7-.09c-.22 0-.38.06-.47.16-.1.1-.14.3-.14.6v.4h1.13v1.2h-1.13v4.55h-1.53v-4.56h-.84v-1.2Zm3.8 0h.85v-.44c0-.48.05-.84.15-1.08.1-.24.3-.43.57-.58.27-.15.62-.22 1.04-.22.44 0 .86.06 1.28.2l-.2 1.05a3.03 3.03 0 0 0-.7-.09c-.23 0-.38.06-.48.16-.1.1-.14.3-.14.6v.4h1.13v1.2h-1.13v4.55h-1.52v-4.56h-.85v-1.2Zm4.47-.78v-1.4h1.52v1.4h-1.52Zm0 6.53v-5.75h1.52v5.75h-1.52Zm8.2-4.05-1.5.27c-.04-.3-.16-.53-.34-.68-.18-.15-.4-.23-.7-.23-.37 0-.68.13-.9.4-.23.26-.34.7-.34 1.3 0 .69.12 1.17.34 1.45.23.28.54.43.93.43.29 0 .52-.09.7-.25.2-.16.32-.45.4-.85l1.5.26a2.7 2.7 0 0 1-.9 1.55c-.44.35-1.03.52-1.77.52a2.6 2.6 0 0 1-2.01-.8 3.1 3.1 0 0 1-.75-2.2c0-.94.25-1.68.75-2.2.5-.54 1.18-.8 2.04-.8.7 0 1.25.15 1.66.45.42.3.71.76.9 1.38Zm4.6 2.21 1.52.26c-.2.55-.5.98-.93 1.27-.42.29-.94.43-1.57.43-1 0-1.74-.32-2.22-.98a3.29 3.29 0 0 1-.57-1.98c0-.95.25-1.7.75-2.23.5-.54 1.13-.81 1.89-.81.85 0 1.53.28 2.02.85.5.56.73 1.42.7 2.59h-3.8c.01.45.13.8.37 1.06.23.24.52.37.87.37.24 0 .44-.07.6-.2.17-.13.29-.34.37-.63Zm.09-1.53c-.01-.44-.13-.78-.34-1a1.04 1.04 0 0 0-.8-.35c-.32 0-.6.12-.81.36a1.4 1.4 0 0 0-.32.99h2.27Zm2.49 1.26 1.47-.18c.04.38.17.66.38.86.2.2.45.3.74.3.32 0 .58-.12.8-.36.21-.24.32-.56.32-.96 0-.38-.1-.69-.31-.91a.98.98 0 0 0-.75-.34c-.2 0-.43.04-.7.12l.17-1.24c.4 0 .72-.08.94-.27a.93.93 0 0 0 .32-.75.86.86 0 0 0-.24-.64.86.86 0 0 0-.63-.24.92.92 0 0 0-.66.27c-.19.18-.3.44-.34.79l-1.4-.24c.1-.48.24-.86.44-1.15.2-.29.47-.51.82-.67a2.7 2.7 0 0 1 1.19-.25c.74 0 1.34.24 1.8.71.36.4.55.83.55 1.32 0 .7-.38 1.25-1.14 1.67a1.84 1.84 0 0 1 1.5 1.88c0 .7-.26 1.3-.77 1.78-.5.5-1.14.74-1.9.74-.71 0-1.3-.2-1.78-.62a2.44 2.44 0 0 1-.82-1.62Zm11.48-3.89-1.47.17c-.04-.3-.13-.53-.28-.68a.82.82 0 0 0-.6-.21 1 1 0 0 0-.8.43c-.23.29-.37.9-.43 1.8a1.8 1.8 0 0 1 1.42-.67c.63 0 1.18.24 1.63.73.45.48.68 1.1.68 1.87 0 .81-.24 1.46-.72 1.95-.47.5-1.08.74-1.83.74-.8 0-1.46-.31-1.98-.93-.51-.63-.77-1.65-.77-3.06 0-1.46.27-2.5.8-3.15a2.6 2.6 0 0 1 2.1-.96c.6 0 1.1.17 1.5.5.4.34.64.83.75 1.47Zm-3.45 3.32c0 .5.12.88.34 1.15.23.27.5.4.79.4.28 0 .51-.11.7-.33.19-.22.28-.58.28-1.08 0-.52-.1-.9-.3-1.13a.95.95 0 0 0-.76-.37c-.3 0-.54.12-.74.35-.2.23-.3.56-.3 1.01Zm4.6.63 1.52-.15c.04.34.17.61.38.81a1.05 1.05 0 0 0 1.54-.08c.22-.26.33-.65.33-1.17 0-.49-.1-.85-.33-1.1-.21-.24-.5-.36-.85-.36-.43 0-.82.2-1.17.58l-1.24-.18.79-4.13h4.02v1.42h-2.87l-.24 1.35a2.3 2.3 0 0 1 2.75.48c.47.5.7 1.13.7 1.91 0 .66-.18 1.24-.56 1.75a2.52 2.52 0 0 1-2.15 1.05c-.73 0-1.33-.2-1.8-.59-.45-.4-.73-.92-.82-1.59Z"/><path fill="#4285F4" d="M279.94 71v-3.81h12.68c.17.77.24 1.57.2 2.37a12.8 12.8 0 0 1-3.19 8.86 12.98 12.98 0 0 1-9.69 3.8 14.11 14.11 0 0 1-14.11-13.8 14.12 14.12 0 0 1 19.24-12.96 13.2 13.2 0 0 1 4.35 2.87L286.74 61a9.58 9.58 0 0 0-6.9-2.67 10.1 10.1 0 0 0 0 20.09 9.27 9.27 0 0 0 7-2.68 8.03 8.03 0 0 0 2.07-4.74h-8.97Z"/><path fill="#EA4335" d="M312.09 73.37a8.96 8.96 0 1 1-8.86-8.97 8.66 8.66 0 0 1 8.86 8.97Zm-3.91 0a5.15 5.15 0 0 0-4.95-5.46 5.46 5.46 0 0 0 0 10.82 5.15 5.15 0 0 0 4.94-5.36Z"/><path fill="#FBBC04" d="M331.67 73.37a8.96 8.96 0 1 1-8.97-8.97 8.86 8.86 0 0 1 8.97 8.97Zm-3.92 0a5.04 5.04 0 1 0-5.05 5.36 5.25 5.25 0 0 0 5.05-5.36Z"/><path fill="#4285F4" d="M350.31 64.92v15.97c0 6.6-3.8 9.27-8.44 9.27a8.55 8.55 0 0 1-7.94-5.25l3.5-1.45a4.63 4.63 0 0 0 4.44 3.2c2.99 0 4.84-1.75 4.84-5.26v-1.23h-.2a6.17 6.17 0 0 1-4.64 2.06 8.96 8.96 0 0 1 0-17.93 5.98 5.98 0 0 1 4.63 2.06h.2v-1.54h3.62v.1Zm-3.4 8.45c0-3.1-2.06-5.46-4.73-5.46a5.25 5.25 0 0 0-4.95 5.46 5.14 5.14 0 0 0 4.95 5.36c2.68 0 4.74-2.27 4.74-5.36Z"/><path fill="#34A853" d="M357.01 55.54h-3.91v26.11h3.9v-26.1Z"/><path fill="#EA4335" d="m372.16 76.25 2.98 2.06a9.06 9.06 0 0 1-10.84 3.26 8.75 8.75 0 0 1-5.43-8.3 8.45 8.45 0 0 1 8.44-8.87c4.54 0 6.8 3.71 7.63 5.67l.41 1.03-11.95 4.84a4.53 4.53 0 0 0 4.33 2.79 5.15 5.15 0 0 0 4.43-2.48Zm-9.38-3.2 7.94-3.29a3.4 3.4 0 0 0-3.3-1.85 4.84 4.84 0 0 0-4.64 5.15Z"/><path fill="#fff" d="M285.77 90.16h2.16l-4.26 16.4h-2.17l-3.45-10.82H278l-3.46 10.82h-2.1l-4.46-16.4h2.16l3.39 12.89h.07l3.52-10.68H279l3.45 10.68h.14l3.18-12.89Zm2.17 11.09a6.02 6.02 0 0 1 3.5-5.67c.7-.3 1.47-.45 2.23-.42a5 5 0 0 1 4.03 1.75 5.9 5.9 0 0 1 1.64 4.34 6.02 6.02 0 0 1-1.64 4.34 5.31 5.31 0 0 1-4.03 1.68 5.41 5.41 0 0 1-4.1-1.68 6.06 6.06 0 0 1-1.63-4.34Zm2.11 0a4.27 4.27 0 0 0 1.03 2.94 3.26 3.26 0 0 0 2.6 1.12 3.4 3.4 0 0 0 2.59-1.12c.7-.8 1.06-1.86 1.02-2.94a4.15 4.15 0 0 0-1.02-2.94 3.56 3.56 0 0 0-2.6-1.2 3.34 3.34 0 0 0-2.6 1.2 4 4 0 0 0-1.02 2.94Zm12.85 5.31h-2.13V95.43h2.06v1.84h.08c.26-.63.73-1.16 1.35-1.5a4.05 4.05 0 0 1 3.64-.34l-.64 1.98-1.29-.14a2.89 2.89 0 0 0-2.14.96 2.99 2.99 0 0 0-.92 2.19v6.14Zm15.7 0H316l-3.5-5.3-1.74 1.72v3.58h-2.16v-16.4h2.16v10.06l4.9-4.89h2.71v.14l-4.4 4.34 4.61 6.61v.14Zm9.26-2.79a3.19 3.19 0 0 1-1.24 2.52 5.42 5.42 0 0 1-3.25.98 4.93 4.93 0 0 1-4.78-3.22l1.87-.84a3.07 3.07 0 0 0 2.91 2.17c.58.03 1.15-.12 1.65-.42a1.18 1.18 0 0 0 .7-1.05c0-.77-.56-1.26-1.66-1.61l-1.94-.5c-2.14-.55-3.25-1.67-3.25-3.21a2.84 2.84 0 0 1 1.24-2.45 5.07 5.07 0 0 1 3.19-.98 4.8 4.8 0 0 1 2.7.7 3.98 3.98 0 0 1 1.72 1.96l-1.93.77c-.2-.5-.56-.9-1.04-1.12a2.6 2.6 0 0 0-1.6-.42 2.53 2.53 0 0 0-1.44.42 1.18 1.18 0 0 0-.7.98c0 .7.63 1.12 1.8 1.4l1.73.49c2.21.56 3.32 1.68 3.32 3.43Zm7.41 3.2c-.8.03-1.6-.15-2.3-.54a3.65 3.65 0 0 1-1.52-1.37h-.14l.14 1.57v4.92h-2.16V95.5h2.02v1.57h.14a4.2 4.2 0 0 1 1.53-1.37 5.16 5.16 0 0 1 6.12 1.16 6.36 6.36 0 0 1 0 8.4 4.95 4.95 0 0 1-3.83 1.71Zm-.34-1.9a3.32 3.32 0 0 0 2.57-1.1 4.46 4.46 0 0 0 0-5.74 3.4 3.4 0 0 0-2.57-1.15 3.47 3.47 0 0 0-2.58 1.15 4.47 4.47 0 0 0 0 5.74 3.4 3.4 0 0 0 2.58 1.1Zm11.4-9.91a5.23 5.23 0 0 1 3.67 1.26 4.49 4.49 0 0 1 1.38 3.5v7h-2v-1.6h-.14a3.9 3.9 0 0 1-3.47 1.95 4.75 4.75 0 0 1-3.11-1.12 3.5 3.5 0 0 1-1.25-2.8 3.54 3.54 0 0 1 1.32-2.8 6.74 6.74 0 0 1 6.58-.35v-.49a2.4 2.4 0 0 0-.83-1.89 2.9 2.9 0 0 0-2.01-.84 3.37 3.37 0 0 0-2.84 1.54l-1.87-1.19a5.42 5.42 0 0 1 4.57-2.17Zm-2.7 8.26a1.63 1.63 0 0 0 .69 1.4c.45.37 1.01.57 1.6.56.9 0 1.76-.36 2.42-.98.63-.63 1-1.48 1.04-2.38a4.67 4.67 0 0 0-2.77-.77 3.44 3.44 0 0 0-2.15.63 1.68 1.68 0 0 0-.83 1.54Zm14.92 3.85a5.3 5.3 0 0 1-4.07-1.68 6.21 6.21 0 0 1-1.66-4.34 5.97 5.97 0 0 1 1.66-4.34 5.18 5.18 0 0 1 4.06-1.75 5.05 5.05 0 0 1 4.9 3.29l-1.86.77a3.28 3.28 0 0 0-4.54-1.78c-.43.2-.81.5-1.12.87a4.17 4.17 0 0 0-1.03 2.87 4.24 4.24 0 0 0 1.03 2.94 3.33 3.33 0 0 0 2.49 1.19 3.28 3.28 0 0 0 3.24-2.17l1.86.84a5.37 5.37 0 0 1-4.96 3.3Zm11.15 0a4.8 4.8 0 0 1-3.87-1.68 6.1 6.1 0 0 1-1.6-4.34c-.05-1.6.5-3.16 1.53-4.34a4.68 4.68 0 0 1 3.87-1.75 4.8 4.8 0 0 1 3.81 1.6 7 7 0 0 1 1.47 4.63v.2h-8.55a3.65 3.65 0 0 0 2.18 3.5c.41.16.85.24 1.3.22a3.29 3.29 0 0 0 3.07-2.04l1.8.99a5.9 5.9 0 0 1-2.07 2.24 5.8 5.8 0 0 1-2.94.77Zm-3.2-7.42h6.2a3 3 0 0 0-1.95-2.59 2.81 2.81 0 0 0-1.18-.14 2.85 2.85 0 0 0-2 .7 3.48 3.48 0 0 0-1.07 2.03Z"/><path fill="#4285F4" d="M329.7 228.43v-3.8h12.65c.17.77.24 1.56.2 2.36.1 3.24-1.03 6.4-3.18 8.83a12.94 12.94 0 0 1-9.66 3.8 14.08 14.08 0 0 1-14.08-13.77 14.08 14.08 0 0 1 19.19-12.92c1.62.65 3.1 1.62 4.34 2.85l-2.67 2.68a9.56 9.56 0 0 0-6.89-2.68 10.07 10.07 0 0 0 0 20.04 9.24 9.24 0 0 0 7-2.67 8.01 8.01 0 0 0 2.05-4.72h-8.94Z"/><path fill="#EA4335" d="M361.77 230.79a8.94 8.94 0 1 1-8.84-8.94 8.64 8.64 0 0 1 8.84 8.94Zm-3.9 0a5.13 5.13 0 0 0-4.94-5.45 5.45 5.45 0 0 0 0 10.8 5.14 5.14 0 0 0 4.94-5.35Z"/><path fill="#FBBC04" d="M381.3 230.79a8.95 8.95 0 1 1-8.94-8.94 8.84 8.84 0 0 1 8.94 8.94Zm-3.9 0a5.03 5.03 0 1 0-5.04 5.34 5.25 5.25 0 0 0 5.03-5.34Z"/><path fill="#4285F4" d="M399.9 222.36v15.93c0 6.58-3.8 9.25-8.42 9.25a8.53 8.53 0 0 1-7.92-5.24l3.5-1.44a4.62 4.62 0 0 0 4.42 3.19c2.97 0 4.82-1.75 4.82-5.25v-1.23h-.2a6.17 6.17 0 0 1-4.63 2.06 8.94 8.94 0 1 1 0-17.89 5.97 5.97 0 0 1 4.63 2.06h.2v-1.54h3.6v.1Zm-3.39 8.43c0-3.08-2.06-5.45-4.73-5.45a5.24 5.24 0 0 0-4.93 5.45 5.13 5.13 0 0 0 4.93 5.34c2.68 0 4.73-2.26 4.73-5.34Z"/><path fill="#34A853" d="M406.58 213h-3.9v26.05h3.9v-26.04Z"/><path fill="#EA4335" d="m421.7 233.67 2.97 2.05a9.03 9.03 0 0 1-10.82 3.25 8.72 8.72 0 0 1-5.42-8.28 8.43 8.43 0 0 1 8.43-8.84c4.52 0 6.78 3.7 7.6 5.65l.42 1.03-11.93 4.83a4.53 4.53 0 0 0 4.32 2.77 5.15 5.15 0 0 0 4.42-2.46Zm-9.36-3.19 7.91-3.29a3.4 3.4 0 0 0-3.29-1.85 4.83 4.83 0 0 0-4.62 5.14Z"/><path fill="#fff" d="M335.51 247.54h2.17l-4.26 16.36h-2.16l-3.44-10.8h-.07l-3.44 10.8h-2.1l-4.45-16.36h2.16l3.38 12.85h.06l3.51-10.65h1.9l3.44 10.65h.13l3.18-12.85Zm2.17 11.06a6 6 0 0 1 3.5-5.65 5.3 5.3 0 0 1 2.22-.43 5 5 0 0 1 4.02 1.75 5.87 5.87 0 0 1 1.63 4.33 6 6 0 0 1-1.63 4.33 5.32 5.32 0 0 1-4.02 1.68 5.4 5.4 0 0 1-4.09-1.68 6.02 6.02 0 0 1-1.63-4.33Zm2.11 0a4.26 4.26 0 0 0 1.02 2.93 3.26 3.26 0 0 0 2.59 1.12 3.4 3.4 0 0 0 2.59-1.12 4.2 4.2 0 0 0 1.02-2.93 4.15 4.15 0 0 0-1.02-2.93 3.53 3.53 0 0 0-2.6-1.2 3.34 3.34 0 0 0-2.58 1.2 4 4 0 0 0-1.02 2.93Zm12.82 5.3h-2.13v-11.1h2.06v1.84h.07c.26-.64.74-1.16 1.35-1.5a4.04 4.04 0 0 1 3.63-.34l-.64 1.97-1.28-.13a2.87 2.87 0 0 0-2.13.95 2.99 2.99 0 0 0-.93 2.18v6.13Zm15.65 0h-2.58l-3.48-5.3-1.74 1.72v3.58h-2.16v-16.36h2.16v10.04l4.87-4.88h2.72v.13l-4.39 4.33 4.6 6.6v.14Zm9.24-2.78a3.17 3.17 0 0 1-1.24 2.51 5.4 5.4 0 0 1-3.24.98 4.92 4.92 0 0 1-4.76-3.22l1.86-.83a3.1 3.1 0 0 0 1.18 1.6 3 3 0 0 0 1.72.56c.58.03 1.16-.12 1.66-.42a1.18 1.18 0 0 0 .69-1.05c0-.76-.56-1.25-1.66-1.6l-1.93-.5c-2.14-.55-3.24-1.67-3.24-3.2a2.82 2.82 0 0 1 1.24-2.45 5.06 5.06 0 0 1 3.17-.98c.95-.03 1.88.21 2.7.7a3.97 3.97 0 0 1 1.72 1.96l-1.94.77c-.18-.5-.55-.9-1.03-1.12a2.6 2.6 0 0 0-1.59-.42 2.53 2.53 0 0 0-1.45.42 1.17 1.17 0 0 0-.69.98c0 .7.63 1.11 1.8 1.4l1.72.48c2.21.56 3.31 1.68 3.31 3.43Zm7.4 3.19c-.8.03-1.6-.16-2.3-.54a3.66 3.66 0 0 1-1.52-1.37h-.14l.14 1.57v4.9h-2.15v-16.01h2.01v1.57h.14a4.3 4.3 0 0 1 1.53-1.37 5.14 5.14 0 0 1 6.1 1.16 6.34 6.34 0 0 1 0 8.39 4.93 4.93 0 0 1-3.81 1.7Zm-.35-1.9a3.32 3.32 0 0 0 2.57-1.1 4.45 4.45 0 0 0 0-5.72 3.4 3.4 0 0 0-2.57-1.15 3.44 3.44 0 0 0-2.57 1.15 4.44 4.44 0 0 0 0 5.72 3.4 3.4 0 0 0 2.57 1.1Zm11.38-9.88a5.22 5.22 0 0 1 3.66 1.25 4.49 4.49 0 0 1 1.38 3.5v6.98h-2v-1.6h-.14a3.9 3.9 0 0 1-3.46 1.95 4.74 4.74 0 0 1-3.1-1.12 3.47 3.47 0 0 1-1.25-2.8 3.52 3.52 0 0 1 1.31-2.79 6.72 6.72 0 0 1 6.57-.34v-.5a2.4 2.4 0 0 0-.83-1.88 2.88 2.88 0 0 0-2-.84 3.35 3.35 0 0 0-2.84 1.54l-1.86-1.19a5.4 5.4 0 0 1 4.56-2.16Zm-2.7 8.24a1.63 1.63 0 0 0 .7 1.4c.44.36 1 .56 1.58.55.9 0 1.76-.36 2.42-.98a3.5 3.5 0 0 0 1.04-2.37 4.66 4.66 0 0 0-2.77-.77 3.43 3.43 0 0 0-2.14.63 1.66 1.66 0 0 0-.83 1.54Zm14.88 3.83a5.3 5.3 0 0 1-4.06-1.67 6.2 6.2 0 0 1-1.65-4.33 5.94 5.94 0 0 1 1.65-4.33 5.15 5.15 0 0 1 4.06-1.75 5.04 5.04 0 0 1 4.89 3.29l-1.86.76a3.28 3.28 0 0 0-4.53-1.77 4.15 4.15 0 0 0-2.14 3.73 4.23 4.23 0 0 0 1.03 2.93 3.32 3.32 0 0 0 2.48 1.2 3.2 3.2 0 0 0 3.23-2.17l1.86.83a5.35 5.35 0 0 1-4.96 3.29Zm11.13 0a4.78 4.78 0 0 1-3.86-1.67 6.06 6.06 0 0 1-1.6-4.33c-.05-1.6.5-3.15 1.53-4.33a4.88 4.88 0 0 1 3.87-1.75 4.8 4.8 0 0 1 3.8 1.61 7 7 0 0 1 1.46 4.6v.22h-8.53a3.63 3.63 0 0 0 2.17 3.48c.41.16.85.24 1.3.22a3.38 3.38 0 0 0 3.06-2.03l1.8.98c-.49.92-1.2 1.7-2.07 2.24-.9.51-1.9.78-2.93.77Zm-3.2-7.4h6.2a2.99 2.99 0 0 0-1.96-2.57 2.8 2.8 0 0 0-1.17-.15 2.85 2.85 0 0 0-2 .7 3.47 3.47 0 0 0-1.06 2.02Z"/><path fill="#4285F4" d="M329.7 386.12v-3.8h12.65c.17.78.24 1.57.2 2.37.1 3.24-1.03 6.4-3.18 8.83a12.96 12.96 0 0 1-9.66 3.8 14.08 14.08 0 0 1-14.08-13.76 14.08 14.08 0 0 1 19.19-12.93c1.62.65 3.1 1.62 4.34 2.85l-2.67 2.67a9.56 9.56 0 0 0-6.89-2.67 10.07 10.07 0 0 0 0 20.04 9.25 9.25 0 0 0 7-2.67 8.02 8.02 0 0 0 2.05-4.73h-8.94Z"/><path fill="#EA4335" d="M361.77 388.49a8.94 8.94 0 1 1-8.84-8.94 8.62 8.62 0 0 1 8.84 8.94Zm-3.9 0a5.13 5.13 0 0 0-4.94-5.45 5.45 5.45 0 0 0 0 10.8 5.13 5.13 0 0 0 4.94-5.35Z"/><path fill="#FBBC04" d="M381.3 388.49a8.95 8.95 0 1 1-8.94-8.94 8.84 8.84 0 0 1 8.94 8.94Zm-3.9 0a5.03 5.03 0 1 0-5.04 5.34 5.24 5.24 0 0 0 5.03-5.34Z"/><path fill="#4285F4" d="M399.9 380.06V396c0 6.58-3.8 9.25-8.42 9.25a8.53 8.53 0 0 1-7.92-5.24l3.5-1.44a4.63 4.63 0 0 0 4.42 3.19c2.97 0 4.82-1.75 4.82-5.25v-1.23h-.2a6.15 6.15 0 0 1-4.63 2.06 8.94 8.94 0 1 1 0-17.89 5.94 5.94 0 0 1 4.63 2.06h.2v-1.54h3.6v.1Zm-3.39 8.43c0-3.09-2.06-5.45-4.73-5.45a5.24 5.24 0 0 0-4.93 5.45 5.13 5.13 0 0 0 4.93 5.34c2.68 0 4.73-2.26 4.73-5.34Z"/><path fill="#34A853" d="M406.58 370.7h-3.9v26.05h3.9v-26.04Z"/><path fill="#EA4335" d="m421.7 391.37 2.97 2.05a9.03 9.03 0 0 1-10.82 3.25 8.73 8.73 0 0 1-5.42-8.29 8.43 8.43 0 0 1 8.43-8.83c4.52 0 6.78 3.7 7.6 5.65l.42 1.03-11.93 4.83a4.52 4.52 0 0 0 4.32 2.77 5.15 5.15 0 0 0 4.42-2.46Zm-9.36-3.19 7.91-3.29a3.4 3.4 0 0 0-3.29-1.85 4.83 4.83 0 0 0-4.62 5.14Z"/><path fill="#fff" d="M335.51 405.24h2.17l-4.26 16.36h-2.16l-3.44-10.8h-.07l-3.44 10.8h-2.1l-4.45-16.36h2.16l3.38 12.85h.06l3.51-10.65h1.9l3.44 10.65h.13l3.18-12.85Zm2.17 11.06a6 6 0 0 1 3.5-5.66c.7-.3 1.46-.44 2.22-.42a5 5 0 0 1 4.02 1.75 5.88 5.88 0 0 1 1.63 4.33 6 6 0 0 1-1.63 4.33 5.3 5.3 0 0 1-4.02 1.68 5.4 5.4 0 0 1-4.09-1.68 6.01 6.01 0 0 1-1.63-4.33Zm2.11 0a4.26 4.26 0 0 0 1.02 2.93 3.28 3.28 0 0 0 2.59 1.12 3.39 3.39 0 0 0 2.59-1.12 4.2 4.2 0 0 0 1.02-2.93 4.15 4.15 0 0 0-1.02-2.93 3.53 3.53 0 0 0-2.6-1.2 3.33 3.33 0 0 0-2.58 1.2 4.01 4.01 0 0 0-1.02 2.93Zm12.82 5.3h-2.13v-11.1h2.06v1.83h.07c.26-.63.74-1.15 1.35-1.5a4.03 4.03 0 0 1 3.63-.33l-.64 1.97-1.28-.14a2.89 2.89 0 0 0-2.13.96 3 3 0 0 0-.93 2.18v6.13Zm15.65 0h-2.58l-3.48-5.3-1.74 1.72v3.58h-2.16v-16.36h2.16v10.03l4.87-4.88h2.72v.14l-4.39 4.33 4.6 6.6v.14Zm9.24-2.79a3.17 3.17 0 0 1-1.24 2.52 5.4 5.4 0 0 1-3.24.98 4.93 4.93 0 0 1-4.76-3.21l1.86-.84a3.1 3.1 0 0 0 1.18 1.6 3 3 0 0 0 1.72.56c.58.03 1.16-.12 1.66-.42a1.18 1.18 0 0 0 .69-1.05c0-.76-.56-1.25-1.66-1.6l-1.93-.5c-2.14-.55-3.24-1.67-3.24-3.2a2.82 2.82 0 0 1 1.24-2.45 5.07 5.07 0 0 1 3.17-.98c.95-.03 1.88.21 2.7.7a3.97 3.97 0 0 1 1.72 1.96l-1.94.76c-.18-.49-.55-.9-1.03-1.11a2.6 2.6 0 0 0-1.59-.42 2.52 2.52 0 0 0-1.45.42 1.17 1.17 0 0 0-.69.98c0 .7.63 1.11 1.8 1.4l1.72.48c2.21.56 3.31 1.68 3.31 3.43Zm7.4 3.2c-.8.03-1.6-.16-2.3-.54a3.65 3.65 0 0 1-1.52-1.37h-.14l.14 1.57v4.9h-2.15v-16.01h2.01v1.57h.14a4.2 4.2 0 0 1 1.53-1.37 5.16 5.16 0 0 1 6.1 1.16 6.34 6.34 0 0 1 0 8.39 4.92 4.92 0 0 1-3.81 1.7Zm-.35-1.9a3.3 3.3 0 0 0 2.57-1.1 4.45 4.45 0 0 0 0-5.72 3.4 3.4 0 0 0-2.57-1.15 3.46 3.46 0 0 0-2.57 1.15 4.44 4.44 0 0 0 0 5.72 3.4 3.4 0 0 0 2.57 1.1Zm11.38-9.88a5.21 5.21 0 0 1 3.66 1.25 4.48 4.48 0 0 1 1.38 3.5v6.98h-2v-1.6h-.14a3.9 3.9 0 0 1-3.46 1.95 4.74 4.74 0 0 1-3.1-1.12 3.47 3.47 0 0 1-1.25-2.8 3.52 3.52 0 0 1 1.31-2.79 6.72 6.72 0 0 1 6.57-.35v-.49a2.39 2.39 0 0 0-.83-1.88 2.88 2.88 0 0 0-2-.84 3.35 3.35 0 0 0-2.84 1.54l-1.86-1.19a5.4 5.4 0 0 1 4.56-2.16Zm-2.7 8.24a1.63 1.63 0 0 0 .7 1.4c.44.36 1 .56 1.58.55.9 0 1.76-.36 2.42-.98.63-.62 1-1.47 1.04-2.37a4.66 4.66 0 0 0-2.77-.77 3.42 3.42 0 0 0-2.14.63 1.66 1.66 0 0 0-.83 1.54Zm14.88 3.83a5.3 5.3 0 0 1-4.06-1.67 6.2 6.2 0 0 1-1.65-4.33 5.93 5.93 0 0 1 1.65-4.33 5.16 5.16 0 0 1 4.06-1.75 5.03 5.03 0 0 1 4.89 3.29l-1.86.76a3.27 3.27 0 0 0-4.53-1.77 4.16 4.16 0 0 0-2.14 3.73 4.23 4.23 0 0 0 1.03 2.93 3.3 3.3 0 0 0 2.48 1.2 3.27 3.27 0 0 0 3.23-2.17l1.86.83a5.36 5.36 0 0 1-4.96 3.29Zm11.13 0a4.8 4.8 0 0 1-3.86-1.67 6.07 6.07 0 0 1-1.6-4.33c-.05-1.6.5-3.15 1.53-4.33a4.67 4.67 0 0 1 3.86-1.75 4.8 4.8 0 0 1 3.8 1.61 6.99 6.99 0 0 1 1.47 4.6v.22h-8.53a3.63 3.63 0 0 0 2.17 3.48c.41.16.85.24 1.3.22a3.38 3.38 0 0 0 3.06-2.03l1.8.98a5.8 5.8 0 0 1-2.07 2.24c-.9.51-1.9.78-2.93.77Zm-3.2-7.4h6.2a2.99 2.99 0 0 0-1.96-2.57 2.8 2.8 0 0 0-1.17-.15 2.85 2.85 0 0 0-2 .7 3.47 3.47 0 0 0-1.06 2.02Z"/><defs><radialGradient id="b" cx="0" cy="0" r="1" gradientTransform="matrix(-12 30 -54 -21 216.97 61.81)" gradientUnits="userSpaceOnUse"><stop offset=".06" stop-color="#AE7FE2"/><stop offset="1" stop-color="#0078D4"/></radialGradient><radialGradient id="d" cx="0" cy="0" r="1" gradientTransform="matrix(31 -4 3 20 210.01 86.75)" gradientUnits="userSpaceOnUse"><stop offset=".13" stop-color="#D59DFF"/><stop offset="1" stop-color="#5E438F"/></radialGradient><radialGradient id="f" cx="0" cy="0" r="1" gradientTransform="matrix(-24 -6 10 -40 240.51 77.2)" gradientUnits="userSpaceOnUse"><stop offset=".06" stop-color="#50E6FF"/><stop offset="1" stop-color="#436DCD"/></radialGradient><radialGradient id="i" cx="0" cy="0" r="1" gradientTransform="matrix(-12 30 -54 -21 266.96 219.26)" gradientUnits="userSpaceOnUse"><stop offset=".06" stop-color="#AE7FE2"/><stop offset="1" stop-color="#0078D4"/></radialGradient><radialGradient id="k" cx="0" cy="0" r="1" gradientTransform="matrix(31 -4 3 20 260.01 244.14)" gradientUnits="userSpaceOnUse"><stop offset=".13" stop-color="#D59DFF"/><stop offset="1" stop-color="#5E438F"/></radialGradient><radialGradient id="m" cx="0" cy="0" r="1" gradientTransform="matrix(-24 -6 10 -39 290.44 234.61)" gradientUnits="userSpaceOnUse"><stop offset=".06" stop-color="#50E6FF"/><stop offset="1" stop-color="#436DCD"/></radialGradient><radialGradient id="p" cx="0" cy="0" r="1" gradientTransform="matrix(-11 30 -54 -21 263.82 375.66)" gradientUnits="userSpaceOnUse"><stop offset=".06" stop-color="#AE7FE2"/><stop offset="1" stop-color="#0078D4"/></radialGradient><radialGradient id="r" cx="0" cy="0" r="1" gradientTransform="matrix(31 -4 3 20 260.01 401.84)" gradientUnits="userSpaceOnUse"><stop offset=".13" stop-color="#D59DFF"/><stop offset="1" stop-color="#5E438F"/></radialGradient><radialGradient id="t" cx="0" cy="0" r="1" gradientTransform="matrix(-24 -6 10 -39 290.44 392.31)" gradientUnits="userSpaceOnUse"><stop offset=".06" stop-color="#50E6FF"/><stop offset="1" stop-color="#436DCD"/></radialGradient><linearGradient id="c" x1="217.07" x2="212.51" y1="88.23" y2="80.14" gradientUnits="userSpaceOnUse"><stop stop-color="#114A8B"/><stop offset="1" stop-color="#0078D4" stop-opacity="0"/></linearGradient><linearGradient id="e" x1="239.81" x2="234.91" y1="76.11" y2="83.33" gradientUnits="userSpaceOnUse"><stop stop-color="#493474"/><stop offset="1" stop-color="#8C66BA" stop-opacity="0"/></linearGradient><linearGradient id="g" x1="216.53" x2="224.01" y1="54.46" y2="54.46" gradientUnits="userSpaceOnUse"><stop stop-color="#2D3F80"/><stop offset="1" stop-color="#436DCD" stop-opacity="0"/></linearGradient><linearGradient id="j" x1="267.05" x2="262.5" y1="245.61" y2="237.54" gradientUnits="userSpaceOnUse"><stop stop-color="#114A8B"/><stop offset="1" stop-color="#0078D4" stop-opacity="0"/></linearGradient><linearGradient id="l" x1="289.74" x2="284.85" y1="233.52" y2="240.72" gradientUnits="userSpaceOnUse"><stop stop-color="#493474"/><stop offset="1" stop-color="#8C66BA" stop-opacity="0"/></linearGradient><linearGradient id="n" x1="266.52" x2="273.98" y1="211.93" y2="211.93" gradientUnits="userSpaceOnUse"><stop stop-color="#2D3F80"/><stop offset="1" stop-color="#436DCD" stop-opacity="0"/></linearGradient><linearGradient id="q" x1="267.05" x2="262.5" y1="403.31" y2="395.24" gradientUnits="userSpaceOnUse"><stop stop-color="#114A8B"/><stop offset="1" stop-color="#0078D4" stop-opacity="0"/></linearGradient><linearGradient id="s" x1="289.74" x2="284.85" y1="391.22" y2="398.42" gradientUnits="userSpaceOnUse"><stop stop-color="#493474"/><stop offset="1" stop-color="#8C66BA" stop-opacity="0"/></linearGradient><linearGradient id="u" x1="266.52" x2="273.98" y1="369.63" y2="369.63" gradientUnits="userSpaceOnUse"><stop stop-color="#2D3F80"/><stop offset="1" stop-color="#436DCD" stop-opacity="0"/></linearGradient><clipPath id="a"><path fill="#fff" d="M203.61 53.44h39.83v42.68h-39.83z"/></clipPath><clipPath id="h"><path fill="#fff" d="M253.63 210.9h39.73v42.58h-39.73z"/></clipPath><clipPath id="o"><path fill="#fff" d="M253.63 368.6h39.73v42.57h-39.73z"/></clipPath></defs></svg>