<svg xmlns="http://www.w3.org/2000/svg" fill="none" viewBox="0 0 339 297"><path fill="#000" d="M13.18 18.02h2.64v-14H12.8l-4.38 6.02-4.38-6.02H1v14h2.64V7.84l4.46 6.1h.52l4.56-6.08v10.16ZM26.06 9.5c-.56-.98-1.82-1.6-3.14-1.6-2.88-.02-5.14 1.76-5.14 5.16 0 3.46 2.16 5.26 5.08 5.24 1.1-.02 2.64-.58 3.2-1.74l.12 1.44h2.3V8.14h-2.34l-.08 1.36Zm-2.92.58c3.84 0 3.84 5.98 0 5.98-1.62 0-2.92-1.12-2.92-3s1.3-2.98 2.92-2.98Zm9.85-1.98V18h-2.44V8.1h2.44Zm-2.66-2.74c0 1.9 2.88 1.9 2.88 0s-2.88-1.9-2.88 0Zm4.86-1.34V18h2.42V4.02H35.2ZM11.52 122.5A5.15 5.15 0 0 1 8 123.9c-3.46 0-4.8-2.42-4.82-4.74-.02-2.34 1.44-4.86 4.82-4.86a4.8 4.8 0 0 1 3.38 1.32l1.76-1.7A7.22 7.22 0 0 0 8 111.8c-5.06 0-7.44 3.72-7.42 7.38.02 3.64 2.22 7.22 7.42 7.22 2.02 0 3.88-.66 5.32-2.08l-1.8-1.82Zm10.42-4.93c-.56-.98-1.82-1.6-3.14-1.6-2.88-.02-5.14 1.76-5.14 5.16 0 3.46 2.16 5.26 5.08 5.24 1.1-.02 2.64-.58 3.2-1.74l.12 1.44h2.3v-9.86h-2.34l-.08 1.36Zm-2.92.58c3.84 0 3.84 5.98 0 5.98-1.62 0-2.92-1.12-2.92-3s1.3-2.98 2.92-2.98Zm7.4-6.06v13.98h2.42V112.1h-2.41Zm14.34 9.92c.38-4.06-1.68-6.1-4.98-6.1-3.2 0-5.24 2.16-5.24 5.16 0 3.16 2.02 5.26 5.42 5.26 1.5 0 3.2-.52 4.24-1.6l-1.56-1.54c-.56.58-1.74.92-2.64.92-1.72 0-2.78-.88-2.94-2.1h7.7ZM33.1 120c.36-1.28 1.44-1.92 2.76-1.92 1.4 0 2.4.64 2.56 1.92H33.1Zm19.24 6.08v-5.18c0-3.1-1.86-4.84-4.18-4.84-1.24 0-2.24.5-3.24 1.48l-.16-1.34h-2.18v9.88H45v-5.04c0-1.5 1.02-2.76 2.52-2.76 1.56 0 2.38 1.14 2.38 2.64v5.16h2.44Zm6.87-7.82a2.81 2.81 0 0 1 2.86 2.88 2.8 2.8 0 0 1-2.86 2.9 2.77 2.77 0 0 1-2.8-2.9c0-1.78 1.24-2.88 2.8-2.88Zm3.02-6.16v5.46c-.58-1.02-2.2-1.58-3.24-1.58-2.88 0-5.02 1.76-5.02 5.16 0 3.24 2.18 5.16 5.08 5.16 1.2 0 2.42-.4 3.18-1.58l.16 1.36h2.28V112.1h-2.44Zm12.3 5.48c-.55-.98-1.81-1.6-3.13-1.6-2.88-.02-5.14 1.76-5.14 5.16 0 3.46 2.16 5.26 5.08 5.24 1.1-.02 2.64-.58 3.2-1.74l.12 1.44h2.3v-9.86h-2.34l-.08 1.36Zm-2.91.58c3.84 0 3.84 5.98 0 5.98-1.62 0-2.92-1.12-2.92-3s1.3-2.98 2.92-2.98Zm7.4-1.94v9.86h2.44v-5.2c0-1.82 1.18-2.5 2.46-2.5.8 0 1.26.22 1.76.64l1.1-2.12a3.74 3.74 0 0 0-2.54-.94c-1 0-2.02.18-2.78 1.4l-.18-1.14h-2.26Zm-67.5 111.25A5.15 5.15 0 0 1 8 228.9c-3.46 0-4.8-2.42-4.82-4.74-.02-2.34 1.44-4.86 4.82-4.86a4.8 4.8 0 0 1 3.38 1.32l1.76-1.7A7.22 7.22 0 0 0 8 216.77c-5.06 0-7.44 3.72-7.42 7.38.02 3.64 2.22 7.22 7.42 7.22 2.02 0 3.88-.66 5.32-2.08l-1.8-1.82Zm7.55-6.48a4.94 4.94 0 0 0-5.1 5.14c0 2.84 1.92 5.14 5.12 5.14s5.14-2.3 5.14-5.14a4.98 4.98 0 0 0-5.16-5.14Zm.02 2.22c1.64 0 2.68 1.44 2.68 2.92 0 1.5-.9 2.9-2.68 2.9-1.78 0-2.68-1.4-2.68-2.9 0-1.48.92-2.92 2.68-2.92Zm16.53 7.84v-5.18c0-3.1-1.86-4.84-4.18-4.84-1.24 0-2.24.5-3.24 1.48l-.16-1.34h-2.18v9.88h2.42v-5.04c0-1.5 1.02-2.76 2.52-2.76 1.56 0 2.38 1.14 2.38 2.64v5.16h2.44Zm2.66-12.38v2.54h-1.84v2.1h1.84v4.26c0 2.46 1.4 3.68 3.54 3.6a5.45 5.45 0 0 0 2.02-.42l-.68-2.08c-.36.18-.8.3-1.18.3-.76 0-1.28-.46-1.28-1.4v-4.26h2.74v-2.1h-2.72v-2.8l-2.44.26Zm14.73 3.88c-.56-.98-1.82-1.6-3.14-1.6-2.88-.02-5.14 1.76-5.14 5.16 0 3.46 2.16 5.26 5.08 5.24 1.1-.02 2.64-.58 3.2-1.74l.12 1.44h2.3v-9.86H53.1l-.08 1.36Zm-2.92.58c3.84 0 3.84 5.98 0 5.98-1.62 0-2.92-1.12-2.92-3s1.3-2.98 2.92-2.98Zm14.44 5.06c-.6.6-1.38.82-2.16.82-1.52 0-2.8-1-2.8-2.88 0-1.72 1.2-2.92 2.84-2.92a3 3 0 0 1 1.98.78l1.54-1.62a4.68 4.68 0 0 0-3.56-1.46c-2.86 0-5.24 1.72-5.24 5.22s2.38 5.22 5.24 5.22c1.46 0 2.66-.44 3.8-1.56l-1.64-1.6Zm3.72-9.52v2.54H66.4v2.1h1.84v4.26c0 2.46 1.4 3.68 3.54 3.6a5.45 5.45 0 0 0 2.02-.42l-.68-2.08c-.36.18-.8.3-1.18.3-.76 0-1.28-.46-1.28-1.4v-4.26h2.74v-2.1h-2.72v-2.8l-2.44.26Zm14.78 3.54a5.3 5.3 0 0 0-3.84-1.3c-1.8 0-4.16.8-4.16 3.08 0 2.24 2.22 2.92 4.08 3.06 1.4.08 1.96.36 1.96 1.04 0 .72-.86 1.2-1.78 1.18-1.1-.02-2.7-.6-3.4-1.38l-1.2 1.74c1.44 1.5 3 1.76 4.56 1.76 2.82 0 4.24-1.5 4.24-3.24 0-2.62-2.36-3.04-4.22-3.16-1.26-.08-1.84-.44-1.84-1.08 0-.62.64-.98 1.8-.98.94 0 1.74.22 2.44.88l1.36-1.6Z"/><path fill="#A490B0" d="M25.65 35.74H5.05c-1.35.05-2.62.6-3.55 1.54A5.14 5.14 0 0 0 0 40.82l.27 36.94c.04 1.33.6 2.58 1.55 3.51a5.25 5.25 0 0 0 3.58 1.48l27.6-.17a5.3 5.3 0 0 0 3.54-1.54 5.14 5.14 0 0 0 1.5-3.54l-.27-30.03-12.12-11.73Z"/><path fill="#907C9C" d="M25.38 35.74v7.53a4.95 4.95 0 0 0 3.18 4.64c.62.24 1.29.36 1.95.35h7.17v-.61l-12.03-11.9h-.27Z"/><path fill="#fff" d="M6.19 64.52c0-.16.03-.31.09-.45a1.15 1.15 0 0 1 1.08-.73 1.15 1.15 0 0 1 1.19 1.17c0 .16-.03.31-.1.46a1.18 1.18 0 0 1-1.91.39 1.18 1.18 0 0 1-.35-.84Zm5.64-3.18h.65c.73 0 1.09-.33 1.08-.96 0-.63-.37-.94-1.1-.94h-.65l.02 1.9Zm.03 4.11-1.98.01-.05-7.6 3.14-.01c.85 0 1.5.2 1.96.65.46.44.7 1.06.7 1.87 0 .8-.22 1.43-.67 1.88-.45.44-1.1.67-1.95.67l-1.17.01.02 2.52Zm8.98-5.71a2.2 2.2 0 0 0-.65-.38 1.66 1.66 0 0 0-.62-.13c-.26 0-.47.07-.63.19a.56.56 0 0 0-.24.47c0 .14.05.25.13.33.08.1.18.17.31.23.14.06.28.12.45.16l.5.15c.64.21 1.1.5 1.4.86.31.35.47.82.47 1.4 0 .38-.06.74-.2 1.05-.12.32-.3.6-.56.82-.25.23-.56.4-.93.52a4.58 4.58 0 0 1-3.91-.64l.84-1.6c.3.27.59.46.88.59.29.12.57.18.85.18.33 0 .56-.08.72-.23a.67.67 0 0 0 .17-.8.6.6 0 0 0-.2-.22c-.1-.08-.22-.14-.37-.2l-.55-.2c-.25-.08-.5-.16-.76-.26-.24-.1-.46-.23-.65-.38a1.9 1.9 0 0 1-.47-.6 2.25 2.25 0 0 1-.18-.94c0-.38.06-.72.18-1.02a2.3 2.3 0 0 1 1.34-1.3c.32-.13.69-.2 1.1-.2a5.03 5.03 0 0 1 2.36.6l-.78 1.55Zm5.27-.31.04 5.92-1.97.02-.04-5.93-1.63.01v-1.67l5.21-.04.01 1.68h-1.62Z"/><path fill="#A490B0" d="M25.59 141.74H5.03c-1.34.04-2.6.6-3.54 1.54A5.13 5.13 0 0 0 0 146.8l.26 36.86a5.23 5.23 0 0 0 5.12 4.98l27.53-.18c1.33-.04 2.6-.6 3.54-1.54a5.13 5.13 0 0 0 1.49-3.52l-.27-29.96-12.08-11.7Z"/><path fill="#907C9C" d="M25.32 141.74v7.5a4.94 4.94 0 0 0 3.17 4.63 5 5 0 0 0 1.95.36h7.15v-.61l-12-11.88h-.27Z"/><path fill="#fff" d="M6.17 170.48c0-.16.03-.32.1-.46a1.15 1.15 0 0 1 1.07-.73c.16 0 .31.03.45.09a1.15 1.15 0 0 1 .74 1.08c0 .16-.03.31-.1.46a1.18 1.18 0 0 1-1.54.64 1.2 1.2 0 0 1-.62-.62c-.06-.15-.1-.3-.1-.46Zm5.3-4.23.03 5.15-1.81.02-.04-5.16 1.82-.01Zm-1.95-1.97a1 1 0 0 1 .07-.39 1.04 1.04 0 0 1 .54-.56 1.02 1.02 0 0 1 .8 0 1.03 1.03 0 0 1 .64.94 1.03 1.03 0 0 1-.3.72 1.03 1.03 0 0 1-1.67-.3 1.03 1.03 0 0 1-.08-.4Zm8.82 2.03a2.1 2.1 0 0 0-1.7-.82 1.97 1.97 0 0 0-1.46.61 2.02 2.02 0 0 0-.57 1.48 2.14 2.14 0 0 0 .6 1.5 2.1 2.1 0 0 0 1.46.59c.62 0 1.19-.28 1.69-.82l.01 2.34-.2.07a5.22 5.22 0 0 1-1.61.32 3.99 3.99 0 0 1-2.78-1.1 3.93 3.93 0 0 1-1.23-2.89 3.9 3.9 0 0 1 2.45-3.7 3.92 3.92 0 0 1 2.4-.21c.3.05.6.15.92.28l.02 2.35Zm2.78 2.44a1.24 1.24 0 0 0 .34.84 1.17 1.17 0 0 0 1.3.24c.14-.06.27-.15.37-.26.1-.1.19-.23.24-.37a1.04 1.04 0 0 0 0-.9 1.15 1.15 0 0 0-1.08-.72 1.17 1.17 0 0 0-.84.35c-.1.1-.18.23-.24.37a.94.94 0 0 0-.09.44Zm2.27-2.58 1.83-.02.04 5.16-1.83.01v-.57c-.39.5-.91.74-1.58.74-.37 0-.72-.06-1.03-.19a2.56 2.56 0 0 1-1.39-1.45 3.06 3.06 0 0 1-.02-2.14c.13-.33.3-.63.53-.88a2.51 2.51 0 0 1 1.85-.81c.65 0 1.18.21 1.6.66v-.51Zm4.87-3.22.06 8.34-1.82.01-.06-8.34 1.82-.01Z"/><path fill="#A490B0" d="M25.59 248.75H5.03c-1.34.05-2.6.6-3.54 1.54A5.13 5.13 0 0 0 0 253.82l.26 36.85a5.23 5.23 0 0 0 5.12 4.98l27.53-.18a5.12 5.12 0 0 0 5.03-5.06l-.27-29.96-12.08-11.7Z"/><path fill="#907C9C" d="M25.32 248.75v7.51a4.93 4.93 0 0 0 3.17 4.63c.62.24 1.28.36 1.95.35h7.15v-.61l-12-11.88h-.27Z"/><path fill="#fff" d="M6.06 277.05a1.13 1.13 0 0 1 .7-1.09 1.2 1.2 0 0 1 1.3.24c.1.1.2.23.26.38a1.21 1.21 0 0 1 0 .92 1.18 1.18 0 0 1-1.54.63 1.18 1.18 0 0 1-.72-1.08Zm5.62-3.18h.65c.73 0 1.09-.32 1.08-.95 0-.63-.37-.94-1.09-.94h-.65l.01 1.9Zm.03 4.1-1.97.02-.05-7.58 3.13-.02c.85 0 1.5.2 1.96.65.46.44.69 1.06.7 1.86 0 .8-.22 1.43-.68 1.88-.44.44-1.1.67-1.94.67l-1.17.01.02 2.51Zm8.96-5.7a2.3 2.3 0 0 0-.64-.37 1.65 1.65 0 0 0-.63-.13.96.96 0 0 0-.62.19.56.56 0 0 0-.24.47c0 .13.04.24.13.33.08.09.18.16.3.23l.45.16.5.14c.64.21 1.11.5 1.4.86.31.35.47.82.47 1.4a2.59 2.59 0 0 1-.76 1.87c-.25.22-.55.4-.92.52a4.56 4.56 0 0 1-3.9-.64l.83-1.6c.3.26.59.46.88.58.29.13.57.19.85.19.32 0 .56-.08.71-.23a.67.67 0 0 0 .18-.8.59.59 0 0 0-.2-.22 1.5 1.5 0 0 0-.38-.2l-.54-.2-.76-.25c-.24-.1-.46-.23-.65-.4a1.91 1.91 0 0 1-.47-.6 2.24 2.24 0 0 1-.18-.93c0-.37.06-.7.18-1.01a2.3 2.3 0 0 1 1.33-1.3 3 3 0 0 1 1.1-.2 5.05 5.05 0 0 1 2.36.6l-.78 1.54Zm5.26-.3.04 5.9-1.97.02-.04-5.91-1.62.01-.01-1.67 5.2-.03.02 1.66-1.62.02Z"/><path fill="#7BADD5" d="M73.93 35.74H53.32c-1.34.05-2.6.6-3.55 1.54a5.14 5.14 0 0 0-1.5 3.54l.27 36.94c.05 1.33.6 2.59 1.56 3.51a5.25 5.25 0 0 0 3.57 1.48l27.6-.17c1.34-.05 2.6-.6 3.54-1.54a5.14 5.14 0 0 0 1.5-3.54l-.27-30.03-12.11-11.73Z"/><path fill="#6799C1" d="M73.66 35.74v7.53a4.95 4.95 0 0 0 3.18 4.64c.62.24 1.28.36 1.95.35h7.17v-.61l-12.03-11.9h-.27Z"/><path fill="#fff" d="M54.48 65.86a1.15 1.15 0 0 1 1.17-1.19c.16 0 .3.03.45.1a1.15 1.15 0 0 1 .73 1.08c0 .16-.03.31-.08.46a1.18 1.18 0 0 1-2.27-.45Zm3.35.95 1.23-7.6 1.96-.02 1.55 4.04 1.48-4.06 1.95-.02 1.35 7.6h-1.97l-.68-4.36-1.77 4.38h-.78l-1.74-4.35-.62 4.37-1.96.02Zm14.9-5.76a2.6 2.6 0 0 0-.65-.38 1.66 1.66 0 0 0-.63-.12c-.25 0-.46.06-.62.18a.56.56 0 0 0-.24.48c0 .13.04.24.13.33.08.09.18.16.3.23l.45.16.5.14c.64.21 1.12.5 1.41.86.31.35.46.82.47 1.4a2.6 2.6 0 0 1-.76 1.88c-.25.22-.56.4-.93.52a4.58 4.58 0 0 1-3.91-.64l.83-1.6c.3.26.6.45.88.58.3.13.58.19.86.19.32 0 .56-.08.72-.23a.67.67 0 0 0 .17-.8.6.6 0 0 0-.2-.23c-.1-.07-.22-.14-.38-.2a10.3 10.3 0 0 0-.54-.2c-.26-.07-.5-.16-.76-.25-.24-.1-.46-.23-.66-.39a1.9 1.9 0 0 1-.46-.6 2.25 2.25 0 0 1-.18-.94c0-.37.05-.71.17-1.02a2.3 2.3 0 0 1 1.34-1.3 3 3 0 0 1 1.1-.2 5.03 5.03 0 0 1 2.36.6l-.77 1.55Zm6.05 1.36 3.91-.03c0 .4 0 .77-.04 1.1a3.89 3.89 0 0 1-.76 1.98c-.24.3-.52.56-.85.77a4.6 4.6 0 0 1-3.92.36 3.7 3.7 0 0 1-2.08-2.07 4.67 4.67 0 0 1-.03-3.26c.2-.5.46-.93.8-1.28.36-.35.79-.62 1.28-.82.5-.2 1.05-.3 1.66-.3.8-.01 1.49.16 2.09.5.6.33 1.08.86 1.43 1.58l-1.87.78a1.9 1.9 0 0 0-.69-.89c-.27-.18-.6-.27-.95-.26a1.86 1.86 0 0 0-1.82 1.39c-.1.29-.14.61-.13.97 0 .32.04.62.12.9.1.27.22.5.39.7.17.2.38.36.63.48a2.6 2.6 0 0 0 1.43.1c.18-.06.34-.13.48-.23.15-.1.27-.23.36-.38.1-.16.16-.35.19-.57l-1.62.01-.01-1.53Z"/><path fill="#7BADD5" d="M73.74 141.74H53.2c-1.34.04-2.6.6-3.54 1.54a5.13 5.13 0 0 0-1.5 3.52l.27 36.86a5.24 5.24 0 0 0 5.12 4.98l27.53-.18a5.2 5.2 0 0 0 3.53-1.54 5.13 5.13 0 0 0 1.5-3.52l-.27-29.96-12.09-11.7Z"/><path fill="#6799C1" d="M73.48 141.74v7.5a4.93 4.93 0 0 0 3.17 4.63 5 5 0 0 0 1.95.36h7.14v-.61l-12-11.88h-.26Z"/><path fill="#fff" d="M54.33 170.48c0-.16.03-.32.09-.46a1.15 1.15 0 0 1 1.08-.73c.16 0 .31.03.45.09a1.14 1.14 0 0 1 .64.63c.06.14.1.29.1.45 0 .16-.04.31-.1.46a1.18 1.18 0 0 1-2.26-.44Zm5.62-3.18h.66c.72 0 1.08-.33 1.08-.96 0-.63-.37-.94-1.1-.93h-.65l.01 1.9Zm.03 4.1-1.97.01-.05-7.57 3.14-.02c.85-.01 1.5.2 1.95.65.46.44.7 1.06.7 1.86s-.22 1.43-.67 1.87c-.45.45-1.1.68-1.95.68h-1.16l.01 2.52Zm8.97-5.7a2.6 2.6 0 0 0-.65-.38 1.67 1.67 0 0 0-.62-.12c-.26 0-.47.06-.63.18a.56.56 0 0 0-.23.48c0 .13.04.24.12.33.08.08.18.16.31.23l.45.16.49.14c.64.21 1.11.5 1.41.86.3.35.46.81.46 1.39 0 .39-.06.74-.19 1.06a2.36 2.36 0 0 1-1.49 1.33 4.56 4.56 0 0 1-3.9-.64l.83-1.59c.3.26.6.46.88.58.29.13.57.19.86.19.32 0 .55-.08.7-.23a.67.67 0 0 0 .18-.8.59.59 0 0 0-.2-.22c-.1-.08-.22-.15-.37-.2l-.55-.2c-.25-.08-.5-.16-.75-.26-.24-.1-.46-.23-.66-.39a1.9 1.9 0 0 1-.47-.6 2.24 2.24 0 0 1-.17-.93c0-.37.05-.71.17-1.01a2.3 2.3 0 0 1 1.34-1.31c.33-.12.69-.19 1.1-.19a5.27 5.27 0 0 1 2.35.6l-.77 1.54Zm5.25-.3.04 5.9-1.97.02-.04-5.91h-1.61l-.02-1.66 5.2-.03.02 1.66-1.62.01Z"/><path fill="#7BADD5" d="M73.74 248.75H53.2c-1.34.05-2.6.6-3.54 1.54a5.13 5.13 0 0 0-1.5 3.53l.27 36.85a5.23 5.23 0 0 0 5.12 4.98l27.53-.18a5.12 5.12 0 0 0 5.03-5.06l-.27-29.96-12.09-11.7Z"/><path fill="#6799C1" d="M73.48 248.75v7.51a4.93 4.93 0 0 0 3.17 4.63c.62.24 1.28.36 1.95.35h7.14v-.61l-12-11.88h-.26Z"/><path fill="#fff" d="M50.58 276.61a.9.9 0 0 1 .08-.4 1.04 1.04 0 0 1 .97-.66 1.03 1.03 0 0 1 .98.64c.06.13.08.26.09.4a1.06 1.06 0 0 1-1.47.99 1.06 1.06 0 0 1-.57-.55 1.09 1.09 0 0 1-.08-.42Zm4.41-3.8 1.12 2.37 1.11-2.39 1.83-.01-2.39 4.66h-1.1l-2.41-4.62 1.84-.01Zm9.7.03a1.9 1.9 0 0 0-1.53-.74 1.77 1.77 0 0 0-1.32.55 1.82 1.82 0 0 0-.52 1.34c0 .27.05.52.14.75.1.22.23.42.4.6a1.87 1.87 0 0 0 1.31.53c.57 0 1.08-.25 1.53-.74l.01 2.1-.18.06a4.8 4.8 0 0 1-1.45.3 3.6 3.6 0 0 1-2.5-1 3.54 3.54 0 0 1-1.1-2.6 3.5 3.5 0 0 1 2.19-3.33 3.53 3.53 0 0 1 2.16-.2c.27.06.55.14.84.26l.01 2.12Zm2.5 2.2a1.11 1.11 0 0 0 .3.75 1.07 1.07 0 0 0 1.5-.01c.1-.1.17-.21.23-.34a.94.94 0 0 0 0-.81 1.04 1.04 0 0 0-.98-.65 1.04 1.04 0 0 0-1.05 1.05Zm2.04-2.33 1.65-.01.03 4.64-1.65.01v-.51c-.35.44-.82.66-1.42.67a2.3 2.3 0 0 1-2.18-1.48 2.76 2.76 0 0 1-.01-1.93 2.22 2.22 0 0 1 2.14-1.53c.58 0 1.06.2 1.45.6v-.46Zm2.76-.02 1.64-.01v.76c.18-.28.4-.5.65-.64.25-.15.54-.23.88-.23h.14l.18.01v1.57c-.21-.1-.45-.16-.7-.16-.38 0-.66.12-.86.35-.18.23-.27.56-.27 1l.01 1.98-1.63.01-.04-4.64Zm5.8 2.27a1.11 1.11 0 0 0 .31.76 1.05 1.05 0 0 0 .77.3 1.03 1.03 0 0 0 .74-.31c.1-.1.17-.21.22-.34a.94.94 0 0 0 .09-.4.94.94 0 0 0-.1-.42 1.04 1.04 0 0 0-.97-.64 1.08 1.08 0 0 0-.75.31c-.09.1-.16.21-.22.34a.95.95 0 0 0-.08.4Zm2.04-5.2h1.64l.06 7.5-1.65.02v-.52a1.7 1.7 0 0 1-1.42.67 2.24 2.24 0 0 1-1.68-.7 2.47 2.47 0 0 1-.68-1.76 2.42 2.42 0 0 1 .63-1.73 2.26 2.26 0 0 1 1.68-.74c.58 0 1.06.2 1.44.6l-.02-3.33Z"/><path fill="#A7B88F" d="M122.2 35.74h-20.6a5.3 5.3 0 0 0-3.55 1.54 5.14 5.14 0 0 0-1.5 3.54l.27 36.94c.05 1.33.6 2.58 1.56 3.51a5.25 5.25 0 0 0 3.57 1.48l27.6-.17a5.3 5.3 0 0 0 3.54-1.54 5.14 5.14 0 0 0 1.5-3.54l-.27-30.03-12.11-11.73Z"/><path fill="#93A47B" d="M121.94 35.74v7.53a4.96 4.96 0 0 0 3.17 4.64c.63.24 1.3.36 1.96.35h7.17v-.61l-12.03-11.9h-.27Z"/><path fill="#fff" d="M102.74 64.52c0-.16.03-.31.1-.45a1.14 1.14 0 0 1 .61-.64 1.21 1.21 0 0 1 1.3.24 1.14 1.14 0 0 1 .35.83 1.17 1.17 0 0 1-1.17 1.19c-.16 0-.32-.02-.46-.08a1.18 1.18 0 0 1-.73-1.09Zm7.98-5h-2.35v1.28l2.22-.02.02 1.67-2.22.02v1.3h2.36v1.66l-4.31.03-.06-7.6 4.33-.02v1.67Zm1.12 5.9 1.23-7.6 1.96-.01 1.55 4.04 1.48-4.06 1.96-.02 1.34 7.6h-1.97l-.68-4.36-1.76 4.38h-.79l-1.73-4.35-.63 4.37-1.96.02Zm12.7-7.68.03 5.93 2.37-.02.01 1.67-4.34.03-.05-7.6h1.97Z"/><path fill="#A7B88F" d="M121.9 141.74h-20.56a5.2 5.2 0 0 0-3.53 1.54 5.13 5.13 0 0 0-1.5 3.52l.27 36.86c.05 1.32.6 2.57 1.55 3.5a5.24 5.24 0 0 0 3.57 1.48l27.53-.18a5.2 5.2 0 0 0 3.53-1.54 5.13 5.13 0 0 0 1.5-3.52l-.27-29.96-12.09-11.7Z"/><path fill="#93A47B" d="M121.64 141.74v7.51a4.94 4.94 0 0 0 3.16 4.62c.62.25 1.29.37 1.95.36h7.15v-.61l-12-11.88h-.26Z"/><path fill="#fff" d="M102.49 170.48c0-.16.03-.31.09-.46a1.15 1.15 0 0 1 1.08-.73c.16 0 .3.03.45.09a1.14 1.14 0 0 1 .64.63c.06.14.09.29.1.45a1.2 1.2 0 0 1-.34.84 1.16 1.16 0 0 1-.84.34 1.2 1.2 0 0 1-.46-.08 1.16 1.16 0 0 1-.72-1.08Zm4.98-6.65 1.86 4.6 1.8-4.63 2.15-.01-3.15 7.6h-1.56l-3.24-7.55 2.14-.01Zm11.71 2.45a2.1 2.1 0 0 0-1.7-.82 1.97 1.97 0 0 0-1.46.61 2.02 2.02 0 0 0-.57 1.48 2.14 2.14 0 0 0 .6 1.5 2.07 2.07 0 0 0 1.45.59c.64 0 1.2-.28 1.7-.82l.02 2.34-.2.07a5.46 5.46 0 0 1-1.62.32 3.99 3.99 0 0 1-2.78-1.1 3.92 3.92 0 0 1-1.23-2.89 3.88 3.88 0 0 1 2.45-3.7 3.92 3.92 0 0 1 2.4-.22c.3.06.6.16.92.29l.02 2.35Zm5.4-.63a2.4 2.4 0 0 0-.64-.38 1.65 1.65 0 0 0-.63-.12c-.25 0-.46.06-.62.18a.56.56 0 0 0-.24.48c0 .13.05.24.13.33.08.08.18.16.3.23.14.06.3.1.45.15l.5.15c.64.21 1.11.5 1.4.86.31.35.47.81.47 1.39 0 .39-.06.74-.2 1.06-.12.31-.3.58-.56.81-.25.23-.55.4-.92.52a4.56 4.56 0 0 1-3.9-.64l.83-1.59c.3.26.59.45.88.58.29.13.57.19.85.19.32 0 .56-.08.71-.23a.67.67 0 0 0 .18-.8.6.6 0 0 0-.2-.23 1.5 1.5 0 0 0-.38-.2l-.54-.2c-.26-.07-.5-.16-.76-.25-.24-.1-.46-.23-.65-.38a1.9 1.9 0 0 1-.47-.6 2.24 2.24 0 0 1-.18-.94c0-.37.06-.71.18-1.02a2.29 2.29 0 0 1 1.34-1.3c.32-.12.69-.19 1.09-.19a5.03 5.03 0 0 1 2.36.6l-.78 1.54Z"/><path fill="#A7B88F" d="M121.9 248.75h-20.56c-1.33.05-2.6.6-3.53 1.54a5.13 5.13 0 0 0-1.5 3.53l.27 36.85c.05 1.32.6 2.58 1.55 3.5a5.23 5.23 0 0 0 3.57 1.48l27.53-.18a5.12 5.12 0 0 0 5.03-5.06l-.27-29.96-12.09-11.7Z"/><path fill="#93A47B" d="M121.64 248.75v7.51a4.94 4.94 0 0 0 3.16 4.63c.62.24 1.29.36 1.95.35h7.15v-.61l-12-11.88h-.26Z"/><path fill="#fff" d="M100.74 276.5a1.14 1.14 0 0 1 .7-1.1 1.21 1.21 0 0 1 1.3.25c.1.11.2.24.26.39a1.2 1.2 0 0 1-.24 1.29 1.16 1.16 0 0 1-.84.34 1.17 1.17 0 0 1-1.18-1.17Zm5.82-3.11-2.38-3.52 2.43-.02 1.04 1.95 1.25-1.97 2.43-.01-2.48 3.55 2.86 4.02-2.4.02-1.54-2.46-1.76 2.48-2.38.02 2.93-4.06Zm10.06-1.67c-.22-.17-.43-.3-.65-.38a1.67 1.67 0 0 0-.62-.12 1 1 0 0 0-.62.18.56.56 0 0 0-.24.48c0 .13.04.24.12.33.08.08.19.16.31.23l.45.15.5.15c.63.21 1.1.5 1.4.86.3.35.46.81.47 1.39 0 .39-.07.74-.2 1.06-.12.31-.31.58-.57.81-.24.22-.55.4-.92.52a4.56 4.56 0 0 1-3.9-.64l.83-1.59c.3.26.6.45.88.58.3.12.58.19.86.18.32 0 .56-.07.7-.22a.67.67 0 0 0 .18-.8.59.59 0 0 0-.2-.23 1.8 1.8 0 0 0-.37-.2 10.8 10.8 0 0 0-.55-.2c-.25-.07-.5-.16-.75-.25-.24-.1-.46-.23-.66-.39a1.9 1.9 0 0 1-.46-.6 2.24 2.24 0 0 1-.18-.93c0-.38.05-.71.17-1.02a2.29 2.29 0 0 1 1.34-1.3c.33-.12.7-.19 1.1-.19a4.99 4.99 0 0 1 2.36.6l-.78 1.54Zm4.29-1.97.04 5.9h2.36l.01 1.66-4.33.03-.05-7.58h1.97Zm5.57 3.5-2.38-3.52 2.43-.02 1.04 1.95 1.25-1.96 2.43-.02-2.47 3.55 2.85 4.02-2.4.02-1.54-2.46-1.76 2.48-2.38.02 2.93-4.06Z"/><path fill="#D88E8C" d="M170.46 141.74h-20.55c-1.34.04-2.6.6-3.54 1.54a5.13 5.13 0 0 0-1.5 3.52l.27 36.86c.05 1.32.6 2.57 1.56 3.5a5.24 5.24 0 0 0 3.56 1.48l27.53-.18a5.2 5.2 0 0 0 3.53-1.54 5.13 5.13 0 0 0 1.5-3.52l-.27-29.96-12.09-11.7Z"/><path fill="#C47A78" d="M170.2 141.74v7.51a4.94 4.94 0 0 0 3.17 4.62 5 5 0 0 0 1.95.36h7.14v-.61l-12-11.88h-.26Z"/><path fill="#fff" d="M151.05 170.48c0-.16.03-.31.09-.46a1.15 1.15 0 0 1 1.08-.73c.16 0 .3.03.45.09a1.14 1.14 0 0 1 .64.63c.06.14.09.29.1.45 0 .16-.04.31-.1.46a1.17 1.17 0 0 1-1.08.72 1.2 1.2 0 0 1-.46-.08 1.17 1.17 0 0 1-.72-1.08Zm5.6-6.66.05 7.58-1.97.02-.05-7.58 1.97-.02Zm7.06 2.49a2.1 2.1 0 0 0-1.7-.82 1.97 1.97 0 0 0-1.46.61 2.02 2.02 0 0 0-.57 1.48c0 .3.05.58.15.83a2.08 2.08 0 0 0 1.9 1.25c.63 0 1.2-.27 1.7-.8l.01 2.32-.2.07a5.4 5.4 0 0 1-1.61.33 4 4 0 0 1-2.79-1.1 3.92 3.92 0 0 1-1.23-2.89 3.9 3.9 0 0 1 2.45-3.7 3.92 3.92 0 0 1 2.4-.22c.3.06.6.16.93.29l.02 2.35Zm5.4-.63a2.3 2.3 0 0 0-.65-.38 1.67 1.67 0 0 0-.62-.13 1 1 0 0 0-.62.19.57.57 0 0 0-.24.47c0 .14.04.25.12.33.08.1.19.17.31.23.14.06.29.12.45.16l.5.15c.64.2 1.1.5 1.4.85.3.36.46.82.47 1.4a2.52 2.52 0 0 1-.76 1.87c-.25.22-.56.4-.93.52a4.56 4.56 0 0 1-3.9-.64l.83-1.59c.3.26.6.45.88.58.3.12.58.19.86.18.32 0 .56-.08.71-.22a.67.67 0 0 0 .18-.8.6.6 0 0 0-.2-.23 1.5 1.5 0 0 0-.38-.2l-.54-.2c-.26-.07-.51-.16-.76-.25-.24-.1-.46-.23-.66-.39a1.92 1.92 0 0 1-.46-.6 2.24 2.24 0 0 1-.18-.93c0-.38.06-.71.17-1.02a2.3 2.3 0 0 1 1.34-1.3c.33-.13.7-.19 1.1-.2a5.04 5.04 0 0 1 2.35.6l-.77 1.55Z"/><path fill="#D88E8C" d="M170.46 248.75h-20.55c-1.34.05-2.6.6-3.54 1.54a5.13 5.13 0 0 0-1.5 3.53l.27 36.85a5.23 5.23 0 0 0 5.12 4.98l27.53-.18a5.12 5.12 0 0 0 5.03-5.06l-.27-29.96-12.09-11.7Z"/><path fill="#C47A78" d="M170.2 248.75v7.51a4.94 4.94 0 0 0 3.17 4.63c.62.24 1.28.36 1.95.35h7.14v-.61l-12-11.88h-.26Z"/><path fill="#fff" d="M151.04 276.49c0-.16.03-.31.09-.45a1.15 1.15 0 0 1 1.08-.73 1.15 1.15 0 0 1 1.18 1.17c0 .16-.02.3-.08.46a1.17 1.17 0 0 1-1.08.72 1.18 1.18 0 0 1-1.18-1.17Zm9.1-4.14a2.1 2.1 0 0 0-1.69-.83 1.96 1.96 0 0 0-1.46.61 2.03 2.03 0 0 0-.57 1.49c0 .3.05.58.15.83a2.08 2.08 0 0 0 1.9 1.25c.63 0 1.2-.27 1.7-.81l.01 2.33-.2.07a5.44 5.44 0 0 1-1.61.33 4.02 4.02 0 0 1-2.79-1.11 3.94 3.94 0 0 1-1.23-2.89 3.9 3.9 0 0 1 2.45-3.7 3.92 3.92 0 0 1 2.4-.2c.3.05.6.14.93.28l.02 2.35Zm5.4-.63c-.2-.18-.42-.3-.64-.38a1.65 1.65 0 0 0-.62-.13c-.25 0-.46.07-.62.19a.56.56 0 0 0-.24.47c0 .14.04.25.12.33.08.09.19.17.32.23s.28.11.44.16l.5.15c.64.2 1.1.5 1.4.85.3.36.46.82.47 1.4a2.55 2.55 0 0 1-.76 1.87c-.25.22-.56.4-.92.52a4.57 4.57 0 0 1-3.9-.64l.82-1.6c.3.27.6.46.88.59.3.12.58.18.86.18.32 0 .56-.08.71-.23a.67.67 0 0 0 .18-.79.6.6 0 0 0-.2-.23c-.1-.07-.22-.14-.38-.2l-.54-.2c-.26-.07-.51-.16-.76-.25-.24-.1-.46-.23-.66-.39a1.92 1.92 0 0 1-.46-.6 2.26 2.26 0 0 1-.18-.93c0-.38.06-.72.17-1.02a2.28 2.28 0 0 1 1.34-1.3c.33-.13.7-.19 1.1-.2a5.06 5.06 0 0 1 2.36.6l-.78 1.55Zm3.67-1.97 1.86 4.6 1.8-4.62 2.15-.02-3.15 7.6-1.56.01-3.24-7.55 2.14-.02Z"/><g clip-path="url(#a)"><path fill="url(#b)" d="m171.32 36.59-.17.1a6.2 6.2 0 0 0-.79.55l.5-.35h4.28l.78 5.73-3.89 3.78-3.88 2.63v3.03a6.02 6.02 0 0 0 3 5.18l4.09 2.41-8.64 4.91h-1.67l-3.1-1.83a6.02 6.02 0 0 1-3-5.18v-10.2a6.02 6.02 0 0 1 3-5.17l9.32-5.5.17-.1Z"/><path fill="url(#c)" d="m171.32 36.59-.17.1a6.2 6.2 0 0 0-.79.55l.5-.35h4.28l.78 5.73-3.89 3.78-3.88 2.63v3.03a6.02 6.02 0 0 0 3 5.18l4.09 2.41-8.64 4.91h-1.67l-3.1-1.83a6.02 6.02 0 0 1-3-5.18v-10.2a6.02 6.02 0 0 1 3-5.17l9.32-5.5.17-.1Z"/><path fill="url(#d)" d="M180.58 48.67v3.4a6.02 6.02 0 0 1-3 5.17l-9.32 5.5a6.36 6.36 0 0 1-6.22.12l9.1 5.37a6.36 6.36 0 0 0 6.44 0l9.32-5.5c1.86-1.1 3-3.06 3-5.18V55.1l-.78-1.13-8.54-5.3Z"/><path fill="url(#e)" d="M180.58 48.67v3.4a6.02 6.02 0 0 1-3 5.17l-9.32 5.5a6.36 6.36 0 0 1-6.22.12l9.1 5.37a6.36 6.36 0 0 0 6.44 0l9.32-5.5c1.86-1.1 3-3.06 3-5.18V55.1l-.78-1.13-8.54-5.3Z"/><path fill="url(#f)" d="m186.9 42.18-9.32-5.5a6.36 6.36 0 0 0-6.25-.1l-.18.11a6.02 6.02 0 0 0-3 5.18v7.18l3-1.77a6.36 6.36 0 0 1 6.43 0l9.32 5.5a6.03 6.03 0 0 1 3 4.77v-10.2a6.02 6.02 0 0 0-3-5.17Z"/><path fill="url(#g)" d="m186.9 42.18-9.32-5.5a6.36 6.36 0 0 0-6.25-.1l-.18.11a6.02 6.02 0 0 0-3 5.18v7.18l3-1.77a6.36 6.36 0 0 1 6.43 0l9.32 5.5a6.03 6.03 0 0 1 3 4.77v-10.2a6.02 6.02 0 0 0-3-5.17Z"/></g><path fill="#000" d="M154.74 77.65c0-.63.1-1.16.28-1.6a3 3 0 0 1 .58-.84c.25-.25.51-.44.8-.56a3.4 3.4 0 0 1 1.34-.25c.91 0 1.65.29 2.2.85.54.57.82 1.36.82 2.37 0 1-.27 1.79-.82 2.35a2.9 2.9 0 0 1-2.18.85c-.92 0-1.66-.28-2.2-.84a3.2 3.2 0 0 1-.82-2.33Zm1.3-.04c0 .7.15 1.23.48 1.6.32.36.73.54 1.23.54s.91-.18 1.23-.54c.32-.36.48-.9.48-1.62 0-.71-.15-1.24-.47-1.6a1.58 1.58 0 0 0-1.24-.52c-.51 0-.93.18-1.24.54-.32.35-.48.88-.48 1.6Zm5.26-1.4h.66v-.33c0-.38.04-.66.12-.85a.96.96 0 0 1 .44-.45c.22-.12.5-.18.82-.18.34 0 .67.05 1 .16l-.16.83a2.35 2.35 0 0 0-.55-.07c-.17 0-.3.04-.37.12-.08.08-.11.23-.11.46v.32h.89v.93h-.9v3.56h-1.18v-3.56h-.66v-.93Zm2.97 0h.66v-.33c0-.38.04-.66.12-.85a.95.95 0 0 1 .44-.45c.22-.12.5-.18.82-.18.34 0 .68.05 1 .16l-.16.83a2.35 2.35 0 0 0-.55-.07c-.17 0-.3.04-.37.12-.07.08-.11.23-.11.46v.32h.89v.93h-.89v3.56h-1.19v-3.56h-.66v-.93Zm3.5-.6v-1.1h1.18v1.1h-1.19Zm0 5.1v-4.5h1.18v4.5h-1.19Zm6.41-3.16-1.17.2a.85.85 0 0 0-.27-.52.8.8 0 0 0-.54-.18.9.9 0 0 0-.71.31c-.18.2-.27.55-.27 1.03 0 .53.1.9.27 1.13.18.22.42.33.72.33a.8.8 0 0 0 .56-.2c.14-.12.24-.35.3-.66l1.17.2a2 2 0 0 1-.7 1.21c-.34.28-.8.41-1.38.41-.66 0-1.18-.2-1.57-.62a2.41 2.41 0 0 1-.59-1.72c0-.74.2-1.32.59-1.73.4-.42.92-.62 1.59-.62.55 0 .98.12 1.3.35.33.24.56.6.7 1.08Zm3.6 1.73 1.18.2c-.15.44-.4.77-.72 1-.33.22-.74.33-1.23.33-.78 0-1.36-.25-1.74-.76-.3-.41-.44-.93-.44-1.55 0-.75.2-1.33.58-1.75.39-.42.88-.63 1.48-.63a2 2 0 0 1 1.58.66c.39.44.57 1.12.56 2.03h-2.98c0 .35.1.63.28.82.19.2.41.3.69.3.19 0 .34-.06.47-.16.13-.1.22-.26.29-.49Zm.06-1.2c0-.34-.1-.6-.26-.78a.82.82 0 0 0-.62-.27c-.26 0-.47.1-.64.28a1.1 1.1 0 0 0-.25.77h1.77Zm1.95.99 1.15-.14c.04.29.13.51.3.67.16.16.35.23.58.23a.8.8 0 0 0 .62-.28c.17-.18.25-.43.25-.75a1 1 0 0 0-.24-.71.77.77 0 0 0-.59-.26c-.15 0-.33.03-.54.09l.13-.97c.32 0 .56-.06.73-.21a.75.75 0 0 0 .26-.6c0-.2-.06-.37-.19-.5a.67.67 0 0 0-.5-.18.7.7 0 0 0-.51.21 1 1 0 0 0-.27.62l-1.1-.19c.08-.37.2-.67.35-.9.16-.22.37-.4.64-.52.28-.13.59-.2.93-.2.58 0 1.05.19 1.4.56.3.3.44.65.44 1.03 0 .55-.3.98-.9 1.3a1.45 1.45 0 0 1 1.18 1.48c0 .55-.2 1.01-.6 1.4-.4.38-.89.57-1.48.57-.56 0-1.03-.16-1.4-.48a1.91 1.91 0 0 1-.64-1.27Zm8.98-3.04-1.15.13a.84.84 0 0 0-.22-.53.64.64 0 0 0-.46-.17.78.78 0 0 0-.64.34c-.17.23-.28.7-.33 1.4.3-.34.67-.52 1.1-.52.5 0 .93.2 1.28.57.36.38.53.87.53 1.47a2.1 2.1 0 0 1-.55 1.52 1.9 1.9 0 0 1-1.44.58 1.9 1.9 0 0 1-1.54-.73c-.4-.49-.6-1.29-.6-2.4 0-1.13.2-1.95.62-2.45.42-.5.97-.76 1.64-.76.47 0 .86.14 1.17.4.3.26.5.65.6 1.15Zm-2.7 2.6c0 .38.1.68.27.89.18.2.38.31.61.31a.7.7 0 0 0 .55-.26c.15-.17.22-.45.22-.84 0-.4-.08-.7-.24-.89a.74.74 0 0 0-.59-.28.74.74 0 0 0-.58.27c-.16.18-.24.44-.24.8Zm3.6.49 1.19-.13c.03.27.13.49.3.64a.82.82 0 0 0 1.2-.06c.17-.2.26-.51.26-.92 0-.38-.09-.66-.26-.85a.85.85 0 0 0-.66-.3c-.34 0-.65.16-.92.46l-.97-.14.61-3.23h3.15v1.12h-2.25l-.18 1.05a1.79 1.79 0 0 1 2.15.38c.37.38.55.88.55 1.5 0 .5-.15.96-.44 1.36-.4.55-.97.82-1.68.82-.57 0-1.04-.16-1.4-.46a1.9 1.9 0 0 1-.65-1.24Z"/><g clip-path="url(#h)"><path fill="url(#i)" d="m210.3 140.46-.17.1a6.4 6.4 0 0 0-.78.55l.5-.35h4.26l.78 5.7-3.88 3.76-3.87 2.62v3.01c0 2.1 1.13 4.06 2.99 5.15l4.08 2.4-8.62 4.88h-1.66l-3.1-1.82a5.98 5.98 0 0 1-2.99-5.15v-10.14a6 6 0 0 1 3-5.15l9.3-5.46.17-.1Z"/><path fill="url(#j)" d="m210.3 140.46-.17.1a6.4 6.4 0 0 0-.78.55l.5-.35h4.26l.78 5.7-3.88 3.76-3.87 2.62v3.01c0 2.1 1.13 4.06 2.99 5.15l4.08 2.4-8.62 4.88h-1.66l-3.1-1.82a5.98 5.98 0 0 1-2.99-5.15v-10.14a6 6 0 0 1 3-5.15l9.3-5.46.17-.1Z"/><path fill="url(#k)" d="M219.54 152.48v3.37a6 6 0 0 1-3 5.15l-9.29 5.46a6.36 6.36 0 0 1-6.2.12l9.08 5.34a6.36 6.36 0 0 0 6.42 0l9.3-5.46a5.98 5.98 0 0 0 2.99-5.15v-2.44l-.78-1.13-8.52-5.26Z"/><path fill="url(#l)" d="m225.85 146.02-9.3-5.46a6.36 6.36 0 0 0-6.23-.1l-.19.1a5.98 5.98 0 0 0-2.99 5.16v7.13l3-1.76a6.36 6.36 0 0 1 6.4 0l9.3 5.46a5.99 5.99 0 0 1 3 4.76v-10.14a6 6 0 0 0-3-5.15Z"/><path fill="url(#m)" d="m225.85 146.02-9.3-5.46a6.36 6.36 0 0 0-6.23-.1l-.19.1a5.98 5.98 0 0 0-2.99 5.16v7.13l3-1.76a6.36 6.36 0 0 1 6.4 0l9.3 5.46a5.99 5.99 0 0 1 3 4.76v-10.14a6 6 0 0 0-3-5.15Z"/><path fill="url(#n)" d="M219.54 152.48v3.37a6 6 0 0 1-3 5.15l-9.29 5.46a6.36 6.36 0 0 1-6.2.12l9.08 5.34a6.36 6.36 0 0 0 6.42 0l9.3-5.46a5.98 5.98 0 0 0 2.99-5.15v-2.44l-.78-1.13-8.52-5.26Z"/></g><path fill="#000" d="M193.72 181.35c0-.63.09-1.16.28-1.6.14-.3.33-.59.57-.84.25-.25.51-.44.8-.56.39-.16.83-.24 1.34-.24.9 0 1.64.28 2.18.85.55.56.83 1.35.83 2.36 0 1-.27 1.78-.82 2.34-.54.57-1.27.85-2.18.85-.92 0-1.65-.28-2.2-.84a3.2 3.2 0 0 1-.8-2.32Zm1.28-.05c0 .7.16 1.24.49 1.6.32.36.73.54 1.23.54s.9-.18 1.22-.54c.32-.36.49-.9.49-1.61 0-.71-.16-1.24-.47-1.59a1.57 1.57 0 0 0-1.24-.52c-.51 0-.93.17-1.25.53-.31.35-.47.88-.47 1.6Zm5.25-1.38h.66v-.34c0-.38.04-.66.12-.84a.96.96 0 0 1 .44-.45c.22-.12.5-.18.82-.18.34 0 .67.05 1 .15l-.16.83a2.35 2.35 0 0 0-.55-.07c-.17 0-.3.04-.37.12-.07.08-.11.24-.11.46v.32h.89v.93h-.89v3.55h-1.19v-3.55h-.66v-.93Zm2.97 0h.66v-.34c0-.38.04-.66.12-.84a.95.95 0 0 1 .44-.45c.22-.12.5-.18.82-.18.34 0 .67.05 1 .15l-.17.83a2.34 2.34 0 0 0-.54-.07c-.18 0-.3.04-.38.12-.07.08-.1.24-.1.46v.32h.88v.93h-.88v3.55h-1.2v-3.55h-.65v-.93Zm3.49-.6v-1.1h1.18v1.1h-1.18Zm0 5.08v-4.48h1.18v4.48h-1.18Zm6.4-3.16-1.17.22a.85.85 0 0 0-.27-.53.8.8 0 0 0-.54-.18c-.3 0-.53.1-.71.31-.18.2-.26.54-.26 1.02 0 .53.09.9.26 1.13.18.22.42.33.72.33a.8.8 0 0 0 .56-.2c.14-.12.24-.34.3-.66l1.17.2c-.13.54-.36.94-.7 1.22-.34.27-.8.4-1.38.4-.66 0-1.18-.2-1.57-.62a2.41 2.41 0 0 1-.58-1.71c0-.74.2-1.32.58-1.73.4-.41.92-.62 1.59-.62.55 0 .98.12 1.3.35a2 2 0 0 1 .7 1.08Zm3.58 1.74 1.19.2c-.16.43-.4.76-.73.99a2.1 2.1 0 0 1-1.22.33c-.78 0-1.36-.25-1.74-.76-.3-.4-.44-.92-.44-1.55 0-.74.2-1.32.58-1.74.4-.42.88-.63 1.48-.63.66 0 1.19.22 1.57.66.4.44.58 1.11.56 2.02h-2.97c0 .35.1.63.28.83.19.2.41.29.69.29.18 0 .34-.05.47-.15.12-.1.22-.27.28-.5Zm.07-1.2c0-.35-.1-.6-.26-.78a.82.82 0 0 0-.62-.27.81.81 0 0 0-.64.28 1.1 1.1 0 0 0-.25.77h1.77Zm1.94.98 1.15-.14c.03.3.13.52.3.67.15.16.35.24.58.24a.8.8 0 0 0 .61-.28c.17-.19.26-.44.26-.75a1 1 0 0 0-.24-.71.77.77 0 0 0-.6-.27c-.14 0-.32.03-.54.1l.13-.97c.33 0 .57-.06.74-.21a.75.75 0 0 0 .25-.6c0-.2-.06-.37-.18-.49a.67.67 0 0 0-.5-.19.7.7 0 0 0-.52.22.99.99 0 0 0-.26.61l-1.1-.18c.09-.38.2-.68.35-.9.16-.22.37-.4.64-.53.28-.13.59-.2.93-.2.58 0 1.05.2 1.4.57.29.3.43.64.43 1.03 0 .54-.3.97-.89 1.3a1.43 1.43 0 0 1 1.17 1.46c0 .55-.2 1.01-.6 1.4-.39.38-.88.57-1.47.57-.56 0-1.03-.16-1.4-.48a1.9 1.9 0 0 1-.64-1.27Zm8.96-3.03-1.15.13a.83.83 0 0 0-.22-.53.64.64 0 0 0-.46-.17.78.78 0 0 0-.64.34c-.17.23-.28.7-.32 1.4.3-.34.66-.52 1.1-.52.5 0 .92.2 1.27.57.36.38.53.86.53 1.46a2.1 2.1 0 0 1-.55 1.52 1.9 1.9 0 0 1-1.43.58c-.63 0-1.14-.24-1.54-.73-.4-.49-.6-1.28-.6-2.39 0-1.13.2-1.95.62-2.45.42-.5.96-.75 1.63-.75.47 0 .86.13 1.17.4.3.26.5.64.59 1.14Zm-2.69 2.59c0 .38.09.68.27.9.17.2.38.3.6.3a.7.7 0 0 0 .55-.25c.15-.17.22-.46.22-.85 0-.4-.08-.7-.23-.88a.74.74 0 0 0-.6-.28.74.74 0 0 0-.57.27c-.16.18-.24.44-.24.79Zm3.59.5 1.18-.13a1 1 0 0 0 .3.64.82.82 0 0 0 1.2-.07c.17-.2.26-.5.26-.91 0-.38-.09-.67-.26-.86a.84.84 0 0 0-.66-.28c-.34 0-.65.15-.92.45l-.96-.14.6-3.22h3.14v1.1h-2.23l-.19 1.06a1.8 1.8 0 0 1 2.15.38c.37.38.55.88.55 1.49 0 .5-.15.96-.44 1.36-.4.55-.97.82-1.68.82-.57 0-1.04-.16-1.4-.46a1.9 1.9 0 0 1-.64-1.24Z"/><g clip-path="url(#o)"><path fill="url(#p)" d="m210.3 250.44-.17.1a5.4 5.4 0 0 0-.78.54l.5-.34h4.26l.78 5.71-3.88 3.78-3.87 2.62v3.02a6 6 0 0 0 2.99 5.17l4.08 2.4-8.62 4.9h-1.66l-3.1-1.83a6 6 0 0 1-2.99-5.16v-10.17a6 6 0 0 1 3-5.17l9.3-5.48.17-.1Z"/><path fill="url(#q)" d="m210.3 250.44-.17.1a5.4 5.4 0 0 0-.78.54l.5-.34h4.26l.78 5.71-3.88 3.78-3.87 2.62v3.02a6 6 0 0 0 2.99 5.17l4.08 2.4-8.62 4.9h-1.66l-3.1-1.83a6 6 0 0 1-2.99-5.16v-10.17a6 6 0 0 1 3-5.17l9.3-5.48.17-.1Z"/><path fill="url(#r)" d="M219.54 262.5v3.37a6 6 0 0 1-3 5.17l-9.29 5.48a6.34 6.34 0 0 1-6.2.12l9.08 5.36a6.34 6.34 0 0 0 6.42 0l9.3-5.49a6 6 0 0 0 2.99-5.16v-2.44l-.78-1.14-8.52-5.28Z"/><path fill="url(#s)" d="M219.54 262.5v3.37a6 6 0 0 1-3 5.17l-9.29 5.48a6.34 6.34 0 0 1-6.2.12l9.08 5.36a6.34 6.34 0 0 0 6.42 0l9.3-5.49a6 6 0 0 0 2.99-5.16v-2.44l-.78-1.14-8.52-5.28Z"/><path fill="url(#t)" d="m225.85 256.01-9.3-5.48a6.34 6.34 0 0 0-6.23-.1l-.19.1a6 6 0 0 0-2.99 5.17v7.16l3-1.76a6.34 6.34 0 0 1 6.4 0l9.3 5.48a6.01 6.01 0 0 1 3 4.77v-10.17a6 6 0 0 0-3-5.17Z"/><path fill="url(#u)" d="m225.85 256.01-9.3-5.48a6.34 6.34 0 0 0-6.23-.1l-.19.1a6 6 0 0 0-2.99 5.17v7.16l3-1.76a6.34 6.34 0 0 1 6.4 0l9.3 5.48a6.01 6.01 0 0 1 3 4.77v-10.17a6 6 0 0 0-3-5.17Z"/></g><path fill="#000" d="M193.72 291.42c0-.63.09-1.17.28-1.6.14-.3.33-.59.57-.84.25-.25.51-.44.8-.56a3.4 3.4 0 0 1 1.34-.24c.9 0 1.64.28 2.18.85.55.56.83 1.35.83 2.36 0 1-.27 1.78-.82 2.34a2.9 2.9 0 0 1-2.18.85c-.92 0-1.65-.28-2.2-.84a3.2 3.2 0 0 1-.8-2.32Zm1.28-.05c0 .7.16 1.24.49 1.6.32.36.73.54 1.23.54s.9-.18 1.22-.54c.32-.36.49-.9.49-1.61 0-.71-.16-1.24-.47-1.6a1.57 1.57 0 0 0-1.24-.51c-.51 0-.93.17-1.25.53-.31.35-.47.88-.47 1.6Zm5.25-1.38h.66v-.34c0-.38.04-.66.12-.84a.96.96 0 0 1 .44-.46c.22-.11.5-.17.82-.17.34 0 .67.05 1 .15l-.16.83a2.35 2.35 0 0 0-.55-.07c-.17 0-.3.04-.37.12-.07.08-.11.23-.11.46v.32h.89v.93h-.89v3.55h-1.19v-3.55h-.66V290Zm2.97 0h.66v-.34c0-.38.04-.66.12-.84a.95.95 0 0 1 .44-.46c.22-.11.5-.17.82-.17.34 0 .67.05 1 .15l-.17.83a2.34 2.34 0 0 0-.54-.07c-.18 0-.3.04-.38.12-.07.08-.1.23-.1.46v.32h.88v.93h-.88v3.55h-1.2v-3.55h-.65V290Zm3.49-.61v-1.1h1.18v1.1h-1.18Zm0 5.1v-4.5h1.18v4.5h-1.18Zm6.4-3.17-1.17.21a.85.85 0 0 0-.27-.52.8.8 0 0 0-.54-.18.9.9 0 0 0-.71.3c-.18.21-.26.55-.26 1.03 0 .53.09.9.26 1.13.18.22.42.33.72.33a.8.8 0 0 0 .56-.2c.14-.12.24-.35.3-.66l1.17.2a2.1 2.1 0 0 1-.7 1.21c-.34.28-.8.41-1.38.41-.66 0-1.18-.2-1.57-.62a2.41 2.41 0 0 1-.58-1.72c0-.74.2-1.31.58-1.72.4-.42.92-.62 1.59-.62.55 0 .98.12 1.3.35.32.24.56.6.7 1.07Zm3.58 1.73 1.19.2a2 2 0 0 1-.73 1c-.32.22-.73.33-1.22.33-.78 0-1.36-.25-1.74-.76-.3-.41-.44-.93-.44-1.55 0-.74.2-1.32.58-1.74.4-.42.88-.63 1.48-.63.66 0 1.19.22 1.57.66.4.44.58 1.11.56 2.02h-2.97c0 .35.1.63.28.82.19.2.41.3.69.3.18 0 .34-.06.47-.16.12-.1.22-.26.28-.49Zm.07-1.2c0-.34-.1-.6-.26-.77a.81.81 0 0 0-.62-.28c-.26 0-.47.1-.64.29a1.1 1.1 0 0 0-.25.77h1.77Zm1.94.99 1.15-.14c.03.3.13.52.3.67a.8.8 0 0 0 .58.23.8.8 0 0 0 .61-.27c.17-.2.26-.44.26-.76a1 1 0 0 0-.24-.7.77.77 0 0 0-.6-.27c-.14 0-.32.03-.54.1l.13-.98c.33.01.57-.06.74-.2a.75.75 0 0 0 .25-.6c0-.2-.06-.37-.18-.5a.67.67 0 0 0-.5-.18c-.2 0-.37.07-.52.21a.99.99 0 0 0-.26.62l-1.1-.19c.09-.37.2-.67.35-.9.16-.22.37-.4.64-.52.28-.13.59-.2.93-.2.58 0 1.05.2 1.4.56.29.3.43.65.43 1.04 0 .54-.3.97-.89 1.3.36.07.64.24.85.5.22.27.32.59.32.96 0 .55-.2 1.01-.6 1.4-.39.38-.88.57-1.47.57-.56 0-1.03-.16-1.4-.48a1.9 1.9 0 0 1-.64-1.27Zm8.96-3.03-1.15.13c-.03-.24-.1-.42-.22-.53a.64.64 0 0 0-.46-.17.78.78 0 0 0-.64.34c-.17.23-.28.7-.32 1.4.3-.34.66-.52 1.1-.52.5 0 .92.2 1.27.57.36.38.53.86.53 1.46a2.1 2.1 0 0 1-.55 1.52c-.38.38-.85.58-1.43.58-.63 0-1.14-.25-1.54-.73-.4-.49-.6-1.28-.6-2.39 0-1.13.2-1.95.62-2.45.42-.5.96-.75 1.63-.75.47 0 .86.13 1.17.4.3.26.5.64.59 1.14Zm-2.69 2.59c0 .38.09.68.27.9.17.2.38.3.6.3a.7.7 0 0 0 .55-.25c.15-.18.22-.46.22-.85 0-.4-.08-.7-.23-.88a.74.74 0 0 0-.6-.28.74.74 0 0 0-.57.27c-.16.17-.24.44-.24.79Zm3.59.49 1.18-.12c.03.26.13.48.3.63a.82.82 0 0 0 1.2-.06c.17-.2.26-.5.26-.91 0-.38-.09-.67-.26-.86a.84.84 0 0 0-.66-.28c-.34 0-.65.15-.92.45l-.96-.14.6-3.22h3.14v1.1h-2.23l-.19 1.06a1.83 1.83 0 0 1 2.15.37c.37.39.55.88.55 1.5 0 .5-.15.96-.44 1.36a2 2 0 0 1-1.68.82c-.57 0-1.04-.16-1.4-.46a1.9 1.9 0 0 1-.64-1.24Z"/><path fill="#4285F4" d="M218.37 49.44v-2.97h9.89c.13.6.19 1.22.16 1.85a9.9 9.9 0 0 1-2.5 6.9 10.12 10.12 0 0 1-7.55 2.98 11.01 11.01 0 0 1-11-10.77 11.01 11.01 0 0 1 15-10.1 10.3 10.3 0 0 1 3.4 2.23l-2.1 2.08a7.48 7.48 0 0 0-5.38-2.09 7.87 7.87 0 0 0 0 15.68 7.23 7.23 0 0 0 5.47-2.1 6.27 6.27 0 0 0 1.6-3.69h-6.99Z"/><path fill="#EA4335" d="M243.45 51.29a7 7 0 1 1-6.91-7 6.75 6.75 0 0 1 6.9 7Zm-3.06 0a4.02 4.02 0 0 0-3.85-4.26 4.26 4.26 0 0 0 0 8.44 4.02 4.02 0 0 0 3.85-4.18Z"/><path fill="#FBBC04" d="M258.72 51.29a6.99 6.99 0 1 1-7-7 6.9 6.9 0 0 1 7 7Zm-3.06 0a3.94 3.94 0 1 0-3.93 4.18 4.1 4.1 0 0 0 3.93-4.18"/><path fill="#4285F4" d="M273.26 44.7v12.46c0 5.14-2.97 7.23-6.58 7.23a6.67 6.67 0 0 1-6.2-4.1l2.74-1.13a3.62 3.62 0 0 0 3.45 2.5c2.33 0 3.78-1.37 3.78-4.1v-.97h-.16a4.82 4.82 0 0 1-3.62 1.61 6.99 6.99 0 1 1 0-13.98 4.66 4.66 0 0 1 3.62 1.6h.16v-1.2h2.81v.08Zm-2.65 6.59c0-2.41-1.6-4.26-3.7-4.26a4.1 4.1 0 0 0-3.85 4.26 4.02 4.02 0 0 0 3.86 4.18c2.08 0 3.7-1.77 3.7-4.18Z"/><path fill="#34A853" d="M278.49 37.39h-3.05v20.36h3.05V37.4Z"/><path fill="#EA4335" d="m290.3 53.54 2.33 1.6a7.07 7.07 0 0 1-8.46 2.55 6.83 6.83 0 0 1-4.23-6.48 6.58 6.58 0 0 1 6.59-6.91c3.53 0 5.3 2.89 5.94 4.42l.32.8-9.32 3.78a3.53 3.53 0 0 0 3.38 2.17 4.02 4.02 0 0 0 3.45-1.93Zm-7.31-2.5 6.19-2.56a2.65 2.65 0 0 0-2.57-1.45 3.78 3.78 0 0 0-3.62 4.02"/><path fill="#000" d="M222.91 64.39h1.7l-3.33 12.8h-1.7l-2.69-8.45h-.05l-2.69 8.44h-1.64l-3.48-12.8h1.69l2.64 10.06h.05l2.75-8.33h1.47l2.7 8.33h.1l2.48-10.05Zm1.69 8.65a4.69 4.69 0 0 1 2.74-4.42 4.11 4.11 0 0 1 1.74-.33 3.9 3.9 0 0 1 3.14 1.36 4.6 4.6 0 0 1 1.28 3.39 4.69 4.69 0 0 1-1.28 3.38 4.15 4.15 0 0 1-3.14 1.31 4.22 4.22 0 0 1-3.2-1.3 4.7 4.7 0 0 1-1.27-3.4Zm1.66 0c-.03.84.25 1.66.8 2.3a2.56 2.56 0 0 0 2.02.87 2.65 2.65 0 0 0 2.02-.88 3.3 3.3 0 0 0 .8-2.3 3.25 3.25 0 0 0-.8-2.29 2.78 2.78 0 0 0-2.02-.92 2.6 2.6 0 0 0-2.02.92 3.12 3.12 0 0 0-.8 2.3m10.02 4.14h-1.66V68.5h1.6v1.44h.06c.2-.5.58-.91 1.06-1.17a3.15 3.15 0 0 1 2.84-.27l-.5 1.54-1-.1a2.25 2.25 0 0 0-1.67.74 2.34 2.34 0 0 0-.72 1.7v4.8Zm12.24 0h-2.02l-2.72-4.14-1.36 1.35v2.8h-1.69v-12.8h1.7v7.85l3.8-3.82h2.13v.1l-3.43 3.4 3.59 5.15v.11Zm7.23-2.18a2.5 2.5 0 0 1-.97 1.97c-.75.52-1.63.79-2.54.77a3.85 3.85 0 0 1-3.72-2.52l1.46-.65a2.43 2.43 0 0 0 3.56 1.36.93.93 0 0 0 .54-.82c0-.6-.43-.98-1.3-1.25l-1.5-.39c-1.68-.43-2.54-1.3-2.54-2.5a2.2 2.2 0 0 1 .97-1.92c.72-.53 1.59-.8 2.48-.77a3.8 3.8 0 0 1 2.1.55c.61.34 1.09.88 1.35 1.53l-1.5.6c-.15-.39-.45-.7-.82-.87-.37-.24-.8-.36-1.24-.33-.4 0-.8.1-1.13.33a.92.92 0 0 0-.54.76c0 .55.48.88 1.4 1.1l1.35.38c1.73.43 2.59 1.3 2.59 2.67m5.78 2.5a3.41 3.41 0 0 1-1.79-.42c-.5-.24-.9-.6-1.2-1.07h-.1l.1 1.23v3.83h-1.68V68.55h1.58v1.22h.1c.3-.44.72-.8 1.2-1.06a4.02 4.02 0 0 1 4.78.9 4.95 4.95 0 0 1 0 6.56 3.85 3.85 0 0 1-2.99 1.33Zm-.27-1.49a2.6 2.6 0 0 0 2.01-.85 3.48 3.48 0 0 0 0-4.48 2.67 2.67 0 0 0-3.11-.66c-.35.15-.66.38-.9.66a3.48 3.48 0 0 0 0 4.48 2.66 2.66 0 0 0 2 .85m8.89-7.72c1.05-.06 2.07.3 2.87.98A3.5 3.5 0 0 1 274.1 72v5.46h-1.57v-1.25h-.1a3.04 3.04 0 0 1-2.7 1.53 3.7 3.7 0 0 1-2.44-.88 2.74 2.74 0 0 1-.97-2.18 2.75 2.75 0 0 1 1.03-2.19 5.26 5.26 0 0 1 5.13-.27v-.38a1.87 1.87 0 0 0-.65-1.48 2.26 2.26 0 0 0-1.57-.65 2.63 2.63 0 0 0-2.21 1.2l-1.46-.93a4.23 4.23 0 0 1 3.56-1.7Zm-2.1 6.44a1.25 1.25 0 0 0 .54 1.1c.35.28.79.44 1.24.43.7 0 1.38-.28 1.9-.76.49-.5.78-1.16.8-1.86a3.64 3.64 0 0 0-2.16-.6c-.6-.03-1.19.14-1.67.5a1.31 1.31 0 0 0-.65 1.2m11.64 2.99a4.14 4.14 0 0 1-3.18-1.3 4.85 4.85 0 0 1-1.3-3.4 4.65 4.65 0 0 1 1.3-3.38 4.04 4.04 0 0 1 3.18-1.36 3.94 3.94 0 0 1 3.81 2.56l-1.45.6a2.56 2.56 0 0 0-3.54-1.38 2.7 2.7 0 0 0-.87.67 3.25 3.25 0 0 0-.8 2.24c-.04.84.25 1.67.8 2.3a2.6 2.6 0 0 0 1.94.93 2.5 2.5 0 0 0 2.53-1.7l1.45.66a4.19 4.19 0 0 1-3.88 2.56m8.71 0a3.75 3.75 0 0 1-3.02-1.3 4.7 4.7 0 0 1-1.25-3.4 4.94 4.94 0 0 1 1.2-3.38 3.81 3.81 0 0 1 3.02-1.36 3.75 3.75 0 0 1 2.97 1.25 5.4 5.4 0 0 1 1.14 3.6v.17h-6.67a2.86 2.86 0 0 0 1.7 2.72c.32.13.67.2 1.01.17.5.01 1-.13 1.43-.42.42-.28.76-.68.97-1.16l1.4.77a4.61 4.61 0 0 1-1.6 1.74c-.71.4-1.5.61-2.3.6Zm-2.5-5.79h4.84a2.34 2.34 0 0 0-1.53-2.01c-.3-.1-.6-.14-.91-.12a2.23 2.23 0 0 0-1.57.55c-.44.41-.74.97-.83 1.58"/><path fill="#4285F4" d="M257.19 156.24v-2.97h9.86c.13.61.19 1.23.16 1.85.08 2.53-.8 5-2.48 6.9a10.1 10.1 0 0 1-7.54 2.96 10.98 10.98 0 0 1-10.98-10.74 10.99 10.99 0 0 1 14.97-10.09c1.26.51 2.42 1.27 3.39 2.23l-2.09 2.09a7.47 7.47 0 0 0-5.37-2.09 7.85 7.85 0 0 0 0 15.63 7.22 7.22 0 0 0 5.45-2.08 6.25 6.25 0 0 0 1.6-3.69h-6.97Z"/><path fill="#EA4335" d="M282.2 158.09a6.98 6.98 0 1 1-6.9-6.98 6.71 6.71 0 0 1 6.9 6.97Zm-3.04 0a4.01 4.01 0 0 0-3.85-4.25 4.25 4.25 0 0 0 0 8.41 4.01 4.01 0 0 0 3.85-4.16Z"/><path fill="#FBBC04" d="M297.44 158.09a6.97 6.97 0 1 1-6.98-6.98 6.92 6.92 0 0 1 6.98 6.97Zm-3.05 0a3.92 3.92 0 1 0-3.93 4.16 4.09 4.09 0 0 0 3.93-4.16"/><path fill="#4285F4" d="M311.95 151.51v12.43c0 5.13-2.97 7.21-6.58 7.21a6.65 6.65 0 0 1-6.17-4.09l2.73-1.12a3.6 3.6 0 0 0 3.44 2.49c2.33 0 3.77-1.37 3.77-4.1v-.95h-.16a4.8 4.8 0 0 1-3.6 1.6 6.97 6.97 0 0 1 0-13.95 4.65 4.65 0 0 1 3.6 1.6h.16v-1.2h2.8v.08Zm-2.65 6.58c0-2.41-1.6-4.25-3.69-4.25a4.1 4.1 0 0 0-3.85 4.25 4.02 4.02 0 0 0 3.85 4.16c2.09 0 3.7-1.76 3.7-4.16Z"/><path fill="#34A853" d="M317.16 144.22h-3.05v20.31h3.05v-20.31Z"/><path fill="#EA4335" d="m328.94 160.33 2.33 1.6a7.05 7.05 0 0 1-8.44 2.54 6.8 6.8 0 0 1-4.23-6.47 6.56 6.56 0 0 1 6.58-6.89c3.52 0 5.29 2.89 5.93 4.41l.32.8-9.3 3.77a3.54 3.54 0 0 0 3.37 2.16 4 4 0 0 0 3.44-1.92Zm-7.3-2.49 6.18-2.56a2.64 2.64 0 0 0-2.56-1.44 3.78 3.78 0 0 0-3.61 4"/><path fill="#000" d="M261.72 171.15h1.69l-3.32 12.76h-1.69l-2.68-8.41h-.06l-2.68 8.41h-1.63l-3.48-12.76h1.69l2.63 10.03h.05l2.74-8.31h1.47l2.69 8.3h.1l2.48-10.02Zm1.68 8.63a4.7 4.7 0 0 1 1.28-3.38 4.2 4.2 0 0 1 3.19-1.36 3.9 3.9 0 0 1 3.13 1.36 4.58 4.58 0 0 1 1.28 3.38 4.68 4.68 0 0 1-1.28 3.38 4.13 4.13 0 0 1-3.13 1.3 4.2 4.2 0 0 1-3.19-1.3 4.7 4.7 0 0 1-1.27-3.38Zm1.66 0c-.04.84.25 1.66.8 2.29a2.55 2.55 0 0 0 2.01.87 2.65 2.65 0 0 0 2.02-.87c.54-.63.83-1.45.8-2.29a3.23 3.23 0 0 0-.8-2.29 2.77 2.77 0 0 0-2.02-.92 2.59 2.59 0 0 0-2.02.92 3.13 3.13 0 0 0-.8 2.29m10.01 4.13h-1.67v-8.66H275v1.44h.06c.2-.5.57-.9 1.05-1.17a3.14 3.14 0 0 1 2.83-.27l-.5 1.54-1-.1a2.23 2.23 0 0 0-1.66.74 2.34 2.34 0 0 0-.72 1.7v4.78Zm12.2 0h-2l-2.72-4.13-1.36 1.35v2.78h-1.69v-12.76h1.69v7.83l3.8-3.8h2.12v.1l-3.42 3.38 3.58 5.15v.1Zm7.21-2.17a2.47 2.47 0 0 1-.97 1.96c-.74.52-1.62.8-2.52.77a3.84 3.84 0 0 1-3.72-2.51l1.45-.65a2.44 2.44 0 0 0 3.56 1.36.91.91 0 0 0 .54-.82c0-.6-.44-.98-1.3-1.25l-1.5-.38c-1.67-.44-2.53-1.31-2.53-2.51a2.2 2.2 0 0 1 .97-1.9c.71-.53 1.59-.8 2.47-.77.74-.03 1.47.16 2.1.54.6.34 1.08.88 1.35 1.53l-1.51.6a1.6 1.6 0 0 0-.8-.87c-.38-.24-.8-.36-1.25-.33-.4 0-.8.1-1.13.33a.92.92 0 0 0-.53.76c0 .55.48.87 1.4 1.09l1.34.38c1.72.44 2.58 1.31 2.58 2.67m5.77 2.5a3.41 3.41 0 0 1-1.79-.43 2.9 2.9 0 0 1-1.19-1.06h-.1l.1 1.22v3.83h-1.68v-12.5h1.58v1.23h.1c.3-.45.72-.81 1.2-1.07a4.03 4.03 0 0 1 4.76.9 4.95 4.95 0 0 1 0 6.55 3.84 3.84 0 0 1-2.98 1.33Zm-.27-1.5a2.57 2.57 0 0 0 2-.84 3.47 3.47 0 0 0 0-4.47 2.65 2.65 0 0 0-2-.9 2.7 2.7 0 0 0-2 .9 3.47 3.47 0 0 0 0 4.47 2.65 2.65 0 0 0 2 .85m8.87-7.71a4.1 4.1 0 0 1 2.86.98 3.49 3.49 0 0 1 1.08 2.73v5.44h-1.56v-1.25h-.11a3.02 3.02 0 0 1-2.7 1.53c-.88 0-1.74-.3-2.42-.88a2.7 2.7 0 0 1-.97-2.17 2.76 2.76 0 0 1 1.02-2.18 5.23 5.23 0 0 1 5.12-.28v-.38a1.87 1.87 0 0 0-.65-1.47 2.25 2.25 0 0 0-1.56-.65 2.6 2.6 0 0 0-2.2 1.2l-1.46-.93a4.22 4.22 0 0 1 3.55-1.69Zm-2.1 6.43a1.26 1.26 0 0 0 .54 1.09c.35.29.79.44 1.24.44a2.68 2.68 0 0 0 2.69-2.62 3.63 3.63 0 0 0-2.15-.6c-.6-.03-1.18.15-1.67.5a1.3 1.3 0 0 0-.65 1.2m11.61 2.99a4.14 4.14 0 0 1-3.17-1.31 4.83 4.83 0 0 1-1.28-3.38 4.63 4.63 0 0 1 1.28-3.38 4.04 4.04 0 0 1 3.17-1.36 3.93 3.93 0 0 1 3.81 2.56l-1.45.6a2.55 2.55 0 0 0-3.53-1.38 2.7 2.7 0 0 0-.87.67 3.24 3.24 0 0 0-.8 2.24 3.3 3.3 0 0 0 .8 2.28 2.58 2.58 0 0 0 1.93.93 2.5 2.5 0 0 0 2.53-1.69l1.44.66a4.18 4.18 0 0 1-3.86 2.56m8.68 0a3.74 3.74 0 0 1-3.01-1.31 4.73 4.73 0 0 1-1.25-3.38 4.93 4.93 0 0 1 1.2-3.38 3.65 3.65 0 0 1 3.01-1.36 3.74 3.74 0 0 1 2.96 1.25 5.4 5.4 0 0 1 1.14 3.6v.16h-6.65a2.84 2.84 0 0 0 1.7 2.71c.32.14.66.2 1 .18a2.64 2.64 0 0 0 2.4-1.58l1.4.76a4.6 4.6 0 0 1-1.61 1.75c-.7.4-1.49.6-2.29.6Zm-2.5-5.78h4.84a2.33 2.33 0 0 0-1.53-2.01c-.29-.1-.6-.14-.91-.12a2.22 2.22 0 0 0-1.56.55 2.7 2.7 0 0 0-.83 1.58"/><path fill="#4285F4" d="M257.19 263.26v-2.97h9.86c.13.6.19 1.22.16 1.84.08 2.54-.8 5-2.48 6.9a10.1 10.1 0 0 1-7.54 2.97 10.99 10.99 0 0 1-10.98-10.75 10.98 10.98 0 0 1 14.97-10.08 10.2 10.2 0 0 1 3.39 2.23l-2.09 2.08a7.43 7.43 0 0 0-5.37-2.08 7.86 7.86 0 0 0 0 15.63 7.2 7.2 0 0 0 5.45-2.09 6.25 6.25 0 0 0 1.6-3.68h-6.97Z"/><path fill="#EA4335" d="M282.2 265.1a6.98 6.98 0 1 1-6.9-6.98 6.73 6.73 0 0 1 6.9 6.98Zm-3.04 0a4.01 4.01 0 0 0-3.85-4.25 4.25 4.25 0 0 0 0 8.42 4.01 4.01 0 0 0 3.85-4.17Z"/><path fill="#FBBC04" d="M297.44 265.1a6.97 6.97 0 1 1-6.98-6.98 6.89 6.89 0 0 1 6.98 6.98Zm-3.05 0a3.92 3.92 0 1 0-3.93 4.17 4.09 4.09 0 0 0 3.93-4.17"/><path fill="#4285F4" d="M311.95 258.53v12.42c0 5.13-2.97 7.22-6.58 7.22a6.66 6.66 0 0 1-6.17-4.1l2.73-1.11a3.61 3.61 0 0 0 3.44 2.48c2.33 0 3.77-1.36 3.77-4.09v-.96h-.16a4.81 4.81 0 0 1-3.6 1.6 6.97 6.97 0 1 1 0-13.94 4.65 4.65 0 0 1 3.6 1.6h.16v-1.2h2.8v.08Zm-2.65 6.57c0-2.4-1.6-4.25-3.69-4.25a4.09 4.09 0 0 0-3.85 4.25 4.02 4.02 0 0 0 3.85 4.17c2.09 0 3.7-1.76 3.7-4.17Z"/><path fill="#34A853" d="M317.16 251.23h-3.05v20.32h3.05v-20.32Z"/><path fill="#EA4335" d="m328.94 267.35 2.33 1.6a7.05 7.05 0 0 1-8.44 2.53 6.8 6.8 0 0 1-4.23-6.46 6.56 6.56 0 0 1 6.58-6.9c3.52 0 5.29 2.9 5.93 4.41l.32.8-9.3 3.77a3.52 3.52 0 0 0 3.37 2.17 4 4 0 0 0 3.44-1.92Zm-7.3-2.5 6.18-2.56a2.64 2.64 0 0 0-2.56-1.44 3.78 3.78 0 0 0-3.61 4"/><path fill="#000" d="M261.72 278.17h1.69l-3.32 12.76h-1.69l-2.68-8.42h-.06l-2.68 8.42h-1.63l-3.48-12.76h1.69l2.63 10.02h.05l2.74-8.3h1.47l2.69 8.3h.1l2.48-10.02Zm1.68 8.63a4.7 4.7 0 0 1 1.28-3.38 4.2 4.2 0 0 1 3.19-1.37 3.9 3.9 0 0 1 3.13 1.37 4.6 4.6 0 0 1 1.28 3.37 4.68 4.68 0 0 1-1.28 3.38 4.13 4.13 0 0 1-3.13 1.31 4.2 4.2 0 0 1-3.19-1.3 4.7 4.7 0 0 1-1.27-3.39Zm1.66 0c-.04.83.25 1.65.8 2.28a2.55 2.55 0 0 0 2.01.87 2.65 2.65 0 0 0 2.02-.87c.54-.63.83-1.45.8-2.29a3.23 3.23 0 0 0-.8-2.28 2.76 2.76 0 0 0-2.02-.93 2.59 2.59 0 0 0-2.02.93 3.13 3.13 0 0 0-.8 2.28m10.01 4.14h-1.67v-8.66H275v1.43h.06c.2-.5.57-.9 1.05-1.17a3.14 3.14 0 0 1 2.83-.26l-.5 1.54-1-.1a2.25 2.25 0 0 0-1.66.74 2.33 2.33 0 0 0-.72 1.7v4.78Zm12.2 0h-2l-2.72-4.13-1.36 1.34v2.79h-1.69v-12.76h1.69v7.82l3.8-3.8h2.12v.1l-3.42 3.38 3.58 5.15v.1Zm7.21-2.17a2.47 2.47 0 0 1-.97 1.96 4.2 4.2 0 0 1-2.52.76 3.84 3.84 0 0 1-3.72-2.5l1.45-.66c.17.5.49.95.92 1.25.4.28.86.44 1.35.44.45.02.9-.1 1.29-.33a.93.93 0 0 0 .54-.82c0-.6-.44-.98-1.3-1.25l-1.5-.38c-1.67-.44-2.53-1.3-2.53-2.5a2.2 2.2 0 0 1 .97-1.91c.71-.53 1.59-.8 2.47-.77.74-.02 1.47.16 2.1.55.6.34 1.08.88 1.35 1.52l-1.51.6c-.15-.38-.44-.7-.8-.87-.38-.24-.8-.35-1.25-.33-.4 0-.8.11-1.13.33a.92.92 0 0 0-.53.76c0 .55.48.88 1.4 1.1l1.34.38c1.72.43 2.58 1.3 2.58 2.67m5.77 2.49a3.41 3.41 0 0 1-1.79-.43c-.49-.23-.9-.6-1.19-1.06h-.1l.1 1.22v3.83h-1.68v-12.5h1.58v1.23h.1c.3-.45.72-.81 1.2-1.06a4.03 4.03 0 0 1 4.76.9 4.95 4.95 0 0 1 0 6.54 3.84 3.84 0 0 1-2.98 1.33Zm-.27-1.49a2.59 2.59 0 0 0 2-.85 3.47 3.47 0 0 0 0-4.47 2.64 2.64 0 0 0-2-.9 2.71 2.71 0 0 0-2 .9 3.47 3.47 0 0 0 0 4.47 2.65 2.65 0 0 0 2 .85m8.87-7.7c1.04-.06 2.07.3 2.86.98a3.48 3.48 0 0 1 1.08 2.72v5.45h-1.56v-1.25h-.11a3.02 3.02 0 0 1-2.7 1.52 3.7 3.7 0 0 1-2.42-.87 2.72 2.72 0 0 1-.97-2.18 2.76 2.76 0 0 1 1.02-2.18 5.23 5.23 0 0 1 5.12-.27v-.38a1.87 1.87 0 0 0-.65-1.47 2.25 2.25 0 0 0-1.56-.66 2.6 2.6 0 0 0-2.2 1.2l-1.46-.93a4.22 4.22 0 0 1 3.55-1.68Zm-2.1 6.43a1.26 1.26 0 0 0 .54 1.08c.35.3.79.44 1.24.44.7 0 1.37-.28 1.89-.76.5-.5.78-1.15.8-1.86a3.63 3.63 0 0 0-2.15-.6 2.7 2.7 0 0 0-1.67.5 1.3 1.3 0 0 0-.65 1.2m11.61 2.99a4.12 4.12 0 0 1-3.17-1.3 4.83 4.83 0 0 1-1.28-3.39 4.63 4.63 0 0 1 1.28-3.37 4.02 4.02 0 0 1 3.17-1.37 3.93 3.93 0 0 1 3.81 2.56l-1.45.6a2.55 2.55 0 0 0-3.53-1.38 2.6 2.6 0 0 0-.87.68 3.24 3.24 0 0 0-.8 2.23 3.3 3.3 0 0 0 .8 2.29 2.58 2.58 0 0 0 1.93.92 2.5 2.5 0 0 0 2.53-1.69l1.44.66a4.18 4.18 0 0 1-3.86 2.56m8.68 0a3.72 3.72 0 0 1-3.01-1.3 4.72 4.72 0 0 1-1.25-3.39 4.93 4.93 0 0 1 1.2-3.37 3.8 3.8 0 0 1 3.01-1.37 3.74 3.74 0 0 1 2.96 1.26c.8 1 1.2 2.29 1.14 3.6v.16h-6.65a2.84 2.84 0 0 0 1.7 2.7c.32.14.66.2 1 .18a2.64 2.64 0 0 0 2.4-1.58l1.4.77a4.6 4.6 0 0 1-1.61 1.74c-.7.4-1.49.6-2.29.6Zm-2.5-5.78h4.84a2.33 2.33 0 0 0-1.53-2c-.29-.1-.6-.15-.91-.12a2.22 2.22 0 0 0-1.56.54 2.7 2.7 0 0 0-.83 1.58"/><defs><radialGradient id="b" cx="0" cy="0" r="1" gradientTransform="matrix(-9 24 -42 -16 169.25 42.35)" gradientUnits="userSpaceOnUse"><stop offset=".06" stop-color="#AE7FE2"/><stop offset="1" stop-color="#0078D4"/></radialGradient><radialGradient id="d" cx="0" cy="0" r="1" gradientTransform="matrix(24 -3 2 15 163.82 61.8)" gradientUnits="userSpaceOnUse"><stop offset=".13" stop-color="#D59DFF"/><stop offset="1" stop-color="#5E438F"/></radialGradient><radialGradient id="f" cx="0" cy="0" r="1" gradientTransform="matrix(-19 -5 8 -31 187.61 54.35)" gradientUnits="userSpaceOnUse"><stop offset=".06" stop-color="#50E6FF"/><stop offset="1" stop-color="#436DCD"/></radialGradient><radialGradient id="i" cx="0" cy="0" r="1" gradientTransform="matrix(-9 24 -42 -16 208.24 146.19)" gradientUnits="userSpaceOnUse"><stop offset=".06" stop-color="#AE7FE2"/><stop offset="1" stop-color="#0078D4"/></radialGradient><radialGradient id="k" cx="0" cy="0" r="1" gradientTransform="matrix(24 -3 2 15 202.82 165.53)" gradientUnits="userSpaceOnUse"><stop offset=".13" stop-color="#D59DFF"/><stop offset="1" stop-color="#5E438F"/></radialGradient><radialGradient id="l" cx="0" cy="0" r="1" gradientTransform="matrix(-19 -5 8 -31 226.56 158.13)" gradientUnits="userSpaceOnUse"><stop offset=".06" stop-color="#50E6FF"/><stop offset="1" stop-color="#436DCD"/></radialGradient><radialGradient id="p" cx="0" cy="0" r="1" gradientTransform="matrix(-9 24 -42 -16 208.24 256.18)" gradientUnits="userSpaceOnUse"><stop offset=".06" stop-color="#AE7FE2"/><stop offset="1" stop-color="#0078D4"/></radialGradient><radialGradient id="r" cx="0" cy="0" r="1" gradientTransform="matrix(24 -3 2 15 202.82 275.59)" gradientUnits="userSpaceOnUse"><stop offset=".13" stop-color="#D59DFF"/><stop offset="1" stop-color="#5E438F"/></radialGradient><radialGradient id="t" cx="0" cy="0" r="1" gradientTransform="matrix(-19 -5 8 -31 226.56 268.15)" gradientUnits="userSpaceOnUse"><stop offset=".06" stop-color="#50E6FF"/><stop offset="1" stop-color="#436DCD"/></radialGradient><linearGradient id="c" x1="169.32" x2="165.77" y1="62.95" y2="56.64" gradientUnits="userSpaceOnUse"><stop stop-color="#114A8B"/><stop offset="1" stop-color="#0078D4" stop-opacity="0"/></linearGradient><linearGradient id="e" x1="187.07" x2="183.25" y1="53.5" y2="59.13" gradientUnits="userSpaceOnUse"><stop stop-color="#493474"/><stop offset="1" stop-color="#8C66BA" stop-opacity="0"/></linearGradient><linearGradient id="g" x1="168.91" x2="174.74" y1="36.61" y2="36.61" gradientUnits="userSpaceOnUse"><stop stop-color="#2D3F80"/><stop offset="1" stop-color="#436DCD" stop-opacity="0"/></linearGradient><linearGradient id="j" x1="208.31" x2="204.78" y1="166.67" y2="160.39" gradientUnits="userSpaceOnUse"><stop stop-color="#114A8B"/><stop offset="1" stop-color="#0078D4" stop-opacity="0"/></linearGradient><linearGradient id="m" x1="207.9" x2="213.72" y1="140.49" y2="140.49" gradientUnits="userSpaceOnUse"><stop stop-color="#2D3F80"/><stop offset="1" stop-color="#436DCD" stop-opacity="0"/></linearGradient><linearGradient id="n" x1="226.01" x2="222.22" y1="157.28" y2="162.88" gradientUnits="userSpaceOnUse"><stop stop-color="#493474"/><stop offset="1" stop-color="#8C66BA" stop-opacity="0"/></linearGradient><linearGradient id="q" x1="208.31" x2="204.77" y1="276.73" y2="270.44" gradientUnits="userSpaceOnUse"><stop stop-color="#114A8B"/><stop offset="1" stop-color="#0078D4" stop-opacity="0"/></linearGradient><linearGradient id="s" x1="226.01" x2="222.2" y1="267.3" y2="272.92" gradientUnits="userSpaceOnUse"><stop stop-color="#493474"/><stop offset="1" stop-color="#8C66BA" stop-opacity="0"/></linearGradient><linearGradient id="u" x1="207.9" x2="213.72" y1="250.46" y2="250.46" gradientUnits="userSpaceOnUse"><stop stop-color="#2D3F80"/><stop offset="1" stop-color="#436DCD" stop-opacity="0"/></linearGradient><clipPath id="a"><path fill="#fff" d="M158.83 35.81h31.07v33.3h-31.07z"/></clipPath><clipPath id="h"><path fill="#fff" d="M197.84 139.7h31v33.1h-31z"/></clipPath><clipPath id="o"><path fill="#fff" d="M197.84 249.66h31v33.21h-31z"/></clipPath></defs></svg>