<svg width="520" height="520" viewBox="0 0 520 520" fill="none" xmlns="http://www.w3.org/2000/svg">
<mask id="path-1-inside-1_2437_1939" fill="white">
<path d="M514.884 256.589L432.029 58.2793L352.083 91.6821C353.086 82.2531 353.086 68.912 347.97 59.2824C336.535 37.9167 309.853 29.7917 288.487 41.2268C267.122 52.662 258.997 79.3441 270.432 100.71C274.444 108.233 280.463 114.352 287.886 118.464L202.423 154.074C200.517 148.056 197.608 142.338 193.896 137.222C195 136.62 195.903 135.918 196.805 135.015C198.912 132.909 200.216 130.1 200.216 127.091L199.815 93.9892H206.636C208.24 93.9892 209.745 93.287 210.849 92.1836C212.052 91.0802 212.654 89.4753 212.654 87.8704L211.45 0L199.413 0.200617L200.517 81.9521L39.722 83.1559L38.6186 0L26.5815 0.200617L27.6849 89.375C27.7852 92.6852 30.3933 95.1929 33.7034 95.2932H40.7251C40.7251 95.5941 41.1263 128.395 41.1263 128.395C41.2266 132.006 43.0321 135.316 45.9411 137.423L41.5275 144.444C39.8223 147.153 37.5152 153.873 37.5152 153.873H37.4149L19.8609 219.375L24.475 233.619L17.955 236.528C11.9365 239.236 7.12165 244.151 4.81455 250.37C2.50746 256.589 2.70807 263.41 5.41641 269.429L94.5908 468.642L178.148 431.227C181.157 429.923 183.264 427.114 183.565 423.804C183.865 420.494 182.361 417.284 179.653 415.478C168.919 407.955 161.497 399.83 159.29 393.21C153.673 376.559 162.6 358.403 179.352 352.785C196.003 347.168 214.159 356.096 219.776 372.847C222.484 380.772 221.882 389.498 218.171 397.022C216.566 400.231 217.168 404.043 219.676 406.551C222.083 409.159 225.895 409.961 229.105 408.457L298.518 377.361C301.828 375.957 304.637 373.549 306.643 370.54L317.176 366.227C318.379 376.157 322.091 385.586 328.009 393.711C326.906 394.313 326.003 395.116 325.1 396.018C322.893 398.125 321.69 401.034 321.69 404.043L322.191 437.045H315.37C313.765 437.045 312.261 437.747 311.157 438.85C309.953 439.954 309.352 441.559 309.452 443.164L310.555 518.897H322.592L321.489 449.182L482.284 447.878L483.387 518.997H495.424L494.321 441.86C494.22 438.549 491.612 435.941 488.302 435.841H481.281C481.281 435.64 481.381 435.339 481.381 435.139L480.879 402.839C480.879 399.228 479.074 395.818 476.065 393.812C478.372 390.1 480.177 387.292 480.478 386.69C482.183 384.082 483.487 381.173 484.29 378.063L484.49 377.361H484.591L502.145 311.759L495.725 291.497L501.543 289.089C514.182 283.873 520.2 269.529 514.984 256.89C514.984 256.79 514.884 256.69 514.884 256.589ZM94.6911 202.222L93.688 203.927C86.867 215.964 74.5291 221.281 74.4288 221.281L70.0152 223.086C70.0152 223.086 76.9365 264.915 78.8423 277.052C79.9457 284.275 78.6417 291.698 75.0306 298.017C72.4226 301.728 68.2096 303.935 63.6957 303.935C60.5862 303.835 59.2822 302.23 58.7806 301.327L39.2204 240.239L35.509 228.704L32.3994 219.074L49.3516 155.98C49.8531 154.174 50.6556 152.469 51.6587 150.864C51.6587 150.864 54.7683 145.849 58.2791 140.432L180.254 139.429C185.47 144.946 189.282 151.667 191.389 158.989L94.6911 202.222ZM185.972 127.492H185.771V127.292L55.671 128.295C54.7683 128.395 53.9658 128.094 53.2636 127.593V126.389L52.8624 96.0957C53.5646 95.6944 54.367 95.3935 55.1695 95.3935L185.47 94.3904C186.373 94.2901 187.176 94.591 187.878 95.0926L188.379 126.79C187.677 127.191 186.774 127.492 185.972 127.492ZM293.603 366.327L232.114 393.912C238.032 370.339 223.788 346.466 200.216 340.548C176.643 334.63 152.77 348.873 146.852 372.446C144.745 380.571 145.146 389.197 147.754 397.122C151.165 407.052 160.293 415.88 168.619 422.299L100.509 452.793L16.2497 264.514C14.8454 261.404 14.7451 257.893 16.0491 254.684C17.2528 251.474 19.6602 248.966 22.7698 247.562L28.0862 245.154L47.7467 306.443C50.7559 312.16 56.5738 315.872 63.0939 315.972C63.0939 315.972 78.742 316.273 85.1618 304.336V304.136C90.1772 295.309 92.0831 285.077 90.4781 275.046C88.9735 265.417 84.8608 240.239 83.1556 230.108C91.1803 225.694 98.0013 219.275 103.017 211.651L204.83 166.011C204.83 166.011 207.639 164.406 209.845 164.907C211.149 165.409 212.353 166.914 212.955 168.218L244.452 240.239C245.756 243.549 249.066 245.556 252.577 245.355C256.088 245.154 259.097 242.747 260.2 239.437C262.909 230.309 269.529 222.986 278.356 219.375C294.004 212.353 312.461 219.275 319.483 234.923C326.003 249.367 320.686 266.319 307.044 274.444C298.318 279.36 283.071 278.156 276.952 277.454C273.742 277.052 270.532 278.457 268.526 281.065C268.526 281.165 265.617 284.475 267.523 290.193L297.315 356.597C298.418 359.105 298.017 362.114 296.311 364.221C295.71 365.123 294.707 365.926 293.603 366.327ZM468.842 404.545L469.344 434.838C468.642 435.339 467.839 435.64 466.936 435.54L336.636 436.543C335.733 436.643 334.93 436.343 334.228 435.841L333.727 404.645L468.842 404.545ZM472.654 374.954C472.153 376.759 471.35 378.464 470.347 380.069V380.27C470.347 380.27 467.338 385.185 463.827 390.602L462.623 392.508H342.754L341.751 391.505C334.028 383.279 329.413 372.546 328.811 361.211L415.679 325C413.773 328.41 411.967 332.022 410.262 335.633L421.196 340.748C423.403 336.034 425.81 331.42 428.318 327.006C430.825 322.593 434.236 318.781 438.148 315.571C441.057 313.164 444.166 311.258 447.577 309.653L451.99 307.847L451.288 303.133C451.188 303.032 450.887 300.826 450.285 297.515C448.48 286.682 444.668 263.21 443.163 253.981C442.06 246.759 443.364 239.336 446.975 233.017C449.583 229.306 453.796 226.998 458.31 226.998C461.42 227.099 462.724 228.704 463.225 229.707L480.879 284.676L484.591 296.211L489.606 311.96L472.654 374.954ZM503.85 271.034C502.546 274.143 500.038 276.651 496.929 277.955L492.014 280.062L474.159 224.491C471.149 218.773 465.332 215.162 458.912 214.961C443.464 215.363 436.744 226.698 436.744 226.698C431.728 235.525 429.822 245.756 431.427 255.787C432.932 265.517 437.045 290.594 438.75 300.725C436.443 302.029 434.236 303.534 432.129 305.139L309.753 356.296C309.452 354.691 281.566 291.898 281.566 291.898C291.497 292.6 302.932 292.099 311.458 287.585L315.27 285.278C319.884 282.168 323.896 278.256 327.006 273.642L328.31 271.636C330.617 267.824 332.322 263.711 333.426 259.398C333.526 259.198 333.526 258.997 333.526 258.796H333.626C334.73 254.884 335.231 250.872 335.231 246.759C335.231 242.346 334.529 237.832 333.225 233.619C326.003 210.448 301.327 197.608 278.156 204.83C267.021 208.341 257.693 216.165 252.276 226.597L245.154 210.648C242.847 204.931 227.5 171.227 224.089 163.403C223.287 161.898 222.384 160.394 221.281 159.089L300.625 126.389C303.935 124.985 305.941 121.674 305.741 118.164C305.64 114.653 303.233 111.644 299.923 110.64C283.071 105.525 273.541 87.7701 278.657 70.8179C279.159 69.213 279.761 67.7083 280.463 66.2037C284.375 57.9784 291.597 51.7593 300.424 49.3518C314.869 45.2392 330.216 51.6589 337.338 64.8997C342.052 73.7268 340.447 88.8734 339.544 94.9923C339.143 98.3025 340.447 101.512 343.055 103.519C345.663 105.525 349.074 106.026 352.083 104.722L425.509 74.0278L503.75 261.204C505.154 264.313 505.154 267.924 503.85 271.034Z"/>
</mask>
<path d="M514.884 256.589L432.029 58.2793L352.083 91.6821C353.086 82.2531 353.086 68.912 347.97 59.2824C336.535 37.9167 309.853 29.7917 288.487 41.2268C267.122 52.662 258.997 79.3441 270.432 100.71C274.444 108.233 280.463 114.352 287.886 118.464L202.423 154.074C200.517 148.056 197.608 142.338 193.896 137.222C195 136.62 195.903 135.918 196.805 135.015C198.912 132.909 200.216 130.1 200.216 127.091L199.815 93.9892H206.636C208.24 93.9892 209.745 93.287 210.849 92.1836C212.052 91.0802 212.654 89.4753 212.654 87.8704L211.45 0L199.413 0.200617L200.517 81.9521L39.722 83.1559L38.6186 0L26.5815 0.200617L27.6849 89.375C27.7852 92.6852 30.3933 95.1929 33.7034 95.2932H40.7251C40.7251 95.5941 41.1263 128.395 41.1263 128.395C41.2266 132.006 43.0321 135.316 45.9411 137.423L41.5275 144.444C39.8223 147.153 37.5152 153.873 37.5152 153.873H37.4149L19.8609 219.375L24.475 233.619L17.955 236.528C11.9365 239.236 7.12165 244.151 4.81455 250.37C2.50746 256.589 2.70807 263.41 5.41641 269.429L94.5908 468.642L178.148 431.227C181.157 429.923 183.264 427.114 183.565 423.804C183.865 420.494 182.361 417.284 179.653 415.478C168.919 407.955 161.497 399.83 159.29 393.21C153.673 376.559 162.6 358.403 179.352 352.785C196.003 347.168 214.159 356.096 219.776 372.847C222.484 380.772 221.882 389.498 218.171 397.022C216.566 400.231 217.168 404.043 219.676 406.551C222.083 409.159 225.895 409.961 229.105 408.457L298.518 377.361C301.828 375.957 304.637 373.549 306.643 370.54L317.176 366.227C318.379 376.157 322.091 385.586 328.009 393.711C326.906 394.313 326.003 395.116 325.1 396.018C322.893 398.125 321.69 401.034 321.69 404.043L322.191 437.045H315.37C313.765 437.045 312.261 437.747 311.157 438.85C309.953 439.954 309.352 441.559 309.452 443.164L310.555 518.897H322.592L321.489 449.182L482.284 447.878L483.387 518.997H495.424L494.321 441.86C494.22 438.549 491.612 435.941 488.302 435.841H481.281C481.281 435.64 481.381 435.339 481.381 435.139L480.879 402.839C480.879 399.228 479.074 395.818 476.065 393.812C478.372 390.1 480.177 387.292 480.478 386.69C482.183 384.082 483.487 381.173 484.29 378.063L484.49 377.361H484.591L502.145 311.759L495.725 291.497L501.543 289.089C514.182 283.873 520.2 269.529 514.984 256.89C514.984 256.79 514.884 256.69 514.884 256.589ZM94.6911 202.222L93.688 203.927C86.867 215.964 74.5291 221.281 74.4288 221.281L70.0152 223.086C70.0152 223.086 76.9365 264.915 78.8423 277.052C79.9457 284.275 78.6417 291.698 75.0306 298.017C72.4226 301.728 68.2096 303.935 63.6957 303.935C60.5862 303.835 59.2822 302.23 58.7806 301.327L39.2204 240.239L35.509 228.704L32.3994 219.074L49.3516 155.98C49.8531 154.174 50.6556 152.469 51.6587 150.864C51.6587 150.864 54.7683 145.849 58.2791 140.432L180.254 139.429C185.47 144.946 189.282 151.667 191.389 158.989L94.6911 202.222ZM185.972 127.492H185.771V127.292L55.671 128.295C54.7683 128.395 53.9658 128.094 53.2636 127.593V126.389L52.8624 96.0957C53.5646 95.6944 54.367 95.3935 55.1695 95.3935L185.47 94.3904C186.373 94.2901 187.176 94.591 187.878 95.0926L188.379 126.79C187.677 127.191 186.774 127.492 185.972 127.492ZM293.603 366.327L232.114 393.912C238.032 370.339 223.788 346.466 200.216 340.548C176.643 334.63 152.77 348.873 146.852 372.446C144.745 380.571 145.146 389.197 147.754 397.122C151.165 407.052 160.293 415.88 168.619 422.299L100.509 452.793L16.2497 264.514C14.8454 261.404 14.7451 257.893 16.0491 254.684C17.2528 251.474 19.6602 248.966 22.7698 247.562L28.0862 245.154L47.7467 306.443C50.7559 312.16 56.5738 315.872 63.0939 315.972C63.0939 315.972 78.742 316.273 85.1618 304.336V304.136C90.1772 295.309 92.0831 285.077 90.4781 275.046C88.9735 265.417 84.8608 240.239 83.1556 230.108C91.1803 225.694 98.0013 219.275 103.017 211.651L204.83 166.011C204.83 166.011 207.639 164.406 209.845 164.907C211.149 165.409 212.353 166.914 212.955 168.218L244.452 240.239C245.756 243.549 249.066 245.556 252.577 245.355C256.088 245.154 259.097 242.747 260.2 239.437C262.909 230.309 269.529 222.986 278.356 219.375C294.004 212.353 312.461 219.275 319.483 234.923C326.003 249.367 320.686 266.319 307.044 274.444C298.318 279.36 283.071 278.156 276.952 277.454C273.742 277.052 270.532 278.457 268.526 281.065C268.526 281.165 265.617 284.475 267.523 290.193L297.315 356.597C298.418 359.105 298.017 362.114 296.311 364.221C295.71 365.123 294.707 365.926 293.603 366.327ZM468.842 404.545L469.344 434.838C468.642 435.339 467.839 435.64 466.936 435.54L336.636 436.543C335.733 436.643 334.93 436.343 334.228 435.841L333.727 404.645L468.842 404.545ZM472.654 374.954C472.153 376.759 471.35 378.464 470.347 380.069V380.27C470.347 380.27 467.338 385.185 463.827 390.602L462.623 392.508H342.754L341.751 391.505C334.028 383.279 329.413 372.546 328.811 361.211L415.679 325C413.773 328.41 411.967 332.022 410.262 335.633L421.196 340.748C423.403 336.034 425.81 331.42 428.318 327.006C430.825 322.593 434.236 318.781 438.148 315.571C441.057 313.164 444.166 311.258 447.577 309.653L451.99 307.847L451.288 303.133C451.188 303.032 450.887 300.826 450.285 297.515C448.48 286.682 444.668 263.21 443.163 253.981C442.06 246.759 443.364 239.336 446.975 233.017C449.583 229.306 453.796 226.998 458.31 226.998C461.42 227.099 462.724 228.704 463.225 229.707L480.879 284.676L484.591 296.211L489.606 311.96L472.654 374.954ZM503.85 271.034C502.546 274.143 500.038 276.651 496.929 277.955L492.014 280.062L474.159 224.491C471.149 218.773 465.332 215.162 458.912 214.961C443.464 215.363 436.744 226.698 436.744 226.698C431.728 235.525 429.822 245.756 431.427 255.787C432.932 265.517 437.045 290.594 438.75 300.725C436.443 302.029 434.236 303.534 432.129 305.139L309.753 356.296C309.452 354.691 281.566 291.898 281.566 291.898C291.497 292.6 302.932 292.099 311.458 287.585L315.27 285.278C319.884 282.168 323.896 278.256 327.006 273.642L328.31 271.636C330.617 267.824 332.322 263.711 333.426 259.398C333.526 259.198 333.526 258.997 333.526 258.796H333.626C334.73 254.884 335.231 250.872 335.231 246.759C335.231 242.346 334.529 237.832 333.225 233.619C326.003 210.448 301.327 197.608 278.156 204.83C267.021 208.341 257.693 216.165 252.276 226.597L245.154 210.648C242.847 204.931 227.5 171.227 224.089 163.403C223.287 161.898 222.384 160.394 221.281 159.089L300.625 126.389C303.935 124.985 305.941 121.674 305.741 118.164C305.64 114.653 303.233 111.644 299.923 110.64C283.071 105.525 273.541 87.7701 278.657 70.8179C279.159 69.213 279.761 67.7083 280.463 66.2037C284.375 57.9784 291.597 51.7593 300.424 49.3518C314.869 45.2392 330.216 51.6589 337.338 64.8997C342.052 73.7268 340.447 88.8734 339.544 94.9923C339.143 98.3025 340.447 101.512 343.055 103.519C345.663 105.525 349.074 106.026 352.083 104.722L425.509 74.0278L503.75 261.204C505.154 264.313 505.154 267.924 503.85 271.034Z" fill="#272727" stroke="#EEEEEE" stroke-width="10" mask="url(#path-1-inside-1_2437_1939)"/>
<path d="M137.907 471.356L127.211 476.876L141.103 503.794L151.8 498.274L137.907 471.356Z" fill="#272727"/>
<path d="M54.2753 471.84L40.3828 498.759L51.0789 504.279L64.9714 477.36L54.2753 471.84Z" fill="#272727"/>
<path d="M90.2089 489.081L89.4688 519.365L101.502 519.659L102.242 489.375L90.2089 489.081Z" fill="#272727"/>
<path d="M392.399 16.9896L381.703 22.5098L395.596 49.4283L406.292 43.9081L392.399 16.9896Z" fill="#272727"/>
<path d="M482.455 17.394L468.562 44.3125L479.259 49.8327L493.151 22.9142L482.455 17.394Z" fill="#272727"/>
<path d="M431.334 1.3018L430.594 31.5859L442.627 31.88L443.367 1.59589L431.334 1.3018Z" fill="#272727"/>
</svg>
