<svg width="50" height="50" viewBox="0 0 50 50" fill="none" xmlns="http://www.w3.org/2000/svg">
<path d="M39.5181 21.4467L38.1381 20.5067C39.749 18.1342 40.687 15.3695 40.8525 12.5065C41.018 9.64351 40.4048 6.78916 39.0781 4.24675L38.7981 3.73675L40.2514 2.91675L40.5514 3.47341C42.0194 6.28304 42.6985 9.43798 42.5166 12.6028C42.3346 15.7676 41.2984 18.8239 39.5181 21.4467ZM43.3581 45.2167V46.6667H6.69141V45.2167H14.9847L20.1481 21.3334C20.2288 20.9612 20.4346 20.6279 20.7312 20.3889C21.0277 20.15 21.3972 20.0198 21.7781 20.0201H24.1947V15.3334C23.3645 15.1405 22.6231 14.6741 22.0899 14.0091C21.5567 13.3441 21.2625 12.5191 21.2547 11.6667C21.2396 11.151 21.3281 10.6374 21.515 10.1564C21.7019 9.67545 21.9834 9.23688 22.3429 8.86668C22.7023 8.49649 23.1324 8.20219 23.6077 8.00123C24.083 7.80026 24.5937 7.69671 25.1097 7.69671C25.6257 7.69671 26.1365 7.80026 26.6118 8.00123C27.087 8.20219 27.5171 8.49649 27.8766 8.86668C28.2361 9.23688 28.5176 9.67545 28.7045 10.1564C28.8914 10.6374 28.9799 11.151 28.9647 11.6667C28.9574 12.5477 28.6442 13.3987 28.0787 14.0742C27.5133 14.7498 26.7306 15.2078 25.8647 15.3701V20.0201H28.2681C28.6495 20.019 29.0198 20.1489 29.317 20.3879C29.6143 20.6269 29.8205 20.9607 29.9014 21.3334L35.0581 45.2167H43.3581ZM28.1814 29.1701H21.8681L20.7914 34.1467H29.2614L28.1814 29.1701ZM20.4281 35.8134L19.3514 40.7967H30.6947L29.6181 35.8134H20.4281ZM23.1214 23.3534L22.2214 27.5034H27.8214L26.9247 23.3534H23.1214ZM18.3947 45.2201H31.6514L31.0547 42.4634H18.9881L18.3947 45.2201ZM17.3681 16.7101C16.3721 15.1983 15.8458 13.4257 15.8552 11.6153C15.8647 9.80503 16.4097 8.03799 17.4214 6.53675L16.0414 5.60341C14.8446 7.37722 14.1999 9.46572 14.1886 11.6055C14.1774 13.7453 14.8 15.8404 15.9781 17.6267L17.3681 16.7101ZM35.8581 11.6667C35.8602 9.55087 35.2413 7.48089 34.0781 5.71341L32.6847 6.63008C33.6783 8.1418 34.2027 9.91353 34.192 11.7225C34.1813 13.5314 33.6361 15.2969 32.6247 16.7967L34.0047 17.7234C35.2151 15.9357 35.8607 13.8257 35.8581 11.6667ZM11.7814 20.3934C10.1674 17.9402 9.26522 15.0874 9.17518 12.1522C9.08515 9.217 9.81077 6.31431 11.2714 3.76675L9.82807 2.93341C8.21296 5.74961 7.4108 8.95867 7.51085 12.2036C7.61089 15.4485 8.60921 18.6021 10.3947 21.3134L11.7814 20.3934Z" fill="#655E8E"/>
</svg>
