<svg width="74" height="50" viewBox="0 0 74 50" fill="none" xmlns="http://www.w3.org/2000/svg">
<g clip-path="url(#clip0_1157_9969)">
<path d="M64.7378 0.0581055H2.33661C1.31041 0.0581055 0.478516 0.875101 0.478516 1.88291V11.0313C0.478516 12.0391 1.31041 12.8561 2.33661 12.8561H64.7378C65.764 12.8561 66.5959 12.0391 66.5959 11.0313V1.88291C66.5959 0.875101 65.764 0.0581055 64.7378 0.0581055Z" fill="#D88E8C"/>
<path fill-rule="evenodd" clip-rule="evenodd" d="M59.1149 24.9942C56.767 24.792 54.4141 25.3248 52.3934 26.5162C50.3726 27.7077 48.7876 29.4966 47.8655 31.6268C46.9434 33.7571 46.7314 36.1192 47.26 38.375C47.7885 40.6308 49.0304 42.6644 50.8079 44.1846C52.5853 45.7047 54.807 46.6334 57.1548 46.8376C59.5026 47.0419 61.8559 46.5111 63.8777 45.3214C65.8995 44.1317 67.4861 42.3441 68.4101 40.2147L70.9741 41.2878C69.8194 43.9488 67.8368 46.1827 65.3102 47.6694C62.7837 49.1561 59.8428 49.8194 56.9089 49.5642C53.975 49.309 51.1986 48.1484 48.9774 46.2488C46.7563 44.3491 45.2043 41.8078 44.5438 38.9888C43.8833 36.1699 44.1482 33.218 45.3005 30.5559C46.4529 27.8939 48.4335 25.6583 50.9588 24.1695C53.484 22.6806 56.4243 22.0148 59.3584 22.2675C62.2925 22.5202 65.0699 23.6783 67.2928 25.5761L65.4642 27.6419C63.6854 26.1232 61.4629 25.1964 59.1149 24.9942Z" fill="#D88E8C"/>
<path d="M70.6985 35.9003C69.3204 37.9836 67.2145 40.4927 65.248 41.8917L69.4443 41.3747L73.0211 43.6101C71.8598 41.5115 71.0391 38.3638 70.6985 35.9003Z" fill="#D88E8C"/>
<path d="M58.157 19.614C61.1266 19.6078 64.0425 20.3907 66.5959 21.8798V19.1122C66.5959 18.6282 66.4001 18.164 66.0516 17.8218C65.7032 17.4796 65.2306 17.2874 64.7378 17.2874H2.33661C1.84382 17.2874 1.3712 17.4796 1.02274 17.8218C0.674279 18.164 0.478516 18.6282 0.478516 19.1122V28.2514C0.478516 28.7354 0.674279 29.1995 1.02274 29.5417C1.3712 29.8839 1.84382 30.0762 2.33661 30.0762H42.6574C43.8602 26.9973 45.9855 24.3491 48.7528 22.4812C51.5201 20.6133 54.7991 19.6136 58.157 19.614Z" fill="#D88E8C"/>
<path d="M41.5735 35.9003C41.5735 35.3833 41.589 34.8815 41.6354 34.3796H2.33661C1.84382 34.3796 1.3712 34.5719 1.02274 34.9141C0.674279 35.2563 0.478516 35.7205 0.478516 36.2044V45.3437C0.478516 45.8277 0.674279 46.2918 1.02274 46.634C1.3712 46.9762 1.84382 47.1685 2.33661 47.1685H46.1877C43.2167 44.1443 41.5617 40.1026 41.5735 35.9003Z" fill="#D88E8C"/>
</g>
<defs>
<clipPath id="clip0_1157_9969">
<rect width="72.8571" height="50" fill="white" transform="translate(0.476562)"/>
</clipPath>
</defs>
</svg>
