<svg width="78" height="50" viewBox="0 0 78 50" fill="none" xmlns="http://www.w3.org/2000/svg">
<g clip-path="url(#clip0_1157_9974)">
<path d="M75.3223 3.5412H66.9787C65.7818 3.5412 64.8115 4.48891 64.8115 5.65797V6.70578C64.8115 7.87484 65.7818 8.82255 66.9787 8.82255H75.3223C76.5192 8.82255 77.4895 7.87484 77.4895 6.70578V5.65797C77.4895 4.48891 76.5192 3.5412 75.3223 3.5412Z" fill="#7BADD5"/>
<path d="M54.3367 0.366011C53.2371 0.361797 52.1581 0.656573 51.2204 1.21735C50.2826 1.77812 49.5232 2.58275 49.0271 3.54117H2.50507C1.93029 3.54117 1.37907 3.76419 0.972641 4.16116C0.566217 4.55813 0.337891 5.09654 0.337891 5.65795V6.69869C0.337891 7.2601 0.566217 7.79851 0.972641 8.19548C1.37907 8.59245 1.93029 8.81547 2.50507 8.81547H49.0271C49.508 9.73235 50.2301 10.5077 51.1192 11.0618C52.0083 11.616 53.0324 11.929 54.0863 11.9686C55.1403 12.0083 56.186 11.7733 57.1162 11.2876C58.0464 10.802 58.8274 10.0833 59.3792 9.20529C59.9309 8.3273 60.2334 7.32168 60.2556 6.29173C60.2778 5.26177 60.019 4.2446 59.5056 3.34468C58.9922 2.44477 58.2429 1.69454 57.3345 1.17107C56.4261 0.647588 55.3914 0.369723 54.3367 0.366011Z" fill="#7BADD5"/>
<path d="M75.3044 22.3629H46.1017C44.9048 22.3629 43.9346 23.3106 43.9346 24.4796V25.5274C43.9346 26.6965 44.9048 27.6442 46.1017 27.6442H75.3044C76.5013 27.6442 77.4716 26.6965 77.4716 25.5274V24.4796C77.4716 23.3106 76.5013 22.3629 75.3044 22.3629Z" fill="#7BADD5"/>
<path d="M33.2609 19.1877C32.1622 19.1875 31.0849 19.4839 30.1479 20.0443C29.2109 20.6046 28.4507 21.407 27.9513 22.3628H2.50507C1.9303 22.3628 1.37907 22.5859 0.972641 22.9828C0.566217 23.3798 0.337891 23.9182 0.337891 24.4796V25.5204C0.337891 26.0818 0.566217 26.6202 0.972641 27.0172C1.37907 27.4141 1.9303 27.6371 2.50507 27.6371H27.9513C28.4301 28.5613 29.1527 29.344 30.0445 29.9044C30.9363 30.4647 31.9651 30.7826 33.0246 30.825C34.0841 30.8675 35.1361 30.6331 36.0719 30.1459C37.0077 29.6588 37.7936 28.9366 38.3483 28.0539C38.903 27.1711 39.2065 26.1598 39.2275 25.1242C39.2486 24.0887 38.9863 23.0664 38.4679 22.1628C37.9494 21.2593 37.1936 20.5073 36.2782 19.9843C35.3629 19.4613 34.3213 19.1863 33.2609 19.1877Z" fill="#7BADD5"/>
<path d="M75.3224 41.1846H57.8224C56.6256 41.1846 55.6553 42.1323 55.6553 43.3013V44.3491C55.6553 45.5182 56.6256 46.4659 57.8224 46.4659H75.3224C76.5193 46.4659 77.4896 45.5182 77.4896 44.3491V43.3013C77.4896 42.1323 76.5193 41.1846 75.3224 41.1846Z" fill="#7BADD5"/>
<path d="M45.2165 38.0093C44.1178 38.0091 43.0405 38.3056 42.1035 38.8659C41.1665 39.4262 40.4063 40.2287 39.9069 41.1845H2.50507C1.93029 41.1845 1.37907 41.4075 0.972641 41.8045C0.566217 42.2015 0.337891 42.7399 0.337891 43.3013V44.3597C0.337891 44.9211 0.566217 45.4595 0.972641 45.8565C1.37907 46.2534 1.93029 46.4765 2.50507 46.4765H39.9069C40.3883 47.398 41.1125 48.1775 42.0049 48.7348C42.8972 49.2921 43.9255 49.6071 44.9839 49.6472C46.0423 49.6874 47.0925 49.4514 48.0264 48.9634C48.9604 48.4754 49.7443 47.7532 50.2976 46.8709C50.8508 45.9887 51.1533 44.9784 51.174 43.9441C51.1946 42.9097 50.9327 41.8887 50.4152 40.9861C49.8976 40.0834 49.1431 39.3318 48.2294 38.8086C47.3156 38.2854 46.2756 38.0095 45.2165 38.0093Z" fill="#7BADD5"/>
</g>
<defs>
<clipPath id="clip0_1157_9974">
<rect width="77.8095" height="50" fill="white"/>
</clipPath>
</defs>
</svg>
