<svg width="72" height="50" viewBox="0 0 72 50" fill="none" xmlns="http://www.w3.org/2000/svg">
<g clip-path="url(#clip0_1157_9979)">
<path d="M65.4151 -0.0378418H2.67294C1.64113 -0.0378418 0.804688 0.779152 0.804688 1.78696V10.9353C0.804688 11.9431 1.64113 12.7601 2.67294 12.7601H65.4151C66.447 12.7601 67.2834 11.9431 67.2834 10.9353V1.78696C67.2834 0.779152 66.447 -0.0378418 65.4151 -0.0378418Z" fill="#A7B88F"/>
<path d="M58.7828 19.5028C61.7726 19.5036 64.7077 20.2859 67.2834 21.7686V19.001C67.2834 18.517 67.0866 18.0528 66.7362 17.7106C66.3858 17.3684 65.9106 17.1761 65.4151 17.1761H2.67294C2.17745 17.1761 1.70225 17.3684 1.35189 17.7106C1.00152 18.0528 0.804688 18.517 0.804688 19.001V28.1554C0.804688 28.6394 1.00152 29.1035 1.35189 29.4457C1.70225 29.7879 2.17745 29.9802 2.67294 29.9802H43.2141C44.4182 26.8997 46.5512 24.2487 49.3312 22.3779C52.1111 20.5071 55.4069 19.5045 58.7828 19.5028Z" fill="#A7B88F"/>
<path d="M42.1087 35.8043C42.1087 35.2873 42.1398 34.7703 42.1865 34.2684H2.67294C2.17745 34.2684 1.70225 34.4607 1.35189 34.8029C1.00152 35.1451 0.804688 35.6093 0.804688 36.0932V45.2477C0.804688 45.7317 1.00152 46.1958 1.35189 46.538C1.70225 46.8802 2.17745 47.0725 2.67294 47.0725H46.7482C43.7665 44.0447 42.1034 40.0054 42.1087 35.8043Z" fill="#A7B88F"/>
<path d="M59.9815 24.1408L64.0916 25.3573L70.3036 27.1822C70.8174 27.3342 71.0197 27.5775 71.0197 28.0946V39.0586C71.0042 40.5793 70.4437 41.9023 69.5563 43.1188C68.4353 44.6547 66.9874 45.8712 65.4306 46.9661C63.8176 48.1106 62.0973 49.1035 60.2929 49.9314C60.149 50.006 59.9886 50.0449 59.8258 50.0449C59.6629 50.0449 59.5026 50.006 59.3587 49.9314C56.7432 48.6997 54.2833 47.2246 52.1192 45.3086C50.9049 44.2441 49.8462 43.0276 49.1767 41.5373C48.8164 40.7477 48.6307 39.8927 48.6318 39.0282V28.125C48.6318 27.5775 48.8187 27.3342 49.3636 27.1822L59.5767 24.1864L59.6701 24.1408H59.9815ZM69.4629 28.5356L69.2605 28.4595L60.0126 25.7679C59.8699 25.7298 59.7194 25.7298 59.5767 25.7679L51.0294 28.277L50.1887 28.5203V39.0738C50.1941 39.7927 50.37 40.5006 50.7025 41.1419C51.3564 42.4649 52.3528 43.499 53.4737 44.457C55.3264 46.0537 57.4282 47.2854 59.639 48.3651C59.6976 48.3912 59.7613 48.4046 59.8258 48.4046C59.8902 48.4046 59.9539 48.3912 60.0126 48.3651C61.588 47.6147 63.098 46.74 64.5276 45.7496C65.8665 44.7915 67.1276 43.7423 68.1395 42.4345C69.0197 41.3492 69.4922 40.002 69.4784 38.6176C69.4317 35.3634 69.4629 32.1091 69.4629 28.8397V28.5356Z" fill="#A7B88F"/>
</g>
<defs>
<clipPath id="clip0_1157_9979">
<rect width="70.6076" height="50" fill="white" transform="translate(0.600586)"/>
</clipPath>
</defs>
</svg>
