<svg xmlns="http://www.w3.org/2000/svg" fill="none" viewBox="0 0 350 101"><path fill="#000" d="m13.26 77.856-3.393-3.824c2.128-.432 2.832-1.984 2.832-3.52 0-1.936-1.392-3.696-4.032-3.712-1.776 0-3.552-.016-5.328-.016V78h2.112v-3.744h2.032L10.747 78h2.512v-.144Zm-4.593-9.088c1.328 0 1.92.896 1.92 1.792s-.576 1.792-1.92 1.792H5.451v-3.584h3.216ZM21.8 74.752c.304-3.248-1.344-4.88-3.984-4.88-2.56 0-4.192 1.728-4.192 4.128 0 2.528 1.616 4.208 4.336 4.208 1.2 0 2.56-.416 3.392-1.28l-1.248-1.232c-.448.464-1.392.736-2.112.736-1.376 0-2.224-.704-2.352-1.68h6.16Zm-6.128-1.616c.288-1.024 1.152-1.536 2.208-1.536 1.12 0 1.92.512 2.048 1.536h-4.256Zm13.088 2.576c-.48.48-1.104.656-1.728.656-1.216 0-2.24-.8-2.24-2.304 0-1.376.96-2.336 2.272-2.336.544 0 1.12.208 1.584.624l1.232-1.296c-.864-.848-1.728-1.168-2.848-1.168-2.288 0-4.192 1.376-4.192 4.176 0 2.8 1.904 4.176 4.192 4.176 1.168 0 2.128-.352 3.04-1.248l-1.312-1.28Zm6.037-5.76c-2.512 0-4.08 1.856-4.08 4.112 0 2.272 1.536 4.112 4.096 4.112s4.112-1.84 4.112-4.112c0-2.256-1.616-4.112-4.128-4.112Zm.016 1.776c1.312 0 2.144 1.152 2.144 2.336 0 1.2-.72 2.32-2.144 2.32-1.424 0-2.144-1.12-2.144-2.32 0-1.184.736-2.336 2.144-2.336Zm11.352-1.632-1.088 2.64-1.2 3.296-1.216-3.328-1.088-2.608h-2.128l3.376 7.936h2.112l3.36-7.936h-2.128Zm10.9 4.656c.305-3.248-1.343-4.88-3.983-4.88-2.56 0-4.192 1.728-4.192 4.128 0 2.528 1.616 4.208 4.336 4.208 1.2 0 2.56-.416 3.392-1.28l-1.248-1.232c-.448.464-1.392.736-2.112.736-1.376 0-2.224-.704-2.352-1.68h6.16Zm-6.127-1.616c.288-1.024 1.152-1.536 2.208-1.536 1.12 0 1.92.512 2.048 1.536h-4.256Zm7.632-3.024V78h1.952v-4.16c0-1.456.944-2 1.968-2 .64 0 1.008.176 1.408.512l.88-1.696c-.432-.432-1.216-.752-2.032-.752-.8 0-1.616.144-2.224 1.12l-.144-.912H58.57ZM71.7 71.2c-.449-.784-1.457-1.28-2.513-1.28-2.304-.016-4.112 1.408-4.112 4.128 0 2.768 1.728 4.208 4.064 4.192.88-.016 2.112-.464 2.56-1.392L71.795 78h1.84v-7.888h-1.872L71.7 71.2Zm-2.337.464c3.072 0 3.072 4.784 0 4.784-1.296 0-2.336-.896-2.336-2.4s1.04-2.384 2.336-2.384Zm10.137.08c1.248 0 2.24.88 2.24 2.304 0 1.376-.992 2.32-2.24 2.32-1.232 0-2.288-.896-2.288-2.32 0-1.376 1.056-2.304 2.288-2.304Zm-4.368-4.928V78h1.824l.128-1.088c.608.944 1.584 1.264 2.544 1.264 2.32 0 4.064-1.536 4.064-4.128 0-2.72-1.712-4.128-4.016-4.128-.832 0-2.128.448-2.592 1.264v-4.368h-1.952Zm10 0V78h1.936V66.816h-1.936Zm11.465 7.936c.304-3.248-1.344-4.88-3.984-4.88-2.56 0-4.192 1.728-4.192 4.128 0 2.528 1.616 4.208 4.336 4.208 1.2 0 2.56-.416 3.392-1.28L94.9 75.696c-.448.464-1.392.736-2.112.736-1.376 0-2.224-.704-2.352-1.68h6.16Zm-6.128-1.616c.288-1.024 1.152-1.536 2.208-1.536 1.12 0 1.92.512 2.048 1.536h-4.256ZM36.532 84.8h-4.4V96h4.4c3.92 0 5.648-2.864 5.6-5.696-.048-2.768-1.76-5.504-5.6-5.504Zm-2.304 2h2.304c2.432 0 3.456 1.744 3.504 3.488.048 1.824-.96 3.68-3.504 3.68h-2.304V86.8Zm15.502 2.4c-.448-.784-1.456-1.28-2.512-1.28-2.304-.016-4.112 1.408-4.112 4.128 0 2.768 1.728 4.208 4.064 4.192.88-.016 2.112-.464 2.56-1.392L49.826 96h1.84v-7.888h-1.872L49.73 89.2Zm-2.336.464c3.072 0 3.072 4.784 0 4.784-1.296 0-2.336-.896-2.336-2.4s1.04-2.384 2.336-2.384Zm6.382-3.568v2.032h-1.472v1.68h1.472v3.408c0 1.968 1.12 2.944 2.832 2.88a4.36 4.36 0 0 0 1.616-.336l-.544-1.664a2.23 2.23 0 0 1-.944.24c-.608 0-1.024-.368-1.024-1.12v-3.408h2.192v-1.68h-2.176v-2.24l-1.952.208ZM65.559 89.2c-.448-.784-1.456-1.28-2.512-1.28-2.304-.016-4.112 1.408-4.112 4.128 0 2.768 1.728 4.208 4.064 4.192.88-.016 2.112-.464 2.56-1.392L65.655 96h1.84v-7.888h-1.872l-.064 1.088Zm-2.336.464c3.072 0 3.072 4.784 0 4.784-1.296 0-2.336-.896-2.336-2.4s1.04-2.384 2.336-2.384ZM289.716 78v-4.144h5.616v-1.952h-5.616v-3.056h5.936v-2.032h-8.048V78h2.112Zm7.292-7.888v4.144c0 2.448 1.376 3.872 3.264 3.872 1.104 0 1.856-.384 2.672-1.184l.128 1.072h1.744v-7.904h-1.936v4.032c0 1.2-.816 2.208-2.016 2.208-1.248 0-1.904-.912-1.904-2.112v-4.128h-1.952Zm9.53-3.296V78h1.936V66.816h-1.936Zm3.641 0V78h1.936V66.816h-1.936ZM263.552 85.8h3.168c2.688 0 2.704 3.968 0 3.968h-3.168V85.8Zm3.168-2.016c-1.76 0-3.52.016-5.28.016V95h2.112v-3.296h3.168c5.488 0 5.472-7.92 0-7.92Zm5.045 3.328V95h1.952v-4.16c0-1.456.944-2 1.968-2 .64 0 1.008.176 1.408.512l.88-1.696c-.432-.432-1.216-.752-2.032-.752-.8 0-1.616.144-2.224 1.12l-.144-.912h-1.808Zm10.65-.16c-2.512 0-4.08 1.856-4.08 4.112 0 2.272 1.536 4.112 4.096 4.112s4.112-1.84 4.112-4.112c0-2.256-1.616-4.112-4.128-4.112Zm.016 1.776c1.312 0 2.144 1.152 2.144 2.336 0 1.2-.72 2.32-2.144 2.32-1.424 0-2.144-1.12-2.144-2.32 0-1.184.736-2.336 2.144-2.336Zm6.103-3.632v2.032h-1.472v1.68h1.472v3.408c0 1.968 1.12 2.944 2.832 2.88a4.36 4.36 0 0 0 1.616-.336l-.544-1.664a2.23 2.23 0 0 1-.944.24c-.608 0-1.024-.368-1.024-1.12v-3.408h2.192v-1.68h-2.176v-2.24l-1.952.208Zm13.414 6.656c.304-3.248-1.344-4.88-3.984-4.88-2.56 0-4.192 1.728-4.192 4.128 0 2.528 1.616 4.208 4.336 4.208 1.2 0 2.56-.416 3.392-1.28l-1.248-1.232c-.448.464-1.392.736-2.112.736-1.376 0-2.224-.704-2.352-1.68h6.16Zm-6.128-1.616c.288-1.024 1.152-1.536 2.208-1.536 1.12 0 1.92.512 2.048 1.536h-4.256Zm13.089 2.576c-.48.48-1.104.656-1.728.656-1.216 0-2.24-.8-2.24-2.304 0-1.376.96-2.336 2.272-2.336.544 0 1.12.208 1.584.624l1.232-1.296c-.864-.848-1.728-1.168-2.848-1.168-2.288 0-4.192 1.376-4.192 4.176 0 2.8 1.904 4.176 4.192 4.176 1.168 0 2.128-.352 3.04-1.248l-1.312-1.28Zm2.969-7.616v2.032h-1.473v1.68h1.473v3.408c0 1.968 1.12 2.944 2.832 2.88a4.36 4.36 0 0 0 1.616-.336l-.544-1.664c-.288.144-.641.24-.944.24-.608 0-1.024-.368-1.024-1.12v-3.408h2.192v-1.68h-2.176v-2.24l-1.952.208Zm7.542 1.984V95h-1.952v-7.92h1.952Zm-2.128-2.192c0 1.52 2.304 1.52 2.304 0s-2.304-1.52-2.304 0Zm7.779 2.064c-2.512 0-4.08 1.856-4.08 4.112 0 2.272 1.536 4.112 4.096 4.112s4.112-1.84 4.112-4.112c0-2.256-1.616-4.112-4.128-4.112Zm.016 1.776c1.312 0 2.144 1.152 2.144 2.336 0 1.2-.72 2.32-2.144 2.32-1.424 0-2.144-1.12-2.144-2.32 0-1.184.736-2.336 2.144-2.336ZM338.306 95v-4.144c0-2.48-1.488-3.872-3.344-3.872-.992 0-1.792.4-2.592 1.184l-.128-1.072h-1.744V95h1.936v-4.032c0-1.2.816-2.208 2.016-2.208 1.248 0 1.904.912 1.904 2.112V95h1.952ZM154.855 78h5.328v-1.792h-1.552V66.8h-3.84v1.92h1.744v7.488h-1.68V78Zm8.338-6.416c0-4.048 5.632-4 5.632 0V73.2c0 4.064-5.632 4.064-5.632 0v-1.616Zm-2.096 1.616c0 6.688 9.824 6.672 9.824 0v-1.616c0-6.672-9.824-6.688-9.824 0V73.2Zm13.237-1.616c0-4.048 5.632-4 5.632 0V73.2c0 4.064-5.632 4.064-5.632 0v-1.616Zm-2.096 1.616c0 6.688 9.824 6.672 9.824 0v-1.616c0-6.672-9.824-6.688-9.824 0V73.2Zm13.716-6.608c-3.472 0-3.472 5.024 0 5.024s3.472-5.024 0-5.024Zm5.552.192-7.376 11.232h2.272l7.36-11.232h-2.256Zm.528 6.304c-3.472 0-3.472 5.024 0 5.024s3.472-5.024 0-5.024Zm0 1.472c1.376 0 1.376 2.096 0 2.096s-1.376-2.096 0-2.096Zm-6.08-6.512c1.376 0 1.376 2.096 0 2.096s-1.376-2.096 0-2.096ZM143.743 95h2.304l-5.024-11.2h-2.304L133.694 95h2.289l.96-2.112h5.856l.944 2.112Zm-1.792-4.08h-4.16l2.08-4.768 2.08 4.768Zm8.216-2.176c1.232 0 2.288.928 2.288 2.304 0 1.424-1.056 2.32-2.288 2.32-1.248 0-2.24-.944-2.24-2.32 0-1.424.992-2.304 2.24-2.304Zm2.416-4.928v4.368c-.464-.816-1.76-1.264-2.592-1.264-2.304 0-4.016 1.408-4.016 4.128 0 2.592 1.744 4.128 4.064 4.128.96 0 1.936-.32 2.544-1.264l.128 1.088h1.824V83.816h-1.952Zm5.915 3.264v9.6c0 1.952-.848 3.216-2.625 3.216-.576 0-1.184-.16-1.744-.528l.704-1.52c.336.16.656.24.944.224.641-.032.785-.528.785-1.392v-9.6h1.936Zm-2.112-2.208c0 1.52 2.304 1.52 2.304 0s-2.304-1.52-2.304 0Zm3.818 2.24v4.144c0 2.448 1.376 3.872 3.264 3.872 1.104 0 1.856-.384 2.672-1.184l.128 1.072h1.744v-7.904h-1.936v4.032c0 1.2-.816 2.208-2.016 2.208-1.248 0-1.904-.912-1.904-2.112v-4.128h-1.952Zm15.77.816c-.912-.8-1.84-1.04-3.072-1.04-1.44 0-3.328.64-3.328 2.464 0 1.792 1.776 2.336 3.264 2.448 1.12.064 1.568.288 1.568.832 0 .576-.688.96-1.424.944-.88-.016-2.16-.48-2.72-1.104l-.96 1.392c1.152 1.2 2.4 1.408 3.648 1.408 2.256 0 3.392-1.2 3.392-2.592 0-2.096-1.888-2.432-3.376-2.528-1.008-.064-1.472-.352-1.472-.864 0-.496.512-.784 1.44-.784.752 0 1.392.176 1.952.704l1.088-1.28Zm2.419-2.832v2.032h-1.472v1.68h1.472v3.408c0 1.968 1.12 2.944 2.832 2.88a4.36 4.36 0 0 0 1.616-.336l-.544-1.664a2.23 2.23 0 0 1-.944.24c-.608 0-1.024-.368-1.024-1.12v-3.408h2.192v-1.68h-2.176v-2.24l-1.952.208Zm11.783 3.104c-.448-.784-1.456-1.28-2.512-1.28-2.304-.016-4.112 1.408-4.112 4.128 0 2.768 1.728 4.208 4.064 4.192.88-.016 2.112-.464 2.56-1.392l.096 1.152h1.84v-7.888h-1.872l-.064 1.088Zm-2.336.464c3.072 0 3.072 4.784 0 4.784-1.296 0-2.336-.896-2.336-2.4s1.04-2.384 2.336-2.384Zm10.137.08c1.248 0 2.24.88 2.24 2.304 0 1.376-.992 2.32-2.24 2.32-1.232 0-2.288-.896-2.288-2.32 0-1.376 1.056-2.304 2.288-2.304Zm-4.368-4.928V95h1.824l.128-1.088c.608.944 1.584 1.264 2.544 1.264 2.32 0 4.064-1.536 4.064-4.128 0-2.72-1.712-4.128-4.016-4.128-.832 0-2.128.448-2.592 1.264v-4.368h-1.952Zm10 0V95h1.936V83.816h-1.936Zm11.464 7.936c.304-3.248-1.344-4.88-3.984-4.88-2.56 0-4.192 1.728-4.192 4.128 0 2.528 1.616 4.208 4.336 4.208 1.2 0 2.56-.416 3.392-1.28l-1.248-1.232c-.448.464-1.392.736-2.112.736-1.376 0-2.224-.704-2.352-1.68h6.16Zm-6.128-1.616c.288-1.024 1.152-1.536 2.208-1.536 1.12 0 1.92.512 2.048 1.536h-4.256Z"/><g fill="#7BADD5" clip-path="url(#a)"><path d="M77.11.058H15.827a1.825 1.825 0 0 0-1.825 1.825v9.148c0 1.008.817 1.825 1.825 1.825H77.11a1.825 1.825 0 0 0 1.825-1.825V1.883A1.825 1.825 0 0 0 77.11.058Z"/><path fill-rule="evenodd" d="M71.588 24.994a10.963 10.963 0 1 0 9.128 15.22l2.518 1.074a13.7 13.7 0 1 1-3.615-15.712l-1.796 2.066a10.964 10.964 0 0 0-6.235-2.648Z" clip-rule="evenodd"/><path d="M82.964 35.9c-1.353 2.084-3.421 4.593-5.353 5.992l4.121-.517 3.513 2.235c-1.14-2.098-1.946-5.246-2.28-7.71ZM70.647 19.614a16.17 16.17 0 0 1 8.288 2.265v-2.767a1.825 1.825 0 0 0-1.825-1.825H15.827a1.825 1.825 0 0 0-1.825 1.825v9.14a1.825 1.825 0 0 0 1.825 1.824h39.598a16.3 16.3 0 0 1 15.222-10.462ZM54.36 35.9c0-.517.016-1.019.061-1.52H15.827a1.825 1.825 0 0 0-1.825 1.824v9.14a1.825 1.825 0 0 0 1.825 1.824h43.065A16.164 16.164 0 0 1 54.361 35.9Z"/></g><g fill="#EBCA71" clip-path="url(#b)"><path d="M210.571 3.541h-8.15a2.116 2.116 0 0 0-2.116 2.117v1.048c0 1.169.947 2.116 2.116 2.116h8.15a2.117 2.117 0 0 0 2.117-2.116V5.658c0-1.17-.948-2.117-2.117-2.117ZM190.073.366a5.787 5.787 0 0 0-5.186 3.175h-45.44a2.116 2.116 0 0 0-2.117 2.117v1.04a2.117 2.117 0 0 0 2.117 2.118h45.44a5.809 5.809 0 0 0 4.942 3.153 5.804 5.804 0 1 0 .244-11.603Zm20.48 21.997H182.03a2.117 2.117 0 0 0-2.117 2.117v1.047c0 1.17.948 2.117 2.117 2.117h28.523a2.117 2.117 0 0 0 2.117-2.117V24.48c0-1.17-.948-2.117-2.117-2.117Zm-41.066-3.175a5.818 5.818 0 0 0-5.186 3.175h-24.854a2.116 2.116 0 0 0-2.117 2.116v1.041a2.117 2.117 0 0 0 2.117 2.117h24.854a5.826 5.826 0 0 0 4.956 3.188 5.82 5.82 0 1 0 .23-11.637Zm41.084 21.997h-17.093a2.117 2.117 0 0 0-2.117 2.116v1.048c0 1.17.948 2.117 2.117 2.117h17.093a2.117 2.117 0 0 0 2.117-2.117v-1.048a2.117 2.117 0 0 0-2.117-2.116Zm-29.406-3.175a5.825 5.825 0 0 0-5.186 3.174h-36.532a2.117 2.117 0 0 0-2.117 2.117v1.059a2.117 2.117 0 0 0 2.117 2.116h36.532a5.816 5.816 0 0 0 4.959 3.171 5.823 5.823 0 0 0 5.305-8.661 5.829 5.829 0 0 0-5.078-2.977Z"/></g><g fill="#A490B0" clip-path="url(#c)"><path d="M329.307-.038h-61.283a1.825 1.825 0 0 0-1.825 1.825v9.149c0 1.007.817 1.824 1.825 1.824h61.283a1.825 1.825 0 0 0 1.825-1.824V1.787a1.825 1.825 0 0 0-1.825-1.825Zm-6.478 19.541c2.92 0 5.787.783 8.303 2.266V19a1.822 1.822 0 0 0-1.825-1.825h-61.283A1.824 1.824 0 0 0 266.199 19v9.154a1.822 1.822 0 0 0 1.825 1.825h39.598a16.288 16.288 0 0 1 15.207-10.477Zm-16.286 16.301c0-.517.03-1.034.076-1.535h-38.595a1.824 1.824 0 0 0-1.825 1.824v9.155a1.822 1.822 0 0 0 1.825 1.825h43.05a16.223 16.223 0 0 1-4.531-11.269Z"/><path d="m324 24.14 4.014 1.217 6.068 1.825c.502.152.699.395.699.912v10.964c-.015 1.521-.562 2.844-1.429 4.06-1.095 1.536-2.509 2.753-4.03 3.848a30.867 30.867 0 0 1-5.018 2.965.974.974 0 0 1-.913 0c-2.554-1.231-4.957-2.707-7.071-4.623-1.186-1.064-2.22-2.28-2.874-3.77a6.144 6.144 0 0 1-.532-2.51V28.125c0-.548.183-.791.715-.943l9.975-2.996.092-.045H324Zm9.261 4.395-.198-.076-9.033-2.691a.808.808 0 0 0-.426 0l-8.348 2.509-.821.243v10.554c.005.718.177 1.426.502 2.068.638 1.323 1.611 2.357 2.706 3.315 1.81 1.596 3.863 2.828 6.022 3.908a.445.445 0 0 0 .365 0 31.41 31.41 0 0 0 4.41-2.616c1.308-.958 2.54-2.007 3.528-3.315a6.053 6.053 0 0 0 1.308-3.817c-.046-3.254-.015-6.508-.015-9.777v-.305Z"/></g><defs><clipPath id="a"><path fill="#fff" d="M14 0h71.552v50H14z"/></clipPath><clipPath id="b"><path fill="#fff" d="M137 0h76v50h-76z"/></clipPath><clipPath id="c"><path fill="#fff" d="M266 0h68.966v50H266z"/></clipPath></defs></svg>