<svg width="50" height="50" viewBox="0 0 50 50" fill="none" xmlns="http://www.w3.org/2000/svg">
<path d="M31.2513 18.75H33.3346V15.625H41.668V18.75H43.7513C44.8971 18.75 45.8346 19.6875 45.8346 20.8333V43.75C45.8346 44.8958 44.8971 45.8333 43.7513 45.8333H31.2513C30.1055 45.8333 29.168 44.8958 29.168 43.75V20.8333C29.168 19.6875 30.1055 18.75 31.2513 18.75ZM33.3346 22.9167V29.1667H41.668V22.9167H33.3346ZM25.0013 11.8542L14.5846 21.2292V37.5H25.0013V41.6667H10.418V25H4.16797L25.0013 6.25L30.793 11.4583H29.168V14.9375L28.668 15.1458L25.0013 11.8542Z" fill="#655E8E"/>
</svg>
