<svg width="50" height="50" viewBox="0 0 50 50" fill="none" xmlns="http://www.w3.org/2000/svg">
<path d="M41.6654 12.5H47.9154V16.6667H45.832V39.5833H47.9154V43.75H2.08203V39.5833H4.16536V16.6667H2.08203V12.5H8.33203V8.33333C8.33203 7.7808 8.55152 7.25089 8.94223 6.86019C9.33293 6.46949 9.86283 6.25 10.4154 6.25H39.582C40.1346 6.25 40.6645 6.46949 41.0552 6.86019C41.4459 7.25089 41.6654 7.7808 41.6654 8.33333V12.5ZM41.6654 16.6667H8.33203V39.5833H14.582V25H18.7487V39.5833H22.9154V25H27.082V39.5833H31.2487V25H35.4154V39.5833H41.6654V16.6667ZM12.4987 10.4167V12.5H37.4987V10.4167H12.4987Z" fill="#655E8E"/>
</svg>
