<svg width="52" height="52" viewBox="0 0 52 52" fill="none" xmlns="http://www.w3.org/2000/svg">
<g clip-path="url(#clip0_2403_10751)">
<path d="M26 6.5C25.569 6.5 25.1557 6.3288 24.851 6.02405C24.5462 5.7193 24.375 5.30598 24.375 4.875V1.625C24.375 1.19402 24.5462 0.780698 24.851 0.475951C25.1557 0.171205 25.569 0 26 0C26.431 0 26.8443 0.171205 27.149 0.475951C27.4538 0.780698 27.625 1.19402 27.625 1.625V4.875C27.625 5.30598 27.4538 5.7193 27.149 6.02405C26.8443 6.3288 26.431 6.5 26 6.5Z" fill="#D88E8C"/>
<path d="M16.4623 8.77655C16.1615 8.77683 15.8665 8.69369 15.6102 8.53637C15.3538 8.37904 15.1461 8.1537 15.0102 7.8854L13.5423 4.98542C13.3477 4.60076 13.3138 4.15452 13.4482 3.74488C13.5825 3.33524 13.8741 2.99575 14.2588 2.8011C14.6434 2.60645 15.0897 2.57258 15.4993 2.70694C15.909 2.8413 16.2484 3.13289 16.4431 3.51756L17.9111 6.41754C18.0361 6.66525 18.0957 6.94083 18.0841 7.21805C18.0726 7.49528 17.9902 7.76494 17.845 8.00138C17.6998 8.23781 17.4965 8.43316 17.2545 8.56885C17.0125 8.70453 16.7397 8.77603 16.4623 8.77655Z" fill="#D88E8C"/>
<path d="M35.5373 8.77655C35.2599 8.77603 34.9871 8.70453 34.7451 8.56885C34.5031 8.43316 34.2998 8.23781 34.1546 8.00138C34.0094 7.76494 33.927 7.49528 33.9155 7.21805C33.9039 6.94083 33.9635 6.66525 34.0885 6.41754L35.5565 3.51756C35.7511 3.13289 36.0906 2.8413 36.5003 2.70694C36.9099 2.57258 37.3562 2.60645 37.7408 2.8011C38.1255 2.99575 38.4171 3.33524 38.5514 3.74488C38.6858 4.15452 38.6519 4.60076 38.4573 4.98542L36.9894 7.8854C36.8535 8.1537 36.6458 8.37904 36.3894 8.53637C36.1331 8.69369 35.8381 8.77683 35.5373 8.77655Z" fill="#D88E8C"/>
<path d="M26 52C25.569 52 25.1557 51.8288 24.851 51.524C24.5462 51.2193 24.375 50.806 24.375 50.375V47.125C24.375 46.694 24.5462 46.2807 24.851 45.976C25.1557 45.6712 25.569 45.5 26 45.5C26.431 45.5 26.8443 45.6712 27.149 45.976C27.4538 46.2807 27.625 46.694 27.625 47.125V50.375C27.625 50.806 27.4538 51.2193 27.149 51.524C26.8443 51.8288 26.431 52 26 52Z" fill="#D88E8C"/>
<path d="M14.9904 49.3738C14.713 49.3733 14.4403 49.3018 14.1982 49.1661C13.9562 49.0304 13.7529 48.8351 13.6077 48.5986C13.4625 48.3622 13.3802 48.0925 13.3686 47.8153C13.357 47.5381 13.4166 47.2625 13.5416 47.0148L15.0095 44.1148C15.1058 43.9243 15.2388 43.7547 15.4007 43.6156C15.5627 43.4765 15.7504 43.3707 15.9533 43.3041C16.1561 43.2376 16.3701 43.2117 16.5829 43.2278C16.7958 43.244 17.0034 43.3019 17.1939 43.3983C17.3843 43.4946 17.554 43.6276 17.6931 43.7895C17.8322 43.9515 17.938 44.1392 18.0045 44.3421C18.0711 44.5449 18.097 44.7589 18.0809 44.9717C18.0647 45.1846 18.0068 45.3922 17.9104 45.5827L16.4424 48.4826C16.3065 48.7509 16.0988 48.9763 15.8425 49.1336C15.5861 49.2909 15.2912 49.3741 14.9904 49.3738Z" fill="#D88E8C"/>
<path d="M37.0091 49.3738C36.7084 49.3741 36.4134 49.2909 36.1571 49.1336C35.9008 48.9763 35.6931 48.7509 35.5572 48.4826L34.0892 45.5827C33.8945 45.198 33.8607 44.7517 33.995 44.3421C34.1294 43.9324 34.421 43.5929 34.8057 43.3983C35.1904 43.2036 35.6367 43.1697 36.0463 43.3041C36.456 43.4385 36.7955 43.7301 36.9901 44.1148L38.458 47.0148C38.583 47.2625 38.6426 47.5381 38.631 47.8153C38.6194 48.0925 38.5371 48.3622 38.3919 48.5986C38.2467 48.8351 38.0434 49.0304 37.8014 49.1661C37.5593 49.3018 37.2866 49.3733 37.0091 49.3738Z" fill="#D88E8C"/>
<path d="M1.625 9.75C1.19402 9.75 0.780698 9.57879 0.475951 9.27405C0.171205 8.9693 0 8.55598 0 8.125V1.625C0 1.19402 0.171205 0.780698 0.475951 0.475951C0.780698 0.171205 1.19402 0 1.625 0L8.125 0C8.55598 0 8.9693 0.171205 9.27405 0.475951C9.57879 0.780698 9.75 1.19402 9.75 1.625C9.75 2.05598 9.57879 2.4693 9.27405 2.77405C8.9693 3.0788 8.55598 3.25 8.125 3.25H3.25V8.125C3.25 8.55598 3.0788 8.9693 2.77405 9.27405C2.4693 9.57879 2.05598 9.75 1.625 9.75Z" fill="#D88E8C"/>
<path d="M50.375 9.75C49.944 9.75 49.5307 9.57879 49.226 9.27405C48.9212 8.9693 48.75 8.55598 48.75 8.125V3.25H43.875C43.444 3.25 43.0307 3.0788 42.726 2.77405C42.4212 2.4693 42.25 2.05598 42.25 1.625C42.25 1.19402 42.4212 0.780698 42.726 0.475951C43.0307 0.171205 43.444 0 43.875 0L50.375 0C50.806 0 51.2193 0.171205 51.524 0.475951C51.8288 0.780698 52 1.19402 52 1.625V8.125C52 8.55598 51.8288 8.9693 51.524 9.27405C51.2193 9.57879 50.806 9.75 50.375 9.75Z" fill="#D88E8C"/>
<path d="M8.125 52H1.625C1.19402 52 0.780698 51.8288 0.475951 51.524C0.171205 51.2193 0 50.806 0 50.375V43.875C0 43.444 0.171205 43.0307 0.475951 42.726C0.780698 42.4212 1.19402 42.25 1.625 42.25C2.05598 42.25 2.4693 42.4212 2.77405 42.726C3.0788 43.0307 3.25 43.444 3.25 43.875V48.75H8.125C8.55598 48.75 8.9693 48.9212 9.27405 49.226C9.57879 49.5307 9.75 49.944 9.75 50.375C9.75 50.806 9.57879 51.2193 9.27405 51.524C8.9693 51.8288 8.55598 52 8.125 52Z" fill="#D88E8C"/>
<path d="M50.375 52H43.875C43.444 52 43.0307 51.8288 42.726 51.524C42.4212 51.2193 42.25 50.806 42.25 50.375C42.25 49.944 42.4212 49.5307 42.726 49.226C43.0307 48.9212 43.444 48.75 43.875 48.75H48.75V43.875C48.75 43.444 48.9212 43.0307 49.226 42.726C49.5307 42.4212 49.944 42.25 50.375 42.25C50.806 42.25 51.2193 42.4212 51.524 42.726C51.8288 43.0307 52 43.444 52 43.875V50.375C52 50.806 51.8288 51.2193 51.524 51.524C51.2193 51.8288 50.806 52 50.375 52Z" fill="#D88E8C"/>
<path d="M26.0016 15.6001C23.9446 15.6001 21.9339 16.21 20.2236 17.3528C18.5134 18.4956 17.1804 20.1198 16.3932 22.0202C15.6061 23.9205 15.4001 26.0116 15.8014 28.029C16.2027 30.0464 17.1932 31.8995 18.6477 33.354C20.1021 34.8085 21.9552 35.799 23.9726 36.2003C25.99 36.6015 28.0811 36.3956 29.9815 35.6084C31.8818 34.8213 33.5061 33.4883 34.6489 31.778C35.7916 30.0678 36.4016 28.057 36.4016 26.0001C36.3984 23.2428 35.3017 20.5994 33.352 18.6497C31.4023 16.7 28.7589 15.6032 26.0016 15.6001ZM26.0016 33.8001C23.9329 33.8001 21.9489 32.9783 20.4861 31.5155C19.0234 30.0527 18.2016 28.0688 18.2016 26.0001C18.2016 23.9314 19.0234 21.9474 20.4861 20.4847C21.9489 19.0219 23.9329 18.2001 26.0016 18.2001C26.1915 18.1972 26.3814 18.2055 26.5703 18.2248C26.7856 18.2491 26.9913 18.3269 27.1689 18.4509C27.3464 18.575 27.4902 18.7415 27.587 18.9352C27.6839 19.1289 27.7308 19.3438 27.7235 19.5603C27.7163 19.7768 27.655 19.988 27.5453 20.1748C27.3808 20.4642 27.2966 20.7923 27.3016 21.1251C27.3005 21.5315 27.4268 21.928 27.6626 22.2589C27.8985 22.5898 28.2321 22.8386 28.6166 22.9702C29.0011 23.1018 29.4171 23.1096 29.8063 22.9926C30.1955 22.8756 30.5382 22.6396 30.7864 22.3178C30.9204 22.1427 31.0967 22.0045 31.2988 21.9163C31.5009 21.8281 31.7221 21.7928 31.9416 21.8136C32.1611 21.8344 32.3717 21.9107 32.5536 22.0353C32.7355 22.16 32.8828 22.3288 32.9814 22.526C33.5235 23.6037 33.8044 24.7938 33.8016 26.0001C33.7993 28.0681 32.9768 30.0508 31.5145 31.5131C30.0522 32.9754 28.0696 33.7979 26.0016 33.8001Z" fill="#D88E8C"/>
<path d="M29.2507 25.6751C28.0444 25.6736 26.8879 25.1938 26.0349 24.3408C25.1819 23.4879 24.7021 22.3314 24.7007 21.1251C24.7007 21.0711 24.702 21.0172 24.7031 20.9639C23.7305 21.2145 22.8513 21.7415 22.1718 22.481C21.4922 23.2206 21.0414 24.1412 20.8737 25.1315C20.7061 26.1218 20.8288 27.1394 21.2271 28.0615C21.6254 28.9835 22.2822 29.7704 23.1182 30.3272C23.9541 30.884 24.9334 31.1868 25.9377 31.199C26.942 31.2112 27.9283 30.9322 28.7775 30.3959C29.6267 29.8596 30.3024 29.0888 30.723 28.1767C31.1435 27.2646 31.291 26.2502 31.1474 25.2561C30.5529 25.5312 29.9058 25.6741 29.2507 25.6751Z" fill="#D88E8C"/>
<path d="M51.6783 25.0281C51.2116 24.4044 40.1144 9.75 26.0004 9.75C11.8865 9.75 0.789189 24.4044 0.322489 25.0281C0.113109 25.3089 0 25.6497 0 26C0 26.3503 0.113109 26.6911 0.322489 26.9719C0.789189 27.5956 11.8865 42.25 26.0004 42.25C40.1144 42.25 51.2116 27.5956 51.6783 26.9719C51.8877 26.6911 52.0008 26.3503 52.0008 26C52.0008 25.6497 51.8877 25.3089 51.6783 25.0281ZM26.0004 39C23.4293 39 20.9158 38.2376 18.778 36.8091C16.6402 35.3806 14.9739 33.3503 13.99 30.9749C13.006 28.5994 12.7486 25.9856 13.2502 23.4638C13.7518 20.9421 14.9899 18.6257 16.808 16.8076C18.6261 14.9895 20.9425 13.7514 23.4642 13.2498C25.986 12.7482 28.5999 13.0056 30.9753 13.9896C33.3507 14.9735 35.3811 16.6397 36.8095 18.7776C38.238 20.9154 39.0004 23.4288 39.0004 26C38.9965 29.4466 37.6255 32.7509 35.1884 35.188C32.7513 37.6251 29.447 38.996 26.0004 39Z" fill="#D88E8C"/>
</g>
<defs>
<clipPath id="clip0_2403_10751">
<rect width="52" height="52" fill="white"/>
</clipPath>
</defs>
</svg>
