<svg width="52" height="52" viewBox="0 0 52 52" fill="none" xmlns="http://www.w3.org/2000/svg">
<path d="M45.5626 37.0671L45.501 16.8369C45.5003 16.7061 45.4372 16.5838 45.3176 16.5154L39.3044 13.0153L39.2998 8.86536C39.2864 2.94228 34.4958 0.045473 29.2154 3.07376C24.8257 5.59904 21.3936 11.5209 21.4009 16.5551V20.2837C19.2483 21.7421 17.2446 23.2954 15.4324 24.932C15.3961 24.997 15.3078 25.0766 15.3086 25.21C15.3267 31.164 15.3429 36.4519 15.3703 45.4402C15.371 45.5722 15.4414 45.6941 15.5553 45.7601L23.0063 50.0899C23.1022 50.1464 23.2188 50.1552 23.3212 50.1175C27.7892 48.466 31.9141 46.5556 35.5798 44.4391C39.2505 42.3197 42.568 39.9326 45.44 37.3442C45.5184 37.2735 45.5626 37.1726 45.5626 37.0671ZM40.0953 17.0503C40.1027 17.4291 39.8278 17.808 39.3153 18.1126C39.3153 18.1126 39.3153 18.1126 39.3079 18.1126C39.3076 18.1127 39.3073 18.1128 39.3071 18.1129V16.0101C39.8119 16.305 40.0953 16.67 40.0953 17.0503ZM21.4009 25.7767C20.9647 25.4944 20.7134 25.1577 20.7067 24.8057C20.7067 24.4529 20.9542 24.109 21.4009 23.8231V25.7767ZM25.9371 23.7592C26.4172 24.0487 26.6867 24.4009 26.6867 24.7686C26.6939 25.1388 26.4209 25.5011 25.9371 25.8017V23.7592ZM34.7702 13.2531C31.6139 14.5312 28.6516 15.9472 25.9371 17.4781V16.5478C25.9306 13.1067 28.466 8.73551 31.4723 7.00278C33.649 5.75058 34.7702 6.42002 34.7702 8.87262V13.2531ZM34.7702 18.0296C34.3579 17.7571 34.1227 17.4278 34.1227 17.0949C34.116 16.7534 34.355 16.4151 34.7702 16.1334V18.0296ZM29.5854 3.71796C34.311 1.00828 38.5434 3.45239 38.557 8.86645L38.5642 18.4142C37.5757 18.7277 36.5304 18.7333 35.513 18.3752V8.87262C35.513 5.77926 33.7321 4.85049 31.1016 6.35895C27.8929 8.20811 25.1877 12.8749 25.1943 16.5486V26.1185C24.1254 26.4633 23.1056 26.4242 22.1438 26.1008V16.5544C22.1365 11.7613 25.4054 6.12245 29.5854 3.71796ZM21.4009 22.9745C21.3052 23.0217 21.2063 23.0656 21.1153 23.1194C20.3724 23.5577 19.9638 24.1594 19.9638 24.8131C19.9713 25.4743 20.3947 26.076 21.1673 26.5143C22.5156 27.2557 24.6532 27.3765 26.2856 26.4623C27.0284 26.024 27.437 25.4148 27.4295 24.7612C27.4221 24.1 26.9987 23.4983 26.241 23.0674C26.1437 23.0125 26.0413 22.9619 25.9371 22.9159V18.3245C28.6412 16.7808 31.6073 15.3486 34.7702 14.05V15.278C34.6873 15.3183 34.6008 15.3549 34.5239 15.4011C33.781 15.8394 33.3724 16.4412 33.3798 17.0949C33.3873 17.756 33.8107 18.3651 34.5759 18.796C36.0835 19.6334 38.4042 19.5425 39.7016 18.744C40.4444 18.3057 40.853 17.6966 40.8381 17.0429C40.8307 16.3817 40.4073 15.78 39.6495 15.3491C39.5493 15.2899 39.4316 15.2344 39.3068 15.1808L39.3054 13.8845L44.4891 16.8952C38.2862 22.3731 30.8316 26.28 23.1646 29.1286C13.7584 23.663 17.0196 25.558 16.3106 25.146C17.8821 23.7554 19.5822 22.4329 21.4009 21.1786V22.9745ZM16.1124 45.2251L16.0536 25.8557L22.7603 29.7527L22.7765 35.0763L22.8191 49.1222L16.1124 45.2251ZM35.2083 43.7956C31.7153 45.8124 27.7993 47.6412 23.5627 49.2346L23.5192 35.0134L23.5033 29.7966C31.2436 26.9145 38.6088 23.0245 44.7603 17.6614L44.819 36.9031C42.0145 39.4139 38.7819 41.7324 35.2083 43.7956Z" fill="#7BADD5"/>
<path d="M25.3955 40.9304H25.3969C25.6015 40.9297 25.7676 40.7629 25.7669 40.5579L25.7546 36.6064C25.7539 36.4015 25.5877 36.2361 25.3831 36.2361C25.1916 36.2604 25.011 36.4033 25.0117 36.6086L25.0241 40.5601C25.0248 40.765 25.1909 40.9304 25.3955 40.9304Z" fill="#7BADD5"/>
<path d="M29.6789 44.1991C28.4268 44.8056 27.1174 45.3953 25.7804 45.9561L25.7702 42.7395C25.7695 42.5345 25.6034 42.3691 25.3988 42.3691C25.398 42.3691 25.398 42.3691 25.3973 42.3691C25.1927 42.3699 25.0266 42.5367 25.0273 42.7417L25.039 46.5129C25.0405 46.7793 25.3106 46.9549 25.5518 46.8553C27.0804 46.2263 28.5777 45.5575 30.0025 44.8679C30.1874 44.7783 30.2643 44.5564 30.1751 44.3717C30.0859 44.1875 29.8639 44.1113 29.6789 44.1991Z" fill="#7BADD5"/>
<path d="M40.0763 34.8056C40.0786 34.3552 40.0384 33.9044 39.9219 33.4705L38.7728 29.1911C38.1621 26.9161 36.1831 26.073 34.5209 27.0336C33.1731 27.8118 32.4139 29.5433 32.3627 31.1033L32.1524 37.8562C31.8617 40.4126 34.3088 42.3226 37.5453 40.9168C41.2835 39.2936 40.0909 34.8546 40.0786 34.81C40.0781 34.8083 40.0768 34.8072 40.0763 34.8056ZM34.8924 27.6771C36.2413 26.8961 37.6104 27.7303 38.056 29.3837L39.2044 33.6631C39.6854 35.4535 38.9483 37.5609 37.562 38.3614C36.1795 39.1589 34.831 38.2637 34.3998 36.6584L33.2514 32.3794C32.7697 30.5865 33.506 28.4772 34.8924 27.6771ZM37.2493 40.2356C34.6306 41.3712 32.6536 40.0289 32.893 37.9098L33.0052 34.3282L33.6823 36.851C34.2468 38.9535 36.1371 40.0413 37.9334 39.0049C38.5806 38.6314 39.1057 38.0222 39.4785 37.2982C39.3128 38.3823 38.7605 39.5793 37.2493 40.2356Z" fill="#7BADD5"/>
<path d="M7.94565 15.9133C8.15078 15.9133 8.31708 15.747 8.31708 15.5418C8.31708 15.3367 8.15078 15.1704 7.94565 15.1704C7.74051 15.1704 7.57422 15.3367 7.57422 15.5418C7.57422 15.747 7.74051 15.9133 7.94565 15.9133Z" fill="#7BADD5"/>
<path d="M7.94527 14.4279C8.14586 14.4279 8.30926 14.2571 8.30926 14.0565C8.30926 13.8485 8.14586 13.6851 7.93783 13.6851C7.73729 13.6851 7.56641 13.8559 7.56641 14.0565C7.56641 14.2541 7.72393 14.4279 7.94527 14.4279Z" fill="#7BADD5"/>
<path d="M14.5781 27.725C14.697 27.6581 14.7638 27.5318 14.7638 27.4056C14.7638 27.1398 14.48 26.942 14.2067 27.0787C14.0284 27.1827 13.969 27.4056 14.0655 27.5839C14.164 27.7511 14.3552 27.8364 14.5781 27.725Z" fill="#7BADD5"/>
<path d="M13.2865 28.4679C13.4054 28.4011 13.4797 28.2673 13.4797 28.1411C13.4797 27.8508 13.1563 27.6754 12.9225 27.8216C12.7368 27.9256 12.6774 28.1485 12.7814 28.3268C12.8764 28.4956 13.0909 28.5656 13.2865 28.4679Z" fill="#7BADD5"/>
<path d="M7.9769 26.3134C8.18203 26.3134 8.34833 26.1471 8.34833 25.942C8.34833 25.7369 8.18203 25.5706 7.9769 25.5706C7.77176 25.5706 7.60547 25.7369 7.60547 25.942C7.60547 26.1471 7.77176 26.3134 7.9769 26.3134Z" fill="#7BADD5"/>
<path d="M7.97652 24.8278C8.17706 24.8278 8.34051 24.657 8.34051 24.4564C8.34051 24.2484 8.17706 24.085 7.96908 24.085C7.7685 24.085 7.59766 24.2484 7.59766 24.4564C7.59766 24.6644 7.7685 24.8278 7.97652 24.8278Z" fill="#7BADD5"/>
<path d="M7.96871 21.8566C8.16925 21.8566 8.3327 21.6858 8.3327 21.4852C8.3327 21.2772 8.16925 21.1138 7.96127 21.1138C7.75325 21.1138 7.58984 21.2772 7.58984 21.4852C7.58984 21.6932 7.76069 21.8566 7.96871 21.8566Z" fill="#7BADD5"/>
<path d="M7.95346 18.8849C8.15859 18.8849 8.32489 18.7187 8.32489 18.5135C8.32489 18.3084 8.15859 18.1421 7.95346 18.1421C7.74833 18.1421 7.58203 18.3084 7.58203 18.5135C7.58203 18.7187 7.74833 18.8849 7.95346 18.8849Z" fill="#7BADD5"/>
<path d="M8.29313 27.7547C8.47536 27.7027 8.60531 27.5106 8.53085 27.2867C8.48623 27.1307 8.33026 27.0342 8.17425 27.0342C7.91567 27.0342 7.75485 27.2873 7.82512 27.5244C7.89268 27.7271 8.12157 27.8234 8.29313 27.7547Z" fill="#7BADD5"/>
<path d="M7.94626 16.6567C7.74567 16.6567 7.57483 16.8276 7.58227 17.0282C7.58227 17.2362 7.74567 17.3996 7.95369 17.3996C8.15428 17.3996 8.32512 17.2288 8.32512 17.0282C8.32512 16.8202 8.15428 16.6567 7.94626 16.6567Z" fill="#7BADD5"/>
<path d="M11.9341 29.1886C12.0753 29.1291 12.1644 28.988 12.1644 28.8469C12.1644 28.6546 12.0092 28.468 11.793 28.468C11.5398 28.468 11.3456 28.7405 11.4513 28.9806C11.53 29.1775 11.738 29.254 11.9341 29.1886Z" fill="#7BADD5"/>
<path d="M7.96908 23.342C8.17422 23.342 8.34051 23.1757 8.34051 22.9705C8.34051 22.7654 8.17422 22.5991 7.96908 22.5991C7.76395 22.5991 7.59766 22.7654 7.59766 22.9705C7.59766 23.1757 7.76395 23.342 7.96908 23.342Z" fill="#7BADD5"/>
<path d="M8.74156 28.9212C8.81583 28.9806 8.89758 29.0029 8.97928 29.0029C9.19308 29.0029 9.35071 28.8372 9.35071 28.6389C9.35071 28.414 9.16781 28.26 8.97928 28.26C8.63598 28.26 8.4775 28.6949 8.74156 28.9212Z" fill="#7BADD5"/>
<path d="M7.93783 12.9418C8.14297 12.9418 8.30926 12.7755 8.30926 12.5704C8.30926 12.3653 8.14297 12.199 7.93783 12.199C7.7327 12.199 7.56641 12.3653 7.56641 12.5704C7.56641 12.7755 7.7327 12.9418 7.93783 12.9418Z" fill="#7BADD5"/>
<path d="M9.98072 29.1217C9.97364 29.3129 10.1154 29.5006 10.3522 29.5006C10.5453 29.5006 10.7161 29.3446 10.7236 29.144C10.7236 28.6363 9.98072 28.6488 9.98072 29.1217Z" fill="#7BADD5"/>
<path d="M7.93002 11.4567H7.93746C8.13804 11.4567 8.30145 11.2859 8.30145 11.0853C8.30145 10.8773 8.13804 10.7139 7.93002 10.7139C7.72205 10.7139 7.55859 10.8847 7.55859 11.0853C7.55859 11.2933 7.72948 11.4567 7.93002 11.4567Z" fill="#7BADD5"/>
<path d="M7.96127 20.3705C8.16641 20.3705 8.3327 20.2042 8.3327 19.9991C8.3327 19.794 8.16641 19.6277 7.96127 19.6277C7.75614 19.6277 7.58984 19.794 7.58984 19.9991C7.58984 20.2042 7.75614 20.3705 7.96127 20.3705Z" fill="#7BADD5"/>
<path d="M8.46549 5.03094C7.3215 5.68466 6.4375 7.21494 6.4375 8.52238C6.4375 9.99472 7.58809 10.5223 8.75521 9.83725C9.89176 9.18353 10.7832 7.65325 10.7758 6.34581C10.7758 4.94851 9.69437 4.30901 8.46549 5.03094ZM8.47292 9.35437C7.54715 9.86904 6.99464 9.43608 6.99464 8.52238C6.99464 7.41738 7.77068 6.06575 8.74034 5.51382C9.59886 5.02317 10.2186 5.35943 10.2186 6.34581C10.2261 7.45266 9.43863 8.80467 8.47292 9.35437Z" fill="#7BADD5"/>
</svg>
