<svg width="50" height="50" viewBox="0 0 50 50" fill="none" xmlns="http://www.w3.org/2000/svg">
<path fill-rule="evenodd" clip-rule="evenodd" d="M28.2357 5.46784C28.2357 4.99424 28.4239 4.54004 28.7587 4.20515C29.0936 3.87027 29.5478 3.68213 30.0214 3.68213H35.825C36.2986 3.68213 36.7528 3.87027 37.0877 4.20515C37.4226 4.54004 37.6107 4.99424 37.6107 5.46784V10.4928H42.6321C43.1057 10.4928 43.5599 10.681 43.8948 11.0159C44.2297 11.3508 44.4179 11.805 44.4179 12.2786V18.0821C44.4179 18.5557 44.2297 19.0099 43.8948 19.3448C43.5599 19.6797 43.1057 19.8678 42.6321 19.8678H37.6107V24.8893C37.6107 25.3629 37.4226 25.8171 37.0877 26.152C36.7528 26.4868 36.2986 26.675 35.825 26.675H30.0214C29.5478 26.675 29.0936 26.4868 28.7587 26.152C28.4239 25.8171 28.2357 25.3629 28.2357 24.8893V19.8678H23.2143C22.7407 19.8678 22.2865 19.6797 21.9516 19.3448C21.6167 19.0099 21.4286 18.5557 21.4286 18.0821V12.2786C21.4286 11.805 21.6167 11.3508 21.9516 11.0159C22.2865 10.681 22.7407 10.4928 23.2143 10.4928H28.2357V5.46784ZM6.58214 25H0V39.2857L6.52857 45.8143C7.85524 47.1413 9.43036 48.194 11.164 48.9122C12.8976 49.6304 14.7557 50.0001 16.6321 50H37.5C38.9208 50 40.2834 49.4356 41.2881 48.4309C42.2927 47.4263 42.8571 46.0636 42.8571 44.6428C42.8571 43.222 42.2927 41.8594 41.2881 40.8548C40.2834 39.8501 38.9208 39.2857 37.5 39.2857H27.5821C27.2108 40.5377 26.5206 41.6717 25.579 42.5766C24.6374 43.4815 23.4768 44.1261 22.211 44.4474C20.9452 44.7686 19.6177 44.7553 18.3586 44.4089C17.0994 44.0625 15.9519 43.3949 15.0286 42.4714L9.85 37.2928C9.6427 37.0855 9.47826 36.8394 9.36607 36.5686C9.25388 36.2977 9.19613 36.0074 9.19613 35.7143C9.19613 35.4211 9.25388 35.1308 9.36607 34.86C9.47826 34.5891 9.6427 34.343 9.85 34.1357C10.0573 33.9284 10.3034 33.764 10.5743 33.6518C10.8451 33.5396 11.1354 33.4818 11.4286 33.4818C11.7217 33.4818 12.012 33.5396 12.2829 33.6518C12.5537 33.764 12.7998 33.9284 13.0071 34.1357L18.1857 39.3143C18.7312 39.8586 19.4613 40.1779 20.2313 40.209C21.0013 40.2401 21.7548 39.9806 22.3423 39.482C22.9299 38.9835 23.3086 38.2823 23.4033 37.5175C23.498 36.7528 23.3018 35.9804 22.8536 35.3536L16.6857 29.1857C15.359 27.8586 13.7839 26.8059 12.0503 26.0877C10.3167 25.3695 8.45862 24.9999 6.58214 25Z" fill="#655E8E"/>
</svg>
