<svg width="237" height="272" viewBox="0 0 237 272" fill="none" xmlns="http://www.w3.org/2000/svg">
<g filter="url(#filter0_d_2499_1908)">
<path d="M228.99 73.2776C226.824 67.5911 222.376 62.5143 216.962 58.8537C201.332 48.9294 177.512 48.2226 161.408 57.1947C152.624 61.6727 146.851 70.5342 145.055 79.6601C141.796 94.6532 142.638 112.492 154.189 123.73C167.658 135.538 187.261 138.146 204.693 133.296C205.521 133.137 208.146 132.476 209.956 131.515L210.466 131.297C215.88 129.047 221.043 125.384 224.898 120.423C233.795 107.415 234.404 87.9255 228.99 73.2777M200.609 106.946C199.994 109.789 198.081 112.735 195.065 113.803C190.264 115.915 183.768 115.33 179.32 112.859C175.589 110.25 175.109 105.883 174.628 101.75C174.264 93.6037 173.676 84.9769 175.958 77.5289C177.747 72.9161 182.681 71.7291 187.143 71.3812C191.828 71.3812 196.39 72.096 199.284 75.8754C201.086 78.5864 200.976 82.1337 201.332 85.3276C201.205 92.058 201.809 100.086 200.609 106.946ZM58.1034 114.283C54.1325 114.041 49.6843 114.389 45.8402 113.916L45.9589 72.4332L46.2016 72.0879L58.1034 71.972C58.2275 65.2388 58.3462 58.0174 57.9793 51.8805L12.6518 51.7537L5.18753 51.8832C5.06883 58.1415 5.06883 65.46 5.18753 71.8479C9.27977 71.9747 13.1211 71.8479 17.092 72.2175V112.392L16.976 114.043L5.06892 114.286C4.82078 120.783 4.82078 127.287 5.06892 133.784H58.1009L58.1036 114.283H58.1034ZM191.58 142.637C186.536 149.853 180.161 156.824 173.201 162.246C172.948 162.616 172.228 162.475 171.998 162.135C168.982 160.25 165.737 158.707 162.845 156.824C166.698 152.219 170.428 147.612 173.315 142.511H169.573C166.584 146.9 163.45 151.504 159.484 155.391C154.189 153.269 149.382 151.38 143.97 149.951L143.369 149.5C144.21 147.113 145.77 144.871 146.247 142.505H143.002L139.757 148.89C132.67 147.355 124.85 146.519 117.634 146.053C117.27 144.992 117.747 143.455 117.27 142.505H114.143C113.895 143.927 114.505 144.998 113.782 146.177C106.325 146.519 99.1121 147.355 92.1442 148.788L88.8855 142.505C87.6958 142.505 86.3579 142.279 85.527 142.632L88.5267 149.605L88.1679 149.951C82.7783 151.51 77.4793 153.367 72.2953 155.513L71.8178 155.27C68.4432 151.607 65.1952 147.606 62.5462 143.587C61.95 141.566 59.5438 142.748 58.2193 142.511C61.0949 147.717 64.9552 152.319 68.7966 157.053C65.5514 158.95 62.317 161.064 58.9341 162.616C51.5783 157.013 45.1661 150.271 39.9405 142.643C38.4945 142.411 37.5423 142.516 36.0883 142.643C44.7475 156.114 58.2193 167.927 72.2899 174.9C72.2899 174.9 72.2899 174.795 72.4193 174.795C72.5219 174.795 72.762 175.014 72.5219 175.138C82.0282 179.748 92.136 183.055 102.829 184.479C139.751 189.319 174.99 173.611 195.421 142.643C194.144 142.511 192.857 142.51 191.58 142.637M141.445 153.271L141.799 153.034C146.984 154.215 151.904 155.872 156.476 158.111C152.624 162.473 147.693 166.263 143.129 169.451C140.366 171.099 137.591 172.891 134.702 174.299L129.541 172.054L129.894 171.237C134.232 165.451 138.082 159.535 141.445 153.271ZM117.747 149.724C124.607 149.853 131.464 150.56 137.828 152.09L137.955 152.448C134.594 158.823 130.375 164.981 125.813 170.76C123.757 171.002 121.842 170.185 119.8 170.058L117.744 169.815C117.51 162.842 117.383 156.697 117.747 149.724ZM94.5478 151.85C100.801 150.668 107.291 149.724 114.022 149.724L114.146 169.716C111.615 170.288 108.85 170.288 106.444 170.894C101.513 165.089 97.4288 158.823 93.9462 152.319L94.5478 151.85ZM75.1765 158.238C79.8783 155.985 84.8015 154.321 89.846 153.031L90.3343 153.155C93.8115 159.656 98.1465 165.796 102.473 171.941C100.804 172.893 98.748 173.463 97.0702 174.423C88.9379 170.406 81.538 165.051 75.1793 158.583V158.238H75.1765ZM90.6957 178.442C80.5933 175.834 71.2057 171.345 62.5491 165.211V164.844C65.4356 163.088 68.3328 161.191 71.4484 159.878C78.3084 166.632 85.3976 171.715 93.0939 176.549C92.495 177.258 91.5347 177.97 90.6957 178.442ZM135.306 179.969C122.562 182.704 108.365 182.81 95.6242 179.743C95.3814 179.154 96.2257 179.028 96.5845 178.682C107.769 171.466 125.198 171.466 136.153 179.257C136.509 179.969 135.548 179.743 135.306 179.969ZM146.854 176.673L141.203 178.44C140.237 177.967 139.401 177.258 138.551 176.546L138.794 176.184C146.493 171.712 153.463 166.26 160.08 159.762C163.328 161.059 166.457 162.842 169.352 164.841C162.611 170.185 154.79 173.713 146.854 176.673ZM39.7059 42.7762C42.6804 38.6599 45.9341 34.7526 49.4441 31.0823C52.5599 28.1285 55.4571 25.2933 58.829 23.1568C61.9582 25.1638 65.4408 26.8363 68.4459 28.7192C64.7205 33.3051 60.8711 37.9341 58.106 42.8841C58.9423 43.2537 60.5123 43.1378 61.7181 42.8841C64.7205 38.5195 67.9576 34.1494 71.8206 30.2461C76.9784 32.1425 82.0364 34.144 87.3344 35.5683L87.8011 36.0377L84.8067 42.8841C86.134 43.1378 86.9756 43.0136 88.2894 42.8841C89.3684 40.888 90.2046 38.6489 91.4078 36.6285C98.3918 38.1715 105.729 38.9942 113.185 39.2235C114.14 40.0624 113.423 41.8267 113.784 42.8841H117.03C117.383 41.7242 116.908 40.4078 117.383 39.3557C124.364 38.9888 131.696 38.2794 138.454 36.6231L139.039 36.7472L142.287 42.8788C143.372 42.8788 144.812 43.1324 145.654 42.636L142.641 35.8004L142.891 35.563C148.413 34.144 153.593 32.0184 158.883 29.8954C162.622 33.7934 166.099 38.4009 169.236 42.8761C170.553 42.8761 171.877 43.0056 172.84 42.6334C171.355 39.9952 169.622 37.504 167.666 35.1935C166.078 32.9304 164.306 30.802 162.368 28.8299V28.2176L170.787 23.3808L172.001 22.9088C179.323 28.4506 185.73 35.1064 190.99 42.6334C192.433 42.6334 193.639 43.1297 194.844 42.5336C178.713 18.4468 152.141 2.94932 123.415 0.718379L123.288 0.947681L123.042 0.718379C119.8 0.370376 115.816 0.232831 112.333 0.580834C111.014 0.478336 109.455 0.580835 107.887 0.718379C79.0313 2.94922 52.4574 17.7292 35.8537 42.8894C37.0568 42.7761 38.5 43.2563 39.7059 42.7761M89.6193 32.3932L89.1391 32.4957C84.2025 31.209 79.3873 29.6579 74.8176 27.6563L75.0497 26.9468C81.6641 20.6857 88.6374 15.4822 96.3336 11.4735C98.1464 12.183 99.9484 12.7683 101.75 13.6073L101.397 14.5299C96.8192 20.2164 93.2206 26.3479 89.6193 32.3932ZM113.542 35.5737C110.183 36.0458 107.175 35.4685 103.795 35.2069C100.563 34.7321 96.4658 34.3895 93.2206 33.3105C96.7086 26.8417 100.804 20.5671 105.729 14.7916L113.428 15.841C113.784 21.9753 113.542 29.0699 113.542 35.5737ZM117.267 35.7004C117.03 29.4178 117.154 22.4554 117.267 15.9542C119.681 15.609 122.314 15.2421 124.726 14.8941C129.414 20.7937 133.995 26.8417 137.124 33.3105C130.622 34.8836 123.957 35.6859 117.267 35.7005M155.64 27.4162C150.941 29.4151 146.126 31.3088 140.963 32.3932C137.237 26.1295 133.15 19.8684 128.567 13.8178C130.253 12.8925 132.309 12.1831 134.108 11.2416C141.939 15.1369 149.506 20.6857 155.872 27.0467L155.64 27.4162ZM140.237 7.21147C150.339 9.81735 159.84 14.3007 168.499 20.4457L168.259 20.9178L159.97 25.5198H159.357C152.994 19.1617 145.54 13.6073 137.955 9.22385C138.195 8.39567 139.403 7.79952 140.237 7.21147ZM135.433 6.02454V6.27542C124.963 13.8178 108.011 14.53 96.9541 7.55674C96.3336 7.08467 95.1467 6.85536 95.0173 6.02718C107.771 3.08686 122.794 2.84955 135.433 6.02454ZM62.0716 20.6857C69.6545 15.1368 78.0683 11.0015 86.9703 8.16363C87.3345 7.79405 87.5665 7.44605 88.0413 7.44605V7.68883C89.0017 7.92086 89.7273 6.8499 90.5663 7.55128C91.292 8.16363 92.1416 8.63034 92.7352 9.21838C85.2844 13.8177 77.9443 19.2641 71.2084 25.8677C67.9605 24.7078 64.9661 22.9247 62.0689 20.9177L62.0717 20.6857L62.0716 20.6857ZM113.666 115.206C102.363 118.284 90.0887 115.937 81.9151 107.415C80.9575 106.234 80.3505 104.826 79.3848 103.649L63.1561 103.763C62.8998 113.331 62.7865 124.324 63.1561 133.781L81.1868 133.665L81.4268 127.99C83.4797 128.934 85.5272 130.113 87.5665 131.173C100.073 136.379 116.172 137.561 128.562 131.173C137.588 126.223 142.4 116.655 141.073 106.352C139.757 96.3202 130.132 87.2159 120.399 84.7422L91.2891 76.3447L89.1364 75.2765C88.1734 74.4564 87.5691 73.399 87.8038 72.0879C90.0887 68.1981 95.3868 69.3796 99.3549 69.4848C107.771 70.669 116.428 73.5042 121.362 81.1896C126.646 81.1896 132.778 81.2921 138.546 81.0655C138.791 71.3786 138.451 62.8758 138.308 53.0647C132.897 52.9407 126.28 52.9406 120.876 53.1888C120.634 54.5942 121.108 56.5958 120.507 58.0202L114.979 55.0636C101.745 49.512 83.2234 48.932 71.2029 57.5589C63.3826 63.2211 60.9845 73.3937 63.0292 82.3711C64.5857 90.8657 72.7621 97.1349 80.5824 100.081C91.2838 103.857 102.463 106.593 113.304 110.25C114.378 110.731 115.818 111.802 115.586 113.099C115.592 114.148 114.502 114.755 113.666 115.206Z" fill="white"/>
</g>
<g filter="url(#filter1_d_2499_1908)">
<path d="M49.4713 230.246H42.5707C42.6234 222.45 49.9981 219.078 56.7933 219.078C64.1679 219.078 72.1747 222.081 72.1747 230.825C72.1747 240.202 65.1161 241.993 57.3727 241.993C54.3175 241.993 49.3659 242.783 49.3659 246.786V249.947H72.28V256.426H42.4127C42.4127 253.213 42.4127 249.999 42.4127 246.733C42.4127 238.253 50.1034 235.724 57.3727 235.724C60.1645 235.724 65.2741 235.25 65.2741 230.983C65.2741 226.98 61.6395 225.084 56.8986 225.084C53.264 225.084 49.524 226.927 49.4713 230.246ZM85.2922 256.426H77.2855L92.3508 226.19H74.3883V219.553H101.464L101.833 223.24L85.2922 256.426ZM111.857 235.303V240.623C111.857 254.003 130.399 254.003 130.399 240.623V235.303C130.399 222.134 111.857 221.976 111.857 235.303ZM104.957 240.623V235.303C104.957 213.284 137.3 213.337 137.3 235.303V240.623C137.3 262.589 104.957 262.642 104.957 240.623ZM148.535 235.303V240.623C148.535 254.003 167.077 254.003 167.077 240.623V235.303C167.077 222.134 148.535 221.976 148.535 235.303ZM141.635 240.623V235.303C141.635 213.284 173.978 213.337 173.978 235.303V240.623C173.978 262.589 141.635 262.642 141.635 240.623ZM177.206 256.426V250.526H182.737V225.874H176.995V219.553H189.638V250.526H194.747V256.426H177.206Z" fill="white"/>
</g>
<defs>
<filter id="filter0_d_2499_1908" x="0.871094" y="0.378662" width="235.598" height="192.965" filterUnits="userSpaceOnUse" color-interpolation-filters="sRGB">
<feFlood flood-opacity="0" result="BackgroundImageFix"/>
<feColorMatrix in="SourceAlpha" type="matrix" values="0 0 0 0 0 0 0 0 0 0 0 0 0 0 0 0 0 0 127 0" result="hardAlpha"/>
<feOffset dy="4"/>
<feGaussianBlur stdDeviation="2"/>
<feComposite in2="hardAlpha" operator="out"/>
<feColorMatrix type="matrix" values="0 0 0 0 0 0 0 0 0 0 0 0 0 0 0 0 0 0 0.25 0"/>
<feBlend mode="normal" in2="BackgroundImageFix" result="effect1_dropShadow_2499_1908"/>
<feBlend mode="normal" in="SourceGraphic" in2="effect1_dropShadow_2499_1908" result="shape"/>
</filter>
<filter id="filter1_d_2499_1908" x="38.4141" y="213.284" width="160.332" height="57.3575" filterUnits="userSpaceOnUse" color-interpolation-filters="sRGB">
<feFlood flood-opacity="0" result="BackgroundImageFix"/>
<feColorMatrix in="SourceAlpha" type="matrix" values="0 0 0 0 0 0 0 0 0 0 0 0 0 0 0 0 0 0 127 0" result="hardAlpha"/>
<feOffset dy="4"/>
<feGaussianBlur stdDeviation="2"/>
<feComposite in2="hardAlpha" operator="out"/>
<feColorMatrix type="matrix" values="0 0 0 0 0 0 0 0 0 0 0 0 0 0 0 0 0 0 0.25 0"/>
<feBlend mode="normal" in2="BackgroundImageFix" result="effect1_dropShadow_2499_1908"/>
<feBlend mode="normal" in="SourceGraphic" in2="effect1_dropShadow_2499_1908" result="shape"/>
</filter>
</defs>
</svg>
