<svg width="50" height="50" viewBox="0 0 50 50" fill="none" xmlns="http://www.w3.org/2000/svg">
<g clip-path="url(#clip0_2416_2241)">
<path d="M49.4027 42.7273C49.4027 43.7311 49.0523 44.5833 48.3516 45.2841L45.3118 48.3523C44.5732 49.053 43.7114 49.4034 42.7266 49.4034C41.7228 49.4034 40.8705 49.053 40.1697 48.3523L29.8572 38.0114C29.1375 37.3295 28.7777 36.4773 28.7777 35.4545C28.7777 34.4507 29.1849 33.5417 29.9993 32.7273L22.7266 25.4545L19.147 29.0341C18.8819 29.2992 18.5599 29.4318 18.1811 29.4318C17.8023 29.4318 17.4804 29.2992 17.2152 29.0341C17.2531 29.072 17.3714 29.1856 17.5703 29.375C17.7692 29.5644 17.8875 29.6875 17.9254 29.7443C17.9633 29.8011 18.058 29.91 18.2095 30.071C18.361 30.232 18.4557 30.3598 18.4936 30.4545C18.5315 30.5492 18.5883 30.6771 18.6641 30.8381C18.7398 30.999 18.7919 31.1553 18.8203 31.3068C18.8487 31.4583 18.8629 31.6288 18.8629 31.8182C18.8629 32.5379 18.5978 33.1818 18.0675 33.75C18.0107 33.8068 17.8544 33.9773 17.5987 34.2614C17.343 34.5454 17.1631 34.7396 17.0589 34.8437C16.9548 34.9479 16.7796 35.1042 16.5334 35.3125C16.2872 35.5208 16.0788 35.6676 15.9084 35.7528C15.7379 35.8381 15.5296 35.9233 15.2834 36.0085C15.0372 36.0937 14.791 36.1364 14.5447 36.1364C13.7872 36.1364 13.1432 35.8712 12.6129 35.3409L1.02202 23.75C0.491714 23.2197 0.226562 22.5757 0.226562 21.8182C0.226562 21.572 0.269176 21.3257 0.354403 21.0795C0.439631 20.8333 0.524858 20.625 0.610085 20.4545C0.695312 20.2841 0.842093 20.0757 1.05043 19.8295C1.25876 19.5833 1.41501 19.4081 1.51918 19.304C1.62334 19.1998 1.81747 19.0199 2.10156 18.7642C2.38565 18.5085 2.55611 18.3523 2.61293 18.2954C3.18111 17.7651 3.82505 17.5 4.54474 17.5C4.73414 17.5 4.90459 17.5142 5.05611 17.5426C5.20762 17.571 5.36387 17.6231 5.52486 17.6989C5.68584 17.7746 5.81368 17.8314 5.90838 17.8693C6.00308 17.9072 6.13092 18.0019 6.2919 18.1534C6.45289 18.3049 6.56179 18.3996 6.61861 18.4375C6.67543 18.4754 6.79853 18.5937 6.98793 18.7926C7.17732 18.9915 7.29096 19.1098 7.32884 19.1477C7.06368 18.8826 6.93111 18.5606 6.93111 18.1818C6.93111 17.803 7.06368 17.4811 7.32884 17.2159L17.2152 7.32954C17.4804 7.06439 17.8023 6.93181 18.1811 6.93181C18.5599 6.93181 18.8819 7.06439 19.147 7.32954C19.1091 7.29166 18.9908 7.17802 18.7919 6.98863C18.593 6.79923 18.4747 6.67613 18.4368 6.61931C18.3989 6.56249 18.3042 6.45359 18.1527 6.2926C18.0012 6.13162 17.9065 6.00378 17.8686 5.90908C17.8307 5.81439 17.7739 5.68654 17.6982 5.52556C17.6224 5.36457 17.5703 5.20832 17.5419 5.05681C17.5135 4.90529 17.4993 4.73484 17.4993 4.54545C17.4993 3.82575 17.7644 3.18181 18.2947 2.61363C18.3516 2.55681 18.5078 2.38636 18.7635 2.10226C19.0192 1.81817 19.1991 1.62404 19.3033 1.51988C19.4074 1.41571 19.5826 1.25946 19.8288 1.05113C20.075 0.842795 20.2834 0.696014 20.4538 0.610787C20.6243 0.52556 20.8326 0.440333 21.0788 0.355105C21.325 0.269878 21.5713 0.227264 21.8175 0.227264C22.575 0.227264 23.219 0.492416 23.7493 1.02272L35.3402 12.6136C35.8705 13.1439 36.1357 13.7879 36.1357 14.5454C36.1357 14.7917 36.093 15.0379 36.0078 15.2841C35.9226 15.5303 35.8374 15.7386 35.7521 15.9091C35.6669 16.0795 35.5201 16.2879 35.3118 16.5341C35.1035 16.7803 34.9472 16.9555 34.843 17.0597C34.7389 17.1638 34.5447 17.3437 34.2607 17.5994C33.9766 17.8551 33.8061 18.0114 33.7493 18.0682C33.1811 18.5985 32.5372 18.8636 31.8175 18.8636C31.6281 18.8636 31.4576 18.8494 31.3061 18.821C31.1546 18.7926 30.9983 18.7405 30.8374 18.6648C30.6764 18.589 30.5485 18.5322 30.4538 18.4943C30.3591 18.4564 30.2313 18.3617 30.0703 18.2102C29.9093 18.0587 29.8004 17.964 29.7436 17.9261C29.6868 17.8882 29.5637 17.7699 29.3743 17.571C29.1849 17.3722 29.0713 17.2538 29.0334 17.2159C29.2985 17.4811 29.4311 17.803 29.4311 18.1818C29.4311 18.5606 29.2985 18.8826 29.0334 19.1477L25.4538 22.7273L32.7266 30C33.541 29.1856 34.45 28.7784 35.4538 28.7784C36.4387 28.7784 37.3004 29.1288 38.0391 29.8295L48.3516 40.142C49.0523 40.8807 49.4027 41.7424 49.4027 42.7273Z" fill="#655E8E"/>
</g>
<defs>
<clipPath id="clip0_2416_2241">
<rect width="50" height="50" fill="white"/>
</clipPath>
</defs>
</svg>
