<svg width="469" height="469" viewBox="0 0 469 469" fill="none" xmlns="http://www.w3.org/2000/svg">
<path d="M16.9612 106.449L16.9708 106.421L16.9798 106.392C17.741 103.995 18.6852 101.869 19.8007 100.007L19.8106 99.9906L19.8203 99.974L56.3108 36.8867C56.3115 36.8856 56.3121 36.8846 56.3127 36.8835C60.2331 30.1476 67.4752 25.9707 75.201 25.9707H339.437C347.292 25.9707 354.536 30.1788 358.356 36.9223L358.362 36.9327L358.368 36.9431L394.879 99.9753L394.888 99.9906L394.897 100.006C395.962 101.787 396.822 103.736 397.631 106.301L397.648 106.355L397.667 106.407C398.768 109.42 399.416 113.128 399.416 116.827V189.304C399.416 191.587 397.563 193.441 395.279 193.441C392.996 193.441 391.143 191.587 391.143 189.304V116.827C391.143 114.137 390.69 111.436 389.809 109.006C389.16 106.949 388.567 105.548 387.754 104.192C387.75 104.186 387.747 104.18 387.743 104.174L351.18 41.0533C351.177 41.0493 351.175 41.0453 351.173 41.0414C348.776 36.8114 344.294 34.2443 339.437 34.2443H75.201C70.3829 34.2443 65.9015 36.8552 63.4729 41.0366L63.4706 41.0406L26.9435 104.194C26.0792 105.638 25.4074 107.202 24.8152 109.031C23.9499 111.576 23.5041 114.183 23.5041 116.74V363.891C23.5041 371.416 29.6269 377.539 37.1518 377.539H305.899C308.182 377.539 310.035 379.393 310.035 381.676C310.035 383.959 308.182 385.813 305.899 385.813H37.1518C25.0688 385.813 15.2305 375.974 15.2305 363.891V116.74C15.2305 113.296 15.8314 109.734 16.9612 106.449Z" fill="#272727" stroke="#EEEEEE" stroke-width="5"/>
<path d="M395.277 275.554C392.994 275.554 391.141 273.7 391.141 271.417V260.269C391.141 257.986 392.994 256.133 395.277 256.133C397.561 256.133 399.414 257.986 399.414 260.269V271.417C399.414 273.7 397.561 275.554 395.277 275.554Z" fill="#272727" stroke="#EEEEEE" stroke-width="5"/>
<path d="M358.325 36.8716L358.332 36.8831L394.909 100.005C394.909 100.005 394.91 100.006 394.91 100.006C397.008 103.648 398.384 107.952 398.956 112.834C399.09 114.008 398.72 115.184 397.94 116.071C397.149 116.95 396.021 117.455 394.846 117.455H19.8324C18.6579 117.455 17.53 116.951 16.7398 116.072C15.9589 115.186 15.5883 114.01 15.7222 112.836C16.2933 107.944 17.6707 103.64 19.7584 100.026C19.7585 100.026 19.7586 100.025 19.7587 100.025C19.7588 100.025 19.7589 100.025 19.7589 100.025L56.2792 36.868C56.2803 36.8661 56.2815 36.8641 56.2826 36.8622C60.2465 30.105 67.5082 25.9363 75.234 25.9363H339.453C347.233 25.9363 354.468 30.132 358.325 36.8716ZM26.1684 105.6L24.4491 109.181H28.4222H386.247H390.187L388.509 105.617C388.269 105.106 388.014 104.627 387.761 104.177L387.753 104.163L387.745 104.149L351.157 41.0124C351.155 41.0094 351.154 41.0065 351.152 41.0036C348.752 36.7944 344.277 34.2099 339.453 34.2099H75.234C70.4003 34.2099 65.8972 36.8272 63.4425 41.0097L63.4384 41.0167L63.4343 41.0237L26.9233 104.168L26.9159 104.181L26.9086 104.194C26.6638 104.629 26.4094 105.097 26.1684 105.6Z" fill="#272727" stroke="#EEEEEE" stroke-width="5"/>
<path d="M258.843 193.651L258.839 193.654C254.866 195.565 250.289 195.027 246.842 192.256C246.842 192.256 246.842 192.256 246.842 192.256L209.254 161.918L207.698 160.662L206.131 161.904L167.84 192.244L167.833 192.25L167.825 192.256C165.746 193.93 163.257 194.78 160.742 194.78C159.095 194.78 157.424 194.415 155.832 193.66C151.851 191.75 149.398 187.856 149.398 183.445V112.679C149.398 110.395 151.252 108.542 153.535 108.542H261.133C263.416 108.542 265.269 110.395 265.269 112.679V183.445C265.269 187.85 262.813 191.751 258.843 193.651ZM160.172 116.815H157.672V119.315V183.392L157.548 183.492L157.672 183.646V184.408L158.318 185.122L163.373 190.713L167.174 187.467L164.577 184.245L200.232 155.473L200.233 155.473C204.345 152.152 210.347 152.16 214.442 155.472L214.444 155.473L252.035 185.814L253.259 186.802L254.68 186.126L255.57 185.703L256.996 185.024V183.445V119.315V116.815H254.496H160.172Z" fill="#272727" stroke="#EEEEEE" stroke-width="5"/>
<path d="M157.672 106.042V108.542H160.172H254.496H256.996V106.042V36.7099V34.2099H254.496H160.172H157.672V36.7099V106.042ZM261.133 116.815H153.535C151.252 116.815 149.398 114.962 149.398 112.679V30.0731C149.398 27.7897 151.252 25.9363 153.535 25.9363H261.133C263.416 25.9363 265.269 27.7897 265.269 30.0731V112.679C265.269 114.962 263.416 116.815 261.133 116.815Z" fill="#272727" stroke="#EEEEEE" stroke-width="5"/>
<path d="M358.699 410.372L357.143 409.133L355.586 410.371L317.066 441.011C317.066 441.012 317.065 441.012 317.065 441.013C314.206 443.275 310.4 443.692 307.112 442.11C303.809 440.512 301.77 437.263 301.77 433.612V350.609C301.77 349.087 302.609 347.684 303.954 346.96L303.954 346.96L303.965 346.954C305.268 346.245 306.91 346.312 308.186 347.16L308.189 347.162C337.423 366.539 376.863 366.539 406.096 347.162L406.1 347.16C407.371 346.314 408.993 346.24 410.331 346.96C411.676 347.684 412.516 349.087 412.516 350.609V433.612C412.516 437.268 410.481 440.514 407.182 442.101L407.177 442.104C405.84 442.752 404.433 443.064 403.039 443.064C400.981 443.064 398.936 442.38 397.221 441.021C397.22 441.021 397.22 441.021 397.219 441.02L358.699 410.372ZM314.1 432.804L351.279 403.226C353.034 401.875 355.107 401.209 357.16 401.209C359.201 401.209 361.232 401.861 362.933 403.16L400.186 432.803L404.242 436.031V430.847V362.129V358.069L400.617 359.896C373.689 373.47 340.597 373.47 313.668 359.896L310.043 358.069V362.129V430.847V436.031L314.1 432.804Z" fill="#272727" stroke="#EEEEEE" stroke-width="5"/>
<path d="M357.144 370.215C303.866 370.215 260.516 326.872 260.516 273.595C260.516 220.317 303.866 176.966 357.144 176.966C410.422 176.966 453.773 220.317 453.773 273.595C453.773 326.872 410.422 370.215 357.144 370.215ZM357.144 185.24C308.424 185.24 268.789 224.875 268.789 273.595C268.789 322.315 308.425 361.941 357.144 361.941C405.863 361.941 445.499 322.315 445.499 273.595C445.499 224.875 405.864 185.24 357.144 185.24Z" fill="#272727" stroke="#EEEEEE" stroke-width="5"/>
<path d="M357.145 307.212L358.309 307.824L374.737 316.466L373.573 318.678L374.737 316.466C376.201 317.236 377.78 317.613 379.337 317.613C381.367 317.613 383.385 316.977 385.129 315.713C388.202 313.481 389.701 309.79 389.058 306.053L389.058 306.051L386.062 288.538M386.062 288.538L386.062 288.537L384.837 287.313L384.837 287.313L386.062 288.538Z" fill="#272727" stroke="#EEEEEE" stroke-width="5"/>
<path d="M77.3517 332.203V334.703H79.8517H152.243H154.743V332.203V304.42V301.92H152.243H79.8517H77.3517V304.42V332.203ZM153.245 342.976H78.8579C73.4624 342.976 69.0781 338.589 69.0781 333.205V303.426C69.0781 298.031 73.4636 293.646 78.8579 293.646H153.245C158.63 293.646 163.016 298.03 163.016 303.426V333.205C163.016 338.591 158.631 342.976 153.245 342.976Z" fill="#272727" stroke="#EEEEEE" stroke-width="5"/>
</svg>
