<svg width="50" height="50" viewBox="0 0 50 50" fill="none" xmlns="http://www.w3.org/2000/svg">
<g clip-path="url(#clip0_2416_2234)">
<path fill-rule="evenodd" clip-rule="evenodd" d="M16.6667 33.3333V43.75H33.3333V33.3333H43.75V16.6667H33.3333V6.25H16.6667V16.6667H6.25V33.3333H16.6667ZM27.6042 17.1906H24.8646C24.7676 17.1847 24.6706 17.2015 24.5812 17.2396C23.7115 17.6635 23.1656 18.4125 22.8312 19.3C22.7687 19.4639 22.7146 19.6288 22.6687 19.7948H20.525C20.6104 19.3917 20.726 18.975 20.8823 18.5635C21.3427 17.3437 22.1833 16.0917 23.6677 15.3667C24.0419 15.1894 24.4517 15.1004 24.8656 15.1062H27.6052C27.8815 15.1062 28.1464 15.216 28.3418 15.4113C28.5371 15.6067 28.6469 15.8716 28.6469 16.1479C28.6469 16.4242 28.5371 16.6891 28.3418 16.8845C28.1464 17.0798 27.8815 17.1896 27.6052 17.1896M18.751 20.8354C18.176 20.8354 17.6958 21.3104 17.8521 21.8646C18.4531 24.0094 20.9 25.6781 23.9594 25.9906V27.6135C23.2354 27.6313 22.4833 27.6896 21.8448 27.875C21.3469 28.0208 20.8187 28.2687 20.4146 28.7229C19.9917 29.1979 19.7927 29.7979 19.7927 30.4677C19.7927 31.1375 19.9906 31.7385 20.4135 32.2146C20.8177 32.6698 21.3458 32.9198 21.8448 33.0656C22.1781 33.1625 22.5427 33.225 22.9177 33.2646V31.1677C22.7523 31.1453 22.5887 31.1111 22.4281 31.0656C22.1469 30.9823 22.0229 30.8906 21.9719 30.8323C21.9385 30.7948 21.876 30.7104 21.876 30.4677C21.876 30.2281 21.9385 30.1448 21.9698 30.1083C22.0219 30.05 22.1448 29.9573 22.4281 29.875C22.8271 29.7594 23.3417 29.7156 23.9594 29.699V35.4187H20.8344V37.5021H29.1677V35.4187H26.0427V29.651C27.1906 29.5615 28.1208 29.3094 28.8208 28.8583C29.8052 28.2229 30.2094 27.2781 30.2094 26.275C30.2176 25.7393 30.0847 25.2108 29.824 24.7427C30.9948 24.0031 31.8312 23.001 32.15 21.8646C32.3062 21.3104 31.8271 20.8354 31.251 20.8354H18.751ZM26.0427 27.5594C26.8854 27.4781 27.3969 27.2969 27.6917 27.1073C28.0094 26.9021 28.126 26.6615 28.126 26.275C28.126 25.9823 28.0594 25.7833 27.8875 25.6187C27.2869 25.8042 26.6692 25.9288 26.0438 25.9906L26.0427 27.5594Z" fill="#655E8E"/>
</g>
<defs>
<clipPath id="clip0_2416_2234">
<rect width="50" height="50" fill="white"/>
</clipPath>
</defs>
</svg>
