<svg width="50" height="50" viewBox="0 0 50 50" fill="none" xmlns="http://www.w3.org/2000/svg">
<path d="M10.0017 8.2325C10.4704 7.76363 11.1062 7.50014 11.7692 7.5H38.2342C38.8972 7.50014 39.533 7.76363 40.0017 8.2325L46.6067 14.835C48.5117 16.7425 47.1617 20 44.4667 20H5.53669C2.84169 20 1.49419 16.7425 3.40169 14.835L10.0017 8.2325ZM42.5017 22.5H7.50169V37.5C7.50169 38.8261 8.02847 40.0979 8.96616 41.0355C9.90384 41.9732 11.1756 42.5 12.5017 42.5H37.5017C38.8278 42.5 40.0995 41.9732 41.0372 41.0355C41.9749 40.0979 42.5017 38.8261 42.5017 37.5V22.5ZM17.5017 32.5C16.8386 32.5 16.2028 32.2366 15.7339 31.7678C15.2651 31.2989 15.0017 30.663 15.0017 30C15.0017 29.337 15.2651 28.7011 15.7339 28.2322C16.2028 27.7634 16.8386 27.5 17.5017 27.5C18.1647 27.5 18.8006 27.7634 19.2695 28.2322C19.7383 28.7011 20.0017 29.337 20.0017 30C20.0017 30.663 19.7383 31.2989 19.2695 31.7678C18.8006 32.2366 18.1647 32.5 17.5017 32.5ZM25.0017 32.5C24.3386 32.5 23.7028 32.2366 23.2339 31.7678C22.7651 31.2989 22.5017 30.663 22.5017 30C22.5017 29.337 22.7651 28.7011 23.2339 28.2322C23.7028 27.7634 24.3386 27.5 25.0017 27.5C25.6647 27.5 26.3006 27.7634 26.7695 28.2322C27.2383 28.7011 27.5017 29.337 27.5017 30C27.5017 30.663 27.2383 31.2989 26.7695 31.7678C26.3006 32.2366 25.6647 32.5 25.0017 32.5ZM32.5017 32.5C31.8386 32.5 31.2028 32.2366 30.7339 31.7678C30.2651 31.2989 30.0017 30.663 30.0017 30C30.0017 29.337 30.2651 28.7011 30.7339 28.2322C31.2028 27.7634 31.8386 27.5 32.5017 27.5C33.1647 27.5 33.8006 27.7634 34.2695 28.2322C34.7383 28.7011 35.0017 29.337 35.0017 30C35.0017 30.663 34.7383 31.2989 34.2695 31.7678C33.8006 32.2366 33.1647 32.5 32.5017 32.5Z" fill="#655E8E"/>
</svg>
