<svg width="379" height="233" viewBox="0 0 379 233" fill="none" xmlns="http://www.w3.org/2000/svg">
<path d="M189.629 160.82C189.073 160.488 188.519 160.153 187.961 159.826C177.388 153.63 167.743 146.242 159.181 137.46C151.14 129.212 144.366 120.025 138.835 109.922C133.239 99.6986 129.097 88.9067 126.215 77.6214C124.937 72.6164 123.926 67.5582 123.152 62.4524C122.665 59.2436 122.281 56.0216 122 52.7885C121.698 49.3193 121.495 45.8439 121.423 42.3616C121.393 40.9312 121.305 39.5 121.334 38.0709C121.379 35.7854 121.475 33.5001 121.596 31.2171C121.682 29.5974 121.844 27.9818 121.973 26.3644C121.98 26.2778 121.993 26.1918 122.007 26.0759C122.142 26.0603 122.269 26.0373 122.397 26.0321C124.461 25.9481 126.528 25.9107 128.588 25.772C130.676 25.6313 132.761 25.4138 134.843 25.1888C137.556 24.8956 140.248 24.4504 142.926 23.9242C151.622 22.2149 159.981 19.4847 167.963 15.6201C173.195 13.087 178.169 10.1274 182.834 6.65447C185.133 4.94321 187.323 3.10295 189.394 1.12189C189.485 1.03468 189.551 0.921119 189.629 0.819824C189.659 0.819824 189.688 0.819824 189.718 0.819824C189.806 0.917135 189.888 1.02055 189.982 1.11091C192.055 3.08993 194.243 4.93396 196.543 6.64327C203.443 11.7711 210.951 15.789 218.959 18.8878C224.846 21.166 230.898 22.8676 237.1 24.0437C240.828 24.7506 244.581 25.2612 248.359 25.5965C251.196 25.8484 254.041 25.976 256.889 26.0306C257.047 26.0336 257.205 26.0475 257.374 26.0569C257.4 26.2219 257.429 26.3512 257.441 26.4821C257.681 29.1862 257.91 31.8908 257.915 34.6088C257.916 34.8271 257.961 35.0453 257.986 35.2636V42.3471C257.961 42.5653 257.923 42.7831 257.915 43.0019C257.849 44.697 257.808 46.3933 257.724 48.0873C257.554 51.4919 257.228 54.8838 256.811 58.2662C256.343 62.0724 255.734 65.8569 254.988 69.6195C253.523 77.0086 251.529 84.25 248.952 91.3294C245.962 99.5444 242.233 107.407 237.696 114.882C230.646 126.496 221.928 136.69 211.605 145.516C204.969 151.19 197.837 156.157 190.267 160.5C190.105 160.592 189.959 160.712 189.806 160.82H189.629V160.82ZM189.684 10.4849C189.551 10.5967 189.427 10.6989 189.305 10.8034C186.839 12.9205 184.24 14.8631 181.529 16.6557C173.394 22.0364 164.606 25.9984 155.245 28.7044C149.693 30.3091 144.044 31.4296 138.303 32.0954C135.87 32.3776 133.432 32.5949 130.984 32.7093C130.443 32.7346 129.903 32.7734 129.353 32.8066C129.338 32.927 129.322 33.0127 129.318 33.0989C129.235 34.7492 129.118 36.3987 129.079 38.0501C128.959 43.0248 129.087 47.9935 129.491 52.9552C129.741 56.0144 130.07 59.064 130.506 62.1014C131.163 66.6731 132.035 71.2037 133.136 75.69C135.614 85.7903 139.185 95.4803 144.03 104.691C149.342 114.791 155.987 123.919 163.994 132.053C169.039 137.178 174.517 141.792 180.39 145.939C183.296 147.991 186.284 149.915 189.343 151.732C189.611 151.892 189.803 151.889 190.058 151.724C190.641 151.349 191.246 151.009 191.838 150.647C201.845 144.526 210.868 137.209 218.747 128.503C224.414 122.242 229.327 115.436 233.499 108.096C238.509 99.2814 242.318 89.9667 245.063 80.2117C247.741 70.6937 249.372 60.9967 250.031 51.133C250.28 47.4207 250.416 43.705 250.35 39.9856C250.31 37.7291 250.184 35.4741 250.094 33.2186C250.088 33.079 250.053 32.9406 250.032 32.8018C249.912 32.7921 249.839 32.7858 249.766 32.7805C247.265 32.5993 244.759 32.4678 242.264 32.2251C238.886 31.8965 235.537 31.3564 232.211 30.6803C223.872 28.9859 215.862 26.3226 208.218 22.577C201.658 19.362 195.532 15.4734 189.977 10.7094C189.889 10.6337 189.793 10.5679 189.684 10.4849H189.684Z" fill="white"/>
<path d="M201.508 50.7751C201.483 51.774 201.234 52.7304 200.924 53.6708C200.712 54.3148 200.495 54.9613 200.216 55.578C199.961 56.1427 200.13 56.6024 200.847 56.7757C203.301 57.3687 205.714 58.1002 208.068 59.0187C209.526 59.588 210.963 60.2106 212.265 61.0924C212.762 61.4296 213.215 61.8365 213.67 62.2322C213.845 62.3843 213.986 62.5836 214.116 62.7788C214.749 63.7276 214.671 64.6048 213.89 65.4296C213.189 66.1696 212.331 66.6879 211.434 67.1434C210.75 67.4905 210.05 67.8044 209.352 68.1214C208.75 68.3945 208.632 68.738 208.975 69.3153C210.346 71.6263 211.629 73.9835 212.683 76.4585C213.297 77.8993 213.839 79.3645 214.106 80.9161C214.221 81.5876 214.278 82.2605 214.157 82.9408C213.96 84.0424 213.343 84.6326 212.228 84.7255C211.468 84.7887 210.721 84.6564 210.001 84.4387C209.028 84.1447 208.07 83.7979 207.107 83.4722C207.009 83.4393 206.917 83.3893 206.819 83.3592C206.407 83.2331 206.082 83.3919 205.938 83.794C205.889 83.9324 205.86 84.0783 205.823 84.2212C205.095 87.053 204.256 89.8485 203.091 92.5363C202.638 93.5795 202.15 94.6076 201.499 95.5435C201.181 96.0015 200.81 96.4251 200.441 96.8451C200.277 97.0308 200.071 97.1856 199.865 97.3258C198.907 97.9778 198.019 97.9 197.181 97.0977C196.401 96.3511 195.872 95.429 195.39 94.4797C195.071 93.8487 194.789 93.1982 194.496 92.5538C194.234 91.9774 193.879 91.8563 193.331 92.1826C191.111 93.5046 188.844 94.7368 186.474 95.7713C184.985 96.4214 183.47 97.003 181.863 97.2977C181.104 97.4367 180.342 97.5114 179.577 97.3515C178.549 97.1369 178.011 96.5512 177.909 95.5103C177.834 94.7505 177.961 94.0038 178.172 93.281C178.435 92.3757 178.754 91.4865 179.052 90.5911C179.094 90.4654 179.15 90.3446 179.198 90.2206C179.44 89.5872 179.282 89.2715 178.639 89.1012C177.983 88.9275 177.325 88.7624 176.672 88.5794C174.227 87.8942 171.815 87.1109 169.503 86.0485C168.537 85.6045 167.59 85.1201 166.737 84.4789C166.372 84.2052 166.028 83.8999 165.705 83.5786C165.499 83.3734 165.322 83.1277 165.177 82.874C164.694 82.0256 164.74 81.325 165.375 80.5905C165.69 80.2265 166.068 79.905 166.458 79.6198C167.464 78.8842 168.588 78.3599 169.726 77.8635C169.901 77.7868 170.083 77.7198 170.25 77.627C170.61 77.4266 170.714 77.101 170.542 76.7244C170.481 76.5909 170.398 76.4673 170.322 76.3405C169.062 74.2211 167.89 72.0552 166.899 69.7958C166.228 68.2671 165.628 66.7121 165.325 65.0607C165.188 64.3174 165.117 63.5714 165.27 62.8186C165.487 61.7489 166.133 61.1764 167.226 61.12C168.154 61.0721 169.049 61.2733 169.924 61.5451C170.712 61.7898 171.484 62.0865 172.262 62.361C172.318 62.3806 172.371 62.4078 172.426 62.4291C173.025 62.6605 173.353 62.4937 173.519 61.8809C173.818 60.7852 174.099 59.6843 174.424 58.5966C175.109 56.3046 175.891 54.047 176.974 51.9072C177.515 50.8387 178.111 49.7975 178.999 48.9709C179.296 48.6939 179.646 48.4525 180.01 48.2724C180.623 47.9695 181.26 48.0016 181.809 48.4248C182.178 48.7097 182.52 49.0486 182.811 49.4138C183.608 50.4139 184.143 51.5683 184.667 52.7252C184.758 52.9267 184.84 53.1325 184.931 53.3339C185.174 53.8665 185.52 53.9804 186.038 53.6881C187.053 53.115 188.053 52.516 189.079 51.9642C191.369 50.733 193.701 49.589 196.212 48.8751C196.96 48.6626 197.737 48.5375 198.509 48.4326C198.911 48.3779 199.337 48.4152 199.741 48.4795C200.86 48.6577 201.446 49.3353 201.508 50.4657C201.513 50.5686 201.508 50.6721 201.508 50.7754L201.508 50.7751ZM194.997 52.6024C194.308 52.6362 193.645 52.7734 192.99 52.9574C190.749 53.5875 188.653 54.5655 186.606 55.6546C186.107 55.9204 186.024 56.1665 186.213 56.7136C187.249 59.7262 188.141 62.7831 189.014 65.846C189.269 66.7394 189.525 67.6322 189.778 68.5261C189.852 68.787 189.979 68.9924 190.278 69.0092C190.57 69.0255 190.738 68.8507 190.847 68.6016C190.865 68.5611 190.885 68.5218 190.903 68.4812C192.159 65.5713 193.436 62.6702 194.662 59.7477C195.323 58.171 195.91 56.5615 196.305 54.8921C196.396 54.5066 196.46 54.1097 196.485 53.7148C196.519 53.1901 196.285 52.8787 195.778 52.7354C195.525 52.6641 195.258 52.6451 194.997 52.6024L194.997 52.6024ZM210.019 78.2656C209.984 77.9365 209.967 77.6711 209.925 77.4096C209.706 76.0149 209.236 74.6941 208.673 73.4101C208.152 72.2228 207.577 71.0594 207.006 69.8948C206.724 69.3183 206.479 69.2412 205.859 69.4498C205.775 69.478 205.691 69.5057 205.607 69.5343C201.922 70.7933 198.171 71.8333 194.429 72.9029C194.259 72.9515 194.083 72.9892 193.924 73.0641C193.542 73.2448 193.501 73.7135 193.84 73.9647C193.921 74.0255 194.018 74.0678 194.112 74.1102C197.161 75.4904 200.215 76.8603 203.338 78.0674C204.795 78.6309 206.259 79.182 207.785 79.5381C208.156 79.6248 208.539 79.6833 208.92 79.7044C209.431 79.7328 209.728 79.5178 209.878 79.0285C209.959 78.7641 209.981 78.4815 210.019 78.2656L210.019 78.2656ZM199.145 91.6359C199.484 91.6321 199.812 91.4742 200.152 91.1635C200.725 90.6384 201.144 89.9966 201.517 89.3243C202.627 87.3294 203.411 85.2017 204.074 83.0252C204.268 82.3893 204.172 82.1884 203.591 81.8968C202.563 81.3807 201.528 80.8766 200.517 80.3292C197.963 78.9464 195.42 77.5434 192.874 76.145C192.604 75.9967 192.339 75.8625 192.06 76.1002C191.776 76.3423 191.881 76.6288 191.993 76.9109C193.153 79.8291 194.295 82.754 195.477 85.6629C196.076 87.138 196.75 88.5836 197.555 89.9608C197.821 90.4171 198.141 90.8442 198.457 91.2694C198.628 91.5009 198.869 91.6486 199.145 91.6359ZM184.472 93.2517C185.252 93.1924 185.998 93.0171 186.734 92.7957C188.847 92.1597 190.837 91.2348 192.78 90.2018C193.295 89.9279 193.376 89.6785 193.187 89.1081C192.854 88.1004 192.501 87.0981 192.199 86.0813C191.349 83.2276 190.52 80.3675 189.682 77.5101C189.645 77.383 189.616 77.2502 189.557 77.1332C189.369 76.7573 188.902 76.7237 188.654 77.0646C188.603 77.1352 188.566 77.2181 188.531 77.299C187.253 80.2632 185.956 83.22 184.705 86.1956C184.076 87.6899 183.524 89.2178 183.137 90.7965C183.026 91.2519 182.956 91.7233 182.926 92.1912C182.896 92.6501 183.124 92.949 183.566 93.0827C183.858 93.1713 184.169 93.1975 184.472 93.2517ZM186.648 75.7173C186.656 75.3181 186.401 75.0708 186.082 75.1074C185.953 75.1222 185.825 75.171 185.702 75.2196C182.811 76.3649 179.913 77.4935 177.033 78.6668C175.436 79.3174 173.867 80.0399 172.389 80.9384C172.013 81.167 171.652 81.429 171.318 81.7157C170.95 82.0314 170.885 82.3969 171.102 82.831C171.219 83.064 171.385 83.2809 171.563 83.4722C172.062 84.0058 172.677 84.3904 173.309 84.7427C175.303 85.8539 177.432 86.6332 179.607 87.3C180.232 87.4916 180.436 87.387 180.735 86.8054C181.654 85.0235 182.563 83.2362 183.51 81.4695C184.471 79.6767 185.474 77.9064 186.456 76.1249C186.54 75.9726 186.605 75.8096 186.648 75.7173ZM208.415 63.4657C208.405 63.0733 208.209 62.7663 207.957 62.488C207.404 61.8778 206.718 61.4445 206.005 61.0525C204.006 59.952 201.873 59.1788 199.697 58.5164C199.198 58.3646 198.963 58.4778 198.728 58.9386C198.159 60.055 197.611 61.1834 197.015 62.2855C195.696 64.7235 194.353 67.1483 193.02 69.5786C192.942 69.7208 192.859 69.8611 192.792 70.0086C192.706 70.1996 192.731 70.388 192.867 70.547C193.012 70.7154 193.196 70.7934 193.421 70.7255C193.505 70.7 193.588 70.6678 193.671 70.6369C196.82 69.4601 199.959 68.2575 203.034 66.8952C204.491 66.25 205.942 65.5924 207.292 64.7371C207.577 64.5564 207.842 64.3414 208.1 64.1224C208.295 63.9564 208.426 63.741 208.415 63.4657H208.415ZM180.249 54.2104C179.918 54.2168 179.553 54.3546 179.257 54.6898C178.849 55.1514 178.444 55.6277 178.119 56.1484C177.121 57.7457 176.455 59.4981 175.831 61.2654C175.63 61.835 175.449 62.4122 175.28 62.9922C175.157 63.4144 175.274 63.6622 175.66 63.8703C175.867 63.9822 176.084 64.077 176.295 64.1821C179.649 65.8497 182.914 67.684 186.185 69.5054C186.378 69.613 186.569 69.7257 186.769 69.8203C186.972 69.9165 187.174 69.9004 187.344 69.7422C187.511 69.5879 187.561 69.3956 187.495 69.1775C187.465 69.0788 187.43 68.9813 187.392 68.8855C186.251 66.0079 185.128 63.1232 183.961 60.2561C183.328 58.6996 182.617 57.1745 181.758 55.7256C181.519 55.3215 181.234 54.9419 180.946 54.5698C180.771 54.3445 180.536 54.1846 180.249 54.2104ZM169.382 67.6867C169.449 68.1267 169.486 68.5547 169.581 68.9693C170.163 71.4927 171.265 73.8074 172.472 76.0773C172.707 76.5198 172.969 76.5947 173.476 76.4199C177.158 75.1502 180.905 74.0946 184.651 73.0385C184.906 72.9666 185.16 72.8881 185.414 72.8117C185.635 72.7452 185.768 72.59 185.791 72.3678C185.816 72.1258 185.7 71.9418 185.483 71.8276C185.418 71.7933 185.351 71.7625 185.283 71.7331C182.756 70.6307 180.238 69.5087 177.7 68.4332C175.826 67.6393 173.929 66.8998 171.954 66.3906C171.458 66.2628 170.942 66.1897 170.431 66.152C169.965 66.1177 169.677 66.3364 169.539 66.7861C169.45 67.0776 169.431 67.3907 169.382 67.6867Z" fill="white"/>
<path d="M23.1666 199.6L18.9666 201.76C18.0066 200.16 15.3666 198.64 12.3266 198.64C8.40656 198.64 6.52656 200.28 6.52656 202.36C6.52656 204.8 9.40656 205.48 12.7666 205.88C18.6066 206.6 24.0466 208.12 24.0466 214.8C24.0466 221.04 18.5266 223.72 12.2866 223.72C6.56656 223.72 2.16656 221.96 0.0865625 216.84L4.48656 214.56C5.72656 217.64 8.96656 219 12.3666 219C15.6866 219 18.8066 217.84 18.8066 214.8C18.8066 212.16 16.0466 211.08 12.3266 210.68C6.60656 210 1.32656 208.48 1.32656 202.2C1.32656 196.44 7.00656 194.08 12.1666 194.04C16.5266 194.04 21.0466 195.28 23.1666 199.6ZM49.0119 217.8V223H28.0519C28.0519 213.68 28.0519 204.32 28.0519 195H49.0119V200.12H33.2919V206.56H48.4519V211.48H33.2919V217.8H49.0119ZM74.1728 215.84L77.7728 219.48C74.8928 222.32 71.1728 223.64 67.1328 223.64C56.7328 223.64 52.3328 216.48 52.2928 209.2C52.2528 201.88 57.0128 194.44 67.1328 194.44C70.9328 194.44 74.5328 195.88 77.4128 198.72L73.8928 202.12C72.0528 200.32 69.5728 199.48 67.1328 199.48C60.3728 199.48 57.4528 204.52 57.4928 209.2C57.5328 213.84 60.2128 218.68 67.1328 218.68C69.5728 218.68 72.3328 217.68 74.1728 215.84ZM99.6784 195.04H104.918V211.08C104.918 219.36 99.8384 223.6 92.7984 223.6C86.0784 223.6 80.3584 219.52 80.3584 211.08V195.04H85.5984V211.08C85.5984 216.12 88.4784 218.8 92.8384 218.8C97.1984 218.8 99.6784 215.88 99.6784 211.08V195.04ZM134.925 222.64V223H128.645L120.485 213.64H115.405V223H110.125V194.96C114.565 194.96 119.005 195 123.445 195C130.045 195.04 133.525 199.44 133.525 204.28C133.525 208.12 131.765 212 126.445 213.08L134.925 222.64ZM123.445 199.92H115.405V208.88H123.445C126.805 208.88 128.245 206.64 128.245 204.4C128.245 202.16 126.765 199.92 123.445 199.92ZM142.357 223H137.117V195H142.357V223ZM155.841 223V199.8H146.961V195C155.041 195 161.881 195 170.001 195V199.8H161.121V223H155.841ZM179.57 195L186.69 206.56L194.13 195H200.49V195.24L189.33 211.44V223H184.05V211.44L173.29 195.24V195H179.57ZM232.385 199.6L228.185 201.76C227.225 200.16 224.585 198.64 221.545 198.64C217.625 198.64 215.745 200.28 215.745 202.36C215.745 204.8 218.625 205.48 221.985 205.88C227.825 206.6 233.265 208.12 233.265 214.8C233.265 221.04 227.745 223.72 221.505 223.72C215.785 223.72 211.385 221.96 209.305 216.84L213.705 214.56C214.945 217.64 218.185 219 221.585 219C224.905 219 228.025 217.84 228.025 214.8C228.025 212.16 225.265 211.08 221.545 210.68C215.825 210 210.545 208.48 210.545 202.2C210.545 196.44 216.225 194.08 221.385 194.04C225.745 194.04 230.265 195.28 232.385 199.6ZM258.431 215.84L262.031 219.48C259.151 222.32 255.431 223.64 251.391 223.64C240.991 223.64 236.591 216.48 236.551 209.2C236.511 201.88 241.271 194.44 251.391 194.44C255.191 194.44 258.791 195.88 261.671 198.72L258.151 202.12C256.311 200.32 253.831 199.48 251.391 199.48C244.631 199.48 241.711 204.52 241.751 209.2C241.791 213.84 244.471 218.68 251.391 218.68C253.831 218.68 256.591 217.68 258.431 215.84ZM270.326 223H265.086V195H270.326V223ZM296.16 217.8V223H275.2C275.2 213.68 275.2 204.32 275.2 195H296.16V200.12H280.44V206.56H295.6V211.48H280.44V217.8H296.16ZM319.501 212.36V194.96H324.781V223H321.501V223.04L306.781 204.12V223H301.501V195H305.781L319.501 212.36ZM350.696 215.84L354.296 219.48C351.416 222.32 347.696 223.64 343.656 223.64C333.256 223.64 328.856 216.48 328.816 209.2C328.776 201.88 333.536 194.44 343.656 194.44C347.456 194.44 351.056 195.88 353.936 198.72L350.416 202.12C348.576 200.32 346.096 199.48 343.656 199.48C336.896 199.48 333.976 204.52 334.016 209.2C334.056 213.84 336.736 218.68 343.656 218.68C346.096 218.68 348.856 217.68 350.696 215.84ZM378.153 217.8V223H357.193C357.193 213.68 357.193 204.32 357.193 195H378.153V200.12H362.433V206.56H377.593V211.48H362.433V217.8H378.153Z" fill="white"/>
</svg>
