<svg xmlns="http://www.w3.org/2000/svg" width="1315" height="564" fill="none"><path stroke="#fff" stroke-miterlimit="10" d="M1313.93 439.56a116.5 116.5 0 0 0-29.09-76.69 116.33 116.33 0 0 0-72.39-38.46 115.95 115.95 0 0 0-120.13-100.9c-19.21.86-37.91 6.5-54.41 16.4a142.75 142.75 0 0 0-96.57-114.8 142.47 142.47 0 0 0-145.77 35.1 211.05 211.05 0 0 0-81.3-119.51 210.7 210.7 0 0 0-270.64 20.6 211.13 211.13 0 0 0-62.31 130.44 114.07 114.07 0 0 0-48.56-10.51 115.85 115.85 0 0 0-72.44 25.22c-20.59 16.4-35 39.3-40.85 64.98H205.9a115.4 115.4 0 0 0-97.11 52.98 115.88 115.88 0 0 0-77.04 37.03 116.1 116.1 0 0 0 1.5 159.03 115.87 115.87 0 0 0 77.72 35.56h1091.85a115.87 115.87 0 0 0 79.02-35.8 116.1 116.1 0 0 0 32.08-80.67ZM918.05 394.9v169.02M807.38 510.94v42.47M612.29 455.77v105.52M390.5 413.3v144.48M216.84 561.29v-58.24"/><path stroke="#fff" stroke-miterlimit="10" d="M1002.48 370.82a26.26 26.26 0 0 0 26.25-26.27 26.26 26.26 0 1 0-52.5 0 26.26 26.26 0 0 0 26.25 26.27ZM654.28 365.57a26.26 26.26 0 0 0 26.25-26.27 26.26 26.26 0 1 0-26.25 26.27ZM860.32 370.82a26.26 26.26 0 0 0 26.25-26.27 26.26 26.26 0 1 0-26.25 26.27ZM390.5 413.3a26.26 26.26 0 0 0 26.25-26.28 26.26 26.26 0 0 0-26.24-26.27 26.26 26.26 0 0 0-26.25 26.27 26.26 26.26 0 0 0 26.25 26.27ZM216.85 503.06a26.26 26.26 0 0 0 26.24-26.28 26.26 26.26 0 1 0-52.5 0 26.26 26.26 0 0 0 26.26 26.28ZM390.5 244.28a26.26 26.26 0 0 0 26.25-26.27 26.26 26.26 0 0 0-26.24-26.27A26.26 26.26 0 0 0 364.26 218a26.26 26.26 0 0 0 26.25 26.27Z"/><path stroke="#fff" stroke-miterlimit="10" d="M659.53 323.53c1.68-25.5 13-49.41 31.63-66.88a100.56 100.56 0 0 1 137.52 0 100.75 100.75 0 0 1 31.64 66.88M796.88 157.15a207.73 207.73 0 0 1-12.25 70.5M1039.66 239.03c-24.94 20.58-37.18 49.91-37.18 84.5M1134.58 556.03c0-29.42 11.65-57.64 32.39-78.48a111.05 111.05 0 0 1 78.28-32.73M105.73 323.53c29.4 0 57.59 11.66 78.41 32.42a111.27 111.27 0 0 1 32.7 78.36"/><path fill="#fff" d="M404.56 330.82c-4.41 4.41-11.04 6.81-16.9 6.81-16.6 0-23.03-11.61-23.13-22.75-.1-11.23 6.91-23.33 23.14-23.33 5.85 0 11.8 2.02 16.22 6.34l8.45-8.16a34.67 34.67 0 0 0-24.67-10.27c-24.3 0-35.72 17.85-35.62 35.42.1 17.47 10.66 34.66 35.62 34.66 9.7 0 18.62-3.17 25.53-9.99l-8.64-8.73Zm36.25-31.1c-15.07 0-24.48 11.13-24.48 24.66 0 13.64 9.22 24.68 24.58 24.68 15.36 0 24.67-11.04 24.67-24.68 0-13.53-9.7-24.67-24.76-24.67Zm.1 10.65c7.87 0 12.86 6.91 12.86 14.01 0 7.2-4.31 13.92-12.86 13.92-8.54 0-12.86-6.72-12.86-13.92 0-7.1 4.41-14.01 12.86-14.01ZM516.87 348v-25.34c0-6.24 3.93-11.72 10.27-11.72s8.93 5.28 8.93 11.52V348h11.71v-25.54c0-14.2-6.62-22.46-20.06-22.46-6.15 0-11.62 1.92-15.84 8.64-2.7-6.53-8.36-8.83-14.02-8.83-4.51 0-9.98 1.73-12.48 6.53l-.86-5.76h-10.85V348h11.71v-25.34c0-6.24 3.74-11.9 10.08-11.9 6.43 0 9.7 5.66 9.7 11.9V348h11.7Zm54.57-47.52V348h-11.7v-47.52h11.7Zm-12.77-13.15c0 9.12 13.83 9.12 13.83 0s-13.83-9.12-13.83 0ZM628.6 348v-24.86c0-14.88-8.93-23.24-20.06-23.24-5.95 0-10.75 2.4-15.55 7.1l-.77-6.42h-10.47V348h11.62v-24.2c0-7.2 4.9-13.24 12.1-13.24 7.49 0 11.42 5.47 11.42 12.67V348h11.71Zm42.52-46.18c-3.27-2.2-7.1-2.68-10.85-2.68-13.25 0-24 9.21-24 24 0 14.78 9.21 23.8 24 23.8 5.85 0 12 2.98 12 9.5 0 6.54-5.28 10.18-12 10.18s-12.39-4.03-12.39-10.17h-11.61c0 12.77 10.27 21.12 24 21.12s23.71-8.07 23.71-21.12c0-6.05-1.92-11.71-9.8-15.65 7.78-3.55 10-11.8 10-17.66 0-5.19-1.35-9.9-5-14.02l5.28-6.72-8.64-6.53-4.7 5.95Zm-10.85 7.97c6.72 0 12.29 5.19 12.29 13.35s-5.57 13.15-12.3 13.15c-6.8 0-12.38-4.9-12.38-13.15 0-8.26 5.57-13.35 12.39-13.35Zm88.21-4.22c-5.47-4.8-11.04-6.24-18.43-6.24-8.64 0-19.97 3.84-19.97 14.78 0 10.75 10.66 14.02 19.59 14.69 6.72.38 9.4 1.73 9.4 5 0 3.45-4.12 5.75-8.54 5.66-5.28-.1-12.96-2.88-16.32-6.63l-5.76 8.35c6.91 7.2 14.4 8.45 21.89 8.45 13.53 0 20.35-7.2 20.35-15.55 0-12.58-11.33-14.6-20.26-15.17-6.04-.38-8.83-2.11-8.83-5.18 0-2.98 3.07-4.7 8.64-4.7 4.51 0 8.36 1.05 11.72 4.22l6.52-7.68Zm32-5.86c-15.08 0-24.49 11.14-24.49 24.67 0 13.64 9.22 24.68 24.58 24.68 15.36 0 24.67-11.04 24.67-24.68 0-13.53-9.7-24.67-24.77-24.67Zm.09 10.66c7.87 0 12.86 6.91 12.86 14.01 0 7.2-4.32 13.92-12.86 13.92-8.55 0-12.87-6.72-12.87-13.92 0-7.1 4.42-14.01 12.87-14.01Zm55.03-10.66c-15.08 0-24.48 11.14-24.48 24.67 0 13.64 9.21 24.68 24.57 24.68s24.67-11.04 24.67-24.68c0-13.53-9.7-24.67-24.76-24.67Zm.1 10.66c7.86 0 12.86 6.91 12.86 14.01 0 7.2-4.32 13.92-12.87 13.92-8.54 0-12.86-6.72-12.86-13.92 0-7.1 4.41-14.01 12.86-14.01ZM915 348v-24.86c0-14.88-8.92-23.24-20.05-23.24-5.96 0-10.76 2.4-15.56 7.1l-.76-6.42h-10.47V348h11.62v-24.2c0-7.2 4.9-13.24 12.1-13.24 7.48 0 11.42 5.47 11.42 12.67V348H915Zm9.79-6.05c0 9.12 13.82 9.12 13.82 0s-13.82-9.12-13.82 0Zm23.25 0c0 9.12 13.82 9.12 13.82 0s-13.82-9.12-13.82 0Z"/></svg>