<svg xmlns="http://www.w3.org/2000/svg" width="1315" height="564" fill="none"><path stroke="#fff" stroke-miterlimit="10" d="M1314 439.6a116.5 116.5 0 0 0-101.5-115.2 116.1 116.1 0 0 0-120.2-100.9c-19.2.9-37.9 6.5-54.4 16.4a142.8 142.8 0 0 0-242.3-79.7A211 211 0 0 0 575.2 1.6a210.8 210.8 0 0 0-193.9 190.1 114 114 0 0 0-48.5-10.5 115.8 115.8 0 0 0-113.3 90.2h-13.6a115.4 115.4 0 0 0-97.1 53 115.9 115.9 0 0 0-75.5 196c20.4 21.4 48.2 34.1 77.7 35.6h1091.8A115.9 115.9 0 0 0 1314 439.6ZM918 394.9v169M807.4 511v42.4M612.3 455.8v105.5M390.5 413.3v144.5M216.8 561.3V503"/><path stroke="#fff" stroke-miterlimit="10" d="M1002.5 370.8a26.3 26.3 0 1 0 0-52.5 26.3 26.3 0 0 0 0 52.5ZM654.3 365.6a26.3 26.3 0 1 0 0-52.6 26.3 26.3 0 0 0 0 52.6ZM860.3 370.8a26.3 26.3 0 1 0 0-52.5 26.3 26.3 0 0 0 0 52.5ZM390.5 413.3a26.3 26.3 0 1 0 0-52.5 26.3 26.3 0 0 0 0 52.5ZM216.8 503a26.3 26.3 0 1 0 0-52.5 26.3 26.3 0 0 0 0 52.6ZM390.5 244.3a26.3 26.3 0 1 0 0-52.5 26.3 26.3 0 0 0 0 52.5Z"/><path stroke="#fff" stroke-miterlimit="10" d="M659.5 323.5a100.7 100.7 0 0 1 169.2-66.8c18.6 17.4 30 41.3 31.6 66.8"/><path stroke="#fff" stroke-miterlimit="10" d="M796.9 157.1c0 24-4.1 48-12.3 70.5M1039.7 239c-25 20.6-37.2 50-37.2 84.5M1134.6 556a111.3 111.3 0 0 1 110.7-111.2M105.7 323.5a111 111 0 0 1 111.1 110.8"/><path fill="#fff" d="M384.8 330.8c-4.4 4.4-11 6.8-17 6.8-16.5 0-23-11.6-23-22.7-.1-11.3 6.9-23.3 23-23.3a23 23 0 0 1 16.3 6.3l8.5-8.2a34.7 34.7 0 0 0-24.7-10.2c-24.3 0-35.7 17.8-35.6 35.4 0 17.5 10.6 34.6 35.6 34.6 9.7 0 18.6-3.1 25.5-10l-8.6-8.7Zm36.2-31c-15 0-24.4 11-24.4 24.6 0 13.6 9.2 24.7 24.5 24.7 15.4 0 24.7-11 24.7-24.7a24 24 0 0 0-24.8-24.7Zm.1 10.6c7.9 0 12.9 6.9 12.9 14 0 7.2-4.3 13.9-12.9 13.9-8.5 0-12.8-6.7-12.8-14 0-7 4.4-14 12.8-14Zm76 37.6v-25.3c0-6.3 4-11.8 10.3-11.8 6.3 0 8.9 5.3 8.9 11.6V348H528v-25.5c0-14.2-6.6-22.5-20-22.5-6.2 0-11.7 2-15.9 8.6-2.7-6.5-8.4-8.8-14-8.8-4.5 0-10 1.7-12.5 6.5l-.9-5.7H454V348h11.7v-25.3c0-6.3 3.7-12 10-12 6.5 0 9.8 5.7 9.8 12V348H497Zm86 0v-25.3c0-6.3 4-11.8 10.3-11.8 6.4 0 9 5.3 9 11.6V348H614v-25.5c0-14.2-6.7-22.5-20.1-22.5-6.1 0-11.6 2-15.8 8.6-2.7-6.5-8.4-8.8-14-8.8-4.6 0-10 1.7-12.5 6.5l-.9-5.7h-10.9V348h11.8v-25.3c0-6.3 3.7-12 10-12 6.5 0 9.7 5.7 9.7 12V348h11.7Zm54.6-47.5V348H626v-47.5h11.7ZM625 287.3c0 9.1 13.8 9.1 13.8 0 0-9-13.8-9-13.8 0Zm69.9 60.7v-24.9c0-14.8-9-23.2-20-23.2-6 0-10.8 2.4-15.6 7.1l-.8-6.4H648V348h11.7v-24.2c0-7.2 4.8-13.2 12-13.2 7.5 0 11.5 5.4 11.5 12.6V348h11.7Zm42.5-46.2a18.9 18.9 0 0 0-10.9-2.7 23 23 0 0 0-24 24c0 14.8 9.3 23.8 24 23.8 5.9 0 12 3 12 9.5 0 6.6-5.2 10.2-12 10.2-6.7 0-12.3-4-12.3-10.2h-11.7c0 12.8 10.3 21.2 24 21.2 13.8 0 23.8-8.1 23.8-21.2 0-6-2-11.7-9.8-15.6 7.7-3.6 10-11.8 10-17.7 0-5.1-1.4-9.9-5-14l5.2-6.7-8.6-6.5-4.7 6Zm-10.9 8c6.8 0 12.3 5.2 12.3 13.3 0 8.2-5.5 13.2-12.3 13.2-6.8 0-12.3-5-12.3-13.2s5.5-13.3 12.3-13.3Zm88.3-4.2c-5.5-4.8-11-6.3-18.5-6.3-8.6 0-20 3.9-20 14.8 0 10.8 10.7 14 19.6 14.7 6.8.4 9.5 1.7 9.5 5 0 3.4-4.2 5.8-8.6 5.7a26 26 0 0 1-16.3-6.7l-5.8 8.4c7 7.2 14.4 8.4 22 8.4 13.5 0 20.3-7.2 20.3-15.5 0-12.6-11.4-14.6-20.3-15.2-6-.4-8.8-2.1-8.8-5.2 0-3 3-4.7 8.6-4.7 4.5 0 8.4 1 11.7 4.2l6.6-7.6Zm32-5.9c-15.1 0-24.5 11.1-24.5 24.7s9.2 24.7 24.5 24.7c15.4 0 24.7-11 24.7-24.7a24 24 0 0 0-24.7-24.7Zm0 10.7c8 0 13 6.9 13 14 0 7.2-4.4 13.9-13 13.9-8.5 0-12.8-6.7-12.8-14 0-7 4.4-14 12.8-14Zm55-10.7c-15 0-24.4 11.1-24.4 24.7S886.6 349 902 349c15.3 0 24.6-11 24.6-24.7a24 24 0 0 0-24.7-24.7Zm.2 10.7c7.8 0 12.8 6.9 12.8 14 0 7.2-4.3 13.9-12.8 13.9-8.6 0-12.9-6.7-12.9-14 0-7 4.4-14 12.9-14Zm79.3 37.6v-24.9c0-14.8-9-23.2-20-23.2-6 0-10.8 2.4-15.6 7.1l-.8-6.4h-10.5V348h11.7v-24.2c0-7.2 4.9-13.2 12-13.2 7.5 0 11.5 5.4 11.5 12.6V348h11.7Z"/></svg>