<svg xmlns="http://www.w3.org/2000/svg" width="390" height="589" fill="none"><path stroke="#fff" stroke-miterlimit="10" d="M340 178.37a47.13 47.13 0 0 0-41.05-46.57 46.96 46.96 0 0 0-26.07-36.17 46.84 46.84 0 0 0-44.51 2 57.75 57.75 0 0 0-39.06-46.44 57.62 57.62 0 0 0-58.96 14.2 85.36 85.36 0 0 0-32.88-48.34 85.21 85.21 0 0 0-109.45 8.33 85.39 85.39 0 0 0-25.2 52.76 46.14 46.14 0 0 0-19.64-4.25 46.85 46.85 0 0 0-45.82 36.48h-5.49a46.67 46.67 0 0 0-39.27 21.43 46.95 46.95 0 0 0 .88 93.68h441.58a46.86 46.86 0 0 0 44.94-47.1ZM179.9 160.31v68.35M135.13 207.24v17.17M56.23 184.92v42.68"/><path stroke="#fff" stroke-miterlimit="10" d="M214.04 150.57a10.62 10.62 0 1 0-.01-21.24 10.62 10.62 0 0 0 0 21.24ZM73.21 148.44a10.62 10.62 0 1 0 0-21.24 10.62 10.62 0 0 0 0 21.24ZM156.54 150.57a10.62 10.62 0 1 0-.01-21.24 10.62 10.62 0 0 0 .01 21.24Z"/><path stroke="#fff" stroke-miterlimit="10" d="M75.33 131.44a40.74 40.74 0 0 1 40.6-38.04 40.67 40.67 0 0 1 40.6 38.04M130.88 64.15a84.01 84.01 0 0 1-4.95 28.51M229.07 97.27c-10.08 8.32-15.04 20.19-15.04 34.17M267.46 225.48a44.92 44.92 0 0 1 44.76-44.98M657 538.37a47.13 47.13 0 0 0-41.04-46.57 46.96 46.96 0 0 0-26.08-36.17 46.83 46.83 0 0 0-44.51 2 57.75 57.75 0 0 0-39.06-46.44 57.62 57.62 0 0 0-58.96 14.2 85.36 85.36 0 0 0-32.88-48.33 85.21 85.21 0 0 0-109.45 8.32 85.39 85.39 0 0 0-25.2 52.76 46.12 46.12 0 0 0-19.64-4.25 46.86 46.86 0 0 0-45.82 36.48h-5.49a46.67 46.67 0 0 0-39.27 21.43 46.95 46.95 0 0 0 .88 93.68h441.58a46.86 46.86 0 0 0 44.94-47.1ZM373.23 544.92v42.68M283.53 527.75v58.43M213.3 587.6v-23.55"/><path stroke="#fff" stroke-miterlimit="10" d="M390.21 508.44a10.62 10.62 0 1 0 0-21.24 10.62 10.62 0 0 0 0 21.25ZM283.53 527.75a10.62 10.62 0 1 0-.01-21.24 10.62 10.62 0 0 0 .01 21.24ZM213.3 564.05a10.62 10.62 0 1 0-.01-21.24 10.62 10.62 0 0 0 0 21.24ZM283.53 459.4a10.62 10.62 0 1 0-.01-21.25 10.62 10.62 0 0 0 .01 21.24ZM168.36 491.44a45 45 0 0 1 44.94 44.8"/><path fill="#fff" d="M119.02 305.54a16.5 16.5 0 0 1-11.26 4.55c-11.08 0-15.36-7.75-15.43-15.17-.06-7.49 4.61-15.55 15.43-15.55 3.9 0 7.87 1.34 10.81 4.22l5.63-5.44a23.11 23.11 0 0 0-16.44-6.85c-16.2 0-23.81 11.9-23.75 23.62.07 11.65 7.1 23.1 23.75 23.1 6.46 0 12.41-2.1 17.02-6.65l-5.76-5.83Zm24.17-20.73c-10.05 0-16.32 7.42-16.32 16.45 0 9.08 6.14 16.44 16.38 16.44 10.24 0 16.45-7.36 16.45-16.44 0-9.03-6.46-16.45-16.51-16.45Zm.06 7.1c5.25 0 8.58 4.61 8.58 9.35 0 4.8-2.88 9.28-8.58 9.28s-8.57-4.48-8.57-9.28c0-4.74 2.94-9.35 8.57-9.35ZM193.9 317v-16.9c0-4.16 2.63-7.8 6.85-7.8s5.95 3.52 5.95 7.68V317h7.8v-17.02c0-9.48-4.4-14.98-13.37-14.98-4.1 0-7.74 1.28-10.56 5.76-1.79-4.35-5.56-5.89-9.34-5.89-3 0-6.66 1.15-8.32 4.35l-.58-3.84h-7.23V317h7.8v-16.9c0-4.16 2.5-7.93 6.73-7.93 4.29 0 6.46 3.77 6.46 7.93V317h7.81Zm36.38-31.68V317h-7.8v-31.68h7.8Zm-8.5-8.77c0 6.08 9.2 6.08 9.2 0s-9.2-6.08-9.2 0ZM268.37 317v-16.58c0-9.92-5.95-15.48-13.38-15.48-3.96 0-7.16 1.6-10.36 4.73l-.51-4.29h-6.98V317h7.74v-16.13c0-4.8 3.27-8.83 8.07-8.83 4.99 0 7.61 3.65 7.61 8.45V317h7.81Zm28.34-30.78c-2.17-1.48-4.73-1.8-7.23-1.8-8.83 0-16 6.15-16 16 0 9.86 6.14 15.88 16 15.88 3.9 0 8 1.98 8 6.33s-3.52 6.79-8 6.79-8.25-2.7-8.25-6.79h-7.75c0 8.51 6.85 14.08 16 14.08s15.8-5.37 15.8-14.08c0-4.03-1.27-7.8-6.52-10.43 5.19-2.37 6.66-7.87 6.66-11.78 0-3.45-.9-6.59-3.33-9.34l3.52-4.48-5.76-4.35-3.14 3.97Zm-7.23 5.3c4.48 0 8.2 3.46 8.2 8.9s-3.72 8.77-8.2 8.77c-4.54 0-8.25-3.26-8.25-8.77 0-5.5 3.7-8.9 8.25-8.9Zm-138.31 61.2c-3.65-3.2-7.36-4.17-12.3-4.17-5.75 0-13.3 2.56-13.3 9.86 0 7.17 7.1 9.34 13.05 9.79 4.48.26 6.27 1.15 6.27 3.33 0 2.3-2.75 3.84-5.7 3.77-3.51-.06-8.63-1.92-10.87-4.41l-3.84 5.57c4.6 4.8 9.6 5.63 14.59 5.63 9.02 0 13.57-4.8 13.57-10.37 0-8.38-7.55-9.73-13.5-10.11-4.04-.26-5.9-1.41-5.9-3.46 0-1.98 2.05-3.13 5.77-3.13 3 0 5.56.7 7.8 2.81l4.36-5.12Zm21.32-3.91c-10.05 0-16.32 7.42-16.32 16.45 0 9.08 6.15 16.44 16.39 16.44S189 374.34 189 365.26c0-9.03-6.46-16.45-16.5-16.45Zm.07 7.1c5.24 0 8.57 4.61 8.57 9.35 0 4.8-2.88 9.28-8.57 9.28-5.7 0-8.58-4.48-8.58-9.28 0-4.74 2.94-9.35 8.58-9.35Zm36.68-7.1c-10.05 0-16.32 7.42-16.32 16.45 0 9.08 6.15 16.44 16.39 16.44s16.44-7.36 16.44-16.44c0-9.03-6.46-16.45-16.5-16.45Zm.07 7.1c5.24 0 8.57 4.61 8.57 9.35 0 4.8-2.88 9.28-8.57 9.28-5.7 0-8.58-4.48-8.58-9.28 0-4.74 2.94-9.35 8.58-9.35ZM262.19 381v-16.58c0-9.92-5.95-15.48-13.37-15.48-3.97 0-7.17 1.6-10.37 4.73l-.51-4.29h-6.98V381h7.75v-16.13c0-4.8 3.26-8.83 8.06-8.83 5 0 7.62 3.65 7.62 8.45V381h7.8Z"/></svg>