<svg xmlns="http://www.w3.org/2000/svg" width="390" height="589" fill="none"><path stroke="#fff" stroke-miterlimit="10" d="M340 178.4a47.1 47.1 0 0 0-41-46.6 47 47 0 0 0-70.6-34.2 57.8 57.8 0 0 0-98-32.2A85.4 85.4 0 0 0-37.2 78a46.9 46.9 0 0 0-65.5 32.2h-5.4a46.7 46.7 0 0 0-39.3 21.5 46.9 46.9 0 0 0 .9 93.7H295a46.9 46.9 0 0 0 44.9-47.1ZM179.9 160.3v68.4M135.1 207.2v17.2M56.2 185v42.6"/><path stroke="#fff" stroke-miterlimit="10" d="M214 150.6a10.6 10.6 0 1 0 0-21.3 10.6 10.6 0 0 0 0 21.3ZM73.2 148.4a10.6 10.6 0 1 0 0-21.2 10.6 10.6 0 0 0 0 21.2ZM156.5 150.6a10.6 10.6 0 1 0 0-21.3 10.6 10.6 0 0 0 0 21.3Z"/><path stroke="#fff" stroke-miterlimit="10" d="M75.3 131.4a40.7 40.7 0 0 1 81.2 0"/><path stroke="#fff" stroke-miterlimit="10" d="M130.9 64.2a84 84 0 0 1-5 28.5M229 97.3c-10 8.3-15 20.2-15 34.1M267.5 225.5a45 45 0 0 1 44.7-45M657 538.4a47.1 47.1 0 0 0-41-46.6 47 47 0 0 0-70.6-34.2 57.7 57.7 0 0 0-98-32.2A85.4 85.4 0 0 0 279.8 438a46.9 46.9 0 0 0-65.5 32.2H209a46.7 46.7 0 0 0-39.3 21.5 46.9 46.9 0 0 0 .9 93.7H612a46.9 46.9 0 0 0 44.9-47.1ZM373.2 545v42.6M283.5 527.7v58.5M213.3 587.6V564"/><path stroke="#fff" stroke-miterlimit="10" d="M390.2 508.4a10.6 10.6 0 1 0 0-21.2 10.6 10.6 0 0 0 0 21.2ZM283.5 527.7a10.6 10.6 0 1 0 0-21.2 10.6 10.6 0 0 0 0 21.2ZM213.3 564a10.6 10.6 0 1 0 0-21.2 10.6 10.6 0 0 0 0 21.2ZM283.5 459.4a10.6 10.6 0 1 0 0-21.2 10.6 10.6 0 0 0 0 21.2ZM168.4 491.4a45 45 0 0 1 44.9 44.8"/><path fill="#fff" d="M90.3 305.5c-3 3-7.3 4.6-11.2 4.6-11.1 0-15.4-7.8-15.5-15.2 0-7.5 4.7-15.5 15.5-15.5 3.9 0 7.8 1.3 10.8 4.2l5.6-5.4a23.1 23.1 0 0 0-16.4-6.9c-16.2 0-23.8 12-23.8 23.6 0 11.7 7.1 23.1 23.8 23.1 6.4 0 12.4-2 17-6.6l-5.8-5.9Zm24.2-20.7c-10 0-16.3 7.4-16.3 16.5 0 9 6.1 16.4 16.4 16.4 10.2 0 16.4-7.4 16.4-16.4a16 16 0 0 0-16.5-16.5Zm0 7.1c5.3 0 8.6 4.6 8.6 9.4 0 4.8-2.8 9.2-8.5 9.2s-8.6-4.4-8.6-9.2c0-4.8 3-9.4 8.6-9.4Zm50.7 25.1v-16.9c0-4.2 2.6-7.8 6.9-7.8 4.2 0 5.9 3.5 5.9 7.7v17h7.8v-17c0-9.5-4.4-15-13.4-15-4 0-7.7 1.3-10.5 5.8-1.8-4.4-5.6-6-9.4-6-3 0-6.6 1.2-8.3 4.4l-.6-3.8h-7.2V317h7.8v-16.9c0-4.2 2.5-8 6.7-8 4.3 0 6.5 3.8 6.5 8V317h7.8Zm57.4 0v-16.9c0-4.2 2.6-7.8 6.8-7.8 4.3 0 6 3.5 6 7.7v17h7.8v-17c0-9.5-4.4-15-13.4-15-4 0-7.7 1.3-10.5 5.8-1.8-4.4-5.6-6-9.4-6-3 0-6.6 1.2-8.3 4.4l-.6-3.8h-7.2V317h7.8v-16.9c0-4.2 2.5-8 6.7-8 4.3 0 6.5 3.8 6.5 8V317h7.8Zm36.4-31.7V317h-7.8v-31.7h7.8Zm-8.6-8.7c0 6 9.3 6 9.3 0 0-6.1-9.3-6.1-9.3 0Zm46.7 40.4v-16.6c0-9.9-6-15.5-13.4-15.5-4 0-7.2 1.6-10.4 4.8l-.5-4.3h-7V317h7.8v-16.1c0-4.8 3.2-8.9 8-8.9 5 0 7.7 3.7 7.7 8.5V317h7.8Zm28.3-30.8a12.6 12.6 0 0 0-7.2-1.8c-8.9 0-16 6.2-16 16 0 9.9 6.1 15.9 16 15.9 3.9 0 8 2 8 6.3 0 4.4-3.5 6.8-8 6.8s-8.3-2.7-8.3-6.8h-7.7c0 8.5 6.8 14.1 16 14.1 9.1 0 15.8-5.4 15.8-14 0-4.1-1.3-7.9-6.5-10.5 5.1-2.4 6.6-7.9 6.6-11.8 0-3.4-.9-6.6-3.3-9.3l3.5-4.5-5.8-4.4-3 4Zm-7.2 5.3c4.5 0 8.2 3.5 8.2 9 0 5.4-3.7 8.7-8.2 8.7-4.6 0-8.3-3.3-8.3-8.8 0-5.5 3.7-8.9 8.3-8.9Zm-167 61.2a17 17 0 0 0-12.3-4.1c-5.8 0-13.3 2.5-13.3 9.8 0 7.2 7 9.4 13 9.8 4.5.3 6.3 1.2 6.3 3.3 0 2.3-2.7 3.9-5.7 3.8-3.5 0-8.6-2-10.9-4.4l-3.8 5.6c4.6 4.8 9.6 5.6 14.6 5.6 9 0 13.5-4.8 13.5-10.4 0-8.4-7.5-9.7-13.5-10-4-.3-5.8-1.5-5.8-3.5s2-3.2 5.7-3.2c3 0 5.6.7 7.8 2.8l4.4-5Zm21.3-3.9c-10 0-16.3 7.4-16.3 16.5 0 9 6.1 16.4 16.4 16.4 10.2 0 16.4-7.4 16.4-16.4a16 16 0 0 0-16.5-16.5Zm0 7.1c5.3 0 8.6 4.6 8.6 9.4 0 4.8-2.8 9.2-8.5 9.2s-8.6-4.4-8.6-9.2c0-4.8 3-9.4 8.6-9.4Zm36.8-7c-10.1 0-16.4 7.3-16.4 16.4 0 9 6.2 16.4 16.4 16.4 10.3 0 16.5-7.4 16.5-16.4a16 16 0 0 0-16.5-16.5Zm0 7c5.3 0 8.6 4.6 8.6 9.4 0 4.8-2.9 9.2-8.6 9.2-5.7 0-8.6-4.4-8.6-9.2 0-4.8 3-9.4 8.6-9.4Zm52.9 25.1v-16.6c0-9.9-6-15.5-13.4-15.5-4 0-7.2 1.6-10.4 4.8l-.5-4.3h-7V381h7.8v-16.1c0-4.8 3.3-8.9 8-8.9 5 0 7.7 3.7 7.7 8.5V381h7.8Z"/></svg>