<svg xmlns="http://www.w3.org/2000/svg" width="1555" height="503" fill="none"><path fill="#EBCA71" stroke="#fff" stroke-miterlimit="10" d="M463 410.2a24.8 24.8 0 0 0-21.6-24.5 24.7 24.7 0 0 0-37.1-18 30.3 30.3 0 0 0-51.5-16.9 44.8 44.8 0 0 0-88 6.7 24.6 24.6 0 0 0-34.4 17h-2.9a24.5 24.5 0 0 0-20.6 11.2 24.6 24.6 0 0 0 .5 49.2h232a24.6 24.6 0 0 0 23.5-24.7Z"/><path stroke="#fff" stroke-miterlimit="10" d="M378.8 400.7v35.9m-23.5-11.3v9m-41.4-20.7V436m-47.1-31.4v30.7m-36.9.7v-12.3"/><path fill="#EBCA71" stroke="#fff" stroke-miterlimit="10" d="M396.8 395.6a5.6 5.6 0 1 0 0-11.2 5.6 5.6 0 0 0 0 11.2Zm-74-1.1a5.6 5.6 0 1 0 0-11.2 5.6 5.6 0 0 0 0 11.2Zm43.8 1.1a5.6 5.6 0 1 0 0-11.2 5.6 5.6 0 0 0 0 11.2Zm-99.8 9a5.6 5.6 0 1 0 0-11.2 5.6 5.6 0 0 0 0 11.2Zm-36.9 19.1a5.6 5.6 0 1 0 0-11.2 5.6 5.6 0 0 0 0 11.2Zm36.9-55a5.6 5.6 0 1 0 0-11.2 5.6 5.6 0 0 0 0 11.2Z"/><path fill="#EBCA71" d="M324 385.5a21.4 21.4 0 0 1 42.6 0"/><path stroke="#fff" stroke-miterlimit="10" d="M324 385.5a21.4 21.4 0 0 1 42.6 0M353 350.2c0 5-.8 10.1-2.5 15m54.2 2.4a22.3 22.3 0 0 0-8 18m28.1 49.4a23.6 23.6 0 0 1 23.5-23.7m-242-25.8a23.6 23.6 0 0 1 23.6 23.6"/><path fill="#EBCA71" stroke="#fff" stroke-miterlimit="10" d="M294 273.2a24.8 24.8 0 0 0-21.6-24.5 24.7 24.7 0 0 0-37.1-18 30.3 30.3 0 0 0-51.5-16.9 44.8 44.8 0 0 0-88 6.7 24.6 24.6 0 0 0-34.4 17h-2.9A24.5 24.5 0 0 0 38 248.7a24.6 24.6 0 0 0 .5 49.2h232a24.6 24.6 0 0 0 23.5-24.7Z"/><path stroke="#fff" stroke-miterlimit="10" d="M209.8 263.7v35.9m-23.5-11.3v9m-41.4-20.7V299m-47.1-31.4v30.7m-36.9.7v-12.3"/><path fill="#EBCA71" stroke="#fff" stroke-miterlimit="10" d="M227.8 258.6a5.6 5.6 0 1 0 0-11.2 5.6 5.6 0 0 0 0 11.2Zm-74-1.1a5.6 5.6 0 1 0 0-11.2 5.6 5.6 0 0 0 0 11.2Zm43.8 1.1a5.6 5.6 0 1 0 0-11.2 5.6 5.6 0 0 0 0 11.2Zm-99.8 9a5.6 5.6 0 1 0 0-11.2 5.6 5.6 0 0 0 0 11.2Zm-36.9 19.1a5.6 5.6 0 1 0 0-11.2 5.6 5.6 0 0 0 0 11.2Zm36.9-55a5.6 5.6 0 1 0 0-11.2 5.6 5.6 0 0 0 0 11.2Z"/><path fill="#EBCA71" d="M155 248.5a21.4 21.4 0 0 1 42.6 0"/><path stroke="#fff" stroke-miterlimit="10" d="M155 248.5a21.4 21.4 0 0 1 42.6 0M184 213.2c0 5-.8 10.1-2.5 15m54.2 2.4a22.3 22.3 0 0 0-8 18m28.1 49.4a23.6 23.6 0 0 1 23.5-23.7m-242-25.8a23.6 23.6 0 0 1 23.6 23.6"/><path fill="#EBCA71" stroke="#fff" stroke-miterlimit="10" d="M457 236.2a24.8 24.8 0 0 0-21.6-24.5 24.7 24.7 0 0 0-37.1-18 30.3 30.3 0 0 0-51.5-16.9 44.8 44.8 0 0 0-88 6.7 24.6 24.6 0 0 0-34.4 17h-2.9a24.5 24.5 0 0 0-20.6 11.2 24.6 24.6 0 0 0 .5 49.2h232a24.6 24.6 0 0 0 23.5-24.7Z"/><path stroke="#fff" stroke-miterlimit="10" d="M372.8 226.7v35.9m-23.5-11.3v9m-41.4-20.7V262m-47.1-31.4v30.7m-36.9.7v-12.3"/><path fill="#EBCA71" stroke="#fff" stroke-miterlimit="10" d="M390.8 221.6a5.6 5.6 0 1 0 0-11.2 5.6 5.6 0 0 0 0 11.2Zm-74-1.1a5.6 5.6 0 1 0 0-11.2 5.6 5.6 0 0 0 0 11.2Zm43.8 1.1a5.6 5.6 0 1 0 0-11.2 5.6 5.6 0 0 0 0 11.2Zm-99.8 9a5.6 5.6 0 1 0 0-11.2 5.6 5.6 0 0 0 0 11.2Zm-36.9 19.1a5.6 5.6 0 1 0 0-11.2 5.6 5.6 0 0 0 0 11.2Zm36.9-55a5.6 5.6 0 1 0 0-11.2 5.6 5.6 0 0 0 0 11.2Z"/><path fill="#EBCA71" d="M318 211.5a21.4 21.4 0 0 1 42.6 0"/><path stroke="#fff" stroke-miterlimit="10" d="M318 211.5a21.4 21.4 0 0 1 42.6 0M347 176.2c0 5-.8 10.1-2.5 15m54.2 2.4a22.3 22.3 0 0 0-8 18m28.1 49.4a23.6 23.6 0 0 1 23.5-23.7m-242-25.8a23.6 23.6 0 0 1 23.6 23.6"/><path fill="#EBCA71" stroke="#fff" stroke-miterlimit="10" d="M280 173.2a24.8 24.8 0 0 0-21.6-24.5 24.7 24.7 0 0 0-37.1-18 30.3 30.3 0 0 0-51.5-16.9 44.8 44.8 0 0 0-88 6.7 24.6 24.6 0 0 0-34.4 17h-2.9A24.5 24.5 0 0 0 24 148.7a24.6 24.6 0 0 0 .5 49.2h232a24.6 24.6 0 0 0 23.5-24.7Z"/><path stroke="#fff" stroke-miterlimit="10" d="M195.8 163.7v35.9m-23.5-11.3v9m-41.4-20.7V199m-47.1-31.4v30.7m-36.9.7v-12.3"/><path fill="#EBCA71" stroke="#fff" stroke-miterlimit="10" d="M213.8 158.6a5.6 5.6 0 1 0 0-11.2 5.6 5.6 0 0 0 0 11.2Zm-74-1.1a5.6 5.6 0 1 0 0-11.2 5.6 5.6 0 0 0 0 11.2Zm43.8 1.1a5.6 5.6 0 1 0 0-11.2 5.6 5.6 0 0 0 0 11.2Zm-99.8 9a5.6 5.6 0 1 0 0-11.2 5.6 5.6 0 0 0 0 11.2Zm-36.9 19.1a5.6 5.6 0 1 0 0-11.2 5.6 5.6 0 0 0 0 11.2Zm36.9-55a5.6 5.6 0 1 0 0-11.2 5.6 5.6 0 0 0 0 11.2Z"/><path fill="#EBCA71" d="M141 148.5a21.4 21.4 0 0 1 42.6 0"/><path stroke="#fff" stroke-miterlimit="10" d="M141 148.5a21.4 21.4 0 0 1 42.6 0M170 113.2c0 5-.8 10.1-2.5 15m54.2 2.4a22.3 22.3 0 0 0-8 18m28.1 49.4a23.6 23.6 0 0 1 23.5-23.7m-242-25.8a23.6 23.6 0 0 1 23.6 23.6"/><path fill="#EBCA71" stroke="#fff" stroke-miterlimit="10" d="M1358 94.2a24.8 24.8 0 0 0-21.6-24.5 24.7 24.7 0 0 0-37.1-18 30.4 30.4 0 0 0-51.5-16.9 44.9 44.9 0 0 0-88 6.7 24.6 24.6 0 0 0-34.4 17h-2.9a24.5 24.5 0 0 0-20.6 11.2 24.6 24.6 0 0 0 .5 49.2h232a24.6 24.6 0 0 0 23.5-24.7Z"/><path stroke="#fff" stroke-miterlimit="10" d="M1273.8 84.7v35.9m-23.5-11.3v9m-41.4-20.7V120m-47.1-31.4v30.7m-36.9.7v-12.3"/><path fill="#EBCA71" stroke="#fff" stroke-miterlimit="10" d="M1291.8 79.6a5.6 5.6 0 1 0 0-11.2 5.6 5.6 0 0 0 0 11.2Zm-74-1.1a5.6 5.6 0 1 0 0-11.2 5.6 5.6 0 0 0 0 11.2Zm43.8 1.1a5.6 5.6 0 1 0 0-11.2 5.6 5.6 0 0 0 0 11.2Zm-99.8 9a5.6 5.6 0 1 0 0-11.2 5.6 5.6 0 0 0 0 11.2Zm-36.9 19.1a5.6 5.6 0 1 0 0-11.2 5.6 5.6 0 0 0 0 11.2Zm36.9-55a5.6 5.6 0 1 0 0-11.2 5.6 5.6 0 0 0 0 11.2Z"/><path fill="#EBCA71" d="M1219 69.5a21.4 21.4 0 0 1 42.6 0"/><path stroke="#fff" stroke-miterlimit="10" d="M1219 69.5a21.4 21.4 0 0 1 42.6 0M1248 34.2c0 5-.8 10.1-2.5 15m54.2 2.4a22.3 22.3 0 0 0-8 18m28.1 49.4a23.7 23.7 0 0 1 23.5-23.7m-242-25.8a23.6 23.6 0 0 1 23.6 23.6"/><path fill="#EBCA71" stroke="#fff" stroke-miterlimit="10" d="M1497 170.2a24.8 24.8 0 0 0-21.6-24.5 24.7 24.7 0 0 0-37.1-18 30.4 30.4 0 0 0-51.5-16.9 44.9 44.9 0 0 0-88 6.7 24.6 24.6 0 0 0-34.4 17h-2.9a24.6 24.6 0 0 0-20.6 11.2 24.6 24.6 0 0 0 .5 49.2h232a24.6 24.6 0 0 0 23.5-24.7Z"/><path stroke="#fff" stroke-miterlimit="10" d="M1412.8 160.7v35.9m-23.5-11.3v9m-41.4-20.7V196m-47.1-31.4v30.7m-36.9.7v-12.3"/><path fill="#EBCA71" stroke="#fff" stroke-miterlimit="10" d="M1430.8 155.6a5.6 5.6 0 1 0 0-11.2 5.6 5.6 0 0 0 0 11.2Zm-74-1.1a5.6 5.6 0 1 0 0-11.2 5.6 5.6 0 0 0 0 11.2Zm43.8 1.1a5.6 5.6 0 1 0 0-11.2 5.6 5.6 0 0 0 0 11.2Zm-99.8 9a5.6 5.6 0 1 0 0-11.2 5.6 5.6 0 0 0 0 11.2Zm-36.9 19.1a5.6 5.6 0 1 0 0-11.2 5.6 5.6 0 0 0 0 11.2Zm36.9-55a5.6 5.6 0 1 0 0-11.2 5.6 5.6 0 0 0 0 11.2Z"/><path fill="#EBCA71" d="M1358 145.5a21.4 21.4 0 0 1 42.6 0"/><path stroke="#fff" stroke-miterlimit="10" d="M1358 145.5a21.4 21.4 0 0 1 42.6 0m-13.6-35.3c0 5-.8 10.1-2.5 15m54.2 2.4a22.3 22.3 0 0 0-8 18m28.1 49.4a23.7 23.7 0 0 1 23.5-23.7m-242-25.8a23.6 23.6 0 0 1 23.6 23.6"/><path fill="#EBCA71" stroke="#fff" stroke-miterlimit="10" d="M1416 302.2a24.8 24.8 0 0 0-21.6-24.5 24.7 24.7 0 0 0-37.1-18 30.4 30.4 0 0 0-51.5-16.9 44.9 44.9 0 0 0-88 6.7 24.6 24.6 0 0 0-34.4 17h-2.9a24.6 24.6 0 0 0-20.6 11.2 24.6 24.6 0 0 0 .5 49.2h232a24.6 24.6 0 0 0 23.5-24.7Z"/><path stroke="#fff" stroke-miterlimit="10" d="M1331.8 292.7v35.9m-23.5-11.3v9m-41.4-20.7V328m-47.1-31.4v30.7m-36.9.7v-12.3"/><path fill="#EBCA71" stroke="#fff" stroke-miterlimit="10" d="M1349.8 287.6a5.6 5.6 0 1 0 0-11.2 5.6 5.6 0 0 0 0 11.2Zm-74-1.1a5.6 5.6 0 1 0 0-11.2 5.6 5.6 0 0 0 0 11.2Zm43.8 1.1a5.6 5.6 0 1 0 0-11.2 5.6 5.6 0 0 0 0 11.2Zm-99.8 9a5.6 5.6 0 1 0 0-11.2 5.6 5.6 0 0 0 0 11.2Zm-36.9 19.1a5.6 5.6 0 1 0 0-11.2 5.6 5.6 0 0 0 0 11.2Zm36.9-55a5.6 5.6 0 1 0 0-11.2 5.6 5.6 0 0 0 0 11.2Z"/><path fill="#EBCA71" d="M1277 277.5a21.4 21.4 0 0 1 42.6 0"/><path stroke="#fff" stroke-miterlimit="10" d="M1277 277.5a21.4 21.4 0 0 1 42.6 0m-13.6-35.3c0 5-.8 10.1-2.5 15m54.2 2.4a22.3 22.3 0 0 0-8 18m28.1 49.4a23.7 23.7 0 0 1 23.5-23.7m-242-25.8a23.6 23.6 0 0 1 23.6 23.6"/><path fill="#EBCA71" stroke="#fff" stroke-miterlimit="10" d="M1554 349.2a24.8 24.8 0 0 0-21.6-24.5 24.7 24.7 0 0 0-37.1-18 30.4 30.4 0 0 0-51.5-16.9 44.9 44.9 0 0 0-88 6.7 24.6 24.6 0 0 0-34.4 17h-2.9a24.6 24.6 0 0 0-20.6 11.2 24.6 24.6 0 0 0 .5 49.2h232a24.6 24.6 0 0 0 23.5-24.7Z"/><path stroke="#fff" stroke-miterlimit="10" d="M1469.8 339.7v35.9m-23.5-11.3v9m-41.4-20.7V375m-47.1-31.4v30.7m-36.9.7v-12.3"/><path fill="#EBCA71" stroke="#fff" stroke-miterlimit="10" d="M1487.8 334.6a5.6 5.6 0 1 0 0-11.2 5.6 5.6 0 0 0 0 11.2Zm-74-1.1a5.6 5.6 0 1 0 0-11.2 5.6 5.6 0 0 0 0 11.2Zm43.8 1.1a5.6 5.6 0 1 0 0-11.2 5.6 5.6 0 0 0 0 11.2Zm-99.8 9a5.6 5.6 0 1 0 0-11.2 5.6 5.6 0 0 0 0 11.2Zm-36.9 19.1a5.6 5.6 0 1 0 0-11.2 5.6 5.6 0 0 0 0 11.2Zm36.9-55a5.6 5.6 0 1 0 0-11.2 5.6 5.6 0 0 0 0 11.2Z"/><path fill="#EBCA71" d="M1415 324.5a21.4 21.4 0 0 1 42.6 0"/><path stroke="#fff" stroke-miterlimit="10" d="M1415 324.5a21.4 21.4 0 0 1 42.6 0m-13.6-35.3c0 5-.8 10.1-2.5 15m54.2 2.4a22.3 22.3 0 0 0-8 18m28.1 49.4a23.7 23.7 0 0 1 23.5-23.7m-242-25.8a23.6 23.6 0 0 1 23.6 23.6"/><path fill="#EBCA71" stroke="#fff" stroke-miterlimit="10" d="M355 326.2a24.8 24.8 0 0 0-21.6-24.5 24.7 24.7 0 0 0-37.1-18 30.3 30.3 0 0 0-51.5-16.9 44.8 44.8 0 0 0-88 6.7 24.6 24.6 0 0 0-34.4 17h-2.9A24.5 24.5 0 0 0 99 301.7a24.6 24.6 0 0 0 .5 49.2h232a24.6 24.6 0 0 0 23.5-24.7Z"/><path stroke="#fff" stroke-miterlimit="10" d="M270.8 316.7v35.9m-23.5-11.3v9m-41.4-20.7V352m-47.1-31.4v30.7m-36.9.7v-12.3"/><path fill="#EBCA71" stroke="#fff" stroke-miterlimit="10" d="M288.8 311.6a5.6 5.6 0 1 0 0-11.2 5.6 5.6 0 0 0 0 11.2Zm-74-1.1a5.6 5.6 0 1 0 0-11.2 5.6 5.6 0 0 0 0 11.2Zm43.8 1.1a5.6 5.6 0 1 0 0-11.2 5.6 5.6 0 0 0 0 11.2Zm-99.8 9a5.6 5.6 0 1 0 0-11.2 5.6 5.6 0 0 0 0 11.2Zm-36.9 19.1a5.6 5.6 0 1 0 0-11.2 5.6 5.6 0 0 0 0 11.2Zm36.9-55a5.6 5.6 0 1 0 0-11.2 5.6 5.6 0 0 0 0 11.2Z"/><path fill="#EBCA71" d="M216 301.5a21.4 21.4 0 0 1 42.6 0"/><path stroke="#fff" stroke-miterlimit="10" d="M216 301.5a21.4 21.4 0 0 1 42.6 0M245 266.2c0 5-.8 10.1-2.5 15m54.2 2.4a22.3 22.3 0 0 0-8 18m28.1 49.4a23.6 23.6 0 0 1 23.5-23.7m-242-25.8a23.6 23.6 0 0 1 23.6 23.6"/><path fill="#fff" d="M232.4 263H245v-55.7h21.3v-11.5H211v11.5h21.4V263Zm40.8-67.2V263h11.7v-24.2c0-7.1 4.8-13 11.7-13 6.2 0 10.8 3.7 10.8 12.3V263H319v-25c0-13.9-6-23-19.4-23-5.4 0-10.6 1.6-14.8 7.1v-26.3h-11.7Zm93 26.4c-2.8-4.7-8.8-7.7-15.2-7.7-13.8 0-24.6 8.5-24.6 24.8 0 16.6 10.3 25.2 24.4 25.1 5.2 0 12.6-2.7 15.3-8.3l.6 6.9h11v-47.3h-11.2l-.4 6.5ZM352 225c18.4 0 18.4 28.7 0 28.7-7.8 0-14-5.4-14-14.4s6.2-14.3 14-14.3Zm82.1 38v-24.9c0-14.8-9-23.2-20-23.2-6 0-10.8 2.4-15.6 7.1l-.8-6.4h-10.4V263H399v-24.2c0-7.2 4.9-13.2 12-13.2 7.6 0 11.5 5.4 11.5 12.6V263h11.7Zm9.8-67.1V263h11.7v-21.4l18.5 21.4h14.1v-.9l-22-24.2 19.4-21.6v-.6h-14l-16 19v-38.8H444Zm103.8 19.8-8.6 20.7-4.9 13-4.5-13.3-7.2-20.4H509l18.9 46.5-8.9 20.6h13l28.8-67.1h-13Zm41.4-1c-15.1 0-24.5 11.1-24.5 24.7s9.2 24.7 24.6 24.7c15.3 0 24.6-11 24.6-24.7a24 24 0 0 0-24.7-24.7Zm0 10.7c8 0 13 6.9 13 14 0 7.2-4.4 13.9-13 13.9-8.5 0-12.8-6.7-12.8-14 0-7 4.4-14 12.9-14Zm33.1-9.7v24.8c0 14.7 8.3 23.3 19.6 23.3a21 21 0 0 0 16-7.1l.8 6.4h10.5v-47.4h-11.7v24.2c0 7.2-4.8 13.2-12 13.2-7.5 0-11.5-5.5-11.5-12.7v-24.7h-11.7Zm92.2 47.3v-36.4h13.9v-10.3h-14v-3.1c0-5.8 3.1-8.5 7.2-8.5 2.4 0 4.7.9 7.2 2.5l4.3-8.7a22.8 22.8 0 0 0-12.3-3.9c-9.5 0-18 5.9-18 18.6v3.1h-8.9v10.3h8.8V263h11.8Zm41.5-48.3c-15.1 0-24.5 11.1-24.5 24.7S740.7 264 756 264s24.6-11 24.6-24.7a24 24 0 0 0-24.7-24.7Zm0 10.7c8 0 13 6.9 13 14 0 7.2-4.4 13.9-13 13.9-8.5 0-12.8-6.7-12.8-14 0-7 4.4-14 12.9-14Zm32.8-9.7V263h11.7v-25c0-8.7 5.7-12 11.8-12 3.9 0 6 1.1 8.5 3.1L826 219a18 18 0 0 0-12.2-4.5c-4.8 0-9.7.9-13.4 6.7l-.8-5.4h-10.9Zm95.8 0-8.6 20.7-5 13-4.5-13.3-7.2-20.4h-13.6l19 46.5-9 20.6h13l28.9-67.1h-13Zm41.3-1c-15 0-24.5 11.1-24.5 24.7S910.7 264 926 264c15.4 0 24.7-11 24.7-24.7a24 24 0 0 0-24.8-24.7Zm.1 10.7c7.9 0 12.9 6.9 12.9 14 0 7.2-4.3 13.9-12.9 13.9-8.5 0-12.8-6.7-12.8-14 0-7 4.4-14 12.8-14Zm33-9.7v24.8c0 14.7 8.3 23.3 19.6 23.3a21 21 0 0 0 16-7.1l.9 6.4h10.4v-47.4h-11.6v24.2c0 7.2-4.9 13.2-12.1 13.2-7.5 0-11.4-5.5-11.4-12.7v-24.7H959Zm57.3 0V263h11.7v-25c0-8.7 5.6-12 11.8-12 3.8 0 6 1.1 8.4 3.1l5.3-10.2a18 18 0 0 0-12.2-4.5c-4.8 0-9.7.9-13.3 6.7l-1-5.4h-10.8Zm72.7-.2V263h-11.7v-47.5h11.7Zm-12.8-13.2c0 9.1 13.8 9.1 13.8 0 0-9-13.8-9-13.8 0Zm70 60.7v-24.9c0-14.8-9-23.2-20.1-23.2-6 0-10.8 2.4-15.6 7.1l-.7-6.4h-10.5V263h11.6v-24.2c0-7.2 5-13.2 12.1-13.2 7.5 0 11.4 5.4 11.4 12.6V263h11.8Zm12.8-59.4v12.2h-8.9v10h8.9v20.5c0 11.8 6.7 17.7 17 17.3 3.5-.1 6.3-.7 9.6-2l-3.2-10a15 15 0 0 1-5.7 1.4c-3.6 0-6.1-2.2-6.1-6.7v-20.5h13.1v-10h-13v-13.5l-11.8 1.3Zm80.4 40c1.9-19.6-8-29.4-23.9-29.4-15.3 0-25.1 10.4-25.1 24.8 0 15.2 9.7 25.2 26 25.2a29 29 0 0 0 20.3-7.6l-7.4-7.4c-2.7 2.8-8.4 4.4-12.7 4.4-8.3 0-13.3-4.2-14.1-10h37Zm-36.7-9.8c1.7-6.1 6.9-9.2 13.2-9.2 6.7 0 11.5 3 12.3 9.2h-25.5Zm45.8-18.1V263h11.7v-25c0-8.7 5.6-12 11.8-12 3.8 0 6 1.1 8.4 3.1l5.3-10.2a18 18 0 0 0-12.2-4.5c-4.8 0-9.7.9-13.3 6.7l-.9-5.4h-10.8Zm88.5 27.8c1.9-19.5-8-29.3-23.9-29.3-15.3 0-25.1 10.4-25.1 24.8 0 15.2 9.7 25.2 26 25.2 7.2 0 15.3-2.4 20.3-7.6l-7.4-7.4c-2.7 2.8-8.4 4.4-12.7 4.4-8.3 0-13.4-4.2-14.1-10h37Zm-36.7-9.7c1.7-6.1 6.9-9.2 13.2-9.2 6.7 0 11.5 3 12.3 9.2h-25.5Zm83.2-13.2c-5.5-4.8-11-6.3-18.4-6.3-8.7 0-20 3.9-20 14.8 0 10.8 10.7 14 19.6 14.7 6.7.4 9.4 1.7 9.4 5 0 3.4-4.1 5.8-8.5 5.7a26 26 0 0 1-16.4-6.7l-5.7 8.4a27.6 27.6 0 0 0 21.8 8.4c13.6 0 20.4-7.2 20.4-15.5 0-12.6-11.3-14.6-20.3-15.2-6-.4-8.8-2.1-8.8-5.2 0-3 3-4.7 8.7-4.7 4.5 0 8.3 1 11.7 4.2l6.5-7.6Zm14.5-17v12.2h-8.8v10h8.8v20.5c0 11.8 6.7 17.7 17 17.3 3.6-.1 6.3-.7 9.7-2l-3.3-10a14 14 0 0 1-5.6 1.4c-3.7 0-6.2-2.2-6.2-6.7v-20.5h13.2v-10h-13v-13.5l-11.8 1.3ZM518.7 323.5V371H507v-47.5h11.7ZM506 310.3c0 9.1 13.9 9.1 13.9 0 0-9-13.9-9-13.9 0Zm70 60.7v-24.9c0-14.8-9-23.2-20.1-23.2-6 0-10.7 2.4-15.5 7.1l-.8-6.4H529V371h11.6v-24.2c0-7.2 5-13.2 12.1-13.2 7.5 0 11.5 5.4 11.5 12.6V371h11.7Zm43 0v-24.9h33.7v-11.7H619v-18.3h35.6v-12.2h-48.3V371H619Zm55.2-47.5V371h-11.8v-47.5h11.8Zm-12.8-13.2c0 9.1 13.8 9.1 13.8 0 0-9-13.8-9-13.8 0Zm23.4-6.4V371h11.6v-67.1h-11.6Zm68.7 47.6c1.9-19.5-8-29.3-23.9-29.3-15.3 0-25.1 10.4-25.1 24.8 0 15.2 9.7 25.2 26 25.2a29 29 0 0 0 20.4-7.6l-7.5-7.4c-2.7 2.8-8.4 4.4-12.7 4.4-8.3 0-13.4-4.2-14.1-10h37Zm-36.7-9.7c1.7-6.1 6.9-9.2 13.2-9.2 6.7 0 11.5 3 12.3 9.2h-25.5Zm98.2-27c-5.1-10.3-16-13.3-26.4-13.3-12.4 0-26 5.8-26 19.6 0 15 12.6 18.7 26.4 20.3 8.9 1 15.5 3.6 15.5 10 0 7.2-7.5 10-15.4 10-8.2 0-16-3.3-19-10.7l-10.5 5.5c5 12.3 15.5 16.5 29.3 16.5 15 0 28.2-6.4 28.2-21.4 0-16-13-19.7-27-21.4-8.1-1-15-2.6-15-8.4 0-5 4.5-9 13.9-9 7.3 0 13.6 3.7 15.9 7.5l10-5.2Zm43.8 42.5c-3 2.9-6.7 4-10.4 4-7.3 0-13.4-4.9-13.4-14 0-8.2 5.7-14 13.6-14 3.3 0 6.7 1.3 9.5 3.8l7.4-7.8c-5.2-5-10.4-7-17.1-7-13.7 0-25.1 8.3-25.1 25 0 16.9 11.4 25.1 25.1 25.1 7 0 12.8-2 18.2-7.4l-7.8-7.7Zm24.7-33.8V371h-11.7v-47.5h11.7Zm-12.8-13.2c0 9.1 13.9 9.1 13.9 0 0-9-13.9-9-13.9 0Zm70.3 41.2c1.9-19.5-8-29.3-23.9-29.3-15.3 0-25.1 10.4-25.1 24.8 0 15.2 9.7 25.2 26 25.2a29 29 0 0 0 20.4-7.6l-7.5-7.4c-2.7 2.8-8.4 4.4-12.7 4.4-8.3 0-13.4-4.2-14.1-10h37Zm-36.7-9.7c1.7-6.1 6.9-9.2 13.2-9.2 6.7 0 11.5 3 12.3 9.2h-25.5Zm92.3 29.2v-24.9c0-14.8-8.9-23.2-20-23.2-6 0-10.8 2.4-15.6 7.1l-.8-6.4h-10.4V371h11.6v-24.2c0-7.2 4.9-13.2 12-13.2 7.6 0 11.5 5.4 11.5 12.6V371h11.7Zm42.8-13.7a14 14 0 0 1-10.3 4c-7.3 0-13.5-4.9-13.5-14 0-8.2 5.8-14 13.7-14 3.2 0 6.7 1.3 9.5 3.8l7.3-7.8c-5.1-5-10.3-7-17-7-13.8 0-25.2 8.3-25.2 25 0 16.9 11.4 25.1 25.2 25.1 7 0 12.7-2 18.2-7.4l-7.9-7.7Zm61.9-5.8c1.8-19.5-8.1-29.3-24-29.3-15.3 0-25.1 10.4-25.1 24.8 0 15.2 9.7 25.2 26 25.2a29 29 0 0 0 20.4-7.6l-7.5-7.4c-2.7 2.8-8.4 4.4-12.7 4.4-8.2 0-13.3-4.2-14.1-10h37Zm-36.8-9.7c1.7-6.1 6.9-9.2 13.2-9.2 6.8 0 11.6 3 12.3 9.2h-25.5Zm49-37.9v49.5h12.6V304h-12.5Zm-1.3 60.2c0 10 15.4 10 15.4 0 0-10.2-15.4-10.2-15.4 0ZM388 411.8h-14.2l-15.4 48.5-16.8-48.5h-8.2L317 460.3l-15.8-48.5H287l24.7 67.2h10.7l8.2-21 7-21.3 7 21.2L353 479h10.8l24.2-67.2Zm45.9 47.7c1.8-19.5-8.1-29.3-24-29.3-15.3 0-25.1 10.4-25.1 24.8 0 15.2 9.7 25.2 26 25.2a29 29 0 0 0 20.4-7.6l-7.5-7.4c-2.7 2.8-8.4 4.4-12.7 4.4-8.3 0-13.3-4.2-14.1-10h37Zm-36.8-9.7c1.7-6.1 6.9-9.2 13.2-9.2 6.8 0 11.6 3 12.3 9.2H397Zm41.7-16.4h9.3l7.4-21.6h-12l-4.7 21.6Zm23.5-21.5V479h11.6v-67.1h-11.6Zm21.8 0V479h11.6v-67.1H484Zm41.3 19.8V479H537v-25c0-8.7 5.7-12 11.8-12 3.8 0 6 1.1 8.4 3.1l5.3-10.2a18 18 0 0 0-12.2-4.5c-4.8 0-9.7.9-13.3 6.7l-.9-5.4h-10.8Zm88.5 27.8c1.9-19.5-8-29.3-23.9-29.3-15.3 0-25.1 10.4-25.1 24.8 0 15.2 9.7 25.2 26 25.2a29 29 0 0 0 20.4-7.6l-7.5-7.4c-2.7 2.8-8.4 4.4-12.7 4.4-8.3 0-13.3-4.2-14.1-10h37Zm-36.7-9.7c1.7-6.1 6.9-9.2 13.2-9.2 6.7 0 11.5 3 12.3 9.2h-25.5Zm83-11.6a17.6 17.6 0 0 0-15.1-7.7c-13.9 0-24.7 8.5-24.7 24.8 0 16.6 10.3 25.2 24.4 25.1 5.2 0 12.6-2.7 15.3-8.3l.6 6.9h11v-47.3h-11.2l-.4 6.5Zm-14 2.8c18.3 0 18.3 28.7 0 28.7-7.9 0-14.1-5.4-14.1-14.4s6.2-14.3 14-14.3Zm69.2 24.3c-2.9 2.9-6.6 4-10.3 4-7.3 0-13.5-4.9-13.5-14 0-8.2 5.8-14 13.6-14 3.3 0 6.8 1.3 9.6 3.8l7.3-7.8c-5.1-5-10.3-7-17-7-13.8 0-25.2 8.3-25.2 25 0 16.9 11.4 25.1 25.2 25.1 7 0 12.7-2 18.2-7.4l-7.9-7.7Zm13-53.5V479h11.8v-24.2c0-7.1 4.8-13 11.7-13 6.2 0 10.7 3.7 10.7 12.3V479h11.7v-25c0-13.9-6-23-19.4-23-5.3 0-10.5 1.6-14.7 7.1v-26.3h-11.8Zm101.4 29.7c7.5 0 13.5 5.2 13.5 13.8 0 8.2-6 14-13.5 14-7.4 0-13.7-5.5-13.7-14 0-8.3 6.3-13.8 13.7-13.8Zm-26.2-29.6V479h11l.7-6.5c3.7 5.6 9.5 7.6 15.3 7.6 14 0 24.4-9.3 24.4-24.8 0-16.3-10.3-24.8-24.1-24.8-5 0-12.8 2.7-15.6 7.6v-26.2h-11.7Zm97.2 26.3c-2.7-4.7-8.8-7.7-15-7.7-14 0-24.8 8.5-24.8 24.8 0 16.6 10.4 25.2 24.4 25.1 5.3 0 12.7-2.7 15.4-8.3l.6 6.9h11v-47.3h-11.2l-.4 6.5Zm-14 2.8c18.4 0 18.4 28.7 0 28.7-7.8 0-14-5.4-14-14.4s6.2-14.3 14-14.3Zm69.3 24.3c-2.9 2.9-6.6 4-10.4 4-7.3 0-13.4-4.9-13.4-14 0-8.2 5.7-14 13.6-14 3.3 0 6.7 1.3 9.5 3.8l7.4-7.8c-5.2-5-10.4-7-17-7-13.8 0-25.2 8.3-25.2 25 0 16.9 11.4 25.1 25.1 25.1 7 0 12.8-2 18.3-7.4l-8-7.7Zm12.7-53.4V479h11.7v-21.4L999 479h14.2v-.9L991 454l19.3-21.6v-.6h-14l-16 19V412h-11.7Zm106.5 24.7c-5.4-4.8-11-6.3-18.4-6.3-8.6 0-20 3.9-20 14.8 0 10.8 10.7 14 19.6 14.7 6.8.4 9.4 1.7 9.4 5 0 3.4-4 5.8-8.5 5.7a26 26 0 0 1-16.3-6.7l-5.8 8.4c7 7.2 14.4 8.4 21.9 8.4 13.5 0 20.4-7.2 20.4-15.5 0-12.6-11.4-14.6-20.3-15.2-6-.4-8.8-2.1-8.8-5.2 0-3 3-4.7 8.6-4.7 4.5 0 8.4 1 11.7 4.2l6.5-7.6Zm9.8-24.8V479h11.7v-24.2c0-7.1 4.8-13 11.7-13 6.2 0 10.7 3.7 10.7 12.3V479h11.8v-25c0-13.9-6-23-19.4-23-5.4 0-10.6 1.6-14.8 7.1v-26.3H1085Zm78 19c-15 0-24.5 11-24.5 24.6 0 13.6 9.3 24.7 24.6 24.7 15.4 0 24.7-11 24.7-24.7a24 24 0 0 0-24.8-24.7Zm.1 10.6c7.9 0 12.9 6.9 12.9 14 0 7.2-4.3 13.9-12.9 13.9-8.5 0-12.8-6.7-12.8-14 0-7 4.4-14 12.8-14Zm32.8-9.7V479h11.7v-25c0-8.7 5.7-12 11.8-12 3.8 0 6 1.1 8.4 3.1l5.3-10.2a18 18 0 0 0-12.2-4.5c-4.8 0-9.7.9-13.3 6.7l-.9-5.4H1196Zm49.4-12.1v12.2h-8.8v10h8.8v20.5c0 11.8 6.7 17.7 17 17.3 3.5-.1 6.3-.7 9.7-2l-3.3-10a14 14 0 0 1-5.6 1.4c-3.7 0-6.2-2.2-6.2-6.7v-20.5h13.2v-10h-13v-13.5l-11.8 1.3Zm33.5-7.7V479h11.7v-67.1h-11.7Zm57.6 19.8-8.7 20.7-4.9 13-4.5-13.3-7.2-20.4h-13.6l19 46.5-9 20.6h13l28.8-67.1h-13Z"/></svg>