<svg width="48" height="26" viewBox="0 0 48 26" fill="none" xmlns="http://www.w3.org/2000/svg">
<path d="M15.8099 24.4329H13.7324V16.3864H15.8099V24.4329V24.4329Z" fill="white"/>
<path d="M32.529 18.7131C31.9837 18.4198 31.3704 18.2695 30.7484 18.2768C30.4566 18.2634 30.1652 18.3091 29.8922 18.4109C29.6193 18.5127 29.3707 18.6685 29.1619 18.8686C28.953 19.0687 28.7885 19.3088 28.6785 19.5739C28.5685 19.839 28.5154 20.1235 28.5225 20.4097C28.5158 20.6979 28.5687 20.9845 28.6782 21.2522C28.7876 21.5198 28.9513 21.7629 29.1594 21.9668C29.3674 22.1707 29.6155 22.3311 29.8886 22.4384C30.1618 22.5457 30.4542 22.5976 30.7484 22.591C31.3693 22.59 31.9806 22.4402 32.529 22.1547V24.2875C31.9219 24.4805 31.2876 24.5786 30.6494 24.5784C28.2752 24.5784 26.2472 23.0272 26.2472 20.4097C26.2472 17.7921 28.0773 16.241 30.6494 16.241C31.2868 16.2508 31.9196 16.3487 32.529 16.5318V18.7131ZM10.8642 18.7131C10.3352 18.4238 9.7388 18.2735 9.13299 18.2768C8.81627 18.2302 8.49303 18.2511 8.1853 18.338C7.87757 18.425 7.5926 18.576 7.34988 18.7808C7.10717 18.9856 6.91242 19.2393 6.7789 19.5246C6.64539 19.8099 6.57627 20.12 6.57627 20.4339C6.57627 20.7478 6.64539 21.0579 6.7789 21.3432C6.91242 21.6285 7.10717 21.8822 7.34988 22.087C7.5926 22.2917 7.87757 22.4428 8.1853 22.5298C8.49303 22.6167 8.81627 22.6376 9.13299 22.591C9.73772 22.586 10.332 22.4362 10.8642 22.1547V24.2875C10.2583 24.4854 9.62322 24.5837 8.98461 24.5784C6.65984 24.5784 4.58238 23.0272 4.58238 20.4097C4.575 19.8478 4.68498 19.2904 4.90553 18.7718C5.12608 18.2531 5.45255 17.7841 5.86488 17.3937C6.2772 17.0032 6.76665 16.6995 7.30315 16.5013C7.83966 16.3031 8.41187 16.2145 8.98461 16.241C9.62198 16.2508 10.2547 16.3487 10.8642 16.5318V18.7131ZM39.0581 18.2768C38.4809 18.2768 37.9274 18.5016 37.5192 18.9015C37.1111 19.3015 36.8818 19.844 36.8818 20.4097C36.8818 20.9753 37.1111 21.5178 37.5192 21.9178C37.9274 22.3178 38.4809 22.5425 39.0581 22.5425C39.6354 22.5425 40.1889 22.3178 40.5971 21.9178C41.0052 21.5178 41.2345 20.9753 41.2345 20.4097C41.2345 19.844 41.0052 19.3015 40.5971 18.9015C40.1889 18.5016 39.6354 18.2768 39.0581 18.2768V18.2768ZM43.4109 20.4097C43.4306 21.2572 43.1921 22.0912 42.7259 22.8053C42.2597 23.5195 41.587 24.0813 40.7936 24.419C40.0002 24.7568 39.122 24.8552 38.2712 24.7018C37.4205 24.5483 36.6357 24.1499 36.017 23.5573C35.3983 22.9648 34.9738 22.2051 34.7977 21.3751C34.6216 20.5451 34.7018 19.6825 35.0281 18.8974C35.3545 18.1123 35.9121 17.4403 36.6299 16.9671C37.3477 16.494 38.1931 16.2412 39.0581 16.241C39.6268 16.2212 40.1937 16.3148 40.7243 16.5161C41.255 16.7174 41.7385 17.0221 42.1454 17.4119C42.5524 17.8016 42.8744 18.2683 43.0919 18.7836C43.3094 19.2989 43.4179 19.8521 43.4109 20.4097V20.4097ZM23.6751 18.2284C23.1402 18.0968 22.5936 18.0156 22.0429 17.986C21.202 17.986 20.7568 18.2284 20.7568 18.6161C20.7568 19.0039 21.3504 19.2948 21.6966 19.3917L22.2902 19.5856C23.6257 20.0219 24.2192 20.8944 24.2192 21.8639C24.2192 23.8997 22.4386 24.5784 20.8557 24.5784C20.0938 24.5634 19.3336 24.4987 18.5805 24.3844V22.494C19.2215 22.6933 19.887 22.8074 20.559 22.8333C21.5977 22.8333 22.0429 22.5425 22.0429 22.0577C22.0429 21.573 21.6471 21.4276 21.1525 21.2822L20.7074 21.1368C19.5202 20.749 18.5805 20.1188 18.5805 18.7616C18.5805 17.4043 19.7181 16.241 21.6471 16.241C22.3291 16.263 23.0078 16.3441 23.6751 16.4833V18.2284V18.2284Z" fill="white"/>
<path d="M2.40558 7.70971C2.39286 7.44823 2.27783 7.2016 2.08439 7.02106C1.89095 6.84052 1.63397 6.73995 1.36684 6.74025C1.23283 6.73367 1.09886 6.75389 0.973072 6.79966C0.847281 6.84542 0.732292 6.91579 0.635126 7.00647C0.537961 7.09716 0.460636 7.20627 0.407857 7.32717C0.355078 7.44806 0.327958 7.57822 0.328126 7.70971V9.84252C0.327958 9.97402 0.355078 10.1042 0.407857 10.2251C0.460636 10.346 0.537961 10.4551 0.635126 10.5458C0.732292 10.6364 0.847281 10.7068 0.973072 10.7526C1.09886 10.7984 1.23283 10.8186 1.36684 10.812C1.63397 10.8123 1.89095 10.7117 2.08439 10.5312C2.27783 10.3506 2.39286 10.104 2.40558 9.84252V7.70971ZM8.04435 4.94675C8.04435 4.81308 8.01749 4.6807 7.96529 4.5572C7.91309 4.4337 7.83658 4.32149 7.74013 4.22696C7.64368 4.13244 7.52917 4.05746 7.40315 4.0063C7.27713 3.95514 7.14205 3.92881 7.00564 3.92881C6.73404 3.94066 6.4768 4.05171 6.28456 4.2401C6.09232 4.42849 5.97902 4.68059 5.96693 4.94675V9.84252C5.96693 10.1125 6.07635 10.3714 6.27115 10.5623C6.46595 10.7532 6.73015 10.8605 7.00564 10.8605C7.28113 10.8605 7.54533 10.7532 7.74013 10.5623C7.93493 10.3714 8.04435 10.1125 8.04435 9.84252V4.94675ZM13.7326 1.16584C13.7326 0.895868 13.6232 0.636953 13.4284 0.446053C13.2336 0.255153 12.9694 0.147903 12.6939 0.147903C12.4184 0.147903 12.1542 0.255153 11.9594 0.446053C11.7646 0.636953 11.6552 0.895868 11.6552 1.16584V11.8784C11.6679 12.1399 11.7829 12.3865 11.9763 12.5671C12.1698 12.7476 12.4268 12.8482 12.6939 12.8479C12.9575 12.8372 13.2083 12.7329 13.3993 12.5546C13.5904 12.3763 13.7088 12.1359 13.7326 11.8784V1.16584ZM19.3714 4.94675C19.3714 4.81308 19.3445 4.6807 19.2923 4.5572C19.2401 4.4337 19.1636 4.32149 19.0672 4.22696C18.9707 4.13244 18.8562 4.05746 18.7302 4.0063C18.6042 3.95514 18.4691 3.92881 18.3327 3.92881C18.0611 3.94066 17.8039 4.05171 17.6116 4.2401C17.4194 4.42849 17.306 4.68059 17.294 4.94675V9.84252C17.294 9.9762 17.3208 10.1086 17.373 10.2321C17.4252 10.3556 17.5018 10.4678 17.5982 10.5623C17.6947 10.6568 17.8092 10.7318 17.9352 10.783C18.0612 10.8341 18.1963 10.8605 18.3327 10.8605C18.6082 10.8605 18.8724 10.7532 19.0672 10.5623C19.262 10.3714 19.3714 10.1125 19.3714 9.84252V4.94675ZM25.0102 7.70971C25.0104 7.57822 24.9832 7.44806 24.9304 7.32717C24.8777 7.20627 24.8003 7.09716 24.7032 7.00647C24.606 6.91579 24.4911 6.84542 24.3653 6.79966C24.2395 6.75389 24.1055 6.73367 23.9715 6.74025C23.7091 6.74025 23.4575 6.84239 23.272 7.0242C23.0864 7.20601 22.9822 7.45259 22.9822 7.70971V9.84252C22.9755 9.97385 22.9961 10.1052 23.0428 10.2284C23.0895 10.3517 23.1613 10.4644 23.2539 10.5596C23.3464 10.6548 23.4577 10.7306 23.5811 10.7823C23.7045 10.834 23.8373 10.8606 23.9715 10.8605C24.247 10.8605 24.5112 10.7532 24.706 10.5623C24.9008 10.3714 25.0102 10.1125 25.0102 9.84252V7.70971ZM30.6985 4.94675C30.6737 4.68105 30.5482 4.43409 30.3468 4.25461C30.1453 4.07514 29.8825 3.97619 29.6103 3.97729C29.3479 3.97729 29.0963 4.07943 28.9107 4.26124C28.7252 4.44305 28.621 4.68964 28.621 4.94675V9.84252C28.621 10.1125 28.7304 10.3714 28.9252 10.5623C29.12 10.7532 29.3842 10.8605 29.6597 10.8605C29.9352 10.8605 30.1994 10.7532 30.3942 10.5623C30.589 10.3714 30.6985 10.1125 30.6985 9.84252V4.94675ZM36.3372 1.16584C36.3372 1.03216 36.3104 0.899804 36.2582 0.776302C36.206 0.652801 36.1295 0.540577 36.033 0.446053C35.9366 0.351529 35.8221 0.276544 35.696 0.225388C35.57 0.174232 35.4349 0.147903 35.2985 0.147903C35.023 0.147903 34.7588 0.255153 34.564 0.446053C34.3692 0.636953 34.2598 0.895868 34.2598 1.16584V11.8784C34.2595 12.1402 34.3621 12.392 34.5463 12.5816C34.7306 12.7711 34.9822 12.8839 35.249 12.8963C35.3855 12.9029 35.5219 12.8829 35.6505 12.8377C35.7791 12.7925 35.8973 12.7229 35.9984 12.6328C36.0994 12.5428 36.1814 12.4341 36.2395 12.3129C36.2977 12.1918 36.3309 12.0606 36.3372 11.9269V11.9269V1.16584ZM41.976 4.94675C42.0098 4.79795 42.009 4.64362 41.9737 4.49516C41.9384 4.3467 41.8696 4.20789 41.7723 4.08899C41.675 3.97009 41.5516 3.87412 41.4114 3.80818C41.2711 3.74224 41.1176 3.708 40.9621 3.708C40.8065 3.708 40.6529 3.74224 40.5127 3.80818C40.3725 3.87412 40.2491 3.97009 40.1518 4.08899C40.0545 4.20789 39.9856 4.3467 39.9504 4.49516C39.9151 4.64362 39.9143 4.79795 39.948 4.94675V9.84252C39.9413 9.97385 39.962 10.1052 40.0087 10.2284C40.0554 10.3517 40.1272 10.4644 40.2197 10.5596C40.3123 10.6548 40.4236 10.7306 40.5469 10.7823C40.6703 10.834 40.8031 10.8606 40.9373 10.8605C41.2128 10.8605 41.477 10.7532 41.6718 10.5623C41.8666 10.3714 41.976 10.1125 41.976 9.84252V4.94675ZM47.6643 7.70971C47.6516 7.44823 47.5365 7.2016 47.3431 7.02106C47.1497 6.84052 46.8927 6.73995 46.6255 6.74025C46.4915 6.73367 46.3576 6.75389 46.2318 6.79966C46.106 6.84542 45.991 6.91579 45.8938 7.00647C45.7967 7.09716 45.7193 7.20627 45.6666 7.32717C45.6138 7.44806 45.5867 7.57822 45.5868 7.70971V9.84252C45.5868 10.1125 45.6963 10.3714 45.8911 10.5623C46.0859 10.7532 46.3501 10.8605 46.6255 10.8605C46.901 10.8605 47.1652 10.7532 47.36 10.5623C47.5548 10.3714 47.6643 10.1125 47.6643 9.84252V7.70971Z" fill="white"/>
<path d="M46.4763 23.3665V23.5119H46.0806V24.4329H45.9322V23.5119H45.5859V23.3665H46.4763ZM46.5257 23.3665H46.7731L47.0698 24.239H47.1193L47.4161 23.3665H47.6634V24.4329H47.4655V23.5604L47.1688 24.4329H47.0204L46.6741 23.5604V24.4329H46.5257V23.3665V23.3665Z" fill="white"/>
</svg>
