<svg width="129" height="26" viewBox="0 0 129 26" fill="none" xmlns="http://www.w3.org/2000/svg">
<path d="M15.9539 5.04369L8.54724 9.71603L15.9539 14.3269L8.54724 18.9377L1.14062 14.2654L8.54724 9.65455L1.14062 5.04369L8.54724 0.432838L15.9539 5.04369ZM8.54724 20.4132L15.9539 15.8024L23.2977 20.4132L15.9539 25.0241L8.54724 20.4132ZM15.9539 14.2654L23.3605 9.65455L15.9539 5.04369L23.2977 0.432838L30.7043 5.04369L23.2977 9.71603L30.7043 14.3269L23.2977 18.9377L15.9539 14.2654Z" fill="white"/>
<path d="M36.4785 5.04369H42.5042C46.3331 5.04369 49.4715 7.19543 49.4715 12.1752V13.2203C49.4715 18.1385 46.5214 20.4132 42.6298 20.4132H36.4785V5.04369ZM39.868 7.81021V17.5852H42.4415C44.5756 17.5852 46.0192 16.2327 46.0192 13.0973V12.2981C46.0192 9.22421 44.5128 7.81021 42.3159 7.81021H39.868ZM51.229 7.99464H53.928L54.3674 10.8841C54.8695 8.91681 56.1249 7.87169 58.5101 7.87169H59.3261V11.1915H57.9451C55.2461 11.1915 54.5557 12.1137 54.5557 14.7572V20.4132H51.2918V7.99464H51.229ZM60.0165 14.4498V14.1425C60.0165 9.96194 62.7155 7.68725 66.4188 7.68725C70.1221 7.68725 72.8212 9.96194 72.8212 14.1425V14.4498C72.8212 18.5689 70.2477 20.7821 66.4188 20.7821C62.59 20.7821 60.0165 18.5689 60.0165 14.4498V14.4498ZM69.4317 14.4498V14.1425C69.4317 11.8063 68.2391 10.3923 66.3561 10.3923C64.473 10.3923 63.2804 11.6833 63.2804 14.1425V14.4498C63.2804 16.6631 64.473 17.9541 66.3561 17.9541C68.2391 17.9541 69.4317 16.6631 69.4317 14.4498V14.4498ZM74.5787 7.99464H77.3404L77.6543 10.3308C77.9793 9.52356 78.5527 8.83536 79.295 8.36167C80.0373 7.88798 80.9117 7.65228 81.797 7.68725C85.0609 7.68725 87.1322 9.96194 87.1322 14.1425V14.5113C87.1322 18.5689 84.8098 20.7821 81.797 20.7821C79.7884 20.7821 78.4075 19.8599 77.7798 18.4459V24.7167H74.5159V7.99464H74.5787ZM83.8055 14.4498V14.1425C83.8055 11.6833 82.4874 10.4538 80.7927 10.4538C79.098 10.4538 77.7171 11.8678 77.7171 14.1425V14.3884C77.7171 16.6016 78.9096 17.9541 80.7299 17.9541C82.5502 17.9541 83.8055 16.7245 83.8055 14.4498V14.4498ZM92.0281 18.1385L91.7771 20.4132H88.9525V3.81413H92.1537V10.2079C92.8441 8.54795 94.2878 7.68725 96.2964 7.68725C99.3092 7.74873 101.569 9.77751 101.569 13.8965V14.2654C101.569 18.3844 99.4348 20.7821 96.2336 20.7821C94.0995 20.7206 92.7186 19.737 92.0281 18.1385V18.1385ZM98.1794 14.2654V13.958C98.1794 11.6833 96.924 10.3923 95.1665 10.3923C93.409 10.3923 92.0909 11.8678 92.0909 14.0195V14.2654C92.0909 16.6016 93.2835 17.9541 95.1038 17.9541C96.924 17.9541 98.1794 16.7245 98.1794 14.2654ZM102.95 14.4498V14.1425C102.95 9.96194 105.712 7.68725 109.415 7.68725C113.118 7.68725 115.817 9.96194 115.817 14.1425V14.4498C115.817 18.5689 113.181 20.7821 109.415 20.7821C105.649 20.7821 102.95 18.5689 102.95 14.4498ZM112.49 14.4498V14.1425C112.49 11.8063 111.298 10.3923 109.415 10.3923C107.532 10.3923 106.339 11.6833 106.339 14.1425V14.4498C106.339 16.6631 107.532 17.9541 109.415 17.9541C111.298 17.9541 112.49 16.6631 112.49 14.4498V14.4498ZM120.148 13.958L115.692 7.99464H119.521L122.094 11.7448L124.667 7.99464H128.434L123.914 13.958L128.685 20.4132H124.919L122.031 16.2942L119.207 20.4132H115.315L120.148 13.958V13.958Z" fill="white"/>
</svg>
