<svg width="71" height="26" viewBox="0 0 71 26" fill="none" xmlns="http://www.w3.org/2000/svg">
<path d="M4.44609 25.7893C6.83108 25.7893 8.76718 23.8641 8.76718 21.4926V17.1959H4.44609C2.0611 17.1959 0.125 19.1211 0.125 21.4926C0.125 23.8641 2.0611 25.7893 4.44609 25.7893Z" fill="#EBEBEB"/>
<path d="M0.119141 12.8951C0.119141 10.5236 2.05524 8.59845 4.44023 8.59845H8.76132V17.1963H4.44023C2.05524 17.1963 0.119141 15.2712 0.119141 12.8996V12.8951Z" fill="white"/>
<path d="M0.119141 4.29668C0.119141 1.92516 2.05524 0 4.44023 0H8.76132V8.59786H4.44023C2.05524 8.59786 0.119141 6.6727 0.119141 4.30119V4.29668Z" fill="#EBEBEB"/>
<path d="M8.72461 1.43051e-05H13.0457C15.4307 1.43051e-05 17.3668 1.92518 17.3668 4.29669C17.3668 6.66821 15.4307 8.59337 13.0457 8.59337H8.72461V1.43051e-05Z" fill="white"/>
<path d="M17.4121 12.8951C17.4121 15.2666 15.476 17.1918 13.091 17.1918C10.7061 17.1918 8.72461 15.2666 8.72461 12.8951C8.72461 10.5236 10.6607 8.59845 13.0457 8.59845C15.4307 8.59845 17.3668 10.5236 17.3668 12.8951H17.4121Z" fill="#EBEBEB"/>
<path d="M21.9902 4.29824V17.7277H23.7615V11.3154H28.0207V9.64852H23.7615V5.9786H29.2957V4.29824H21.9902ZM32.5004 7.02715C33.1414 7.02715 33.6583 6.52304 33.6583 5.89794C33.6583 5.27285 33.1345 4.83595 32.5004 4.83595C31.8664 4.83595 31.3426 5.34006 31.3426 5.96516C31.3426 6.26762 31.4666 6.54992 31.6872 6.77173C31.9077 6.99354 32.1972 7.10781 32.5142 7.10781L32.5004 7.02715ZM31.6045 8.72095V17.7277H33.3068V8.72095H31.5493H31.6045ZM39.9575 8.4521C37.6005 8.4521 35.9602 10.4685 35.9602 12.7001C35.9602 14.9316 37.6142 16.9346 39.9575 16.9346C40.4451 16.9429 40.9291 16.8522 41.3788 16.6682C41.8285 16.4842 42.234 16.211 42.5695 15.8659V17.0623C42.5646 17.7811 42.2787 18.471 41.7701 18.9913C41.5131 19.247 41.2064 19.45 40.868 19.5885C40.5295 19.727 40.1661 19.7982 39.799 19.7979C39.2354 19.7805 38.6892 19.603 38.2276 19.2871L37.3317 20.786C38.0197 21.2175 38.8144 21.4601 39.6319 21.4882C40.4495 21.5163 41.2596 21.3289 41.9771 20.9456C42.6946 20.5624 43.2929 19.9975 43.7088 19.3106C44.1248 18.6236 44.3431 17.8399 44.3408 17.0421V8.70751H42.5695V9.51409C42.234 9.16898 41.8285 8.89574 41.3788 8.71175C40.9291 8.52777 40.4451 8.44377 39.9575 8.4521ZM37.7383 12.7001C37.6979 12.2631 37.7837 11.8238 37.9858 11.4318C38.188 11.0399 38.4985 10.7109 38.8824 10.482C39.668 10.0115 40.6536 10.0115 41.4324 10.482C42.2112 10.9525 42.6522 11.8128 42.5764 12.7001C42.6168 13.137 42.5311 13.5763 42.3289 13.9683C42.1267 14.3602 41.8162 14.6892 41.4324 14.9181C40.6467 15.3886 39.6611 15.3886 38.8824 14.9181C38.1036 14.4476 37.6625 13.5873 37.7383 12.7001Z" fill="white"/>
<path d="M50.4835 10.3659C49.9923 10.3676 49.5218 10.5666 49.1745 10.9193C48.8272 11.272 48.6313 11.7499 48.6296 12.2487V17.9717H46.9219V8.92838H48.6296V9.69098C49.1479 8.98911 49.9718 8.58419 50.8356 8.59769C51.9254 8.57069 52.942 9.16458 53.4803 10.1296C54.1447 9.18483 55.1016 8.61119 56.1382 8.59769C58.0851 8.59769 59.2944 10.1904 59.3011 12.161V17.9177H57.5934V12.1813C57.6434 11.8239 57.5917 11.4595 57.4442 11.1311C57.2968 10.8027 57.0598 10.5241 56.7614 10.3281C56.4629 10.1322 56.1154 10.0272 55.7601 10.0255C55.4047 10.0238 55.0563 10.1255 54.7561 10.3186C54.4575 10.5163 54.2211 10.797 54.075 11.1272C53.929 11.4574 53.8793 11.8232 53.9321 12.1813V17.9042H52.2908V12.188C52.2891 11.6892 52.0932 11.2113 51.7459 10.8586C51.3986 10.5058 50.9281 10.3069 50.437 10.3051L50.4835 10.3659ZM68.4244 9.89344C68.0357 9.4815 67.5681 9.15465 67.0505 8.93298C66.5328 8.71131 65.976 8.5995 65.4143 8.60444C62.8693 8.60444 61.0952 10.791 61.0952 13.3285C61.0952 15.8661 62.8893 18.0527 65.4143 18.0527C65.976 18.0576 66.5328 17.9458 67.0505 17.7241C67.5681 17.5024 68.0357 17.1756 68.4244 16.7636V17.7894H70.1321V8.74616H68.4244V9.89344ZM62.7763 13.4028C62.6899 12.323 63.2082 11.2837 64.1185 10.7168C65.0289 10.1499 66.112 10.1499 67.0821 10.7168C67.5264 10.9969 67.8865 11.3954 68.1232 11.8691C68.3599 12.3427 68.4641 12.8732 68.4244 13.4028C68.5107 14.4826 67.9924 15.5219 67.0821 16.0888C66.1718 16.6557 65.0887 16.6557 64.1185 16.0888C63.6742 15.8087 63.3141 15.4101 63.0774 14.9365C62.8407 14.4629 62.7366 13.9324 62.7763 13.4028Z" fill="white"/>
</svg>
