<svg width="139" height="26" viewBox="0 0 139 26" fill="none" xmlns="http://www.w3.org/2000/svg">
<g clip-path="url(#clip0_1376_7381)">
<path d="M3.36822 19.9343C2.33124 19.9365 1.37326 19.3824 0.860688 18.484C0.355503 17.5911 0.385797 16.4932 0.939459 15.6293L6.10331 7.54719C6.64138 6.66287 7.61522 6.13549 8.65242 6.16673C9.68885 6.19149 10.6316 6.77067 11.1195 7.6824C11.6008 8.58962 11.5407 9.68112 10.9641 10.5327L5.80354 18.6148C5.27167 19.4409 4.353 19.9386 3.36822 19.9343Z" fill="white"/>
<path d="M12.2263 19.9342C11.1848 19.9342 10.2264 19.3792 9.72313 18.4872C9.21907 17.5967 9.24936 16.5016 9.8019 15.6402L14.9559 7.5766C15.4862 6.6796 16.4629 6.13984 17.5072 6.16671C18.5575 6.18961 19.5093 6.77515 19.9907 7.6911C20.4688 8.60704 20.3987 9.70508 19.8047 10.5545L14.6518 18.6181C14.1216 19.4406 13.2071 19.9368 12.2263 19.9342Z" fill="white"/>
<path d="M20.8851 20.0021C22.3533 20.0021 23.5436 18.8406 23.5436 17.408C23.5436 15.9753 22.3533 14.8139 20.8851 14.8139C19.4168 14.8139 18.2266 15.9753 18.2266 17.408C18.2266 18.8406 19.4168 20.0021 20.8851 20.0021Z" fill="white"/>
<path d="M136.378 14.9635C137.181 14.9635 137.661 15.5327 137.661 16.465V19.6599H138.752V16.3919C138.752 14.8065 138.003 13.8873 136.593 13.8873C136.042 13.8873 135.167 14.0377 134.645 15.0486C134.398 14.4411 133.836 14.018 133.182 13.9472C132.98 13.9104 132.775 13.8983 132.57 13.9113C132.121 13.9472 131.322 14.2253 131.024 14.8555V14.0083H129.932V19.6599H131.024V16.61C131.024 15.4237 131.803 14.9635 132.583 14.9635C133.314 14.9635 133.794 15.5207 133.794 16.453V19.6599H134.879V16.61C134.879 15.6657 135.448 14.9526 136.378 14.9635ZM125.924 18.7156C126.423 18.7265 126.905 18.528 127.254 18.1682C127.604 17.8084 127.79 17.3188 127.771 16.8161C127.771 15.6777 126.931 14.9635 125.924 14.9635C124.917 14.9635 124.078 15.6777 124.078 16.8161C124.058 17.3177 124.244 17.8062 124.592 18.1649C124.94 18.5248 125.419 18.7243 125.916 18.7156H125.924ZM125.924 19.7755C124.329 19.7755 122.998 18.6011 122.998 16.8096C122.998 15.018 124.329 13.8807 125.924 13.8807C127.52 13.8807 128.862 15.018 128.862 16.8096C128.862 18.6011 127.512 19.7809 125.917 19.7809L125.924 19.7755ZM117.38 16.8096L117.369 16.8161C117.369 15.0246 118.736 13.8873 120.342 13.8807C121.158 13.865 121.942 14.1947 122.5 14.7879L121.673 15.4902C121.318 15.1429 120.839 14.9513 120.342 14.958C119.335 14.958 118.46 15.6723 118.46 16.8096C118.46 17.5783 118.918 18.2707 119.622 18.5651C120.325 18.8595 121.135 18.696 121.673 18.1529L122.512 18.8552C121.952 19.4546 121.163 19.789 120.342 19.7755C118.748 19.7755 117.38 18.6011 117.38 16.8096ZM113.887 18.5749C113.884 18.3754 113.962 18.1831 114.102 18.0403C114.242 17.8976 114.433 17.8161 114.633 17.8138C114.833 17.8161 115.024 17.8976 115.164 18.0403C115.304 18.1831 115.381 18.3754 115.379 18.5749C115.359 18.9721 115.032 19.285 114.633 19.2891C114.234 19.285 113.907 18.9721 113.887 18.5749Z" fill="white"/>
<path d="M116.872 6.82411H112.988L110.265 13.8213L107.556 6.82411H103.671L108.394 17.8809L105.456 25.191H109.313L116.872 6.82411ZM93.2457 12.974C93.2457 14.7405 94.7948 15.9029 96.3166 15.9029C97.8122 15.9029 99.2815 14.8212 99.2815 12.9729C99.2815 11.1247 97.8122 10.0419 96.3166 10.0419C94.7948 10.0419 93.2457 11.2054 93.2457 12.9729V12.974ZM99.2815 19.1479V17.7489C98.4938 18.9375 96.6558 19.3867 95.7127 19.3867C92.5904 19.3867 89.4669 16.9333 89.4669 12.9729C89.4669 9.01365 92.5893 6.56024 95.7127 6.56024C96.4993 6.56024 98.3373 6.82193 99.2815 8.19585V6.82848H102.903V19.1501L99.2815 19.149V19.1479ZM88.4363 19.1479H84.815V17.617C84.21 18.751 82.7429 19.4118 81.22 19.4118C78.0703 19.4118 75.2882 16.9049 75.2882 13.0231C75.2882 9.06817 78.0703 6.55805 81.22 6.55805C82.7407 6.55805 84.2122 7.19049 84.815 8.32561V0.111561H88.4363V19.1479ZM84.7363 12.9457C84.7363 11.0985 83.3983 10.0157 81.9027 10.0157C80.3535 10.0157 79.067 11.177 79.067 12.9457C79.067 14.771 80.3535 15.9268 81.9016 15.9268C83.4256 15.929 84.7363 14.7143 84.7363 12.9457ZM66.3346 12.6273C66.3346 10.7539 67.3061 10.1204 68.5916 10.1204C69.8245 10.1204 70.7173 10.9382 70.7173 12.5738V19.1457H74.3648V11.7833C74.3648 8.27436 72.6318 6.55805 69.876 6.55805C68.4329 6.55805 66.9899 7.37586 66.3335 8.61674V6.82411H62.6881V19.1457H66.3346V12.6273ZM55.2815 19.3573C51.8178 19.3573 48.9285 16.8242 48.9285 12.9446C48.9285 9.06272 51.8145 6.55478 55.2815 6.55478C58.7485 6.55478 61.6598 9.06272 61.6598 12.9446C61.6598 16.8264 58.7452 19.3584 55.2815 19.3584V19.3573ZM55.2815 15.7698C56.8022 15.7698 58.0637 14.6598 58.0637 12.9457C58.0637 11.2828 56.8033 10.1477 55.2815 10.1477C54.541 10.1361 53.8282 10.4283 53.3101 10.9557C52.789 11.4858 52.506 12.2038 52.5256 12.9457C52.5267 14.662 53.786 15.7698 55.2815 15.7698ZM42.3894 10.1215C43.4648 10.1215 44.4101 10.9666 44.4101 12.5749V19.1479H48.0313V12.1497C48.0313 8.42919 46.2163 6.55587 43.3073 6.55587C42.443 6.55587 40.8151 6.81757 39.6335 8.74541C38.9508 7.32025 37.6391 6.58095 35.7005 6.58095C34.3258 6.57398 33.074 7.36879 32.4993 8.61347V6.8252H28.8496V19.1468H32.496V12.6273C32.496 10.7539 33.5201 10.1204 34.6217 10.1204C35.672 10.1204 36.6151 10.9382 36.6424 12.4953V19.1468H40.2899V12.6273C40.2899 10.8357 41.2352 10.1226 42.3894 10.1226V10.1215Z" fill="white"/>
</g>
<defs>
<clipPath id="clip0_1376_7381">
<rect width="138.251" height="25.567" fill="white" transform="translate(0.498047 0.111096)"/>
</clipPath>
</defs>
</svg>
