<svg width="109" height="19" viewBox="0 0 109 19" fill="none" xmlns="http://www.w3.org/2000/svg">
<path d="M7.8899 5.78747H9.67973C10.7982 5.78747 11.9623 6.01164 11.9623 7.30996C11.9623 8.42846 11.2466 9.23406 9.14266 9.23406H7.17301L7.8899 5.78747ZM0.0136719 18.4542H5.20455L6.27869 13.3076H9.8152C14.2904 13.3076 17.1999 10.3538 17.1999 6.90596C17.1999 3.14647 15.1859 1.40099 12.0534 1.40099H3.60653L0.0136719 18.4542ZM23.5992 7.26441L24.2262 12.3666H20.9594L23.5992 7.26441ZM12.3663 18.4542H17.737L19.0353 16.0374H24.5858L24.8544 18.4542H30.0009L27.403 1.40219H22.2122L12.3663 18.4542ZM35.4147 7.75712L39.577 1.40339H45.7533L37.4288 12.1448L36.1304 18.4554H30.894L32.1923 12.1891L28.5239 1.40219H33.8167L35.4147 7.75712ZM58.2846 11.953C57.9729 13.6985 56.6302 18.8462 49.5128 18.8462C44.5449 18.8462 42.1725 15.6238 42.1725 11.0587C42.1725 5.55369 45.6191 0.943045 51.4369 0.943045C55.2408 0.943045 58.6298 2.59741 58.7317 7.70078H53.765C53.8094 6.08957 53.0493 5.18326 51.4393 5.18326C48.5298 5.18326 47.4557 8.53995 47.4557 10.9568C47.4557 12.3894 47.8153 14.5376 50.2309 14.5376C51.8853 14.5376 52.8264 13.4191 53.1404 11.8966L58.2846 11.953ZM61.3296 1.40339H66.6104L65.3456 7.30996H70.1349L71.3876 1.40219H76.6684L73.0996 18.453H67.8631L69.2502 11.6952H64.4609L63.0283 18.453H57.7931L61.3296 1.40339ZM78.0675 1.40339H92.1656L91.27 5.79106H82.4084L81.9612 7.89498H90.1971L89.3579 11.9674H81.122L80.6749 14.0713H89.714L88.8184 18.459H74.4878L78.0675 1.40339Z" fill="white"/>
<path d="M95.7918 9.41352L91.8537 1.40183H97.5936L99.248 5.83266L102.649 1.40183H108.871L101.755 9.41352L105.917 18.4526H100.009L98.1295 13.7089L94.1458 18.4526H87.6914L95.7918 9.41352Z" fill="white"/>
</svg>
