<svg width="108" height="26" viewBox="0 0 108 26" fill="none" xmlns="http://www.w3.org/2000/svg">
<g clip-path="url(#clip0_1376_7389)">
<path d="M16.9004 0.644953H20.31V4.26306H16.9004V0.644953ZM76.5957 0.644953H80.0053V4.26306H76.5957V0.644953Z" fill="white"/>
<path d="M9.36352 5.56165C7.21452 5.56165 5.97166 6.53299 5.37216 7.20404C5.30093 6.62579 4.92223 5.87561 3.44479 5.87561H0.236328V9.25888H1.55125C1.77372 9.25888 1.84536 9.33042 1.84536 9.55411V25.0021H5.67003V19.2041C5.67003 19.0476 5.6669 18.9013 5.66293 18.7704C6.26034 19.3232 7.40126 20.0842 9.18346 20.0842C12.9217 20.0842 15.5352 17.099 15.5352 12.8235C15.5352 8.48029 13.0537 5.56165 9.36352 5.56165ZM8.58647 16.7282C6.5275 16.7282 5.59212 14.7422 5.59212 12.9022C5.59212 10.004 7.16543 8.97101 8.63765 8.97101C10.443 8.97101 11.6573 10.5391 11.6573 12.8751C11.6573 15.5389 10.1134 16.7282 8.58647 16.7282Z" fill="#EBEBEB"/>
<path d="M20.5699 16.1182V7.93271C20.5699 6.54873 19.9078 5.87557 18.5519 5.87557H15.1348V9.25883H16.4512C16.6728 9.25883 16.744 9.33038 16.744 9.55386V17.7122C16.744 19.1157 17.3857 19.7689 18.7587 19.7689H22.1802V16.4155H20.8634C20.6516 16.4155 20.5699 16.3303 20.5699 16.1182Z" fill="#EBEBEB"/>
<path d="M30.5603 5.5614C28.4107 5.5614 27.1695 6.53274 26.5673 7.2038C26.4962 6.62554 26.1194 5.87536 24.6422 5.87536H21.4316V9.25863H22.748C22.9697 9.25863 23.0415 9.33018 23.0415 9.55386V25.0018H26.8679V19.2039C26.8679 19.0473 26.8637 18.9011 26.8589 18.7702C27.4538 19.323 28.5985 20.0839 30.38 20.0839C34.1186 20.0839 36.7309 17.0988 36.7309 12.8233C36.7309 8.48004 34.2509 5.5614 30.5605 5.5614M29.7801 16.728C27.7268 16.728 26.7881 14.742 26.7881 12.902C26.7881 10.0038 28.361 8.97076 29.8344 8.97076C31.6396 8.97076 32.8534 10.5389 32.8534 12.8748C32.8534 15.5387 31.3117 16.728 29.7801 16.728ZM43.7808 5.5614C39.6608 5.5614 36.7798 8.54801 36.7798 12.8233C36.7798 17.0293 39.8884 20.0839 44.1718 20.0839C47.5415 20.0839 49.6003 18.0745 49.6872 17.9895L49.8409 17.8367L48.1755 15.0513L47.9278 15.2874C47.9119 15.2994 46.4002 16.703 44.4035 16.703C42.487 16.703 41.0841 15.5246 40.7534 13.6759H49.8219L49.8436 13.4234C49.8495 13.3889 49.9253 12.5691 49.9253 12.1684C49.9253 8.21701 47.4559 5.5614 43.7808 5.5614ZM40.8955 10.8177C41.3105 9.45433 42.3478 8.68185 43.7808 8.68185C44.9317 8.68185 45.8191 9.56396 45.9747 10.8177H40.8955ZM63.8343 16.118V2.70168C63.8343 1.31874 63.1631 0.644953 61.7897 0.644953H58.3716V4.02801H59.6875C59.9089 4.02801 59.9821 4.10019 59.9821 4.32408V6.74927C59.4176 6.23583 58.3152 5.56119 56.4177 5.56119C52.7064 5.56119 50.1167 8.54801 50.1167 12.8231C50.1167 17.1665 52.5982 20.0839 56.2886 20.0839C58.3989 20.0839 59.6146 19.097 60.2087 18.41C60.286 19.0097 60.6714 19.7687 62.1026 19.7687H65.416V16.4155H64.1274C63.9153 16.4155 63.8343 16.3301 63.8343 16.118ZM57.0142 16.7282C55.1955 16.7282 54.0188 15.1948 54.0188 12.8233C54.0188 10.518 55.2431 8.97076 57.0664 8.97076C59.1334 8.97076 60.0598 10.8909 60.0598 12.798C60.0598 15.6969 58.4852 16.7282 57.0142 16.7282ZM73.946 5.69145C72.3543 5.69145 70.8887 6.61712 70.0202 8.09159V7.77406C70.0202 6.51506 69.33 5.87515 67.9763 5.87515H64.6884V9.25863H66.0033C66.2248 9.25863 66.2981 9.32975 66.2981 9.55386V19.7691H70.1219V14.2085C70.1219 13.4762 70.2147 12.7711 70.3956 12.1198C70.9708 10.2022 72.5009 9.51956 73.7381 9.51956C74.1768 9.51956 74.4964 9.56649 74.5012 9.56796L74.8208 9.61636V5.78677L74.5881 5.747C74.5764 5.7449 74.2526 5.69145 73.946 5.69145ZM80.2639 16.118V7.93251C80.2639 6.54852 79.6055 5.87536 78.2486 5.87536H75.1569V9.25863H76.1451C76.3682 9.25863 76.439 9.33018 76.439 9.55365V17.712C76.439 19.1155 77.0809 19.7687 78.4564 19.7687H81.8748V16.4153H80.558C80.346 16.4153 80.2639 16.3301 80.2639 16.118Z" fill="#EBEBEB"/>
<path d="M94.6339 9.25876V5.87549H92.5931C91.4014 5.87549 90.7618 6.29172 90.3841 7.31482L87.8911 14.3294C87.8018 14.6034 87.7231 14.8808 87.655 15.1609C87.5823 14.8797 87.4967 14.5847 87.4021 14.3242L84.909 7.31229C84.5264 6.27867 83.9089 5.87528 82.7003 5.87528H80.5312V9.25876H81.0942C81.3925 9.25876 81.4884 9.3606 81.5596 9.54873L85.4185 19.7688H89.7186L93.5782 9.54873C93.6488 9.3606 93.7474 9.25876 94.0465 9.25876H94.6339Z" fill="#EBEBEB"/>
<path d="M106.924 13.4238C106.927 13.3891 107.005 12.569 107.005 12.1686C107.005 8.21718 104.534 5.56136 100.858 5.56136C96.7382 5.56136 93.8594 8.54818 93.8594 12.8232C93.8594 17.0297 96.9644 20.0841 101.249 20.0841C104.619 20.0841 106.679 18.0747 106.765 17.9897L106.92 17.8369L105.258 15.0515L105.005 15.2876C104.992 15.2996 103.473 16.7031 101.483 16.7031C99.5655 16.7031 98.1618 15.5247 97.8303 13.6761H106.902L106.924 13.4238ZM97.9734 10.8181C98.3917 9.4545 99.4257 8.6818 100.858 8.6818C102.012 8.6818 102.896 9.56413 103.053 10.8181H97.9734Z" fill="#EBEBEB"/>
<path d="M73.9459 5.69145C72.7097 5.69145 71.5584 6.25476 70.6942 7.19222C71.4243 7.1857 72.1589 7.1796 72.8936 7.1796C73.539 7.1796 74.179 7.1857 74.8209 7.18949V5.78677L74.588 5.747C74.5763 5.7449 74.2526 5.69145 73.9459 5.69145ZM90.3847 7.31469L90.2274 7.76059C91.7063 7.86307 93.1733 7.97607 94.6344 8.10254V5.87536H92.594C91.4022 5.87536 90.7621 6.29159 90.3847 7.31469ZM9.36352 5.5614C7.21452 5.5614 5.97124 6.53274 5.37216 7.20359C5.30052 6.62554 4.92223 5.87536 3.44479 5.87536H0.236328V9.25863H1.55125C1.77372 9.25863 1.84536 9.33017 1.84536 9.55365V18.1623C3.63271 17.5369 5.43085 16.9432 7.23896 16.3816C6.11516 15.7337 5.59212 14.2778 5.59212 12.9016C5.59212 10.004 7.16543 8.97076 8.63765 8.97076C10.443 8.97076 11.6573 10.5389 11.6573 12.8748C11.6573 13.8559 11.4459 14.634 11.1046 15.2287C12.5489 14.8163 13.9983 14.4219 15.4523 14.0455C15.4999 13.6509 15.5352 13.2446 15.5352 12.8233C15.5352 8.48004 13.0537 5.5614 9.36352 5.5614ZM18.5521 5.87536H15.135V9.25863H16.4514C16.6728 9.25863 16.7438 9.33017 16.7438 9.55386V13.721C18.0161 13.4014 19.2916 13.0951 20.5702 12.802V7.93251C20.5702 6.54894 19.908 5.87536 18.5521 5.87536ZM16.8992 0.644953H20.3088V4.26306H16.8992V0.644953ZM30.5607 5.5614C28.4108 5.5614 27.1699 6.53274 26.5676 7.20359C26.496 6.62554 26.1198 5.87536 24.6421 5.87536H21.432V9.25863H22.748C22.9696 9.25863 23.0419 9.33017 23.0419 9.55365V12.2524C24.3472 11.9737 25.6548 11.7065 26.9647 11.4507C27.403 9.66244 28.6448 8.97076 29.8344 8.97076C30.9112 8.97076 31.7693 9.53639 32.2925 10.4816C33.6127 10.2601 34.9412 10.0465 36.2816 9.84425C35.4105 7.19896 33.3242 5.5614 30.5607 5.5614ZM43.7807 5.5614C40.7705 5.5614 38.4287 7.15792 37.3826 9.68433C39.0082 9.44843 40.6506 9.22812 42.3075 9.02358C42.7313 8.80116 43.2247 8.68205 43.7807 8.68205C43.9915 8.68205 44.1872 8.72162 44.3769 8.77633C45.88 8.60504 47.3969 8.44722 48.9258 8.30265C47.8749 6.58429 46.0603 5.5614 43.7807 5.5614ZM61.7897 0.644953H58.3715V4.02801H59.6875C59.9085 4.02801 59.982 4.10019 59.982 4.32408V6.74927C59.4176 6.23582 58.3151 5.56119 56.4176 5.56119C54.3405 5.56119 52.6153 6.49697 51.498 8.07265C55.6035 7.72607 59.7168 7.48057 63.8342 7.33637V2.70168C63.8342 1.31874 63.1631 0.644953 61.7897 0.644953ZM67.9766 5.87536H64.6882V7.31238C66.433 7.2564 68.1857 7.21642 69.9535 7.19622C69.7599 6.32273 69.1015 5.87536 67.9766 5.87536ZM76.5946 0.644953H80.0042V4.26306H76.5946V0.644953ZM78.2487 5.87536H75.1572V7.1918C76.8458 7.20716 78.5265 7.2381 80.1982 7.28418C80.0081 6.34314 79.3706 5.87536 78.2487 5.87536ZM82.7009 5.87536H80.5318V7.29449C82.0166 7.33868 83.4923 7.39339 84.9597 7.46073L84.9096 7.31238C84.5269 6.27875 83.9095 5.87536 82.7009 5.87536ZM100.859 5.5614C98.5094 5.5614 96.5676 6.53463 95.3275 8.16167C97.1235 8.32054 98.9088 8.49877 100.674 8.69489C100.946 8.72498 101.213 8.75276 101.48 8.78432C103.184 8.97834 104.869 9.19171 106.539 9.42129C105.664 7.0365 103.596 5.5614 100.859 5.5614Z" fill="white"/>
</g>
<defs>
<clipPath id="clip0_1376_7389">
<rect width="107.003" height="24.6201" fill="white" transform="translate(0.115234 0.58456)"/>
</clipPath>
</defs>
</svg>
