<svg width="24" height="24" viewBox="0 0 24 24" fill="none" xmlns="http://www.w3.org/2000/svg">
<g clip-path="url(#clip0_2214_1503)">
<path d="M11.7935 22.7731C17.9937 22.7731 23.0201 17.8465 23.0201 11.7699C23.0201 5.69234 17.9942 0.766708 11.7935 0.766708C5.59278 0.766708 0.566406 5.69234 0.566406 11.7699C0.566406 17.8465 5.59278 22.7731 11.7935 22.7731Z" fill="white"/>
<path d="M5.94147 11.7403L7.85723 9.85713C7.91461 9.79257 7.9447 9.70905 7.94139 9.62356C7.93807 9.53806 7.9016 9.45701 7.83938 9.39689C7.77717 9.33677 7.69389 9.30208 7.60647 9.2999C7.51905 9.29771 7.43407 9.32818 7.36879 9.38511L5.45403 11.26L3.53177 9.38169C3.46687 9.31903 3.37918 9.28417 3.288 9.28476C3.19683 9.28536 3.10962 9.32137 3.04558 9.38487C2.98154 9.44837 2.94591 9.53416 2.94651 9.62337C2.94712 9.71258 2.98393 9.7979 3.04883 9.86056L4.96459 11.7374L3.04983 13.6157C3.01604 13.6463 2.98886 13.6832 2.96992 13.7242C2.95097 13.7653 2.94065 13.8097 2.93955 13.8547C2.93845 13.8997 2.94661 13.9445 2.96354 13.9864C2.98046 14.0283 3.00581 14.0664 3.03808 14.0986C3.07035 14.1307 3.10888 14.1562 3.1514 14.1735C3.19392 14.1908 3.23955 14.1995 3.28559 14.1992C3.33163 14.1989 3.37714 14.1896 3.41943 14.1718C3.46172 14.154 3.49992 14.128 3.53177 14.0955L5.45153 12.2163L7.36379 14.0882C7.41092 14.1372 7.47204 14.1712 7.5392 14.1858C7.60635 14.2003 7.67644 14.1948 7.74031 14.1698C7.80419 14.1448 7.8589 14.1016 7.89732 14.0458C7.93575 13.99 7.95609 13.9241 7.95572 13.8568C7.95594 13.8128 7.94721 13.7691 7.93005 13.7284C7.91289 13.6877 7.88762 13.6507 7.85573 13.6196L5.94097 11.7384M17.3305 11.7398C17.3305 12.0773 17.6105 12.3513 17.9555 12.3513C18.1212 12.3512 18.2801 12.2867 18.3973 12.172C18.5144 12.0573 18.5802 11.9017 18.5801 11.7396C18.5801 11.5774 18.5142 11.4219 18.3969 11.3073C18.2797 11.1927 18.1207 11.1283 17.955 11.1284C17.6115 11.1284 17.332 11.4023 17.332 11.7398M16.1482 11.7398C16.1482 10.764 16.9581 9.96915 17.955 9.96915C18.9498 9.96915 19.7612 10.764 19.7612 11.7398C19.7612 12.7157 18.9503 13.5105 17.955 13.5105C17.4755 13.5097 17.016 13.3228 16.6772 12.9909C16.3385 12.6589 16.1482 12.2089 16.1482 11.7398ZM15.4373 11.7398C15.4373 13.0996 16.5671 14.207 17.955 14.207C19.3428 14.207 20.4727 13.1006 20.4727 11.7403C20.4727 10.3805 19.3428 9.2731 17.955 9.2731C17.287 9.2744 16.6467 9.53487 16.1747 9.9974C15.7028 10.4599 15.4375 11.0862 15.4373 11.7398ZM15.2588 9.31517H15.1538C14.8364 9.31517 14.5304 9.413 14.2749 9.60621C14.2574 9.53149 14.2145 9.46476 14.1534 9.41682C14.0922 9.36888 14.0163 9.34254 13.938 9.34207C13.8932 9.34207 13.8488 9.35074 13.8074 9.36758C13.766 9.38441 13.7285 9.40909 13.6969 9.44018C13.6653 9.47128 13.6403 9.50817 13.6233 9.54875C13.6063 9.58933 13.5978 9.6328 13.598 9.67664L13.599 13.8319C13.6039 13.9177 13.6422 13.9985 13.7061 14.0575C13.77 14.1166 13.8546 14.1494 13.9424 14.1493C14.0303 14.1492 14.1148 14.1161 14.1785 14.0569C14.2422 13.9976 14.2803 13.9168 14.2849 13.8309V11.2756C14.2849 10.4245 14.3649 10.0802 15.1088 9.9892C15.1788 9.98089 15.2528 9.98235 15.2538 9.98235C15.4568 9.97502 15.6018 9.83757 15.6018 9.65218C15.6015 9.56284 15.565 9.47725 15.5004 9.41416C15.4357 9.35108 15.3481 9.31566 15.2568 9.31566M8.66663 11.3343C8.66663 11.3245 8.66763 11.3148 8.66813 11.306C8.76802 10.9199 8.99739 10.5779 9.31953 10.3345C9.64168 10.0911 10.038 9.96053 10.4449 9.96363C10.8519 9.96673 11.2461 10.1033 11.5643 10.3516C11.8826 10.5998 12.1065 10.9454 12.2002 11.3329H8.66613L8.66663 11.3343ZM12.9026 11.2707C12.7546 10.5845 12.3712 10.0205 11.7877 9.65854C11.3649 9.39887 10.8731 9.26729 10.3741 9.28034C9.87505 9.2934 9.39111 9.45051 8.98309 9.73191C8.57022 10.0225 8.25566 10.4274 8.07988 10.8943C7.90409 11.3613 7.87513 11.869 7.99671 12.3522C8.12384 12.8331 8.39536 13.2657 8.77623 13.5942C9.15711 13.9226 9.62985 14.1318 10.1334 14.1948C10.4374 14.231 10.7334 14.2144 11.0383 14.1361C11.3054 14.0726 11.5598 13.9662 11.7912 13.8211C12.0347 13.668 12.2382 13.4655 12.4362 13.2234C12.4392 13.2185 12.4432 13.2151 12.4472 13.2102C12.5841 13.0439 12.5586 12.8062 12.4087 12.6937C12.2817 12.5983 12.0687 12.5596 11.9017 12.77C11.8657 12.8208 11.8252 12.8727 11.7817 12.924C11.6483 13.0683 11.4828 13.2077 11.2848 13.3163C11.0318 13.4484 10.7449 13.5232 10.4399 13.5252C9.44103 13.5139 8.9071 12.8306 8.71662 12.3434C8.68336 12.251 8.65778 12.1562 8.64013 12.0597L8.63513 12.0084H12.2197C12.7106 11.9976 12.9746 11.6577 12.9016 11.2698L12.9026 11.2707Z" fill="#AFBF99"/>
</g>
<defs>
<clipPath id="clip0_2214_1503">
<rect width="22.5004" height="22.5004" fill="white" transform="translate(0.564453 0.522316)"/>
</clipPath>
</defs>
</svg>
