<svg width="84" height="20" viewBox="0 0 84 20" fill="none" xmlns="http://www.w3.org/2000/svg">
<path fill-rule="evenodd" clip-rule="evenodd" d="M67.8482 6.05913C68.1639 6.59383 68.3319 7.19848 68.3358 7.81455V15.9165C68.3696 16.6043 68.6667 17.2551 69.1689 17.742C69.6712 18.2289 70.3426 18.5168 71.0521 18.5496H71.9576V7.81455C71.9598 7.19077 72.1302 6.57838 72.4519 6.03813C72.7736 5.49788 73.2354 5.04855 73.7915 4.73466C74.3475 4.42078 74.9786 4.25327 75.6221 4.24873C76.2656 4.2442 76.8991 4.40279 77.4599 4.70881C78.0223 5.05257 78.4982 5.51395 78.8528 6.05913C79.1053 6.61341 79.2471 7.20907 79.2707 7.81455V15.9165C79.3046 16.6043 79.6016 17.2551 80.1039 17.742C80.6061 18.2289 81.2776 18.5168 81.9871 18.5496H82.9621V7.81455C82.944 5.92193 82.1603 4.11179 80.7797 2.77345C79.399 1.4351 77.5317 0.675446 75.5793 0.657839C74.5247 0.649548 73.4807 0.862466 72.5189 1.282C71.5572 1.70154 70.7004 2.31778 70.0074 3.08842C69.3144 2.31778 68.4576 1.70154 67.4958 1.282C66.5341 0.862466 65.4901 0.649548 64.4354 0.657839C62.9729 0.667064 61.5449 1.08938 60.3261 1.87312C59.4008 1.13291 58.2513 0.706159 57.0526 0.657839V18.5496H57.9581C58.6785 18.5496 59.3694 18.2722 59.8788 17.7784C60.3882 17.2846 60.6744 16.6148 60.6744 15.9165V7.81455C60.6553 7.34539 60.7354 6.87741 60.9097 6.43936C61.0841 6.00131 61.349 5.60245 61.6882 5.26731C62.0274 4.93216 62.4337 4.6678 62.8822 4.49048C63.3307 4.31316 63.8119 4.22661 64.2961 4.23618C64.9502 4.23127 65.5934 4.39817 66.1575 4.71913C66.7216 5.04009 67.1855 5.50314 67.5 6.05913H67.8482ZM4.60674 18.5496H19.3724V17.6719C19.3547 16.9789 19.0629 16.3191 18.5572 15.829C18.0516 15.3388 17.3709 15.0559 16.656 15.0388H7.32307L18.467 4.3037V3.426C18.4493 2.73304 18.1574 2.0732 17.6518 1.58305C17.1462 1.09291 16.4655 0.809997 15.7506 0.792879H0.845703V1.67058C0.879545 2.35835 1.17656 3.0092 1.67882 3.49608C2.18108 3.98296 2.8525 4.2709 3.562 4.3037H12.8253L1.75113 15.0388V15.984C1.80165 16.6777 2.11337 17.3292 2.62702 17.8147C3.14067 18.3001 3.82044 18.5857 4.5371 18.6171L4.60674 18.5496ZM53.6398 3.29096C55.3751 4.97472 56.3498 7.25742 56.3498 9.63747C56.3498 12.0175 55.3751 14.3002 53.6398 15.984V15.984C51.8854 17.6339 49.5371 18.5566 47.0928 18.5566C44.6484 18.5566 42.3002 17.6339 40.5458 15.984C39.6417 15.1604 38.9175 14.1691 38.4162 13.069C37.9149 11.9689 37.6467 10.7824 37.6275 9.57984C37.6082 8.37733 37.8384 7.18333 38.3043 6.06869C38.7701 4.95405 39.4623 3.94149 40.3395 3.09108C41.2168 2.24068 42.2614 1.56975 43.4112 1.11814C44.5611 0.666529 45.7928 0.443434 47.0333 0.462078C48.2738 0.480722 49.4978 0.740735 50.6327 1.22668C51.7676 1.71263 52.7902 2.4146 53.6398 3.29096V3.29096ZM50.9931 5.78907C52.0352 6.80163 52.6204 8.17348 52.6204 9.60372C52.6204 11.034 52.0352 12.4058 50.9931 13.4184C50.4819 13.9165 49.8741 14.3117 49.2047 14.5815C48.5354 14.8512 47.8176 14.99 47.0928 14.99C46.3679 14.99 45.6502 14.8512 44.9808 14.5815C44.3115 14.3117 43.7037 13.9165 43.1924 13.4184C42.1504 12.4058 41.5652 11.034 41.5652 9.60372C41.5652 8.17348 42.1504 6.80163 43.1924 5.78907C43.7037 5.29097 44.3115 4.8957 44.9808 4.626C45.6502 4.35629 46.3679 4.21746 47.0928 4.21746C47.8176 4.21746 48.5354 4.35629 49.2047 4.626C49.8741 4.8957 50.4819 5.29097 50.9931 5.78907V5.78907ZM27.6607 0.657839C29.4919 0.659045 31.2816 1.18634 32.8038 2.17312C34.326 3.1599 35.5123 4.56187 36.2129 6.20194C36.9135 7.842 37.097 9.64657 36.7401 11.3876C36.3831 13.1287 35.5019 14.7282 34.2077 15.984C32.4309 17.4451 30.1515 18.2035 27.8237 18.108C25.4959 18.0126 23.2906 17.0703 21.6475 15.469C20.0044 13.8677 19.0442 11.725 18.9581 9.46802C18.8721 7.21101 19.6666 5.00545 21.1832 3.29096C22.0252 2.45288 23.0326 1.78781 24.1455 1.33541C25.2584 0.883014 26.4539 0.652569 27.6607 0.657839ZM31.6306 5.78907C32.4112 6.54393 32.9433 7.50633 33.1594 8.55443C33.3754 9.60253 33.2659 10.6892 32.8446 11.6769C32.4232 12.6646 31.709 13.509 30.7924 14.1031C29.8759 14.6972 28.7981 15.0143 27.6955 15.0143C26.5929 15.0143 25.515 14.6972 24.5985 14.1031C23.6819 13.509 22.9677 12.6646 22.5464 11.6769C22.1251 10.6892 22.0155 9.60253 22.2316 8.55443C22.4477 7.50633 22.9797 6.54393 23.7603 5.78907C24.8048 4.77896 26.22 4.21169 27.6955 4.21169C29.1709 4.21169 30.5861 4.77896 31.6306 5.78907V5.78907Z" fill="white"/>
</svg>
