<svg xmlns="http://www.w3.org/2000/svg" fill="none" viewBox="0 0 1398 350"><path fill="#60BDD6" d="M1.08 155.63A174.85 174.85 0 0 1 61.56 41.9 175.82 175.82 0 0 1 183.71.2l-2 42.67A132.9 132.9 0 0 0 89.38 74.4a132.17 132.17 0 0 0-45.72 85.97l-42.58-4.73ZM185.43.28a175.71 175.71 0 0 1 117.25 54.13A174.74 174.74 0 0 1 351 173.91l-42.85.27a132.08 132.08 0 0 0-36.51-90.33A132.82 132.82 0 0 0 183 42.93L185.43.28ZM351 176.1a174.67 174.67 0 0 1-34.17 102.65 175.48 175.48 0 0 1-88.15 63.02l-12.98-40.71a132.64 132.64 0 0 0 66.63-47.64 132.02 132.02 0 0 0 25.82-77.59l42.85.27ZM227.34 342.2a175.98 175.98 0 0 1-108.45-1.56l13.82-40.43a133.02 133.02 0 0 0 81.98 1.17l12.65 40.81Zm-110.52-2.27a175.67 175.67 0 0 1-48.24-26.15l26.1-33.88a132.8 132.8 0 0 0 36.47 19.77l-14.33 40.26Zm-50.15-27.64a175.27 175.27 0 0 1-30.82-31.3l34.09-25.88a132.45 132.45 0 0 0 23.3 23.66L66.67 312.3Zm-31.75-32.52a175.01 175.01 0 0 1-14.7-23.22l37.9-19.9a133.05 133.05 0 0 0 11.12 17.54l-34.32 25.58Zm-15.44-24.63A174.76 174.76 0 0 1 8.83 229.8l40.69-13.38a132.05 132.05 0 0 0 8.05 19.14l-38.09 19.57ZM8.33 228.28a174.62 174.62 0 0 1-5.38-21.31l42.12-7.8a131.97 131.97 0 0 0 4.07 16.1l-40.8 13.01Zm-5.59-22.46A174.57 174.57 0 0 1 .6 189.48l42.7-3.54c.34 4.15.88 8.27 1.62 12.36l-42.18 7.52Z"/><path fill="#fff" d="M94.7 99h-7.25v-1.78l2.44-2.47c.7-.72 1.15-1.22 1.37-1.49.21-.26.36-.5.44-.69.09-.19.13-.39.13-.6a.78.78 0 0 0-.25-.61c-.17-.15-.4-.23-.71-.23-.32 0-.63.1-.96.28-.32.17-.68.44-1.08.79l-1.49-1.74c.52-.46.95-.79 1.3-.98.35-.2.73-.36 1.14-.46.42-.1.88-.16 1.4-.16.64 0 1.22.12 1.73.34.5.23.9.56 1.18.98.28.42.42.9.42 1.42a3.75 3.75 0 0 1-.6 2.07c-.2.32-.48.65-.82 1.01-.34.36-1.06 1.03-2.17 2.02v.07h3.78V99Zm4.67-10.14c1.05 0 1.87.21 2.45.64.59.42.88 1.02.88 1.8 0 .53-.14 1-.42 1.4-.27.4-.7.74-1.3 1.04.74.42 1.26.83 1.56 1.25.3.42.46.87.46 1.35 0 .89-.33 1.58-.97 2.07-.64.48-1.54.73-2.7.73a4.4 4.4 0 0 1-2.7-.71 2.44 2.44 0 0 1-.93-2.06c0-.58.14-1.07.42-1.48.28-.4.74-.78 1.4-1.11a3.8 3.8 0 0 1-1.16-1.14 2.6 2.6 0 0 1-.36-1.35c0-.77.3-1.36.9-1.79a4.2 4.2 0 0 1 2.47-.64Zm-1.2 7.4c0 .28.1.5.3.68.2.17.49.26.84.26.8 0 1.2-.3 1.2-.89a.98.98 0 0 0-.26-.65 3.51 3.51 0 0 0-.94-.73c-.4.21-.7.43-.87.65a1 1 0 0 0-.26.68Zm1.18-5.45a.87.87 0 0 0-.59.2.64.64 0 0 0-.23.53c0 .39.26.73.8 1.03.32-.18.54-.35.66-.5a.84.84 0 0 0 .18-.53c0-.22-.08-.4-.24-.53a.87.87 0 0 0-.58-.2Zm4.68 7.06c0-.42.12-.75.37-.98.25-.22.61-.34 1.08-.34.46 0 .8.12 1.04.34.25.23.37.56.37.98 0 .4-.13.73-.38.96-.25.23-.59.34-1.03.34-.45 0-.8-.11-1.06-.34a1.21 1.21 0 0 1-.4-.96Zm8-5.42c.57 0 1.09.14 1.55.4.46.27.82.64 1.08 1.13.26.49.39 1.05.39 1.7 0 1.1-.34 1.96-1.01 2.56-.67.6-1.69.9-3.05.9a6.53 6.53 0 0 1-2.86-.54v-2.22a7.2 7.2 0 0 0 2.63.63c.5 0 .89-.1 1.16-.31.27-.22.4-.53.4-.95 0-.38-.14-.68-.41-.9a2.1 2.1 0 0 0-1.24-.31c-.43 0-.89.08-1.38.24l-.99-.5.38-5.27h5.7v2.24h-3.4l-.13 1.32a5.55 5.55 0 0 1 1.18-.12Zm5.97-.44c0 .53.04.9.13 1.14.09.23.22.35.4.35.16 0 .3-.12.37-.34.09-.23.13-.61.13-1.15 0-.52-.04-.9-.13-1.13-.08-.23-.2-.35-.38-.35s-.3.12-.4.36c-.08.23-.12.6-.12 1.12Zm3.1-.02c0 1-.23 1.78-.68 2.33-.45.54-1.1.82-1.93.82-.78 0-1.4-.28-1.86-.85a3.58 3.58 0 0 1-.69-2.3c0-1 .23-1.78.67-2.31a2.3 2.3 0 0 1 1.88-.82c.8 0 1.43.28 1.9.84.47.56.7 1.32.7 2.29Zm4.98-2.98L120.54 99h-2.03l5.54-10h2.03Zm-.48 6.98c0 .53.05.9.13 1.14.09.23.22.35.4.35.19 0 .32-.14.4-.4.07-.27.11-.63.11-1.09 0-.45-.04-.81-.11-1.08-.08-.27-.21-.4-.4-.4-.19 0-.32.12-.4.35a3.5 3.5 0 0 0-.13 1.13Zm3.1-.03c0 1-.23 1.78-.68 2.33-.46.55-1.1.82-1.93.82-.78 0-1.4-.28-1.86-.85a3.57 3.57 0 0 1-.69-2.3c0-1 .23-1.77.67-2.3a2.3 2.3 0 0 1 1.89-.82c.8 0 1.43.28 1.9.84.47.56.7 1.32.7 2.28ZM243.83 114h-7.25v-1.78l2.44-2.47a30.8 30.8 0 0 0 1.36-1.48c.22-.27.37-.5.45-.7.08-.19.13-.39.13-.6a.78.78 0 0 0-.25-.61c-.17-.15-.41-.23-.72-.23s-.63.1-.95.28c-.32.17-.68.44-1.09.79l-1.48-1.74c.51-.46.94-.79 1.3-.98.35-.2.73-.36 1.14-.46.41-.1.88-.16 1.4-.16.64 0 1.22.12 1.72.34.51.23.9.56 1.18.98.29.42.43.9.43 1.42a3.73 3.73 0 0 1-.6 2.07c-.2.32-.48.65-.82 1.01-.34.35-1.06 1.03-2.17 2.02v.07h3.78V114Zm8.52-1.94h-1.1V114h-2.66v-1.94h-3.99v-1.98l4.16-6.07h2.5v6.04h1.1v2.02Zm-3.76-2.01v-1.16a26.6 26.6 0 0 1 .06-1.47h-.08c-.15.35-.33.68-.52.98l-1.11 1.65h1.65Zm6.29-3.04c0 .53.04.9.13 1.14.08.23.21.35.39.35.17 0 .3-.12.38-.34.09-.23.13-.61.13-1.15 0-.52-.04-.9-.13-1.13-.08-.23-.21-.35-.38-.35-.18 0-.31.12-.4.36-.08.23-.12.6-.12 1.12Zm3.1-.02c0 1-.23 1.78-.68 2.33-.45.54-1.1.82-1.93.82-.79 0-1.4-.28-1.87-.85a3.58 3.58 0 0 1-.68-2.3c0-1 .22-1.78.67-2.31a2.3 2.3 0 0 1 1.88-.82c.8 0 1.43.28 1.9.84.47.56.7 1.33.7 2.29Zm4.98-2.98L257.4 114h-2.03l5.55-10h2.03Zm-.48 6.98c0 .53.04.9.13 1.14.08.23.21.35.39.35.2 0 .33-.14.4-.4.08-.27.12-.63.12-1.09 0-.45-.04-.81-.12-1.08-.07-.27-.2-.4-.4-.4-.18 0-.31.12-.4.35-.08.24-.12.62-.12 1.13Zm3.1-.02c0 1-.23 1.77-.69 2.32-.45.55-1.1.82-1.92.82a2.3 2.3 0 0 1-1.87-.85 3.57 3.57 0 0 1-.68-2.3c0-1 .22-1.77.67-2.3a2.3 2.3 0 0 1 1.88-.82c.8 0 1.43.28 1.9.84.47.56.7 1.32.7 2.28ZM250.83 233h-7.25v-1.78l2.44-2.47a30.8 30.8 0 0 0 1.36-1.49c.22-.26.37-.5.45-.69.08-.19.13-.39.13-.6a.78.78 0 0 0-.25-.61c-.17-.15-.41-.23-.72-.23s-.63.1-.95.28c-.32.17-.68.44-1.09.79l-1.48-1.74c.51-.46.94-.79 1.3-.98.35-.2.73-.36 1.14-.46.41-.1.88-.16 1.4-.16.64 0 1.22.12 1.72.34.51.23.9.56 1.18.98.29.42.43.9.43 1.42a3.73 3.73 0 0 1-.6 2.07c-.2.32-.48.65-.82 1.01-.34.35-1.06 1.03-2.17 2.02v.07h3.78V233Zm8.24-4.98c0 1.76-.3 3.06-.88 3.89-.6.82-1.5 1.23-2.73 1.23a3.1 3.1 0 0 1-2.7-1.29c-.6-.86-.9-2.14-.9-3.83 0-1.78.3-3.08.88-3.91.6-.83 1.5-1.25 2.72-1.25 1.2 0 2.1.43 2.7 1.3.6.86.91 2.15.91 3.86Zm-4.53 0c0 1.13.07 1.9.21 2.33.14.42.38.63.71.63.34 0 .58-.22.72-.65.14-.44.2-1.21.2-2.31a8.9 8.9 0 0 0-.2-2.33c-.15-.44-.38-.67-.72-.67-.33 0-.57.22-.7.64a8.7 8.7 0 0 0-.22 2.36Zm7.34-2c0 .52.04.9.13 1.13.08.23.21.35.39.35.17 0 .3-.12.38-.34.09-.23.13-.61.13-1.15 0-.52-.05-.9-.13-1.13-.08-.23-.21-.35-.38-.35-.18 0-.31.12-.4.36-.08.23-.12.6-.12 1.12Zm3.1-.03c0 1-.23 1.78-.68 2.33-.45.54-1.1.82-1.93.82-.79 0-1.4-.28-1.87-.85a3.58 3.58 0 0 1-.68-2.3c0-1 .22-1.78.67-2.31a2.3 2.3 0 0 1 1.88-.82c.8 0 1.43.28 1.9.84.47.56.7 1.33.7 2.29Zm4.98-2.98L264.4 233h-2.03l5.55-10h2.03Zm-.48 6.98c0 .53.04.9.13 1.14.08.23.21.35.39.35.2 0 .33-.14.4-.4.08-.27.12-.63.12-1.09 0-.45-.04-.81-.12-1.08-.07-.27-.2-.4-.4-.4-.18 0-.31.12-.4.35-.08.24-.12.62-.12 1.13Zm3.1-.03c0 1-.23 1.78-.69 2.33-.45.55-1.1.82-1.92.82a2.3 2.3 0 0 1-1.87-.85 3.57 3.57 0 0 1-.68-2.3c0-1 .22-1.77.67-2.3a2.3 2.3 0 0 1 1.88-.82c.8 0 1.43.28 1.9.84.47.56.7 1.32.7 2.28ZM170.6 287h-2.74v-5.3c0-.63.01-1.22.04-1.75-.17.2-.38.42-.63.64l-1.14.93-1.4-1.72 3.44-2.8h2.43v10Zm9.47-4.98c0 1.77-.3 3.06-.88 3.89-.6.82-1.5 1.23-2.73 1.23a3.1 3.1 0 0 1-2.7-1.29c-.6-.86-.9-2.14-.9-3.83 0-1.78.3-3.08.88-3.91.6-.83 1.5-1.25 2.72-1.25 1.2 0 2.1.44 2.7 1.3.6.86.91 2.15.91 3.86Zm-4.53 0c0 1.13.07 1.9.21 2.33.14.42.38.63.71.63.34 0 .58-.22.72-.65.14-.44.2-1.21.2-2.31a8.9 8.9 0 0 0-.2-2.33c-.15-.44-.38-.67-.72-.67-.33 0-.57.22-.7.65a8.7 8.7 0 0 0-.22 2.35Zm7.34-2c0 .52.04.9.13 1.13.08.23.21.35.39.35.17 0 .3-.12.38-.35.09-.22.13-.6.13-1.14 0-.52-.04-.9-.13-1.13-.08-.23-.21-.35-.38-.35-.18 0-.31.12-.4.36-.08.23-.12.6-.12 1.12Zm3.1-.03c0 1-.23 1.78-.68 2.33a2.4 2.4 0 0 1-1.93.82c-.79 0-1.4-.28-1.87-.85a3.58 3.58 0 0 1-.68-2.3c0-1 .22-1.78.67-2.31a2.3 2.3 0 0 1 1.88-.82c.8 0 1.43.28 1.9.84.47.56.7 1.32.7 2.29Zm4.98-2.98L185.4 287h-2.03l5.55-10h2.03Zm-.48 6.98c0 .53.04.9.13 1.14.08.23.21.35.39.35.2 0 .33-.14.4-.4.08-.27.12-.63.12-1.09 0-.45-.04-.81-.12-1.08-.07-.27-.2-.4-.4-.4-.18 0-.31.12-.4.35-.08.24-.12.62-.12 1.13Zm3.1-.03c0 1-.23 1.78-.69 2.33-.45.55-1.1.82-1.92.82a2.3 2.3 0 0 1-1.87-.85 3.57 3.57 0 0 1-.68-2.3c0-1 .22-1.77.67-2.3a2.3 2.3 0 0 1 1.88-.82c.8 0 1.43.28 1.9.84.47.56.7 1.32.7 2.28Zm-76.78-12.51c.57 0 1.1.14 1.55.4.47.27.83.64 1.08 1.13.26.49.4 1.05.4 1.7 0 1.1-.35 1.96-1.02 2.56-.67.6-1.69.9-3.05.9a6.54 6.54 0 0 1-2.86-.54v-2.22a7.2 7.2 0 0 0 2.63.63c.5 0 .9-.1 1.16-.31.27-.22.4-.53.4-.95 0-.38-.13-.68-.4-.9-.28-.2-.7-.31-1.25-.31-.42 0-.88.08-1.38.23l-.99-.49.38-5.27h5.7v2.25h-3.4l-.13 1.31a5.47 5.47 0 0 1 1.18-.12Zm5.97-.44c0 .53.05.9.13 1.14.1.23.22.35.4.35.17 0 .3-.12.38-.35.08-.22.13-.6.13-1.14 0-.52-.05-.9-.13-1.13-.09-.23-.21-.35-.39-.35-.17 0-.3.12-.4.36-.08.23-.12.6-.12 1.12Zm3.1-.02c0 1-.22 1.78-.68 2.33-.45.54-1.09.82-1.92.82-.79 0-1.4-.28-1.87-.85a3.59 3.59 0 0 1-.68-2.3c0-1 .22-1.78.67-2.31a2.3 2.3 0 0 1 1.88-.82c.8 0 1.43.28 1.9.84.47.56.7 1.32.7 2.29Zm4.98-2.98-5.54 9.99h-2.03l5.54-10h2.03Zm-.47 6.98c0 .53.04.9.13 1.14.08.23.21.35.39.35.2 0 .33-.14.4-.4.08-.27.11-.63.11-1.09a4 4 0 0 0-.11-1.08c-.07-.27-.2-.4-.4-.4-.18 0-.31.12-.4.35-.08.24-.12.62-.12 1.13Zm3.1-.03c0 1-.23 1.78-.7 2.33-.44.55-1.08.82-1.91.82-.79 0-1.4-.28-1.87-.85a3.57 3.57 0 0 1-.68-2.3c0-1 .22-1.77.67-2.3a2.3 2.3 0 0 1 1.88-.82c.8 0 1.43.28 1.9.84.47.56.7 1.32.7 2.28Zm-38.23-17.9h-1.1V259H91.5v-1.94h-4v-1.98l4.16-6.07h2.5v6.04h1.1v2.01Zm-3.76-2.01v-1.16a25 25 0 0 1 .06-1.47h-.08c-.15.35-.33.68-.52.98l-1.11 1.65h1.65Zm6.28-3.04c0 .53.05.9.13 1.14.1.23.22.35.4.35.17 0 .3-.12.38-.34.08-.23.13-.61.13-1.15 0-.52-.05-.9-.13-1.13-.09-.23-.21-.35-.39-.35-.17 0-.3.12-.4.36-.07.23-.12.6-.12 1.12Zm3.1-.02c0 1-.22 1.78-.68 2.33-.45.54-1.09.82-1.92.82-.79 0-1.4-.28-1.87-.85a3.59 3.59 0 0 1-.68-2.3c0-1 .22-1.78.67-2.31a2.3 2.3 0 0 1 1.88-.82c.8 0 1.43.28 1.9.84.47.56.7 1.33.7 2.29Zm4.98-2.98-5.54 9.99h-2.03l5.54-10h2.03Zm-.47 6.98c0 .53.04.9.13 1.14.08.23.21.35.39.35.2 0 .33-.14.4-.4.08-.27.12-.63.12-1.09a4 4 0 0 0-.12-1.08c-.07-.27-.2-.4-.4-.4-.18 0-.31.12-.4.35-.08.24-.12.62-.12 1.13Zm3.1-.03c0 1-.23 1.78-.7 2.33-.44.55-1.08.82-1.91.82-.79 0-1.4-.28-1.87-.85a3.57 3.57 0 0 1-.68-2.3c0-1 .22-1.77.67-2.3a2.3 2.3 0 0 1 1.88-.82c.8 0 1.43.28 1.9.84.47.56.7 1.32.7 2.28ZM76.8 240h-7.25v-1.78l2.44-2.47c.7-.72 1.16-1.22 1.37-1.49.21-.26.36-.5.44-.69.1-.19.13-.39.13-.6a.78.78 0 0 0-.25-.61c-.17-.15-.4-.23-.7-.23-.32 0-.64.1-.97.28-.32.17-.68.44-1.08.79l-1.49-1.74c.52-.46.95-.79 1.3-.98.35-.2.73-.36 1.14-.46.42-.1.88-.16 1.4-.16.65 0 1.22.12 1.73.34.5.23.9.56 1.18.98.28.42.42.9.42 1.42a3.76 3.76 0 0 1-.6 2.07c-.2.32-.48.65-.82 1.01-.33.35-1.06 1.03-2.16 2.02v.07h3.78V240Zm1.13-1.13c0-.42.12-.75.37-.97.25-.23.6-.35 1.08-.35.45 0 .8.12 1.04.34.24.23.36.56.36.98 0 .4-.12.73-.37.96-.25.23-.59.34-1.03.34-.45 0-.8-.11-1.06-.34a1.21 1.21 0 0 1-.4-.97Zm8-5.42a2.87 2.87 0 0 1 2.63 1.53c.26.49.39 1.05.39 1.7 0 1.1-.34 1.96-1.02 2.56-.67.6-1.68.9-3.04.9a6.53 6.53 0 0 1-2.86-.54v-2.22a7.2 7.2 0 0 0 2.63.63c.5 0 .89-.1 1.16-.31.26-.22.4-.53.4-.95 0-.38-.14-.68-.41-.9a2.1 2.1 0 0 0-1.25-.31c-.42 0-.88.08-1.37.24l-1-.5.39-5.27h5.7v2.25h-3.4l-.13 1.31a5.49 5.49 0 0 1 1.17-.12Zm5.97-.44c0 .53.04.9.13 1.14.09.23.22.35.39.35s.3-.12.38-.34c.09-.23.13-.61.13-1.15 0-.52-.04-.9-.13-1.13-.08-.23-.2-.35-.38-.35s-.31.12-.4.36c-.08.23-.12.6-.12 1.12ZM95 233c0 1-.23 1.78-.68 2.33-.45.54-1.1.82-1.93.82-.78 0-1.4-.28-1.86-.85a3.59 3.59 0 0 1-.69-2.3c0-1 .23-1.78.67-2.31a2.3 2.3 0 0 1 1.88-.82c.8 0 1.43.28 1.9.84.47.56.7 1.33.7 2.29Zm4.98-2.98L94.44 240H92.4l5.54-10h2.03ZM99.5 237c0 .53.04.9.13 1.14.09.23.22.35.4.35.19 0 .32-.14.4-.4.07-.27.11-.63.11-1.09a4 4 0 0 0-.12-1.08c-.07-.27-.2-.4-.4-.4-.18 0-.3.12-.4.35-.08.24-.12.62-.12 1.13Zm3.1-.03c0 1-.23 1.78-.69 2.33-.45.55-1.09.82-1.92.82-.78 0-1.4-.28-1.86-.85a3.57 3.57 0 0 1-.69-2.3c0-1 .23-1.77.67-2.3a2.3 2.3 0 0 1 1.88-.82c.8 0 1.43.28 1.9.84.47.56.7 1.32.7 2.28ZM70.8 222h-7.25v-1.78l2.44-2.47c.7-.72 1.16-1.22 1.37-1.49.21-.26.36-.5.44-.69.1-.19.13-.39.13-.6a.78.78 0 0 0-.25-.61c-.17-.15-.4-.23-.7-.23-.32 0-.64.1-.97.28-.32.17-.68.44-1.08.79l-1.49-1.74c.52-.46.95-.79 1.3-.98.35-.2.73-.36 1.14-.46.42-.1.88-.16 1.4-.16.65 0 1.22.12 1.73.34.5.23.9.56 1.18.98.28.42.42.9.42 1.42a3.76 3.76 0 0 1-.6 2.07c-.2.32-.48.65-.82 1.01-.33.35-1.06 1.03-2.16 2.02v.07h3.78V222Zm1.13-1.13c0-.42.12-.75.37-.97.25-.23.6-.35 1.08-.35.45 0 .8.12 1.04.34.24.23.36.56.36.98 0 .4-.12.73-.37.96-.25.23-.59.34-1.03.34-.45 0-.8-.11-1.06-.34a1.21 1.21 0 0 1-.4-.97Zm8-5.42a2.87 2.87 0 0 1 2.63 1.53c.26.49.39 1.05.39 1.7 0 1.1-.34 1.96-1.02 2.56-.67.6-1.68.9-3.04.9a6.53 6.53 0 0 1-2.86-.54v-2.22a7.2 7.2 0 0 0 2.63.63c.5 0 .89-.1 1.16-.31.26-.22.4-.53.4-.95 0-.38-.14-.68-.41-.9a2.1 2.1 0 0 0-1.25-.31c-.42 0-.88.08-1.37.24l-1-.5.39-5.27h5.7v2.25h-3.4l-.13 1.31a5.49 5.49 0 0 1 1.17-.12Zm5.97-.44c0 .53.04.9.13 1.14.09.23.22.35.39.35s.3-.12.38-.34c.09-.23.13-.61.13-1.15 0-.52-.04-.9-.13-1.13-.08-.23-.2-.35-.38-.35s-.31.12-.4.36c-.08.23-.12.6-.12 1.12ZM89 215c0 1-.23 1.78-.68 2.33-.45.54-1.1.82-1.93.82-.78 0-1.4-.28-1.86-.85a3.59 3.59 0 0 1-.69-2.3c0-1 .23-1.78.67-2.31a2.3 2.3 0 0 1 1.88-.82c.8 0 1.43.28 1.9.84.47.56.7 1.33.7 2.29Zm4.98-2.98L88.44 222H86.4l5.54-10h2.03ZM93.5 219c0 .53.04.9.13 1.14.09.23.22.35.4.35.19 0 .32-.14.4-.4.07-.27.11-.63.11-1.09 0-.45-.04-.81-.12-1.08-.07-.27-.2-.4-.4-.4-.18 0-.3.12-.4.35-.08.24-.12.62-.12 1.13Zm3.1-.03c0 1-.23 1.78-.69 2.33-.45.55-1.09.82-1.92.82-.78 0-1.4-.28-1.86-.85a3.57 3.57 0 0 1-.69-2.3c0-1 .23-1.77.67-2.3a2.3 2.3 0 0 1 1.88-.82c.8 0 1.43.28 1.9.84.47.56.7 1.32.7 2.28ZM65.93 205h-7.25v-1.78l2.44-2.47c.7-.72 1.15-1.22 1.37-1.49.2-.26.36-.5.44-.69.09-.19.13-.39.13-.6a.78.78 0 0 0-.25-.61c-.17-.15-.4-.23-.71-.23-.32 0-.64.1-.96.28-.32.17-.68.44-1.09.79l-1.48-1.74a7.3 7.3 0 0 1 1.3-.98c.35-.2.73-.36 1.14-.46.41-.1.88-.16 1.4-.16.64 0 1.22.12 1.72.34.51.23.9.56 1.19.98.28.42.42.9.42 1.42a3.76 3.76 0 0 1-.6 2.07c-.2.32-.48.65-.82 1.01-.34.35-1.06 1.03-2.17 2.02v.07h3.78V205Zm2.84-6.99c0 .53.05.9.13 1.14.1.23.22.35.4.35.17 0 .3-.12.38-.34.08-.23.13-.61.13-1.15 0-.52-.05-.9-.13-1.13-.09-.23-.21-.35-.39-.35-.17 0-.3.12-.4.36-.07.23-.12.6-.12 1.12Zm3.1-.02c0 1-.22 1.78-.68 2.33-.45.54-1.09.82-1.92.82-.79 0-1.4-.28-1.87-.85a3.59 3.59 0 0 1-.68-2.3c0-1 .22-1.78.67-2.31a2.3 2.3 0 0 1 1.88-.82c.8 0 1.43.28 1.9.84.47.56.7 1.33.7 2.29Zm4.98-2.98L71.31 205h-2.03l5.54-10h2.03Zm-.47 6.98c0 .53.04.9.13 1.14.08.23.21.35.39.35.2 0 .33-.14.4-.4.08-.27.12-.63.12-1.09 0-.45-.04-.81-.12-1.08-.07-.27-.2-.4-.4-.4-.18 0-.31.12-.4.35-.08.24-.12.62-.12 1.13Zm3.1-.03c0 1-.24 1.78-.7 2.33-.44.55-1.08.82-1.91.82-.79 0-1.4-.28-1.87-.85a3.57 3.57 0 0 1-.68-2.3c0-1 .22-1.77.67-2.3a2.3 2.3 0 0 1 1.88-.82c.8 0 1.43.28 1.9.84.47.56.7 1.32.7 2.28ZM57.58 186h-2.75v-5.3c0-.63.02-1.22.05-1.75-.17.2-.38.42-.63.64l-1.14.93-1.4-1.72 3.43-2.8h2.44v10Zm2.35-1.13c0-.42.12-.75.37-.97.25-.23.6-.35 1.08-.35.45 0 .8.12 1.04.34.24.23.36.56.36.98 0 .4-.12.73-.37.96-.25.23-.59.34-1.03.34-.45 0-.8-.11-1.06-.34a1.21 1.21 0 0 1-.4-.97Zm8-5.42a2.87 2.87 0 0 1 2.63 1.53c.26.49.39 1.05.39 1.7 0 1.1-.34 1.96-1.02 2.56-.67.6-1.68.9-3.04.9a6.53 6.53 0 0 1-2.86-.54v-2.22a7.2 7.2 0 0 0 2.63.63c.5 0 .89-.1 1.16-.31.26-.22.4-.53.4-.95 0-.38-.14-.68-.41-.9a2.1 2.1 0 0 0-1.25-.31c-.42 0-.88.08-1.37.24l-1-.5.39-5.27h5.7v2.25h-3.4l-.13 1.31a5.49 5.49 0 0 1 1.17-.12Zm5.97-.44c0 .53.04.9.13 1.14.09.23.22.35.39.35s.3-.12.38-.34c.09-.23.13-.61.13-1.15 0-.52-.04-.9-.13-1.13-.08-.23-.2-.35-.38-.35s-.31.12-.4.36c-.08.23-.12.6-.12 1.12ZM77 179c0 1-.23 1.78-.68 2.33-.45.54-1.1.82-1.93.82-.78 0-1.4-.28-1.86-.85a3.59 3.59 0 0 1-.69-2.3c0-1 .23-1.78.67-2.31a2.3 2.3 0 0 1 1.88-.82c.8 0 1.43.28 1.9.84.47.56.7 1.33.7 2.29Zm4.98-2.98L76.44 186H74.4l5.54-10h2.03ZM81.5 183c0 .53.04.9.13 1.14.09.23.22.35.4.35.19 0 .32-.14.4-.4.07-.27.11-.63.11-1.09 0-.45-.04-.81-.12-1.08-.07-.27-.2-.4-.4-.4-.18 0-.3.12-.4.35-.08.24-.12.62-.12 1.13Zm3.1-.03c0 1-.23 1.78-.69 2.33-.45.55-1.09.82-1.92.82-.78 0-1.4-.28-1.86-.85a3.57 3.57 0 0 1-.69-2.3c0-1 .23-1.77.67-2.3a2.3 2.3 0 0 1 1.88-.82c.8 0 1.43.28 1.9.84.47.56.7 1.32.7 2.28Z"/><path fill="#F2F2F2" d="M628.8 65h-7.27V52.15h7.27v1.78h-5.17v3.5h4.84v1.75h-4.84v4.04h5.17V65Zm10.76 0h-2.08v-6c0-.74-.14-1.3-.42-1.66-.28-.36-.72-.55-1.32-.55-.8 0-1.38.26-1.76.78-.37.52-.55 1.38-.55 2.59V65h-2.06v-9.72h1.61l.3 1.27h.1a2.7 2.7 0 0 1 1.17-1.07 3.81 3.81 0 0 1 1.7-.38c1.49 0 2.48.51 2.96 1.53h.14c.3-.48.7-.85 1.22-1.12.52-.27 1.12-.4 1.79-.4 1.16 0 2 .29 2.53.87.53.59.8 1.48.8 2.68V65h-2.07v-6c0-.74-.14-1.3-.42-1.66-.29-.36-.73-.55-1.32-.55-.8 0-1.4.25-1.77.76-.37.5-.55 1.26-.55 2.3V65Zm13.94.18a3.4 3.4 0 0 1-2.86-1.33h-.12c.08.82.12 1.32.12 1.5v3.97h-2.07V55.28h1.67l.3 1.3h.1a3.23 3.23 0 0 1 2.9-1.48c1.21 0 2.16.44 2.83 1.32.68.88 1.02 2.11 1.02 3.7 0 1.59-.35 2.83-1.04 3.72a3.4 3.4 0 0 1-2.85 1.34Zm-.5-8.39c-.82 0-1.42.24-1.8.72-.37.48-.56 1.25-.56 2.3v.31c0 1.19.19 2.04.56 2.58.38.52.99.79 1.84.79.71 0 1.26-.3 1.65-.88.39-.59.58-1.42.58-2.5 0-1.1-.2-1.92-.58-2.48a1.9 1.9 0 0 0-1.69-.84Zm8.85 8.21h-2.06V51.32h2.06V65Zm11.59-4.88a5.3 5.3 0 0 1-1.22 3.72 4.38 4.38 0 0 1-3.4 1.34c-.91 0-1.72-.2-2.41-.62-.7-.41-1.24-1-1.61-1.77a6.02 6.02 0 0 1-.56-2.67c0-1.57.4-2.8 1.2-3.69a4.4 4.4 0 0 1 3.43-1.33c1.4 0 2.52.46 3.34 1.37.82.9 1.23 2.12 1.23 3.65Zm-7.08 0c0 2.25.83 3.37 2.49 3.37 1.64 0 2.46-1.12 2.46-3.37 0-2.22-.82-3.33-2.48-3.33-.87 0-1.5.29-1.89.86a4.4 4.4 0 0 0-.58 2.47Zm7.98-4.84h2.25l1.98 5.51c.3.79.5 1.52.6 2.21h.07c.05-.32.15-.7.29-1.16.14-.47.88-2.65 2.23-6.56H684l-4.15 11.01c-.76 2.02-2.02 3.03-3.78 3.03-.46 0-.9-.05-1.34-.15v-1.63c.31.07.67.1 1.06.1 1 0 1.7-.57 2.1-1.73l.37-.91-3.9-9.72Zm15.38 9.9c-1.52 0-2.7-.44-3.56-1.32a5.05 5.05 0 0 1-1.27-3.65c0-1.59.4-2.84 1.19-3.74a4.1 4.1 0 0 1 3.26-1.37 4 4 0 0 1 3.04 1.17 4.47 4.47 0 0 1 1.11 3.22v1.12h-6.47c.03.94.28 1.67.76 2.18.48.5 1.16.75 2.03.75a7.62 7.62 0 0 0 3.2-.7v1.68c-.5.24-1.01.4-1.53.5-.51.1-1.1.16-1.76.16Zm-.38-8.51c-.66 0-1.19.2-1.59.62a3 3 0 0 0-.7 1.82h4.41c0-.8-.2-1.4-.58-1.82a1.98 1.98 0 0 0-1.54-.62Zm10.75 8.5c-1.52 0-2.7-.43-3.56-1.31a5.05 5.05 0 0 1-1.27-3.65c0-1.59.4-2.84 1.19-3.74a4.1 4.1 0 0 1 3.26-1.37 4 4 0 0 1 3.04 1.17 4.47 4.47 0 0 1 1.12 3.22v1.12h-6.48c.03.94.28 1.67.76 2.18.48.5 1.16.75 2.03.75a7.62 7.62 0 0 0 3.2-.7v1.68c-.5.24-1.01.4-1.53.5-.51.1-1.1.16-1.76.16Zm-.38-8.5c-.66 0-1.19.2-1.58.62a3 3 0 0 0-.7 1.82h4.4c0-.8-.2-1.4-.58-1.82a1.98 1.98 0 0 0-1.54-.62Zm22.8 1.89c0 2.09-.52 3.72-1.57 4.88-1.04 1.16-2.52 1.74-4.44 1.74-1.93 0-3.43-.58-4.47-1.73-1.04-1.15-1.55-2.79-1.55-4.91s.52-3.75 1.56-4.89c1.05-1.13 2.54-1.7 4.48-1.7 1.91 0 3.39.58 4.43 1.73 1.04 1.15 1.57 2.78 1.57 4.88Zm-9.8 0c0 1.58.32 2.78.95 3.6.64.82 1.59 1.22 2.84 1.22 1.25 0 2.2-.4 2.83-1.21.63-.8.95-2.01.95-3.61 0-1.58-.31-2.77-.95-3.59-.62-.81-1.56-1.22-2.8-1.22-1.27 0-2.22.4-2.87 1.22-.63.82-.95 2.01-.95 3.59ZM727.27 65l-3.7-9.72h2.19l1.98 5.65c.34.95.54 1.72.61 2.3h.07c.06-.42.26-1.19.62-2.3l1.98-5.65h2.2L729.5 65h-2.23Zm11.66.18c-1.5 0-2.7-.44-3.55-1.32a5.05 5.05 0 0 1-1.27-3.65c0-1.59.4-2.84 1.18-3.74a4.1 4.1 0 0 1 3.27-1.37 4 4 0 0 1 3.04 1.17 4.47 4.47 0 0 1 1.11 3.22v1.12h-6.47c.02.94.28 1.67.76 2.18.48.5 1.16.75 2.03.75a7.62 7.62 0 0 0 3.2-.7v1.68c-.5.24-1.01.4-1.53.5-.52.1-1.1.16-1.77.16Zm-.37-8.51c-.66 0-1.19.2-1.59.62a3.03 3.03 0 0 0-.7 1.82h4.41c0-.8-.2-1.4-.58-1.82a1.98 1.98 0 0 0-1.54-.62Zm11.43-1.57c.42 0 .76.03 1.03.1l-.2 1.92a4 4 0 0 0-.92-.1c-.82 0-1.5.26-2.01.8a2.93 2.93 0 0 0-.76 2.1V65h-2.07v-9.72h1.62l.27 1.71h.1a4 4 0 0 1 1.26-1.38 3.02 3.02 0 0 1 1.68-.5ZM760.8 65l-1.26-4.54a55.6 55.6 0 0 1-.82-3.34h-.08c-.34 1.58-.61 2.7-.81 3.36l-1.3 4.52h-2.28l-2.72-9.72h2.1l1.25 4.79c.28 1.18.48 2.2.6 3.04h.05a20.3 20.3 0 0 1 .58-2.72l1.47-5.11h2.27l1.43 5.11a17.92 17.92 0 0 1 .57 2.7h.07c.09-.72.29-1.73.61-3.02l1.26-4.8h2.07L763.12 65h-2.32Zm11.67-9.9c.42 0 .76.03 1.03.1l-.2 1.92c-.3-.07-.6-.1-.91-.1-.83 0-1.5.26-2.02.8-.5.54-.76 1.24-.76 2.1V65h-2.07v-9.72h1.62l.27 1.71h.1a4 4 0 0 1 1.26-1.38 3.02 3.02 0 0 1 1.68-.5Zm11.46 5.02a5.3 5.3 0 0 1-1.22 3.72 4.38 4.38 0 0 1-3.4 1.34c-.9 0-1.71-.2-2.4-.62a4.1 4.1 0 0 1-1.62-1.77 6.02 6.02 0 0 1-.56-2.67c0-1.57.4-2.8 1.22-3.69a4.4 4.4 0 0 1 3.41-1.33c1.41 0 2.52.46 3.34 1.37.82.9 1.23 2.12 1.23 3.65Zm-7.07 0c0 2.25.83 3.37 2.49 3.37 1.64 0 2.46-1.12 2.46-3.37 0-2.22-.83-3.33-2.48-3.33-.87 0-1.5.29-1.9.86a4.4 4.4 0 0 0-.57 2.47Zm13.08 3.39c.5 0 1-.08 1.5-.24v1.55a5.78 5.78 0 0 1-2 .35c-1.95 0-2.93-1.03-2.93-3.09v-5.24h-1.33v-.91l1.43-.76.7-2.05h1.27v2.16h2.77v1.56h-2.77v5.2c0 .5.13.87.37 1.11.25.24.58.36.99.36Zm7.7 1.67c-1.5 0-2.7-.44-3.55-1.32a5.05 5.05 0 0 1-1.27-3.65c0-1.59.4-2.84 1.19-3.74a4.1 4.1 0 0 1 3.26-1.37 4 4 0 0 1 3.04 1.17 4.47 4.47 0 0 1 1.11 3.22v1.12h-6.47c.03.94.28 1.67.76 2.18.48.5 1.16.75 2.03.75a7.63 7.63 0 0 0 3.2-.7v1.68c-.5.24-1.01.4-1.53.5-.51.1-1.1.16-1.76.16Zm-.37-8.51c-.66 0-1.19.2-1.59.62a3.03 3.03 0 0 0-.7 1.82h4.41c0-.8-.2-1.4-.58-1.82a1.98 1.98 0 0 0-1.54-.62Zm21.85 1.78c0 2.12-.6 3.75-1.77 4.87-1.18 1.12-2.87 1.68-5.09 1.68h-3.6V52.15h3.98c2.04 0 3.63.55 4.77 1.65 1.14 1.1 1.7 2.65 1.7 4.65Zm-2.22.07c0-3.07-1.44-4.61-4.31-4.61h-1.82v9.32h1.5c3.09 0 4.63-1.57 4.63-4.7ZM827.75 65l-.42-1.35h-.07c-.47.59-.94 1-1.41 1.2a4.4 4.4 0 0 1-1.83.33 3.1 3.1 0 0 1-2.24-.78c-.53-.51-.8-1.24-.8-2.19 0-1 .37-1.75 1.12-2.26.74-.51 1.87-.8 3.4-.84l1.68-.05v-.52c0-.62-.15-1.08-.44-1.39-.3-.3-.74-.46-1.35-.46-.5 0-.97.07-1.43.22-.46.14-.9.31-1.32.51l-.67-1.47a7.82 7.82 0 0 1 3.5-.84c1.25 0 2.18.26 2.8.8.64.54.95 1.39.95 2.54V65h-1.47Zm-3.08-1.4c.75 0 1.35-.21 1.8-.63.46-.42.69-1.01.69-1.77v-.84l-1.25.05c-.97.04-1.68.2-2.13.5-.44.28-.66.72-.66 1.32 0 .44.13.77.4 1.01.25.24.64.35 1.15.35Zm11.06-.1a5 5 0 0 0 1.51-.23v1.55a5.78 5.78 0 0 1-2 .35c-1.96 0-2.94-1.03-2.94-3.09v-5.24h-1.33v-.91l1.43-.76.7-2.05h1.27v2.16h2.77v1.56h-2.77v5.2c0 .5.13.87.37 1.11.25.24.58.36.99.36Zm9.54 1.5-.41-1.35h-.07c-.47.59-.94 1-1.42 1.2-.47.22-1.08.33-1.82.33a3.1 3.1 0 0 1-2.25-.78 2.9 2.9 0 0 1-.8-2.19c0-1 .38-1.75 1.12-2.26.75-.51 1.88-.8 3.4-.84l1.68-.05v-.52c0-.62-.15-1.08-.44-1.39-.28-.3-.73-.46-1.34-.46-.5 0-.98.07-1.43.22-.46.14-.9.31-1.32.51l-.67-1.47a7.82 7.82 0 0 1 3.5-.84c1.24 0 2.17.26 2.8.8.63.54.95 1.39.95 2.54V65h-1.48Zm-3.07-1.4c.75 0 1.35-.21 1.8-.63.46-.42.68-1.01.68-1.77v-.84l-1.24.05a4.2 4.2 0 0 0-2.13.5c-.44.28-.66.72-.66 1.32 0 .44.13.77.39 1.01.25.24.64.35 1.16.35ZM627 111.77c-1.21 0-2.16.42-2.85 1.28a5.48 5.48 0 0 0-1.04 3.54c0 1.58.33 2.77 1 3.58.66.8 1.63 1.21 2.89 1.21a7.5 7.5 0 0 0 1.58-.16c.5-.1 1.04-.25 1.59-.42v1.8c-1 .39-2.15.58-3.43.58-1.88 0-3.32-.57-4.33-1.7-1-1.15-1.51-2.78-1.51-4.9 0-1.34.24-2.51.73-3.51s1.2-1.77 2.12-2.3c.93-.54 2.02-.8 3.26-.8a8.1 8.1 0 0 1 3.64.82l-.75 1.75c-.44-.2-.9-.38-1.38-.54a4.84 4.84 0 0 0-1.52-.23Zm14.34 6.35a5.3 5.3 0 0 1-1.22 3.72 4.38 4.38 0 0 1-3.4 1.34c-.91 0-1.71-.2-2.41-.62-.7-.41-1.23-1-1.61-1.77a6.02 6.02 0 0 1-.56-2.67c0-1.57.4-2.8 1.21-3.69a4.4 4.4 0 0 1 3.42-1.33c1.4 0 2.52.46 3.34 1.37.82.9 1.23 2.12 1.23 3.65Zm-7.08 0c0 2.25.83 3.37 2.5 3.37 1.63 0 2.45-1.12 2.45-3.37 0-2.22-.82-3.33-2.48-3.33-.86 0-1.5.29-1.88.86-.4.58-.59 1.4-.59 2.47Zm17.65 4.88h-2.07v-6c0-.74-.14-1.3-.42-1.66-.28-.36-.72-.55-1.32-.55-.8 0-1.38.26-1.76.78-.37.52-.55 1.38-.55 2.59V123h-2.07v-9.72h1.62l.29 1.27h.1a2.7 2.7 0 0 1 1.17-1.07 3.8 3.8 0 0 1 1.7-.38c1.5 0 2.48.51 2.97 1.53h.14c.29-.48.7-.85 1.21-1.12.53-.27 1.12-.4 1.8-.4 1.16 0 2 .29 2.53.87.53.59.8 1.48.8 2.68V123h-2.07v-6c0-.74-.14-1.3-.43-1.66-.28-.36-.72-.55-1.32-.55-.8 0-1.39.25-1.76.76-.37.5-.56 1.26-.56 2.3V123Zm13.95.18a3.4 3.4 0 0 1-2.86-1.33h-.13c.09.82.13 1.32.13 1.5v3.97h-2.07v-14.04h1.67l.3 1.3h.1a3.24 3.24 0 0 1 2.9-1.48c1.21 0 2.15.44 2.83 1.32.68.88 1.02 2.11 1.02 3.7 0 1.59-.35 2.83-1.04 3.72a3.4 3.4 0 0 1-2.85 1.34Zm-.5-8.39c-.82 0-1.42.24-1.8.72-.38.48-.56 1.25-.56 2.3v.31c0 1.19.18 2.04.56 2.58.37.52.99.79 1.84.79.71 0 1.26-.3 1.65-.88a4.6 4.6 0 0 0 .58-2.5c0-1.1-.2-1.92-.58-2.47a1.9 1.9 0 0 0-1.69-.85Zm8.85 8.21h-2.06v-13.68h2.06V123Zm5.03 0h-2.07v-9.72h2.07V123Zm-2.19-12.3c0-.37.1-.65.3-.85.2-.2.5-.3.87-.3.36 0 .64.1.84.3.2.2.31.48.31.85 0 .36-.1.63-.3.84-.2.2-.49.3-.85.3-.38 0-.67-.1-.87-.3-.2-.2-.3-.48-.3-.84Zm11.23 12.3-.41-1.35h-.07c-.47.59-.94 1-1.42 1.2-.47.22-1.08.33-1.82.33a3.1 3.1 0 0 1-2.24-.78c-.54-.51-.8-1.24-.8-2.19 0-1 .37-1.75 1.11-2.26.75-.51 1.88-.8 3.4-.84l1.68-.05v-.52c0-.62-.14-1.08-.44-1.39-.28-.3-.73-.46-1.34-.46-.5 0-.98.07-1.44.22-.45.14-.9.31-1.31.51l-.67-1.47a7.83 7.83 0 0 1 3.5-.84c1.24 0 2.17.26 2.8.8.63.54.95 1.39.95 2.54V123h-1.48Zm-3.07-1.4c.75 0 1.35-.21 1.8-.63.46-.42.68-1.01.68-1.77v-.84l-1.24.05a4.2 4.2 0 0 0-2.13.5c-.44.28-.66.72-.66 1.32 0 .44.13.77.39 1.01.25.24.64.35 1.16.35Zm15.98 1.4h-2.07v-5.98c0-.75-.15-1.3-.46-1.67-.3-.37-.77-.56-1.43-.56-.87 0-1.51.26-1.92.77-.4.52-.6 1.38-.6 2.6V123h-2.07v-9.72h1.62l.29 1.27h.1c.3-.46.71-.82 1.25-1.07a4.18 4.18 0 0 1 1.8-.38c2.33 0 3.5 1.19 3.5 3.56V123Zm6.8.18c-1.47 0-2.6-.43-3.36-1.29-.76-.86-1.14-2.1-1.14-3.7 0-1.63.4-2.89 1.2-3.77.8-.88 1.95-1.32 3.46-1.32a6.5 6.5 0 0 1 2.77.58l-.62 1.66a6.25 6.25 0 0 0-2.16-.51c-1.68 0-2.52 1.11-2.52 3.34 0 1.1.2 1.91.62 2.47.42.54 1.04.81 1.84.81.92 0 1.8-.23 2.62-.68v1.8c-.38.22-.77.37-1.2.47-.4.09-.91.14-1.51.14Zm9.24 0c-1.52 0-2.7-.44-3.56-1.32a5.04 5.04 0 0 1-1.27-3.65c0-1.59.4-2.84 1.19-3.74a4.1 4.1 0 0 1 3.26-1.37 4 4 0 0 1 3.04 1.17 4.47 4.47 0 0 1 1.11 3.22v1.12h-6.47c.03.94.28 1.67.76 2.17s1.16.76 2.03.76a7.66 7.66 0 0 0 3.2-.7v1.68c-.5.24-1.01.4-1.53.5-.51.1-1.1.16-1.76.16Zm-.38-8.51c-.66 0-1.19.2-1.59.62a3.03 3.03 0 0 0-.7 1.82h4.41c0-.8-.2-1.4-.58-1.82a1.98 1.98 0 0 0-1.54-.62Zm22.1 8.33h-2.57l-6.32-10.24h-.07l.04.57c.08 1.1.12 2.09.12 2.99V123h-1.9v-12.85h2.54l6.3 10.19h.06a60.87 60.87 0 0 1-.12-3.46v-6.73h1.92V123Zm7.42.18c-1.51 0-2.7-.44-3.55-1.32a5.04 5.04 0 0 1-1.28-3.65c0-1.59.4-2.84 1.2-3.74a4.1 4.1 0 0 1 3.25-1.37 4 4 0 0 1 3.04 1.17 4.47 4.47 0 0 1 1.12 3.22v1.12h-6.48c.03.94.29 1.67.77 2.17.48.5 1.15.76 2.03.76a7.68 7.68 0 0 0 3.2-.7v1.68c-.5.24-1.02.4-1.53.5-.52.1-1.1.16-1.77.16Zm-.38-8.51c-.65 0-1.18.2-1.58.62a3 3 0 0 0-.7 1.82h4.4c0-.8-.2-1.4-.57-1.82a1.98 1.98 0 0 0-1.55-.62Zm10.75 8.5c-1.51 0-2.7-.43-3.55-1.31a5.04 5.04 0 0 1-1.28-3.65c0-1.59.4-2.84 1.2-3.74a4.1 4.1 0 0 1 3.25-1.37 4 4 0 0 1 3.04 1.17 4.47 4.47 0 0 1 1.12 3.22v1.12h-6.48c.03.94.29 1.67.77 2.17.48.5 1.15.76 2.03.76a7.67 7.67 0 0 0 3.2-.7v1.68c-.5.24-1.02.4-1.53.5-.52.1-1.1.16-1.77.16Zm-.38-8.5c-.65 0-1.18.2-1.58.62a3 3 0 0 0-.7 1.82h4.41c-.01-.8-.2-1.4-.58-1.82a1.98 1.98 0 0 0-1.55-.62Zm9.78 8.5a3.39 3.39 0 0 1-2.83-1.31c-.68-.88-1.02-2.11-1.02-3.7 0-1.6.34-2.84 1.03-3.72a3.43 3.43 0 0 1 2.86-1.34c1.28 0 2.25.48 2.92 1.42h.1c-.1-.7-.15-1.25-.15-1.65v-3.55h2.08V123h-1.62l-.36-1.27h-.1a3.3 3.3 0 0 1-2.9 1.45Zm.56-1.66c.85 0 1.47-.24 1.85-.72.39-.48.59-1.25.6-2.33v-.28c0-1.23-.2-2.1-.6-2.62-.4-.51-1.02-.77-1.87-.77-.73 0-1.28.3-1.68.89a4.5 4.5 0 0 0-.59 2.51c0 1.08.2 1.9.58 2.47.38.56.95.85 1.7.85Zm11.63 1.67c-1.51 0-2.7-.44-3.55-1.32a5.04 5.04 0 0 1-1.28-3.65c0-1.59.4-2.84 1.19-3.74a4.1 4.1 0 0 1 3.26-1.37 4 4 0 0 1 3.04 1.17 4.47 4.47 0 0 1 1.12 3.22v1.12h-6.48c.03.94.28 1.67.76 2.17s1.16.76 2.03.76a7.67 7.67 0 0 0 3.2-.7v1.68c-.5.24-1.01.4-1.53.5-.51.1-1.1.16-1.76.16Zm-.38-8.51c-.66 0-1.19.2-1.58.62a3 3 0 0 0-.7 1.82h4.4c0-.8-.2-1.4-.58-1.82a1.98 1.98 0 0 0-1.54-.62Zm9.78 8.5a3.39 3.39 0 0 1-2.84-1.31c-.68-.88-1.02-2.11-1.02-3.7 0-1.6.35-2.84 1.03-3.72a3.43 3.43 0 0 1 2.87-1.34c1.27 0 2.25.48 2.91 1.42h.1c-.09-.7-.14-1.25-.14-1.65v-3.55h2.07V123h-1.61l-.36-1.27h-.1a3.3 3.3 0 0 1-2.9 1.45Zm.55-1.66c.85 0 1.47-.24 1.86-.72.39-.48.59-1.25.6-2.33v-.28c0-1.23-.2-2.1-.6-2.62-.4-.51-1.02-.77-1.87-.77-.73 0-1.29.3-1.68.89a4.5 4.5 0 0 0-.6 2.51c0 1.08.2 1.9.58 2.47.38.56.95.85 1.71.85ZM629.5 181l-1.28-3.57h-4.92l-1.25 3.57h-2.22l4.81-12.9h2.29l4.8 12.9h-2.23Zm-1.84-5.38-1.2-3.5a23.16 23.16 0 0 1-.69-2.21c-.15.72-.38 1.5-.69 2.36l-1.16 3.35h3.74Zm9.47 5.56c-1.47 0-2.59-.43-3.36-1.29-.76-.86-1.14-2.1-1.14-3.7 0-1.63.4-2.89 1.2-3.77.8-.88 1.95-1.32 3.47-1.32a6.5 6.5 0 0 1 2.77.58l-.63 1.66a6.25 6.25 0 0 0-2.16-.51c-1.68 0-2.52 1.11-2.52 3.34 0 1.1.2 1.92.62 2.47.42.54 1.04.81 1.85.81.92 0 1.79-.22 2.6-.68v1.8c-.36.22-.76.37-1.18.47-.41.09-.92.14-1.52.14Zm8.91 0c-1.47 0-2.59-.43-3.36-1.29-.76-.86-1.14-2.1-1.14-3.7 0-1.63.4-2.89 1.2-3.77.8-.88 1.96-1.32 3.47-1.32a6.5 6.5 0 0 1 2.77.58l-.63 1.66a6.25 6.25 0 0 0-2.16-.51c-1.68 0-2.52 1.11-2.52 3.34 0 1.1.2 1.92.62 2.47.43.54 1.04.81 1.85.81.92 0 1.79-.22 2.6-.68v1.8c-.36.22-.75.37-1.18.47-.41.09-.92.14-1.52.14Zm9.24 0c-1.51 0-2.7-.44-3.55-1.32a5.04 5.04 0 0 1-1.28-3.65c0-1.59.4-2.84 1.2-3.74a4.1 4.1 0 0 1 3.25-1.37 4 4 0 0 1 3.04 1.17 4.47 4.47 0 0 1 1.12 3.22v1.11h-6.48c.03.95.28 1.68.77 2.19.48.5 1.15.75 2.03.75a7.67 7.67 0 0 0 3.2-.7v1.68a6.3 6.3 0 0 1-1.53.5c-.52.1-1.1.16-1.77.16Zm-.38-8.51c-.65 0-1.18.2-1.58.62a3 3 0 0 0-.7 1.82h4.4c0-.8-.2-1.4-.57-1.82a1.98 1.98 0 0 0-1.55-.62Zm9.78 8.5a3.39 3.39 0 0 1-2.83-1.31c-.69-.88-1.02-2.12-1.02-3.7 0-1.6.34-2.84 1.02-3.72a3.43 3.43 0 0 1 2.87-1.34c1.28 0 2.25.47 2.92 1.42h.1c-.1-.7-.15-1.25-.15-1.65v-3.55h2.08V181h-1.62l-.36-1.27h-.1a3.3 3.3 0 0 1-2.9 1.45Zm.56-1.66c.85 0 1.47-.24 1.85-.72.39-.48.59-1.25.6-2.32v-.3c0-1.22-.2-2.09-.6-2.6-.4-.52-1.02-.78-1.87-.78-.73 0-1.29.3-1.68.89a4.5 4.5 0 0 0-.59 2.51c0 1.08.2 1.9.57 2.47.38.56.96.85 1.72.85Zm11.63 1.67a4.7 4.7 0 0 1-3.55-1.32 5.04 5.04 0 0 1-1.28-3.65c0-1.59.4-2.84 1.19-3.74a4.1 4.1 0 0 1 3.26-1.37 4 4 0 0 1 3.04 1.17 4.47 4.47 0 0 1 1.12 3.22v1.11h-6.48c.03.95.28 1.68.76 2.19.48.5 1.16.75 2.03.75a7.67 7.67 0 0 0 3.2-.7v1.68c-.5.24-1.01.4-1.53.5-.51.1-1.1.16-1.76.16Zm-.38-8.51c-.66 0-1.19.2-1.58.62a3 3 0 0 0-.7 1.82h4.4c0-.8-.2-1.4-.58-1.82a1.98 1.98 0 0 0-1.54-.62Zm15.05 8.33h-2.07v-5.98c0-.75-.15-1.3-.46-1.68-.3-.36-.77-.55-1.43-.55-.87 0-1.51.26-1.92.77-.4.52-.6 1.38-.6 2.6V181h-2.07v-9.72h1.62l.29 1.27h.1c.3-.46.71-.82 1.25-1.07a4.18 4.18 0 0 1 1.8-.38c2.33 0 3.5 1.19 3.5 3.56V181Zm6.5-1.5a5 5 0 0 0 1.51-.23v1.55a5.71 5.71 0 0 1-2 .35c-1.96 0-2.94-1.02-2.94-3.09v-5.24h-1.33v-.91l1.43-.76.7-2.05h1.27v2.16h2.77v1.56h-2.77v5.2c0 .5.13.87.37 1.11.26.24.58.36.99.36Zm9.54 1.5-.41-1.35h-.07c-.47.59-.94 1-1.42 1.2-.47.22-1.08.33-1.82.33-.96 0-1.7-.26-2.25-.78-.53-.51-.8-1.24-.8-2.19 0-1 .38-1.75 1.12-2.26.75-.51 1.88-.8 3.4-.84l1.68-.05v-.52c0-.62-.14-1.08-.44-1.39-.29-.3-.73-.46-1.34-.46-.5 0-.98.07-1.44.22-.45.14-.9.31-1.31.51l-.67-1.47a7.84 7.84 0 0 1 3.5-.84c1.24 0 2.17.26 2.8.8.63.54.95 1.39.95 2.54V181h-1.48Zm-3.07-1.4c.75 0 1.35-.21 1.8-.63.46-.42.68-1.01.68-1.77v-.84l-1.24.05c-.98.04-1.68.2-2.13.5-.44.28-.66.72-.66 1.32 0 .44.13.77.39 1.01.25.24.64.35 1.16.35Zm9.5 1.4h-2.07v-13.68h2.07V181Zm18.3-6.55c0 2.12-.58 3.75-1.76 4.87-1.18 1.12-2.88 1.68-5.09 1.68h-3.6v-12.85h3.98c2.04 0 3.63.55 4.77 1.65 1.14 1.1 1.7 2.65 1.7 4.65Zm-2.2.07c0-3.07-1.45-4.61-4.33-4.61h-1.81v9.32h1.49c3.1 0 4.64-1.57 4.64-4.7Zm9 6.66c-1.51 0-2.7-.44-3.55-1.32a5.04 5.04 0 0 1-1.28-3.65c0-1.59.4-2.84 1.2-3.74a4.1 4.1 0 0 1 3.25-1.37 4 4 0 0 1 3.04 1.17 4.47 4.47 0 0 1 1.12 3.22v1.11h-6.48c.03.95.29 1.68.77 2.19.48.5 1.15.75 2.03.75a7.66 7.66 0 0 0 3.2-.7v1.68c-.5.24-1.02.4-1.53.5-.52.1-1.1.16-1.77.16Zm-.38-8.51c-.65 0-1.18.2-1.58.62-.4.42-.63 1.02-.7 1.82h4.4c0-.8-.2-1.4-.57-1.82-.38-.41-.9-.62-1.55-.62Zm8.57 8.33h-2.06v-13.68h2.06V181Zm7.2.18a4.7 4.7 0 0 1-3.54-1.32 5.05 5.05 0 0 1-1.28-3.65c0-1.59.4-2.84 1.19-3.74a4.1 4.1 0 0 1 3.26-1.37 4 4 0 0 1 3.04 1.17 4.47 4.47 0 0 1 1.12 3.22v1.11h-6.48c.03.95.28 1.68.76 2.19.48.5 1.16.75 2.03.75a7.66 7.66 0 0 0 3.2-.7v1.68c-.5.24-1.01.4-1.52.5-.52.1-1.11.16-1.77.16Zm-.37-8.51c-.66 0-1.18.2-1.58.62a3 3 0 0 0-.7 1.82h4.4c0-.8-.2-1.4-.57-1.82-.38-.41-.9-.62-1.55-.62Zm10.13 6.84c.5 0 1-.08 1.5-.24v1.55a5.71 5.71 0 0 1-2 .35c-1.95 0-2.93-1.02-2.93-3.09v-5.24h-1.33v-.91l1.42-.76.7-2.05h1.28v2.16h2.77v1.56h-2.77v5.2c0 .5.13.87.37 1.11.25.24.58.36.99.36Zm5.52 1.49h-2.06v-9.72h2.06V181Zm-2.18-12.3c0-.36.1-.65.3-.85.2-.2.49-.3.86-.3s.65.1.85.3c.2.2.3.49.3.85s-.1.63-.3.84c-.2.2-.48.3-.85.3s-.66-.1-.87-.3c-.2-.2-.3-.48-.3-.84Zm13.77 7.42a5.3 5.3 0 0 1-1.22 3.72 4.38 4.38 0 0 1-3.4 1.34c-.91 0-1.72-.2-2.41-.62-.7-.41-1.24-1-1.61-1.77a6.02 6.02 0 0 1-.57-2.67c0-1.57.41-2.8 1.22-3.69a4.4 4.4 0 0 1 3.42-1.33c1.4 0 2.52.46 3.34 1.37.82.9 1.23 2.12 1.23 3.65Zm-7.08 0c0 2.25.83 3.37 2.49 3.37 1.64 0 2.46-1.12 2.46-3.37 0-2.22-.83-3.33-2.48-3.33-.87 0-1.5.29-1.89.86-.38.58-.58 1.4-.58 2.47ZM792.3 181h-2.07v-5.98c0-.75-.16-1.3-.46-1.68-.3-.36-.78-.55-1.43-.55-.88 0-1.51.26-1.92.77-.4.52-.6 1.38-.6 2.6V181h-2.07v-9.72h1.62l.29 1.27h.1c.3-.46.71-.82 1.25-1.07a4.18 4.18 0 0 1 1.8-.38c2.33 0 3.5 1.19 3.5 3.56V181Zm-163.5 58h-7.27v-12.85h7.27v1.78h-5.17v3.5h4.84v1.75h-4.84v4.04h5.17V239Zm10.76 0h-2.08v-6c0-.74-.14-1.3-.42-1.66-.28-.36-.72-.55-1.32-.55-.8 0-1.38.26-1.76.78-.37.52-.55 1.38-.55 2.59V239h-2.06v-9.72h1.61l.3 1.27h.1a2.7 2.7 0 0 1 1.17-1.07 3.81 3.81 0 0 1 1.7-.38c1.49 0 2.48.51 2.96 1.53h.14c.3-.48.7-.85 1.22-1.12.52-.27 1.12-.4 1.79-.4 1.16 0 2 .29 2.53.87.53.59.8 1.48.8 2.68V239h-2.07v-6c0-.74-.14-1.3-.42-1.66-.29-.36-.73-.55-1.32-.55-.8 0-1.4.25-1.77.76-.37.5-.55 1.26-.55 2.3V239Zm13.94.18a3.4 3.4 0 0 1-2.86-1.33h-.12c.08.82.12 1.32.12 1.5v3.97h-2.07v-14.04h1.67l.3 1.3h.1a3.23 3.23 0 0 1 2.9-1.48c1.21 0 2.16.44 2.83 1.32.68.88 1.02 2.11 1.02 3.7 0 1.59-.35 2.83-1.04 3.72a3.4 3.4 0 0 1-2.85 1.34Zm-.5-8.39c-.82 0-1.42.24-1.8.72-.37.48-.56 1.25-.56 2.3v.31c0 1.19.19 2.04.56 2.58.38.53.99.79 1.84.79.71 0 1.26-.3 1.65-.88.39-.59.58-1.42.58-2.5 0-1.1-.2-1.92-.58-2.48a1.9 1.9 0 0 0-1.69-.84Zm8.85 8.21h-2.06v-13.68h2.06V239Zm11.59-4.88a5.3 5.3 0 0 1-1.22 3.72 4.38 4.38 0 0 1-3.4 1.34c-.91 0-1.72-.2-2.41-.62-.7-.41-1.24-1-1.61-1.77a6.02 6.02 0 0 1-.56-2.67c0-1.57.4-2.8 1.2-3.69a4.4 4.4 0 0 1 3.43-1.33c1.4 0 2.52.46 3.34 1.37.82.9 1.23 2.12 1.23 3.65Zm-7.08 0c0 2.25.83 3.37 2.49 3.37 1.64 0 2.46-1.12 2.46-3.37 0-2.22-.82-3.33-2.48-3.33-.87 0-1.5.29-1.89.86-.38.58-.58 1.4-.58 2.47Zm7.98-4.84h2.25l1.98 5.51c.3.78.5 1.52.6 2.22h.07c.05-.33.15-.72.29-1.17.14-.47.88-2.65 2.23-6.56H684l-4.15 11.01c-.76 2.02-2.02 3.03-3.78 3.03-.46 0-.9-.05-1.34-.14v-1.64c.31.07.67.1 1.06.1 1 0 1.7-.57 2.1-1.73l.37-.91-3.9-9.72Zm15.38 9.9c-1.52 0-2.7-.44-3.56-1.32a5.05 5.05 0 0 1-1.27-3.65c0-1.59.4-2.84 1.19-3.74a4.1 4.1 0 0 1 3.26-1.37 4 4 0 0 1 3.04 1.17 4.47 4.47 0 0 1 1.11 3.22v1.11h-6.47c.03.95.28 1.68.76 2.19.48.5 1.16.75 2.03.75a7.66 7.66 0 0 0 3.2-.7v1.68c-.5.24-1.01.4-1.53.5-.51.1-1.1.16-1.76.16Zm-.38-8.51c-.66 0-1.19.2-1.59.62a3 3 0 0 0-.7 1.82h4.41c0-.8-.2-1.4-.58-1.82a1.98 1.98 0 0 0-1.54-.62Zm10.75 8.5c-1.52 0-2.7-.43-3.56-1.31a5.05 5.05 0 0 1-1.27-3.65c0-1.59.4-2.84 1.19-3.74a4.1 4.1 0 0 1 3.26-1.37 4 4 0 0 1 3.04 1.17 4.47 4.47 0 0 1 1.12 3.22v1.11h-6.48c.03.95.28 1.68.76 2.19.48.5 1.16.75 2.03.75a7.66 7.66 0 0 0 3.2-.7v1.68c-.5.24-1.01.4-1.53.5-.51.1-1.1.16-1.76.16Zm-.38-8.5c-.66 0-1.19.2-1.58.62a3 3 0 0 0-.7 1.82h4.4c0-.8-.2-1.4-.58-1.82a1.98 1.98 0 0 0-1.54-.62Zm21.85 1.78c0 2.12-.6 3.75-1.77 4.87-1.18 1.12-2.87 1.68-5.09 1.68h-3.6v-12.85h3.98c2.04 0 3.64.55 4.77 1.65 1.14 1.1 1.7 2.65 1.7 4.65Zm-2.22.07c0-3.07-1.44-4.61-4.31-4.61h-1.82v9.32h1.5c3.09 0 4.63-1.57 4.63-4.7Zm9.01 6.66c-1.51 0-2.7-.44-3.55-1.32a5.04 5.04 0 0 1-1.27-3.65c0-1.59.4-2.84 1.18-3.74a4.1 4.1 0 0 1 3.26-1.37 4 4 0 0 1 3.04 1.17 4.47 4.47 0 0 1 1.12 3.22v1.11h-6.48c.03.95.29 1.68.77 2.19.48.5 1.16.75 2.03.75a7.66 7.66 0 0 0 3.2-.7v1.68c-.5.24-1.02.4-1.53.5-.52.1-1.1.16-1.77.16Zm-.38-8.51c-.65 0-1.18.2-1.58.62-.4.42-.63 1.02-.7 1.82h4.41c-.01-.8-.2-1.4-.58-1.82a1.99 1.99 0 0 0-1.55-.62Zm11.44 8.5a3.4 3.4 0 0 1-2.87-1.32h-.12c.08.82.12 1.32.12 1.5v3.97h-2.06v-14.04h1.67l.29 1.3h.1a3.24 3.24 0 0 1 2.9-1.48c1.22 0 2.16.44 2.83 1.32.68.88 1.02 2.11 1.02 3.7 0 1.59-.34 2.83-1.03 3.72a3.4 3.4 0 0 1-2.85 1.34Zm-.5-8.38c-.82 0-1.42.24-1.8.72-.38.48-.57 1.25-.57 2.3v.31c0 1.19.2 2.04.57 2.58.37.53.98.79 1.83.79.72 0 1.27-.3 1.65-.88.4-.59.58-1.42.58-2.5 0-1.1-.19-1.92-.57-2.48a1.9 1.9 0 0 0-1.7-.84Zm12.87 8.21-.42-1.35h-.07c-.47.59-.94 1-1.41 1.2a4.4 4.4 0 0 1-1.83.33 3.1 3.1 0 0 1-2.24-.78 2.9 2.9 0 0 1-.8-2.19c0-1 .37-1.75 1.11-2.26.75-.51 1.88-.8 3.4-.84l1.68-.05v-.52c0-.62-.14-1.08-.44-1.39-.28-.3-.73-.46-1.34-.46-.5 0-.98.07-1.43.22-.46.14-.9.31-1.32.51l-.67-1.47a7.84 7.84 0 0 1 3.5-.84c1.24 0 2.17.26 2.8.8.63.54.95 1.39.95 2.54V239h-1.48Zm-3.08-1.4c.75 0 1.35-.21 1.8-.63.46-.42.69-1.01.69-1.77v-.84l-1.25.05c-.98.04-1.68.2-2.13.5-.44.28-.66.72-.66 1.32 0 .44.13.77.39 1.01s.64.35 1.16.35Zm12.37-8.5c.41 0 .75.03 1.02.1l-.2 1.92c-.3-.07-.6-.1-.91-.1-.83 0-1.5.26-2.02.8a2.93 2.93 0 0 0-.76 2.1V239h-2.07v-9.72h1.62l.27 1.71h.1c.33-.58.75-1.04 1.27-1.38a3 3 0 0 1 1.68-.5Zm6.45 8.4c.5 0 1.01-.07 1.52-.23v1.55a5.73 5.73 0 0 1-2 .35c-1.96 0-2.94-1.02-2.94-3.09v-5.24h-1.33v-.91l1.42-.76.7-2.05h1.28v2.16h2.77v1.56h-2.77v5.2c0 .5.12.87.37 1.11.25.24.58.36.99.36Zm10.32 1.5-.29-1.27h-.1c-.29.45-.7.8-1.23 1.06s-1.13.39-1.81.39c-1.18 0-2.06-.3-2.64-.88-.58-.59-.87-1.48-.87-2.67v-6.35h2.08v6c0 .74.15 1.3.46 1.67.3.37.78.56 1.43.56.87 0 1.5-.26 1.91-.78.41-.52.62-1.39.62-2.6v-4.85h2.07V239h-1.63Zm9.5-9.9c.42 0 .76.03 1.03.1l-.2 1.92c-.3-.07-.6-.1-.91-.1-.83 0-1.5.26-2.02.8-.5.54-.76 1.24-.76 2.1V239h-2.07v-9.72h1.62l.27 1.71h.1a4 4 0 0 1 1.26-1.38c.53-.34 1.09-.5 1.68-.5Zm7.09 10.08c-1.51 0-2.7-.44-3.55-1.32a5.05 5.05 0 0 1-1.28-3.65c0-1.59.4-2.84 1.19-3.74a4.1 4.1 0 0 1 3.26-1.37 4 4 0 0 1 3.04 1.17 4.47 4.47 0 0 1 1.12 3.22v1.11h-6.48c.03.95.28 1.68.76 2.19.49.5 1.16.75 2.03.75a7.66 7.66 0 0 0 3.2-.7v1.68c-.5.24-1.01.4-1.52.5-.52.1-1.11.16-1.77.16Zm-.38-8.51c-.66 0-1.18.2-1.58.62-.4.42-.63 1.02-.7 1.82h4.4c0-.8-.2-1.4-.57-1.82-.38-.41-.9-.62-1.55-.62Zm-170.42 59.46h1.46c.98 0 1.69-.19 2.13-.55.44-.36.65-.9.65-1.62 0-.72-.23-1.24-.7-1.56a3.9 3.9 0 0 0-2.15-.47h-1.39v4.2Zm0 1.74V297h-2.1v-12.85h3.63c1.66 0 2.88.31 3.68.93.8.62 1.2 1.56 1.2 2.81 0 1.6-.83 2.74-2.5 3.42l3.63 5.69h-2.39l-3.08-5.13h-2.07Zm15.28 5.13-.42-1.35h-.07c-.47.59-.94 1-1.41 1.2a4.4 4.4 0 0 1-1.83.33 3.1 3.1 0 0 1-2.24-.78 2.9 2.9 0 0 1-.8-2.19c0-1 .37-1.75 1.11-2.26.75-.51 1.88-.8 3.4-.84l1.68-.05v-.52c0-.62-.14-1.08-.44-1.39-.28-.3-.73-.46-1.34-.46-.5 0-.98.07-1.43.21-.46.15-.9.33-1.32.52l-.67-1.47a7.84 7.84 0 0 1 3.5-.84c1.24 0 2.18.26 2.8.8.64.54.95 1.39.95 2.54V297h-1.47Zm-3.08-1.4c.75 0 1.35-.21 1.8-.63.46-.42.69-1.01.69-1.77v-.84l-1.25.05c-.97.04-1.68.2-2.13.5-.44.28-.66.72-.66 1.32 0 .44.13.77.39 1.01s.64.35 1.16.35Zm15.99 1.4h-2.08v-5.98c0-.75-.15-1.3-.46-1.67-.3-.37-.77-.56-1.43-.56-.87 0-1.5.26-1.91.77-.4.52-.61 1.38-.61 2.6V297h-2.07v-9.72h1.62l.3 1.27h.1c.3-.46.7-.82 1.25-1.07a4.18 4.18 0 0 1 1.79-.38c2.33 0 3.5 1.19 3.5 3.56V297Zm9.4-2.77c0 .95-.35 1.68-1.04 2.19a5 5 0 0 1-2.97.76 6.9 6.9 0 0 1-3.12-.6v-1.78c1.15.53 2.2.8 3.2.8 1.26 0 1.9-.39 1.9-1.16a.91.91 0 0 0-.21-.61 2.5 2.5 0 0 0-.7-.51c-.32-.18-.76-.38-1.34-.6a6.28 6.28 0 0 1-2.28-1.3c-.39-.44-.58-1-.58-1.69 0-.83.33-1.48 1-1.93a4.7 4.7 0 0 1 2.74-.7c1.14 0 2.22.23 3.24.7l-.66 1.55a7.21 7.21 0 0 0-2.65-.65c-1.1 0-1.63.31-1.63.94 0 .3.13.56.42.77.28.2.9.5 1.86.87.8.3 1.38.6 1.75.85a2.47 2.47 0 0 1 1.07 2.1Zm10.86-2.1a5.3 5.3 0 0 1-1.22 3.71 4.38 4.38 0 0 1-3.4 1.34c-.9 0-1.71-.2-2.4-.62-.7-.41-1.24-1-1.61-1.77a6.02 6.02 0 0 1-.57-2.67c0-1.57.4-2.8 1.22-3.69a4.4 4.4 0 0 1 3.41-1.33c1.41 0 2.52.46 3.34 1.37.82.9 1.23 2.12 1.23 3.65Zm-7.07 0c0 2.24.83 3.36 2.49 3.36 1.64 0 2.46-1.12 2.46-3.37 0-2.22-.83-3.33-2.48-3.33-.87 0-1.5.29-1.9.86a4.5 4.5 0 0 0-.57 2.47Zm17.65 4.87h-2.08v-6c0-.74-.14-1.3-.42-1.65-.28-.37-.72-.56-1.32-.56-.8 0-1.38.26-1.75.78-.37.52-.56 1.38-.56 2.59V297h-2.06v-9.72h1.61l.3 1.27h.1a2.7 2.7 0 0 1 1.17-1.07 3.8 3.8 0 0 1 1.7-.38c1.49 0 2.48.51 2.97 1.53h.13c.3-.48.7-.85 1.22-1.12.52-.27 1.12-.4 1.8-.4 1.15 0 2 .29 2.52.87.54.59.8 1.48.8 2.68V297h-2.06v-6c0-.74-.15-1.3-.43-1.65-.28-.37-.72-.56-1.32-.56-.8 0-1.4.25-1.77.76-.37.5-.55 1.26-.55 2.3V297Zm16.99 0-1.26-4.54c-.15-.48-.43-1.6-.83-3.34h-.07a63.6 63.6 0 0 1-.81 3.36l-1.3 4.52h-2.28l-2.73-9.72h2.11l1.24 4.79c.28 1.18.48 2.2.6 3.04h.05a20.9 20.9 0 0 1 .58-2.72l1.48-5.11h2.27l1.43 5.12a17.97 17.97 0 0 1 .56 2.7h.07c.1-.73.3-1.74.62-3.03l1.25-4.8h2.08l-2.74 9.73h-2.32Zm12.82 0-.41-1.35h-.07c-.47.59-.94 1-1.42 1.2-.47.22-1.08.33-1.83.33a3.1 3.1 0 0 1-2.24-.78 2.9 2.9 0 0 1-.8-2.19c0-1 .37-1.75 1.12-2.26.74-.51 1.88-.8 3.4-.84l1.68-.05v-.52c0-.62-.15-1.08-.44-1.39-.29-.3-.74-.46-1.35-.46-.5 0-.97.07-1.43.21-.45.15-.9.33-1.32.52l-.66-1.47a7.84 7.84 0 0 1 3.5-.84c1.24 0 2.17.26 2.8.8.63.54.95 1.39.95 2.54V297h-1.48Zm-3.08-1.4c.75 0 1.35-.21 1.8-.63.46-.42.7-1.01.7-1.77v-.84l-1.26.05c-.97.04-1.68.2-2.12.5-.44.28-.66.72-.66 1.32 0 .44.13.77.38 1.01.26.24.65.35 1.16.35Zm12.37-8.5c.42 0 .76.03 1.03.1l-.2 1.92a4 4 0 0 0-.92-.1c-.82 0-1.5.26-2.01.8a2.93 2.93 0 0 0-.76 2.1V297h-2.07v-9.72h1.62l.27 1.71h.1a4 4 0 0 1 1.26-1.38 3 3 0 0 1 1.68-.5Zm7.08 10.08c-1.5 0-2.7-.44-3.55-1.32a5.05 5.05 0 0 1-1.27-3.65c0-1.59.4-2.84 1.19-3.74a4.1 4.1 0 0 1 3.26-1.37 4 4 0 0 1 3.04 1.17 4.47 4.47 0 0 1 1.11 3.22v1.12h-6.47c.02.94.28 1.66.76 2.18.48.5 1.16.75 2.03.75a7.66 7.66 0 0 0 3.2-.7v1.68c-.5.24-1.01.4-1.53.5-.51.1-1.1.16-1.77.16Zm-.37-8.51c-.66 0-1.19.2-1.59.62a3.03 3.03 0 0 0-.7 1.82h4.41c0-.8-.2-1.4-.58-1.82a1.98 1.98 0 0 0-1.54-.62Z"/><path fill="#fff" d="M513.9 71h-18.65v-4.57l6.27-6.35a79.11 79.11 0 0 0 3.52-3.83c.55-.69.93-1.28 1.14-1.77.22-.5.34-1.01.34-1.55a2 2 0 0 0-.65-1.58 2.65 2.65 0 0 0-1.83-.58 5 5 0 0 0-2.46.7c-.82.46-1.76 1.14-2.8 2.04l-3.81-4.47a20.06 20.06 0 0 1 3.34-2.53c.9-.51 1.88-.9 2.93-1.17 1.07-.27 2.26-.4 3.59-.4 1.66 0 3.15.28 4.44.87a6.88 6.88 0 0 1 3.05 2.51 6.36 6.36 0 0 1 1.09 3.64 9.68 9.68 0 0 1-1.55 5.33 17.4 17.4 0 0 1-2.11 2.6c-.87.91-2.73 2.65-5.57 5.2v.18h9.72V71Zm11.99-26.07c2.7 0 4.8.55 6.3 1.64a5.38 5.38 0 0 1 2.27 4.64c0 1.36-.35 2.55-1.07 3.58a8.61 8.61 0 0 1-3.36 2.67c1.9 1.08 3.24 2.16 4.01 3.24a5.72 5.72 0 0 1 1.18 3.46c0 2.29-.83 4.06-2.48 5.31s-3.96 1.88-6.92 1.88c-3.03 0-5.34-.6-6.95-1.83-1.6-1.23-2.4-3-2.4-5.29 0-1.49.35-2.75 1.07-3.8a9.33 9.33 0 0 1 3.6-2.86 9.79 9.79 0 0 1-2.99-2.94 6.7 6.7 0 0 1-.93-3.46c0-1.97.77-3.5 2.3-4.59 1.54-1.1 3.66-1.65 6.37-1.65Zm-3.06 19.02c0 .73.26 1.31.77 1.76.52.43 1.23.65 2.15.65 2.06 0 3.09-.76 3.09-2.27 0-.57-.23-1.13-.69-1.69a9.03 9.03 0 0 0-2.4-1.88 7.25 7.25 0 0 0-2.25 1.67 2.75 2.75 0 0 0-.67 1.76Zm3.02-14c-.6 0-1.1.17-1.51.52-.41.34-.62.78-.62 1.33 0 1.01.69 1.9 2.06 2.68a5.9 5.9 0 0 0 1.7-1.32c.31-.4.46-.85.46-1.36 0-.56-.2-1-.61-1.35-.41-.34-.9-.5-1.48-.5Zm12.02 18.13c0-1.08.32-1.9.95-2.5.65-.58 1.58-.87 2.8-.87 1.16 0 2.05.29 2.67.88.62.58.93 1.41.93 2.5 0 1.05-.32 1.87-.96 2.47-.64.59-1.52.88-2.64.88-1.16 0-2.08-.3-2.74-.88-.67-.59-1-1.41-1-2.48Zm20.57-13.92c1.48 0 2.8.35 4 1.04a6.98 6.98 0 0 1 2.77 2.9 9.1 9.1 0 0 1 1 4.34c0 2.87-.87 5.07-2.6 6.6-1.72 1.54-4.34 2.31-7.84 2.31-3 0-5.45-.46-7.35-1.39v-5.7a18.54 18.54 0 0 0 6.77 1.62c1.29 0 2.28-.26 2.97-.8.7-.55 1.04-1.36 1.04-2.43 0-.98-.35-1.75-1.06-2.3-.7-.55-1.77-.83-3.2-.83-1.09 0-2.26.2-3.53.62l-2.55-1.27.97-13.57h14.66v5.78h-8.76l-.31 3.4a14.23 14.23 0 0 1 3.02-.32Zm15.36-1.12c0 1.34.12 2.32.34 2.91.22.6.56.9 1 .9.45 0 .77-.3.99-.88a9.1 9.1 0 0 0 .33-2.93c0-1.35-.11-2.33-.34-2.92-.2-.6-.53-.9-.98-.9-.46 0-.8.3-1.02.91a9.65 9.65 0 0 0-.32 2.9Zm7.97-.08c0 2.58-.58 4.58-1.74 6-1.16 1.4-2.81 2.1-4.96 2.1a5.87 5.87 0 0 1-4.8-2.17c-1.17-1.47-1.76-3.44-1.76-5.93 0-2.57.58-4.55 1.73-5.94a5.91 5.91 0 0 1 4.83-2.09c2.05 0 3.68.72 4.89 2.16 1.2 1.45 1.8 3.4 1.8 5.87Zm12.81-7.66L580.33 71h-5.23l14.26-25.7h5.22Zm-1.23 17.97c0 1.34.11 2.32.34 2.91.22.6.55.9 1 .9.5 0 .85-.34 1.03-1.02.2-.7.3-1.62.3-2.8 0-1.17-.1-2.1-.3-2.77-.18-.7-.53-1.04-1.03-1.04-.46 0-.8.3-1.02.92-.21.6-.32 1.57-.32 2.9Zm7.96-.07c0 2.56-.58 4.55-1.75 5.97-1.16 1.4-2.81 2.11-4.94 2.11a5.87 5.87 0 0 1-4.8-2.18c-1.17-1.46-1.76-3.43-1.76-5.9 0-2.58.58-4.56 1.72-5.95a5.91 5.91 0 0 1 4.84-2.09c2.05 0 3.68.72 4.88 2.16 1.21 1.45 1.81 3.4 1.81 5.88ZM545.4 128h-18.65v-4.57l6.27-6.35a78.92 78.92 0 0 0 3.52-3.83c.55-.69.93-1.28 1.14-1.77.22-.5.34-1.01.34-1.55a2 2 0 0 0-.65-1.58 2.65 2.65 0 0 0-1.83-.58c-.81 0-1.63.23-2.46.7-.82.46-1.76 1.14-2.8 2.04l-3.81-4.47a20.04 20.04 0 0 1 3.34-2.53c.9-.51 1.88-.9 2.93-1.17 1.07-.27 2.26-.4 3.59-.4 1.66 0 3.14.28 4.44.87a6.87 6.87 0 0 1 3.05 2.51 6.36 6.36 0 0 1 1.09 3.64 9.68 9.68 0 0 1-1.55 5.33c-.53.82-1.23 1.69-2.11 2.6-.87.92-2.73 2.65-5.57 5.2v.18h9.72V128Zm21.92-4.97h-2.83V128h-6.86v-4.97h-10.25v-5.1l10.7-15.63h6.4v15.54h2.84v5.19Zm-9.69-5.19v-2.99a62.57 62.57 0 0 1 .16-3.78h-.2c-.4.9-.84 1.75-1.35 2.53l-2.84 4.24h4.23Zm16.17-7.8c0 1.34.12 2.31.34 2.91.22.6.56.9 1 .9.45 0 .77-.3.99-.88a9.1 9.1 0 0 0 .33-2.94c0-1.34-.11-2.31-.34-2.91-.2-.6-.53-.9-.98-.9-.46 0-.8.3-1.02.92-.21.6-.32 1.57-.32 2.9Zm7.97-.08c0 2.58-.58 4.58-1.74 6-1.16 1.4-2.81 2.1-4.96 2.1a5.87 5.87 0 0 1-4.8-2.17c-1.17-1.47-1.76-3.44-1.76-5.92 0-2.58.58-4.56 1.73-5.95a5.92 5.92 0 0 1 4.83-2.09c2.05 0 3.68.72 4.89 2.16 1.2 1.44 1.8 3.4 1.8 5.88Zm12.81-7.66L580.33 128h-5.23l14.26-25.7h5.22Zm-1.23 17.97c0 1.34.11 2.32.34 2.91.22.6.55.9 1 .9.5 0 .85-.34 1.03-1.02.2-.7.3-1.62.3-2.8 0-1.17-.1-2.1-.3-2.77-.18-.7-.53-1.04-1.03-1.04-.46 0-.8.3-1.02.91a9.63 9.63 0 0 0-.32 2.9Zm7.96-.08c0 2.57-.58 4.56-1.75 5.98-1.16 1.4-2.81 2.11-4.94 2.11a5.87 5.87 0 0 1-4.8-2.18c-1.17-1.46-1.76-3.43-1.76-5.9 0-2.58.58-4.56 1.72-5.95a5.91 5.91 0 0 1 4.84-2.09c2.05 0 3.68.72 4.88 2.16 1.21 1.45 1.81 3.4 1.81 5.88ZM545.4 185h-18.65v-4.57l6.27-6.35a78.92 78.92 0 0 0 3.52-3.83c.55-.69.93-1.28 1.14-1.77.22-.5.34-1.01.34-1.55a2 2 0 0 0-.65-1.58 2.65 2.65 0 0 0-1.83-.58c-.81 0-1.63.23-2.46.7-.82.46-1.76 1.14-2.8 2.04l-3.81-4.47a20.04 20.04 0 0 1 3.34-2.53c.9-.51 1.88-.9 2.93-1.17 1.07-.27 2.26-.4 3.59-.4 1.66 0 3.14.28 4.44.87a6.87 6.87 0 0 1 3.05 2.51 6.36 6.36 0 0 1 1.09 3.64 9.68 9.68 0 0 1-1.55 5.33c-.53.82-1.23 1.69-2.11 2.6-.87.92-2.73 2.65-5.57 5.2v.18h9.72V185Zm21.2-12.81c0 4.54-.76 7.88-2.29 10-1.52 2.1-3.85 3.16-7 3.16-3.06 0-5.38-1.1-6.94-3.3-1.56-2.22-2.34-5.5-2.34-9.86 0-4.57.77-7.93 2.29-10.06 1.52-2.13 3.86-3.2 7-3.2 3.05 0 5.36 1.11 6.92 3.34 1.57 2.22 2.36 5.52 2.36 9.92Zm-11.66 0c0 2.9.18 4.9.55 5.99.36 1.09.97 1.63 1.83 1.63.86 0 1.47-.56 1.82-1.68.37-1.13.55-3.1.55-5.94 0-2.85-.18-4.84-.55-5.98-.36-1.15-.97-1.72-1.82-1.72-.86 0-1.47.55-1.83 1.65-.37 1.1-.55 3.12-.55 6.05Zm18.86-5.16c0 1.35.12 2.32.34 2.92.22.6.56.9 1 .9.45 0 .77-.3.99-.88a9.1 9.1 0 0 0 .33-2.94c0-1.34-.11-2.31-.34-2.91-.2-.6-.53-.9-.98-.9-.46 0-.8.3-1.02.91a9.65 9.65 0 0 0-.32 2.9Zm7.97-.06c0 2.57-.58 4.57-1.74 5.99-1.16 1.4-2.81 2.1-4.96 2.1a5.87 5.87 0 0 1-4.8-2.17c-1.17-1.47-1.76-3.44-1.76-5.92 0-2.58.58-4.56 1.73-5.95a5.92 5.92 0 0 1 4.83-2.09c2.05 0 3.68.72 4.89 2.16 1.2 1.44 1.8 3.4 1.8 5.88Zm12.81-7.67L580.33 185h-5.23l14.26-25.7h5.22Zm-1.23 17.97c0 1.34.11 2.32.34 2.91.22.6.55.9 1 .9.5 0 .85-.34 1.03-1.02.2-.7.3-1.62.3-2.8 0-1.17-.1-2.1-.3-2.77-.18-.7-.53-1.04-1.03-1.04-.46 0-.8.3-1.02.92a9.63 9.63 0 0 0-.32 2.9Zm7.96-.08c0 2.57-.58 4.56-1.75 5.98-1.16 1.4-2.81 2.11-4.94 2.11a5.87 5.87 0 0 1-4.8-2.18c-1.17-1.46-1.76-3.43-1.76-5.9 0-2.58.58-4.56 1.72-5.95a5.91 5.91 0 0 1 4.84-2.09c2.05 0 3.68.72 4.88 2.16 1.21 1.45 1.81 3.4 1.81 5.88ZM542.23 242h-7.04v-13.6c0-1.66.03-3.17.1-4.54a13.8 13.8 0 0 1-1.62 1.65l-2.91 2.41-3.6-4.43 8.82-7.19h6.25V242Zm24.37-12.81c0 4.54-.76 7.88-2.29 10-1.52 2.1-3.85 3.16-7 3.16-3.06 0-5.38-1.1-6.94-3.3-1.56-2.22-2.34-5.5-2.34-9.86 0-4.57.77-7.93 2.29-10.06 1.52-2.13 3.86-3.2 7-3.2 3.05 0 5.36 1.11 6.92 3.34 1.57 2.22 2.36 5.52 2.36 9.92Zm-11.66 0c0 2.9.18 4.9.55 5.99.36 1.09.97 1.63 1.83 1.63.86 0 1.47-.56 1.82-1.68.37-1.13.55-3.1.55-5.94 0-2.85-.18-4.84-.55-5.98-.36-1.15-.97-1.72-1.82-1.72-.86 0-1.47.55-1.83 1.65-.37 1.1-.55 3.12-.55 6.05Zm18.86-5.16c0 1.35.12 2.32.34 2.92.22.6.56.9 1 .9.45 0 .77-.3.99-.88a9.1 9.1 0 0 0 .33-2.94c0-1.34-.11-2.31-.34-2.91-.2-.6-.53-.9-.98-.9-.46 0-.8.3-1.02.91a9.65 9.65 0 0 0-.32 2.9Zm7.97-.06c0 2.57-.58 4.57-1.74 5.99-1.16 1.4-2.81 2.1-4.96 2.1a5.87 5.87 0 0 1-4.8-2.17c-1.17-1.47-1.76-3.44-1.76-5.92 0-2.58.58-4.56 1.73-5.95a5.92 5.92 0 0 1 4.83-2.09c2.05 0 3.68.72 4.89 2.16 1.2 1.44 1.8 3.4 1.8 5.88Zm12.81-7.67L580.33 242h-5.23l14.26-25.7h5.22Zm-1.23 17.97c0 1.34.11 2.32.34 2.91.22.6.55.9 1 .9.5 0 .85-.34 1.03-1.02.2-.7.3-1.62.3-2.8 0-1.17-.1-2.1-.3-2.77-.18-.7-.53-1.04-1.03-1.04-.46 0-.8.3-1.02.92a9.63 9.63 0 0 0-.32 2.9Zm7.96-.08c0 2.57-.58 4.56-1.75 5.98-1.16 1.4-2.81 2.11-4.94 2.11a5.87 5.87 0 0 1-4.8-2.18c-1.17-1.46-1.76-3.43-1.76-5.9 0-2.58.58-4.56 1.72-5.95a5.91 5.91 0 0 1 4.84-2.09c2.05 0 3.68.72 4.88 2.16 1.21 1.45 1.81 3.4 1.81 5.88Zm-42.87 47.97c1.48 0 2.8.35 4 1.04a6.98 6.98 0 0 1 2.77 2.9 9.1 9.1 0 0 1 1 4.34c0 2.87-.87 5.07-2.6 6.6-1.72 1.54-4.34 2.31-7.84 2.31-3 0-5.45-.46-7.35-1.39v-5.7a18.61 18.61 0 0 0 6.77 1.63c1.29 0 2.28-.27 2.97-.81.7-.56 1.04-1.36 1.04-2.43 0-.98-.35-1.75-1.06-2.3-.7-.55-1.77-.83-3.2-.83-1.09 0-2.26.2-3.53.62l-2.55-1.27.97-13.57h14.66v5.78h-8.76l-.31 3.4a14.28 14.28 0 0 1 3.02-.32Zm15.36-1.13c0 1.35.12 2.33.34 2.92.22.6.56.9 1 .9.45 0 .77-.3.99-.88a9.1 9.1 0 0 0 .33-2.94c0-1.34-.11-2.31-.34-2.91-.2-.6-.53-.9-.98-.9-.46 0-.8.3-1.02.91a9.65 9.65 0 0 0-.32 2.9Zm7.97-.06c0 2.57-.58 4.57-1.74 5.99-1.16 1.4-2.81 2.1-4.96 2.1a5.87 5.87 0 0 1-4.8-2.17c-1.17-1.47-1.76-3.44-1.76-5.93 0-2.57.58-4.55 1.73-5.94a5.92 5.92 0 0 1 4.83-2.09c2.05 0 3.68.72 4.89 2.16 1.2 1.45 1.8 3.4 1.8 5.88Zm12.81-7.67L580.33 299h-5.23l14.26-25.7h5.22Zm-1.23 17.97c0 1.34.11 2.32.34 2.91.22.6.55.9 1 .9.5 0 .85-.34 1.03-1.02.2-.7.3-1.62.3-2.8 0-1.17-.1-2.1-.3-2.77-.18-.7-.53-1.04-1.03-1.04-.46 0-.8.3-1.02.92a9.63 9.63 0 0 0-.32 2.9Zm7.96-.07c0 2.56-.58 4.55-1.75 5.97-1.16 1.4-2.81 2.11-4.94 2.11a5.87 5.87 0 0 1-4.8-2.18c-1.17-1.46-1.76-3.43-1.76-5.9 0-2.58.58-4.56 1.72-5.95a5.91 5.91 0 0 1 4.84-2.09c2.05 0 3.68.72 4.88 2.16 1.21 1.45 1.81 3.4 1.81 5.88Z"/><path fill="#F2F2F2" d="m1134.58 65-3.72-10.73h-.07a72 72 0 0 1 .15 4.48V65h-1.91V52.15h2.96l3.57 10.22h.05l3.68-10.22h2.97V65h-2.02v-6.35a86.1 86.1 0 0 1 .13-4.36h-.07L1136.44 65h-1.86Zm16.92 0-.41-1.35h-.07a4 4 0 0 1-1.42 1.2c-.47.22-1.08.33-1.82.33-.96 0-1.71-.26-2.24-.78-.54-.51-.8-1.24-.8-2.19 0-1 .37-1.75 1.11-2.26.75-.51 1.88-.8 3.4-.84l1.68-.05v-.52c0-.62-.14-1.08-.44-1.39-.28-.3-.73-.46-1.34-.46-.5 0-.98.07-1.43.22-.46.14-.9.31-1.32.51l-.67-1.47a7.86 7.86 0 0 1 3.51-.84c1.23 0 2.16.26 2.79.8.63.54.95 1.39.95 2.54V65h-1.48Zm-3.07-1.4c.75 0 1.35-.21 1.8-.63.46-.42.68-1.01.68-1.77v-.84l-1.24.05a4.2 4.2 0 0 0-2.13.5c-.44.28-.66.72-.66 1.32 0 .44.13.77.39 1.01.25.24.64.35 1.16.35Zm9.5 1.4h-2.07V51.32h2.07V65Zm5.03 0h-2.07v-9.72h2.07V65Zm-2.19-12.3c0-.37.1-.65.3-.85.2-.2.49-.3.87-.3.36 0 .64.1.84.3.2.2.31.48.31.85 0 .36-.11.63-.31.84-.2.2-.48.3-.84.3-.38 0-.67-.1-.87-.3-.2-.2-.3-.48-.3-.84Zm9.07 12.48c-1.47 0-2.59-.43-3.36-1.29-.76-.86-1.14-2.1-1.14-3.7 0-1.63.4-2.89 1.19-3.77.81-.88 1.96-1.32 3.47-1.32 1.03 0 1.95.2 2.77.57l-.62 1.67a6.22 6.22 0 0 0-2.16-.51c-1.68 0-2.53 1.11-2.53 3.34 0 1.1.21 1.91.63 2.47.42.54 1.04.81 1.84.81.92 0 1.79-.23 2.61-.68v1.8c-.36.22-.76.37-1.18.47-.42.09-.92.14-1.52.14Zm7.06-.18h-2.07v-9.72h2.07V65Zm-2.19-12.3c0-.37.1-.65.3-.85.2-.2.49-.3.87-.3.36 0 .64.1.84.3.2.2.31.48.31.85 0 .36-.11.63-.31.84-.2.2-.48.3-.84.3-.38 0-.67-.1-.87-.3-.2-.2-.3-.48-.3-.84Zm13.77 7.42c0 1.59-.41 2.83-1.22 3.72a4.39 4.39 0 0 1-3.4 1.34c-.91 0-1.71-.2-2.41-.62-.7-.41-1.24-1-1.61-1.77a5.95 5.95 0 0 1-.56-2.67c0-1.57.4-2.8 1.21-3.69a4.4 4.4 0 0 1 3.42-1.33c1.4 0 2.52.46 3.34 1.37.82.9 1.23 2.12 1.23 3.65Zm-7.08 0c0 2.25.83 3.37 2.49 3.37 1.64 0 2.46-1.12 2.46-3.37 0-2.22-.82-3.33-2.48-3.33-.86 0-1.49.29-1.89.86-.38.58-.58 1.4-.58 2.47Zm16.32 4.88-.29-1.27h-.11c-.29.45-.7.8-1.23 1.06s-1.13.39-1.81.39c-1.18 0-2.06-.3-2.64-.88-.58-.59-.87-1.48-.87-2.67v-6.35h2.09v6c0 .74.15 1.3.45 1.67.31.37.79.56 1.44.56.86 0 1.5-.26 1.9-.78.41-.52.62-1.39.62-2.6v-4.85h2.07V65h-1.62Zm11.1-2.77c0 .95-.35 1.68-1.04 2.19a5 5 0 0 1-2.97.76c-1.3 0-2.34-.2-3.12-.6V62.8c1.14.53 2.21.8 3.19.8 1.27 0 1.91-.39 1.91-1.16a.91.91 0 0 0-.21-.61 2.57 2.57 0 0 0-.7-.51c-.32-.18-.77-.38-1.34-.6a6.3 6.3 0 0 1-2.28-1.3c-.39-.43-.59-1-.59-1.69 0-.83.34-1.48 1-1.93a4.8 4.8 0 0 1 2.75-.7c1.14 0 2.22.23 3.24.7l-.67 1.55a7.22 7.22 0 0 0-2.64-.65c-1.09 0-1.64.31-1.64.93 0 .3.14.57.42.78.29.2.91.5 1.87.87.8.3 1.38.6 1.74.85a2.43 2.43 0 0 1 1.08 2.1Zm17.58-3.78c0 2.12-.59 3.75-1.76 4.87-1.18 1.12-2.88 1.68-5.09 1.68h-3.6V52.15h3.98c2.04 0 3.63.55 4.77 1.65 1.14 1.1 1.7 2.65 1.7 4.65Zm-2.21.07c0-3.07-1.44-4.61-4.32-4.61h-1.82v9.32h1.5c3.09 0 4.64-1.57 4.64-4.7Zm9.01 6.66c-1.51 0-2.7-.44-3.55-1.32a5.05 5.05 0 0 1-1.28-3.65c0-1.59.4-2.84 1.19-3.74a4.1 4.1 0 0 1 3.26-1.37 4 4 0 0 1 3.04 1.17 4.49 4.49 0 0 1 1.12 3.22v1.12h-6.48c.03.94.28 1.67.76 2.18.48.5 1.16.75 2.03.75a7.58 7.58 0 0 0 3.2-.7v1.68c-.5.24-1.01.4-1.53.5-.51.1-1.1.16-1.76.16Zm-.38-8.51c-.66 0-1.18.2-1.58.62a3.03 3.03 0 0 0-.71 1.82h4.42c-.01-.8-.21-1.4-.58-1.82a1.99 1.99 0 0 0-1.55-.62Zm8.57 8.33h-2.07V51.32h2.07V65Zm7.21.18a4.7 4.7 0 0 1-3.55-1.32 5.05 5.05 0 0 1-1.28-3.65c0-1.59.4-2.84 1.19-3.74a4.1 4.1 0 0 1 3.26-1.37 4 4 0 0 1 3.04 1.17 4.49 4.49 0 0 1 1.12 3.22v1.12h-6.48c.03.94.28 1.67.76 2.18.48.5 1.16.75 2.03.75a7.58 7.58 0 0 0 3.2-.7v1.68c-.5.24-1.01.4-1.53.5-.51.1-1.1.16-1.76.16Zm-.38-8.51c-.66 0-1.19.2-1.58.62-.4.42-.63 1.02-.71 1.82h4.42c-.02-.8-.21-1.4-.58-1.82a2 2 0 0 0-1.55-.62Zm10.12 6.84c.51 0 1.01-.08 1.51-.24v1.55a5.8 5.8 0 0 1-2 .35c-1.96 0-2.93-1.03-2.93-3.09v-5.24h-1.33v-.91l1.42-.76.71-2.05h1.27v2.16h2.77v1.56h-2.77v5.2c0 .5.12.87.37 1.11.25.24.58.36.98.36Zm7.71 1.67a4.73 4.73 0 0 1-3.55-1.32 5.04 5.04 0 0 1-1.27-3.65c0-1.59.39-2.84 1.18-3.74a4.1 4.1 0 0 1 3.26-1.37c1.29 0 2.3.4 3.04 1.17a4.44 4.44 0 0 1 1.12 3.22v1.12h-6.48c.03.94.29 1.67.77 2.18.48.5 1.15.75 2.03.75a7.65 7.65 0 0 0 3.2-.7v1.68c-.51.24-1.02.4-1.53.5-.52.1-1.11.16-1.77.16Zm-.38-8.51c-.65 0-1.18.2-1.58.62a2.97 2.97 0 0 0-.7 1.82h4.41c-.01-.8-.2-1.4-.58-1.82a1.97 1.97 0 0 0-1.55-.62Zm16.15-1.57c1.21 0 2.16.44 2.83 1.32.68.88 1.02 2.11 1.02 3.7 0 1.6-.34 2.84-1.03 3.73a3.42 3.42 0 0 1-2.86 1.33 3.4 3.4 0 0 1-2.86-1.33h-.14l-.38 1.15h-1.55V51.32h2.07v3.26a27.71 27.71 0 0 1-.09 1.98h.09a3.27 3.27 0 0 1 2.9-1.46Zm-.54 1.7c-.83 0-1.43.24-1.8.73-.36.49-.55 1.3-.56 2.45v.14c0 1.19.19 2.04.56 2.58.38.52.99.79 1.84.79.73 0 1.28-.3 1.66-.87a4.6 4.6 0 0 0 .57-2.52c0-2.2-.76-3.3-2.27-3.3Zm5.31-1.52h2.25l1.98 5.51c.3.79.5 1.52.6 2.21h.07c.05-.32.15-.7.29-1.16.14-.47.88-2.65 2.23-6.56h2.23l-4.16 11.01c-.75 2.02-2.01 3.03-3.77 3.03-.46 0-.91-.05-1.34-.15v-1.63c.31.07.66.1 1.06.1 1 0 1.7-.57 2.1-1.73l.36-.91-3.9-9.72Zm16.02 9.72V52.15h2.1V65h-2.1Zm13.84 0h-2.08v-5.98c0-.75-.15-1.3-.45-1.68-.3-.36-.78-.55-1.44-.55-.87 0-1.51.26-1.91.77-.41.52-.61 1.38-.61 2.6V65h-2.06v-9.72h1.61l.29 1.27h.11c.29-.46.71-.82 1.25-1.07a4.16 4.16 0 0 1 1.79-.38c2.33 0 3.5 1.19 3.5 3.56V65Zm9.4-2.77c0 .95-.34 1.68-1.04 2.19a5 5 0 0 1-2.97.76c-1.29 0-2.33-.2-3.12-.6V62.8a7.7 7.7 0 0 0 3.19.8c1.28 0 1.91-.39 1.91-1.16a.91.91 0 0 0-.21-.61 2.5 2.5 0 0 0-.69-.51c-.33-.18-.77-.38-1.35-.6a6.15 6.15 0 0 1-2.27-1.3c-.4-.43-.59-1-.59-1.69 0-.83.33-1.48 1-1.93.67-.46 1.59-.7 2.74-.7 1.14 0 2.22.23 3.24.7l-.66 1.55a7.22 7.22 0 0 0-2.65-.65c-1.09 0-1.63.31-1.63.93 0 .3.14.57.42.78.28.2.91.5 1.86.87.8.3 1.39.6 1.75.85.36.26.63.56.81.9.17.33.26.73.26 1.2Zm4.31 2.77h-2.07v-9.72h2.07V65Zm-2.19-12.3c0-.37.1-.65.3-.85.2-.2.49-.3.87-.3.36 0 .64.1.84.3.21.2.31.48.31.85 0 .36-.1.63-.31.84-.2.2-.48.3-.84.3-.38 0-.67-.1-.87-.3-.2-.2-.3-.48-.3-.84Zm8.43 12.48a3.4 3.4 0 0 1-2.84-1.32c-.68-.88-1.02-2.11-1.02-3.7 0-1.6.34-2.84 1.03-3.72a3.43 3.43 0 0 1 2.86-1.34c1.28 0 2.25.48 2.92 1.42h.11c-.1-.7-.15-1.25-.15-1.65v-3.55h2.07V65h-1.61l-.37-1.27h-.09a3.3 3.3 0 0 1-2.91 1.45Zm.55-1.67c.85 0 1.47-.24 1.86-.72.38-.48.58-1.25.59-2.33v-.29c0-1.22-.19-2.09-.59-2.6-.4-.52-1.03-.78-1.87-.78-.73 0-1.29.3-1.68.89-.4.58-.59 1.42-.59 2.51 0 1.08.19 1.9.57 2.47.38.56.95.85 1.71.85Zm11.63 1.67a4.73 4.73 0 0 1-3.55-1.32 5.04 5.04 0 0 1-1.27-3.65c0-1.59.39-2.84 1.18-3.74a4.1 4.1 0 0 1 3.26-1.37c1.29 0 2.3.4 3.04 1.17a4.44 4.44 0 0 1 1.12 3.22v1.12h-6.48c.03.94.29 1.67.77 2.18.48.5 1.15.75 2.03.75a7.42 7.42 0 0 0 3.2-.7v1.68c-.51.24-1.02.4-1.53.5-.52.1-1.11.16-1.77.16Zm-.38-8.51c-.65 0-1.18.2-1.58.62a2.97 2.97 0 0 0-.7 1.82h4.41c-.01-.8-.21-1.4-.58-1.82a1.99 1.99 0 0 0-1.55-.62Zm11.44-1.57c.41 0 .76.03 1.03.1l-.21 1.92c-.29-.07-.59-.1-.91-.1-.83 0-1.5.26-2.01.8a2.94 2.94 0 0 0-.77 2.1V65h-2.06v-9.72h1.61l.28 1.71h.1c.32-.58.74-1.04 1.26-1.38a3.01 3.01 0 0 1 1.68-.5Zm9.37 7.13c0 .95-.35 1.68-1.04 2.19a5 5 0 0 1-2.97.76c-1.3 0-2.34-.2-3.12-.6V62.8c1.14.53 2.2.8 3.19.8 1.27 0 1.91-.39 1.91-1.16a.91.91 0 0 0-.21-.61 2.74 2.74 0 0 0-.7-.51c-.32-.18-.77-.38-1.34-.6a6.3 6.3 0 0 1-2.28-1.3c-.39-.43-.59-1-.59-1.69 0-.83.33-1.48 1-1.93.68-.46 1.59-.7 2.74-.7 1.15 0 2.23.23 3.25.7l-.67 1.55a7.22 7.22 0 0 0-2.65-.65c-1.09 0-1.63.31-1.63.93 0 .3.14.57.42.78.29.2.91.5 1.87.87.8.3 1.38.6 1.74.85a2.43 2.43 0 0 1 1.08 2.1ZM1134.58 123l-3.72-10.73h-.07a72 72 0 0 1 .15 4.48V123h-1.91v-12.85h2.96l3.57 10.22h.05l3.68-10.22h2.97V123h-2.02v-6.35a86.18 86.18 0 0 1 .13-4.36h-.07l-3.86 10.71h-1.86Zm16.92 0-.41-1.35h-.07a4 4 0 0 1-1.42 1.2c-.47.22-1.08.33-1.82.33-.96 0-1.71-.26-2.24-.78-.54-.51-.8-1.24-.8-2.19 0-1 .37-1.75 1.11-2.26.75-.51 1.88-.8 3.4-.84l1.68-.05v-.52c0-.62-.14-1.08-.44-1.39-.28-.3-.73-.46-1.34-.46-.5 0-.98.07-1.43.22-.46.14-.9.31-1.32.51l-.67-1.47a7.88 7.88 0 0 1 3.51-.84c1.23 0 2.16.26 2.79.8.63.54.95 1.39.95 2.54V123h-1.48Zm-3.07-1.4c.75 0 1.35-.21 1.8-.63.46-.42.68-1.01.68-1.77v-.84l-1.24.05a4.2 4.2 0 0 0-2.13.5c-.44.28-.66.72-.66 1.32 0 .44.13.77.39 1.01.25.24.64.35 1.16.35Zm9.5 1.4h-2.07v-13.68h2.07V123Zm10.93 0-1.26-4.53a61.4 61.4 0 0 1-.82-3.35h-.08c-.34 1.58-.61 2.7-.81 3.36l-1.29 4.52h-2.29l-2.72-9.72h2.11l1.24 4.79c.28 1.18.48 2.2.6 3.04h.05a19.6 19.6 0 0 1 .58-2.72l1.48-5.11h2.26l1.44 5.11a25.48 25.48 0 0 1 .56 2.7h.07c.09-.72.29-1.73.61-3.02l1.26-4.8h2.07l-2.74 9.73h-2.32Zm12.83 0-.42-1.35h-.07c-.47.59-.94 1-1.41 1.2a4.4 4.4 0 0 1-1.83.33 3.1 3.1 0 0 1-2.24-.78c-.54-.51-.8-1.24-.8-2.19 0-1 .37-1.75 1.11-2.26.75-.51 1.88-.8 3.41-.84l1.67-.05v-.52c0-.62-.14-1.08-.44-1.39-.28-.3-.73-.46-1.34-.46-.5 0-.98.07-1.43.22-.46.14-.9.31-1.32.51l-.67-1.47a7.88 7.88 0 0 1 3.51-.84c1.23 0 2.17.26 2.79.8.64.54.95 1.39.95 2.54V123h-1.47Zm-3.08-1.4c.75 0 1.35-.21 1.8-.63.46-.42.69-1.01.69-1.77v-.84l-1.25.05a4.3 4.3 0 0 0-2.13.5c-.44.28-.66.72-.66 1.32 0 .44.13.77.39 1.01s.64.35 1.16.35Zm12.37-8.5c.41 0 .75.03 1.02.1l-.2 1.92a3.9 3.9 0 0 0-.91-.1c-.83 0-1.5.26-2.02.8a2.93 2.93 0 0 0-.76 2.1V123h-2.07v-9.72h1.62l.27 1.71h.11c.32-.58.74-1.04 1.26-1.38a3 3 0 0 1 1.68-.5Zm7.08 10.08c-1.51 0-2.7-.44-3.55-1.32a5.05 5.05 0 0 1-1.28-3.65c0-1.59.4-2.84 1.19-3.74a4.1 4.1 0 0 1 3.26-1.37 4 4 0 0 1 3.04 1.17 4.45 4.45 0 0 1 1.12 3.22v1.12h-6.48c.03.94.29 1.67.77 2.17.48.5 1.15.76 2.03.76a7.42 7.42 0 0 0 3.19-.7v1.68c-.5.24-1.01.4-1.52.5-.52.1-1.11.16-1.77.16Zm-.38-8.51c-.66 0-1.18.2-1.58.62a2.97 2.97 0 0 0-.7 1.82h4.41c-.01-.8-.21-1.4-.58-1.82a1.99 1.99 0 0 0-1.55-.62Zm16.06.17h-2.37V123h-2.08v-8.16h-1.6v-.96l1.6-.64v-.63c0-1.15.27-2 .81-2.55.54-.55 1.36-.83 2.47-.83.73 0 1.44.12 2.14.36l-.54 1.56a4.9 4.9 0 0 0-1.46-.24c-.47 0-.81.14-1.03.44-.21.28-.31.72-.31 1.3v.63h2.37v1.56Zm6.59-1.74c.42 0 .76.03 1.03.1l-.2 1.92a4 4 0 0 0-.92-.1c-.82 0-1.49.26-2.01.8a2.93 2.93 0 0 0-.76 2.1V123h-2.07v-9.72h1.62l.27 1.71h.11c.32-.58.74-1.04 1.25-1.38a3 3 0 0 1 1.68-.5Zm11.46 5.02c0 1.59-.41 2.83-1.22 3.72a4.37 4.37 0 0 1-3.4 1.34c-.91 0-1.71-.2-2.41-.62-.7-.41-1.23-1-1.61-1.77a6.09 6.09 0 0 1-.56-2.67c0-1.57.4-2.8 1.21-3.69a4.4 4.4 0 0 1 3.42-1.33c1.41 0 2.52.46 3.34 1.37.82.9 1.23 2.12 1.23 3.65Zm-7.07 0c0 2.25.83 3.37 2.48 3.37 1.64 0 2.46-1.12 2.46-3.37 0-2.22-.82-3.33-2.47-3.33-.87 0-1.5.29-1.89.86a4.4 4.4 0 0 0-.58 2.47Zm17.64 4.88h-2.07v-6c0-.74-.14-1.3-.42-1.66-.28-.36-.72-.55-1.32-.55-.8 0-1.38.26-1.76.78-.37.52-.55 1.38-.55 2.59V123h-2.07v-9.72h1.62l.29 1.27h.11c.27-.46.66-.82 1.16-1.07a3.86 3.86 0 0 1 1.7-.38c1.5 0 2.49.51 2.97 1.53h.14c.29-.48.69-.85 1.22-1.12a3.8 3.8 0 0 1 1.79-.4c1.16 0 2 .29 2.53.87.53.59.8 1.48.8 2.68V123h-2.07v-6c0-.74-.14-1.3-.43-1.66-.28-.36-.72-.55-1.31-.55-.81 0-1.4.25-1.77.76-.37.5-.56 1.26-.56 2.3V123Zm18.36 0h-2.1v-11.05h-3.78v-1.8h9.66v1.8h-3.78V123Zm14.09 0h-2.08v-5.98c0-.75-.15-1.3-.46-1.67-.29-.37-.77-.56-1.43-.56-.87 0-1.5.26-1.91.78-.41.52-.61 1.39-.61 2.6V123h-2.07v-13.68h2.07v3.48c0 .55-.04 1.15-.11 1.78h.14a2.9 2.9 0 0 1 1.16-1.09 3.83 3.83 0 0 1 1.76-.39c2.36 0 3.54 1.19 3.54 3.56V123Zm4.93 0h-2.06v-9.72h2.06V123Zm-2.18-12.3c0-.37.1-.65.29-.85.21-.2.5-.3.88-.3.36 0 .64.1.84.3.2.2.31.48.31.85 0 .36-.11.63-.31.84-.2.2-.48.3-.84.3-.38 0-.67-.1-.88-.3-.19-.2-.29-.48-.29-.84Zm10.08 2.4c.41 0 .76.03 1.03.1l-.21 1.92c-.29-.07-.59-.1-.91-.1-.83 0-1.5.26-2.01.8a2.94 2.94 0 0 0-.77 2.1V123h-2.06v-9.72h1.61l.28 1.71h.1c.32-.58.74-1.04 1.26-1.38a3 3 0 0 1 1.68-.5Zm6.11 10.08a3.37 3.37 0 0 1-2.83-1.32c-.68-.88-1.02-2.11-1.02-3.7 0-1.6.34-2.84 1.02-3.72a3.45 3.45 0 0 1 2.87-1.34c1.28 0 2.25.48 2.92 1.42h.1c-.1-.7-.15-1.25-.15-1.65v-3.55h2.08V123h-1.62l-.36-1.27h-.1a3.3 3.3 0 0 1-2.91 1.45Zm.56-1.67c.85 0 1.47-.24 1.85-.72.39-.48.59-1.25.6-2.33v-.28c0-1.23-.2-2.1-.6-2.62-.4-.51-1.02-.77-1.87-.77-.73 0-1.29.3-1.68.89a4.52 4.52 0 0 0-.59 2.51c0 1.08.19 1.9.57 2.47.39.56.96.85 1.72.85Zm20.78-7.48c0 1.35-.44 2.38-1.31 3.09-.88.71-2.13 1.07-3.76 1.07h-1.33V123h-2.1v-12.85h3.7c1.6 0 2.8.33 3.6.98.8.66 1.2 1.63 1.2 2.9Zm-6.4 2.4h1.11c1.08 0 1.87-.2 2.38-.57.5-.37.75-.96.75-1.75 0-.74-.22-1.3-.67-1.66-.46-.36-1.16-.54-2.11-.54h-1.46v4.52Zm14.83 6.57-.41-1.35h-.07a4 4 0 0 1-1.42 1.2c-.47.22-1.08.33-1.82.33-.96 0-1.71-.26-2.24-.78-.54-.51-.8-1.24-.8-2.19 0-1 .37-1.75 1.11-2.26.75-.51 1.88-.8 3.4-.84l1.68-.05v-.52c0-.62-.14-1.08-.44-1.39-.28-.3-.73-.46-1.34-.46-.5 0-.98.07-1.44.22-.45.14-.89.31-1.31.51l-.67-1.47a7.88 7.88 0 0 1 3.51-.84c1.23 0 2.16.26 2.79.8.63.54.95 1.39.95 2.54V123h-1.48Zm-3.07-1.4c.75 0 1.35-.21 1.8-.63.46-.42.68-1.01.68-1.77v-.84l-1.24.05a4.2 4.2 0 0 0-2.13.5c-.44.28-.66.72-.66 1.32 0 .44.13.77.39 1.01.25.24.64.35 1.16.35Zm12.36-8.5c.42 0 .76.03 1.03.1l-.2 1.92a3.9 3.9 0 0 0-.91-.1c-.83 0-1.5.26-2.02.8a2.93 2.93 0 0 0-.76 2.1V123h-2.07v-9.72h1.62l.27 1.71h.11c.32-.58.74-1.04 1.25-1.38.53-.34 1.09-.5 1.68-.5Zm6.46 8.4a4.9 4.9 0 0 0 1.51-.23v1.55a5.75 5.75 0 0 1-2 .35c-1.96 0-2.93-1.02-2.93-3.09v-5.24h-1.33v-.91l1.42-.76.71-2.05h1.27v2.16h2.77v1.56h-2.77v5.2c0 .5.12.87.37 1.11.25.24.58.36.98.36Zm1.99-8.22h2.25l1.98 5.51c.3.78.49 1.52.59 2.21h.07c.06-.32.15-.7.29-1.16.15-.47.89-2.65 2.24-6.56h2.23l-4.16 11.01c-.75 2.02-2.01 3.03-3.78 3.03-.45 0-.9-.05-1.33-.14v-1.64c.31.07.66.1 1.06.1 1 0 1.7-.57 2.1-1.73l.36-.91-3.9-9.72Zm23.99 9.72-1.28-3.57h-4.91l-1.26 3.57h-2.21l4.8-12.9h2.29l4.81 12.9h-2.24Zm-1.83-5.38-1.21-3.5a22.9 22.9 0 0 1-.68-2.21c-.16.72-.39 1.5-.7 2.36l-1.16 3.35h3.75Zm10.47 5.56a3.4 3.4 0 0 1-2.86-1.33h-.13c.09.82.13 1.32.13 1.5v3.97h-2.07v-14.04h1.67c.05.18.15.61.29 1.3h.11a3.23 3.23 0 0 1 2.9-1.48c1.21 0 2.15.44 2.83 1.32.68.88 1.02 2.11 1.02 3.7 0 1.59-.35 2.83-1.04 3.72a3.38 3.38 0 0 1-2.85 1.34Zm-.5-8.39c-.82 0-1.42.24-1.8.72-.37.48-.56 1.25-.56 2.3v.31c0 1.19.19 2.04.56 2.58.38.52.99.79 1.84.79.71 0 1.26-.3 1.65-.88.39-.59.58-1.42.58-2.5a4.3 4.3 0 0 0-.58-2.47 1.9 1.9 0 0 0-1.69-.85Zm11.72 8.39a3.42 3.42 0 0 1-2.87-1.33h-.12c.08.82.12 1.32.12 1.5v3.97h-2.06v-14.04h1.67l.29 1.3h.1a3.24 3.24 0 0 1 2.9-1.48c1.22 0 2.16.44 2.83 1.32.68.88 1.02 2.11 1.02 3.7 0 1.59-.34 2.83-1.03 3.72a3.4 3.4 0 0 1-2.85 1.34Zm-.5-8.39c-.82 0-1.42.24-1.8.72-.38.48-.57 1.25-.57 2.3v.31c0 1.19.19 2.04.57 2.58.37.52.98.79 1.83.79.72 0 1.27-.3 1.65-.88.39-.59.58-1.42.58-2.5a4.3 4.3 0 0 0-.58-2.47 1.9 1.9 0 0 0-1.68-.85Zm-245.13 59.66c0 2.12-.59 3.75-1.77 4.87-1.17 1.12-2.87 1.68-5.09 1.68h-3.59v-12.85h3.97c2.05 0 3.64.55 4.77 1.65 1.14 1.1 1.71 2.65 1.71 4.65Zm-2.21.07c0-3.07-1.44-4.61-4.32-4.61h-1.82v9.32h1.49c3.1 0 4.65-1.57 4.65-4.7Zm10.84 6.48-.41-1.35h-.07a4 4 0 0 1-1.42 1.2 4.5 4.5 0 0 1-1.83.33 3.1 3.1 0 0 1-2.24-.78 2.91 2.91 0 0 1-.8-2.19c0-1 .38-1.75 1.12-2.26.74-.51 1.88-.8 3.4-.84l1.68-.05v-.52c0-.62-.15-1.08-.44-1.39-.29-.3-.74-.46-1.34-.46-.5 0-.98.07-1.44.22-.45.14-.89.31-1.32.51l-.66-1.47a7.8 7.8 0 0 1 3.5-.84c1.24 0 2.17.26 2.8.8.63.54.95 1.39.95 2.54V181h-1.48Zm-3.08-1.4c.75 0 1.36-.21 1.81-.63a2.3 2.3 0 0 0 .68-1.77v-.84l-1.25.05c-.97.04-1.68.2-2.12.5-.44.28-.66.72-.66 1.32 0 .44.13.77.38 1.01.26.24.65.35 1.16.35Zm11.06-.1a4.9 4.9 0 0 0 1.51-.23v1.55a5.75 5.75 0 0 1-2 .35c-1.96 0-2.94-1.02-2.94-3.09v-5.24h-1.32v-.91l1.42-.76.7-2.05h1.28v2.16h2.77v1.56h-2.77v5.2c0 .5.12.87.37 1.11.25.24.58.36.98.36Zm9.55 1.5-.42-1.35h-.07c-.47.59-.94 1-1.41 1.2a4.4 4.4 0 0 1-1.83.33 3.1 3.1 0 0 1-2.24-.78 2.91 2.91 0 0 1-.8-2.19c0-1 .37-1.75 1.11-2.26.75-.51 1.88-.8 3.41-.84l1.67-.05v-.52c0-.62-.14-1.08-.43-1.39-.29-.3-.74-.46-1.35-.46-.5 0-.97.07-1.43.22-.46.14-.9.31-1.32.51l-.67-1.47a7.88 7.88 0 0 1 3.51-.84c1.23 0 2.17.26 2.79.8.64.54.95 1.39.95 2.54V181h-1.47Zm-3.08-1.4c.75 0 1.35-.21 1.8-.63.46-.42.69-1.01.69-1.77v-.84l-1.25.05a4.3 4.3 0 0 0-2.13.5c-.44.28-.66.72-.66 1.32 0 .44.13.77.39 1.01s.64.35 1.16.35Zm22.78-5.15c0 2.12-.59 3.75-1.77 4.87-1.17 1.12-2.87 1.68-5.08 1.68h-3.6v-12.85h3.97c2.05 0 3.64.55 4.78 1.65 1.13 1.1 1.7 2.65 1.7 4.65Zm-2.21.07c0-3.07-1.44-4.61-4.32-4.61h-1.82v9.32h1.5c3.09 0 4.64-1.57 4.64-4.7Zm9.01 6.66c-1.52 0-2.7-.44-3.56-1.32a5.04 5.04 0 0 1-1.27-3.65c0-1.59.4-2.84 1.19-3.74a4.09 4.09 0 0 1 3.26-1.37c1.28 0 2.29.4 3.04 1.17a4.48 4.48 0 0 1 1.11 3.22v1.11h-6.47c.03.95.28 1.68.76 2.19.48.5 1.16.75 2.03.75a7.61 7.61 0 0 0 3.2-.7v1.68c-.5.24-1.01.4-1.53.5-.51.1-1.1.16-1.76.16Zm-.38-8.51c-.66 0-1.19.2-1.58.62-.4.42-.63 1.02-.71 1.82h4.41c-.01-.8-.2-1.4-.58-1.82a1.96 1.96 0 0 0-1.54-.62Zm8.57 8.33h-2.07v-13.68h2.07V181Zm7.2.18a4.73 4.73 0 0 1-3.55-1.32 5.04 5.04 0 0 1-1.27-3.65c0-1.59.39-2.84 1.19-3.74a4.09 4.09 0 0 1 3.26-1.37c1.28 0 2.29.4 3.04 1.17a4.48 4.48 0 0 1 1.11 3.22v1.11h-6.47c.02.95.28 1.68.76 2.19.48.5 1.16.75 2.03.75a7.68 7.68 0 0 0 3.2-.7v1.68c-.5.24-1.01.4-1.53.5-.52.1-1.1.16-1.77.16Zm-.37-8.51c-.66 0-1.19.2-1.59.62a3.03 3.03 0 0 0-.7 1.82h4.41c-.01-.8-.2-1.4-.58-1.82a1.96 1.96 0 0 0-1.54-.62Zm10.12 6.84c.5 0 1.01-.08 1.51-.24v1.55a5.58 5.58 0 0 1-2 .35c-1.96 0-2.94-1.02-2.94-3.09v-5.24h-1.32v-.91l1.42-.76.7-2.05h1.28v2.16h2.77v1.56h-2.77v5.2c0 .5.12.87.37 1.11.25.24.58.36.98.36Zm5.53 1.49h-2.07v-9.72h2.07V181Zm-2.19-12.3c0-.36.1-.65.3-.85.2-.2.49-.3.87-.3.36 0 .64.1.84.3.21.2.31.49.31.85s-.1.63-.31.84c-.2.2-.48.3-.84.3-.38 0-.67-.1-.87-.3-.2-.2-.3-.48-.3-.84Zm13.77 7.42c0 1.59-.4 2.83-1.22 3.72a4.37 4.37 0 0 1-3.4 1.34c-.91 0-1.71-.2-2.41-.62-.7-.41-1.23-1-1.61-1.77a6.09 6.09 0 0 1-.56-2.67c0-1.57.41-2.8 1.21-3.69a4.4 4.4 0 0 1 3.42-1.33c1.41 0 2.52.46 3.34 1.37.82.9 1.23 2.12 1.23 3.65Zm-7.07 0c0 2.25.83 3.37 2.49 3.37 1.64 0 2.46-1.12 2.46-3.37 0-2.22-.83-3.33-2.48-3.33-.87 0-1.5.29-1.89.86a4.4 4.4 0 0 0-.58 2.47Zm18.01 4.88h-2.08v-5.98c0-.75-.15-1.3-.45-1.68-.3-.36-.78-.55-1.44-.55-.87 0-1.51.26-1.91.77-.41.52-.61 1.38-.61 2.6V181h-2.07v-9.72h1.62l.29 1.27h.11c.29-.46.71-.82 1.25-1.07a4.13 4.13 0 0 1 1.79-.38c2.33 0 3.5 1.19 3.5 3.56V181Zm12.51-9.9c1.22 0 2.16.44 2.83 1.32.68.88 1.02 2.11 1.02 3.7 0 1.6-.34 2.84-1.03 3.73a3.4 3.4 0 0 1-2.85 1.33 3.42 3.42 0 0 1-2.87-1.33h-.14l-.38 1.15h-1.54v-13.68h2.06v3.26l-.03 1.07c-.03.47-.04.78-.06.9h.09a3.28 3.28 0 0 1 2.9-1.45Zm-.53 1.7c-.84 0-1.44.24-1.81.73-.36.49-.55 1.3-.56 2.45v.14c0 1.19.19 2.04.56 2.58.38.53.99.79 1.84.79.73 0 1.29-.3 1.66-.87a4.6 4.6 0 0 0 .57-2.52c0-2.2-.75-3.3-2.26-3.3Zm5.3-1.52h2.25l1.98 5.51c.3.78.5 1.52.6 2.22h.07c.05-.33.15-.72.29-1.17.14-.47.89-2.65 2.23-6.56h2.24l-4.16 11.01c-.76 2.02-2.02 3.03-3.78 3.03-.46 0-.9-.05-1.34-.14v-1.64c.31.07.67.1 1.07.1.99 0 1.69-.57 2.1-1.73l.36-.91-3.91-9.72Zm26.16 9.72h-2.11v-5.8h-5.92v5.8h-2.1v-12.85h2.1v5.26h5.92v-5.26h2.11V181Zm9.25 0-.42-1.35h-.07c-.47.59-.94 1-1.41 1.2a4.4 4.4 0 0 1-1.83.33 3.1 3.1 0 0 1-2.24-.78 2.91 2.91 0 0 1-.8-2.19c0-1 .37-1.75 1.12-2.26.74-.51 1.87-.8 3.4-.84l1.68-.05v-.52c0-.62-.15-1.08-.44-1.39-.29-.3-.74-.46-1.35-.46-.5 0-.97.07-1.43.22-.46.14-.9.31-1.32.51l-.67-1.47a7.88 7.88 0 0 1 3.51-.84c1.24 0 2.17.26 2.79.8.64.54.95 1.39.95 2.54V181h-1.47Zm-3.08-1.4c.75 0 1.35-.21 1.8-.63.46-.42.69-1.01.69-1.77v-.84l-1.25.05a4.3 4.3 0 0 0-2.13.5c-.44.28-.66.72-.66 1.32 0 .44.13.77.39 1.01s.65.35 1.16.35Zm11.36 1.58c-1.47 0-2.59-.43-3.36-1.29-.76-.86-1.14-2.1-1.14-3.7 0-1.63.39-2.89 1.19-3.77.8-.88 1.96-1.32 3.47-1.32 1.03 0 1.95.2 2.77.58l-.62 1.66a6.32 6.32 0 0 0-2.16-.51c-1.69 0-2.53 1.11-2.53 3.34 0 1.1.21 1.92.63 2.47.42.54 1.03.81 1.84.81.92 0 1.79-.22 2.61-.68v1.8c-.37.22-.76.37-1.18.47-.42.09-.93.14-1.52.14Zm6.98-5.31 1.17-1.46 2.94-3.13h2.38l-3.91 4.17 4.16 5.55h-2.43l-3.12-4.26-1.13.93V181h-2.05v-13.68h2.05V174l-.11 1.87h.05Zm12.55 5.3a4.73 4.73 0 0 1-3.55-1.31 5.04 5.04 0 0 1-1.27-3.65c0-1.59.39-2.84 1.19-3.74a4.09 4.09 0 0 1 3.26-1.37c1.28 0 2.29.4 3.04 1.17a4.48 4.48 0 0 1 1.11 3.22v1.11h-6.47c.03.95.28 1.68.76 2.19.48.5 1.16.75 2.03.75a7.61 7.61 0 0 0 3.2-.7v1.68c-.5.24-1.01.4-1.53.5-.51.1-1.1.16-1.77.16Zm-.37-8.5c-.66 0-1.19.2-1.59.62a3.03 3.03 0 0 0-.7 1.82h4.41c-.01-.8-.2-1.4-.58-1.82a1.96 1.96 0 0 0-1.54-.62Zm11.43-1.57c.42 0 .76.03 1.03.1l-.2 1.92a4 4 0 0 0-.92-.1c-.82 0-1.49.26-2.01.8a2.93 2.93 0 0 0-.76 2.1V181h-2.07v-9.72h1.62l.27 1.71h.11c.32-.58.74-1.04 1.25-1.38a3 3 0 0 1 1.68-.5Zm9.37 7.13c0 .95-.35 1.68-1.04 2.19a5 5 0 0 1-2.97.76c-1.29 0-2.33-.2-3.12-.6v-1.78c1.14.53 2.21.8 3.19.8 1.27 0 1.91-.39 1.91-1.16a.91.91 0 0 0-.21-.61 2.42 2.42 0 0 0-.7-.51c-.32-.18-.77-.38-1.34-.6a6.3 6.3 0 0 1-2.28-1.3c-.39-.43-.59-1-.59-1.69 0-.83.34-1.47 1.01-1.93a4.7 4.7 0 0 1 2.74-.7 7.8 7.8 0 0 1 3.24.7l-.67 1.55a7.17 7.17 0 0 0-2.64-.65c-1.09 0-1.64.31-1.64.94 0 .3.14.56.43.77.28.2.9.5 1.86.87.8.3 1.38.6 1.75.85.36.26.63.56.81.9.17.33.26.73.26 1.2ZM1136.3 239h-7.27v-12.85h7.27v1.78h-5.17v3.5h4.84v1.75h-4.84v4.04h5.17V239Zm11.12 0h-2.08v-5.98c0-.75-.15-1.3-.45-1.68-.3-.36-.78-.55-1.44-.55-.87 0-1.51.26-1.91.77-.41.52-.61 1.38-.61 2.6V239h-2.07v-9.72h1.62l.29 1.27h.11c.29-.46.71-.82 1.25-1.07a4.13 4.13 0 0 1 1.79-.38c2.33 0 3.5 1.19 3.5 3.56V239Zm6.15.18a3.4 3.4 0 0 1-2.84-1.32 5.94 5.94 0 0 1-1.02-3.7c0-1.6.34-2.84 1.03-3.72a3.43 3.43 0 0 1 2.86-1.34c1.28 0 2.25.47 2.92 1.42h.11c-.1-.7-.15-1.25-.15-1.65v-3.55h2.07V239h-1.61l-.37-1.27h-.09a3.3 3.3 0 0 1-2.91 1.45Zm.55-1.67c.85 0 1.47-.24 1.86-.72.38-.48.58-1.25.59-2.32v-.3c0-1.22-.19-2.09-.59-2.6-.4-.52-1.03-.78-1.88-.78-.72 0-1.28.3-1.67.89-.4.58-.59 1.42-.59 2.51 0 1.08.19 1.9.57 2.47.38.56.95.85 1.71.85Zm11.63 1.67a4.73 4.73 0 0 1-3.55-1.32 5.04 5.04 0 0 1-1.27-3.65c0-1.59.39-2.84 1.18-3.74a4.1 4.1 0 0 1 3.26-1.37c1.29 0 2.3.4 3.04 1.17a4.45 4.45 0 0 1 1.12 3.22v1.11h-6.48c.03.95.29 1.68.77 2.19.48.5 1.15.75 2.03.75a7.42 7.42 0 0 0 3.2-.7v1.68a6.5 6.5 0 0 1-1.53.5c-.52.1-1.11.16-1.77.16Zm-.38-8.51c-.65 0-1.18.2-1.58.62a2.97 2.97 0 0 0-.7 1.82h4.41c-.01-.8-.21-1.4-.58-1.82a1.99 1.99 0 0 0-1.55-.62Zm9.78 8.5a3.37 3.37 0 0 1-2.83-1.31 5.94 5.94 0 0 1-1.02-3.7c0-1.6.34-2.84 1.02-3.72a3.45 3.45 0 0 1 2.87-1.34c1.28 0 2.25.47 2.92 1.42h.1c-.1-.7-.15-1.25-.15-1.65v-3.55h2.08V239h-1.62l-.36-1.27h-.1a3.3 3.3 0 0 1-2.91 1.45Zm.56-1.66c.85 0 1.47-.24 1.85-.72.39-.48.59-1.25.6-2.32v-.3c0-1.22-.2-2.09-.6-2.6-.4-.52-1.02-.78-1.87-.78-.73 0-1.29.3-1.68.89a4.52 4.52 0 0 0-.59 2.51c0 1.08.19 1.9.57 2.47.39.56.96.85 1.72.85Zm19.69-2c0 1.14-.42 2.04-1.24 2.69a5.4 5.4 0 0 1-3.42.98 8.16 8.16 0 0 1-3.57-.68v-1.99c.59.28 1.21.5 1.86.65a8 8 0 0 0 1.85.24c.83 0 1.44-.16 1.84-.47.39-.32.59-.75.59-1.28 0-.48-.18-.89-.54-1.22a8.42 8.42 0 0 0-2.25-1.19 5.96 5.96 0 0 1-2.48-1.62 3.44 3.44 0 0 1-.72-2.2c0-1.07.38-1.92 1.14-2.53a4.75 4.75 0 0 1 3.07-.92 9 9 0 0 1 3.67.8l-.67 1.72a8.01 8.01 0 0 0-3.05-.72c-.68 0-1.2.15-1.55.45-.35.29-.53.68-.53 1.16 0 .34.07.63.21.87.14.23.37.45.7.66.32.22.9.5 1.74.84.94.4 1.63.76 2.07 1.1.44.34.76.72.97 1.15.2.43.31.93.31 1.51Zm6.51 3.67c-1.51 0-2.7-.44-3.55-1.32a5.05 5.05 0 0 1-1.28-3.65c0-1.59.4-2.84 1.19-3.74a4.1 4.1 0 0 1 3.26-1.37 4 4 0 0 1 3.04 1.17 4.45 4.45 0 0 1 1.12 3.22v1.11h-6.48c.03.95.28 1.68.77 2.19.48.5 1.15.75 2.03.75a7.58 7.58 0 0 0 3.19-.7v1.68c-.5.24-1.01.4-1.52.5-.52.1-1.11.16-1.77.16Zm-.38-8.51c-.66 0-1.18.2-1.58.62a2.97 2.97 0 0 0-.7 1.82h4.41c-.01-.8-.21-1.4-.58-1.82a1.99 1.99 0 0 0-1.55-.62Zm11.44-1.57c.41 0 .75.03 1.02.1l-.2 1.92a3.9 3.9 0 0 0-.91-.1c-.83 0-1.5.26-2.02.8a2.93 2.93 0 0 0-.76 2.1V239h-2.07v-9.72h1.62l.27 1.71h.11c.32-.58.74-1.04 1.26-1.38a3 3 0 0 1 1.68-.5Zm5.05 9.9-3.69-9.72h2.18l1.97 5.65c.34.95.55 1.72.62 2.3h.07c.05-.42.26-1.19.62-2.3l1.97-5.65h2.2l-3.71 9.72h-2.23Zm9.48 0h-2.06v-9.72h2.06V239Zm-2.19-12.3c0-.36.1-.65.3-.85.21-.2.5-.3.87-.3s.65.1.85.3c.2.2.3.49.3.85s-.1.63-.3.84c-.2.2-.48.3-.85.3s-.66-.1-.87-.3c-.2-.2-.3-.48-.3-.84Zm9.07 12.48c-1.47 0-2.59-.43-3.35-1.29-.76-.86-1.15-2.1-1.15-3.7 0-1.63.4-2.89 1.2-3.77.8-.88 1.96-1.32 3.47-1.32 1.03 0 1.95.2 2.77.58l-.62 1.66a6.32 6.32 0 0 0-2.17-.51c-1.68 0-2.52 1.11-2.52 3.34 0 1.1.21 1.92.63 2.47.42.54 1.03.81 1.84.81.92 0 1.79-.22 2.61-.68v1.8a4.1 4.1 0 0 1-1.19.47c-.41.09-.92.14-1.52.14Zm9.24 0a4.73 4.73 0 0 1-3.55-1.32 5.04 5.04 0 0 1-1.27-3.65c0-1.59.39-2.84 1.18-3.74a4.1 4.1 0 0 1 3.26-1.37c1.29 0 2.3.4 3.04 1.17a4.45 4.45 0 0 1 1.12 3.22v1.11h-6.48c.03.95.29 1.68.77 2.19.48.5 1.16.75 2.03.75a7.68 7.68 0 0 0 3.2-.7v1.68a6.5 6.5 0 0 1-1.53.5c-.52.1-1.11.16-1.77.16Zm-.38-8.51c-.65 0-1.18.2-1.58.62a2.97 2.97 0 0 0-.7 1.82h4.41c-.01-.8-.2-1.4-.58-1.82a1.97 1.97 0 0 0-1.55-.62Zm17.27 8.33-.42-1.35h-.07c-.47.59-.94 1-1.41 1.2a4.4 4.4 0 0 1-1.83.33 3.1 3.1 0 0 1-2.24-.78c-.54-.51-.8-1.24-.8-2.19 0-1 .37-1.75 1.11-2.26.75-.51 1.88-.8 3.41-.84l1.67-.05v-.52c0-.62-.14-1.08-.44-1.39-.28-.3-.73-.46-1.34-.46-.5 0-.98.07-1.43.22-.46.14-.9.31-1.32.51l-.67-1.47a7.88 7.88 0 0 1 3.51-.84c1.23 0 2.17.26 2.79.8.64.54.95 1.39.95 2.54V239h-1.47Zm-3.08-1.4c.75 0 1.35-.21 1.8-.63.46-.42.69-1.01.69-1.77v-.84l-1.25.05a4.3 4.3 0 0 0-2.13.5c-.44.28-.66.72-.66 1.32 0 .44.13.77.39 1.01s.64.35 1.16.35Zm15.99 1.4h-2.08v-5.98c0-.75-.15-1.3-.45-1.68-.3-.36-.78-.55-1.44-.55-.87 0-1.51.26-1.91.77-.41.52-.61 1.38-.61 2.6V239h-2.07v-9.72h1.62l.29 1.27h.11c.29-.46.71-.82 1.25-1.07a4.13 4.13 0 0 1 1.79-.38c2.33 0 3.5 1.19 3.5 3.56V239Zm6.15.18a3.4 3.4 0 0 1-2.84-1.32 5.94 5.94 0 0 1-1.02-3.7c0-1.6.34-2.84 1.03-3.72a3.43 3.43 0 0 1 2.86-1.34c1.28 0 2.25.47 2.92 1.42h.11c-.1-.7-.15-1.25-.15-1.65v-3.55h2.07V239h-1.61l-.37-1.27h-.09a3.3 3.3 0 0 1-2.91 1.45Zm.55-1.67c.85 0 1.47-.24 1.86-.72.38-.48.58-1.25.59-2.32v-.3c0-1.22-.19-2.09-.59-2.6-.4-.52-1.03-.78-1.88-.78-.72 0-1.28.3-1.67.89-.4.58-.59 1.42-.59 2.51 0 1.08.19 1.9.57 2.47.38.56.95.85 1.71.85Zm22.73-5.06c0 2.12-.59 3.75-1.77 4.87-1.17 1.12-2.87 1.68-5.08 1.68h-3.6v-12.85h3.97c2.05 0 3.64.55 4.78 1.65 1.13 1.1 1.7 2.65 1.7 4.65Zm-2.21.07c0-3.07-1.44-4.61-4.32-4.61h-1.82v9.32h1.5c3.09 0 4.64-1.57 4.64-4.7Zm10.84 6.48-.41-1.35h-.07a4 4 0 0 1-1.42 1.2c-.47.22-1.08.33-1.82.33-.96 0-1.71-.26-2.25-.78a2.91 2.91 0 0 1-.8-2.19c0-1 .38-1.75 1.12-2.26.74-.51 1.88-.8 3.4-.84l1.68-.05v-.52c0-.62-.15-1.08-.44-1.39-.29-.3-.73-.46-1.34-.46-.5 0-.98.07-1.44.22-.45.14-.89.31-1.31.51l-.67-1.47a7.86 7.86 0 0 1 3.5-.84c1.24 0 2.17.26 2.8.8.63.54.95 1.39.95 2.54V239h-1.48Zm-3.07-1.4c.75 0 1.35-.21 1.8-.63a2.3 2.3 0 0 0 .68-1.77v-.84l-1.24.05a4.2 4.2 0 0 0-2.13.5c-.44.28-.66.72-.66 1.32 0 .44.13.77.39 1.01.25.24.64.35 1.16.35Zm11.05-.1a4.9 4.9 0 0 0 1.51-.23v1.55a5.75 5.75 0 0 1-2 .35c-1.96 0-2.94-1.02-2.94-3.09v-5.24h-1.32v-.91l1.42-.76.7-2.05h1.28v2.16h2.77v1.56h-2.77v5.2c0 .5.12.87.37 1.11.25.24.58.36.98.36Zm9.55 1.5-.42-1.35h-.07c-.46.59-.94 1-1.41 1.2a4.4 4.4 0 0 1-1.83.33 3.1 3.1 0 0 1-2.24-.78 2.91 2.91 0 0 1-.8-2.19c0-1 .37-1.75 1.12-2.26.74-.51 1.87-.8 3.4-.84l1.68-.05v-.52c0-.62-.15-1.08-.44-1.39-.29-.3-.74-.46-1.35-.46-.5 0-.97.07-1.43.22-.46.14-.9.31-1.32.51l-.67-1.47a7.88 7.88 0 0 1 3.51-.84c1.24 0 2.17.26 2.79.8.64.54.95 1.39.95 2.54V239h-1.47Zm-3.08-1.4c.75 0 1.35-.21 1.8-.63.46-.42.69-1.01.69-1.77v-.84l-1.25.05a4.3 4.3 0 0 0-2.13.5c-.44.28-.66.72-.66 1.32 0 .44.13.77.39 1.01s.65.35 1.16.35Zm12.33 1.4v-12.85h2.1v11.05h5.44v1.8h-7.54Zm18.16-4.88c0 1.59-.41 2.83-1.22 3.72a4.39 4.39 0 0 1-3.4 1.34c-.91 0-1.71-.2-2.41-.62-.7-.41-1.23-1-1.61-1.77a6.09 6.09 0 0 1-.56-2.67c0-1.57.4-2.8 1.21-3.69a4.4 4.4 0 0 1 3.42-1.33c1.41 0 2.52.46 3.34 1.37.82.9 1.23 2.12 1.23 3.65Zm-7.07 0c0 2.25.82 3.37 2.48 3.37 1.64 0 2.46-1.12 2.46-3.37 0-2.22-.82-3.33-2.48-3.33-.86 0-1.49.29-1.88.86a4.4 4.4 0 0 0-.58 2.47Zm15.98 2.11c0 .95-.34 1.68-1.03 2.19-.7.5-1.69.76-2.98.76s-2.33-.2-3.12-.6v-1.78c1.15.53 2.21.8 3.2.8 1.27 0 1.9-.39 1.9-1.16a.91.91 0 0 0-.21-.61 2.5 2.5 0 0 0-.69-.51 12.3 12.3 0 0 0-1.35-.6 6.15 6.15 0 0 1-2.27-1.3c-.4-.43-.59-1-.59-1.69 0-.83.33-1.47 1-1.93.67-.47 1.59-.7 2.74-.7a7.8 7.8 0 0 1 3.24.7l-.66 1.55a7.21 7.21 0 0 0-2.65-.65c-1.09 0-1.63.31-1.63.94 0 .3.14.56.42.77.29.2.91.5 1.86.87.8.3 1.39.6 1.75.85.36.26.63.56.81.9.17.33.26.73.26 1.2Zm5.86 1.28c.51 0 1.01-.08 1.52-.24v1.55a5.75 5.75 0 0 1-2.01.35c-1.95 0-2.93-1.02-2.93-3.09v-5.24h-1.33v-.91l1.42-.76.71-2.05h1.27v2.16h2.77v1.56h-2.77v5.2c0 .5.12.87.37 1.11.25.24.58.36.98.36Zm-230.75 53.05c0 2.09-.53 3.71-1.58 4.88-1.04 1.16-2.52 1.74-4.43 1.74-1.94 0-3.43-.58-4.48-1.73-1.03-1.15-1.55-2.79-1.55-4.91s.52-3.75 1.56-4.89c1.05-1.13 2.54-1.7 4.48-1.7 1.91 0 3.39.57 4.43 1.73 1.05 1.15 1.57 2.78 1.57 4.88Zm-9.81 0c0 1.58.32 2.78.96 3.6.64.82 1.58 1.22 2.84 1.22 1.24 0 2.18-.4 2.82-1.21.64-.8.96-2.01.96-3.61 0-1.58-.32-2.77-.95-3.59-.63-.81-1.57-1.22-2.82-1.22-1.26 0-2.21.4-2.85 1.22-.64.82-.96 2.01-.96 3.59Zm19.2 6.44-.29-1.27h-.1c-.29.45-.7.8-1.23 1.06s-1.13.39-1.81.39c-1.18 0-2.06-.3-2.64-.88-.58-.59-.87-1.48-.87-2.67v-6.35h2.08v6c0 .74.16 1.3.46 1.67.3.37.78.56 1.43.56.87 0 1.51-.26 1.91-.78.41-.52.62-1.39.62-2.6v-4.85h2.07V297h-1.63Zm8.19-1.5a5 5 0 0 0 1.52-.23v1.55a5.75 5.75 0 0 1-2.01.35c-1.95 0-2.93-1.03-2.93-3.09v-5.24h-1.33v-.91l1.42-.76.71-2.05h1.27v2.16h2.77v1.56h-2.77v5.2c0 .5.12.87.37 1.11.25.24.58.36.98.36Zm9.55 1.5-.41-1.35h-.07a4 4 0 0 1-1.42 1.2 4.5 4.5 0 0 1-1.83.33 3.1 3.1 0 0 1-2.24-.78 2.91 2.91 0 0 1-.8-2.19c0-1 .37-1.75 1.12-2.26.74-.51 1.88-.8 3.4-.84l1.68-.05v-.52c0-.62-.15-1.08-.44-1.39-.29-.3-.74-.46-1.35-.46-.49 0-.97.07-1.43.21-.46.15-.89.33-1.32.52l-.66-1.47a7.8 7.8 0 0 1 3.5-.84c1.24 0 2.17.26 2.8.8.63.54.95 1.39.95 2.54V297h-1.48Zm-3.08-1.4c.75 0 1.35-.21 1.81-.63a2.3 2.3 0 0 0 .68-1.77v-.84l-1.25.05c-.97.04-1.68.2-2.12.5-.44.28-.66.72-.66 1.32 0 .44.13.77.38 1.01.26.24.65.35 1.16.35Zm15.65-8.32v1.13l-1.66.31a2.97 2.97 0 0 1 .52 1.7c0 1-.34 1.8-1.03 2.37-.69.57-1.65.86-2.86.86-.31 0-.59-.02-.84-.07-.45.28-.67.6-.67.97 0 .22.1.39.31.5.21.11.59.17 1.15.17h1.69c1.08 0 1.89.22 2.45.68.55.46.83 1.12.83 1.98 0 1.1-.45 1.95-1.36 2.55-.91.6-2.22.9-3.94.9a5.44 5.44 0 0 1-3.03-.7 2.27 2.27 0 0 1-1.05-2.01c0-.6.19-1.1.57-1.51.38-.4.91-.69 1.59-.85a1.5 1.5 0 0 1-.95-1.39c0-.36.1-.67.31-.92.2-.25.51-.5.91-.75a2.7 2.7 0 0 1-1.23-1.05 3.16 3.16 0 0 1-.47-1.72 3.1 3.1 0 0 1 1-2.46 4.2 4.2 0 0 1 2.85-.87 6.4 6.4 0 0 1 1.54.18h3.37Zm-7.64 11.23c0 .45.2.79.6 1.03.4.24.97.36 1.69.36 1.13 0 1.97-.16 2.52-.48.55-.32.82-.75.82-1.29 0-.42-.15-.72-.45-.9a3.6 3.6 0 0 0-1.68-.27h-1.57a2.2 2.2 0 0 0-1.41.42c-.35.28-.52.66-.52 1.13Zm.89-8.08c0 .6.15 1.07.46 1.4.32.33.77.5 1.36.5 1.19 0 1.79-.64 1.79-1.92 0-.64-.15-1.12-.45-1.46-.29-.35-.74-.52-1.34-.52-.6 0-1.05.17-1.36.51-.31.34-.46.83-.46 1.49Zm12.8 6.75a4.73 4.73 0 0 1-3.55-1.32 5.04 5.04 0 0 1-1.27-3.65c0-1.59.39-2.84 1.19-3.74a4.09 4.09 0 0 1 3.26-1.37c1.28 0 2.29.4 3.04 1.17a4.48 4.48 0 0 1 1.11 3.22v1.12h-6.47c.02.94.28 1.66.76 2.18.48.5 1.16.75 2.03.75a7.68 7.68 0 0 0 3.2-.7v1.68c-.5.24-1.01.4-1.53.5-.52.1-1.1.16-1.77.16Zm-.37-8.51c-.66 0-1.19.2-1.59.62a3.03 3.03 0 0 0-.7 1.82h4.41c-.01-.8-.2-1.4-.58-1.82a1.96 1.96 0 0 0-1.54-.62Zm13.03 5.56c0 .95-.35 1.68-1.04 2.19a5 5 0 0 1-2.97.76c-1.29 0-2.33-.2-3.12-.6v-1.78c1.14.53 2.21.8 3.19.8 1.27 0 1.91-.39 1.91-1.16a.91.91 0 0 0-.21-.61 2.42 2.42 0 0 0-.7-.51c-.32-.18-.77-.38-1.34-.6a6.3 6.3 0 0 1-2.28-1.3c-.39-.44-.59-1-.59-1.69 0-.83.34-1.48 1.01-1.93a4.7 4.7 0 0 1 2.74-.7c1.14 0 2.22.23 3.24.7l-.67 1.55a7.17 7.17 0 0 0-2.64-.65c-1.09 0-1.64.31-1.64.94 0 .3.14.56.43.77.28.2.9.5 1.86.87.8.3 1.38.6 1.75.85.36.26.63.56.81.9.17.33.26.73.26 1.2Zm13 2.77-.41-1.35h-.07a4 4 0 0 1-1.42 1.2 4.5 4.5 0 0 1-1.83.33 3.1 3.1 0 0 1-2.24-.78 2.91 2.91 0 0 1-.8-2.19c0-1 .37-1.75 1.12-2.26.74-.51 1.88-.8 3.4-.84l1.68-.05v-.52c0-.62-.15-1.08-.44-1.39-.29-.3-.74-.46-1.35-.46-.49 0-.97.07-1.43.21-.46.15-.9.33-1.32.52l-.67-1.47a7.15 7.15 0 0 1 1.74-.63 7.73 7.73 0 0 1 1.77-.22c1.24 0 2.17.27 2.8.81.63.54.95 1.39.95 2.54V297h-1.48Zm-3.08-1.4c.75 0 1.35-.21 1.8-.63.46-.42.69-1.01.69-1.77v-.84l-1.25.05c-.97.04-1.68.2-2.12.5-.44.28-.66.72-.66 1.32 0 .44.12.77.38 1.01s.65.35 1.16.35Zm11.06-.1c.5 0 1.01-.07 1.51-.23v1.55a5.65 5.65 0 0 1-2 .35c-1.96 0-2.94-1.03-2.94-3.09v-5.24h-1.33v-.91l1.43-.76.7-2.05h1.28v2.16h2.76v1.56h-2.76v5.2c0 .5.12.87.37 1.11.25.24.58.36.98.36Zm13.61-5.47h4.73v6.45a13.72 13.72 0 0 1-4.53.7c-1.95 0-3.45-.58-4.5-1.73-1.06-1.15-1.58-2.78-1.58-4.88 0-2.06.59-3.68 1.78-4.85 1.19-1.17 2.83-1.75 4.91-1.75a9.6 9.6 0 0 1 3.82.77l-.74 1.75a7.43 7.43 0 0 0-3.13-.72 4.2 4.2 0 0 0-3.25 1.29c-.8.86-1.2 2.04-1.2 3.53 0 1.57.36 2.77 1.07 3.59a3.96 3.96 0 0 0 3.11 1.22c.68 0 1.4-.08 2.18-.25v-3.32h-2.67v-1.8Zm16.23 2.1c0 1.58-.41 2.82-1.22 3.71a4.39 4.39 0 0 1-3.4 1.34c-.91 0-1.72-.2-2.41-.62-.7-.41-1.24-1-1.61-1.77a5.95 5.95 0 0 1-.56-2.67c0-1.57.4-2.8 1.21-3.69a4.4 4.4 0 0 1 3.42-1.33c1.4 0 2.52.46 3.34 1.37.82.9 1.23 2.12 1.23 3.65Zm-7.08 0c0 2.24.83 3.36 2.49 3.36 1.64 0 2.46-1.12 2.46-3.37 0-2.22-.82-3.33-2.48-3.33-.86 0-1.49.29-1.89.86-.38.58-.58 1.4-.58 2.47Zm18.08 0c0 1.58-.4 2.82-1.22 3.71a4.37 4.37 0 0 1-3.4 1.34c-.91 0-1.71-.2-2.41-.62-.7-.41-1.23-1-1.61-1.77a6.09 6.09 0 0 1-.56-2.67c0-1.57.4-2.8 1.21-3.69a4.4 4.4 0 0 1 3.42-1.33c1.41 0 2.52.46 3.34 1.37.82.9 1.23 2.12 1.23 3.65Zm-7.07 0c0 2.24.83 3.36 2.48 3.36s2.47-1.12 2.47-3.37c0-2.22-.83-3.33-2.48-3.33-.87 0-1.5.29-1.89.86a4.4 4.4 0 0 0-.58 2.47Zm17.66-4.85v1.13l-1.66.31a2.97 2.97 0 0 1 .53 1.7c0 1-.35 1.8-1.04 2.37-.69.57-1.64.86-2.85.86-.31 0-.6-.02-.85-.07-.44.28-.67.6-.67.97 0 .22.11.39.31.5.21.11.6.17 1.15.17h1.7c1.07 0 1.89.22 2.44.68.56.46.84 1.12.84 1.98a2.9 2.9 0 0 1-1.36 2.55c-.91.6-2.23.9-3.94.9a5.4 5.4 0 0 1-3.03-.7 2.27 2.27 0 0 1-1.05-2.01c0-.6.19-1.1.56-1.51.38-.4.91-.69 1.59-.85a1.6 1.6 0 0 1-.95-1.39c0-.36.11-.67.31-.92.21-.25.51-.5.92-.75a2.67 2.67 0 0 1-1.23-1.05 3.08 3.08 0 0 1-.47-1.72c0-1.06.33-1.88.99-2.46a4.22 4.22 0 0 1 2.85-.87 6.28 6.28 0 0 1 1.55.18h3.36Zm-7.63 11.23c0 .45.19.79.59 1.03.41.24.97.36 1.7.36 1.12 0 1.96-.16 2.51-.48.55-.32.83-.75.83-1.29 0-.42-.15-.72-.46-.9a3.6 3.6 0 0 0-1.68-.27h-1.56c-.59 0-1.06.14-1.42.42a1.4 1.4 0 0 0-.51 1.13Zm.88-8.08c0 .6.16 1.07.47 1.4.32.33.77.5 1.35.5 1.2 0 1.8-.64 1.8-1.92 0-.64-.15-1.12-.45-1.46-.3-.35-.74-.52-1.35-.52-.6 0-1.05.17-1.36.51-.3.34-.46.83-.46 1.49Zm10.63 6.57h-2.07v-13.68h2.07V297Zm7.21.18a4.7 4.7 0 0 1-3.55-1.32 5.05 5.05 0 0 1-1.28-3.65c0-1.59.4-2.84 1.19-3.74a4.1 4.1 0 0 1 3.26-1.37 4 4 0 0 1 3.04 1.17 4.49 4.49 0 0 1 1.12 3.22v1.12h-6.48c.03.94.28 1.66.76 2.18.48.5 1.16.75 2.03.75a7.61 7.61 0 0 0 3.2-.7v1.68c-.5.24-1.01.4-1.53.5-.51.1-1.1.16-1.76.16Zm-.38-8.51c-.66 0-1.19.2-1.58.62-.4.42-.63 1.02-.71 1.82h4.42c-.02-.8-.21-1.4-.58-1.82a2 2 0 0 0-1.55-.62Zm19.8 3.45c0 1.59-.41 2.83-1.22 3.72a4.39 4.39 0 0 1-3.4 1.34c-.91 0-1.71-.2-2.41-.62-.7-.41-1.23-1-1.61-1.77a6.09 6.09 0 0 1-.56-2.67c0-1.57.4-2.8 1.21-3.69a4.4 4.4 0 0 1 3.42-1.33c1.41 0 2.52.46 3.34 1.37.82.9 1.23 2.12 1.23 3.65Zm-7.08 0c0 2.25.83 3.37 2.49 3.37 1.64 0 2.46-1.12 2.46-3.37 0-2.22-.82-3.33-2.48-3.33-.86 0-1.49.29-1.89.86-.38.58-.58 1.4-.58 2.47Zm14.39-5.02c.42 0 .76.03 1.03.1l-.2 1.92c-.29-.07-.6-.1-.92-.1-.82 0-1.49.26-2.01.8a2.93 2.93 0 0 0-.76 2.1V297h-2.07v-9.72h1.62l.27 1.71h.11c.32-.58.74-1.04 1.25-1.38.53-.34 1.08-.5 1.68-.5Zm13.29 9.9-3.72-10.73h-.08a72 72 0 0 1 .15 4.48V297h-1.9v-12.85h2.96l3.57 10.22h.05l3.67-10.22h2.97V297h-2.02v-6.35a92.2 92.2 0 0 1 .13-4.36h-.07l-3.85 10.71h-1.86Zm12.9 0h-2.06v-9.72h2.06V297Zm-2.18-12.3c0-.37.1-.65.29-.85.21-.2.5-.3.87-.3s.65.1.85.3c.2.2.31.48.31.85 0 .36-.11.63-.31.84-.2.2-.48.3-.85.3s-.66-.1-.87-.3c-.19-.2-.29-.48-.29-.84Zm9.07 12.48c-1.47 0-2.59-.43-3.36-1.29-.76-.86-1.14-2.1-1.14-3.7 0-1.63.39-2.89 1.19-3.77.8-.88 1.96-1.32 3.47-1.32 1.03 0 1.95.2 2.77.57l-.62 1.67a6.32 6.32 0 0 0-2.16-.51c-1.69 0-2.53 1.11-2.53 3.35 0 1.08.21 1.9.63 2.46.42.54 1.03.81 1.84.81.92 0 1.79-.22 2.61-.68v1.8c-.37.22-.76.37-1.18.47-.42.09-.93.14-1.52.14Zm9.92-10.08c.41 0 .76.03 1.03.1l-.21 1.92c-.29-.07-.59-.1-.91-.1-.83 0-1.5.26-2.01.8a2.94 2.94 0 0 0-.77 2.1V297h-2.06v-9.72h1.62l.27 1.71h.1a3.9 3.9 0 0 1 1.26-1.38 3 3 0 0 1 1.68-.5Zm11.46 5.02c0 1.59-.41 2.83-1.22 3.72a4.39 4.39 0 0 1-3.4 1.34c-.91 0-1.71-.2-2.41-.62-.7-.41-1.24-1-1.61-1.77a5.95 5.95 0 0 1-.56-2.67c0-1.57.4-2.8 1.21-3.69a4.4 4.4 0 0 1 3.42-1.33c1.41 0 2.52.46 3.34 1.37.82.9 1.23 2.12 1.23 3.65Zm-7.08 0c0 2.25.83 3.37 2.49 3.37 1.64 0 2.46-1.12 2.46-3.37 0-2.22-.82-3.33-2.48-3.33-.86 0-1.49.29-1.89.86-.38.58-.58 1.4-.58 2.47Zm15.99 2.11c0 .95-.34 1.68-1.04 2.19a5 5 0 0 1-2.97.76c-1.29 0-2.33-.2-3.12-.6v-1.78a7.7 7.7 0 0 0 3.19.8c1.28 0 1.91-.39 1.91-1.16a.91.91 0 0 0-.21-.61 2.5 2.5 0 0 0-.69-.51 12.3 12.3 0 0 0-1.35-.6 6.15 6.15 0 0 1-2.27-1.3c-.4-.44-.59-1-.59-1.69 0-.83.33-1.48 1-1.93.67-.47 1.59-.7 2.74-.7 1.14 0 2.22.23 3.24.7l-.66 1.55a7.25 7.25 0 0 0-2.65-.65c-1.09 0-1.63.31-1.63.94 0 .3.14.56.42.77.28.2.91.5 1.86.87.8.3 1.39.6 1.75.85.36.26.63.56.81.9.17.33.26.73.26 1.2Zm10.86-2.1c0 1.58-.4 2.82-1.22 3.71a4.36 4.36 0 0 1-3.4 1.34c-.91 0-1.71-.2-2.41-.62-.69-.41-1.23-1-1.6-1.77a5.95 5.95 0 0 1-.57-2.67c0-1.57.41-2.8 1.22-3.69a4.37 4.37 0 0 1 3.41-1.33c1.41 0 2.52.46 3.34 1.37.82.9 1.23 2.12 1.23 3.65Zm-7.07 0c0 2.24.83 3.36 2.49 3.36 1.64 0 2.46-1.12 2.46-3.37 0-2.22-.83-3.33-2.48-3.33-.87 0-1.5.29-1.89.86a4.4 4.4 0 0 0-.58 2.47Zm14.33-3.29h-2.37V297h-2.07v-8.16h-1.6v-.96l1.6-.64v-.63c0-1.15.27-2 .81-2.55.54-.55 1.36-.83 2.47-.83.72 0 1.44.12 2.14.36l-.54 1.56a4.9 4.9 0 0 0-1.46-.24c-.47 0-.82.14-1.03.44a2.2 2.2 0 0 0-.32 1.3v.63h2.37v1.56Zm5.29 6.67a5 5 0 0 0 1.51-.24v1.55a5.75 5.75 0 0 1-2.01.35c-1.95 0-2.93-1.03-2.93-3.09v-5.24h-1.33v-.91l1.43-.76.7-2.05h1.27v2.16h2.77v1.56h-2.77v5.2c0 .5.13.87.37 1.11.25.24.58.36.99.36Z"/><path fill="#fff" d="M1074.32 66.03h-2.83V71h-6.86v-4.97h-10.25v-5.1l10.69-15.63h6.42v15.54h2.83v5.19Zm-9.69-5.19v-2.99a56.7 56.7 0 0 1 .16-3.78h-.19c-.4.9-.85 1.75-1.36 2.53l-2.84 4.24h4.23Zm16.17-7.8c0 1.34.12 2.32.34 2.91.22.6.56.9 1 .9.45 0 .77-.3.98-.88.23-.59.34-1.56.34-2.93 0-1.35-.11-2.33-.34-2.92-.21-.6-.53-.9-.98-.9-.46 0-.8.3-1.02.91a9.65 9.65 0 0 0-.32 2.9Zm7.97-.08c0 2.58-.58 4.58-1.74 6-1.16 1.4-2.82 2.1-4.96 2.1a5.87 5.87 0 0 1-4.8-2.17c-1.17-1.47-1.76-3.44-1.76-5.93 0-2.57.58-4.55 1.73-5.94 1.14-1.4 2.76-2.09 4.83-2.09 2.05 0 3.68.72 4.89 2.16 1.2 1.45 1.81 3.4 1.81 5.87Zm12.81-7.66L1087.33 71h-5.22l14.25-25.7h5.22Zm-1.23 17.97c0 1.34.11 2.32.34 2.91.22.6.55.9 1 .9.5 0 .85-.34 1.03-1.02.2-.7.3-1.62.3-2.8 0-1.17-.1-2.1-.3-2.77-.18-.7-.53-1.04-1.03-1.04-.46 0-.8.3-1.02.92-.21.6-.32 1.57-.32 2.9Zm7.96-.07c0 2.56-.58 4.55-1.75 5.97-1.16 1.4-2.81 2.11-4.94 2.11a5.86 5.86 0 0 1-4.8-2.18c-1.17-1.46-1.76-3.43-1.76-5.9 0-2.58.57-4.56 1.72-5.95 1.15-1.4 2.76-2.09 4.84-2.09 2.05 0 3.68.72 4.88 2.16 1.21 1.45 1.81 3.4 1.81 5.88Zm-66.32 64.8h-18.65v-4.57l6.28-6.35a78.8 78.8 0 0 0 3.51-3.83c.55-.69.93-1.28 1.15-1.77.22-.5.33-1.01.33-1.55a2 2 0 0 0-.65-1.58 2.64 2.64 0 0 0-1.83-.58c-.81 0-1.63.23-2.46.7-.82.46-1.75 1.14-2.79 2.04l-3.82-4.47a20 20 0 0 1 3.34-2.53c.9-.51 1.88-.9 2.94-1.17 1.06-.27 2.26-.4 3.58-.4 1.67 0 3.15.28 4.45.87a6.86 6.86 0 0 1 3.04 2.51 6.34 6.34 0 0 1 1.09 3.64 9.58 9.58 0 0 1-1.55 5.33c-.52.82-1.23 1.69-2.11 2.6-.86.92-2.72 2.65-5.57 5.2v.18h9.72V128Zm2.89-2.92c0-1.08.31-1.9.94-2.5.65-.58 1.58-.87 2.8-.87 1.16 0 2.05.29 2.67.88.62.58.93 1.41.93 2.5 0 1.05-.32 1.87-.96 2.47-.64.59-1.52.88-2.64.88a4 4 0 0 1-2.74-.88c-.67-.59-1-1.41-1-2.48Zm20.56-13.92c1.48 0 2.81.35 3.99 1.04a6.98 6.98 0 0 1 2.78 2.9c.67 1.25 1 2.7 1 4.34 0 2.87-.87 5.07-2.6 6.6-1.72 1.54-4.34 2.31-7.84 2.31-3 0-5.45-.46-7.35-1.39v-5.7a18.62 18.62 0 0 0 6.77 1.63 4.8 4.8 0 0 0 2.97-.81c.69-.55 1.04-1.36 1.04-2.43 0-.98-.35-1.75-1.06-2.3-.7-.55-1.77-.83-3.2-.83-1.09 0-2.26.2-3.53.62l-2.55-1.27.97-13.57h14.66v5.78h-8.76l-.31 3.4a14.12 14.12 0 0 1 3.02-.32Zm15.36-1.13c0 1.35.12 2.33.34 2.92.22.6.56.9 1 .9.45 0 .77-.3.98-.88.23-.58.34-1.56.34-2.94 0-1.34-.11-2.31-.34-2.91-.21-.6-.53-.9-.98-.9-.46 0-.8.3-1.02.92-.21.6-.32 1.57-.32 2.9Zm7.97-.06c0 2.57-.58 4.57-1.74 5.99-1.16 1.4-2.82 2.1-4.96 2.1a5.87 5.87 0 0 1-4.8-2.17c-1.17-1.47-1.76-3.44-1.76-5.92 0-2.58.58-4.56 1.73-5.95 1.14-1.4 2.76-2.09 4.83-2.09 2.05 0 3.68.72 4.89 2.16 1.2 1.44 1.81 3.4 1.81 5.88Zm12.81-7.67-14.25 25.7h-5.22l14.25-25.7h5.22Zm-1.23 17.97c0 1.34.11 2.32.34 2.91.22.6.55.9 1 .9.5 0 .85-.34 1.03-1.02.2-.7.3-1.62.3-2.8 0-1.17-.1-2.1-.3-2.77-.18-.7-.53-1.04-1.03-1.04-.46 0-.8.3-1.02.91a9.64 9.64 0 0 0-.32 2.9Zm7.96-.08c0 2.57-.58 4.56-1.75 5.98-1.16 1.4-2.81 2.11-4.94 2.11a5.86 5.86 0 0 1-4.8-2.18c-1.17-1.46-1.76-3.43-1.76-5.9 0-2.58.57-4.56 1.72-5.95 1.15-1.4 2.76-2.09 4.84-2.09 2.05 0 3.68.72 4.88 2.16 1.21 1.45 1.81 3.4 1.81 5.88ZM1041.99 185h-18.65v-4.57l6.28-6.35a78.8 78.8 0 0 0 3.51-3.83c.55-.69.93-1.28 1.15-1.77.22-.5.33-1.01.33-1.55a2 2 0 0 0-.65-1.58 2.64 2.64 0 0 0-1.83-.58c-.81 0-1.63.23-2.46.7-.82.46-1.75 1.14-2.79 2.04l-3.82-4.47a20 20 0 0 1 3.34-2.53c.9-.51 1.88-.9 2.94-1.17 1.06-.27 2.26-.4 3.58-.4 1.67 0 3.15.28 4.45.87a6.86 6.86 0 0 1 3.04 2.51 6.34 6.34 0 0 1 1.09 3.64 9.58 9.58 0 0 1-1.55 5.33c-.52.82-1.23 1.69-2.11 2.6-.86.92-2.72 2.65-5.57 5.2v.18h9.72V185Zm2.89-2.92c0-1.08.31-1.9.94-2.5.65-.58 1.58-.87 2.8-.87 1.16 0 2.05.29 2.67.88.62.58.93 1.41.93 2.5 0 1.05-.32 1.87-.96 2.47-.64.59-1.52.88-2.64.88a4 4 0 0 1-2.74-.88c-.67-.59-1-1.41-1-2.48Zm20.56-13.92c1.48 0 2.81.35 3.99 1.04a6.98 6.98 0 0 1 2.78 2.9c.67 1.25 1 2.7 1 4.34 0 2.87-.87 5.07-2.6 6.6-1.72 1.54-4.34 2.31-7.84 2.31-3 0-5.45-.46-7.35-1.39v-5.7a18.62 18.62 0 0 0 6.77 1.63c1.29 0 2.28-.27 2.97-.81.69-.56 1.04-1.36 1.04-2.43 0-.98-.35-1.75-1.06-2.3-.7-.55-1.77-.83-3.2-.83-1.09 0-2.26.2-3.53.62l-2.55-1.27.97-13.57h14.66v5.78h-8.76l-.31 3.4a14.12 14.12 0 0 1 3.02-.32Zm15.36-1.13c0 1.35.12 2.32.34 2.92.22.6.56.9 1 .9.45 0 .77-.3.98-.88.23-.59.34-1.56.34-2.94 0-1.34-.11-2.31-.34-2.91-.21-.6-.53-.9-.98-.9-.46 0-.8.3-1.02.91a9.65 9.65 0 0 0-.32 2.9Zm7.97-.06c0 2.57-.58 4.57-1.74 5.99-1.16 1.4-2.82 2.1-4.96 2.1a5.87 5.87 0 0 1-4.8-2.17c-1.17-1.47-1.76-3.44-1.76-5.92 0-2.58.58-4.56 1.73-5.95 1.14-1.4 2.76-2.09 4.83-2.09 2.05 0 3.68.72 4.89 2.16 1.2 1.44 1.81 3.4 1.81 5.88Zm12.81-7.67-14.25 25.7h-5.22l14.25-25.7h5.22Zm-1.23 17.97c0 1.34.11 2.32.34 2.91.22.6.55.9 1 .9.5 0 .85-.34 1.03-1.02.2-.7.3-1.62.3-2.8 0-1.17-.1-2.1-.3-2.77-.18-.7-.53-1.04-1.03-1.04-.46 0-.8.3-1.02.92a9.64 9.64 0 0 0-.32 2.9Zm7.96-.08c0 2.57-.58 4.56-1.75 5.98-1.16 1.4-2.81 2.11-4.94 2.11a5.86 5.86 0 0 1-4.8-2.18c-1.17-1.46-1.76-3.43-1.76-5.9 0-2.58.57-4.56 1.72-5.95 1.15-1.4 2.76-2.09 4.84-2.09 2.05 0 3.68.72 4.88 2.16 1.21 1.45 1.81 3.4 1.81 5.88ZM1073.49 242h-18.65v-4.57l6.28-6.35a78.8 78.8 0 0 0 3.51-3.83c.55-.69.93-1.28 1.15-1.77.22-.5.33-1.01.33-1.55a2 2 0 0 0-.65-1.58 2.64 2.64 0 0 0-1.83-.58c-.81 0-1.63.23-2.46.7-.82.46-1.75 1.14-2.79 2.04l-3.82-4.47a20 20 0 0 1 3.34-2.53c.9-.51 1.88-.9 2.94-1.17 1.06-.27 2.26-.4 3.58-.4 1.67 0 3.15.28 4.45.87a6.86 6.86 0 0 1 3.04 2.51 6.34 6.34 0 0 1 1.09 3.64 9.58 9.58 0 0 1-1.55 5.33c-.52.82-1.23 1.69-2.11 2.6-.86.92-2.72 2.65-5.57 5.2v.18h9.72V242Zm7.31-17.97c0 1.35.12 2.32.34 2.92.22.6.56.9 1 .9.45 0 .77-.3.98-.88.23-.59.34-1.56.34-2.94 0-1.34-.11-2.31-.34-2.91-.21-.6-.53-.9-.98-.9-.46 0-.8.3-1.02.91a9.65 9.65 0 0 0-.32 2.9Zm7.97-.06c0 2.57-.58 4.57-1.74 5.99-1.16 1.4-2.82 2.1-4.96 2.1a5.87 5.87 0 0 1-4.8-2.17c-1.17-1.47-1.76-3.44-1.76-5.92 0-2.58.58-4.56 1.73-5.95 1.14-1.4 2.76-2.09 4.83-2.09 2.05 0 3.68.72 4.89 2.16 1.2 1.44 1.81 3.4 1.81 5.88Zm12.81-7.67-14.25 25.7h-5.22l14.25-25.7h5.22Zm-1.23 17.97c0 1.34.11 2.32.34 2.91.22.6.55.9 1 .9.5 0 .85-.34 1.03-1.02.2-.7.3-1.62.3-2.8 0-1.17-.1-2.1-.3-2.77-.18-.7-.53-1.04-1.03-1.04-.46 0-.8.3-1.02.92a9.64 9.64 0 0 0-.32 2.9Zm7.96-.08c0 2.57-.58 4.56-1.75 5.98-1.16 1.4-2.81 2.11-4.94 2.11a5.86 5.86 0 0 1-4.8-2.18c-1.17-1.46-1.76-3.43-1.76-5.9 0-2.58.57-4.56 1.72-5.95 1.15-1.4 2.76-2.09 4.84-2.09 2.05 0 3.68.72 4.88 2.16 1.21 1.45 1.81 3.4 1.81 5.88ZM1038.83 299h-7.05v-13.6c0-1.66.03-3.17.1-4.54-.43.53-.97 1.08-1.61 1.65l-2.92 2.41-3.6-4.43 8.82-7.19h6.26V299Zm6.05-2.92c0-1.08.31-1.9.94-2.5.65-.58 1.58-.87 2.8-.87 1.16 0 2.05.29 2.67.88.62.58.93 1.41.93 2.5 0 1.05-.32 1.87-.96 2.47-.64.59-1.52.88-2.64.88a4 4 0 0 1-2.74-.88c-.67-.58-1-1.41-1-2.48Zm20.56-13.92c1.48 0 2.81.35 3.99 1.04a6.98 6.98 0 0 1 2.78 2.9c.67 1.25 1 2.7 1 4.34 0 2.87-.87 5.07-2.6 6.6-1.72 1.54-4.34 2.31-7.84 2.31-3 0-5.45-.46-7.35-1.39v-5.7a18.62 18.62 0 0 0 6.77 1.63c1.29 0 2.28-.27 2.97-.81.69-.56 1.04-1.36 1.04-2.43 0-.98-.35-1.75-1.06-2.3-.7-.55-1.77-.83-3.2-.83-1.09 0-2.26.2-3.53.62l-2.55-1.27.97-13.57h14.66v5.78h-8.76l-.31 3.4a14.12 14.12 0 0 1 3.02-.32Zm15.36-1.13c0 1.35.12 2.33.34 2.92.22.6.56.9 1 .9.45 0 .77-.3.98-.88.23-.59.34-1.56.34-2.94 0-1.34-.11-2.31-.34-2.91-.21-.6-.53-.9-.98-.9-.46 0-.8.3-1.02.91a9.65 9.65 0 0 0-.32 2.9Zm7.97-.06c0 2.57-.58 4.57-1.74 5.99-1.16 1.4-2.82 2.1-4.96 2.1a5.87 5.87 0 0 1-4.8-2.17c-1.17-1.47-1.76-3.44-1.76-5.93 0-2.57.58-4.55 1.73-5.94 1.14-1.4 2.76-2.09 4.83-2.09 2.05 0 3.68.72 4.89 2.16 1.2 1.45 1.81 3.4 1.81 5.88Zm12.81-7.67-14.25 25.7h-5.22l14.25-25.7h5.22Zm-1.23 17.97c0 1.34.11 2.32.34 2.91.22.6.55.9 1 .9.5 0 .85-.34 1.03-1.02.2-.7.3-1.62.3-2.8 0-1.17-.1-2.1-.3-2.77-.18-.7-.53-1.04-1.03-1.04-.46 0-.8.3-1.02.92a9.64 9.64 0 0 0-.32 2.9Zm7.96-.07c0 2.56-.58 4.55-1.75 5.97-1.16 1.4-2.81 2.11-4.94 2.11a5.86 5.86 0 0 1-4.8-2.18c-1.17-1.46-1.76-3.43-1.76-5.9 0-2.58.57-4.56 1.72-5.95 1.15-1.4 2.76-2.09 4.84-2.09 2.05 0 3.68.72 4.88 2.16 1.21 1.45 1.81 3.4 1.81 5.88Z"/></svg>