<svg xmlns="http://www.w3.org/2000/svg" xmlns:xlink="http://www.w3.org/1999/xlink" fill="none" viewBox="0 0 356 267"><defs><path id="reuse-0" fill="#000" d="M263.86 17.43h-2.31a3.73 3.73 0 0 0 3.4 2.15V18.5a1.08 1.08 0 0 0-1.08-1.07Z" opacity=".2"/></defs><path fill="#5F6368" d="M105.51 110.73h2.14l-4.21 15.82h-2.14l-3.42-10.44h-.06l-3.42 10.44h-2.07l-4.42-15.82h2.14l3.35 12.43h.06l3.49-10.3h1.87l3.41 10.3h.14l3.14-12.43ZM107.45 121.17a5.55 5.55 0 0 1 1.61-4.13 5.27 5.27 0 0 1 4.02-1.66 5.05 5.05 0 0 1 3.95 1.66 5.57 5.57 0 0 1 1.6 4.13 5.54 5.54 0 0 1-3.4 5.33c-.69.28-1.42.4-2.15.38a5.47 5.47 0 0 1-5.63-5.71Zm2.08 0a3.97 3.97 0 0 0 1 2.79 3.21 3.21 0 0 0 2.55 1.06 3.42 3.42 0 0 0 2.54-1.06 3.97 3.97 0 0 0 1-2.8 3.8 3.8 0 0 0-2.15-3.61 3.5 3.5 0 0 0-2.79-.02 3.78 3.78 0 0 0-2.15 3.63M122.11 126.55h-2v-10.83h1.94v1.79h.06c.25-.62.7-1.13 1.28-1.46a3.7 3.7 0 0 1 3.4-.33l-.6 1.92-1.2-.13a2.63 2.63 0 0 0-2 .93 2.94 2.94 0 0 0-.88 2.13v5.98ZM137.3 126.55h-2.47l-3.35-5.12-1.67 1.66v3.46h-2.07v-15.82h2.07v9.7l4.69-4.72h2.6v.14l-4.21 4.19 4.42 6.38v.13Z"/><path fill="#5F6368" d="M146.14 123.56a2.97 2.97 0 0 1-1.2 2.4c-.93.63-2.03.95-3.15.92a4.85 4.85 0 0 1-4.62-3.06l1.81-.8a2.99 2.99 0 0 0 2.81 2.07c.56.02 1.12-.12 1.6-.4a1.13 1.13 0 0 0 .68-1c0-.73-.54-1.2-1.6-1.53l-1.88-.46c-2.08-.53-3.15-1.6-3.15-3.06a2.64 2.64 0 0 1 1.2-2.33c.9-.64 1.98-.97 3.09-.93.91-.03 1.82.2 2.6.67a3.8 3.8 0 0 1 1.68 1.86l-1.88.73a1.93 1.93 0 0 0-1-1.06c-.46-.3-1-.44-1.54-.4-.5-.01-.99.13-1.4.4a1.14 1.14 0 0 0-.67.93c0 .66.6 1.06 1.74 1.33l1.67.46c2.14.53 3.21 1.6 3.21 3.26M153.24 126.88a4.18 4.18 0 0 1-2.21-.53c-.6-.3-1.12-.76-1.47-1.33h-.14l.14 1.53v4.79h-2.08V115.7h1.94v1.53h.14c.37-.55.88-1.01 1.47-1.33a4.93 4.93 0 0 1 5.89 1.13 6.22 6.22 0 0 1 0 8.18 4.74 4.74 0 0 1-3.68 1.66Zm-.34-1.86a3.17 3.17 0 0 0 2.48-1.06 4.37 4.37 0 0 0 0-5.59 3.28 3.28 0 0 0-4.95 0 4.37 4.37 0 0 0 0 5.59 3.26 3.26 0 0 0 2.47 1.06M164.01 115.38a5.1 5.1 0 0 1 3.55 1.2 4.25 4.25 0 0 1 1.34 3.32v6.65h-1.94v-1.53h-.13a3.74 3.74 0 0 1-3.35 1.86 4.64 4.64 0 0 1-3.01-1.06 3.33 3.33 0 0 1-1.2-2.66 3.31 3.31 0 0 1 1.26-2.66 6.59 6.59 0 0 1 6.36-.33v-.47a2.26 2.26 0 0 0-.8-1.8c-.52-.5-1.22-.78-1.94-.79a3.3 3.3 0 0 0-2.75 1.46l-1.8-1.13a5.2 5.2 0 0 1 4.41-2.06Zm-2.6 7.85a1.52 1.52 0 0 0 .66 1.33c.44.34.98.53 1.54.53.87-.01 1.7-.34 2.35-.93.61-.6.97-1.41 1-2.26a4.58 4.58 0 0 0-2.68-.73 3.37 3.37 0 0 0-2.07.6 1.61 1.61 0 0 0-.8 1.46M175.8 126.88a5.25 5.25 0 0 1-3.95-1.6 5.83 5.83 0 0 1-1.61-4.11 5.55 5.55 0 0 1 1.6-4.13 5.03 5.03 0 0 1 3.95-1.66 4.98 4.98 0 0 1 4.76 3.13l-1.81.73a3.13 3.13 0 0 0-3.08-2 3.24 3.24 0 0 0-2.4 1.13 3.91 3.91 0 0 0-1.01 2.73 3.98 3.98 0 0 0 1 2.8 3.22 3.22 0 0 0 2.41 1.12 3.17 3.17 0 0 0 3.15-2.06l1.8.8a5.13 5.13 0 0 1-4.82 3.12M186.77 126.88a5.06 5.06 0 0 1-3.88-1.6 5.7 5.7 0 0 1-1.6-4.11c-.05-1.53.5-3 1.53-4.13a4.9 4.9 0 0 1 3.89-1.66 5.04 5.04 0 0 1 3.81 1.53 6.41 6.41 0 0 1 1.47 4.39v.2h-8.56a3.3 3.3 0 0 0 1.07 2.59 3.2 3.2 0 0 0 2.4.93 3.37 3.37 0 0 0 3.09-1.93l1.8.93c-.49.88-1.2 1.62-2.07 2.13-.9.49-1.92.74-2.95.73Zm-3.21-7.04h6.22a2.79 2.79 0 0 0-.93-1.87 2.95 2.95 0 0 0-2.21-.73c-.73-.03-1.45.2-2 .67-.58.5-.96 1.18-1.08 1.93"/><path fill="#4285F4" d="M20.17 119.64v-2.46h8.23c.11.5.16 1.01.14 1.53a8.2 8.2 0 0 1-2.08 5.71 8.45 8.45 0 0 1-6.29 2.46 9.2 9.2 0 0 1-6.41-2.6 9.08 9.08 0 0 1-2.76-6.3 9.08 9.08 0 0 1 2.73-6.36 9.2 9.2 0 0 1 9.77-2 8.58 8.58 0 0 1 2.83 1.84l-1.74 1.73a6.24 6.24 0 0 0-4.49-1.73 6.57 6.57 0 0 0-5.9 6.48 6.49 6.49 0 0 0 5.9 6.48 6.07 6.07 0 0 0 4.55-1.73 5.17 5.17 0 0 0 1.34-3.05h-5.82Z"/><path fill="#EA4335" d="M41.05 121.17a5.75 5.75 0 0 1-3.6 5.34 5.86 5.86 0 0 1-6.36-1.28 5.77 5.77 0 0 1 4.2-9.85 5.67 5.67 0 0 1 5.38 3.56c.28.7.41 1.46.38 2.23Zm-2.54 0a3.3 3.3 0 0 0-1.93-3.22c-.4-.19-.84-.3-1.28-.3a3.55 3.55 0 0 0-3.06 3.48 3.5 3.5 0 0 0 3.06 3.5 3.36 3.36 0 0 0 3-2.18c.16-.41.23-.85.21-1.28Z"/><path fill="#FBBC04" d="M53.77 121.17a5.75 5.75 0 0 1-3.6 5.34 5.86 5.86 0 0 1-7.93-4.22 5.75 5.75 0 0 1 2.47-5.93 5.85 5.85 0 0 1 5.48-.56 5.76 5.76 0 0 1 3.58 5.37Zm-2.54 0a3.24 3.24 0 0 0-2.16-2.87 3.3 3.3 0 0 0-3.5.83 3.25 3.25 0 0 0 2.38 5.5 3.43 3.43 0 0 0 3.28-3.46"/><path fill="#4285F4" d="M65.89 115.72v10.3c0 4.25-2.48 5.98-5.5 5.98a5.6 5.6 0 0 1-5.15-3.39l2.28-.93a3 3 0 0 0 2.88 2.06c1.94 0 3.14-1.13 3.14-3.39v-.8h-.13a4 4 0 0 1-3.01 1.33 5.85 5.85 0 0 1-5.82-5.78c0-1.53.6-3 1.7-4.09a5.84 5.84 0 0 1 4.12-1.7 3.9 3.9 0 0 1 3.01 1.33h.13v-1h2.35v.08Zm-2.21 5.45c0-2-1.34-3.53-3.08-3.53a3.43 3.43 0 0 0-3.21 3.53 3.3 3.3 0 0 0 3.2 3.45c1.75 0 3.09-1.46 3.09-3.45Z"/><path fill="#34A853" d="M70.24 109.67h-2.55v16.84h2.55v-16.84Z"/><path fill="#EA4335" d="m80.08 123.03 1.94 1.33a5.87 5.87 0 0 1-8.94.84 5.64 5.64 0 0 1-1.64-4.1 5.42 5.42 0 0 1 3.33-5.28 5.5 5.5 0 0 1 2.16-.44c2.95 0 4.42 2.4 4.95 3.66l.27.66-7.76 3.13a2.93 2.93 0 0 0 2.8 1.8 3.36 3.36 0 0 0 2.89-1.6Zm-6.1-2.06 5.16-2.13a2.2 2.2 0 0 0-2.14-1.2 3.17 3.17 0 0 0-2.85 2.1c-.13.4-.2.81-.16 1.23"/><path fill="url(#a)" d="M12.1 198.88h37.16V161H12.1v37.88Z"/><path fill="#fff" d="M41.28 172.76a9.87 9.87 0 0 0-14.07 0l-.24.19-1.4-.13a8.27 8.27 0 0 0-5.97 2.6 8.68 8.68 0 0 0-1.84 9.39 8.59 8.59 0 0 0 3.12 3.87 8.35 8.35 0 0 0 4.7 1.45h8.88a9.84 9.84 0 0 0 5.46-1.8 10.13 10.13 0 0 0 3.59-4.58 10.35 10.35 0 0 0-2.23-10.99Zm-15.64 15.52a6.67 6.67 0 0 1-3.65-1.22 7.02 7.02 0 0 1-1.07-10.42 6.82 6.82 0 0 1 4.72-1.97h.96l1.03.25c.64.2 1.23.5 1.75.92.27.17.51.38.73.62l.24.18 2.66 2.77a1 1 0 0 1 0 1.36.78.78 0 0 1-.6.25.89.89 0 0 1-.67-.25l-2.24-2.22-.42-.5-.24-.24a4.8 4.8 0 0 0-2.24-1.1h-.96a4.97 4.97 0 0 0-3.26 1.41 4.89 4.89 0 0 0-1.05 5.31 4.84 4.84 0 0 0 4.43 3h.84l.79.74c.38.44.83.82 1.33 1.11h-3.08ZM40 185.82a7.96 7.96 0 0 1-2.96 1.9l-1.02.32a7.5 7.5 0 0 1-1.63.24h-.18c-1.88 0-3.7-.68-5.14-1.9l-.6-.56-3.8-3.88a1 1 0 0 1 0-1.36.79.79 0 0 1 .6-.24.89.89 0 0 1 .66.24l3.75 3.88c.37.35.78.66 1.2.93.98.63 2.11.95 3.27.92a6 6 0 0 0 1.5-.18c.35-.06.68-.19.97-.37a6.75 6.75 0 0 0 2-1.36 6.53 6.53 0 0 0 0-9.05 6.2 6.2 0 0 0-7.97-.74c-.51-.44-1.08-.8-1.7-1.05a8.07 8.07 0 0 1 11.54.5 8.42 8.42 0 0 1-.49 11.76"/><path fill="#283343" d="M78.61 197.04a3.6 3.6 0 0 1-3.32-2.22c-.18-.44-.26-.9-.26-1.38 0-.93.38-1.84 1.05-2.5a3.6 3.6 0 0 1 5.06 0 3.52 3.52 0 0 1 1.05 2.5 3.51 3.51 0 0 1-2.2 3.33c-.43.18-.9.27-1.38.27Zm3.58.5a1.52 1.52 0 0 0 1.3 1.21h.42c.09 0 .16-.03.22-.09a.3.3 0 0 0 .1-.21v-9.89a.3.3 0 0 0-.32-.3H82.5a.3.3 0 0 0-.3.3v.8a4.5 4.5 0 0 0-3.59-1.47c-1.49 0-2.91.59-3.97 1.63a5.53 5.53 0 0 0 3.97 9.48 4.8 4.8 0 0 0 3.58-1.47Zm5.42-1.47c.86.63 1.9.97 2.96.97.93 0 1.92-.48 1.92-1.34 0-.85-2.1-1.28-3.46-1.7-1.35-.43-2.46-1.41-2.46-2.88 0-1.46 2.03-3.29 4-3.29 1.17 0 2.3.35 3.27.98.31.24.13.48.13.48l-.8 1.1a.31.31 0 0 1-.2.16.3.3 0 0 1-.24-.03 3.48 3.48 0 0 0-2.16-.74c-1.35 0-1.9.55-1.9 1.22 0 .67.92 1.04 2.03 1.35 1.1.3 3.88 1.1 3.88 3.35 0 2.26-1.9 3.3-4 3.3a6.76 6.76 0 0 1-4.14-1.28.36.36 0 0 1-.06-.43l.8-1.1a.31.31 0 0 1 .31-.16c.05 0 .09.02.12.04Zm17.58 1.46a1.52 1.52 0 0 0 1.3 1.22h.43c.08 0 .16-.03.21-.09a.3.3 0 0 0 .1-.21v-9.89a.3.3 0 0 0-.1-.21.31.31 0 0 0-.21-.1h-1.42a.3.3 0 0 0-.3.3v.8a4.49 4.49 0 0 0-3.59-1.46c-1.49 0-2.91.59-3.97 1.63a5.53 5.53 0 0 0 3.97 9.48 4.8 4.8 0 0 0 3.58-1.47Zm-3.58-.49a3.6 3.6 0 0 1-3.32-2.22c-.18-.44-.26-.9-.25-1.38 0-.93.37-1.84 1.04-2.5a3.6 3.6 0 0 1 5.06 0 3.53 3.53 0 0 1 1.05 2.5 3.52 3.52 0 0 1-2.2 3.33c-.43.18-.9.27-1.38.27Zm18.32.8v-5.13c0-2.87-1.85-4.82-4.81-4.82a3.66 3.66 0 0 0-2.96 1.47 1.14 1.14 0 0 0-.41-.83 1.17 1.17 0 0 0-.89-.27h-.43a.3.3 0 0 0-.3.3v9.95a.3.3 0 0 0 .3.3h1.67c0-.06.06-.12.06-.18v-5.86c0-.74.3-1.46.83-1.98a2.85 2.85 0 0 1 2-.82 2.79 2.79 0 0 1 2.64 1.72c.14.34.2.71.2 1.08V198.63a.37.37 0 0 0 .37.3h1.66c0-.05.07-.12.07-.18v-.91Zm10.97-.3a1.52 1.52 0 0 0 1.3 1.21h.43c.09 0 .17-.03.24-.08a.37.37 0 0 0 .13-.22v-9.89h-.06a.3.3 0 0 0-.1-.21.31.31 0 0 0-.21-.1h-1.42a.31.31 0 0 0-.22.1.3.3 0 0 0-.09.21v.8a4.49 4.49 0 0 0-3.57-1.47c-1.5 0-2.92.59-3.97 1.63a5.53 5.53 0 0 0 3.97 9.48 4.8 4.8 0 0 0 3.57-1.47Zm-3.57-.5a3.6 3.6 0 0 1-3.33-2.22c-.17-.44-.26-.9-.25-1.38 0-.93.38-1.84 1.05-2.5a3.6 3.6 0 0 1 5.06 0 3.52 3.52 0 0 1 1.04 2.5 3.5 3.5 0 0 1-2.19 3.33c-.44.18-.9.27-1.38.27Z"/><path fill="url(#b)" d="M109.44 170.99a4.86 4.86 0 1 0 0 9.76c1.31 0 2.57-.51 3.5-1.43a4.86 4.86 0 0 0-3.5-8.33Zm-12.76 0a4.97 4.97 0 0 0-4.56 3 4.84 4.84 0 0 0 1.07 5.33 4.94 4.94 0 0 0 8.42-3.45c0-1.3-.52-2.54-1.44-3.46a4.96 4.96 0 0 0-3.5-1.42Zm11.28-6.1c0 1.29-.52 2.53-1.44 3.45a4.96 4.96 0 0 1-8.42-3.46c0-1.3.52-2.53 1.44-3.45a4.96 4.96 0 0 1 8.42 3.45Z"/><path fill="#0075C9" d="M187.42 174.36a12.47 12.47 0 0 0-10.98 6.5 12.45 12.45 0 0 0-8.31-6.2 12.62 12.62 0 0 0-10.17 2.15v-10.35a2.45 2.45 0 0 0-2.48-2.46 2.49 2.49 0 0 0-2.48 2.46v20.38a12.29 12.29 0 0 0 2.75 7.5 12.48 12.48 0 0 0 14.8 3.51 12.42 12.42 0 0 0 5.89-5.44 12.32 12.32 0 0 0 10.6 6.5 12.46 12.46 0 0 0 10.94-5.93 12.2 12.2 0 0 0-4.34-16.93 12.46 12.46 0 0 0-6.22-1.7Zm-21.97 19.71a7.55 7.55 0 0 1-6.97-4.54 7.37 7.37 0 0 1 1.58-8.13 7.52 7.52 0 0 1 12.83 5.24 7.4 7.4 0 0 1-2.18 5.23 7.54 7.54 0 0 1-5.26 2.2Zm21.97 0a7.55 7.55 0 0 1-6.98-4.54 7.37 7.37 0 0 1 1.58-8.13 7.52 7.52 0 0 1 12.83 5.24 7.4 7.4 0 0 1-2.17 5.23 7.53 7.53 0 0 1-5.26 2.2Z"/><path fill="#0075C9" d="m216.54 195.13-6.36-8.43 6.36-8.5a2.44 2.44 0 0 0-2.37-3.84c-.64.09-1.23.42-1.64.92l-5.5 7.3-5.49-7.3a2.48 2.48 0 0 0-4.25 1.19c-.12.6 0 1.21.3 1.74l6.37 8.5-6.37 8.42a2.43 2.43 0 0 0 .65 3.23 2.5 2.5 0 0 0 3.3-.3l5.5-7.24 5.49 7.23a2.55 2.55 0 0 0 3.48.47 2.45 2.45 0 0 0 .53-3.39Z"/><path fill="#1976D2" d="M42.54 73.6h-8.27v1.65h1.98c.77 0 1.52.32 2.06.88a3.04 3.04 0 0 1 0 4.24 2.9 2.9 0 0 1-2.06.88h-3.66L26 88h6.88c2.34-.07 12.88-1.12 12.88-8.25a7.27 7.27 0 0 0-3.22-6.15Z"/><path fill="#1565C0" d="M47.95 79.22c0-3.75-3.58-5.84-4.46-6.22l-.95.6c1 .66 1.83 1.57 2.4 2.64.56 1.08.84 2.29.82 3.51 0 7.13-10.54 8.17-12.88 8.25 14.34-.15 15.07-6.45 15.07-8.78Z"/><path fill="#1E88E5" d="M34.05 58H26v30l6.59-6.75v-6h1.46s4.83.3 8.49-1.65l.44-.22.51-.38a6.72 6.72 0 0 0 2.56-3.3c.31-.86.46-1.78.44-2.7 0-9-7.9-9-12.44-9Zm2.93 12.75h-2.93c-.39 0-.76-.16-1.04-.44a1.52 1.52 0 0 1-.42-1.06v-3c0-.4.15-.78.42-1.06.28-.28.65-.44 1.04-.44h2.93c.77 0 1.52.32 2.07.88a3.04 3.04 0 0 1 0 4.24 2.9 2.9 0 0 1-2.07.88Z"/><path fill="#1565C0" d="M38.95 65.5a3.15 3.15 0 0 1 .95 2.25c0 .8-.3 1.56-.85 2.12a2.9 2.9 0 0 1-2.07.88h-2.93c-.39 0-.76-.16-1.04-.44a1.52 1.52 0 0 1-.42-1.06v-3s0-3.6 1.75-5.48a7.19 7.19 0 0 0-4.53 3.83C26.73 70.22 26 88 26 88l6.59-5.18v-7.57h1.46c5.85 0 10.98-3 10.98-7.8v-.38c-.02 0-.04 0-.05-.02a.08.08 0 0 1-.03-.05c-1.83-1.13-5.41-1.43-6-1.5Z"/><path fill="#2559AA" d="M37.34 60.33c-1.01 0-2.02.14-3 .45-1.75 1.87-1.75 5.47-1.75 5.47 0-.4.15-.78.42-1.06.28-.28.65-.44 1.04-.44h2.93a3.1 3.1 0 0 1 1.97.75c.59.08 4.17.38 6 1.5l.02.05.06.03c-.22-3.75-3.59-6.75-7.69-6.75Zm-1.1 20.92H32.6v1.5h2.92c2.42 0 3.66-2.03 3.66-4.5 0 .8-.3 1.56-.86 2.12a2.9 2.9 0 0 1-2.06.88Z"/><path fill="#000" d="m64.79 67.6 3.87 12.15H67.2l-1.1-3.52h-4.75l-1.1 3.52h-1.4l3.89-12.15h2.05Zm-3.08 7.43h4.03l-1.25-4.13-.73-2.32h-.07c-.22.75-.44 1.42-.66 2.32l-1.32 4.13ZM77.37 75.7v-8.1h1.32v7.95c0 2.93-1.61 4.43-4.32 4.43-2.7 0-4.1-1.58-4.1-4.2V67.6h1.32v7.95c0 2.18 1.17 3.15 2.93 3.15 1.75 0 2.85-.82 2.85-3ZM83.6 68.88h-3.15V67.6h7.68v1.28h-3.15v10.87H83.6V68.88ZM93.4 79.97c-2.86 0-4.61-1.72-4.61-6.22s1.83-6.3 4.68-6.3c2.86 0 4.61 1.72 4.61 6.15 0 4.43-1.9 6.38-4.68 6.38Zm.07-1.27c1.98 0 3.22-1.2 3.22-4.95s-1.32-5.1-3.3-5.1c-1.97 0-3.21 1.2-3.21 4.95s1.32 5.1 3.3 5.1ZM100.64 67.6h3.15c3.59 0 5.2 1.88 5.2 6 0 4.13-1.54 6.15-5.2 6.15h-3.15V67.6Zm1.4 10.95h1.75c2.56 0 3.8-1.35 3.8-4.8 0-3.45-1.39-4.87-3.95-4.87h-1.6v9.67ZM111.62 79.75V67.6h6.3v1.28h-4.98V73h4.39v1.2h-4.4v4.35h5.2v1.2h-6.51ZM125.74 76.67c0-2.77-5.63-2.17-5.63-6 0-1.8 1.54-3.22 3.66-3.22a4.9 4.9 0 0 1 3.07.97l-.8 1.13a3.32 3.32 0 0 0-2.35-.83c-1.38 0-2.19.75-2.19 1.88 0 2.85 5.63 2.25 5.63 6 0 1.8-1.39 3.37-3.95 3.37a5.62 5.62 0 0 1-3.73-1.27l.8-1.13a4.68 4.68 0 0 0 3.08 1.13c1.6 0 2.41-.9 2.41-2.03ZM130.94 79.75h-1.4V67.6h1.4v12.15Zm4.61-12.15h1.61l-4.24 6.08 4.6 6.07h-1.75l-4.4-6 4.18-6.15ZM143.9 72.92a3.08 3.08 0 0 1-2.5 1.05 3.15 3.15 0 0 1-2.48-1.05 3.61 3.61 0 0 1-1.03-2.55 3.5 3.5 0 0 1 1.03-2.55 3.3 3.3 0 0 1 2.49-1.12c.93.04 1.83.44 2.49 1.12.66.68 1.05 1.6 1.09 2.55a3.43 3.43 0 0 1-1.1 2.55Zm-4.62-4.8a3.09 3.09 0 0 0-.88 2.25 3.07 3.07 0 0 0 .88 2.18 2.72 2.72 0 0 0 2.13.97 2.8 2.8 0 0 0 2.19-.97 3 3 0 0 0 .88-2.18 3.14 3.14 0 0 0-.88-2.25 3.07 3.07 0 0 0-3.35-.67c-.36.16-.7.39-.97.67Zm2.05.23 1.1.15c.18.08.34.21.45.39.1.18.15.38.13.58a1 1 0 0 1-.36.83l-.59.15c.27.06.5.22.66.45a.83.83 0 0 1 .22.6v.6c0 .07 0 .15.07.15h-.65v-.45a1.08 1.08 0 0 0-.37-.9l-.8-.15h-.52v1.57h-.66v-3.97h1.32Zm.73.6-.8-.15h-.59v1.5h.59l.66-.15a.58.58 0 0 0 .32-.22c.08-.11.12-.24.12-.38a.62.62 0 0 0-.06-.35.59.59 0 0 0-.24-.25ZM160.94 68.58c.38.57.59 1.25.59 1.95.02.65-.19 1.29-.59 1.8a2.5 2.5 0 0 1-.95.75c.6.17 1.1.57 1.4 1.12.36.52.54 1.16.5 1.8a4.6 4.6 0 0 1-.5 2.03l-.88.97c-.42.3-.9.51-1.4.6-.57.13-1.16.18-1.75.15h-5.5V67.3h5.94a3.72 3.72 0 0 1 3.14 1.28Zm-6.66.9v2.7h3c.46.02.92-.08 1.32-.3.3-.16.44-.53.44-1.05a1.22 1.22 0 0 0-.66-1.2l-1.39-.16h-2.7Zm0 4.8v3.3h3a3 3 0 0 0 1.25-.16c.27-.15.48-.38.63-.66.14-.28.2-.6.17-.91.02-.28-.04-.57-.19-.8a1.33 1.33 0 0 0-.61-.55c-.4-.17-.82-.25-1.25-.22h-3ZM166.43 79.75h-2.56V67.3h2.56v12.45ZM176.9 67.3h3.66v12.45h-2.35V69.33l-2.34 10.42h-2.49l-2.26-10.42v10.42h-2.35V67.3h3.66l2.27 9.83 2.2-9.83ZM189.12 76c-.02.41.05.82.22 1.2.13.3.35.54.63.7.27.16.59.23.9.2.46.01.9-.15 1.25-.45.33-.4.51-.9.51-1.43a1.76 1.76 0 0 0-.95-1.65 5 5 0 0 0-1.76-.22v-1.73c.55.05 1.1-.03 1.61-.22.27-.11.5-.31.64-.57.15-.26.2-.56.17-.86a1.53 1.53 0 0 0-.44-1.12 1.32 1.32 0 0 0-1.1-.45 1.36 1.36 0 0 0-1.24.52c-.25.44-.38.93-.37 1.43H187a7.1 7.1 0 0 1 .3-1.73 3.9 3.9 0 0 1 2.05-1.95c.5-.16 1.01-.24 1.53-.22 1-.05 2 .27 2.78.9a3.25 3.25 0 0 1 .44 4.27c-.23.28-.53.49-.87.6.37.1.7.3.95.6a3.1 3.1 0 0 1 .88 2.33 3.95 3.95 0 0 1-1.03 2.77 4.23 4.23 0 0 1-3.15 1.2c-1.68 0-2.85-.6-3.5-1.72a5.5 5.5 0 0 1-.6-2.4h2.35ZM202 70.6c0-.24-.08-.48-.22-.68a1.4 1.4 0 0 0-1.17-.6c-.38 0-.75.13-1.05.38-.3.24-.5.6-.56.97a5.3 5.3 0 0 0-.37 2.18c.24-.36.57-.64.95-.83a4.15 4.15 0 0 1 2.8.05c.44.2.83.49 1.15.85a3.76 3.76 0 0 1 1.03 2.85 4.73 4.73 0 0 1-.95 3 3.73 3.73 0 0 1-3.15 1.35 3.59 3.59 0 0 1-3.37-1.95 8.74 8.74 0 0 1-.8-3.9c0-.77.05-1.55.15-2.32.04-.93.32-1.84.8-2.63a3.6 3.6 0 0 1 3.3-1.95c.97-.04 1.94.28 2.7.9a3.15 3.15 0 0 1 1.1 2.33H202Zm-2.86 6.9a1.62 1.62 0 0 0 1.4.6 1.22 1.22 0 0 0 1.17-.6 2.12 2.12 0 0 0 .5-1.58c0-.59-.17-1.16-.5-1.65a1.75 1.75 0 0 0-1.32-.52 1.36 1.36 0 0 0-1.03.37 2.25 2.25 0 0 0-.73 1.8c0 .57.18 1.13.51 1.58ZM213.05 69.02a12.18 12.18 0 0 1 0 9.45 3.47 3.47 0 0 1-3.22 1.65 3.44 3.44 0 0 1-3.22-1.65 13.12 13.12 0 0 1 0-9.45 3.54 3.54 0 0 1 3.22-1.65 3.37 3.37 0 0 1 3.22 1.65Zm-4.61 7.95c.06.33.24.62.5.82.25.2.56.32.89.31.32.02.65-.08.9-.29.26-.2.43-.5.49-.84.27-1.05.4-2.13.36-3.22.04-1.11-.09-2.22-.36-3.3-.07-.32-.25-.6-.5-.8a1.3 1.3 0 0 0-.9-.25c-.3-.01-.61.09-.87.28-.25.19-.43.46-.51.77-.25 1.08-.34 2.2-.3 3.3a12.3 12.3 0 0 0 .3 3.22Z"/><path fill="url(#c)" d="m238.46 191.88-1.29 2.09c-.16.28-.21.61-.14.93.07.31.26.6.53.79l8.91 5.15a1.49 1.49 0 0 0 1.81-.37l1.3-1.96c3.48-5.52 6.97-4.79 13.3-1.97l8.8 3.93c.3.12.65.13.96.02.31-.12.57-.34.71-.64h.13l4.13-9.07c.14-.3.14-.62.02-.92-.12-.3-.36-.54-.66-.67l-8.79-4.05c-11.88-5.4-21.96-5.03-29.72 6.87v-.13Z"/><path fill="url(#d)" d="m278 171.4 1.3-2.08c.16-.28.2-.61.13-.93-.07-.31-.25-.6-.52-.79l-8.92-5.15a1.34 1.34 0 0 0-1.8.37l-1.43 2.09c-3.36 5.51-6.98 4.78-13.18 1.96l-8.78-3.93a1.5 1.5 0 0 0-1.04-.02 1.4 1.4 0 0 0-.77.64l-4.14 9.07a1.07 1.07 0 0 0 .21 1.35c.13.1.28.2.44.25l8.78 4.04c11.9 5.4 21.97 5.03 29.72-6.87Z"/><path fill="#0061FF" d="m319.87 169.56-10.44 6.65 10.44 6.56-10.44 6.57-10.43-6.65 10.43-6.56-10.43-6.57 10.43-6.56 10.44 6.56Zm-10.44 21.88 10.44-6.56 10.34 6.56-10.34 6.56-10.44-6.56Zm10.44-8.75 10.43-6.56-10.43-6.57L330.2 163l10.44 6.56-10.44 6.65 10.44 6.56-10.44 6.57-10.34-6.65Z"/><path fill="#2684FF" d="m51.85 245.09-18-17.38L32.2 226l-13.53 13.14-6.12 5.95a1.49 1.49 0 0 0-.55 1.14 1.45 1.45 0 0 0 .55 1.14l12.24 12 7.4 7.09 13.42-13.03.24-.23 6-5.83a1.69 1.69 0 0 0 0-2.28Zm-19.77 7.2-6.12-6.06 6.12-5.94 6.24 5.94-6.24 6.06Z"/><path fill="url(#e)" d="M32.08 240.29a9.91 9.91 0 0 1-3-7.09c0-2.66 1.08-5.2 3-7.09l-13.53 13.03 7.3 7.2 6.23-6.05Z"/><path fill="url(#f)" d="m38.32 246.23-6.24 5.94a10.05 10.05 0 0 1 3.07 7.14 9.8 9.8 0 0 1-3.07 7.15l13.53-13.15-7.3-7.08Z"/><path fill="#00A1E0" d="M96.55 226.36a9.9 9.9 0 0 1 12.27-1.7c1.54.92 2.81 2.23 3.68 3.8 1.56-.7 3.25-1.06 4.95-1.05 3.13.2 6.07 1.6 8.21 3.91a12.5 12.5 0 0 1 0 17.03 12.3 12.3 0 0 1-8.2 3.91c-.81.01-1.61-.06-2.4-.2a8.95 8.95 0 0 1-11.73 3.68 10.22 10.22 0 0 1-9.62 6.26 10.11 10.11 0 0 1-9.3-6.74 9.42 9.42 0 0 1-10.71-5.74 9.63 9.63 0 0 1-.7-3.67 9.73 9.73 0 0 1 4.69-8.35 11.13 11.13 0 0 1 2.33-12.25 10.95 10.95 0 0 1 16.53 1.11"/><path fill="#fff" d="M81.18 242.75c0 .1 0 .1.05.1l.32.22c.5.28 1.08.43 1.66.42 1.2 0 1.93-.63 1.93-1.63 0-.9-.83-1.26-1.61-1.47h-.1c-.58-.21-1.05-.37-1.05-.74s.26-.58.73-.58c.5 0 1 .13 1.46.37 0 0 .16.06.16-.05 0-.1.2-.58.26-.63.05-.05 0-.1-.06-.1a2.95 2.95 0 0 0-1.66-.48h-.1c-1.1 0-1.83.63-1.83 1.58 0 1 .83 1.31 1.56 1.52h.16c.52.16 1.04.32 1.04.74 0 .36-.31.63-.83.63a2.8 2.8 0 0 1-1.52-.42l-.15-.1c-.05-.06-.16-.11-.16.04l-.26.64v-.06Zm17.04 0c-.05.1 0 .1 0 .1l.37.22c.5.28 1.08.43 1.66.42 1.2 0 1.88-.63 1.88-1.63 0-.9-.78-1.26-1.56-1.47h-.1c-.58-.21-1.05-.37-1.05-.74s.26-.58.73-.58a3.31 3.31 0 0 1 1.5.39.1.1 0 0 0 .05 0 .1.1 0 0 0 .04-.03 3.18 3.18 0 0 1 .29-.67v-.1a2.95 2.95 0 0 0-1.67-.48h-.16c-1.04 0-1.77.63-1.77 1.58 0 1 .78 1.31 1.56 1.52h.1c.58.16 1.05.32 1.05.74 0 .36-.31.63-.78.63a2.8 2.8 0 0 1-1.51-.42l-.21-.1c0-.06-.1-.06-.16.04l-.2.64-.06-.06Zm11.62-2c.03.48-.08.96-.31 1.37a1.15 1.15 0 0 1-1.88 0 2.54 2.54 0 0 1-.3-1.36c-.03-.46.08-.92.3-1.32a1.16 1.16 0 0 1 .94-.49 1.15 1.15 0 0 1 .94.5c.23.4.33.85.31 1.3Zm1-1.04c-.11-.31-.27-.6-.48-.84-.2-.24-.45-.43-.72-.58-.34-.13-.7-.2-1.05-.21-.36 0-.7.08-1.04.2-.28.14-.53.34-.73.59-.2.24-.36.53-.47.84a3.6 3.6 0 0 0 0 2.1c.1.32.25.63.47.89.19.24.44.43.73.53.33.15.68.22 1.04.2a2.32 2.32 0 0 0 1.77-.73c.22-.26.38-.57.47-.9.14-.69.14-1.4 0-2.1Zm7.97 2.73a.1.1 0 0 0-.07-.07.1.1 0 0 0-.09.01l-.42.11h-.57a1.52 1.52 0 0 1-1.1-.42 2 2 0 0 1-.41-1.37c0-.44.12-.88.36-1.26a1.36 1.36 0 0 1 1.1-.47l1.04.1s.05.06.1-.05c.06-.1.16-.42.21-.68.06-.26 0-.1-.05-.1l-.63-.16h-.72c-.38 0-.75.08-1.1.2-.3.14-.57.34-.78.59-.2.24-.37.53-.47.84-.1.33-.16.69-.16 1.05-.04.7.18 1.4.63 1.94a2.4 2.4 0 0 0 1.93.74c.46 0 .92-.09 1.35-.27 0 0 .1 0 .06-.1l-.21-.63Zm1.66-2.2c.05-.28.14-.55.26-.8a1.05 1.05 0 0 1 .94-.47.98.98 0 0 1 .94.47c.16.24.23.51.2.8h-2.34Zm3.29-.7c-.1-.27-.25-.54-.42-.78-.18-.2-.4-.35-.63-.47-.3-.13-.61-.2-.93-.21-.38 0-.75.08-1.1.2-.28.14-.53.34-.73.59-.2.26-.36.56-.47.89a3.6 3.6 0 0 0 0 2.1 2.21 2.21 0 0 0 1.3 1.42c.4.11.8.17 1.2.16.58.02 1.15-.09 1.67-.32 0 0 .05-.05 0-.16l-.2-.63h-.11c-.42.2-.89.29-1.36.26-.4.02-.81-.1-1.14-.36-.25-.32-.37-.7-.37-1.1h3.29l.04-.01.03-.03a.11.11 0 0 0 .03-.07c.06-.48.02-.96-.1-1.42v-.05Zm-29.6.74c.04-.27.13-.54.26-.78a1.05 1.05 0 0 1 .94-.48 1 1 0 0 1 .93.47c.16.24.23.51.21.8h-2.34Zm3.28-.68c-.1-.28-.25-.54-.42-.79-.18-.19-.39-.35-.62-.47a2.49 2.49 0 0 0-2.82.58 3.6 3.6 0 0 0-.42 3 2.21 2.21 0 0 0 1.31 1.41c.39.11.8.17 1.2.16a3.7 3.7 0 0 0 1.67-.32s.05-.05 0-.16l-.21-.63h-.1c-.43.2-.9.29-1.36.27-.41.01-.82-.12-1.15-.37-.24-.31-.37-.7-.36-1.1h3.28a.1.1 0 0 0 .07-.03.1.1 0 0 0 .03-.08c.06-.47.03-.96-.1-1.42v-.05Zm-10.37 2.89-.2-.16c-.08-.15-.11-.3-.11-.47a.74.74 0 0 1 .31-.63 1.18 1.18 0 0 1 .94-.21h.88v1.52l-.88.1c-.33.06-.66-.02-.94-.2v.05Zm1.3-2.37h-.52c-.26-.02-.53.02-.78.11a1.8 1.8 0 0 0-.73.32c-.18.14-.34.32-.47.52-.11.25-.16.52-.15.79 0 .25.05.5.15.73.1.21.24.4.42.53.2.14.44.24.68.31h1.87l.84-.15.2-.1c.1 0 .06-.11.06-.11v-3.05a1.8 1.8 0 0 0-.52-1.47 2.07 2.07 0 0 0-1.52-.47l-.83.1a2.7 2.7 0 0 0-1.08.38.05.05 0 0 0 0 .08l.04.01.2.63c.06.11.11.06.11.06h.05c.45-.24.95-.36 1.46-.37.29 0 .56.08.78.26.21.1.26.32.26.79v.1h-.52Zm26.53-1.73a.16.16 0 0 0-.05-.1l-.58-.1c-.28-.03-.57.03-.83.15l-.58.42v-.42a.1.1 0 0 0-.1-.1h-.83a.1.1 0 0 0-.08.02.1.1 0 0 0-.03.08v4.94c0 .03.01.05.03.07a.1.1 0 0 0 .08.03h.88a.1.1 0 0 0 .08-.03.1.1 0 0 0 .03-.07v-2.52a2.05 2.05 0 0 1 .36-1.37l.42-.21h.83c.05.05.05 0 .1-.05l.27-.74"/><path fill="#fff" d="m106.77 236.08-.31-.1h-.47c-.5-.03-.99.14-1.36.47-.39.42-.62.95-.68 1.52v.21h-.76a.14.14 0 0 0-.04.03.13.13 0 0 0-.02.04v.04l-.17.68a.1.1 0 0 0 .1.1h.74l-.73 4.16c-.03.28-.1.57-.21.84-.04.17-.1.33-.2.47l-.32.2h-.63l-.2-.1s-.06 0-.1.1a3.2 3.2 0 0 1-.27.64.22.22 0 0 0 .05.16l.31.1h.47a1.72 1.72 0 0 0 1.46-.52c.18-.22.32-.47.42-.74.12-.36.21-.73.26-1.1l.73-4.26h1.1a.1.1 0 0 0 .07-.03.1.1 0 0 0 .03-.07l.15-.69a.11.11 0 0 0-.02-.07.1.1 0 0 0-.04-.02l-.04-.01H105c.06 0 .06-.37.22-.74.05-.13.12-.25.2-.36l.32-.16h.73c.1.05.1 0 .1-.05l.26-.69c.05-.05 0-.1-.05-.1v.05Zm-14.7 7.14c0 .06 0 .11-.05.11h-.89a.1.1 0 0 1-.03 0 .1.1 0 0 1-.04-.03.1.1 0 0 1-.03-.07v-7.04a.1.1 0 0 1 .06-.1.1.1 0 0 1 .04-.01h.9c.04 0 .04.05.04.1v7.04Z"/><path fill="#E01E5A" fill-rule="evenodd" d="M158.51 247.42a4.64 4.64 0 0 1-1.32 3.16 4.49 4.49 0 0 1-3.1 1.35 4.4 4.4 0 0 1-3.08-1.36 4.54 4.54 0 0 1 0-6.27 4.3 4.3 0 0 1 3.07-1.3h4.43v4.42Zm2.12 0a4.53 4.53 0 0 1 1.5-2.75 4.39 4.39 0 0 1 7.27 2.75v11.17a4.53 4.53 0 0 1-1.49 2.75 4.39 4.39 0 0 1-5.79 0 4.53 4.53 0 0 1-1.49-2.75v-11.17Z" clip-rule="evenodd"/><path fill="#36C5F0" fill-rule="evenodd" d="M165.06 229.58a4.26 4.26 0 0 1-3.12-1.26 4.44 4.44 0 0 1-1.3-3.15 4.56 4.56 0 0 1 2.53-4.76 4.37 4.37 0 0 1 5.2 1.15 4.53 4.53 0 0 1 1.03 3.61v4.41h-4.34Zm0 2.25c1.06.16 2.02.7 2.71 1.52a4.56 4.56 0 0 1 0 5.89 4.41 4.41 0 0 1-2.7 1.51h-10.99a4.34 4.34 0 0 1-3.54-1.04 4.5 4.5 0 0 1-1.54-3.42 4.56 4.56 0 0 1 1.54-3.41 4.43 4.43 0 0 1 3.54-1.04h10.98Z" clip-rule="evenodd"/><path fill="#2EB67D" fill-rule="evenodd" d="M182.5 236.34c0-1.2.47-2.34 1.3-3.18a4.4 4.4 0 0 1 3.13-1.32c1.05.15 2.01.7 2.7 1.51a4.55 4.55 0 0 1-2.7 7.4h-4.43v-4.4Zm-2.12 0a4.55 4.55 0 0 1-1.33 3.13 4.39 4.39 0 0 1-3.1 1.28 4.3 4.3 0 0 1-3.06-1.29 4.45 4.45 0 0 1-1.27-3.12v-11.17c0-1.18.45-2.31 1.26-3.15a4.4 4.4 0 0 1 3.07-1.36c1.17.03 2.28.51 3.1 1.35.83.84 1.3 1.97 1.33 3.16v11.17Z" clip-rule="evenodd"/><path fill="#ECB22E" fill-rule="evenodd" d="M175.95 254.08c1.17.03 2.28.51 3.1 1.35.83.84 1.3 1.97 1.33 3.16a4.55 4.55 0 0 1-1.33 3.13 4.3 4.3 0 0 1-6.16 0 4.45 4.45 0 0 1-1.27-3.13v-4.5h4.33Zm0-2.15a4.4 4.4 0 0 1-3.07-1.36 4.54 4.54 0 0 1 0-6.27 4.3 4.3 0 0 1 3.07-1.3h10.98a4.3 4.3 0 0 1 3.07 1.3 4.54 4.54 0 0 1 0 6.27 4.4 4.4 0 0 1-3.07 1.36h-10.98Z" clip-rule="evenodd"/><path fill="url(#g)" d="M257.61 220H221.4a4.4 4.4 0 0 0-4.39 4.4v36.39a4.4 4.4 0 0 0 4.39 4.4h36.22a4.4 4.4 0 0 0 4.39-4.4V224.4a4.4 4.4 0 0 0-4.39-4.4Z"/><path fill="#fff" d="M254.06 225.92h-9.53c-1.17 0-2.12.95-2.12 2.13v15.52c0 1.17.95 2.12 2.12 2.12h9.53c1.17 0 2.12-.95 2.12-2.12v-15.52c0-1.18-.95-2.13-2.12-2.13ZM234.47 225.92h-9.53c-1.17 0-2.12.95-2.12 2.13v26.81c0 1.18.95 2.13 2.12 2.13h9.53c1.17 0 2.12-.95 2.12-2.13v-26.81c0-1.18-.95-2.13-2.12-2.13Z"/><path fill="#5F5A5B" d="M286.64 249.97v5.26c0 2.01-2.14 2.06-2.14 2.06s-2.18-.05-2.18-2.06v-5.26s-.08-.9-1.32-.9v6.29c.08.89.5 1.71 1.15 2.3.65.57 1.5.87 2.35.82.85.05 1.69-.25 2.34-.83a3.47 3.47 0 0 0 1.12-2.29v-6.29c-1.2 0-1.32.9-1.32.9ZM316.69 249.97v5.26c0 2.01-2.14 2.06-2.14 2.06s-2.19-.05-2.19-2.06v-5.26s-.08-.9-1.31-.9v6.29c.1.9.5 1.71 1.14 2.31a3.43 3.43 0 0 0 4.67 0 3.7 3.7 0 0 0 1.14-2.31v-6.29c-1.23 0-1.31.9-1.31.9ZM299.85 255.36v-6.29c-1.2 0-1.31.9-1.31.9v8.38h1.31v-2.99ZM321.63 255.36v-6.29c-1.24 0-1.32.9-1.32.9v8.38h1.32v-2.99ZM331.83 255.36v-6.29c-1.23 0-1.31.9-1.31.9v8.38h1.31v-2.99ZM293.84 257.29h-2.34v-3.13h2.38c.2 0 1.24.17 1.24 1.54 0 .38-.12.75-.36 1.04-.23.29-.56.48-.92.55Zm-2.34-7.02h1.97a1.27 1.27 0 0 1 .99.39 1.34 1.34 0 0 1 .37 1.02c0 1.28-1.32 1.37-1.32 1.37h-2.01v-2.78Zm3.37 3.3a2.47 2.47 0 0 0 1.28-2.1c0-1.5-1.32-2.4-2.55-2.4h-3.38v9.28h4.32s1.85-.5 1.85-2.26c0-1.76-.98-2.53-1.52-2.53ZM305.4 257.33c-1.72 0-2.54-1.58-2.54-3.55 0-1.97.82-3.55 2.55-3.55s2.55 1.58 2.55 3.55c0 1.97-.82 3.55-2.55 3.55Zm4.2-.17H308c.82-.9 1.28-2.1 1.28-3.34 0-2.05-.87-4.75-3.95-4.75 0 0-3.58-.25-3.83 4.67-.25 4.91 3.83 4.61 3.83 4.61 1-.12 2-.16 3-.12h2.06s-.08-1.07-.78-1.07ZM329.4 250.23h-6.5v-1.16h6.5v1.16Z"/><path fill="#5F5A5B" d="M326.85 249.07v9.28h-1.27v-9.28h1.27Z"/><path fill="#279EDA" fill-rule="evenodd" d="M298.29 223.41H297V222h1.28v1.41ZM300.84 230.38h-1.28v-1.4h1.28v1.4ZM300.84 226.06h-1.28v-1.37h1.28v1.37ZM302.12 224.7h-1.28v-1.37h1.28v1.36ZM302.12 228.37h-1.28V227h1.28v1.37ZM303.4 226.7h-1.28v-1.36h1.27v1.37Z" clip-rule="evenodd"/><path fill="#279EDA" fill-rule="evenodd" d="M297.01 225.63h1.28v7.4h1.23v-1.32h1.32v2.9h1.32v-4.83h1.27v9.97c.12 1.3.52 2.54 1.19 3.64a8.09 8.09 0 0 0 2.64 2.69c-3.79 0-10.25-1.8-10.25-9.75v-10.7Z" clip-rule="evenodd"/><path fill="url(#h)" d="M0 0h14.13v10.56H0z" transform="matrix(1 0 0 -1 303.99 246.2)"/><path fill="#12100B" fill-rule="evenodd" d="M310.93 241.29s5.1-.3 6.62-7.44V222.2s-6.42-.77-6.42 4.15-.2 14.93-.2 14.93Z" clip-rule="evenodd"/><path fill="#5E5B5B" d="M281.33 261.18h.5l1.19 2v-2h.45v2.74h-.5l-1.19-2.02v2.02h-.45v-2.74ZM288.29 261.18h1.89v.43h-1.44v.72h1.32v.39h-1.32v.77h1.44v.43h-1.9v-2.74ZM294.7 261.18h2.15v.43h-.83v2.3h-.49v-2.3h-.82v-.43ZM301.38 261.18h.45l.5 2.1.53-2.1h.45l.54 2.1.49-2.1h.45l-.74 2.74h-.45l-.54-2.1-.53 2.1h-.45l-.7-2.74ZM309.57 262.55c0 .5.2 1.02.78 1.02.57 0 .78-.51.78-1.02 0-.52-.2-1.03-.78-1.03-.58 0-.78.51-.78 1.03Zm2.05 0a1.36 1.36 0 0 1-.34.99 1.28 1.28 0 0 1-.93.42c-.36 0-.7-.15-.96-.42a1.44 1.44 0 0 1 0-2c.25-.26.6-.4.96-.4a1.23 1.23 0 0 1 .93.41 1.32 1.32 0 0 1 .34 1ZM316.85 262.46h.78a.4.4 0 0 0 .34-.12.44.44 0 0 0 .12-.35c0-.34-.25-.38-.46-.38h-.78v.85Zm-.45-1.24h1.28c.57 0 .86.26.86.73 0 .15-.03.3-.12.42a.66.66 0 0 1-.33.26c.12.02.23.1.3.2.09.1.12.23.1.36-.01.25.03.5.13.72h-.5a1.21 1.21 0 0 1-.03-.38c0-.51-.13-.73-.54-.73h-.7v1.11h-.45v-2.69ZM323.27 261.22h.46v1.24l1.15-1.24h.57l-1.02 1.07 1.1 1.62h-.57l-.86-1.28-.37.39v.9h-.46v-2.7ZM330.31 263.02c0 .42.29.6.66.6.37 0 .58-.22.58-.43a.35.35 0 0 0-.05-.2.33.33 0 0 0-.16-.14l-.78-.22a.65.65 0 0 1-.41-.23.7.7 0 0 1-.17-.45c0-.56.46-.81.95-.81.5 0 .99.3.99.85h-.46c0-.34-.24-.47-.57-.47-.33 0-.45.09-.45.34 0 .26.12.3.28.39l.79.21c.14.04.27.13.36.25a.7.7 0 0 1 .13.44c0 .6-.54.85-1.03.85-.5 0-1.11-.3-1.11-.98h.45Z"/><path fill="#2D8CFF" fill-rule="evenodd" d="M307.12 68.93c.26.47.4 1 .41 1.55v7.14a2.44 2.44 0 0 0 2.32 2.32h.77v-9.46a3.15 3.15 0 0 1 4.69-2.74c.48.3.88.71 1.19 1.2.21.48.33 1 .35 1.54v7.14a2.44 2.44 0 0 0 2.32 2.32h.83v-9.46a6.37 6.37 0 0 0-6.3-6.3 6.22 6.22 0 0 0-4.74 2.14 6.24 6.24 0 0 0-4.75-2.15 6.4 6.4 0 0 0-3.5 1.07 4.69 4.69 0 0 0-2.8-1.07v15.77h.77a2.32 2.32 0 0 0 2.32-2.32v-7.14a3.06 3.06 0 0 1 1.88-2.93c.38-.16.8-.23 1.2-.22a3.08 3.08 0 0 1 2.74 1.6h.3ZM253.2 79.94h12.58v-.77a2.38 2.38 0 0 0-2.31-2.32h-7.96l9.5-9.46v-.78a2.38 2.38 0 0 0-2.31-2.32H250v.78a2.44 2.44 0 0 0 2.32 2.32h7.9l-9.45 9.46v.83a2.5 2.5 0 0 0 2.38 2.32l.06-.06ZM295 66.49a7.92 7.92 0 0 1 0 11.19 8 8 0 0 1-11.17 0 7.92 7.92 0 0 1 8.6-13 7.9 7.9 0 0 1 2.56 1.81Zm-2.26 2.2a4.77 4.77 0 0 1-3.33 8.11 4.68 4.68 0 0 1-3.32-1.38 4.77 4.77 0 0 1 3.32-8.11 4.69 4.69 0 0 1 3.33 1.39Zm-19.9-4.52a7.89 7.89 0 0 1 7.75 9.46 7.91 7.91 0 0 1-2.16 4.05 7.88 7.88 0 0 1-13-5.74 7.93 7.93 0 0 1 1.9-5.45 7.65 7.65 0 0 1 5.52-2.32Zm3.4 4.53a4.76 4.76 0 0 1-6 7.32 4.76 4.76 0 1 1 6-7.32Z" clip-rule="evenodd"/><path fill="#FEE200" d="m144 15.17 4.26-4.17h11.69a1.1 1.1 0 0 1 .78.32 1.06 1.06 0 0 1 .3.78v3.07H144Z"/><path fill="#81487D" d="m161.03 23.5-3.17 4.16h-9.6V23.5h12.77Z"/><path fill="#EE8208" d="M161.03 15.17h-12.77v4.16h12.77v-4.16Z"/><path fill="#E15802" d="M148.26 15.17H144v4.16h4.26v-4.16Z"/><path fill="#D33300" d="M161.03 19.33h-12.77v4.17h12.77v-4.17Z"/><path fill="#B83106" d="M148.26 19.33H144v4.17h4.26v-4.17Z"/><path fill="#6A3967" d="M144 23.5h4.26v4.16h-3.22c-.27 0-.54-.1-.73-.3-.2-.19-.31-.45-.31-.72V23.5Z"/><path fill="#0364B8" d="m183.65 15.53 5.28 3.17 3.16-1.34a5.02 5.02 0 0 1 2.04-.42h.35a7.93 7.93 0 0 0-10.8-5.29c-1.4.61-2.6 1.61-3.44 2.89h.07c1.18 0 2.34.35 3.34.99Z"/><path fill="#0078D4" d="M183.65 15.53c-1-.63-2.16-.96-3.34-.96h-.07a6.28 6.28 0 0 0-6.23 6.4 6.8 6.8 0 0 0 1.13 3.55l4.68-1.97 2.07-.88 4.65-1.94 2.39-1.03-5.28-3.17Z"/><path fill="#1490DF" d="M194.48 16.97h-.35c-.7 0-1.4.14-2.04.43l-3.16 1.34.91.53 3.03 1.83 1.3.78 4.46 2.68a5.14 5.14 0 0 0-4.15-7.55v-.04Z"/><path fill="#28A8EA" d="m194.17 21.84-1.3-.77-3.03-1.84-.91-.53-2.4 1.03-4.64 1.94-2.07.88-4.68 1.97a6.37 6.37 0 0 0 5.17 2.72h13.82a5.12 5.12 0 0 0 4.5-2.72l-4.46-2.68Z"/><path fill="#036C70" d="M224.1 24.25a6.73 6.73 0 0 0 6.83-6.62A6.73 6.73 0 0 0 224.1 11a6.73 6.73 0 0 0-6.82 6.63 6.73 6.73 0 0 0 6.82 6.62Z"/><path fill="#1A9BA1" d="M230.5 29.2a5.78 5.78 0 0 0 5.86-5.7c0-3.14-2.62-5.69-5.86-5.69a5.78 5.78 0 0 0-5.87 5.7c0 3.14 2.63 5.69 5.87 5.69Z"/><path fill="#37C6D0" d="M224.82 33.35a4.6 4.6 0 0 0 4.67-4.52 4.6 4.6 0 0 0-4.67-4.53 4.6 4.6 0 0 0-4.66 4.53 4.6 4.6 0 0 0 4.66 4.52Z"/><path fill="#000" d="M225.3 15.9h-7.83a6.44 6.44 0 0 0 .65 5.05 6.7 6.7 0 0 0 4.16 3.12c.6.15 1.2.22 1.82.23h.58a4.73 4.73 0 0 0-3.24 1.36 4.46 4.46 0 0 0-1.33 3.17v.37h5.2c.25-.01.48-.11.66-.29.18-.17.28-.4.3-.64V16.83a.97.97 0 0 0-.3-.64 1.02 1.02 0 0 0-.66-.29Z" opacity=".1"/><path fill="#000" d="M224.59 16.6h-7.26a6.38 6.38 0 0 0 1.19 4.96A6.7 6.7 0 0 0 223 24.2l1.1.09h.58a4.78 4.78 0 0 0-3.29 1.4 4.5 4.5 0 0 0-1.28 3.27c0 .31.05.63.15.93h4.33c.25-.01.48-.11.66-.29.18-.17.28-.4.3-.64V17.53a.97.97 0 0 0-.3-.64 1.02 1.02 0 0 0-.66-.29Z" opacity=".2"/><path fill="#000" d="M224.59 16.6h-7.26a6.38 6.38 0 0 0 1.19 4.96A6.7 6.7 0 0 0 223 24.2l1.1.09h.58a4.79 4.79 0 0 0-3.11 1.25 4.52 4.52 0 0 0-1.46 2.95h4.47c.26-.01.5-.11.67-.29.18-.17.28-.4.3-.64V17.53a.97.97 0 0 0-.3-.64 1.02 1.02 0 0 0-.66-.29Z" opacity=".2"/><path fill="#000" d="M223.86 16.6h-6.53a6.38 6.38 0 0 0 1.19 4.96A6.7 6.7 0 0 0 223 24.2l1.1.09h.58a4.79 4.79 0 0 0-3.11 1.25 4.52 4.52 0 0 0-1.46 2.95h3.75c.25-.01.5-.11.67-.29.18-.17.28-.4.3-.64V17.53a.97.97 0 0 0-.3-.64 1.02 1.02 0 0 0-.67-.29Z" opacity=".2"/><path fill="#03787C" d="M214.25 16.6h9.61c.26 0 .5.1.68.27.18.18.28.42.28.66v9.34c0 .24-.1.48-.28.66a.98.98 0 0 1-.68.27h-9.61c-.26 0-.5-.1-.68-.27a.92.92 0 0 1-.28-.66v-9.34c0-.24.1-.48.28-.66a.98.98 0 0 1 .68-.27Z"/><path fill="#fff" d="M217.37 22.06a1.9 1.9 0 0 1-.62-.6c-.14-.27-.2-.56-.2-.85.02-.38.15-.76.4-1.07.28-.28.62-.5 1-.65a6.28 6.28 0 0 1 3.22.04v1.26l-.82-.32a3.21 3.21 0 0 0-.96-.1c-.34-.03-.7.04-1 .19a.62.62 0 0 0-.3.24.6.6 0 0 0-.1.37.5.5 0 0 0 .15.37l.48.33.82.37h.15c.36.14.72.31 1.05.51.27.14.48.35.63.61.17.28.26.6.24.93.04.4-.08.8-.34 1.12-.26.3-.6.52-.96.66-.45.13-.92.19-1.4.18l-1.24-.09-1.01-.28v-1.35c.31.22.67.38 1.05.46.36.14.73.2 1.11.19.35.02.7-.06 1-.23.12-.05.2-.13.27-.23.06-.1.09-.22.08-.33a.6.6 0 0 0-.2-.47l-.53-.37-1-.42-.97-.52v.05Z"/><path fill="#7B83EB" d="M264.94 19.63c2.1 0 3.8-1.7 3.8-3.78a3.8 3.8 0 0 0-3.8-3.78c-2.1 0-3.8 1.7-3.8 3.78 0 2.09 1.7 3.78 3.8 3.78Z"/><path fill="#000" d="M264.69 16.67h-3.4a3.78 3.78 0 0 0 4.47 2.75v-1.78a1.07 1.07 0 0 0-1.07-.97Z" opacity=".1"/><use xlink:href="#reuse-0" opacity=".2"/><path fill="#5059C9" d="M273.47 19.83a2.82 2.82 0 0 0 2.83-2.8c0-1.56-1.26-2.81-2.83-2.81a2.82 2.82 0 0 0-2.82 2.8c0 1.55 1.26 2.81 2.82 2.81ZM275.94 20.7h-6.37a.52.52 0 0 0-.4.13.5.5 0 0 0-.17.38v6.53a4.1 4.1 0 0 0 7.45 2.43c.3-.44.51-.94.62-1.46.05-.27.06-.54.05-.81v-6.03a1.17 1.17 0 0 0-1.18-1.17Z"/><path fill="#7B83EB" d="M271.47 21.87v7.66a6.45 6.45 0 0 1-4.82 6.2 6.57 6.57 0 0 1-7.72-3.75c-.11-.26-.2-.54-.26-.82a5.67 5.67 0 0 1-.2-1.63v-7.66a1.16 1.16 0 0 1 .76-1.1c.15-.05.31-.08.47-.07h10.54a1.19 1.19 0 0 1 1.23 1.17Z"/><use xlink:href="#reuse-0" opacity=".2"/><path fill="#000" d="M265.76 20.7v10.2a1.02 1.02 0 0 1-.82 1.03h-6.01c-.11-.27-.2-.54-.26-.82a5.67 5.67 0 0 1-.2-1.63v-7.66a1.16 1.16 0 0 1 .76-1.1c.15-.05.31-.08.47-.07h6.06v.05Z" opacity=".1"/><path fill="#000" d="M264.94 20.7v11.23a1.07 1.07 0 0 1-1.08.87h-4.52a5.97 5.97 0 0 1-.87-3.27v-7.66a1.16 1.16 0 0 1 .76-1.1c.15-.05.31-.08.47-.07h5.24Z" opacity=".2"/><path fill="#000" d="M264.94 20.7v9.4a1.07 1.07 0 0 1-1.08 1.06h-5.19a5.67 5.67 0 0 1-.2-1.63v-7.66a1.16 1.16 0 0 1 .76-1.1c.15-.05.31-.08.47-.07h5.24Z" opacity=".2"/><path fill="#000" d="M259.7 20.7a1.2 1.2 0 0 0-1.14.71c-.06.15-.1.3-.1.46v7.66c0 .55.06 1.1.21 1.63h4.42a1.08 1.08 0 0 0 1-.66c.05-.13.08-.27.08-.4v-9.4h-4.47Z" opacity=".2"/><path fill="#4B53BC" d="M252.25 17.43h10.79a1.13 1.13 0 0 1 1.13 1.07v10.77a1.06 1.06 0 0 1-.33.78 1.08 1.08 0 0 1-.8.3h-10.8a1.08 1.08 0 0 1-1.07-1.08V18.5c0-.28.11-.55.31-.75.2-.2.48-.32.77-.32Z"/><path fill="#fff" d="M260.88 21.46h-2.41v6.49h-1.6v-6.49h-2.46v-1.58h6.47v1.58Z"/><path fill="#C10053" d="m296.6 35 19.46-12c-6.47-4.03-12.95-8.03-19.45-12v8.84a.23.23 0 0 0 .13.23l3.07 2.29.88.64-.14.1-3.8 2.79a.32.32 0 0 0-.14.27V35Zm-6.5-16.76v9.53l6.46-4.77-6.45-4.76Z"/><path fill="#C10053" d="M296.6 35v-8.84c0-.05.01-.1.04-.15a.32.32 0 0 1 .1-.12l3.81-2.8.14-.09-.88-.64-3.06-2.29a.23.23 0 0 1-.14-.23V11c6.5 3.97 12.98 7.97 19.45 12l-19.45 12Z"/><path fill="#1A5ABD" d="m330.43 22.87 7.5 7.37a2 2 0 0 0 2.78 0l2.49-2.44a1.9 1.9 0 0 0 0-2.73l-7.5-7.37a2 2 0 0 0-2.78 0l-2.49 2.44a1.9 1.9 0 0 0 0 2.73Z"/><path fill="#45A9EF" d="M348.11 12.37 335.34 24.9a1.9 1.9 0 0 0 0 2.73l2.72 2.67a2 2 0 0 0 2.78 0l12.77-12.55a1.9 1.9 0 0 0 0-2.73l-2.72-2.66a2 2 0 0 0-2.78 0Z"/><path fill="#359051" d="m220.4 111 2.97 5.48 2.96-5.48h-5.92Z"/><path fill="#EA4334" d="m227.07 123.52 2.97 5.48 2.96-5.48h-5.93Z"/><path fill="#0266D9" d="m213 123.52 2.96 5.48 2.97-5.48H213Z"/><path fill="#34A852" d="M213 123.52h5.93l4.44-7.04-2.96-5.48-7.41 12.52Z"/><path fill="#FFBA00" d="m223.37 116.48 3.7 7.04H233L226.33 111"/><path fill="#4285F4" d="M215.96 129h14.08l-2.97-5.48h-8.14l-2.97 5.48ZM248.29 129H244v-13.71l4.29 4.28V129Z"/><path fill="#34A852" d="M259.71 129H264v-13.71l-4.29 4.28V129Z"/><path fill="#FBBC06" d="M259.71 119.57v-6c.02-.67.25-1.31.65-1.8.4-.47.93-.75 1.5-.77.56 0 1.11.27 1.51.75.4.48.63 1.14.63 1.82v1.72l-4.29 4.28Z"/><path fill="#C5221F" d="M248.29 119.57 244 115.3v-1.72c.02-.67.25-1.31.65-1.8.4-.47.93-.75 1.5-.77.56 0 1.1.27 1.5.75.41.48.64 1.14.64 1.82v6Z"/><path fill="#EA4334" d="m259.71 119.57-5.71 5.14-5.71-5.14v-6l5.71 5.14 5.71-5.14v6ZM276.41 111h3.57v14.25H275v-12.97c0-.34.15-.67.41-.9a1.5 1.5 0 0 1 1-.38Z"/><path fill="#FBBC06" d="M294.92 115.5h-4.98v9.75h4.98v-9.75Z"/><path fill="#0266D9" d="M295 115.58h-4.98v-4.5h3.57c.37 0 .73.13 1 .37.26.24.41.56.41.9v3.23Z"/><path fill="#359051" d="M279.98 125.25H275V129h4.98v-3.75ZM292.43 127.5l-2.5 1.5v-3.75h4.99l-2.5 2.25Z"/><path fill="#34A852" d="M289.94 125.25h-9.96V129h9.96v-3.75Z"/><path fill="#4285F4" d="M289.94 111h-9.96v3.75h9.96V111Z"/><path fill="#FBBC06" d="M307.98 111h3.65v14.54H305v-12.67c0-.5.31-.97.87-1.32a4.06 4.06 0 0 1 2.11-.55ZM326 115.85h-7.74v9.69H326v-9.7Z"/><path fill="#FBBC06" d="M308.32 111.07v4.85h9.94v-4.85h-9.94Z"/><path fill="#0266D9" d="M326 125.54h-7.74V129H326v-3.46Z"/><path fill="#02AD46" d="M318.26 125.54h-6.63V129h6.63v-3.46Z"/><path fill="#00832E" d="M305 125.54h6.63V129h-4.97c-.44 0-.86-.1-1.17-.3-.31-.2-.49-.46-.49-.74v-2.42Z"/><path fill="#EA4334" d="m318.26 111 7.74 4.85h-7.74V111Z"/><path fill="#2684FC" d="M340 115.9h-4v8.2h4v-8.2Z"/><path fill="#0266D9" d="M340 124.1h-4v4.9h4v-4.9Z"/><path fill="#FBBC06" d="M350.67 111h-4v9h4v-9Z"/><path fill="#02AD46" d="M350.67 120h-4v9h4v-9Z"/><path fill="#FFBA00" d="M346.73 115.9V111h-6.66v4.9h6.66Z"/><path fill="#02AD46" d="M346.73 129v-4.9h-6.66v4.9h6.66Z"/><path fill="#00832E" d="m347.2 120.57 7.27 6.3c.15.12.32.19.5.2.19 0 .36-.06.52-.17.16-.1.29-.27.38-.46.09-.2.13-.4.13-.63v-11.54c0-.22-.04-.44-.13-.63-.09-.2-.22-.35-.38-.46a.86.86 0 0 0-.51-.16.87.87 0 0 0-.51.19l-7.27 6.3a.65.65 0 0 0-.16.23.79.79 0 0 0 0 .6c.03.1.1.17.16.23Z" opacity=".85"/><path fill="#EA4334" d="m336 115.9 4-4.9v4.9h-4Z"/><path fill="#000" d="M59.7 20.34c0-1.16.17-2.14.52-2.93.26-.59.61-1.11 1.06-1.57.45-.47.95-.81 1.49-1.04.7-.3 1.53-.45 2.46-.45 1.7 0 3.04.53 4.05 1.57 1.02 1.05 1.52 2.5 1.52 4.37 0 1.85-.5 3.3-1.5 4.34a5.34 5.34 0 0 1-4.03 1.57 5.4 5.4 0 0 1-4.07-1.56c-1-1.04-1.5-2.47-1.5-4.3Zm2.38-.07c0 1.3.3 2.28.9 2.95.6.67 1.36 1 2.28 1a2.9 2.9 0 0 0 2.26-1c.6-.66.9-1.66.9-2.99 0-1.3-.3-2.29-.87-2.93a2.9 2.9 0 0 0-2.3-.97c-.95 0-1.71.33-2.3.98-.58.65-.87 1.64-.87 2.96Zm9.8-2.57h1.22v-.62c0-.7.07-1.22.22-1.56.15-.35.42-.63.82-.84.4-.22.9-.33 1.51-.33.63 0 1.24.1 1.84.28l-.3 1.53a4.33 4.33 0 0 0-1-.12c-.32 0-.55.07-.7.23-.13.14-.2.43-.2.85v.58h1.65v1.73h-1.65V26h-2.2v-6.57h-1.2V17.7Zm5.57 0h1.22v-.62c0-.7.07-1.22.22-1.56.15-.35.42-.63.82-.84.4-.22.9-.33 1.51-.33.63 0 1.24.1 1.84.28l-.3 1.53a4.33 4.33 0 0 0-1-.12c-.32 0-.55.07-.7.23-.13.14-.2.43-.2.85v.58h1.64v1.73h-1.64V26h-2.2v-6.57h-1.21V17.7Zm6.53-1.12v-2.03h2.2v2.03h-2.2Zm0 9.42v-8.3h2.2V26h-2.2Zm11.93-5.84-2.17.39a1.56 1.56 0 0 0-.5-.98 1.48 1.48 0 0 0-1-.33c-.55 0-.98.2-1.31.57-.32.38-.49 1-.49 1.9 0 .98.17 1.67.5 2.08.33.4.78.6 1.33.6.42 0 .76-.1 1.03-.34.26-.24.45-.65.56-1.23l2.15.37a3.83 3.83 0 0 1-1.28 2.24c-.64.5-1.5.76-2.56.76a3.81 3.81 0 0 1-2.9-1.15 4.46 4.46 0 0 1-1.08-3.18c0-1.37.36-2.44 1.08-3.2a3.85 3.85 0 0 1 2.94-1.14c1.01 0 1.81.21 2.4.65.6.43 1.03 1.1 1.3 1.99Zm6.71 3.2 2.19.37a3.6 3.6 0 0 1-1.34 1.83c-.6.42-1.36.63-2.27.63-1.44 0-2.51-.47-3.2-1.42a4.75 4.75 0 0 1-.82-2.86c0-1.37.36-2.45 1.07-3.22a3.54 3.54 0 0 1 2.73-1.17c1.24 0 2.21.4 2.92 1.22.72.81 1.06 2.06 1.03 3.74h-5.5c.01.66.19 1.16.53 1.53.34.36.76.54 1.26.54.35 0 .64-.1.87-.28.23-.2.41-.5.53-.91Zm.13-2.22c-.02-.63-.18-1.12-.5-1.44a1.5 1.5 0 0 0-1.14-.5c-.47 0-.87.17-1.18.52-.32.35-.47.82-.46 1.42h3.28Zm3.67 1.82 2.12-.26c.07.54.25.96.55 1.25.3.28.66.43 1.08.43.45 0 .83-.18 1.14-.52.31-.34.47-.8.47-1.4 0-.54-.15-.98-.45-1.3-.3-.33-.66-.49-1.08-.49-.29 0-.62.06-1.01.17l.24-1.8c.6.02 1.05-.1 1.36-.38.31-.27.47-.64.47-1.09 0-.39-.12-.7-.35-.92a1.23 1.23 0 0 0-.91-.35c-.38 0-.7.13-.96.4-.27.26-.43.64-.49 1.14l-2.02-.35c.14-.7.35-1.24.63-1.65.29-.42.69-.75 1.2-.98a3.98 3.98 0 0 1 1.7-.36 3.4 3.4 0 0 1 2.6 1.03c.53.56.8 1.2.8 1.9 0 1.01-.55 1.81-1.65 2.41.66.14 1.18.46 1.57.95.4.49.6 1.08.6 1.77 0 1-.37 1.86-1.1 2.57a3.8 3.8 0 0 1-2.75 1.07c-1.03 0-1.9-.3-2.58-.9a3.53 3.53 0 0 1-1.18-2.34Zm16.66-5.6-2.13.23c-.05-.44-.18-.76-.4-.97-.22-.21-.5-.32-.85-.32-.47 0-.86.21-1.18.63-.32.42-.52 1.28-.6 2.6a2.57 2.57 0 0 1 2.03-.97c.92 0 1.7.35 2.36 1.05.65.7.98 1.6.98 2.7 0 1.17-.34 2.11-1.03 2.82a3.53 3.53 0 0 1-2.65 1.07c-1.16 0-2.1-.45-2.85-1.35-.75-.9-1.12-2.37-1.12-4.42 0-2.1.39-3.61 1.17-4.54a3.76 3.76 0 0 1 3.02-1.39c.87 0 1.59.24 2.16.73a3.4 3.4 0 0 1 1.09 2.12Zm-4.98 4.78c0 .71.17 1.27.5 1.66.32.38.7.57 1.12.57.4 0 .74-.15 1.02-.47.27-.32.4-.84.4-1.56 0-.75-.14-1.3-.44-1.64-.29-.35-.65-.52-1.09-.52-.42 0-.78.17-1.07.5-.3.33-.44.81-.44 1.46Zm6.72.91 2.19-.22c.06.5.24.89.55 1.18a1.51 1.51 0 0 0 2.23-.13c.31-.37.47-.93.47-1.68 0-.7-.16-1.23-.47-1.58a1.56 1.56 0 0 0-1.23-.53c-.63 0-1.2.27-1.7.83l-1.78-.26 1.13-5.96h5.8v2.06h-4.14l-.34 1.94c.49-.24.99-.36 1.5-.36.97 0 1.8.35 2.48 1.06.67.7 1.01 1.63 1.01 2.76 0 .94-.27 1.78-.82 2.52a3.64 3.64 0 0 1-3.1 1.52 3.85 3.85 0 0 1-2.59-.86 3.51 3.51 0 0 1-1.2-2.29Z"/><g clip-path="url(#i)"><path fill="url(#j)" d="m27.28.98-.21.13c-.34.2-.66.44-.96.69l.61-.44h5.23l.95 7.23-4.75 4.77-4.75 3.32v3.83a7.64 7.64 0 0 0 3.66 6.53l5 3.04-10.56 6.2h-2.04l-3.8-2.32A7.64 7.64 0 0 1 12 27.43V14.57c0-2.68 1.4-5.15 3.67-6.54l11.4-6.93.21-.12Z"/><path fill="url(#k)" d="m27.28.98-.21.13c-.34.2-.66.44-.96.69l.61-.44h5.23l.95 7.23-4.75 4.77-4.75 3.32v3.83a7.64 7.64 0 0 0 3.66 6.53l5 3.04-10.56 6.2h-2.04l-3.8-2.32A7.64 7.64 0 0 1 12 27.43V14.57c0-2.68 1.4-5.15 3.67-6.54l11.4-6.93.21-.12Z"/><path fill="url(#l)" d="M38.6 16.23v4.27a7.64 7.64 0 0 1-3.66 6.54l-11.4 6.93a7.57 7.57 0 0 1-7.61.15l11.13 6.78a7.57 7.57 0 0 0 7.88 0l11.4-6.94A7.64 7.64 0 0 0 50 27.43v-3.09l-.95-1.43-10.45-6.68Z"/><path fill="url(#m)" d="M38.6 16.23v4.27a7.64 7.64 0 0 1-3.66 6.54l-11.4 6.93a7.57 7.57 0 0 1-7.61.15l11.13 6.78a7.57 7.57 0 0 0 7.88 0l11.4-6.94A7.64 7.64 0 0 0 50 27.43v-3.09l-.95-1.43-10.45-6.68Z"/><path fill="url(#n)" d="M46.33 8.03 34.93 1.1A7.57 7.57 0 0 0 27.3.97l-.22.14a7.64 7.64 0 0 0-3.67 6.53v9.06l3.67-2.23a7.57 7.57 0 0 1 7.86 0l11.4 6.93A7.64 7.64 0 0 1 50 27.43V14.57c0-2.68-1.4-5.15-3.67-6.54Z"/><path fill="url(#o)" d="M46.33 8.03 34.93 1.1A7.57 7.57 0 0 0 27.3.97l-.22.14a7.64 7.64 0 0 0-3.67 6.53v9.06l3.67-2.23a7.57 7.57 0 0 1 7.86 0l11.4 6.93A7.64 7.64 0 0 1 50 27.43V14.57c0-2.68-1.4-5.15-3.67-6.54Z"/></g><defs><linearGradient id="a" x1="27.51" x2="27.51" y1="198.25" y2="159.24" gradientUnits="userSpaceOnUse"><stop stop-color="#911A1E"/><stop offset="1" stop-color="#D61E25"/></linearGradient><linearGradient id="c" x1="274.86" x2="248.93" y1="200.65" y2="184.94" gradientUnits="userSpaceOnUse"><stop offset=".18" stop-color="#0052CC"/><stop offset="1" stop-color="#2684FF"/></linearGradient><linearGradient id="d" x1="107668" x2="108122" y1="211219" y2="211768" gradientUnits="userSpaceOnUse"><stop offset=".18" stop-color="#0052CC"/><stop offset="1" stop-color="#2684FF"/></linearGradient><linearGradient id="e" x1="1075.06" x2="938.21" y1="8759.94" y2="8851.47" gradientUnits="userSpaceOnUse"><stop offset=".18" stop-color="#0052CC"/><stop offset="1" stop-color="#2684FF"/></linearGradient><linearGradient id="f" x1="1114.43" x2="1250.91" y1="9204.67" y2="9113.39" gradientUnits="userSpaceOnUse"><stop offset=".18" stop-color="#0052CC"/><stop offset="1" stop-color="#2684FF"/></linearGradient><linearGradient id="g" x1="247.65" x2="247.65" y1="215.73" y2="272.68" gradientUnits="userSpaceOnUse"><stop stop-color="#0091E6"/><stop offset="1" stop-color="#0079BF"/></linearGradient><linearGradient id="k" x1="24.84" x2="20.28" y1="34.24" y2="26.4" gradientUnits="userSpaceOnUse"><stop stop-color="#114A8B"/><stop offset="1" stop-color="#0078D4" stop-opacity="0"/></linearGradient><linearGradient id="m" x1="46.54" x2="41.66" y1="22.31" y2="29.27" gradientUnits="userSpaceOnUse"><stop stop-color="#493474"/><stop offset="1" stop-color="#8C66BA" stop-opacity="0"/></linearGradient><linearGradient id="o" x1="24.33" x2="31.46" y1="1.01" y2="1.01" gradientUnits="userSpaceOnUse"><stop stop-color="#2D3F80"/><stop offset="1" stop-color="#436DCD" stop-opacity="0"/></linearGradient><radialGradient id="b" cx="0" cy="0" r="1" gradientTransform="matrix(17 0 0 16 104.57 172.7)" gradientUnits="userSpaceOnUse"><stop stop-color="#FFB900"/><stop offset=".6" stop-color="#F95D8F"/><stop offset="1" stop-color="#F95353"/></radialGradient><radialGradient id="j" cx="0" cy="0" r="1" gradientTransform="matrix(-11 30 -52 -19 24.75 8.25)" gradientUnits="userSpaceOnUse"><stop offset=".06" stop-color="#AE7FE2"/><stop offset="1" stop-color="#0078D4"/></radialGradient><radialGradient id="l" cx="0" cy="0" r="1" gradientTransform="matrix(29 -4 3 19 18.1 32.79)" gradientUnits="userSpaceOnUse"><stop offset=".13" stop-color="#D59DFF"/><stop offset="1" stop-color="#5E438F"/></radialGradient><radialGradient id="n" cx="0" cy="0" r="1" gradientTransform="matrix(-23 -6 10 -39 47.2 23.39)" gradientUnits="userSpaceOnUse"><stop offset=".06" stop-color="#50E6FF"/><stop offset="1" stop-color="#436DCD"/></radialGradient><clipPath id="i"><path fill="#fff" d="M12 0h38v42H12z"/></clipPath><pattern id="h" width="1" height="1" patternContentUnits="objectBoundingBox"><use xlink:href="#p" transform="scale(0)"/></pattern></defs></svg>