<svg xmlns="http://www.w3.org/2000/svg" xmlns:xlink="http://www.w3.org/1999/xlink" fill="none" viewBox="0 0 357 269"><defs><path id="reuse-0" fill="#000" d="M265.9 20.4h-2.3a3.7 3.7 0 0 0 3.3 2.2v-1.1a1 1 0 0 0-1-1Z" opacity=".2"/></defs><path fill="#EB3C00" d="m5 35.4.2-26.8L29 0l13 4.2-.2 36-13 3.8L5 35.4l23.8 3L29 7.1l-15.6 3.5v21.1L5 35.4Z"/><path fill="#5F6368" d="M105.5 112.7h2.2l-4.3 15.8h-2.1l-3.4-10.4-3.5 10.4h-2l-4.5-15.8h2.2l3.3 12.5 3.5-10.3h2l3.3 10.3h.2l3.1-12.5ZM107.5 123.2a5.5 5.5 0 0 1 1.6-4.2 5.3 5.3 0 0 1 4-1.6 5 5 0 0 1 4 1.6 5.6 5.6 0 0 1 1.5 4.2 5.5 5.5 0 0 1-3.4 5.3c-.7.3-1.4.4-2.1.4a5.5 5.5 0 0 1-5.6-5.7Zm2 0c0 1 .3 2 1 2.8a3.2 3.2 0 0 0 2.6 1 3.4 3.4 0 0 0 2.5-1 4 4 0 0 0 1-2.8 3.8 3.8 0 0 0-2.1-3.7 3.5 3.5 0 0 0-2.8 0c-.5.2-.9.5-1.2.9a3.8 3.8 0 0 0-1 2.8M122.1 128.5h-2v-10.8h2v1.8a3 3 0 0 1 1.3-1.5 3.7 3.7 0 0 1 3.4-.3l-.6 2-1.2-.2a2.6 2.6 0 0 0-2 1 3 3 0 0 0-.9 2v6ZM137.3 128.5h-2.5l-3.3-5-1.7 1.6v3.4h-2v-15.8h2v9.7l4.7-4.7h2.6v.1L133 122l4.4 6.4v.1Z"/><path fill="#5F6368" d="M146.1 125.6a3 3 0 0 1-1.2 2.4c-.9.6-2 1-3.1.9a4.9 4.9 0 0 1-4.6-3l1.8-.9a3 3 0 0 0 2.8 2c.6.1 1.1 0 1.6-.3a1.1 1.1 0 0 0 .7-1c0-.7-.6-1.2-1.6-1.5l-2-.5c-2-.5-3-1.6-3-3a2.6 2.6 0 0 1 1.1-2.4c1-.6 2-1 3.1-1 1 0 1.8.3 2.6.7.8.5 1.4 1.1 1.7 2l-1.9.6a2 2 0 0 0-1-1c-.4-.3-1-.5-1.5-.4-.5 0-1 .1-1.4.4a1.1 1.1 0 0 0-.7 1c0 .6.6 1 1.8 1.2l1.6.5c2.2.5 3.2 1.6 3.2 3.3M153.2 128.9c-.7 0-1.5-.2-2.2-.6-.6-.2-1-.7-1.4-1.3h-.2l.2 1.5v4.8h-2.1v-15.6h2v1.5c.4-.5 1-1 1.5-1.3a5 5 0 0 1 6 1.1 6.2 6.2 0 0 1 0 8.2 4.7 4.7 0 0 1-3.8 1.7Zm-.3-1.9a3.2 3.2 0 0 0 2.5-1 4.4 4.4 0 0 0 0-5.6 3.3 3.3 0 0 0-5 0 4.4 4.4 0 0 0 0 5.6 3.3 3.3 0 0 0 2.5 1M164 117.4c1.3 0 2.6.3 3.6 1.2a4.2 4.2 0 0 1 1.3 3.3v6.6h-2V127a3.7 3.7 0 0 1-3.4 1.9c-1.1 0-2.2-.4-3-1a3.3 3.3 0 0 1-1.2-2.7 3.3 3.3 0 0 1 1.2-2.7 6.6 6.6 0 0 1 6.4-.3v-.5a2.3 2.3 0 0 0-.8-1.8c-.5-.5-1.2-.8-2-.8a3.3 3.3 0 0 0-2.7 1.5l-1.8-1.2a5.2 5.2 0 0 1 4.4-2Zm-2.6 7.8a1.5 1.5 0 0 0 .7 1.4c.4.3 1 .5 1.5.5.9 0 1.7-.4 2.4-1 .6-.5 1-1.3 1-2.2-.8-.5-1.8-.8-2.7-.7-.8 0-1.5.1-2 .6a1.6 1.6 0 0 0-.9 1.4M175.8 128.9a5.3 5.3 0 0 1-4-1.6 5.8 5.8 0 0 1-1.6-4.1 5.5 5.5 0 0 1 1.6-4.2 5 5 0 0 1 4-1.6 5 5 0 0 1 4.7 3.1l-1.8.7a3.1 3.1 0 0 0-3-2 3.2 3.2 0 0 0-2.4 1.2 4 4 0 0 0-1 2.7c0 1 .3 2 1 2.8a3.2 3.2 0 0 0 2.4 1.1 3.2 3.2 0 0 0 3.1-2l1.8.8a5.1 5.1 0 0 1-4.8 3M186.8 128.9a5 5 0 0 1-4-1.6 5.7 5.7 0 0 1-1.5-4.1 5.8 5.8 0 0 1 3.3-5.4 5 5 0 0 1 2.1-.4 5 5 0 0 1 3.8 1.5c1 1.2 1.6 2.8 1.5 4.4v.2h-8.6a3.3 3.3 0 0 0 1.1 2.6 3.2 3.2 0 0 0 2.4 1 3.4 3.4 0 0 0 3-2l1.9 1c-.5.8-1.2 1.5-2 2a6 6 0 0 1-3 .8Zm-3.2-7h6.2c0-.8-.4-1.4-1-2a3 3 0 0 0-2.2-.7 3 3 0 0 0-2 .7c-.5.5-1 1.2-1 2"/><path fill="#4285F4" d="M20.2 121.6v-2.4h8.2c.1.5.2 1 .1 1.5.1 2.1-.6 4.1-2 5.7a8.5 8.5 0 0 1-6.3 2.5 9.2 9.2 0 0 1-9.2-9 9 9 0 0 1 9.2-8.9 8.6 8.6 0 0 1 6.1 2.5l-1.7 1.7a6.2 6.2 0 0 0-4.5-1.7 6.6 6.6 0 0 0-5.9 6.4 6.5 6.5 0 0 0 5.9 6.5 6 6 0 0 0 4.6-1.7c.7-.9 1.2-2 1.3-3h-5.8Z"/><path fill="#EA4335" d="M41 123.2a5.8 5.8 0 0 1-3.6 5.3 5.9 5.9 0 0 1-7.9-4.2 5.7 5.7 0 0 1 2.5-6c1-.6 2.1-1 3.3-1a5.7 5.7 0 0 1 5.4 3.6c.3.7.4 1.5.4 2.3Zm-2.5 0a3.3 3.3 0 0 0-2-3.2l-1.2-.4a3.6 3.6 0 0 0-3 3.5 3.5 3.5 0 0 0 3 3.5 3.4 3.4 0 0 0 3-2.2c.2-.4.2-.8.2-1.2Z"/><path fill="#FBBC04" d="M53.8 123.2a5.8 5.8 0 0 1-3.6 5.3 5.9 5.9 0 0 1-8-4.2 5.7 5.7 0 0 1 2.5-6 5.8 5.8 0 0 1 5.5-.5 5.8 5.8 0 0 1 3.6 5.4Zm-2.6 0a3.2 3.2 0 0 0-2.1-2.9 3.3 3.3 0 0 0-3.5.8 3.2 3.2 0 0 0 2.3 5.5 3.4 3.4 0 0 0 3.3-3.4"/><path fill="#4285F4" d="M65.9 117.7V128c0 4.3-2.5 6-5.5 6a5.6 5.6 0 0 1-5.2-3.4l2.3-1a3 3 0 0 0 2.9 2.1c2 0 3.1-1 3.1-3.3v-.8a4 4 0 0 1-3.1 1.3 5.8 5.8 0 0 1-5.8-5.8 5.8 5.8 0 0 1 5.8-5.8 3.9 3.9 0 0 1 3 1.3h.1v-1H66v.1Zm-2.2 5.5c0-2-1.4-3.6-3.1-3.6a3.4 3.4 0 0 0-3.2 3.6 3.3 3.3 0 0 0 3.2 3.4c1.7 0 3-1.4 3-3.4Z"/><path fill="#34A853" d="M70.2 111.7h-2.5v16.8h2.5v-16.8Z"/><path fill="#EA4335" d="m80 125 2 1.4a5.9 5.9 0 0 1-9 .8 5.6 5.6 0 0 1-1.6-4.1 5.4 5.4 0 0 1 3.4-5.3c.7-.3 1.4-.4 2.1-.4 3 0 4.4 2.4 5 3.6l.3.7-7.8 3.1a3 3 0 0 0 2.8 1.8 3.4 3.4 0 0 0 2.9-1.6Zm-6-2 5.1-2.2a2.2 2.2 0 0 0-2.1-1.2 3.2 3.2 0 0 0-2.8 2.1c-.2.4-.2.8-.2 1.3"/><path fill="url(#a)" d="M12.1 200.9h37.2V163H12v37.9Z"/><path fill="#fff" d="M41.3 174.8a9.9 9.9 0 0 0-14 0l-.3.1h-1.4a8.3 8.3 0 0 0-6 2.5 8.7 8.7 0 0 0-1.8 9.4c.6 1.6 1.7 3 3 3.9 1.5 1 3.1 1.4 4.8 1.4h8.9a9.8 9.8 0 0 0 9-6.3 10.3 10.3 0 0 0-2.2-11Zm-15.7 15.5a6.7 6.7 0 0 1-6-4.3 7 7 0 0 1 1.3-7.4c1.3-1.2 3-2 4.7-2h1l1 .3c.7.2 1.3.5 1.8 1 .3.1.5.3.7.6l.2.1 2.7 2.8a1 1 0 0 1 0 1.4l-.3.2h-.3a.9.9 0 0 1-.7-.2l-2.2-2.2-.4-.5-.3-.3c-.6-.5-1.4-1-2.2-1.1h-1a5 5 0 0 0-3.2 1.4 4.9 4.9 0 0 0-1 5.3 4.8 4.8 0 0 0 4.4 3h.8l.8.8c.4.4.8.8 1.3 1h-3Zm14.4-2.5a8 8 0 0 1-3 2l-1 .2c-.5.2-1 .3-1.6.3h-.2a8 8 0 0 1-5.1-2l-.6-.5-3.8-3.9a1 1 0 0 1 0-1.3.8.8 0 0 1 .6-.3.9.9 0 0 1 .6.3l3.8 3.9 1.2.9a6 6 0 0 0 4.8.7l1-.3 2-1.4a6.5 6.5 0 0 0 0-9 6.2 6.2 0 0 0-8-.7 6 6 0 0 0-1.7-1.1 8 8 0 0 1 11.5.5 8.4 8.4 0 0 1-.5 11.7"/><path fill="#283343" d="M78.6 199a3.6 3.6 0 0 1-3.3-2.2 3.5 3.5 0 0 1 .8-3.9 3.6 3.6 0 0 1 5 0c.7.7 1 1.6 1 2.5a3.5 3.5 0 0 1-2.1 3.4c-.4.2-1 .2-1.4.2Zm3.6.5a1.5 1.5 0 0 0 1.3 1.3h.4l.2-.1.1-.3v-9.8a.3.3 0 0 0-.3-.3H82.3l-.1.3v.8a4.5 4.5 0 0 0-3.6-1.5c-1.5 0-2.9.6-4 1.6a5.5 5.5 0 0 0 4 9.5 4.8 4.8 0 0 0 3.6-1.5Zm5.4-1.4a5 5 0 0 0 3 1c.9 0 1.9-.5 1.9-1.4 0-.9-2.1-1.3-3.5-1.7-1.3-.4-2.4-1.4-2.4-2.9 0-1.4 2-3.3 4-3.3a6 6 0 0 1 3.2 1c.4.3.2.5.2.5l-.8 1a.3.3 0 0 1-.2.2H92.7c-.6-.5-1.3-.7-2.1-.7-1.4 0-2 .5-2 1.2s1 1 2.1 1.3c1.1.4 3.9 1.1 3.9 3.4s-2 3.3-4 3.3c-1.5 0-3-.4-4.2-1.3a.4.4 0 0 1 0-.4l.8-1.1v-.1a.3.3 0 0 1 .3 0h.1Zm17.6 1.4a1.5 1.5 0 0 0 1.3 1.3h.4l.2-.1.1-.3V190.3h-1.9l-.1.3v.8a4.5 4.5 0 0 0-3.6-1.5c-1.5 0-2.9.6-4 1.6a5.5 5.5 0 0 0 4 9.5 4.8 4.8 0 0 0 3.6-1.5Zm-3.6-.5a3.6 3.6 0 0 1-3.3-2.2 3.5 3.5 0 0 1 .8-3.9 3.6 3.6 0 0 1 5 0c.7.7 1 1.6 1 2.5a3.5 3.5 0 0 1-2.1 3.4c-.4.2-1 .2-1.4.2Zm18.3.8v-5c0-3-1.8-5-4.8-5a3.7 3.7 0 0 0-3 1.6 1.1 1.1 0 0 0-.4-.9 1.2 1.2 0 0 0-.8-.2h-.5a.3.3 0 0 0-.3.3v10a.3.3 0 0 0 .3.2h1.7v-6c0-.8.4-1.5.9-2s1.2-.8 2-.8a2.8 2.8 0 0 1 2.6 1.7c.2.3.2.7.2 1v6a.4.4 0 0 0 .4.2h1.7V199.8Zm11-.3a1.5 1.5 0 0 0 1.3 1.3h.4l.3-.1.1-.3v-9.8c0-.1 0-.2-.2-.3H131l-.1.3v.8a4.5 4.5 0 0 0-3.6-1.5c-1.5 0-2.9.6-4 1.6a5.5 5.5 0 0 0 4 9.5 4.8 4.8 0 0 0 3.6-1.5Zm-3.6-.5a3.6 3.6 0 0 1-3.3-2.2 3.5 3.5 0 0 1 .8-3.9 3.6 3.6 0 0 1 5 0 3.5 3.5 0 0 1-1.1 5.8c-.4.3-.9.3-1.4.3Z"/><path fill="url(#b)" d="M109.4 173a5 5 0 0 0-3.4 1.4 4.9 4.9 0 0 0 3.4 8.3 5 5 0 0 0 3.5-1.4 4.9 4.9 0 0 0-3.5-8.3Zm-12.7 0a5 5 0 0 0-4.6 3 4.8 4.8 0 0 0 1 5.3 5 5 0 0 0 8.5-3.4c0-1.3-.5-2.6-1.4-3.5a5 5 0 0 0-3.5-1.4Zm11.3-6.1c0 1.3-.6 2.5-1.5 3.4a5 5 0 0 1-8.4-3.4c0-1.3.5-2.6 1.4-3.5a5 5 0 0 1 8.5 3.5Z"/><path fill="#0075C9" d="M187.4 176.4a12.5 12.5 0 0 0-11 6.5 12.4 12.4 0 0 0-13.6-6.3c-1.8.4-3.4 1.2-4.8 2.2v-10.3a2.4 2.4 0 0 0-2.5-2.5 2.5 2.5 0 0 0-2.5 2.5v20.3a12.3 12.3 0 0 0 9.5 11.8 12.6 12.6 0 0 0 14-6.2A12.3 12.3 0 0 0 187 201a12.5 12.5 0 0 0 11-6 12.2 12.2 0 0 0-4.4-16.9c-1.8-1-4-1.6-6.2-1.6Zm-22 19.7a7.5 7.5 0 0 1-7-4.6 7.4 7.4 0 0 1 1.7-8.1 7.5 7.5 0 0 1 12.8 5.2 7.5 7.5 0 0 1-7.4 7.4Zm22 0a7.5 7.5 0 0 1-7-4.6 7.4 7.4 0 0 1 1.6-8.1 7.5 7.5 0 0 1 12.8 5.2c0 2-.7 3.9-2.1 5.3a7.5 7.5 0 0 1-5.3 2.2Z"/><path fill="#0075C9" d="m216.5 197.1-6.3-8.4 6.3-8.5a2.4 2.4 0 0 0-2.3-3.8c-.7 0-1.3.4-1.7.9l-5.5 7.3-5.5-7.3a2.5 2.5 0 0 0-4.2 1.2c-.1.6 0 1.2.3 1.7l6.4 8.5-6.4 8.4a2.4 2.4 0 0 0 .6 3.3 2.5 2.5 0 0 0 3.3-.3l5.5-7.3 5.5 7.3a2.5 2.5 0 0 0 3.5.4 2.4 2.4 0 0 0 .5-3.4Z"/><path fill="#1976D2" d="M42.5 75.6h-8.2v1.7h2c.7 0 1.5.3 2 .8a3 3 0 0 1 0 4.3c-.5.5-1.3.9-2 .9h-3.7L26 90h6.9c2.3 0 12.9-1.1 12.9-8.2a7.3 7.3 0 0 0-3.3-6.2Z"/><path fill="#1565C0" d="M48 81.2c0-3.7-3.6-5.8-4.5-6.2l-1 .6a7 7 0 0 1 3.3 6.2c0 7-10.6 8.1-13 8.2 14.4-.2 15.2-6.5 15.2-8.8Z"/><path fill="#1E88E5" d="M34 60h-8v30l6.6-6.8v-6H34s4.9.3 8.5-1.6l.5-.2.5-.4c1.2-.8 2-2 2.6-3.3.3-.9.4-1.8.4-2.7 0-9-8-9-12.5-9Zm3 12.8h-3c-.3 0-.7-.2-1-.5-.3-.3-.4-.7-.4-1v-3c0-.4.1-.8.4-1.1.3-.3.7-.5 1-.5h3c.8 0 1.5.4 2 1a3 3 0 0 1 0 4.2c-.5.5-1.2.8-2 .8Z"/><path fill="#1565C0" d="M39 67.5a3.2 3.2 0 0 1 .9 2.2A3 3 0 0 1 39 72c-.5.5-1.2.8-2 .8h-3c-.3 0-.7-.1-1-.4-.3-.3-.4-.7-.4-1v-3s0-3.7 1.7-5.5a7.2 7.2 0 0 0-4.5 3.8C26.8 72.2 26 90 26 90l6.6-5.2v-7.6H34c5.9 0 11-3 11-7.8V69c-1.9-1.1-5.5-1.4-6-1.5Z"/><path fill="#2559AA" d="M37.3 62.3c-1 0-2 .2-3 .5-1.7 1.9-1.7 5.5-1.7 5.5 0-.4.1-.8.4-1.1.3-.3.7-.5 1-.5h3c.7 0 1.4.3 2 .8.5 0 4.1.4 6 1.5-.2-3.7-3.6-6.7-7.7-6.7Zm-1 21h-3.7v1.5h3c2.3 0 3.6-2 3.6-4.5a3 3 0 0 1-.9 2c-.5.6-1.3 1-2 1Z"/><path fill="#000" d="m64.8 69.6 3.9 12.2h-1.5l-1.1-3.6h-4.8l-1 3.6h-1.4l3.8-12.2h2Zm-3 7.4h4L64.4 73l-.7-2.3h-.1l-.7 2.3-1.3 4.1ZM77.4 77.7v-8.1h1.3v8c0 2.9-1.6 4.4-4.3 4.4-2.7 0-4.1-1.6-4.1-4.2v-8.2h1.3v8c0 2.1 1.2 3.1 3 3.1 1.7 0 2.8-.8 2.8-3ZM83.6 70.9h-3.2v-1.3h7.7v1.3H85v10.9h-1.4v-11ZM93.4 82c-2.9 0-4.6-1.8-4.6-6.3s1.8-6.3 4.7-6.3c2.8 0 4.6 1.8 4.6 6.2S96 82 93.4 82Zm0-1.3c2 0 3.3-1.2 3.3-5 0-3.7-1.3-5-3.3-5-2 0-3.2 1.1-3.2 4.9 0 3.8 1.3 5.1 3.3 5.1ZM100.6 69.6h3.2c3.6 0 5.2 1.9 5.2 6s-1.6 6.2-5.2 6.2h-3.2V69.6Zm1.4 11h1.8c2.6 0 3.8-1.4 3.8-4.8 0-3.5-1.4-5-4-5H102v9.8ZM111.6 81.8V69.6h6.3v1.3h-5V75h4.4v1.2H113v4.4h5.2v1.2h-6.5ZM125.7 78.7c0-2.8-5.6-2.2-5.6-6 0-1.8 1.5-3.3 3.7-3.3 1 0 2.2.4 3 1l-.8 1.1c-.6-.5-1.5-.8-2.3-.8-1.4 0-2.2.8-2.2 1.9 0 2.8 5.6 2.2 5.6 6 0 1.8-1.4 3.4-4 3.4-1.3 0-2.6-.4-3.6-1.3l.8-1.1c.8.7 2 1.1 3 1.1 1.6 0 2.4-.9 2.4-2ZM131 81.8h-1.5V69.6h1.4v12.2Zm4.6-12.2h1.6l-4.3 6 4.6 6.2h-1.7l-4.4-6 4.2-6.2ZM143.9 75a3 3 0 0 1-2.5 1 3.2 3.2 0 0 1-2.5-1 3.6 3.6 0 0 1-1-2.6 3.5 3.5 0 0 1 1-2.6 3.3 3.3 0 0 1 2.5-1.1c1 0 1.8.4 2.5 1.1.7.7 1 1.6 1 2.6a3.4 3.4 0 0 1-1 2.5Zm-4.6-4.9a3 3 0 0 0-.9 2.3 3 3 0 0 0 .9 2.1 2.7 2.7 0 0 0 2.1 1 2.8 2.8 0 0 0 2.2-1 3 3 0 0 0 .9-2.1 3.1 3.1 0 0 0-.9-2.3 3 3 0 0 0-3.3-.6 3 3 0 0 0-1 .6Zm2 .2 1.1.2c.2 0 .4.2.5.4l.1.6a1 1 0 0 1-.4.8l-.5.1.6.5a.8.8 0 0 1 .2.6v.6l.1.1h-.6v-.4a1 1 0 0 0-.4-.9l-.8-.2h-.5v1.6h-.7v-4h1.3Zm.8.6-.8-.1h-.6v1.5h.6l.6-.2c.1 0 .3 0 .3-.2l.2-.4-.1-.3-.2-.3ZM161 70.6c.3.6.5 1.2.5 2 0 .6-.2 1.2-.6 1.7-.2.4-.5.6-1 .8.7.1 1.2.6 1.5 1.1.3.5.5 1.2.5 1.8 0 .7-.2 1.4-.5 2l-.9 1c-.4.3-.9.5-1.4.6l-1.7.2h-5.5V69.3h5.9a3.7 3.7 0 0 1 3.1 1.3Zm-6.7.9v2.7h3c.4 0 .9-.1 1.3-.3.3-.2.4-.6.4-1a1.2 1.2 0 0 0-.6-1.3l-1.4-.1h-2.7Zm0 4.8v3.3h3c.4 0 .8 0 1.2-.2.3-.1.5-.4.7-.6.1-.3.2-.6.1-1 0-.2 0-.5-.2-.8-.1-.2-.3-.4-.6-.5-.4-.2-.8-.3-1.2-.2h-3ZM166.4 81.8H164V69.3h2.5v12.5ZM176.9 69.3h3.7v12.5h-2.4V71.3L176 81.8h-2.5L171 71.3v10.5h-2.3V69.3h3.6l2.3 9.8 2.2-9.8ZM189.1 78c0 .4 0 .8.2 1.2l.7.7c.2.2.6.2.9.2.4 0 .9-.1 1.2-.5.3-.3.5-.9.5-1.4a1.8 1.8 0 0 0-1-1.6 5 5 0 0 0-1.7-.3v-1.7c.6 0 1.1 0 1.6-.2.3-.1.5-.3.7-.6.1-.2.2-.5.1-.8a1.5 1.5 0 0 0-.4-1.2 1.3 1.3 0 0 0-1.1-.4 1.4 1.4 0 0 0-1.2.5c-.3.5-.4 1-.4 1.4H187l.3-1.7a3.9 3.9 0 0 1 2-2l1.6-.2c1 0 2 .3 2.8 1a3.3 3.3 0 0 1 .4 4.2 2 2 0 0 1-.9.6c.4.1.7.3 1 .6a3 3 0 0 1 .8 2.3c0 1-.3 2-1 2.8a4.2 4.2 0 0 1-3.1 1.2c-1.7 0-2.9-.6-3.5-1.7-.4-.7-.6-1.6-.6-2.4h2.3ZM202 72.6c0-.2 0-.5-.2-.7a1.4 1.4 0 0 0-1.2-.6c-.4 0-.7.2-1 .4-.3.2-.5.6-.6 1-.3.7-.4 1.4-.4 2.1l1-.8a4.1 4.1 0 0 1 2.8 0l1.1 1a3.8 3.8 0 0 1 1 2.8c0 1-.2 2.1-.9 3a3.7 3.7 0 0 1-3.1 1.3 3.6 3.6 0 0 1-3.4-2 8.7 8.7 0 0 1-.8-3.8l.1-2.4c0-.9.4-1.8.8-2.6.3-.6.8-1 1.4-1.4.6-.4 1.2-.5 2-.5 1 0 1.9.2 2.6.9a3.2 3.2 0 0 1 1.1 2.3H202Zm-2.9 6.9a1.6 1.6 0 0 0 1.4.6 1.2 1.2 0 0 0 1.2-.6 2.1 2.1 0 0 0 .5-1.6 3 3 0 0 0-.5-1.6 1.8 1.8 0 0 0-1.3-.6 1.4 1.4 0 0 0-1 .4 2.3 2.3 0 0 0-.8 1.8c0 .6.2 1.1.5 1.6ZM213 71a12.2 12.2 0 0 1 0 9.5 3.5 3.5 0 0 1-3.2 1.6 3.4 3.4 0 0 1-3.2-1.6c-1.2-3-1.2-6.4 0-9.5a3.5 3.5 0 0 1 3.2-1.6A3.4 3.4 0 0 1 213 71Zm-4.6 8 .5.8c.3.2.6.3 1 .3.3 0 .6 0 .8-.3.3-.2.5-.5.5-.8.3-1 .4-2.2.4-3.3 0-1-.1-2.2-.4-3.3 0-.3-.2-.5-.5-.7-.2-.2-.6-.3-.9-.3-.3 0-.6 0-.8.3-.3.2-.5.4-.6.7l-.3 3.3.3 3.3Z"/><path fill="url(#c)" d="m238.5 193.9-1.3 2c-.2.4-.2.7-.2 1 .1.3.3.6.6.8l8.9 5.1a1.5 1.5 0 0 0 1.8-.3l1.3-2c3.5-5.5 7-4.8 13.3-2l8.8 4h1c.3-.1.5-.4.7-.6l4.2-9.1c.1-.3.2-.6 0-1 0-.2-.3-.5-.6-.6l-8.8-4c-11.9-5.5-22-5-29.7 6.8v-.1Z"/><path fill="url(#d)" d="m278 173.4 1.3-2c.2-.4.2-.7.1-1 0-.3-.2-.6-.5-.8l-9-5.1a1.3 1.3 0 0 0-1.7.3l-1.4 2.1c-3.4 5.5-7 4.8-13.2 2l-8.8-4h-1c-.4.1-.6.4-.8.7l-4.1 9a1 1 0 0 0 .2 1.4l.4.2 8.8 4c11.9 5.5 22 5.1 29.7-6.8Z"/><path fill="#0061FF" d="m319.9 171.6-10.5 6.6 10.5 6.6-10.5 6.5-10.4-6.6 10.4-6.6-10.4-6.5 10.4-6.6 10.5 6.6Zm-10.5 21.8L320 187l10.3 6.5L320 200l-10.5-6.6Zm10.5-8.7 10.4-6.6-10.4-6.5 10.3-6.6 10.4 6.6-10.4 6.6 10.4 6.6-10.4 6.5-10.3-6.6Z"/><path fill="#2684FF" d="m51.8 247-18-17.3-1.6-1.7-13.5 13.1-6.1 6a1.5 1.5 0 0 0-.6 1.1 1.5 1.5 0 0 0 .6 1.2l12.2 12 7.4 7 13.4-13 .2-.2 6-5.8a1.7 1.7 0 0 0 0-2.3Zm-19.7 7.3-6.1-6 6-6 6.3 6-6.2 6Z"/><path fill="url(#e)" d="M32 242.3a10 10 0 0 1 0-14.2l-13.4 13 7.2 7.2 6.3-6Z"/><path fill="url(#f)" d="m38.3 248.2-6.2 6a10 10 0 0 1 3 7.1 9.8 9.8 0 0 1-3 7.2l13.5-13.2-7.3-7Z"/><path fill="#00A1E0" d="M96.6 228.4a9.9 9.9 0 0 1 15.9 2 12 12 0 0 1 5-1 12.3 12.3 0 0 1 11.5 12.4 12.5 12.5 0 0 1-11.5 12.5l-2.4-.2a9 9 0 0 1-11.8 3.6 10.2 10.2 0 0 1-9.6 6.3 10.1 10.1 0 0 1-9.3-6.7l-2 .2a9.4 9.4 0 0 1-8.7-6 9.7 9.7 0 0 1 4-12 11.3 11.3 0 0 1 2.3-12.3 11 11 0 0 1 16.6 1.2"/><path fill="#fff" d="m81.2 244.8.3.3c.6.3 1.1.4 1.7.4 1.2 0 2-.6 2-1.6s-.9-1.3-1.7-1.5c-.7-.2-1.1-.4-1.1-.7 0-.4.2-.6.7-.6l1.5.3h.1l.3-.6v-.1a3 3 0 0 0-1.7-.5h-.1c-1.1 0-1.9.6-1.9 1.6s.9 1.3 1.6 1.5h.2c.5.1 1 .3 1 .7 0 .4-.3.6-.8.6-.6 0-1 0-1.5-.4h-.2c0-.1-.2-.2-.2 0l-.2.6Zm17 0 .4.3c.5.3 1 .4 1.7.4 1.2 0 1.8-.6 1.8-1.6s-.8-1.3-1.5-1.5h-.1c-.6-.2-1-.4-1-.7 0-.4.2-.6.7-.6a3.3 3.3 0 0 1 1.5.4v-.1l.3-.6v-.1a3 3 0 0 0-1.6-.5h-.2c-1 0-1.8.6-1.8 1.6s.8 1.3 1.6 1.5h.1c.6.1 1 .3 1 .7 0 .4-.3.6-.7.6-.6 0-1.1 0-1.6-.4h-.2c0-.1 0-.1-.1 0l-.2.6Zm11.6-2c0 .4 0 1-.3 1.3a1.1 1.1 0 0 1-1.8 0c-.3-.4-.4-.9-.4-1.3 0-.5.1-1 .4-1.4a1.2 1.2 0 0 1 .9-.4 1.1 1.1 0 0 1 1 .4c.2.4.3.9.2 1.4Zm1-1c0-.4-.2-.7-.4-1l-.8-.5-1-.2a3 3 0 0 0-1 .2 2 2 0 0 0-.8.6l-.4.8c-.3.7-.3 1.4 0 2.1 0 .3.2.6.4.9l.8.5c.3.2.6.3 1 .2a2.3 2.3 0 0 0 1.8-.7l.4-.9c.2-.7.2-1.4 0-2Zm8 2.6a.1.1 0 0 0-.1 0h-1a1.5 1.5 0 0 1-1.1-.3 2 2 0 0 1-.5-1.4c0-.4.2-.9.4-1.3a1.4 1.4 0 0 1 1.1-.4h1s.1.1.2 0l.2-.7c0-.2 0 0 0 0l-.7-.2h-.7c-.4 0-.8 0-1.1.2-.3.1-.6.3-.8.6l-.5.8-.1 1c0 .8.1 1.5.6 2a2.4 2.4 0 0 0 2 .7c.4 0 .8 0 1.3-.2v-.1l-.2-.7Zm1.7-2.2.2-.8a1 1 0 0 1 1-.4 1 1 0 0 1 1 .4l.1.8h-2.3Zm3.3-.7-.5-.7-.6-.5-1-.2c-.3 0-.7 0-1 .2a2 2 0 0 0-.7.6 3 3 0 0 0-.5.9c-.2.6-.2 1.4 0 2a2.2 2.2 0 0 0 1.3 1.5l1.2.1c.6 0 1.1 0 1.7-.3v-.1l-.3-.7a3 3 0 0 1-1.4.3c-.4 0-.8-.1-1.2-.4-.2-.3-.3-.7-.3-1h3.3v-1.6Zm-29.6.8c0-.3 0-.6.2-.8a1 1 0 0 1 1-.5 1 1 0 0 1 .9.5l.2.8h-2.3Zm3.2-.7c0-.3-.2-.5-.4-.8l-.6-.5a2.5 2.5 0 0 0-2.8.6l-.4 1c-.2.6-.2 1.3 0 2a2.2 2.2 0 0 0 1.3 1.4l1.2.2c.5 0 1.1 0 1.6-.3v-.2l-.2-.6a3 3 0 0 1-1.4.2c-.4 0-.8 0-1.2-.3-.2-.3-.4-.7-.3-1.1H97.5v-1.6Zm-10.3 2.9-.2-.2a1 1 0 0 1-.1-.4.7.7 0 0 1 .3-.7 1.2 1.2 0 0 1 1-.2h.8v1.5l-.9.1c-.3 0-.7 0-1-.2Zm1.3-2.4h-.5l-.8.1c-.3 0-.5.2-.8.3l-.4.6-.2.8c0 .2 0 .5.2.7 0 .2.2.4.4.5.2.2.4.3.7.3h1.8l.9-.1.2-.1V242a1.8 1.8 0 0 0-.5-1.6 2 2 0 0 0-1.5-.4h-.8a2.7 2.7 0 0 0-1.1.5l.2.7h.1c.5-.2 1-.3 1.6-.3.2 0 .5 0 .7.2.2.1.3.3.3.8v.1h-.5Zm26.5-1.7v-.1l-.6-.1-.9.1-.5.5v-.5h-1v5h1v-2.5a2 2 0 0 1 .4-1.4l.4-.2h.9l.3-.8"/><path fill="#fff" d="M106.8 238h-.8c-.5 0-1 .1-1.4.4-.4.5-.6 1-.6 1.6v.2h-.8l-.2.8h.8l-.7 4.2-.2.9-.2.4-.4.2h-.9c0 .3-.2.5-.3.7a.2.2 0 0 0 0 .1l.4.1h.5a1.7 1.7 0 0 0 1.4-.5l.4-.7c.2-.4.3-.7.3-1.1l.7-4.3H106l.2-.8H105l.2-.8.2-.4.3-.1h.8l.3-.8ZM92 245.3v.1h-1v-7.1a.1.1 0 0 1 0-.1h1v7.1Z"/><path fill="#E01E5A" fill-rule="evenodd" d="M158.5 249.4a4.5 4.5 0 0 1-4.4 4.5c-1.2 0-2.3-.5-3-1.3a4.5 4.5 0 0 1 0-6.3c.7-.8 1.8-1.3 3-1.3h4.4v4.4Zm2.1 0c.2-1 .7-2 1.5-2.7a4.4 4.4 0 0 1 7.3 2.7v11.2c-.2 1-.7 2-1.5 2.7a4.4 4.4 0 0 1-5.8 0 4.5 4.5 0 0 1-1.5-2.7v-11.2Z" clip-rule="evenodd"/><path fill="#36C5F0" fill-rule="evenodd" d="M165 231.6a4.3 4.3 0 0 1-3-1.3 4.4 4.4 0 0 1-1.4-3.1 4.6 4.6 0 0 1 2.6-4.8 4.4 4.4 0 0 1 5.2 1.2 4.5 4.5 0 0 1 1 3.6v4.4h-4.3Zm0 2.2c1.1.2 2 .7 2.8 1.5a4.6 4.6 0 0 1 0 6c-.7.8-1.7 1.3-2.7 1.5h-11a4.3 4.3 0 0 1-3.6-1 4.5 4.5 0 0 1-1.5-3.5 4.6 4.6 0 0 1 1.5-3.4 4.4 4.4 0 0 1 3.6-1h11Z" clip-rule="evenodd"/><path fill="#2EB67D" fill-rule="evenodd" d="M182.5 238.3c0-1.2.5-2.3 1.3-3.1.8-.9 2-1.4 3.1-1.4 1 .2 2 .7 2.7 1.5a4.6 4.6 0 0 1-2.7 7.5h-4.4v-4.5Zm-2.1 0c0 1.2-.5 2.3-1.3 3.2-.9.8-2 1.3-3.1 1.3-1.2 0-2.3-.5-3.1-1.3-.8-.9-1.3-2-1.3-3.2v-11.1c0-1.2.5-2.3 1.3-3.2.8-.8 1.9-1.3 3-1.3 1.2 0 2.3.5 3.2 1.3.8.9 1.3 2 1.3 3.2v11.1Z" clip-rule="evenodd"/><path fill="#ECB22E" fill-rule="evenodd" d="M176 256a4.6 4.6 0 0 1 4.4 4.5 4.4 4.4 0 0 1-4.4 4.4c-1.2.1-2.3-.4-3.1-1.2-.8-.8-1.3-2-1.3-3.1V256h4.4Zm0-2c-1.2-.1-2.3-.6-3.1-1.4a4.5 4.5 0 0 1 0-6.3c.8-.8 1.9-1.3 3-1.3h11c1.2 0 2.3.5 3.1 1.3.8.8 1.3 2 1.3 3.1 0 1.2-.5 2.3-1.3 3.2-.8.8-2 1.3-3 1.3h-11Z" clip-rule="evenodd"/><path fill="url(#g)" d="M257.6 222h-36.2c-2.4 0-4.4 2-4.4 4.4v36.4c0 2.4 2 4.4 4.4 4.4h36.2c2.4 0 4.4-2 4.4-4.4v-36.4c0-2.4-2-4.4-4.4-4.4Z"/><path fill="#fff" d="M254 228h-9.5c-1.1 0-2 .9-2 2v15.6c0 1.1.9 2 2 2h9.6c1.1 0 2-.9 2-2V230c0-1.1-.9-2-2-2ZM234.5 228h-9.6c-1.1 0-2 .9-2 2V257c0 1.1.9 2 2 2h9.6c1.1 0 2-.9 2-2V230c0-1.1-.9-2-2-2Z"/><path fill="#5F5A5B" d="M286.6 252v5.2c0 2-2.1 2-2.1 2s-2.2 0-2.2-2V252s0-1-1.3-1v6.4c0 .8.5 1.7 1.1 2.3.7.5 1.5.8 2.4.8.9 0 1.7-.3 2.3-.9.7-.5 1-1.4 1.2-2.2V251c-1.2 0-1.4.9-1.4.9ZM316.7 252v5.2c0 2-2.2 2-2.2 2s-2.1 0-2.1-2V252s-.1-1-1.4-1v6.4c.1.9.5 1.7 1.2 2.3a3.4 3.4 0 0 0 4.7 0c.6-.6 1-1.4 1.1-2.3V251c-1.2 0-1.3.9-1.3.9ZM299.9 257.4V251c-1.2 0-1.4.9-1.4.9v8.4h1.4v-3ZM321.6 257.4V251c-1.2 0-1.3.9-1.3.9v8.4h1.3v-3ZM331.8 257.4V251c-1.2 0-1.3.9-1.3.9v8.4h1.3v-3ZM293.8 259.3h-2.3v-3.1h2.4c.2 0 1.2.1 1.2 1.5 0 .4-.1.7-.3 1-.3.3-.6.5-1 .6Zm-2.3-7h2.5l.5.4a1.3 1.3 0 0 1 .3 1c0 1.3-1.3 1.4-1.3 1.4h-2v-2.8Zm3.4 3.3c.3-.2.7-.5.9-.9l.3-1.2c0-1.5-1.3-2.4-2.5-2.4h-3.4v9.3h4.3s1.9-.6 1.9-2.3c0-1.8-1-2.5-1.5-2.5ZM305.4 259.3c-1.7 0-2.5-1.6-2.5-3.5 0-2 .8-3.6 2.5-3.6s2.6 1.6 2.6 3.6-.9 3.5-2.6 3.5Zm4.2-.1H308a5 5 0 0 0 1.3-3.4c0-2-.9-4.7-4-4.7 0 0-3.6-.3-3.8 4.6-.2 5 3.8 4.7 3.8 4.7 1-.2 2-.2 3-.2h2s0-1-.7-1ZM329.4 252.2H323v-1.1h6.5v1.1Z"/><path fill="#5F5A5B" d="M326.9 251v9.4h-1.3V251h1.3Z"/><path fill="#279EDA" fill-rule="evenodd" d="M298.3 225.4H297V224h1.3v1.4ZM300.8 232.4h-1.2V231h1.2v1.4ZM300.8 228h-1.2v-1.3h1.2v1.4ZM302.1 226.7h-1.3v-1.4h1.3v1.4ZM302.1 230.4h-1.3V229h1.3v1.4ZM303.4 228.7H302v-1.4h1.3v1.4Z" clip-rule="evenodd"/><path fill="#279EDA" fill-rule="evenodd" d="M297 227.6h1.3v7.4h1.2v-1.3h1.3v3h1.4v-5h1.2v10a8.5 8.5 0 0 0 3.9 6.4c-3.8 0-10.3-1.8-10.3-9.8v-10.7Z" clip-rule="evenodd"/><path fill="url(#h)" d="M0 0h14.1v10.6H0z" transform="matrix(1 0 0 -1 304 248.2)"/><path fill="#12100B" fill-rule="evenodd" d="M311 243.3s5-.3 6.6-7.5v-11.6s-6.5-.8-6.5 4.2l-.2 14.9Z" clip-rule="evenodd"/><path fill="#5E5B5B" d="M281.3 263.2h.5l1.2 2v-2h.5v2.7h-.5l-1.2-2v2h-.5v-2.7ZM288.3 263.2h1.9v.4h-1.5v.7h1.4v.4h-1.4v.8h1.5v.4h-2v-2.7ZM294.7 263.2h2.1v.4h-.8v2.3h-.5v-2.3h-.8v-.4ZM301.4 263.2h.4l.5 2 .6-2h.4l.5 2 .5-2h.5l-.7 2.7h-.5l-.5-2-.6 2h-.4l-.7-2.7ZM309.6 264.5c0 .6.2 1 .7 1 .6 0 .8-.4.8-1 0-.5-.2-1-.8-1-.5 0-.7.5-.7 1Zm2 0a1.4 1.4 0 0 1-.3 1 1.3 1.3 0 0 1-1 .5c-.3 0-.7-.2-1-.5a1.4 1.4 0 0 1 0-2c.3-.2.7-.4 1-.4a1.2 1.2 0 0 1 1 .5 1.3 1.3 0 0 1 .3 1ZM316.9 264.5h.7a.4.4 0 0 0 .4-.2.4.4 0 0 0 0-.3c0-.4-.2-.4-.4-.4h-.7v.9Zm-.5-1.3h1.3c.6 0 .8.3.8.7v.5l-.4.2.3.2.1.4.1.7h-.5v-.4c0-.5-.1-.7-.5-.7h-.7v1.1h-.5v-2.7ZM323.3 263.2h.4v1.3l1.2-1.3h.6l-1 1 1 1.7h-.5l-.9-1.3-.4.4v1h-.4v-2.8ZM330.3 265c0 .4.3.6.7.6.3 0 .5-.2.5-.4v-.2l-.2-.2-.7-.2a.6.6 0 0 1-.5-.2.7.7 0 0 1-.1-.5c0-.5.4-.8 1-.8.4 0 1 .3 1 .9h-.5c0-.4-.3-.5-.6-.5s-.5.1-.5.4c0 .2.2.3.3.3l.8.3c.2 0 .3 0 .4.2l.1.4c0 .6-.5.9-1 .9s-1.1-.3-1.1-1h.4Z"/><path fill="#2D8CFF" fill-rule="evenodd" d="M307.1 71c.3.4.4 1 .4 1.5v7.1a2.4 2.4 0 0 0 2.3 2.3h.8v-9.4a3.2 3.2 0 0 1 4.7-2.8c.5.3.9.8 1.2 1.2l.4 1.6v7.1a2.4 2.4 0 0 0 2.3 2.3h.8v-9.4a6.4 6.4 0 0 0-6.3-6.3 6.2 6.2 0 0 0-4.7 2.1 6.2 6.2 0 0 0-8.3-1c-.8-.7-1.8-1-2.8-1.1v15.7h.8a2.3 2.3 0 0 0 2.3-2.3v-7.1a3 3 0 0 1 1.9-3 3 3 0 0 1 1.2-.2 3 3 0 0 1 2.7 1.6h.3Zm-53.9 11h12.6v-.8a2.4 2.4 0 0 0-2.3-2.4h-8l9.5-9.4v-.8a2.4 2.4 0 0 0-2.3-2.3H250v.8a2.4 2.4 0 0 0 2.3 2.3h8l-9.5 9.4v.9A2.5 2.5 0 0 0 253 82h.1ZM295 68.4a8 8 0 0 1 0 11.2 8 8 0 0 1-11.2 0A8 8 0 1 1 295 68.5Zm-2.3 2.2a4.8 4.8 0 0 1-3.3 8.1 4.7 4.7 0 0 1-3.3-1.4 4.8 4.8 0 0 1 3.3-8 4.7 4.7 0 0 1 3.3 1.3ZM273 66.2a7.9 7.9 0 0 1 5.5 13.5 7.9 7.9 0 0 1-11-11.2 7.6 7.6 0 0 1 5.5-2.3Zm3.3 4.5a4.8 4.8 0 0 1-6 7.3 4.8 4.8 0 1 1 6-7.3Z" clip-rule="evenodd"/><path fill="#FEE200" d="m146 18.2 4.3-4.2h11.6a1.1 1.1 0 0 1 .8.3 1 1 0 0 1 .3.8v3h-17Z"/><path fill="#81487D" d="m163 26.5-3.1 4.2h-9.6v-4.2H163Z"/><path fill="#EE8208" d="M163 18.2h-12.7v4.1H163v-4.1Z"/><path fill="#E15802" d="M150.3 18.2H146v4.1h4.3v-4.1Z"/><path fill="#D33300" d="M163 22.3h-12.7v4.2H163v-4.2Z"/><path fill="#B83106" d="M150.3 22.3H146v4.2h4.3v-4.2Z"/><path fill="#6A3967" d="M146 26.5h4.3v4.2H147a1 1 0 0 1-.7-.3 1 1 0 0 1-.3-.8v-3.1Z"/><path fill="#0364B8" d="m185.7 18.5 5.2 3.2 3.2-1.3a5 5 0 0 1 2-.5h.4a8 8 0 0 0-14.3-2.4h.1c1.2 0 2.4.4 3.4 1Z"/><path fill="#0078D4" d="M185.7 18.5c-1-.6-2.2-1-3.4-1A6.3 6.3 0 0 0 176 24c0 1.2.4 2.5 1.1 3.5l4.7-2 2-.8 4.7-2 2.4-1-5.2-3.2Z"/><path fill="#1490DF" d="M196.5 20h-.4a5 5 0 0 0-2 .4l-3.2 1.3 1 .6 3 1.8 1.3.8 4.4 2.7a5.1 5.1 0 0 0-4.1-7.6Z"/><path fill="#28A8EA" d="m196.2 24.8-1.3-.7-3-1.9-1-.5-2.4 1-4.6 2-2 .8-4.8 2a6.4 6.4 0 0 0 5.2 2.7h13.8a5.1 5.1 0 0 0 4.5-2.7l-4.4-2.7Z"/><path fill="#036C70" d="M226.1 27.3c3.8 0 6.8-3 6.8-6.7 0-3.6-3-6.6-6.8-6.6s-6.8 3-6.8 6.6c0 3.7 3 6.7 6.8 6.7Z"/><path fill="#1A9BA1" d="M232.5 32.2c3.2 0 5.9-2.5 5.9-5.7 0-3.1-2.7-5.7-5.9-5.7a5.8 5.8 0 0 0-5.9 5.7c0 3.2 2.7 5.7 5.9 5.7Z"/><path fill="#37C6D0" d="M226.8 36.4c2.6 0 4.7-2 4.7-4.6 0-2.5-2.1-4.5-4.7-4.5s-4.6 2-4.6 4.5 2 4.6 4.6 4.6Z"/><path fill="#000" d="M227.3 18.9h-7.8a6.4 6.4 0 0 0 2.4 7 7 7 0 0 0 4.2 1.4h.6c-1.2 0-2.4.5-3.3 1.4-.8.8-1.3 2-1.3 3.1v.4h5.2c.3 0 .5-.1.7-.3l.3-.6V19.8a1 1 0 0 0-.3-.6 1 1 0 0 0-.7-.3Z" opacity=".1"/><path fill="#000" d="M226.6 19.6h-7.3a6.4 6.4 0 0 0 1.2 5 6.7 6.7 0 0 0 4.5 2.6l1.1.1h.6a4.8 4.8 0 0 0-3.3 1.4A4.5 4.5 0 0 0 222 32c0 .3 0 .6.2.9h4.3c.2 0 .5-.1.7-.3l.2-.6V20.5a1 1 0 0 0-.2-.6 1 1 0 0 0-.7-.3Z" opacity=".2"/><path fill="#000" d="M226.6 19.6h-7.3a6.4 6.4 0 0 0 1.2 5 6.7 6.7 0 0 0 4.5 2.6l1.1.1h.6c-1.2 0-2.3.5-3.1 1.3-.9.7-1.4 1.8-1.5 2.9h4.5c.2 0 .5-.1.7-.3l.2-.6v-10a1 1 0 0 0-.2-.7 1 1 0 0 0-.7-.3Z" opacity=".2"/><path fill="#000" d="M225.9 19.6h-6.6a6.4 6.4 0 0 0 1.2 5 6.7 6.7 0 0 0 4.5 2.6l1.1.1h.6c-1.2 0-2.3.5-3.1 1.3-.9.7-1.4 1.8-1.5 2.9h3.8c.2 0 .5-.1.6-.3l.3-.6v-10a1 1 0 0 0-.3-.7 1 1 0 0 0-.6-.3Z" opacity=".2"/><path fill="#03787C" d="M216.2 19.6h9.7c.2 0 .5.1.6.3.2.1.3.4.3.6V30c0 .2 0 .5-.3.6a1 1 0 0 1-.6.3h-9.7a1 1 0 0 1-.6-.3 1 1 0 0 1-.3-.6v-9.4c0-.2 0-.5.3-.6l.6-.3Z"/><path fill="#fff" d="M219.4 25c-.3 0-.5-.3-.7-.5 0-.3-.2-.6-.1-.9 0-.4.1-.7.3-1l1-.7c1.1-.3 2.2-.3 3.3 0v1.3l-.8-.3-1-.1a2 2 0 0 0-1 .2c-.1 0-.2 0-.3.2l-.1.4a.5.5 0 0 0 .1.3l.5.4.8.3h.2l1 .6c.3 0 .5.3.7.6l.2.9c0 .4 0 .8-.3 1.1l-1 .7-1.4.2-1.2-.1-1-.3v-1.4l1 .5 1.1.2c.4 0 .7 0 1-.3.1 0 .2 0 .3-.2v-.3a.6.6 0 0 0-.1-.5l-.6-.4-1-.4-1-.5Z"/><path fill="#7B83EB" d="M267 22.6a3.8 3.8 0 0 0 0-7.6 3.8 3.8 0 0 0-3.9 3.8c0 2.1 1.7 3.8 3.8 3.8Z"/><path fill="#000" d="M266.7 19.7h-3.4a3.8 3.8 0 0 0 4.5 2.7v-1.8a1 1 0 0 0-1.1-1Z" opacity=".1"/><use xlink:href="#reuse-0" opacity=".2"/><path fill="#5059C9" d="M275.5 22.8c1.5 0 2.8-1.2 2.8-2.8 0-1.5-1.3-2.8-2.8-2.8a2.8 2.8 0 0 0-2.9 2.8c0 1.6 1.3 2.8 2.9 2.8ZM278 23.7h-6.4a.5.5 0 0 0-.4.1.5.5 0 0 0-.2.4v6.5a4.1 4.1 0 0 0 7.4 2.5c.4-.5.6-1 .7-1.5V25a1.2 1.2 0 0 0-1.2-1.2Z"/><path fill="#7B83EB" d="M273.5 24.9v7.6a6.5 6.5 0 0 1-4.8 6.2 6.6 6.6 0 0 1-7.8-3.7 5 5 0 0 1-.2-.8c-.2-.6-.2-1.1-.2-1.7V25a1.2 1.2 0 0 1 .7-1.1l.5-.1h10.5a1.2 1.2 0 0 1 1.3 1.2Z"/><use xlink:href="#reuse-0" opacity=".2"/><path fill="#000" d="M267.8 23.7v10.2a1 1 0 0 1-.9 1h-6a5 5 0 0 1-.2-.8c-.2-.5-.2-1-.2-1.6v-7.7a1.2 1.2 0 0 1 .7-1l.5-.2h6v.1Z" opacity=".1"/><path fill="#000" d="M267 23.7v11.2a1 1 0 0 1-1.1.9h-4.6a6 6 0 0 1-.8-3.3V25a1.2 1.2 0 0 1 .7-1.1l.5-.1h5.2Z" opacity=".2"/><path fill="#000" d="M267 23.7v9.4a1 1 0 0 1-1.1 1h-5.2c-.2-.5-.2-1-.2-1.6V25a1.2 1.2 0 0 1 .7-1.1l.5-.1h5.2Z" opacity=".2"/><path fill="#000" d="M261.7 23.7a1.2 1.2 0 0 0-1.1.7l-.1.5v7.6c0 .6 0 1.1.2 1.7h4.4a1 1 0 0 0 1-.7v-9.8h-4.4Z" opacity=".2"/><path fill="#4B53BC" d="M254.2 20.4H265a1.1 1.1 0 0 1 1.2 1.1v10.8a1 1 0 0 1-.4.8 1 1 0 0 1-.8.2h-10.8a1 1 0 0 1-1-1V21.5c0-.3 0-.6.3-.8.2-.2.5-.3.7-.3Z"/><path fill="#fff" d="M262.9 24.5h-2.4v6.4h-1.6v-6.4h-2.5v-1.6h6.5v1.6Z"/><path fill="#C10053" d="m298.6 38 19.5-12-19.5-12v8.8a.2.2 0 0 0 .1.3l3.1 2.3.9.6h-.1l-3.9 2.9a.3.3 0 0 0 0 .3V38Zm-6.5-16.8v9.6l6.5-4.8-6.5-4.8Z"/><path fill="#C10053" d="M298.6 38v-9l.1-.1 3.9-2.8V26l-.8-.6-3-2.3a.2.2 0 0 1-.2-.3V14l19.5 12-19.5 12Z"/><path fill="#1A5ABD" d="m332.4 25.9 7.5 7.3c.8.8 2 .8 2.8 0l2.5-2.4c.8-.8.8-2 0-2.7l-7.5-7.4a2 2 0 0 0-2.8 0l-2.5 2.4a2 2 0 0 0 0 2.8Z"/><path fill="#45A9EF" d="m350.1 15.4-12.8 12.5a2 2 0 0 0 0 2.7l2.8 2.7c.7.8 2 .8 2.7 0l12.8-12.5c.8-.8.8-2 0-2.8l-2.7-2.6a2 2 0 0 0-2.8 0Z"/><path fill="#359051" d="m220.4 113 3 5.5 3-5.5h-6Z"/><path fill="#EA4334" d="m227 125.5 3 5.5 3-5.5h-6Z"/><path fill="#0266D9" d="m213 125.5 3 5.5 3-5.5h-6Z"/><path fill="#34A852" d="M213 125.5h6l4.4-7-3-5.5-7.4 12.5Z"/><path fill="#FFBA00" d="m223.4 118.5 3.7 7h5.9l-6.7-12.5"/><path fill="#4285F4" d="M216 131h14l-3-5.5h-8l-3 5.5ZM248.3 131H244v-13.7l4.3 4.3v9.4Z"/><path fill="#34A852" d="M259.7 131h4.3v-13.7l-4.3 4.3v9.4Z"/><path fill="#FBBC06" d="M259.7 121.6v-6c0-.7.3-1.3.7-1.8a2 2 0 0 1 1.5-.8 2 2 0 0 1 1.5.8c.4.4.6 1 .6 1.8v1.7l-4.3 4.3Z"/><path fill="#C5221F" d="m248.3 121.6-4.3-4.3v-1.7c0-.7.2-1.3.6-1.8a2 2 0 0 1 1.5-.8 2 2 0 0 1 1.6.8c.4.4.6 1 .6 1.8v6Z"/><path fill="#EA4334" d="m259.7 121.6-5.7 5.1-5.7-5.1v-6l5.7 5.1 5.7-5.1v6ZM276.4 113h3.6v14.3h-5v-13c0-.4.1-.7.4-1 .3-.2.6-.3 1-.3Z"/><path fill="#FBBC06" d="M295 117.5h-5v9.8h5v-9.8Z"/><path fill="#0266D9" d="M295 117.6h-5V113h3.6c.4 0 .7.1 1 .3.3.3.4.6.4 1v3.2Z"/><path fill="#359051" d="M280 127.3h-5v3.7h5v-3.8ZM292.4 129.5 290 131v-3.8h5l-2.5 2.3Z"/><path fill="#34A852" d="M290 127.3h-10v3.7h10v-3.8Z"/><path fill="#4285F4" d="M290 113h-10v3.8h10V113Z"/><path fill="#FBBC06" d="M308 113h3.6v14.5H305V115c0-.5.3-1 .9-1.4a4 4 0 0 1 2-.5ZM326 117.8h-7.7v9.7h7.7v-9.7Z"/><path fill="#FBBC06" d="M308.3 113v5h10v-5h-10Z"/><path fill="#0266D9" d="M326 127.5h-7.7v3.5h7.7v-3.5Z"/><path fill="#02AD46" d="M318.3 127.5h-6.7v3.5h6.7v-3.5Z"/><path fill="#00832E" d="M305 127.5h6.6v3.5h-5c-.4 0-.8-.1-1.1-.3-.3-.2-.5-.5-.5-.7v-2.5Z"/><path fill="#EA4334" d="m318.3 113 7.7 4.8h-7.7V113Z"/><path fill="#2684FC" d="M340 118h-4v8h4v-8Z"/><path fill="#0266D9" d="M340 126h-4v5h4v-5Z"/><path fill="#FBBC06" d="M350.7 113h-4v9h4v-9Z"/><path fill="#02AD46" d="M350.7 122h-4v9h4v-9Z"/><path fill="#FFBA00" d="M346.7 118v-5h-6.6v5h6.6Z"/><path fill="#02AD46" d="M346.7 131v-5h-6.6v5h6.6Z"/><path fill="#00832E" d="m347.2 122.6 7.3 6.3.5.2c.2 0 .3 0 .5-.2l.4-.5.1-.6v-11.5l-.1-.7-.4-.4a.9.9 0 0 0-.5-.2c-.2 0-.4 0-.5.2l-7.3 6.3-.2.2a.8.8 0 0 0 0 .6l.2.3Z" opacity=".8"/><path fill="#EA4334" d="m336 118 4-5v5h-4Z"/><path fill="#000" d="M47.7 22.3c0-1.1.2-2.1.5-2.9l1-1.6c.5-.4 1-.8 1.6-1 .7-.3 1.5-.4 2.4-.4 1.7 0 3 .5 4 1.5a6 6 0 0 1 1.6 4.4 6 6 0 0 1-1.5 4.3c-1 1-2.4 1.6-4 1.6-1.7 0-3-.5-4.1-1.6a6 6 0 0 1-1.5-4.3Zm2.4 0c0 1.3.3 2.2.9 3a3 3 0 0 0 2.3 1c.9 0 1.6-.4 2.2-1 .6-.7 1-1.7 1-3 0-1.4-.4-2.4-1-3a3 3 0 0 0-2.2-1 3 3 0 0 0-2.3 1c-.6.7-1 1.6-1 3Zm9.8-2.6H61v-.6c0-.7 0-1.2.2-1.6.2-.3.4-.6.8-.8.4-.2 1-.3 1.6-.3.6 0 1.2 0 1.8.2l-.3 1.6-1-.2c-.3 0-.6.1-.7.3l-.2.8v.6h1.6v1.7h-1.6V28H61v-6.6h-1.2v-1.7Zm5.5 0h1.3v-.6c0-.7 0-1.2.2-1.6.1-.3.4-.6.8-.8.4-.2 1-.3 1.5-.3.6 0 1.3 0 1.9.2l-.3 1.6-1-.2c-.4 0-.6.1-.7.3-.2.1-.2.4-.2.8v.6h1.6v1.7h-1.6V28h-2.2v-6.6h-1.3v-1.7Zm6.6-1.1v-2h2.2v2H72Zm0 9.4v-8.3h2.2V28H72Zm12-5.8-2.3.3c0-.4-.2-.7-.5-1-.2-.1-.5-.3-1-.3s-1 .2-1.3.6c-.3.4-.5 1-.5 1.9 0 1 .2 1.7.5 2 .4.5.8.7 1.4.7.4 0 .7-.1 1-.4.3-.2.4-.6.6-1.2l2.1.4c-.2 1-.6 1.7-1.3 2.2a4 4 0 0 1-2.5.8c-1.2 0-2.2-.4-3-1.2-.7-.7-1-1.8-1-3.1 0-1.4.3-2.5 1-3.2.8-.8 1.8-1.2 3-1.2 1 0 1.8.2 2.4.7.6.4 1 1 1.3 2Zm6.6 3.2 2.2.3c-.3.8-.7 1.4-1.3 1.9a4 4 0 0 1-2.3.6c-1.4 0-2.5-.5-3.2-1.4-.5-.8-.8-1.7-.8-2.9 0-1.4.3-2.4 1-3.2.8-.8 1.7-1.2 2.8-1.2 1.2 0 2.2.4 2.9 1.2.7.9 1 2.1 1 3.8h-5.5c0 .6.2 1.1.6 1.5.3.4.7.5 1.2.5.4 0 .7 0 .9-.2.2-.2.4-.5.5-1Zm.1-2.3c0-.6-.1-1-.4-1.4-.4-.3-.7-.5-1.2-.5s-.9.2-1.2.5a2 2 0 0 0-.4 1.4h3.2Zm3.7 1.9 2.1-.3c.1.5.3 1 .6 1.2.3.3.6.5 1 .5.5 0 .9-.2 1.2-.5.3-.4.5-.8.5-1.4 0-.6-.2-1-.5-1.3-.3-.4-.6-.5-1-.5l-1 .1.2-1.8c.6 0 1 0 1.3-.3.4-.3.5-.7.5-1.1 0-.4-.1-.7-.3-1-.3-.2-.6-.3-1-.3-.3 0-.6.1-1 .4l-.4 1.1-2-.3c.1-.7.3-1.3.6-1.7.3-.4.7-.7 1.2-1a4 4 0 0 1 1.7-.3c1 0 2 .3 2.6 1 .5.6.8 1.2.8 2 0 1-.5 1.7-1.6 2.3.6.2 1.1.5 1.5 1 .4.5.6 1 .6 1.8 0 1-.3 1.8-1 2.5-.8.7-1.7 1.1-2.8 1.1-1 0-2-.3-2.6-.9-.7-.6-1-1.4-1.2-2.3Zm16.7-5.6-2.1.2c-.1-.5-.2-.8-.5-1-.2-.2-.5-.3-.8-.3-.5 0-.9.2-1.2.6-.3.4-.5 1.3-.6 2.6.6-.6 1.2-1 2-1 1 0 1.8.4 2.4 1.1.7.7 1 1.6 1 2.7 0 1.2-.4 2.1-1 2.8-.7.7-1.6 1.1-2.7 1.1s-2.1-.5-2.8-1.3c-.8-1-1.2-2.4-1.2-4.5 0-2 .4-3.6 1.2-4.5.8-1 1.8-1.4 3-1.4.9 0 1.6.2 2.2.7.6.5 1 1.2 1 2.2Zm-5 4.7c0 .8.2 1.3.5 1.7.3.4.7.6 1.1.6.4 0 .8-.2 1-.5.3-.3.4-.8.4-1.6 0-.7-.1-1.3-.4-1.6-.3-.3-.7-.5-1-.5-.5 0-.9.1-1.2.5-.3.3-.4.8-.4 1.4Zm6.7 1 2.2-.3c0 .5.3 1 .6 1.2a1.5 1.5 0 0 0 2.2-.1c.3-.4.5-1 .5-1.7s-.2-1.2-.5-1.6c-.3-.3-.7-.5-1.2-.5-.7 0-1.2.3-1.7.8l-1.8-.2 1.1-6h5.8v2H116l-.4 2c.5-.2 1-.4 1.5-.4 1 0 1.8.4 2.5 1.1.7.7 1 1.6 1 2.8 0 .9-.3 1.7-.8 2.5-.7 1-1.8 1.5-3.1 1.5-1 0-2-.3-2.6-.9-.7-.5-1-1.3-1.2-2.2Z"/><defs><linearGradient id="a" x1="27.5" x2="27.5" y1="200.2" y2="161.2" gradientUnits="userSpaceOnUse"><stop stop-color="#911A1E"/><stop offset="1" stop-color="#D61E25"/></linearGradient><linearGradient id="c" x1="274.9" x2="248.9" y1="202.6" y2="186.9" gradientUnits="userSpaceOnUse"><stop offset=".2" stop-color="#0052CC"/><stop offset="1" stop-color="#2684FF"/></linearGradient><linearGradient id="d" x1="107668" x2="108122" y1="211221" y2="211770" gradientUnits="userSpaceOnUse"><stop offset=".2" stop-color="#0052CC"/><stop offset="1" stop-color="#2684FF"/></linearGradient><linearGradient id="e" x1="1075.1" x2="938.2" y1="8761.9" y2="8853.5" gradientUnits="userSpaceOnUse"><stop offset=".2" stop-color="#0052CC"/><stop offset="1" stop-color="#2684FF"/></linearGradient><linearGradient id="f" x1="1114.4" x2="1250.9" y1="9206.7" y2="9115.4" gradientUnits="userSpaceOnUse"><stop offset=".2" stop-color="#0052CC"/><stop offset="1" stop-color="#2684FF"/></linearGradient><linearGradient id="g" x1="247.7" x2="247.7" y1="217.7" y2="274.7" gradientUnits="userSpaceOnUse"><stop stop-color="#0091E6"/><stop offset="1" stop-color="#0079BF"/></linearGradient><radialGradient id="b" cx="0" cy="0" r="1" gradientTransform="matrix(17 0 0 16 104.6 174.7)" gradientUnits="userSpaceOnUse"><stop stop-color="#FFB900"/><stop offset=".6" stop-color="#F95D8F"/><stop offset="1" stop-color="#F95353"/></radialGradient><pattern id="h" width="1" height="1" patternContentUnits="objectBoundingBox"><use xlink:href="#i" transform="scale(0)"/></pattern></defs></svg>