<svg xmlns="http://www.w3.org/2000/svg" xmlns:xlink="http://www.w3.org/1999/xlink" fill="none" viewBox="0 0 1422 591"><defs><path id="reuse-0" fill="#000" d="M1128 524.7h-5.2a8.3 8.3 0 0 0 7.5 4.8v-2.4a2.4 2.4 0 0 0-2.3-2.4Z" opacity=".2"/></defs><path fill="#0075C9" d="M68.3 27.3A18.5 18.5 0 0 0 52 37.1a18.7 18.7 0 0 0-27.6-6V15.3a3.7 3.7 0 1 0-7.4 0v30.7a18.6 18.6 0 0 0 35 8.4 18.5 18.5 0 1 0 16.4-27.2ZM35.5 57a11.2 11.2 0 1 1-.2-22.4 11.2 11.2 0 0 1 .2 22.4Zm32.8 0a11.2 11.2 0 1 1-.2-22.4 11.2 11.2 0 0 1 .2 22.4Z"/><path fill="#0075C9" d="M111.8 58.6 102.3 46l9.5-12.8a3.7 3.7 0 0 0-3.5-5.8c-1 .1-1.9.6-2.5 1.4l-8.2 11-8.2-11a3.7 3.7 0 0 0-5.9 4.4L93 46l-9.5 12.7a3.7 3.7 0 0 0 6 4.4l8.1-10.9 8.2 11a3.8 3.8 0 0 0 5.2.6 3.7 3.7 0 0 0 .8-5Z"/><path fill="#00A1E0" d="M285.7 8.3a19 19 0 0 1 23.5-3.2c3 1.7 5.4 4.2 7.1 7.2 3-1.3 6.2-2 9.5-2a23.7 23.7 0 0 1 0 47.3c-1.5 0-3-.1-4.6-.4a17.3 17.3 0 0 1-22.5 7 19.5 19.5 0 0 1-36.3-.9 18.2 18.2 0 0 1-21.9-17.9 18.4 18.4 0 0 1 9-15.9A21.4 21.4 0 0 1 254 6.2a21.1 21.1 0 0 1 31.7 2.1Z"/><path fill="#fff" d="m256.2 39.5.1.2.6.4c1 .5 2 .8 3.2.8 2.3 0 3.7-1.2 3.7-3.1 0-1.7-1.6-2.4-3.1-2.8h-.2c-1.1-.4-2-.7-2-1.4s.5-1.1 1.4-1.1c1 0 2 .2 2.8.7 0 0 .3.1.3-.1l.5-1.2c.1-.1 0-.2-.1-.2-1-.6-2-1-3.2-.9h-.2c-2.1 0-3.5 1.2-3.5 3 0 1.9 1.6 2.5 3 2.9h.3c1 .3 2 .6 2 1.4 0 .7-.6 1.2-1.6 1.2s-2-.3-2.9-.8l-.3-.2c-.1-.1-.3-.2-.3.1l-.5 1.2v-.1Zm32.7 0c-.1.2 0 .2 0 .2l.7.4c1 .5 2 .8 3.2.8 2.3 0 3.6-1.2 3.6-3.1 0-1.7-1.5-2.4-3-2.8h-.2c-1.1-.4-2-.7-2-1.4s.5-1.1 1.4-1.1a6.4 6.4 0 0 1 2.9.7.2.2 0 0 0 .2-.1l.5-1.2v-.2c-1-.6-2-1-3.2-.9h-.3c-2 0-3.4 1.2-3.4 3 0 1.9 1.5 2.5 3 2.9h.2c1.1.3 2 .6 2 1.4 0 .7-.6 1.2-1.5 1.2-1 0-2-.3-2.9-.8l-.4-.2c0-.1-.2-.1-.3.1l-.4 1.2-.1-.1Zm22.3-3.8c0 1-.2 1.8-.6 2.6a2.2 2.2 0 0 1-3.6 0c-.4-.8-.6-1.7-.6-2.6 0-.9.2-1.7.6-2.5a2.2 2.2 0 0 1 3.6 0c.4.8.6 1.6.6 2.5Zm1.9-2c-.2-.6-.5-1.1-.9-1.6l-1.4-1.1c-.6-.2-1.3-.4-2-.4s-1.4.2-2 .4a4 4 0 0 0-1.4 1.1 5 5 0 0 0-.9 1.6 6.8 6.8 0 0 0 0 4c.2.6.5 1.2.9 1.7s.8.8 1.4 1c.6.3 1.3.4 2 .4a4.5 4.5 0 0 0 3.4-1.4c.4-.5.7-1 .9-1.7.3-1.3.3-2.7 0-4Zm15.3 5.2-.1-.1a.2.2 0 0 0-.2 0l-.8.2h-1.1a2.9 2.9 0 0 1-2.1-.8c-.6-.7-.9-1.7-.8-2.6 0-.9.2-1.7.7-2.4a2.6 2.6 0 0 1 2.1-.9l2 .2s.1.1.2-.1l.4-1.3c.1-.5 0-.2-.1-.2l-1.2-.3H326c-.7 0-1.4.2-2.1.4-.6.3-1 .6-1.5 1.1a5 5 0 0 0-.9 1.6c-.2.6-.3 1.3-.3 2 0 1.3.3 2.7 1.2 3.7a4.6 4.6 0 0 0 3.7 1.4c.9 0 1.8-.2 2.6-.5 0 0 .2 0 .1-.2l-.4-1.2Zm3.2-4.2c0-.5.3-1 .5-1.5a2 2 0 0 1 1.8-.9 1.9 1.9 0 0 1 1.8.9c.3.4.4 1 .4 1.5h-4.5Zm6.3-1.3-.8-1.5c-.3-.4-.8-.7-1.2-.9a4.8 4.8 0 0 0-3.9 0 4 4 0 0 0-1.4 1.1c-.4.5-.7 1-.9 1.7a6.8 6.8 0 0 0 0 4 4.2 4.2 0 0 0 2.5 2.7c.7.2 1.5.3 2.3.3 1.1 0 2.2-.2 3.2-.6v-.3l-.4-1.2h-.2c-.8.4-1.7.5-2.6.5-.8 0-1.6-.2-2.2-.7-.5-.6-.7-1.3-.7-2.1h6.3a.2.2 0 0 0 .1 0v-.1l.1-.1c.1-.9 0-1.8-.2-2.7v-.1Zm-56.8 1.4c0-.5.3-1 .5-1.5a2 2 0 0 1 1.8-.9 1.9 1.9 0 0 1 1.8.9c.3.4.4 1 .4 1.5h-4.5Zm6.3-1.3-.8-1.5c-.3-.4-.8-.7-1.2-.9a4.8 4.8 0 0 0-5.4 1.1l-.8 1.7a6.8 6.8 0 0 0 0 4 4.2 4.2 0 0 0 2.5 2.7c.7.2 1.5.3 2.3.3 1.1 0 2.2-.2 3.2-.6V40l-.4-1.2h-.2c-.8.4-1.7.5-2.6.5-.8 0-1.6-.2-2.2-.7-.5-.6-.7-1.3-.7-2.1H287.5l.1-.2c.1-.9 0-1.8-.2-2.7v-.1ZM267.5 39l-.4-.3a2 2 0 0 1-.2-.9 1.4 1.4 0 0 1 .6-1.2 2.3 2.3 0 0 1 1.8-.4h1.7v2.9l-1.7.2c-.6 0-1.3 0-1.8-.4v.1Zm2.5-4.5h-1c-.5 0-1 0-1.5.2-.5.1-1 .3-1.4.6-.3.3-.7.6-.9 1l-.3 1.5c0 .5.1 1 .3 1.4l.8 1c.4.3.8.5 1.3.6h3.6l1.6-.3.4-.2c.2 0 .1-.2.1-.2v-5.8a3.4 3.4 0 0 0-1-2.8 4 4 0 0 0-2.9-.9l-1.6.2a5.2 5.2 0 0 0-2 .7l-.1.1.1.1.4 1.2c.1.2.2.1.2.1h.1c.9-.4 1.8-.7 2.8-.7.5 0 1 .2 1.5.5.4.2.5.6.5 1.5v.2h-1Zm50.9-3.3-.1-.2-1.1-.2c-.5 0-1.1 0-1.6.3l-1.1.8V31l-.2-.1H315.1l-.1.2v9.5l.2.1h1.8l.1-.2v-4.8c0-.5 0-1 .2-1.6l.5-1 .8-.4h1.6c.1.1.1 0 .2-.1l.5-1.4Z"/><path fill="#fff" d="m305.3 26.8-.6-.2h-.9c-1 0-1.9.3-2.6.9-.7.8-1.2 1.8-1.3 2.9v.4h-1.4a.2.2 0 0 0-.2.2l-.3 1.3v.1l.2.1h1.4l-1.4 7.9c0 .5-.2 1-.4 1.6 0 .3-.2.6-.4.9l-.6.4h-1.2l-.4-.2-.2.2-.5 1.2v.2l.1.1.6.2h.9a3.3 3.3 0 0 0 2.8-1l.8-1.4.5-2.1 1.4-8.1h2.1a.2.2 0 0 0 .2-.2l.3-1.3a.2.2 0 0 0-.2-.2h-2.1l.4-1.4.4-.7.6-.3h1.4c.2.1.2 0 .2-.1l.5-1.3c.1-.1 0-.2-.1-.2v.1Zm-28.2 13.6-.1.2h-1.7a.2.2 0 0 1-.2-.2V27a.2.2 0 0 1 .1-.2h1.8l.1.2v13.4Z"/><path fill="#000" fill-rule="evenodd" d="m551.6 55.5 2.8-6.7c3.4 2.3 7.4 3.6 11.5 3.5 3.2 0 5-1.2 5-3 0-4.9-18.3-1-18.4-13.5 0-6.3 5.6-11.2 13.5-11.2 4.8 0 9.6 1 12.9 3.8l-2.6 7a20.1 20.1 0 0 0-10.7-3.4c-2.4 0-4 1-4 2.6 0 4.9 18.3 2.3 18.5 14.2 0 6.4-5.4 11-13.4 11-5.4.3-10.7-1.3-15.1-4.3Zm111.8-9.2a8.8 8.8 0 0 1-7.4 4.3 8.3 8.3 0 0 1-8.3-8.4 8.3 8.3 0 0 1 12.6-7.3c1.3.7 2.3 1.8 3.1 3l8-4.3a17.6 17.6 0 1 0 0 17.2l-8-4.5ZM584.1 10h10.1v49.2h-10.1V10Zm91.2 0v49.2h10.1V44.4l12 14.8h12.8L695 41.7l14-16.4h-12.2l-11.4 13.5V10h-10Z" clip-rule="evenodd"/><path fill="#000" d="M624 46.5a9.2 9.2 0 0 1-7.8 4 8.3 8.3 0 0 1-8.3-8.3 8.3 8.3 0 0 1 8.3-8.5 9 9 0 0 1 7.8 4.4v8.4Zm0-21.2v4c-1.6-2.8-5.7-4.7-10-4.7-8.7 0-15.7 7.8-15.7 17.5s7 17.8 15.7 17.8c4.3 0 8.4-2 10-4.8v4h10.1V25.2h-10Z"/><path fill="#E01E5A" fill-rule="evenodd" d="M489.5 46.3a6.4 6.4 0 0 1-6.3 6.3 6.3 6.3 0 0 1-6.2-6.3 6.2 6.2 0 0 1 6.2-6.1h6.3v6.1Zm3 0a6.3 6.3 0 0 1 12.4 0V62a6.3 6.3 0 0 1-12.4 0V46.3Z" clip-rule="evenodd"/><path fill="#36C5F0" fill-rule="evenodd" d="M498.8 21.4a6.1 6.1 0 0 1-6.3-6.1 6.3 6.3 0 1 1 12.4 0v6.1h-6.1Zm0 3.2a6.3 6.3 0 0 1 0 12.4h-15.6a6.3 6.3 0 1 1 0-12.4h15.6Z" clip-rule="evenodd"/><path fill="#2EB67D" fill-rule="evenodd" d="M523.5 30.9a6.3 6.3 0 0 1 6.3-6.3 6.3 6.3 0 0 1 0 12.4h-6.3V31Zm-3 0a6.3 6.3 0 0 1-6.3 6.1 6.2 6.2 0 0 1-6.1-6.1V15.3a6.3 6.3 0 0 1 6.1-6.3 6.4 6.4 0 0 1 6.3 6.3v15.6Z" clip-rule="evenodd"/><path fill="#ECB22E" fill-rule="evenodd" d="M514.2 55.6a6.4 6.4 0 0 1 6.3 6.3 6.3 6.3 0 0 1-6.3 6.2 6.2 6.2 0 0 1-6.1-6.2v-6.3h6.1Zm0-3a6.3 6.3 0 0 1-6.1-6.3 6.2 6.2 0 0 1 6.1-6.1h15.6a6.2 6.2 0 0 1 6.2 6.1 6.3 6.3 0 0 1-6.2 6.3h-15.6Z" clip-rule="evenodd"/><path fill="#2D8CFF" fill-rule="evenodd" d="M934.4 33c.4.7.7 1.6.7 2.5v12a4.1 4.1 0 0 0 3.9 4h1.3v-16a5.3 5.3 0 0 1 7.9-4.6c.8.5 1.5 1.2 2 2 .3.8.5 1.7.6 2.6v12a4.1 4.1 0 0 0 3.9 4h1.4v-16a10.7 10.7 0 0 0-15-9.7c-1.4.7-2.6 1.6-3.6 2.7a10.5 10.5 0 0 0-8-3.6c-2.1 0-4.2.7-6 1.8A7.9 7.9 0 0 0 919 25v26.5h1.3a3.9 3.9 0 0 0 3.9-3.9v-12a5 5 0 0 1 5.2-5.3 5.2 5.2 0 0 1 4.6 2.7h.5Zm-90.8 18.4h21.2v-1.3a4 4 0 0 0-4-3.9h-13.3l16-15.9V29a4 4 0 0 0-4-3.9h-21.3v1.3a4.1 4.1 0 0 0 3.9 4h13.3l-16 15.8v1.4a4.2 4.2 0 0 0 4 4l.2-.2ZM914 28.8a13.3 13.3 0 0 1 0 18.8 13.5 13.5 0 0 1-21.9-4.3A13.3 13.3 0 0 1 914 28.8Zm-3.8 3.7a8 8 0 0 1-5.6 13.6 7.9 7.9 0 0 1-8-8 8 8 0 0 1 8-8 7.9 7.9 0 0 1 5.6 2.4ZM876.7 25a13.3 13.3 0 0 1 9.4 22.7 13.3 13.3 0 0 1-18.7-18.8 12.9 12.9 0 0 1 9.3-3.9Zm5.7 7.6A8 8 0 1 1 871 43.8a8 8 0 0 1 11.3-11.3Z" clip-rule="evenodd"/><path fill="#283343" d="M1093.2 66.8a5.8 5.8 0 0 1-5.8-5.9 5.8 5.8 0 1 1 11.6 0 6 6 0 0 1-1.7 4.2 5.8 5.8 0 0 1-4.1 1.7Zm5.8.8a2.5 2.5 0 0 0 2 2h.8l.3-.1.2-.4V53c0-.1 0-.2-.2-.3l-.3-.2h-2.3c-.2 0-.3 0-.4.2l-.1.3v1.3a7.4 7.4 0 0 0-5.8-2.4 9 9 0 1 0 0 18.2 7.7 7.7 0 0 0 5.8-2.4Zm8.8-2.4c1.4 1 3 1.6 4.8 1.6 1.5 0 3-.8 3-2.2 0-1.4-3.3-2-5.5-2.8-2.2-.7-4-2.3-4-4.7 0-2.4 3.3-5.4 6.5-5.4 1.9 0 3.7.6 5.3 1.6.5.4.2.8.2.8l-1.3 1.8-.1.2h-.2a.5.5 0 0 1-.4 0c-1-.8-2.3-1.2-3.5-1.2-2.2 0-3.1 1-3.1 2 0 1.1 1.5 1.7 3.3 2.2 1.8.5 6.3 1.8 6.3 5.5s-3.1 5.4-6.5 5.4a11 11 0 0 1-6.7-2l-.2-.4v-.4l1.4-1.8.1-.1.2-.1a.5.5 0 0 1 .4 0Zm28.5 2.4a2.5 2.5 0 0 0 2 2h.8l.3-.1.2-.4V53c0-.1 0-.2-.2-.3l-.3-.2h-2.3c-.1 0-.3 0-.4.2l-.1.3v1.3a7.4 7.4 0 0 0-5.8-2.4 9 9 0 1 0 0 18.2 7.7 7.7 0 0 0 5.8-2.4Zm-5.8-.8a5.8 5.8 0 0 1-5.8-5.9 5.8 5.8 0 1 1 11.6 0 6 6 0 0 1-1.7 4.2 5.8 5.8 0 0 1-4.1 1.7Zm29.7 1.3v-8.4c0-4.7-3-7.9-7.8-7.9a6 6 0 0 0-4.8 2.4 2 2 0 0 0-.7-1.3 2 2 0 0 0-1.4-.4h-1.1l-.1.4v16.3l.1.4.4.1h2.7v-9.9a4.6 4.6 0 0 1 4.7-4.6 4.5 4.5 0 0 1 4.3 2.8l.3 1.8v9.6c0 .2 0 .3.2.4l.4.1h2.7v-1.8Zm17.8-.5a2.5 2.5 0 0 0 2 2h.8l.4-.1.2-.4V53h-.1c0-.1 0-.2-.2-.3l-.3-.2h-2.3c-.2 0-.3 0-.4.2l-.1.3v1.3a7.4 7.4 0 0 0-5.8-2.4 9 9 0 1 0 0 18.2 7.7 7.7 0 0 0 5.8-2.4Zm-5.8-.8a5.8 5.8 0 0 1-5.8-5.9 5.8 5.8 0 1 1 11.6 0 6 6 0 0 1-1.7 4.2 5.8 5.8 0 0 1-4.1 1.7Z"/><path fill="url(#a)" d="M1143.2 24.1a8 8 0 1 0 0 16 8 8 0 0 0 0-16Zm-20.7 0a8 8 0 0 0-5.7 13.7 8 8 0 0 0 13.7-5.7 8 8 0 0 0-8-8Zm18.3-10a8 8 0 1 1-16 0 8 8 0 0 1 16 0Z"/><path fill="#C4122E" d="M1340.7 62.8h-4.2V46.2h4.2v16.6ZM1374.5 51c-1.1-.6-2.4-1-3.6-1a4.3 4.3 0 0 0-4.5 4.5c0 .6 0 1.2.3 1.7a4.6 4.6 0 0 0 2.4 2.5l1.8.3c1.2 0 2.5-.3 3.6-1v4.5c-1.3.4-2.5.6-3.8.6-4.8 0-9-3.2-9-8.6 0-5.4 3.8-8.6 9-8.6 1.3 0 2.5.2 3.8.6V51Zm-43.8 0c-1-.6-2.3-1-3.5-1a4.5 4.5 0 0 0-4.8 2.6 4.5 4.5 0 0 0 4.8 6.4c1.2 0 2.4-.4 3.5-1v4.5c-1.3.4-2.5.6-3.8.6-4.7 0-9-3.2-9-8.6a8.5 8.5 0 0 1 9-8.6c1.3 0 2.5.2 3.8.6V51Zm57-1a4.4 4.4 0 0 0-4.4 4.5 4.4 4.4 0 0 0 4.4 4.4 4.4 4.4 0 0 0 4.4-4.4 4.4 4.4 0 0 0-4.4-4.4Zm8.8 4.5a8.8 8.8 0 1 1-8.8-8.6 8.5 8.5 0 0 1 8.8 8.6Zm-40-4.5c-1-.3-2.1-.5-3.2-.5-1.7 0-2.6.5-2.6 1.3s1.2 1.4 1.9 1.6l1.2.4c2.7.9 3.9 2.7 3.9 4.7 0 4.2-3.6 5.6-6.8 5.6-1.6 0-3.1-.2-4.6-.4v-4c1.3.5 2.6.7 4 .8 2 0 3-.6 3-1.6s-.8-1.3-1.8-1.6l-1-.3c-2.3-.8-4.2-2.1-4.2-5 0-2.7 2.3-5.1 6.2-5.1 1.4 0 2.7.2 4 .5V50Z"/><path fill="#15495D" d="M1313.6 28.3c0-.6-.3-1-.7-1.5-.4-.3-.9-.5-1.4-.5a2 2 0 0 0-1.5.5 2 2 0 0 0-.6 1.5v4.4a2 2 0 0 0 .6 1.4c.2.2.4.4.7.4l.8.2a2.1 2.1 0 0 0 2-2v-4.4Zm11.4-5.7a2 2 0 0 0-.6-1.5 2 2 0 0 0-1.5-.6 2.2 2.2 0 0 0-2.1 2v10.2c0 .5.2 1 .6 1.5a2.1 2.1 0 0 0 3 0c.4-.4.6-1 .6-1.5V22.6Zm11.5-7.8a2 2 0 0 0-2.1-2.1c-.6 0-1.1.2-1.5.6-.4.4-.6 1-.6 1.5v22c0 .6.2 1.1.6 1.5.4.4 1 .6 1.5.6s1-.3 1.4-.6c.4-.4.6-.9.7-1.4V14.8Zm11.4 7.8a2 2 0 0 0-.6-1.5 2 2 0 0 0-1.5-.6 2.2 2.2 0 0 0-2.1 2v10.2l.1.8.5.7a2.1 2.1 0 0 0 1.5.6c.5 0 1-.3 1.5-.6.4-.4.6-1 .6-1.5V22.6Zm11.4 5.7a2 2 0 0 0-.6-1.5 2 2 0 0 0-1.5-.5 2 2 0 0 0-1.4.6 2 2 0 0 0-.6 1.4v4.4l.1.8a2 2 0 0 0 1 1.1l.9.2c.5 0 1-.3 1.5-.6.4-.4.6-1 .6-1.5v-4.4Zm11.5-5.7a2.2 2.2 0 0 0-2.2-2 2 2 0 0 0-1.4.6 2 2 0 0 0-.6 1.4v10c0 .6.2 1.2.6 1.6a2.1 2.1 0 0 0 3 0c.4-.4.6-1 .6-1.5V22.6Zm11.4-7.8a2 2 0 0 0-.6-1.5 2 2 0 0 0-1.5-.6c-.6 0-1.1.2-1.5.6-.4.4-.6 1-.6 1.5v22a2.1 2.1 0 0 0 2 2.2 2 2 0 0 0 2-1.2l.2-.8V14.8Zm11.4 7.8a2 2 0 0 0-3.7-1.8l-.4.8v11l.1.9a2 2 0 0 0 1 1.1l.9.2c.5 0 1-.3 1.5-.6.4-.4.6-1 .6-1.5V22.6Zm11.5 5.7c0-.6-.3-1-.7-1.5-.4-.3-.9-.5-1.4-.5a2 2 0 0 0-1.5.5 2 2 0 0 0-.6 1.5v4.4c0 .5.2 1 .6 1.5a2.1 2.1 0 0 0 3 0c.4-.4.6-1 .6-1.5v-4.4Z"/><path fill="#C4122E" d="M1402.7 60.6v.3h-.8v1.9h-.3v-2h-.7v-.2h1.8Zm0 0h.6l.6 1.8.7-1.8h.5v2.2h-.4V61l-.6 1.8h-.3l-.7-1.8v1.8h-.3v-2.2Z"/><path fill="#5F5A5B" d="M37.7 196.5v12.3c0 4.7-5.2 4.8-5.2 4.8s-5.3 0-5.3-4.8v-12.3s-.2-2-3.2-2V209a8.1 8.1 0 0 0 8.5 7.3 8 8 0 0 0 8.4-7.3v-14.7c-3 0-3.2 2.1-3.2 2.1ZM110.7 196.5v12.3c0 4.7-5.2 4.8-5.2 4.8s-5.3 0-5.3-4.8v-12.3s-.2-2-3.2-2V209a8.5 8.5 0 0 0 16.9 0v-14.7c-3 0-3.2 2.1-3.2 2.1ZM69.8 209.1v-14.7c-3 0-3.2 2.1-3.2 2.1v19.6h3.2v-7ZM122.7 209.1v-14.7c-3 0-3.2 2.1-3.2 2.1v19.6h3.2v-7ZM147.5 209.1v-14.7c-3 0-3.2 2.1-3.2 2.1v19.6h3.2v-7ZM55.2 213.6h-5.7v-7.3h5.8c.5 0 3 .4 3 3.6a3.7 3.7 0 0 1-3.1 3.7Zm-5.7-16.4h4.8a3 3 0 0 1 3 2l.3 1.3c0 3-3.2 3.2-3.2 3.2h-5v-6.5Zm8.2 7.7a5.6 5.6 0 0 0 3-4.9c0-3.5-3.1-5.6-6.1-5.6h-8.2v21.7h10.5s4.5-1.2 4.5-5.3c0-4-2.4-5.9-3.7-5.9ZM83.3 213.7c-4.2 0-6.2-3.7-6.2-8.3 0-4.6 2-8.3 6.2-8.3s6.2 3.7 6.2 8.3c0 4.6-2 8.3-6.2 8.3Zm10.2-.4h-4c2-2 3.2-4.9 3.2-7.8 0-4.8-2.1-11-9.6-11 0 0-8.7-.7-9.3 10.8-.6 11.5 9.3 10.8 9.3 10.8 2.4-.3 4.8-.4 7.3-.3h5s-.2-2.5-2-2.5ZM141.6 197.1h-15.8v-2.7h15.8v2.7Z"/><path fill="#5F5A5B" d="M135.4 194.4v21.7h-3.1v-21.7h3Z"/><path fill="#279EDA" fill-rule="evenodd" d="M66 134.4h-3.1v-3.3h3v3.3ZM72.2 150.7H69v-3.3h3v3.3ZM72.2 140.6H69v-3.2h3v3.2ZM75.3 137.4h-3.1v-3.2h3v3.2ZM75.3 146h-3.1v-3.2h3v3.2ZM78.4 142.1h-3.1V139h3v3.2Z" clip-rule="evenodd"/><path fill="#279EDA" fill-rule="evenodd" d="M62.9 139.6h3V157h3v-3h3.3v6.7h3.2v-11.3h3v23.3a19.3 19.3 0 0 0 9.4 14.8c-9.2 0-25-4.2-25-22.8v-25Z" clip-rule="evenodd"/><path fill="url(#b)" d="M0 0h34.3v24.7H0z" transform="matrix(1 0 0 -1 79.8 187.7)"/><path fill="#12100B" fill-rule="evenodd" d="M96.7 176.2s12.4-.7 16-17.4v-27.2s-15.5-1.8-15.5 9.7-.5 35-.5 35Z" clip-rule="evenodd"/><path fill="#5E5B5B" d="M24.8 222.7H26l2.9 4.7v-4.7h1v6.4h-1.1l-3-4.7v4.7h-1v-6.4ZM41.7 222.7h4.6v1h-3.5v1.7H46v1h-3.2v1.7h3.5v1h-4.6v-6.4ZM57.3 222.7h5.2v1h-2v5.4h-1.2v-5.4h-2v-1ZM73.5 222.7h1l1.3 5 1.3-5h1l1.4 5 1.2-5h1l-1.7 6.4h-1.1l-1.3-4.9-1.3 5h-1.1l-1.7-6.5ZM93.4 226c0 1.1.5 2.3 1.9 2.3s1.9-1.2 1.9-2.4-.5-2.4-2-2.4c-1.3 0-1.8 1.2-1.8 2.4Zm5 0a3.1 3.1 0 0 1-3.1 3.2 3.3 3.3 0 1 1 1.2-6.3 3.1 3.1 0 0 1 1.9 3ZM111 225.7h2a1 1 0 0 0 1-.6v-.5c0-.8-.5-.9-1-.9h-2v2Zm-1-2.9h3c1.5 0 2.2.6 2.2 1.7a1.6 1.6 0 0 1-1.1 1.6 1.2 1.2 0 0 1 1 1.3c-.1.6 0 1.2.3 1.7h-1.2c-.1-.3-.2-.6-.1-.9 0-1.2-.3-1.7-1.3-1.7H111v2.6H110v-6.3ZM126.7 222.8h1v3l2.9-3h1.4l-2.5 2.5 2.7 3.8h-1.4l-2.1-3-1 1v2h-1v-6.3ZM143.8 227c0 1 .7 1.4 1.6 1.4.9 0 1.4-.5 1.4-1a.8.8 0 0 0-.5-.8l-2-.5a1.6 1.6 0 0 1-1.3-1.6c0-1.3 1-1.9 2.3-1.9 1.2 0 2.4.7 2.4 2h-1.1c0-.8-.6-1-1.4-1-.8 0-1.1.1-1.1.7s.3.7.7 1l1.9.4a1.6 1.6 0 0 1 1.2 1.6c0 1.4-1.3 2-2.5 2s-2.7-.7-2.7-2.3h1Z"/><path fill="#1976D2" d="M382.8 181.4h-17v3.3h4a6 6 0 1 1 0 12h-7.4l-13.5 13.5h14c4.9-.1 26.5-2.2 26.5-16.5a14.3 14.3 0 0 0-6.6-12.3Z"/><path fill="#1565C0" d="M393.9 192.7c0-7.5-7.4-11.7-9.2-12.5l-2 1.2a14.3 14.3 0 0 1 6.7 12.3c0 14.3-21.6 16.4-26.4 16.5 29.4-.3 30.9-12.9 30.9-17.5Z"/><path fill="#1E88E5" d="M365.4 150.2h-16.5v60l13.5-13.5v-12h3s9.9.6 17.4-3.3l.9-.4 1-.8c2.4-1.5 4.3-3.9 5.3-6.6.6-1.7.9-3.5.9-5.4 0-18-16.2-18-25.5-18Zm6 25.5h-6a3 3 0 0 1-3-3v-6a3 3 0 0 1 3-3h6a6 6 0 1 1 0 12Z"/><path fill="#1565C0" d="M375.4 165.2a6.3 6.3 0 0 1 2 4.5 6 6 0 0 1-6 6h-6a3 3 0 0 1-3-3v-6s0-7.2 3.6-11a14.8 14.8 0 0 0-9.3 7.7c-6.3 11.3-7.8 46.8-7.8 46.8l13.5-10.3v-15.2h3c12 0 22.5-6 22.5-15.6v-.7a.1.1 0 0 1-.2-.2c-3.7-2.2-11-2.8-12.3-3Z"/><path fill="#2559AA" d="M372.1 154.9c-2 0-4.1.3-6.1.9-3.6 3.7-3.6 11-3.6 11a3 3 0 0 1 3-3h6c1.4 0 2.9.5 4 1.4 1.2.2 8.6.8 12.3 3v.1h.2c-.5-7.4-7.4-13.4-15.8-13.4Zm-2.2 41.8h-7.5v3h6c5 0 7.5-4 7.5-9a6 6 0 0 1-6 6Z"/><path fill="#000" d="m428.4 169.4 8 24.3h-3l-2.3-7h-9.8l-2.2 7h-2.9l8-24.3h4.2Zm-6.3 14.9h8.2l-2.5-8.3-1.5-4.6h-.2c-.4 1.5-.9 2.8-1.3 4.6l-2.7 8.3ZM454.2 185.6v-16.2h2.7v16c0 5.8-3.3 8.8-8.9 8.8-5.5 0-8.4-3.2-8.4-8.4v-16.4h2.7v16c0 4.3 2.4 6.2 6 6.2s5.9-1.6 5.9-6ZM467 172h-6.5v-2.6h15.7v2.6h-6.4v21.7h-2.9V172ZM487 194.2c-5.8 0-9.4-3.5-9.4-12.5s3.7-12.6 9.6-12.6c5.8 0 9.4 3.5 9.4 12.3 0 8.9-3.9 12.8-9.6 12.8Zm.2-2.6c4 0 6.6-2.4 6.6-9.9s-2.7-10.2-6.8-10.2c-4 0-6.6 2.4-6.6 10 0 7.4 2.7 10.1 6.8 10.1ZM501.9 169.4h6.4c7.4 0 10.7 3.8 10.7 12 0 8.3-3.2 12.3-10.7 12.3H502v-24.3Zm2.8 22h3.6c5.3 0 7.8-2.8 7.8-9.7 0-6.9-2.8-9.7-8-9.7h-3.4v19.3ZM524.4 193.7v-24.3h12.9v2.6H527v8.2h9v2.4h-9v8.7h10.6v2.4h-13.3ZM553.3 187.6c0-5.6-11.5-4.4-11.5-12 0-3.6 3.1-6.5 7.5-6.5 2.2 0 4.4.7 6.3 2l-1.7 2.2a6.9 6.9 0 0 0-4.8-1.6c-2.8 0-4.5 1.5-4.5 3.7 0 5.7 11.6 4.5 11.6 12 0 3.6-2.9 6.8-8.1 6.8-2.8 0-5.5-.8-7.7-2.6l1.7-2.2c1.7 1.5 4 2.3 6.3 2.2 3.3 0 5-1.8 5-4ZM564 193.7H561v-24.3h2.9v24.3Zm9.4-24.3h3.3l-8.7 12.2 9.5 12.1h-3.6l-9-12 8.5-12.3ZM590.5 180a6.3 6.3 0 0 1-5 2.2 6.6 6.6 0 0 1-5.2-2.1 7.2 7.2 0 0 1-2-5.1 6.9 6.9 0 0 1 2-5.1 6.8 6.8 0 0 1 5.1-2.3 7.7 7.7 0 0 1 7.4 7.4 6.7 6.7 0 0 1-2.3 5Zm-9.4-9.5a6.2 6.2 0 0 0-1.8 4.5 6 6 0 0 0 1.8 4.3 5.6 5.6 0 0 0 4.3 2 5.8 5.8 0 0 0 4.5-2 6 6 0 0 0 1.8-4.3 6.1 6.1 0 0 0-6.3-6.3 6 6 0 0 0-4.3 1.8Zm4.2.4 2.2.3a2 2 0 0 1 1.2 2 2 2 0 0 1-.7 1.6l-1.2.3c.5.2 1 .5 1.3 1a1.7 1.7 0 0 1 .5 1.1v1.2l.1.3h-1.3v-.9a2.1 2.1 0 0 0-.8-1.8l-1.6-.3h-1v3.2h-1.4v-8h2.7Zm1.5 1.2-1.7-.3H584v3h1.2l1.4-.3a1.2 1.2 0 0 0 .9-1.2 1.2 1.2 0 0 0-.6-1.2ZM625.5 171.4a7 7 0 0 1 1.2 3.9 5.4 5.4 0 0 1-3.2 5c1.2.4 2.2 1.2 2.9 2.3.7 1 1 2.4 1 3.6a9 9 0 0 1-1 4l-1.8 2a7 7 0 0 1-2.9 1.2c-1.2.3-2.4.4-3.6.3H607v-24.9H619a7.8 7.8 0 0 1 6.5 2.6Zm-13.7 1.8v5.4h6.2c.9 0 1.8-.2 2.7-.6.6-.3.9-1 .9-2.1a2.4 2.4 0 0 0-1.4-2.4l-2.8-.3h-5.6Zm0 9.6v6.6h6.2c.8 0 1.7 0 2.5-.3a3.3 3.3 0 0 0 1.7-3.2 2.7 2.7 0 0 0-1.7-2.7c-.8-.3-1.7-.5-2.5-.4h-6.2ZM636.7 193.7h-5.2v-24.9h5.2v25ZM658.2 168.8h7.5v25h-4.8v-21l-4.8 21H651l-4.7-21v21h-4.8v-25h7.5l4.7 19.7 4.5-19.7ZM683.2 186.2c0 .9.1 1.7.5 2.4a3.2 3.2 0 0 0 3.1 1.8c1 0 1.9-.3 2.6-.9.6-.8 1-1.8 1-2.8a3.5 3.5 0 0 0-2-3.3c-1.1-.4-2.3-.5-3.5-.5v-3.4c1 0 2.2 0 3.3-.5a2.7 2.7 0 0 0 1.6-2.8 3 3 0 0 0-.9-2.3 2.7 2.7 0 0 0-2.2-.9 2.8 2.8 0 0 0-2.6 1c-.5 1-.8 2-.7 3h-4.5c0-1.2.2-2.4.6-3.5.4-1 1-1.9 2-2.6.5-.6 1.3-1 2.2-1.3 1-.3 2-.5 3.1-.5 2 0 4 .6 5.7 1.8a6.4 6.4 0 0 1 1 8.6c-.6.5-1.2 1-1.9 1.2.8.2 1.5.6 2 1.2a6.1 6.1 0 0 1 1.8 4.6c0 2-.7 4-2.1 5.6a8.7 8.7 0 0 1-6.5 2.4c-3.4 0-5.8-1.2-7.2-3.5-.8-1.4-1.2-3-1.2-4.8h4.8ZM709.6 175.4c0-.4-.2-1-.4-1.3a2.8 2.8 0 0 0-2.4-1.2 3.3 3.3 0 0 0-3.3 2.7c-.6 1.4-.9 2.9-.8 4.3a5 5 0 0 1 2-1.6 8.7 8.7 0 0 1 5.7 0c.9.5 1.7 1 2.4 1.8a7.5 7.5 0 0 1 2 5.7c.1 2.2-.6 4.3-1.9 6a7.7 7.7 0 0 1-6.4 2.7 7.5 7.5 0 0 1-7-4 17.1 17.1 0 0 1-1.6-7.7c0-1.6.1-3.1.3-4.7.1-1.8.7-3.6 1.7-5.2a7 7 0 0 1 2.7-2.9c1.2-.7 2.6-1 4-1 2-.1 4 .5 5.6 1.8a6.3 6.3 0 0 1 2.2 4.6h-4.8Zm-5.8 13.8a3.3 3.3 0 0 0 2.8 1.2 2.5 2.5 0 0 0 2.4-1.2 4.2 4.2 0 0 0 1-3.1c0-1.2-.3-2.3-1-3.3a3.6 3.6 0 0 0-2.7-1 2.8 2.8 0 0 0-2 .7 4.5 4.5 0 0 0-1.6 3.6c0 1.1.4 2.2 1 3.1ZM732.3 172.3a23.9 23.9 0 0 1 0 18.9 7 7 0 0 1-6.6 3.3 7.2 7.2 0 0 1-6.6-3.3c-2.4-6-2.4-12.8 0-19a7.2 7.2 0 0 1 6.6-3.2 7 7 0 0 1 6.6 3.3Zm-9.5 15.9a2.8 2.8 0 0 0 2.9 2.2 2.7 2.7 0 0 0 2.8-2.2c.6-2.1.8-4.3.8-6.5s-.2-4.4-.8-6.6a2.7 2.7 0 0 0-2.8-2 2.8 2.8 0 0 0-2.9 2c-.5 2.2-.7 4.4-.6 6.6 0 2.2.1 4.4.6 6.5Z"/><path fill="#253858" d="M1021.8 157.4h6.2v31.8c0 8.5-3.7 14.3-12.3 14.3-2.6 0-5.1-.3-7.5-1.2v-6.1a14 14 0 0 0 6.4 1.2c5.3 0 7.2-3 7.2-7.7v-32.3ZM1039.6 154.8a4 4 0 0 1 4 3.7v.6a4.2 4.2 0 0 1-2.3 4.6 4.3 4.3 0 0 1-5.1-1.1 4.2 4.2 0 0 1-.9-3.5 3.9 3.9 0 0 1 3.6-4.3h.7Zm-3 13.6h5.9V203h-6v-34.7ZM1051.6 168.4h5.8v6c2-4 5.6-6.9 12.3-6.5v5.9c-7.8-.9-12.3 1.5-12.3 8.8v20.7h-5.8v-35ZM1097.9 197a12.3 12.3 0 0 1-11.9 7c-9.2 0-13.9-8-13.9-18.2 0-10.1 5-18.1 14.8-18.1a11.2 11.2 0 0 1 11 6.8v-6.1h6V203h-6v-6Zm-10.2 1.4c5.4 0 10.2-3.4 10.2-11.2v-2.9c0-7.8-4.4-11.2-9.5-11.2s-10.2 4.4-10.2 12.6c0 8.1 3.2 12.7 9.5 12.7ZM1139.4 204a33 33 0 0 1-16.4-3.6V194c5.2 2.5 11 3.8 16.7 3.9 7 0 9.5-2.7 9.5-6.8 0-4-2.5-6.3-11.2-8.5-8.6-2.2-14.9-6-14.9-13.5s5.5-12.4 16.1-12.4c5-.1 9.8 1 14.1 3.4v6a28.3 28.3 0 0 0-14.4-3.3c-6 0-9.5 2-9.5 6.3 0 4.2 2.9 5.5 11 7.6 8.1 2 15.1 5.6 15.1 13.9s-4.8 13.4-16.1 13.4ZM1161 185.7c0-10.5 6-18 16.4-18 10.3 0 16.6 7.6 16.6 18 0 10.3-6.1 18.3-16.6 18.3-10.5 0-16.5-7.8-16.5-18.3Zm5.7 0c0 6.6 3.4 12.7 10.7 12.7 7.3 0 10.6-6.1 10.6-12.7s-3.2-12.4-10.6-12.4c-7.5 0-10.7 5.8-10.7 12.4ZM1209.2 168.4h9v5.4h-9v29.3h-5.9v-29.3h-5.6v-5.4h5.6v-4c0-6.4 3.5-10.8 11.2-10.8 1.3 0 2.6.2 3.9.5v5.6l-3.8-.3a4.9 4.9 0 0 0-5.2 3 5 5 0 0 0-.3 2.2l.1 3.8ZM1238.5 197.4l3.8-.6v5.8c-1.3.4-2.7.6-4 .5-7.5 0-11.1-4.2-11.1-10.8v-18.5h-5.8v-5.4h5.6v-7.5h6v7.5h9.1v5.4h-9.1v18.3c0 3.2 1.8 5.3 5.5 5.3ZM1244 168.4h6.6l10 29.5 10.2-29.5h5.7l10.2 29.5 10-29.5h6.6l-12.7 34.7h-7.8l-6-16.8-3.2-10.8-3.2 10.8-6 16.8h-7.7l-12.7-34.7ZM1330.8 197a12 12 0 0 1-11.7 7c-9.4 0-14.1-8-14.1-18.2 0-10.1 5-18.1 14.7-18.1a11.2 11.2 0 0 1 11 6.8v-6.1h6.1V203h-6v-6Zm-10.2 1.4c5.4 0 10.2-3.4 10.2-11.2v-2.9c0-7.8-4.5-11.2-9.5-11.2-5.1 0-10.2 4.4-10.2 12.6 0 8.1 3.4 12.7 9.5 12.7ZM1346 168.4h5.8v6c2-4 5.6-6.9 12.3-6.5v5.9c-7.6-.9-12.3 1.5-12.3 8.8v20.7h-5.8v-35ZM1385.3 204c-13 0-18.8-7.7-18.8-18.3 0-10.7 6-18 16.6-18 10.7 0 15 7.5 15 18v2.7h-25.5c.9 6 4.8 9.8 12.9 9.8 3.6 0 7.3-.6 10.7-1.9v5.6c-3.5 1.4-7.2 2.1-10.9 2Zm-12.8-20.7h19.4c-.3-6.5-3.2-10.2-9.1-10.2-6 0-9.7 4-10.3 10.2Z"/><path fill="#2684FF" d="m992.6 178.5-26-25.7-2.3-2.6-19.5 19.5-8.8 8.8a2.2 2.2 0 0 0 0 3.4l17.6 17.8 10.7 10.5 19.3-19.3.4-.3 8.6-8.7a2.5 2.5 0 0 0 0-3.4Zm-28.5 10.7-8.8-9 8.8-8.8 9 8.8-9 9Z"/><path fill="url(#c)" d="M964.1 171.4a15 15 0 0 1 0-21l-19.4 19.3 10.5 10.7 9-9Z"/><path fill="url(#d)" d="m973.1 180.2-9 8.9a15 15 0 0 1 0 21.1l19.5-19.5-10.5-10.5Z"/><path fill="url(#e)" d="M38 345.8h61.5v-61.5H38v61.5Z"/><path fill="#fff" d="M86.3 303.4a16.5 16.5 0 0 0-23.3 0l-.4.3-2.3-.2a13.9 13.9 0 0 0-9.9 4.2 14 14 0 0 0 10 24H75a16.5 16.5 0 0 0 11.3-28.3Zm-25.9 25.2a11.2 11.2 0 0 1-7.8-18.9c2.1-2 5-3.1 7.8-3.2H62l1.7.4c1.1.4 2 .9 3 1.5l1.1 1 .4.3 4.4 4.5a1.6 1.6 0 0 1 0 2.2 1.3 1.3 0 0 1-1 .4 1.5 1.5 0 0 1-1-.4l-3.8-3.6-.7-.8-.4-.4a8 8 0 0 0-3.7-1.8h-1.6c-2 .1-3.9 1-5.4 2.3a7.9 7.9 0 0 0 5.6 13.5H62l1.3 1.2c.7.7 1.4 1.4 2.2 1.8h-5Zm23.8-4c-1.3 1.4-3 2.5-4.9 3.1l-1.7.5c-.8.3-1.7.4-2.7.4h-.3c-3 0-6-1-8.5-3l-1-1-6.3-6.3a1.6 1.6 0 0 1 0-2.2 1.3 1.3 0 0 1 1-.4 1.5 1.5 0 0 1 1.1.4l6.2 6.3 2 1.5c1.7 1 3.5 1.6 5.4 1.5a10 10 0 0 0 7.4-3 10.5 10.5 0 0 0 0-14.8 10.4 10.4 0 0 0-13.2-1.2 10 10 0 0 0-2.8-1.7 13.5 13.5 0 1 1 18.3 20Z"/><g fill="#000" opacity=".5"><path d="M20.5 359.3h1.8l-.9-2.8-1 2.8Zm0-4.5h1.8l2.6 7.3h-1.7l-.4-1.5H20l-.5 1.5H18l2.6-7.3ZM27.6 356.6a1.7 1.7 0 0 1 1.5.8v-2.6h1.4v7.3h-1.3v-.8a2 2 0 0 1-.7.7 2 2 0 0 1-1 .2 2 2 0 0 1-1.5-.7 3 3 0 0 1-.7-2c0-.9.2-1.6.7-2.1a2 2 0 0 1 1.6-.8Zm.3 4.5c.4 0 .7-.2 1-.5.2-.3.3-.7.3-1.1 0-.7-.2-1.1-.5-1.4a1 1 0 0 0-.7-.3c-.5 0-.8.2-1 .5l-.2 1.1c0 .5 0 1 .3 1.2.2.3.5.5.8.5ZM34.2 361c.4 0 .7 0 1-.3.2-.3.3-.8.3-1.3s-.1-1-.3-1.2c-.3-.3-.6-.5-1-.5s-.7.2-1 .5a2 2 0 0 0-.3 1.2c0 .5.2 1 .4 1.3.2.2.5.4 1 .4Zm2.8-1.6c0 .8-.3 1.5-.7 2-.5.6-1.2.9-2 .9-1 0-1.7-.3-2.1-.9-.5-.5-.7-1.2-.7-2s.2-1.4.7-2c.4-.6 1.1-.8 2-.8 1 0 1.6.2 2 .8.5.6.8 1.2.8 2ZM40.9 356.6a2 2 0 0 1 1.6.8c.4.5.6 1.1.6 2 0 .8-.2 1.5-.6 2a2 2 0 0 1-1.6.8 2 2 0 0 1-1-.2c-.3-.1-.4-.3-.6-.6v.7h-1.4v-7.3h1.4v2.6l.6-.5c.3-.2.6-.3 1-.3Zm-.4 4.5c.4 0 .6-.2.8-.5.2-.3.3-.6.3-1.1l-.1-1a1 1 0 0 0-1-.7 1 1 0 0 0-1 .7c-.2.3-.2.6-.2 1s0 .8.3 1.1c.2.3.5.5.9.5ZM46.2 357.7a1 1 0 0 0-.7.3c-.2.2-.3.5-.4.9h2.2c0-.4-.1-.7-.3-.9a1 1 0 0 0-.8-.3Zm0-1.1c.5 0 .9 0 1.2.2l1 .8c.1.3.3.7.3 1.1v1h-3.6c0 .6.2 1 .5 1.2.2.2.4.2.7.2.3 0 .5 0 .7-.2l.3-.4h1.4c0 .3-.2.6-.5 1-.5.5-1.1.8-2 .8-.6 0-1.2-.3-1.7-.7-.5-.4-.8-1.2-.8-2.1 0-1 .2-1.7.7-2.2.5-.5 1-.7 1.8-.7ZM52.3 358.5c0-1.2.4-2.2 1-3a3 3 0 0 1 2.3-.8c1.2 0 2 .4 2.7 1.2.3.4.4.9.5 1.3h-1.6a2 2 0 0 0-.3-.7c-.3-.4-.7-.5-1.3-.5-.5 0-1 .2-1.3.7-.3.4-.4 1-.4 1.8 0 .9.1 1.5.5 1.9.3.4.7.6 1.2.6.6 0 1-.2 1.3-.5l.3-.9h1.5c0 .8-.4 1.4-1 2a3 3 0 0 1-2 .7c-1 0-1.9-.4-2.5-1a4 4 0 0 1-.9-2.8ZM62.7 356.6h.2v1.4a4.3 4.3 0 0 0-.4 0c-.6 0-1 .2-1.2.6l-.1 1v2.5h-1.4v-5.4H61v1l.6-.8c.2-.2.6-.3 1-.3ZM65.8 357.7a1 1 0 0 0-.7.3c-.2.2-.3.5-.4.9H67c0-.4-.1-.7-.3-.9a1 1 0 0 0-.8-.3Zm0-1.1c.5 0 .9 0 1.2.2l1 .8c.1.3.3.7.3 1.1v1h-3.6c0 .6.2 1 .5 1.2.2.2.4.2.7.2.3 0 .5 0 .7-.2l.3-.4h1.4c0 .3-.2.6-.5 1-.5.5-1.1.8-2 .8-.6 0-1.2-.3-1.7-.7-.6-.4-.8-1.2-.8-2.1 0-1 .2-1.7.7-2.2.5-.5 1-.7 1.8-.7ZM72.3 359.5a1.6 1.6 0 0 1-.7.2h-.3a2 2 0 0 0-.6.3c-.2 0-.4.3-.4.6l.2.5.5.1c.3 0 .6 0 .9-.2.2-.2.3-.5.4-1v-.5Zm-.9-.7.6-.1c.2 0 .3-.2.3-.4s-.1-.4-.3-.5h-.6c-.4 0-.6 0-.7.2a1 1 0 0 0-.2.5H69c0-.5.2-.9.4-1.2.4-.5 1-.7 2-.7l1.5.3c.4.3.7.7.7 1.4v2.4a23.7 23.7 0 0 0 0 1l.3.2v.2h-1.6v-.7l-.8.6a2 2 0 0 1-1 .2c-.5 0-.9 0-1.2-.4-.3-.2-.5-.6-.5-1.1 0-.7.3-1.2.8-1.5.3-.1.7-.3 1.2-.3h.5ZM74.4 357.8v-1h.7v-1.5h1.4v1.5h.9v1h-1v2.8l.2.4h.8v1.1h-.7c-.7 0-1.1 0-1.4-.3l-.2-.7v-3.3h-.7ZM79.7 356h-1.4v-1.2h1.4v1.3Zm-1.4.7h1.4v5.4h-1.4v-5.4ZM84.4 356.7h1.5l-2 5.4h-1.4l-2-5.4h1.6l1.1 4 1.2-4ZM88.8 357.7a1 1 0 0 0-.8.3c-.2.2-.3.5-.3.9h2.2c0-.4-.2-.7-.4-.9a1 1 0 0 0-.7-.3Zm0-1.1c.4 0 .8 0 1.2.2l.9.8.4 1.1v1h-3.7c0 .6.2 1 .5 1.2.2.2.5.2.7.2.3 0 .6 0 .7-.2l.3-.4h1.4c0 .3-.2.6-.5 1-.4.5-1 .8-1.9.8-.7 0-1.3-.3-1.8-.7-.5-.4-.8-1.2-.8-2.1 0-1 .3-1.7.7-2.2.5-.5 1.1-.7 1.9-.7ZM94.9 358.5c0-1.2.3-2.2 1-3a3 3 0 0 1 2.2-.8c1.2 0 2.1.4 2.7 1.2.3.4.5.9.5 1.3h-1.5a2 2 0 0 0-.4-.7c-.3-.4-.7-.5-1.2-.5-.6 0-1 .2-1.3.7-.3.4-.5 1-.5 1.8 0 .9.2 1.5.5 1.9.3.4.8.6 1.3.6s1-.2 1.2-.5c.2-.2.3-.5.4-.9h1.5c-.2.8-.5 1.4-1 2a3 3 0 0 1-2.1.7c-1 0-1.9-.4-2.5-1a4 4 0 0 1-.8-2.8ZM103.8 362h-1.4v-7.2h1.4v7.3ZM107.5 361c.4 0 .8 0 1-.3.2-.3.3-.8.3-1.3s-.1-1-.3-1.2c-.2-.3-.6-.5-1-.5s-.7.2-1 .5a2 2 0 0 0-.2 1.2c0 .5 0 1 .3 1.3.2.2.5.4 1 .4Zm2.8-1.6c0 .8-.3 1.5-.7 2-.5.6-1.1.9-2 .9-1 0-1.7-.3-2.1-.9-.5-.5-.7-1.2-.7-2s.2-1.4.7-2c.4-.6 1.1-.8 2-.8 1 0 1.6.2 2 .8.5.6.8 1.2.8 2ZM112.7 356.7v3.9c.2.3.5.4.8.4.5 0 .8-.1 1-.5l.2-.9v-2.9h1.4v5.4h-1.4v-.8.2l-.3.2a2 2 0 0 1-.6.4l-.7.1c-.8 0-1.4-.3-1.6-.9-.2-.3-.3-.7-.3-1.3v-3.3h1.5ZM119.4 356.6a1.7 1.7 0 0 1 1.5.8v-2.6h1.4v7.3h-1.4v-.8a2 2 0 0 1-.6.7 2 2 0 0 1-1 .2 2 2 0 0 1-1.6-.7 3 3 0 0 1-.6-2c0-.9.2-1.6.6-2.1a2 2 0 0 1 1.7-.8Zm.3 4.5c.4 0 .7-.2 1-.5l.2-1.1c0-.7-.1-1.1-.5-1.4a1 1 0 0 0-.7-.3c-.4 0-.7.2-.9.5-.2.3-.3.7-.3 1.1 0 .5.1 1 .3 1.2.2.3.5.5 1 .5Z"/></g><path fill="url(#f)" d="M322 284.8h-47.9a5.8 5.8 0 0 0-5.8 5.8v48c0 3.2 2.6 5.8 5.8 5.8H322c3.2 0 5.8-2.6 5.8-5.8v-48c0-3.2-2.6-5.8-5.8-5.8Z"/><path fill="#fff" d="M317.3 292.6h-12.6a2.8 2.8 0 0 0-2.8 2.8V316c0 1.5 1.3 2.8 2.8 2.8h12.6c1.5 0 2.8-1.3 2.8-2.8v-20.5c0-1.5-1.3-2.8-2.8-2.8ZM291.4 292.6h-12.6a2.8 2.8 0 0 0-2.8 2.8v35.4c0 1.5 1.3 2.8 2.8 2.8h12.6c1.5 0 2.8-1.3 2.8-2.8v-35.4c0-1.5-1.3-2.8-2.8-2.8Z"/><g fill="#000" opacity=".5"><path d="M291.2 354.3v1.3H289v6h-1.5v-6h-2.2v-1.3h5.9ZM294.3 356.1h.2v1.4a4.2 4.2 0 0 0-.4 0c-.6 0-1 .2-1.2.6l-.1 1v2.5h-1.4v-5.4h1.3v1l.6-.8c.2-.2.6-.3 1-.3ZM297.4 357.2a1 1 0 0 0-.7.3l-.4.9h2.2c0-.4-.1-.7-.3-.9a1 1 0 0 0-.8-.3Zm0-1.1c.5 0 .9 0 1.2.2l1 .8c.1.3.3.7.3 1.1v1.1h-3.6c0 .5.2 1 .5 1.1.2.2.4.2.7.2.3 0 .5 0 .7-.2l.3-.4h1.4c0 .3-.2.7-.5 1-.5.5-1.1.8-2 .8-.6 0-1.2-.3-1.7-.7-.6-.4-.8-1.1-.8-2.1s.2-1.7.7-2.2c.5-.5 1-.7 1.8-.7ZM302.3 361.6H301v-7.3h1.4v7.3ZM305.1 361.6h-1.4v-7.3h1.4v7.3ZM309 360.6c.3 0 .6-.1.9-.4.2-.3.3-.7.3-1.3 0-.5-.1-1-.3-1.2-.3-.3-.6-.5-1-.5s-.7.2-1 .5a2 2 0 0 0-.3 1.2c0 .6.1 1 .4 1.3.2.3.5.4 1 .4Zm2.7-1.7c0 .8-.3 1.5-.7 2-.5.6-1.2.9-2 .9-1 0-1.7-.3-2.1-.9-.5-.5-.7-1.2-.7-2s.2-1.4.7-2c.4-.6 1.1-.8 2-.8 1 0 1.6.2 2 .8.5.6.8 1.2.8 2Z"/></g><path fill="#253858" d="M600.2 349.7a26.6 26.6 0 0 1-14.4 3.2c-17.9 0-28-10.6-28-27.8 0-17.3 10.1-28 27.9-28a24 24 0 0 1 14.3 3.7v7.2c-4.3-2.7-9.3-4-14.3-3.7-12.8 0-20.5 8.4-20.5 20.8s7.9 20.8 20.8 20.8c4.9 0 9.7-1.1 14-3.4l.2 7.2Zm5.2-18.3c0-12.4 7.2-21.4 19.6-21.4 12.3 0 19.5 9 19.5 21.4 0 12.3-7.2 21.7-19.5 21.7-12.4 0-19.6-9.4-19.6-21.7Zm6.8 0c0 7.9 4 15 12.8 15s12.5-7.1 12.5-15c0-8-3.7-14.8-12.5-14.8s-12.8 7-12.8 14.8Zm75.8 20.8h-7.2v-25c0-7.5-2.9-10.7-9.7-10.7-6.8 0-11.1 4.3-11.1 12.7v23h-7.2v-41.3h7.2v6.6a14.4 14.4 0 0 1 13-7.5c9.6 0 15 6.6 15 18v24.2Zm19.7-41.3h10.8v6.5h-10.8v34.8h-6.8v-34.8H694v-6.5h6.8v-4.7c0-7.7 4.3-12.9 13-12.9 1.7 0 3.3.3 5 .7v6.7l-4.6-.6c-4.4 0-6.6 2.7-6.6 6.3v4.5Zm29.4 41.5c-6.8 0-11.1-3.3-11.1-10.8v-48.1h7.2v47.2c0 3.8 2.5 5 5.5 5h2v6.3c-1.1.4-2.4.5-3.6.4Zm9.7-41.5h7.2v25c0 7.3 2.9 10.7 9.7 10.7 6.8 0 11.1-4.5 11.1-12.7v-23h7.2v41.3h-7.2v-6.8a14.5 14.5 0 0 1-13 7.7c-9.6 0-15-6.7-15-18V311Zm65.7 42.2c-15.6 0-22.3-9-22.3-21.7 0-12.8 6.9-21.4 19.4-21.4 12.6 0 18 8.8 18 21.4v3.2h-30.2c1 7 5.6 11.6 15.3 11.6 4.3 0 8.5-.8 12.5-2.3v6.7a30 30 0 0 1-12.7 2.5Zm-15.3-24.6h23.2c-.4-7.6-4-12-11-12s-11.4 4.8-12.2 12Zm74 23.7H864v-25c0-7.5-3-10.7-9.7-10.7-6.6 0-11.1 4.3-11.1 12.7v23H836v-41.3h7.2v6.6a14.4 14.4 0 0 1 13-7.5c9.4 0 15 6.6 15 18v24.2Zm39.1-1.1c-3.2 1.3-6.7 2-10.2 1.8-14.7 0-21.6-8.8-21.6-21.5 0-12.8 6.9-21.4 21.6-21.4 3.4-.2 6.8.5 9.9 2v6.4c-3-1.3-6.2-2-9.4-2-10.8 0-15 6.9-15 15 0 8 4.4 14.9 15.2 14.9a27 27 0 0 0 9.3-1.7l.2 6.5Zm27.8 2c-15.4 0-22.2-9-22.2-21.7 0-12.8 7-21.4 19.5-21.4 12.6 0 17.8 8.8 17.8 21.4v3.2h-30.1c1 7 5.5 11.6 15.2 11.6 4.3 0 8.5-.8 12.6-2.3v6.7A30 30 0 0 1 938 353Zm-15-24.6h23c-.4-7.6-4-12-11-12s-11.3 4.8-12 12Z"/><path fill="url(#g)" d="m475.8 340-1.8 3a2 2 0 0 0 .6 2.5l12.4 7.6a2 2 0 0 0 2.5-.6l1.8-2.8c4.8-8.1 9.7-7 18.5-3l12.2 5.8a1.8 1.8 0 0 0 2.3-.9h.2l5.7-13.2a1.8 1.8 0 0 0-.9-2.4l-12.2-5.9c-16.5-7.9-30.5-7.4-41.3 10v-.1Z"/><path fill="url(#h)" d="m530.7 310 1.8-3a2 2 0 0 0-.5-2.6l-12.4-7.5a1.8 1.8 0 0 0-2.5.5l-2 3c-4.6 8.2-9.7 7-18.3 3l-12.2-5.8a2 2 0 0 0-2.5 1l-5.7 13.2a1.6 1.6 0 0 0 .3 2c.1.1.3.3.6.3l12.2 6c16.5 7.8 30.5 7.3 41.2-10.1Z"/><path fill="#0061FF" d="m1134.6 304.6-17.7 11.4 17.7 11.2-17.7 11.3-17.7-11.4 17.7-11.3-17.7-11.2 17.7-11.3 17.7 11.3Zm-17.7 37.5 17.7-11.3 17.6 11.3-17.6 11.2-17.7-11.2Zm17.7-15 17.7-11.3-17.7-11.2 17.6-11.3 17.6 11.3-17.6 11.4 17.6 11.2-17.6 11.3-17.6-11.4Z"/><path fill="#000" d="M1183.7 304.6h14.3c9.2 0 16.7 5.2 16.7 17.4v2.5c0 12-7 17.6-16.4 17.6h-14.6v-37.5Zm8 6.7v23.9h6.2c5.1 0 8.5-3.3 8.5-11v-2c0-7.4-3.6-10.9-8.8-10.9h-5.8Zm27.2.5h6.4l1.1 7c1.2-4.8 4.2-7.3 9.9-7.3h2v8h-3.3c-6.5 0-8.2 2.3-8.2 8.8V342h-7.8v-30.3h-.1Zm21 15.7v-.7c0-10.2 6.4-15.8 15.3-15.8 8.8 0 15.3 5.6 15.3 15.8v.7c0 10-6.2 15.5-15.3 15.5-9.2 0-15.3-5.4-15.3-15.5Zm22.5 0v-.7c0-5.7-2.9-9.2-7.4-9.2s-7.3 3.2-7.3 9.2v.7c0 5.4 2.8 8.6 7.3 8.6s7.4-3.2 7.4-8.6Zm12.3-15.7h6.6l.8 5.7a10.2 10.2 0 0 1 9.9-6.5c7.8 0 12.7 5.6 12.7 15.8v.9c0 9.9-5.5 15.3-12.8 15.3-4.8 0-8-2.3-9.6-5.7v15.3h-7.8v-40.8h.2Zm22 15.7v-.7c0-6-3.1-9-7.2-9-4 0-7.3 3.4-7.3 9v.6c0 5.4 2.8 8.7 7.2 8.7 4.3 0 7.3-3 7.3-8.6Zm19.7 9-.6 5.6h-6.8v-40.5h7.7v15.6c1.6-4 5.1-6.2 9.9-6.2 7.2.2 12.6 5.1 12.6 15.2v.9c0 10-5.1 15.9-12.8 15.9-5-.2-8.4-2.6-10-6.5Zm14.7-9.4v-.8c0-5.5-3-8.7-7.2-8.7s-7.4 3.6-7.4 8.9v.6c0 5.7 2.9 9 7.3 9 4.3 0 7.3-3 7.3-9Zm11.4.4v-.7c0-10.2 6.6-15.8 15.5-15.8 8.8 0 15.3 5.6 15.3 15.8v.7c0 10-6.3 15.5-15.3 15.5s-15.5-5.4-15.5-15.5Zm22.8 0v-.7c0-5.7-2.8-9.2-7.3-9.2s-7.4 3.2-7.4 9.2v.7c0 5.4 2.9 8.6 7.4 8.6s7.3-3.2 7.3-8.6Zm18.3-1.2-10.6-14.5h9.1l6.2 9.1 6.1-9.1h9l-10.8 14.5 11.4 15.8h-9l-6.9-10-6.8 10h-9.3l11.6-15.8Z"/><path fill="#5F6368" d="M228.2 438.5h4.6l-9 34.4H219l-7.4-22.7h-.1l-7.4 22.7h-4.4l-9.6-34.4h4.6l7.3 27h.1l7.5-22.3h4l7.4 22.4h.3l6.8-27ZM232.4 461.2a12.1 12.1 0 0 1 16.8-11.7c1.5.6 2.8 1.6 3.9 2.8a12.2 12.2 0 0 1 3.4 9 12.1 12.1 0 0 1-7.3 11.5c-1.5.6-3 1-4.7.9a11.7 11.7 0 0 1-11.3-7.6c-.6-1.6-.8-3.2-.8-4.9Zm4.5 0c0 2.3.7 4.4 2.2 6a7 7 0 0 0 5.4 2.4 7.4 7.4 0 0 0 5.5-2.3 8.7 8.7 0 0 0 2.2-6 8.4 8.4 0 0 0-2.2-6.1 7.5 7.5 0 0 0-8.5-1.9c-1 .5-1.8 1-2.4 1.9a8.2 8.2 0 0 0-2.2 6ZM264 473h-4.3v-23.6h4.2v3.9h.2a6.4 6.4 0 0 1 2.7-3.2 8 8 0 0 1 7.4-.7l-1.3 4.2-2.6-.3a5.6 5.6 0 0 0-4.4 2 6.4 6.4 0 0 0-1.8 4.6v13ZM296.9 473h-5.4l-7.2-11.2-3.6 3.6v7.5h-4.5v-34.4h4.5v21.1l10-10.2h5.7v.3l-9 9 9.5 14v.2Z"/><path fill="#5F6368" d="M316 466.4a6.5 6.5 0 0 1-2.7 5.2c-2 1.4-4.3 2.1-6.8 2a10.4 10.4 0 0 1-10-6.6l4-1.7a6.5 6.5 0 0 0 6 4.5c1.3 0 2.5-.3 3.5-1a2.5 2.5 0 0 0 1.5-2c0-1.7-1.2-2.7-3.5-3.4l-4-1c-4.5-1.2-6.9-3.5-6.9-6.7a5.8 5.8 0 0 1 2.6-5c2-1.4 4.3-2.1 6.7-2 2-.1 4 .4 5.6 1.4 1.7.9 3 2.3 3.6 4l-4 1.6c-.4-1-1.2-1.8-2.2-2.3-1-.6-2.1-1-3.3-.8-1 0-2.1.2-3 .8a2.5 2.5 0 0 0-1.5 2c0 1.5 1.3 2.4 3.8 3l3.6 1c4.6 1.1 7 3.4 7 7ZM331.3 473.7a9 9 0 0 1-4.8-1.2 7.7 7.7 0 0 1-3.2-2.9h-.3l.3 3.3v10.4h-4.5v-34h4.2v3.4h.3a8.8 8.8 0 0 1 3.2-2.9 10.5 10.5 0 0 1 12.7 2.5 13.6 13.6 0 0 1 0 17.7 10.3 10.3 0 0 1-8 3.7Zm-.8-4a6.8 6.8 0 0 0 5.4-2.4 9.5 9.5 0 0 0 0-12.1 7 7 0 0 0-10.7 0 9.5 9.5 0 0 0 0 12 7 7 0 0 0 5.3 2.4ZM354.5 448.7a11 11 0 0 1 7.7 2.6 9.2 9.2 0 0 1 2.9 7.2v14.4h-4.2v-3.3h-.3a8 8 0 0 1-7.2 4 10 10 0 0 1-6.5-2.3 7.2 7.2 0 0 1-2.6-5.7 7.2 7.2 0 0 1 2.7-5.8 14.2 14.2 0 0 1 13.7-.7v-1a4.9 4.9 0 0 0-1.7-4 6 6 0 0 0-4.2-1.7 7 7 0 0 0-6 3.2L345 453a11.3 11.3 0 0 1 9.5-4.4Zm-5.6 17a3.3 3.3 0 0 0 1.4 2.9c1 .8 2.1 1.2 3.3 1.2 2 0 3.7-.8 5.1-2 1.3-1.4 2.1-3.1 2.2-5a9.8 9.8 0 0 0-5.8-1.6c-1.6 0-3.2.4-4.5 1.3a3.5 3.5 0 0 0-1.7 3.2ZM380 473.7a11.3 11.3 0 0 1-8.6-3.5 12.7 12.7 0 0 1-3.4-9 12.1 12.1 0 0 1 3.4-9 10.9 10.9 0 0 1 8.5-3.5 10.7 10.7 0 0 1 10.3 6.7l-3.9 1.6a6.8 6.8 0 0 0-6.6-4.3 7 7 0 0 0-5.2 2.5 8.5 8.5 0 0 0-2.2 5.9c-.1 2.2.7 4.4 2.2 6a7 7 0 0 0 5.2 2.5 6.8 6.8 0 0 0 6.8-4.5l3.9 1.8a11.1 11.1 0 0 1-10.5 6.8ZM403.6 473.7a10.8 10.8 0 0 1-8.3-3.5 12.4 12.4 0 0 1-3.5-9c-.1-3.3 1-6.5 3.3-9a10.5 10.5 0 0 1 8.4-3.5 10.8 10.8 0 0 1 8.2 3.3 14 14 0 0 1 3.2 9.5v.4h-18.5a7.2 7.2 0 0 0 2.3 5.7 7 7 0 0 0 5.2 2 7.2 7.2 0 0 0 6.7-4.2l3.9 2c-1 2-2.6 3.5-4.5 4.7a13 13 0 0 1-6.4 1.6Zm-6.9-15.4h13.4a6 6 0 0 0-2-4 6.4 6.4 0 0 0-4.7-1.6c-1.6 0-3.2.4-4.4 1.4a7 7 0 0 0-2.3 4.2Z"/><path fill="#4285F4" d="M44 457.9v-5.3h17.8c.2 1 .3 2.2.2 3.3a18 18 0 0 1-4.4 12.4 18.2 18.2 0 0 1-13.6 5.4 19.8 19.8 0 0 1-19.8-19.4 19.8 19.8 0 0 1 27-18.2c2.2 1 4.3 2.3 6 4l-3.7 3.8a13.4 13.4 0 0 0-9.7-3.8 14.2 14.2 0 0 0 0 28.2 13 13 0 0 0 9.9-3.8c1.6-1.8 2.6-4.1 2.9-6.6H44Z"/><path fill="#EA4335" d="M89 461.2a12.6 12.6 0 1 1-12.4-12.5 12.1 12.1 0 0 1 12.5 12.5Zm-5.4 0a7.2 7.2 0 0 0-7-7.6 7.7 7.7 0 0 0 0 15.1 7.2 7.2 0 0 0 7-7.5Z"/><path fill="#FBBC04" d="M116.5 461.2a12.6 12.6 0 1 1-25.1 0 12.6 12.6 0 0 1 25.1 0Zm-5.5 0a7 7 0 1 0-7 7.5 7.4 7.4 0 0 0 7-7.5Z"/><path fill="#4285F4" d="M142.7 449.4v22.4c0 9.2-5.4 13-11.9 13a12 12 0 0 1-11.1-7.4l5-2a6.5 6.5 0 0 0 6.1 4.5c4.2 0 6.8-2.5 6.8-7.4v-1.7h-.3a8.7 8.7 0 0 1-6.5 2.9 12.6 12.6 0 1 1 0-25.2 8.4 8.4 0 0 1 6.5 2.9h.3v-2.2h5v.2Zm-4.8 11.8c0-4.3-2.9-7.6-6.6-7.6a7.4 7.4 0 0 0-7 7.6 7.3 7.3 0 0 0 7 7.5c3.7 0 6.6-3.1 6.6-7.5Z"/><path fill="#34A853" d="M152 436.2h-5.4v36.6h5.5v-36.6Z"/><path fill="#EA4335" d="m173.3 465.3 4.2 2.9a12.7 12.7 0 0 1-15.2 4.5 12.3 12.3 0 0 1-7.6-11.6 11.9 11.9 0 0 1 11.8-12.4c6.4 0 9.6 5.2 10.7 7.9l.6 1.4-16.8 6.8a6.4 6.4 0 0 0 6.1 4 7.2 7.2 0 0 0 6.2-3.5Zm-13.1-4.5 11-4.6a4.8 4.8 0 0 0-4.5-2.6 6.8 6.8 0 0 0-6.5 7.2Z"/><path fill="#4285F4" d="M38.5 572.8H24.2v-38.1l14.3 11.9v26.2Z"/><path fill="#34A852" d="M76.6 572.8h14.3v-38.1l-14.3 11.9v26.2Z"/><path fill="#FBBC06" d="M76.6 546.6v-16.7a7.4 7.4 0 0 1 7.1-7.1 7.1 7.1 0 0 1 7.2 7.1v4.8l-14.3 11.9Z"/><path fill="#C5221F" d="m38.5 546.6-14.3-12V530a7.4 7.4 0 0 1 7.1-7.1 7.1 7.1 0 0 1 7.2 7.1v16.7Z"/><path fill="#EA4334" d="m76.6 546.6-19 14.3-19.1-14.3v-16.7l19 14.3 19-14.3v16.7ZM177.4 522.8h9v39.6h-12.6v-36a3.5 3.5 0 0 1 3.6-3.6Z"/><path fill="#FBBC06" d="M223.8 535.3h-12.5v27h12.5v-27Z"/><path fill="#0266D9" d="M224 535.5h-12.4V523h9a3.5 3.5 0 0 1 3.5 3.5v9Z"/><path fill="#359051" d="M186.3 562.4h-12.5v10.4h12.5v-10.4ZM217.6 568.6l-6.3 4.2v-10.4h12.5l-6.2 6.2Z"/><path fill="#34A852" d="M211.3 562.4h-25v10.4h25v-10.4Z"/><path fill="#4285F4" d="M211.3 522.8h-25v10.4h25v-10.4Z"/><path fill="#359051" d="m328.8 522.8 8.7 15.2 8.7-15.2h-17.4Z"/><path fill="#EA4334" d="m348.4 557.6 8.7 15.2 8.7-15.2h-17.4Z"/><path fill="#0266D9" d="m307 557.6 8.8 15.2 8.6-15.2h-17.3Z"/><path fill="#34A852" d="M307 557.6h17.4l13-19.6-8.6-15.2-21.7 34.8Z"/><path fill="#FFBA00" d="m337.5 538 10.9 19.6h17.4l-19.6-34.8"/><path fill="#4285F4" d="M315.8 572.8H357l-8.7-15.2h-24l-8.6 15.2Z"/><path fill="#FBBC06" d="M454 522.8h6.3v40.4h-11.5V528a5.2 5.2 0 0 1 5.1-5.2ZM485.3 536.2h-13.5v27h13.5v-27Z"/><path fill="#FBBC06" d="M454.5 523v13.4h17.3V523h-17.3Z"/><path fill="#0266D9" d="M485.3 563.2h-13.5v9.6h13.5v-9.6Z"/><path fill="#02AD46" d="M471.8 563.2h-11.5v9.6h11.5v-9.6Z"/><path fill="#00832E" d="M448.8 563.2h11.5v9.6h-8.7a2.9 2.9 0 0 1-2.8-2.9v-6.7Z"/><path fill="#EA4334" d="m471.8 522.8 13.5 13.4h-13.5v-13.4Z"/><path fill="#2684FC" d="M582 536.4h-13.7v22.7h13.6v-22.7Z"/><path fill="#0266D9" d="M582 559.1h-13.7v13.7h13.6V559Z"/><path fill="#FBBC06" d="M618.3 522.8h-13.6v25h13.6v-25Z"/><path fill="#02AD46" d="M618.3 547.8h-13.6v25h13.6v-25Z"/><path fill="#FFBA00" d="M604.9 536.4v-13.6h-22.7v13.6h22.7Z"/><path fill="#02AD46" d="M604.9 572.8V559h-22.7v13.7h22.7Z"/><path fill="#00832E" d="m606.5 549.4 24.7 17.5a3.4 3.4 0 0 0 5.3-3v-32a3.4 3.4 0 0 0-5.3-3l-24.7 17.5a1.8 1.8 0 0 0-.8 1.5 1.8 1.8 0 0 0 .8 1.5Z" opacity=".8"/><path fill="#EA4334" d="m568.3 536.4 13.6-13.6v13.6h-13.6Z"/><g clip-path="url(#i)"><path fill="url(#j)" d="m815.6 419-.4.3c-.6.3-1.2.7-1.7 1.2l1.1-.8h9.6l1.8 13-8.8 8.4-8.7 6v6.8c0 4.8 2.5 9.2 6.7 11.7l9.2 5.4-19.4 11h-3.8l-7-4a13.6 13.6 0 0 1-6.7-11.7v-23c0-4.8 2.5-9.2 6.7-11.7l21-12.3.4-.3Z"/><path fill="url(#k)" d="m815.6 419-.4.3c-.6.3-1.2.7-1.7 1.2l1.1-.8h9.6l1.8 13-8.8 8.4-8.7 6v6.8c0 4.8 2.5 9.2 6.7 11.7l9.2 5.4-19.4 11h-3.8l-7-4a13.6 13.6 0 0 1-6.7-11.7v-23c0-4.8 2.5-9.2 6.7-11.7l21-12.3.4-.3Z"/><path fill="url(#l)" d="M836.5 446.3v7.6c0 4.8-2.6 9.2-6.8 11.7l-21 12.3a14.3 14.3 0 0 1-14 .3l20.5 12.1c4.5 2.6 10 2.6 14.5 0l21-12.4c4.2-2.4 6.8-6.9 6.8-11.6v-5.6l-1.8-2.5-19.2-12Z"/><path fill="url(#m)" d="M836.5 446.3v7.6c0 4.8-2.6 9.2-6.8 11.7l-21 12.3a14.3 14.3 0 0 1-14 .3l20.5 12.1c4.5 2.6 10 2.6 14.5 0l21-12.4c4.2-2.4 6.8-6.9 6.8-11.6v-5.6l-1.8-2.5-19.2-12Z"/><path fill="url(#n)" d="m850.7 431.6-21-12.3a14.3 14.3 0 0 0-14-.3l-.5.3a13.6 13.6 0 0 0-6.7 11.6v16.2l6.7-4c4.5-2.6 10-2.6 14.5 0l21 12.4a13.6 13.6 0 0 1 6.8 10.8v-23c0-4.8-2.6-9.2-6.8-11.7Z"/><path fill="url(#o)" d="m850.7 431.6-21-12.3a14.3 14.3 0 0 0-14-.3l-.5.3a13.6 13.6 0 0 0-6.7 11.6v16.2l6.7-4c4.5-2.6 10-2.6 14.5 0l21 12.4a13.6 13.6 0 0 1 6.8 10.8v-23c0-4.8-2.6-9.2-6.8-11.7Z"/></g><path fill="#000" d="M883.8 470.2c0-3.1.5-5.7 1.4-7.8.7-1.5 1.6-2.9 2.8-4 1.2-1.3 2.5-2.2 3.9-2.8 1.9-.8 4-1.2 6.5-1.2 4.4 0 8 1.4 10.6 4.1 2.7 2.8 4 6.6 4 11.5s-1.3 8.7-4 11.4a14 14 0 0 1-10.6 4.1c-4.4 0-8-1.3-10.6-4-2.7-2.8-4-6.6-4-11.3Zm6.3-.3c0 3.5.8 6 2.3 7.8a7.7 7.7 0 0 0 6 2.6c2.4 0 4.4-.8 6-2.6 1.5-1.7 2.3-4.3 2.3-7.8s-.7-6-2.3-7.7a7.6 7.6 0 0 0-6-2.6c-2.5 0-4.5.9-6 2.6-1.6 1.7-2.3 4.3-2.3 7.7Zm25.5-6.7h3.2v-1.6c0-1.9.2-3.2.6-4.1.4-1 1-1.7 2.1-2.2 1-.6 2.4-.9 4-.9s3.3.3 4.8.8l-.8 4-2.6-.3c-.8 0-1.4.2-1.8.5-.4.4-.5 1.2-.5 2.3v1.5h4.3v4.6h-4.3V485h-5.8v-17.2h-3.2v-4.6Zm14.4 0h3.2v-1.6c0-1.9.2-3.2.6-4.1.4-1 1.1-1.7 2.1-2.2 1-.6 2.4-.9 4-.9 1.7 0 3.3.3 4.8.8l-.7 4-2.7-.3c-.8 0-1.4.2-1.8.5-.4.4-.5 1.2-.5 2.3v1.5h4.3v4.6H939V485h-5.8v-17.2H930v-4.6Zm17-3V455h5.7v5.4h-5.8Zm0 24.8v-21.8h5.7V485h-5.8Zm31-15.3-5.6 1c-.2-1.1-.7-2-1.4-2.6-.6-.6-1.5-.8-2.6-.8-1.4 0-2.6.5-3.4 1.5-.9 1-1.3 2.6-1.3 5 0 2.5.4 4.3 1.3 5.4.9 1 2 1.6 3.5 1.6 1 0 2-.3 2.7-1 .7-.6 1.2-1.6 1.5-3.1l5.6 1a10 10 0 0 1-3.4 5.8c-1.6 1.3-3.9 2-6.7 2a10 10 0 0 1-7.6-3c-1.9-2-2.8-4.8-2.8-8.4 0-3.6 1-6.4 2.8-8.4 2-2 4.5-3 7.7-3 2.7 0 4.8.6 6.4 1.8a9.4 9.4 0 0 1 3.3 5.2Zm17.5 8.4 5.7 1c-.7 2-2 3.6-3.5 4.8-1.6 1-3.6 1.6-6 1.6-3.8 0-6.6-1.2-8.4-3.7-1.4-2-2.1-4.5-2.1-7.5 0-3.6 1-6.5 2.8-8.5 1.9-2 4.3-3 7.2-3 3.2 0 5.7 1 7.6 3.1 1.9 2.2 2.8 5.5 2.7 9.9h-14.4c0 1.7.5 3 1.4 4 .9 1 2 1.4 3.3 1.4.9 0 1.6-.3 2.3-.8.6-.4 1-1.2 1.4-2.3Zm.3-5.9c0-1.6-.5-2.9-1.3-3.8a4 4 0 0 0-3-1.3 4 4 0 0 0-3.1 1.4c-.8 1-1.2 2.2-1.2 3.7h8.6Zm9.4 4.8 5.6-.7c.2 1.5.6 2.6 1.4 3.3a4 4 0 0 0 2.8 1.1c1.2 0 2.2-.4 3-1.3.9-1 1.3-2.1 1.3-3.7 0-1.4-.4-2.6-1.2-3.4a3.7 3.7 0 0 0-2.8-1.3c-.8 0-1.7.2-2.7.4l.6-4.7c1.6 0 2.8-.2 3.6-1 .8-.7 1.3-1.6 1.3-2.8a3.2 3.2 0 0 0-3.3-3.3c-1 0-1.9.3-2.6 1-.7.7-1.1 1.7-1.3 3l-5.3-1c.4-1.8 1-3.2 1.7-4.3.8-1 1.8-2 3.1-2.5 1.4-.7 2.9-1 4.5-1a9 9 0 0 1 6.8 2.7 7 7 0 0 1 2.1 5c0 2.7-1.4 4.8-4.3 6.3a7 7 0 0 1 4.1 2.5c1 1.3 1.6 2.9 1.6 4.7a9 9 0 0 1-3 6.7 10 10 0 0 1-7.1 2.8c-2.7 0-5-.8-6.8-2.3a9.2 9.2 0 0 1-3-6.2Zm43.5-14.7-5.5.6c-.2-1.1-.5-2-1.1-2.5-.6-.6-1.3-.8-2.2-.8-1.3 0-2.3.5-3.1 1.6-.9 1-1.4 3.4-1.6 6.8a6.7 6.7 0 0 1 5.3-2.5c2.4 0 4.5.9 6.2 2.7a10 10 0 0 1 2.6 7.1c0 3.1-1 5.6-2.7 7.4a9.3 9.3 0 0 1-7 2.8c-3 0-5.5-1.2-7.4-3.5-2-2.4-3-6.2-3-11.6 0-5.5 1-9.5 3-12 2.1-2.4 4.8-3.6 8-3.6 2.3 0 4.2.7 5.7 2a8.9 8.9 0 0 1 2.8 5.5Zm-13 12.6c0 1.8.4 3.3 1.3 4.3.8 1 1.8 1.5 3 1.5 1 0 1.9-.4 2.6-1.2.7-.9 1-2.2 1-4.1 0-2-.3-3.4-1.1-4.3-.8-1-1.7-1.4-2.9-1.4-1 0-2 .5-2.8 1.3-.7.9-1.1 2.2-1.1 3.9Zm17.4 2.4 5.7-.6a5 5 0 0 0 1.5 3 4 4 0 0 0 5.8-.3c.9-1 1.3-2.4 1.3-4.4 0-1.8-.4-3.2-1.3-4.1-.8-1-1.9-1.4-3.2-1.4-1.6 0-3.1.7-4.4 2.2l-4.7-.7 3-15.7h15.2v5.4H1061l-.9 5.1a8.7 8.7 0 0 1 10.4 1.8 10 10 0 0 1 2.7 7.3c0 2.5-.7 4.7-2.1 6.6-2 2.7-4.7 4-8.2 4-2.8 0-5-.7-6.8-2.2a9.2 9.2 0 0 1-3.1-6Z"/><path fill="#FEE200" d="m787.5 525 14.6-14.7h40.3a3.7 3.7 0 0 1 3.8 3.8V525h-58.7Z"/><path fill="#81487D" d="m846.2 554.3-11 14.7h-33v-14.7h44Z"/><path fill="#EE8208" d="M846.2 525h-44v14.6h44V525Z"/><path fill="#E15802" d="M802.1 525h-14.6v14.6H802V525Z"/><path fill="#D33300" d="M846.2 539.6h-44v14.7h44v-14.7Z"/><path fill="#B83106" d="M802.1 539.6h-14.6v14.7H802v-14.7Z"/><path fill="#6A3967" d="M787.5 554.3H802V569h-11a3.6 3.6 0 0 1-3.6-3.6v-11.1Z"/><path fill="#036C70" d="M917.2 543.6a16.7 16.7 0 1 0 0-33.3 16.7 16.7 0 0 0 0 33.3Z"/><path fill="#1A9BA1" d="M932.8 556a14.3 14.3 0 1 0 0-28.6 14.3 14.3 0 0 0 0 28.7Z"/><path fill="#37C6D0" d="M919 566.5a11.4 11.4 0 1 0 0-22.8 11.4 11.4 0 0 0 0 22.8Z"/><path fill="#000" d="M920.1 522.6H901a16.7 16.7 0 0 0 16.2 21.1h1.4a11.4 11.4 0 0 0-11.2 11.4v1h12.7a2.5 2.5 0 0 0 2.3-2.4V525a2.5 2.5 0 0 0-2.3-2.4Z" opacity=".1"/><path fill="#000" d="M918.3 524.4h-17.7a16.6 16.6 0 0 0 13.9 19.1l2.7.2h1.4a11.4 11.4 0 0 0-10.8 14.1h10.5a2.5 2.5 0 0 0 2.4-2.3v-28.8a2.5 2.5 0 0 0-2.4-2.3Z" opacity=".2"/><path fill="#000" d="M918.3 524.4h-17.7a16.6 16.6 0 0 0 13.9 19.1l2.7.2h1.4a11.5 11.5 0 0 0-11.2 10.6h11a2.5 2.5 0 0 0 2.3-2.3v-25.3a2.5 2.5 0 0 0-2.4-2.3Z" opacity=".2"/><path fill="#000" d="M916.6 524.4h-16a16.6 16.6 0 0 0 13.9 19.1l2.7.2h1.4a11.5 11.5 0 0 0-11.2 10.6h9.2a2.5 2.5 0 0 0 2.3-2.3v-25.3a2.5 2.5 0 0 0-2.3-2.3Z" opacity=".2"/><path fill="#03787C" d="M893 524.4h23.6a2.4 2.4 0 0 1 2.3 2.3v23.5a2.4 2.4 0 0 1-2.3 2.3H893a2.3 2.3 0 0 1-2.4-2.3v-23.5a2.3 2.3 0 0 1 2.4-2.3Z"/><path fill="#fff" d="M900.7 538.1c-.6-.4-1.1-.9-1.5-1.5-.3-.7-.5-1.4-.5-2.1 0-1 .4-2 1-2.7a7 7 0 0 1 2.4-1.7 15 15 0 0 1 7.9.1v3.2l-2-.8c-.8-.2-1.6-.3-2.3-.2-.9-.1-1.7 0-2.5.4a1.5 1.5 0 0 0-1 1.5 1.3 1.3 0 0 0 .4 1l1.2.8 2 1h.3c1 .3 1.8.7 2.6 1.2.7.4 1.2 1 1.5 1.6.5.7.7 1.5.6 2.3.1 1-.2 2-.8 2.8-.6.8-1.4 1.3-2.3 1.7-1.2.3-2.3.5-3.5.4l-3-.2-2.5-.7v-3.4c.8.6 1.7 1 2.6 1.2a7 7 0 0 0 2.7.4c.9 0 1.7-.1 2.5-.5a1.4 1.4 0 0 0 .8-1.5 1.5 1.5 0 0 0-.5-1.1l-1.3-1-2.4-1-2.4-1.3v.1Z"/><path fill="#1A5ABD" d="m997 540.2 18.5 18.5c2 1.9 5 1.9 6.9 0l6.1-6.2c2-1.8 2-5 0-6.8L1010 527a4.9 4.9 0 0 0-6.9 0l-6.1 6.2a4.9 4.9 0 0 0 0 6.9Z"/><path fill="#45A9EF" d="m1040.7 513.7-31.6 31.6a4.9 4.9 0 0 0 0 6.8l6.7 6.8c2 1.8 5 1.8 6.9 0l31.5-31.6c2-1.9 2-5 0-6.9l-6.7-6.7a4.9 4.9 0 0 0-6.8 0Z"/><path fill="#7B83EB" d="M1130.3 529.6a8.5 8.5 0 1 0 0-17 8.5 8.5 0 0 0 0 17Z"/><path fill="#000" d="M1129.8 523h-7.6a8.4 8.4 0 0 0 10 6.2v-4c0-.6-.4-1.2-.8-1.6-.4-.4-1-.6-1.6-.6Z" opacity=".1"/><use xlink:href="#reuse-0" opacity=".2"/><path fill="#5059C9" d="M1149.3 530a6.3 6.3 0 1 0 0-12.5 6.3 6.3 0 0 0 0 12.6ZM1154.8 532h-14.1a1.1 1.1 0 0 0-1 .3 1 1 0 0 0-.2.4l-.1.5v14.6a9.3 9.3 0 0 0 7.2 9.2 9 9 0 0 0 10.8-7v-15.4a2.6 2.6 0 0 0-2.6-2.6Z"/><path fill="#7B83EB" d="M1144.9 534.6v17.2a14.5 14.5 0 0 1-28.5 3.7 13 13 0 0 1-.5-3.7v-17.2a2.6 2.6 0 0 1 2.8-2.6h23.4a2.6 2.6 0 0 1 2.8 2.6Z"/><use xlink:href="#reuse-0" opacity=".2"/><path fill="#000" d="M1132.2 532V555c0 .5-.2 1-.5 1.5-.4.4-.8.7-1.4.8H1117l-.6-1.8a13 13 0 0 1-.5-3.7v-17.2a2.6 2.6 0 0 1 2.8-2.6h13.5v.1Z" opacity=".1"/><path fill="#000" d="M1130.3 532v25.2c0 .5-.3 1-.8 1.4-.4.4-1 .5-1.5.5h-10.1a13.8 13.8 0 0 1-2-7.3v-17.2a2.6 2.6 0 0 1 2.8-2.6h11.6Z" opacity=".2"/><path fill="#000" d="M1130.3 532v21a2.4 2.4 0 0 1-1.4 2.3l-1 .2h-11.5a13 13 0 0 1-.5-3.7v-17.2a2.6 2.6 0 0 1 2.8-2.6h11.6Z" opacity=".2"/><path fill="#000" d="M1118.7 532a2.6 2.6 0 0 0-2.8 2.6v17.2c0 1.2.2 2.5.5 3.7h9.8a2.4 2.4 0 0 0 2.3-1.5l.1-1v-21h-10Z" opacity=".2"/><path fill="#4B53BC" d="M1102 524.7h24.1a2.5 2.5 0 0 1 2.5 2.4v24.1a2.4 2.4 0 0 1-.7 1.8l-.8.5c-.3.1-.7.2-1 .1h-24a2.4 2.4 0 0 1-2.4-2.4v-24.1a2.4 2.4 0 0 1 2.4-2.4Z"/><path fill="#fff" d="M1121.3 533.7h-5.4v14.6h-3.5v-14.6h-5.5v-3.5h14.4v3.5Z"/><path fill="#0364B8" d="m1233.5 526.2 18.7 11.2 11.2-4.7c2.2-1 4.7-1.5 7.2-1.5h1.2a28 28 0 0 0-50.3-8.5h.2c4.2 0 8.3 1.3 11.8 3.5Z"/><path fill="#0078D4" d="M1233.5 526.2a22.1 22.1 0 0 0-11.8-3.3h-.2a22.2 22.2 0 0 0-18 35l16.5-7 7.3-3 16.4-6.9 8.5-3.6-18.7-11.2Z"/><path fill="#1490DF" d="M1271.8 531.3h-1.2c-2.5 0-5 .5-7.2 1.5l-11.2 4.7 3.2 1.9 10.7 6.5 4.6 2.7 15.8 9.4a17.8 17.8 0 0 0-2-20 18 18 0 0 0-12.7-6.6Z"/><path fill="#28A8EA" d="m1270.7 548.5-4.6-2.8-10.7-6.4-3.2-1.9-8.5 3.6-16.4 6.8-7.3 3.2-16.5 7a22.5 22.5 0 0 0 18.2 9.5h48.9a18.2 18.2 0 0 0 15.9-9.6l-15.8-9.4Z"/><path fill="#C10053" d="m1347.5 573.2 50.3-31.4c-16.7-10.6-33.5-21.1-50.3-31.5v23.5l.3.3 8 6 2.3 1.7-.4.2-9.9 7.3-.2.3-.1.4v23.2Zm-16.8-44v25l16.7-12.4-16.7-12.5Z"/><path fill="#C10053" d="M1347.5 573.2V549.6l.3-.3 9.9-7.3.3-.2-2.2-1.7-8-6a.6.6 0 0 1-.2-.3l-.1-.3v-23.2c16.8 10.4 33.6 20.9 50.3 31.5l-50.3 31.4Z"/><defs><linearGradient id="c" x1="2466.7" x2="2266.1" y1="12806.5" y2="12936.9" gradientUnits="userSpaceOnUse"><stop offset=".2" stop-color="#0052CC"/><stop offset="1" stop-color="#2684FF"/></linearGradient><linearGradient id="d" x1="2523.5" x2="2723.6" y1="13466.1" y2="13336" gradientUnits="userSpaceOnUse"><stop offset=".2" stop-color="#0052CC"/><stop offset="1" stop-color="#2684FF"/></linearGradient><linearGradient id="e" x1="63.5" x2="63.5" y1="344.8" y2="281.5" gradientUnits="userSpaceOnUse"><stop stop-color="#911A1E"/><stop offset="1" stop-color="#D61E25"/></linearGradient><linearGradient id="f" x1="308.8" x2="308.8" y1="279.2" y2="354.2" gradientUnits="userSpaceOnUse"><stop stop-color="#0091E6"/><stop offset="1" stop-color="#0079BF"/></linearGradient><linearGradient id="g" x1="526.4" x2="489.4" y1="352.8" y2="331.5" gradientUnits="userSpaceOnUse"><stop offset=".2" stop-color="#0052CC"/><stop offset="1" stop-color="#2684FF"/></linearGradient><linearGradient id="h" x1="149690" x2="150360" y1="309160" y2="309929" gradientUnits="userSpaceOnUse"><stop offset=".2" stop-color="#0052CC"/><stop offset="1" stop-color="#2684FF"/></linearGradient><linearGradient id="k" x1="811.1" x2="803.1" y1="478.4" y2="464.2" gradientUnits="userSpaceOnUse"><stop stop-color="#114A8B"/><stop offset="1" stop-color="#0078D4" stop-opacity="0"/></linearGradient><linearGradient id="m" x1="851.1" x2="842.5" y1="457.1" y2="469.8" gradientUnits="userSpaceOnUse"><stop stop-color="#493474"/><stop offset="1" stop-color="#8C66BA" stop-opacity="0"/></linearGradient><linearGradient id="o" x1="810.2" x2="823.3" y1="419.1" y2="419.1" gradientUnits="userSpaceOnUse"><stop stop-color="#2D3F80"/><stop offset="1" stop-color="#436DCD" stop-opacity="0"/></linearGradient><radialGradient id="a" cx="0" cy="0" r="1" gradientTransform="matrix(28 0 0 26 1135.3 27)" gradientUnits="userSpaceOnUse"><stop stop-color="#FFB900"/><stop offset=".6" stop-color="#F95D8F"/><stop offset="1" stop-color="#F95353"/></radialGradient><radialGradient id="j" cx="0" cy="0" r="1" gradientTransform="matrix(-20 53 -95 -36 811 432)" gradientUnits="userSpaceOnUse"><stop offset=".1" stop-color="#AE7FE2"/><stop offset="1" stop-color="#0078D4"/></radialGradient><radialGradient id="l" cx="0" cy="0" r="1" gradientTransform="matrix(54 -8 5 35 798.7 475.8)" gradientUnits="userSpaceOnUse"><stop offset=".1" stop-color="#D59DFF"/><stop offset="1" stop-color="#5E438F"/></radialGradient><radialGradient id="n" cx="0" cy="0" r="1" gradientTransform="matrix(-42 -10 17 -70 852.3 459)" gradientUnits="userSpaceOnUse"><stop offset=".1" stop-color="#50E6FF"/><stop offset="1" stop-color="#436DCD"/></radialGradient><clipPath id="i"><path fill="#fff" d="M787.5 417.3h70v75h-70z"/></clipPath><pattern id="b" width="1" height="1" patternContentUnits="objectBoundingBox"><use xlink:href="#p" transform="scale(0)"/></pattern></defs></svg>