<svg xmlns="http://www.w3.org/2000/svg" fill="none" viewBox="0 0 150 150"><path fill="#fff" d="M124.8 33.1H18.2a3.2 3.2 0 0 0-3.2 3.2v15.9c0 1.7 1.4 3.2 3.2 3.2h106.6c1.8 0 3.2-1.5 3.2-3.2v-16c0-1.7-1.4-3.1-3.2-3.1Z"/><path fill="#fff" fill-rule="evenodd" d="M115.2 76.5a19 19 0 1 0 15.9 26.5l4.4 1.8a23.8 23.8 0 1 1-6.3-27.3l-3.1 3.6a19 19 0 0 0-10.9-4.6Z" clip-rule="evenodd"/><path fill="#fff" d="M135 95.5c-2.4 3.6-6 8-9.3 10.4l7.2-1 6 4a43 43 0 0 1-3.9-13.4Zm-21.4-28.4c5 0 10 1.4 14.4 4v-4.8a3.2 3.2 0 0 0-3.2-3.2H18.2a3.2 3.2 0 0 0-3.2 3.2v15.9a3.2 3.2 0 0 0 3.2 3.1H87a28.4 28.4 0 0 1 26.5-18.2ZM85.2 95.5l.1-2.7H18.2A3.2 3.2 0 0 0 15 96v15.9a3.2 3.2 0 0 0 3.2 3.2h75c-5.2-5.3-8-12.3-8-19.6Z"/></svg>