<svg width="100" height="70" viewBox="0 0 100 70" fill="none" xmlns="http://www.w3.org/2000/svg">
<g clip-path="url(#clip0_204_3230)">
<path d="M88.2012 0.0810547H2.55253C1.14402 0.0810547 0.00219727 1.22288 0.00219727 2.63139V15.4171C0.00219727 16.8256 1.14402 17.9674 2.55253 17.9674H88.2012C89.6097 17.9674 90.7515 16.8256 90.7515 15.4171V2.63139C90.7515 1.22288 89.6097 0.0810547 88.2012 0.0810547Z" fill="white"/>
<path fill-rule="evenodd" clip-rule="evenodd" d="M80.4844 34.9319C77.2617 34.6493 74.0323 35.394 71.2587 37.0591C68.4851 38.7242 66.3096 41.2244 65.044 44.2016C63.7783 47.1788 63.4874 50.4802 64.2128 53.6328C64.9383 56.7855 66.6429 59.6276 69.0825 61.7522C71.5221 63.8767 74.5715 65.1747 77.794 65.4601C81.0164 65.7455 84.2465 65.0037 87.0215 63.341C89.7966 61.6783 91.9742 59.18 93.2424 56.2039L96.7617 57.7037C95.1768 61.4227 92.4555 64.5447 88.9877 66.6226C85.5199 68.7004 81.4834 69.6273 77.4565 69.2707C73.4296 68.914 69.6188 67.292 66.5702 64.6371C63.5215 61.9821 61.3913 58.4304 60.4848 54.4907C59.5782 50.5509 59.9418 46.4254 61.5234 42.7049C63.105 38.9845 65.8236 35.8601 69.2896 33.7793C72.7556 31.6984 76.7913 30.7679 80.8185 31.1211C84.8458 31.4742 88.6579 33.0929 91.7089 35.7452L89.1991 38.6323C86.7576 36.5098 83.707 35.2145 80.4844 34.9319Z" fill="white"/>
<path d="M96.3836 50.1738C94.4921 53.0855 91.6017 56.5922 88.9026 58.5474L94.6621 57.8248L99.5715 60.949C97.9775 58.0161 96.8511 53.6168 96.3836 50.1738Z" fill="white"/>
<path d="M79.1688 27.4123C83.2446 27.4037 87.2469 28.4979 90.7515 30.579V26.711C90.7515 26.0346 90.4828 25.3859 90.0045 24.9076C89.5262 24.4293 88.8776 24.1606 88.2012 24.1606H2.55253C1.87614 24.1606 1.22745 24.4293 0.749172 24.9076C0.270892 25.3859 0.00219727 26.0346 0.00219727 26.711V39.4839C0.00219727 40.1603 0.270892 40.809 0.749172 41.2872C1.22745 41.7655 1.87614 42.0342 2.55253 42.0342H57.8947C59.5457 37.7312 62.4628 34.0301 66.261 31.4195C70.0592 28.809 74.5599 27.4117 79.1688 27.4123V27.4123Z" fill="white"/>
<path d="M56.407 50.1741C56.407 49.4515 56.4283 48.7502 56.492 48.0488H2.55253C1.87614 48.0488 1.22745 48.3175 0.749172 48.7958C0.270892 49.2741 0.00219727 49.9228 0.00219727 50.5992V63.3721C0.00219727 64.0485 0.270892 64.6971 0.749172 65.1754C1.22745 65.6537 1.87614 65.9224 2.55253 65.9224H62.7404C58.6625 61.6958 56.3909 56.0472 56.407 50.1741V50.1741Z" fill="white"/>
</g>
<defs>
<clipPath id="clip0_204_3230">
<rect width="100" height="69.8795" fill="white"/>
</clipPath>
</defs>
</svg>
