<svg width="100" height="66" viewBox="0 0 100 66" fill="none" xmlns="http://www.w3.org/2000/svg">
<g clip-path="url(#clip0_204_3236)">
<path d="M96.8035 4.65967H86.0804C84.5422 4.65967 83.2952 5.90666 83.2952 7.4449V8.82359C83.2952 10.3618 84.5422 11.6088 86.0804 11.6088H96.8035C98.3418 11.6088 99.5888 10.3618 99.5888 8.82359V7.4449C99.5888 5.90666 98.3418 4.65967 96.8035 4.65967Z" fill="white"/>
<path d="M69.8332 0.481504C68.4201 0.475958 67.0334 0.863822 65.8282 1.60168C64.6231 2.33954 63.647 3.39827 63.0094 4.65935H3.2198C2.48111 4.65935 1.77268 4.95279 1.25035 5.47512C0.728013 5.99745 0.43457 6.70589 0.43457 7.44458V8.81398C0.43457 9.55267 0.728013 10.2611 1.25035 10.7834C1.77268 11.3058 2.48111 11.5992 3.2198 11.5992H63.0094C63.6274 12.8056 64.5555 13.8258 65.6982 14.5549C66.8409 15.2841 68.157 15.6959 69.5115 15.7481C70.866 15.8003 72.21 15.4911 73.4055 14.8521C74.6009 14.2131 75.6047 13.2674 76.3138 12.1121C77.0229 10.9569 77.4117 9.6337 77.4402 8.2785C77.4688 6.92329 77.1361 5.58491 76.4763 4.40081C75.8165 3.21671 74.8534 2.22957 73.686 1.54079C72.5185 0.852 71.1887 0.486388 69.8332 0.481504V0.481504Z" fill="white"/>
<path d="M96.7803 29.4248H59.2493C57.7111 29.4248 56.4641 30.6718 56.4641 32.21V33.5887C56.4641 35.127 57.7111 36.374 59.2493 36.374H96.7803C98.3186 36.374 99.5656 35.127 99.5656 33.5887V32.21C99.5656 30.6718 98.3186 29.4248 96.7803 29.4248Z" fill="white"/>
<path d="M42.7469 25.2471C41.3349 25.2468 39.9503 25.6369 38.7461 26.3741C37.5419 27.1114 36.5649 28.1672 35.9231 29.4249H3.2198C2.48111 29.4249 1.77268 29.7184 1.25035 30.2407C0.728013 30.763 0.43457 31.4715 0.43457 32.2101V33.5795C0.43457 34.3182 0.728013 35.0267 1.25035 35.549C1.77268 36.0713 2.48111 36.3648 3.2198 36.3648H35.9231C36.5384 37.5808 37.4671 38.6106 38.6132 39.348C39.7594 40.0853 41.0815 40.5035 42.4432 40.5594C43.8049 40.6153 45.1569 40.3068 46.3596 39.6658C47.5623 39.0249 48.5722 38.0746 49.2851 36.9131C49.998 35.7516 50.3881 34.4209 50.4151 33.0583C50.4422 31.6957 50.1051 30.3506 49.4388 29.1618C48.7725 27.9729 47.8011 26.9833 46.6247 26.2952C45.4484 25.607 44.1097 25.2452 42.7469 25.2471V25.2471Z" fill="white"/>
<path d="M96.8036 54.1904H74.3128C72.7746 54.1904 71.5276 55.4374 71.5276 56.9756V58.3543C71.5276 59.8926 72.7746 61.1395 74.3128 61.1395H96.8036C98.3418 61.1395 99.5888 59.8926 99.5888 58.3543V56.9756C99.5888 55.4374 98.3418 54.1904 96.8036 54.1904Z" fill="white"/>
<path d="M58.1121 50.0122C56.7001 50.0119 55.3155 50.402 54.1113 51.1393C52.907 51.8766 51.9301 52.9324 51.2882 54.1901H3.2198C2.48111 54.1901 1.77268 54.4835 1.25035 55.0058C0.728013 55.5282 0.43457 56.2366 0.43457 56.9753V58.3679C0.43457 59.1066 0.728013 59.815 1.25035 60.3374C1.77268 60.8597 2.48111 61.1532 3.2198 61.1532H51.2882C51.907 62.3657 52.8377 63.3913 53.9845 64.1246C55.1314 64.8579 56.4529 65.2724 57.8132 65.3252C59.1734 65.3781 60.5231 65.0675 61.7234 64.4254C62.9237 63.7834 63.9312 62.833 64.6422 61.6722C65.3532 60.5114 65.742 59.1821 65.7686 57.8211C65.7951 56.4601 65.4585 55.1166 64.7934 53.9289C64.1282 52.7413 63.1586 51.7523 61.9842 51.0639C60.8099 50.3755 59.4733 50.0125 58.1121 50.0122V50.0122Z" fill="white"/>
</g>
<defs>
<clipPath id="clip0_204_3236">
<rect width="100" height="65.7895" fill="white"/>
</clipPath>
</defs>
</svg>
