<svg xmlns="http://www.w3.org/2000/svg" fill="none" viewBox="0 0 150 150"><path fill="#fff" d="M128.4 42.8H116a3.2 3.2 0 0 0-3 3.2v1.6c0 1.7 1.4 3.1 3.1 3.1h12.3c1.7 0 3.1-1.4 3.1-3.1V46c0-1.8-1.4-3.2-3.1-3.2ZM97.6 38a8.7 8.7 0 0 0-7.8 4.8H21.7a3.2 3.2 0 0 0-3.2 3.2v1.5a3.2 3.2 0 0 0 3.2 3.2h68.1A8.7 8.7 0 1 0 97.6 38Zm30.7 33H85.5a3.2 3.2 0 0 0-3.1 3.2v1.6c0 1.7 1.4 3.2 3.1 3.2h42.8c1.8 0 3.2-1.5 3.2-3.2v-1.6c0-1.7-1.4-3.2-3.2-3.2Zm-61.6-4.7A8.7 8.7 0 0 0 59 71H21.7a3.2 3.2 0 0 0-3.2 3.2v1.6a3.2 3.2 0 0 0 3.2 3.2H59a8.7 8.7 0 1 0 7.7-12.7Zm61.7 33h-25.7a3.2 3.2 0 0 0-3.2 3.2v1.5c0 1.8 1.5 3.2 3.2 3.2h25.7c1.7 0 3.1-1.4 3.1-3.2v-1.5c0-1.8-1.4-3.2-3.1-3.2Zm-44.2-4.8a8.7 8.7 0 0 0-7.7 4.8H21.7a3.2 3.2 0 0 0-3.2 3.2v1.5a3.2 3.2 0 0 0 3.2 3.2h54.8a8.7 8.7 0 1 0 7.7-12.7Z"/></svg>