<svg xmlns="http://www.w3.org/2000/svg" fill="none" viewBox="0 0 150 150"><path fill="#fff" d="M125.2 31.4H18.5a3.2 3.2 0 0 0-3.2 3.2v16c0 1.7 1.5 3.1 3.2 3.1h106.7c1.7 0 3.1-1.4 3.1-3.2V34.6c0-1.7-1.4-3.2-3.1-3.2Zm-11.3 34c5 0 10 1.4 14.4 4v-4.8a3.2 3.2 0 0 0-3.1-3.2H18.5a3.2 3.2 0 0 0-3.2 3.2v15.9a3.2 3.2 0 0 0 3.2 3.2h69a28.3 28.3 0 0 1 26.4-18.3ZM85.5 93.8l.2-2.7H18.5a3.2 3.2 0 0 0-3.2 3.2v16a3.2 3.2 0 0 0 3.2 3.1h75c-5.1-5.3-8-12.3-8-19.6Z"/><path fill="#fff" d="m116 73.5 7 2.1 10.5 3.2c.8.3 1.2.7 1.2 1.6v19c0 2.7-1 5-2.5 7.1-2 2.7-4.4 4.8-7 6.7a53.8 53.8 0 0 1-9.5 5.4c-.3 0-.6 0-.8-.2a51.1 51.1 0 0 1-12.3-8c-2.1-2-4-4-5-6.6-.7-1.4-1-2.9-1-4.4v-19c0-1 .3-1.3 1.3-1.6l17.3-5.2.2-.1h.5Zm16 7.7-.3-.2-15.7-4.7h-.8l-14.5 4.4-1.4.4v18.4c0 1.2.3 2.5.9 3.6 1 2.3 2.8 4 4.7 5.8a48.1 48.1 0 0 0 10.8 6.8h.3a64 64 0 0 0 7.6-4.6c2.3-1.7 4.5-3.5 6.2-5.8 1.5-1.9 2.3-4.2 2.3-6.6V81.2Z"/></svg>