<svg width="100" height="73" viewBox="0 0 100 73" fill="none" xmlns="http://www.w3.org/2000/svg">
<g clip-path="url(#clip0_204_3242)">
<path d="M91.7952 -0.0546875H2.93479C1.47346 -0.0546875 0.288818 1.12995 0.288818 2.59128V15.8564C0.288818 17.3177 1.47346 18.5024 2.93479 18.5024H91.7952C93.2566 18.5024 94.4412 17.3177 94.4412 15.8564V2.59128C94.4412 1.12995 93.2566 -0.0546875 91.7952 -0.0546875Z" fill="white"/>
<path d="M82.4021 28.2789C86.6364 28.2801 90.7932 29.4145 94.4412 31.5643V27.5512C94.4412 26.8495 94.1625 26.1765 93.6662 25.6803C93.17 25.184 92.497 24.9053 91.7953 24.9053H2.93479C2.23303 24.9053 1.56002 25.184 1.0638 25.6803C0.567589 26.1765 0.288818 26.8495 0.288818 27.5512V40.8252C0.288818 41.5269 0.567589 42.2 1.0638 42.6962C1.56002 43.1924 2.23303 43.4712 2.93479 43.4712H60.3523C62.0577 39.0044 65.0787 35.1605 69.0158 32.4478C72.953 29.7351 77.6208 28.2814 82.4021 28.2789V28.2789Z" fill="white"/>
<path d="M58.7868 51.9165C58.7868 51.1668 58.8309 50.4171 58.897 49.6895H2.93479C2.23303 49.6895 1.56002 49.9682 1.0638 50.4644C0.567589 50.9607 0.288818 51.6337 0.288818 52.3354V65.6094C0.288818 66.3111 0.567589 66.9841 1.0638 67.4804C1.56002 67.9766 2.23303 68.2553 2.93479 68.2553H65.3576C61.1347 63.8651 58.7793 58.008 58.7868 51.9165V51.9165Z" fill="white"/>
<path d="M84.0999 35.0044L89.921 36.7684L98.7189 39.4143C99.4465 39.6348 99.7332 39.9876 99.7332 40.7373V56.6352C99.7111 58.8402 98.9173 60.7585 97.6605 62.5225C96.0729 64.7495 94.0223 66.5135 91.8173 68.1011C89.5329 69.7606 87.0966 71.2002 84.5409 72.4008C84.3372 72.5089 84.11 72.5654 83.8794 72.5654C83.6488 72.5654 83.4216 72.5089 83.2179 72.4008C79.5136 70.6147 76.0297 68.4759 72.9648 65.6976C71.2449 64.1542 69.7455 62.3902 68.7974 60.2293C68.287 59.0844 68.024 57.8446 68.0256 56.5911V40.7814C68.0256 39.9876 68.2902 39.6348 69.062 39.4143L83.5266 35.0705L83.6589 35.0044H84.0999ZM97.5282 41.3768L97.2415 41.2665L84.144 37.3637C83.9419 37.3084 83.7287 37.3084 83.5266 37.3637L71.4213 41.0019L70.2306 41.3547V56.6572C70.2383 57.6996 70.4873 58.726 70.9583 59.656C71.8843 61.5743 73.2955 63.0737 74.8831 64.4628C77.507 66.7781 80.4837 68.5641 83.6148 70.1296C83.6979 70.1674 83.7881 70.1869 83.8794 70.1869C83.9707 70.1869 84.0609 70.1674 84.144 70.1296C86.3751 69.0416 88.5137 67.7732 90.5384 66.3371C92.4347 64.9479 94.2207 63.4265 95.654 61.5302C96.9005 59.9566 97.5698 58.0032 97.5502 55.9957C97.4841 51.2771 97.5282 46.5585 97.5282 41.8178V41.3768Z" fill="white"/>
</g>
<defs>
<clipPath id="clip0_204_3242">
<rect width="100" height="72.5" fill="white"/>
</clipPath>
</defs>
</svg>
