<svg width="462" height="630" viewBox="0 0 462 630" fill="none" xmlns="http://www.w3.org/2000/svg"><path d="M457.6 487H4.7l90.6-363h288.5l73.8 363z" fill="#655E9D" stroke="#fff" stroke-width="4" stroke-miterlimit="10"/><path d="M457.6 487H4.7v139.7h453V486.9z" fill="#655E9D" stroke="#fff" stroke-width="4" stroke-miterlimit="10"/><path d="M100.3 519.4H24.8v20.1h75.5v-20zM100.3 542.9H24.8v20h75.5v-20zM100.3 566.3H24.8v20.1h75.5v-20zM178.5 519.4H103v20.1h75.5v-20zM178.5 542.9H103v20h75.5v-20zM178.5 566.3H103v20.1h75.5v-20zM256.3 519.4h-75.5v20.1h75.5v-20zM256.3 542.9h-75.5v20h75.5v-20zM256.3 566.3h-75.5v20.1h75.5v-20zM357 536.2a6.7 6.7 0 100-13.4 6.7 6.7 0 000 13.4zM377.1 536.2a6.7 6.7 0 100-13.4 6.7 6.7 0 000 13.4zM397.2 536.2a6.7 6.7 0 100-13.4 6.7 6.7 0 000 13.4zM417.4 536.2a6.7 6.7 0 100-13.4 6.7 6.7 0 000 13.4zM357 556.3a6.7 6.7 0 100-13.4 6.7 6.7 0 000 13.4zM377.1 556.3a6.7 6.7 0 100-13.4 6.7 6.7 0 000 13.4zM397.2 556.3a6.7 6.7 0 100-13.4 6.7 6.7 0 000 13.4zM417.4 556.3a6.7 6.7 0 100-13.4 6.7 6.7 0 000 13.4zM357 576.4a6.7 6.7 0 100-13.4 6.7 6.7 0 000 13.4zM377.1 576.4a6.7 6.7 0 100-13.4 6.7 6.7 0 000 13.4zM397.2 576.4a6.7 6.7 0 100-13.4 6.7 6.7 0 000 13.4zM417.4 576.4a6.7 6.7 0 100-13.4 6.7 6.7 0 000 13.4zM357 596.5a6.7 6.7 0 100-13.4 6.7 6.7 0 000 13.4zM377.1 596.5a6.7 6.7 0 100-13.4 6.7 6.7 0 000 13.4zM397.2 596.5a6.7 6.7 0 100-13.4 6.7 6.7 0 000 13.4zM417.4 596.5a6.7 6.7 0 100-13.4 6.7 6.7 0 000 13.4zM451 315H313.3v127.3h137.5V315z" fill="#655E9D" stroke="#fff" stroke-width="4" stroke-miterlimit="10"/><path d="M457.6 332.8H4.7L95.3 70.4h288.5l73.8 262.4zM457.6 332.8H4.7v139.7h453V332.8z" fill="#655E9D" stroke="#fff" stroke-width="4" stroke-miterlimit="10"/><path d="M100.3 365.3H24.8v20h75.5v-20zM100.3 388.7H24.8v20.1h75.5v-20zM100.3 412.2H24.8v20h75.5v-20zM178.5 365.3H103v20h75.5v-20zM178.5 388.7H103v20.1h75.5v-20zM178.5 412.2H103v20h75.5v-20zM256.3 365.3h-75.5v20h75.5v-20zM256.3 388.7h-75.5v20.1h75.5v-20zM256.3 412.2h-75.5v20h75.5v-20zM357 382a6.7 6.7 0 100-13.4 6.7 6.7 0 000 13.4zM377.1 382a6.7 6.7 0 100-13.4 6.7 6.7 0 000 13.4zM397.2 382a6.7 6.7 0 100-13.4 6.7 6.7 0 000 13.4zM417.4 382a6.7 6.7 0 100-13.4 6.7 6.7 0 000 13.4zM357 402.1a6.7 6.7 0 100-13.4 6.7 6.7 0 000 13.4zM377.1 402.1a6.7 6.7 0 100-13.4 6.7 6.7 0 000 13.4zM397.2 402.1a6.7 6.7 0 100-13.4 6.7 6.7 0 000 13.4zM417.4 402.1a6.7 6.7 0 100-13.4 6.7 6.7 0 000 13.4zM357 422.2a6.7 6.7 0 100-13.4 6.7 6.7 0 000 13.4zM377.1 422.2a6.7 6.7 0 100-13.4 6.7 6.7 0 000 13.4zM397.2 422.2a6.7 6.7 0 100-13.4 6.7 6.7 0 000 13.4zM417.4 422.2a6.7 6.7 0 100-13.4 6.7 6.7 0 000 13.4zM357 442.3a6.7 6.7 0 100-13.4 6.7 6.7 0 000 13.4zM377.1 442.3a6.7 6.7 0 100-13.4 6.7 6.7 0 000 13.4zM397.2 442.3a6.7 6.7 0 100-13.4 6.7 6.7 0 000 13.4zM417.4 442.3a6.7 6.7 0 100-13.4 6.7 6.7 0 000 13.4zM457.3 207.4l-453-1.6L55 3.4l369 1 33.3 203z" fill="#655E9D" stroke="#fff" stroke-width="4" stroke-miterlimit="10"/><path d="M4.4 205.5l-.4 112 452.9 1.6.4-112-453-1.6z" fill="#655E9D" stroke="#fff" stroke-width="4" stroke-miterlimit="10"/><path d="M310.2 206.8l-.4 111.9 147 .5.4-112-147-.4zM100.3 227.9H24.8v20h75.5v-20zM100.3 251.3H24.8v20.1h75.5v-20zM100.3 274.8H24.8v20h75.5v-20zM178.5 227.9H103v20h75.5v-20zM178.5 251.3H103v20.1h75.5v-20zM178.5 274.8H103v20h75.5v-20zM256.3 227.9h-75.5v20h75.5v-20zM256.3 251.3h-75.5v20.1h75.5v-20zM256.3 274.8h-75.5v20h75.5v-20z" fill="#655E9D" stroke="#fff" stroke-width="4" stroke-miterlimit="10"/><path d="M357 244.6a6.7 6.7 0 100-13.4 6.7 6.7 0 000 13.4zM377.1 244.6a6.7 6.7 0 100-13.4 6.7 6.7 0 000 13.4zM397.2 244.6a6.7 6.7 0 100-13.4 6.7 6.7 0 000 13.4zM417.4 244.6a6.7 6.7 0 100-13.4 6.7 6.7 0 000 13.4zM357 264.7a6.7 6.7 0 100-13.4 6.7 6.7 0 000 13.4zM377.1 264.7a6.7 6.7 0 100-13.4 6.7 6.7 0 000 13.4zM397.2 264.7a6.7 6.7 0 100-13.4 6.7 6.7 0 000 13.4zM417.4 264.7a6.7 6.7 0 100-13.4 6.7 6.7 0 000 13.4zM357 284.8a6.7 6.7 0 100-13.4 6.7 6.7 0 000 13.4zM377.1 284.8a6.7 6.7 0 100-13.4 6.7 6.7 0 000 13.4zM397.2 284.8a6.7 6.7 0 100-13.4 6.7 6.7 0 000 13.4zM417.4 284.8a6.7 6.7 0 100-13.4 6.7 6.7 0 000 13.4zM357 305a6.7 6.7 0 100-13.5 6.7 6.7 0 000 13.4zM377.1 305a6.7 6.7 0 100-13.5 6.7 6.7 0 000 13.4zM397.2 305a6.7 6.7 0 100-13.5 6.7 6.7 0 000 13.4zM417.4 305a6.7 6.7 0 100-13.5 6.7 6.7 0 000 13.4z" fill="#655E9D" stroke="#fff" stroke-width="4" stroke-miterlimit="10"/><path d="M310 485.9v142.8M310 331.8v142.7" stroke="#fff" stroke-width="4" stroke-miterlimit="10"/></svg>