<svg xmlns="http://www.w3.org/2000/svg" xmlns:xlink="http://www.w3.org/1999/xlink" fill="none" viewBox="0 0 661 209"><defs><path id="reuse-0" fill="#fff" d="M322 26.6c0-1.2 1-2 2.3-2h12c1.3 0 2.4.8 2.4 2"/><path id="reuse-1" stroke="#655F9E" stroke-miterlimit="10" stroke-width=".5" d="M322 26.6c0-1.2 1-2 2.3-2h12c1.3 0 2.4.8 2.4 2"/></defs><path fill="#fff" stroke="#655F9E" stroke-miterlimit="10" stroke-width=".5" d="M415 38.6h-22.6c-8 0-7.6-7.5-7.6-7.5h-20.6c-12.4-14.9-30-14.6-30-14.6v-2c0-2.6-3.6-2.6-3.6-2.6-3.3 0-4 2.6-4 2.6v1.8A41.5 41.5 0 0 0 296 31h-19c-.3 7-8 7.4-8 7.4h-21.1c1 7.7-10.4 6.4-10.4 6.4-.2 0 0 34.4 0 34.4 9.4 0 9.3 7 9.3 7h167.9c0-7.3 9-6.6 9-6.6V45c-9.8 0-8.5-6.5-8.5-6.5Z"/><path fill="#655F9E" d="M301.2 81.6c.4 0 .7-.2.9-.3 0-.1.2-.4.2-.9v-5.1l-.2-.8-.9-.3V74h3.4a5 5 0 0 1 1.8.3c.9.3 1.4.9 1.4 1.8 0 .5-.2 1-.7 1.3-.3.3-1 .5-1.6.6l2.6 3 .4.4.6.2v.2h-2l-3-3.6h-.6v2.3l.2.9 1 .2v.2h-3.5v-.2Zm4.2-4.1c.6-.3 1-.8 1-1.5s-.3-1.1-1-1.4a3 3 0 0 0-1.1-.2 2 2 0 0 0-.7.1l-.1.3v3c.9 0 1.5-.2 1.9-.3ZM311.9 81.6l.9-.2c0-.2.2-.4.2-.9v-5.2l-.2-.8-1-.2V74h6.6v1.7h-.3c0-.5-.2-.8-.4-1l-1.4-.2h-2l-.1.4v2.7h1.9c.5 0 .8-.1 1-.3l.3-.9h.3v2.7h-.3c0-.4-.2-.7-.3-.9l-1-.2h-1.9v3c0 .1.1.3.3.3h1.3c.9 0 1.5 0 1.9-.2.4-.2.8-.6 1-1.3h.4l-.6 2H312v-.2ZM322 81.8v-.2c.2 0 .5-.2.6-.4.2-.1.5-.7.9-1.5l2.5-5.8h.3l3 6.7.5.8.7.2v.2h-3.2v-.2l.7-.1.1-.4v-.3l-.2-.4-.5-1.1h-3.3a27 27 0 0 1-.5 1.4l-.1.4c0 .1 0 .3.3.4h.5v.3H322Zm5.2-3-1.4-3.3-1.4 3.2h2.8ZM333.3 81.6l.8-.2c.2-.2.2-.4.2-.9v-5.2c0-.4 0-.7-.2-.8l-.8-.2V74h3.5v.3a2 2 0 0 0-1 .2c-.1 0-.2.3-.2.7V81.1l.4.2H336.9a6 6 0 0 0 2.2-.2c.4-.2.8-.7 1.1-1.4h.3l-.6 2.1h-6.6v-.2ZM342.2 74h7v2h-.2c-.2-.7-.4-1-.6-1.3-.2-.2-.7-.3-1.4-.3h-.7v6c0 .5 0 .8.2 1l1 .1v.3h-3.6v-.2c.6 0 .9-.1 1-.3.1 0 .2-.4.2-1v-5.8h-.7c-.7 0-1.2 0-1.4.3-.2.2-.4.6-.5 1.2h-.4l.1-2ZM355.7 74v.2h-.7l-.2.4v.2l.2.3 1.8 2.5 1.8-2.6.1-.3v-.1c0-.2 0-.3-.2-.3l-.6-.1V74h2.7v.2a1 1 0 0 0-.6.2c-.3.2-.7.6-1 1.1l-1.9 2.7v2.3c0 .4 0 .7.2.8l1 .2v.3h-3.7v-.2c.6 0 1-.1 1-.2.2-.2.2-.5.2-1v-2l-1.6-2.3-1.2-1.6c-.2-.2-.5-.3-.8-.3V74h3.5Z"/><path stroke="#655F9E" stroke-miterlimit="10" stroke-width=".5" d="M420.4 63.5v12.7s-8.8 1.3-8.8 6.9h-38.4M364.3 77.4H400M241 63.5v12.7s8.8 1.3 8.8 6.9h38.4M261.2 77.4H297"/><path fill="#655F9E" d="m361.5 63.5-4.1-7.5h1.8c2.3 0 2.5-3 2.5-3v-4.3c0-3.1-3-3-3-3h-7.4v1c.8 0 1.5.7 1.5 1.5V63c0 .8-.7 1.5-1.6 1.5v1.1h4.6v-1.1c-1 0-1.6-.7-1.6-1.6v-6.8h1.7l4.8 8.4h-.6v1h3v-1c-.6 0-1.3-.4-1.6-1Zm-7.3-8.6v-7.7h4.3s1.6.3 1.6 1.8V53s-.3 1.8-1.9 1.8h-4ZM348.5 63.5l-4.2-7.5h1.8c2.4 0 2.6-3 2.6-3v-4.3c0-3.1-3-3-3-3h-7.5v1c.9 0 1.6.7 1.6 1.5V63c0 .8-.7 1.5-1.6 1.5v1.1h4.6v-1.1c-1 0-1.7-.7-1.7-1.6v-6.8h1.8l4.8 8.4h-.6v1h3v-1c-.7 0-1.3-.4-1.6-1ZM341 55v-7.7h4.4s1.5.3 1.5 1.8V53s-.2 1.8-1.9 1.8h-4ZM307 45.6v1.2h1.5v17.6h-1.7v1.2h4.3v-1h-1.6V48.9l4.1 12.4h.8l4-12.3v15.6H317v1h4.6v-1H320V46.8h1.6v-1.2H318L314 57h-.3l-3.5-11.4-3.4-.1ZM285.3 45.6v1c.5 0 .8.3.8.8V64H285v1h3.4V64h-1V47.9l7.3 12.3V64h-1.2v.8h3.4v-1h-1.2v-16c0-.7.6-1.2 1.3-1.2v-1h-3v.9c.4 0 .7.3.7.7v8.6l-6.2-10.2h-3.1ZM398.9 45.6V47c.6 0 1.1.5 1.1 1.1V72h-1.6v1.4h4.7V72h-1.5V49l10.5 17.5v5.4h-1.7V73h4.8v-1.4h-1.7v-23c0-.8.8-1.6 1.7-1.6v-1.4H411v1.2c.6 0 1.1.5 1.1 1v12.3l-8.8-14.5H399ZM368.7 65.6v-1.2h-.5c-.6 0-1 0-1-1.2V47.8c0-1 .8-1 1.5-1h.1v-1.3H364v1.2h.5c.6 0 1 0 1 1.2v15.4c0 1.2-.8 1-1.5 1h-.1v1.3h4.8ZM329.9 45.5c-3.6 0-6.4 4.7-6.4 10.4s2.8 10.3 6.4 10.3c3.5 0 6.4-4.6 6.4-10.3 0-5.8-2.8-10.4-6.4-10.4Zm0 19c-2.6 0-4.8-3.8-4.8-8.6s2.1-8.6 4.8-8.6c2.6 0 4.7 3.8 4.7 8.6s-2 8.7-4.7 8.7ZM283.4 69.2v-1.5h-.6c-.7 0-1.2.1-1.2-1.4V48.2c0-1.2 1-1.3 1.8-1.3v-1.4h-5.6V47h.6c.7 0 1.2 0 1.2 1.4v18c0 1.5-1 1.4-1.8 1.4v1.4h5.6ZM249.7 45.6V47h.1c1 0 1.8.7 2 1.6l5.4 24.6h2l3.9-16.2 3.7 16.2h2.3l5.5-25c.1-.8.8-1.4 1.7-1.4h.1v-1.3h-5.7V47h.6c.8 0 1.3.6 1.2 1.3l-4 19.7-4.6-19.7c-.1-.7.5-1.4 1.2-1.4h1.1v-1.4h-6.7V47h.4c.6 0 1.1.4 1.2 1l1.1 5.7-3.5 14.3-4.3-19.7c-.2-.7.3-1.4 1-1.4h1.3v-1.4c-.1 0-7.1-.2-7 0ZM375.5 64.5c3.8.2 4.5-4.4 2-6.8-2.7-2.4-7.2-1.8-6.8-7.7.3-5.8 6.3-5.2 7.4-3.2v-1.3h1.7V52h-.5s-.2-5.2-4.3-5.2c-4 0-3.7 5.3.3 6.8 4.2 1.7 5.6 5 5.2 7.7-.5 2.8-1.8 4.6-5 4.7-3 .2-3.2-2.1-3.2-2.1V66h-1.1v-7.7h.6s-.4 6 3.7 6.1ZM390.1 45c-4 0-7.3 5.3-7.3 11.7 0 6.5 3.3 11.8 7.3 11.8s7.3-5.3 7.3-11.8c0-6.4-3.2-11.7-7.3-11.7Zm0 21.7c-3 0-5.4-4.4-5.4-9.9 0-5.4 2.4-9.8 5.4-9.8 3 0 5.4 4.4 5.4 9.8 0 5.5-2.4 10-5.4 10Z"/><path fill="#fff" stroke="#655F9E" stroke-miterlimit="10" stroke-width=".5" d="M338.5 32.2v-4h-17v4h-1.7v2h4.6v-2.5c0-.6.4-1.2.9-1.7.5-.4 1.1-.6 1.8-.6h6.7a3 3 0 0 1 1.8.6c.5.5.9 1 .9 1.7v2.5h3.7v-2h-1.7Z"/><path fill="#fff" stroke="#655F9E" stroke-miterlimit="10" stroke-width=".5" d="M340.6 26.6H320v1.7h20.5v-1.7Z"/><use xlink:href="#reuse-0"/><use xlink:href="#reuse-1" stroke-miterlimit="10" stroke-width=".5"/><use xlink:href="#reuse-0"/><use xlink:href="#reuse-1" stroke-miterlimit="10" stroke-width=".5"/><path fill="#fff" stroke="#655F9E" stroke-miterlimit="10" stroke-width=".5" d="M335.8 22.4h-11v2.1h11v-2.1Z"/><path fill="#fff" stroke="#655F9E" stroke-miterlimit="10" stroke-width=".5" d="M336.6 20.8h-12.5v1.6h12.5v-1.6ZM336 7.8h-10.8v13h10.7v-13Z"/><path fill="#fff" stroke="#655F9E" stroke-miterlimit="10" stroke-width=".5" d="M333.5 14h-5.9c-.6 0-1 .5-1 1v3.3c0 .5.4 1 1 1h5.9c.6 0 1.1-.5 1.1-1V15c0-.6-.5-1-1-1Z"/><path fill="#fff" stroke="#655F9E" stroke-miterlimit="10" stroke-width=".5" d="M331.6 15.3h-2c-.4 0-.6.2-.6.5v1.8c0 .2.2.4.5.4h2.1c.4 0 .5-.1.5-.4v-1.8c0-.3-.1-.5-.5-.5ZM332.6 12.3h-4.1V14h4.1v-1.7ZM332.5 9.2h-3.9c-.9 0-1.6.6-1.6 1.5s.8 1.6 1.6 1.6h4c.9 0 1.6-.7 1.6-1.6 0-.8-.8-1.5-1.7-1.5ZM337 6.8c0 .3-.2.5-.4.7l-.3.2H325a1 1 0 0 1-.6-.3c-.2-.1-.3-.4-.3-.6 0-.2.1-.5.3-.7.1-.2.4-.3.6-.3h10.7c.3 0 .6 0 .7.3.3.2.4.5.4.7Z"/><path fill="#fff" d="M326.8 5.9V4.4c0-1.3 1.2-3.4 2.6-3.4h2.3c1.4 0 2.6 2.1 2.6 3.4V6"/><path stroke="#655F9E" stroke-miterlimit="10" stroke-width=".5" d="M326.8 5.9V4.4c0-1.3 1.2-3.4 2.6-3.4h2.3c1.4 0 2.6 2.1 2.6 3.4V6"/><path fill="#fff" d="M326.8 4.4h7.5-7.5Z"/><path stroke="#655F9E" stroke-miterlimit="10" stroke-width=".5" d="M326.8 4.4h7.5"/><path fill="#fff" d="m196.6 156.6-7.6-.4-.4-1.1c1.7-.9 3.7-1.4 5.2-2.2 3.6-2 3.8-2.3 4.3-4.6 1.2-5.9 2.3-11.6 5.7-17 4.8-7.6 11.6-9.4 20.3-8.2 0 1.3 0 2.7.2 4.9l-7.7-1.3c-3.3-.5-6.5-1-7.6 3.3-1.9 6.7-3.6 13.5-5.3 20.2 2.1 0 4.2.4 6.2 1.3 1.1.4 2.6.6 3.2 1.5-1.4.3-2.8.5-4.2.4-6-.3-6 1.4-7 6.9-1.7 9.5-2.7 19.6-6.2 28.7l-4.6 11.3a33 33 0 0 1-4.6 7.2c3.5-17.2 6.7-33.9 10-50.9ZM19.5 161.5v1.7a7.6 7.6 0 0 1 8.1-1.5c.8.4 1.5 1 2 1.7 1.3 1.8 2 4 1.8 6.2 0 2.3-.7 4.6-2.2 6.4a6.4 6.4 0 0 1-5.2 2.8c-2 0-3.8-.7-5.3-1.9-.6.9-1.4 1.6-2.3 2.2a1.3 1.3 0 0 1-1-.8 8.4 8.4 0 0 0 1.2-4.1V154l-2.8-.6a4 4 0 0 1-.2-1.4c1.8-.7 3.8-1.1 5.8-1.3l.3.3-.2 10.4Zm4.5 2c-1.6.2-3.1.7-4.5 1.6v9.2a6.8 6.8 0 0 0 5 2.2l1.2-.2 1-.5a8.1 8.1 0 0 0 1.7-5.2c0-1.7-.3-3.4-1.2-5a3.7 3.7 0 0 0-3.2-2ZM36.2 173v-9.2l-2.7-.7c0-.5 0-1.1.2-1.6H39l.3.2v10c0 3 .9 4.5 2.7 4.5.9 0 1.7-.4 2.4-.8.9-.6 1.7-1.3 2.4-2v-9.6l-2.7-.7c0-.6 0-1.1.2-1.6h5.3l.3.2-.1 10.4v1.2c0 1 0 2 .2 2.9l2.2-.6c.4.4.6.8.6 1.3-.6.6-1.3 1-2 1.4-.7.3-1.4.5-2.1.4-.5 0-.8-.2-1.1-1-.4-.7-.6-1.5-.7-2.3-.9 1-1.8 1.8-2.8 2.5-1 .6-2 .9-3 .8-3.3.1-4.9-1.8-4.9-5.7ZM57 173.7v-10l-2.6-.5c-.2-.5-.2-1-.1-1.5l2.7-.3 1.2-5c.6 0 1.2 0 1.8.2v4.8h5.6c0 .7 0 1.4-.2 2.2H60v8.7c0 2.6.5 4 1.7 4s2.4-.4 3.5-.8c.4.4.6 1 .6 1.6-1.7 1-3.6 1.6-5.5 1.6a2.5 2.5 0 0 1-2.5-1 7.7 7.7 0 0 1-.8-4ZM69.4 173.7v-10l-2.6-.5c-.1-.5-.2-1-.1-1.5l2.7-.3 1.2-5c.6 0 1.2 0 1.8.2v4.8H78c0 .7 0 1.4-.2 2.2h-5.4v8.7c0 2.6.6 4 1.7 4 1.2 0 2.4-.4 3.5-.8.4.4.7 1 .7 1.6a11 11 0 0 1-5.5 1.6 2.7 2.7 0 0 1-2.6-1 7.7 7.7 0 0 1-.8-4ZM79.8 170.1c0-2.3.8-4.5 2.3-6.3a6.5 6.5 0 0 1 5.4-2.8c2.3 0 3.9.6 4.9 1.8a7 7 0 0 1 1.4 4.6l-.1 2.2-.3.4H82.8c0 1 .3 2 .5 2.9a7 7 0 0 0 1.6 2.5c.8.6 1.8 1 2.8 1 2-.1 3.8-.6 5.6-1.3.4.3.6.8.6 1.3-1 .7-2.1 1.3-3.3 1.8a9 9 0 0 1-3.5.7c-2.5 0-4.3-.7-5.5-2.4-1.3-1.8-2-4-1.8-6.4Zm4.8-6A7.2 7.2 0 0 0 83 168h7.9l-.2-1.8c-.1-.5-.3-1-.6-1.4-.2-.4-.6-.8-1-1-.7-.3-1.3-.4-2-.4-.8-.1-1.7.1-2.4.6ZM101.7 161l.3.4.5 3c1.5-2.2 3.2-3.3 5-3.3 1 0 2 .1 3 .5 0 2-.3 4.1-.7 6.2h-2c0-1.4 0-2.7-.3-4h-.9a4 4 0 0 0-2 .5c-.9.6-1.5 1.4-2 2.3v7l.1 2.7c1.4 0 2.8.2 4.2.6 0 .5 0 1-.2 1.6h-9.9c-.2-.5-.3-1-.2-1.6 1-.1 2-.3 2.9-.6v-12l-2.8-.6v-1.3c1.6-.7 3.3-1.1 5-1.3ZM125 174.2v-6c0-1.3-.2-2.5-.7-3.6-.3-.8-1.1-1.1-2.4-1.1a7 7 0 0 0-4 1.4v8.5l.1 2.8c1 0 1.9.2 2.7.6 0 .6 0 1-.2 1.6h-8.3c-.2-.5-.3-1-.3-1.6l2.8-.6c.2-.7.2-1.4.2-2v-9.8l-2.8-.7-.2-1.3a18 18 0 0 1 5.1-1.3l.3.3.4 2a7.5 7.5 0 0 1 5.5-2.4c2.3 0 3.7 1 4.3 2.7a7.8 7.8 0 0 1 5.8-2.7c3.2 0 4.8 2 4.8 5.8V176.2c1 0 1.9.2 2.7.6 0 .6 0 1-.3 1.6h-8.2c-.2-.5-.3-1-.3-1.6l3-.6v-8c0-1.3-.1-2.5-.5-3.6-.4-.8-1.3-1.1-2.6-1.1-1.4 0-2.8.6-4 1.5v8.4c0 .7 0 1.6.2 2.8.7 0 1.5.3 2.2.6 0 .5 0 1-.2 1.6h-7.6c-.2-.5-.3-1-.2-1.6l2.5-.6.2-2ZM148.4 171.6v1.8l.2 2.8c.9 0 1.8.2 2.6.6 0 .5 0 1-.2 1.6h-8.3c-.2-.5-.3-1-.3-1.6 1 0 2-.3 3-.6v-12l-2.8-.5c-.1-.5-.2-1 0-1.4 1.8-.7 3.7-1.2 5.7-1.3l.3.3-.2 10.3Zm-1.9-13.4c-.5 0-1-.2-1.4-.6a1.7 1.7 0 0 1-.7-1.4c0-.7.3-1.3.8-1.9a2 2 0 0 1 1.5-1 2 2 0 0 1 1.6.8 1.6 1.6 0 0 1 .7 1.3 2.9 2.9 0 0 1-1.5 2.5c-.3.2-.7.3-1 .3ZM158.8 161.5v12l.1 2.7c1 0 1.9.2 2.7.6 0 .6 0 1-.2 1.6H153c-.2-.5-.3-1-.3-1.6l3-.6V154l-2.8-.6c-.1-.4-.2-1 0-1.4 1.8-.7 3.7-1.2 5.7-1.3l.3.3-.2 10.4ZM169 161.5v7.4l3-1.3 3.2-4-2.2-.6.3-1.5h7.3c.2.5.2 1 .2 1.5-.7.4-1.5.6-2.3.7l-4.6 4.9c1 2.3 2.3 4.5 4 6.4.3.5.8.9 1.3 1.3.5.2 1 .3 1.6.2h1.1a1.5 1.5 0 0 1 .5 1.4 5 5 0 0 1-2 .7l-2.5.2c-1.2 0-2.3-.8-3.4-2.5-1.2-2-2.1-4-2.8-6.2l-2.7.8v2.6l.2 2.8c1 0 1.8.2 2.7.6 0 .5 0 1-.2 1.6h-8.4c-.2-.5-.3-1-.2-1.6 1-.1 2-.3 2.9-.6V154l-2.7-.5c-.2-.4-.2-1-.1-1.4a18 18 0 0 1 5.8-1.3l.2.3-.2 10.3Z"/><path fill="#fff" d="M207.3 174.6a4.5 4.5 0 0 1 1.7-3.4c1-1 2.2-1.7 3.5-2.2 1.5-.5 3-.9 4.6-1.1 0-1.2-.2-2.4-.6-3.5a2.6 2.6 0 0 0-2.4-1.2c-1 0-1.9 0-2.8.4-.2.9-.3 1.8-.3 2.8-.6.3-1.3.4-2 .3a9.1 9.1 0 0 1-.9-3.9c2-1.2 4.1-1.8 6.4-1.8l1.7.2 1.8.8c.7.4 1.2 1 1.5 1.7.4 1 .6 2 .6 3v6.7c0 1 0 2 .2 2.9l2.2-.6c.4.4.6.8.6 1.3-1.1 1.1-2.6 1.8-4.1 1.8a1 1 0 0 1-1-.7c-.4-.6-.6-1.4-.7-2.1-2.2 2-4.2 2.8-5.9 2.8a4 4 0 0 1-2.9-1c-.8-.9-1.2-2-1.2-3.2Zm6 1.6c.6 0 1.2-.2 1.8-.6.7-.3 1.4-.8 2-1.3V170c-1.3 0-2.6.3-3.8.6l-2 .8a3.2 3.2 0 0 0-.6 3.2l.5.8a2.6 2.6 0 0 0 2 .7ZM230 161.5v12l.2 2.7c1 0 1.8.2 2.6.6l-.1 1.6h-8.4c-.2-.5-.3-1-.2-1.6 1-.1 2-.3 2.9-.6V154l-2.7-.6c-.2-.4-.2-1-.1-1.4a18 18 0 0 1 5.8-1.3l.2.3-.2 10.4ZM240.4 161.5v14.7c1 0 1.9.2 2.7.6 0 .5 0 1-.2 1.6h-8.3c-.2-.5-.3-1-.2-1.6l2.8-.6.2-2V154l-3-.6v-1.4c1.8-.7 3.8-1.1 5.8-1.3l.3.3-.1 10.4ZM251 178.7a13 13 0 0 1-5.5-.9c0-1.8.2-3.5.7-5.3.5-.2 1-.2 1.6 0 0 1.3.2 2.5.3 3.7 1 .3 2.2.5 3.3.4a4 4 0 0 0 2.4-.5 2.7 2.7 0 0 0 .7-2.1c0-1-.6-1.8-1.8-2.6l-1.8-.7-1.8-.7-1.5-.9c-.5-.3-1-.8-1.3-1.3-.3-.6-.4-1.3-.4-2a4 4 0 0 1 1.9-3.6 8 8 0 0 1 4.3-1.1c1.7 0 3.4.2 5 .6.1 1.6-.1 3-.5 4.5-.6.2-1.3.2-1.9 0 0-.9-.2-1.8-.4-2.8a7 7 0 0 0-2.3-.4c-.8 0-1.7 0-2.5.5a1.9 1.9 0 0 0-.6 1.6 2.2 2.2 0 0 0 .9 1.7c.6.5 1.4.9 2.1 1.2l2.6 1c.8.4 1.6 1 2.1 1.7.7.7 1 1.7 1 2.6a5 5 0 0 1-1.9 4c-1.3 1-3 1.5-4.7 1.4ZM285.9 175.3H283V154h2.8v21.3ZM293 159.5l.2 2a5.7 5.7 0 0 1 4.7-2.3c3.3 0 5 1.9 5 5.7v10.4h-2.7v-10.5c0-1.1-.3-2-.8-2.5s-1.3-.8-2.4-.8c-.8 0-1.6.2-2.2.7-.7.5-1.2 1-1.6 1.8v11.3h-2.6v-15.8h2.5ZM309.4 159.5l.1 2a5.7 5.7 0 0 1 4.7-2.3c3.3 0 5 1.9 5 5.7v10.4h-2.7v-10.5c0-1.1-.2-2-.7-2.5-.5-.5-1.3-.8-2.4-.8-.9 0-1.6.2-2.3.7-.6.5-1.2 1-1.5 1.8v11.3h-2.7v-15.8h2.5ZM338.3 163.9h5.9v2.6h-6v6.7h-2.6v-6.7h-5.9v-2.6h5.9v-6.2h2.7v6.2ZM361.4 165.8c-2.4-.7-4.1-1.5-5.2-2.5a5 5 0 0 1-1.6-3.8c0-1.6.6-3 2-4.1 1.3-1.1 3-1.7 5.1-1.7 1.5 0 2.8.3 3.9.9 1.1.5 2 1.3 2.6 2.3.7 1 1 2.1 1 3.3h-2.8c0-1.3-.4-2.3-1.2-3-.8-.8-2-1.2-3.5-1.2a5 5 0 0 0-3.2 1 3 3 0 0 0-1.1 2.5c0 .9.3 1.6 1 2.2.8.6 2 1.1 3.8 1.6 1.7.5 3.1 1 4.1 1.7 1 .6 1.7 1.3 2.2 2 .5.9.7 1.8.7 2.9a5 5 0 0 1-2 4.2 8.5 8.5 0 0 1-5.3 1.5c-1.5 0-2.8-.3-4-.8a7 7 0 0 1-3-2.3c-.7-1-1-2.1-1-3.4h2.8c0 1.3.5 2.3 1.4 3.1a6 6 0 0 0 3.8 1.1c1.4 0 2.6-.3 3.4-.9a3 3 0 0 0 1.1-2.5c0-1-.3-1.8-1-2.4-.8-.6-2.1-1.1-4-1.7ZM385.6 167.6c0 2.4-.5 4.3-1.6 5.8a5.2 5.2 0 0 1-4.5 2.2c-1.9 0-3.4-.6-4.4-1.8v7.6h-2.7v-22h2.4l.1 1.8c1.1-1.3 2.7-2 4.6-2 1.9 0 3.4.7 4.4 2.1a9.6 9.6 0 0 1 1.7 6v.3Zm-2.7-.3a7 7 0 0 0-1.1-4.3c-.8-1-1.8-1.5-3.1-1.5a4 4 0 0 0-3.6 2.2v7.5a4 4 0 0 0 3.6 2.2c1.3 0 2.3-.5 3-1.5.8-1 1.2-2.6 1.2-4.6ZM398.7 175.3c-.2-.3-.3-.9-.4-1.7a6 6 0 0 1-4.5 2c-1.5 0-2.8-.4-3.8-1.3s-1.4-2-1.4-3.4c0-1.6.6-2.9 1.8-3.8 1.3-1 3-1.4 5.3-1.4h2.6v-1.2a3 3 0 0 0-.9-2.3c-.5-.5-1.4-.8-2.5-.8-1 0-1.7.2-2.4.7-.6.5-1 1-1 1.8H389c0-.8.3-1.6.8-2.3.6-.7 1.3-1.3 2.3-1.8 1-.4 2-.6 3.1-.6 1.8 0 3.2.5 4.2 1.4a5 5 0 0 1 1.6 3.7v7.3a9 9 0 0 0 .6 3.5v.2h-2.8Zm-4.5-2c.9 0 1.7-.3 2.4-.7a4 4 0 0 0 1.7-1.7v-3.3h-2.1c-3.3 0-5 1-5 3 0 .8.3 1.5.9 2 .5.4 1.3.7 2.1.7Z"/><g fill="#fff" clip-path="url(#a)"><path d="M512.9 135.3v10c-2.6.8-3 .6-2.9-1.8l.1-8.2h2.8ZM517.6 135.7h1.3c8.3 0 16.6-.2 24.8 0 3.2 0 6.5.7 9.5 1.6 6 1.7 9.7 5.6 10.6 12 .9 5.5.5 11-3.5 15.4-1.5 1.7-3.6 2.8-5.5 4-.4.4-1 .5-1.8.8l4.4 1.5c4.8 2 8 5.5 9.1 10.6 1.1 4.6 1 9.3-.6 13.8-1.5 4-4.2 6.8-8 8.8l-1 .5-.1.4c3.3.9 6.7 1 10.1.7 4.8-.3 9.3-1.3 13.2-4.3 4.4-3.5 6.3-8.4 7-13.7.5-3 .7-6 .7-9V136c2.3-.6 2.5-.5 2.5 1.6v42.6c0 4.5-.5 9-1.9 13.3-2.8 9-9.3 13.4-18.4 14.5a40.7 40.7 0 0 1-18.8-1.5l-20.2.6h-13.4v-71.3Zm29.7 68.7-.4-.7c-5-3.8-7.5-9.2-8.2-15.3-.6-5.2-.5-10.5-.7-15.8 0-1.2-.3-1.6-1.6-1.6h-15c-1.1 0-1.5.3-1.5 1.5v30.7c0 1 .3 1.5 1.5 1.5l23.5-.1 2.4-.2Zm-6.8-26.9c0 5.2.1 10.3 1.8 15.2 1.5 4.6 4.2 8.3 8.6 10.5.5.2 1.2.4 1.7.3 5-1.3 9-4 10.8-9 1.2-3.3 1.3-6.7 1-10.1-.7-6.7-4.5-10.8-11-12.2-3.8-.8-7.8-.8-11.8-1.2-1 0-1.2.5-1.2 1.3v5.2Zm-2.7-9 .2-1v-28.2c0-1.2-.6-1.4-1.5-1.4h-15c-1.1 0-1.6.3-1.6 1.5v28c0 1 .4 1.3 1.5 1.3h15.3l1.1-.1Zm2.7-15.2v14c0 1 .3 1.5 1.3 1.4 2.2-.2 4.4-.1 6.6-.4 6.7-.8 11.3-4.5 12.5-10.4.5-2.1.6-4.4.5-6.6a12 12 0 0 0-9.2-11.7c-3.2-1-6.6-1.1-10-1.6-1.3-.2-1.8.2-1.8 1.7v13.6ZM605.2 135.8v66.7c0 1.4.7 2.1 2.2 2.1h25.1c1.4 0 1.9-.3 1.9-1.7v-63.2c0-1.4-.4-1.8-1.8-1.8h-21c-1.1 0-1.7-.2-1.4-1.4 0-.3.5-.7.9-.9H661v2.4h-22.5c-1.3 0-1.7.3-1.7 1.7v63.2c0 1.4.4 1.8 1.8 1.8h7.3v2.2h-1.5l-40 .1c-1.4 0-1.7-.4-1.7-1.8v-67.8c0-2 .1-2 2.5-1.6ZM597.7 207h-2.3v-71.3h2.3V207ZM512.7 153.6v53.1c-2.4.8-2.7.6-2.7-1.8v-49.3c0-2.4 0-2.4 2.7-2Z"/></g><defs><clipPath id="a"><path fill="#fff" d="M510 135.3h151v73H510z"/></clipPath></defs></svg>