<svg xmlns="http://www.w3.org/2000/svg" fill="none" viewBox="0 0 542 140"><path fill="#F2F2F2" d="M301.1 127.47c0-.45.19-.67.55-.67.38 0 .56.22.56.67 0 .44-.18.67-.56.67-.36 0-.54-.23-.54-.67Zm3.34 0c0-.45.19-.67.55-.67.37 0 .56.22.56.67 0 .44-.19.67-.56.67-.36 0-.55-.23-.55-.67Zm3.34 0c0-.45.18-.67.55-.67.37 0 .56.22.56.67 0 .44-.19.67-.56.67-.37 0-.55-.23-.55-.67Zm3.34 0c0-.45.18-.67.54-.67.38 0 .56.22.56.67 0 .44-.18.67-.56.67-.36 0-.55-.23-.55-.67Zm3.33 0c0-.45.18-.67.55-.67.37 0 .56.22.56.67 0 .44-.19.67-.56.67-.37 0-.55-.23-.55-.67Zm7.99.53-.18-1.18h-.05c-.37.48-.76.82-1.15 1.02-.4.2-.86.3-1.4.3-.73 0-1.3-.19-1.7-.56a2 2 0 0 1-.61-1.56c0-.72.3-1.28.9-1.68.6-.4 1.48-.62 2.63-.64l1.41-.04v-.5c0-.7-.14-1.23-.43-1.6-.29-.35-.75-.53-1.39-.53-.69 0-1.4.19-2.14.57l-.25-.59a5.66 5.66 0 0 1 2.42-.57c.82 0 1.43.21 1.83.64.4.42.6 1.08.6 1.98V128h-.5Zm-2.74-.48c.8 0 1.42-.22 1.87-.67.47-.46.7-1.1.7-1.9v-.73l-1.3.05a4.9 4.9 0 0 0-2.24.5c-.44.27-.66.7-.66 1.28 0 .47.14.83.42 1.09.29.25.7.38 1.21.38Zm10.83.48v-4.82c0-.75-.16-1.29-.47-1.63-.32-.34-.8-.5-1.46-.5-.9 0-1.55.22-1.96.67-.41.44-.62 1.17-.62 2.18v4.1h-.67v-7.43h.57l.13 1.02h.04c.49-.78 1.35-1.16 2.58-1.16 1.69 0 2.53.9 2.53 2.71V128h-.67Zm5.8-7.57c.53 0 1 .1 1.4.29.38.2.73.53 1.04 1h.04a36 36 0 0 1-.04-1.68v-2.68h.67V128H339l-.17-1.14h-.06a2.75 2.75 0 0 1-2.43 1.28c-1.03 0-1.8-.32-2.35-.96-.54-.64-.81-1.57-.81-2.79 0-1.28.26-2.27.8-2.95.54-.67 1.32-1.01 2.35-1.01Zm0 .61c-.81 0-1.43.29-1.84.86-.4.56-.6 1.4-.6 2.48 0 2.1.81 3.16 2.45 3.16.84 0 1.45-.25 1.85-.74.39-.48.58-1.29.58-2.4v-.13c0-1.14-.19-1.97-.58-2.47-.38-.5-1-.76-1.86-.76Zm18.54 6.96v-4.87c0-.73-.15-1.26-.43-1.59-.28-.33-.71-.5-1.3-.5-.76 0-1.32.21-1.69.63-.36.42-.54 1.08-.54 1.98V128h-.7v-5.08c0-1.25-.57-1.88-1.72-1.88-.78 0-1.34.23-1.7.68-.35.46-.53 1.18-.53 2.18v4.1h-.68v-7.43h.56l.15 1.02h.04c.2-.37.5-.66.87-.86.38-.2.8-.3 1.25-.3 1.17 0 1.93.44 2.26 1.31h.03c.24-.42.56-.74.97-.97.4-.23.87-.34 1.4-.34.8 0 1.41.21 1.82.64.4.44.6 1.13.6 2.07V128h-.66Zm7.58 0-.17-1.18h-.05c-.38.48-.76.82-1.16 1.02-.39.2-.86.3-1.4.3-.72 0-1.29-.19-1.7-.56a2 2 0 0 1-.6-1.56c0-.72.3-1.28.9-1.68.6-.4 1.48-.62 2.63-.64l1.41-.04v-.5c0-.7-.14-1.23-.43-1.6-.29-.35-.75-.53-1.39-.53-.69 0-1.4.19-2.14.57l-.25-.59a5.66 5.66 0 0 1 2.42-.57c.81 0 1.42.21 1.82.64.4.42.61 1.08.61 1.98V128h-.5Zm-2.73-.48c.8 0 1.42-.22 1.87-.67.46-.46.7-1.1.7-1.9v-.73l-1.3.05a4.9 4.9 0 0 0-2.24.5c-.44.27-.67.7-.67 1.28 0 .47.15.83.43 1.09.29.25.69.38 1.2.38Zm10.83.48v-4.82c0-.75-.16-1.29-.48-1.63-.3-.34-.8-.5-1.46-.5-.89 0-1.54.22-1.95.67-.41.44-.62 1.17-.62 2.18v4.1h-.68v-7.43h.58l.13 1.02h.04c.48-.78 1.34-1.16 2.58-1.16 1.68 0 2.53.9 2.53 2.71V128h-.67Zm1.83-7.43h.7l1.57 4.17c.48 1.28.78 2.14.9 2.59h.05c.19-.59.5-1.47.94-2.63l1.57-4.13h.7l-3.33 8.63c-.27.7-.5 1.18-.68 1.43-.18.24-.4.43-.64.55-.25.12-.54.18-.89.18-.25 0-.54-.05-.86-.14v-.59c.26.08.54.11.85.11.23 0 .44-.05.62-.16.17-.11.33-.28.47-.52.15-.22.32-.59.5-1.09l.37-.97-2.84-7.43Zm17.45 3.7c0 1.22-.3 2.17-.88 2.85a3.05 3.05 0 0 1-2.43 1.02 3.2 3.2 0 0 1-1.73-.47c-.5-.32-.87-.77-1.14-1.36a4.93 4.93 0 0 1-.4-2.04c0-1.2.3-2.15.89-2.83a3.03 3.03 0 0 1 2.42-1.01c1.02 0 1.82.34 2.4 1.03.58.68.87 1.62.87 2.81Zm-5.86 0c0 1.03.22 1.82.67 2.4a2.3 2.3 0 0 0 1.9.85c.82 0 1.46-.28 1.9-.85.45-.58.68-1.38.68-2.4s-.23-1.82-.68-2.38a2.3 2.3 0 0 0-1.91-.85c-.82 0-1.45.28-1.9.85a3.77 3.77 0 0 0-.66 2.38Zm9.88 3.27c.43 0 .8-.04 1.12-.11v.54c-.33.11-.7.17-1.13.17-.66 0-1.14-.18-1.46-.53-.3-.35-.46-.9-.46-1.65v-4.8h-1.1v-.4l1.1-.3.34-1.69h.35v1.8h2.18v.59h-2.18v4.7c0 .57.1 1 .3 1.27.2.27.51.4.94.4Zm7.91.46v-4.82c0-.75-.16-1.29-.47-1.63-.32-.34-.8-.5-1.47-.5-.88 0-1.53.22-1.95.67-.41.44-.62 1.17-.62 2.18v4.1h-.67v-10.64h.68v3.39l-.04.95h.05a2.5 2.5 0 0 1 1.05-.97c.43-.2.95-.3 1.58-.3 1.69 0 2.53.9 2.53 2.71V128h-.67Zm6.08.14a3.25 3.25 0 0 1-2.53-1c-.6-.67-.9-1.6-.9-2.8 0-1.18.29-2.13.87-2.84a2.89 2.89 0 0 1 2.36-1.07c.87 0 1.56.3 2.07.91.5.61.76 1.44.76 2.49v.55h-5.35c0 1.02.24 1.8.7 2.34.48.53 1.15.8 2.02.8a6 6 0 0 0 1.11-.09 6.8 6.8 0 0 0 1.23-.38v.62a5.32 5.32 0 0 1-2.34.47Zm-.2-7.11c-.72 0-1.3.23-1.72.7a3.32 3.32 0 0 0-.76 2.05h4.6c0-.87-.2-1.54-.57-2.02-.37-.49-.9-.73-1.55-.73Zm7.8-.6c.32 0 .66.03 1.02.1l-.13.64a3.93 3.93 0 0 0-.97-.11c-.63 0-1.15.26-1.56.8-.4.54-.6 1.22-.6 2.04v4.1h-.68v-7.43h.57l.07 1.34h.05c.3-.55.63-.93.98-1.15.34-.22.76-.33 1.25-.33Zm7.14 5.63c0 .67-.25 1.18-.76 1.54-.5.36-1.22.54-2.15.54-1 0-1.78-.16-2.37-.46v-.73a5.3 5.3 0 0 0 2.37.56c.73 0 1.29-.12 1.67-.36.38-.25.57-.58.57-.98 0-.38-.15-.69-.46-.95-.3-.25-.8-.5-1.49-.75a8.74 8.74 0 0 1-1.56-.69 2.4 2.4 0 0 1-.69-.65 1.68 1.68 0 0 1-.22-.9c0-.56.23-1 .7-1.32a3.42 3.42 0 0 1 1.96-.48c.8 0 1.56.15 2.28.45l-.25.61c-.73-.3-1.4-.45-2.03-.45-.6 0-1.09.1-1.44.3-.36.2-.54.48-.54.84 0 .38.14.7.41.92.28.24.82.5 1.62.79.67.24 1.16.45 1.47.65.3.2.53.41.68.66.15.24.23.53.23.86Z"/><path fill="#fff" d="M18.53 70.83 74 35.4A7239.43 7239.43 0 0 0 18.53 0v26.09a.69.69 0 0 0 .4.67l8.74 6.76 2.51 1.9-.4.26-10.85 8.25a.94.94 0 0 0-.4.8v26.1ZM0 21.36v28.1l18.4-14.05L0 21.36Z"/><path fill="#fff" d="M18.53 70.83v-26.1a.97.97 0 0 1 .4-.8l10.86-8.25.4-.27-2.52-1.89-8.74-6.76a.69.69 0 0 1-.4-.68V0A7241.4 7241.4 0 0 1 74 35.41L18.53 70.83Z"/><path fill="#F2F2F2" d="m164.75 33.6 20.23 20.86a5.2 5.2 0 0 0 7.5 0l6.7-6.9a5.58 5.58 0 0 0 0-7.73l-20.23-20.85a5.2 5.2 0 0 0-7.5 0l-6.7 6.9a5.58 5.58 0 0 0 0 7.73Z"/><path fill="#BDBDBD" d="m212.43 3.86-34.45 35.5a5.58 5.58 0 0 0 0 7.73l7.33 7.55a5.2 5.2 0 0 0 7.5 0l34.44-35.5a5.58 5.58 0 0 0 0-7.73l-7.32-7.55a5.2 5.2 0 0 0-7.5 0Z"/><path fill="#fff" d="M323 16.5 339 0h43.93a3.97 3.97 0 0 1 2.93 1.28A4.22 4.22 0 0 1 387 4.35V16.5h-64Z"/><path fill="#E0E0E0" d="m387 49.52-11.93 16.5H339v-16.5h48Z"/><path fill="#EFEFEF" d="M387 16.5h-48v16.51h48v-16.5Z"/><path fill="#E4E4E4" d="M339 16.5h-16v16.51h16v-16.5Z"/><path fill="#BDBDBD" d="M387 33.01h-48v16.5h48v-16.5Z"/><path fill="#828282" d="M339 33.01h-16v16.5h16v-16.5Z"/><path fill="#BDBDBD" d="M323 49.52h16v16.5h-12.07a3.87 3.87 0 0 1-2.78-1.19 4.12 4.12 0 0 1-1.15-2.86V49.52Z"/><path fill="#828282" d="M504.02 37.51c10.16 0 18.4-8.4 18.4-18.75C522.43 8.4 514.19 0 504.03 0c-10.17 0-18.4 8.4-18.4 18.76 0 10.35 8.23 18.75 18.4 18.75Z"/><path fill="#BDBDBD" d="M521.26 51.51c8.73 0 15.81-7.21 15.81-16.11 0-8.9-7.08-16.12-15.81-16.12-8.74 0-15.81 7.22-15.81 16.12 0 8.9 7.07 16.11 15.81 16.11Z"/><path fill="#F2F2F2" d="M505.96 63.27a12.7 12.7 0 0 0 12.58-12.82 12.7 12.7 0 0 0-12.58-12.8 12.7 12.7 0 0 0-12.57 12.8 12.7 12.7 0 0 0 12.57 12.82Z"/><path fill="#F2F2F2" d="M507.26 13.87h-21.13a19.09 19.09 0 0 0 1.76 14.3 18.66 18.66 0 0 0 4.74 5.55 18.27 18.27 0 0 0 11.39 3.92h1.55a12.46 12.46 0 0 0-8.72 3.85c-2.3 2.4-3.6 5.61-3.6 8.96v1.06h14a2.7 2.7 0 0 0 1.8-.8 2.8 2.8 0 0 0 .8-1.84V16.51a2.8 2.8 0 0 0-.8-1.83 2.7 2.7 0 0 0-1.8-.81Z" opacity=".1"/><path fill="#F2F2F2" d="M505.31 15.85h-19.57a18.97 18.97 0 0 0 3.22 14.03 18.07 18.07 0 0 0 12.08 7.5l2.98.26h1.56a12.38 12.38 0 0 0-8.87 3.99 12.84 12.84 0 0 0-3.45 9.22c0 .9.13 1.79.39 2.64h11.67a2.7 2.7 0 0 0 1.8-.8 2.8 2.8 0 0 0 .79-1.84V18.5a2.8 2.8 0 0 0-.8-1.83 2.7 2.7 0 0 0-1.8-.81Z" opacity=".2"/><path fill="#F2F2F2" d="M505.31 15.85h-19.57a18.97 18.97 0 0 0 3.22 14.03 18.07 18.07 0 0 0 12.08 7.5l2.98.26h1.56a12.59 12.59 0 0 0-8.4 3.55 13.04 13.04 0 0 0-3.92 8.34h12.06a2.7 2.7 0 0 0 1.8-.8 2.8 2.8 0 0 0 .79-1.84v-28.4a2.8 2.8 0 0 0-.8-1.83 2.7 2.7 0 0 0-1.8-.81Z" opacity=".2"/><path fill="#F2F2F2" d="M503.37 15.85h-17.63a18.97 18.97 0 0 0 3.22 14.03 18.07 18.07 0 0 0 12.08 7.5l2.98.26h1.56a12.59 12.59 0 0 0-8.4 3.55 13.04 13.04 0 0 0-3.92 8.34h10.11a2.7 2.7 0 0 0 1.8-.8 2.8 2.8 0 0 0 .8-1.84v-28.4a2.8 2.8 0 0 0-.8-1.83 2.7 2.7 0 0 0-1.8-.81Z" opacity=".2"/><path fill="#828282" d="M477.44 15.85h25.93c.69 0 1.35.28 1.83.77.49.5.76 1.17.76 1.87v26.42c0 .7-.27 1.37-.76 1.87-.48.5-1.14.77-1.83.77h-25.93a2.6 2.6 0 0 1-1.83-.77 2.67 2.67 0 0 1-.76-1.87V18.49c0-.7.27-1.37.76-1.87s1.15-.77 1.83-.77Z"/><path fill="#fff" d="M485.87 31.3a5.25 5.25 0 0 1-1.69-1.71 5.35 5.35 0 0 1 .52-5.42c.77-.8 1.7-1.44 2.73-1.85a16.2 16.2 0 0 1 8.68.13v3.57l-2.2-.92a8.28 8.28 0 0 0-2.6-.27c-.93-.08-1.88.1-2.72.53a1.74 1.74 0 0 0-1.04 1.72 1.49 1.49 0 0 0 .4 1.05l1.3.93 2.2 1.05h.38c1 .4 1.94.9 2.86 1.46.7.4 1.29 1 1.68 1.71.47.8.7 1.72.65 2.65a4.55 4.55 0 0 1-.9 3.17 6.93 6.93 0 0 1-2.6 1.85 12.6 12.6 0 0 1-3.76.52l-3.37-.26-2.72-.8V36.6a7.96 7.96 0 0 0 2.85 1.32c.95.37 1.96.55 2.98.53.95.05 1.9-.18 2.72-.66a1.6 1.6 0 0 0 .9-1.58 1.76 1.76 0 0 0-.5-1.33l-1.44-1.06-2.72-1.19-2.59-1.45v.13ZM24.6 120.8H13.3v2.2H16a4 4 0 1 1 0 8h-5l-9 9h9.4c3.2-.1 17.6-1.5 17.6-11a9.5 9.5 0 0 0-4.4-8.2Z"/><path fill="#fff" d="M32 128.3c0-5-4.9-7.8-6.1-8.3l-1.3.8A9.5 9.5 0 0 1 29 129c0 9.5-14.4 10.9-17.6 11 19.6-.2 20.6-8.6 20.6-11.7Z"/><path fill="#fff" d="M13 100H2v40l9-9v-8h2s6.6.4 11.6-2.2l.6-.3.7-.5a9 9 0 0 0 3.5-4.4 9.7 9.7 0 0 0 .6-3.6c0-12-10.8-12-17-12Zm4 17h-4a2 2 0 0 1-2-2v-4a2 2 0 0 1 2-2h4a4 4 0 1 1 0 8Z"/><path fill="#fff" d="M19.7 110a4.2 4.2 0 0 1 1.3 3 4 4 0 0 1-4 4h-4a2 2 0 0 1-2-2v-4s0-4.8 2.4-7.3a9.9 9.9 0 0 0-6.2 5.1C3 116.3 2 140 2 140l9-6.9V123h2c8 0 15-4 15-10.4v-.5a.1.1 0 0 1-.07-.03.1.1 0 0 1-.03-.07c-2.5-1.5-7.4-1.9-8.2-2Z"/><path fill="#fff" d="M17.5 103.1a14 14 0 0 0-4.1.6C11 106.2 11 111 11 111a2 2 0 0 1 2-2h4a4.3 4.3 0 0 1 2.7 1c.8.1 5.7.5 8.2 2 0 .03.01.05.03.07a.1.1 0 0 0 .07.03c-.3-5-4.9-9-10.5-9ZM16 131h-5v2h4c3.3 0 5-2.7 5-6a4 4 0 0 1-4 4Zm39-18.2 5.3 16.2h-2l-1.5-4.7h-6.5l-1.5 4.7h-1.9l5.3-16.2H55Zm-4.2 9.9h5.5l-1.7-5.5-1-3.1h-.1c-.3 1-.6 1.9-.9 3.1l-1.8 5.5Zm21.4.9v-10.8H74v10.6c0 3.9-2.2 5.9-5.9 5.9s-5.6-2.1-5.6-5.6v-10.9h1.8v10.6c0 2.9 1.6 4.2 4 4.2s3.9-1.1 3.9-4Zm8.5-9.1h-4.3v-1.7h10.5v1.7h-4.3V129h-1.9v-14.5Zm13.4 14.8c-3.9 0-6.3-2.3-6.3-8.3 0-6 2.5-8.4 6.4-8.4 3.9 0 6.3 2.3 6.3 8.2 0 5.9-2.6 8.5-6.4 8.5Zm.1-1.7c2.7 0 4.4-1.6 4.4-6.6s-1.8-6.8-4.5-6.8-4.4 1.6-4.4 6.6 1.8 6.8 4.5 6.8Zm9.8-14.8h4.3c4.9 0 7.1 2.5 7.1 8s-2.1 8.2-7.1 8.2H104v-16.2Zm1.9 14.6h2.4c3.5 0 5.2-1.8 5.2-6.4 0-4.6-1.9-6.5-5.4-6.5h-2.2v12.9ZM119 129v-16.2h8.6v1.7h-6.8v5.5h6v1.6h-6v5.8h7.1v1.6H119Zm19.3-4.1c0-3.7-7.7-2.9-7.7-8 0-2.4 2.1-4.3 5-4.3a6.8 6.8 0 0 1 4.2 1.3l-1.1 1.5a4.6 4.6 0 0 0-3.2-1.1c-1.9 0-3 1-3 2.5 0 3.8 7.7 3 7.7 8 0 2.4-1.9 4.5-5.4 4.5a7.8 7.8 0 0 1-5.1-1.7l1.1-1.5a6.5 6.5 0 0 0 4.2 1.5c2.2 0 3.3-1.2 3.3-2.7Zm7.1 4.1h-1.9v-16.2h1.9V129Zm6.3-16.2h2.2l-5.8 8.1 6.3 8.1H152l-6-8 5.7-8.2Zm11.4 7.1a4.21 4.21 0 0 1-3.4 1.4 4.39 4.39 0 0 1-3.4-1.4 4.82 4.82 0 0 1 0-6.8 4.5 4.5 0 0 1 3.4-1.5 5.1 5.1 0 0 1 4.9 4.9 4.5 4.5 0 0 1-1.5 3.4Zm-6.3-6.4a4.1 4.1 0 0 0-1.2 3 3.98 3.98 0 0 0 1.2 2.9 3.7 3.7 0 0 0 2.9 1.3 3.9 3.9 0 0 0 3-1.3 4 4 0 0 0 1.2-2.9 4.1 4.1 0 0 0-4.2-4.2 3.99 3.99 0 0 0-2.9 1.2Zm2.8.3 1.5.2a1.3 1.3 0 0 1 .8 1.3 1.28 1.28 0 0 1-.5 1.1l-.8.2c.36.08.69.3.9.6a1.1 1.1 0 0 1 .3.8v.8c0 .1 0 .2.1.2h-.9v-.6a1.4 1.4 0 0 0-.5-1.2l-1.1-.2h-.7v2.1h-.9v-5.3h1.8Zm1 .8-1.1-.2h-.8v2h.8l.9-.2a.8.8 0 0 0 .6-.8.8.8 0 0 0-.4-.8Zm25.8-.5c.52.77.8 1.67.8 2.6a3.6 3.6 0 0 1-2.1 3.4c.8.23 1.49.77 1.9 1.5.5.7.74 1.54.7 2.4a6 6 0 0 1-.7 2.7l-1.2 1.3a4.6 4.6 0 0 1-1.9.8 9 9 0 0 1-2.4.2H174v-16.6h8.1a5.2 5.2 0 0 1 4.3 1.7Zm-9.1 1.2v3.6h4.1a3.4 3.4 0 0 0 1.8-.4c.4-.2.6-.7.6-1.4a1.6 1.6 0 0 0-.9-1.6l-1.9-.2h-3.7Zm0 6.4v4.4h4.1c.57.05 1.15-.02 1.7-.2a2.2 2.2 0 0 0 1.1-2.1 1.8 1.8 0 0 0-1.1-1.8 3.7 3.7 0 0 0-1.7-.3h-4.1Zm16.6 7.3h-3.5v-16.6h3.5V129Zm14.3-16.6h5V129H210v-13.9l-3.2 13.9h-3.4l-3.1-13.9V129h-3.2v-16.6h5l3.1 13.1 3-13.1Zm16.7 11.6c-.03.55.08 1.1.3 1.6a2.1 2.1 0 0 0 2.1 1.2 2.5 2.5 0 0 0 1.7-.6c.45-.53.7-1.2.7-1.9a2.3 2.3 0 0 0-1.3-2.2 7.02 7.02 0 0 0-2.4-.3v-2.3a5.4 5.4 0 0 0 2.2-.3 1.8 1.8 0 0 0 1.1-1.9 2 2 0 0 0-.6-1.5 1.8 1.8 0 0 0-1.5-.6 1.89 1.89 0 0 0-1.7.7 3.6 3.6 0 0 0-.5 1.9h-3c.04-.78.17-1.55.4-2.3.31-.65.75-1.23 1.3-1.7a3.8 3.8 0 0 1 1.5-.9 6.2 6.2 0 0 1 2.1-.3 5.8 5.8 0 0 1 3.8 1.2 4.3 4.3 0 0 1 .6 5.7 2.8 2.8 0 0 1-1.2.8c.5.12.97.4 1.3.8a4.1 4.1 0 0 1 1.2 3.1 5.2 5.2 0 0 1-1.4 3.7 5.8 5.8 0 0 1-4.3 1.6c-2.3 0-3.9-.8-4.8-2.3a7.19 7.19 0 0 1-.8-3.2h3.2Zm17.6-7.2c0-.32-.11-.64-.3-.9a1.9 1.9 0 0 0-1.6-.8 2.2 2.2 0 0 0-2.2 1.8 6.9 6.9 0 0 0-.5 2.9 3.3 3.3 0 0 1 1.3-1.1 5.78 5.78 0 0 1 3.82.06c.6.26 1.14.65 1.58 1.14a5 5 0 0 1 1.4 3.8 6.2 6.2 0 0 1-1.3 4 5.1 5.1 0 0 1-4.3 1.8 5 5 0 0 1-4.6-2.6 11.4 11.4 0 0 1-1.1-5.2c0-1.04.07-2.07.2-3.1a7.2 7.2 0 0 1 1.1-3.5 4.7 4.7 0 0 1 1.8-1.9 5 5 0 0 1 2.7-.7 5.5 5.5 0 0 1 3.7 1.2 4.19 4.19 0 0 1 1.5 3.1h-3.2Zm-3.9 9.2a2.2 2.2 0 0 0 1.9.8 1.7 1.7 0 0 0 1.6-.8 2.8 2.8 0 0 0 .7-2.1 3.8 3.8 0 0 0-.7-2.2 2.4 2.4 0 0 0-1.8-.7 1.9 1.9 0 0 0-1.4.5 3.01 3.01 0 0 0-1 2.4c0 .76.25 1.5.7 2.1Zm19-11.3a15.89 15.89 0 0 1 0 12.6 4.7 4.7 0 0 1-4.4 2.2 4.8 4.8 0 0 1-4.4-2.2 17.1 17.1 0 0 1 0-12.6 4.8 4.8 0 0 1 4.4-2.2 4.7 4.7 0 0 1 4.4 2.2Zm-6.3 10.6a1.9 1.9 0 0 0 1.9 1.5 1.8 1.8 0 0 0 1.9-1.5c.37-1.4.54-2.85.5-4.3a15.9 15.9 0 0 0-.5-4.4 1.8 1.8 0 0 0-1.9-1.4 1.9 1.9 0 0 0-1.9 1.4 16.32 16.32 0 0 0-.4 4.4c-.06 1.44.07 2.9.4 4.3Z"/></svg>