<svg xmlns="http://www.w3.org/2000/svg" fill="none" viewBox="0 0 1362 290"><path fill="#999" d="M10.64 109.73h177.81v50.6H10.66v-50.6Z"/><path stroke="#585858" stroke-miterlimit="3.86" stroke-width="1.74" d="M.02 109.65h200.4m-10.91-.56v50.35-50.35Zm-176.28 0v50.35-50.35ZM1.55 161.85h198.87H1.55Z"/><path fill="#fff" fill-rule="evenodd" stroke="#fff" stroke-miterlimit="3.86" stroke-width=".43" d="M46.05 141.37H31.9l7.08-13.5 7.08 13.5Zm2.1 3.85 4.5 8.04h5.27l-19.14-34.78-19.14 34.78h5.26l4.6-8.03h18.66Zm18.1-21.28h1.33c4.89 0 10.82.57 10.82 5.79s-5.46 6.18-10.62 6.18h-1.54v-11.97Zm0 15.66h2.87c7.46 0 13.87-2.73 13.87-9.71 0-6.99-3.73-9.72-15.98-9.72h-5.74v33.4h4.97V139.6Z" clip-rule="evenodd"/><path fill="#fff" d="M88.93 120.17h-5.36l16.46 34.77 11.3-24.5 11.19 24.5 16.55-34.77h-5.35l-11.2 23.93-11.2-24.65-11.3 24.65-11.1-23.93Z"/><path fill="#fff" fill-rule="evenodd" stroke="#fff" stroke-miterlimit="3.86" stroke-width=".43" d="M162.04 136.8v4.17h10.24a10.78 10.78 0 0 1-4.31 6.97 14.9 14.9 0 0 1-8.7 2.9 18.81 18.81 0 0 1-6.16-1.18 16.48 16.48 0 0 1-5.14-3.07 13.49 13.49 0 0 1-3.35-4.5 11.62 11.62 0 0 1-1.05-5.22c-.18-2.88.77-5.73 2.7-8.1a15.7 15.7 0 0 1 8.01-5.09 18.6 18.6 0 0 1 10.04.03c3.25.94 6.05 2.74 7.96 5.13l3.45-2.8a20.94 20.94 0 0 0-7.23-4.74 24.38 24.38 0 0 0-8.95-1.7 22.7 22.7 0 0 0-13.87 5.33c-3.65 3.19-5.73 7.42-5.8 11.84-.07 4.42 1.86 8.7 5.4 11.97a22.47 22.47 0 0 0 13.7 5.64 21.7 21.7 0 0 0 7.43-1.06 19.13 19.13 0 0 0 6.31-3.47c1.8-1.5 3.2-3.3 4.13-5.3a13.3 13.3 0 0 0 1.27-6.23v-1.29l-16.08-.24Z" clip-rule="evenodd"/><path fill="#fff" d="M347.25 148.32h-.55a15.82 15.82 0 0 1-5.54 2.93 22.57 22.57 0 0 1-9.74 1.03c-2.44-.3-4.8-1.06-6.97-2.22a13.46 13.46 0 0 1-6.25-7.28 17.42 17.42 0 0 1-.71-7.92 13.22 13.22 0 0 1 3.64-7.91 17.02 17.02 0 0 1 10.29-4.36c2.61-.5 5.3-.5 7.91 0a18 18 0 0 1 7.92 3.57h.63v-6.02a30.4 30.4 0 0 0-15.83-2.53c-3 .26-5.93 1.1-8.63 2.45a17.57 17.57 0 0 0-9.97 14.56 23.74 23.74 0 0 0 0 9.03 17.08 17.08 0 0 0 7.92 10.45 22.16 22.16 0 0 0 11.32 3.32 31.66 31.66 0 0 0 14.56-3v-5.3a.64.64 0 0 0 0-.8Zm-3.88 16.62 3.17 1.82 1.74-1.42a50 50 0 0 0 8.79-8.55 30.5 30.5 0 0 0 6.01-9.82 35.95 35.95 0 0 0 1.43-7.91c.15-1.82.15-3.65 0-5.46-.5-3-1.47-5.92-2.85-8.63a46.08 46.08 0 0 0-9.03-12.03 41.12 41.12 0 0 0-7.04-5.7h-.48l-2.37 1.34a47.52 47.52 0 0 1 8.7 10.45 35.93 35.93 0 0 1 5.39 17.02c.2 4-.37 8-1.66 11.8a34.43 34.43 0 0 1-9.5 15.11l-2.3 1.98Zm-68.78 0h-.4a38.32 38.32 0 0 1-6.41-6.96 33.09 33.09 0 0 1-6.02-24.38 37.7 37.7 0 0 1 3.56-11.16 46.54 46.54 0 0 1 10.69-13.54h.48l-2.54-1.5h-.55a44.4 44.4 0 0 0-7.05 5.7 42.5 42.5 0 0 0-8.78 11.71 28.72 28.72 0 0 0-3.25 10.45c-.27 2.8-.19 5.61.24 8.39 1 5.26 3.35 10.16 6.8 14.25a56.73 56.73 0 0 0 9.9 9.1h.4l.95-.55 1.98-1.5Zm12.03-17.1v5.94l.95.56a17.57 17.57 0 0 0 11.08 2.29 9.82 9.82 0 0 0 7.12-4.35 12.27 12.27 0 0 0 2.3-8.63 7.92 7.92 0 0 0-2.77-5.07 24.63 24.63 0 0 0-4.12-2.69l-5.06-2.77a9.9 9.9 0 0 1-3.25-2.77 5.93 5.93 0 0 1-1.03-4.11 4.43 4.43 0 0 1 3.8-3.8c1.24-.16 2.49-.16 3.72 0a8.7 8.7 0 0 1 3.09.7c1.62.7 3.08 1.72 4.27 3.02v-5.86a18.6 18.6 0 0 0-10.45-2.53 9.65 9.65 0 0 0-7.36 3.95 11.08 11.08 0 0 0-2.13 7.92 5.62 5.62 0 0 0 .79 2.93 12.12 12.12 0 0 0 4.43 4.27c1.58.87 3.17 1.74 4.67 2.7l4.2 2.6c.57.4 1.05.92 1.42 1.5a6.7 6.7 0 0 1 .95 4.76 5.39 5.39 0 0 1-5.38 4.83 13.4 13.4 0 0 1-5.62-1.03 13.93 13.93 0 0 1-5.23-3.8l-.4-.56Zm-7.92 9.5v-39.58h-5.22v39.58h5.22Zm88.34-38.3a2.7 2.7 0 0 1 3.09-1.2 1.59 1.59 0 0 1 1.18 1.27c.08.45.08.9 0 1.35a7.9 7.9 0 0 1-1.26 2.69l-3.88 5.93v.48h7.91v-1.74h-5.14v-.4l2.61-4.2a7.92 7.92 0 0 0 1.43-3.16 3 3 0 0 0-1.82-3.64 6.83 6.83 0 0 0-2.54 0c-.63.06-1.25.25-1.82.55-.49.34-.87.8-1.1 1.35l1.34.71Zm15.83 1.73a3.72 3.72 0 0 0-3.72-3.72 3.8 3.8 0 0 0-3.72 3.72 3.72 3.72 0 0 0 3.72 3.72 3.65 3.65 0 0 0 3.88-3.72h-.16Z"/><path fill="#000" d="M347.25 148.32v5.3a31.73 31.73 0 0 1-14.56 3c-4-.06-7.92-1.2-11.32-3.31a17.1 17.1 0 0 1-7.92-10.45c-.7-2.77-.88-5.64-.55-8.47a17.57 17.57 0 0 1 9.97-14.57 23.75 23.75 0 0 1 8.55-1.82c5.4-.58 10.88.29 15.83 2.54v6.01h-.63a18.05 18.05 0 0 0-7.92-3.56c-2.61-.5-5.3-.5-7.91 0a17 17 0 0 0-9.74 4.83 13.21 13.21 0 0 0-3.64 7.91c-.38 2.66-.13 5.37.71 7.92a13.45 13.45 0 0 0 6.25 7.28 19.95 19.95 0 0 0 6.97 2.22c3.4.23 6.81-.31 9.97-1.59a16 16 0 0 0 5.55-2.92l.39-.32Z"/><path fill="#000" d="m343.53 164.94 2.14-1.98a34.43 34.43 0 0 0 9.5-15.12c1.17-3.7 1.65-7.6 1.42-11.47a35.93 35.93 0 0 0-5.38-17.02 47.49 47.49 0 0 0-8.71-10.45l2.38-1.35h.47a41.12 41.12 0 0 1 7.04 5.7 46.06 46.06 0 0 1 9.03 12.03 29.9 29.9 0 0 1 2.85 8.63c.16 1.82.16 3.65 0 5.47a35.9 35.9 0 0 1-1.43 7.91 30.46 30.46 0 0 1-5.22 9.74 49.97 49.97 0 0 1-8.79 8.54L347.1 167l-3.56-2.06Zm-68.79 0-2.13 1.19-.95.55h-.4a56.7 56.7 0 0 1-9.9-9.1c-3.45-4.08-5.8-9-6.8-14.25a33.4 33.4 0 0 1-.48-8.47c.4-3.66 1.5-7.2 3.25-10.45a42.52 42.52 0 0 1 8.79-11.71 44.42 44.42 0 0 1 7.04-5.7h.55l2.54 1.5h-.48a46.55 46.55 0 0 0-10.29 13.22 37.49 37.49 0 0 0-3.56 11.16 33.07 33.07 0 0 0 6.17 24.78 38.6 38.6 0 0 0 6.42 6.97l.23.31Zm12.03-17.1a13.92 13.92 0 0 0 5.23 3.8c1.78.75 3.7 1.1 5.62 1.03a5.38 5.38 0 0 0 5.38-4.83 6.65 6.65 0 0 0-.95-4.75 5.2 5.2 0 0 0-1.42-1.5l-4.2-2.61a88.68 88.68 0 0 0-4.67-2.7 12.1 12.1 0 0 1-4.43-4.27c-.53-.88-.8-1.9-.8-2.93-.32-2.81.45-5.64 2.14-7.91a9.67 9.67 0 0 1 7.37-3.96c3.8-.23 7.59.7 10.84 2.7v5.85a12.35 12.35 0 0 0-4.27-3 8.7 8.7 0 0 0-3.1-.72 14.57 14.57 0 0 0-3.71 0 4.44 4.44 0 0 0-3.8 3.8 5.92 5.92 0 0 0 1.03 4.43 9.9 9.9 0 0 0 3.24 2.77l5.07 2.77c1.46.76 2.84 1.66 4.12 2.7a7.92 7.92 0 0 1 2.77 5.06 12.3 12.3 0 0 1-1.98 8.94 9.83 9.83 0 0 1-7.13 4.36c-3.84.48-7.74-.33-11.08-2.3l-.95-.55v-5.94a.63.63 0 0 1-.31-.24Z"/><path fill="#000" d="M279.1 157.34h-5.23v-39.58h5.23v39.58Zm88.34-38.3-1.11-.96c.23-.54.62-1.01 1.1-1.34a4.9 4.9 0 0 1 1.83-.56c.83-.16 1.7-.16 2.53 0a3 3 0 0 1 1.82 3.64 7.9 7.9 0 0 1-1.43 3.17l-2.6 4.2v.39h5.14V129h-7.92v-.47l3.88-5.94a7.92 7.92 0 0 0 1.27-2.69 4 4 0 0 0 0-1.34 1.58 1.58 0 0 0-1.19-1.27 2.69 2.69 0 0 0-3.09 1.19l-.23.55Zm15.59 1.73a3.64 3.64 0 0 1-3.72 3.72 3.72 3.72 0 0 1-3.72-3.72 3.8 3.8 0 0 1 3.72-3.72 3.72 3.72 0 0 1 3.72 3.72Zm-6.8 0a3.17 3.17 0 1 0 6.25 0 3.17 3.17 0 0 0-4.37-2.92 3.08 3.08 0 0 0-1.89 2.92Z"/><path fill="#fff" d="M376.22 120.77a3.07 3.07 0 0 1 3.09-3.16 3.17 3.17 0 0 1 3.16 3.16 3.17 3.17 0 1 1-6.25 0Zm2.45 2.22v-1.66h.72l.87 1.42h.79l-1.19-1.98a1.27 1.27 0 0 0 .63-1.42 1.11 1.11 0 0 0-.94-.95h-1.67v4.27l.8.32Z"/><path fill="#000" d="M378.91 122.99h-.63v-4.27h1.66a1.11 1.11 0 0 1 .95.95 1.26 1.26 0 0 1-.63 1.42l1.19 1.98h-.8l-.87-1.43h-.71l-.16 1.35Zm0-2.45h.87c.48 0 .64 0 .64-.64 0-.63 0-.79-.48-.87h-1.03v1.5Z"/><path fill="#fff" d="M378.91 120.54v-1.59h1.03s.56 0 .48.87c-.08.87 0 .56-.64.64l-.87.08Z"/><path fill="#616161" d="M437.03 107v4h29.2v-4h-29.2Zm33.32 0v4h41.56a15.76 15.76 0 0 0-9.84-4h-31.72Zm49.72 0v4h25.16l-1.48-4h-23.68Zm43.2 0-1.48 4h24.76v-4h-23.28Zm-126.24 8v4h29.2v-4h-29.2Zm33.32 0v4h46.4a10.3 10.3 0 0 0-1.48-4h-44.92Zm49.72 0v4h28l-1.36-4h-26.64Zm40.24 0-1.4 4h27.64v-4h-26.24Zm-114.88 8v4h12.64v-4h-12.64Zm33.32 0v4h12.6v-4h-12.6Zm24.92 0v4h12.64c.46-1.29.73-2.64.8-4h-13.44Zm24.8 0v4h22.4l-1.48-4h-20.92Zm29.08 0-1.52 4h22.52v-4h-21Zm-112 8v4h12.64v-4h-12.64Zm33.32 0v4h32.28a14.46 14.46 0 0 0 3.56-4h-35.84Zm49.72 0v4h12.64v-2.28l.8 2.28h23.16l.84-2.28V135h12.52v-4h-23.72l-1.24 3.44-1.28-3.44h-23.72Zm-83.04 8v4h12.64v-4h-12.64Zm33.32 0v4h36a14.27 14.27 0 0 0-3.56-4h-32.44Zm49.72 0v4h12.64v-4h-12.64Zm14.92 0 1.56 4h17.36l1.44-4h-20.36Zm22.52 0v4h12.52v-4h-12.52Zm-120.48 8v4h12.64v-4h-12.64Zm33.32 0v4h12.6v-4h-12.6Zm24.92 0v4h13.44a14.3 14.3 0 0 0-.8-4h-12.64Zm24.8 0v4h12.64v-4h-12.64Zm17.8 0 1.48 4h11.64l1.48-4h-14.6Zm19.64 0v4h12.52v-4h-12.52Zm-128.64 8v4h29.16v-4h-29.16Zm33.08 0v4h44.92a10.66 10.66 0 0 0 1.48-4h-46.4Zm49.96 0v4h20.8v-4h-20.8Zm28.84 0 1.52 4h5.92l1.44-4h-8.88Zm16.76 0v4h21.04v-4h-21.04Zm-128.64 8v4h29.16v-4h-29.16Zm33.08 0v4h31.72a16 16 0 0 0 9.84-4h-41.56Zm49.96 0v4h20.8v-4h-20.8Zm31.72 0 1.48 4h.24l1.48-4h-3.2Zm13.88 0v4h21.04v-4h-21.04Z"/><path fill="#000" d="M656.78 107.19c-22.3 5.34-17.97 34.93-4.87 48.7a29.78 29.78 0 0 0 48.17-2.43 41.81 41.81 0 0 0 9.05-26.48c-1.48-19.25-19.05-25-33.77-15.47-5.44-3.48-11.9-5-18.31-4.32h-.27Zm7.23 6.15c1.62.35 3.2.87 4.73 1.55l1 .47a49.17 49.17 0 0 0-12.02 18.78 40.52 40.52 0 0 0-1.21 17.64c-11.76-10.75-15.27-42.16 7.5-38.44Zm29.45 0c15.13 4.12 9.73 29.72 0 38.3a36.8 36.8 0 0 0-1.62-18.78c-.47-.81-1.42-3.45-2.03-4.46-.6-1.01-1.15-1.82-1.82-1.55-.68.27-12.97 7.97-13.51 8.1-.54.14-1.35 1.7-.4 3.11.94 1.42 1.61 2.9 2.56 2.84.95-.07 4.25-2.57 7.43-4.66.56-.4 1.15-.76 1.76-1.08 3.58 7.3 2.7 21.34-5.68 24.79a12.43 12.43 0 0 1-16.21-5.4c-8.24-17.16 9.73-44.93 29.25-41.21h.27Zm46 5.94c-2.13.08-4.22.6-6.14 1.55a18.29 18.29 0 0 0-8.58 26.28 17.36 17.36 0 0 0 27.02 2.77c0 1.56 0 3.79.75 4.66.74.88 4.72 0 5.06 0 .34 0 .61-.94.61-8.03v-7.37c0-.2-1.15 0-7.23 0h-6.75l-.41.4c-.47 0-.54 5.08 0 5 .54-.06.6.41 2.77.41a6.04 6.04 0 0 1 2.3 0 8.58 8.58 0 0 1-2.98 2.23 10.89 10.89 0 1 1 4.2-15.87c.8 1.41 1 1.48 2.36 1 1.75-.5 3.43-1.22 5-2.15a16.56 16.56 0 0 0-17.7-10.68l-.27-.2Zm49.32.81h-.4v34.25c12.5 0 25.13 1.56 30.33-9.66a17.2 17.2 0 0 0-11.96-24.52 44.7 44.7 0 0 0-10.94-.6h-7.57l.54.53Zm16.96 6.76a10.34 10.34 0 0 1 6.75 6.75c.82 2.9.58 5.98-.67 8.72a10.55 10.55 0 0 1-6.42 4.93c-3.22.4-6.48.54-9.73.4v-20.87c1.47-.1 2.93-.1 4.4 0 1.9-.1 3.8.03 5.67.4v-.33Zm64.52-7.3c-.68 0-.68.54-.75 6.76v6.08c-9.73-9.33-23.71 4.05-17.63 15.67a10.88 10.88 0 0 0 17.63 3.58c-.06.74.06 1.48.34 2.16 0 .4 0 .4 3.18.4h3.17a100 100 0 0 0 0-17.02c0-16.62 0-16.75-.4-17.09-.41-.34-.48-.4-2.98-.4l-2.56-.14Zm-4.13 16.89c5.48 2.5 4.33 11.96-2.23 11.82-9.12 0-6.75-15.06 2.24-11.82Zm32.03-16.55-.4.4v12.16l-.89-.8a11.08 11.08 0 0 0-15.4 2.3c-.28.4-.6.79-.95 1.14-1.47 2.6-2.1 5.6-1.82 8.58.74 9.12 12.5 15.27 18.98 8.1 0 .48 0 2.17.75 2.37 1.97.2 3.97.2 5.94 0 .54-.34.61-1.22.61-17.3 0-17.15 0-16.95-.81-17.29h-2.84c-2.5 0-2.63 0-3.04.4l-.13-.06Zm-3.99 16.55a8.52 8.52 0 0 1 3.45 3.85 5.82 5.82 0 0 1-10.61 4.8c-2.5-4.6 2.1-10.88 7.16-8.65Zm40.53-11.69v1.02c.81 1.35.81 1.55 1.56 0v.74c0 .67 0 .74.4.74s0 0 0-1.28-.54-1.55-1.14-.6l-.41.67v-.61c-.1-.29-.25-.54-.47-.75h-.48l.54.07Zm-163.68 4.94a13.1 13.1 0 0 0-10.27 9.59 12.91 12.91 0 0 0 0 6.01 14.73 14.73 0 0 0 7.5 8.51 13.5 13.5 0 0 0 14.12-2.16 12.83 12.83 0 0 0-11.35-21.95Zm4.45 6.75 1.15.6a6.01 6.01 0 0 1-2.1 11.02 6.08 6.08 0 0 1-3.37-11.49 5.6 5.6 0 0 1 4.32 0v-.13Zm57.83-6.75a12.97 12.97 0 0 0-3.3 24.45c0 .47 3.7 1.15 5.4 1.01a8.98 8.98 0 0 0 6.21-3.24 5.61 5.61 0 0 0 0 2.16c0 .4.34.4 3.31.4 2.98 0 3.04 0 3.25-.33.59-3.89.7-7.84.33-11.75 0-10.88 0-11.49-.34-11.76-.33-.27-.8-.34-3.17-.34-3.45 0-3.65 0-3.65 1.49v.94a9.46 9.46 0 0 0-8.3-3.03h.26Zm4.66 6.75c7.16 3.31 3.25 14.46-4.39 11.28a6.35 6.35 0 0 1 .75-11.35c1.13-.2 2.3-.1 3.37.34l.27-.27Zm69.11-6.08c-.6.34-.54.95 0 3.85 4.87 15.6 6.02 19.25 6.29 19.66.27.4.4.47 2.23.47h1.82c-.02.4-.02.81 0 1.22a3.78 3.78 0 0 1-6.01 2.23c-1.49-.75-2.16-.81-2.64 0-1.75 2.5-3.78 4.19 0 5.74a10.88 10.88 0 0 0 16.08-8.99c1.15-4.32 6.76-24.25 6.76-23.5a1 1 0 0 0 0-.54h-3.31c-2.5 0-3.04 0-3.31.33-.27.34-.61.95-2.23 7.23a201.33 201.33 0 0 1-2.84 10.4c-.07 0-1.42-4.72-3.85-13.5a10.2 10.2 0 0 0-.81-2.37l-.34-.95c0-1.21-.54-1.28-4.12-1.28-1.13-.1-2.25-.1-3.38 0h-.34Z"/><path fill="#6B6B6B" d="M1351.15 112.32c0-3 8.58-3.1 8.19 0-.4 3.1-8.59 3-8.19 0Zm10.58 0c0-6.59-12.87-7.58-12.97 0-.1 7.58 13.07 7.28 12.97 0Zm-10.58 14.97c0-1.4 0-4.4 1.6-4.2 1.6.2 1.7 2.8 1.6 4.2h-3.2Zm5.39 0v-2.2l4.99-1.9v-3.29l-5.49 2.3a3.75 3.75 0 0 0-4.55-1.8 3.77 3.77 0 0 0-2.53 4.2v5.58h12.57v-2.9h-4.99Zm-2.89 5.68c-7.78.6-5.59 11.58 1.59 10.78 6.99.8 9.28-9.98 1.9-10.78v2.9c4.29.9 2.2 5.19-1.6 4.59-3.79-.6-6.18-4.1-1.59-4.4v-3.09h-.3Zm7.88 13.68h-12.67v2.89h12.67v-2.9Zm0 12.67v2l-9.98 3.09h9.98v2.49h-12.67v-4.69l7.58-2.2-7.58-2.29v-4.69h12.67v3h-9.98l9.98 3.29ZM1101.4 167h-47.69c-3.8-13.77-11.58-42.8-11.58-42.8V167h-19.95v-59.07h33.92l11.08 41.6v-41.6h19.95v8.98a30.97 30.97 0 0 0-6.33 28.8 31.03 31.03 0 0 0 20.6 21.09v.2Zm232.29-59.07V167h-19.95v-46.3l-11.78 46.3h-19.66l-11.77-46.3V167h-36.12l-3.59-12.77h-19.26l-3.59 12.77h-34.23c-1.19-5.29 0-21.25-8.98-19.96h-6.08V167h-35.03a87.7 87.7 0 0 0 24.45-9.98l-7.29-27.94-19.95 5.2 4.19 15.76c-11.48 6.98-22.25-2.7-21.85-15.07 0-15.77 19.95-19.26 31.63-17.76l-2.4-9.18h40.81c29.94-.6 26.94 29.34 8.49 31.13a14.12 14.12 0 0 1 10.47 7.19s12.47-35.43 13.57-38.72h31.73l13.17 37.02v-37.02h33.73s7.78 32.33 7.88 32.33c2.6-10.78 7.69-32.33 7.69-32.33l33.72.3Zm-342.75 0h22.65V167h-22.75l.1-59.07Zm230.1 12.67-6.29 19.96h13.07l-6.38-19.96h-.4Zm-62.36 13.07h6.68c5.59 0 7.88-2.8 7.88-6.28 0-7.59-9.48-6.19-14.56-6.29v12.57Z"/><path fill="#A7A7A7" fill-rule="evenodd" d="M167.93 52.71A74.53 74.53 0 0 1 125.38 66a77.03 77.03 0 0 1-52.02-19.96c-1-.96 0-2.3 1.23-1.52a102.72 102.72 0 0 0 91.66 5.61c1.96-.78 3.57 1.29 1.68 2.7v-.12Z" clip-rule="evenodd"/><path fill="#A7A7A7" fill-rule="evenodd" d="M172.72 47.21c-1.45-1.9-9.7-.9-13.38-.44-1.11 0-1.34-.85-.28-1.52a20.33 20.33 0 0 1 18.63-1.68 20.68 20.68 0 0 1-6.64 17.55c-1 .79-1.9.34-1.45-.67 1.45-3.53 4.63-11.27 3.12-13.24Z" clip-rule="evenodd"/><path fill="#000" fill-rule="evenodd" d="M159.5 12.4V7.84a1.07 1.07 0 0 1 .69-1.05.9.9 0 0 1 .43-.07h20.19a1.17 1.17 0 0 1 1.17 1.12v3.81c0 .68-.56 1.52-1.5 2.86L170.04 29.5c3.97-.2 7.93.65 11.48 2.46a2.08 2.08 0 0 1 1 1.74v4.82a1.06 1.06 0 0 1-1.44 1.07 22.86 22.86 0 0 0-21.3 0c-.67.33-1.45-.34-1.45-1.07v-4.6c-.07-1.08.2-2.16.78-3.08l11.93-17.33h-10.31a1.16 1.16 0 0 1-1.12-.67 1.2 1.2 0 0 1-.11-.45ZM86.03 40.42h-6.08a1.17 1.17 0 0 1-1.11-1.01V7.91A1.18 1.18 0 0 1 80 6.79h5.58a1.17 1.17 0 0 1 1.11 1.06v4.1a8.41 8.41 0 0 1 7.97-5.88 8.33 8.33 0 0 1 7.98 5.87 8.8 8.8 0 0 1 8.53-5.6 8.5 8.5 0 0 1 7.08 3.47 16.9 16.9 0 0 1 1.5 9.93v20.02a1.18 1.18 0 0 1-1.17 1.12h-5.8a1.17 1.17 0 0 1-1.05-1.12V22.93c.13-1.97.13-3.96 0-5.94a3.26 3.26 0 0 0-3.63-2.7 4.05 4.05 0 0 0-3.68 2.59 19.9 19.9 0 0 0-.56 6.05v16.83a1.18 1.18 0 0 1-1.17 1.12h-6.13a1.22 1.22 0 0 1-1.11-1.12V22.93c0-3.47.55-8.69-3.74-8.69-4.3 0-4.24 5-4.24 8.7v16.82a1.18 1.18 0 0 1-1.28 1l-.17-.33ZM199.37 6c9.1 0 14.06 7.8 14.06 17.83 0 10.04-5.58 17.33-14.06 17.33-8.47 0-13.77-7.85-13.77-17.6 0-9.77 4.85-17.56 13.77-17.56Zm0 6.5c-4.51 0-4.8 6.23-4.8 10.04 0 3.81 0 12.11 4.75 12.11 4.74 0 5.02-6.67 5.02-10.7.07-2.84-.25-5.67-.95-8.42a3.82 3.82 0 0 0-4.02-3.03Zm25.82 28.04h-6.13a1.17 1.17 0 0 1-1.12-1.12V7.79a1.24 1.24 0 0 1 1.17-1.06h5.58a1.11 1.11 0 0 1 1.11.9v4.82a8.3 8.3 0 0 1 8.37-6.34 8 8 0 0 1 7.13 3.7c1.37 3.1 1.92 6.5 1.62 9.87v19.9a1.18 1.18 0 0 1-1.23.96h-5.8a1.17 1.17 0 0 1-1.11-.95V22.37c0-3.47.39-8.52-3.85-8.52a3.88 3.88 0 0 0-3.51 2.52 14.48 14.48 0 0 0-1 6V39.2a1.24 1.24 0 0 1-1.23 1.12v.22Zm-81.74-15.08c.25 2.25-.13 4.52-1.11 6.56a4.87 4.87 0 0 1-4.24 2.8c-2.34 0-3.74-1.8-3.74-4.48 0-5.22 4.69-6.23 9.1-6.23v1.35Zm6.19 15.03a1.28 1.28 0 0 1-1.45 0 15.28 15.28 0 0 1-3.51-4.15 12.28 12.28 0 0 1-10.1 4.48 8.65 8.65 0 0 1-8.75-5.86 8.79 8.79 0 0 1-.44-3.73 10.59 10.59 0 0 1 6.63-10.09 42.77 42.77 0 0 1 11.54-2.13v-.79a7.78 7.78 0 0 0-.72-4.48 4.13 4.13 0 0 0-3.4-1.57 4.6 4.6 0 0 0-4.97 3.7c0 .56-.5 1.12-1.06 1.12l-5.9-.67a1.06 1.06 0 0 1-1.07-.79c.73-3 2.54-5.61 5.07-7.35a12.38 12.38 0 0 1 8.65-2.07c3.35-.14 6.64.93 9.26 3.03a13.27 13.27 0 0 1 2.67 10.65v9.6a8.67 8.67 0 0 0 2.29 5.6c.44.56.5 1.29 0 1.63l-4.8 4.03.06-.16ZM63.16 25.46c.22 2.25-.16 4.51-1.11 6.56a4.93 4.93 0 0 1-4.24 2.8c-2.34 0-3.74-1.8-3.74-4.48 0-5.22 4.63-6.23 9.1-6.23v1.35Zm6.14 15.03a1.28 1.28 0 0 1-1.45 0 14.67 14.67 0 0 1-3.57-4.15 12.22 12.22 0 0 1-10.1 4.48 8.66 8.66 0 0 1-8.7-5.87 8.8 8.8 0 0 1-.44-3.72 10.47 10.47 0 0 1 6.53-10.09 42.38 42.38 0 0 1 11.54-2.13v-.79a7.8 7.8 0 0 0-.78-4.48 4.13 4.13 0 0 0-3.4-1.57 4.55 4.55 0 0 0-4.91 3.7c0 .56-.5 1.12-1.06 1.12l-5.91-.67a1 1 0 0 1-.9-.79c.72-2.99 2.52-5.6 5.04-7.34a12.32 12.32 0 0 1 8.63-2.08c3.35-.16 6.64.92 9.25 3.03a13.1 13.1 0 0 1 2.73 10.65v9.6a8.66 8.66 0 0 0 2.3 5.6c.38.56.5 1.29 0 1.63-.51.33-3.58 2.97-4.8 4.03v-.16Z" clip-rule="evenodd"/><path fill="#4A4A4A" d="M365.04 65.44h-4.98v-19.7h4.98v19.7Zm40.08-14.07c-12.7-5.86-12.81 14.22 0 8.4v5.33c-19.77 5.63-20.07-24.57 0-19.02v5.29Zm-51.9 0c-12.7-5.86-12.78 14.22 0 8.4v5.33c-19.78 5.63-20.05-24.57 0-19.02v5.29Zm67.53-.99a5.21 5.21 0 0 0 0 10.38 5.2 5.2 0 0 0 0-10.38Zm10.43 5.17c0 13.5-20.73 13.47-20.85 0-.11-13.46 20.7-13.5 20.85 0Zm-47.31-5.4a20.4 20.4 0 0 0-3.8-.57c-4.11 0-3.81 2.93-.8 3.46l1.36.46a5.93 5.93 0 0 1 4.64 5.86c0 7.6-9.7 7.07-13.54 6.08v-4.52c1.54.41 3.13.66 4.72.72 4.18 0 4.8-2.9 1.37-3.8-8.44-1.41-8.3-12.29 1.22-12.29 1.63.02 3.25.24 4.83.65v3.95Zm-50.93-25.6a2.47 2.47 0 0 0-4.94 0v5.18a2.47 2.47 0 1 0 4.94 0v-5.17Zm13.54-6.76a2.47 2.47 0 1 0-4.94 0v11.94a2.47 2.47 0 1 0 4.94 0V17.8Zm13.58-9.32a2.47 2.47 0 1 0-4.94 0v26.17a2.47 2.47 0 0 0 4.94 0V8.47Zm13.54 9.32a2.47 2.47 0 0 0-4.95 0v11.94a2.47 2.47 0 1 0 4.95 0V17.8Zm13.54 6.77a2.47 2.47 0 0 0-4.91 0v5.17a2.48 2.48 0 0 0 4.9 0v-5.17Zm13.57-6.77a2.47 2.47 0 1 0-4.94 0v11.94a2.47 2.47 0 0 0 4.94 0V17.8Zm13.54-9.32a2.47 2.47 0 0 0-4.9 0v26.17a2.45 2.45 0 0 0 1.43 2.56 2.47 2.47 0 0 0 3.47-2.56V8.47Zm13.58 9.32a2.47 2.47 0 1 0-4.95 0v11.94a2.47 2.47 0 0 0 4.95 0V17.8Zm13.73 6.77a2.47 2.47 0 0 0-4.9 0c.26 2.66-1.19 7.6 2.42 7.6 3.62 0 2.21-4.98 2.48-7.6Zm-3.05 38.3v.3h-.76v2.28h-.34v-2.28h-.91v-.3h2.01Zm0 0h.57l.77 2.09.72-2.1h.99v2.6h-.38v-2.3l-.8 2.14h-.34l-.77-2.13v2.13h-.38l-.38-2.44Z"/><path fill="#000" d="M526.61 6.2h133.41V66h-133.4V6.2Z"/><path fill="#fff" d="M554.3 6a15.16 15.16 0 0 1-.4 22.14c-5.28 5.29-10.83 10.3-16.32 15.44-.4.31-.83.59-1.28.82l.33.54h18.63c0-2.85 0-5.62.74-8.4a21 21 0 0 1 5.01-11.71 15.3 15.3 0 0 1 26.28 11.1V52.2a15.64 15.64 0 0 1-6.3 12.52L579.5 66h-14.97a17.81 17.81 0 0 1-7.71-11.44c-.41-1.83-1.36-1.97-2.78-1.97h-26.55V41.9c4.13-3.86 8.26-7.65 12.33-11.58 2.9-2.84 5.82-5.69 8.46-8.73a6.3 6.3 0 0 0 .95-7.52 6.77 6.77 0 0 0-7.25-3.39 6.77 6.77 0 0 0-6.1 4.4l-.87 2.24-7.52-.81v-4.95L531.55 6h22.76Zm8.34 37.79c.95 3.93 1.56 7.85 2.84 11.58a6.77 6.77 0 0 0 6.77 4.6 7.11 7.11 0 0 0 6.78-4.87 26.2 26.2 0 0 0 1.9-13.55 35.9 35.9 0 0 0-2.1-9.61 8.6 8.6 0 0 0-4-4.2 6.78 6.78 0 0 0-9.35 4.26 110.44 110.44 0 0 0-2.84 12v-.21Zm56.95-13.82c1.9.34 4.06-1.28 5.15 1.5 4.53-2.31 7.92-2.31 10.02 0a8.06 8.06 0 0 1 0 9.13c-1.9 2.65-5.08 2.92-10.63.82v4.2c0 1.35-.75 1.9-2.03 1.69-1.29-.2-2.92.74-2.92-1.56.41-5.15.41-10.22.41-15.78Zm4.88 6.77a3.4 3.4 0 0 0 4.77 3.51 3.45 3.45 0 0 0 2.07-3.44 3.6 3.6 0 0 0-3.32-4 3.45 3.45 0 0 0-3.52 3.73v.2Zm18.49 4.68v5.75h-4.68v-17.2c1.76 0 3.86-1.28 5.01 1.5 4.34-2.45 7.72-2.38 9.96 0a7.99 7.99 0 0 1 .4 8.93c-2.03 2.85-4.94 3.18-10.7 1.02Zm6.77-4.81c0-2.5-1.29-4.06-3.46-4-2.16.07-3.31 1.56-3.31 3.93s1.21 3.66 3.31 3.73a3.18 3.18 0 0 0 3.46-3.66ZM602.8 33.7a3.32 3.32 0 0 1 3.04-3.39c2.7-.3 5.43-.3 8.13 0a3.79 3.79 0 0 1 3.32 4.34v8.33l-5.69-.82c-1.76.41-3.55.68-5.35.82-2.84 0-4.27-1.3-4.33-3.66a4.17 4.17 0 0 1 2.45-4.03 4.2 4.2 0 0 1 1.61-.37h6.37a2.43 2.43 0 0 0-2.98-2.6c-.5.1-.95.38-1.3.77-1.48 1.22-3.24.6-5.27.6Zm9.68 3.18a40.6 40.6 0 0 0-4.54.68c-.4 0-.8.74-.88 1.15a1.7 1.7 0 0 0 1.02 1.15c1.7 1.02 3.93 0 4.4-2.98Zm-12.53-6.84v11.51c0 .48-1.83.88-2.84 1.09-1.02.2-1.97 0-1.97-1.36V31.26c0-.4.75-1.15 1.16-1.22 1.21-.06 2.44-.06 3.65 0Zm-2.37-1.49a3.45 3.45 0 0 1-3.72-3.52 3.66 3.66 0 0 1 3.45-3.66 3.86 3.86 0 0 1 3.8 3.6 3.73 3.73 0 0 1-3.53 3.58Z"/><path fill="#000" d="M855.06 51.12c-1.14-.14-1.85-.6-2.33-1.54-.37-.72-.4-1-.45-3.09l-.05-2.28-.67-.05-.68-.04-.05-.8c-.06-.92.12-1.13.9-1.13h.6l.08-1.2.08-1.21h2.57v2.4h1.45c.8 0 1.54.07 1.65.14.1.08.2.41.2.75 0 1.11-.03 1.13-1.7 1.13h-1.52v2c0 2.42.13 2.66 1.43 2.66.45 0 .85-.07.9-.16.23-.37.55-.12.89.72.19.48.32.98.27 1.1-.08.22-2.07.78-2.55.73l-1.02-.13Zm34.32-.17c-1.7-.58-2.73-2.22-2.73-4.34 0-1.32.39-2.41 1.13-3.27.75-.85 1.7-1.23 3.08-1.23 1.1 0 1.82.25 2.37.87.51.54.6.53.72-.15.11-.56.11-.56.98-.58.48-.01.98-.03 1.1-.05.14-.01.2.8.27 3.36l.08 3.36.4.1c.37.08.4.16.4 1.04v.97l-.75.14c-1.11.21-1.98-.08-2.42-.8l-.33-.56-.5.54c-.85.93-2.22 1.14-3.8.6Zm3-2.27c.85-.51 1.02-.88 1.02-2.14 0-1.06-.01-1.12-.57-1.64-.5-.46-.68-.54-1.39-.54-.7 0-.87.06-1.35.54-.51.52-.55.61-.55 1.68 0 1.25.31 1.83 1.2 2.21.69.3 1 .28 1.63-.1Zm28.72 2.42a3.1 3.1 0 0 1-2.3-2.56c-.19-.98-.22-6.27-.03-6.27.07-.02.58-.03 1.16-.07 1.67-.08 1.6-.2 1.6 3.03 0 2.42.04 2.84.3 3.15.38.46 1.46.6 2 .25.78-.51.92-1.1.92-3.85v-2.51l1.05-.02c.58-.01 1.17-.03 1.33-.05.26-.01.27.3.32 4.42l.03 4.44-.98.11c-1.14.11-1.43-.03-1.43-.72 0-.55-.3-.61-.6-.13-.47.74-2.03 1.1-3.37.79Zm10.28-.15a3.42 3.42 0 0 1-2.2-2.04 6.12 6.12 0 0 1-.02-4.47 4.2 4.2 0 0 1 2.3-2.16 4.8 4.8 0 0 1 3.26.23l.79.4.04-2.44.05-2.46h2.74v6.46c0 3.55-.04 6.48-.08 6.52-.05.05-.55.1-1.11.13l-1.05.07-.16-.7-.18-.68-.46.48c-.53.54-1.66.98-2.5.96a5.6 5.6 0 0 1-1.42-.3Zm3.1-2.25c.29-.18.64-.5.79-.73.3-.48.33-2.09.03-2.62-.53-.96-2.06-1.31-2.9-.66-1.3 1.03-1.17 3.33.25 4.04.7.37 1.19.37 1.83-.03Zm13.63 2.4c-1.06-.22-1.6-.59-2.09-1.4-.42-.71-.45-.9-.53-3.1l-.08-2.32-.64-.08-.65-.08-.04-.92c-.05-1-.07-.98.88-.93l.51.01.05-1.25.05-1.25 1.32-.05 1.32-.05.04 1.25.05 1.26h1.45c.8 0 1.54.06 1.66.13.2.14.24.6.1 1.36l-.1.5-1.56.05-1.55.05-.04 1.7c-.05 2 .08 2.46.83 2.83.52.24.61.24 1.32 0 .43-.15.8-.23.84-.21.08.08.67 1.77.67 1.91 0 .45-2.59.85-3.8.6Zm-111.84-.35c-.13-.53-.11-11.58.03-11.8.18-.25 1.13-.4 2-.28l.77.11v12.33h-1.35c-1.26 0-1.35-.02-1.45-.36ZM841 46.7v-4.42l.69-.1c1.19-.17 1.43-.07 1.68.71l.25.71.41-.5c.8-.96 2.62-1.31 3.96-.77.8.34 1.16.66 1.59 1.46.3.6.34.89.34 3.94v3.3l-1.27.05c-.92.03-1.32-.02-1.4-.17-.08-.1-.15-1.44-.15-2.97V45.2l-.5-.41c-.7-.62-1.43-.57-2.2.12l-.6.55-.04 2.83-.05 2.83H841v-4.4Zm20.83 4.15a4.5 4.5 0 0 1-2.56-2.56 4.93 4.93 0 0 1 .8-4.72c.71-.84 1.49-1.24 2.84-1.46a3.37 3.37 0 0 1 2.17.14c.9.28 1.24.47 1.77 1.05a4.5 4.5 0 0 1 1.12 3.18l-.05.69-1.93.13c-1.06.06-2.4.08-3 .03-1-.08-1.1-.06-1.1.23 0 .5.73 1.22 1.42 1.43 1.06.32 1.8.24 2.59-.28.78-.53.96-.48 1.62.36.5.62.29.98-.84 1.54-.9.45-1.1.5-2.52.48-.88 0-1.88-.11-2.33-.24Zm3.6-5.2c0-.34-.48-1.13-.79-1.3a3.34 3.34 0 0 0-1.06-.15c-.64 0-.83.08-1.22.5-.26.27-.47.64-.47.8 0 .27.15.3 1.77.3 1.13 0 1.77-.06 1.77-.16Zm3.86 1.05v-4.43l.37-.08c.2-.07.69-.08 1.08-.05.67.05.7.08.93.76l.22.69.33-.5c.17-.3.53-.61.78-.74.45-.24 1.7-.32 2.33-.15l.36.1-.3 1.13c-.35 1.35-.44 1.47-1 1.27-.62-.25-1.48.06-1.92.67-.34.47-.37.74-.45 3.09l-.08 2.57-1.32.05-1.33.04V46.7Zm7.17 4.12c-.11-.36 0-8.38.11-8.49.05-.05.5-.13 1-.17 1.06-.12 1.36.1 1.36.96v.47l.63-.57c1.6-1.44 4.18-1.25 5.28.39l.44.67.05 3.52.05 3.52-1.33-.04-1.34-.05-.08-2.94-.08-2.96-.45-.39c-.79-.67-1.98-.38-2.57.63-.11.22-.23 1.33-.27 3l-.08 2.66-1.32.05c-1.18.03-1.32.01-1.4-.26Zm22.22-.71c-.02-.56-.04-3.52 0-6.59l.05-5.6h2.71v13.19h-2.7l-.06-1Zm7.5.85c-.04-.1.37-1.41.95-2.94.57-1.53 1.51-4.11 2.1-5.75a79.6 79.6 0 0 1 1.23-3.25c.13-.24.39-.29 1.66-.29h1.5l.28.7c.14.36.6 1.54.97 2.6 1.3 3.61 1.81 4.98 2.47 6.73.35.97.66 1.9.66 2.06 0 .26-.14.29-1.35.29h-1.33l-.5-1.32-.52-1.33-1.96.03c-1.1.01-2.1.03-2.25.05-.18 0-.37.33-.63 1.09-.19.6-.41 1.17-.51 1.28-.18.23-2.62.28-2.77.05Zm7.32-4.92c0-.46-1.34-4.24-1.46-4.16-.08.05-.15.18-.15.3s-.29 1.07-.64 2.11a64.8 64.8 0 0 0-.64 1.95c0 .03.65.05 1.44.05 1.18 0 1.45-.05 1.45-.25Zm26.64 4.97c-.18-.18-.13-8.24.03-8.57.13-.2.42-.27 1.45-.3l1.3-.05-.03 4.47-.05 4.47-1.29.05c-.72.01-1.35 0-1.41-.07Zm14.79-.22a3.9 3.9 0 0 1-2.32-2.05 5.26 5.26 0 0 1-.11-4.06c1.54-3.42 7.2-3.57 8.83-.24 1.14 2.33.32 5.1-1.84 6.22-.75.4-1.03.45-2.33.45a6.09 6.09 0 0 1-2.23-.32Zm3.13-2.1c.6-.44.93-1.2.93-2.11 0-1.42-1.06-2.51-2.25-2.3-1.3.24-1.83 1.03-1.73 2.62.06.98.11 1.07.69 1.59.75.64 1.6.72 2.36.2Zm5.07 2.31c-.07-.05-.12-2.05-.12-4.4 0-4.83-.1-4.5 1.29-4.5.84 0 1.13.25 1.13.96 0 .53.28.54.56.01.3-.6 1.04-1 1.91-1 1.45-.03 1.64.3 1.08 1.89-.23.62-.36.78-.6.75-1.3-.22-2.09.15-2.42 1.11-.12.32-.2 1.51-.2 2.92l-.01 2.37h-1.26c-.69 0-1.32-.05-1.36-.12Zm8.08-.1c-.75-.26-1.93-.9-1.93-1.05 0-.06.28-.43.61-.83l.63-.7.97.42c1.67.76 3.26.73 3.26-.03 0-.42-.6-.72-1.85-.98a7.88 7.88 0 0 1-1.74-.6c-2.18-1.18-1.72-4.2.74-4.88a8.5 8.5 0 0 1 1.88-.2c2.38-.02 4.04 1.3 3.64 2.87-.1.4-.15.42-1.27.37-1.14-.05-1.16-.05-1.24-.53-.1-.6-.7-.92-1.5-.82-.74.08-1.07.34-1.07.82 0 .51.5.77 2.09 1.1 1.67.36 2.49.76 2.9 1.44.68 1.1.17 2.76-1.05 3.39-.53.27-.97.34-2.58.37a9.81 9.81 0 0 1-2.49-.16Zm-30.95-10.34c-.83-.9-.36-2.44.83-2.73 1.22-.3 2.55.9 2.15 1.96-.34.89-.77 1.2-1.72 1.2-.72 0-.93-.07-1.25-.43Zm-100.82-7.58-.7-.05-.03-4.92-.05-4.92-1.78.04-1.8.03-.1-.42a1.1 1.1 0 0 1 .07-.72c.16-.3.35-.32 4.68-.32h4.5l-.05.69-.05.67-1.77.08-1.77.08-.05 4.84c-.03 3.68-.07 4.87-.24 4.92-.1.02-.5.03-.86 0Zm6.41 0-.68-.05.04-5.96.05-5.96h.6l.76.03c.1.01.16.98.16 2.54v2.52l.45-.43a3.5 3.5 0 0 1 4.6-.08c.88.72 1.08 1.62 1.03 4.72l-.05 2.56h-1.6l-.09-2.82c-.04-1.7-.16-2.94-.27-3.13-.3-.55-.92-.77-1.83-.7-.71.09-.93.19-1.37.67-.72.77-.87 1.46-.87 3.92 0 1.16-.04 2.14-.11 2.17-.08.03-.43.03-.82 0Zm11.08-.05c-1.58-.39-2.53-1.43-2.91-3.2a3.18 3.18 0 0 1 .05-1.81c.5-1.88 1.75-2.96 3.63-3.12 2.44-.23 4.18 1.28 4.2 3.61v1h-6.12v.4c0 .53.86 1.47 1.57 1.7.3.1.93.18 1.36.18.64 0 .9-.08 1.43-.5.68-.56 1.08-.5 1.45.17.56 1.06-2.5 2.08-4.66 1.57Zm3.3-4.87c.12-.32-.33-1.12-.86-1.54-.37-.3-.61-.34-1.38-.3-.8.07-1.01.15-1.48.64-.3.3-.6.73-.64 1l-.12.43h2.19c1.74 0 2.22-.05 2.28-.23Zm8.17 4.89-.64-.08V21.78l.85-.05.84-.05v5.61c0 4.36-.05 5.64-.2 5.69-.1.03-.5.02-.85-.03Zm3.5.05-.52-.07.03-3.97.05-3.97.61-.05c.55-.05.6-.01.6.36 0 .86.16.94.8.35a3.43 3.43 0 0 1 3.55-.66c.84.3 1.32.72 1.67 1.46.32.68.47 6.05.18 6.4-.11.14-.4.2-.85.14l-.7-.08v-5.79l-.5-.46c-.92-.87-2.61-.51-3.35.7-.26.41-.32.83-.34 1.97-.01.8-.06 1.95-.13 2.57-.1 1.2-.11 1.22-1.1 1.1Zm10.41-.12c-.93-.2-1.83-.6-2.02-.91-.16-.28.83-1.2 1.09-1 .47.35 1.65.7 2.47.7 1.05.02 1.68-.31 1.68-.9 0-.48-.5-.76-1.84-1.04-2.04-.42-2.97-1.1-3.1-2.28-.1-.93.34-1.7 1.25-2.22a4.96 4.96 0 0 1 3.93-.05c.98.52 1.27.92 1.27 1.79l.01.75-.75.05c-.74.05-.77.03-.77-.37 0-.69-.66-1.2-1.53-1.2-1.11 0-1.69.37-1.69 1.06 0 .53.45.8 2.08 1.2 2.2.53 2.9 1.13 2.9 2.4 0 1-.77 1.81-1.97 2.07-.97.23-1.88.2-3-.05Zm8.73.03c-1.37-.3-1.82-1.43-1.82-4.58v-2.12l-.6-.05c-.57-.04-.6-.08-.65-.64l-.05-.6h1.3v-1.13c0-1.24.02-1.27 1.05-1.34l.64-.03.08 1.2.08 1.21 1.3.02c1.58.01 1.84.1 1.84.58 0 .67-.2.75-1.7.8l-1.44.05-.05 2.04c-.06 2.96.25 3.5 1.85 3.3.34-.04.74-.12.89-.18.22-.1.34 0 .56.45.32.69.2.85-.7 1.07a5.9 5.9 0 0 1-2.58-.05Zm5.22.09-.6-.07v-4c0-2.2.04-4.04.12-4.07.07-.03.45-.03.89.02l.75.06v3.9c0 2.8-.05 3.93-.19 4.07-.11.12-.23.18-.27.17a10.8 10.8 0 0 0-.7-.09Zm5.34-.07c-1.36-.42-1.77-1.45-1.77-4.6V26.2h-1.28v-1.3h1.28v-1.1c0-1.26.15-1.47 1-1.47h.6l.04 1.25.05 1.24 1.66.05 1.65.05-.05.6-.04.59-1.61.08-1.6.08-.06 1.76c-.05 1.97.16 3.03.68 3.38.38.29 1.59.32 2.06.06.29-.14.38-.12.56.12.3.41.26 1.12-.06 1.27a8.7 8.7 0 0 1-3.1.06Zm6.61.02c-.8-.2-1.34-.65-1.79-1.55-.37-.72-.4-1-.44-3.26-.07-3.2-.07-3.23.85-3.23h.72v2.27c0 3.45.32 4.29 1.69 4.45.88.1 1.57-.2 2.09-.9.29-.39.34-.76.4-3.09l.08-2.65.85-.05.84-.05v3.91c0 4.15-.03 4.3-.76 4.3-.4 0-.69-.41-.69-.97 0-.36-.03-.34-.53.14-.8.77-1.91 1-3.31.68Zm9.23-.08-.68-.24-.4-.52c-.34-.48-.37-.74-.45-3.18l-.08-2.65-.64-.08c-.61-.08-.65-.12-.65-.65s.04-.56.57-.6c.7-.09.8-.23.8-1.37 0-.84.03-.94.42-1.08.22-.1.58-.16.79-.16.37 0 .38.05.43 1.25l.05 1.24 1.57.05 1.58.05-.05.6-.05.59-1.52.08-1.53.08-.05 2.04c-.06 2.96.24 3.5 1.85 3.3.34-.04.74-.12.88-.18.23-.1.34 0 .57.45.24.51.24.6.03.82-.37.37-2.62.48-3.44.16Zm7.04.09a4.1 4.1 0 0 1-2.96-4.85c.27-1.33.95-2.3 1.98-2.83a5.14 5.14 0 0 1 4.1-.1c1.19.65 1.81 1.76 1.81 3.28v.95h-3.05c-3.04 0-3.06 0-3.06.35 0 .4.57 1.29 1 1.56.5.3 1.79.49 2.45.34a2.8 2.8 0 0 0 1.07-.58c.44-.42.47-.42.87-.16.23.16.47.39.51.52.12.3-.35.82-1.14 1.22-.7.35-2.71.53-3.58.3Zm3.25-4.83c.14-.25-.34-1.21-.8-1.58-.34-.27-.67-.35-1.34-.35-.82 0-.92.04-1.58.7-.4.39-.7.86-.7 1.05 0 .32.06.34 2.15.34 1.2 0 2.2-.07 2.27-.16Zm9.69 4.83c-2.65-.56-3.83-3.97-2.24-6.46 1.21-1.91 4.57-2.3 6.52-.77 1.07.85 1.59 2.65 1.23 4.36a4.3 4.3 0 0 1-1.96 2.63c-.54.27-2.68.44-3.55.24Zm2.78-1.67c1.56-1.03 1.54-3.61-.03-4.7-.55-.38-.74-.43-1.6-.36-.83.06-1.04.14-1.52.6-1.32 1.28-1.08 3.8.4 4.54.82.42 2.08.37 2.75-.08Zm5.34 1.71-.53-.07-.03-3.33-.05-3.32-.61-.05c-.68-.07-.86-.3-.7-.92.09-.33.2-.4.66-.4.63 0 .66-.06.78-1.56.13-1.6 1.2-2.46 3.12-2.46 1.3 0 1.75.23 1.6.82-.2.74-.35.85-.91.65-.7-.23-1.7.03-2 .51-.34.53-.46 1.54-.24 1.82.13.16.55.22 1.43.22 1.35 0 1.47.08 1.32.93-.06.34-.14.36-1.41.36h-1.36l-.01.6c-.02.33-.03 1.8-.05 3.25-.01 2.46-.1 3.1-.38 3.03l-.63-.09Zm-49.58-9.7a1.55 1.55 0 0 1-.47-.62c-.16-.39-.14-.53.08-.87.78-1.19 2.6-.26 1.93 1-.32.64-.96.83-1.54.5Z"/><path fill="#7B7B7B" d="M780.87 62.24a48.1 48.1 0 0 1-7.88-3.93 26.27 26.27 0 0 1-5.37-5.02c-1.65-2.12-1.86-2.8-1-3.37.4-.24.49-.21 2.87.93a87.69 87.69 0 0 0 16.78 5.79l2.88.7c.68.18.85.76.47 1.56-.37.77-2.29 2.72-3.44 3.5-.82.57-.95.6-2.1.58-1.02 0-1.5-.1-3.2-.74Zm18.49-6.73a74.35 74.35 0 0 1-19.55-3.82c-3.2-1.1-7.46-2.78-10.03-3.99-3.36-1.58-9.49-5.32-10.08-6.17-.85-1.2-1.27-4.36-1.13-8.47.1-2.8.21-3.14 1.06-3.49.63-.26 1.1-.08 2.51.98a58.7 58.7 0 0 0 7.56 4.73 69.62 69.62 0 0 0 16.1 6.67l2.7.74c1.45.41 5.75 1.31 8.24 1.73 3.4.58 6.77.89 10.74 1.01 3.5.1 4.06.21 4.42.84.08.18.16.45.16.61 0 .77-2.32 4.66-4.16 7-1.2 1.53-1.52 1.65-4.84 1.66-1.55.02-3.22 0-3.7-.03Zm6.52-18.21c-1.28-.1-1.46-.14-1.8-.54-.51-.6-.5-1.18.08-4l.83-4.15c.17-1.02.41-1.93.5-2.06.5-.56.99-.63 5.85-.74 2.65-.05 5.48-.16 6.26-.26 5.53-.58 6.13-.56 6.52.18.38.7.25 1.48-1.18 6.67-.82 2.94-.9 3.13-1.57 3.6-1.16.84-10.95 1.66-15.49 1.3Zm-1.86-14.56a52.74 52.74 0 0 1-3.38-.5c-.83-.16-1.59-.27-1.65-.25-.08.01-.63-.12-1.24-.3-.61-.17-1.5-.4-1.98-.5a62.44 62.44 0 0 1-6.46-1.9c-3.7-1.3-8.12-3.76-8.58-4.8a2 2 0 0 1 .08-1.76c.37-.53 1.12-.79 3.49-1.2 3.93-.65 9.51-.44 13.29.52 5.14 1.32 10.51 4.18 13.95 7.46 1.29 1.22 1.44 2.01.52 2.99l-.45.48-2.88-.01a62.5 62.5 0 0 1-4.71-.23Z"/><path fill="#BBB" d="M789.75 64.83c-.62-.43-.46-.95.73-2.38 1.16-1.36 2.77-3.66 2.77-3.93 0-.25.75-.71.95-.6.08.05.17.02.2-.08.06-.13.52-.13 1.66-.03a52 52 0 0 0 8.2.05c2.14-.28 4.33-.28 4.65-.02.4.34.32 1.03-.18 1.5a31.75 31.75 0 0 1-6.54 3.32 33.22 33.22 0 0 1-8.46 2.19c-2.6.3-3.53.3-3.99-.02Zm6.07-23.63a20.1 20.1 0 0 0-1.85-.4c-1.4-.2-2.13-.36-4.74-1.07l-3.38-.92c-.57-.14-1.15-.32-1.28-.37a56 56 0 0 1-4.74-1.56l-2.03-.86a91.6 91.6 0 0 1-7.22-3.54l-1.6-.93c-3.67-2.12-10.17-7.56-10.94-9.13-.4-.84-.35-1.43.28-3.21 1.1-3.07 4.46-8.55 5.8-9.44.48-.32 1.41-.34 1.8-.01l.75.56c.3.2 1.08.8 1.76 1.33.67.53 1.33 1.05 1.48 1.13l1.64 1.06c.75.48 2.02 1.27 2.81 1.75.8.48 1.48.93 1.5 1 .03.06.12.1.2.03.08-.05.15 0 .15.1s.06.14.14.1c.08-.07.18-.04.21.04a20.2 20.2 0 0 0 3.48 1.81c.14.04.36.15.48.26.13.11.29.16.37.11.08-.06.14-.03.14.05 0 .2.79.55.98.44.08-.07.15-.02.15.1 0 .1.05.15.1.09.06-.05.2.02.33.14.15.13.32.21.43.18.1-.03.28.05.4.16.12.13.3.2.4.16.1-.03.28.05.41.16.11.13.32.2.43.15.13-.05.23-.02.23.06s.1.11.23.07c.1-.05.32.03.46.16.13.13.27.2.32.16.05-.05.26 0 .47.11.2.11.51.2.67.23.18.01.36.1.39.22.03.1.13.14.2.08.19-.1 3.69 1.05 3.69 1.2 0 .07.26.12.58.13.32.02.64.12.72.23.07.11.18.16.24.1.07-.07.21-.04.34.06.11.1.21.13.21.06 0-.06.1-.03.23.07.12.11.32.18.45.16.37-.08 1.41.2 1.41.35 0 .1.14.13.32.07.2-.07.32-.03.32.08 0 .13.16.16.4.13.23-.05.4-.02.4.06s.15.1.33.05c.2-.07.32-.03.32.08s.13.16.32.11c.18-.05.36-.01.4.07.05.06.2.1.33.03.12-.05.24 0 .24.11 0 .1.16.16.37.15.19-.02.48.01.64.1.14.06.37.07.5.02.13-.04.25-.04.29.02.03.06.32.24.64.39.42.19.64.41.7.72.38 1.46-2.07 12.74-3.13 14.45-.45.74-1.43.88-3.07.43Z"/><path stroke="#000" stroke-miterlimit="10" stroke-width=".43" d="M1124.08 49.52a8.08 8.08 0 1 1-5.56 11.5 7.57 7.57 0 0 1 0-5.94m-30.95-47.5a7.94 7.94 0 0 1 3.16 9.35 7.93 7.93 0 0 1-10.23 5.05 8.09 8.09 0 0 1-5.06-10.23 8.25 8.25 0 0 1 3.92-4.55l8.21.38Zm9.48 8.59a8.05 8.05 0 0 1 4.42-8.84 8.1 8.1 0 0 1 12.52 6.49 8.16 8.16 0 0 1-2.54 6.15 8 8 0 0 1-2.91 1.76 7.6 7.6 0 0 1-5.94 0l-5.55-5.56Zm35.62 2.78a8.2 8.2 0 0 1-9.35 3.28 8.19 8.19 0 0 1-5.52-7.15 8.2 8.2 0 0 1 4.49-7.83 8.17 8.17 0 0 1 6.21-.43 8.21 8.21 0 0 1 4.55 3.92l-.38 8.2Zm-47.37 26.02a8.32 8.32 0 0 1-8.97-4.8 8.2 8.2 0 0 1 9.92-11.28 8 8 0 0 1 4.61 4.08 7.57 7.57 0 0 1 0 5.94l-5.56 6.06Zm14.9-1.13a8.1 8.1 0 0 1-3.28-9.35 8.47 8.47 0 0 1 10.8-5.12 8.38 8.38 0 0 1 4.8 4.34 8.64 8.64 0 0 1 .32 6.46 7.85 7.85 0 0 1-3.92 4.55l-8.72-.88Zm33.61-8.6a8.1 8.1 0 0 1-11 9.04 8.12 8.12 0 0 1-4.99-6.88 8.01 8.01 0 0 1 4.49-7.71 7.83 7.83 0 0 1 6.07 0l5.43 5.56Zm-58.24 24.13a8 8 0 0 1 3.38-7.59 8.08 8.08 0 1 1 8.62 13.66 8.45 8.45 0 0 1-6.06 0l-5.94-6.07Zm37.27-3.53a8 8 0 0 1-4.26 8.65 7.98 7.98 0 0 1-11.49-6.5 8 8 0 0 1 10.32-8.23l5.43 6.08Z"/><path fill="#000" d="M1155.41 17.05h7.2V56.6h-7.2V17.05Zm63.8-2.14h.88l20.59 41.43h-9.6l-2.78-7.83h-15.79l-2.9 7.83h-9.35l18.95-41.43Zm-4.3 26.9h11.62l-6.06-14.27-5.56 14.27Zm81.48-26.9h.89L1318 56.34h-9.73l-2.78-7.83h-15.79l-2.91 7.83h-9.72l19.32-41.43Zm-4.16 26.9h10.86l-5.31-14.27-5.55 14.27Zm-103.6-7.58-5.3-1.64a14.64 14.64 0 0 1-3.92-1.51 3.77 3.77 0 0 1-1.16-1.39 3.73 3.73 0 0 1-.35-1.77 4.58 4.58 0 0 1 1.51-3.67c1.1-.9 2.5-1.34 3.92-1.26a7.08 7.08 0 0 1 3.79 1.01 5.03 5.03 0 0 1 2.15 3.28.76.76 0 0 0 .99.26.8.8 0 0 0 .27-.25l3.41-5.3a10.02 10.02 0 0 0-1.89-2.66 11.64 11.64 0 0 0-8.22-3.29 10.35 10.35 0 0 0-8.71 3.54 12.58 12.58 0 0 0-3.03 8.72 11.16 11.16 0 0 0 3.03 8.59c2 1.37 4.22 2.4 6.57 3.03l3.28.88c1.51.33 2.93.97 4.17 1.9a3.53 3.53 0 0 1 1.39 3.03 4.82 4.82 0 0 1-2.78 4.55 9.58 9.58 0 0 1-3.66 0 5.72 5.72 0 0 1-5.31-2.4l-.76-1.64h-.63l-3.66 5.68c.35.6.77 1.15 1.26 1.64a12.65 12.65 0 0 0 9.35 3.54 11.24 11.24 0 0 0 8.97-3.54 12.66 12.66 0 0 0 3.16-8.97c.19-2.93-.76-5.83-2.66-8.08a13.25 13.25 0 0 0-5.18-2.28Zm80.73 13.27a9.13 9.13 0 0 1-7.45 3.03 10.1 10.1 0 0 1-7.84-3.41 15.04 15.04 0 0 1-3.15-10.23c-.26-3.78.81-7.54 3.03-10.61a9.3 9.3 0 0 1 7.96-3.8 10.1 10.1 0 0 1 7.58 2.66l1.13 1.64a1.01 1.01 0 0 0 1.9 0l4.17-6.44a20.98 20.98 0 0 0-15.16-5.05 19.99 19.99 0 0 0-14.03 5.05 20.99 20.99 0 0 0-6.31 16.3 21.41 21.41 0 0 0 5.56 16.17 20.5 20.5 0 0 0 15.28 5.68c4.57.15 9.05-1.33 12.64-4.17.89-.7 1.69-1.5 2.4-2.4l-7.21-4.55-.5.13Z"/><path stroke="#000" stroke-miterlimit="10" stroke-width=".43" d="M38 289a30 30 0 1 0 0-60 30 30 0 0 0 0 60Z"/><path stroke="#000" stroke-miterlimit="10" stroke-width="1.74" d="M38 284.63a25.63 25.63 0 1 0 0-51.26 25.63 25.63 0 0 0 0 51.26Z"/><path fill="#000" d="M46.54 269.52H43.2v-15.19l-3.57 15.19h-3.57l-3.5-15.19v15.19H29.2v-19.7h5.16c.27 0 .35 0 .42.33l2.5 10.45.58 2.31c.02.11.02.23 0 .34l3.26-13.4h5.51l-.08 19.67Zm-21.15-.04h-3.8v-19.67h3.8v19.67Zm28.45.04h-3.8v-19.67h3.8v19.67Z"/><path fill="#6E6E6E" d="M443.3 256.13v-4.9h-6.13v-7.67l-5.9 1.84v5.82h-9.35v-3.3c0-4.13 3.53-5.59 6.75-3.82v-5.22a9.43 9.43 0 0 0-12.88 8.74v3.6h-4.29v4.9h4.3v20.85h6.12v-20.84h9.12c.54 9.65-3.6 25.59 12.26 20.53v-4.98c-2.9 2-6.59.7-6.13-3.37v-12.18h6.13Zm-45.5 16.77c-9.58.53-9.5-17.47 0-17.01 9.5.46 9.34 17.62 0 17Zm0-22c-17.7-1.14-18.47 27.74-.62 26.98 17.32 1.07 18.32-27.82.62-26.97Zm-23.6 0c-7.67-.84-13.42 7.67-7.67 13.5a52.06 52.06 0 0 0 6.82 3.52c3.14 1.68 2 5.51-2.22 5.13-2.55-.1-5.02-.98-7.05-2.53v5.9c8.05 4.3 22-.92 15.33-11.03-1-1.92-7.2-3.83-8.74-5.14-3.45-5.74 6.2-5.2 8.89-2.6v-5.67a16.77 16.77 0 0 0-5.9-1.07h.54Zm-25.22 22c-9.65.53-9.57-17.47 0-17.01 9.58.46 9.05 17 0 17Zm0-22c-17.7-1.14-18.46 27.74-.6 26.98 17.3 1.07 18.3-27.82.6-26.97ZM326 255.98v-4.44h-6.13v25.75H326v-13.5c-.46-5.28 4.29-9.65 8.96-6.5v-6.13a6.9 6.9 0 0 0-8.89 4.52l-.07.3Zm-16.94-5.05c-22.99.76-15.32 35.78 6.28 25.2v-5.51c-18.54 11.57-18.23-23.76 0-12.5v-5.9a15.3 15.3 0 0 0-6.28-1.3Zm-18.08.6h-6.06v25.76h6.06v-26.06.3Zm-3.3-11.33a3.53 3.53 0 1 0 0 7.05 3.53 3.53 0 0 0 0-7.05Zm-15.32 9.12v27.66h6.2v-35.94h-8.12l-10.88 26.67-10.2-26.67h-9.34v35.94h5.82V249.3l11.19 27.66h4.37l10.96-27.66Z"/><path fill="#7B7B7B" d="M190.5 257.58H162V229h28.5v28.58Z"/><path fill="#A3A3A3" d="M222.08 257.58h-28.59V229h28.59v28.58Z"/><path fill="gray" d="M190.5 289H162v-28.5h28.5V289Z"/><path fill="#BBB" d="M222.08 289h-28.59v-28.5h28.59V289Z"/><path fill="#000" d="M537.3 258.95a29.96 29.96 0 1 1 59.92.02 29.96 29.96 0 0 1-59.92-.02Zm29.88 25.11a25.1 25.1 0 1 0-25.1-25.1 25.1 25.1 0 0 0 25.1 25.27v-.17Zm61.35-38.83h3.1v19.67c0 2.09 1 3.26 3.09 3.43 1.55.2 3.13.2 4.68 0a2.68 2.68 0 0 0 2.35-2.34c.08-.7.08-1.4 0-2.1v-18.66h3.01v18.75c0 1.59 0 3.26 1.76 3.93 2.18.84 4.6.84 6.78 0a3.09 3.09 0 0 0 1.75-3.18v-19.5h3.02v19.33c0 3.85-1.43 5.7-5.2 6.2-1.74.2-3.51.2-5.26 0a5.94 5.94 0 0 1-4.44-2.6 10.55 10.55 0 0 1-10.8 2.43 4.68 4.68 0 0 1-4.18-5.02V246.4l.33-1.17Zm54.9 25.6h-3.02v-9.36H666.7v9.37h-3.1v-19.25a5.46 5.46 0 0 1 5.36-6.28c3.23-.58 6.55-.58 9.79 0 3.1.67 4.6 2.1 4.6 5.2.17 6.77.09 13.47.09 20.33Zm-3.1-12.13v-7.86a2.93 2.93 0 0 0-2.51-2.93 18.42 18.42 0 0 0-8.37 0 2.84 2.84 0 0 0-2.43 2.84v7.95h13.3Zm8.03 3.27h2.93v2.84a3.26 3.26 0 0 0 2.85 3.27c2.57.5 5.21.5 7.78 0a3.18 3.18 0 0 0 2.93-3.35c0-3.77-.5-4.69-4.35-5.27l-7.12-1.17a5.44 5.44 0 0 1-4.76-3.1 9.78 9.78 0 0 1 0-7.53 5.1 5.1 0 0 1 2.67-2.1 22.67 22.67 0 0 1 12.72 0 4.77 4.77 0 0 1 3.6 5.2v1.75h-3.01v-1.84a2.93 2.93 0 0 0-2.34-2.93 17.8 17.8 0 0 0-8.88 0 2.84 2.84 0 0 0-2.25 2.68c-.5 4.52.66 5.1 4.01 5.52l7.45 1.17a5.44 5.44 0 0 1 5.19 6.2c.04.75.04 1.5 0 2.26a4.77 4.77 0 0 1-3.77 4.68c-3.9 1-7.98 1-11.88 0a4.77 4.77 0 0 1-4.02-4.85c.17-.84.25-1.92.25-3.43Zm-65.02-3.85v8.37a4.1 4.1 0 0 1-3.27 4.01 22.52 22.52 0 0 1-13.3 0 4.1 4.1 0 0 1-3.1-4.01v-15.9a4.6 4.6 0 0 1 3.1-3.94 19.5 19.5 0 0 1 7.61-.92c1.7.04 3.39.3 5.02.76a4.85 4.85 0 0 1 4.1 5.27v7.11l-.16-.75Zm-2.93 0v-6.7c0-2.17-.92-3.43-3.02-3.6a51.28 51.28 0 0 0-8.37 0 2.93 2.93 0 0 0-2.67 3.02 45.23 45.23 0 0 0 0 4.94v8.36c0 2.6.92 3.85 3.43 4.1 2.37.21 4.75.21 7.11 0 2.26 0 3.18-1.5 3.27-3.76l.25-6.36Zm92.73-12.89h13.72a5.86 5.86 0 0 1 6.03 6.78v4.6a5.85 5.85 0 0 1-5.78 6.45H716.4v7.28h-3.01l-.25-25.11Zm3.1 15.73h9.87a3.43 3.43 0 0 0 3.51-3.43c.13-1.7.13-3.4 0-5.1a4.2 4.2 0 0 0-4.6-4.69h-8.95l.16 13.22Zm20.58 14.4a4.18 4.18 0 0 1-4.1 4.27 4.27 4.27 0 0 1-4.02-4.36 4.19 4.19 0 0 1 4.1-4.26 4.18 4.18 0 0 1 4.02 4.35Zm-.59 0a3.6 3.6 0 0 0-3.43-3.68 3.51 3.51 0 0 0-3.43 3.6 3.6 3.6 0 0 0 3.43 3.68 3.6 3.6 0 0 0 3.43-3.6Z"/><path fill="#000" d="M555.13 270.34c1-1.93 1.92-3.85 2.93-5.7a29.8 29.8 0 0 1 7.86-9.53 5.02 5.02 0 0 1 4.77-1.6c0-1.17-.58-1.5-1.75-1.25-1.2.08-2.4.08-3.6 0a9.05 9.05 0 0 0-4.6 1.42 6.03 6.03 0 0 1-4.52 0 21.79 21.79 0 0 1-9.71-4.6 1.92 1.92 0 0 1-.59-.59v-.5a83.7 83.7 0 0 1 24.6 1.68c-1.58-1-3.34-1.76-4.1-3.85l3.02 2.6-1.09-4.28c1.34 1.17.59 3.43 2.43 3.69v-4.52c0 2.59-.5 5.35 3.43 4.6a4.3 4.3 0 0 1 0-1.09c0-1.09 1.34-3.35 2.34-3.43.6.11 1.17.34 1.68.67 1.08-1.26 0-2.6-.59-4.1 1.6 1 1.84 2.42.84 4.69l1.09 1c.42.36.79.78 1.08 1.25a3.27 3.27 0 0 1 4.6.5c-1.33-.66-2.67-1.42-3.84-.41 0 .75.58 1.59 0 2-.92 1.93-2.1 2.35-4.44 1.93.08.36.08.73 0 1.09 0 .84 0 1.59.84 1.92l2 .42h1.6a5.28 5.28 0 0 1-4.6 0c0 2.18 2.5 1.5 3.84 2.76l-4.18-.92 1.09 1.43c0 .5.92.83 1.34 1.34a6.96 6.96 0 0 1-3.77-3.94 83.7 83.7 0 0 1 1.59 25.1 7.93 7.93 0 0 1-1.17-1 22.86 22.86 0 0 1-4.6-9.87 6.97 6.97 0 0 1 .92-5.27 6 6 0 0 0 .75-2.43c0-1.93 0-3.93.59-5.94l-1.43-.59c.59 2.43-.92 3.94-2.26 5.6a35.24 35.24 0 0 1-14.4 9.72Zm176 2.43h1.67c1.43 0 1.93 1 1.34 2.34a.5.5 0 0 0 0 .5c-.04.67-.04 1.34 0 2-.84 0-1.09 0-1-.58.08-.58-.59-1.25-1.5-1.08.04.38.04.78 0 1.17v.67c0 .66-.51 0-.51-.59v-4.44Zm1 .5v2l1.42-.91-1.42-1.1Z"/><path fill="#838383" d="M878.57 284.52a4.43 4.43 0 0 1-4.48 4.48h-4.48v-32.93c.51-8.75 3.7-15.73 17.02-16.22 5.74.06 9.94 2.36 12.4 5.23 2.64 3.41 3.76 7.69 3.76 13.09 0 5.54-1.32 10.04-3.96 13.49a12.43 12.43 0 0 1-10.16 5.02c-6.2 0-9.21-2.58-10.05-3.07-.05.32-.05 10.91-.05 10.91Zm15.07-25.95c0-3.42-.6-10.7-7.67-10.7-6.69 0-7.4 7.08-7.4 10.7 0 9.16 5.2 10.3 7.66 10.3 6.4.03 7.4-6.77 7.4-10.3Zm-57.56 14.27c2.95 2.52 7.43 3.79 13.4 3.79 5.77 0 10.25-1.2 13.41-3.68 3.16-2.61 4.74-6.31 4.74-11.05 0-2.18-.4-4.2-1.44-6.06a10.49 10.49 0 0 0-4.42-4.22 19.3 19.3 0 0 0-3.44-1.32c-1.61-.49-9.65-2.67-10.45-2.9-4.45-1.09-7.3-2.55-7.32-5.22.23-5.11 5-5.52 7.63-5.52 2.7 0 4.85.55 6.43 1.7 2.82 2.18 2.5 5 2.5 5h8.93c-.17-4.37-1.75-7.93-4.74-10.66-2.84-2.5-6.97-3.7-12.34-3.7-5.69 0-10.05 1.18-13.04 3.53-2.98 2.47-4.47 5.86-4.47 10.16 0 5.52 2.6 8.76 4.99 10.25 1.44.86 4.7 2.18 8.93 3.02l3.56.77c6.17 1.5 9.7 3.39 9.59 6.46-.06 1.84-.7 3.25-2.1 4.2-1.26.85-3.44 1.43-6.17 1.43-3.07 0-5.48-.6-7.24-1.84-1.66-1.03-2.66-2.87-3.01-5.51h-9.19c.26 5.05 2.01 8.81 5.26 11.37Zm84.86-25.24c5.65-.06 6.51 4.74 6.69 7.1h-13.4s-.12-6.98 6.7-7.1Zm.4 21.19c-2.27-.12-6.6-.55-7-8.15h22.79v-2.73c-.14-5.71-1.52-10-4.2-13.18-2.86-3.16-6.97-4.73-12.22-4.73-5 0-8.9 1.6-11.71 4.85-2.7 3.16-4.08 7.55-4.08 13.15 0 5.85 1.38 10.39 4.2 13.55 2.77 3.24 6.68 4.85 11.7 4.85 4.1 0 7.55-1 10.25-3.02 2.7-1.92 4.57-4.73 5.54-8.4h-7.92c-1.18 3.3-4.13 3.98-7.35 3.8Zm152.81 7.03h-9.13v-22.5c0-2.59-1.06-6.09-6.2-6.09-5.05 0-6.08 3.96-6.08 6.09v22.47h-9.25v-20.64c0-5.97 1.75-9.64 4.68-12.03 2.87-2.35 6.58-3.13 10.37-3.3 2.01 0 3.99.2 5.94.66 1.92.43 3.7 1.32 5.28 2.64a11.96 11.96 0 0 1 4.68-2.44 22.6 22.6 0 0 1 5.6-.83c11.28-.06 15.82 5.11 16.19 6.75v29.2h-5.22c-1.33 0-4.48-.9-4.48-4.48v-18c0-2.53-.86-6.09-6.2-6.09-5.29 0-6.21 3.96-6.21 6.09v22.5h.03Zm-111.87-10.85h8.64s-2.33 11.43-15.42 11.43c-13.06 0-16.27-10.48-16.27-17.37 0-6.9 1.2-18.66 15.76-19.06 13.43-.2 15.64 11.42 15.64 11.42h-9.21s-.9-3.93-6.38-3.79c-5.48.12-6.91 5.26-6.91 10.17 0 4.88 1.2 11 7.29 11 5.85.2 6.37-2.94 6.86-3.8Zm48.03-24.23h9.21v22.37s-.31 6.02 6.06 6.02c6 0 6.17-5.4 6.17-5.8v-18.25s.29-4.34 4.31-4.34h4.82v20.79c-.06 1.12 1.18 14.9-15.27 14.84-16.31 0-15.16-13.93-15.27-14.73v-20.9h-.03Zm-28.2 9.36h5.4v-9.22h-5.37v-5.94c0-1.6-.89-4.45-4.33-4.45h-4.74v38.7c0 4.02 1.55 6.43 4.94 6.43h4.1V250.1Zm15.08 25.6v-18.02c0-2.61.6-4.54 1.83-5.77 1.21-1.2 3.1-1.84 5.66-1.84h3.01v-9.39s-4.76-.11-8.2.92a17.98 17.98 0 0 0-5.86 2.87 13.98 13.98 0 0 0-4.14 5.57c-1 2.33-1.49 5.2-1.49 8.62v16.96h9.19v.09Zm101.68-29.1v29.2l19.24-14.62"/><path fill="#242424" d="M1268.37 246.38c-1.24-.5-1.74-.75-2.23-1.98-.74-1.74-.25-3.72 1.49-4.71 1.48-.5 4.21-.25 3.71.74h-.99c-1.73-.5-3.47.74-3.47 2.48 0 1.24.25 1.98 1.24 2.48h2.48c.5-.25.99 0 .99.5 0 .49-2.48.74-3.22.49Zm19.33 0a3.95 3.95 0 0 1-2.48-2.73c-.25-2.48 1.24-4.21 3.47-4.21 1.73 0 2.72.99 3.22 2.72v1h-5.45l.25.74c.24 1 .99 1.49 2.23 1.49h2.47l-.49.74c-.5.25-2.48.5-3.22.25Zm2.97-4.46c0-.5-.49-1.24-1.24-1.49-.99-.25-1.98 0-2.48.74-.74 1.24-.74 1.24 1.49 1.24 1.74 0 2.23 0 2.23-.5Zm9.67 4.46c-1-.5-1.24-1.24-.25-1 2.48.5 3.22.25 2.97-.98 0-.5-.49-.75-1.49-1.24-1.73-.5-2.23-1-2.23-1.99s1-1.73 2.48-1.73c1.24 0 2.23.25 1.99.74l-.5.5c-.99-.5-2.23-.5-2.48-.25-.99 1-.74 1.24 1.98 2.23 1 .5 1.49 1.24 1.49 2.23-.49 1.24-2.23 1.98-3.96 1.49Zm6.93 0c-2.72-.75-3.22-4.96-.99-6.44 2.23-1.24 4.71-.25 5.21 2.22v1h-2.73c-2.48 0-2.72 0-2.72.5 0 1.48 2.47 2.47 3.96 1.73.74-.5.74-.5.74 0 .25.5.25.74-.99.99h-2.48Zm2.98-4.22-.5-1.23c-.99-1-2.23-1-3.22 0-.99 1.23-.74 1.48 1.74 1.48l1.98-.25Zm4.46 4.22c-1.24-.5-1.74-.75-2.23-1.98a3.62 3.62 0 0 1 1.49-4.71c1.48-.5 4.21-.25 3.71.74h-.99c-1.73-.5-3.47.74-3.47 2.48 0 1.24.25 1.98 1.24 2.48h2.48c.49-.25.99 0 .99.5 0 .49-2.48.74-3.22.49Zm5.95 0c-1.24-.5-1.74-1.49-1.74-4.46 0-2.23 0-2.48.5-2.48.49 0 .49.25.49 2.48s0 2.48.75 3.22c.49.74 1.73.74 2.47 0 .5-.5.75-.74.75-2.97 0-2.48 0-2.73.49-2.73.5 0 .5.25.5 2.23 0 2.73-.25 3.72-.99 4.21-.99.5-2.23.75-3.22.5Zm-45.85-1.24c0-1.24-.25-1.49-1.24-3.22-1.98-2.48-1.98-2.48-1.24-2.48.5 0 1 .5 1.74 1.73l1.24 1.24 1.24-1.48c.74-1.24 1.24-1.5 1.73-1.5.5 0 .5 0-.74 1.74l-1.49 1.99-.25 1.73c0 1.24 0 1.49-.49 1.49-.5 0-.5-.25-.5-1.24Zm4.46-2.23v-3.47h1.98c1.49 0 1.99.25 2.48.5.5.74.75 1.73 0 2.47-.24.25-.24.25.25.75.5.24.74.74.74 1.24 0 1.48-.74 1.98-3.47 1.98h-1.98v-3.47Zm3.97 2.48c.49-.25.74-1.24.25-1.74l-1.74-.25h-1.49v2.23h1.24l1.74-.24Zm-.25-3.22c.74-1-.25-1.99-1.74-1.99h-.99v2.23h1.24l1.49-.25Zm9.66.74v-3.47l2.23.25 2.73.25c.99.99.74 2.97-.5 3.46l-.49.25.99 1.49.74 1.24h-.49c-.5 0-.99-.25-1.49-1.24-.74-1-.99-1.24-1.73-1.24h-.75v1.24c0 1.24 0 1.24-.49 1.24h-.75v-3.47Zm4.22-.25.24-1.24-.24-.99h-2.98v2.48h1.24l1.74-.25Zm29.24.25v-3.47h2.23c2.72.25 3.22.5 3.22 2.23 0 .74 0 1-.74 1.49l-.75.74.99 1.24.75 1.24h-.5c-.49 0-.99-.25-1.49-1.24-.74-1.24-.74-1.24-1.73-1.24h-.99v1.24c0 .99 0 1.24-.5 1.24-.49 0-.49-.25-.49-3.47Zm4.21-.25.25-1c0-.98-.5-1.23-1.98-1.23h-1.49v2.48h1.49l1.73-.25Zm2.48.25c0-3.22 0-3.47.49-3.47.5 0 .5.25.5 3.47s0 3.47-.5 3.47c-.49 0-.49-.25-.49-3.47Zm3.96.5v-2.98h-1.24c-.74 0-1.23-.25-1.23-.5.24-.24.74-.5 2.97-.5 2.72 0 2.97 0 2.97.5s-.25.5-1.24.5h-1.24v2.97c0 2.73 0 2.98-.49 2.98-.5 0-.5-.25-.5-2.98Zm6.69 1.73c0-1.24 0-1.49-1.48-3.47-1.49-2.23-1.49-2.23-.75-2.23.5 0 .75.25 1.49 1.73l1.24 1.5 1.24-1.5c.74-1.48 1.24-1.73 1.73-1.73.75 0 .75 0-1.24 2.48-.99 1.73-1.23 1.98-1.23 3.22 0 .99 0 1.24-.5 1.24s-.5-.25-.5-1.24Zm-76.57-9.17c-.99-.74-1.24-1.49-1.24-4.21 0-2.23 0-2.48.5-2.48.49 0 .49.25.49 2.48 0 2.72.25 3.47 1.74 3.47 1.24 0 1.49-.75 1.49-3.47 0-2.23 0-2.48.49-2.48.5 0 .5.25.5 2.23 0 2.73.25 3.47 1.48 3.72 1.49 0 1.74-.5 1.74-3.47 0-2.23 0-2.48.49-2.48.5 0 .5.25.5 2.72 0 2.73 0 2.73-.74 3.47-.99 1-2.48 1-3.22.25l-.75-.74-.49.74c-.75.5-1.99.75-2.98.25Zm11.15-.25c-2.47-1.24-2.47-4.95 0-6.2 1.24-.49 1.99-.74 3.22 0a3.4 3.4 0 0 1 .75 5.95 3.8 3.8 0 0 1-3.97.25Zm3.47-1.24c.5-.5.75-.99.75-1.73 0-1.98-1.74-3.22-3.47-2.48-.99.5-1.49 1.24-1.49 2.48 0 1.49.99 2.48 2.48 2.48.74 0 1.24-.25 1.73-.75Zm2.98-1.73c0-3.22 0-3.47.49-3.47l.5.5.49-.25 1.74-.25c.74 0 1.24 0 1.73.5l.5.74.49-.75c.99-.74 2.48-.99 3.47-.24.99.74 1.24 1.73 1.24 4.46 0 1.73-.25 2.23-.49 2.23-.25 0-.5-.25-.5-2.48-.25-3.22-.49-3.72-1.98-3.72s-1.74.5-1.98 3.72c0 2.23 0 2.48-.5 2.48-.25 0-.5-.5-.5-2.73 0-2.48-.24-2.72-.49-3.22-.99-.5-2.23-.25-2.73.5-.49.5-.49.99-.49 2.97 0 2.23 0 2.48-.5 2.48-.49 0-.49-.25-.49-3.47Zm13.13 2.97c-2.73-1.73-1.98-5.94 1.24-6.69 1.73-.25 3.47 1 3.72 2.97v1h-2.73c-2.73 0-2.73 0-2.48.5 0 .24.25.98.75 1.23.49.5.74.5 1.73.5l1.73-.25h.5c.25.5 0 .5-.5.99a5.4 5.4 0 0 1-3.96-.25Zm3.72-4.21c0-.74-.99-1.49-1.99-1.49-.74 0-.99.25-1.48.75l-.75.99 1.99.25c1.98 0 2.23 0 2.23-.5Zm2.23 4.46-.25-3.47c0-2.97 0-3.22.5-3.22l.49.5c0 .49 0 .49.99-.25.75-.5.99-.5 1.74-.5 1.98.25 2.47 1.49 2.47 4.96 0 1.98-.24 2.23-.49 2.23-.5 0-.5-.25-.74-2.73 0-1.98-.25-2.72-.5-2.97-.5-.75-1.73-.75-2.48 0-.49.5-.49.74-.74 2.97 0 1.98-.25 2.48-.5 2.73l-.49-.25Zm9.91-3.22c0-3.22 0-3.47.5-3.47.49 0 .49.25.49 3.47s0 3.47-.49 3.47c-.5 0-.5-.25-.5-3.47Zm2.48 3.22-.25-3.47c0-2.97 0-3.22.5-3.22l.49.5v.49l.5-.5c1.24-.99 3.47-.74 4.21.5l.25 3.22c0 2.48 0 2.73-.5 2.73-.25-.25-.49-.5-.49-2.73 0-2.48-.25-2.72-.5-3.22-.74-.5-1.73-.25-2.73.25-.49.74-.49.74-.74 3.22 0 2.23-.25 2.97-.74 2.23Z"/><path fill="#6D6D6D" d="M1234.67 287.76a39.39 39.39 0 0 1-16.85-17.34 55.06 55.06 0 0 1-5.46-29.74v-1.24l10.16-4.21 12.39-5.2 2.24-1 4.46 1.98 12.39 5.2 7.93 3.23v11.4h7.18v4.21h-1.73c-1.49 0-1.74 0-1.74.5a518.8 518.8 0 0 1 4.22 13.38l3.22-7.44 3.22-7.93 1.24.25h.99l3.22 7.44 3.22 7.68c0 .25 1.74-4.96 3.97-13.38 0-.5-.25-.5-1.74-.5h-1.73v-4.21h10.9v4.21h-2.73l-.74 2.48-6.19 20.32c0 .5-.25.5-1.24.5h-1.24l-3.47-8.18-3.47-8.43-3.47 8.43-3.47 8.17h-2.48l-6.44-21.55c-.25-.75-.25-.75-.99 1.98a40.37 40.37 0 0 1-21.81 29.73l-1.48.5-2.48-1.24Z"/><path fill="#6D6D6D" d="M1295.38 278.1c-1.74-.5-2.73-1.5-2.73-3.47l.99-4.46.75-3.72-1.24-.25-1.24-.25.5-1.73.24-1.74h7.19l-1.49 5.7-1.48 6.2c0 .5.24.5.74.5s.74-.25 1.24-1l.49-.99h1c.99.5.99.5 0 2.48-1 2.23-2.98 3.22-4.96 2.73Zm1.49-17.6c-.75-.25-1.49-1.49-1.49-2.48 0-.5.25-.99.99-1.73s.74-.74 1.74-.74c2.47.5 3.22 3.46 1.23 4.7-.99.5-1.48.5-2.47.25Z"/><path fill="#929292" d="M1234.67 287.76a39.39 39.39 0 0 1-16.85-17.34 55.06 55.06 0 0 1-5.46-29.74v-1.24l10.16-4.21 12.39-5.2 2.24-1 4.46 1.98 12.39 5.2 7.93 3.23v4.96l-.25 5.7v.74h-3.72v4.21h1.49c1.24 0 1.48 0 1.48 1a42.1 42.1 0 0 1-6.69 18.08c-3.71 5.7-10.16 11.65-15.36 14.13l-1.73.74-2.48-1.24Zm2.23-11.65v-3.96h-.75a7.93 7.93 0 0 1-6.93-7.93c0-2.23.49-3.72 1.98-5.2.99-1.24 2.97-2.48 3.71-2.48l.25 1.48-.25 1.24c-.49 0-2.23 1.49-2.72 2.48a5.3 5.3 0 0 0 .74 5.95c.99.99 2.48 1.98 3.47 1.98.5 0 .5 0 .5-1.24l-.25-1.24c-.74 0-.99-.99-.99-6.94v-6.2l.74-.49c.5-.74.5-.74.5-2.97v-2.48h-1.49a16.07 16.07 0 0 0-13.01 21.45 16.06 16.06 0 0 0 13.51 10.52h.99v-3.97Zm87.97 6.7c-.99-.25-2.23-1.5-2.23-2.24 0-.74.74-1.98 1.24-1.98.74-.5 1.48-.25 2.23.25l.49.5.75-.75c1.23-1.48 1.23-1.48-1.49-7.43l-2.48-5.2h-1.98v-3.47h7.93v3.22h-.99l-.99.24 2.97 6.45c.25.25 2.97-5.95 2.97-6.45l-.99-.24h-.99v-3.22h7.93v3.46h-1.98l-1.49 3.72-3.72 7.44c-1.98 4.2-2.97 5.2-4.7 5.7h-2.48Z"/><path fill="#929292" d="M1312.97 278.35a13.61 13.61 0 0 1-11.64-8.68c-.75-2.23-.99-6.2-.5-8.67 1.74-6.94 8.43-11.4 15.86-10.4 3.47.49 5.7 1.72 7.43 3.7 1.49 1.74 1.24 4.72-.49 5.46-2.23 1.24-4.71-.25-4.46-2.97v-1l-1.24-.5c-.99-.49-1.74-.49-3.72-.49-1.98 0-2.48.25-3.71.75a9.43 9.43 0 0 0-5.21 8.17c-.25 6.2 3.97 10.66 9.91 10.41 2.48-.25 4.71-.99 6.45-2.48l.74-.99 1.73 1.49 1.49 1.49-1.24 1.24a15.05 15.05 0 0 1-11.4 3.47Zm30.24-.25c-3.72-1-6.7-3.97-5.95-6.45 0-.99 1.24-2.23 1.98-2.23.99-.24 2.48.25 2.97 1 .5.5.5.99.5 1.98 0 1.24 0 1.24.74 1.73.99.5 4.46.75 5.7.25 1.74-.74 2.23-1.49 2.48-2.97.25-2.23-.99-3.23-5.2-4.71-3.72-1.49-4.71-1.99-6.2-3.22-1.49-1.49-1.98-2.98-1.98-5.2 0-2.24.74-3.97 2.48-5.46 1.73-1.49 3.22-1.98 6.44-1.98 2.97 0 4.71.5 6.44 1.73 1.24.75 1.49 1.24 1.99 2.48 1.23 2.73-1 5.2-3.47 4.21-1.24-.5-1.74-1.73-1.74-2.97.25-1 .25-1-.74-1.24-1.24-.5-4.21-.5-5.21 0-1.23.74-1.73 1.74-1.73 3.22.25 1.74 1.49 2.48 5.45 4.22 3.72 1.48 5.95 2.72 6.94 3.96.5 1 1.24 3.22 1.24 4.21 0 1.24-.74 3.47-1.49 4.46-.74 1.24-2.72 2.48-4.46 2.98-1.73.5-5.45.5-7.18 0Z"/><path fill="#B6B6B6" d="M1234.67 287.76a39.39 39.39 0 0 1-16.85-17.34 55.06 55.06 0 0 1-5.46-29.74v-1.24l12.39-5.2 12.4-5.2v6.43h.74c1.24 0 4.46 1 5.95 1.74l3.47 2.72c1.48 1.5 2.23 2.23 2.97 4.22l.99 1.98.25 5.45v5.45l-.75-1.24-1.98-2.47-1.24-1.5v-2.22l-.74-3.47a10.34 10.34 0 0 0-8.43-6.7h-1.23v8.68h-1.24c-1.49 0-3.72.5-5.95 1.74-2.48.99-5.7 4.2-6.94 6.94a14.05 14.05 0 0 0-1.73 9.41 16.1 16.1 0 0 0 13.87 13.88l1.99.25V289l-2.48-1.24Z"/><path fill="#B6B6B6" d="M1234.91 271.9a7.95 7.95 0 0 1-5.69-7.19 7.23 7.23 0 0 1 4.95-7.68l.99-.5v1.25c0 .99 0 1.24-.99 1.73a5.54 5.54 0 0 0-1.49 8.18c1.99 2.48 5.46 2.72 7.93.5 2.73-2.24 2.23-6.94-.99-8.68-.99-.5-.99-.5-.99-1.73v-1.24h.75a8.2 8.2 0 0 1 .99 15.12 10 10 0 0 1-5.46.24Z"/><path fill="#B6B6B6" d="m1236.65 267.2-.5-.5v-12.9l.5-.5c.74-.24.74-.24 1.24.25.49.25.49.75.49 6.45l-.24 6.69c-.25.5-.75.74-1.49.5Z"/><path fill="#DBDBDB" d="M1237.15 270.91c0-1.24 0-1.24.74-1.24.99 0 2.97-1.24 3.47-2.23a4.92 4.92 0 0 0 .99-4.46 6.7 6.7 0 0 0-2.73-3.72c-.74-.24-.74-.24-.74-1.48s0-1.24.5-1c2.23.5 4.46 2.73 5.2 4.71a9.6 9.6 0 0 1-.25 5.95c-.99 2.48-4.21 4.71-6.69 4.71-.49 0-.49 0-.49-1.24Z"/><path fill="#DBDBDB" d="M1237.15 260.25c0-5.94 0-6.93.49-6.93.5 0 .74 1.24.74 6.94 0 4.95 0 5.94-.49 6.44l-.5.5-.24-6.94Zm-14.87-7.68c0-5.45.25-6.2 1.48-9.17a16.1 16.1 0 0 1 11.65-7.93h1.74v3.97l-1.74.25c-5.45.99-8.92 5.2-8.92 10.9 0 1.49 0 1.49-1.24 2.97l-2.23 2.98-.74 1.48v-5.45Z"/><path fill="#fff" d="M1237.15 271.16c0-1.24 0-1.24.74-1.49 4.96-.99 6.44-7.43 1.98-10.16-.99-.5-.99-.74-.99-1.73v-1.24l.99.5a7.24 7.24 0 0 1 4.96 7.68 8.17 8.17 0 0 1-6.69 7.43h-.99v-1Z"/><path fill="#fff" d="m1237.15 260.25.24-6.93c.75 0 .75.74.75 6.94 0 6.19 0 6.93-.75 6.93l-.24-6.94Zm-14.62-7.93c0-4.2 0-5.2.49-6.44 1.74-5.45 6.69-9.41 12.64-10.16l1.24-.25v3.97h-.75c-1.23 0-3.46.74-4.7 1.49-1.49.74-3.47 2.97-4.22 4.7-.49 1-.49 1.74-.74 3.72 0 2.48 0 2.73-.74 3.47l-1.99 2.48-1.23 1.73v-4.7Z"/></svg>