<svg xmlns="http://www.w3.org/2000/svg" xmlns:xlink="http://www.w3.org/1999/xlink" fill="none" viewBox="0 0 685 435"><g opacity=".4"><path fill="#5F6368" d="M141.2 17.1h3.2l-6.3 23.8h-3.2l-5.1-15.7h-.1l-5.1 15.7h-3.1l-6.6-23.8h3.2l5 18.7h.1l5.2-15.5h2.8l5.1 15.5h.2l4.7-18.7Zm2.9 15.7a8.4 8.4 0 0 1 8.4-8.7 7.5 7.5 0 0 1 5.9 2.5 8.4 8.4 0 0 1 2.4 6.2 8.4 8.4 0 0 1-5 8c-1.1.4-2.2.6-3.3.6a8.1 8.1 0 0 1-7.8-5.3c-.4-1-.6-2.2-.6-3.3Zm3.1 0c0 1.5.5 3 1.5 4.2a4.8 4.8 0 0 0 3.8 1.6 5.1 5.1 0 0 0 3.8-1.6 6 6 0 0 0 1.5-4.2 5.8 5.8 0 0 0-1.5-4.2 5.2 5.2 0 0 0-5.9-1.3 5.7 5.7 0 0 0-3.2 5.5Zm18.8 8.1h-3V24.6h2.9v2.7h.1c.4-1 1-1.7 1.9-2.2a5.5 5.5 0 0 1 5.1-.5l-.9 2.9-1.8-.2a3.9 3.9 0 0 0-3 1.4 4.4 4.4 0 0 0-1.3 3.2v9Zm22.7 0H185l-5-7.7-2.5 2.5v5.2h-3.1V17.1h3.1v14.6l7-7.1h3.9v.2l-6.3 6.3 6.6 9.6v.2Z"/><path fill="#5F6368" d="M201.9 36.4a4.5 4.5 0 0 1-1.8 3.6c-1.4 1-3 1.4-4.7 1.4a7.2 7.2 0 0 1-6.9-4.6l2.7-1.2a4.5 4.5 0 0 0 4.2 3.1 5 5 0 0 0 2.4-.6 1.7 1.7 0 0 0 1-1.5c0-1.1-.8-1.8-2.4-2.3l-2.8-.7c-3.1-.8-4.7-2.4-4.7-4.6a4 4 0 0 1 1.8-3.5 7 7 0 0 1 4.6-1.4c1.4 0 2.7.3 3.9 1 1.1.6 2 1.6 2.5 2.8l-2.8 1.1a3 3 0 0 0-1.5-1.6c-.7-.4-1.5-.7-2.3-.6a4 4 0 0 0-2.1.6 1.7 1.7 0 0 0-1 1.4c0 1 .9 1.6 2.6 2l2.5.7c3.2.8 4.8 2.4 4.8 4.9Zm10.6 5c-1.2 0-2.3-.2-3.3-.8-1-.4-1.7-1.1-2.2-2h-.2l.2 2.3v7.2h-3.1V24.6h2.9v2.3h.2a7 7 0 0 1 2.2-2 7.3 7.3 0 0 1 8.8 1.7 9.4 9.4 0 0 1 0 12.3 7 7 0 0 1-5.5 2.5Zm-.5-2.8a4.7 4.7 0 0 0 3.7-1.6 6.6 6.6 0 0 0 0-8.4 4.9 4.9 0 0 0-7.4 0 6.6 6.6 0 0 0 0 8.4 4.9 4.9 0 0 0 3.7 1.6Zm16.6-14.5c2-.1 3.8.5 5.3 1.8a6.4 6.4 0 0 1 2 5v10H233v-2.3h-.2a5.6 5.6 0 0 1-5 2.8c-1.6 0-3.2-.5-4.5-1.6a5 5 0 0 1-1.8-4 5 5 0 0 1 1.9-4 9.8 9.8 0 0 1 9.5-.5v-.7a3.4 3.4 0 0 0-1.2-2.7 4.2 4.2 0 0 0-2.9-1.2 4.9 4.9 0 0 0-4.1 2.2l-2.7-1.7a7.8 7.8 0 0 1 6.6-3.1Zm-3.9 11.8a2.3 2.3 0 0 0 1 2 4 4 0 0 0 2.3.8c1.3 0 2.5-.5 3.5-1.4a5 5 0 0 0 1.5-3.4 6.8 6.8 0 0 0-4-1.1 5 5 0 0 0-3.1.9 2.4 2.4 0 0 0-1.2 2.2Zm21.5 5.5a7.8 7.8 0 0 1-5.9-2.4 8.8 8.8 0 0 1-2.4-6.2 8.4 8.4 0 0 1 2.4-6.2 7.5 7.5 0 0 1 5.9-2.5 7.4 7.4 0 0 1 7.1 4.7l-2.7 1.1a4.7 4.7 0 0 0-4.6-3 4.8 4.8 0 0 0-3.6 1.7 5.9 5.9 0 0 0-1.5 4.1c0 1.5.5 3 1.5 4.2a4.8 4.8 0 0 0 3.6 1.7 4.7 4.7 0 0 0 4.7-3.1l2.7 1.2a7.7 7.7 0 0 1-7.2 4.7Zm16.4 0a7.5 7.5 0 0 1-5.8-2.4 8.6 8.6 0 0 1-2.4-6.2c0-2.3.8-4.5 2.3-6.2a7.3 7.3 0 0 1 5.8-2.5 7.5 7.5 0 0 1 5.7 2.3 9.7 9.7 0 0 1 2.2 6.6v.3h-12.8a5 5 0 0 0 1.6 3.9 4.8 4.8 0 0 0 3.6 1.4 5 5 0 0 0 4.6-2.9l2.7 1.4a8.6 8.6 0 0 1-3.1 3.2 9 9 0 0 1-4.4 1.1Zm-4.8-10.6h9.3c0-1-.6-2-1.4-2.8a4.4 4.4 0 0 0-3.3-1.1c-1 0-2.2.3-3 1a5 5 0 0 0-1.6 2.9Z"/><path fill="#4285F4" d="M13.7 30.5v-3.7H26c.2.8.2 1.5.2 2.3.1 3.2-1 6.2-3.1 8.6a12.6 12.6 0 0 1-9.4 3.7A13.7 13.7 0 0 1 0 28a13.7 13.7 0 0 1 18.7-12.6c1.6.7 3 1.6 4.2 2.8l-2.6 2.6a9.3 9.3 0 0 0-6.7-2.6 9.8 9.8 0 0 0 0 19.5 9 9 0 0 0 6.8-2.6 7.8 7.8 0 0 0 2-4.6h-8.7Z"/><path fill="#EA4335" d="M44.9 32.8a8.7 8.7 0 1 1-8.6-8.7 8.4 8.4 0 0 1 8.6 8.7Zm-3.8 0a5 5 0 0 0-4.8-5.3 5.3 5.3 0 0 0 0 10.5 5 5 0 0 0 4.8-5.2Z"/><path fill="#FBBC04" d="M63.9 32.8a8.7 8.7 0 1 1-17.4 0 8.7 8.7 0 0 1 17.4 0Zm-3.8 0a4.9 4.9 0 1 0-4.9 5.2 5.1 5.1 0 0 0 4.9-5.2Z"/><path fill="#4285F4" d="M82 24.6v15.5c0 6.4-3.7 9-8.2 9a8.3 8.3 0 0 1-7.7-5.1l3.4-1.4a4.5 4.5 0 0 0 4.3 3.1c2.9 0 4.7-1.7 4.7-5.1v-1.2h-.2a6 6 0 0 1-4.5 2 8.7 8.7 0 1 1 0-17.4 5.8 5.8 0 0 1 4.5 2h.2v-1.5H82v.1Zm-3.3 8.2c0-3-2-5.3-4.6-5.3a5.1 5.1 0 0 0-4.8 5.3 5 5 0 0 0 4.8 5.2c2.6 0 4.6-2.2 4.6-5.2Z"/><path fill="#34A853" d="M88.5 15.5h-3.8v25.3h3.8V15.5Z"/><path fill="#EA4335" d="m103.2 35.6 2.9 2a8.8 8.8 0 0 1-10.5 3.2 8.5 8.5 0 0 1-5.3-8.1 8.2 8.2 0 0 1 8.2-8.6c4.4 0 6.6 3.6 7.4 5.5l.4 1-11.6 4.7a4.4 4.4 0 0 0 4.2 2.7 5 5 0 0 0 4.3-2.4Zm-9.1-3.1 7.7-3.2a3.3 3.3 0 0 0-3.2-1.8 4.7 4.7 0 0 0-4.5 5Z"/></g><path fill="#EB3C00" d="m297.4 51.1.3-38.7L332 0l18.6 6-.3 52.1-18.6 5.5-34.2-12.5 34.2 4.3.3-45-22.4 5.1V46l-12 5.1Z" opacity=".4"/><path fill="#000" d="M379.7 34.6a7 7 0 0 1-1.6 4.9 6 6 0 0 1-4.5 1.7c-2 0-3.5-.6-4.6-1.7a7.5 7.5 0 0 1-1.5-5c0-2.1.5-3.7 1.5-4.9 1.1-1 2.6-1.7 4.6-1.7 2 0 3.5.6 4.5 1.8 1 1 1.6 2.7 1.6 4.9Zm-9.4 0c0 1.4.3 2.5.8 3.2.6.7 1.4 1 2.5 1 2.1 0 3.2-1.4 3.2-4.2 0-3-1-4.4-3.2-4.4-1 0-2 .4-2.5 1.1-.5.7-.8 1.8-.8 3.3Zm17.3-1.4h-2.3V41h-2.7v-7.8H381v-1.3l1.5-.7v-.7c0-1.2.2-2 .8-2.5.6-.5 1.4-.8 2.6-.8 1 0 1.8.2 2.5.4l-.7 2a5 5 0 0 0-1.5-.2c-.3 0-.6 0-.8.3-.2.2-.2.5-.2.9v.6h2.3v2Zm7 0h-2.4V41h-2.7v-7.8h-1.4v-1.3l1.4-.7v-.7c0-1.2.3-2 .9-2.5.5-.5 1.4-.8 2.6-.8 1 0 1.8.2 2.5.4l-.7 2a5 5 0 0 0-1.5-.2c-.4 0-.7 0-.8.3-.2.2-.3.5-.3.9v.6h2.3v2Zm1.3-4.6c0-.8.5-1.3 1.5-1.3s1.5.5 1.5 1.3c0 .4-.2.8-.4 1-.3.2-.6.4-1.1.4-1 0-1.5-.5-1.5-1.4Zm2.8 12.4h-2.6v-9.8h2.6V41Zm6.8.2c-3 0-4.5-1.7-4.5-5 0-1.7.4-3 1.2-3.9.8-.9 2-1.3 3.6-1.3a6 6 0 0 1 3 .7l-.8 2-1.1-.4-1.1-.1c-1.4 0-2.1 1-2.1 3 0 1.8.7 2.8 2 2.8a4.9 4.9 0 0 0 2.8-.8v2.2c-.4.3-.8.5-1.3.6l-1.7.2Zm9.4-8.3c-.6 0-1 .2-1.4.5-.3.4-.5 1-.5 1.6h3.8c0-.7-.2-1.2-.6-1.6-.3-.3-.8-.5-1.3-.5Zm.4 8.3a5 5 0 0 1-3.8-1.3c-.8-1-1.3-2.1-1.3-3.7 0-1.7.4-3 1.2-3.9.9-.9 2-1.3 3.5-1.3 1.4 0 2.4.4 3.2 1.2.8.8 1.2 1.9 1.2 3.3v1.3h-6.4c0 .7.3 1.3.7 1.7.4.5 1 .7 1.8.7a7.4 7.4 0 0 0 3.3-.8v2l-1.5.6-2 .2ZM434 31a3 3 0 0 1-.8 2c-.5.6-1.2 1-2 1.2a4 4 0 0 1 2.3 1c.5.5.8 1.2.8 2 0 1.3-.5 2.3-1.3 3-1 .6-2.2 1-3.9 1-1.4 0-2.6-.3-3.7-.7v-2.3a8.4 8.4 0 0 0 3.4.8c1 0 1.6-.1 2-.4.4-.3.6-.8.6-1.5 0-.6-.2-1-.7-1.3-.5-.2-1.3-.4-2.3-.4h-1v-2h1c1 0 1.7-.2 2.2-.4.4-.3.6-.7.6-1.4 0-1-.6-1.4-1.8-1.4-.4 0-.8 0-1.3.2l-1.4.7-1.3-1.9a7 7 0 0 1 4.2-1.2c1.3 0 2.4.2 3.2.8.7.5 1.1 1.3 1.1 2.2Zm1.6 4.5c0-2.5.6-4.4 1.6-5.6 1.1-1.3 2.7-1.9 4.9-1.9l1.7.1v2.2a7 7 0 0 0-1.6-.2c-.9 0-1.6.2-2.2.4-.6.3-1 .7-1.4 1.3-.2.5-.4 1.3-.5 2.3h.1c.6-1 1.6-1.4 2.8-1.4 1.2 0 2 .3 2.7 1 .7.8 1 1.7 1 3 0 1.4-.4 2.5-1.2 3.3-.7.8-1.8 1.2-3.2 1.2a4 4 0 0 1-2.5-.7c-.7-.4-1.2-1-1.6-2-.4-.8-.6-1.8-.6-3Zm4.7 3.5c.6 0 1-.2 1.3-.6.3-.4.5-1 .5-1.6 0-.7-.2-1.2-.5-1.5-.3-.4-.7-.6-1.3-.6a2 2 0 0 0-1.4.6c-.4.3-.6.7-.6 1.2 0 .7.2 1.3.6 1.8.3.5.8.7 1.4.7Zm10.4-6.2c1.2 0 2.2.3 3 1 .7.7 1 1.7 1 2.9 0 1.4-.4 2.5-1.3 3.3-.9.8-2.1 1.2-3.8 1.2-1.4 0-2.6-.3-3.4-.7V38a7.3 7.3 0 0 0 3.3.9c1.7 0 2.5-.7 2.5-2 0-1.4-.8-2-2.6-2h-1a7 7 0 0 0-.9.3l-1-.6.4-6.5h7v2.3h-4.6L449 33h.4a6 6 0 0 1 1.3-.2Z" opacity=".4"/><g opacity=".4"><path fill="#0061FF" d="m505.3 19.3-11.8 7.6 11.8 7.5-11.8 7.5-11.8-7.6 11.8-7.5-11.8-7.5 11.8-7.5 11.8 7.5Zm-11.8 25 11.8-7.5 11.7 7.5-11.7 7.5-11.8-7.5Zm11.8-10 11.8-7.5-11.8-7.5 11.7-7.5 11.8 7.5-11.8 7.6 11.8 7.5-11.8 7.5-11.7-7.6Z"/><path fill="#000" d="M538 19.3h9.6c6.1 0 11.1 3.5 11.1 11.6v1.7c0 8-4.7 11.7-10.9 11.7H538v-25Zm5.4 4.5v15.9h4.1c3.4 0 5.7-2.2 5.7-7.3v-1.3c0-5-2.4-7.3-5.9-7.3h-3.9Zm18.1.3h4.3l.7 4.7c.8-3.2 2.8-4.9 6.6-4.9h1.3v5.4h-2.2c-4.3 0-5.4 1.5-5.4 5.8v9.2h-5.2V24.1Zm14 10.5v-.5c0-6.8 4.3-10.5 10.2-10.5 6 0 10.2 3.7 10.2 10.5v.5c0 6.7-4 10.3-10.2 10.3-6 0-10.2-3.6-10.2-10.3Zm15 0v-.5c0-3.8-1.9-6.1-4.9-6.1-3 0-4.9 2.1-4.9 6.1v.5c0 3.6 2 5.7 5 5.7s4.8-2.1 4.8-5.7Zm8.2-10.5h4.4l.5 3.8a6.8 6.8 0 0 1 6.6-4.3c5.2 0 8.5 3.7 8.5 10.5v.6c0 6.6-3.7 10.2-8.5 10.2-3.2 0-5.4-1.5-6.4-3.8v10.2h-5.2V24.1h.1Zm14.7 10.5v-.5c0-4-2-6-4.8-6-2.7 0-4.9 2.3-4.9 6v.4c0 3.6 2 5.8 4.8 5.8 3 0 5-2 5-5.7Zm13.1 6-.4 3.7h-4.5v-27h5.1v10.4c1.1-2.7 3.4-4.1 6.6-4.1 4.8.1 8.4 3.4 8.4 10.1v.6c0 6.7-3.4 10.6-8.5 10.6-3.4-.1-5.6-1.7-6.7-4.3Zm9.8-6.3v-.5c0-3.7-2-5.8-4.8-5.8s-4.9 2.4-4.9 5.9v.4c0 3.8 2 6 4.8 6 3 0 5-2 5-6Zm7.6.3v-.5c0-6.8 4.4-10.5 10.3-10.5 6 0 10.2 3.7 10.2 10.5v.5c0 6.7-4.2 10.3-10.2 10.3-6 0-10.3-3.6-10.3-10.3Zm15.2 0v-.5c0-3.8-1.9-6.1-4.9-6.1-3 0-4.9 2.1-4.9 6.1v.5c0 3.6 2 5.7 5 5.7s4.8-2.1 4.8-5.7Zm12.2-.8-7-9.7h6l4.1 6.1 4.1-6.1h6l-7.2 9.7 7.6 10.5h-6l-4.6-6.7-4.5 6.7h-6.2l7.7-10.5Z"/></g><g opacity=".4"><path fill="#000" fill-rule="evenodd" d="m55.3 131.8 2-4.9c2.5 1.7 5.5 2.6 8.5 2.6 2.3 0 3.7-.9 3.7-2.2-.1-3.6-13.4-.8-13.5-9.9 0-4.6 4-8.2 9.9-8.2 3.5 0 7 .8 9.4 2.8l-2 5.1c-2.2-1.6-5-2.4-7.7-2.5-1.8 0-3 .8-3 1.9 0 3.6 13.4 1.7 13.6 10.4 0 4.7-4 8.1-9.8 8.1-4 .1-7.9-1-11.1-3.2Zm81.8-6.7a6.4 6.4 0 0 1-5.4 3.1 6.1 6.1 0 0 1-6.1-6.1 6.1 6.1 0 0 1 9.2-5.3 6 6 0 0 1 2.3 2.2l5.8-3.2a12.9 12.9 0 1 0 0 12.6l-5.8-3.3ZM79 98.5h7.4v36H79v-36Zm66.7 0v36h7.4v-10.8l8.7 10.8h9.4l-11.1-12.8 10.3-12h-9l-8.3 9.9V98.5h-7.4Z" clip-rule="evenodd"/><path fill="#000" d="M108.3 125.2a6.7 6.7 0 0 1-5.7 3 6.1 6.1 0 0 1-6.1-6.1 6.1 6.1 0 0 1 6-6.2 6.6 6.6 0 0 1 5.8 3.2v6.1Zm0-15.5v2.9c-1.2-2-4.2-3.4-7.3-3.4-6.4 0-11.5 5.7-11.5 12.8 0 7.1 5 13 11.5 13 3 0 6-1.4 7.3-3.5v2.9h7.4v-24.7h-7.4Z"/><path fill="#E01E5A" fill-rule="evenodd" d="M9.9 125.1a4.7 4.7 0 0 1-4.6 4.6 4.6 4.6 0 0 1-4.5-4.6 4.5 4.5 0 0 1 4.5-4.5h4.6v4.5Zm2.2 0a4.6 4.6 0 0 1 9 0v11.4a4.6 4.6 0 0 1-9 0v-11.4Z" clip-rule="evenodd"/><path fill="#36C5F0" fill-rule="evenodd" d="M16.7 106.9a4.5 4.5 0 0 1-4.6-4.5 4.6 4.6 0 1 1 9 0v4.5h-4.4Zm0 2.3a4.6 4.6 0 0 1 0 9.1H5.3a4.6 4.6 0 0 1-3.7-8 4.6 4.6 0 0 1 3.7-1.1h11.4Z" clip-rule="evenodd"/><path fill="#2EB67D" fill-rule="evenodd" d="M34.8 113.8a4.6 4.6 0 0 1 4.6-4.6 4.6 4.6 0 0 1 0 9.1h-4.6v-4.5Zm-2.2 0a4.6 4.6 0 0 1-4.6 4.5 4.5 4.5 0 0 1-4.5-4.5v-11.4a4.6 4.6 0 0 1 4.5-4.6 4.7 4.7 0 0 1 4.6 4.6v11.4Z" clip-rule="evenodd"/><path fill="#ECB22E" fill-rule="evenodd" d="M28 131.9a4.7 4.7 0 0 1 4.6 4.6A4.6 4.6 0 0 1 28 141a4.5 4.5 0 0 1-4.5-4.5v-4.6H28Zm0-2.2a4.6 4.6 0 0 1-4.5-4.6 4.5 4.5 0 0 1 4.5-4.5h11.4a4.5 4.5 0 0 1 4.5 4.5 4.6 4.6 0 0 1-4.5 4.6H28Z" clip-rule="evenodd"/></g><g fill="#0075C9" opacity=".4"><path d="M308.7 108.3a18.5 18.5 0 0 0-16.4 9.8 18.7 18.7 0 0 0-27.6-6.1V96.4a3.7 3.7 0 1 0-7.4 0v30.7a18.6 18.6 0 0 0 35 8.4 18.5 18.5 0 1 0 16.4-27.2ZM275.9 138a11.2 11.2 0 1 1-.2-22.4 11.2 11.2 0 0 1 .2 22.4Zm32.8 0a11.2 11.2 0 1 1-.2-22.4 11.2 11.2 0 0 1 .2 22.4Z"/><path d="m352.2 139.6-9.5-12.7 9.5-12.8a3.7 3.7 0 0 0-3.6-5.8c-1 .1-1.8.6-2.4 1.4l-8.2 11-8.2-11a3.7 3.7 0 0 0-6 4.4l9.6 12.8-9.5 12.7a3.7 3.7 0 0 0 5.9 4.4l8.2-10.9 8.2 10.9a3.8 3.8 0 0 0 5.2.7 3.7 3.7 0 0 0 .8-5.1Z"/></g><g opacity=".4"><path fill="url(#a)" d="M492.6 80.6h-48a5.8 5.8 0 0 0-5.7 5.8v48c0 3.1 2.6 5.7 5.8 5.7h47.9c3.2 0 5.8-2.6 5.8-5.8V86.4c0-3.2-2.6-5.8-5.8-5.8Z"/><path fill="#fff" d="M487.9 88.4h-12.6a2.8 2.8 0 0 0-2.8 2.8v20.4c0 1.6 1.2 2.8 2.8 2.8h12.6c1.5 0 2.8-1.2 2.8-2.8V91.2c0-1.5-1.3-2.8-2.8-2.8Zm-25.9 0h-12.6a2.8 2.8 0 0 0-2.8 2.8v35.3c0 1.6 1.2 2.8 2.8 2.8H462c1.5 0 2.8-1.2 2.8-2.8V91.2c0-1.5-1.3-2.8-2.8-2.8Z"/><path fill="#000" d="M461.7 150.1v1.3h-2.1v6H458v-6h-2V150h5.8Zm3.2 1.8h.1v1.4a3.4 3.4 0 0 0-.4 0c-.5 0-.9.2-1 .5-.2.2-.3.6-.3 1v2.5H462V152h1.4v1l.5-.8c.3-.2.6-.3 1-.3Zm3.1 1.1a1 1 0 0 0-.8.3c-.2.2-.3.5-.3.8h2.2c0-.3-.2-.6-.4-.8a1 1 0 0 0-.7-.3Zm0-1.2 1.2.3.9.8.4 1v1.2H467c0 .5.1.9.5 1 .2.2.4.3.7.3.2 0 .5-.1.7-.3l.2-.3h1.5c0 .3-.3.6-.5 1-.5.5-1.1.7-2 .7-.7 0-1.3-.2-1.8-.6a3 3 0 0 1-.8-2.2c0-1 .3-1.6.7-2.1.5-.5 1.1-.8 1.9-.8Zm4.9 5.5h-1.4v-7.2h1.4v7.2Zm2.8 0h-1.4v-7.2h1.4v7.2Zm3.8-.9c.4 0 .7-.2 1-.5l.2-1.2c0-.6 0-1-.3-1.3-.2-.3-.5-.4-1-.4-.3 0-.7.1-.9.4a2 2 0 0 0-.3 1.3c0 .5.1 1 .3 1.2.2.3.6.5 1 .5Zm2.7-1.7c0 .8-.2 1.4-.7 2-.4.5-1.1.8-2 .8-1 0-1.6-.3-2-.8a3.1 3.1 0 0 1 0-4c.4-.6 1-.9 2-.9.9 0 1.6.3 2 .9.5.5.7 1.2.7 2Z" opacity=".5"/></g><g opacity=".4"><path fill="#C4122E" d="M615.7 143.8h-4.2v-16.6h4.2v16.6Zm33.8-11.8c-1.1-.6-2.4-1-3.6-1a4.3 4.3 0 0 0-4.5 4.5 4.4 4.4 0 0 0 4.5 4.5 7 7 0 0 0 3.6-1v4.5a13 13 0 0 1-3.8.6c-4.8 0-9-3.2-9-8.6 0-5.4 3.8-8.6 9-8.6 1.2 0 2.5.2 3.8.6v4.5Zm-43.8 0c-1.1-.6-2.3-1-3.5-1a4.5 4.5 0 0 0-3.6 8 4.5 4.5 0 0 0 3.6 1c1.2 0 2.4-.4 3.5-1v4.5a13 13 0 0 1-3.8.6c-4.7 0-9-3.2-9-8.6a8.5 8.5 0 0 1 9-8.6c1.2 0 2.5.2 3.8.6v4.5Zm57-1a4.4 4.4 0 1 0 0 8.9 4.4 4.4 0 0 0 0-8.8Zm8.8 4.5a8.8 8.8 0 1 1-8.8-8.6 8.5 8.5 0 0 1 8.8 8.6Zm-40-4.5c-1-.3-2.1-.5-3.2-.5-1.7 0-2.6.5-2.6 1.3s1.2 1.4 1.9 1.6l1.2.4c2.7.9 3.9 2.7 3.9 4.7 0 4.2-3.6 5.6-6.8 5.6-1.6 0-3.1-.2-4.6-.4v-4c1.3.5 2.6.7 4 .8 2 0 3-.6 3-1.6s-.8-1.3-1.8-1.6l-1-.3c-2.3-.8-4.2-2.1-4.2-5 0-2.7 2.3-5.1 6.2-5.1 1.3 0 2.7.2 4 .5v3.6Z"/><path fill="#15495D" d="M588.6 109.3a2.1 2.1 0 0 0-2.1-2 2 2 0 0 0-2.1 2v4.4a2 2 0 0 0 2 2 2.1 2.1 0 0 0 2.2-2v-4.4Zm11.4-5.7a2.1 2.1 0 0 0-1.3-2 2 2 0 0 0-.8-.1 2.2 2.2 0 0 0-2.1 2v10.2a2.1 2.1 0 0 0 4.2 0v-10.1Zm11.5-7.8a2.1 2.1 0 1 0-4.2 0v22a2.1 2.1 0 0 0 2 2 2.2 2.2 0 0 0 2.2-2v-22Zm11.4 7.8a2.1 2.1 0 0 0-1.3-2 2 2 0 0 0-.8-.1 2.2 2.2 0 0 0-2.1 2v10.2a2.1 2.1 0 0 0 2 2 2.1 2.1 0 0 0 2.2-2v-10.1Zm11.4 5.7a2 2 0 0 0-1.3-2 2 2 0 0 0-.8 0 2 2 0 0 0-2 2v4.4a2 2 0 0 0 1.2 1.9l.8.2a2.1 2.1 0 0 0 2-2.1v-4.4Zm11.5-5.7a2.2 2.2 0 0 0-2.2-2 2 2 0 0 0-2 2v10a2.1 2.1 0 0 0 4.2 0v-10Zm11.4-7.8a2.1 2.1 0 0 0-2.1-2.1 2.1 2.1 0 0 0-2.1 2V118a2.1 2.1 0 0 0 4.2 0V95.9Zm11.4 7.8a2 2 0 0 0-3.7-1.8 2.1 2.1 0 0 0-.4 1.8v10a2 2 0 0 0 1.2 2l.8.2a2.1 2.1 0 0 0 2-2.1v-10.1Zm11.5 5.7a2.1 2.1 0 0 0-2.1-2 2 2 0 0 0-2.1 2v4.4a2.1 2.1 0 0 0 4.2 0v-4.4Z"/><path fill="#C4122E" d="M677.7 141.6v.3h-.8v1.9h-.3v-2h-.7v-.2h1.8Zm0 0h.6l.6 1.8.7-1.8h.5v2.2h-.4V142l-.6 1.8h-.3l-.7-1.8v1.8h-.3v-2.2Z"/></g><g opacity=".4"><path fill="#283343" d="M9.1 247.5a5.8 5.8 0 0 1-5.8-6 5.8 5.8 0 0 1 11.6 0 5.8 5.8 0 0 1-5.8 6Zm5.8.8a2.5 2.5 0 0 0 2.1 2h.7a.5.5 0 0 0 .5-.5v-16.2a.5.5 0 0 0-.5-.5h-2.3a.5.5 0 0 0-.5.5v1.3a7.3 7.3 0 0 0-5.8-2.4 9.1 9.1 0 1 0 3.2 17.6c1-.4 1.9-1 2.6-1.8Zm8.8-2.4a8 8 0 0 0 4.8 1.6c1.5 0 3.1-.8 3.1-2.2 0-1.4-3.4-2.1-5.6-2.8-2.2-.7-4-2.3-4-4.7 0-2.4 3.3-5.4 6.5-5.4 1.9 0 3.7.5 5.3 1.6.5.4.2.8.2.8l-1.3 1.8a.5.5 0 0 1-.3.2H32c-1-.8-2.2-1.2-3.5-1.2-2.2 0-3.1.9-3.1 2 0 1 1.5 1.7 3.3 2.2 1.8.5 6.3 1.8 6.3 5.5s-3.1 5.4-6.5 5.4c-2.4 0-4.8-.7-6.7-2.1a.6.6 0 0 1-.1-.7L23 246a.5.5 0 0 1 .5-.3h.2Zm28.5 2.4a2.5 2.5 0 0 0 2.1 2h.7a.5.5 0 0 0 .5-.5v-16.2a.5.5 0 0 0-.5-.5h-2.3a.5.5 0 0 0-.5.5v1.3a7.3 7.3 0 0 0-5.8-2.4 9.1 9.1 0 1 0 3.2 17.6c1-.4 1.9-1 2.6-1.8Zm-5.8-.8a5.8 5.8 0 0 1-5.8-6 5.8 5.8 0 0 1 11.6 0 5.8 5.8 0 0 1-5.8 6Zm29.7 1.3v-8.4c0-4.7-3-8-7.8-8a5.9 5.9 0 0 0-4.8 2.5 1.9 1.9 0 0 0-2.1-1.8h-.7a.5.5 0 0 0-.5.5v16.3a.5.5 0 0 0 .5.5h2.7l.1-.3v-9.6a4.6 4.6 0 0 1 4.6-4.6 4.5 4.5 0 0 1 4.6 4.6v9.6a.6.6 0 0 0 .6.5H76l.1-.3v-1.5Zm17.8-.5a2.5 2.5 0 0 0 2.1 2h.7a.6.6 0 0 0 .6-.5v-16.2h-.1a.5.5 0 0 0-.5-.5h-2.3a.5.5 0 0 0-.5.5v1.3a7.3 7.3 0 0 0-5.8-2.4 9.1 9.1 0 1 0 3.2 17.6c1-.4 1.9-1 2.6-1.8Zm-5.8-.8a5.8 5.8 0 0 1-5.8-6 5.8 5.8 0 0 1 11.6 0 5.8 5.8 0 0 1-5.8 6Z"/><path fill="url(#b)" d="M59.1 204.8a8 8 0 1 0 0 16 8 8 0 0 0 0-16Zm-20.7 0a8 8 0 1 0 0 16 8 8 0 0 0 0-16Zm18.3-10a8 8 0 1 1-16 0 8 8 0 0 1 16 0Z"/></g><g opacity=".4"><path fill="#00A1E0" d="M226.5 182.8a19 19 0 0 1 23.5-3.2c3 1.7 5.4 4.2 7.1 7.2 3-1.3 6.2-2 9.5-2a23.7 23.7 0 0 1 0 47.3c-1.5 0-3 0-4.6-.4a17.3 17.3 0 0 1-22.5 7 19.5 19.5 0 0 1-36.3-.9 18.2 18.2 0 0 1-21.9-17.9 18.4 18.4 0 0 1 9-15.9 21.4 21.4 0 0 1 4.5-23.3 21.1 21.1 0 0 1 31.7 2.1Z"/><path fill="#fff" d="m197 214 .1.2.6.4c1 .6 2 .8 3.2.8 2.3 0 3.7-1.2 3.7-3s-1.6-2.5-3.1-2.9h-.2c-1.1-.4-2-.7-2-1.4s.5-1 1.4-1c1 0 2 .2 2.8.6h.3c0-.3.4-1.2.5-1.3l-.1-.2a6 6 0 0 0-3.2-.9h-.2c-2.1 0-3.5 1.2-3.5 3 0 2 1.6 2.5 3 3h.3c1 .2 2 .5 2 1.3 0 .7-.6 1.2-1.6 1.2s-2-.2-2.9-.8l-.3-.2c-.1 0-.3-.2-.3.1l-.5 1.2Zm32.7 0c-.1.2 0 .2 0 .2l.7.4c1 .6 2 .8 3.2.8 2.3 0 3.6-1.2 3.6-3s-1.5-2.5-3-2.9h-.2c-1.1-.4-2-.7-2-1.4s.5-1 1.4-1a6.4 6.4 0 0 1 2.9.7.2.2 0 0 0 .2-.2l.5-1.2v-.2a6 6 0 0 0-3.2-.9h-.3c-2 0-3.4 1.2-3.4 3 0 2 1.5 2.5 3 3h.2c1.1.2 2 .5 2 1.3 0 .7-.6 1.2-1.5 1.2-1 0-2-.2-2.9-.8l-.4-.2-.3.1-.4 1.2h-.1Zm22.3-3.8c0 1-.2 1.8-.6 2.6a2.2 2.2 0 0 1-2.8.7c-.3-.1-.6-.4-.8-.7a5.8 5.8 0 0 1 0-5.1 2.2 2.2 0 0 1 3.6 0c.4.8.6 1.7.6 2.5Zm1.9-2a5 5 0 0 0-.9-1.6c-.4-.4-.9-.8-1.4-1-.6-.3-1.3-.4-2-.5a6 6 0 0 0-2 .4 4 4 0 0 0-1.4 1.1 5 5 0 0 0-.9 1.6 6.8 6.8 0 0 0 0 4c.2.7.5 1.2.9 1.7s.8.8 1.4 1c.6.3 1.3.5 2 .4a4.5 4.5 0 0 0 3.4-1.4c.4-.5.7-1 .9-1.7a10 10 0 0 0 0-4Zm15.3 5.2-.1-.1h-.2l-.8.2H267a2.9 2.9 0 0 1-2.1-.8c-.6-.7-.9-1.6-.8-2.6 0-.8.2-1.7.7-2.4a2.6 2.6 0 0 1 2.1-.9l2 .2s.1.1.2 0l.4-1.4c.1-.5 0-.2-.1-.2l-1.2-.3h-1.4c-.7 0-1.4.2-2.1.4-.6.3-1 .7-1.5 1.1a5 5 0 0 0-.9 1.6 7 7 0 0 0-.3 2c0 1.4.3 2.7 1.2 3.7a4.6 4.6 0 0 0 3.7 1.4c.9 0 1.8-.1 2.6-.5 0 0 .2 0 .1-.2l-.4-1.2Zm3.2-4.2c0-.5.3-1 .5-1.5a2 2 0 0 1 1.8-.9 1.9 1.9 0 0 1 1.8 1c.3.4.4.9.4 1.4h-4.5Zm6.3-1.3-.8-1.5-1.2-.9a4.8 4.8 0 0 0-3.9 0 4 4 0 0 0-1.4 1.1c-.4.5-.7 1.1-.9 1.7a6.8 6.8 0 0 0 0 4 4.2 4.2 0 0 0 2.5 2.7c.7.2 1.5.3 2.3.3a7 7 0 0 0 3.2-.6v-.3l-.4-1.2h-.2c-.8.4-1.7.6-2.6.5-.8 0-1.6-.2-2.2-.7a3 3 0 0 1-.7-2h6.3a.2.2 0 0 0 .2-.3c.1-.9 0-1.8-.2-2.7Zm-56.8 1.4c0-.5.3-1 .5-1.5a2 2 0 0 1 1.8-.9 1.9 1.9 0 0 1 1.8 1c.3.4.4.9.4 1.4h-4.5Zm6.3-1.3-.8-1.5-1.2-.9a4.8 4.8 0 0 0-5.4 1.1 6.8 6.8 0 0 0-.8 5.7 4.2 4.2 0 0 0 2.5 2.7c.7.2 1.5.3 2.3.3a7 7 0 0 0 3.2-.6v-.3l-.4-1.2h-.2c-.8.4-1.7.6-2.6.5-.8 0-1.6-.2-2.2-.7a3 3 0 0 1-.7-2h6.3a.2.2 0 0 0 .2-.3c.1-.9 0-1.8-.2-2.7Zm-19.9 5.5-.4-.3a2 2 0 0 1-.2-.9 1.4 1.4 0 0 1 .6-1.2 2.3 2.3 0 0 1 1.8-.4h1.7v3l-1.7.1c-.6.1-1.3 0-1.8-.4v.1Zm2.5-4.5h-1c-.5 0-1 0-1.5.2-.5.1-1 .3-1.4.6-.3.3-.7.6-.9 1l-.3 1.5c0 .5.1 1 .3 1.4.2.4.5.8.8 1 .4.3.8.5 1.3.6h3.6l1.6-.3.4-.2c.2 0 .1-.2.1-.2v-5.8a3.4 3.4 0 0 0-1-2.8 4 4 0 0 0-2.9-.9l-1.6.2a5.2 5.2 0 0 0-2 .8h-.1v.1h.1l.4 1.2c.1.2.2.1.2.1h.1c.9-.4 1.8-.7 2.8-.7.5 0 1 .2 1.5.5.4.2.5.6.5 1.5v.2h-1Zm50.9-3.3-.1-.2-1.1-.2c-.6 0-1.1 0-1.6.3l-1.1.8v-.8a.2.2 0 0 0-.2-.2h-1.7l-.1.2v9.6h1.9a.2.2 0 0 0 .2-.2v-4.8a4 4 0 0 1 .7-2.6l.8-.4h1.6c.1.1.1 0 .2 0l.5-1.5Z"/><path fill="#fff" d="m246.1 201.3-.6-.2h-.9c-1 0-1.9.3-2.6 1-.7.7-1.2 1.7-1.3 2.8v.4h-1.5a.2.2 0 0 0-.1.2l-.3 1.3a.2.2 0 0 0 .2.2h1.4l-1.4 8c0 .5-.2 1-.4 1.5 0 .4-.2.7-.4 1l-.6.3h-1.2l-.4-.2-.2.2a6 6 0 0 1-.5 1.2v.2l.1.1.6.2h.9a3.3 3.3 0 0 0 2.8-1l.8-1.4.5-2 1.4-8.2h2.2l.1-.2.3-1.3a.2.2 0 0 0-.1-.2h-2.2l.4-1.4.4-.7.6-.3h1.4c.2.1.2 0 .2 0l.5-1.4-.1-.2v.1ZM217.9 215l-.1.2h-1.7a.2.2 0 0 1-.1 0 .2.2 0 0 1-.1-.2v-13.4a.2.2 0 0 1 .1-.2h1.8l.1.2V215Z"/></g><g opacity=".4"><path fill="#253858" d="M423.8 219.5h3.7v18.8c0 5-2.2 8.4-7.3 8.4-1.5 0-3-.2-4.4-.7v-3.6c1.2.5 2.5.7 3.8.7 3.1 0 4.2-1.8 4.2-4.5v-19.1Zm10.5-1.5a2.4 2.4 0 0 1 2.4 2.2v.3a2.5 2.5 0 1 1-4.9 0 2.3 2.3 0 0 1 2.1-2.5h.4Zm-1.8 8h3.5v20.5h-3.5V226Zm8.9 0h3.4v3.6c1.2-2.4 3.3-4.1 7.3-4v3.6c-4.6-.5-7.3.9-7.3 5.2v12.2h-3.4V226Zm27.3 16.9a7.3 7.3 0 0 1-7 4c-5.4 0-8.2-4.6-8.2-10.6s3-10.7 8.7-10.7a6.6 6.6 0 0 1 6.5 4V226h3.6v20.5h-3.6v-3.6Zm-6 .8c3.2 0 6-2 6-6.6v-1.7c0-4.6-2.6-6.6-5.6-6.6-3 0-6 2.6-6 7.4 0 4.8 2 7.5 5.6 7.5Zm30.5 3.3c-3.3.1-6.7-.6-9.7-2.1V241a23 23 0 0 0 10 2.3c4 0 5.5-1.6 5.5-4s-1.5-3.7-6.6-5c-5-1.3-8.8-3.6-8.8-8s3.2-7.3 9.5-7.3c3 0 5.8.6 8.3 2v3.6a16.7 16.7 0 0 0-8.5-2c-3.5 0-5.6 1.2-5.6 3.7s1.7 3.3 6.5 4.5c4.8 1.2 9 3.3 9 8.2 0 4.9-2.9 7.9-9.6 7.9Zm12.8-10.8c0-6.2 3.5-10.6 9.6-10.6s9.8 4.5 9.8 10.6c0 6-3.6 10.8-9.8 10.8-6.2 0-9.7-4.6-9.7-10.8Zm3.3 0c0 3.9 2 7.5 6.3 7.5s6.3-3.6 6.3-7.5c0-4-1.9-7.3-6.3-7.3s-6.3 3.4-6.3 7.3Zm25.1-10.2h5.3v3.2h-5.3v17.3H531v-17.3h-3.3V226h3.3v-2.3c0-3.8 2.1-6.4 6.6-6.4a9 9 0 0 1 2.3.3v3.3l-2.2-.2a2.9 2.9 0 0 0-3.3 3l.1 2.3Zm17.3 17 2.2-.2v3.4c-.7.2-1.6.3-2.4.3-4.4 0-6.5-2.5-6.5-6.4v-11h-3.4V226h3.3v-4.4h3.5v4.4h5.4v3.2h-5.4V240c0 1.9 1.1 3 3.3 3Zm3.3-17h3.8l6 17.4 6-17.4h3.3l6 17.4 6-17.4h3.8l-7.5 20.5h-4.6l-3.5-10-1.9-6.3-1.9 6.4-3.6 9.9h-4.5L555 226Zm51.1 16.9a7.1 7.1 0 0 1-6.9 4c-5.5 0-8.3-4.6-8.3-10.6s3-10.7 8.7-10.7a6.6 6.6 0 0 1 6.5 4V226h3.6v20.5h-3.6v-3.6Zm-6 .8c3.2 0 6-2 6-6.6v-1.7c0-4.6-2.6-6.6-5.6-6.6-3 0-6 2.6-6 7.4 0 4.8 2 7.5 5.6 7.5Zm15-17.7h3.4v3.6c1.2-2.4 3.3-4.1 7.3-4v3.6c-4.5-.5-7.3.9-7.3 5.2v12.2h-3.4V226Zm23.2 21c-7.7 0-11-4.5-11-10.8 0-6.3 3.4-10.6 9.7-10.6 6.3 0 8.8 4.4 8.8 10.6v1.6h-15c.5 3.5 2.8 5.8 7.6 5.8a19 19 0 0 0 6.3-1.1v3.3c-2 .8-4.2 1.2-6.4 1.2Zm-7.6-12.2h11.5c-.2-3.8-1.9-6-5.4-6-3.5 0-5.7 2.4-6 6Z"/><path fill="#2684FF" d="m406.6 232-15.3-15.2-1.4-1.5-11.5 11.5-5.2 5.2a1.3 1.3 0 0 0-.3 1.5c0 .2.2.3.3.5l10.4 10.5 6.3 6.2 11.4-11.4.2-.2 5.1-5.1a1.5 1.5 0 0 0 0-2Zm-16.8 6.3-5.2-5.3 5.2-5.2 5.3 5.2-5.3 5.3Z"/><path fill="url(#c)" d="M389.8 227.8a8.8 8.8 0 0 1 0-12.4l-11.5 11.4 6.2 6.3 5.3-5.3Z"/><path fill="url(#d)" d="m395.1 233-5.3 5.2a8.8 8.8 0 0 1 0 12.5l11.5-11.5-6.2-6.2Z"/></g><path fill="#2D8CFF" fill-rule="evenodd" d="M96.2 288.5c.5.8.7 1.7.7 2.6v12a4.1 4.1 0 0 0 3.9 4h1.3v-16a5.3 5.3 0 0 1 7.9-4.6c.8.5 1.5 1.2 2 2 .4.8.6 1.7.6 2.6v12a4.1 4.1 0 0 0 3.9 4h1.4v-16a10.7 10.7 0 0 0-15-9.7c-1.4.7-2.6 1.6-3.6 2.7a10.5 10.5 0 0 0-8-3.6c-2.1 0-4.2.6-5.9 1.8a8 8 0 0 0-4.7-1.8V307H82a3.9 3.9 0 0 0 3.9-3.9v-12a5.1 5.1 0 0 1 5.2-5.3 5.2 5.2 0 0 1 4.6 2.7h.5ZM5.4 307h21.2v-1.3a4 4 0 0 0-3.9-3.9H9.3l16-15.9v-1.3a4 4 0 0 0-3.9-3.9H0v1.3a4.1 4.1 0 0 0 3.9 4h13.3L1.3 301.7v1.4a4.2 4.2 0 0 0 4 4l.1-.2Zm70.4-22.6a13.3 13.3 0 0 1 0 18.8 13.5 13.5 0 0 1-21.9-4.3 13.3 13.3 0 0 1 21.9-14.5Zm-3.8 3.7a8 8 0 0 1-5.6 13.6 8 8 0 0 1-8-8 8 8 0 0 1 8-8 7.9 7.9 0 0 1 5.6 2.4Zm-33.5-7.6a13.3 13.3 0 0 1 9.4 22.7 13.3 13.3 0 0 1-18.7-18.8 12.9 12.9 0 0 1 9.3-3.9Zm5.7 7.6a8 8 0 1 1-11.3 11.3 8 8 0 0 1 11.3-11.3Z" clip-rule="evenodd" opacity=".4"/><g opacity=".4"><path fill="#253858" d="M284.3 308.3a14.8 14.8 0 0 1-8 1.8c-10 0-15.6-5.9-15.6-15.5s5.6-15.6 15.5-15.6c3 0 6 .5 8 2.1v4a13.6 13.6 0 0 0-8-2c-7 0-11.4 4.6-11.4 11.5 0 7 4.4 11.6 11.6 11.6a16 16 0 0 0 7.8-1.9l.1 4Zm3-10.2c0-6.9 4-11.9 10.8-11.9 7 0 11 5 11 12 0 6.8-4 12-11 12-6.9 0-10.9-5.2-10.9-12Zm3.7 0c0 4.4 2.2 8.4 7.1 8.4 5 0 7-4 7-8.4s-2-8.2-7-8.2c-4.9 0-7 4-7 8.2Zm42.2 11.6h-4v-13.9c0-4.2-1.6-6-5.4-6-3.8 0-6.2 2.4-6.2 7.1v12.8h-4v-23h4v3.7a8 8 0 0 1 7.3-4.2c5.3 0 8.3 3.7 8.3 10v13.5Zm11-23h6v3.6h-6v19.4h-3.8v-19.4h-3.8v-3.6h3.8v-2.6c0-4.3 2.4-7.2 7.3-7.2 1 0 1.9.2 2.7.4v3.7l-2.5-.3c-2.5 0-3.7 1.5-3.7 3.5v2.5Zm16.4 23.1c-3.8 0-6.2-1.8-6.2-6V277h4v26.3c0 2.1 1.4 2.8 3.1 2.8h1.1v3.5c-.6.3-1.3.3-2 .2Zm5.4-23h4v13.8c0 4.1 1.6 6 5.4 6 3.8 0 6.2-2.5 6.2-7v-12.9h4v23h-4V306a8 8 0 0 1-7.3 4.3c-5.3 0-8.3-3.7-8.3-10v-13.5Zm36.6 23.4c-8.7 0-12.4-5-12.4-12 0-7.2 3.8-12 10.8-12 7 0 10 5 10 12v1.7h-16.8c.5 4 3.1 6.5 8.5 6.5 2.4 0 4.8-.4 7-1.3v3.7c-2.2 1-4.6 1.5-7 1.4Zm-8.5-13.7h13c-.3-4.2-2.3-6.7-6.2-6.7-3.9 0-6.4 2.7-6.8 6.7Zm41.2 13.2h-4v-13.9c0-4.2-1.7-6-5.4-6s-6.2 2.4-6.2 7.1v12.8h-4v-23h4v3.7a8 8 0 0 1 7.2-4.2c5.3 0 8.4 3.7 8.4 10v13.5Zm21.8-.6c-1.8.8-3.7 1.1-5.7 1-8.2 0-12-4.9-12-12 0-7 3.8-11.9 12-11.9 2 0 3.8.3 5.5 1.1v3.6a13 13 0 0 0-5.2-1c-6 0-8.4 3.7-8.4 8.2 0 4.5 2.5 8.3 8.5 8.3a15 15 0 0 0 5.2-.9l.1 3.6Zm15.5 1.1c-8.6 0-12.4-5-12.4-12 0-7.2 4-12 11-12s9.8 5 9.8 12v1.7h-16.8c.6 4 3.1 6.5 8.5 6.5 2.4 0 4.8-.4 7-1.3v3.7c-2.2 1-4.6 1.5-7 1.4Zm-8.4-13.7H477c-.2-4.2-2.2-6.7-6-6.7-4 0-6.4 2.7-6.8 6.7Z"/><path fill="url(#e)" d="m215 303-1 1.6a1.1 1.1 0 0 0 .3 1.4l7 4.2a1.1 1.1 0 0 0 1.3-.3l1-1.6c2.7-4.5 5.4-3.9 10.3-1.6l6.8 3.2a1 1 0 0 0 1.3-.5h.1l3.2-7.4a1 1 0 0 0-.5-1.3l-6.8-3.3c-9.2-4.4-17-4-23 5.6Z"/><path fill="url(#f)" d="m245.6 286.2 1-1.7a1.1 1.1 0 0 0-.3-1.4l-6.9-4.2a1 1 0 0 0-1.4.3l-1 1.7c-2.7 4.5-5.5 4-10.3 1.6l-6.8-3.2a1.1 1.1 0 0 0-1.4.5l-3.2 7.4a.9.9 0 0 0 .2 1.1l.3.2 6.8 3.3c9.2 4.4 17 4.1 23-5.6Z"/></g><g fill="#000" clip-path="url(#g)" opacity=".4"><path d="M618 292.5c0-2.7-.9-4.6-1.7-6.1l-.3-.4c-1-1.7-2-3.1-2-4.8 0-2 1.6-4 3.8-4h.2a22.2 22.2 0 0 0-33.6 4.2h1.4l6-.2c1.2-.1 1.3 1.7.1 1.8l-2.5.2 8 24.2 5-14.7-3.5-9.5c-1.2 0-2.3-.2-2.3-.2-1.3 0-1.1-2 0-1.8l6 .2 6-.2c1.1-.1 1.3 1.6 0 1.8l-2.5.2 8 24 2.3-7.5.2-.5c.8-2.8 1.5-4.9 1.5-6.7Zm-37.3 1.2a22.3 22.3 0 0 0 12.6 20l-10.6-29.1c-1.3 2.8-2 6-2 9Z"/><path d="m596.7 315 6.7-19.4 6.9 18.8.1.3a22.3 22.3 0 0 1-13.7.4Zm25.9-32 .2 2.3a21 21 0 0 1-1.7 8l-6.9 19.6a22.3 22.3 0 0 0 8.4-30Z"/><path fill-rule="evenodd" d="M577 293.7a26 26 0 1 1 52 0 26 26 0 0 1-52 0Zm1.2 0a24.8 24.8 0 1 0 49.7 0 24.8 24.8 0 0 0-49.7 0Z" clip-rule="evenodd"/></g><g opacity=".4"><path fill="#1976D2" d="M22.6 386.6H11.3v2.2H14a4 4 0 0 1 0 8H9l-9 9h9.4c3.2-.1 17.6-1.5 17.6-11a9.5 9.5 0 0 0-4.4-8.2Z"/><path fill="#1565C0" d="M30 394c0-5-4.9-7.7-6.1-8.2l-1.3.8a9.5 9.5 0 0 1 4.4 8.2c0 9.5-14.4 10.9-17.6 11C29 405.6 30 397.2 30 394Z"/><path fill="#1E88E5" d="M11 365.8H0v40l9-9v-8h2s6.6.4 11.6-2.2l.6-.3.7-.5a9 9 0 0 0 3.5-4.4c.4-1.2.6-2.4.6-3.6 0-12-10.8-12-17-12Zm4 17h-4a2 2 0 0 1-2-2v-4a2 2 0 0 1 2-2h4a4 4 0 1 1 0 8Z"/><path fill="#1565C0" d="M17.7 375.8a4.2 4.2 0 0 1 1.3 3 4 4 0 0 1-4 4h-4a2 2 0 0 1-2-2v-4s0-4.8 2.4-7.3a10 10 0 0 0-6.2 5C1 382.2 0 405.9 0 405.9l9-7v-10h2c8 0 15-4 15-10.4v-.5l-.1-.1a22 22 0 0 0-8.2-2Z"/><path fill="#2559AA" d="M15.5 368.9a14 14 0 0 0-4.1.6C9 372 9 376.8 9 376.8a2 2 0 0 1 2-2h4c1 0 2 .3 2.7 1 .8 0 5.7.5 8.2 2a.1.1 0 0 0 .1 0c-.3-5-4.9-9-10.5-9ZM14 396.8H9v2h4c3.3 0 5-2.7 5-6a4 4 0 0 1-4 4Z"/><path fill="#000" d="m53 378.6 5.3 16.2h-2l-1.5-4.7h-6.5l-1.5 4.7h-1.9l5.3-16.2H53Zm-4.2 9.9h5.5l-1.7-5.5-1-3.1h-.1l-.9 3-1.8 5.6Zm21.4.9v-10.8H72v10.6c0 3.9-2.2 5.9-5.9 5.9s-5.6-2.1-5.6-5.6v-11h1.8v10.7c0 2.9 1.6 4.2 4 4.2s3.9-1.1 3.9-4Zm8.5-9.1h-4.3v-1.7h10.5v1.7h-4.3v14.5h-1.9v-14.5ZM92.1 395c-3.9 0-6.3-2.2-6.3-8.2 0-6 2.5-8.4 6.4-8.4 3.9 0 6.3 2.3 6.3 8.2 0 5.9-2.6 8.5-6.4 8.5Zm.1-1.6c2.7 0 4.4-1.6 4.4-6.6s-1.8-6.8-4.5-6.8-4.4 1.6-4.4 6.6 1.8 6.8 4.5 6.8Zm9.8-14.8h4.3c4.9 0 7.1 2.5 7.1 8s-2.1 8.2-7.1 8.2H102v-16.2Zm1.9 14.6h2.4c3.5 0 5.2-1.8 5.2-6.4 0-4.6-1.9-6.5-5.4-6.5h-2.2v12.9Zm13.1 1.6v-16.2h8.6v1.7h-6.8v5.5h6v1.6h-6v5.8h7.1v1.6H117Zm19.3-4.1c0-3.7-7.7-3-7.7-8 0-2.4 2.1-4.3 5-4.3a7 7 0 0 1 4.2 1.3l-1.1 1.5c-.9-.8-2-1.2-3.2-1.1-1.9 0-3 1-3 2.5 0 3.8 7.7 3 7.7 8 0 2.4-1.9 4.5-5.4 4.5-1.8 0-3.7-.6-5.1-1.7l1.1-1.5c1.2 1 2.7 1.5 4.2 1.5 2.2 0 3.3-1.2 3.3-2.7Zm7.1 4.1h-1.9v-16.2h1.9v16.2Zm6.3-16.2h2.2l-5.8 8 6.3 8.2H150l-6-8 5.7-8.2Zm11.4 7.1a4.2 4.2 0 0 1-3.4 1.4 4.4 4.4 0 0 1-3.4-1.4 4.8 4.8 0 0 1 0-6.8 4.5 4.5 0 0 1 3.4-1.5 5.1 5.1 0 0 1 4.9 4.9 4.5 4.5 0 0 1-1.5 3.4Zm-6.3-6.4a4 4 0 0 0-1.2 3 4 4 0 0 0 1.2 2.9 3.7 3.7 0 0 0 2.9 1.3 3.9 3.9 0 0 0 3-1.3 4 4 0 0 0 1.2-3 4.1 4.1 0 0 0-4.2-4.1 4 4 0 0 0-2.9 1.2Zm2.8.3 1.5.2a1.3 1.3 0 0 1 .8 1.3 1.3 1.3 0 0 1-.5 1l-.8.3c.4 0 .7.3.9.6a1.1 1.1 0 0 1 .3.8v.8l.1.2h-.9v-.6a1.4 1.4 0 0 0-.5-1.2l-1.1-.2h-.7v2h-.9v-5.2h1.8Zm1 .8-1.1-.2h-.8v2h.8l.9-.2a.8.8 0 0 0 .6-.8.8.8 0 0 0-.4-.8Zm25.8-.5c.5.7.8 1.6.8 2.6a3.6 3.6 0 0 1-2.1 3.4c.8.2 1.5.7 1.9 1.5.5.7.7 1.5.7 2.4a6 6 0 0 1-.7 2.7l-1.2 1.3c-.6.4-1.2.6-1.9.8a9 9 0 0 1-2.4.2H172v-16.6h8.1a5.2 5.2 0 0 1 4.3 1.7Zm-9.1 1.2v3.6h4.1a4 4 0 0 0 1.8-.4c.4-.2.6-.7.6-1.4a1.6 1.6 0 0 0-.9-1.6l-1.9-.2h-3.7Zm0 6.4v4.4h4.1c.6 0 1.2 0 1.7-.2a2.2 2.2 0 0 0 1.1-2.1 1.8 1.8 0 0 0-1.1-1.8c-.5-.3-1.1-.4-1.7-.3h-4.1Zm16.6 7.3h-3.5v-16.6h3.5v16.6Zm14.3-16.6h5v16.6H208v-14l-3.2 14h-3.4l-3.1-14v14h-3.2v-16.6h5l3.1 13 3-13Zm16.7 11.6c0 .5 0 1 .3 1.6a2.1 2.1 0 0 0 2.1 1.2c.6 0 1.2-.2 1.7-.6.5-.6.7-1.2.7-2a2.3 2.3 0 0 0-1.3-2.1 7 7 0 0 0-2.4-.3v-2.3c.7 0 1.5 0 2.2-.3a1.8 1.8 0 0 0 1.1-2 2 2 0 0 0-.6-1.4 1.8 1.8 0 0 0-1.5-.6 1.9 1.9 0 0 0-1.7.7c-.3.5-.5 1.2-.5 1.9h-3c0-.8.2-1.6.4-2.3.3-.7.8-1.3 1.3-1.7a5 5 0 0 1 1.5-1c.7-.2 1.4-.3 2.1-.2 1.4-.1 2.7.3 3.8 1.2a4.3 4.3 0 0 1 .6 5.7c-.3.3-.7.6-1.2.8.5 0 1 .4 1.3.8a4.1 4.1 0 0 1 1.2 3c0 1.4-.5 2.8-1.4 3.8a5.8 5.8 0 0 1-4.3 1.6c-2.3 0-3.9-.8-4.8-2.3-.5-1-.8-2.1-.8-3.2h3.2Zm17.6-7.2c0-.4-.1-.7-.3-1a2 2 0 0 0-1.6-.7 2.2 2.2 0 0 0-2.2 1.8c-.4.9-.5 1.9-.5 2.9.3-.5.8-.9 1.3-1.1a5.8 5.8 0 0 1 3.8 0c.6.3 1.2.7 1.6 1.2a5 5 0 0 1 1.4 3.8c0 1.4-.4 2.8-1.3 4a5.1 5.1 0 0 1-4.3 1.8 5 5 0 0 1-4.6-2.6c-.8-1.7-1.1-3.4-1.1-5.2 0-1 0-2.1.2-3.1a6 6 0 0 1 1.1-3.5 5 5 0 0 1 1.8-2 5 5 0 0 1 2.7-.6 5 5 0 0 1 3.7 1.2 4.2 4.2 0 0 1 1.5 3h-3.2Zm-3.9 9.2a2.2 2.2 0 0 0 1.9.8 1.7 1.7 0 0 0 1.6-.8 2.8 2.8 0 0 0 .7-2.1c0-.8-.2-1.6-.7-2.2a2.4 2.4 0 0 0-1.8-.7 2 2 0 0 0-1.4.5 3 3 0 0 0-1 2.4c0 .7.2 1.5.7 2Zm19-11.3a15.9 15.9 0 0 1 0 12.6 4.7 4.7 0 0 1-4.4 2.2 4.8 4.8 0 0 1-4.4-2.2c-1.6-4-1.6-8.6 0-12.6a4.8 4.8 0 0 1 4.4-2.2 4.7 4.7 0 0 1 4.4 2.2Zm-6.3 10.6a1.9 1.9 0 0 0 1.9 1.5 1.8 1.8 0 0 0 1.9-1.5c.4-1.4.5-2.9.5-4.3 0-1.5-.1-3-.5-4.4a1.8 1.8 0 0 0-1.9-1.4 1.9 1.9 0 0 0-1.9 1.4 16 16 0 0 0-.4 4.4c0 1.4 0 2.9.4 4.3Z"/></g><g opacity=".4"><path fill="url(#h)" d="M350 408.3h61.4v-61.5H350v61.5Z"/><path fill="#fff" d="M398.2 365.9a16.5 16.5 0 0 0-23.3 0l-.4.3-2.3-.2a13.9 13.9 0 0 0-9.9 4.2 14 14 0 0 0 10 23.9h14.6a16.5 16.5 0 0 0 11.3-28.2ZM372.3 391a11.2 11.2 0 0 1-7.8-19c2.1-2 5-3 7.8-3.1h1.6l1.7.4c1.1.3 2 .8 3 1.5l1.1 1 .4.3 4.4 4.5a1.6 1.6 0 0 1 0 2.2 1.3 1.3 0 0 1-1 .4 1.5 1.5 0 0 1-1-.4l-3.8-3.6-.7-.8-.4-.4a8 8 0 0 0-3.7-1.8h-1.6a7.9 7.9 0 0 0 .2 15.8h1.4l1.3 1.2c.7.7 1.4 1.3 2.2 1.8h-5Zm23.8-4c-1.3 1.4-3 2.4-4.9 3l-1.7.6c-.8.2-1.7.4-2.7.4h-.3c-3 0-6-1.1-8.5-3.1l-1-1-6.3-6.2a1.6 1.6 0 0 1 0-2.2 1.3 1.3 0 0 1 1-.4 1.5 1.5 0 0 1 1.1.4l6.2 6.3 2 1.5a10.5 10.5 0 0 0 7.9 1.2c.6-.1 1.2-.3 1.6-.6a9.6 9.6 0 0 0 3.3-2.2 10.5 10.5 0 0 0 0-14.7 10.6 10.6 0 0 0-13.2-1.2 10 10 0 0 0-2.8-1.7 13.5 13.5 0 1 1 18.3 19.9Z"/><path fill="#000" d="M332.4 421.8h1.8l-.9-2.9-1 2.9Zm0-4.5h1.8l2.6 7.2H335l-.4-1.5H332l-.5 1.5h-1.6l2.6-7.2Zm7.1 1.7a1.7 1.7 0 0 1 1.5.9v-2.6h1.4v7.2h-1.3v-.7a2 2 0 0 1-.7.7 2 2 0 0 1-1 .2 2 2 0 0 1-1.5-.8 3 3 0 0 1-.7-2c0-.8.2-1.5.7-2a2 2 0 0 1 1.6-.8Zm.3 4.5c.4 0 .7-.1 1-.4.2-.3.3-.7.3-1.2 0-.6-.2-1-.5-1.4a1 1 0 0 0-.7-.2c-.5 0-.8.1-1 .4l-.2 1.2c0 .5 0 .9.3 1.2.2.3.5.4.8.4Zm6.3 0c.4 0 .7-.1 1-.4.2-.3.3-.7.3-1.2 0-.6-.1-1-.3-1.3-.3-.3-.6-.4-1-.4s-.7.1-1 .4a2 2 0 0 0-.3 1.3c0 .5.2 1 .4 1.2.2.3.5.4 1 .4Zm2.8-1.6c0 .8-.3 1.4-.7 2-.5.5-1.2.8-2 .8-1 0-1.7-.3-2.1-.8-.5-.6-.7-1.2-.7-2s.2-1.5.7-2c.4-.6 1.1-.9 2-.9 1 0 1.6.3 2 .9.5.5.8 1.2.8 2Zm3.9-2.9a2 2 0 0 1 1.6.8c.4.5.6 1.2.6 2s-.2 1.5-.6 2a2 2 0 0 1-1.6.9 2 2 0 0 1-1-.3c-.2 0-.4-.3-.6-.5v.6h-1.4v-7.2h1.4v2.6l.6-.6c.3-.2.6-.2 1-.2Zm-.4 4.5c.4 0 .6-.1.8-.4.2-.3.3-.7.3-1.2l-.1-1a1 1 0 0 0-1-.6 1 1 0 0 0-1 .7c-.2.2-.2.5-.2 1 0 .4 0 .8.3 1 .2.4.5.5.9.5Zm5.7-3.3a1 1 0 0 0-.7.3l-.4.8h2.2c0-.3-.1-.6-.3-.8a1 1 0 0 0-.8-.3Zm0-1.2c.5 0 .9.1 1.2.3.4.2.7.4 1 .8l.3 1v1.1H357c0 .6.2 1 .5 1.2l.7.2c.3 0 .5-.1.7-.3l.3-.3h1.4c0 .3-.2.6-.5 1-.5.4-1 .7-2 .7-.6 0-1.2-.2-1.7-.6a3 3 0 0 1-.8-2.2c0-1 .2-1.6.7-2.1.5-.5 1-.8 1.8-.8Zm6.1 2c0-1.3.4-2.3 1-3a3 3 0 0 1 2.3-.8c1.2 0 2 .4 2.7 1.2.3.4.4.9.5 1.3H369a2 2 0 0 0-.3-.8 1.7 1.7 0 0 0-2.6.2c-.3.5-.4 1-.4 1.9 0 .8.1 1.4.5 1.8.3.4.7.6 1.2.6.6 0 1-.1 1.3-.5l.3-.8h1.5c0 .8-.4 1.4-1 1.9a3 3 0 0 1-2 .7c-1 0-1.9-.3-2.5-1a4 4 0 0 1-.9-2.7Zm10.4-2h.2v1.5a3.5 3.5 0 0 0-.4 0c-.6 0-1 .2-1.2.5l-.1 1v2.5h-1.4v-5.3h1.3v1l.6-.8c.2-.2.6-.3 1-.3Zm3.1 1.2a1 1 0 0 0-.7.3l-.4.8h2.2c0-.3-.1-.6-.3-.8a1 1 0 0 0-.8-.3Zm0-1.2c.5 0 .9.1 1.2.3.4.2.7.4 1 .8l.3 1v1.1h-3.6c0 .6.2 1 .5 1.2l.7.2c.3 0 .5-.1.7-.3l.3-.3h1.4c0 .3-.2.6-.5 1a3 3 0 0 1-2 .7c-.6 0-1.2-.2-1.7-.6-.6-.5-.8-1.2-.8-2.2 0-1 .2-1.6.7-2.1.5-.5 1-.8 1.8-.8Zm6.5 3a1.6 1.6 0 0 1-.7.2h-.3a2 2 0 0 0-.6.2c-.2.1-.4.3-.4.6l.2.5.5.2.9-.3c.2-.2.4-.5.4-1v-.5Zm-.9-.7.6-.1c.2-.1.3-.3.3-.4 0-.3-.1-.4-.3-.5l-.6-.1c-.4 0-.6 0-.7.2a1 1 0 0 0-.2.5H381c0-.5.2-.8.4-1.1.4-.5 1-.7 2-.7.5 0 1 0 1.5.3.4.2.7.7.7 1.3v2.5a26.3 26.3 0 0 0 0 1l.3.1v.2h-1.6v-.6l-.8.5a2 2 0 0 1-1 .3c-.5 0-.9-.1-1.2-.4a1.7 1.7 0 0 1 .3-2.6l1.2-.4h.5Zm3-1.1v-1h.7v-1.5h1.4v1.5h.9v1h-1v2.9l.2.4h.8v1l-.7.1c-.7 0-1.1 0-1.4-.3l-.2-.8v-3.3h-.7Zm5.3-1.7h-1.4v-1.3h1.4v1.3Zm-1.4.7h1.4v5.3h-1.4v-5.3Zm6.1 0h1.5l-2 5.3h-1.4l-2-5.3h1.6l1.1 4 1.2-4Zm4.4 1a1 1 0 0 0-.8.3c-.2.2-.3.5-.3.8h2.2c0-.3-.2-.6-.4-.8a1 1 0 0 0-.7-.3Zm0-1.2 1.2.3.9.8.4 1v1.1h-3.7c0 .6.2 1 .6 1.2l.6.2c.3 0 .6-.1.8-.3l.2-.3h1.4c0 .3-.2.6-.5 1-.4.4-1 .7-1.9.7-.7 0-1.3-.2-1.8-.6a3 3 0 0 1-.8-2.2c0-1 .3-1.6.7-2.1.5-.5 1.1-.8 1.9-.8Zm6.1 2c0-1.3.3-2.3 1-3a3 3 0 0 1 2.2-.8c1.2 0 2.1.4 2.7 1.2.3.4.5.9.5 1.3h-1.5a2 2 0 0 0-.4-.8c-.3-.3-.7-.5-1.2-.5-.6 0-1 .3-1.3.7-.3.5-.5 1-.5 1.9 0 .8.2 1.4.5 1.8.3.4.8.6 1.3.6s1-.1 1.2-.5l.4-.8h1.5c-.1.8-.5 1.4-1 1.9a3 3 0 0 1-2 .7c-1.1 0-2-.3-2.6-1a4 4 0 0 1-.8-2.7Zm8.9 3.5h-1.4v-7.2h1.4v7.2Zm3.7-1c.4 0 .8-.1 1-.4.2-.3.3-.7.3-1.2 0-.6-.1-1-.3-1.3-.2-.3-.6-.4-1-.4s-.7.1-1 .4a2 2 0 0 0-.2 1.3c0 .5 0 1 .3 1.2.2.3.5.4 1 .4Zm2.8-1.6c0 .8-.3 1.4-.7 2-.5.5-1.1.8-2 .8-1 0-1.7-.3-2.1-.8-.5-.6-.7-1.2-.7-2s.2-1.5.7-2c.4-.6 1.1-.9 2-.9 1 0 1.6.3 2 .9.5.5.8 1.2.8 2Zm2.4-2.7v3.8c.2.3.5.4.8.4.5 0 .8-.2 1-.6l.2-.8v-3h1.4v5.4h-1.4v-.7.1l-.3.2a2 2 0 0 1-.6.4l-.7.2c-.8 0-1.4-.3-1.6-.9-.2-.3-.3-.8-.3-1.4v-3.2h1.5Zm6.7-.2a1.7 1.7 0 0 1 1.5.9v-2.6h1.4v7.2h-1.4v-.7a2 2 0 0 1-.6.7 2 2 0 0 1-1 .2 2 2 0 0 1-1.6-.8 3 3 0 0 1-.6-2c0-.8.2-1.5.6-2a2 2 0 0 1 1.7-.8Zm.3 4.5c.4 0 .7-.1 1-.4l.2-1.2c0-.6-.1-1-.5-1.4a1 1 0 0 0-.7-.2c-.4 0-.7.1-.9.4-.2.3-.3.7-.3 1.2s.1.9.3 1.2c.2.3.5.4 1 .4Z" opacity=".5"/></g><g opacity=".4"><path fill="#5F5A5B" d="M520.9 402v12.4c0 4.7-5.2 4.8-5.2 4.8s-5.3-.1-5.3-4.8V402s-.2-2.1-3.2-2.1v14.7a8.1 8.1 0 0 0 8.5 7.3 8 8 0 0 0 8.4-7.3V400c-2.9 0-3.2 2-3.2 2Zm73 0v12.4c0 4.7-5.2 4.8-5.2 4.8s-5.3-.1-5.3-4.8V402s-.2-2.1-3.2-2.1v14.7a8.5 8.5 0 0 0 16.9 0V400c-3 0-3.2 2-3.2 2ZM553 414.7V400c-2.9 0-3.2 2-3.2 2v19.7h3.2v-7Zm52.9 0V400c-3 0-3.2 2-3.2 2v19.7h3.2v-7Zm24.8 0V400c-3 0-3.2 2-3.2 2v19.7h3.2v-7Zm-92.3 4.5h-5.7v-7.3h5.8c.5 0 3 .4 3 3.6a3.7 3.7 0 0 1-3.1 3.7Zm-5.7-16.4h4.8a3.1 3.1 0 0 1 3.3 3.3c0 3-3.2 3.2-3.2 3.2h-4.9v-6.5Zm8.2 7.7a5.6 5.6 0 0 0 3.1-5c0-3.4-3.2-5.5-6.2-5.5h-8.2v21.7h10.5s4.5-1.2 4.5-5.3-2.4-6-3.7-6Zm25.6 8.8c-4.2 0-6.2-3.7-6.2-8.3 0-4.6 2-8.3 6.2-8.3s6.2 3.7 6.2 8.3c0 4.6-2 8.3-6.2 8.3Zm10.2-.4h-3.9c2-2.1 3.1-5 3.1-7.8 0-4.8-2.1-11.1-9.6-11.1 0 0-8.7-.6-9.3 10.9-.6 11.5 9.3 10.8 9.3 10.8 2.4-.3 4.9-.4 7.3-.3h5s-.2-2.5-1.9-2.5Zm48.1-16.2H609V400h15.8v2.7Z"/><path fill="#5F5A5B" d="M618.6 400v21.7h-3.1V400h3.1Z"/><path fill="#279EDA" fill-rule="evenodd" d="M549.2 340h-3.1v-3.3h3.1v3.3Zm6.2 16.3h-3.1V353h3.1v3.3Zm0-10.1h-3.1V343h3.1v3.2Zm3.1-3.2h-3.1v-3.2h3.1v3.2Zm0 8.6h-3.1v-3.2h3.1v3.2Zm3.1-3.9h-3.1v-3.2h3.1v3.2Z" clip-rule="evenodd"/><path fill="#279EDA" fill-rule="evenodd" d="M546.1 345.2h3.1v17.3h3v-3.1h3.2v6.8h3.2v-11.3h3.1v23.3A19.3 19.3 0 0 0 571 393c-9.2 0-24.9-4.2-24.9-22.8v-25Z" clip-rule="evenodd"/><path fill="url(#i)" d="M0 0h34.3v24.7H0z" transform="matrix(1 0 0 -1 563 393.3)"/><path fill="#12100B" fill-rule="evenodd" d="M579.9 381.8s12.4-.7 16.1-17.4v-27.2s-15.6-1.8-15.6 9.7-.5 34.9-.5 34.9Z" clip-rule="evenodd"/><path fill="#5E5B5B" d="M508 428.3h1.2l2.9 4.7v-4.7h1.1v6.4H512l-2.9-4.7v4.7H508v-6.4Zm16.9 0h4.6v1H526v1.7h3.2v.9H526v1.8h3.5v1h-4.6v-6.4Zm15.6 0h5.2v1h-2v5.4h-1.2v-5.4h-2v-1Zm16.2 0h1.1l1.2 4.9 1.3-5h1.1l1.3 5 1.2-5h1.1l-1.8 6.5h-1.1l-1.3-5-1.3 5h-1.1l-1.7-6.4Zm19.9 3.2c0 1.2.5 2.4 1.9 2.4s1.9-1.2 1.9-2.4-.5-2.4-1.9-2.4-1.9 1.2-1.9 2.4Zm5 0a3 3 0 0 1-1.9 3l-1.2.3a3.3 3.3 0 0 1 0-6.6 3 3 0 0 1 3.1 3.3Zm12.7-.2h1.9a1 1 0 0 0 1-.7l.1-.4c0-.8-.6-1-1.1-1h-1.9v2Zm-1.1-3h3.1c1.4 0 2.1.7 2.1 1.8a1.6 1.6 0 0 1-1.1 1.6 1.2 1.2 0 0 1 1 1.3c0 .5 0 1.1.3 1.7h-1.2l-.1-1c0-1.1-.3-1.6-1.3-1.6h-1.7v2.6h-1.1v-6.3Zm16.7.1h1.1v2.9l2.8-3h1.4l-2.5 2.6 2.7 3.8H614l-2.1-3-.9.9v2h-1.1v-6.2Zm17.1 4.2c0 1 .7 1.4 1.6 1.4.9 0 1.4-.5 1.4-1a.8.8 0 0 0-.5-.8l-1.9-.5a1.6 1.6 0 0 1-1.4-1.6c0-1.3 1.1-2 2.3-2 1.2 0 2.4.8 2.4 2h-1.1c0-.7-.6-1-1.4-1-.8 0-1.1.2-1.1.8 0 .6.3.7.7.9l1.9.5a1.6 1.6 0 0 1 1.2 1.6c0 1.4-1.3 2-2.5 2s-2.7-.7-2.7-2.3h1.1Z"/></g><defs><linearGradient id="a" x1="479.4" x2="479.4" y1="75" y2="150" gradientUnits="userSpaceOnUse"><stop stop-color="#0091E6"/><stop offset="1" stop-color="#0079BF"/></linearGradient><linearGradient id="c" x1="1276.4" x2="1158" y1="7682.5" y2="7759.4" gradientUnits="userSpaceOnUse"><stop offset=".2" stop-color="#0052CC"/><stop offset="1" stop-color="#2684FF"/></linearGradient><linearGradient id="d" x1="1309.8" x2="1427.9" y1="8071.6" y2="7994.9" gradientUnits="userSpaceOnUse"><stop offset=".2" stop-color="#0052CC"/><stop offset="1" stop-color="#2684FF"/></linearGradient><linearGradient id="e" x1="243.2" x2="222.6" y1="310.1" y2="298.2" gradientUnits="userSpaceOnUse"><stop offset=".2" stop-color="#0052CC"/><stop offset="1" stop-color="#2684FF"/></linearGradient><linearGradient id="f" x1="83360.4" x2="83733.7" y1="172385" y2="172813" gradientUnits="userSpaceOnUse"><stop offset=".2" stop-color="#0052CC"/><stop offset="1" stop-color="#2684FF"/></linearGradient><linearGradient id="h" x1="375.4" x2="375.4" y1="407.3" y2="343.9" gradientUnits="userSpaceOnUse"><stop stop-color="#911A1E"/><stop offset="1" stop-color="#D61E25"/></linearGradient><radialGradient id="b" cx="0" cy="0" r="1" gradientTransform="matrix(28.3467 0 0 26.2014 51.2 207.6)" gradientUnits="userSpaceOnUse"><stop stop-color="#FFB900"/><stop offset=".6" stop-color="#F95D8F"/><stop offset="1" stop-color="#F95353"/></radialGradient><clipPath id="g"><path fill="#fff" d="M0 0h52v52H0z" transform="translate(577 267.7)"/></clipPath><pattern id="i" width="1" height="1" patternContentUnits="objectBoundingBox"><use xlink:href="#j" transform="scale(.00377 .00524)"/></pattern></defs></svg>