<svg xmlns="http://www.w3.org/2000/svg" fill="none" viewBox="0 0 685 435"><g xmlns="http://www.w3.org/2000/svg" class="ptsel" id="GoogleWorkSpace" opacity=".4"><rect xmlns="http://www.w3.org/2000/svg" x="0" y="0" width="280" height="70" style="fill: transparent;"/><path id="Vector" fill="#5F6368" d="M141.2 17.1h3.2l-6.3 23.8h-3.2l-5.1-15.7h-.1l-5.1 15.7h-3.1l-6.6-23.8h3.2l5 18.7h.1l5.2-15.5h2.8l5.1 15.5h.2l4.7-18.7Zm2.9 15.7a8.4 8.4 0 0 1 8.4-8.7c2.2 0 4.4.8 5.9 2.5a8.39 8.39 0 0 1 2.4 6.2 8.4 8.4 0 0 1-5 8c-1.1.4-2.2.6-3.3.6-3.5 0-6.6-2-7.8-5.3-.4-1-.6-2.2-.6-3.3Zm3.1 0c0 1.5.5 3 1.5 4.2a5 5 0 0 0 3.8 1.6c1.4 0 2.8-.6 3.8-1.6a6 6 0 0 0 1.5-4.2c0-1.5-.5-3-1.5-4.2a5.2 5.2 0 0 0-5.9-1.3c-2 1-3.4 3.2-3.2 5.5Zm18.8 8.1h-3V24.6h2.9v2.7h.1c.4-1 1-1.7 1.9-2.2 1.5-1 3.4-1.2 5.1-.5l-.9 2.9-1.8-.2c-1.2 0-2.3.5-3 1.4-.9.8-1.3 2-1.3 3.2v9Zm22.7 0H185l-5-7.7-2.5 2.5v5.2h-3.1V17.1h3.1v14.6l7-7.1h3.9v.2l-6.3 6.3 6.6 9.6v.2Zm13.2-4.5c0 1.4-.7 2.8-1.8 3.6-1.4 1-3 1.4-4.7 1.4-3 0-5.8-1.8-6.9-4.6l2.7-1.2c.6 1.8 2.3 3 4.2 3.1a5 5 0 0 0 2.4-.6c.6-.3 1-.8 1-1.5 0-1.1-.8-1.8-2.4-2.3l-2.8-.7c-3.1-.8-4.7-2.4-4.7-4.6a4 4 0 0 1 1.8-3.5 7 7 0 0 1 4.6-1.4c1.4 0 2.7.3 3.9 1 1.1.6 2 1.6 2.5 2.8l-2.8 1.1a3 3 0 0 0-1.5-1.6c-.7-.4-1.5-.7-2.3-.6a4 4 0 0 0-2.1.6c-.6.3-1 .8-1 1.4 0 1 .9 1.6 2.6 2l2.5.7c3.2.8 4.8 2.4 4.8 4.9Zm10.6 5c-1.2 0-2.3-.2-3.3-.8-1-.4-1.7-1.1-2.2-2h-.2l.2 2.3v7.2h-3.1V24.6h2.9v2.3h.2a7 7 0 0 1 2.2-2c3-1.5 6.6-.8 8.8 1.7 3 3.5 3 8.8 0 12.3a7 7 0 0 1-5.5 2.5Zm-.5-2.8c1.4 0 2.8-.5 3.7-1.6 2-2.4 2-6 0-8.4a4.9 4.9 0 0 0-7.4 0c-2 2.4-2 6 0 8.4 1 1 2.3 1.6 3.7 1.6Zm16.6-14.5c2-.1 3.8.5 5.3 1.8a6.39 6.39 0 0 1 2 5v10H233v-2.3h-.2c-1 1.8-3 2.9-5 2.8-1.6 0-3.2-.5-4.5-1.6a5 5 0 0 1-1.8-4c0-1.6.7-3 1.9-4 2.9-1.8 6.5-2 9.5-.5v-.7c0-1-.4-2-1.2-2.7a4.2 4.2 0 0 0-2.9-1.2 5 5 0 0 0-4.1 2.2l-2.7-1.7a8 8 0 0 1 6.6-3.1Zm-3.9 11.8c0 .8.3 1.6 1 2a4 4 0 0 0 2.3.8c1.3 0 2.5-.5 3.5-1.4a5 5 0 0 0 1.5-3.4 6.8 6.8 0 0 0-4-1.1 5 5 0 0 0-3.1.9c-.8.4-1.2 1.3-1.2 2.2Zm21.5 5.5a8 8 0 0 1-5.9-2.4 8.8 8.8 0 0 1-2.4-6.2 8.77 8.77 0 0 1 5.07-8.11 7.5 7.5 0 0 1 3.23-.59c3.1 0 6 1.8 7.1 4.7l-2.7 1.1c-.7-1.9-2.6-3-4.6-3-1.4 0-2.7.6-3.6 1.7a6.6 6.6 0 0 0 0 8.3 5 5 0 0 0 3.6 1.7c2 .1 4-1.1 4.7-3.1l2.7 1.2a7.7 7.7 0 0 1-7.2 4.7Zm16.4 0c-2.2 0-4.3-.8-5.8-2.4a8.6 8.6 0 0 1-2.4-6.2c0-2.3.8-4.5 2.3-6.2a7.3 7.3 0 0 1 5.8-2.5c2.1 0 4.2.8 5.7 2.3a9.7 9.7 0 0 1 2.2 6.6v.3h-12.8a5.01 5.01 0 0 0 1.6 3.9c1 1 2.3 1.5 3.6 1.4a5 5 0 0 0 4.6-2.9l2.7 1.4a8.6 8.6 0 0 1-3.1 3.2 9 9 0 0 1-4.4 1.1Zm-4.8-10.6h9.3c0-1-.6-2-1.4-2.8a4.4 4.4 0 0 0-3.3-1.1c-1 0-2.2.3-3 1a5 5 0 0 0-1.6 2.9Z"/><path id="Vector_2" fill="#4285F4" d="M13.7 30.5v-3.7H26c.2.8.2 1.5.2 2.3.1 3.2-1 6.2-3.1 8.6a12.6 12.6 0 0 1-9.4 3.7C6.2 41.4.2 35.4 0 28a13.7 13.7 0 0 1 18.7-12.6c1.6.7 3 1.6 4.2 2.8l-2.6 2.6a9.3 9.3 0 0 0-6.7-2.6 9.8 9.8 0 0 0 0 19.5 9 9 0 0 0 6.8-2.6 7.8 7.8 0 0 0 2-4.6h-8.7ZM82 40.1c0 6.4-3.7 9-8.2 9-3.4 0-6.4-2-7.7-5.1l3.4-1.4a4.5 4.5 0 0 0 4.3 3.1c2.9 0 4.7-1.7 4.7-5.1v-1.2h-.2a6 6 0 0 1-4.5 2 8.7 8.7 0 1 1 0-17.4 6 6 0 0 1 4.5 2h.2v-1.5H82v15.6Zm-3.3-7.3c0-3-2-5.3-4.6-5.3a5 5 0 0 0-4.8 5.3 5 5 0 0 0 4.8 5.2c2.6 0 4.6-2.2 4.6-5.2Z"/><path id="Vector_3" fill="#EA4335" d="M44.9 32.8a8.7 8.7 0 1 1-8.6-8.7 8.4 8.4 0 0 1 8.6 8.7Zm-3.8 0a5 5 0 0 0-4.8-5.3 5.3 5.3 0 0 0 0 10.5 5 5 0 0 0 4.8-5.2Zm62.1 2.8 2.9 2a8.8 8.8 0 0 1-10.5 3.2 8.5 8.5 0 0 1-5.3-8.1 8.2 8.2 0 0 1 8.2-8.6c4.4 0 6.6 3.6 7.4 5.5l.4 1-11.6 4.7a4.4 4.4 0 0 0 4.2 2.7 5 5 0 0 0 4.3-2.4Zm-9.1-3.1 7.7-3.2a3.3 3.3 0 0 0-3.2-1.8 4.7 4.7 0 0 0-4.5 5Z"/><path id="Vector_4" fill="#FBBC04" d="M63.9 32.8a8.7 8.7 0 1 1-17.4 0 8.7 8.7 0 0 1 17.4 0Zm-3.8 0a4.9 4.9 0 1 0-4.9 5.2 5 5 0 0 0 4.9-5.2Z"/><path id="Vector_5" fill="#34A853" d="M88.5 15.5h-3.8v25.3h3.8V15.5Z"/></g><g xmlns="http://www.w3.org/2000/svg" class="ptsel" id="Office365" opacity=".4"><rect xmlns="http://www.w3.org/2000/svg" x="280" y="0" width="180" height="70" style="fill: transparent;"/><path id="Office 365" fill="#8F8F8F" d="M380.73 30.97c0 1.47-.28 2.72-.83 3.75a5.79 5.79 0 0 1-2.26 2.36c-.95.53-2.02.8-3.2.8-1.2 0-2.28-.27-3.23-.81a5.8 5.8 0 0 1-2.25-2.36 7.81 7.81 0 0 1-.83-3.74c0-1.46.28-2.71.83-3.74a5.76 5.76 0 0 1 2.25-2.35 6.37 6.37 0 0 1 3.22-.82c1.19 0 2.26.27 3.2.82.96.53 1.72 1.32 2.27 2.35.56 1.03.83 2.28.83 3.74Zm-2.88 0a6 6 0 0 0-.43-2.4 3.25 3.25 0 0 0-1.19-1.49 3.2 3.2 0 0 0-1.8-.5 3.2 3.2 0 0 0-1.8.5 3.3 3.3 0 0 0-1.2 1.49 6.1 6.1 0 0 0-.41 2.4c0 .95.14 1.75.42 2.4a3.3 3.3 0 0 0 1.2 1.5c.5.33 1.1.5 1.8.5a3.2 3.2 0 0 0 1.8-.5c.5-.35.9-.84 1.18-1.5a6 6 0 0 0 .43-2.4Zm10.36-3.36v2.1H382v-2.1h6.22Zm-4.8 10.09V26.88c0-.73.14-1.34.43-1.82s.68-.84 1.18-1.08c.5-.24 1.07-.37 1.7-.37a6.48 6.48 0 0 1 1.98.28l-.5 2.1a3.46 3.46 0 0 0-.9-.14c-.4 0-.7.1-.85.29-.16.19-.25.45-.25.8V37.7h-2.79Zm11.94-10.1v2.11h-6.23v-2.1h6.23Zm-4.8 10.1V26.88c0-.73.14-1.34.43-1.82.28-.48.68-.84 1.18-1.08.5-.24 1.06-.37 1.7-.37a6.46 6.46 0 0 1 1.98.28l-.5 2.1a3.54 3.54 0 0 0-.9-.14c-.4 0-.7.1-.86.29-.16.19-.24.45-.24.8V37.7h-2.8Zm6.51 0V27.6h2.8v10.1h-2.8Zm1.4-11.4c-.41 0-.77-.13-1.06-.4-.3-.29-.44-.62-.44-1.01s.14-.72.44-1c.3-.27.65-.41 1.07-.41.41 0 .77.14 1.06.42a1.33 1.33 0 0 1 0 2c-.3.27-.65.4-1.06.4Zm8.2 11.6a5.17 5.17 0 0 1-2.67-.66 4.44 4.44 0 0 1-1.7-1.84c-.4-.78-.6-1.69-.6-2.7 0-1.04.2-1.95.6-2.73.4-.78.98-1.4 1.72-1.83a5.05 5.05 0 0 1 2.64-.66c.88 0 1.65.16 2.31.48.66.32 1.18.77 1.57 1.34.39.58.6 1.26.64 2.04h-2.64c-.08-.5-.27-.9-.6-1.21a1.7 1.7 0 0 0-1.24-.47c-.43 0-.8.12-1.13.35-.32.24-.57.58-.75 1.02-.18.45-.27.99-.27 1.62 0 .65.09 1.2.26 1.65.18.45.43.8.76 1.03.32.23.7.35 1.13.35.32 0 .61-.06.86-.2.26-.13.47-.32.64-.57.17-.25.28-.55.34-.9h2.64a4.13 4.13 0 0 1-.63 2.03 3.81 3.81 0 0 1-1.55 1.36c-.65.33-1.43.5-2.33.5Zm10.9 0a5.4 5.4 0 0 1-2.68-.63 4.32 4.32 0 0 1-1.72-1.8c-.4-.78-.6-1.7-.6-2.77 0-1.04.2-1.95.6-2.73.4-.79.97-1.4 1.7-1.84.73-.43 1.6-.65 2.59-.65.66 0 1.28.1 1.86.32a4.12 4.12 0 0 1 2.52 2.56c.24.63.36 1.38.36 2.24v.77h-8.52v-1.73h5.88c0-.4-.08-.76-.26-1.07a1.88 1.88 0 0 0-.73-.73c-.3-.18-.66-.27-1.07-.27-.42 0-.8.1-1.13.3-.32.19-.58.45-.76.77-.18.33-.28.69-.28 1.09v1.65c0 .5.09.93.27 1.3.2.35.46.64.8.83.34.2.75.3 1.21.3.31 0 .6-.05.86-.13a1.72 1.72 0 0 0 1.08-1.04l2.59.17c-.13.62-.4 1.16-.8 1.63-.41.46-.93.82-1.57 1.08a5.9 5.9 0 0 1-2.2.38Zm15.68-.02c-.98 0-1.85-.16-2.62-.5a4.48 4.48 0 0 1-1.8-1.4c-.44-.6-.67-1.3-.68-2.08H431c.02.32.13.61.33.86s.47.44.8.58c.33.13.7.2 1.12.2.43 0 .82-.08 1.15-.23.33-.15.6-.37.78-.64.2-.27.28-.58.28-.94s-.1-.67-.3-.95c-.2-.28-.48-.5-.85-.66-.37-.16-.8-.23-1.31-.23h-1.26v-2.1h1.25c.43 0 .81-.07 1.14-.22.33-.15.6-.35.78-.61.18-.27.27-.58.27-.94a1.61 1.61 0 0 0-.91-1.49 2.6 2.6 0 0 0-2.06 0c-.32.13-.57.33-.77.58-.19.25-.3.55-.3.9h-2.73a3.5 3.5 0 0 1 .66-2.06c.43-.59 1.01-1.05 1.74-1.38.73-.34 1.55-.5 2.47-.5.93 0 1.75.16 2.44.5.7.33 1.24.79 1.62 1.36.4.57.59 1.21.58 1.92 0 .76-.23 1.38-.7 1.89a3.2 3.2 0 0 1-1.83.96v.1c.99.13 1.74.47 2.26 1.03.52.56.78 1.26.77 2.1 0 .76-.22 1.44-.66 2.04a4.45 4.45 0 0 1-1.83 1.4c-.79.34-1.68.51-2.69.51Zm12.39 0c-.7 0-1.36-.12-2-.34a4.56 4.56 0 0 1-1.73-1.11c-.5-.52-.9-1.2-1.2-2.04a9.56 9.56 0 0 1-.44-3.12c0-1.13.13-2.13.38-3.02a6.8 6.8 0 0 1 1.1-2.28 4.83 4.83 0 0 1 3.99-1.9c.9 0 1.69.17 2.38.52a4.38 4.38 0 0 1 2.41 3.41h-2.8a1.88 1.88 0 0 0-.7-1.1c-.34-.27-.77-.4-1.3-.4a2.2 2.2 0 0 0-1.99 1.14c-.45.76-.68 1.8-.69 3.1h.1c.2-.39.47-.73.8-1 .35-.3.75-.51 1.18-.66.45-.15.91-.23 1.4-.23a4.03 4.03 0 0 1 3.6 2.1c.36.66.54 1.4.54 2.24 0 .91-.21 1.72-.64 2.43a4.42 4.42 0 0 1-1.76 1.67c-.76.4-1.63.6-2.63.6Zm-.01-2.23a2.22 2.22 0 0 0 1.99-1.17c.2-.36.3-.76.3-1.2 0-.45-.1-.86-.3-1.21a2.19 2.19 0 0 0-1.97-1.16 2.25 2.25 0 0 0-2.13 1.46 2.43 2.43 0 0 0 .12 2.1 2.19 2.19 0 0 0 1.99 1.18Zm11.97 2.23c-.93 0-1.75-.17-2.48-.5a4.32 4.32 0 0 1-1.72-1.42 3.62 3.62 0 0 1-.66-2.06h2.75c.03.52.25.94.66 1.26.4.33.9.49 1.45.49.45 0 .84-.1 1.19-.3.34-.2.61-.47.8-.83.2-.36.3-.77.3-1.23 0-.48-.1-.9-.3-1.25-.2-.36-.47-.64-.82-.84-.36-.2-.75-.3-1.2-.31-.4 0-.78.08-1.16.24-.36.16-.65.38-.86.66l-2.53-.45.64-7.1h8.23v2.33H456l-.35 3.37h.08c.23-.33.59-.6 1.07-.83a3.8 3.8 0 0 1 1.6-.32 4.13 4.13 0 0 1 3.67 2.14c.37.66.55 1.42.55 2.28a4.45 4.45 0 0 1-2.4 4.07c-.75.4-1.63.6-2.63.6Z"/><g id="Microsoft_365_(2022)(1) 1" clip-path="url(#clip1_0_1)"><path id="Vector_6" fill="url(#paint0_radial_0_1)" d="m336.08 13.03-.22.13c-.36.22-.7.46-1 .72l.64-.45h5.5l1 7.57-5 5-5 3.48v4a8 8 0 0 0 3.86 6.85l5.26 3.18L330 50h-2.14l-4-2.42a8 8 0 0 1-3.86-6.84V27.26a8 8 0 0 1 3.86-6.84l12-7.26.22-.13Z"/><path id="Vector_7" fill="url(#paint1_linear_0_1)" d="m336.08 13.03-.22.13c-.36.22-.7.46-1 .72l.64-.45h5.5l1 7.57-5 5-5 3.48v4a8 8 0 0 0 3.86 6.85l5.26 3.18L330 50h-2.14l-4-2.42a8 8 0 0 1-3.86-6.84V27.26a8 8 0 0 1 3.86-6.84l12-7.26.22-.13Z"/><path id="Vector_8" fill="url(#paint2_radial_0_1)" d="M348 29v4.48a8 8 0 0 1-3.86 6.84l-12 7.27a8 8 0 0 1-8 .16l11.72 7.1a8 8 0 0 0 8.28 0l12-7.27a8 8 0 0 0 3.86-6.84V37.5l-1-1.5-11-7Z"/><path id="Vector_9" fill="url(#paint3_linear_0_1)" d="M348 29v4.48a8 8 0 0 1-3.86 6.84l-12 7.27a8 8 0 0 1-8 .16l11.72 7.1a8 8 0 0 0 8.28 0l12-7.27a8 8 0 0 0 3.86-6.84V37.5l-1-1.5-11-7Z"/><path id="Vector_10" fill="url(#paint4_radial_0_1)" d="m356.14 20.42-12-7.26a8 8 0 0 0-8.04-.14l-.24.14a8 8 0 0 0-3.86 6.85v9.48l3.86-2.33a8 8 0 0 1 8.28 0l12 7.26a8 8 0 0 1 3.86 6.32V27.26a8 8 0 0 0-3.86-6.84Z"/><path id="Vector_11" fill="url(#paint5_linear_0_1)" d="m356.14 20.42-12-7.26a8 8 0 0 0-8.04-.14l-.24.14a8 8 0 0 0-3.86 6.85v9.48l3.86-2.33a8 8 0 0 1 8.28 0l12 7.26a8 8 0 0 1 3.86 6.32V27.26a8 8 0 0 0-3.86-6.84Z"/></g></g><g xmlns="http://www.w3.org/2000/svg" class="ptsel" id="Dropbox" opacity=".4"><rect xmlns="http://www.w3.org/2000/svg" x="480" y="0" width="210" height="70" style="fill: transparent;"/><path id="Vector_12" fill="#0061FF" d="m505.3 19.3-11.8 7.6 11.8 7.5-11.8 7.5-11.8-7.6 11.8-7.5-11.8-7.5 11.8-7.5 11.8 7.5Zm-11.8 25 11.8-7.5 11.7 7.5-11.7 7.5-11.8-7.5Zm11.8-10 11.8-7.5-11.8-7.5 11.7-7.5 11.8 7.5-11.8 7.6 11.8 7.5-11.8 7.5-11.7-7.6Z"/><path id="Vector_13" fill="#000" d="M538 19.3h9.6c6.1 0 11.1 3.5 11.1 11.6v1.7c0 8-4.7 11.7-10.9 11.7H538v-25Zm5.4 4.5v15.9h4.1c3.4 0 5.7-2.2 5.7-7.3v-1.3c0-5-2.4-7.3-5.9-7.3h-3.9Zm18.1.3h4.3l.7 4.7c.8-3.2 2.8-4.9 6.6-4.9h1.3v5.4h-2.2c-4.3 0-5.4 1.5-5.4 5.8v9.2h-5.2V24.1h-.1Zm14 10.5v-.5c0-6.8 4.3-10.5 10.2-10.5 6 0 10.2 3.7 10.2 10.5v.5c0 6.7-4 10.3-10.2 10.3-6 0-10.2-3.6-10.2-10.3Zm15 0v-.5c0-3.8-1.9-6.1-4.9-6.1-3 0-4.9 2.1-4.9 6.1v.5c0 3.6 2 5.7 5 5.7s4.8-2.1 4.8-5.7Zm8.2-10.5h4.4l.5 3.8c1-2.7 3.7-4.4 6.6-4.3 5.2 0 8.5 3.7 8.5 10.5v.6c0 6.6-3.7 10.2-8.5 10.2-3.2 0-5.4-1.5-6.4-3.8v10.2h-5.2V24.1h.1Zm14.7 10.5v-.5c0-4-2-6-4.8-6-2.7 0-4.9 2.3-4.9 6v.4c0 3.6 2 5.8 4.8 5.8 3 0 5-2 5-5.7h-.1Zm13.1 6-.4 3.7h-4.5v-27h5.1v10.4c1.1-2.7 3.4-4.1 6.6-4.1 4.8.1 8.4 3.4 8.4 10.1v.6c0 6.7-3.4 10.6-8.5 10.6-3.4-.1-5.6-1.7-6.7-4.3Zm9.8-6.3v-.5c0-3.7-2-5.8-4.8-5.8s-4.9 2.4-4.9 5.9v.4c0 3.8 2 6 4.8 6 3 0 5-2 5-6h-.1Zm7.6.3v-.5c0-6.8 4.4-10.5 10.3-10.5 6 0 10.2 3.7 10.2 10.5v.5c0 6.7-4.2 10.3-10.2 10.3-6 0-10.3-3.6-10.3-10.3Zm15.2 0v-.5c0-3.8-1.9-6.1-4.9-6.1-3 0-4.9 2.1-4.9 6.1v.5c0 3.6 2 5.7 5 5.7s4.8-2.1 4.8-5.7Zm12.2-.8-7-9.7h6l4.1 6.1 4.1-6.1h6l-7.2 9.7 7.6 10.5h-6l-4.6-6.7-4.5 6.7h-6.2l7.7-10.5Z"/></g><g xmlns="http://www.w3.org/2000/svg" class="ptsel" id="Slack" opacity=".4"><rect xmlns="http://www.w3.org/2000/svg" x="0" height="70" style="fill: transparent;" y="90" width="210"/><path id="Vector_14" fill="#000" d="m55.3 131.8 2-4.9c2.5 1.7 5.5 2.6 8.5 2.6 2.3 0 3.7-.9 3.7-2.2-.1-3.6-13.4-.8-13.5-9.9 0-4.6 4-8.2 9.9-8.2 3.5 0 7 .8 9.4 2.8l-2 5.1c-2.2-1.6-5-2.4-7.7-2.5-1.8 0-3 .8-3 1.9 0 3.6 13.4 1.7 13.6 10.4 0 4.7-4 8.1-9.8 8.1-4 .1-7.9-1-11.1-3.2Zm87.6-3.4a12.9 12.9 0 1 1 0-12.6l-5.8 3.2a6 6 0 0 0-2.3-2.2 6.1 6.1 0 0 0-9.2 5.3 5.98 5.98 0 0 0 6.1 6.1c2.2 0 4.3-1.2 5.4-3.1l5.8 3.3ZM79 98.5h7.4v36H79v-36Zm74.1 0v21.1l8.3-9.9h9l-10.3 12 11.1 12.8h-9.4l-8.7-10.8v10.8h-7.4v-36h7.4Zm-44.8 20.6a6.6 6.6 0 0 0-8.13-2.7 6.1 6.1 0 0 0-3.67 5.7 6 6 0 0 0 6.1 6.1c2.3 0 4.4-1 5.7-3v-6.1Zm7.4-9.4v24.7h-7.4v-2.9c-1.3 2.1-4.3 3.5-7.3 3.5-6.5 0-11.5-5.9-11.5-13s5.1-12.8 11.5-12.8c3.1 0 6.1 1.4 7.3 3.4v-2.9h7.4Z"/><path id="Vector_15" fill="#E01E5A" d="M9.9 125.1c0 2.5-2 4.5-4.6 4.6a4.6 4.6 0 0 1-4.5-4.6c0-2.5 2-4.5 4.5-4.5h4.6v4.5Zm2.2 0a4.6 4.6 0 0 1 9 0v11.4a4.6 4.6 0 0 1-9 0v-11.4Z"/><path id="Vector_16" fill="#36C5F0" d="M16.7 106.9a4.5 4.5 0 0 1-4.6-4.5 4.6 4.6 0 1 1 9 0v4.5h-4.4Zm0 2.3a4.6 4.6 0 0 1 0 9.1H5.3a4.6 4.6 0 1 1 0-9.1h11.4Z"/><path id="Vector_17" fill="#2EB67D" d="M34.8 113.8c0-2.5 2-4.6 4.6-4.6a4.6 4.6 0 0 1 0 9.1h-4.6v-4.5Zm-2.2 0c0 2.5-2.1 4.5-4.6 4.5-2.5 0-4.5-2-4.5-4.5v-11.4c0-2.5 2-4.5 4.5-4.6 2.5 0 4.5 2 4.6 4.6v11.4Z"/><path id="Vector_18" fill="#ECB22E" d="M28 131.9c2.5 0 4.5 2 4.6 4.6 0 2.5-2.1 4.5-4.6 4.5-2.5 0-4.5-2-4.5-4.5v-4.6H28Zm0-2.2a4.6 4.6 0 0 1-4.5-4.6c0-2.5 2-4.5 4.5-4.5h11.4c2.5 0 4.5 2 4.5 4.5s-2 4.5-4.5 4.6H28Z"/></g><g xmlns="http://www.w3.org/2000/svg" class="ptsel" id="Box" opacity=".4"><rect xmlns="http://www.w3.org/2000/svg" x="240" height="70" style="fill: transparent;" y="90" width="160"/><path id="Vector_19" fill="#0075C9" d="M326.9 123.8a18.5 18.5 0 0 1-34.6 11.7 18.6 18.6 0 0 1-35-8.4V96.4a3.7 3.7 0 0 1 7.4 0V112a18.7 18.7 0 0 1 27.6 6.1 18.5 18.5 0 0 1 34.6 5.7Zm-39.9 2.9a11.2 11.2 0 1 0-22.4.2 11.2 11.2 0 0 0 22.4-.2Zm32.8 0a11.2 11.2 0 1 0-22.38.2 11.2 11.2 0 0 0 22.38-.2Zm31.6 18c-1.6 1.2-4 .9-5.2-.7l-8.2-10.9-8.2 10.9a3.7 3.7 0 0 1-5.9-4.4l9.5-12.7-9.6-12.8a3.72 3.72 0 0 1 6-4.4l8.2 11 8.2-11c.6-.8 1.4-1.3 2.4-1.4a3.7 3.7 0 0 1 3.6 5.8l-9.5 12.8 9.5 12.7c1.2 1.6.8 3.9-.8 5.1Z"/></g><g xmlns="http://www.w3.org/2000/svg" class="ptsel" id="Trello" filter="url(#filter0_d_0_1)" opacity=".4"><rect style="fill: transparent;" width="160" x="400" y="75" height="90"/><path id="Vector_20" fill="url(#paint6_linear_0_1)" d="M498.4 86.4v47.9c0 3.2-2.6 5.8-5.8 5.8h-47.9a5.8 5.8 0 0 1-5.8-5.7v-48c0-3.2 2.5-5.7 5.7-5.8h48c3.2 0 5.8 2.6 5.8 5.8Zm-10.5 2h-12.6a2.8 2.8 0 0 0-2.8 2.8v20.4c0 1.6 1.2 2.8 2.8 2.8h12.6c1.5 0 2.8-1.2 2.8-2.8V91.2c0-1.5-1.3-2.8-2.8-2.8Zm-25.9 0h-12.6a2.8 2.8 0 0 0-2.8 2.8v35.3c0 1.6 1.2 2.8 2.8 2.8H462c1.5 0 2.8-1.2 2.8-2.8V91.2c0-1.5-1.3-2.8-2.8-2.8Z"/><path id="Vector_21" fill="#000" d="M461.7 150.1v1.3h-2.1v6H458v-6h-2V150h5.8l-.1.1Zm3.2 1.8h.1v1.4h-.4c-.5 0-.9.2-1 .5-.2.2-.3.6-.3 1v2.5H462V152h1.4v1l.5-.8c.3-.2.6-.3 1-.3Zm3.1 1.1a1 1 0 0 0-.8.3c-.2.2-.3.5-.3.8h2.2c0-.3-.2-.6-.4-.8a1 1 0 0 0-.7-.3Zm0-1.2 1.2.3.9.8.4 1v1.2H467c0 .5.1.9.5 1 .2.2.4.3.7.3.2 0 .5-.1.7-.3l.2-.3h1.5c0 .3-.3.6-.5 1-.5.5-1.1.7-2 .7-.7 0-1.3-.2-1.8-.6a2.99 2.99 0 0 1-.8-2.2c0-1 .3-1.6.7-2.1.5-.5 1.1-.8 1.9-.8h-.1Zm4.9 5.5h-1.4v-7.2h1.4v7.2Zm2.8 0h-1.4v-7.2h1.4v7.2Zm3.8-.9c.4 0 .7-.2 1-.5l.2-1.2c0-.6 0-1-.3-1.3-.2-.3-.5-.4-1-.4-.3 0-.7.1-.9.4a2 2 0 0 0-.3 1.3c0 .5.1 1 .3 1.2.2.3.6.5 1 .5Zm2.7-1.7c0 .8-.2 1.4-.7 2-.4.5-1.1.8-2 .8-1 0-1.6-.3-2-.8a3 3 0 0 1 0-4c.4-.6 1-.9 2-.9.9 0 1.6.3 2 .9.5.5.7 1.2.7 2Z" opacity=".5"/></g><g xmlns="http://www.w3.org/2000/svg" class="ptsel" id="Cisco" opacity=".4"><rect xmlns="http://www.w3.org/2000/svg" style="fill: transparent;" width="160" y="75" height="90" x="560"/><path id="Vector_22" fill="#C4122E" d="M615.7 143.8h-4.2v-16.6h4.2v16.6Zm33.8-11.8c-1.1-.6-2.4-1-3.6-1a4.3 4.3 0 0 0-4.5 4.5 4.38 4.38 0 0 0 4.5 4.5 7 7 0 0 0 3.6-1v4.5a13 13 0 0 1-3.8.6c-4.8 0-9-3.2-9-8.6 0-5.4 3.8-8.6 9-8.6 1.2 0 2.5.2 3.8.6v4.5Zm-43.8 0c-1.1-.6-2.3-1-3.5-1a4.5 4.5 0 0 0-3.6 8c1 .8 2.3 1.2 3.6 1 1.2 0 2.4-.4 3.5-1v4.5a13 13 0 0 1-3.8.6c-4.7 0-9-3.2-9-8.6a8.5 8.5 0 0 1 9-8.6c1.2 0 2.5.2 3.8.6v4.5Zm57-1a4.45 4.45 0 1 0 3.11 7.61 4.4 4.4 0 0 0-3.11-7.51v-.1Zm8.8 4.5a8.8 8.8 0 1 1-8.8-8.6 8.48 8.48 0 0 1 8.8 8.6Zm-40-4.5c-1-.3-2.1-.5-3.2-.5-1.7 0-2.6.5-2.6 1.3s1.2 1.4 1.9 1.6l1.2.4c2.7.9 3.9 2.7 3.9 4.7 0 4.2-3.6 5.6-6.8 5.6-1.6 0-3.1-.2-4.6-.4v-4c1.3.5 2.6.7 4 .8 2 0 3-.6 3-1.6s-.8-1.3-1.8-1.6l-1-.3c-2.3-.8-4.2-2.1-4.2-5 0-2.7 2.3-5.1 6.2-5.1 1.3 0 2.7.2 4 .5v3.6Z"/><path id="Vector_23" fill="#15495D" d="M588.6 109.3c0-1.1-1-2-2.1-2a1.98 1.98 0 0 0-1.48.55 2 2 0 0 0-.62 1.45v4.4c0 1.1.9 2 2 2a2.12 2.12 0 0 0 2-1.2c.12-.25.19-.52.2-.8v-4.4Zm11.4-5.7a2 2 0 0 0-1.3-2 2.01 2.01 0 0 0-.8-.1c-1.1 0-2 .9-2.1 2v10.2a2.1 2.1 0 1 0 4.2 0v-10.1Zm11.5-7.8a2.1 2.1 0 1 0-4.2 0v22c0 1 1 2 2 2 1.1 0 2.1-.9 2.2-2v-22Zm11.4 7.8a2 2 0 0 0-1.3-2 2.01 2.01 0 0 0-.8-.1c-1.1 0-2 .9-2.1 2v10.2a2.1 2.1 0 1 0 4.2 0v-10.1Zm11.4 5.7a2 2 0 0 0-1.3-2 2 2 0 0 0-.8 0 2 2 0 0 0-2 2v4.4a2 2 0 0 0 1.2 1.9l.8.2c1.1 0 2-1 2-2.1v-4.4h.1Zm11.5-5.7c-.1-1.1-1-2-2.2-2a2 2 0 0 0-2 2v10a2.1 2.1 0 1 0 4.2 0v-10Zm11.4-7.8a2.1 2.1 0 1 0-4.2-.1V118a2.1 2.1 0 1 0 4.2 0V95.8Zm11.4 7.8a2.08 2.08 0 0 0-.31-2.27 2.05 2.05 0 0 0-3.39.47c-.4.5-.6 1.2-.4 1.8v10a2 2 0 0 0 1.2 2l.8.2c1.1 0 2-1 2-2.1v-10.1h.1Zm11.5 5.7c0-1.1-1-2-2.1-2a1.98 1.98 0 0 0-1.48.55 2 2 0 0 0-.62 1.45v4.4a2.1 2.1 0 1 0 4.2 0v-4.4Z"/><path id="Vector_24" fill="#C4122E" d="M677.7 141.6v.3h-.8v1.9h-.3v-2h-.7v-.2h1.8Zm0 0h.6l.6 1.8.7-1.8h.5v2.2h-.4V142l-.6 1.8h-.3l-.7-1.8v1.8h-.3v-2.2h-.1Z"/></g><g xmlns="http://www.w3.org/2000/svg" class="ptsel" id="Asana" opacity=".4"><rect xmlns="http://www.w3.org/2000/svg" style="fill: transparent;" width="160" height="90" x="0" y="170"/><path id="Vector_25" fill="#283343" d="M9.1 247.5a5.8 5.8 0 0 1-5.8-6 5.8 5.8 0 1 1 11.6 0 5.8 5.8 0 0 1-5.8 6Zm5.8.8c.2 1 1 1.8 2.1 2h.7c.3 0 .5-.2.5-.5v-16.2c0-.3-.2-.5-.5-.5h-2.3c-.3 0-.5.2-.5.5v1.3a7.3 7.3 0 0 0-5.8-2.4 9.1 9.1 0 1 0 3.2 17.6c1-.4 1.9-1 2.6-1.8Zm8.8-2.4a8 8 0 0 0 4.8 1.6c1.5 0 3.1-.8 3.1-2.2 0-1.4-3.4-2.1-5.6-2.8-2.2-.7-4-2.3-4-4.7 0-2.4 3.3-5.4 6.5-5.4 1.9 0 3.7.5 5.3 1.6.5.4.2.8.2.8l-1.3 1.8-.3.2H32c-1-.8-2.2-1.2-3.5-1.2-2.2 0-3.1.9-3.1 2 0 1 1.5 1.7 3.3 2.2 1.8.5 6.3 1.8 6.3 5.5s-3.1 5.4-6.5 5.4c-2.4 0-4.8-.7-6.7-2.1a.6.6 0 0 1-.1-.7L23 246c0-.2.3-.3.5-.3h.2v.2Zm28.5 2.4c.2 1 1 1.8 2.1 2h.7c.3 0 .5-.2.5-.5v-16.2c0-.3-.2-.5-.5-.5h-2.3c-.3 0-.5.2-.5.5v1.3a7.3 7.3 0 0 0-5.8-2.4 9.1 9.1 0 1 0 3.2 17.6c1-.4 1.9-1 2.6-1.8Zm-5.8-.8a5.8 5.8 0 0 1-5.8-6 5.8 5.8 0 1 1 11.6 0 5.8 5.8 0 0 1-5.8 6Zm29.7 1.3v-8.4c0-4.7-3-8-7.8-8a6 6 0 0 0-4.8 2.5 1.9 1.9 0 0 0-2.1-1.8h-.7c-.3 0-.5.2-.5.5v16.3c0 .3.2.5.5.5h2.7l.1-.3v-9.6c0-2.5 2-4.6 4.6-4.6a4.5 4.5 0 0 1 4.6 4.6v9.6c0 .3.3.5.6.5H76l.1-.3v-1.5Zm17.8-.5c.2 1 1 1.8 2.1 2h.7c.3 0 .6-.2.6-.5v-16.2h-.1c0-.3-.2-.5-.5-.5h-2.3c-.3 0-.5.2-.5.5v1.3a7.3 7.3 0 0 0-5.8-2.4 9.1 9.1 0 1 0 3.2 17.6c1-.4 1.9-1 2.6-1.8Zm-5.8-.8a5.8 5.8 0 0 1-5.8-6 5.8 5.8 0 1 1 11.6 0 5.8 5.8 0 0 1-5.8 6Z"/><path id="Vector_26" fill="url(#paint7_radial_0_1)" d="M59.1 204.8a8 8 0 1 0 0 16 8 8 0 0 0 0-16Zm-20.7 0a8 8 0 1 0 0 16 8 8 0 0 0 0-16Zm18.3-10a8 8 0 1 1-16 0 8 8 0 0 1 16 0Z"/></g><g xmlns="http://www.w3.org/2000/svg" class="ptsel" id="SalesForce" opacity=".4"><rect xmlns="http://www.w3.org/2000/svg" style="fill: transparent;" width="160" height="90" x="150" y="165"/><path id="Vector_27" fill="#00A1E0" d="M226.5 182.8a19 19 0 0 1 23.5-3.2c3 1.7 5.4 4.2 7.1 7.2 3-1.3 6.2-2 9.5-2a23.7 23.7 0 0 1 0 47.3c-1.5 0-3 0-4.6-.4a17.3 17.3 0 0 1-22.5 7 19.5 19.5 0 0 1-36.3-.9 18.2 18.2 0 0 1-21.9-17.9c0-6.5 3.4-12.6 9-15.9a21.1 21.1 0 0 1 36.2-21.2Z"/><path id="Vector_28" fill="#fff" d="M197 214v.1-.1Zm0 0 .5-1.1c0-.3.2-.1.3-.1l.3.2c.9.6 1.9.8 2.9.8s1.6-.5 1.6-1.2c0-.8-1-1.1-2-1.3h-.3c-1.4-.5-3-1-3-3 0-1.8 1.4-3 3.5-3h.2a6 6 0 0 1 3.2.9l.1.2a4 4 0 0 0-.5 1.3h-.3c-.8-.4-1.8-.6-2.8-.6-.9 0-1.4.3-1.4 1s.9 1 2 1.4h.2c1.5.4 3.1 1.1 3.1 2.9 0 1.8-1.4 3-3.7 3-1.2 0-2.2-.2-3.2-.8l-.6-.4v-.2h-.1Zm32.7.1h.1l.4-1.2.3-.1.4.2c.9.6 1.9.8 2.9.8.9 0 1.5-.5 1.5-1.2 0-.8-.9-1.1-2-1.3h-.2c-1.5-.5-3-1-3-3 0-1.8 1.4-3 3.4-3h.3a6 6 0 0 1 3.2.9v.2l-.5 1.2c0 .1 0 .2-.2.2a6 6 0 0 0-2.9-.7c-.9 0-1.4.3-1.4 1s.9 1 2 1.4h.2c1.5.4 3 1.1 3 2.9 0 1.8-1.3 3-3.6 3-1.2 0-2.2-.2-3.2-.8l-.7-.4s-.1 0 0-.2v.1Zm21.7-6.4a2.2 2.2 0 0 0-3.6 0 5.8 5.8 0 0 0 0 5.1c.2.3.5.6.8.7 1 .5 2.2.2 2.8-.7a5.7 5.7 0 0 0 0-5.1Zm2.5 4.5c-.2.7-.5 1.2-.9 1.7-.9 1-2.1 1.4-3.4 1.4-.7.1-1.4-.1-2-.4-.6-.2-1-.5-1.4-1-.4-.5-.7-1-.9-1.7a6.8 6.8 0 0 1 0-4c.2-.58.5-1.13.9-1.6a4 4 0 0 1 1.4-1.1 6 6 0 0 1 2-.4c.7.1 1.4.2 2 .5.5.2 1 .6 1.4 1 .4.5.7 1 .9 1.6.27 1.32.27 2.68 0 4Zm15.7 2.4c.1.2-.1.2-.1.2-.8.4-1.7.5-2.6.5-1.4.1-2.7-.4-3.7-1.4-.9-1-1.2-2.3-1.2-3.7 0-.7.1-1.4.3-2 .2-.58.5-1.13.9-1.6.5-.4.9-.8 1.5-1.1.7-.2 1.4-.4 2.1-.4h1.4l1.2.3c.1 0 .2-.3.1.2l-.4 1.4c-.1.1-.2 0-.2 0l-2-.2c-.8 0-1.6.3-2.1.9-.5.7-.7 1.6-.7 2.4-.1 1 .2 1.9.8 2.6.6.5 1.3.8 2.1.8h1.1l.8-.2h.2l.1.1.4 1.2Zm7.3-5.4c0-.5-.1-1-.4-1.4-.4-.7-1-1-1.8-1a2 2 0 0 0-1.8.9c-.2.5-.5 1-.5 1.5h4.5Zm1.8-1.2c.2.9.3 1.8.2 2.7a.2.2 0 0 1 0 .21.2.2 0 0 1-.2.09h-6.3c0 .7.2 1.4.7 2 .6.5 1.4.7 2.2.7.9.1 1.8-.1 2.6-.5h.2l.4 1.2v.3a7 7 0 0 1-3.2.6c-.8 0-1.6-.1-2.3-.3a4.2 4.2 0 0 1-2.5-2.7 6.8 6.8 0 0 1 0-4c.2-.6.5-1.2.9-1.7a4.45 4.45 0 0 1 5.3-1.1l1.2.9.8 1.5v.1Zm-52.3 1.3c0-.5-.1-1-.4-1.4-.4-.7-1-1-1.8-1a2 2 0 0 0-1.8.9c-.2.5-.5 1-.5 1.5h4.5Zm1.8-1.2c.2.9.3 1.8.2 2.7a.2.2 0 0 1 0 .21.2.2 0 0 1-.09.07c-.03.02-.07.02-.11.02h-6.3c0 .7.2 1.4.7 2 .6.5 1.4.7 2.2.7.9.1 1.8-.1 2.6-.5h.2l.4 1.2v.3a7 7 0 0 1-3.2.6c-.8 0-1.6-.1-2.3-.3a4.2 4.2 0 0 1-2.5-2.7c-.6-2-.3-4 .8-5.7 1.4-1.5 3.5-2 5.4-1.1l1.2.9.8 1.5v.1Zm-19.9 5.3c.5.4 1.2.5 1.8.4l1.7-.1v-3h-1.7c-.6-.1-1.3 0-1.8.4-.4.3-.6.7-.6 1.2 0 .3 0 .6.2.9l.4.3v-.1Zm3.5-4.4v-.2c0-.9-.1-1.3-.5-1.5a3 3 0 0 0-1.5-.5c-1 0-1.9.3-2.8.7h-.1s-.1.1-.2-.1l-.4-1.2h-.1v-.1h.1a5 5 0 0 1 2-.8l1.6-.2c1 0 2 .2 2.9.9.7.7 1.1 1.8 1 2.8v5.8s.1.2-.1.2l-.4.2-1.6.3h-3.6c-.5-.1-.9-.3-1.3-.6-.3-.2-.6-.6-.8-1-.2-.4-.3-.9-.3-1.4l.3-1.5c.2-.4.6-.7.9-1 .4-.3.9-.5 1.4-.6.5-.2 1-.2 1.5-.2h2Zm49.4-1.8c-.1 0-.1.1-.2 0h-1.6l-.8.4a4 4 0 0 0-.7 2.6v4.8c0 .1 0 .2-.2.2h-1.9v-9.6l.1-.2h1.7c.1 0 .2 0 .2.2v.8l1.1-.8c.5-.3 1-.3 1.6-.3l1.1.2.1.2-.5 1.5Zm-15.1-6 .1.2-.5 1.4s0 .1-.2 0h-1.4l-.6.3-.4.7-.4 1.4h2.2l.1.2-.3 1.3-.1.2h-2.2l-1.4 8.2-.5 2-.8 1.4c-.7.8-1.8 1.1-2.8 1h-.9l-.6-.2-.1-.1v-.2l.5-1.2.2-.2.4.2h1.2l.6-.3c.2-.3.4-.6.4-1 .2-.5.4-1 .4-1.5l1.4-8H239c-.1 0-.2 0-.2-.2l.3-1.3.1-.2h1.5v-.4c.1-1.1.6-2.1 1.3-2.8.7-.7 1.6-1 2.6-1h.9l.6.2v-.1ZM217.9 215l-.1.2H216l-.1-.2v-13.4l.1-.2h1.8l.1.2V215Z"/></g><g xmlns="http://www.w3.org/2000/svg" class="ptsel" id="JiraSoftware" opacity=".4"><rect xmlns="http://www.w3.org/2000/svg" style="fill: transparent;" width="300" x="360" height="70" y="190"/><path id="Vector_29" fill="#253858" d="M423.8 219.5h3.7v18.8c0 5-2.2 8.4-7.3 8.4-1.5 0-3-.2-4.4-.7v-3.6c1.2.5 2.5.7 3.8.7 3.1 0 4.2-1.8 4.2-4.5v-19.1Zm10.5-1.5c1.3 0 2.3 1 2.4 2.2v.3a2.5 2.5 0 1 1-4.9 0 2.3 2.3 0 0 1 2.1-2.5h.4Zm-1.8 8h3.5v20.5h-3.5V226Zm8.9 0h3.4v3.6c1.2-2.4 3.3-4.1 7.3-4v3.6c-4.6-.5-7.3.9-7.3 5.2v12.2h-3.4V226Zm27.3 16.9a7.3 7.3 0 0 1-7 4c-5.4 0-8.2-4.6-8.2-10.6s3-10.7 8.7-10.7a6.6 6.6 0 0 1 6.5 4V226h3.6v20.5h-3.6v-3.6Zm-6 .8c3.2 0 6-2 6-6.6v-1.7c0-4.6-2.6-6.6-5.6-6.6-3 0-6 2.6-6 7.4 0 4.8 2 7.5 5.6 7.5Zm30.5 3.3c-3.3.1-6.7-.6-9.7-2.1V241a23 23 0 0 0 10 2.3c4 0 5.5-1.6 5.5-4s-1.5-3.7-6.6-5c-5-1.3-8.8-3.6-8.8-8s3.2-7.3 9.5-7.3c3 0 5.8.6 8.3 2v3.6a16.7 16.7 0 0 0-8.5-2c-3.5 0-5.6 1.2-5.6 3.7s1.7 3.3 6.5 4.5c4.8 1.2 9 3.3 9 8.2 0 4.9-2.9 7.9-9.6 7.9v.1Zm12.8-10.8c0-6.2 3.5-10.6 9.6-10.6s9.8 4.5 9.8 10.6c0 6-3.6 10.8-9.8 10.8-6.2 0-9.7-4.6-9.7-10.8h.1Zm3.3 0c0 3.9 2 7.5 6.3 7.5s6.3-3.6 6.3-7.5c0-4-1.9-7.3-6.3-7.3s-6.3 3.4-6.3 7.3Zm25.1-10.2h5.3v3.2h-5.3v17.3H531v-17.3h-3.3V226h3.3v-2.3c0-3.8 2.1-6.4 6.6-6.4.78 0 1.55.1 2.3.3v3.3l-2.2-.2a2.9 2.9 0 0 0-3.3 3l.1 2.3h-.1Zm17.3 17 2.2-.2v3.4c-.7.2-1.6.3-2.4.3-4.4 0-6.5-2.5-6.5-6.4v-11h-3.4V226h3.3v-4.4h3.5v4.4h5.4v3.2h-5.4V240c0 1.9 1.1 3 3.3 3Zm3.3-17h3.8l6 17.4 6-17.4h3.3l6 17.4 6-17.4h3.8l-7.5 20.5h-4.6l-3.5-10-1.9-6.3-1.9 6.4-3.6 9.9h-4.5L555 226Zm51.1 16.9a7.1 7.1 0 0 1-6.9 4c-5.5 0-8.3-4.6-8.3-10.6s3-10.7 8.7-10.7a6.6 6.6 0 0 1 6.5 4V226h3.6v20.5h-3.6v-3.6Zm-6 .8c3.2 0 6-2 6-6.6v-1.7c0-4.6-2.6-6.6-5.6-6.6-3 0-6 2.6-6 7.4 0 4.8 2 7.5 5.6 7.5Zm15-17.7h3.4v3.6c1.2-2.4 3.3-4.1 7.3-4v3.6c-4.5-.5-7.3.9-7.3 5.2v12.2h-3.4V226Zm23.2 21c-7.7 0-11-4.5-11-10.8 0-6.3 3.4-10.6 9.7-10.6 6.3 0 8.8 4.4 8.8 10.6v1.6h-15c.5 3.5 2.8 5.8 7.6 5.8a19 19 0 0 0 6.3-1.1v3.3c-2 .8-4.2 1.2-6.4 1.2Zm-7.6-12.2h11.5c-.2-3.8-1.9-6-5.4-6-3.5 0-5.7 2.4-6 6h-.1Z"/><path id="Vector_30" fill="#2684FF" d="m406.6 232-15.3-15.2-1.4-1.5-11.5 11.5-5.2 5.2c-.4.4-.5 1-.3 1.5 0 .2.2.3.3.5l10.4 10.5 6.3 6.2 11.4-11.4.2-.2 5.1-5.1c.5-.6.5-1.4 0-2Zm-16.8 6.3-5.2-5.3 5.2-5.2 5.3 5.2-5.3 5.3Z"/><path id="Vector_31" fill="url(#paint8_linear_0_1)" d="M389.8 227.8a8.8 8.8 0 0 1 0-12.4l-11.5 11.4 6.2 6.3 5.3-5.3Z"/><path id="Vector_32" fill="url(#paint9_linear_0_1)" d="m395.1 233-5.3 5.2a8.81 8.81 0 0 1 0 12.5l11.5-11.5-6.2-6.2Z"/></g><g xmlns="http://www.w3.org/2000/svg" class="ptsel" id="Zoom" opacity=".4"><rect xmlns="http://www.w3.org/2000/svg" style="fill: transparent;" width="160" x="0" y="260" height="70"/><path id="Vector_33" fill="#2D8CFF" fill-rule="evenodd" d="M96.2 288.5c.5.8.7 1.7.7 2.6v12c0 2.1 1.8 3.9 3.9 4h1.3v-16a5.3 5.3 0 0 1 7.9-4.6c.8.5 1.5 1.2 2 2 .4.8.6 1.7.6 2.6v12c0 2.1 1.8 3.9 3.9 4h1.4v-16a10.7 10.7 0 0 0-15-9.7c-1.4.7-2.6 1.6-3.6 2.7a10.7 10.7 0 0 0-13.9-1.8 8 8 0 0 0-4.7-1.8V307H82c2.2 0 3.9-1.7 3.9-3.9v-12a5.1 5.1 0 0 1 5.2-5.3c2 0 3.7 1 4.6 2.7h.5ZM5.4 307h21.2v-1.3a4 4 0 0 0-3.9-3.9H9.3l16-15.9v-1.3a4 4 0 0 0-3.9-3.9H0v1.3c0 2.1 1.8 3.9 3.9 4h13.3L1.3 301.7v1.4a4.2 4.2 0 0 0 4 4l.1-.2v.1Zm70.4-22.6a13.3 13.3 0 0 1-12 22.4c-4.5-.8-8.1-3.8-9.9-7.9a13.3 13.3 0 0 1 21.9-14.5Zm-3.8 3.7a8 8 0 0 1-5.6 13.6 8 8 0 0 1 0-16 8 8 0 0 1 5.6 2.4Zm-33.5-7.6a13.3 13.3 0 0 1 9.4 22.7 13.3 13.3 0 0 1-18.7-18.8c2.4-2.5 5.8-4 9.3-3.9Zm5.7 7.6a8 8 0 1 1-12.59 9.4A8.04 8.04 0 0 1 44.2 288v.1Z" clip-rule="evenodd"/></g><g xmlns="http://www.w3.org/2000/svg" class="ptsel" id="Confluence" opacity=".4"><rect xmlns="http://www.w3.org/2000/svg" style="fill: transparent;" x="200" width="300" y="260" height="70"/><path id="Vector_34" fill="#253858" d="M284.3 308.3c-2.4 1.3-5.2 2-8 1.8-10 0-15.6-5.9-15.6-15.5s5.6-15.6 15.5-15.6c3 0 6 .5 8 2.1v4a13.6 13.6 0 0 0-8-2c-7 0-11.4 4.6-11.4 11.5 0 7 4.4 11.6 11.6 11.6a16 16 0 0 0 7.8-1.9l.1 4Zm3-10.2c0-6.9 4-11.9 10.8-11.9 7 0 11 5 11 12 0 6.8-4 12-11 12-6.9 0-10.9-5.2-10.9-12l.1-.1Zm3.7 0c0 4.4 2.2 8.4 7.1 8.4 5 0 7-4 7-8.4s-2-8.2-7-8.2c-4.9 0-7 4-7 8.2h-.1Zm42.2 11.6h-4v-13.9c0-4.2-1.6-6-5.4-6-3.8 0-6.2 2.4-6.2 7.1v12.8h-4v-23h4v3.7a8 8 0 0 1 7.3-4.2c5.3 0 8.3 3.7 8.3 10v13.5Zm11-23h6v3.6h-6v19.4h-3.8v-19.4h-3.8v-3.6h3.8v-2.6c0-4.3 2.4-7.2 7.3-7.2 1 0 1.9.2 2.7.4v3.7l-2.5-.3c-2.5 0-3.7 1.5-3.7 3.5v2.5Zm16.4 23.1c-3.8 0-6.2-1.8-6.2-6V277h4v26.3c0 2.1 1.4 2.8 3.1 2.8h1.1v3.5c-.6.3-1.3.3-2 .2Zm5.4-23h4v13.8c0 4.1 1.6 6 5.4 6 3.8 0 6.2-2.5 6.2-7v-12.9h4v23h-4V306a8 8 0 0 1-7.3 4.3c-5.3 0-8.3-3.7-8.3-10v-13.5Zm36.6 23.4c-8.7 0-12.4-5-12.4-12 0-7.2 3.8-12 10.8-12 7 0 10 5 10 12v1.7h-16.8c.5 4 3.1 6.5 8.5 6.5 2.4 0 4.8-.4 7-1.3v3.7c-2.2 1-4.6 1.5-7 1.4h-.1Zm-8.5-13.7h13c-.3-4.2-2.3-6.7-6.2-6.7-3.9 0-6.4 2.7-6.8 6.7Zm41.2 13.2h-4v-13.9c0-4.2-1.7-6-5.4-6s-6.2 2.4-6.2 7.1v12.8h-4v-23h4v3.7a8 8 0 0 1 7.2-4.2c5.3 0 8.4 3.7 8.4 10v13.5Zm21.8-.6c-1.8.8-3.7 1.1-5.7 1-8.2 0-12-4.9-12-12 0-7 3.8-11.9 12-11.9 2 0 3.8.3 5.5 1.1v3.6a12.99 12.99 0 0 0-5.2-1c-6 0-8.4 3.7-8.4 8.2 0 4.5 2.5 8.3 8.5 8.3a15 15 0 0 0 5.2-.9l.1 3.6Zm15.5 1.1c-8.6 0-12.4-5-12.4-12 0-7.2 4-12 11-12s9.8 5 9.8 12v1.7h-16.8c.6 4 3.1 6.5 8.5 6.5 2.4 0 4.8-.4 7-1.3v3.7c-2.2 1-4.6 1.5-7 1.4h-.1Zm-8.4-13.7H477c-.2-4.2-2.2-6.7-6-6.7-4 0-6.4 2.7-6.8 6.7Z"/><path id="Vector_35" fill="url(#paint10_linear_0_1)" d="m215 303-1 1.6c-.3.5-.1 1 .3 1.4l7 4.2c.5.2 1 0 1.3-.3l1-1.6c2.7-4.5 5.4-3.9 10.3-1.6l6.8 3.2c.5.2 1 0 1.3-.5h.1l3.2-7.4c.2-.5 0-1-.5-1.3l-6.8-3.3c-9.2-4.4-17-4-23 5.6Z"/><path id="Vector_36" fill="url(#paint11_linear_0_1)" d="m245.6 286.2 1-1.7c.3-.5.1-1-.3-1.4l-6.9-4.2a1 1 0 0 0-1.4.3l-1 1.7c-2.7 4.5-5.5 4-10.3 1.6l-6.8-3.2c-.5-.2-1.1 0-1.4.5l-3.2 7.4c-.2.4-.1.8.2 1.1l.3.2 6.8 3.3c9.2 4.4 17 4.1 23-5.6Z"/></g><g xmlns="http://www.w3.org/2000/svg" class="ptsel" id="WordPress" opacity=".4"><rect xmlns="http://www.w3.org/2000/svg" style="fill: transparent;" width="160" x="560" y="260" height="70"/><path id="Vector_37" fill="#504C4C" fill-opacity=".84" d="M618.1 292.5c0 1.8-.7 3.9-1.5 6.7l-.2.5-2.3 7.5-8-24 2.5-.2c1.3-.2 1.1-1.9 0-1.8l-6 .2-6-.2c-1.1-.2-1.3 1.8 0 1.8 0 0 1.1.2 2.3.2l3.5 9.5-5 14.7-8-24.2 2.5-.2c1.2-.1 1.1-1.9-.1-1.8l-6 .2h-1.4a22.2 22.2 0 0 1 33.6-4.2h-.2c-2.2 0-3.8 2-3.8 4 0 1.7 1 3.1 2 4.8l.3.4c.8 1.5 1.7 3.4 1.7 6.1h.1Zm-37.4 1.1c0-3 .7-6.2 2-9l10.6 29.1a22.3 22.3 0 0 1-12.6-20v-.1Zm16 21.4 6.7-19.4 6.9 18.8.1.3a22.3 22.3 0 0 1-13.7.4v-.1Zm25.9-32.1c5.8 10.6 2 24-8.4 30l6.9-19.6a21.01 21.01 0 0 0 1.7-8l-.2-2.3v-.1ZM577 293.7a26 26 0 1 1 52 0 26 26 0 0 1-52 0Zm1.2 0a24.85 24.85 0 1 0 49.7 0 24.85 24.85 0 0 0-49.7 0Z"/></g><g xmlns="http://www.w3.org/2000/svg" class="ptsel" id="AutoDesk" opacity=".4"><rect xmlns="http://www.w3.org/2000/svg" style="fill: transparent;" x="0" width="260" y="340" height="80"/><path id="Vector_38" fill="#1976D2" d="M22.6 386.6H11.3v2.2H14a4 4 0 1 1 0 8H9l-9 9h9.4c3.2-.1 17.6-1.5 17.6-11 0-3.3-1.6-6.4-4.4-8.2Z"/><path id="Vector_39" fill="#1565C0" d="M30 394c0-5-4.9-7.7-6.1-8.2l-1.3.8a9.5 9.5 0 0 1 4.4 8.2c0 9.5-14.4 10.9-17.6 11C29 405.6 30 397.2 30 394Z"/><path id="Vector_40" fill="#1E88E5" d="M11 365.8H0v40l9-9v-8h2s6.6.4 11.6-2.2l.6-.3.7-.5a9 9 0 0 0 3.5-4.4c.4-1.2.6-2.4.6-3.6 0-12-10.8-12-17-12Zm4 17h-4a2 2 0 0 1-2-2v-4c0-1.1.9-2 2-2h4a4 4 0 1 1 0 8Z"/><path id="Vector_41" fill="#1565C0" d="M17.7 375.8c.8.8 1.3 1.9 1.3 3a4 4 0 0 1-4 4h-4a2 2 0 0 1-2-2v-4s0-4.8 2.4-7.3a10 10 0 0 0-6.2 5C1 382.2 0 405.9 0 405.9l9-7v-10h2c8 0 15-4 15-10.4v-.5l-.1-.1a21.99 21.99 0 0 0-8.2-2v-.1Z"/><path id="Vector_42" fill="#2559AA" d="M15.5 368.9c-1.39 0-2.77.2-4.1.6C9 372 9 376.8 9 376.8c0-1.1.9-2 2-2h4c1 0 2 .3 2.7 1a22 22 0 0 1 8.3 2c-.3-5-4.9-9-10.5-9v.1ZM14 396.8H9v2h4c3.3 0 5-2.7 5-6a4 4 0 0 1-4 4Z"/><path id="Vector_43" fill="#000" d="m53 378.6 5.3 16.2h-2l-1.5-4.7h-6.5l-1.5 4.7h-1.9l5.3-16.2H53Zm-4.2 9.9h5.5l-1.7-5.5-1-3.1h-.1l-.9 3-1.8 5.6Zm21.4.9v-10.8H72v10.6c0 3.9-2.2 5.9-5.9 5.9s-5.6-2.1-5.6-5.6v-11h1.8v10.7c0 2.9 1.6 4.2 4 4.2s3.9-1.1 3.9-4Zm8.5-9.1h-4.3v-1.7h10.5v1.7h-4.3v14.5h-1.9v-14.5ZM92.1 395c-3.9 0-6.3-2.2-6.3-8.2 0-6 2.5-8.4 6.4-8.4 3.9 0 6.3 2.3 6.3 8.2 0 5.9-2.6 8.5-6.4 8.5v-.1Zm.1-1.6c2.7 0 4.4-1.6 4.4-6.6s-1.8-6.8-4.5-6.8-4.4 1.6-4.4 6.6 1.8 6.8 4.5 6.8Zm9.8-14.8h4.3c4.9 0 7.1 2.5 7.1 8s-2.1 8.2-7.1 8.2H102v-16.2Zm1.9 14.6h2.4c3.5 0 5.2-1.8 5.2-6.4 0-4.6-1.9-6.5-5.4-6.5h-2.2v12.9Zm13.1 1.6v-16.2h8.6v1.7h-6.8v5.5h6v1.6h-6v5.8h7.1v1.6H117Zm19.3-4.1c0-3.7-7.7-3-7.7-8 0-2.4 2.1-4.3 5-4.3a7 7 0 0 1 4.2 1.3l-1.1 1.5c-.9-.8-2-1.2-3.2-1.1-1.9 0-3 1-3 2.5 0 3.8 7.7 3 7.7 8 0 2.4-1.9 4.5-5.4 4.5-1.8 0-3.7-.6-5.1-1.7l1.1-1.5c1.2 1 2.7 1.5 4.2 1.5 2.2 0 3.3-1.2 3.3-2.7Zm7.1 4.1h-1.9v-16.2h1.9v16.2Zm6.3-16.2h2.2l-5.8 8 6.3 8.2H150l-6-8 5.7-8.2Zm11.4 7.1a4 4 0 0 1-3.4 1.4 4.8 4.8 0 0 1-3.4-8.2c.9-1 2.1-1.5 3.4-1.5a5 5 0 0 1 4.9 4.9c0 1.3-.5 2.5-1.5 3.4Zm-6.3-6.4a3.99 3.99 0 0 0-1.2 3 4 4 0 0 0 1.2 2.9 4 4 0 0 0 5.9 0 3.99 3.99 0 0 0 1.2-3 4.1 4.1 0 0 0-4.2-4.1 3.99 3.99 0 0 0-2.9 1.2Zm2.8.3 1.5.2c.5.2.8.7.8 1.3 0 .4-.2.8-.5 1l-.8.3c.4 0 .7.3.9.6.2.2.3.5.3.8v.8l.1.2h-.9v-.6c0-.5-.1-1-.5-1.2l-1.1-.2h-.7v2h-.9v-5.2h1.8Zm1 .8-1.1-.2h-.8v2h.8l.9-.2c.4 0 .6-.4.6-.8a1 1 0 0 0-.4-.8Zm25.8-.5c.5.7.8 1.6.8 2.6 0 1.5-.8 2.8-2.1 3.4.8.2 1.5.7 1.9 1.5.5.7.7 1.5.7 2.4a6 6 0 0 1-.7 2.7l-1.2 1.3c-.6.4-1.2.6-1.9.8a9 9 0 0 1-2.4.2H172v-16.6h8.1c1.6-.1 3.2.5 4.3 1.7Zm-9.1 1.2v3.6h4.1a4 4 0 0 0 1.8-.4c.4-.2.6-.7.6-1.4s-.3-1.3-.9-1.6l-1.9-.2h-3.7Zm0 6.4v4.4h4.1c.6 0 1.2 0 1.7-.2.7-.4 1.2-1.2 1.1-2.1 0-.8-.4-1.5-1.1-1.8-.5-.3-1.1-.4-1.7-.3h-4.1Zm16.6 7.3h-3.5v-16.6h3.5v16.6Zm14.3-16.6h5v16.6H208v-14l-3.2 14h-3.4l-3.1-14v14h-3.2v-16.6h5l3.1 13 3-13Zm16.7 11.6c0 .5 0 1 .3 1.6a2 2 0 0 0 2.1 1.2c.6 0 1.2-.2 1.7-.6.5-.6.7-1.2.7-2 0-.9-.5-1.7-1.3-2.1a7 7 0 0 0-2.4-.3v-2.3c.7 0 1.5 0 2.2-.3.8-.3 1.3-1.2 1.1-2 0-.5-.2-1-.6-1.4-.4-.4-1-.6-1.5-.6-.6 0-1.3.2-1.7.7-.3.5-.5 1.2-.5 1.9h-3c0-.8.2-1.6.4-2.3.3-.7.8-1.3 1.3-1.7.44-.42.94-.76 1.5-1 .7-.2 1.4-.3 2.1-.2 1.4-.1 2.7.3 3.8 1.2 1.6 1.5 1.9 4 .6 5.7-.3.3-.7.6-1.2.8.5 0 1 .4 1.3.8.8.8 1.2 1.9 1.2 3 0 1.4-.5 2.8-1.4 3.8a5.8 5.8 0 0 1-4.3 1.6c-2.3 0-3.9-.8-4.8-2.3-.5-1-.8-2.1-.8-3.2h3.2Zm17.6-7.2c0-.4-.1-.7-.3-1a1.99 1.99 0 0 0-1.6-.7c-1 0-2 .7-2.2 1.8-.4.9-.5 1.9-.5 2.9.3-.5.8-.9 1.3-1.1 1.2-.4 2.6-.4 3.8 0 .6.3 1.2.7 1.6 1.2a4.99 4.99 0 0 1 1.4 3.8c0 1.4-.4 2.8-1.3 4-1 1.3-2.7 2-4.3 1.8a5 5 0 0 1-4.6-2.6c-.8-1.7-1.1-3.4-1.1-5.2 0-1 0-2.1.2-3.1a6 6 0 0 1 1.1-3.5 5 5 0 0 1 1.8-2 5 5 0 0 1 2.7-.6 5 5 0 0 1 3.7 1.2c.9.7 1.4 1.8 1.5 3h-3.2v.1Zm-3.9 9.2a2 2 0 0 0 1.9.8c.6 0 1.3-.3 1.6-.8.5-.6.8-1.3.7-2.1 0-.8-.2-1.6-.7-2.2-.5-.5-1.1-.7-1.8-.7a2 2 0 0 0-1.4.5 3 3 0 0 0-1 2.4c0 .7.2 1.5.7 2v.1Zm19-11.3c1.7 4 1.7 8.6 0 12.6a4.7 4.7 0 0 1-4.4 2.2c-1.8.1-3.4-.7-4.4-2.2-1.6-4-1.6-8.6 0-12.6 1-1.5 2.6-2.3 4.4-2.2 1.8-.2 3.5.7 4.4 2.2Zm-6.3 10.6a2 2 0 0 0 1.9 1.5c1 0 1.7-.6 1.9-1.5.4-1.4.5-2.9.5-4.3 0-1.5-.1-3-.5-4.4-.2-.9-1-1.5-1.9-1.4-.9 0-1.7.5-1.9 1.4a16 16 0 0 0-.4 4.4c0 1.4 0 2.9.4 4.3Z"/></g><g xmlns="http://www.w3.org/2000/svg" class="ptsel" id="AdobeCreativeCloud" opacity=".4"><rect xmlns="http://www.w3.org/2000/svg" style="fill: transparent;" height="90" x="320" y="340" width="140"/><path id="Vector_44" fill="url(#paint12_linear_0_1)" d="M350 346.8h61.4v61.5H350v-61.5Zm48.2 19.1a16.5 16.5 0 0 0-23.3 0l-.4.3-2.3-.2c-3.7 0-7.3 1.5-9.9 4.2a14 14 0 0 0 10 23.9h14.6a16.5 16.5 0 0 0 11.3-28.2ZM372.3 391a11.2 11.2 0 0 1-7.8-19c2.1-2 5-3 7.8-3.1h1.6l1.7.4c1.1.3 2 .8 3 1.5l1.1 1 .4.3 4.4 4.5c.6.6.6 1.6 0 2.2-.3.3-.6.4-1 .4s-.7-.1-1-.4l-3.8-3.6-.7-.8-.4-.4a8 8 0 0 0-3.7-1.8h-1.6a7.89 7.89 0 1 0 .2 15.8h1.4l1.3 1.2c.7.7 1.4 1.3 2.2 1.8h-5.1Zm23.8-4c-1.3 1.4-3 2.4-4.9 3l-1.7.6c-.8.2-1.7.4-2.7.4h-.3c-3 0-6-1.1-8.5-3.1l-1-1-6.3-6.2c-.6-.6-.6-1.6 0-2.2.3-.3.6-.4 1-.4s.8.1 1.1.4l6.2 6.3 2 1.5c2.4 1.4 5.2 1.9 7.9 1.2.6-.1 1.2-.3 1.6-.6a9.6 9.6 0 0 0 3.3-2.2c4-4 4-10.6 0-14.7-3.6-3.4-9-4-13.2-1.2a10 10 0 0 0-2.8-1.7 13.51 13.51 0 1 1 18.3 19.9Z"/><path id="Adobe Creative Cloud" fill="#716D6D" d="M333.69 420.1h-1.65l2.5-7.27h1.99l2.5 7.27h-1.64l-1.82-5.61h-.06l-1.82 5.61Zm-.1-2.86h3.89v1.2h-3.9v-1.2Zm8.05 2.95c-.41 0-.79-.1-1.13-.32-.33-.22-.6-.53-.8-.95-.19-.42-.28-.93-.28-1.54 0-.63.1-1.14.3-1.56a2.06 2.06 0 0 1 2.67-1.09c.2.1.37.23.5.38.13.16.22.3.29.45h.05v-2.73h1.5v7.27h-1.49v-.87h-.06c-.07.15-.17.3-.3.45-.13.14-.3.27-.5.36-.2.1-.46.15-.75.15Zm.48-1.2c.24 0 .45-.07.62-.2.17-.14.3-.33.39-.57.09-.24.14-.52.14-.85 0-.32-.05-.6-.14-.84a1.21 1.21 0 0 0-.39-.56.99.99 0 0 0-.62-.2.98.98 0 0 0-.63.21c-.17.14-.3.32-.39.56a2.4 2.4 0 0 0-.13.83c0 .32.05.6.13.84.1.25.22.44.4.57.16.14.37.2.62.2Zm6.33 1.22a2.8 2.8 0 0 1-1.43-.35c-.4-.24-.7-.57-.93-1a3.18 3.18 0 0 1-.32-1.47c0-.56.1-1.05.32-1.47.22-.43.53-.76.93-.99.4-.24.88-.36 1.43-.36.55 0 1.03.12 1.43.36.4.23.71.56.93.99.22.42.33.91.33 1.47 0 .56-.11 1.05-.33 1.48a2.4 2.4 0 0 1-.93.99c-.4.23-.88.35-1.43.35Zm0-1.17c.26 0 .47-.08.64-.22.17-.14.3-.34.38-.59.08-.25.13-.53.13-.85 0-.31-.05-.6-.13-.84a1.32 1.32 0 0 0-.38-.6.93.93 0 0 0-.63-.21.97.97 0 0 0-.64.21c-.17.15-.3.35-.39.6-.08.24-.13.53-.13.84 0 .32.05.6.13.85.1.25.22.45.39.6.17.13.39.2.64.2Zm3.7 1.06v-7.27h1.51v2.73h.05c.06-.14.16-.3.29-.45.12-.15.29-.28.5-.38a2.06 2.06 0 0 1 2.67 1.09c.2.42.3.94.3 1.56 0 .6-.1 1.12-.3 1.54a2.04 2.04 0 0 1-1.92 1.27c-.29 0-.54-.05-.74-.15-.2-.1-.37-.22-.5-.36-.13-.15-.23-.3-.3-.45h-.07v.87h-1.5Zm1.48-2.73c0 .33.05.61.13.85.1.24.23.43.4.57.17.13.37.2.62.2.24 0 .45-.07.62-.2.17-.15.3-.33.39-.58.09-.24.13-.52.13-.84 0-.31-.04-.59-.13-.83a1.23 1.23 0 0 0-.39-.56.98.98 0 0 0-.62-.2 1 1 0 0 0-.63.2c-.17.12-.3.3-.38.55a2.4 2.4 0 0 0-.14.84Zm7.33 2.84c-.56 0-1.04-.12-1.44-.34-.4-.23-.72-.56-.94-.98a3.23 3.23 0 0 1-.32-1.5c0-.55.1-1.05.32-1.47.22-.42.53-.75.92-.99.4-.24.87-.36 1.4-.36.36 0 .7.06 1 .18a2.24 2.24 0 0 1 1.37 1.38c.13.35.2.75.2 1.21v.42h-4.6v-.94h3.17c0-.21-.04-.4-.14-.58-.1-.17-.22-.3-.4-.4-.16-.09-.35-.14-.57-.14a1.16 1.16 0 0 0-1.03.59c-.1.17-.14.37-.15.58v.9c0 .26.05.5.15.7.1.19.25.34.43.45.19.1.4.16.66.16.17 0 .32-.03.46-.07a.93.93 0 0 0 .59-.56l1.4.09a1.9 1.9 0 0 1-.44.88c-.22.25-.5.44-.85.58-.34.14-.74.2-1.19.2Zm12.25-4.84h-1.55c-.03-.2-.09-.38-.18-.53a1.38 1.38 0 0 0-.8-.66 1.83 1.83 0 0 0-.59-.1c-.37 0-.7.1-.98.29-.28.18-.5.45-.65.8a3.2 3.2 0 0 0-.23 1.3c0 .51.07.95.23 1.3.16.35.37.62.65.8a1.93 1.93 0 0 0 1.54.19c.18-.06.34-.14.48-.24a1.53 1.53 0 0 0 .53-.9h1.55a2.8 2.8 0 0 1-.94 1.8c-.27.24-.59.43-.96.57-.37.14-.79.2-1.25.2a3.12 3.12 0 0 1-2.95-1.72 4.27 4.27 0 0 1-.44-2c0-.8.15-1.47.45-2.03.3-.56.7-.98 1.21-1.27a3.74 3.74 0 0 1 2.9-.26 3 3 0 0 1 .96.51c.28.23.5.5.68.83.18.33.3.7.34 1.12Zm1.08 4.73v-5.46h1.46v.96h.06a1.32 1.32 0 0 1 1.31-1.03 2.16 2.16 0 0 1 .48.05v1.34a2.74 2.74 0 0 0-.64-.08c-.22 0-.42.05-.6.15a1.07 1.07 0 0 0-.56.98v3.09h-1.51Zm6.32.1c-.56 0-1.04-.1-1.45-.33-.4-.23-.7-.56-.93-.98a3.22 3.22 0 0 1-.32-1.5c0-.55.1-1.05.32-1.47.22-.42.53-.75.92-.99.4-.24.87-.36 1.4-.36.36 0 .7.06 1 .18a2.24 2.24 0 0 1 1.37 1.38c.13.35.2.75.2 1.21v.42h-4.61v-.94h3.18c0-.21-.05-.4-.14-.58-.1-.17-.23-.3-.4-.4-.16-.09-.35-.14-.57-.14a1.16 1.16 0 0 0-1.03.59c-.1.17-.15.37-.15.58v.9c0 .26.05.5.15.7.1.19.25.34.43.45.19.1.4.16.66.16.17 0 .32-.03.46-.07a.94.94 0 0 0 .59-.56l1.4.09c-.08.33-.22.63-.44.88s-.5.44-.85.58c-.34.14-.74.2-1.19.2Zm5.05 0c-.35 0-.66-.06-.93-.18a1.5 1.5 0 0 1-.65-.54 1.62 1.62 0 0 1-.23-.9c0-.3.05-.56.16-.77.12-.2.27-.37.46-.5.19-.12.4-.21.65-.28.25-.06.5-.1.78-.13l.76-.1c.2-.03.34-.07.43-.13a.3.3 0 0 0 .13-.26v-.02c0-.23-.07-.4-.22-.53-.13-.12-.33-.18-.6-.18-.26 0-.48.06-.64.18a.83.83 0 0 0-.32.45l-1.4-.12a1.9 1.9 0 0 1 1.22-1.42 3.5 3.5 0 0 1 2.02-.1c.28.08.53.2.75.34a1.6 1.6 0 0 1 .7 1.41v3.68h-1.44v-.76h-.04a1.56 1.56 0 0 1-.88.76c-.2.07-.44.1-.71.1Zm.43-1.04c.22 0 .42-.05.6-.13.16-.1.3-.21.4-.36.09-.16.14-.33.14-.52v-.58a.85.85 0 0 1-.2.09 3.82 3.82 0 0 1-.58.12l-.27.04c-.18.02-.34.06-.47.12a.74.74 0 0 0-.3.23.56.56 0 0 0-.12.36c0 .2.08.36.23.47.15.1.34.16.57.16Zm6.72-4.52v1.14h-3.29v-1.13h3.29Zm-2.54-1.3h1.5v5.08c0 .14.03.25.07.33.05.08.1.13.18.16.08.03.17.05.27.05.07 0 .14 0 .21-.02l.17-.03.23 1.12a4.72 4.72 0 0 1-.82.15 2.3 2.3 0 0 1-.95-.15 1.33 1.33 0 0 1-.64-.52 1.59 1.59 0 0 1-.22-.89v-5.28Zm3.52 6.76v-5.46h1.51v5.46h-1.51Zm.76-6.16a.82.82 0 0 1-.58-.22.73.73 0 0 1-.24-.55c0-.2.08-.38.24-.53a.81.81 0 0 1 .58-.23.8.8 0 0 1 .58.23.72.72 0 0 1 0 1.08.81.81 0 0 1-.58.22Zm7.05.7-1.9 5.46h-1.71l-1.9-5.46h1.59l1.13 3.9h.06l1.13-3.9h1.6Zm3.08 5.57c-.56 0-1.04-.12-1.44-.34-.4-.23-.72-.56-.94-.98a3.22 3.22 0 0 1-.32-1.5c0-.55.1-1.05.32-1.47.22-.42.53-.75.93-.99s.86-.36 1.4-.36c.35 0 .69.06 1 .18a2.24 2.24 0 0 1 1.36 1.38c.13.35.2.75.2 1.21v.42h-4.6v-.94h3.17c0-.21-.04-.4-.14-.58-.1-.17-.22-.3-.4-.4-.16-.09-.35-.14-.57-.14a1.16 1.16 0 0 0-1.02.59c-.1.17-.15.37-.16.58v.9c0 .26.05.5.15.7.1.19.25.34.43.45.19.1.4.16.66.16.17 0 .32-.03.46-.07a.93.93 0 0 0 .59-.56l1.4.09c-.08.33-.22.63-.44.88s-.5.44-.85.58c-.34.14-.74.2-1.19.2Zm12.25-4.84h-1.55a1.4 1.4 0 0 0-.99-1.2 1.82 1.82 0 0 0-.58-.08c-.37 0-.7.1-.98.28-.28.18-.5.45-.65.8a3.2 3.2 0 0 0-.23 1.3c0 .51.08.95.23 1.3.16.35.37.62.65.8a1.94 1.94 0 0 0 1.54.19c.18-.06.34-.14.48-.24a1.53 1.53 0 0 0 .53-.9h1.56a2.8 2.8 0 0 1-.95 1.8c-.27.24-.59.43-.96.57-.37.14-.79.2-1.25.2a3.11 3.11 0 0 1-2.95-1.72 4.27 4.27 0 0 1-.44-2c0-.8.15-1.47.45-2.03.3-.56.7-.98 1.21-1.27a3.74 3.74 0 0 1 2.9-.26c.36.11.68.29.96.51.28.23.5.5.68.83.18.33.3.7.35 1.12Zm2.6-2.54v7.27H418v-7.27h1.51Zm3.67 7.38a2.8 2.8 0 0 1-1.43-.35c-.4-.24-.71-.57-.93-1a3.18 3.18 0 0 1-.33-1.47c0-.56.11-1.05.33-1.47.22-.43.53-.76.93-.99.4-.24.88-.36 1.43-.36.55 0 1.03.12 1.43.36.4.23.7.56.93.99.21.42.32.91.32 1.47 0 .56-.1 1.05-.32 1.48a2.4 2.4 0 0 1-.93.99c-.4.23-.88.35-1.43.35Zm0-1.17c.26 0 .47-.08.63-.22.17-.14.3-.34.38-.59.1-.25.14-.53.14-.85 0-.31-.05-.6-.14-.84a1.32 1.32 0 0 0-.38-.6.93.93 0 0 0-.63-.21.97.97 0 0 0-.63.21c-.17.15-.3.35-.4.6-.08.24-.12.53-.12.84 0 .32.04.6.13.85s.22.45.39.6c.17.13.38.2.63.2Zm7.16-1.26v-3.13h1.52v5.45h-1.45v-1h-.06c-.13.33-.33.59-.62.78-.28.2-.63.3-1.04.3-.36 0-.68-.1-.96-.26a1.7 1.7 0 0 1-.65-.7c-.15-.31-.23-.68-.23-1.1v-3.48h1.5v3.2c.01.33.1.59.27.77.17.19.4.28.68.28.19 0 .36-.04.51-.12a.97.97 0 0 0 .39-.38c.1-.16.15-.37.14-.61Zm4.74 2.4a2.06 2.06 0 0 1-1.92-1.26c-.2-.42-.3-.93-.3-1.54 0-.63.1-1.14.3-1.56a2.06 2.06 0 0 1 2.67-1.09c.21.1.38.23.5.38.13.16.23.3.3.45h.04v-2.73h1.51v7.27h-1.5v-.87h-.05c-.08.15-.18.3-.3.45-.13.14-.3.27-.5.36-.21.1-.46.15-.75.15Zm.48-1.2c.24 0 .45-.06.62-.2.17-.13.3-.32.38-.56.1-.24.14-.52.14-.85 0-.32-.04-.6-.13-.84a1.2 1.2 0 0 0-.4-.56.99.99 0 0 0-.61-.2.98.98 0 0 0-.63.21c-.17.14-.3.32-.39.56a2.4 2.4 0 0 0-.13.83c0 .32.04.6.13.84.1.25.22.44.39.57.17.14.38.2.63.2Z"/></g><g xmlns="http://www.w3.org/2000/svg" class="ptsel" id="Ubiquiti" opacity=".4"><rect xmlns="http://www.w3.org/2000/svg" style="fill: transparent;" width="160" x="500" y="330" height="110"/><path id="Vector_45" fill="#5F5A5B" d="M524.1 400v14.6a8 8 0 0 1-8.4 7.3c-4.3.2-8-3-8.5-7.3v-14.7c3 0 3.2 2.1 3.2 2.1v12.4c0 4.7 5.3 4.8 5.3 4.8s5.2-.1 5.2-4.8V402s.3-2 3.2-2Zm73 0v14.6a8.5 8.5 0 0 1-16.9 0v-14.7c3 0 3.2 2.1 3.2 2.1v12.4c0 4.7 5.3 4.8 5.3 4.8s5.2-.1 5.2-4.8V402s.2-2 3.2-2ZM553 421.7h-3.2V402s.3-2 3.2-2v21.7Zm52.9 0h-3.2V402s.2-2 3.2-2v21.7Zm24.8 0h-3.2V402s.2-2 3.2-2v21.7Zm-89.2-6.2c0-3.2-2.5-3.6-3-3.6h-5.8v7.3h5.7a3.7 3.7 0 0 0 3.1-3.7Zm-8.8-6.2h4.9s3.2-.2 3.2-3.2a3.12 3.12 0 0 0-3.3-3.3h-4.8v6.5Zm8.4 1.1c1.3.2 3.5 2 3.5 6 0 4.1-4.5 5.3-4.5 5.3h-10.5V400h8.2c3 0 6.2 2.1 6.2 5.5 0 2-1.1 4-3 5l.1-.1Zm31.6.6c0-4.6-2-8.3-6.2-8.3s-6.2 3.7-6.2 8.3c0 4.6 2 8.3 6.2 8.3s6.2-3.7 6.2-8.3Zm5.9 10.4h-5c-2.4-.1-4.9 0-7.3.3 0 0-9.9.7-9.3-10.8.6-11.5 9.3-10.9 9.3-10.9 7.5 0 9.6 6.3 9.6 11.1 0 2.8-1.1 5.7-3.1 7.8h3.9c1.7 0 1.9 2.5 1.9 2.5Zm46.2-18.7h-6.2v19h-3.1v-19H609V400h15.8v2.7Z"/><path id="Vector_46" fill="#279EDA" fill-rule="evenodd" d="M549.2 340h-3.1v-3.3h3.1v3.3Zm6.2 16.3h-3.1V353h3.1v3.3Zm0-10.1h-3.1V343h3.1v3.2Zm3.1-3.2h-3.1v-3.2h3.1v3.2Zm0 8.6h-3.1v-3.2h3.1v3.2Zm3.1-3.9h-3.1v-3.2h3.1v3.2Zm-15.5-2.5h3.1v17.3h3v-3.1h3.2v6.8h3.2v-11.3h3.1v23.3c.6 6.1 4 11.6 9.3 14.8-9.2 0-24.9-4.2-24.9-22.8v-25Z" clip-rule="evenodd"/><path id="Vector_47" fill="#12100B" fill-rule="evenodd" d="M579.9 381.8s12.4-.7 16.1-17.4v-27.2s-15.6-1.8-15.6 9.7-.5 34.9-.5 34.9Z" clip-rule="evenodd"/><path id="Vector_48" fill="#5E5B5B" d="M508 428.3h1.2l2.9 4.7v-4.7h1.1v6.4H512l-2.9-4.7v4.7H508v-6.4Zm16.9 0h4.6v1H526v1.7h3.2v.9H526v1.8h3.5v1h-4.6v-6.4Zm15.6 0h5.2v1h-2v5.4h-1.2v-5.4h-2v-1Zm16.2 0h1.1l1.2 4.9 1.3-5h1.1l1.3 5 1.2-5h1.1l-1.8 6.5h-1.1l-1.3-5-1.3 5h-1.1l-1.7-6.4Zm19.9 3.2c0 1.2.5 2.4 1.9 2.4s1.9-1.2 1.9-2.4-.5-2.4-1.9-2.4-1.9 1.2-1.9 2.4Zm5 0a3 3 0 0 1-1.9 3l-1.2.3a3.3 3.3 0 1 1 0-6.6 3 3 0 0 1 3.1 3.3Zm12.7-.2h1.9a1 1 0 0 0 1-.7l.1-.4c0-.8-.6-1-1.1-1h-1.9v2.1Zm-1.1-3h3.1c1.4 0 2.1.7 2.1 1.8 0 .7-.4 1.4-1.1 1.6.6.1 1 .7 1 1.3 0 .5 0 1.1.3 1.7h-1.2l-.1-1c0-1.1-.3-1.6-1.3-1.6h-1.7v2.6h-1.1V428.3Zm16.7.1h1.1v2.9l2.8-3h1.4l-2.5 2.6 2.7 3.8H614l-2.1-3-.9.9v2h-1.1v-6.2Zm17.1 4.2c0 1 .7 1.4 1.6 1.4.9 0 1.4-.5 1.4-1 0-.3-.2-.7-.5-.8l-1.9-.5c-.8-.1-1.4-.8-1.4-1.6 0-1.3 1.1-2 2.3-2 1.2 0 2.4.8 2.4 2h-1.1c0-.7-.6-1-1.4-1-.8 0-1.1.2-1.1.8 0 .6.3.7.7.9l1.9.5c.7.2 1.2.9 1.2 1.6 0 1.4-1.3 2-2.5 2s-2.7-.7-2.7-2.3h1.1Z"/></g><defs><linearGradient id="paint1_linear_0_1" x1="333.51" x2="328.75" y1="47.87" y2="39.63" gradientUnits="userSpaceOnUse"><stop stop-color="#114A8B"/><stop offset="1" stop-color="#0078D4" stop-opacity="0"/></linearGradient><linearGradient id="paint3_linear_0_1" x1="356.36" x2="351.25" y1="35.38" y2="42.69" gradientUnits="userSpaceOnUse"><stop stop-color="#493474"/><stop offset="1" stop-color="#8C66BA" stop-opacity="0"/></linearGradient><linearGradient id="paint5_linear_0_1" x1="332.98" x2="340.49" y1="13.06" y2="13.06" gradientUnits="userSpaceOnUse"><stop stop-color="#2D3F80"/><stop offset="1" stop-color="#436DCD" stop-opacity="0"/></linearGradient><linearGradient id="paint6_linear_0_1" x1="479.4" x2="479.4" y1="75" y2="150" gradientUnits="userSpaceOnUse"><stop stop-color="#0091E6"/><stop offset="1" stop-color="#0079BF"/></linearGradient><linearGradient id="paint8_linear_0_1" x1="1276.4" x2="1158" y1="7682.51" y2="7759.41" gradientUnits="userSpaceOnUse"><stop offset=".2" stop-color="#0052CC"/><stop offset="1" stop-color="#2684FF"/></linearGradient><linearGradient id="paint9_linear_0_1" x1="1309.8" x2="1427.9" y1="8071.6" y2="7994.9" gradientUnits="userSpaceOnUse"><stop offset=".2" stop-color="#0052CC"/><stop offset="1" stop-color="#2684FF"/></linearGradient><linearGradient id="paint10_linear_0_1" x1="243.2" x2="222.6" y1="310.1" y2="298.2" gradientUnits="userSpaceOnUse"><stop offset=".2" stop-color="#0052CC"/><stop offset="1" stop-color="#2684FF"/></linearGradient><linearGradient id="paint11_linear_0_1" x1="83360.4" x2="83733.7" y1="172385" y2="172813" gradientUnits="userSpaceOnUse"><stop offset=".2" stop-color="#0052CC"/><stop offset="1" stop-color="#2684FF"/></linearGradient><linearGradient id="paint12_linear_0_1" x1="375.4" x2="375.4" y1="407.3" y2="343.9" gradientUnits="userSpaceOnUse"><stop stop-color="#911A1E"/><stop offset="1" stop-color="#D61E25"/></linearGradient><radialGradient id="paint0_radial_0_1" cx="0" cy="0" r="1" gradientTransform="matrix(-12 31 -55 -20 333.42 20.64)" gradientUnits="userSpaceOnUse"><stop offset=".06" stop-color="#AE7FE2"/><stop offset="1" stop-color="#0078D4"/></radialGradient><radialGradient id="paint2_radial_0_1" cx="0" cy="0" r="1" gradientTransform="matrix(31 -5 3 20 326.43 46.35)" gradientUnits="userSpaceOnUse"><stop offset=".13" stop-color="#D59DFF"/><stop offset="1" stop-color="#5E438F"/></radialGradient><radialGradient id="paint4_radial_0_1" cx="0" cy="0" r="1" gradientTransform="matrix(-24 -6 10 -41 357.06 36.5)" gradientUnits="userSpaceOnUse"><stop offset=".06" stop-color="#50E6FF"/><stop offset="1" stop-color="#436DCD"/></radialGradient><radialGradient id="paint7_radial_0_1" cx="0" cy="0" r="1" gradientTransform="matrix(28 0 0 26 51.2 207.6)" gradientUnits="userSpaceOnUse"><stop stop-color="#FFB900"/><stop offset=".6" stop-color="#F95D8F"/><stop offset="1" stop-color="#F95353"/></radialGradient><clipPath id="clip0_0_1"><path fill="#fff" d="M0 0h685v435H0z"/></clipPath><clipPath id="clip1_0_1"><path fill="#fff" d="M320 12h40v44h-40z"/></clipPath><filter id="filter0_d_0_1" width="67.5" height="84.9" x="434.9" y="80.6" color-interpolation-filters="sRGB" filterUnits="userSpaceOnUse"><feFlood flood-opacity="0" result="BackgroundImageFix"/><feColorMatrix in="SourceAlpha" result="hardAlpha" values="0 0 0 0 0 0 0 0 0 0 0 0 0 0 0 0 0 0 127 0"/><feOffset dy="4"/><feGaussianBlur stdDeviation="2"/><feComposite in2="hardAlpha" operator="out"/><feColorMatrix values="0 0 0 0 0 0 0 0 0 0 0 0 0 0 0 0 0 0 0.25 0"/><feBlend in2="BackgroundImageFix" result="effect1_dropShadow_0_1"/><feBlend in="SourceGraphic" in2="effect1_dropShadow_0_1" result="shape"/></filter></defs></svg>