<svg xmlns="http://www.w3.org/2000/svg" fill="none" viewBox="0 0 351 919"><path fill="#60BDD6" d="M1 155.6A175.8 175.8 0 0 1 183.7.2l-1.9 42.7a132.9 132.9 0 0 0-138 117.5L1 155.6ZM185.4.3a175.7 175.7 0 0 1 117.3 54.1c30.7 32.3 48 75 48.3 119.5l-42.8.3A132 132 0 0 0 183 42.9L185.4.3ZM351 176.1a174.7 174.7 0 0 1-122.3 165.7l-13-40.7a132.6 132.6 0 0 0 92.5-125.3l42.8.3ZM227.3 342.2a176 176 0 0 1-108.4-1.6l13.8-40.4a133 133 0 0 0 82 1.2l12.6 40.8ZM116.8 340c-17.3-6.2-33.6-15-48.2-26.2l26-33.9c11.1 8.5 23.4 15.1 36.5 19.8l-14.3 40.2ZM66.7 312.3A175.3 175.3 0 0 1 35.8 281L70 255c6.8 8.8 14.6 16.8 23.3 23.7l-26.5 33.5ZM35 279.8a175 175 0 0 1-14.8-23.3l38-19.9c3.2 6.2 6.9 12 11 17.6L35 279.8ZM19.5 255.1c-4.2-8.1-7.8-16.6-10.7-25.3l40.7-13.4a132 132 0 0 0 8 19.2l-38 19.5ZM8.3 228.3c-2.2-7-4-14.1-5.3-21.3l42-7.8a132 132 0 0 0 4.1 16l-40.8 13ZM2.7 205.8c-1-5.4-1.6-10.8-2.1-16.3l42.7-3.6c.3 4.2.9 8.3 1.6 12.4l-42.2 7.5Z"/><path fill="#fff" d="M94.7 99h-7.2v-1.8l2.4-2.4a39.4 39.4 0 0 0 1.8-2.1l.1-.7c0-.3 0-.5-.3-.7l-.6-.2a2 2 0 0 0-1 .3c-.3.2-.7.4-1 .8l-1.6-1.7 1-.8c.3-.2.7-.5 1.2-.6a5.3 5.3 0 0 1 3.4.1c.5.3 1 .6 1.2 1 .3.4.4.9.4 1.4 0 .6 0 1-.3 1.5-.2.5-.5 1-1 1.4L91.7 96l-.8.7h3.8V99Zm4.7-10.1c.6 0 1.2 0 1.7.2s.9.5 1.2.8c.3.4.4.9.4 1.4a2.4 2.4 0 0 1-.8 1.9 4 4 0 0 1-1 .5l1 .7.8.8c.2.3.3.7.3 1.1 0 .6-.1 1-.4 1.5-.3.4-.7.7-1.2 1a5 5 0 0 1-2 .3c-.9 0-1.6 0-2.1-.3-.6-.2-1-.6-1.2-1-.3-.4-.4-.9-.4-1.4 0-.5 0-.9.2-1.2l.7-.8 1-.6c-.4-.2-.6-.4-.8-.7-.3-.2-.5-.5-.6-.8l-.2-1c0-.5.1-1 .4-1.4.3-.3.7-.6 1.2-.8l1.8-.2Zm-1.2 7.4c0 .2 0 .5.3.6.2.2.5.3.8.3.4 0 .7 0 1-.2l.2-.7c0-.2 0-.4-.2-.5a2 2 0 0 0-.4-.5l-.4-.3h-.2l-.6.3-.4.4a1 1 0 0 0-.1.6Zm1.2-5.5c-.3 0-.5 0-.6.2-.2.1-.3.3-.3.5l.1.4.3.4.4.3.4-.3.3-.3.2-.5c0-.2-.1-.4-.3-.5a.9.9 0 0 0-.5-.2Zm4.6 7c0-.4.2-.8.5-1l1-.2c.4 0 .7 0 1 .2.2.2.4.6.4 1 0 .5-.2.9-.4 1-.3.3-.6.4-1 .4s-.8-.1-1-.3c-.3-.2-.5-.6-.5-1Zm8-5.3c.6 0 1 0 1.5.3s.9.6 1.1 1.1c.3.5.4 1 .4 1.8 0 .7-.1 1.3-.4 1.9-.3.5-.7.9-1.3 1.1-.6.3-1.4.4-2.3.4l-1.6-.1c-.5 0-.9-.2-1.3-.4v-2.2a8.2 8.2 0 0 0 2.7.6l.8-.1.5-.5c.2-.1.2-.4.2-.6a1 1 0 0 0-.4-1c-.3-.2-.7-.3-1.2-.3l-.8.1a6 6 0 0 0-.6.2l-1-.5.4-5.3h5.7v2.3H111l-.1 1.3a74.8 74.8 0 0 1 1.1-.1Zm6.5-3.6c.8 0 1.4.2 1.9.8.5.5.7 1.3.7 2.3 0 1-.2 1.7-.7 2.3-.4.6-1 .8-2 .8-.7 0-1.3-.2-1.8-.8-.4-.6-.7-1.3-.7-2.3 0-1 .3-1.8.7-2.3.4-.6 1-.8 1.9-.8Zm0 1.6c-.2 0-.3.2-.4.4L118 92l.1 1c0 .4.2.5.4.5s.4-.1.4-.4l.1-1v-1.2c-.1-.2-.3-.4-.5-.4Zm7.6-1.5-5.6 10h-2l5.6-10h2Zm0 3.8c.8 0 1.4.3 1.9.9.5.5.7 1.3.7 2.3 0 1-.2 1.7-.7 2.3-.4.5-1 .8-2 .8-.7 0-1.3-.3-1.8-.8-.4-.6-.7-1.4-.7-2.3 0-1 .3-1.8.7-2.3.4-.6 1-.9 1.9-.9Zm0 1.7c-.2 0-.3.1-.4.4l-.1 1 .1 1.2c0 .2.2.4.4.4s.4-.2.4-.4l.1-1.1v-1.1c-.1-.3-.3-.4-.5-.4ZM243.8 114h-7.2v-1.8l2.4-2.4a40.5 40.5 0 0 0 1.8-2.1l.2-.7c0-.3-.1-.5-.3-.7l-.7-.2a2 2 0 0 0-1 .3l-1 .8-1.5-1.7 1-.8c.3-.3.7-.5 1.1-.6a5.3 5.3 0 0 1 3.5.1c.5.3.9.6 1.1 1 .3.4.4.9.4 1.4 0 .6 0 1-.3 1.5-.2.5-.5 1-1 1.4l-1.5 1.5-.8.7h3.8v2.3Zm8.6-2h-1.1v2h-2.7v-2h-4v-2l4.2-6h2.5v6h1v2Zm-3.8-2v-2.6a6.3 6.3 0 0 1-.6 1l-1 1.6h1.6Zm6.8-6.1c.8 0 1.4.2 1.9.8.4.5.7 1.3.7 2.3 0 1-.3 1.7-.7 2.3-.4.6-1 .8-2 .8-.7 0-1.3-.2-1.8-.8-.4-.6-.7-1.3-.7-2.3 0-1 .2-1.8.7-2.3.4-.6 1-.8 1.9-.8Zm0 1.6c-.2 0-.3.2-.4.4l-.1 1.1v1c.2.4.3.5.5.5s.3-.1.4-.4l.1-1-.1-1.2c0-.2-.2-.4-.4-.4Zm7.6-1.5-5.6 10h-2l5.5-10h2Zm0 3.8c.8 0 1.4.3 1.9.9.4.5.7 1.3.7 2.3 0 1-.2 1.7-.7 2.3-.4.5-1 .8-2 .8-.7 0-1.3-.3-1.8-.8-.4-.6-.7-1.4-.7-2.3 0-1 .2-1.8.7-2.3.4-.6 1-.9 1.9-.9Zm0 1.7c-.2 0-.3.1-.4.4l-.1 1v1.2c.2.2.3.4.5.4s.3-.2.4-.4l.1-1.1-.1-1.1c0-.3-.2-.4-.4-.4ZM250.8 233h-7.2v-1.8l2.4-2.4a40.5 40.5 0 0 0 1.8-2.1l.2-.7c0-.3-.1-.5-.3-.7l-.7-.2a2 2 0 0 0-1 .3l-1 .8-1.5-1.7 1-.8c.3-.3.7-.4 1.1-.6a5.3 5.3 0 0 1 3.5.1c.5.3.9.6 1.1 1 .3.4.4.9.4 1.4 0 .6 0 1-.3 1.5-.2.5-.5 1-1 1.4l-1.5 1.5-.8.7h3.8v2.3Zm8.3-5c0 .8 0 1.5-.2 2.2-.1.6-.4 1.1-.6 1.6-.3.4-.7.8-1.1 1-.5.2-1 .3-1.7.3-.9 0-1.6-.2-2-.6-.6-.4-1-1-1.3-1.7a9 9 0 0 1-.3-2.8c0-1 0-2 .3-2.8.2-.7.6-1.3 1.1-1.7.6-.4 1.3-.6 2.2-.6.8 0 1.5.2 2 .6.5.4 1 1 1.2 1.7.2.8.4 1.7.4 2.8Zm-4.6 0 .1 1.7c0 .4.2.7.3 1 .1.2.3.3.6.3.2 0 .4-.1.5-.3.2-.3.3-.6.3-1a15 15 0 0 0 0-3.3c0-.5-.1-.8-.3-1a.6.6 0 0 0-.5-.4c-.3 0-.5.1-.6.4l-.3 1v1.6Zm7.9-5.1c.8 0 1.4.2 1.9.8.4.5.7 1.3.7 2.3 0 1-.3 1.7-.7 2.3-.4.6-1 .8-2 .8-.7 0-1.3-.2-1.8-.8-.4-.6-.7-1.3-.7-2.3 0-1 .2-1.8.7-2.3.4-.6 1-.8 1.9-.8Zm0 1.6c-.2 0-.3.2-.4.4l-.1 1.1v1c.2.4.3.5.5.5s.3-.1.4-.4l.1-1-.1-1.2c0-.2-.2-.4-.4-.4Zm7.6-1.5-5.6 10h-2l5.5-10h2Zm0 3.8c.8 0 1.4.3 1.9.9.4.5.7 1.3.7 2.3 0 1-.2 1.7-.7 2.3-.4.5-1 .8-2 .8-.7 0-1.3-.3-1.8-.8-.4-.6-.7-1.4-.7-2.3 0-1 .2-1.8.7-2.3.4-.6 1-.9 1.9-.9Zm0 1.7c-.2 0-.3.1-.4.4l-.1 1v1.2c.2.2.3.4.5.4s.3-.2.4-.4l.1-1.1-.1-1.1c0-.3-.2-.4-.4-.4ZM170.6 287h-2.7v-5.4a61.6 61.6 0 0 1 0-1.7 4.4 4.4 0 0 1-.6.7l-1.2 1-1.4-1.8 3.5-2.8h2.4v10Zm9.5-5c0 .8 0 1.5-.2 2.2-.1.6-.4 1.1-.6 1.6-.3.4-.7.8-1.1 1-.5.2-1 .3-1.7.3-.9 0-1.6-.2-2-.6-.6-.4-1-1-1.3-1.7a9 9 0 0 1-.3-2.8c0-1 0-2 .3-2.8.2-.7.6-1.3 1.1-1.7.6-.4 1.3-.6 2.2-.6.8 0 1.5.2 2 .6.5.4 1 1 1.2 1.7.2.8.4 1.7.4 2.8Zm-4.6 0 .1 1.7c0 .4.2.7.3 1 .1.2.3.3.6.3.2 0 .4-.1.5-.3.2-.3.3-.6.3-1a15 15 0 0 0 0-3.3c0-.5-.1-.8-.3-1a.6.6 0 0 0-.5-.4c-.3 0-.5.1-.6.4l-.3 1v1.6Zm7.9-5.1c.8 0 1.4.2 1.9.8.4.5.7 1.3.7 2.3 0 1-.3 1.7-.7 2.3-.4.6-1 .8-2 .8-.7 0-1.3-.2-1.8-.8-.4-.6-.7-1.3-.7-2.3 0-1 .2-1.8.7-2.3.4-.6 1-.8 1.9-.8Zm0 1.6c-.2 0-.3.2-.4.4l-.1 1.1v1c.2.4.3.5.5.5s.3-.1.4-.4l.1-1-.1-1.2c0-.2-.2-.4-.4-.4Zm7.6-1.5-5.6 10h-2l5.5-10h2Zm0 3.8c.8 0 1.4.3 1.9.9.4.5.7 1.3.7 2.3 0 1-.2 1.7-.7 2.3-.4.5-1 .8-2 .8-.7 0-1.3-.3-1.8-.8-.4-.6-.7-1.4-.7-2.3 0-1 .2-1.8.7-2.3.4-.6 1-.9 1.9-.9Zm0 1.7c-.2 0-.3.1-.4.4l-.1 1v1.2c.2.2.3.4.5.4s.3-.2.4-.4l.1-1.1-.1-1.1c0-.3-.2-.4-.4-.4ZM116.8 271.5c.6 0 1 0 1.5.3s.8.6 1.1 1.1c.3.5.4 1 .4 1.8 0 .7-.1 1.3-.4 1.9-.3.5-.8.9-1.4 1.1-.6.3-1.3.4-2.2.4l-1.6-.1a5 5 0 0 1-1.3-.4v-2.2a8.3 8.3 0 0 0 2.6.6l.9-.1.5-.5.2-.6a1 1 0 0 0-.4-1c-.3-.2-.7-.3-1.3-.3l-.7.1-.6.2-1-.5.4-5.3h5.7v2.3h-3.5v1.3l.4-.1h.7Zm6.5-3.6c.8 0 1.4.2 1.9.8.4.5.7 1.3.7 2.3 0 1-.3 1.7-.7 2.3-.4.6-1 .8-2 .8-.7 0-1.3-.2-1.8-.8-.5-.6-.7-1.3-.7-2.3 0-1 .2-1.8.7-2.3.4-.6 1-.8 1.9-.8Zm0 1.6c-.2 0-.3.2-.4.4l-.1 1.1v1c.2.4.3.5.5.5s.3-.1.4-.4l.1-1-.1-1.2c0-.2-.2-.4-.4-.4Zm7.6-1.5-5.6 10h-2l5.5-10h2Zm0 3.8c.8 0 1.4.3 1.9.9.4.5.7 1.3.7 2.3 0 1-.3 1.7-.7 2.3-.4.5-1 .8-2 .8-.7 0-1.3-.3-1.8-.8-.4-.6-.7-1.4-.7-2.3 0-1 .2-1.8.7-2.3.4-.6 1-.9 1.9-.9Zm0 1.7c-.2 0-.3.1-.4.4l-.1 1v1.2c.2.2.3.4.5.4s.3-.2.4-.4l.1-1.1-.1-1.1c0-.3-.2-.4-.4-.4ZM95.3 257h-1.1v2h-2.7v-2h-4v-2l4.2-6h2.5v6h1v2Zm-3.8-2V254a14.2 14.2 0 0 1 0-1.5 6.5 6.5 0 0 1-.6 1l-1 1.6h1.6Zm6.8-6.1c.8 0 1.4.2 1.9.8.4.5.7 1.3.7 2.3 0 1-.3 1.7-.7 2.3-.4.6-1 .8-2 .8-.7 0-1.3-.2-1.8-.8-.5-.6-.7-1.3-.7-2.3 0-1 .2-1.8.7-2.3.4-.6 1-.8 1.9-.8Zm0 1.6c-.2 0-.3.2-.4.4l-.1 1.1v1c.2.4.3.5.5.5s.3-.1.4-.4l.1-1-.1-1.2c0-.2-.2-.4-.4-.4Zm7.6-1.5-5.6 10h-2l5.5-10h2Zm0 3.8c.8 0 1.4.3 1.9.9.4.5.7 1.3.7 2.3 0 1-.3 1.7-.7 2.3-.4.5-1 .8-2 .8-.7 0-1.3-.3-1.8-.8-.4-.6-.7-1.4-.7-2.3 0-1 .2-1.8.7-2.3.4-.6 1-.9 1.9-.9Zm0 1.7c-.2 0-.3.1-.4.4l-.1 1v1.2c.2.2.3.4.5.4s.3-.2.4-.4l.1-1.1-.1-1.1c0-.3-.2-.4-.4-.4ZM76.8 240h-7.2v-1.8l2.4-2.4a39.6 39.6 0 0 0 1.8-2.1l.1-.7c0-.3 0-.5-.3-.7l-.6-.2a2 2 0 0 0-1 .3c-.3.2-.7.4-1 .8l-1.6-1.7 1-.8c.3-.3.7-.4 1.2-.6a5.3 5.3 0 0 1 3.4.1c.5.3 1 .6 1.2 1 .3.4.4.9.4 1.4 0 .6 0 1-.3 1.5-.2.5-.5 1-1 1.4l-1.5 1.5-.8.7h3.8v2.3Zm1.1-1.1c0-.5.2-.9.5-1 .2-.2.6-.3 1-.3s.7 0 1 .2c.2.2.4.6.4 1 0 .5-.2.9-.4 1-.3.3-.6.4-1 .4s-.8-.1-1-.3c-.3-.2-.5-.6-.5-1Zm8-5.4c.6 0 1 0 1.5.3s.9.6 1.1 1.1c.3.5.4 1 .4 1.8 0 .7-.1 1.3-.4 1.9-.3.5-.8.9-1.4 1.1-.5.3-1.3.4-2.2.4l-1.6-.1a5 5 0 0 1-1.3-.4v-2.2a8.3 8.3 0 0 0 2.7.6l.8-.1.5-.5c.2-.1.2-.4.2-.6a1 1 0 0 0-.4-1c-.3-.2-.7-.3-1.2-.3l-.8.1a6 6 0 0 0-.6.2l-1-.5.4-5.3h5.7v2.3h-3.4l-.2 1.3.5-.1h.7Zm6.5-3.6c.8 0 1.4.2 1.9.8.5.5.7 1.3.7 2.3 0 1-.2 1.7-.7 2.3-.4.6-1 .8-2 .8-.7 0-1.3-.2-1.8-.8-.4-.6-.7-1.3-.7-2.3 0-1 .3-1.8.7-2.3.4-.6 1-.8 1.9-.8Zm0 1.6c-.2 0-.3.2-.4.4L92 233l.1 1c0 .4.2.5.4.5s.3-.1.4-.4l.1-1v-1.2c-.2-.2-.3-.4-.5-.4Zm7.6-1.5-5.6 10h-2l5.5-10h2Zm0 3.8c.8 0 1.4.3 1.9.9.5.5.7 1.3.7 2.3 0 1-.2 1.7-.7 2.3-.4.5-1 .8-2 .8-.7 0-1.3-.3-1.8-.8-.4-.6-.7-1.4-.7-2.3 0-1 .3-1.8.7-2.3.4-.6 1-.9 1.9-.9Zm0 1.7c-.2 0-.3.1-.4.4l-.1 1 .1 1.2c0 .2.2.4.4.4s.4-.2.4-.4l.1-1.1v-1.1c-.1-.3-.3-.4-.5-.4ZM70.8 222h-7.2v-1.8l2.4-2.4a39.6 39.6 0 0 0 1.8-2.1l.1-.7c0-.3 0-.5-.3-.7l-.6-.2a2 2 0 0 0-1 .3c-.3.2-.7.4-1 .8l-1.6-1.7 1-.8c.3-.3.7-.4 1.2-.6a5.3 5.3 0 0 1 3.4.1c.5.3 1 .6 1.2 1 .3.4.4.9.4 1.4 0 .6 0 1-.3 1.5-.2.5-.5 1-1 1.4l-1.5 1.5-.8.7h3.8v2.3Zm1.1-1.1c0-.5.2-.9.5-1 .2-.2.6-.3 1-.3s.7 0 1 .2c.2.2.4.6.4 1 0 .5-.2.9-.4 1-.3.3-.6.4-1 .4s-.8-.1-1-.3c-.3-.2-.5-.6-.5-1Zm8-5.4c.6 0 1 0 1.5.3s.9.6 1.1 1.1c.3.5.4 1 .4 1.8 0 .7-.1 1.3-.4 1.9-.3.5-.8.9-1.4 1.1-.5.3-1.3.4-2.2.4l-1.6-.1a5 5 0 0 1-1.3-.4v-2.2a8.3 8.3 0 0 0 2.7.6l.8-.1.5-.5c.2-.1.2-.4.2-.6a1 1 0 0 0-.4-1c-.3-.2-.7-.3-1.2-.3l-.8.1a6 6 0 0 0-.6.2l-1-.5.4-5.3h5.7v2.3h-3.4l-.2 1.3.5-.1h.7Zm6.5-3.6c.8 0 1.4.2 1.9.8.5.5.7 1.3.7 2.3 0 1-.2 1.7-.7 2.3-.4.6-1 .8-2 .8-.7 0-1.3-.2-1.8-.8-.4-.6-.7-1.3-.7-2.3 0-1 .3-1.8.7-2.3.4-.6 1-.8 1.9-.8Zm0 1.6c-.2 0-.3.2-.4.4L86 215l.1 1c0 .4.2.5.4.5s.3-.1.4-.4l.1-1v-1.2c-.2-.2-.3-.4-.5-.4ZM94 212l-5.6 10h-2l5.5-10h2Zm0 3.8c.8 0 1.4.3 1.9.9.5.5.7 1.3.7 2.3 0 1-.2 1.7-.7 2.3-.4.5-1 .8-2 .8-.7 0-1.3-.3-1.8-.8-.4-.6-.7-1.4-.7-2.3 0-1 .3-1.8.7-2.3.4-.6 1-.9 1.9-.9Zm0 1.7c-.2 0-.3.1-.4.4l-.1 1 .1 1.2c0 .2.2.4.4.4s.4-.2.4-.4l.1-1.1v-1.1c-.1-.3-.3-.4-.5-.4ZM66 205h-7.3v-1.8l2.4-2.4a39.6 39.6 0 0 0 1.8-2.1l.2-.7c0-.3-.1-.5-.3-.7l-.7-.2a2 2 0 0 0-1 .3l-1 .8-1.5-1.7 1-.8c.3-.3.7-.4 1.1-.6a5.3 5.3 0 0 1 3.5.1c.5.3.9.6 1.1 1 .3.4.4.9.4 1.4 0 .6 0 1-.3 1.5-.2.5-.5 1-1 1.4L63 202l-.7.7h3.7v2.3Zm3.3-10.1c.8 0 1.4.2 1.9.8.4.5.7 1.3.7 2.3 0 1-.3 1.7-.7 2.3-.4.6-1 .8-2 .8-.7 0-1.3-.2-1.8-.8-.5-.6-.7-1.3-.7-2.3 0-1 .2-1.8.7-2.3.4-.6 1-.8 1.9-.8Zm0 1.6c-.2 0-.3.2-.4.4l-.1 1.1v1c.2.4.3.5.5.5s.3-.1.4-.4l.1-1-.1-1.2c0-.2-.2-.4-.4-.4Zm7.6-1.5-5.6 10h-2l5.5-10h2Zm0 3.8c.8 0 1.4.3 1.9.9.4.5.7 1.3.7 2.3 0 1-.3 1.7-.7 2.3-.4.5-1 .8-2 .8-.7 0-1.3-.3-1.8-.8-.4-.6-.7-1.4-.7-2.3 0-1 .2-1.8.7-2.3.4-.6 1-.9 1.9-.9Zm0 1.7c-.2 0-.3.1-.4.4l-.1 1v1.2c.2.2.3.4.5.4s.3-.2.4-.4l.1-1.1-.1-1.1c0-.3-.2-.4-.4-.4ZM57.6 186h-2.8v-5.4a53.9 53.9 0 0 1 0-1.7 4.6 4.6 0 0 1-.6.7l-1 1-1.5-1.8 3.4-2.8h2.5v10Zm2.3-1.1c0-.5.2-.9.5-1 .2-.2.6-.3 1-.3s.7 0 1 .2c.2.2.4.6.4 1 0 .5-.2.9-.4 1-.3.3-.6.4-1 .4s-.8-.1-1-.3c-.3-.2-.5-.6-.5-1Zm8-5.4c.6 0 1 0 1.5.3s.9.6 1.1 1.1c.3.5.4 1 .4 1.8 0 .7-.1 1.3-.4 1.9-.3.5-.8.9-1.4 1.1-.5.3-1.3.4-2.2.4l-1.6-.1a5 5 0 0 1-1.3-.4v-2.2a8.3 8.3 0 0 0 2.7.6l.8-.1.5-.5c.2-.1.2-.4.2-.6a1 1 0 0 0-.4-1c-.3-.2-.7-.3-1.2-.3l-.8.1a6 6 0 0 0-.6.2l-1-.5.4-5.3h5.7v2.3h-3.4l-.2 1.3.5-.1h.7Zm6.5-3.6c.8 0 1.4.2 1.9.8.5.5.7 1.3.7 2.3 0 1-.2 1.7-.7 2.3-.4.6-1 .8-2 .8-.7 0-1.3-.2-1.8-.8-.4-.6-.7-1.3-.7-2.3 0-1 .3-1.8.7-2.3.4-.6 1-.8 1.9-.8Zm0 1.6c-.2 0-.3.2-.4.4L74 179l.1 1c0 .4.2.5.4.5s.3-.1.4-.4l.1-1v-1.2c-.2-.2-.3-.4-.5-.4ZM82 176l-5.6 10h-2l5.5-10h2Zm0 3.8c.8 0 1.4.3 1.9.9.5.5.7 1.3.7 2.3 0 1-.2 1.7-.7 2.3-.4.5-1 .8-2 .8-.7 0-1.3-.3-1.8-.8-.4-.6-.7-1.4-.7-2.3 0-1 .3-1.8.7-2.3.4-.6 1-.9 1.9-.9Zm0 1.7c-.2 0-.3.1-.4.4l-.1 1 .1 1.2c0 .2.2.4.4.4s.4-.2.4-.4l.1-1.1v-1.1c-.1-.3-.3-.4-.5-.4Z"/><path fill="#F2F2F2" d="M132 398.7h-5.7v-10h5.7v1.4h-4v2.7h3.7v1.4H128v3.1h4v1.4Zm8.3 0h-1.6v-4.6c0-.6 0-1-.3-1.3-.2-.3-.6-.5-1-.5-.6 0-1.1.2-1.4.6-.3.4-.4 1.1-.4 2v3.8H134v-7.5h1.2l.3 1c.2-.4.5-.7 1-.9a3 3 0 0 1 1.3-.3c1.1 0 1.9.4 2.3 1.2.3-.4.6-.7 1-.9a3 3 0 0 1 1.4-.3c1 0 1.6.2 2 .7.4.5.6 1.2.6 2v5h-1.6v-4.6c0-.6-.1-1-.3-1.3-.2-.3-.6-.5-1-.5-.7 0-1.1.2-1.4.6-.3.4-.5 1-.5 1.8v4Zm10.9.2c-1 0-1.7-.4-2.2-1h-.1v4.2h-1.5v-11h1.3l.2 1c.6-.7 1.3-1 2.3-1 1 0 1.7.3 2.2 1 .5.6.8 1.6.8 2.8 0 1.3-.3 2.2-.8 3-.5.6-1.3 1-2.2 1Zm-.4-6.6c-.6 0-1.1.2-1.4.6-.3.4-.4 1-.4 1.8v.2c0 1 .1 1.6.4 2 .3.4.8.6 1.4.6.6 0 1-.2 1.3-.6.3-.5.5-1.1.5-2 0-.8-.2-1.5-.5-2-.3-.3-.7-.6-1.3-.6Zm6.9 6.4H156v-10.6h1.6v10.6Zm9-3.8c0 1.3-.3 2.2-1 3-.6.6-1.5 1-2.6 1-.7 0-1.3-.2-1.9-.5-.5-.3-1-.8-1.2-1.4-.3-.6-.5-1.3-.5-2 0-1.3.3-2.3 1-3 .6-.6 1.5-1 2.6-1s2 .4 2.6 1a4 4 0 0 1 1 3Zm-5.5 0c0 1.8.6 2.6 2 2.6 1.2 0 1.8-.8 1.8-2.6 0-1.7-.6-2.6-1.9-2.6-.7 0-1.2.3-1.5.7-.3.4-.4 1-.4 2Zm6.2-3.7h1.7l1.6 4.2c.2.7.4 1.2.4 1.8h.1l.2-1 1.8-5h1.7l-3.2 8.5c-.6 1.6-1.6 2.4-3 2.4l-1-.1v-1.3h.8c.8 0 1.3-.4 1.7-1.3l.2-.7-3-7.5Zm12 7.7c-1.2 0-2.1-.4-2.8-1a4 4 0 0 1-1-3c0-1.1.3-2.1 1-2.8.5-.7 1.4-1 2.5-1 1 0 1.7.2 2.3.8.6.6.9 1.5.9 2.5v.9h-5c0 .7.2 1.3.5 1.7.4.4 1 .6 1.6.6a6 6 0 0 0 2.5-.6v1.3c-.4.2-.8.4-1.2.4l-1.3.2Zm-.3-6.7c-.6 0-1 .2-1.3.5-.3.3-.5.8-.5 1.4h3.4c0-.6-.1-1-.4-1.4-.3-.3-.7-.5-1.2-.5Zm8.3 6.7c-1.2 0-2-.4-2.7-1a4 4 0 0 1-1-3c0-1.1.3-2.1.9-2.8.6-.7 1.4-1 2.5-1 1 0 1.8.2 2.4.8.6.6.9 1.5.9 2.5v.9h-5c0 .7.1 1.3.5 1.7.4.4 1 .6 1.6.6a6 6 0 0 0 2.5-.6v1.3c-.4.2-.8.4-1.2.4l-1.4.2Zm-.3-6.7c-.5 0-.9.2-1.2.5-.3.3-.5.8-.6 1.4h3.5c0-.6-.2-1-.5-1.4-.3-.3-.7-.5-1.2-.5Zm17.8 1.5c0 1.6-.4 2.9-1.3 3.8-.8.9-2 1.4-3.4 1.4-1.5 0-2.7-.5-3.5-1.4a5.5 5.5 0 0 1-1.2-3.8c0-1.7.4-3 1.2-3.8.8-.9 2-1.3 3.5-1.3s2.6.4 3.4 1.3c.9 1 1.3 2.2 1.3 3.8Zm-7.7 0c0 1.2.3 2.2.8 2.8.5.6 1.2 1 2.2 1 1 0 1.7-.4 2.2-1 .5-.6.7-1.6.7-2.8 0-1.2-.2-2.2-.7-2.8-.5-.6-1.2-1-2.2-1-1 0-1.7.4-2.2 1-.5.6-.8 1.6-.8 2.8Zm11.4 5-3-7.5h1.8l1.5 4.4.5 1.7.5-1.7 1.6-4.4h1.7l-2.9 7.5h-1.7Zm9 .2c-1.1 0-2-.4-2.7-1a4 4 0 0 1-1-3c0-1.1.3-2.1.9-2.8.6-.7 1.5-1 2.5-1s1.8.2 2.4.8c.6.6.9 1.5.9 2.5v.9h-5c0 .7.2 1.3.5 1.7.4.4 1 .6 1.6.6a6 6 0 0 0 2.5-.6v1.3c-.4.2-.8.4-1.2.4l-1.4.2Zm-.3-6.7c-.5 0-.9.2-1.2.5-.3.3-.5.8-.5 1.4h3.4c0-.6-.2-1-.5-1.4-.2-.3-.7-.5-1.2-.5Zm9-1.2h.7l-.1 1.6a3 3 0 0 0-.7-.1 2 2 0 0 0-1.6.6c-.4.4-.6 1-.6 1.7v4h-1.6v-7.6h1.3l.2 1.3a3 3 0 0 1 1-1c.4-.3.9-.5 1.3-.5Zm8.3 7.7-1-3.5-.6-2.6a38 38 0 0 1-.7 2.6l-1 3.5h-1.8l-2-7.5h1.6l1 3.7.4 2.3a16.4 16.4 0 0 1 .5-2l1.1-4h1.8l1.1 4a14.6 14.6 0 0 1 .5 2c0-.5.2-1.3.5-2.3l1-3.7h1.6l-2.2 7.5h-1.8Zm9.1-7.7h.8l-.1 1.6a3 3 0 0 0-.7-.1 2 2 0 0 0-1.6.6c-.4.4-.6 1-.6 1.7v4h-1.6v-7.6h1.2l.3 1.3a3 3 0 0 1 1-1c.4-.3.9-.5 1.3-.5Zm9 4c0 1.2-.4 2.1-1 2.8-.6.7-1.5 1-2.7 1-.7 0-1.3-.1-1.8-.4-.6-.3-1-.8-1.3-1.4-.3-.6-.4-1.3-.4-2 0-1.3.3-2.3 1-3 .5-.6 1.4-1 2.6-1 1 0 2 .4 2.6 1a4 4 0 0 1 1 3Zm-5.6 0c0 1.7.7 2.5 2 2.5 1.2 0 1.9-.8 1.9-2.6 0-1.7-.7-2.6-2-2.6-.6 0-1.1.3-1.4.7-.3.4-.5 1-.5 2Zm10.2 2.6 1.2-.2v1.2l-.7.2h-.9c-1.5 0-2.3-.8-2.3-2.4v-4h-1v-.7l1.1-.6.6-1.6h1v1.7h2.1v1.2h-2.1v4c0 .4 0 .7.2.9.2.2.5.3.8.3Zm6 1.3c-1.2 0-2.1-.4-2.8-1a4 4 0 0 1-1-3c0-1.1.4-2.1 1-2.8.6-.7 1.4-1 2.5-1 1 0 1.8.2 2.4.8.5.6.8 1.5.8 2.5v.9h-5c0 .7.2 1.3.6 1.7.4.4.9.6 1.6.6a6 6 0 0 0 2.5-.6v1.3c-.4.2-.8.4-1.2.4l-1.4.2Zm-.3-6.7c-.5 0-1 .2-1.2.5-.3.3-.5.8-.6 1.4h3.5c0-.6-.2-1-.5-1.4-.3-.3-.7-.5-1.2-.5Zm17 1.4c0 1.7-.5 3-1.4 3.8-.9.9-2.2 1.3-4 1.3H272v-10h3c1.7 0 2.9.4 3.8 1.3.9.9 1.3 2 1.3 3.6Zm-1.7 0c0-2.3-1.1-3.5-3.4-3.5h-1.4v7.2h1.2c2.4 0 3.6-1.2 3.6-3.6Zm8.4 5.1-.3-1-1.2 1-1.4.2c-.7 0-1.3-.2-1.7-.6-.4-.4-.7-1-.7-1.8 0-.7.3-1.3 1-1.7a5 5 0 0 1 2.6-.7h1.3v-.4c0-.5-.1-.9-.4-1-.2-.3-.5-.5-1-.5l-1.1.2-1 .4-.6-1.1 1.4-.5 1.3-.2c1 0 1.7.2 2.2.6.5.5.8 1.1.8 2v5.1h-1.2Zm-2.4-1c.6 0 1-.2 1.4-.6.4-.3.6-.7.6-1.3v-.7h-1c-.8 0-1.3.2-1.7.4-.3.3-.5.6-.5 1s.1.7.3.8c.2.2.5.3 1 .3Zm8.6-.1 1.2-.2v1.2l-.7.2h-.9c-1.5 0-2.2-.8-2.2-2.4v-4h-1v-.7l1-.6.6-1.6h1v1.7h2.1v1.2H292v4c0 .4 0 .7.3.9.1.2.4.3.7.3Zm7.4 1.1-.3-1-1.1 1-1.5.2c-.7 0-1.3-.2-1.7-.6-.4-.4-.6-1-.6-1.8 0-.7.3-1.3.8-1.7a5 5 0 0 1 2.7-.7h1.3v-.4c0-.5-.1-.9-.3-1-.3-.3-.6-.5-1-.5l-1.2.2-1 .4-.5-1.1 1.3-.5 1.4-.2c1 0 1.7.2 2.2.6.4.5.7 1.1.7 2v5.1h-1.2Zm-2.4-1c.6 0 1.1-.2 1.5-.6.3-.3.5-.7.5-1.3v-.7h-1c-.7 0-1.3.2-1.6.4-.4.3-.6.6-.6 1s.1.7.3.8c.2.2.5.3 1 .3ZM130.6 447c-1 0-1.7.3-2.2 1-.6.6-.9 1.6-.9 2.7 0 1.3.3 2.2.8 2.8.5.6 1.3 1 2.3 1 .4 0 .8 0 1.2-.2l1.2-.3v1.4c-.7.3-1.6.5-2.6.5-1.5 0-2.6-.5-3.4-1.4a5.6 5.6 0 0 1-1.2-3.8c0-1 .2-2 .6-2.7a4 4 0 0 1 1.6-1.8 5 5 0 0 1 2.6-.6c1 0 2 .2 2.8.6l-.6 1.4-1-.4c-.4-.2-.8-.2-1.2-.2Zm11.1 5c0 1.2-.3 2.1-1 2.8-.6.7-1.4 1-2.6 1-.7 0-1.3-.1-1.8-.4-.6-.3-1-.8-1.3-1.4-.3-.6-.4-1.3-.4-2 0-1.3.3-2.3 1-3 .5-.6 1.4-1 2.6-1 1 0 2 .4 2.6 1a4 4 0 0 1 1 3Zm-5.5 0c0 1.7.7 2.5 2 2.5 1.2 0 1.9-.8 1.9-2.6 0-1.7-.7-2.6-2-2.6-.6 0-1.1.3-1.4.7-.3.4-.5 1-.5 2Zm13.8 3.7h-1.7v-4.6c0-.6 0-1-.3-1.3-.2-.3-.6-.5-1-.5-.6 0-1 .2-1.4.6-.3.4-.4 1.1-.4 2v3.8h-1.6v-7.5h1.2l.3 1a2 2 0 0 1 1-.9 3 3 0 0 1 1.3-.3c1.1 0 2 .4 2.3 1.2.3-.4.6-.7 1-.9a3 3 0 0 1 1.4-.3c1 0 1.6.2 2 .7.4.5.6 1.2.6 2v5h-1.6v-4.6c0-.6 0-1-.3-1.3-.2-.3-.6-.5-1-.5-.7 0-1.1.2-1.4.6-.3.4-.4 1-.4 1.8v4Zm10.8.2c-1 0-1.7-.4-2.2-1h-.1v4.2H157v-11h1.3l.2 1c.6-.7 1.3-1 2.3-1 1 0 1.7.3 2.2 1 .6.6.8 1.6.8 2.8 0 1.3-.2 2.2-.8 3-.5.6-1.3 1-2.2 1Zm-.4-6.6c-.6 0-1 .2-1.4.6-.3.4-.4 1-.4 1.8v.2c0 1 .1 1.6.4 2 .3.4.8.6 1.4.6.6 0 1-.2 1.3-.6.3-.5.5-1.1.5-2 0-.8-.2-1.5-.5-2-.3-.3-.7-.6-1.3-.6Zm6.9 6.4h-1.6v-10.6h1.6v10.6Zm3.9 0h-1.6v-7.5h1.6v7.5Zm-1.7-9.5c0-.3 0-.6.2-.7.2-.2.4-.2.7-.2.3 0 .5 0 .7.2l.2.7c0 .2 0 .4-.2.6-.2.2-.4.2-.7.2-.3 0-.5 0-.7-.2a.9.9 0 0 1-.2-.6Zm8.7 9.5-.3-1-1.1 1-1.5.2c-.7 0-1.3-.2-1.7-.6-.4-.4-.6-1-.6-1.8 0-.7.3-1.3.8-1.7a5 5 0 0 1 2.7-.7h1.3v-.4c0-.5-.1-.9-.3-1-.3-.3-.6-.5-1-.5l-1.2.2-1 .4-.6-1.1 1.4-.5 1.4-.2c1 0 1.7.2 2.1.6.5.5.8 1.1.8 2v5.1h-1.2Zm-2.4-1c.6 0 1.1-.2 1.4-.6.4-.3.6-.7.6-1.3v-.7h-1c-.7 0-1.3.2-1.6.4-.4.3-.6.6-.6 1s.1.7.3.8c.2.2.5.3 1 .3Zm12.5 1h-1.6v-4.6c0-.6-.2-1-.4-1.3-.2-.3-.6-.5-1.1-.5-.7 0-1.2.2-1.5.6-.3.4-.5 1.1-.5 2v3.8h-1.6v-7.5h1.3l.2 1c.3-.4.6-.7 1-.9l1.5-.3c1.8 0 2.7 1 2.7 2.8v5Zm5.3.2c-1.2 0-2-.4-2.6-1-.6-.7-1-1.7-1-3 0-1.2.4-2.2 1-2.9.6-.6 1.5-1 2.7-1a5 5 0 0 1 2.1.5l-.4 1.3c-.7-.3-1.3-.4-1.7-.4-1.3 0-2 .8-2 2.6 0 .8.2 1.4.5 1.9.3.4.8.6 1.4.6.8 0 1.4-.2 2-.5v1.4c-.2.1-.5.3-.9.3l-1.1.2Zm7.1 0c-1.1 0-2-.4-2.7-1a4 4 0 0 1-1-3c0-1.1.3-2.1 1-2.8.5-.7 1.4-1 2.5-1 1 0 1.7.2 2.3.8.6.6.9 1.5.9 2.5v.9h-5c0 .7.2 1.3.5 1.7.4.4 1 .6 1.6.6a6 6 0 0 0 2.5-.6v1.3c-.4.2-.8.4-1.2.4l-1.4.2Zm-.2-6.7c-.6 0-1 .2-1.3.5-.3.3-.5.8-.5 1.4h3.4c0-.6-.2-1-.4-1.4-.3-.3-.7-.5-1.2-.5Zm17.1 6.5h-2l-4.9-8v.5l.1 2.3v5.2h-1.5v-10h2l5 8a50.3 50.3 0 0 1-.2-2.7v-5.3h1.5v10Zm5.8.2c-1.2 0-2-.4-2.7-1a4 4 0 0 1-1-3c0-1.1.3-2.1.9-2.8.6-.7 1.4-1 2.5-1 1 0 1.8.2 2.4.8.6.6.9 1.5.9 2.5v.9h-5c0 .7.1 1.3.5 1.7.4.4 1 .6 1.6.6a6 6 0 0 0 2.5-.6v1.3c-.4.2-.8.4-1.2.4l-1.4.2Zm-.3-6.7c-.5 0-.9.2-1.2.5-.3.3-.5.8-.6 1.4h3.5c0-.6-.2-1-.5-1.4-.3-.3-.7-.5-1.2-.5Zm8.4 6.7c-1.2 0-2.1-.4-2.8-1a4 4 0 0 1-1-3c0-1.1.3-2.1 1-2.8.6-.7 1.4-1 2.5-1 1 0 1.8.2 2.4.8.5.6.8 1.5.8 2.5v.9h-5c0 .7.2 1.3.6 1.7.4.4.9.6 1.6.6a6 6 0 0 0 2.4-.6v1.3a5 5 0 0 1-1.1.4l-1.4.2Zm-.3-6.7c-.5 0-1 .2-1.2.5-.3.3-.5.8-.6 1.4h3.4c0-.6-.1-1-.4-1.4-.3-.3-.7-.5-1.2-.5Zm7.6 6.7c-1 0-1.7-.4-2.2-1-.5-.8-.8-1.7-.8-3 0-1.2.3-2.2.8-2.8.5-.7 1.3-1 2.2-1 1 0 1.8.3 2.3 1v-4h1.6v10.6h-1.3l-.3-1c-.6.8-1.3 1.2-2.3 1.2Zm.4-1.3c.7 0 1.2-.2 1.5-.6.3-.4.4-1 .4-1.8v-.2c0-1-.1-1.7-.4-2-.3-.5-.8-.7-1.5-.7-.5 0-1 .3-1.3.7-.3.5-.4 1.1-.4 2 0 .8.1 1.5.4 1.9.3.4.7.7 1.3.7Zm9 1.3c-1.1 0-2-.4-2.7-1a4 4 0 0 1-1-3c0-1.1.3-2.1 1-2.8.6-.7 1.4-1 2.5-1 1 0 1.8.2 2.3.8.6.6 1 1.5 1 2.5v.9h-5.1c0 .7.2 1.3.6 1.7.3.4.9.6 1.5.6a6 6 0 0 0 2.5-.6v1.3c-.4.2-.8.4-1.2.4l-1.3.2Zm-.2-6.7c-.5 0-1 .2-1.3.5-.3.3-.4.8-.5 1.4h3.4c0-.6-.1-1-.4-1.4-.3-.3-.7-.5-1.2-.5Zm7.6 6.7c-1 0-1.7-.4-2.2-1-.6-.8-.8-1.7-.8-3 0-1.2.3-2.2.8-2.8.5-.7 1.3-1 2.2-1 1 0 1.8.3 2.3 1v-4h1.6v10.6h-1.3l-.3-1c-.6.8-1.3 1.2-2.3 1.2Zm.4-1.3c.7 0 1.2-.2 1.5-.6.3-.4.4-1 .4-1.8v-.2c0-1-.1-1.7-.4-2-.4-.5-.8-.7-1.5-.7-.6 0-1 .3-1.3.7-.3.5-.5 1.1-.5 2 0 .8.2 1.5.5 1.9.3.4.7.7 1.3.7ZM132.5 512.7l-1-2.8h-3.8l-1 2.8H125l3.7-10h1.8l3.8 10h-1.8Zm-1.4-4.2-1-2.7a19.3 19.3 0 0 1-.5-1.7l-.5 1.8-1 2.6h3Zm7.4 4.4c-1.2 0-2-.4-2.7-1-.6-.7-.8-1.7-.8-3 0-1.2.3-2.2.9-2.9.6-.6 1.5-1 2.7-1a5 5 0 0 1 2.1.5l-.4 1.3c-.7-.3-1.3-.4-1.7-.4-1.3 0-2 .8-2 2.6 0 .8.2 1.4.5 1.9.3.4.8.6 1.4.6.7 0 1.4-.2 2-.5v1.4c-.2.1-.5.3-.9.3l-1.1.2Zm6.9 0c-1.2 0-2-.4-2.6-1-.6-.7-1-1.7-1-3 0-1.2.4-2.2 1-2.9.6-.6 1.5-1 2.7-1a5 5 0 0 1 2.2.5l-.5 1.3c-.7-.3-1.3-.4-1.7-.4-1.3 0-2 .8-2 2.6 0 .8.2 1.4.5 1.9.4.4.8.6 1.5.6s1.4-.2 2-.5v1.4c-.3.1-.6.3-1 .3l-1.1.2Zm7.2 0c-1.2 0-2.1-.4-2.8-1a4 4 0 0 1-1-3c0-1.1.3-2.1 1-2.8.6-.7 1.4-1 2.5-1 1 0 1.8.2 2.3.8.6.6 1 1.5 1 2.5v.9h-5.1c0 .7.2 1.3.6 1.7.3.4.9.6 1.5.6a6 6 0 0 0 2.5-.6v1.3a5 5 0 0 1-1.2.4l-1.3.2Zm-.3-6.7c-.5 0-1 .2-1.3.5-.3.3-.4.8-.5 1.4h3.4c0-.6-.1-1-.4-1.4-.3-.3-.7-.5-1.2-.5Zm7.6 6.7c-1 0-1.7-.4-2.2-1-.6-.8-.8-1.7-.8-3 0-1.2.2-2.2.8-2.8.5-.7 1.3-1 2.2-1 1 0 1.8.3 2.3 1v-4h1.6v10.6h-1.3l-.3-1c-.6.8-1.3 1.2-2.3 1.2Zm.4-1.3c.7 0 1.2-.2 1.5-.6.3-.4.4-1 .4-1.8v-.2c0-1-.1-1.7-.4-2-.4-.5-.8-.7-1.5-.7-.6 0-1 .3-1.3.7-.3.5-.5 1.1-.5 2 0 .8.2 1.5.5 1.9.3.4.7.7 1.3.7Zm9 1.3c-1.1 0-2-.4-2.7-1a4 4 0 0 1-1-3c0-1.1.3-2.1 1-2.8.5-.7 1.4-1 2.5-1 1 0 1.8.2 2.3.8.6.6.9 1.5.9 2.5v.9h-5c0 .7.2 1.3.6 1.7.3.4.9.6 1.5.6a6 6 0 0 0 2.5-.6v1.3a5 5 0 0 1-1.2.4l-1.3.2Zm-.2-6.7c-.5 0-1 .2-1.3.5-.3.3-.5.8-.5 1.4h3.4c0-.6-.1-1-.4-1.4-.3-.3-.7-.5-1.2-.5Zm11.7 6.5h-1.6v-4.6c0-.6-.2-1-.4-1.3-.2-.3-.6-.5-1.1-.5-.7 0-1.2.2-1.5.6-.3.4-.5 1.1-.5 2v3.8h-1.6v-7.5h1.3l.2 1c.3-.4.6-.7 1-.9l1.5-.3c1.8 0 2.7 1 2.7 2.8v5Zm5-1.1 1.2-.2v1.2l-.7.2h-.9c-1.5 0-2.2-.8-2.2-2.4v-4h-1v-.7l1-.6.6-1.6h1v1.7h2.1v1.2h-2.1v4c0 .4 0 .7.3.9.2.2.4.3.7.3Zm7.4 1.1-.3-1-1.1 1-1.4.2c-.8 0-1.4-.2-1.8-.6-.4-.4-.6-1-.6-1.8 0-.7.3-1.3.9-1.7a5 5 0 0 1 2.6-.7h1.3v-.4c0-.5-.1-.9-.3-1-.3-.3-.6-.5-1-.5l-1.2.2-1 .4-.5-1.1 1.3-.5 1.4-.2c1 0 1.7.2 2.2.6.5.5.7 1.1.7 2v5.1h-1.2Zm-2.3-1c.5 0 1-.2 1.4-.6.3-.3.5-.7.5-1.3v-.7h-1c-.7 0-1.3.2-1.6.4-.4.3-.5.6-.5 1s0 .7.3.8c.2.2.5.3.9.3Zm7.3 1h-1.6v-10.6h1.6v10.6Zm14.3-5c0 1.6-.5 2.8-1.4 3.7-.9.9-2.2 1.3-4 1.3h-2.7v-10h3c1.6 0 2.9.4 3.8 1.3.8.9 1.3 2 1.3 3.6Zm-1.7 0c0-2.4-1.2-3.6-3.4-3.6H206v7.2h1.2c2.4 0 3.6-1.2 3.6-3.6Zm7 5.2c-1.2 0-2.1-.4-2.8-1a4 4 0 0 1-1-3c0-1.1.3-2.1 1-2.8.6-.7 1.4-1 2.5-1 1 0 1.8.2 2.3.8.6.6 1 1.5 1 2.5v.9h-5.1c0 .7.2 1.3.6 1.7.3.4.9.6 1.5.6a6 6 0 0 0 2.5-.6v1.3c-.4.2-.8.4-1.2.4l-1.3.2Zm-.3-6.7c-.5 0-1 .2-1.3.5-.3.3-.4.8-.5 1.4h3.4c0-.6-.1-1-.4-1.4-.3-.3-.7-.5-1.2-.5Zm6.6 6.5h-1.6v-10.6h1.6v10.6Zm5.6.2c-1.1 0-2-.4-2.7-1a4 4 0 0 1-1-3c0-1.1.3-2.1 1-2.8.5-.7 1.4-1 2.5-1 1 0 1.7.2 2.3.8.6.6.9 1.5.9 2.5v.9h-5c0 .7.2 1.3.5 1.7.4.4 1 .6 1.6.6a6 6 0 0 0 2.5-.6v1.3a5 5 0 0 1-1.2.4l-1.4.2Zm-.2-6.7c-.6 0-1 .2-1.3.5-.3.3-.5.8-.5 1.4h3.4c0-.6-.2-1-.4-1.4-.3-.3-.7-.5-1.2-.5Zm7.8 5.4 1.2-.2v1.2l-.7.2h-.9c-1.5 0-2.2-.8-2.2-2.4v-4h-1v-.7l1-.6.6-1.6h1v1.7h2.1v1.2h-2.1v4c0 .4 0 .7.3.9.2.2.4.3.7.3Zm4.3 1.1H240v-7.5h1.6v7.5Zm-1.7-9.5c0-.3.1-.6.3-.7.1-.2.3-.2.6-.2s.5 0 .7.2c.2.1.2.4.2.7 0 .2 0 .4-.2.6-.2.2-.4.2-.7.2-.3 0-.5 0-.6-.2a.9.9 0 0 1-.3-.6Zm10.7 5.7c0 1.3-.3 2.2-1 3-.5.6-1.4 1-2.6 1-.7 0-1.3-.2-1.8-.5-.6-.3-1-.8-1.3-1.4-.3-.6-.4-1.3-.4-2 0-1.3.3-2.3 1-3 .6-.6 1.4-1 2.6-1 1 0 2 .4 2.6 1a4 4 0 0 1 1 3Zm-5.5 0c0 1.8.7 2.6 2 2.6 1.2 0 1.9-.8 1.9-2.6 0-1.7-.7-2.6-2-2.6-.6 0-1.1.3-1.4.7-.3.4-.5 1-.5 2Zm14 3.8h-1.6v-4.6c0-.6 0-1-.3-1.3-.3-.3-.6-.5-1.1-.5-.7 0-1.2.2-1.5.6-.3.4-.5 1.1-.5 2v3.8h-1.6v-7.5h1.2l.3 1c.3-.4.6-.7 1-.9.4-.2 1-.3 1.4-.3 1.8 0 2.7 1 2.7 2.8v5ZM132 569.7h-5.7v-10h5.7v1.4h-4v2.7h3.7v1.4H128v3.1h4v1.4Zm8.3 0h-1.6v-4.6c0-.6 0-1-.3-1.3-.2-.3-.6-.5-1-.5-.6 0-1.1.2-1.4.6-.3.4-.4 1.1-.4 2v3.8H134v-7.5h1.2l.3 1c.2-.4.5-.7 1-.9a3 3 0 0 1 1.3-.3c1.1 0 1.9.4 2.3 1.2.3-.4.6-.7 1-.9a3 3 0 0 1 1.4-.3c1 0 1.6.2 2 .7.4.5.6 1.2.6 2v5h-1.6v-4.6c0-.6-.1-1-.3-1.3-.2-.3-.6-.5-1-.5-.7 0-1.1.2-1.4.6-.3.4-.5 1-.5 1.8v4Zm10.9.2c-1 0-1.7-.4-2.2-1h-.1v4.2h-1.5v-11h1.3l.2 1c.6-.7 1.3-1 2.3-1 1 0 1.7.3 2.2 1 .5.6.8 1.6.8 2.8 0 1.3-.3 2.2-.8 3-.5.6-1.3 1-2.2 1Zm-.4-6.6c-.6 0-1.1.2-1.4.6-.3.4-.4 1-.4 1.8v.2c0 1 .1 1.6.4 2 .3.4.8.6 1.4.6.6 0 1-.2 1.3-.6.3-.5.5-1.1.5-2 0-.8-.2-1.5-.5-2-.3-.4-.7-.6-1.3-.6Zm6.9 6.4H156v-10.6h1.6v10.6Zm9-3.8c0 1.3-.3 2.2-1 3-.6.6-1.5 1-2.6 1-.7 0-1.3-.2-1.9-.5-.5-.3-1-.8-1.2-1.4-.3-.6-.5-1.3-.5-2 0-1.3.3-2.3 1-3 .6-.6 1.5-1 2.6-1s2 .4 2.6 1a4 4 0 0 1 1 3Zm-5.5 0c0 1.8.6 2.6 2 2.6 1.2 0 1.8-.8 1.8-2.6 0-1.7-.6-2.6-1.9-2.6-.7 0-1.2.3-1.5.7-.3.4-.4 1-.4 2Zm6.2-3.7h1.7l1.6 4.2c.2.7.4 1.2.4 1.8h.1l.2-1 1.8-5h1.7l-3.2 8.5c-.6 1.6-1.6 2.4-3 2.4l-1-.1v-1.3h.8c.8 0 1.3-.4 1.7-1.3l.2-.7-3-7.5Zm12 7.7c-1.2 0-2.1-.4-2.8-1a4 4 0 0 1-1-3c0-1.1.3-2.1 1-2.8.5-.7 1.4-1 2.5-1 1 0 1.7.2 2.3.8.6.6.9 1.5.9 2.5v.9h-5c0 .7.2 1.3.5 1.7.4.4 1 .6 1.6.6a6 6 0 0 0 2.5-.6v1.3c-.4.2-.8.4-1.2.4l-1.3.2Zm-.3-6.7c-.6 0-1 .2-1.3.5-.3.3-.5.8-.5 1.4h3.4c0-.6-.1-1-.4-1.4-.3-.3-.7-.5-1.2-.5Zm8.3 6.7c-1.2 0-2-.4-2.7-1a4 4 0 0 1-1-3c0-1.1.3-2.1.9-2.8.6-.7 1.4-1 2.5-1 1 0 1.8.2 2.4.8.6.6.9 1.5.9 2.5v.9h-5c0 .7.1 1.3.5 1.7.4.4 1 .6 1.6.6a6 6 0 0 0 2.5-.6v1.3c-.4.2-.8.4-1.2.4l-1.4.2Zm-.3-6.7c-.5 0-.9.2-1.2.5-.3.3-.5.8-.6 1.4h3.5c0-.6-.2-1-.5-1.4-.3-.3-.7-.5-1.2-.5Zm17 1.4c0 1.7-.4 3-1.4 3.8-.9.9-2.2 1.3-4 1.3H196v-10h3c1.7 0 3 .4 3.8 1.3.9.9 1.3 2 1.3 3.6Zm-1.7 0c0-2.3-1.1-3.5-3.4-3.5h-1.4v7.2h1.2c2.4 0 3.6-1.2 3.6-3.6Zm7 5.3c-1.2 0-2-.4-2.8-1a4 4 0 0 1-1-3c0-1.1.4-2.1 1-2.8.6-.7 1.4-1 2.5-1 1 0 1.8.2 2.4.8.6.6.8 1.5.8 2.5v.9h-5c0 .7.2 1.3.6 1.7.4.4.9.6 1.6.6a6 6 0 0 0 2.5-.6v1.3a5 5 0 0 1-1.2.4l-1.4.2Zm-.3-6.7c-.5 0-1 .2-1.2.5-.3.3-.5.8-.6 1.4h3.5c0-.6-.2-1-.5-1.4-.3-.3-.7-.5-1.2-.5Zm8.9 6.7c-1 0-1.7-.4-2.2-1h-.1v4.2h-1.5v-11h1.3l.2 1c.6-.7 1.3-1 2.3-1 1 0 1.7.3 2.2 1 .6.6.8 1.6.8 2.8 0 1.3-.2 2.2-.8 3-.5.6-1.3 1-2.2 1Zm-.4-6.6c-.6 0-1 .2-1.4.6-.3.4-.4 1-.4 1.8v.2c0 1 .1 1.6.4 2 .3.4.8.6 1.4.6.6 0 1-.2 1.3-.6.3-.5.5-1.1.5-2 0-.8-.2-1.5-.5-2-.3-.4-.7-.6-1.3-.6Zm10 6.4-.3-1-1.2 1-1.4.2c-.7 0-1.3-.2-1.7-.6-.4-.4-.6-1-.6-1.8 0-.7.2-1.3.8-1.7a5 5 0 0 1 2.7-.7h1.3v-.4c0-.5-.1-.9-.4-1-.2-.3-.5-.5-1-.5l-1.1.2-1 .4-.6-1.1 1.4-.5 1.4-.2c1 0 1.6.2 2.1.6.5.5.8 1.1.8 2v5.1h-1.2Zm-2.4-1c.6 0 1-.2 1.4-.6.4-.3.6-.7.6-1.3v-.7h-1c-.8 0-1.3.2-1.7.4-.3.3-.5.6-.5 1s.1.7.3.8c.2.2.5.3 1 .3Zm9.6-6.7h.8l-.1 1.6a3 3 0 0 0-.7-.1 2 2 0 0 0-1.6.6c-.4.4-.6 1-.6 1.7v4H231v-7.6h1.3l.2 1.3a3 3 0 0 1 1-1c.4-.3.9-.5 1.3-.5Zm5 6.6 1.2-.2v1.2l-.6.2h-1c-1.4 0-2.2-.8-2.2-2.4v-4h-1v-.7l1-.6.6-1.6h1v1.7h2.2v1.2h-2.2v4c0 .4.1.7.3.9.2.2.5.3.8.3Zm8.1 1.1-.2-1h-.1c-.2.4-.6.7-1 .9-.4.2-.8.3-1.4.3-.9 0-1.6-.3-2-.7-.5-.5-.7-1.2-.7-2.1v-5h1.6v4.7c0 .6.1 1 .4 1.3.2.3.6.5 1 .5.8 0 1.3-.2 1.6-.6.3-.5.4-1.1.4-2v-3.8h1.7v7.5h-1.3Zm7.4-7.7h.8l-.2 1.6a3 3 0 0 0-.7-.1 2 2 0 0 0-1.5.6c-.4.4-.6 1-.6 1.7v4h-1.6v-7.6h1.2l.2 1.3h.1a3 3 0 0 1 1-1c.4-.3.8-.5 1.3-.5Zm5.5 7.9c-1.2 0-2.1-.4-2.8-1a4 4 0 0 1-1-3c0-1.1.4-2.1 1-2.8.6-.7 1.4-1 2.5-1 1 0 1.8.2 2.4.8.5.6.8 1.5.8 2.5v.9h-5c0 .7.2 1.3.6 1.7.4.4.9.6 1.6.6a6 6 0 0 0 2.5-.6v1.3c-.4.2-.8.4-1.2.4l-1.4.2Zm-.3-6.7c-.5 0-1 .2-1.2.5-.3.3-.5.8-.6 1.4h3.5c0-.6-.2-1-.5-1.4-.3-.3-.7-.5-1.2-.5ZM128 621.4h1c.8 0 1.4-.2 1.7-.5.4-.2.6-.7.6-1.2 0-.6-.2-1-.6-1.2a3 3 0 0 0-1.7-.4h-1v3.3Zm0 1.3v4h-1.7v-10h2.8c1.3 0 2.3.3 3 .7.5.5.8 1.3.8 2.2 0 1.3-.6 2.2-2 2.7l3 4.4h-2l-2.3-4H128Zm11.8 4-.3-1-1.1 1-1.5.2c-.7 0-1.3-.2-1.7-.6-.4-.4-.6-1-.6-1.8 0-.7.3-1.3.8-1.7a5 5 0 0 1 2.7-.7h1.3v-.4c0-.5-.1-.9-.4-1-.2-.3-.5-.5-1-.5l-1.1.2-1 .4-.6-1.1 1.4-.5 1.4-.2c1 0 1.7.2 2.1.6.5.5.8 1.1.8 2v5.1h-1.2Zm-2.4-1c.6 0 1-.2 1.4-.6.4-.3.6-.7.6-1.3v-.7h-1c-.8 0-1.3.2-1.6.4-.4.3-.6.6-.6 1s.1.7.3.8c.2.2.5.3 1 .3Zm12.5 1h-1.6v-4.6c0-.6-.2-1-.4-1.3-.2-.3-.6-.5-1.1-.5-.7 0-1.2.2-1.5.6-.3.4-.5 1.1-.5 2v3.8h-1.6v-7.5h1.3l.2 1c.3-.4.6-.7 1-.9l1.5-.3c1.8 0 2.7 1 2.7 2.8v5Zm7.3-2.1a2 2 0 0 1-.8 1.7c-.6.4-1.3.6-2.3.6-1 0-1.8-.2-2.5-.5V625a6 6 0 0 0 2.5.6c1 0 1.5-.3 1.5-.9 0-.2 0-.3-.2-.5a2 2 0 0 0-.5-.3l-1-.5c-1-.4-1.5-.7-1.8-1-.3-.4-.5-.8-.5-1.3 0-.7.3-1.2.8-1.5.5-.4 1.2-.6 2.1-.6a6 6 0 0 1 2.6.6l-.6 1.2c-.8-.4-1.5-.5-2-.5-.9 0-1.3.2-1.3.7l.3.6 1.5.7 1.4.6.6.7.2 1Zm8.4-1.7c0 1.3-.3 2.2-1 3-.5.6-1.4 1-2.6 1-.7 0-1.3-.2-1.8-.5-.6-.3-1-.8-1.3-1.4-.3-.6-.4-1.3-.4-2 0-1.3.3-2.3 1-3 .6-.6 1.4-1 2.6-1 1 0 2 .4 2.6 1a4 4 0 0 1 1 3Zm-5.5 0c0 1.8.7 2.6 2 2.6 1.2 0 1.9-.8 1.9-2.6 0-1.7-.7-2.6-2-2.6-.6 0-1.1.3-1.4.7-.3.4-.5 1-.5 2Zm13.8 3.8h-1.7v-4.6c0-.6 0-1-.3-1.3-.2-.3-.5-.5-1-.5-.6 0-1 .2-1.4.6-.3.4-.4 1.1-.4 2v3.8h-1.6v-7.5h1.3l.2 1a2 2 0 0 1 1-.9 3 3 0 0 1 1.3-.3c1.1 0 2 .4 2.3 1.2h.1c.2-.4.5-.7 1-.9a3 3 0 0 1 1.3-.3c1 0 1.6.2 2 .7.4.5.6 1.2.6 2v5H177v-4.6c0-.6 0-1-.3-1.3-.2-.3-.6-.5-1-.5-.7 0-1.1.2-1.4.6-.3.4-.4 1-.4 1.8v4Zm13.2 0-1-3.5-.6-2.6h-.1l-.6 2.6-1 3.5H182l-2.1-7.5h1.6l1 3.7.4 2.3a15.8 15.8 0 0 1 .5-2l1.2-4h1.7l1.2 4a14 14 0 0 1 .4 2l.5-2.3 1-3.7h1.6l-2.1 7.5H187Zm10 0-.4-1-1.1 1-1.4.2c-.8 0-1.4-.2-1.8-.6-.4-.4-.6-1-.6-1.8 0-.7.3-1.3.9-1.7a5 5 0 0 1 2.6-.7h1.3v-.4c0-.5-.1-.9-.3-1-.3-.3-.6-.5-1-.5l-1.2.2-1 .4-.5-1.1 1.3-.5 1.4-.2c1 0 1.7.2 2.2.6.5.5.7 1.1.7 2v5.1h-1.1Zm-2.4-1c.5 0 1-.2 1.4-.6.3-.3.5-.7.5-1.3v-.7h-1c-.7 0-1.3.2-1.6.4-.4.3-.5.6-.5 1s0 .7.3.8c.2.2.5.3.9.3Zm9.6-6.7h.8l-.2 1.6a3 3 0 0 0-.7-.1 2 2 0 0 0-1.6.6c-.4.4-.6 1-.6 1.7v4h-1.6v-7.6h1.3l.2 1.3a3 3 0 0 1 1-1c.5-.3 1-.5 1.4-.5Zm5.5 7.9c-1.2 0-2.1-.4-2.8-1a4 4 0 0 1-1-3c0-1.1.3-2.1 1-2.8.6-.7 1.4-1 2.5-1 1 0 1.8.2 2.4.8.5.6.8 1.5.8 2.5v.9h-5c0 .7.2 1.3.6 1.7.4.4.9.6 1.6.6a6 6 0 0 0 2.4-.6v1.3a5 5 0 0 1-1.1.4l-1.4.2Zm-.3-6.7c-.5 0-1 .2-1.2.5-.3.3-.5.8-.6 1.4h3.4c0-.6-.1-1-.4-1.4-.3-.3-.7-.5-1.2-.5ZM130.6 683.7l-2.9-8.3.1 3.5v4.8h-1.5v-10h2.3l2.8 8 2.9-8h2.3v10H135v-5a74.2 74.2 0 0 1 .1-3.3l-3 8.3h-1.5Zm13.2 0-.3-1-1.2 1-1.4.2c-.7 0-1.3-.2-1.7-.6-.5-.4-.7-1-.7-1.8 0-.7.3-1.3.9-1.7a5 5 0 0 1 2.6-.7h1.4v-.4c0-.5-.2-.9-.4-1-.2-.3-.6-.5-1-.5l-1.1.2-1 .4-.6-1.1 1.4-.5 1.3-.2c1 0 1.7.2 2.2.6.5.5.7 1.1.7 2v5.1h-1.1Zm-2.4-1c.6 0 1-.2 1.4-.6.4-.3.5-.7.5-1.3v-.7h-1c-.7 0-1.2.2-1.6.4-.3.3-.5.6-.5 1s.1.7.3.8c.2.2.5.3 1 .3Zm7.4 1h-1.6v-10.6h1.6v10.6Zm4 0H151v-7.5h1.6v7.5Zm-1.8-9.5c0-.3 0-.6.2-.7.2-.2.4-.2.7-.2.3 0 .5 0 .7.2l.2.7c0 .2 0 .4-.2.6-.2.2-.4.2-.7.2-.3 0-.5 0-.7-.2a.9.9 0 0 1-.2-.6Zm7 9.7c-1 0-2-.4-2.6-1-.5-.7-.8-1.7-.8-3 0-1.2.3-2.2.9-2.9.6-.6 1.5-1 2.7-1a5 5 0 0 1 2.1.5l-.4 1.3c-.7-.3-1.3-.4-1.7-.4-1.3 0-2 .8-2 2.6 0 .8.2 1.4.5 1.9.3.4.8.6 1.4.6.7 0 1.4-.2 2-.5v1.4c-.2.1-.5.3-.9.3l-1.1.2Zm5.5-.2H162v-7.5h1.6v7.5Zm-1.7-9.5c0-.3.1-.6.3-.7.1-.2.4-.2.7-.2.2 0 .5 0 .6.2.2.1.3.4.3.7l-.3.6c-.1.2-.4.2-.6.2-.3 0-.6 0-.7-.2a.9.9 0 0 1-.3-.6Zm10.8 5.7c0 1.3-.4 2.2-1 3-.6.6-1.5 1-2.6 1-.7 0-1.4-.2-2-.5-.5-.3-.9-.8-1.2-1.4-.3-.6-.4-1.3-.4-2 0-1.3.3-2.3 1-3 .6-.6 1.5-1 2.6-1s2 .4 2.6 1a4 4 0 0 1 1 3Zm-5.5 0c0 1.8.6 2.6 1.9 2.6 1.3 0 1.9-.8 1.9-2.6 0-1.7-.6-2.6-2-2.6-.6 0-1 .3-1.4.7-.3.4-.4 1-.4 2Zm12.6 3.8-.2-1c-.3.4-.6.7-1 .9-.4.2-.9.3-1.4.3-1 0-1.6-.3-2-.7-.5-.5-.8-1.2-.8-2.1v-5h1.7v4.7c0 .6 0 1 .3 1.3.3.3.6.5 1.1.5.7 0 1.2-.2 1.5-.6.3-.5.5-1.1.5-2v-3.8h1.6v7.5h-1.3Zm8.7-2.1a2 2 0 0 1-.8 1.7c-.6.4-1.3.6-2.3.6-1 0-1.9-.2-2.5-.5V682a6 6 0 0 0 2.5.6c1 0 1.5-.3 1.5-.9 0-.2 0-.3-.2-.5a2 2 0 0 0-.5-.3l-1-.5c-1-.4-1.5-.7-1.8-1-.3-.4-.5-.8-.5-1.3 0-.7.3-1.2.8-1.5.5-.4 1.2-.6 2.1-.6a6 6 0 0 1 2.6.6l-.6 1.2c-.8-.4-1.5-.5-2-.5-.9 0-1.3.2-1.3.7l.3.6 1.5.7 1.3.6.7.7.2 1Zm13.7-3c0 1.7-.5 3-1.4 3.8-1 .9-2.3 1.3-4 1.3H194v-10h3.1c1.6 0 2.8.4 3.7 1.3 1 .9 1.4 2 1.4 3.6Zm-1.8 0c0-2.3-1-3.5-3.3-3.5h-1.4v7.2h1.1c2.4 0 3.6-1.2 3.6-3.6Zm7 5.3c-1.1 0-2-.4-2.7-1a4 4 0 0 1-1-3c0-1.1.3-2.1 1-2.8.5-.7 1.4-1 2.4-1s1.8.2 2.4.8c.6.6.9 1.5.9 2.5v.9h-5c0 .7.2 1.3.5 1.7.4.4 1 .6 1.6.6a6 6 0 0 0 2.5-.6v1.3c-.4.2-.8.4-1.2.4l-1.4.2Zm-.3-6.7c-.5 0-.9.2-1.2.5-.3.3-.5.8-.5 1.4h3.4c0-.6-.2-1-.5-1.4-.2-.3-.6-.5-1.2-.5Zm6.7 6.5h-1.6v-10.6h1.6v10.6Zm5.6.2c-1.2 0-2-.4-2.7-1a4 4 0 0 1-1-3c0-1.1.3-2.1.9-2.8.6-.7 1.4-1 2.5-1 1 0 1.8.2 2.4.8.6.6.9 1.5.9 2.5v.9h-5c0 .7.1 1.3.5 1.7.4.4 1 .6 1.6.6a6 6 0 0 0 2.5-.6v1.3a5 5 0 0 1-1.2.4l-1.4.2Zm-.3-6.7c-.5 0-.9.2-1.2.5-.3.3-.5.8-.6 1.4h3.5c0-.6-.2-1-.5-1.4-.3-.3-.7-.5-1.2-.5Zm7.9 5.4 1.2-.2v1.2l-.7.2h-.9c-1.5 0-2.3-.8-2.3-2.4v-4h-1v-.7l1.1-.6.6-1.6h1v1.7h2.1v1.2h-2.2v4c0 .4.1.7.3.9.2.2.5.3.8.3Zm6 1.3c-1.2 0-2.1-.4-2.8-1a4 4 0 0 1-1-3c0-1.1.3-2.1 1-2.8.6-.7 1.4-1 2.5-1 1 0 1.8.2 2.4.8.5.6.8 1.5.8 2.5v.9h-5c0 .7.2 1.3.6 1.7.4.4.9.6 1.6.6a6 6 0 0 0 2.5-.6v1.3c-.4.2-.8.4-1.2.4l-1.4.2Zm-.3-6.7c-.5 0-1 .2-1.2.5-.3.3-.5.8-.6 1.4h3.5c0-.6-.2-1-.5-1.4-.3-.3-.7-.5-1.2-.5Zm12.6-1.2c.9 0 1.6.4 2.2 1 .5.7.7 1.7.7 3 0 1.2-.2 2.1-.8 2.8-.5.7-1.2 1-2.2 1-1 0-1.7-.3-2.2-1h-.1l-.3 1h-1.2V673h1.6v2.5a18.7 18.7 0 0 1 0 1.5c.5-.7 1.3-1 2.3-1Zm-.5 1.3c-.6 0-1 .2-1.4.6-.2.4-.4 1-.4 2s.1 1.6.4 2c.3.4.8.6 1.5.6.5 0 1-.2 1.3-.6.3-.5.4-1.1.4-2 0-1.7-.6-2.6-1.8-2.6Zm4.2-1.1h1.7l1.6 4.2.4 1.8.3-1 1.7-5h1.8l-3.3 8.5c-.5 1.6-1.5 2.4-2.9 2.4l-1-.1v-1.3h.8c.8 0 1.3-.4 1.6-1.3l.3-.7-3-7.5Zm12.4 7.5v-10h1.7v10h-1.7Zm10.8 0h-1.6v-4.6c0-.6-.1-1-.4-1.3-.2-.3-.6-.5-1-.5-.8 0-1.3.2-1.6.6-.3.4-.5 1.1-.5 2v3.8h-1.6v-7.5h1.3l.2 1h.1c.2-.4.6-.7 1-.9.4-.2.9-.3 1.4-.3 1.8 0 2.7 1 2.7 2.8v5Zm7.3-2.1a2 2 0 0 1-.8 1.7c-.5.4-1.3.6-2.3.6-1 0-1.8-.2-2.4-.5V682a6 6 0 0 0 2.4.6c1 0 1.5-.3 1.5-.9l-.1-.5a2 2 0 0 0-.6-.3l-1-.5c-.9-.4-1.5-.7-1.8-1-.3-.4-.5-.8-.5-1.3 0-.7.3-1.2.8-1.5.5-.4 1.3-.6 2.2-.6a6 6 0 0 1 2.5.6l-.5 1.2c-.9-.4-1.5-.5-2.1-.5-.8 0-1.3.2-1.3.7 0 .2.1.4.4.6l1.4.7 1.4.6.6.7.2 1Zm3.4 2.1H281v-7.5h1.7v7.5Zm-1.7-9.5c0-.3 0-.6.2-.7.1-.2.4-.2.7-.2.2 0 .5 0 .6.2.2.1.3.4.3.7l-.3.6c-.1.2-.4.2-.6.2-.3 0-.6 0-.7-.2a.9.9 0 0 1-.2-.6Zm6.5 9.7c-1 0-1.7-.4-2.2-1-.5-.8-.8-1.7-.8-3 0-1.2.3-2.2.8-2.8.5-.7 1.3-1 2.2-1 1 0 1.8.3 2.3 1v-4h1.6v10.6h-1.3l-.3-1c-.5.8-1.3 1.2-2.3 1.2Zm.4-1.3c.7 0 1.2-.2 1.5-.6.3-.4.4-1 .4-1.8v-.2c0-1-.1-1.7-.4-2-.3-.5-.8-.7-1.5-.7-.5 0-1 .3-1.3.7-.3.5-.4 1.1-.4 2 0 .8.1 1.5.4 1.9.3.4.7.7 1.3.7Zm9 1.3c-1.1 0-2-.4-2.7-1a4 4 0 0 1-1-3c0-1.1.3-2.1 1-2.8.6-.7 1.4-1 2.5-1 1 0 1.8.2 2.4.8.5.6.8 1.5.8 2.5v.9h-5c0 .7.2 1.3.6 1.7.4.4.9.6 1.6.6a6 6 0 0 0 2.4-.6v1.3a5 5 0 0 1-1.1.4l-1.4.2Zm-.2-6.7c-.5 0-1 .2-1.2.5-.3.3-.5.8-.6 1.4h3.4c0-.6-.1-1-.4-1.4-.3-.3-.7-.5-1.2-.5Zm8.9-1.2h.8l-.2 1.6a3 3 0 0 0-.7-.1 2 2 0 0 0-1.6.6c-.4.4-.5 1-.5 1.7v4h-1.7v-7.6h1.3l.2 1.3h.1a3 3 0 0 1 1-1c.4-.3.8-.5 1.3-.5Zm7.3 5.6a2 2 0 0 1-.8 1.7c-.6.4-1.3.6-2.3.6-1 0-1.9-.2-2.5-.5V682a6 6 0 0 0 2.5.6c1 0 1.5-.3 1.5-.9 0-.2 0-.3-.2-.5a2 2 0 0 0-.5-.3l-1-.5c-1-.4-1.5-.7-1.8-1-.3-.4-.5-.8-.5-1.3 0-.7.3-1.2.8-1.5.5-.4 1.2-.6 2.1-.6a6 6 0 0 1 2.5.6l-.5 1.2c-.8-.4-1.5-.5-2-.5-.9 0-1.3.2-1.3.7l.3.6 1.5.7 1.3.6.7.7.2 1ZM130.6 740.7l-2.9-8.3.1 3.5v4.8h-1.5v-10h2.3l2.8 8 2.9-8h2.3v10H135v-5a74.2 74.2 0 0 1 .1-3.3l-3 8.3h-1.5Zm13.2 0-.3-1-1.2 1-1.4.2c-.7 0-1.3-.2-1.7-.6-.5-.4-.7-1-.7-1.8 0-.7.3-1.3.9-1.7a5 5 0 0 1 2.6-.7h1.4v-.4c0-.5-.2-.9-.4-1-.2-.3-.6-.5-1-.5l-1.1.2-1 .4-.6-1.1 1.4-.5 1.3-.2c1 0 1.7.2 2.2.6.5.5.7 1.1.7 2v5.1h-1.1Zm-2.4-1c.6 0 1-.2 1.4-.6.4-.3.5-.7.5-1.3v-.7h-1c-.7 0-1.2.2-1.6.4-.3.3-.5.6-.5 1s.1.7.3.8c.2.2.5.3 1 .3Zm7.4 1h-1.6v-10.6h1.6v10.6Zm8.5 0-1-3.5-.6-2.6a38 38 0 0 1-.7 2.6l-1 3.5h-1.8l-2.1-7.5h1.6l1 3.7.5 2.3a16.4 16.4 0 0 1 .4-2l1.2-4h1.8l1 4a14.6 14.6 0 0 1 .5 2l.5-2.3 1-3.7h1.6l-2.1 7.5h-1.8Zm10 0-.3-1h-.1l-1.1 1-1.4.2c-.8 0-1.3-.2-1.8-.6-.4-.4-.6-1-.6-1.8 0-.7.3-1.3.9-1.7a5 5 0 0 1 2.6-.7h1.3v-.4c0-.5 0-.9-.3-1-.2-.3-.6-.5-1-.5l-1.2.2-1 .4-.5-1.1 1.3-.5 1.4-.2c1 0 1.7.2 2.2.6.5.5.7 1.1.7 2v5.1h-1.1Zm-2.4-1c.6 0 1-.2 1.4-.6.3-.3.5-.7.5-1.3v-.7h-1c-.7 0-1.3.2-1.6.4-.4.3-.5.6-.5 1s0 .7.3.8c.2.2.5.3.9.3Zm9.6-6.7h.8l-.2 1.6a3 3 0 0 0-.7-.1 2 2 0 0 0-1.5.6c-.4.4-.6 1-.6 1.7v4h-1.6v-7.6h1.2l.2 1.3h.1a3 3 0 0 1 1-1c.4-.3.8-.5 1.3-.5Zm5.5 7.9c-1.2 0-2-.4-2.8-1a4 4 0 0 1-1-3c0-1.1.4-2.1 1-2.8.6-.7 1.4-1 2.5-1 1 0 1.8.2 2.4.8.6.6.8 1.5.8 2.5v.9h-5c0 .7.2 1.3.6 1.7.4.4 1 .6 1.6.6a6 6 0 0 0 2.5-.6v1.3c-.4.2-.8.4-1.2.4l-1.4.2Zm-.3-6.7c-.5 0-1 .2-1.2.5-.3.3-.5.8-.6 1.4h3.5c0-.6-.2-1-.5-1.4-.3-.3-.7-.5-1.2-.5Zm12.5.2h-1.8v6.3h-1.7v-6.3h-1.2v-.8l1.2-.5v-.5c0-.9.3-1.5.7-2 .4-.4 1-.6 1.9-.6.6 0 1.1.1 1.7.3l-.5 1.2-1.1-.2c-.4 0-.6.1-.8.4-.2.2-.2.5-.2 1v.5h1.8v1.2Zm5.1-1.4h.8l-.1 1.6a3 3 0 0 0-.7-.1 2 2 0 0 0-1.6.6c-.4.4-.6 1-.6 1.7v4h-1.6v-7.6h1.3l.2 1.3a3 3 0 0 1 1-1c.4-.3.9-.5 1.3-.5Zm9 4c0 1.2-.4 2.1-1 2.8-.6.7-1.5 1-2.7 1-.7 0-1.3-.1-1.8-.4-.6-.3-1-.8-1.3-1.4-.3-.6-.4-1.3-.4-2 0-1.3.3-2.3 1-3 .6-.6 1.4-1 2.6-1 1 0 2 .4 2.6 1a4 4 0 0 1 1 3Zm-5.6 0c0 1.7.7 2.5 2 2.5s1.9-.8 1.9-2.6c0-1.7-.7-2.6-2-2.6-.6 0-1.1.3-1.4.7-.3.4-.5 1-.5 2Zm13.8 3.7h-1.6v-4.6c0-.6-.2-1-.4-1.3-.2-.3-.5-.5-1-.5-.6 0-1 .2-1.4.6-.3.4-.4 1.1-.4 2v3.8h-1.6v-7.5h1.3l.2 1c.3-.4.6-.7 1-.9a3 3 0 0 1 1.3-.3c1.2 0 2 .4 2.3 1.2h.1c.2-.4.5-.7 1-.9a3 3 0 0 1 1.3-.3c1 0 1.6.2 2 .7.4.5.6 1.2.6 2v5h-1.6v-4.6c0-.6 0-1-.3-1.3-.2-.3-.6-.5-1-.5-.7 0-1.1.2-1.4.6-.3.4-.4 1-.4 1.8v4Zm14.2 0h-1.6v-8.6h-3v-1.4h7.6v1.4h-3v8.6Zm11 0h-1.6v-4.6c0-.6-.1-1-.4-1.3-.2-.3-.6-.5-1-.5-.8 0-1.3.2-1.6.6-.3.4-.4 1.1-.4 2v3.8H233v-10.6h1.7v2.7l-.1 1.4c.3-.4.6-.7 1-.9a3 3 0 0 1 1.4-.3c1.8 0 2.7 1 2.7 2.8v5Zm3.8 0H242v-7.5h1.6v7.5Zm-1.7-9.5c0-.3.1-.6.3-.7.1-.2.4-.2.6-.2.3 0 .6 0 .7.2.2.1.2.4.2.7 0 .2 0 .4-.2.6-.2.2-.4.2-.7.2-.2 0-.5 0-.6-.2a.9.9 0 0 1-.3-.6Zm7.9 1.8h.8l-.2 1.6a3 3 0 0 0-.7-.1 2 2 0 0 0-1.6.6c-.3.4-.5 1-.5 1.7v4h-1.7v-7.6h1.3l.2 1.3h.1a3 3 0 0 1 1-1c.4-.3.8-.5 1.3-.5Zm4.7 7.9c-1 0-1.6-.4-2.2-1-.5-.8-.8-1.7-.8-3 0-1.2.3-2.2.8-2.8.6-.7 1.3-1 2.3-1 1 0 1.7.3 2.2 1h.1l-.1-1.3v-2.7h1.6v10.6h-1.2l-.3-1h-.1c-.5.8-1.3 1.2-2.3 1.2Zm.5-1.3c.6 0 1.1-.2 1.4-.6.3-.4.5-1 .5-1.8v-.2c0-1-.2-1.7-.5-2-.3-.5-.8-.7-1.4-.7-.6 0-1 .3-1.3.7-.4.5-.5 1.1-.5 2 0 .8.1 1.5.4 1.9.3.4.8.7 1.4.7Zm16.1-5.9a3 3 0 0 1-1 2.4c-.7.6-1.6.9-3 .9h-1v3.7h-1.6v-10h2.9c1.2 0 2.2.3 2.8.8.6.5 1 1.3 1 2.2Zm-5 1.9h1c.8 0 1.4-.1 1.8-.4.4-.3.6-.8.6-1.4 0-.6-.2-1-.6-1.3-.3-.3-.9-.4-1.6-.4H266v3.5Zm11.6 5.1-.3-1-1.2 1-1.4.2c-.7 0-1.3-.2-1.8-.6-.4-.4-.6-1-.6-1.8 0-.7.3-1.3.9-1.7a5 5 0 0 1 2.6-.7h1.3v-.4c0-.5 0-.9-.3-1-.2-.3-.6-.5-1-.5l-1.2.2-1 .4-.5-1.1 1.3-.5 1.4-.2c1 0 1.7.2 2.2.6.5.5.7 1.1.7 2v5.1h-1.1Zm-2.4-1c.6 0 1-.2 1.4-.6.4-.3.5-.7.5-1.3v-.7h-1c-.7 0-1.2.2-1.6.4-.3.3-.5.6-.5 1s.1.7.3.8c.2.2.5.3.9.3Zm9.6-6.7h.8l-.1 1.6a3 3 0 0 0-.8-.1 2 2 0 0 0-1.5.6c-.4.4-.6 1-.6 1.7v4H281v-7.6h1.2l.3 1.3a3 3 0 0 1 1-1c.4-.3.9-.5 1.3-.5Zm5 6.6 1.2-.2v1.2l-.7.2h-.8c-1.6 0-2.3-.8-2.3-2.4v-4h-1v-.7l1-.6.6-1.6h1v1.7h2.1v1.2h-2.1v4c0 .4 0 .7.3.9.2.2.4.3.7.3Zm1.6-6.4h1.7l1.6 4.2c.2.7.4 1.2.4 1.8l.3-1 1.8-5h1.7l-3.2 8.5c-.6 1.6-1.6 2.4-3 2.4l-1-.1v-1.3h.8c.8 0 1.3-.4 1.6-1.3l.3-.7-3-7.5Zm18.6 7.5-1-2.8h-3.8l-1 2.8h-1.7l3.8-10h1.7l3.8 10H310Zm-1.4-4.2-1-2.7a19 19 0 0 1-.5-1.7c0 .5-.3 1.2-.5 1.8l-.9 2.6h3Zm8.2 4.4c-1 0-1.7-.4-2.3-1v4.2H313v-11h1.3l.3 1c.5-.7 1.3-1 2.3-1 1 0 1.7.3 2.2 1 .5.6.8 1.6.8 2.8 0 1.3-.3 2.2-.8 3-.6.6-1.3 1-2.2 1Zm-.4-6.6c-.7 0-1.1.2-1.4.6-.3.4-.5 1-.5 1.8v.2c0 1 .2 1.6.5 2 .3.4.7.6 1.4.6.6 0 1-.2 1.3-.6.3-.5.4-1.1.4-2 0-.8-.1-1.5-.4-2-.3-.4-.7-.6-1.3-.6Zm9 6.6c-.9 0-1.6-.4-2.1-1h-.1v4.2h-1.5v-11h1.3l.2 1c.6-.7 1.3-1 2.3-1 1 0 1.7.3 2.2 1 .5.6.8 1.6.8 2.8 0 1.3-.3 2.2-.8 3-.5.6-1.3 1-2.2 1Zm-.3-6.6c-.6 0-1.1.2-1.4.6-.3.4-.4 1-.4 1.8v.2c0 1 .1 1.6.4 2 .3.4.8.6 1.4.6.6 0 1-.2 1.3-.6.3-.5.5-1.1.5-2 0-.8-.2-1.5-.5-2-.3-.4-.7-.6-1.3-.6ZM134.4 792.6c0 1.7-.4 3-1.3 3.8-1 .9-2.3 1.3-4 1.3h-2.8v-10h3.1c1.6 0 2.8.4 3.7 1.3 1 .9 1.3 2 1.3 3.6Zm-1.7 0c0-2.3-1-3.5-3.3-3.5H128v7.2h1.1c2.4 0 3.6-1.2 3.6-3.6Zm8.5 5.1-.4-1-1.1 1-1.4.2c-.8 0-1.4-.2-1.8-.6-.4-.4-.6-1-.6-1.8 0-.7.3-1.3.9-1.7a5 5 0 0 1 2.6-.7h1.3v-.4c0-.5-.1-.9-.3-1-.2-.3-.6-.5-1-.5l-1.2.2-1 .4-.5-1.1 1.3-.5 1.4-.2c1 0 1.7.2 2.2.6.5.5.7 1.1.7 2v5.1h-1.1Zm-2.4-1c.6 0 1-.2 1.4-.6.3-.3.5-.7.5-1.3v-.7h-1c-.7 0-1.3.2-1.6.4-.4.3-.5.6-.5 1s0 .7.3.8c.2.2.5.3.9.3Zm8.6-.1 1.1-.2v1.2l-.6.2h-1c-1.4 0-2.2-.8-2.2-2.4v-4h-1v-.7l1-.6.6-1.6h1v1.7h2.2v1.2h-2.2v4c0 .4.1.7.3.9.2.2.5.3.8.3Zm7.4 1.1-.3-1-1.2 1-1.4.2c-.8 0-1.3-.2-1.8-.6-.4-.4-.6-1-.6-1.8 0-.7.3-1.3.9-1.7a5 5 0 0 1 2.6-.7h1.3v-.4c0-.5 0-.9-.3-1-.2-.3-.6-.5-1-.5l-1.2.2-1 .4-.5-1.1 1.3-.5 1.4-.2c1 0 1.7.2 2.2.6.5.5.7 1.1.7 2v5.1h-1.1Zm-2.4-1c.6 0 1-.2 1.4-.6.4-.3.5-.7.5-1.3v-.7h-1c-.7 0-1.2.2-1.6.4-.3.3-.5.6-.5 1s.1.7.3.8c.2.2.5.3.9.3Zm17.7-4c0 1.6-.4 2.8-1.4 3.7-.9.9-2.2 1.3-4 1.3H162v-10h3c1.7 0 3 .4 3.8 1.3.9.9 1.3 2 1.3 3.6Zm-1.7 0c0-2.4-1.1-3.6-3.4-3.6h-1.4v7.2h1.2c2.4 0 3.6-1.2 3.6-3.6Zm7 5.2c-1.2 0-2-.4-2.8-1a4 4 0 0 1-1-3c0-1.1.4-2.1 1-2.8.6-.7 1.4-1 2.5-1 1 0 1.8.2 2.4.8.6.6.8 1.5.8 2.5v.9h-5c0 .7.2 1.3.6 1.7.4.4.9.6 1.6.6a6 6 0 0 0 2.5-.6v1.3a5 5 0 0 1-1.2.4l-1.4.2Zm-.3-6.7c-.5 0-1 .2-1.2.5-.3.3-.5.8-.6 1.4h3.5c0-.6-.2-1-.5-1.4-.3-.3-.7-.5-1.2-.5Zm6.7 6.5h-1.6v-10.6h1.6v10.6Zm5.6.2c-1.2 0-2.1-.4-2.8-1a4 4 0 0 1-1-3c0-1.1.3-2.1 1-2.8.6-.7 1.4-1 2.5-1 1 0 1.8.2 2.3.8.6.6 1 1.5 1 2.5v.9h-5.1c0 .7.2 1.3.6 1.7.3.4.9.6 1.6.6a6 6 0 0 0 2.4-.6v1.3c-.4.2-.7.4-1.1.4l-1.4.2Zm-.3-6.7c-.5 0-1 .2-1.2.5-.4.3-.5.8-.6 1.4h3.4c0-.6-.1-1-.4-1.4-.3-.3-.7-.5-1.2-.5Zm7.9 5.4 1.1-.2v1.2l-.7.2h-.8c-1.5 0-2.3-.8-2.3-2.4v-4h-1v-.7l1-.6.6-1.6h1v1.7h2.2v1.2h-2.2v4c0 .4.1.7.3.9.2.2.4.3.8.3Zm4.3 1.1h-1.6v-7.5h1.6v7.5Zm-1.7-9.5c0-.3 0-.6.2-.7.1-.2.4-.2.7-.2.2 0 .5 0 .6.2.2.1.3.4.3.7l-.3.6c-.1.2-.4.2-.6.2-.3 0-.6 0-.7-.2a.9.9 0 0 1-.2-.6Zm10.7 5.7c0 1.3-.3 2.2-1 3-.6.6-1.5 1-2.6 1-.7 0-1.4-.2-1.9-.5s-1-.8-1.3-1.4c-.2-.6-.4-1.3-.4-2 0-1.3.3-2.3 1-3 .6-.6 1.5-1 2.6-1s2 .4 2.6 1a4 4 0 0 1 1 3Zm-5.5 0c0 1.8.6 2.6 1.9 2.6 1.3 0 2-.8 2-2.6 0-1.7-.7-2.6-2-2.6-.7 0-1.2.3-1.5.7-.3.4-.4 1-.4 2Zm14 3.8h-1.6v-4.6c0-.6-.2-1-.4-1.3-.2-.3-.6-.5-1.1-.5-.7 0-1.2.2-1.5.6-.3.4-.5 1.1-.5 2v3.8h-1.6v-7.5h1.3l.2 1c.3-.4.6-.7 1-.9l1.5-.3c1.8 0 2.7 1 2.7 2.8v5Zm9.7-7.7c1 0 1.7.4 2.2 1 .5.7.8 1.7.8 3 0 1.2-.3 2.1-.8 2.8-.5.7-1.3 1-2.2 1-1 0-1.7-.3-2.2-1h-.2l-.3 1h-1.2V787h1.7v2.5a18.7 18.7 0 0 1-.1 1.5c.6-.7 1.3-1 2.3-1Zm-.4 1.3c-.7 0-1.1.2-1.4.6-.3.4-.4 1-.4 2s.1 1.6.4 2c.3.4.8.6 1.4.6.6 0 1-.2 1.3-.6.3-.5.5-1.1.5-2 0-1.7-.6-2.6-1.8-2.6Zm4.1-1.1h1.8l1.5 4.2.5 1.8.3-1 1.7-5h1.7l-3.2 8.5c-.6 1.6-1.6 2.4-3 2.4l-1-.1v-1.3h.8c.8 0 1.4-.4 1.7-1.3l.3-.7-3-7.5Zm20.4 7.5h-1.7v-4.5h-4.6v4.5h-1.6v-10h1.6v4.1h4.6v-4h1.7v10Zm7.2 0-.4-1-1.1 1-1.4.2c-.8 0-1.4-.2-1.8-.6-.4-.4-.6-1-.6-1.8 0-.7.3-1.3.9-1.7a5 5 0 0 1 2.6-.7h1.3v-.4c0-.5-.1-.9-.3-1-.3-.3-.6-.5-1-.5l-1.2.2-1 .4-.5-1.1 1.3-.5 1.4-.2c1 0 1.7.2 2.2.6.5.5.7 1.1.7 2v5.1h-1.1Zm-2.4-1c.5 0 1-.2 1.4-.6.3-.3.5-.7.5-1.3v-.7h-1c-.7 0-1.3.2-1.6.4-.4.3-.5.6-.5 1s0 .7.3.8c.2.2.5.3.9.3Zm8.8 1.2c-1.2 0-2-.4-2.6-1-.6-.7-1-1.7-1-3 0-1.2.4-2.2 1-2.9.6-.6 1.5-1 2.7-1a5 5 0 0 1 2.2.5l-.5 1.3c-.7-.3-1.2-.4-1.7-.4-1.3 0-2 .8-2 2.6 0 .8.2 1.4.5 1.9.4.4.8.6 1.5.6s1.4-.2 2-.5v1.4c-.3.1-.6.3-1 .3l-1.1.2Zm5.4-4.2 1-1.1 2.2-2.4h1.9l-3 3.2 3.2 4.3h-2l-2.3-3.3-1 .7v2.6h-1.5v-10.6h1.6v5.2l-.1 1.4Zm9.8 4.2c-1.2 0-2.1-.4-2.8-1a4 4 0 0 1-1-3c0-1.1.3-2.1 1-2.8.6-.7 1.4-1 2.5-1 1 0 1.8.2 2.4.8.5.6.8 1.5.8 2.5v.9h-5c0 .7.2 1.3.6 1.7.4.4.9.6 1.6.6a6 6 0 0 0 2.5-.6v1.3c-.4.2-.8.4-1.2.4l-1.4.2Zm-.3-6.7c-.5 0-1 .2-1.2.5-.3.3-.5.8-.6 1.4h3.4c0-.6-.1-1-.4-1.4-.3-.3-.7-.5-1.2-.5Zm8.9-1.2h.8l-.2 1.6a3 3 0 0 0-.7-.1 2 2 0 0 0-1.5.6c-.4.4-.6 1-.6 1.7v4h-1.6v-7.6h1.2l.2 1.3h.1a3 3 0 0 1 1-1c.4-.3.8-.5 1.3-.5Zm7.3 5.6a2 2 0 0 1-.8 1.7c-.6.4-1.3.6-2.3.6-1 0-1.9-.2-2.5-.5V796a6 6 0 0 0 2.5.6c1 0 1.5-.3 1.5-.9 0-.2 0-.3-.2-.5a2 2 0 0 0-.5-.3l-1-.5c-1-.4-1.5-.7-1.8-1-.3-.4-.5-.8-.5-1.3 0-.7.3-1.2.8-1.5.5-.4 1.2-.6 2.1-.6a6 6 0 0 1 2.6.6l-.6 1.2c-.8-.4-1.5-.5-2-.5-.9 0-1.3.2-1.3.7l.3.6 1.5.7 1.3.6.7.7.2 1ZM132 854.7h-5.7v-10h5.7v1.4h-4v2.7h3.7v1.4H128v3.1h4v1.4Zm8.6 0H139v-4.6c0-.6-.1-1-.3-1.3-.3-.3-.7-.5-1.2-.5-.6 0-1.1.2-1.5.6-.3.4-.4 1.1-.4 2v3.8H134v-7.5h1.2l.3 1c.3-.4.6-.7 1-.9.4-.2.9-.3 1.4-.3 1.8 0 2.7 1 2.7 2.8v5Zm4.8.2c-1 0-1.7-.4-2.2-1-.5-.8-.8-1.7-.8-3 0-1.2.3-2.2.8-2.8.5-.7 1.3-1 2.2-1 1 0 1.8.3 2.3 1v-4h1.6v10.6H148l-.3-1c-.5.8-1.3 1.2-2.3 1.2Zm.4-1.3c.7 0 1.2-.2 1.5-.6.3-.4.4-1 .4-1.8v-.2c0-1-.1-1.7-.4-2-.3-.5-.8-.7-1.5-.7-.5 0-1 .3-1.3.7-.3.5-.4 1.1-.4 2 0 .8.1 1.5.4 1.9.3.4.7.7 1.3.7Zm9 1.3c-1.1 0-2-.4-2.7-1a4 4 0 0 1-1-3c0-1.1.3-2.1 1-2.8.6-.7 1.4-1 2.5-1 1 0 1.8.2 2.4.8.5.6.8 1.5.8 2.5v.9h-5c0 .7.2 1.3.6 1.7.3.4.9.6 1.6.6a6 6 0 0 0 2.4-.6v1.3c-.3.2-.7.4-1.1.4l-1.4.2Zm-.2-6.7c-.5 0-1 .2-1.2.5-.3.3-.5.8-.6 1.4h3.4c0-.6-.1-1-.4-1.4-.3-.3-.7-.5-1.2-.5Zm7.6 6.7c-1 0-1.7-.4-2.2-1-.5-.8-.8-1.7-.8-3 0-1.2.3-2.2.8-2.8.5-.7 1.3-1 2.2-1 1 0 1.8.3 2.3 1v-4h1.6v10.6h-1.3l-.3-1c-.6.8-1.3 1.2-2.3 1.2Zm.4-1.3c.7 0 1.2-.2 1.5-.6.3-.4.4-1 .4-1.8v-.2c0-1-.1-1.7-.4-2-.3-.5-.8-.7-1.5-.7-.6 0-1 .3-1.3.7-.3.5-.5 1.1-.5 2 0 .8.2 1.5.5 1.9.3.4.7.7 1.3.7ZM178 852c0 .9-.3 1.6-1 2-.6.6-1.5.9-2.6.9s-2-.2-2.8-.6v-1.5a7.6 7.6 0 0 0 3 .7c.6 0 1-.2 1.4-.4.3-.2.4-.6.4-1s-.1-.7-.4-1l-1.8-.9c-.9-.3-1.5-.8-1.9-1.2-.4-.5-.5-1-.5-1.7 0-.9.3-1.5.8-2 .6-.5 1.4-.7 2.4-.7s2 .2 2.9.6l-.5 1.3c-1-.3-1.7-.5-2.4-.5-.5 0-1 .1-1.2.3-.3.3-.4.6-.4 1l.1.6c.1.2.3.4.6.5l1.3.7 1.6.8a2.7 2.7 0 0 1 1 2Zm5.1 2.9c-1.2 0-2-.4-2.8-1a4 4 0 0 1-1-3c0-1.1.4-2.1 1-2.8.6-.7 1.4-1 2.5-1 1 0 1.8.2 2.4.8.6.6.8 1.5.8 2.5v.9h-5c0 .7.2 1.3.6 1.7.4.4.9.6 1.6.6a6 6 0 0 0 2.5-.6v1.3c-.4.2-.8.4-1.2.4l-1.4.2Zm-.3-6.7c-.5 0-1 .2-1.2.5-.3.3-.5.8-.6 1.4h3.5c0-.6-.2-1-.5-1.4-.3-.3-.7-.5-1.2-.5Zm8.9-1.2h.8l-.2 1.6a3 3 0 0 0-.7-.1 2 2 0 0 0-1.5.6c-.4.4-.6 1-.6 1.7v4h-1.6v-7.6h1.2l.2 1.3h.1a3 3 0 0 1 1-1c.4-.3.8-.5 1.3-.5Zm4 7.7-3-7.5h1.8l1.5 4.4.5 1.7.5-1.7 1.5-4.4h1.8l-3 7.5h-1.7Zm7.3 0h-1.6v-7.5h1.6v7.5Zm-1.7-9.5c0-.3 0-.6.2-.7.2-.2.4-.2.7-.2.3 0 .5 0 .7.2l.2.7c0 .2 0 .4-.2.6-.2.2-.4.2-.7.2a1 1 0 0 1-.7-.2.9.9 0 0 1-.2-.6Zm7 9.7c-1 0-2-.4-2.5-1-.6-.7-1-1.7-1-3 0-1.2.4-2.2 1-2.9.6-.6 1.5-1 2.7-1a5 5 0 0 1 2.1.5l-.4 1.3c-.7-.3-1.3-.4-1.7-.4-1.3 0-2 .8-2 2.6 0 .8.2 1.4.5 1.9.3.4.8.6 1.4.6.8 0 1.4-.2 2-.5v1.4c-.2.1-.5.3-.9.3l-1.1.2Zm7.2 0c-1.1 0-2-.4-2.7-1a4 4 0 0 1-1-3c0-1.1.3-2.1 1-2.8.5-.7 1.4-1 2.5-1 1 0 1.7.2 2.3.8.6.6.9 1.5.9 2.5v.9h-5c0 .7.2 1.3.5 1.7.4.4 1 .6 1.6.6a6 6 0 0 0 2.5-.6v1.3a5 5 0 0 1-1.2.4l-1.4.2Zm-.2-6.7c-.6 0-1 .2-1.3.5-.3.3-.5.8-.5 1.4h3.4c0-.6-.2-1-.4-1.4-.3-.3-.7-.5-1.2-.5Zm9.7 6.5-.3-1-1.1 1-1.5.2c-.7 0-1.3-.2-1.7-.6-.4-.4-.6-1-.6-1.8 0-.7.3-1.3.8-1.7a5 5 0 0 1 2.7-.7h1.3v-.4c0-.5-.1-.9-.3-1-.3-.3-.6-.5-1-.5l-1.2.2-1 .4-.6-1.1 1.4-.5 1.4-.2c1 0 1.7.2 2.2.6.4.5.7 1.1.7 2v5.1h-1.2Zm-2.4-1c.6 0 1.1-.2 1.4-.6.4-.3.6-.7.6-1.3v-.7h-1c-.7 0-1.3.2-1.6.4-.4.3-.6.6-.6 1s.1.7.3.8c.2.2.5.3 1 .3Zm12.5 1h-1.6v-4.6c0-.6-.1-1-.4-1.3-.2-.3-.6-.5-1.1-.5-.7 0-1.2.2-1.5.6-.3.4-.5 1.1-.5 2v3.8h-1.6v-7.5h1.3l.2 1h.1c.2-.4.5-.7 1-.9.4-.2.9-.3 1.4-.3 1.8 0 2.7 1 2.7 2.8v5Zm4.8.2c-1 0-1.7-.4-2.2-1-.6-.8-.8-1.7-.8-3 0-1.2.2-2.2.8-2.8.5-.7 1.2-1 2.2-1 1 0 1.7.3 2.3 1v-4h1.5v10.6h-1.2l-.3-1c-.6.8-1.3 1.2-2.3 1.2Zm.4-1.3c.7 0 1.1-.2 1.4-.6.3-.4.5-1 .5-1.8v-.2c0-1-.1-1.7-.5-2-.3-.5-.8-.7-1.4-.7-.6 0-1 .3-1.3.7-.3.5-.5 1.1-.5 2 0 .8.2 1.5.5 1.9.3.4.7.7 1.3.7Zm17.7-4c0 1.7-.5 3-1.4 3.8-1 .9-2.2 1.3-4 1.3h-2.8v-10h3.1c1.6 0 2.9.4 3.8 1.3.8.9 1.3 2 1.3 3.6Zm-1.7 0c0-2.3-1.2-3.5-3.4-3.5h-1.4v7.2h1.1c2.5 0 3.7-1.2 3.7-3.6Zm8.4 5.1-.3-1-1.2 1-1.4.2c-.8 0-1.3-.2-1.8-.6-.4-.4-.6-1-.6-1.8 0-.7.3-1.3.9-1.7a5 5 0 0 1 2.6-.7h1.3v-.4c0-.5 0-.9-.3-1-.2-.3-.6-.5-1-.5l-1.2.2-1 .4-.5-1.1 1.3-.5 1.4-.2c1 0 1.7.2 2.2.6.5.5.7 1.1.7 2v5.1h-1.1Zm-2.4-1c.6 0 1-.2 1.4-.6.4-.3.5-.7.5-1.3v-.7h-1c-.7 0-1.2.2-1.6.4-.3.3-.5.6-.5 1s0 .7.3.8c.2.2.5.3.9.3Zm8.6-.1 1.2-.2v1.2l-.7.2h-.9c-1.5 0-2.3-.8-2.3-2.4v-4h-1v-.7l1.1-.6.6-1.6h1v1.7h2.1v1.2h-2.2v4c0 .4.1.7.3.9.2.2.5.3.8.3Zm7.4 1.1-.3-1-1.2 1-1.4.2c-.7 0-1.3-.2-1.7-.6-.4-.4-.6-1-.6-1.8 0-.7.2-1.3.8-1.7a5 5 0 0 1 2.7-.7h1.3v-.4c0-.5-.1-.9-.4-1-.2-.3-.5-.5-1-.5l-1.1.2-1 .4-.6-1.1 1.4-.5 1.4-.2c1 0 1.6.2 2.1.6.5.5.8 1.1.8 2v5.1h-1.2Zm-2.4-1c.6 0 1-.2 1.4-.6.4-.3.6-.7.6-1.3v-.7h-1c-.8 0-1.3.2-1.7.4-.3.3-.5.6-.5 1s.1.7.3.8c.2.2.5.3 1 .3Zm9.6 1v-10h1.7v8.6h4.2v1.4h-5.9Zm14.1-3.8c0 1.3-.3 2.2-1 3-.5.6-1.4 1-2.6 1-.7 0-1.3-.2-1.8-.5-.6-.3-1-.8-1.3-1.4-.3-.6-.4-1.3-.4-2 0-1.3.3-2.3 1-3 .6-.6 1.4-1 2.6-1 1 0 2 .4 2.6 1a4 4 0 0 1 1 3Zm-5.5 0c0 1.8.7 2.6 2 2.6s1.9-.8 1.9-2.6c0-1.7-.7-2.6-2-2.6-.6 0-1.1.3-1.4.7-.3.4-.5 1-.5 2Zm12.5 1.7a2 2 0 0 1-.8 1.7c-.6.4-1.3.6-2.3.6-1 0-1.9-.2-2.5-.5V853a6 6 0 0 0 2.5.6c1 0 1.5-.3 1.5-.9 0-.2 0-.3-.2-.5a2 2 0 0 0-.5-.3l-1-.5c-1-.4-1.5-.7-1.8-1-.3-.4-.5-.8-.5-1.3 0-.7.3-1.2.8-1.5.5-.4 1.2-.6 2.1-.6a6 6 0 0 1 2.6.6l-.6 1.2c-.8-.4-1.5-.5-2-.5-.9 0-1.3.2-1.3.7l.3.6 1.5.7 1.3.6.7.7.2 1Zm4.5 1 1.2-.2v1.2l-.7.2h-.9c-1.5 0-2.2-.8-2.2-2.4v-4h-1v-.7l1-.6.6-1.6h1v1.7h2.1v1.2H310v4c0 .4 0 .7.3.9.2.2.4.3.7.3ZM135.2 906.7c0 1.6-.4 2.9-1.2 3.8-.8.9-2 1.4-3.5 1.4s-2.7-.5-3.5-1.4a5.5 5.5 0 0 1-1.2-3.8c0-1.7.4-3 1.2-3.8.9-.9 2-1.3 3.5-1.3s2.7.4 3.5 1.3c.8 1 1.2 2.2 1.2 3.8Zm-7.6 0c0 1.2.2 2.2.7 2.8.5.6 1.2 1 2.2 1 1 0 1.7-.4 2.2-1 .5-.6.8-1.6.8-2.8 0-1.2-.3-2.2-.8-2.8-.5-.6-1.2-1-2.2-1-1 0-1.7.4-2.2 1-.5.6-.7 1.6-.7 2.8Zm14.9 5-.2-1h-.1c-.2.4-.5.7-1 .9-.4.2-.8.3-1.4.3-.9 0-1.6-.3-2-.7-.5-.5-.7-1.2-.7-2.1v-5h1.6v4.7c0 .6.1 1 .4 1.3.2.3.6.5 1 .5.8 0 1.3-.2 1.6-.6.3-.5.5-1.1.5-2v-3.8h1.6v7.5h-1.3Zm6.4-1.1 1.1-.2v1.2l-.6.2h-1c-1.4 0-2.2-.8-2.2-2.4v-4h-1v-.7l1-.6.6-1.6h1v1.7h2.2v1.2h-2.2v4c0 .4.1.7.3.9.2.2.5.3.8.3Zm7.4 1.1-.3-1-1.2 1-1.4.2c-.7 0-1.3-.2-1.7-.6-.5-.4-.7-1-.7-1.8 0-.7.3-1.3.9-1.7a5 5 0 0 1 2.6-.7h1.4v-.4c0-.5-.2-.9-.4-1-.2-.3-.6-.5-1-.5l-1.2.2-1 .4-.5-1.1 1.3-.5 1.4-.2c1 0 1.7.2 2.2.6.5.5.7 1.1.7 2v5.1h-1.1Zm-2.4-1c.6 0 1-.2 1.4-.6.4-.3.5-.7.5-1.3v-.7h-1c-.7 0-1.2.2-1.6.4-.3.3-.5.6-.5 1s.1.7.3.8c.2.2.5.3.9.3Zm12.2-6.5v.8l-1.3.3.3.6v.7c0 .8-.2 1.4-.7 1.8-.6.5-1.3.7-2.2.7h-.7c-.3.2-.5.4-.5.7 0 .2 0 .3.2.4l1 .1h1.2c.9 0 1.5.2 2 .6.4.3.6.8.6 1.5 0 .9-.4 1.5-1 2-.8.4-1.8.7-3.1.7-1 0-1.8-.2-2.4-.6-.5-.3-.8-.9-.8-1.5 0-.5.1-.9.4-1.2.3-.3.7-.5 1.3-.7-.2 0-.4-.2-.6-.4l-.2-.6c0-.3.1-.6.3-.8.1-.2.4-.3.7-.5-.4-.2-.7-.5-1-.9-.2-.3-.3-.8-.3-1.3 0-.8.2-1.5.7-1.9.6-.5 1.3-.7 2.2-.7a5 5 0 0 1 1.3.2h2.6Zm-6 8.7c0 .3.2.6.5.8.3.2.7.3 1.3.3a4 4 0 0 0 2-.4c.4-.3.6-.6.6-1 0-.3-.1-.6-.3-.7l-1.3-.2h-1.3c-.4 0-.8.1-1 .3a1 1 0 0 0-.5.9Zm.7-6.3c0 .5.1.8.4 1.1.2.3.6.4 1 .4 1 0 1.4-.5 1.4-1.5 0-.5 0-.9-.3-1.1-.2-.3-.6-.4-1-.4-.5 0-.9 0-1.1.3-.3.3-.4.7-.4 1.2Zm10 5.3c-1.2 0-2.1-.4-2.8-1a4 4 0 0 1-1-3c0-1.1.3-2.1 1-2.8.6-.7 1.4-1 2.5-1 1 0 1.8.2 2.4.8.5.6.8 1.5.8 2.5v.9h-5c0 .7.2 1.3.6 1.7.3.4.9.6 1.6.6a6 6 0 0 0 2.4-.6v1.3a5 5 0 0 1-1.1.4l-1.4.2Zm-.3-6.7c-.5 0-1 .2-1.2.5-.3.3-.5.8-.6 1.4h3.4c0-.6-.1-1-.4-1.4-.3-.3-.7-.5-1.2-.5Zm10.1 4.4a2 2 0 0 1-.8 1.7c-.5.4-1.3.6-2.3.6-1 0-1.8-.2-2.4-.5V910a6 6 0 0 0 2.5.6c1 0 1.4-.3 1.4-.9l-.1-.5a2 2 0 0 0-.6-.3l-1-.5c-.9-.4-1.5-.7-1.8-1-.3-.4-.4-.8-.4-1.3 0-.7.2-1.2.7-1.5.6-.4 1.3-.6 2.2-.6a6 6 0 0 1 2.5.6l-.5 1.2c-.8-.4-1.5-.5-2-.5-1 0-1.3.2-1.3.7 0 .2 0 .4.3.6l1.4.7 1.4.6.6.7c.2.3.2.6.2 1Zm10.1 2.1-.3-1-1.1 1-1.5.2c-.7 0-1.3-.2-1.7-.6-.4-.4-.6-1-.6-1.8 0-.7.3-1.3.8-1.7a5 5 0 0 1 2.7-.7h1.3v-.4c0-.5-.1-.9-.4-1-.2-.3-.5-.5-1-.5l-1.1.2-1 .4-.6-1.1 1.4-.5 1.4-.2c1 0 1.7.2 2.1.6.5.5.8 1.1.8 2v5.1h-1.2Zm-2.4-1c.6 0 1-.2 1.4-.6.4-.3.6-.7.6-1.3v-.7h-1c-.8 0-1.3.2-1.6.4-.4.3-.6.6-.6 1s.1.7.3.8c.2.2.5.3 1 .3Zm8.6-.1 1.2-.2v1.2l-.7.2h-.8c-1.6 0-2.3-.8-2.3-2.4v-4h-1v-.7l1-.6.6-1.6h1v1.7h2.1v1.2H196v4c0 .4 0 .7.3.9.2.2.4.3.7.3Zm10.6-4.3h3.7v5a10.6 10.6 0 0 1-3.5.6c-1.5 0-2.7-.5-3.5-1.4a5.4 5.4 0 0 1-1.3-3.8 5 5 0 0 1 1.4-3.8c1-.9 2.2-1.3 3.9-1.3 1 0 2 .2 3 .6l-.6 1.3c-.9-.3-1.7-.5-2.5-.5-1 0-1.9.3-2.5 1-.6.7-1 1.6-1 2.7 0 1.3.3 2.2.9 2.8.6.7 1.4 1 2.4 1 .5 0 1.1 0 1.7-.2v-2.6h-2v-1.4Zm12.6 1.6c0 1.3-.3 2.2-.9 3-.6.6-1.5 1-2.6 1-.8 0-1.4-.2-2-.5-.5-.3-.9-.8-1.2-1.4-.3-.6-.4-1.3-.4-2 0-1.3.3-2.3 1-3 .6-.6 1.5-1 2.6-1 1 0 2 .4 2.6 1a4 4 0 0 1 1 3Zm-5.5 0c0 1.8.7 2.6 2 2.6s1.9-.8 1.9-2.6c0-1.7-.6-2.6-2-2.6-.6 0-1.1.3-1.4.7-.3.4-.5 1-.5 2Zm14.1 0c0 1.3-.3 2.2-1 3-.6.6-1.5 1-2.6 1-.7 0-1.3-.2-1.9-.5-.5-.3-1-.8-1.2-1.4-.3-.6-.4-1.3-.4-2 0-1.3.3-2.3.9-3 .6-.6 1.5-1 2.7-1 1 0 2 .4 2.6 1a4 4 0 0 1 1 3Zm-5.5 0c0 1.8.7 2.6 2 2.6 1.2 0 1.9-.8 1.9-2.6 0-1.7-.7-2.6-2-2.6-.6 0-1.1.3-1.4.7-.3.4-.5 1-.5 2Zm13.7-3.7v.8l-1.2.3.2.6.2.7c0 .8-.3 1.4-.8 1.8-.6.5-1.3.7-2.3.7h-.6c-.4.2-.5.4-.5.7 0 .2 0 .3.2.4l.9.1h1.3c.8 0 1.5.2 2 .6.3.3.6.8.6 1.5 0 .9-.4 1.5-1.1 2-.7.4-1.7.7-3 .7-1 0-1.9-.2-2.4-.6-.6-.3-.8-.9-.8-1.5 0-.5.1-.9.4-1.2.3-.3.7-.5 1.2-.7-.2 0-.3-.2-.5-.4l-.2-.6c0-.3 0-.6.2-.8l.8-.5c-.4-.2-.8-.5-1-.9-.2-.3-.4-.8-.4-1.3 0-.8.3-1.5.8-1.9.5-.5 1.3-.7 2.2-.7a5 5 0 0 1 1.2.2h2.6Zm-5.9 8.7c0 .3.2.6.5.8.3.2.7.3 1.3.3a4 4 0 0 0 2-.4c.4-.3.6-.6.6-1 0-.3-.1-.6-.4-.7-.2-.1-.6-.2-1.3-.2h-1.2c-.5 0-.8.1-1 .3a1 1 0 0 0-.5.9Zm.7-6.3c0 .5.1.8.4 1.1.2.3.6.4 1 .4 1 0 1.4-.5 1.4-1.5 0-.5-.1-.9-.3-1.1-.3-.3-.6-.4-1-.4-.6 0-1 0-1.1.3-.3.3-.4.7-.4 1.2Zm8.3 5.1h-1.6v-10.6h1.6v10.6Zm5.6.2c-1.2 0-2.1-.4-2.8-1a4 4 0 0 1-1-3c0-1.1.3-2.1 1-2.8.6-.7 1.4-1 2.5-1 1 0 1.8.2 2.3.8.6.6 1 1.5 1 2.5v.9h-5.1c0 .7.2 1.3.6 1.7.3.4.9.6 1.5.6a6 6 0 0 0 2.5-.6v1.3a5 5 0 0 1-1.2.4l-1.3.2Zm-.3-6.7c-.5 0-1 .2-1.3.5-.3.3-.4.8-.5 1.4h3.4c0-.6-.1-1-.4-1.4-.3-.3-.7-.5-1.2-.5Zm15.4 2.7c0 1.3-.3 2.2-1 3-.6.6-1.5 1-2.6 1-.7 0-1.4-.2-1.9-.5s-1-.8-1.2-1.4c-.3-.6-.5-1.3-.5-2 0-1.3.3-2.3 1-3 .6-.6 1.5-1 2.6-1s2 .4 2.6 1a4 4 0 0 1 1 3Zm-5.5 0c0 1.8.6 2.6 1.9 2.6 1.3 0 2-.8 2-2.6 0-1.7-.7-2.6-2-2.6-.7 0-1.2.3-1.5.7-.3.4-.4 1-.4 2Zm11.2-3.9h.8l-.2 1.6a3 3 0 0 0-.7-.1 2 2 0 0 0-1.6.6c-.4.4-.6 1-.6 1.7v4h-1.6v-7.6h1.3l.2 1.3a3 3 0 0 1 1-1c.5-.3.9-.5 1.4-.5Zm10.3 7.7-2.9-8.3v8.3h-1.4v-10h2.3l2.8 8 2.9-8h2.3v10H281v-5a70 70 0 0 1 0-3.3l-3 8.3h-1.4Zm10 0h-1.6v-7.5h1.6v7.5Zm-1.7-9.5c0-.3.1-.6.3-.7.1-.2.3-.2.6-.2s.5 0 .7.2c.2.1.2.4.2.7 0 .2 0 .4-.2.6-.2.2-.4.2-.7.2-.3 0-.5 0-.6-.2a.9.9 0 0 1-.3-.6Zm7 9.7c-1 0-2-.4-2.5-1-.6-.7-1-1.7-1-3 0-1.2.4-2.2 1-2.9.6-.6 1.5-1 2.7-1a5 5 0 0 1 2.2.5l-.5 1.3c-.7-.3-1.3-.4-1.7-.4-1.3 0-2 .8-2 2.6 0 .8.2 1.4.5 1.9.4.4.8.6 1.5.6s1.4-.2 2-.5v1.4c-.3.1-.6.3-1 .3l-1.1.2Zm7.8-7.9h.8l-.2 1.6a3 3 0 0 0-.7-.1 2 2 0 0 0-1.5.6c-.4.4-.6 1-.6 1.7v4H296v-7.6h1.2l.2 1.3h.1a3 3 0 0 1 1-1c.4-.3.8-.5 1.3-.5Zm9 4c0 1.2-.4 2.1-1 2.8-.7.7-1.6 1-2.7 1-.7 0-1.3-.1-1.9-.4-.5-.3-1-.8-1.2-1.4-.3-.6-.4-1.3-.4-2 0-1.3.3-2.3.9-3 .6-.6 1.5-1 2.7-1 1 0 2 .4 2.6 1a4 4 0 0 1 1 3Zm-5.6 0c0 1.7.7 2.5 2 2.5 1.2 0 1.9-.8 1.9-2.6 0-1.7-.7-2.6-2-2.6-.6 0-1.1.3-1.4.7-.3.4-.5 1-.5 2Zm12.4 1.6a2 2 0 0 1-.8 1.7c-.5.4-1.3.6-2.3.6-1 0-1.8-.2-2.4-.5V910a6 6 0 0 0 2.5.6c1 0 1.5-.3 1.5-.9 0-.2 0-.3-.2-.5a2 2 0 0 0-.5-.3l-1-.5c-1-.4-1.5-.7-1.9-1-.3-.4-.4-.8-.4-1.3 0-.7.3-1.2.8-1.5.5-.4 1.2-.6 2.1-.6a6 6 0 0 1 2.5.6l-.5 1.2c-.8-.4-1.5-.5-2-.5-.9 0-1.3.2-1.3.7 0 .2 0 .4.3.6l1.5.7 1.3.6.6.7c.2.3.2.6.2 1Zm8.5-1.7c0 1.3-.3 2.2-1 3-.6.6-1.5 1-2.6 1-.7 0-1.3-.2-1.9-.5-.5-.3-1-.8-1.2-1.4-.3-.6-.5-1.3-.5-2 0-1.3.4-2.3 1-3 .6-.6 1.5-1 2.6-1s2 .4 2.6 1a4 4 0 0 1 1 3Zm-5.5 0c0 1.8.6 2.6 2 2.6 1.2 0 1.8-.8 1.8-2.6 0-1.7-.6-2.6-1.9-2.6-.7 0-1.1.3-1.5.7-.3.4-.4 1-.4 2Zm11.1-2.5H328v6.3h-1.6v-6.3H325v-.8l1.3-.5v-.5c0-.9.2-1.5.6-2 .4-.4 1-.6 2-.6l1.6.3-.4 1.2-1.2-.2c-.3 0-.6.1-.8.4l-.2 1v.5h1.8v1.2Zm4.2 5.2 1.1-.2v1.2l-.7.2h-.8c-1.6 0-2.3-.8-2.3-2.4v-4h-1v-.7l1-.6.6-1.6h1v1.7h2.2v1.2h-2.2v4c0 .4 0 .7.3.9.2.2.4.3.8.3Z"/><path fill="#fff" d="M40.3 399H27.8v-3l4.2-4.3a68 68 0 0 0 3-3.6c.2-.3.3-.7.3-1.1 0-.6-.1-1-.4-1.1a2 2 0 0 0-1.2-.4c-.5 0-1 .2-1.6.5l-2 1.3-2.5-3 1.7-1.2c.6-.5 1.2-.8 2-1a9 9 0 0 1 6 .1c.8.4 1.5 1 2 1.7.4.7.6 1.5.6 2.4 0 1-.1 1.9-.5 2.7l-1.6 2.3-2.8 2.6-1.2 1.2h6.5v3.9Zm8-17.4c1 0 2 .2 3 .5.8.3 1.5.7 2 1.4.4.6.7 1.4.7 2.3a4 4 0 0 1-1.5 3.2c-.4.4-.9.7-1.5 1l1.6 1c.6.4 1 1 1.4 1.5a4.6 4.6 0 0 1-.1 4.4c-.5.7-1.2 1.3-2.1 1.7-1 .4-2.1.6-3.6.6a9 9 0 0 1-3.5-.6c-1-.4-1.6-1-2-1.6-.5-.7-.7-1.6-.7-2.5 0-.8.1-1.5.4-2 .2-.6.6-1 1-1.4l1.7-1c-.5-.4-1-.7-1.3-1.1l-1-1.4-.3-1.8c0-1 .2-1.7.7-2.3.5-.6 1.2-1.1 2-1.4 1-.3 2-.5 3-.5Zm-2 12.7c0 .5 0 .9.4 1.2.4.3.9.4 1.5.4.7 0 1.2-.1 1.5-.4.4-.3.5-.6.5-1.1 0-.4 0-.7-.3-1l-.7-.7-.7-.5-.3-.2-1 .6-.7.8c-.2.2-.3.6-.3.9Zm2-9.3c-.4 0-.8 0-1 .3a1 1 0 0 0-.5.9c0 .3 0 .5.2.7l.5.6.7.5.7-.4.5-.6c.2-.2.2-.5.2-.8a1 1 0 0 0-.4-.9c-.3-.2-.6-.3-1-.3Zm8 12c0-.8.2-1.4.7-1.7a3 3 0 0 1 1.7-.5c.7 0 1.3.2 1.7.5.5.3.7 1 .7 1.8 0 .7-.2 1.3-.7 1.7-.4.3-1 .5-1.7.5a3 3 0 0 1-1.7-.5c-.5-.4-.8-1-.8-1.7Zm13.7-9.2a4.8 4.8 0 0 1 4.5 2.5c.4.8.6 1.8.6 3 0 1.3-.2 2.3-.7 3.2-.5 1-1.3 1.6-2.3 2-1 .5-2.4.7-4 .7-1 0-1.8 0-2.6-.2-.9-.1-1.6-.4-2.2-.7v-3.8l2.1.8 2.4.3c.6 0 1 0 1.4-.3.4-.1.7-.4 1-.7.2-.3.3-.7.3-1.2 0-.6-.3-1.1-.7-1.5-.5-.4-1.2-.6-2.2-.6-.4 0-.8 0-1.2.2-.5 0-.8.2-1.1.3l-1.7-.9.6-9H74v3.8h-5.8l-.3 2.3.8-.2H70Zm11-6.2a4 4 0 0 1 3.3 1.4c.8 1 1.2 2.3 1.2 4 0 1.7-.4 3-1.1 4-.8.9-2 1.4-3.4 1.4a4 4 0 0 1-3.1-1.5 6 6 0 0 1-1.2-4c0-1.6.4-3 1.1-3.9a4 4 0 0 1 3.2-1.4Zm0 2.9c-.2 0-.5.2-.6.7l-.2 1.8c0 .8 0 1.4.2 1.9.1.4.4.7.7.7.3 0 .6-.3.7-.7l.2-1.9c0-.8 0-1.4-.2-1.8-.1-.5-.4-.7-.7-.7Zm13-2.6L84.7 399H81l9.5-17.1H94Zm0 6.5a4 4 0 0 1 3.3 1.4c.8 1 1.2 2.3 1.2 4 0 1.7-.3 3-1.1 4s-1.9 1.4-3.3 1.4a4 4 0 0 1-3.2-1.4 6 6 0 0 1-1.2-4c0-1.7.4-3 1.1-4a4 4 0 0 1 3.3-1.4Zm.1 2.9c-.3 0-.5.2-.7.7l-.2 1.8.2 1.9c.2.5.4.7.7.7.4 0 .6-.2.7-.7l.2-1.9c0-.8 0-1.4-.2-1.8-.1-.5-.3-.7-.7-.7ZM40.3 456H27.8v-3l4.2-4.3a68 68 0 0 0 3-3.6c.2-.3.3-.7.3-1.1 0-.6-.1-1-.4-1.1a2 2 0 0 0-1.2-.4c-.5 0-1 .2-1.6.5l-2 1.3-2.5-3 1.7-1.2c.6-.5 1.2-.8 2-1a9 9 0 0 1 6 .1c.8.4 1.5 1 2 1.7.4.7.6 1.5.6 2.4 0 1-.1 1.9-.5 2.7l-1.6 2.3-2.8 2.6-1.2 1.2h6.5v3.9Zm14.6-3.3h-2v3.3h-4.5v-3.3h-6.8v-3.4l7.1-10.4H53v10.3h1.9v3.5Zm-6.5-3.5v-3.5a50.5 50.5 0 0 0 .1-1h-.1a11.2 11.2 0 0 1-.9 1.7l-1.9 2.8h2.8ZM60 438.6a4 4 0 0 1 3.3 1.4c.8 1 1.2 2.3 1.2 4 0 1.7-.4 3-1.1 4-.8.9-2 1.4-3.4 1.4a4 4 0 0 1-3.1-1.5 6 6 0 0 1-1.2-4c0-1.6.4-3 1.1-3.9a4 4 0 0 1 3.2-1.4Zm0 2.9c-.2 0-.5.2-.6.7l-.2 1.8c0 .8 0 1.4.2 1.9.1.4.4.7.7.7.3 0 .6-.3.7-.7l.2-1.9c0-.8 0-1.4-.2-1.8-.1-.5-.4-.7-.7-.7Zm13-2.6L63.7 456H60l9.5-17.1H73Zm0 6.5a4 4 0 0 1 3.3 1.4c.8 1 1.2 2.3 1.2 4 0 1.7-.3 3-1.1 4s-1.9 1.4-3.3 1.4a4 4 0 0 1-3.2-1.4 6 6 0 0 1-1.2-4c0-1.7.4-3 1.1-4a4 4 0 0 1 3.3-1.4Zm.1 2.9c-.3 0-.5.2-.7.7l-.2 1.8.2 1.9c.2.5.4.7.7.7.4 0 .6-.2.7-.7l.2-1.9c0-.8 0-1.4-.2-1.8-.1-.5-.3-.7-.7-.7ZM40.3 513H27.8v-3l4.2-4.3a52.6 52.6 0 0 0 3.1-3.7c.2-.3.2-.7.2-1 0-.5-.1-.8-.4-1.1-.3-.3-.7-.4-1.2-.4s-1 .2-1.6.5l-2 1.3-2.5-3 2.3-1.6c.6-.4 1.2-.6 2-.8.6-.2 1.4-.3 2.3-.3 1.1 0 2.1.2 3 .6.9.4 1.5 1 2 1.7s.7 1.5.7 2.4a6.4 6.4 0 0 1-1 3.6l-1.4 1.7-3.7 3.5h6.5v3.9Zm14.1-8.5c0 3-.5 5.2-1.5 6.6-1 1.4-2.6 2.1-4.7 2.1-2 0-3.6-.7-4.6-2.2-1-1.4-1.6-3.6-1.6-6.5 0-3 .5-5.3 1.5-6.7 1-1.5 2.6-2.2 4.7-2.2 2 0 3.6.8 4.6 2.2 1 1.5 1.6 3.7 1.6 6.7Zm-7.8 0c0 1.9.1 3.2.4 4 .2.7.6 1 1.2 1s1-.3 1.2-1c.3-.8.4-2.2.4-4 0-2-.1-3.3-.4-4-.2-.8-.6-1.2-1.2-1.2s-1 .4-1.2 1.1c-.3.8-.4 2.1-.4 4Zm12.6-3.5c0 1 0 1.6.2 2 .2.4.4.6.7.6.3 0 .5-.2.6-.6.2-.4.3-1 .3-2a6 6 0 0 0-.3-2c0-.3-.3-.5-.6-.5s-.5.2-.7.6l-.2 2Zm5.3 0c0 1.7-.4 3-1.1 4a4 4 0 0 1-3.4 1.4 4 4 0 0 1-3.2-1.5c-.7-1-1.1-2.3-1.1-4 0-1.6.4-3 1.1-3.9a4 4 0 0 1 3.2-1.4 4 4 0 0 1 3.3 1.5 6 6 0 0 1 1.2 3.9Zm8.6-5.1L63.6 513H60l9.5-17.1H73Zm-.9 12c0 .8.1 1.5.3 1.9.1.4.3.6.6.6.4 0 .6-.2.7-.7l.2-1.9c0-.7 0-1.4-.2-1.8-.1-.5-.3-.7-.7-.7-.3 0-.5.2-.7.6l-.2 2Zm5.3-.1a6 6 0 0 1-1.1 4 4 4 0 0 1-3.3 1.4 4 4 0 0 1-3.2-1.5c-.8-1-1.2-2.3-1.2-3.9 0-1.7.4-3 1.2-4a4 4 0 0 1 3.2-1.4 4 4 0 0 1 3.2 1.5 6 6 0 0 1 1.2 3.9ZM38.2 570h-4.7v-12l-1 1-2 1.6-2.4-3L34 553h4.2V570Zm16.2-8.5c0 3-.5 5.2-1.5 6.6-1 1.4-2.6 2.1-4.7 2.1-2 0-3.6-.7-4.6-2.2-1-1.4-1.6-3.6-1.6-6.5 0-3 .5-5.3 1.5-6.7 1-1.5 2.6-2.2 4.7-2.2 2 0 3.6.8 4.6 2.2 1 1.5 1.6 3.7 1.6 6.7Zm-7.8 0c0 1.9.1 3.2.4 4 .2.7.6 1 1.2 1s1-.3 1.2-1c.3-.8.4-2.2.4-4 0-2-.1-3.3-.4-4-.2-.8-.6-1.2-1.2-1.2s-1 .4-1.2 1.1c-.3.8-.4 2.1-.4 4Zm12.6-3.5c0 1 0 1.6.2 2 .2.4.4.6.7.6.3 0 .5-.2.6-.6.2-.4.3-1 .3-2a6 6 0 0 0-.3-2c0-.3-.3-.5-.6-.5s-.5.2-.7.6l-.2 2Zm5.3 0c0 1.7-.4 3-1.1 4a4 4 0 0 1-3.4 1.4 4 4 0 0 1-3.2-1.5c-.7-1-1.1-2.3-1.1-4 0-1.6.4-3 1.1-3.9a4 4 0 0 1 3.2-1.4 4 4 0 0 1 3.3 1.5 6 6 0 0 1 1.2 3.9Zm8.6-5.1L63.6 570H60l9.5-17.1H73Zm-.9 12c0 .8.1 1.5.3 1.9.1.4.3.6.6.6.4 0 .6-.2.7-.7l.2-1.9c0-.7 0-1.4-.2-1.8-.1-.5-.3-.7-.7-.7-.3 0-.5.2-.7.6l-.2 2Zm5.3-.1a6 6 0 0 1-1.1 4 4 4 0 0 1-3.3 1.4 4 4 0 0 1-3.2-1.5c-.8-1-1.2-2.3-1.2-3.9 0-1.7.4-3 1.2-4a4 4 0 0 1 3.2-1.4 4 4 0 0 1 3.2 1.5 6 6 0 0 1 1.2 3.9ZM35 615.8c1 0 1.8.2 2.6.7.8.4 1.4 1 1.9 1.9.4.8.6 1.8.6 2.9 0 2-.5 3.4-1.7 4.4-1.1 1-2.9 1.5-5.2 1.5-2 0-3.7-.3-5-.9v-3.8a12.4 12.4 0 0 0 4.6 1c.9 0 1.5 0 2-.4.4-.4.7-1 .7-1.7 0-.6-.3-1.1-.7-1.5-.5-.4-1.2-.6-2.2-.6-.7 0-1.5.2-2.3.5l-1.7-.9.6-9H39v3.8h-5.8l-.3 2.3a9.5 9.5 0 0 1 2-.2Zm10.2-.8c0 1 0 1.6.2 2 .2.4.4.6.7.6.3 0 .5-.2.6-.6.2-.4.3-1 .3-2a6 6 0 0 0-.3-2c0-.3-.3-.5-.6-.5s-.5.2-.7.6l-.2 2Zm5.3 0c0 1.7-.4 3-1.1 4a4 4 0 0 1-3.4 1.4 4 4 0 0 1-3.2-1.5c-.7-1-1.1-2.3-1.1-4 0-1.6.4-3 1.1-3.9a4 4 0 0 1 3.2-1.4 4 4 0 0 1 3.3 1.5 6 6 0 0 1 1.2 3.9Zm8.6-5.1L49.6 627H46l9.5-17.1H59Zm-.9 12c0 .8.1 1.5.3 1.9.1.4.3.6.6.6.4 0 .6-.2.7-.7l.2-1.9c0-.7 0-1.4-.2-1.8-.1-.5-.3-.7-.7-.7-.3 0-.5.2-.7.6l-.2 2Zm5.3-.1a6 6 0 0 1-1.1 4 4 4 0 0 1-3.3 1.4 4 4 0 0 1-3.2-1.5c-.8-1-1.2-2.3-1.2-3.9 0-1.7.4-3 1.2-4a4 4 0 0 1 3.2-1.4 4 4 0 0 1 3.2 1.5 6 6 0 0 1 1.2 3.9ZM40.9 680.7h-2v3.3h-4.5v-3.3h-6.8v-3.4l7.1-10.4H39v10.3h1.9v3.5Zm-6.5-3.5v-2a43 43 0 0 1 .1-2.5h-.1l-.9 1.7-1.9 2.8h2.8Zm10.8-5.2c0 1 0 1.6.2 2 .2.4.4.6.7.6.3 0 .5-.2.6-.6.2-.4.3-1 .3-2a6 6 0 0 0-.3-2c0-.3-.3-.5-.6-.5s-.5.2-.7.6l-.2 2Zm5.3 0c0 1.7-.4 3-1.1 4a4 4 0 0 1-3.4 1.4 4 4 0 0 1-3.2-1.5c-.7-1-1.1-2.3-1.1-4 0-1.6.4-3 1.1-3.9a4 4 0 0 1 3.2-1.4 4 4 0 0 1 3.3 1.5 6 6 0 0 1 1.2 3.9Zm8.6-5.1L49.6 684H46l9.5-17.1H59Zm-.9 12c0 .8.1 1.5.3 1.9.1.4.3.6.6.6.4 0 .6-.2.7-.7l.2-1.9c0-.7 0-1.4-.2-1.8-.1-.5-.3-.7-.7-.7-.3 0-.5.2-.7.6l-.2 2Zm5.3-.1a6 6 0 0 1-1.1 4 4 4 0 0 1-3.3 1.4 4 4 0 0 1-3.2-1.5c-.8-1-1.2-2.3-1.2-3.9 0-1.7.4-3 1.2-4a4 4 0 0 1 3.2-1.4 4 4 0 0 1 3.2 1.5 6 6 0 0 1 1.2 3.9ZM40.8 741H28.4v-3l4.2-4.3a52.6 52.6 0 0 0 3-3.7c.2-.3.3-.7.3-1 0-.5-.1-.8-.4-1.1-.3-.3-.7-.4-1.2-.4-.6 0-1.1.2-1.7.5l-1.8 1.3-2.6-3c.9-.7 1.6-1.3 2.2-1.6.6-.4 1.3-.6 2-.8.7-.2 1.5-.3 2.4-.3 1.1 0 2 .2 3 .6.8.4 1.5 1 2 1.7s.7 1.5.7 2.4a6.4 6.4 0 0 1-1 3.6l-1.4 1.7-3.7 3.5h6.4v3.9Zm6.8-3.5.1.3c-.7 3-1.4 5.1-2 6.5h-3.3a95 95 0 0 0 1.2-6.8h4Zm9.4-7.7c1 0 1.8.2 2.6.7.8.4 1.4 1 1.9 1.9.4.8.6 1.8.6 2.9 0 2-.5 3.4-1.7 4.4-1.1 1-2.9 1.5-5.2 1.5-2 0-3.7-.3-5-.9v-3.8a12.4 12.4 0 0 0 4.6 1c.9 0 1.5 0 2-.4.4-.4.7-1 .7-1.7 0-.6-.3-1.1-.7-1.5-.5-.4-1.2-.6-2.2-.6-.7 0-1.5.2-2.3.5l-1.7-.9.6-9H61v3.8h-5.8l-.3 2.3a9.5 9.5 0 0 1 2-.2Zm10.2-.8c0 1 0 1.6.2 2 .2.4.4.6.7.6.3 0 .5-.2.7-.6l.2-2a6 6 0 0 0-.3-2c0-.3-.3-.5-.6-.5s-.5.2-.7.6l-.2 2Zm5.3 0c0 1.7-.4 3-1.1 4a4 4 0 0 1-3.4 1.4 4 4 0 0 1-3.2-1.5c-.7-1-1.1-2.3-1.1-4 0-1.6.4-3 1.1-3.9a4 4 0 0 1 3.2-1.4 4 4 0 0 1 3.3 1.5 6 6 0 0 1 1.2 3.9Zm8.6-5.1L71.6 741H68l9.5-17.1H81Zm-.9 12c0 .8.1 1.5.3 1.9.1.4.3.6.6.6.4 0 .6-.2.7-.7l.2-1.9c0-.7 0-1.4-.2-1.8-.1-.5-.3-.7-.7-.7-.3 0-.5.2-.7.6l-.2 2Zm5.3-.1a6 6 0 0 1-1.1 4 4 4 0 0 1-3.3 1.4 4 4 0 0 1-3.2-1.5c-.8-1-1.2-2.3-1.2-3.9 0-1.7.4-3 1.2-4a4 4 0 0 1 3.2-1.4 4 4 0 0 1 3.2 1.5 6 6 0 0 1 1.2 3.9ZM40.3 798H28v-3l4.2-4.3a68 68 0 0 0 3-3.6c.2-.3.3-.7.3-1.1 0-.6-.2-1-.5-1.1a2 2 0 0 0-1.1-.4c-.6 0-1.1.2-1.7.5l-1.9 1.3-2.5-3 1.6-1.2a9 9 0 0 1 8-.8 4.2 4.2 0 0 1 2.7 4c0 1-.2 1.9-.6 2.7-.3.7-.9 1.5-1.6 2.3-.7.8-1.6 1.7-2.7 2.6l-1.3 1.2h6.5v3.9Zm2-2c0-.8.2-1.4.7-1.7a3 3 0 0 1 1.7-.5c.7 0 1.3.2 1.7.5.5.3.7 1 .7 1.8 0 .7-.2 1.3-.7 1.7-.4.3-1 .5-1.7.5a3 3 0 0 1-1.7-.5c-.5-.4-.8-1-.8-1.7Zm13.7-9.2a4.8 4.8 0 0 1 4.5 2.5c.4.8.6 1.8.6 3 0 1.3-.2 2.3-.7 3.2-.5 1-1.3 1.6-2.3 2-1 .5-2.4.7-4 .7-1 0-1.8 0-2.6-.2-.9-.1-1.6-.4-2.2-.7v-3.8l2.1.8 2.4.3c.6 0 1 0 1.4-.3.4-.1.7-.4 1-.7.2-.3.3-.7.3-1.2 0-.6-.3-1.1-.7-1.5-.5-.4-1.2-.6-2.2-.6-.4 0-.8 0-1.2.2-.5 0-.8.2-1.1.3l-1.7-.9.6-9H60v3.8h-5.8l-.3 2.3.8-.2H56Zm11-6.2a4 4 0 0 1 3.3 1.4c.8 1 1.2 2.3 1.2 4 0 1.7-.4 3-1.1 4-.8.9-2 1.4-3.4 1.4a4 4 0 0 1-3.1-1.5 6 6 0 0 1-1.2-4c0-1.6.4-3 1.1-3.9a4 4 0 0 1 3.2-1.4Zm0 2.9c-.2 0-.5.2-.6.7l-.2 1.8c0 .8 0 1.4.2 1.9.1.4.4.7.7.7.3 0 .6-.3.7-.7l.2-1.9c0-.8 0-1.4-.2-1.8-.1-.5-.4-.7-.7-.7Zm13-2.6L70.7 798H67l9.5-17.1H80Zm0 6.5a4 4 0 0 1 3.3 1.4c.8 1 1.2 2.3 1.2 4 0 1.7-.3 3-1.1 4s-1.9 1.4-3.3 1.4a4 4 0 0 1-3.2-1.4 6 6 0 0 1-1.2-4c0-1.7.4-3 1.1-4a4 4 0 0 1 3.3-1.4Zm.1 2.9c-.3 0-.5.2-.7.7l-.2 1.8.2 1.9c.2.5.4.7.7.7.4 0 .6-.2.7-.7l.2-1.9c0-.8 0-1.4-.2-1.8-.1-.5-.3-.7-.7-.7ZM40.3 855H28v-3l4.2-4.3a52.6 52.6 0 0 0 3-3.7c.2-.3.3-.7.3-1 0-.5-.1-.8-.4-1.1-.3-.3-.7-.4-1.2-.4-.6 0-1.1.2-1.7.5l-1.9 1.3-2.5-3c.9-.7 1.6-1.3 2.2-1.6.6-.4 1.3-.6 2-.8.7-.2 1.5-.3 2.4-.3 1 0 2 .2 3 .6.8.4 1.5 1 2 1.7s.7 1.5.7 2.4a6.4 6.4 0 0 1-1 3.6l-1.4 1.7-3.8 3.5h6.5v3.9Zm4.9-12c0 1 0 1.6.2 2 .2.4.4.6.7.6.3 0 .5-.2.6-.6.2-.4.3-1 .3-2a6 6 0 0 0-.3-2c0-.3-.3-.5-.6-.5s-.5.2-.7.6l-.2 2Zm5.3 0c0 1.7-.4 3-1.1 4a4 4 0 0 1-3.4 1.4 4 4 0 0 1-3.2-1.5c-.7-1-1.1-2.3-1.1-4 0-1.6.4-3 1.1-3.9a4 4 0 0 1 3.2-1.4 4 4 0 0 1 3.3 1.5 6 6 0 0 1 1.2 3.9Zm8.6-5.1L49.6 855H46l9.5-17.1H59Zm-.9 12c0 .8.1 1.5.3 1.9.1.4.3.6.6.6.4 0 .6-.2.7-.7l.2-1.9c0-.7 0-1.4-.2-1.8-.1-.5-.3-.7-.7-.7-.3 0-.5.2-.7.6l-.2 2Zm5.3-.1a6 6 0 0 1-1.1 4 4 4 0 0 1-3.3 1.4 4 4 0 0 1-3.2-1.5c-.8-1-1.2-2.3-1.2-3.9 0-1.7.4-3 1.2-4a4 4 0 0 1 3.2-1.4 4 4 0 0 1 3.2 1.5 6 6 0 0 1 1.2 3.9ZM38.2 912h-4.7v-9.3a91.5 91.5 0 0 1 0-2.8 7.8 7.8 0 0 1-1 1.1l-2 1.6-2.3-3L34 895h4.2V912Zm4-2c0-.8.3-1.4.8-1.7a3 3 0 0 1 1.7-.5c.7 0 1.3.2 1.7.5.5.3.7 1 .7 1.8 0 .7-.2 1.3-.7 1.7-.4.3-1 .5-1.7.5a3 3 0 0 1-1.7-.5c-.5-.4-.8-1-.8-1.7Zm13.8-9.2a4.8 4.8 0 0 1 4.5 2.5c.4.8.6 1.8.6 3 0 1.3-.2 2.3-.7 3.2-.5 1-1.3 1.6-2.3 2-1 .5-2.4.7-4 .7-1 0-1.8 0-2.6-.2-.9-.1-1.6-.4-2.2-.7v-3.8l2.1.8 2.4.3c.6 0 1 0 1.4-.3.4-.1.7-.4 1-.7.2-.3.3-.7.3-1.2 0-.6-.3-1.1-.7-1.5-.5-.4-1.2-.6-2.2-.6-.4 0-.8 0-1.2.2-.5 0-.8.2-1.1.3l-1.7-.9.6-9H60v3.8h-5.8l-.3 2.3.8-.2H56Zm11-6.2a4 4 0 0 1 3.3 1.4c.8 1 1.2 2.3 1.2 4 0 1.7-.4 3-1.1 4-.8.9-2 1.4-3.4 1.4a4 4 0 0 1-3.1-1.5 6 6 0 0 1-1.2-4c0-1.6.4-3 1.1-3.9a4 4 0 0 1 3.2-1.4Zm0 2.9c-.2 0-.5.2-.6.7l-.2 1.8c0 .8 0 1.4.2 1.9.1.4.4.7.7.7.3 0 .6-.3.7-.7l.2-1.9c0-.8 0-1.4-.2-1.8-.1-.5-.4-.7-.7-.7Zm13-2.6L70.7 912H67l9.5-17.1H80Zm0 6.5a4 4 0 0 1 3.3 1.4c.8 1 1.2 2.3 1.2 4 0 1.7-.3 3-1.1 4s-1.9 1.4-3.3 1.4a4 4 0 0 1-3.2-1.4 6 6 0 0 1-1.2-4c0-1.7.4-3 1.1-4a4 4 0 0 1 3.3-1.4Zm.1 2.9c-.3 0-.5.2-.7.7l-.2 1.8.2 1.9c.2.5.4.7.7.7.4 0 .6-.2.7-.7l.2-1.9c0-.8 0-1.4-.2-1.8-.1-.5-.3-.7-.7-.7Z"/></svg>