<svg xmlns="http://www.w3.org/2000/svg" fill="none" viewBox="0 0 1434 635"><path fill="#60BDD6" d="M251.5 304h-7.2v-28.2H235v-6h25.8v6h-9.3V304Zm38.2 0h-7.1v-15.3c0-3.8-1.4-5.7-4.2-5.7-2 0-3.5.7-4.4 2-.9 1.4-1.3 3.6-1.3 6.7V304h-7.2v-36.5h7.2v7.5l-.2 4-.1 2.1h.3c1.6-2.5 4.2-3.8 7.6-3.8 3.1 0 5.4.8 7 2.5 1.6 1.6 2.4 4 2.4 7.1V304Zm24 0-1.3-3.6h-.2a10.7 10.7 0 0 1-3.8 3.2c-1.2.6-2.9.9-5 .9a8 8 0 0 1-5.9-2.2c-1.4-1.4-2.1-3.5-2.1-6.1 0-2.8 1-4.9 2.9-6.2 2-1.3 4.9-2 8.8-2.2l4.5-.1v-1.2c0-2.6-1.3-4-4-4-2.1 0-4.6.7-7.4 2l-2.4-4.9a21 21 0 0 1 10-2.3c3.5 0 6.2.7 8.1 2.3 1.9 1.5 2.8 3.8 2.8 7V304h-5Zm-2-12.1h-2.8c-2.1.1-3.7.5-4.7 1.2s-1.5 1.7-1.5 3.1c0 2 1.2 3 3.5 3 1.6 0 3-.4 4-1.4a5 5 0 0 0 1.4-3.8v-2Zm38.6 12.1h-7.2v-15.3c0-1.9-.3-3.3-1-4.2-.6-1-1.7-1.5-3.2-1.5-2 0-3.4.7-4.3 2-.9 1.4-1.3 3.6-1.3 6.7V304H326v-26.2h5.5l1 3.3h.3a7.5 7.5 0 0 1 3.3-2.8c1.4-.7 3-1 4.8-1 3 0 5.4.8 7 2.5 1.5 1.6 2.3 4 2.3 7.1V304Zm14.2-14.3 3.1-4 7.4-7.9h8l-10.4 11.4 11 14.8h-8.2l-7.5-10.6-3 2.4v8.2h-7.2v-36.5h7.1v16.3l-.4 6h.1Zm41.2 6.5c0 2.7-1 4.8-2.8 6.2-1.9 1.4-4.7 2-8.4 2-1.9 0-3.5 0-4.9-.3a18 18 0 0 1-3.7-1.2V297a25 25 0 0 0 8.9 2.2c2.6 0 3.8-.7 3.8-2.2 0-.6-.1-1-.5-1.4a41.4 41.4 0 0 0-5.2-2.8c-2-.8-3.4-1.6-4.4-2.3-1-.7-1.6-1.5-2-2.4-.5-1-.7-2.1-.7-3.5 0-2.3 1-4.1 2.7-5.4a13 13 0 0 1 7.7-1.9c3.2 0 6.2.7 9.2 2l-2.1 5.2-3.7-1.4a14 14 0 0 0-3.5-.5c-2.1 0-3.2.6-3.2 1.7 0 .7.4 1.2 1 1.7.7.4 2.2 1.1 4.5 2 2 .9 3.6 1.7 4.5 2.4 1 .7 1.7 1.5 2.1 2.5.5 1 .7 2 .7 3.3Zm32.5-13H432V304h-7v-20.8h-4v-3.5l4-1.9v-2c0-3 .7-5 2.2-6.5 1.5-1.3 3.8-2 7-2 2.5 0 4.7.3 6.6 1l-1.8 5.3c-1.4-.4-2.8-.7-4-.7-1 0-1.7.4-2.2 1a4 4 0 0 0-.7 2.3v1.6h6.2v5.4Zm9.9 7.7c0 2.5.4 4.5 1.2 5.8.9 1.4 2.3 2 4.2 2 1.9 0 3.3-.6 4-2 1-1.3 1.4-3.2 1.4-5.8 0-2.6-.5-4.6-1.3-5.9-.9-1.3-2.2-2-4.2-2-1.9 0-3.2.7-4 2-1 1.3-1.3 3.2-1.3 5.9Zm18 0a14 14 0 0 1-3.3 10 12.2 12.2 0 0 1-9.4 3.6c-2.5 0-4.7-.6-6.7-1.7a11 11 0 0 1-4.4-4.7 16 16 0 0 1-1.5-7.2 14 14 0 0 1 3.3-10c2.3-2.4 5.4-3.6 9.4-3.6 2.6 0 4.8.6 6.7 1.6 2 1.1 3.4 2.7 4.4 4.8 1 2 1.6 4.4 1.6 7.2Zm20.6-13.6c1 0 1.8 0 2.4.2l-.5 6.7-2.1-.2c-2.3 0-4 .6-5.4 1.7a6.4 6.4 0 0 0-1.9 5V304h-7.1v-26.2h5.4l1 4.4h.4a10 10 0 0 1 3.3-3.5c1.4-1 2.9-1.4 4.5-1.4Zm15.9.5h7.8l5 14.7c.4 1.3.7 2.8.8 4.6h.2a18 18 0 0 1 1-4.6l4.8-14.7h7.7l-11 29.6a13.4 13.4 0 0 1-4.4 6 11 11 0 0 1-6.6 2.1 15 15 0 0 1-3.7-.4v-5.6c.9.2 1.8.3 2.8.3a5 5 0 0 0 3.4-1.2c1-.8 1.6-2 2.2-3.5l.4-1.3-10.4-26Zm36.8 13c0 2.6.4 4.6 1.2 6 .9 1.3 2.3 2 4.2 2 2 0 3.3-.7 4.1-2a11 11 0 0 0 1.3-6c0-2.5-.5-4.5-1.3-5.8-.8-1.3-2.2-2-4.1-2-2 0-3.3.7-4.2 2-.8 1.3-1.2 3.2-1.2 5.9Zm18 0a14 14 0 0 1-3.3 10 12.2 12.2 0 0 1-9.4 3.7 13 13 0 0 1-6.6-1.7 11 11 0 0 1-4.5-4.7 16 16 0 0 1-1.5-7.2 14 14 0 0 1 3.3-10c2.3-2.4 5.4-3.6 9.5-3.6 2.5 0 4.7.6 6.6 1.6 2 1.1 3.4 2.7 4.4 4.8 1 2 1.6 4.4 1.6 7.2ZM582 304l-1-3.4h-.4a7.6 7.6 0 0 1-3.2 2.9c-1.4.6-3 1-4.8 1-3.1 0-5.4-.9-7-2.5-1.6-1.6-2.4-4-2.4-7.1v-17.1h7.2v15.3c0 1.9.3 3.3 1 4.3s1.7 1.4 3.2 1.4c2 0 3.5-.7 4.4-2 .8-1.4 1.3-3.6 1.3-6.7v-12.3h7.1V304H582Zm27.6-26.7c1 0 1.7 0 2.4.2l-.6 6.7-2-.2a8 8 0 0 0-5.4 1.7 6.4 6.4 0 0 0-2 5V304h-7v-26.2h5.4l1 4.4h.4a9.8 9.8 0 0 1 3.2-3.5c1.4-1 3-1.4 4.6-1.4Zm19.3-6.3c0-2.3 1.3-3.5 3.9-3.5 2.6 0 3.9 1.2 3.9 3.5 0 1.1-.3 2-1 2.6-.6.6-1.6 1-3 1-2.5 0-3.8-1.2-3.8-3.6Zm7.5 33h-7.2v-26.2h7.2V304Zm31.7 0h-7.2v-15.3c0-1.9-.3-3.3-1-4.2-.7-1-1.7-1.5-3.2-1.5-2 0-3.5.7-4.3 2-1 1.4-1.4 3.6-1.4 6.7V304h-7v-26.2h5.4l1 3.3h.4a7.5 7.5 0 0 1 3.3-2.8c1.4-.7 3-1 4.8-1 3 0 5.3.8 6.9 2.5 1.6 1.6 2.4 4 2.4 7.1V304Zm18.4-5.2c1.2 0 2.7-.3 4.5-.8v5.3a16 16 0 0 1-6.6 1.2c-2.9 0-5-.8-6.3-2.2-1.3-1.4-1.9-3.6-1.9-6.5v-12.6h-3.4v-3l4-2.4 2-5.6h4.5v5.6h7.4v5.4h-7.4v12.6c0 1 .3 1.8.9 2.2.6.5 1.3.8 2.3.8Zm20.6-16.4c-1.5 0-2.7.5-3.5 1.4-.9 1-1.4 2.4-1.5 4.1h10a6 6 0 0 0-1.4-4c-.8-1-2-1.5-3.6-1.5Zm1 22c-4.2 0-7.5-1-9.9-3.4a13.7 13.7 0 0 1-3.5-10c0-4.3 1-7.7 3.3-10 2.2-2.5 5.2-3.7 9-3.7s6.7 1 8.7 3.2c2.1 2 3.1 5 3.1 8.7v3.5H702a7 7 0 0 0 1.8 4.7 6.4 6.4 0 0 0 4.8 1.7 19.7 19.7 0 0 0 8.9-2v5.5a19 19 0 0 1-9.3 1.9Zm31.2-27 2.4.1-.6 6.7-2-.2a8 8 0 0 0-5.4 1.7 6.4 6.4 0 0 0-2 5V304h-7v-26.2h5.4l1 4.4h.4a9.8 9.8 0 0 1 3.2-3.5c1.4-1 3-1.4 4.6-1.4Zm18 5c-1.5 0-2.7.5-3.6 1.4a8 8 0 0 0-1.5 4.1h10a6 6 0 0 0-1.3-4c-.9-1-2.1-1.5-3.6-1.5Zm1 22c-4.2 0-7.5-1-9.9-3.4-2.4-2.4-3.6-5.6-3.6-10 0-4.3 1.1-7.7 3.3-10 2.2-2.5 5.3-3.7 9.1-3.7 3.7 0 6.6 1 8.7 3.2 2 2 3 5 3 8.7v3.5h-16.8c0 2 .7 3.6 1.8 4.7a6.4 6.4 0 0 0 4.7 1.7 19.7 19.7 0 0 0 9-2v5.5a19.8 19.8 0 0 1-9.3 1.9Zm34.8-8.2c0 2.7-1 4.8-2.8 6.2-1.9 1.4-4.7 2-8.4 2-2 0-3.5 0-4.9-.3a18 18 0 0 1-3.8-1.2V297a25 25 0 0 0 9 2.2c2.5 0 3.8-.7 3.8-2.2 0-.6-.1-1-.5-1.4a41.4 41.4 0 0 0-5.2-2.8c-2-.8-3.4-1.6-4.4-2.3-1-.7-1.6-1.5-2-2.4-.5-1-.7-2.1-.7-3.5 0-2.3.9-4.1 2.7-5.4a13 13 0 0 1 7.7-1.9c3.1 0 6.2.7 9.2 2l-2.2 5.2-3.6-1.4a14 14 0 0 0-3.5-.5c-2.1 0-3.2.6-3.2 1.7 0 .7.3 1.2 1 1.7.7.4 2.2 1.1 4.5 2 2 .9 3.5 1.7 4.5 2.4s1.6 1.5 2.1 2.5.7 2 .7 3.3Zm16.6 2.6c1.2 0 2.7-.3 4.5-.8v5.3a16 16 0 0 1-6.6 1.2c-2.8 0-5-.8-6.2-2.2-1.3-1.4-2-3.6-2-6.5v-12.6H796v-3l4-2.4 2-5.6h4.6v5.6h7.3v5.4h-7.3v12.6c0 1 .3 1.8.8 2.2.6.5 1.4.8 2.3.8Zm22-27.8c0-2.3 1.3-3.5 3.9-3.5 2.6 0 3.9 1.2 3.9 3.5 0 1.1-.4 2-1 2.6-.7.6-1.6 1-3 1-2.5 0-3.8-1.2-3.8-3.6Zm7.4 33H832v-26.2h7.1V304Zm31.7 0h-7.1v-15.3c0-1.9-.3-3.3-1-4.2-.7-1-1.8-1.5-3.2-1.5-2 0-3.5.7-4.4 2-.9 1.4-1.3 3.6-1.3 6.7V304h-7.1v-26.2h5.4l1 3.3h.4a7.5 7.5 0 0 1 3.3-2.8c1.4-.7 3-1 4.7-1 3 0 5.4.8 7 2.5 1.6 1.6 2.3 4 2.3 7.1V304Zm27.6 0h-7.2v-34.3H911v6h-12.5v8.8H910v6h-11.6V304Zm18.3-33c0-2.3 1.3-3.5 3.9-3.5 2.6 0 3.9 1.2 3.9 3.5 0 1.1-.3 2-1 2.6a4 4 0 0 1-2.9 1c-2.6 0-3.9-1.2-3.9-3.6Zm7.5 33H917v-26.2h7.2V304Zm14.6 0h-7.1v-36.5h7.1V304Zm18.4-21.6c-1.5 0-2.7.5-3.6 1.4-.8 1-1.3 2.4-1.4 4.1h10a6 6 0 0 0-1.4-4c-.9-1-2-1.5-3.6-1.5Zm1 22c-4.2 0-7.5-1-9.9-3.4a13.7 13.7 0 0 1-3.5-10c0-4.3 1-7.7 3.2-10 2.3-2.5 5.3-3.7 9.2-3.7 3.7 0 6.5 1 8.6 3.2 2 2 3.1 5 3.1 8.7v3.5H952c0 2 .7 3.6 1.8 4.7a6.4 6.4 0 0 0 4.7 1.7 19.7 19.7 0 0 0 9-2v5.5a21.2 21.2 0 0 1-9.3 1.9Zm37.3-10a9 9 0 0 1-3.3 7.4 14.5 14.5 0 0 1-9.3 2.7c-3.7 0-7-.7-9.7-2v-6.8c2.3 1 4.2 1.7 5.8 2.1 1.6.5 3.1.7 4.4.7 1.6 0 2.9-.3 3.7-1 .9-.6 1.3-1.5 1.3-2.7a3 3 0 0 0-.6-1.7c-.4-.6-1-1-1.6-1.6a41 41 0 0 0-4.5-2.3c-2-1-3.6-2-4.7-2.8-1-1-1.9-2-2.5-3.2a9 9 0 0 1-1-4.2c0-3 1-5.4 3.1-7.2 2.1-1.7 5-2.6 8.6-2.6a26 26 0 0 1 10.1 2.5l-2.3 5.6a34 34 0 0 0-4.5-1.6c-1.2-.3-2.4-.4-3.6-.4-1.3 0-2.4.3-3.1 1-.8.6-1.1 1.4-1.1 2.5 0 .6.1 1.2.4 1.6.3.5.8 1 1.4 1.4a33 33 0 0 0 4.6 2.4c3.2 1.6 5.4 3 6.6 4.6a9 9 0 0 1 1.8 5.7Zm16.3 10c-8.2 0-12.2-4.4-12.2-13.4 0-4.4 1-7.8 3.3-10.2 2.2-2.3 5.4-3.5 9.5-3.5 3 0 5.8.6 8.2 1.8l-2.1 5.5a23.3 23.3 0 0 0-6.1-1.5c-3.7 0-5.5 2.6-5.5 7.9 0 5.1 1.8 7.7 5.5 7.7a13 13 0 0 0 3.9-.6c1.1-.3 2.3-1 3.5-1.7v6.1a9.5 9.5 0 0 1-3.5 1.5c-1.2.3-2.7.5-4.5.5Zm13.8-33.4c0-2.3 1.3-3.5 3.9-3.5 2.5 0 3.8 1.2 3.8 3.5 0 1.1-.3 2-1 2.6a4 4 0 0 1-2.8 1c-2.7 0-4-1.2-4-3.6Zm7.4 33h-7.1v-26.2h7.1V304Zm18.4-21.6c-1.5 0-2.7.5-3.6 1.4a8 8 0 0 0-1.5 4.1h10a6 6 0 0 0-1.3-4c-.9-1-2.1-1.5-3.6-1.5Zm1 22c-4.2 0-7.5-1-9.9-3.4-2.4-2.4-3.6-5.6-3.6-10 0-4.3 1.1-7.7 3.3-10 2.2-2.5 5.3-3.7 9.1-3.7 3.7 0 6.6 1 8.7 3.2 2 2 3 5 3 8.7v3.5h-16.8a7 7 0 0 0 1.8 4.7 6.4 6.4 0 0 0 4.7 1.7 19.7 19.7 0 0 0 8.9-2v5.5a19 19 0 0 1-9.2 1.9Zm40.7-.4h-7.2v-15.3c0-1.9-.3-3.3-1-4.2-.7-1-1.7-1.5-3.2-1.5-2 0-3.4.7-4.3 2-1 1.4-1.4 3.6-1.4 6.7V304h-7.1v-26.2h5.4l1 3.3h.4a7.5 7.5 0 0 1 3.3-2.8c1.4-.7 3-1 4.8-1 3 0 5.3.8 7 2.5 1.5 1.6 2.3 4 2.3 7.1V304Zm18 .5c-8.2 0-12.3-4.5-12.3-13.5 0-4.4 1.2-7.8 3.4-10.2 2.2-2.3 5.4-3.5 9.5-3.5 3 0 5.8.6 8.2 1.8l-2.1 5.5c-1.2-.4-2.2-.8-3.2-1-1-.4-2-.5-2.9-.5-3.7 0-5.6 2.6-5.6 7.9 0 5.1 1.9 7.7 5.6 7.7a13 13 0 0 0 7.3-2.3v6.1a8.3 8.3 0 0 1-3.5 1.5c-1.1.3-2.6.5-4.4.5Zm24.9-22.1c-1.5 0-2.7.5-3.6 1.4a8 8 0 0 0-1.5 4.1h10a6 6 0 0 0-1.3-4c-.9-1-2-1.5-3.6-1.5Zm1 22c-4.2 0-7.5-1-9.9-3.4-2.4-2.4-3.5-5.6-3.5-10 0-4.3 1-7.7 3.2-10 2.2-2.5 5.3-3.7 9.2-3.7 3.7 0 6.5 1 8.6 3.2 2 2 3 5 3 8.7v3.5h-16.8a7 7 0 0 0 1.8 4.7 6.4 6.4 0 0 0 4.7 1.7 19.6 19.6 0 0 0 9-2v5.5a19.8 19.8 0 0 1-9.3 1.9Z"/><path fill="#333" d="m286.1 343.7 4-7.8h3.1l-5.7 10.5v6.6h-2.8v-6.6L279 336h3l4.1 7.8Zm20.6 2.8a7 7 0 0 1-1.7 5 5.8 5.8 0 0 1-4.5 1.7c-1.2 0-2.3-.2-3.2-.8a5 5 0 0 1-2.2-2.3 8 8 0 0 1-.7-3.6 7 7 0 0 1 1.6-5c1-1.1 2.6-1.7 4.6-1.7 1.8 0 3.3.6 4.4 1.8a7 7 0 0 1 1.7 4.9Zm-9.5 0c0 3 1.1 4.5 3.4 4.5 2.1 0 3.2-1.5 3.2-4.5s-1-4.4-3.3-4.4c-1.1 0-2 .3-2.5 1.1s-.8 1.9-.8 3.3ZM319 353l-.4-1.7h-.1c-.4.6-1 1-1.7 1.4-.7.4-1.5.5-2.4.5a5 5 0 0 1-3.5-1.1c-.8-.8-1.2-2-1.2-3.6V340h2.8v8c0 1 .2 1.8.6 2.3.4.5 1 .7 2 .7s2-.3 2.5-1 .8-1.9.8-3.5V340h2.8v13H319Zm12.7-13.2 1.3.1-.2 2.6-1.3-.2c-1 0-2 .4-2.6 1.1a4 4 0 0 0-1 2.8v6.8H325v-13h2.1l.4 2.3h.1c.5-.7 1-1.4 1.7-1.8a4 4 0 0 1 2.3-.7Zm16.5 0 1.4.1-.3 2.6-1.2-.2c-1 0-2 .4-2.7 1.1a4 4 0 0 0-1 2.8v6.8h-2.7v-13h2.1l.4 2.3h.1c.5-.7 1-1.4 1.7-1.8a4 4 0 0 1 2.2-.7Zm9.5 13.4c-2 0-3.6-.6-4.7-1.7a6.7 6.7 0 0 1-1.7-4.9c0-2.1.5-3.8 1.5-5 1-1.2 2.5-1.8 4.4-1.8a5 5 0 0 1 4 1.6 6 6 0 0 1 1.5 4.3v1.4h-8.6c0 1.3.4 2.3 1 3a4 4 0 0 0 2.7 1 10.2 10.2 0 0 0 4.3-1v2.3l-2 .6c-.7.2-1.5.2-2.4.2Zm-.5-11.3c-.9 0-1.6.3-2.1.8a4 4 0 0 0-1 2.4h6c0-1-.4-1.8-.9-2.4-.4-.5-1.1-.8-2-.8ZM371 351c1.1 0 2-.3 2.5-1 .5-.6.7-1.6.7-3v-.4c0-1.6-.2-2.8-.7-3.5-.6-.7-1.4-1-2.6-1-1 0-1.7.3-2.2 1.1-.5.8-.8 2-.8 3.4 0 3 1 4.4 3 4.4Zm-.8 2.2c-1.6 0-2.8-.6-3.8-1.7a8 8 0 0 1-1.3-5c0-2 .4-3.7 1.4-4.9a4.5 4.5 0 0 1 3.8-1.8 4.5 4.5 0 0 1 4 2l.3-1.8h2.3v18.8H374v-5.5a13.5 13.5 0 0 1 .1-2h-.1c-.8 1.3-2.1 2-3.9 2Zm19.8-.2-.4-1.7h-.2c-.4.6-.9 1-1.6 1.4-.7.4-1.5.5-2.4.5-1.6 0-2.8-.4-3.5-1.1-.8-.8-1.2-2-1.2-3.6V340h2.8v8c0 1 .2 1.8.6 2.3.4.5 1 .7 1.9.7 1.1 0 2-.3 2.5-1 .6-.7.9-1.9.9-3.5V340h2.7v13H390Zm11.7.2c-2 0-3.6-.6-4.7-1.7a6.7 6.7 0 0 1-1.7-4.9c0-2.1.5-3.8 1.6-5 1-1.2 2.5-1.8 4.3-1.8a5 5 0 0 1 4 1.6 6 6 0 0 1 1.5 4.3v1.4h-8.6c0 1.3.4 2.3 1 3a4 4 0 0 0 2.7 1 10.2 10.2 0 0 0 4.3-1v2.3l-2 .6c-.7.2-1.5.2-2.4.2Zm-.5-11.3c-.9 0-1.6.3-2.1.8a4 4 0 0 0-1 2.4h6c0-1-.3-1.8-.8-2.4-.5-.5-1.2-.8-2.1-.8Zm17.4 7.4c0 1.3-.5 2.2-1.4 3-1 .6-2.2 1-4 1-1.7 0-3-.3-4.1-.9v-2.3c1.5.7 3 1 4.2 1 1.7 0 2.6-.5 2.6-1.5 0-.3-.1-.6-.3-.8-.2-.2-.5-.5-1-.7l-1.7-.8a8.4 8.4 0 0 1-3-1.7c-.6-.6-.8-1.4-.8-2.3 0-1.1.4-2 1.3-2.6.9-.6 2.1-.9 3.6-.9 1.6 0 3 .3 4.4 1l-1 2a9.6 9.6 0 0 0-3.4-.9c-1.5 0-2.2.5-2.2 1.3 0 .4.2.7.5 1 .4.3 1.2.7 2.5 1.2l2.4 1.1c.4.4.8.8 1 1.2.3.4.4 1 .4 1.6Zm7.8 1.7a7 7 0 0 0 2-.3v2l-1.2.4-1.5.1c-2.6 0-3.9-1.3-3.9-4v-7h-1.7v-1.3l1.9-1 .9-2.7h1.7v2.8h3.7v2.1h-3.7v7c0 .6.2 1.1.5 1.4.3.4.8.5 1.3.5Zm22.3 2h-2.8v-8c0-1-.2-1.7-.6-2.2-.4-.5-1-.7-2-.7s-2 .3-2.5 1-.8 1.8-.8 3.5v6.4h-2.8v-18.2h2.8v4.6l-.1 2.4h.1c.4-.7 1-1.1 1.6-1.5a5 5 0 0 1 2.3-.5c3.2 0 4.8 1.6 4.8 4.8v8.4Zm11.9 0-.6-1.8c-.7.8-1.3 1.3-2 1.6a6 6 0 0 1-2.4.4c-1.2 0-2.2-.3-3-1-.7-.7-1-1.7-1-3s.5-2.3 1.5-3c1-.6 2.5-1 4.5-1l2.2-.1v-.7c0-.8-.2-1.5-.6-1.9-.3-.4-1-.6-1.7-.6s-1.3.1-2 .3l-1.7.7-1-2 2.4-.8 2.4-.3c1.6 0 2.9.4 3.7 1 .8.8 1.3 2 1.3 3.5v8.7h-2Zm-4.1-1.9c1 0 1.8-.3 2.4-.8a3 3 0 0 0 1-2.4v-1H458a5 5 0 0 0-2.8.6 2 2 0 0 0-.9 1.8c0 .6.2 1 .5 1.4.4.3 1 .4 1.6.4Zm18.6-1.8c0 1.3-.4 2.2-1.4 3-.9.6-2.2 1-4 1-1.7 0-3-.3-4-.9v-2.3c1.4.7 2.9 1 4.2 1 1.7 0 2.5-.5 2.5-1.5 0-.3 0-.6-.3-.8l-.9-.7-1.8-.8a8.4 8.4 0 0 1-3-1.7c-.6-.6-.8-1.4-.8-2.3 0-1.1.4-2 1.3-2.6 1-.6 2.1-.9 3.7-.9a9 9 0 0 1 4.3 1l-.9 2a9.6 9.6 0 0 0-3.5-.9c-1.5 0-2.2.5-2.2 1.3 0 .4.2.7.6 1 .4.3 1.2.7 2.5 1.2l2.3 1.1a3.4 3.4 0 0 1 1.4 2.8Zm15.9-9.5c1.6 0 2.8.6 3.7 1.8 1 1.1 1.4 2.8 1.4 4.9a8 8 0 0 1-1.4 5 4.5 4.5 0 0 1-3.8 1.7c-1.6 0-2.9-.6-3.8-1.7h-.2l-.5 1.5h-2v-18.2h2.7v4.3a32 32 0 0 1-.1 2.6c1-1.3 2.3-1.9 4-1.9Zm-.8 2.3c-1 0-1.9.3-2.4 1a6 6 0 0 0-.7 3.2v.2c0 1.6.2 2.7.7 3.4.5.7 1.4 1 2.5 1 1 0 1.7-.3 2.2-1 .5-.8.8-2 .8-3.4 0-3-1-4.4-3-4.4Zm14.7 11.1c-2 0-3.5-.6-4.7-1.7a6.7 6.7 0 0 1-1.7-4.9c0-2.1.5-3.8 1.6-5 1-1.2 2.5-1.8 4.3-1.8 1.8 0 3.1.5 4.1 1.6a6 6 0 0 1 1.5 4.3v1.4h-8.6c0 1.3.3 2.3 1 3 .6.6 1.5 1 2.7 1a10.2 10.2 0 0 0 4.2-1v2.3a12.5 12.5 0 0 1-4.4.9Zm-.5-11.3c-.8 0-1.5.3-2 .8a4 4 0 0 0-1 2.4h5.9c0-1-.3-1.8-.8-2.4-.5-.5-1.2-.8-2-.8Zm14.4 11.3c-2 0-3.6-.6-4.8-1.7a6.7 6.7 0 0 1-1.7-4.9c0-2.1.6-3.8 1.6-5 1-1.2 2.5-1.8 4.4-1.8a5 5 0 0 1 4 1.6 6 6 0 0 1 1.5 4.3v1.4h-8.6c0 1.3.4 2.3 1 3 .6.6 1.5 1 2.7 1a10.2 10.2 0 0 0 4.3-1v2.3l-2 .6c-.8.2-1.5.2-2.4.2Zm-.5-11.3c-.9 0-1.6.3-2.1.8a4 4 0 0 0-1 2.4h6c-.1-1-.4-1.8-.9-2.4-.5-.5-1.2-.8-2-.8Zm20 11.1h-2.7v-8c0-1-.2-1.7-.6-2.2-.4-.5-1-.7-2-.7-1.1 0-2 .3-2.5 1s-.8 1.8-.8 3.4v6.5h-2.8v-13h2.2l.4 1.7h.1c.4-.6 1-1 1.7-1.4a6 6 0 0 1 2.4-.5c3 0 4.6 1.6 4.6 4.8v8.4Zm16.7-13.2 1.4.1-.3 2.6-1.2-.2c-1.1 0-2 .4-2.7 1.1a4 4 0 0 0-1 2.8v6.8h-2.8v-13h2.2l.3 2.3h.2c.4-.7 1-1.4 1.6-1.8a4 4 0 0 1 2.3-.7Zm9.4 13.4c-2 0-3.6-.6-4.7-1.7a6.7 6.7 0 0 1-1.7-4.9c0-2.1.5-3.8 1.6-5 1-1.2 2.5-1.8 4.3-1.8a5 5 0 0 1 4 1.6 6 6 0 0 1 1.6 4.3v1.4h-8.7c0 1.3.4 2.3 1 3 .7.6 1.6 1 2.8 1a10.2 10.2 0 0 0 4.2-1v2.3a12.5 12.5 0 0 1-4.4.9ZM564 342c-.8 0-1.5.3-2 .8a4 4 0 0 0-1 2.4h5.9c0-1-.3-1.8-.8-2.4-.5-.5-1.2-.8-2-.8Zm14 11.3c-2 0-3.5-.5-4.5-1.7a7.3 7.3 0 0 1-1.6-5c0-2 .6-3.8 1.6-5 1-1.1 2.6-1.7 4.7-1.7 1.3 0 2.5.3 3.6.8l-.8 2.2a8.3 8.3 0 0 0-2.9-.7c-2.2 0-3.3 1.5-3.3 4.5 0 1.4.2 2.5.8 3.2.6.8 1.4 1.1 2.5 1.1a7 7 0 0 0 3.4-.9v2.4l-1.5.6c-.6.2-1.3.2-2 .2Zm12.2 0c-2 0-3.5-.6-4.7-1.7a6.7 6.7 0 0 1-1.7-4.9c0-2.1.5-3.8 1.6-5 1-1.2 2.5-1.8 4.3-1.8 1.8 0 3.1.5 4.1 1.6a6 6 0 0 1 1.5 4.3v1.4h-8.7c0 1.3.4 2.3 1 3 .7.6 1.6 1 2.8 1a10.2 10.2 0 0 0 4.2-1v2.3a12.5 12.5 0 0 1-4.4.9Zm-.5-11.3c-.8 0-1.5.3-2 .8a4 4 0 0 0-1 2.4h5.9c0-1-.3-1.8-.8-2.4-.5-.5-1.2-.8-2-.8Zm11.5 11.1h-2.8v-13h2.8v13Zm-3-16.4c0-.5.2-.9.4-1.1.3-.3.7-.4 1.2-.4s.9.1 1.1.4c.3.2.4.6.4 1.1 0 .5-.1.8-.4 1.1-.2.3-.6.4-1 .4-.6 0-1-.1-1.3-.4-.2-.3-.4-.6-.4-1ZM608 353l-5-13h3l2.6 7.6.8 3h.1c0-.5.3-1.5.8-3l2.7-7.6h2.9l-5 13h-3Zm15.5.2c-2 0-3.6-.6-4.7-1.7a6.7 6.7 0 0 1-1.7-4.9c0-2.1.5-3.8 1.6-5 1-1.2 2.5-1.8 4.3-1.8a5 5 0 0 1 4 1.6 6 6 0 0 1 1.6 4.3v1.4h-8.7c0 1.3.4 2.3 1 3a4 4 0 0 0 2.7 1 10.2 10.2 0 0 0 4.3-1v2.3a12.5 12.5 0 0 1-4.4.9ZM623 342c-.9 0-1.6.3-2 .8a4 4 0 0 0-1 2.4h5.9c0-1-.3-1.8-.8-2.4-.5-.5-1.2-.8-2-.8Zm13 11.3c-1.6 0-2.8-.6-3.7-1.7a7.9 7.9 0 0 1-1.4-5 8 8 0 0 1 1.4-5c1-1.1 2.2-1.7 3.8-1.7 1.7 0 3 .6 3.9 1.9h.1l-.2-2.2v-4.7h2.8V353h-2.2l-.4-1.7h-.2c-.8 1.3-2.1 2-3.8 2Zm.8-2.2c1.1 0 2-.3 2.5-1 .5-.6.8-1.6.8-3v-.4c0-1.7-.3-2.8-.8-3.5-.6-.7-1.4-1-2.5-1-1 0-1.7.3-2.3 1.1a6 6 0 0 0-.8 3.4 6 6 0 0 0 .8 3.3c.5.7 1.3 1.1 2.3 1.1Zm12.7-.5c-.4 1.4-1 3.3-2 5.6h-2c.4-2.1.9-4 1.1-5.9h2.7l.2.3Zm20.4 2.5-1.6-6c-.3-.7-.6-2.2-1.2-4.5L666 347l-1.8 6h-3l-3.6-13h2.8l1.6 6.4.8 4h.1a27.5 27.5 0 0 1 .8-3.5l2-6.9h3l1.9 6.9a23.7 23.7 0 0 1 .7 3.6h.1l.8-4 1.7-6.5h2.8l-3.7 13h-3Zm14.7.2c-2 0-3.6-.6-4.8-1.7a6.7 6.7 0 0 1-1.7-4.9c0-2.1.6-3.8 1.6-5 1-1.2 2.5-1.8 4.4-1.8a5 5 0 0 1 4 1.6 6 6 0 0 1 1.5 4.3v1.4H681c0 1.3.4 2.3 1 3 .6.6 1.5 1 2.7 1a10.2 10.2 0 0 0 4.3-1v2.3l-2 .6c-.8.2-1.5.2-2.4.2ZM684 342c-.9 0-1.6.3-2.1.8a4 4 0 0 0-1 2.4h6c-.1-1-.4-1.8-.9-2.4-.5-.5-1.2-.8-2-.8Zm25.5 11.1-1.7-6a74 74 0 0 1-1-4.5h-.2l-1 4.5-1.8 6h-3l-3.7-13h2.9l1.6 6.4.8 4a27.6 27.6 0 0 1 .8-3.5l2-6.9h3l2 6.9a24.2 24.2 0 0 1 .7 3.6l1-4 1.6-6.5h2.8l-3.7 13h-3.1Zm11.7 0h-2.7v-13h2.7v13Zm-2.9-16.4c0-.5.2-.9.4-1.1.3-.3.7-.4 1.2-.4s.8.1 1.1.4c.3.2.4.6.4 1.1 0 .5-.1.8-.4 1.1-.3.3-.6.4-1.1.4-.5 0-.9-.1-1.2-.4-.2-.3-.4-.6-.4-1Zm9.7 16.4h-2.8v-18.2h2.8V353Zm6.7 0H732v-18.2h2.8V353Zm16.8-13.2c1.6 0 2.8.6 3.7 1.8 1 1.1 1.4 2.8 1.4 4.9a8 8 0 0 1-1.4 5 4.5 4.5 0 0 1-3.8 1.7c-1.6 0-2.9-.6-3.8-1.7h-.2l-.5 1.5h-2v-18.2h2.7v4.3a31.7 31.7 0 0 1-.1 2.6c1-1.3 2.3-1.9 4-1.9Zm-.8 2.3c-1 0-1.9.3-2.4 1a6 6 0 0 0-.7 3.2v.2c0 1.6.2 2.7.7 3.4.5.7 1.4 1 2.5 1 1 0 1.7-.3 2.2-1 .5-.8.8-2 .8-3.4 0-3-1-4.4-3-4.4ZM768 353l-.6-1.8c-.7.8-1.3 1.3-2 1.6a6 6 0 0 1-2.4.4c-1.2 0-2.2-.3-3-1-.7-.7-1-1.7-1-3s.5-2.3 1.5-3c1-.6 2.5-1 4.5-1l2.2-.1v-.7c0-.8-.2-1.5-.5-1.9-.4-.4-1-.6-1.8-.6a7 7 0 0 0-2 .3l-1.7.7-.9-2 2.3-.8 2.4-.3c1.6 0 2.9.4 3.7 1 .8.8 1.3 2 1.3 3.5v8.7h-2Zm-4.1-1.9c1 0 1.8-.3 2.4-.8a3 3 0 0 0 1-2.4v-1h-1.7c-1.3 0-2.3.2-2.9.6a2 2 0 0 0-.9 1.8c0 .6.2 1 .6 1.4.3.3.8.4 1.5.4Zm15.1 2.1c-2 0-3.4-.5-4.4-1.7a7.3 7.3 0 0 1-1.6-5c0-2 .6-3.8 1.6-5a6.3 6.3 0 0 1 4.7-1.7 9 9 0 0 1 3.7.8l-.9 2.2a8.3 8.3 0 0 0-2.9-.7c-2.2 0-3.3 1.5-3.3 4.5 0 1.4.3 2.5.8 3.2.6.8 1.4 1.1 2.5 1.1a7 7 0 0 0 3.4-.9v2.4a4 4 0 0 1-1.5.6c-.6.2-1.3.2-2 .2Zm9.4-7 1.5-2 4-4.2h3.1l-5.2 5.6 5.5 7.4h-3.2l-4.2-5.7-1.5 1.3v4.4h-2.7v-18.2h2.7v8.9l-.1 2.5Zm22 4.8c.8 0 1.4-.1 2.1-.3v2l-1.2.4-1.5.1c-2.6 0-3.9-1.3-3.9-4v-7h-1.7v-1.3l1.9-1 .9-2.7h1.7v2.8h3.7v2.1h-3.7v7c0 .6.2 1.1.5 1.4.3.4.8.5 1.3.5Zm16.2-4.5a7 7 0 0 1-1.6 5 5.8 5.8 0 0 1-4.6 1.7c-1.2 0-2.2-.2-3.2-.8a5.2 5.2 0 0 1-2.1-2.3 8 8 0 0 1-.8-3.6 7 7 0 0 1 1.7-5c1-1.1 2.6-1.7 4.5-1.7s3.4.6 4.5 1.8a7 7 0 0 1 1.6 4.9Zm-9.4 0c0 3 1 4.5 3.3 4.5 2.2 0 3.3-1.5 3.3-4.5s-1.1-4.4-3.3-4.4c-1.2 0-2 .3-2.6 1.1-.5.8-.7 1.9-.7 3.3ZM834 340h3l2.7 7.4c.4 1 .6 2 .8 3l.5-1.6c.1-.6 1.1-3.6 3-8.8h3l-5.6 14.7c-1 2.7-2.7 4-5 4a8 8 0 0 1-1.8-.1v-2.2l1.4.1c1.3 0 2.2-.7 2.8-2.3l.5-1.2-5.3-13Zm26.4 6.5a7 7 0 0 1-1.6 5 5.8 5.8 0 0 1-4.6 1.7c-1.2 0-2.3-.2-3.2-.8-1-.5-1.6-1.3-2.1-2.3a8 8 0 0 1-.8-3.6 7 7 0 0 1 1.6-5 6.2 6.2 0 0 1 4.6-1.7c1.9 0 3.3.6 4.4 1.8a7 7 0 0 1 1.7 4.9Zm-9.5 0c0 3 1.2 4.5 3.4 4.5 2.1 0 3.2-1.5 3.2-4.5s-1-4.4-3.3-4.4c-1.1 0-2 .3-2.5 1.1s-.8 1.9-.8 3.3Zm21.8 6.5-.4-1.7h-.1c-.4.6-1 1-1.7 1.4-.7.4-1.5.5-2.4.5a5 5 0 0 1-3.5-1.1c-.8-.8-1.2-2-1.2-3.6V340h2.8v8c0 1 .2 1.8.6 2.3.4.5 1 .7 2 .7s2-.3 2.5-1 .8-1.9.8-3.5V340h2.8v13h-2.2Zm20.4 0-.5-1.8h-.1c-.6.8-1.3 1.3-1.9 1.6a6 6 0 0 1-2.4.4c-1.3 0-2.3-.3-3-1-.7-.7-1-1.7-1-3s.4-2.3 1.4-3c1-.6 2.5-1 4.5-1l2.3-.1v-.7c0-.8-.2-1.5-.6-1.9-.4-.4-1-.6-1.8-.6a7 7 0 0 0-2 .3l-1.7.7-.9-2 2.3-.8 2.4-.3a6 6 0 0 1 3.7 1c.9.8 1.3 2 1.3 3.5v8.7h-2Zm-4-1.9c1 0 1.7-.3 2.3-.8a3 3 0 0 0 1-2.4v-1h-1.7c-1.3 0-2.3.2-2.9.6-.5.4-.8 1-.8 1.8 0 .6.1 1 .5 1.4.3.3.8.4 1.5.4Zm18.6-1.8c0 1.3-.5 2.2-1.4 3-1 .6-2.3 1-4 1-1.7 0-3.1-.3-4.2-.9v-2.3c1.6.7 3 1 4.3 1 1.7 0 2.5-.5 2.5-1.5 0-.3 0-.6-.2-.8-.2-.2-.5-.5-1-.7l-1.8-.8a8.4 8.4 0 0 1-3-1.7c-.5-.6-.8-1.4-.8-2.3 0-1.1.5-2 1.4-2.6.9-.6 2-.9 3.6-.9a9 9 0 0 1 4.3 1l-.8 2a9.6 9.6 0 0 0-3.6-.9c-1.4 0-2.2.5-2.2 1.3 0 .4.2.7.6 1 .4.3 1.2.7 2.5 1.2l2.3 1.1c.5.4.9.8 1.1 1.2.2.4.4 1 .4 1.6Zm17.9 0c0 1.3-.5 2.2-1.4 3-1 .6-2.2 1-4 1-1.7 0-3-.3-4.1-.9v-2.3c1.5.7 3 1 4.2 1 1.7 0 2.6-.5 2.6-1.5 0-.3-.1-.6-.3-.8-.2-.2-.5-.5-1-.7l-1.7-.8a8.4 8.4 0 0 1-3-1.7c-.6-.6-.8-1.4-.8-2.3 0-1.1.4-2 1.3-2.6.9-.6 2.1-.9 3.6-.9 1.6 0 3 .3 4.4 1l-1 2a9.6 9.6 0 0 0-3.4-.9c-1.5 0-2.2.5-2.2 1.3 0 .4.2.7.5 1 .4.3 1.2.7 2.5 1.2l2.4 1.1c.4.4.8.8 1 1.2.3.4.4 1 .4 1.6Zm14.5-2.8a7 7 0 0 1-1.7 5 5.8 5.8 0 0 1-4.5 1.7c-1.2 0-2.3-.2-3.2-.8a5 5 0 0 1-2.2-2.3 8 8 0 0 1-.7-3.6 7 7 0 0 1 1.6-5c1-1.1 2.6-1.7 4.6-1.7 1.8 0 3.3.6 4.4 1.8a7 7 0 0 1 1.7 4.9Zm-9.5 0c0 3 1.1 4.5 3.3 4.5 2.2 0 3.3-1.5 3.3-4.5s-1-4.4-3.3-4.4c-1.1 0-2 .3-2.5 1.1s-.8 1.9-.8 3.3Zm24.1 0a7 7 0 0 1-1.6 5 5.8 5.8 0 0 1-4.5 1.7c-1.2 0-2.3-.2-3.2-.8a5 5 0 0 1-2.2-2.3 8 8 0 0 1-.7-3.6 7 7 0 0 1 1.6-5 6 6 0 0 1 4.5-1.7c2 0 3.4.6 4.5 1.8a7 7 0 0 1 1.6 4.9Zm-9.4 0c0 3 1.1 4.5 3.3 4.5 2.2 0 3.3-1.5 3.3-4.5s-1.1-4.4-3.3-4.4c-1.2 0-2 .3-2.5 1.1s-.8 1.9-.8 3.3Zm24 6.5h-2.7v-8c0-1-.3-1.7-.7-2.2-.4-.5-1-.7-1.9-.7-1.1 0-2 .3-2.5 1-.6.7-.8 1.8-.8 3.4v6.5h-2.8v-13h2.2l.4 1.7h.1c.4-.6 1-1 1.7-1.4a6 6 0 0 1 2.4-.5c3 0 4.6 1.6 4.6 4.8v8.4Zm18.2 0-.6-1.8c-.7.8-1.3 1.3-2 1.6a6 6 0 0 1-2.4.4c-1.3 0-2.2-.3-3-1-.7-.7-1-1.7-1-3s.5-2.3 1.5-3c1-.6 2.5-1 4.5-1l2.2-.1v-.7c0-.8-.2-1.5-.6-1.9-.3-.4-1-.6-1.7-.6s-1.3.1-2 .3l-1.7.7-1-2 2.4-.8 2.4-.3c1.6 0 2.9.4 3.7 1 .8.8 1.3 2 1.3 3.5v8.7h-2Zm-4.1-1.9c1 0 1.8-.3 2.4-.8a3 3 0 0 0 1-2.4v-1H985a5 5 0 0 0-2.8.6 2 2 0 0 0-.9 1.8c0 .6.2 1 .5 1.4.4.3.9.4 1.6.4Zm18.6-1.8c0 1.3-.5 2.2-1.4 3-.9.6-2.2 1-4 1-1.7 0-3-.3-4-.9v-2.3c1.4.7 2.8 1 4.2 1 1.7 0 2.5-.5 2.5-1.5 0-.3 0-.6-.3-.8l-.9-.7-1.8-.8a8.4 8.4 0 0 1-3-1.7c-.6-.6-.8-1.4-.8-2.3 0-1.1.4-2 1.3-2.6 1-.6 2.1-.9 3.7-.9a9 9 0 0 1 4.3 1l-.9 2a9.6 9.6 0 0 0-3.5-.9c-1.5 0-2.2.5-2.2 1.3 0 .4.2.7.6 1 .3.3 1.2.7 2.5 1.2l2.3 1.1c.5.4.8.8 1 1.2.3.4.4 1 .4 1.6Zm15.8 4c-1.6 0-3-.7-3.8-1.8h-.2l.2 2v5.3h-2.8V340h2.3l.4 1.8c1-1.3 2.2-2 4-2 1.6 0 2.8.6 3.7 1.8 1 1.1 1.4 2.8 1.4 4.9a8 8 0 0 1-1.4 5 4.5 4.5 0 0 1-3.8 1.7Zm-.7-11.2c-1 0-1.9.3-2.4 1-.5.6-.7 1.6-.7 3v.4c0 1.6.2 2.7.7 3.4.5.7 1.3 1 2.5 1 1 0 1.7-.3 2.2-1a6 6 0 0 0 .8-3.4c0-1.5-.3-2.6-.8-3.3a2.5 2.5 0 0 0-2.3-1.1Zm20.6 4.4a7 7 0 0 1-1.7 5 5.8 5.8 0 0 1-4.5 1.7c-1.2 0-2.3-.2-3.2-.8-1-.5-1.6-1.3-2.1-2.3a8 8 0 0 1-.8-3.6 7 7 0 0 1 1.6-5 6.2 6.2 0 0 1 4.6-1.7c1.9 0 3.4.6 4.4 1.8a7 7 0 0 1 1.7 4.9Zm-9.5 0c0 3 1.2 4.5 3.4 4.5s3.3-1.5 3.3-4.5-1.2-4.4-3.4-4.4c-1.1 0-2 .3-2.5 1.1a6 6 0 0 0-.8 3.3Zm21.4 2.8c0 1.3-.5 2.2-1.4 3-1 .6-2.3 1-4 1-1.7 0-3-.3-4.1-.9v-2.3c1.5.7 2.9 1 4.2 1 1.7 0 2.6-.5 2.6-1.5 0-.3-.1-.6-.3-.8-.2-.2-.5-.5-1-.7l-1.7-.8a8.5 8.5 0 0 1-3-1.7c-.6-.6-.9-1.4-.9-2.3 0-1.1.5-2 1.4-2.6.9-.6 2-.9 3.6-.9 1.5 0 3 .3 4.4 1l-1 2a9.6 9.6 0 0 0-3.5-.9c-1.4 0-2.1.5-2.1 1.3 0 .4.2.7.5 1 .4.3 1.2.7 2.5 1.2l2.3 1.1c.5.4.9.8 1.1 1.2.3.4.4 1 .4 1.6Zm11.7 0c0 1.3-.5 2.2-1.4 3-1 .6-2.3 1-4 1a8 8 0 0 1-4.1-.9v-2.3c1.5.7 2.9 1 4.2 1 1.7 0 2.5-.5 2.5-1.5 0-.3 0-.6-.2-.8-.2-.2-.5-.5-1-.7l-1.8-.8a8.3 8.3 0 0 1-3-1.7c-.5-.6-.8-1.4-.8-2.3 0-1.1.5-2 1.4-2.6.9-.6 2-.9 3.6-.9a9 9 0 0 1 4.3 1l-.8 2a9.6 9.6 0 0 0-3.6-.9c-1.4 0-2.1.5-2.1 1.3 0 .4.1.7.5 1 .4.3 1.2.7 2.5 1.2l2.3 1.1c.5.4.9.8 1.1 1.2.2.4.4 1 .4 1.6Zm5.7 3.7h-2.8v-13h2.8v13Zm-3-16.4c0-.5.2-.9.5-1.1.3-.3.6-.4 1.1-.4.5 0 .9.1 1.2.4.2.2.4.6.4 1.1 0 .5-.2.8-.4 1.1-.3.3-.7.4-1.2.4s-.8-.1-1.1-.4c-.3-.3-.4-.6-.4-1Zm13.6 3.2c1.6 0 2.9.6 3.8 1.8a8 8 0 0 1 1.3 4.9 8 8 0 0 1-1.4 5 4.6 4.6 0 0 1-3.8 1.7c-1.6 0-2.9-.6-3.8-1.7h-.2l-.5 1.5h-2v-18.2h2.7v4.3a34.8 34.8 0 0 1-.1 2.6h.1a4.4 4.4 0 0 1 3.9-1.9Zm-.7 2.3c-1.2 0-2 .3-2.4 1-.5.6-.8 1.7-.8 3.2v.2c0 1.6.3 2.7.8 3.4.5.7 1.3 1 2.4 1 1 0 1.7-.3 2.2-1a6 6 0 0 0 .8-3.4c0-3-1-4.4-3-4.4Zm11.8 10.9h-2.8v-18.2h2.8V353Zm9.6.2c-2 0-3.6-.6-4.8-1.7a6.7 6.7 0 0 1-1.7-4.9c0-2.1.6-3.8 1.6-5 1-1.2 2.5-1.8 4.4-1.8a5 5 0 0 1 4 1.6 6 6 0 0 1 1.5 4.3v1.4h-8.6c0 1.3.3 2.3 1 3 .6.6 1.5 1 2.7 1a10.2 10.2 0 0 0 4.3-1v2.3l-2 .6c-.8.2-1.5.2-2.4.2Zm-.5-11.3c-1 0-1.6.3-2.1.8a4 4 0 0 0-1 2.4h5.9c0-1-.3-1.8-.8-2.4-.5-.5-1.2-.8-2-.8Zm11 5.9h-2l-.6-12h3.2l-.6 12Zm-2.8 3.7c0-.5.2-1 .5-1.3.3-.3.7-.4 1.3-.4.5 0 1 .1 1.3.4.3.3.4.8.4 1.3 0 .6-.1 1-.5 1.4-.3.3-.7.4-1.2.4-.6 0-1-.1-1.3-.4a2 2 0 0 1-.5-1.4Z"/><path fill="#CD5A80" d="M210.7 144a16.2 16.2 0 0 0-14.1-16 16.2 16.2 0 0 0-24.3-11.8 19.8 19.8 0 0 0-33.7-11 29.3 29.3 0 0 0-57.6 4.4 16 16 0 0 0-22.5 11.1l-1.9-.2a16 16 0 0 0-13.5 7.4 16.2 16.2 0 0 0-10.7 27.3 16 16 0 0 0 11 4.9h151.9a16.1 16.1 0 0 0 15.4-16.1ZM349 524.7a12.3 12.3 0 0 0-10.9-12.3 12.4 12.4 0 0 0-12.3-10.8 13 13 0 0 0-6.4 1.8 15.1 15.1 0 0 0-10.4-12.2 15.4 15.4 0 0 0-15.6 3.8 22.4 22.4 0 0 0-23.7-17 22.7 22.7 0 0 0-20.8 20.4c-1.6-.8-3.4-1.2-5.2-1.2a12.5 12.5 0 0 0-12.2 9.6l-1.4-.1a12.4 12.4 0 0 0-10.4 5.7 12.6 12.6 0 0 0-11.7 12.3 12.2 12.2 0 0 0 11.9 12.3H337a12.5 12.5 0 0 0 11.9-12.3Zm946-478a12.3 12.3 0 0 0-10.9-12.3 12.4 12.4 0 0 0-12.3-10.8 13 13 0 0 0-6.4 1.8 15 15 0 0 0-10.4-12.2 15.4 15.4 0 0 0-15.6 3.8 22.4 22.4 0 0 0-23.7-17 22.7 22.7 0 0 0-20.8 20.4 12.5 12.5 0 0 0-17.4 8.5l-1.4-.2a12.4 12.4 0 0 0-10.4 5.7 12.3 12.3 0 0 0 .2 24.6H1283a12.4 12.4 0 0 0 11.9-12.3Zm-70 427.4c0-2.9-1-5.7-3-7.9s-4.7-3.6-7.6-4a12.2 12.2 0 0 0-18.2-8.7 14.5 14.5 0 0 0-10-11.7 15 15 0 0 0-15.3 3.6c-1.2-5-4.2-9.3-8.4-12.3a22.2 22.2 0 0 0-28.3 2.1c-3.7 3.6-6 8.4-6.5 13.5a12.2 12.2 0 0 0-16.9 8.2l-1.3-.2a12.1 12.1 0 0 0-10.2 5.5 11.9 11.9 0 0 0 .2 23.8h114a12 12 0 0 0 11.5-11.9ZM1434 589c0-5-1.9-9.6-5.2-13.3a21 21 0 0 0-13-6.7 20 20 0 0 0-6.8-12.5 21.2 21.2 0 0 0-24.4-2.2 24.9 24.9 0 0 0-17.3-19.8 26.3 26.3 0 0 0-26 6.1 36.5 36.5 0 0 0-14.6-20.7 38.6 38.6 0 0 0-48.4 3.6 36 36 0 0 0-11.1 22.6 21.2 21.2 0 0 0-21.7 2.5 20 20 0 0 0-7.3 11.3l-2.4-.2a21.1 21.1 0 0 0-17.4 9.2c-5.2.4-10.2 2.6-13.8 6.3a19.6 19.6 0 0 0 0 27.6c3.8 3.8 8.9 6 14.2 6.2h195.4a21 21 0 0 0 14-6.2c3.8-3.7 5.8-8.7 5.8-13.8Zm-665-34.5c0-1.6-.6-3-1.7-4.3a7 7 0 0 0-4.2-2.1c-.3-1.6-1-3-2.3-4a7 7 0 0 0-8-.8 7.8 7.8 0 0 0-1.9-4 8.7 8.7 0 0 0-12.3-.5 12 12 0 0 0-4.7-6.6 12.8 12.8 0 0 0-16 1.2c-2 2-3.3 4.5-3.6 7.3a7 7 0 0 0-7.1.8c-1.2 1-2 2.2-2.3 3.7l-.8-.1a7 7 0 0 0-3.3.8c-1 .5-1.8 1.2-2.4 2.2a7 7 0 0 0-4.6 2 6.3 6.3 0 0 0 0 9c1.3 1.1 3 1.8 4.7 1.9h64a7 7 0 0 0 4.6-2 6.3 6.3 0 0 0 1.9-4.5Zm176-424c0-1.6-.6-3-1.7-4.3a7 7 0 0 0-4.2-2.1c-.3-1.6-1-3-2.3-4a7 7 0 0 0-8-.8 7.8 7.8 0 0 0-1.9-4 8.7 8.7 0 0 0-12.3-.5 12 12 0 0 0-4.7-6.6 12.8 12.8 0 0 0-16 1.2c-2 2-3.3 4.5-3.6 7.3a7 7 0 0 0-7.1.8c-1.2 1-2 2.2-2.3 3.7l-.8-.1a7 7 0 0 0-3.3.8c-1 .5-1.8 1.2-2.4 2.2a7 7 0 0 0-4.6 2 6.3 6.3 0 0 0 0 9c1.3 1.1 3 1.8 4.7 1.9h64a7 7 0 0 0 4.6-2 6.3 6.3 0 0 0 1.9-4.5Zm-868 165c0-1.6-.6-3-1.7-4.3a7 7 0 0 0-4.2-2.1c-.3-1.6-1-3-2.3-4a7 7 0 0 0-8-.8 7.8 7.8 0 0 0-1.9-4 8.7 8.7 0 0 0-12.3-.5 12 12 0 0 0-4.7-6.6 12.8 12.8 0 0 0-16 1.2c-2 2-3.3 4.5-3.6 7.3a7 7 0 0 0-7.1.8c-1.2 1-2 2.2-2.3 3.7l-.8-.1a7 7 0 0 0-3.3.8c-1 .5-1.8 1.2-2.4 2.2a7 7 0 0 0-4.6 2 6.3 6.3 0 0 0 0 9c1.3 1.1 3 1.8 4.7 1.9h64a7 7 0 0 0 4.6-2 6.3 6.3 0 0 0 1.9-4.5Zm0 333c0-1.6-.6-3-1.7-4.3a7 7 0 0 0-4.2-2.1c-.3-1.6-1-3-2.3-4a7 7 0 0 0-8-.8 7.8 7.8 0 0 0-1.9-4 8.7 8.7 0 0 0-12.3-.5 12 12 0 0 0-4.7-6.6 12.8 12.8 0 0 0-16 1.2c-2 2-3.3 4.5-3.6 7.3a7 7 0 0 0-7.1.8c-1.2 1-2 2.2-2.3 3.7l-.8-.1a7 7 0 0 0-3.3.8c-1 .5-1.8 1.2-2.4 2.2a7 7 0 0 0-4.6 2 6.3 6.3 0 0 0 0 9c1.3 1.1 3 1.8 4.7 1.9h64a7 7 0 0 0 4.6-2 6.3 6.3 0 0 0 1.9-4.5Zm486-576c0-1.6-.6-3-1.7-4.3a7 7 0 0 0-4.2-2.1c-.3-1.6-1-3-2.3-4a7 7 0 0 0-8-.8 7.8 7.8 0 0 0-1.9-4 8.7 8.7 0 0 0-12.3-.5 12 12 0 0 0-4.7-6.6 12.8 12.8 0 0 0-16 1.2c-2 2-3.3 4.5-3.6 7.3a7 7 0 0 0-7.1.8c-1.2 1-2 2.2-2.3 3.7l-.8-.1a7 7 0 0 0-3.3.8c-1 .5-1.8 1.2-2.4 2.2a7 7 0 0 0-4.6 2 6.3 6.3 0 0 0 0 9c1.3 1.1 3 1.8 4.7 1.9h64a7 7 0 0 0 4.6-2 6.3 6.3 0 0 0 1.9-4.5Zm809 209c0-1.6-.6-3-1.7-4.3a7 7 0 0 0-4.2-2.1c-.3-1.6-1-3-2.3-4a7 7 0 0 0-8-.8 7.8 7.8 0 0 0-1.9-4 8.7 8.7 0 0 0-12.3-.5 12 12 0 0 0-4.7-6.6 12.8 12.8 0 0 0-16 1.2c-2 2-3.3 4.5-3.6 7.3a7 7 0 0 0-7.1.8 7 7 0 0 0-2.4 3.7l-.8-.1a7 7 0 0 0-5.6 3 7 7 0 0 0-4.6 2 6.3 6.3 0 0 0 0 9c1.3 1.1 3 1.8 4.7 1.9h64a7 7 0 0 0 4.6-2 6.3 6.3 0 0 0 1.9-4.5Z"/></svg>