<svg width="16" height="13" viewBox="0 0 16 13" fill="none" xmlns="http://www.w3.org/2000/svg">
<g id="arrow-mini.svg">
<path id="Vector" d="M12.5 6.13085V5.35086C12.2733 5.32419 12.06 5.28418 11.86 5.23085C11.66 5.17752 11.4533 5.10418 11.24 5.01085C11.0266 4.91752 10.8266 4.81752 10.64 4.71085C10.4533 4.59085 10.2666 4.43752 10.08 4.25085L8.14 2.33085L9.38 1.13086L15.22 6.99086L9.38 12.8709L8.14 11.6509L10 9.81085C10.2266 9.59752 10.4466 9.42419 10.66 9.29085C10.8733 9.15752 11.0866 9.05085 11.3 8.97086C11.5 8.89086 11.7 8.82419 11.9 8.77086C12.1 8.70419 12.3 8.66418 12.5 8.65085V7.87086H0V6.13085H12.5Z" fill="#655E8E"/>
</g>
</svg>
