<svg width="65" height="65" viewBox="0 0 65 65" fill="none" xmlns="http://www.w3.org/2000/svg">
<g id="card-3 1">
<path id="Vector" d="M48.199 19.4992C47.5644 16.446 46.2793 13.5655 44.4311 11.0538C42.5829 8.5421 40.215 6.45825 37.4888 4.94419C34.7627 3.43013 31.7422 2.52143 28.6331 2.27999C25.5241 2.03854 22.3995 2.47002 19.4723 3.54504C16.545 4.62006 13.8838 6.31337 11.67 8.50961C9.45621 10.7059 7.74176 13.3534 6.64345 16.272C5.54513 19.1906 5.08876 22.3116 5.30542 25.4225C5.52208 28.5334 6.40669 31.561 7.89897 34.2992C4.99227 35.8743 2.69194 38.3713 1.36014 41.3972C0.0283414 44.4231 -0.259286 47.806 0.542542 51.0133C1.34437 54.2206 3.19011 57.0702 5.78918 59.1133C8.38825 61.1565 11.593 62.2773 14.899 62.2992H37.899V41.6992L31.699 47.9992L27.999 43.9992L36.899 35.0992C37.4015 34.5882 38.0008 34.1824 38.6618 33.9054C39.3228 33.6283 40.0323 33.4857 40.749 33.4857C41.4657 33.4857 42.1752 33.6283 42.8362 33.9054C43.4972 34.1824 44.0964 34.5882 44.599 35.0992L53.499 44.0992L49.599 47.8992L43.399 41.5992V62.1992C48.6982 62.1589 53.7995 60.1809 57.7407 56.6382C61.6819 53.0955 64.1904 48.233 64.7932 42.968C65.396 37.703 64.0513 32.3995 61.0128 28.0577C57.9743 23.7159 53.452 20.6361 48.299 19.3992L48.199 19.4992Z" fill="#272727"/>
</g>
</svg>
