<svg width="35" height="35" viewBox="0 0 35 35" fill="none" xmlns="http://www.w3.org/2000/svg">
<path d="M33.5417 10.2083C34.3481 10.2083 35 9.555 35 8.75V1.45831C35 1.26875 34.9621 1.07912 34.8877 0.90125C34.7404 0.543936 34.456 0.259561 34.0988 0.112314C33.9208 0.039375 33.7313 0 33.5417 0H26.25C25.4436 0 24.7917 0.653311 24.7917 1.45831C24.7917 2.26331 25.4436 2.91669 26.25 2.91669H30.0212L21.2712 11.6667H13.7288L4.97875 2.91669H8.75C9.55644 2.91669 10.2083 2.26338 10.2083 1.45838C10.2083 0.653379 9.55644 0 8.75 0H1.45831C1.26875 0 1.07912 0.039375 0.90125 0.112314C0.543936 0.259561 0.259561 0.543936 0.112314 0.90125C0.039375 1.07919 0 1.26875 0 1.45831V8.75C0 9.555 0.651875 10.2083 1.45831 10.2083C2.26475 10.2083 2.91662 9.555 2.91662 8.75V4.97875L11.6666 13.7288V21.2712L2.91662 30.0212V26.25C2.91662 25.445 2.26475 24.7917 1.45831 24.7917C0.651875 24.7917 0 25.445 0 26.25V33.5417C0 33.7313 0.039375 33.9209 0.112314 34.0988C0.259629 34.4561 0.544004 34.7404 0.90125 34.8877C1.07919 34.9606 1.26875 35 1.45831 35H8.75C9.55644 35 10.2083 34.3467 10.2083 33.5417C10.2083 32.7367 9.55644 32.0834 8.75 32.0834H4.97875L13.7288 23.3334H21.2712L30.0212 32.0834H26.25C25.4436 32.0834 24.7917 32.7367 24.7917 33.5417C24.7917 34.3467 25.4436 35 26.25 35H33.5417C33.7313 35 33.9209 34.9606 34.0988 34.8877C34.4561 34.7404 34.7404 34.456 34.8877 34.0988C34.9621 33.9208 35 33.7313 35 33.5417V26.25C35 25.445 34.3481 24.7917 33.5417 24.7917C32.7353 24.7917 32.0834 25.445 32.0834 26.25V30.0212L23.3334 21.2712V13.7288L32.0834 4.97875V8.75C32.0833 9.555 32.7352 10.2083 33.5417 10.2083Z" fill="black"/>
</svg>
