<svg width="276" height="508" viewBox="0 0 276 508" fill="none" xmlns="http://www.w3.org/2000/svg">
<rect width="32" height="32" rx="16" fill="#98C5C2"/>
<path d="M13.4856 19.2001L22.6286 10.0571L24 11.4285L13.4856 21.9429L8 16.4573L9.3714 15.0859L13.4856 19.2001Z" fill="black"/>
<path d="M46.232 7.2H47.696L57.992 20.064V7.2H60.056V24H58.616L48.296 11.184V24H46.232V7.2ZM74.432 22.104H74.408C73.832 22.8 73.064 23.328 72.152 23.688C71.216 24.048 70.256 24.216 69.296 24.216C67.424 24.216 65.936 23.664 64.784 22.536C63.632 21.408 63.056 19.896 63.056 18.024C63.056 16.248 63.632 14.76 64.784 13.608C65.936 12.456 67.4 11.88 69.2 11.88C71.12 11.88 72.632 12.48 73.76 13.68C74.888 14.88 75.344 16.584 75.128 18.84H65.048C65.144 19.92 65.6 20.784 66.416 21.432C67.208 22.08 68.192 22.392 69.344 22.392C70.04 22.392 70.736 22.272 71.456 22.008C72.176 21.744 72.728 21.384 73.112 20.904L74.432 22.104ZM73.256 17.184V17.208C73.208 16.08 72.824 15.216 72.104 14.592C71.384 13.968 70.424 13.656 69.248 13.656C68.168 13.656 67.232 13.968 66.464 14.592C65.672 15.216 65.192 16.08 65.048 17.184H73.256ZM81.1048 8.688V12.168H84.7768V13.848H81.0808V20.112C81.0808 21.648 81.7048 22.392 82.9528 22.392C83.4808 22.392 84.0328 22.248 84.6088 21.96L85.1848 23.592C84.3688 23.976 83.6008 24.168 82.8808 24.168C80.3848 24.216 79.1367 22.872 79.1367 20.112V13.848H76.7607V12.168H79.1367V8.904L81.1048 8.688ZM87.7398 7.2V7.176H93.8598C95.2278 7.176 96.4758 7.416 97.5798 7.872C98.6838 8.352 99.5718 8.976 100.244 9.744C100.916 10.536 101.42 11.424 101.78 12.384C102.116 13.344 102.308 14.352 102.308 15.408C102.308 16.512 102.14 17.568 101.804 18.576C101.468 19.584 100.964 20.496 100.292 21.312C99.6198 22.128 98.7318 22.8 97.6278 23.28C96.5238 23.76 95.2518 24 93.8598 24H87.7398V7.2ZM93.8598 21.912C95.9238 21.912 97.5078 21.288 98.5878 19.992C99.6678 18.696 100.22 17.16 100.22 15.384C100.22 13.704 99.6678 12.24 98.5638 11.016C97.4598 9.816 95.8758 9.192 93.8598 9.192H89.8278V21.912H93.8598ZM104.423 18.096C104.423 16.272 104.999 14.784 106.151 13.632C107.303 12.48 108.791 11.88 110.567 11.88C112.367 11.88 113.855 12.456 115.007 13.608C116.159 14.76 116.735 16.272 116.735 18.096C116.735 19.896 116.135 21.36 114.983 22.512C113.831 23.664 112.343 24.216 110.567 24.216C108.791 24.216 107.303 23.664 106.151 22.512C104.999 21.36 104.423 19.896 104.423 18.096ZM114.791 18.096C114.791 16.8 114.383 15.744 113.591 14.928C112.775 14.112 111.791 13.68 110.591 13.68C109.367 13.68 108.359 14.088 107.567 14.904C106.775 15.72 106.391 16.8 106.391 18.096C106.391 19.344 106.775 20.376 107.567 21.168C108.335 21.984 109.343 22.368 110.567 22.368C111.767 22.368 112.775 21.984 113.567 21.168C114.359 20.376 114.767 19.344 114.791 18.096ZM129.446 22.416L129.422 22.392C128.198 23.616 126.734 24.216 125.006 24.216C123.23 24.216 121.766 23.688 120.59 22.584C119.39 21.48 118.814 19.992 118.814 18.072C118.814 16.152 119.39 14.664 120.566 13.56C121.718 12.48 123.206 11.928 125.006 11.928C126.662 11.928 128.102 12.528 129.302 13.704L128.054 15C127.238 14.208 126.23 13.8 125.054 13.8C123.83 13.8 122.822 14.208 122.006 14.976C121.19 15.744 120.806 16.776 120.806 18.072C120.806 19.416 121.19 20.448 122.006 21.216C122.822 21.984 123.83 22.344 125.03 22.344C126.278 22.344 127.31 21.936 128.126 21.096L129.446 22.416ZM141.125 24H141.149L141.053 22.104C140.045 23.472 138.653 24.168 136.925 24.192C135.389 24.192 134.141 23.712 133.181 22.728C132.221 21.744 131.765 20.4 131.765 18.696V12.144H133.733V18.672C133.733 19.824 134.045 20.736 134.693 21.384C135.317 22.056 136.205 22.368 137.333 22.368C138.389 22.368 139.277 21.984 139.949 21.24C140.621 20.52 140.981 19.608 140.981 18.504V12.144H142.949V24H141.125ZM146.558 12.144L146.582 12.168H148.406L148.526 13.896C148.862 13.248 149.342 12.768 149.966 12.432C150.59 12.12 151.286 11.952 152.03 11.952C152.918 11.952 153.734 12.168 154.454 12.576C155.174 13.008 155.678 13.656 156.014 14.544C156.422 13.68 156.998 13.032 157.742 12.6C158.462 12.168 159.278 11.952 160.19 11.952C161.726 11.952 162.95 12.432 163.838 13.368C164.726 14.328 165.182 15.6 165.182 17.232V24H163.214V17.232C163.214 16.248 162.926 15.432 162.374 14.784C161.822 14.136 161.078 13.8 160.142 13.8C159.182 13.8 158.39 14.136 157.79 14.808C157.19 15.48 156.902 16.296 156.902 17.28V24H154.934V17.28C154.934 16.296 154.622 15.48 154.046 14.808C153.47 14.136 152.702 13.8 151.742 13.8C150.782 13.8 149.99 14.136 149.414 14.808C148.814 15.48 148.526 16.296 148.526 17.28V24H146.558V12.144ZM179.268 22.104H179.244C178.668 22.8 177.9 23.328 176.988 23.688C176.052 24.048 175.092 24.216 174.132 24.216C172.26 24.216 170.772 23.664 169.62 22.536C168.468 21.408 167.892 19.896 167.892 18.024C167.892 16.248 168.468 14.76 169.62 13.608C170.772 12.456 172.236 11.88 174.036 11.88C175.956 11.88 177.468 12.48 178.596 13.68C179.724 14.88 180.18 16.584 179.964 18.84H169.884C169.98 19.92 170.436 20.784 171.252 21.432C172.044 22.08 173.028 22.392 174.18 22.392C174.876 22.392 175.572 22.272 176.292 22.008C177.012 21.744 177.564 21.384 177.948 20.904L179.268 22.104ZM178.092 17.184V17.208C178.044 16.08 177.66 15.216 176.94 14.592C176.22 13.968 175.26 13.656 174.084 13.656C173.004 13.656 172.068 13.968 171.3 14.592C170.508 15.216 170.028 16.08 169.884 17.184H178.092ZM182.698 12.144V12.12H184.498L184.594 14.016C185.602 12.648 186.946 11.952 188.65 11.952C190.186 11.952 191.434 12.456 192.394 13.44C193.354 14.424 193.858 15.768 193.858 17.448V24H191.89V17.472C191.89 16.32 191.554 15.432 190.93 14.76C190.282 14.112 189.394 13.776 188.29 13.776C187.21 13.8 186.322 14.184 185.65 14.904C184.978 15.648 184.642 16.56 184.642 17.64V24H182.698V12.144ZM200.331 8.688V12.168H204.003V13.848H200.307V20.112C200.307 21.648 200.931 22.392 202.179 22.392C202.707 22.392 203.259 22.248 203.835 21.96L204.411 23.592C203.595 23.976 202.827 24.168 202.107 24.168C199.611 24.216 198.363 22.872 198.363 20.112V13.848H195.987V12.168H198.363V8.904L200.331 8.688ZM214.166 14.76L214.142 14.784C213.278 14.016 212.174 13.632 210.806 13.632C209.942 13.632 209.222 13.776 208.67 14.064C208.118 14.376 207.854 14.808 207.878 15.36C207.878 16.32 208.862 16.896 210.83 17.112C211.382 17.184 211.838 17.256 212.198 17.304C212.558 17.376 212.99 17.496 213.518 17.664C214.022 17.832 214.43 18.024 214.718 18.264C215.006 18.504 215.27 18.84 215.51 19.272C215.726 19.704 215.822 20.184 215.822 20.736C215.798 21.888 215.318 22.752 214.382 23.376C213.422 24 212.246 24.288 210.854 24.288C208.502 24.288 206.726 23.544 205.55 22.056L206.678 20.688C207.662 21.912 209.078 22.512 210.902 22.512C211.67 22.512 212.366 22.368 212.966 22.08C213.566 21.792 213.878 21.336 213.902 20.664C213.902 20.088 213.638 19.656 213.086 19.368C212.534 19.104 211.742 18.912 210.71 18.768C210.038 18.696 209.462 18.6 208.982 18.456C208.502 18.336 207.998 18.144 207.518 17.904C207.014 17.664 206.63 17.352 206.366 16.92C206.102 16.488 205.982 15.984 205.982 15.36C205.982 14.568 206.222 13.896 206.726 13.344C207.206 12.816 207.806 12.432 208.502 12.192C209.198 11.976 209.966 11.88 210.782 11.88C212.606 11.88 214.118 12.408 215.294 13.464L214.166 14.76Z" fill="#272727"/>
<rect y="68" width="32" height="32" rx="16" fill="#98C5C2"/>
<path d="M13.4856 87.2001L22.6286 78.0571L24 79.4285L13.4856 89.9429L8 84.4573L9.3714 83.0859L13.4856 87.2001Z" fill="black"/>
<path d="M52.28 81.464C54.296 81.464 55.856 81.944 56.984 82.88C58.088 83.816 58.664 85.088 58.664 86.72C58.664 88.352 58.064 89.672 56.864 90.656C55.664 91.664 54.104 92.144 52.136 92.144C51.248 92.144 50.432 92.072 49.688 91.904C48.92 91.736 48.224 91.472 47.576 91.112C46.928 90.752 46.424 90.224 46.04 89.552C45.656 88.88 45.488 88.088 45.488 87.176H47.576C47.576 87.944 47.816 88.568 48.32 89.048C48.824 89.528 49.4 89.816 50.024 89.96C50.648 90.104 51.32 90.176 52.088 90.176C53.432 90.176 54.512 89.888 55.328 89.264C56.144 88.64 56.576 87.8 56.576 86.744C56.576 85.736 56.192 84.944 55.448 84.344C54.704 83.744 53.648 83.432 52.28 83.432H45.8V75.2H57.704V77.12H47.84V81.464H52.28ZM61.2849 81.92C61.2849 80.816 61.4769 79.784 61.8609 78.872C62.2449 77.96 62.7729 77.24 63.3969 76.688C64.0209 76.136 64.7649 75.704 65.5809 75.392C66.3969 75.104 67.2129 74.936 68.0769 74.936C68.9169 74.936 69.7569 75.104 70.5729 75.392C71.3889 75.704 72.1089 76.136 72.7329 76.688C73.3569 77.264 73.8849 77.984 74.2689 78.896C74.6529 79.808 74.8689 80.816 74.8689 81.92V85.28C74.8689 86.768 74.5329 88.04 73.8609 89.12C73.1889 90.224 72.3489 91.016 71.3409 91.496C70.3329 92 69.2289 92.24 68.0769 92.24C66.9009 92.24 65.8209 92 64.8129 91.52C63.8049 91.04 62.9649 90.248 62.2929 89.144C61.6209 88.064 61.2849 86.768 61.2849 85.28V81.92ZM63.3729 85.28C63.3729 86.192 63.5409 87.008 63.8769 87.728C64.2129 88.448 64.6689 89 65.2209 89.384C65.7729 89.768 66.3969 90.032 67.0689 90.2C67.7409 90.368 68.4129 90.368 69.0849 90.176C69.7569 90.008 70.3569 89.744 70.9089 89.36C71.4609 89 71.9169 88.448 72.2529 87.728C72.5889 87.008 72.7809 86.168 72.7809 85.256V81.896C72.7809 80.984 72.5889 80.192 72.2529 79.472C71.9169 78.752 71.4609 78.224 70.9089 77.84C70.3569 77.48 69.7569 77.216 69.0849 77.024C68.4129 76.856 67.7409 76.856 67.0689 77.024C66.3969 77.192 65.7729 77.456 65.2209 77.84C64.6689 78.224 64.2129 78.752 63.8769 79.472C63.5409 80.192 63.3729 81.008 63.3729 81.92V85.28ZM77.4952 82.808H81.3832V78.944H83.3032V82.808H87.2392V84.656H83.3032V88.616H81.3832V84.656H77.4952V82.808ZM110.732 89.768C109.052 91.448 106.964 92.264 104.492 92.264C101.684 92.264 99.5238 91.448 98.0118 89.792C96.4998 88.136 95.7318 86.096 95.7318 83.696C95.7078 82.16 96.0198 80.744 96.6438 79.448C97.2678 78.152 98.2518 77.096 99.6198 76.232C100.964 75.368 102.596 74.936 104.492 74.936C106.868 74.936 108.908 75.776 110.636 77.456L109.196 78.8C107.924 77.552 106.364 76.928 104.492 76.928C102.332 76.928 100.676 77.6 99.5238 78.896C98.3718 80.216 97.7958 81.8 97.8198 83.672C97.8438 85.544 98.4198 87.104 99.5718 88.376C100.7 89.648 102.332 90.272 104.492 90.272C106.364 90.272 107.972 89.624 109.268 88.328L110.732 89.768ZM115.459 75.2V92H113.491V75.2H115.459ZM118.438 86.096C118.438 84.272 119.014 82.784 120.166 81.632C121.318 80.48 122.806 79.88 124.582 79.88C126.382 79.88 127.87 80.456 129.022 81.608C130.174 82.76 130.75 84.272 130.75 86.096C130.75 87.896 130.15 89.36 128.998 90.512C127.846 91.664 126.358 92.216 124.582 92.216C122.806 92.216 121.318 91.664 120.166 90.512C119.014 89.36 118.438 87.896 118.438 86.096ZM128.806 86.096C128.806 84.8 128.398 83.744 127.606 82.928C126.79 82.112 125.806 81.68 124.606 81.68C123.382 81.68 122.374 82.088 121.582 82.904C120.79 83.72 120.406 84.8 120.406 86.096C120.406 87.344 120.79 88.376 121.582 89.168C122.35 89.984 123.358 90.368 124.582 90.368C125.782 90.368 126.79 89.984 127.582 89.168C128.374 88.376 128.782 87.344 128.806 86.096ZM142.765 92H142.789L142.693 90.104C141.685 91.472 140.293 92.168 138.565 92.192C137.029 92.192 135.781 91.712 134.821 90.728C133.861 89.744 133.405 88.4 133.405 86.696V80.144H135.373V86.672C135.373 87.824 135.685 88.736 136.333 89.384C136.957 90.056 137.845 90.368 138.973 90.368C140.029 90.368 140.917 89.984 141.589 89.24C142.261 88.52 142.621 87.608 142.621 86.504V80.144H144.589V92H142.765ZM159.838 75.2L159.862 75.176V91.976H158.014L157.918 89.816C157.438 90.608 156.814 91.208 156.022 91.616C155.23 92.024 154.39 92.216 153.478 92.216C151.726 92.216 150.286 91.688 149.158 90.584C148.03 89.48 147.478 87.992 147.478 86.072C147.478 84.152 148.03 82.64 149.158 81.56C150.262 80.48 151.702 79.928 153.454 79.928C154.342 79.928 155.206 80.144 156.046 80.552C156.862 80.96 157.486 81.536 157.894 82.304V75.2H159.838ZM153.598 81.752H153.622C152.422 81.752 151.414 82.136 150.622 82.904C149.83 83.672 149.446 84.704 149.446 86.048C149.446 87.392 149.83 88.424 150.622 89.192C151.414 89.96 152.422 90.344 153.622 90.344C154.822 90.344 155.806 89.96 156.622 89.144C157.414 88.352 157.822 87.32 157.822 86.024C157.822 84.776 157.414 83.768 156.598 82.952C155.782 82.16 154.798 81.752 153.598 81.752ZM174.991 75.2H177.343L184.879 92H182.623L180.967 88.304H171.367L169.735 92H167.455L174.991 75.2ZM180.151 86.384L176.167 77.312L172.183 86.384H180.151ZM187.081 97.592V80.192H188.953L189.049 82.472C189.505 81.704 190.153 81.08 190.969 80.648C191.785 80.216 192.649 79.976 193.609 79.976C195.337 80.024 196.753 80.6 197.857 81.704C198.961 82.832 199.513 84.296 199.513 86.096C199.513 87.968 198.937 89.456 197.833 90.584C196.729 91.712 195.265 92.264 193.489 92.264C192.577 92.264 191.713 92.072 190.897 91.664C190.081 91.28 189.433 90.68 189.001 89.864V97.592H187.081ZM193.369 90.416C194.569 90.416 195.577 90.032 196.369 89.264C197.137 88.496 197.545 87.464 197.545 86.144C197.545 84.848 197.137 83.816 196.369 83.048C195.601 82.28 194.593 81.896 193.369 81.896C192.121 81.896 191.137 82.304 190.369 83.096C189.601 83.912 189.217 84.92 189.217 86.144C189.217 87.368 189.601 88.376 190.393 89.192C191.161 90.008 192.169 90.416 193.369 90.416ZM202.363 97.592V80.192H204.235L204.331 82.472C204.787 81.704 205.435 81.08 206.251 80.648C207.067 80.216 207.931 79.976 208.891 79.976C210.619 80.024 212.035 80.6 213.139 81.704C214.243 82.832 214.795 84.296 214.795 86.096C214.795 87.968 214.219 89.456 213.115 90.584C212.011 91.712 210.547 92.264 208.771 92.264C207.859 92.264 206.995 92.072 206.179 91.664C205.363 91.28 204.715 90.68 204.283 89.864V97.592H202.363ZM208.651 90.416C209.851 90.416 210.859 90.032 211.651 89.264C212.419 88.496 212.827 87.464 212.827 86.144C212.827 84.848 212.419 83.816 211.651 83.048C210.883 82.28 209.875 81.896 208.651 81.896C207.403 81.896 206.419 82.304 205.651 83.096C204.883 83.912 204.499 84.92 204.499 86.144C204.499 87.368 204.883 88.376 205.675 89.192C206.443 90.008 207.451 90.416 208.651 90.416ZM225.276 82.76L225.252 82.784C224.388 82.016 223.284 81.632 221.916 81.632C221.052 81.632 220.332 81.776 219.78 82.064C219.228 82.376 218.964 82.808 218.988 83.36C218.988 84.32 219.972 84.896 221.94 85.112C222.492 85.184 222.948 85.256 223.308 85.304C223.668 85.376 224.1 85.496 224.628 85.664C225.132 85.832 225.54 86.024 225.828 86.264C226.116 86.504 226.38 86.84 226.62 87.272C226.836 87.704 226.932 88.184 226.932 88.736C226.908 89.888 226.428 90.752 225.492 91.376C224.532 92 223.356 92.288 221.964 92.288C219.612 92.288 217.836 91.544 216.66 90.056L217.788 88.688C218.772 89.912 220.188 90.512 222.012 90.512C222.78 90.512 223.476 90.368 224.076 90.08C224.676 89.792 224.988 89.336 225.012 88.664C225.012 88.088 224.748 87.656 224.196 87.368C223.644 87.104 222.852 86.912 221.82 86.768C221.148 86.696 220.572 86.6 220.092 86.456C219.612 86.336 219.108 86.144 218.628 85.904C218.124 85.664 217.74 85.352 217.476 84.92C217.212 84.488 217.092 83.984 217.092 83.36C217.092 82.568 217.332 81.896 217.836 81.344C218.316 80.816 218.916 80.432 219.612 80.192C220.308 79.976 221.076 79.88 221.892 79.88C223.716 79.88 225.228 80.408 226.404 81.464L225.276 82.76Z" fill="#272727"/>
<rect y="136" width="32" height="32" rx="16" fill="#98C5C2"/>
<path d="M13.4856 155.2L22.6286 146.057L24 147.429L13.4856 157.943L8 152.457L9.3714 151.086L13.4856 155.2Z" fill="black"/>
<path d="M60.92 146.224L54.824 154.72H54.392L48.296 146.176V160H46.232V143.2H48.728L54.632 151.84L60.488 143.2H62.984V160H60.92V146.224ZM66.7949 147.568L66.7469 147.544C66.7469 146.704 66.9389 145.96 67.3229 145.336C67.7069 144.712 68.2349 144.232 68.9069 143.896C69.5549 143.56 70.2269 143.32 70.9469 143.176C71.6669 143.032 72.4109 142.936 73.2269 142.936C75.0749 142.936 76.5869 143.368 77.7869 144.232C78.9869 145.096 79.5869 146.248 79.6109 147.688C79.6109 148.552 79.3229 149.32 78.7709 149.992C78.1949 150.664 77.4749 151.12 76.6109 151.312C77.5469 151.552 78.3389 152.032 78.9869 152.752C79.6109 153.472 79.9469 154.264 79.9469 155.176C79.9469 156.784 79.2989 158.032 78.0509 158.896C76.7789 159.76 75.1709 160.192 73.2029 160.192C72.5549 160.192 71.9309 160.168 71.3309 160.072C70.7309 159.976 70.1309 159.832 69.5309 159.592C68.9309 159.352 68.4029 159.064 67.9709 158.704C67.5389 158.368 67.1789 157.912 66.9149 157.336C66.6269 156.784 66.5069 156.136 66.5069 155.416H68.5949C68.5949 157.336 70.1549 158.272 73.2509 158.272C74.6189 158.272 75.7229 158.008 76.5869 157.48C77.4269 156.952 77.8589 156.208 77.8589 155.248C77.8589 154.456 77.4749 153.76 76.7309 153.16C75.9629 152.56 74.8349 152.248 73.3469 152.248H70.6349V150.496H73.2029C74.4749 150.496 75.5069 150.232 76.3229 149.704C77.1149 149.176 77.5229 148.528 77.5469 147.712C77.5469 146.944 77.1869 146.296 76.4669 145.72C75.7469 145.144 74.6669 144.856 73.2509 144.856C72.7229 144.856 72.2429 144.904 71.7869 144.976C71.3069 145.072 70.8509 145.192 70.3949 145.36C69.9149 145.552 69.5549 145.816 69.2669 146.2C68.9789 146.584 68.8589 147.04 68.8589 147.568H66.7949ZM85.1765 151.6C86.1605 150.256 87.7445 149.56 89.9525 149.56C90.6245 149.56 91.2725 149.632 91.8965 149.752C92.5205 149.872 93.1445 150.064 93.7205 150.328C94.2965 150.616 94.8245 150.952 95.2565 151.336C95.6885 151.744 96.0245 152.248 96.2885 152.872C96.5285 153.496 96.6725 154.168 96.6725 154.912C96.6725 155.824 96.4565 156.64 96.0725 157.336C95.6885 158.056 95.1605 158.608 94.5125 159.016C93.8405 159.448 93.1205 159.76 92.3525 159.952C91.5845 160.168 90.7685 160.264 89.9285 160.264C88.7525 160.264 87.6725 160.096 86.6645 159.736C85.6565 159.376 84.8165 158.776 84.1445 157.912C83.4485 157.072 83.1125 156.04 83.1125 154.84V147.976C83.1125 146.368 83.7605 145.12 85.0565 144.256C86.3525 143.392 87.9125 142.936 89.7365 142.936C91.5845 142.936 93.1445 143.344 94.3925 144.112C95.6405 144.88 96.2885 146.008 96.3605 147.496H94.2725C94.2245 146.632 93.7685 145.936 92.9045 145.456C92.0405 144.976 90.9845 144.712 89.7605 144.712C88.5125 144.712 87.4565 145.024 86.5445 145.6C85.6325 146.2 85.1765 146.992 85.1765 148V151.6ZM89.9285 158.344C90.7205 158.344 91.4645 158.224 92.1365 158.008C92.8085 157.816 93.3845 157.432 93.8645 156.904C94.3445 156.376 94.5845 155.728 94.5845 154.912C94.5845 153.76 94.1285 152.872 93.2405 152.296C92.3285 151.72 91.2485 151.432 89.9765 151.432C88.7045 151.432 87.6005 151.744 86.6405 152.344C85.6805 152.968 85.2245 153.808 85.2245 154.912C85.2245 156.064 85.6805 156.928 86.6165 157.504C87.5525 158.08 88.6565 158.344 89.9285 158.344ZM106.21 149.464C108.226 149.464 109.786 149.944 110.914 150.88C112.018 151.816 112.594 153.088 112.594 154.72C112.594 156.352 111.994 157.672 110.794 158.656C109.594 159.664 108.034 160.144 106.066 160.144C105.178 160.144 104.362 160.072 103.618 159.904C102.85 159.736 102.154 159.472 101.506 159.112C100.858 158.752 100.354 158.224 99.9697 157.552C99.5857 156.88 99.4177 156.088 99.4177 155.176H101.506C101.506 155.944 101.746 156.568 102.25 157.048C102.754 157.528 103.33 157.816 103.954 157.96C104.578 158.104 105.25 158.176 106.018 158.176C107.362 158.176 108.442 157.888 109.258 157.264C110.074 156.64 110.506 155.8 110.506 154.744C110.506 153.736 110.122 152.944 109.378 152.344C108.634 151.744 107.578 151.432 106.21 151.432H99.7297V143.2H111.634V145.12H101.77V149.464H106.21ZM136.091 157.768C134.411 159.448 132.323 160.264 129.851 160.264C127.043 160.264 124.883 159.448 123.371 157.792C121.859 156.136 121.091 154.096 121.091 151.696C121.067 150.16 121.379 148.744 122.003 147.448C122.627 146.152 123.611 145.096 124.979 144.232C126.323 143.368 127.955 142.936 129.851 142.936C132.227 142.936 134.267 143.776 135.995 145.456L134.555 146.8C133.283 145.552 131.723 144.928 129.851 144.928C127.691 144.928 126.035 145.6 124.883 146.896C123.731 148.216 123.155 149.8 123.179 151.672C123.203 153.544 123.779 155.104 124.931 156.376C126.059 157.648 127.691 158.272 129.851 158.272C131.723 158.272 133.331 157.624 134.627 156.328L136.091 157.768ZM137.657 154.096C137.657 152.272 138.233 150.784 139.385 149.632C140.537 148.48 142.025 147.88 143.801 147.88C145.601 147.88 147.089 148.456 148.241 149.608C149.393 150.76 149.969 152.272 149.969 154.096C149.969 155.896 149.369 157.36 148.217 158.512C147.065 159.664 145.577 160.216 143.801 160.216C142.025 160.216 140.537 159.664 139.385 158.512C138.233 157.36 137.657 155.896 137.657 154.096ZM148.025 154.096C148.025 152.8 147.617 151.744 146.825 150.928C146.009 150.112 145.025 149.68 143.825 149.68C142.601 149.68 141.593 150.088 140.801 150.904C140.009 151.72 139.625 152.8 139.625 154.096C139.625 155.344 140.009 156.376 140.801 157.168C141.569 157.984 142.577 158.368 143.801 158.368C145.001 158.368 146.009 157.984 146.801 157.168C147.593 156.376 148.001 155.344 148.025 154.096ZM151.101 148.144H153.261L155.181 152.776L157.197 157.912L159.189 152.8L161.109 148.144H163.269L158.277 160.024H156.117L151.101 148.144ZM175.799 158.104H175.775C175.199 158.8 174.431 159.328 173.519 159.688C172.583 160.048 171.623 160.216 170.663 160.216C168.791 160.216 167.303 159.664 166.151 158.536C164.999 157.408 164.423 155.896 164.423 154.024C164.423 152.248 164.999 150.76 166.151 149.608C167.303 148.456 168.767 147.88 170.567 147.88C172.487 147.88 173.999 148.48 175.127 149.68C176.255 150.88 176.711 152.584 176.495 154.84H166.415C166.511 155.92 166.967 156.784 167.783 157.432C168.575 158.08 169.559 158.392 170.711 158.392C171.407 158.392 172.103 158.272 172.823 158.008C173.543 157.744 174.095 157.384 174.479 156.904L175.799 158.104ZM174.623 153.184V153.208C174.575 152.08 174.191 151.216 173.471 150.592C172.751 149.968 171.791 149.656 170.615 149.656C169.535 149.656 168.599 149.968 167.831 150.592C167.039 151.216 166.559 152.08 166.415 153.184H174.623ZM181.054 148.144L181.078 148.12L181.222 149.896C181.918 148.6 183.142 147.928 184.87 147.928C185.902 147.904 186.814 148.192 187.63 148.816L186.742 150.496C186.118 150.064 185.422 149.848 184.678 149.848C183.694 149.872 182.878 150.208 182.206 150.856C181.534 151.504 181.198 152.344 181.198 153.4V160H179.23V148.144H181.054ZM198.912 160L198.864 160.048L198.816 157.888C198.36 158.68 197.736 159.28 196.944 159.688C196.128 160.096 195.312 160.288 194.448 160.288C192.696 160.288 191.256 159.736 190.104 158.608C188.952 157.48 188.376 155.968 188.376 154.072C188.376 152.2 188.952 150.712 190.104 149.608C191.256 148.504 192.72 147.952 194.472 147.952C195.384 147.952 196.224 148.168 197.04 148.576C197.832 148.984 198.432 149.56 198.864 150.304L198.888 148.144H200.808V160H198.912ZM194.568 149.8L194.544 149.824C193.344 149.824 192.336 150.232 191.52 151.024C190.704 151.816 190.296 152.848 190.296 154.144C190.296 155.44 190.704 156.496 191.52 157.288C192.336 158.104 193.344 158.488 194.544 158.488C195.312 158.488 196.008 158.344 196.632 158.008C197.256 157.696 197.712 157.288 198.048 156.76C198.36 156.256 198.6 155.704 198.744 155.08C198.888 154.456 198.888 153.856 198.744 153.232C198.6 152.608 198.36 152.056 198.048 151.528C197.712 151.024 197.256 150.616 196.656 150.28C196.032 149.968 195.336 149.8 194.568 149.8ZM205.722 161.992C205.722 163.072 206.106 163.888 206.922 164.416C207.738 164.968 208.722 165.256 209.922 165.256C211.074 165.256 212.058 165.04 212.874 164.584C213.69 164.128 214.098 163.408 214.098 162.448C214.098 161.536 213.69 160.84 212.898 160.336C212.106 159.856 211.122 159.592 209.946 159.592C208.05 159.592 206.538 159.088 205.386 158.032C204.234 157 203.682 155.56 203.682 153.736C203.682 151.912 204.306 150.472 205.554 149.416C206.802 148.384 208.266 147.856 209.946 147.856C211.338 147.856 212.442 148.168 213.306 148.744L214.578 147.208L215.97 148.312L214.626 149.896C215.634 151.048 216.162 152.344 216.162 153.736C216.162 154.84 215.874 155.824 215.298 156.712C214.722 157.6 213.906 158.224 212.826 158.56C214.986 159.208 216.09 160.504 216.09 162.424C216.09 163.888 215.466 165.016 214.266 165.832C213.042 166.648 211.578 167.056 209.898 167.056C208.074 167.056 206.586 166.624 205.458 165.712C204.33 164.8 203.778 163.576 203.826 161.992H205.722ZM205.626 153.736C205.626 155.056 206.058 156.064 206.874 156.784C207.69 157.504 208.722 157.864 209.97 157.864C211.218 157.864 212.226 157.48 213.042 156.688C213.834 155.896 214.242 154.912 214.242 153.76C214.242 152.464 213.81 151.456 212.97 150.736C212.13 150.016 211.122 149.656 209.946 149.656C208.794 149.656 207.786 150.016 206.922 150.736C206.058 151.456 205.626 152.44 205.626 153.736ZM229.705 158.104H229.681C229.105 158.8 228.337 159.328 227.425 159.688C226.489 160.048 225.529 160.216 224.569 160.216C222.697 160.216 221.209 159.664 220.057 158.536C218.905 157.408 218.329 155.896 218.329 154.024C218.329 152.248 218.905 150.76 220.057 149.608C221.209 148.456 222.673 147.88 224.473 147.88C226.393 147.88 227.905 148.48 229.033 149.68C230.161 150.88 230.617 152.584 230.401 154.84H220.321C220.417 155.92 220.873 156.784 221.689 157.432C222.481 158.08 223.465 158.392 224.617 158.392C225.313 158.392 226.009 158.272 226.729 158.008C227.449 157.744 228.001 157.384 228.385 156.904L229.705 158.104ZM228.529 153.184V153.208C228.481 152.08 228.097 151.216 227.377 150.592C226.657 149.968 225.697 149.656 224.521 149.656C223.441 149.656 222.505 149.968 221.737 150.592C220.945 151.216 220.465 152.08 220.321 153.184H228.529Z" fill="#272727"/>
<rect y="204" width="32" height="32" rx="16" fill="#98C5C2"/>
<path d="M13.4856 223.2L22.6286 214.057L24 215.429L13.4856 225.943L8 220.457L9.3714 219.086L13.4856 223.2Z" fill="black"/>
<path d="M60.152 213.384L58.952 214.776C58.304 214.152 57.536 213.672 56.648 213.336C55.736 213 54.848 212.808 53.984 212.808C51.896 212.808 50.264 213.48 49.088 214.824C47.888 216.168 47.312 217.8 47.312 219.744C47.312 221.592 47.888 223.152 49.04 224.424C50.192 225.72 51.872 226.344 54.032 226.344C55.76 226.344 57.296 225.792 58.616 224.64V220.656H53.384V218.808H60.512V225.456C58.736 227.376 56.552 228.312 54.008 228.312C52.568 228.312 51.272 228.096 50.12 227.616C48.968 227.16 48.056 226.536 47.36 225.72C46.664 224.928 46.136 224.016 45.776 223.008C45.416 222 45.248 220.896 45.248 219.744C45.224 217.176 46.016 215.064 47.6 213.384C49.184 211.704 51.296 210.864 53.984 210.864C56.384 210.864 58.448 211.704 60.152 213.384ZM65.3662 216.144L65.3902 216.12L65.5342 217.896C66.2302 216.6 67.4542 215.928 69.1822 215.928C70.2142 215.904 71.1262 216.192 71.9422 216.816L71.0542 218.496C70.4302 218.064 69.7342 217.848 68.9902 217.848C68.0062 217.872 67.1902 218.208 66.5182 218.856C65.8462 219.504 65.5102 220.344 65.5102 221.4V228H63.5422V216.144H65.3662ZM83.2248 228L83.1768 228.048L83.1288 225.888C82.6728 226.68 82.0488 227.28 81.2568 227.688C80.4408 228.096 79.6248 228.288 78.7608 228.288C77.0088 228.288 75.5688 227.736 74.4168 226.608C73.2648 225.48 72.6888 223.968 72.6888 222.072C72.6888 220.2 73.2648 218.712 74.4168 217.608C75.5688 216.504 77.0328 215.952 78.7848 215.952C79.6968 215.952 80.5368 216.168 81.3528 216.576C82.1448 216.984 82.7448 217.56 83.1768 218.304L83.2008 216.144H85.1208V228H83.2248ZM78.8808 217.8L78.8568 217.824C77.6568 217.824 76.6488 218.232 75.8328 219.024C75.0168 219.816 74.6088 220.848 74.6088 222.144C74.6088 223.44 75.0168 224.496 75.8328 225.288C76.6488 226.104 77.6568 226.488 78.8568 226.488C79.6248 226.488 80.3208 226.344 80.9448 226.008C81.5688 225.696 82.0248 225.288 82.3608 224.76C82.6728 224.256 82.9128 223.704 83.0568 223.08C83.2008 222.456 83.2008 221.856 83.0568 221.232C82.9128 220.608 82.6728 220.056 82.3608 219.528C82.0248 219.024 81.5688 218.616 80.9688 218.28C80.3448 217.968 79.6488 217.8 78.8808 217.8ZM88.7141 216.144V216.12H90.5141L90.6101 218.016C91.6181 216.648 92.9621 215.952 94.6661 215.952C96.2021 215.952 97.4501 216.456 98.4101 217.44C99.3701 218.424 99.8741 219.768 99.8741 221.448V228H97.9061V221.472C97.9061 220.32 97.5701 219.432 96.9461 218.76C96.2981 218.112 95.4101 217.776 94.3061 217.776C93.2261 217.8 92.3381 218.184 91.6661 218.904C90.9941 219.648 90.6581 220.56 90.6581 221.64V228H88.7141V216.144ZM112.508 228H112.532L112.436 226.104C111.428 227.472 110.036 228.168 108.308 228.192C106.772 228.192 105.524 227.712 104.564 226.728C103.604 225.744 103.148 224.4 103.148 222.696V216.144H105.116V222.672C105.116 223.824 105.428 224.736 106.076 225.384C106.7 226.056 107.588 226.368 108.716 226.368C109.772 226.368 110.66 225.984 111.332 225.24C112.004 224.52 112.364 223.608 112.364 222.504V216.144H114.332V228H112.508ZM120.053 211.2V228H118.085V211.2H120.053ZM133.592 228L133.544 228.048L133.496 225.888C133.04 226.68 132.416 227.28 131.624 227.688C130.808 228.096 129.992 228.288 129.128 228.288C127.376 228.288 125.936 227.736 124.784 226.608C123.632 225.48 123.056 223.968 123.056 222.072C123.056 220.2 123.632 218.712 124.784 217.608C125.936 216.504 127.4 215.952 129.152 215.952C130.064 215.952 130.904 216.168 131.72 216.576C132.512 216.984 133.112 217.56 133.544 218.304L133.568 216.144H135.488V228H133.592ZM129.248 217.8L129.224 217.824C128.024 217.824 127.016 218.232 126.2 219.024C125.384 219.816 124.976 220.848 124.976 222.144C124.976 223.44 125.384 224.496 126.2 225.288C127.016 226.104 128.024 226.488 129.224 226.488C129.992 226.488 130.688 226.344 131.312 226.008C131.936 225.696 132.392 225.288 132.728 224.76C133.04 224.256 133.28 223.704 133.424 223.08C133.568 222.456 133.568 221.856 133.424 221.232C133.28 220.608 133.04 220.056 132.728 219.528C132.392 219.024 131.936 218.616 131.336 218.28C130.712 217.968 130.016 217.8 129.248 217.8ZM140.905 216.144L140.929 216.12L141.073 217.896C141.769 216.6 142.993 215.928 144.721 215.928C145.753 215.904 146.665 216.192 147.481 216.816L146.593 218.496C145.969 218.064 145.273 217.848 144.529 217.848C143.545 217.872 142.729 218.208 142.057 218.856C141.385 219.504 141.049 220.344 141.049 221.4V228H139.081V216.144H140.905ZM166.734 228L161.502 221.952H157.422V228H155.334V211.2H162.966C164.742 211.2 166.134 211.728 167.142 212.784C168.15 213.84 168.654 215.112 168.654 216.576C168.654 217.968 168.27 219.144 167.478 220.128C166.662 221.112 165.462 221.664 163.83 221.784L169.374 228H166.734ZM162.87 220.08C164.07 220.08 164.982 219.768 165.606 219.12C166.23 218.472 166.566 217.632 166.566 216.624C166.566 215.712 166.254 214.872 165.63 214.152C164.982 213.432 164.094 213.072 162.966 213.072H157.422V220.08H162.87ZM182.034 226.104H182.01C181.434 226.8 180.666 227.328 179.754 227.688C178.818 228.048 177.858 228.216 176.898 228.216C175.026 228.216 173.538 227.664 172.386 226.536C171.234 225.408 170.658 223.896 170.658 222.024C170.658 220.248 171.234 218.76 172.386 217.608C173.538 216.456 175.002 215.88 176.802 215.88C178.722 215.88 180.234 216.48 181.362 217.68C182.49 218.88 182.946 220.584 182.73 222.84H172.65C172.746 223.92 173.202 224.784 174.018 225.432C174.81 226.08 175.794 226.392 176.946 226.392C177.642 226.392 178.338 226.272 179.058 226.008C179.778 225.744 180.33 225.384 180.714 224.904L182.034 226.104ZM180.858 221.184V221.208C180.81 220.08 180.426 219.216 179.706 218.592C178.986 217.968 178.026 217.656 176.85 217.656C175.77 217.656 174.834 217.968 174.066 218.592C173.274 219.216 172.794 220.08 172.65 221.184H180.858ZM193.096 218.76L193.072 218.784C192.208 218.016 191.104 217.632 189.736 217.632C188.872 217.632 188.152 217.776 187.6 218.064C187.048 218.376 186.784 218.808 186.808 219.36C186.808 220.32 187.792 220.896 189.76 221.112C190.312 221.184 190.768 221.256 191.128 221.304C191.488 221.376 191.92 221.496 192.448 221.664C192.952 221.832 193.36 222.024 193.648 222.264C193.936 222.504 194.2 222.84 194.44 223.272C194.656 223.704 194.752 224.184 194.752 224.736C194.728 225.888 194.248 226.752 193.312 227.376C192.352 228 191.176 228.288 189.784 228.288C187.432 228.288 185.656 227.544 184.48 226.056L185.608 224.688C186.592 225.912 188.008 226.512 189.832 226.512C190.6 226.512 191.296 226.368 191.896 226.08C192.496 225.792 192.808 225.336 192.832 224.664C192.832 224.088 192.568 223.656 192.016 223.368C191.464 223.104 190.672 222.912 189.64 222.768C188.968 222.696 188.392 222.6 187.912 222.456C187.432 222.336 186.928 222.144 186.448 221.904C185.944 221.664 185.56 221.352 185.296 220.92C185.032 220.488 184.912 219.984 184.912 219.36C184.912 218.568 185.152 217.896 185.656 217.344C186.136 216.816 186.736 216.432 187.432 216.192C188.128 215.976 188.896 215.88 189.712 215.88C191.536 215.88 193.048 216.408 194.224 217.464L193.096 218.76ZM200.777 212.688V216.168H204.449V217.848H200.753V224.112C200.753 225.648 201.377 226.392 202.625 226.392C203.153 226.392 203.705 226.248 204.281 225.96L204.857 227.592C204.041 227.976 203.273 228.168 202.553 228.168C200.057 228.216 198.809 226.872 198.809 224.112V217.848H196.433V216.168H198.809V212.904L200.777 212.688ZM206.212 222.096C206.212 220.272 206.788 218.784 207.94 217.632C209.092 216.48 210.58 215.88 212.356 215.88C214.156 215.88 215.644 216.456 216.796 217.608C217.948 218.76 218.524 220.272 218.524 222.096C218.524 223.896 217.924 225.36 216.772 226.512C215.62 227.664 214.132 228.216 212.356 228.216C210.58 228.216 209.092 227.664 207.94 226.512C206.788 225.36 206.212 223.896 206.212 222.096ZM216.58 222.096C216.58 220.8 216.172 219.744 215.38 218.928C214.564 218.112 213.58 217.68 212.38 217.68C211.156 217.68 210.148 218.088 209.356 218.904C208.564 219.72 208.18 220.8 208.18 222.096C208.18 223.344 208.564 224.376 209.356 225.168C210.124 225.984 211.132 226.368 212.356 226.368C213.556 226.368 214.564 225.984 215.356 225.168C216.148 224.376 216.556 223.344 216.58 222.096ZM223.171 216.144L223.195 216.12L223.339 217.896C224.035 216.6 225.259 215.928 226.987 215.928C228.019 215.904 228.931 216.192 229.747 216.816L228.859 218.496C228.235 218.064 227.539 217.848 226.795 217.848C225.811 217.872 224.995 218.208 224.323 218.856C223.651 219.504 223.315 220.344 223.315 221.4V228H221.347V216.144H223.171ZM241.87 226.104H241.846C241.27 226.8 240.502 227.328 239.59 227.688C238.654 228.048 237.694 228.216 236.734 228.216C234.862 228.216 233.374 227.664 232.222 226.536C231.07 225.408 230.494 223.896 230.494 222.024C230.494 220.248 231.07 218.76 232.222 217.608C233.374 216.456 234.838 215.88 236.638 215.88C238.558 215.88 240.07 216.48 241.198 217.68C242.326 218.88 242.782 220.584 242.566 222.84H232.486C232.582 223.92 233.038 224.784 233.854 225.432C234.646 226.08 235.63 226.392 236.782 226.392C237.478 226.392 238.174 226.272 238.894 226.008C239.614 225.744 240.166 225.384 240.55 224.904L241.87 226.104ZM240.694 221.184V221.208C240.646 220.08 240.262 219.216 239.542 218.592C238.822 217.968 237.862 217.656 236.686 217.656C235.605 217.656 234.67 217.968 233.902 218.592C233.11 219.216 232.63 220.08 232.486 221.184H240.694Z" fill="#272727"/>
<rect y="272" width="32" height="32" rx="16" fill="#98C5C2"/>
<path d="M13.4856 291.2L22.6286 282.057L24 283.429L13.4856 293.943L8 288.457L9.3714 287.086L13.4856 291.2Z" fill="black"/>
<path d="M46.232 296V279.2H58.04V281.12H48.296V286.376H57.632V288.32H48.296V294.008H58.424V296H46.232ZM70.9904 296L70.9424 296.048L70.8944 293.888C70.4384 294.68 69.8144 295.28 69.0224 295.688C68.2064 296.096 67.3904 296.288 66.5264 296.288C64.7744 296.288 63.3344 295.736 62.1824 294.608C61.0304 293.48 60.4544 291.968 60.4544 290.072C60.4544 288.2 61.0304 286.712 62.1824 285.608C63.3344 284.504 64.7984 283.952 66.5504 283.952C67.4624 283.952 68.3024 284.168 69.1184 284.576C69.9104 284.984 70.5104 285.56 70.9424 286.304L70.9664 284.144H72.8864V296H70.9904ZM66.6464 285.8L66.6224 285.824C65.4224 285.824 64.4144 286.232 63.5984 287.024C62.7824 287.816 62.3744 288.848 62.3744 290.144C62.3744 291.44 62.7824 292.496 63.5984 293.288C64.4144 294.104 65.4224 294.488 66.6224 294.488C67.3904 294.488 68.0864 294.344 68.7104 294.008C69.3344 293.696 69.7904 293.288 70.1264 292.76C70.4384 292.256 70.6784 291.704 70.8224 291.08C70.9664 290.456 70.9664 289.856 70.8224 289.232C70.6784 288.608 70.4384 288.056 70.1264 287.528C69.7904 287.024 69.3344 286.616 68.7344 286.28C68.1104 285.968 67.4144 285.8 66.6464 285.8ZM84.1117 286.76L84.0877 286.784C83.2237 286.016 82.1197 285.632 80.7517 285.632C79.8877 285.632 79.1677 285.776 78.6157 286.064C78.0637 286.376 77.7997 286.808 77.8237 287.36C77.8237 288.32 78.8077 288.896 80.7757 289.112C81.3277 289.184 81.7837 289.256 82.1437 289.304C82.5037 289.376 82.9357 289.496 83.4637 289.664C83.9677 289.832 84.3757 290.024 84.6637 290.264C84.9517 290.504 85.2157 290.84 85.4557 291.272C85.6717 291.704 85.7677 292.184 85.7677 292.736C85.7437 293.888 85.2637 294.752 84.3277 295.376C83.3677 296 82.1917 296.288 80.7997 296.288C78.4477 296.288 76.6717 295.544 75.4957 294.056L76.6237 292.688C77.6077 293.912 79.0237 294.512 80.8477 294.512C81.6157 294.512 82.3117 294.368 82.9117 294.08C83.5117 293.792 83.8237 293.336 83.8477 292.664C83.8477 292.088 83.5837 291.656 83.0317 291.368C82.4797 291.104 81.6877 290.912 80.6557 290.768C79.9837 290.696 79.4077 290.6 78.9277 290.456C78.4477 290.336 77.9437 290.144 77.4637 289.904C76.9597 289.664 76.5757 289.352 76.3117 288.92C76.0477 288.488 75.9277 287.984 75.9277 287.36C75.9277 286.568 76.1677 285.896 76.6717 285.344C77.1517 284.816 77.7517 284.432 78.4477 284.192C79.1437 283.976 79.9117 283.88 80.7277 283.88C82.5517 283.88 84.0637 284.408 85.2397 285.464L84.1117 286.76ZM99.0883 294.104H99.0643C98.4883 294.8 97.7203 295.328 96.8083 295.688C95.8723 296.048 94.9123 296.216 93.9523 296.216C92.0803 296.216 90.5923 295.664 89.4403 294.536C88.2883 293.408 87.7123 291.896 87.7123 290.024C87.7123 288.248 88.2883 286.76 89.4403 285.608C90.5923 284.456 92.0563 283.88 93.8563 283.88C95.7763 283.88 97.2883 284.48 98.4163 285.68C99.5443 286.88 100 288.584 99.7843 290.84H89.7043C89.8003 291.92 90.2563 292.784 91.0723 293.432C91.8643 294.08 92.8483 294.392 94.0003 294.392C94.6963 294.392 95.3923 294.272 96.1123 294.008C96.8323 293.744 97.3843 293.384 97.7683 292.904L99.0883 294.104ZM97.9123 289.184V289.208C97.8643 288.08 97.4803 287.216 96.7603 286.592C96.0403 285.968 95.0803 285.656 93.9043 285.656C92.8242 285.656 91.8883 285.968 91.1203 286.592C90.3283 287.216 89.8483 288.08 89.7043 289.184H97.9123ZM107.891 290.096C107.891 288.272 108.467 286.784 109.619 285.632C110.771 284.48 112.259 283.88 114.035 283.88C115.835 283.88 117.323 284.456 118.475 285.608C119.627 286.76 120.203 288.272 120.203 290.096C120.203 291.896 119.603 293.36 118.451 294.512C117.299 295.664 115.811 296.216 114.035 296.216C112.259 296.216 110.771 295.664 109.619 294.512C108.467 293.36 107.891 291.896 107.891 290.096ZM118.259 290.096C118.259 288.8 117.851 287.744 117.059 286.928C116.243 286.112 115.259 285.68 114.059 285.68C112.835 285.68 111.827 286.088 111.035 286.904C110.243 287.72 109.859 288.8 109.859 290.096C109.859 291.344 110.243 292.376 111.035 293.168C111.803 293.984 112.811 294.368 114.035 294.368C115.235 294.368 116.243 293.984 117.035 293.168C117.827 292.376 118.235 291.344 118.259 290.096ZM124.135 296L124.159 296.024V286.016H121.831V284.288H124.159V283.352C124.159 282.008 124.495 280.952 125.215 280.184C125.911 279.44 126.895 279.056 128.143 279.056C129.079 279.056 129.967 279.344 130.831 279.92L130.015 281.384C129.343 281 128.719 280.784 128.191 280.784C126.799 280.784 126.103 281.648 126.103 283.352V284.288H129.823V286.016H126.103V296H124.135ZM151.525 279.2L151.549 279.224V289.304C151.549 291.536 150.877 293.264 149.581 294.488C148.285 295.712 146.653 296.312 144.733 296.312C142.813 296.312 141.181 295.712 139.837 294.488C138.493 293.288 137.845 291.56 137.845 289.304V279.224H139.909V289.304C139.909 290.912 140.365 292.16 141.301 293.048C142.213 293.96 143.365 294.392 144.733 294.392C146.077 294.392 147.205 293.936 148.117 293.024C149.029 292.112 149.485 290.864 149.485 289.28V279.2H151.525ZM162.698 286.76L162.674 286.784C161.81 286.016 160.706 285.632 159.338 285.632C158.474 285.632 157.754 285.776 157.202 286.064C156.65 286.376 156.386 286.808 156.41 287.36C156.41 288.32 157.394 288.896 159.362 289.112C159.914 289.184 160.37 289.256 160.73 289.304C161.09 289.376 161.522 289.496 162.05 289.664C162.554 289.832 162.962 290.024 163.25 290.264C163.538 290.504 163.802 290.84 164.042 291.272C164.258 291.704 164.354 292.184 164.354 292.736C164.33 293.888 163.85 294.752 162.914 295.376C161.954 296 160.778 296.288 159.386 296.288C157.034 296.288 155.258 295.544 154.082 294.056L155.21 292.688C156.194 293.912 157.61 294.512 159.434 294.512C160.202 294.512 160.898 294.368 161.498 294.08C162.098 293.792 162.41 293.336 162.434 292.664C162.434 292.088 162.17 291.656 161.618 291.368C161.066 291.104 160.274 290.912 159.242 290.768C158.57 290.696 157.994 290.6 157.514 290.456C157.034 290.336 156.53 290.144 156.05 289.904C155.546 289.664 155.162 289.352 154.898 288.92C154.634 288.488 154.514 287.984 154.514 287.36C154.514 286.568 154.754 285.896 155.258 285.344C155.738 284.816 156.338 284.432 157.034 284.192C157.73 283.976 158.498 283.88 159.314 283.88C161.138 283.88 162.65 284.408 163.826 285.464L162.698 286.76ZM177.674 294.104H177.65C177.074 294.8 176.306 295.328 175.394 295.688C174.458 296.048 173.498 296.216 172.538 296.216C170.666 296.216 169.178 295.664 168.026 294.536C166.874 293.408 166.298 291.896 166.298 290.024C166.298 288.248 166.874 286.76 168.026 285.608C169.178 284.456 170.642 283.88 172.442 283.88C174.362 283.88 175.874 284.48 177.002 285.68C178.13 286.88 178.586 288.584 178.37 290.84H168.29C168.386 291.92 168.842 292.784 169.658 293.432C170.45 294.08 171.434 294.392 172.586 294.392C173.282 294.392 173.978 294.272 174.698 294.008C175.418 293.744 175.97 293.384 176.354 292.904L177.674 294.104ZM176.498 289.184V289.208C176.45 288.08 176.066 287.216 175.346 286.592C174.626 285.968 173.666 285.656 172.49 285.656C171.41 285.656 170.474 285.968 169.706 286.592C168.914 287.216 168.434 288.08 168.29 289.184H176.498Z" fill="#272727"/>
<rect y="340" width="32" height="32" rx="16" fill="#98C5C2"/>
<path d="M13.4856 359.2L22.6286 350.057L24 351.429L13.4856 361.943L8 356.457L9.3714 355.086L13.4856 359.2Z" fill="black"/>
<path d="M50.144 349.072H44.408V347.2H57.944V349.072H52.208V364H50.144V349.072ZM59.4131 352.144L59.4371 352.12L59.5811 353.896C60.2771 352.6 61.5011 351.928 63.2291 351.928C64.2611 351.904 65.1731 352.192 65.9891 352.816L65.1011 354.496C64.4771 354.064 63.7811 353.848 63.0371 353.848C62.0531 353.872 61.2371 354.208 60.5651 354.856C59.8931 355.504 59.5571 356.344 59.5571 357.4V364H57.5891V352.144H59.4131ZM77.2717 364L77.2237 364.048L77.1757 361.888C76.7197 362.68 76.0957 363.28 75.3037 363.688C74.4877 364.096 73.6717 364.288 72.8077 364.288C71.0557 364.288 69.6157 363.736 68.4637 362.608C67.3117 361.48 66.7357 359.968 66.7357 358.072C66.7357 356.2 67.3117 354.712 68.4637 353.608C69.6157 352.504 71.0797 351.952 72.8317 351.952C73.7437 351.952 74.5837 352.168 75.3997 352.576C76.1917 352.984 76.7917 353.56 77.2237 354.304L77.2477 352.144H79.1677V364H77.2717ZM72.9277 353.8L72.9037 353.824C71.7037 353.824 70.6957 354.232 69.8797 355.024C69.0637 355.816 68.6557 356.848 68.6557 358.144C68.6557 359.44 69.0637 360.496 69.8797 361.288C70.6957 362.104 71.7037 362.488 72.9037 362.488C73.6717 362.488 74.3677 362.344 74.9917 362.008C75.6157 361.696 76.0717 361.288 76.4077 360.76C76.7197 360.256 76.9597 359.704 77.1037 359.08C77.2477 358.456 77.2477 357.856 77.1037 357.232C76.9597 356.608 76.7197 356.056 76.4077 355.528C76.0717 355.024 75.6157 354.616 75.0157 354.28C74.3917 353.968 73.6957 353.8 72.9277 353.8ZM82.7609 352.144V352.12H84.5609L84.6569 354.016C85.6649 352.648 87.0089 351.952 88.7129 351.952C90.2489 351.952 91.4969 352.456 92.4569 353.44C93.4169 354.424 93.9209 355.768 93.9209 357.448V364H91.9529V357.472C91.9529 356.32 91.6169 355.432 90.9929 354.76C90.3449 354.112 89.4569 353.776 88.3529 353.776C87.2729 353.8 86.3849 354.184 85.7129 354.904C85.0409 355.648 84.7049 356.56 84.7049 357.64V364H82.7609V352.144ZM104.995 354.76L104.971 354.784C104.107 354.016 103.003 353.632 101.635 353.632C100.771 353.632 100.051 353.776 99.4985 354.064C98.9465 354.376 98.6825 354.808 98.7065 355.36C98.7065 356.32 99.6905 356.896 101.659 357.112C102.211 357.184 102.667 357.256 103.027 357.304C103.387 357.376 103.819 357.496 104.347 357.664C104.851 357.832 105.259 358.024 105.547 358.264C105.835 358.504 106.099 358.84 106.339 359.272C106.555 359.704 106.651 360.184 106.651 360.736C106.627 361.888 106.147 362.752 105.211 363.376C104.251 364 103.075 364.288 101.683 364.288C99.3305 364.288 97.5545 363.544 96.3785 362.056L97.5065 360.688C98.4905 361.912 99.9065 362.512 101.73 362.512C102.499 362.512 103.195 362.368 103.795 362.08C104.395 361.792 104.707 361.336 104.731 360.664C104.731 360.088 104.467 359.656 103.915 359.368C103.363 359.104 102.571 358.912 101.539 358.768C100.867 358.696 100.291 358.6 99.8105 358.456C99.3305 358.336 98.8265 358.144 98.3465 357.904C97.8425 357.664 97.4585 357.352 97.1945 356.92C96.9305 356.488 96.8105 355.984 96.8105 355.36C96.8105 354.568 97.0505 353.896 97.5545 353.344C98.0345 352.816 98.6345 352.432 99.3305 352.192C100.027 351.976 100.795 351.88 101.611 351.88C103.435 351.88 104.947 352.408 106.123 353.464L104.995 354.76ZM109.339 369.592V352.192H111.211L111.307 354.472C111.763 353.704 112.411 353.08 113.227 352.648C114.043 352.216 114.907 351.976 115.867 351.976C117.595 352.024 119.011 352.6 120.115 353.704C121.219 354.832 121.771 356.296 121.771 358.096C121.771 359.968 121.195 361.456 120.091 362.584C118.987 363.712 117.523 364.264 115.747 364.264C114.835 364.264 113.971 364.072 113.155 363.664C112.339 363.28 111.691 362.68 111.259 361.864V369.592H109.339ZM115.627 362.416C116.827 362.416 117.835 362.032 118.627 361.264C119.395 360.496 119.803 359.464 119.803 358.144C119.803 356.848 119.395 355.816 118.627 355.048C117.859 354.28 116.851 353.896 115.627 353.896C114.379 353.896 113.395 354.304 112.627 355.096C111.859 355.912 111.475 356.92 111.475 358.144C111.475 359.368 111.859 360.376 112.651 361.192C113.419 362.008 114.427 362.416 115.627 362.416ZM134.412 364L134.364 364.048L134.316 361.888C133.86 362.68 133.236 363.28 132.444 363.688C131.628 364.096 130.812 364.288 129.948 364.288C128.196 364.288 126.756 363.736 125.604 362.608C124.452 361.48 123.876 359.968 123.876 358.072C123.876 356.2 124.452 354.712 125.604 353.608C126.756 352.504 128.22 351.952 129.972 351.952C130.884 351.952 131.724 352.168 132.54 352.576C133.332 352.984 133.932 353.56 134.364 354.304L134.388 352.144H136.308V364H134.412ZM130.068 353.8L130.044 353.824C128.844 353.824 127.836 354.232 127.02 355.024C126.204 355.816 125.796 356.848 125.796 358.144C125.796 359.44 126.204 360.496 127.02 361.288C127.836 362.104 128.844 362.488 130.044 362.488C130.812 362.488 131.508 362.344 132.132 362.008C132.756 361.696 133.212 361.288 133.548 360.76C133.86 360.256 134.1 359.704 134.244 359.08C134.388 358.456 134.388 357.856 134.244 357.232C134.1 356.608 133.86 356.056 133.548 355.528C133.212 355.024 132.756 354.616 132.156 354.28C131.532 353.968 130.836 353.8 130.068 353.8ZM141.726 352.144L141.75 352.12L141.894 353.896C142.59 352.6 143.814 351.928 145.542 351.928C146.574 351.904 147.486 352.192 148.302 352.816L147.414 354.496C146.79 354.064 146.094 353.848 145.35 353.848C144.366 353.872 143.55 354.208 142.878 354.856C142.206 355.504 141.87 356.344 141.87 357.4V364H139.902V352.144H141.726ZM160.424 362.104H160.4C159.824 362.8 159.056 363.328 158.144 363.688C157.208 364.048 156.248 364.216 155.288 364.216C153.416 364.216 151.928 363.664 150.776 362.536C149.624 361.408 149.048 359.896 149.048 358.024C149.048 356.248 149.624 354.76 150.776 353.608C151.928 352.456 153.392 351.88 155.192 351.88C157.112 351.88 158.624 352.48 159.752 353.68C160.88 354.88 161.336 356.584 161.12 358.84H151.04C151.136 359.92 151.592 360.784 152.408 361.432C153.2 362.08 154.184 362.392 155.336 362.392C156.032 362.392 156.728 362.272 157.448 362.008C158.168 361.744 158.72 361.384 159.104 360.904L160.424 362.104ZM159.248 357.184V357.208C159.2 356.08 158.816 355.216 158.096 354.592C157.376 353.968 156.416 353.656 155.24 353.656C154.16 353.656 153.224 353.968 152.456 354.592C151.664 355.216 151.184 356.08 151.04 357.184H159.248ZM163.855 352.144V352.12H165.655L165.751 354.016C166.759 352.648 168.103 351.952 169.807 351.952C171.343 351.952 172.591 352.456 173.551 353.44C174.511 354.424 175.015 355.768 175.015 357.448V364H173.047V357.472C173.047 356.32 172.711 355.432 172.087 354.76C171.439 354.112 170.551 353.776 169.447 353.776C168.367 353.8 167.479 354.184 166.807 354.904C166.135 355.648 165.799 356.56 165.799 357.64V364H163.855V352.144ZM181.488 348.688V352.168H185.16V353.848H181.464V360.112C181.464 361.648 182.088 362.392 183.336 362.392C183.864 362.392 184.416 362.248 184.992 361.96L185.568 363.592C184.752 363.976 183.984 364.168 183.264 364.168C180.768 364.216 179.52 362.872 179.52 360.112V353.848H177.144V352.168H179.52V348.904L181.488 348.688ZM196.327 358.576V364H194.263V347.2H201.895C202.951 347.2 203.887 347.416 204.727 347.824C205.543 348.256 206.191 348.784 206.623 349.456C207.055 350.128 207.367 350.872 207.559 351.688C207.751 352.504 207.751 353.296 207.559 354.112C207.367 354.928 207.055 355.648 206.623 356.32C206.191 356.992 205.543 357.52 204.727 357.952C203.887 358.384 202.951 358.576 201.895 358.576H196.327ZM201.895 356.632C202.663 356.632 203.359 356.464 203.935 356.08C204.511 355.72 204.943 355.264 205.207 354.688C205.447 354.136 205.591 353.536 205.591 352.888C205.591 352.264 205.447 351.664 205.207 351.088C204.943 350.536 204.511 350.08 203.935 349.696C203.359 349.336 202.663 349.144 201.895 349.144H196.327V356.632H201.895ZM211.944 352.144L211.968 352.12L212.112 353.896C212.808 352.6 214.032 351.928 215.76 351.928C216.792 351.904 217.704 352.192 218.52 352.816L217.632 354.496C217.008 354.064 216.312 353.848 215.568 353.848C214.584 353.872 213.768 354.208 213.096 354.856C212.424 355.504 212.088 356.344 212.088 357.4V364H210.12V352.144H211.944ZM220.098 348.52C220.098 349.072 220.314 349.456 220.746 349.672C221.178 349.912 221.61 349.912 222.042 349.696C222.474 349.48 222.69 349.096 222.69 348.544C222.69 348.016 222.474 347.632 222.042 347.392C221.61 347.176 221.178 347.176 220.746 347.392C220.314 347.608 220.098 347.992 220.098 348.52ZM220.386 352.096H222.354V364H220.386V352.096ZM235.852 362.416L235.828 362.392C234.604 363.616 233.14 364.216 231.412 364.216C229.636 364.216 228.172 363.688 226.996 362.584C225.796 361.48 225.22 359.992 225.22 358.072C225.22 356.152 225.796 354.664 226.972 353.56C228.124 352.48 229.612 351.928 231.412 351.928C233.068 351.928 234.508 352.528 235.708 353.704L234.46 355C233.644 354.208 232.636 353.8 231.46 353.8C230.236 353.8 229.228 354.208 228.412 354.976C227.596 355.744 227.212 356.776 227.212 358.072C227.212 359.416 227.596 360.448 228.412 361.216C229.228 361.984 230.236 362.344 231.436 362.344C232.684 362.344 233.716 361.936 234.532 361.096L235.852 362.416ZM238.051 348.52C238.051 349.072 238.267 349.456 238.699 349.672C239.131 349.912 239.563 349.912 239.995 349.696C240.427 349.48 240.643 349.096 240.643 348.544C240.643 348.016 240.427 347.632 239.995 347.392C239.563 347.176 239.131 347.176 238.699 347.392C238.267 347.608 238.051 347.992 238.051 348.52ZM238.339 352.096H240.307V364H238.339V352.096ZM243.917 352.144V352.12H245.717L245.813 354.016C246.821 352.648 248.165 351.952 249.869 351.952C251.405 351.952 252.653 352.456 253.613 353.44C254.573 354.424 255.077 355.768 255.077 357.448V364H253.109V357.472C253.109 356.32 252.773 355.432 252.149 354.76C251.501 354.112 250.613 353.776 249.509 353.776C248.429 353.8 247.541 354.184 246.869 354.904C246.197 355.648 245.861 356.56 245.861 357.64V364H243.917V352.144ZM259.839 365.992C259.839 367.072 260.223 367.888 261.039 368.416C261.855 368.968 262.839 369.256 264.039 369.256C265.191 369.256 266.175 369.04 266.991 368.584C267.807 368.128 268.215 367.408 268.215 366.448C268.215 365.536 267.807 364.84 267.015 364.336C266.223 363.856 265.239 363.592 264.063 363.592C262.167 363.592 260.655 363.088 259.503 362.032C258.351 361 257.799 359.56 257.799 357.736C257.799 355.912 258.423 354.472 259.671 353.416C260.919 352.384 262.383 351.856 264.063 351.856C265.455 351.856 266.559 352.168 267.423 352.744L268.695 351.208L270.087 352.312L268.743 353.896C269.751 355.048 270.279 356.344 270.279 357.736C270.279 358.84 269.991 359.824 269.415 360.712C268.839 361.6 268.023 362.224 266.943 362.56C269.103 363.208 270.207 364.504 270.207 366.424C270.207 367.888 269.583 369.016 268.383 369.832C267.159 370.648 265.695 371.056 264.015 371.056C262.191 371.056 260.703 370.624 259.575 369.712C258.447 368.8 257.895 367.576 257.943 365.992H259.839ZM259.743 357.736C259.743 359.056 260.175 360.064 260.991 360.784C261.807 361.504 262.839 361.864 264.087 361.864C265.335 361.864 266.343 361.48 267.159 360.688C267.951 359.896 268.359 358.912 268.359 357.76C268.359 356.464 267.927 355.456 267.087 354.736C266.247 354.016 265.239 353.656 264.063 353.656C262.911 353.656 261.903 354.016 261.039 354.736C260.175 355.456 259.743 356.44 259.743 357.736Z" fill="#272727"/>
<rect y="408" width="32" height="32" rx="16" fill="#98C5C2"/>
<path d="M13.4856 427.2L22.6286 418.057L24 419.429L13.4856 429.943L8 424.457L9.3714 423.086L13.4856 427.2Z" fill="black"/>
<path d="M46.232 415.2H47.696L57.992 428.064V415.2H60.056V432H58.616L48.296 419.184V432H46.232V415.2ZM63.032 426.096C63.032 424.272 63.608 422.784 64.76 421.632C65.912 420.48 67.4 419.88 69.176 419.88C70.976 419.88 72.464 420.456 73.616 421.608C74.768 422.76 75.344 424.272 75.344 426.096C75.344 427.896 74.744 429.36 73.592 430.512C72.44 431.664 70.952 432.216 69.176 432.216C67.4 432.216 65.912 431.664 64.76 430.512C63.608 429.36 63.032 427.896 63.032 426.096ZM73.4 426.096C73.4 424.8 72.992 423.744 72.2 422.928C71.384 422.112 70.4 421.68 69.2 421.68C67.976 421.68 66.968 422.088 66.176 422.904C65.384 423.72 65 424.8 65 426.096C65 427.344 65.384 428.376 66.176 429.168C66.944 429.984 67.952 430.368 69.176 430.368C70.376 430.368 71.384 429.984 72.176 429.168C72.968 428.376 73.376 427.344 73.4 426.096ZM96.4278 432V424.416H86.8278V432H84.7398V415.2H86.8278V422.472H96.4278V415.2H98.5158V432H96.4278ZM102.254 416.52C102.254 417.072 102.47 417.456 102.902 417.672C103.334 417.912 103.766 417.912 104.198 417.696C104.63 417.48 104.846 417.096 104.846 416.544C104.846 416.016 104.63 415.632 104.198 415.392C103.766 415.176 103.334 415.176 102.902 415.392C102.47 415.608 102.254 415.992 102.254 416.52ZM102.542 420.096H104.51V432H102.542V420.096ZM119.76 415.2L119.784 415.176V431.976H117.936L117.84 429.816C117.36 430.608 116.736 431.208 115.944 431.616C115.152 432.024 114.312 432.216 113.4 432.216C111.648 432.216 110.208 431.688 109.08 430.584C107.952 429.48 107.4 427.992 107.4 426.072C107.4 424.152 107.952 422.64 109.08 421.56C110.184 420.48 111.624 419.928 113.376 419.928C114.264 419.928 115.128 420.144 115.968 420.552C116.784 420.96 117.408 421.536 117.816 422.304V415.2H119.76ZM113.52 421.752H113.544C112.344 421.752 111.336 422.136 110.544 422.904C109.752 423.672 109.368 424.704 109.368 426.048C109.368 427.392 109.752 428.424 110.544 429.192C111.336 429.96 112.344 430.344 113.544 430.344C114.744 430.344 115.728 429.96 116.544 429.144C117.336 428.352 117.744 427.32 117.744 426.024C117.744 424.776 117.336 423.768 116.52 422.952C115.704 422.16 114.72 421.752 113.52 421.752ZM135.018 415.2L135.042 415.176V431.976H133.194L133.098 429.816C132.618 430.608 131.994 431.208 131.202 431.616C130.41 432.024 129.57 432.216 128.658 432.216C126.906 432.216 125.466 431.688 124.338 430.584C123.21 429.48 122.658 427.992 122.658 426.072C122.658 424.152 123.21 422.64 124.338 421.56C125.442 420.48 126.882 419.928 128.634 419.928C129.522 419.928 130.386 420.144 131.226 420.552C132.042 420.96 132.666 421.536 133.074 422.304V415.2H135.018ZM128.778 421.752H128.802C127.602 421.752 126.594 422.136 125.802 422.904C125.01 423.672 124.626 424.704 124.626 426.048C124.626 427.392 125.01 428.424 125.802 429.192C126.594 429.96 127.602 430.344 128.802 430.344C130.002 430.344 130.986 429.96 131.802 429.144C132.594 428.352 133.002 427.32 133.002 426.024C133.002 424.776 132.594 423.768 131.778 422.952C130.962 422.16 129.978 421.752 128.778 421.752ZM149.268 430.104H149.244C148.668 430.8 147.9 431.328 146.988 431.688C146.052 432.048 145.092 432.216 144.132 432.216C142.26 432.216 140.772 431.664 139.62 430.536C138.468 429.408 137.892 427.896 137.892 426.024C137.892 424.248 138.468 422.76 139.62 421.608C140.772 420.456 142.236 419.88 144.036 419.88C145.956 419.88 147.468 420.48 148.596 421.68C149.724 422.88 150.18 424.584 149.964 426.84H139.884C139.98 427.92 140.436 428.784 141.252 429.432C142.044 430.08 143.028 430.392 144.18 430.392C144.876 430.392 145.572 430.272 146.292 430.008C147.012 429.744 147.564 429.384 147.948 428.904L149.268 430.104ZM148.092 425.184V425.208C148.044 424.08 147.66 423.216 146.94 422.592C146.22 421.968 145.26 421.656 144.084 421.656C143.004 421.656 142.068 421.968 141.3 422.592C140.508 423.216 140.028 424.08 139.884 425.184H148.092ZM152.698 420.144V420.12H154.498L154.594 422.016C155.602 420.648 156.946 419.952 158.65 419.952C160.186 419.952 161.434 420.456 162.394 421.44C163.354 422.424 163.858 423.768 163.858 425.448V432H161.89V425.472C161.89 424.32 161.554 423.432 160.93 422.76C160.282 422.112 159.394 421.776 158.29 421.776C157.21 421.8 156.322 422.184 155.65 422.904C154.978 423.648 154.642 424.56 154.642 425.64V432H152.698V420.144ZM173.873 415.2H185.537V417.192H175.961V423.048H185.129V424.992H175.961V432.024H173.873V415.2ZM198.791 430.104H198.767C198.191 430.8 197.423 431.328 196.511 431.688C195.575 432.048 194.615 432.216 193.655 432.216C191.783 432.216 190.295 431.664 189.143 430.536C187.991 429.408 187.415 427.896 187.415 426.024C187.415 424.248 187.991 422.76 189.143 421.608C190.295 420.456 191.759 419.88 193.559 419.88C195.479 419.88 196.991 420.48 198.119 421.68C199.247 422.88 199.703 424.584 199.487 426.84H189.407C189.503 427.92 189.959 428.784 190.775 429.432C191.567 430.08 192.551 430.392 193.703 430.392C194.399 430.392 195.095 430.272 195.815 430.008C196.535 429.744 197.087 429.384 197.471 428.904L198.791 430.104ZM197.615 425.184V425.208C197.567 424.08 197.183 423.216 196.463 422.592C195.743 421.968 194.783 421.656 193.607 421.656C192.527 421.656 191.591 421.968 190.823 422.592C190.031 423.216 189.551 424.08 189.407 425.184H197.615ZM212.854 430.104H212.83C212.254 430.8 211.486 431.328 210.574 431.688C209.638 432.048 208.678 432.216 207.718 432.216C205.846 432.216 204.358 431.664 203.206 430.536C202.054 429.408 201.478 427.896 201.478 426.024C201.478 424.248 202.054 422.76 203.206 421.608C204.358 420.456 205.822 419.88 207.622 419.88C209.542 419.88 211.054 420.48 212.182 421.68C213.31 422.88 213.766 424.584 213.55 426.84H203.47C203.566 427.92 204.022 428.784 204.838 429.432C205.63 430.08 206.614 430.392 207.766 430.392C208.462 430.392 209.158 430.272 209.878 430.008C210.598 429.744 211.15 429.384 211.534 428.904L212.854 430.104ZM211.678 425.184V425.208C211.63 424.08 211.246 423.216 210.526 422.592C209.806 421.968 208.846 421.656 207.67 421.656C206.59 421.656 205.654 421.968 204.886 422.592C204.094 423.216 203.614 424.08 203.47 425.184H211.678ZM223.916 422.76L223.892 422.784C223.028 422.016 221.924 421.632 220.556 421.632C219.692 421.632 218.972 421.776 218.42 422.064C217.868 422.376 217.604 422.808 217.628 423.36C217.628 424.32 218.612 424.896 220.58 425.112C221.132 425.184 221.588 425.256 221.948 425.304C222.308 425.376 222.74 425.496 223.268 425.664C223.772 425.832 224.18 426.024 224.468 426.264C224.756 426.504 225.02 426.84 225.26 427.272C225.476 427.704 225.572 428.184 225.572 428.736C225.548 429.888 225.068 430.752 224.132 431.376C223.172 432 221.996 432.288 220.604 432.288C218.252 432.288 216.476 431.544 215.3 430.056L216.428 428.688C217.412 429.912 218.828 430.512 220.652 430.512C221.42 430.512 222.116 430.368 222.716 430.08C223.316 429.792 223.628 429.336 223.652 428.664C223.652 428.088 223.388 427.656 222.836 427.368C222.284 427.104 221.492 426.912 220.46 426.768C219.788 426.696 219.212 426.6 218.732 426.456C218.252 426.336 217.748 426.144 217.268 425.904C216.764 425.664 216.38 425.352 216.116 424.92C215.852 424.488 215.732 423.984 215.732 423.36C215.732 422.568 215.972 421.896 216.476 421.344C216.956 420.816 217.556 420.432 218.252 420.192C218.948 419.976 219.716 419.88 220.532 419.88C222.356 419.88 223.868 420.408 225.044 421.464L223.916 422.76Z" fill="#272727"/>
<rect y="476" width="32" height="32" rx="16" fill="#98C5C2"/>
<path d="M13.4856 495.2L22.6286 486.057L24 487.429L13.4856 497.943L8 492.457L9.3714 491.086L13.4856 495.2Z" fill="black"/>
<path d="M46.232 500V483.2H58.04V485.12H48.296V490.376H57.632V492.32H48.296V498.008H58.424V500H46.232ZM75.3528 483.2L75.3768 483.224V493.304C75.3768 495.536 74.7048 497.264 73.4088 498.488C72.1128 499.712 70.4808 500.312 68.5608 500.312C66.6408 500.312 65.0088 499.712 63.6648 498.488C62.3208 497.288 61.6728 495.56 61.6728 493.304V483.224H63.7368V493.304C63.7368 494.912 64.1928 496.16 65.1288 497.048C66.0408 497.96 67.1928 498.392 68.5608 498.392C69.9048 498.392 71.0328 497.936 71.9448 497.024C72.8568 496.112 73.3128 494.864 73.3128 493.28V483.2H75.3528ZM85.7945 483.2V483.176H91.9145C93.2825 483.176 94.5305 483.416 95.6345 483.872C96.7385 484.352 97.6265 484.976 98.2985 485.744C98.9705 486.536 99.4745 487.424 99.8345 488.384C100.171 489.344 100.363 490.352 100.363 491.408C100.363 492.512 100.195 493.568 99.8585 494.576C99.5225 495.584 99.0185 496.496 98.3465 497.312C97.6745 498.128 96.7865 498.8 95.6825 499.28C94.5785 499.76 93.3065 500 91.9145 500H85.7945V483.2ZM91.9145 497.912C93.9785 497.912 95.5625 497.288 96.6425 495.992C97.7225 494.696 98.2745 493.16 98.2745 491.384C98.2745 489.704 97.7225 488.24 96.6185 487.016C95.5145 485.816 93.9305 485.192 91.9145 485.192H87.8825V497.912H91.9145ZM113.037 500L112.989 500.048L112.941 497.888C112.485 498.68 111.861 499.28 111.069 499.688C110.253 500.096 109.437 500.288 108.573 500.288C106.821 500.288 105.381 499.736 104.229 498.608C103.077 497.48 102.501 495.968 102.501 494.072C102.501 492.2 103.077 490.712 104.229 489.608C105.381 488.504 106.845 487.952 108.597 487.952C109.509 487.952 110.349 488.168 111.165 488.576C111.957 488.984 112.557 489.56 112.989 490.304L113.013 488.144H114.933V500H113.037ZM108.693 489.8L108.669 489.824C107.469 489.824 106.461 490.232 105.645 491.024C104.829 491.816 104.421 492.848 104.421 494.144C104.421 495.44 104.829 496.496 105.645 497.288C106.461 498.104 107.469 498.488 108.669 498.488C109.437 498.488 110.133 498.344 110.757 498.008C111.381 497.696 111.837 497.288 112.173 496.76C112.485 496.256 112.725 495.704 112.869 495.08C113.013 494.456 113.013 493.856 112.869 493.232C112.725 492.608 112.485 492.056 112.173 491.528C111.837 491.024 111.381 490.616 110.781 490.28C110.157 489.968 109.461 489.8 108.693 489.8ZM121.863 484.688V488.168H125.535V489.848H121.839V496.112C121.839 497.648 122.463 498.392 123.711 498.392C124.239 498.392 124.791 498.248 125.367 497.96L125.943 499.592C125.127 499.976 124.359 500.168 123.639 500.168C121.143 500.216 119.895 498.872 119.895 496.112V489.848H117.519V488.168H119.895V484.904L121.863 484.688ZM137.858 500L137.81 500.048L137.762 497.888C137.306 498.68 136.682 499.28 135.89 499.688C135.074 500.096 134.258 500.288 133.394 500.288C131.642 500.288 130.202 499.736 129.05 498.608C127.898 497.48 127.322 495.968 127.322 494.072C127.322 492.2 127.898 490.712 129.05 489.608C130.202 488.504 131.666 487.952 133.418 487.952C134.33 487.952 135.17 488.168 135.986 488.576C136.778 488.984 137.378 489.56 137.81 490.304L137.834 488.144H139.754V500H137.858ZM133.514 489.8L133.49 489.824C132.29 489.824 131.282 490.232 130.466 491.024C129.65 491.816 129.242 492.848 129.242 494.144C129.242 495.44 129.65 496.496 130.466 497.288C131.282 498.104 132.29 498.488 133.49 498.488C134.258 498.488 134.954 498.344 135.578 498.008C136.202 497.696 136.658 497.288 136.994 496.76C137.306 496.256 137.546 495.704 137.69 495.08C137.834 494.456 137.834 493.856 137.69 493.232C137.546 492.608 137.306 492.056 136.994 491.528C136.658 491.024 136.202 490.616 135.602 490.28C134.978 489.968 134.282 489.8 133.514 489.8ZM160.456 486.872C160.023 486.176 159.376 485.648 158.512 485.288C157.648 484.928 156.712 484.736 155.728 484.712C154.528 484.712 153.472 484.976 152.608 485.456C151.744 485.936 151.312 486.656 151.312 487.592C151.312 488.024 151.408 488.408 151.648 488.72C151.864 489.056 152.2 489.32 152.68 489.512C153.136 489.728 153.592 489.896 154.072 490.016C154.552 490.136 155.152 490.256 155.872 490.352C156.688 490.496 157.36 490.616 157.888 490.712C158.392 490.832 158.968 491.024 159.64 491.264C160.312 491.504 160.816 491.792 161.2 492.104C161.56 492.44 161.872 492.872 162.136 493.424C162.4 493.976 162.544 494.624 162.544 495.344C162.544 496.256 162.328 497.024 161.92 497.696C161.512 498.368 160.96 498.896 160.288 499.256C159.616 499.64 158.896 499.904 158.128 500.072C157.36 500.264 156.544 500.336 155.704 500.336C154.096 500.336 152.656 500.024 151.408 499.4C150.136 498.776 149.2 497.792 148.6 496.448L150.328 495.44C150.832 496.4 151.576 497.12 152.584 497.624C153.592 498.152 154.624 498.392 155.728 498.392C156.28 498.392 156.808 498.344 157.336 498.248C157.864 498.152 158.368 498.008 158.848 497.768C159.328 497.552 159.736 497.24 160.023 496.808C160.312 496.376 160.48 495.872 160.48 495.272C160.48 494.792 160.336 494.36 160.096 493.976C159.856 493.616 159.472 493.328 158.992 493.088C158.488 492.872 157.984 492.704 157.48 492.56C156.976 492.44 156.352 492.32 155.632 492.2C154.864 492.104 154.216 491.984 153.688 491.864C153.16 491.744 152.608 491.576 152.008 491.336C151.384 491.096 150.904 490.832 150.544 490.52C150.16 490.208 149.848 489.8 149.608 489.296C149.368 488.792 149.248 488.216 149.248 487.544C149.224 486.728 149.416 485.984 149.8 485.36C150.184 484.736 150.712 484.232 151.36 483.872C152.008 483.536 152.704 483.272 153.424 483.104C154.144 482.936 154.912 482.84 155.68 482.84C157.12 482.84 158.368 483.056 159.424 483.488C160.48 483.92 161.344 484.736 162.04 485.888L160.456 486.872ZM168.316 484.688V488.168H171.988V489.848H168.292V496.112C168.292 497.648 168.916 498.392 170.164 498.392C170.692 498.392 171.244 498.248 171.82 497.96L172.396 499.592C171.58 499.976 170.812 500.168 170.092 500.168C167.596 500.216 166.348 498.872 166.348 496.112V489.848H163.972V488.168H166.348V484.904L168.316 484.688ZM173.751 494.096C173.751 492.272 174.327 490.784 175.479 489.632C176.631 488.48 178.119 487.88 179.895 487.88C181.695 487.88 183.183 488.456 184.335 489.608C185.487 490.76 186.063 492.272 186.063 494.096C186.063 495.896 185.463 497.36 184.311 498.512C183.159 499.664 181.671 500.216 179.895 500.216C178.119 500.216 176.631 499.664 175.479 498.512C174.327 497.36 173.751 495.896 173.751 494.096ZM184.119 494.096C184.119 492.8 183.711 491.744 182.919 490.928C182.103 490.112 181.119 489.68 179.919 489.68C178.695 489.68 177.687 490.088 176.895 490.904C176.103 491.72 175.719 492.8 175.719 494.096C175.719 495.344 176.103 496.376 176.895 497.168C177.663 497.984 178.671 498.368 179.895 498.368C181.095 498.368 182.103 497.984 182.895 497.168C183.687 496.376 184.095 495.344 184.119 494.096ZM190.71 488.144L190.734 488.12L190.878 489.896C191.574 488.6 192.798 487.928 194.526 487.928C195.558 487.904 196.47 488.192 197.286 488.816L196.398 490.496C195.774 490.064 195.078 489.848 194.334 489.848C193.35 489.872 192.534 490.208 191.862 490.856C191.19 491.504 190.854 492.344 190.854 493.4V500H188.886V488.144H190.71ZM208.569 500L208.521 500.048L208.473 497.888C208.017 498.68 207.393 499.28 206.601 499.688C205.785 500.096 204.969 500.288 204.105 500.288C202.353 500.288 200.913 499.736 199.761 498.608C198.609 497.48 198.033 495.968 198.033 494.072C198.033 492.2 198.609 490.712 199.761 489.608C200.913 488.504 202.377 487.952 204.129 487.952C205.041 487.952 205.881 488.168 206.697 488.576C207.489 488.984 208.089 489.56 208.521 490.304L208.545 488.144H210.465V500H208.569ZM204.225 489.8L204.201 489.824C203.001 489.824 201.993 490.232 201.177 491.024C200.361 491.816 199.953 492.848 199.953 494.144C199.953 495.44 200.361 496.496 201.177 497.288C201.993 498.104 203.001 498.488 204.201 498.488C204.969 498.488 205.665 498.344 206.289 498.008C206.913 497.696 207.369 497.288 207.705 496.76C208.017 496.256 208.257 495.704 208.401 495.08C208.545 494.456 208.545 493.856 208.401 493.232C208.257 492.608 208.017 492.056 207.705 491.528C207.369 491.024 206.913 490.616 206.313 490.28C205.689 489.968 204.993 489.8 204.225 489.8ZM215.378 501.992C215.378 503.072 215.762 503.888 216.578 504.416C217.394 504.968 218.378 505.256 219.578 505.256C220.73 505.256 221.714 505.04 222.53 504.584C223.346 504.128 223.754 503.408 223.754 502.448C223.754 501.536 223.346 500.84 222.554 500.336C221.762 499.856 220.778 499.592 219.602 499.592C217.706 499.592 216.194 499.088 215.042 498.032C213.89 497 213.338 495.56 213.338 493.736C213.338 491.912 213.962 490.472 215.21 489.416C216.458 488.384 217.922 487.856 219.602 487.856C220.994 487.856 222.098 488.168 222.962 488.744L224.234 487.208L225.626 488.312L224.282 489.896C225.29 491.048 225.818 492.344 225.818 493.736C225.818 494.84 225.53 495.824 224.954 496.712C224.378 497.6 223.562 498.224 222.482 498.56C224.642 499.208 225.746 500.504 225.746 502.424C225.746 503.888 225.122 505.016 223.922 505.832C222.698 506.648 221.234 507.056 219.554 507.056C217.73 507.056 216.242 506.624 215.114 505.712C213.986 504.8 213.434 503.576 213.482 501.992H215.378ZM215.282 493.736C215.282 495.056 215.714 496.064 216.53 496.784C217.346 497.504 218.378 497.864 219.626 497.864C220.874 497.864 221.882 497.48 222.698 496.688C223.49 495.896 223.898 494.912 223.898 493.76C223.898 492.464 223.466 491.456 222.626 490.736C221.786 490.016 220.778 489.656 219.602 489.656C218.45 489.656 217.442 490.016 216.578 490.736C215.714 491.456 215.282 492.44 215.282 493.736ZM239.362 498.104H239.338C238.762 498.8 237.994 499.328 237.082 499.688C236.146 500.048 235.186 500.216 234.226 500.216C232.354 500.216 230.866 499.664 229.714 498.536C228.562 497.408 227.986 495.896 227.986 494.024C227.986 492.248 228.562 490.76 229.714 489.608C230.866 488.456 232.33 487.88 234.13 487.88C236.05 487.88 237.562 488.48 238.69 489.68C239.818 490.88 240.274 492.584 240.058 494.84H229.978C230.074 495.92 230.53 496.784 231.346 497.432C232.138 498.08 233.122 498.392 234.274 498.392C234.97 498.392 235.666 498.272 236.386 498.008C237.106 497.744 237.658 497.384 238.042 496.904L239.362 498.104ZM238.186 493.184V493.208C238.138 492.08 237.754 491.216 237.034 490.592C236.314 489.968 235.354 489.656 234.178 489.656C233.098 489.656 232.162 489.968 231.394 490.592C230.602 491.216 230.122 492.08 229.978 493.184H238.186Z" fill="#272727"/>
</svg>
