<svg width="104" height="26" viewBox="0 0 104 26" fill="none" xmlns="http://www.w3.org/2000/svg">
<path d="M103.06 12.5299L102.109 12.7868C101.205 9.70427 99.6876 8.38372 97.5469 8.38372C96.0437 8.38372 94.9781 9.37318 94.9781 10.9525C94.9781 12.4557 96.215 13.2644 99.5772 14.622C102.672 15.7599 103.956 17.1528 103.956 19.5883C103.956 23.294 101.044 25.6183 96.2625 25.6183C93.963 25.6183 91.3581 25.1046 89.89 24.5175L89.7064 19.3686L90.6103 19.185C91.9679 22.708 93.7052 24.0409 95.9666 24.0409C97.9237 24.0409 98.9512 22.6832 98.9512 21.2885C98.9512 19.8937 98.1558 19.087 95.098 17.9871C92.1867 17.0329 90.1935 15.7856 90.1935 12.6907C90.1935 9.64623 92.8717 7.06413 97.4242 7.06413C99.5772 7.06413 101.534 7.43137 102.819 8.01839L103.06 12.5299ZM83.3663 14.1444C83.4767 11.7231 82.9857 8.22484 80.9935 8.22484C78.9509 8.22484 77.8254 11.491 77.7892 14.2919L83.3663 14.1444ZM81.4825 7.05082C86.4964 7.05082 88.9187 10.7204 88.9558 15.5392H77.6684C77.6303 19.8081 79.8947 23.0362 84.1265 23.0362C85.9722 23.0362 87.0378 22.5225 88.1623 21.7157L88.6884 22.3027C87.4516 23.9905 84.8828 25.604 81.4578 25.604C75.954 25.604 72.1379 21.8251 72.1379 16.4915C72.1255 11.6727 75.2566 7.04891 81.4825 7.04891M65.2155 15.9778C65.1052 12.1722 63.7123 9.14104 61.0322 9.14104C60.3948 9.14104 59.9067 9.2514 59.1485 9.50828L59.3673 24.1731C59.6365 24.2835 60.2711 24.3568 60.7249 24.3568C63.3298 24.3568 65.2136 20.6748 65.2136 15.9787M70.8031 15.6933C70.8031 21.7233 66.9975 25.6126 60.5413 25.6126C58.2418 25.6126 55.8566 25.2454 53.7902 24.7687C53.9738 22.3474 53.9738 7.35146 53.7902 4.5258C53.6066 3.0578 53.1908 2.36042 52.0529 2.2139L51.2947 2.14065V1.46801L59.2579 0C59.2198 1.23682 59.1475 4.5258 59.1475 8.37802C60.5423 7.68064 61.8257 7.27725 63.562 7.27725C67.7082 7.27725 70.7926 10.8003 70.7926 15.6924M50.5278 12.4177C48.0694 10.8031 45.4283 11.5005 44.9013 12.4177C44.6691 15.2433 44.7176 19.5855 44.9393 21.8232C45.0497 23.2912 45.4654 23.9144 46.6024 24.0247L48.1056 24.1712V25.1255H36.8572V24.1712L37.7258 24.0247C38.8142 23.9144 39.1938 23.2921 39.2671 21.8232C39.5363 19.438 39.6096 14.4356 39.2671 11.6832C39.1938 10.1058 38.8142 9.51779 37.7258 9.37128L36.8572 9.26091V8.60064L44.8927 7.05938L44.7823 11.1694C46.6661 6.91286 50.4089 6.39911 52.4392 7.53698L50.5278 12.4177ZM24.1579 16.3564C24.1579 20.8451 25.369 24.5147 27.8151 24.5147C30.4571 24.5147 31.2154 20.9184 31.2154 16.3564C31.2154 11.7945 30.0414 8.23531 27.5582 8.23531C24.8943 8.23531 24.1579 11.7212 24.1579 16.3564ZM36.9029 16.2832C36.9029 21.4322 33.5026 25.6069 27.4364 25.6069C21.4674 25.6069 18.459 21.632 18.459 16.4211C18.459 11.3083 21.8593 7.05177 27.9255 7.05177C33.8945 7.05177 36.9029 11.0514 36.9029 16.2737M21.2809 7.41805L20.0441 7.78529C18.9918 4.17664 17.1328 2.12257 13.9285 2.12257H9.74518C9.51304 4.52009 9.40267 8.22579 9.51303 12.2264L12.3006 12.0799C14.1844 12.0799 14.9788 10.7223 15.4402 8.75001H16.4925V17.0919H15.4222C14.9693 15.0749 14.1854 13.7049 12.2826 13.5936L9.49496 13.5555C9.49496 16.5277 9.53301 19.0717 9.7271 20.613C9.91072 22.8145 10.5225 23.8173 12.137 24.0257L13.6535 24.1722V25.1264H0V24.1722L1.13787 24.0257C2.71529 23.8068 3.36415 22.8145 3.54777 20.613C3.85221 17.0167 3.92833 9.33608 3.54777 5.06715C3.36415 2.78379 2.71624 1.87521 1.13787 1.69159L0 1.50797V0.518512H21.2542L21.2809 7.41805Z" fill="#EEEEEE"/>
</svg>
