<svg width="176" height="29" viewBox="0 0 176 29" fill="none" xmlns="http://www.w3.org/2000/svg">
<path fill="#272727" d="M103.06 13.3683L102.109 13.6252C101.205 10.5426 99.6876 9.2221 97.5469 9.2221C96.0437 9.2221 94.9781 10.2116 94.9781 11.7909C94.9781 13.2941 96.215 14.1028 99.5772 15.4604C102.672 16.5983 103.956 17.9911 103.956 20.4267C103.956 24.1324 101.044 26.4567 96.2625 26.4567C93.963 26.4567 91.3581 25.9429 89.89 25.3559L89.7064 20.207L90.6103 20.0233C91.9679 23.5464 93.7052 24.8793 95.9666 24.8793C97.9237 24.8793 98.9512 23.5216 98.9512 22.1269C98.9512 20.7321 98.1558 19.9253 95.098 18.8255C92.1867 17.8713 90.1935 16.624 90.1935 13.5291C90.1935 10.4846 92.8717 7.90251 97.4242 7.90251C99.5772 7.90251 101.534 8.26975 102.819 8.85677L103.06 13.3683ZM83.3663 14.9828C83.4767 12.5615 82.9857 9.06322 80.9935 9.06322C78.9509 9.06322 77.8254 12.3294 77.7892 15.1303L83.3663 14.9828ZM81.4825 7.88919C86.4964 7.88919 88.9187 11.5587 88.9558 16.3776H77.6684C77.6303 20.6465 79.8947 23.8746 84.1265 23.8746C85.9722 23.8746 87.0378 23.3608 88.1623 22.5541L88.6884 23.1411C87.4516 24.8288 84.8828 26.4424 81.4578 26.4424C75.954 26.4424 72.1379 22.6635 72.1379 17.3299C72.1255 12.5111 75.2566 7.88729 81.4825 7.88729M65.2155 16.8162C65.1052 13.0106 63.7123 9.97942 61.0322 9.97942C60.3948 9.97942 59.9067 10.0898 59.1485 10.3467L59.3673 25.0115C59.6365 25.1219 60.2711 25.1951 60.7249 25.1951C63.3298 25.1951 65.2136 21.5132 65.2136 16.8171M70.8031 16.5317C70.8031 22.5617 66.9975 26.451 60.5413 26.451C58.2418 26.451 55.8566 26.0837 53.7902 25.6071C53.9738 23.1858 53.9738 8.18984 53.7902 5.36418C53.6066 3.89617 53.1908 3.1988 52.0529 3.05228L51.2947 2.97903V2.30639L59.2579 0.838379C59.2198 2.0752 59.1475 5.36418 59.1475 9.2164C60.5423 8.51902 61.8257 8.11563 63.562 8.11563C67.7082 8.11563 70.7926 11.6387 70.7926 16.5307M50.5278 13.256C48.0694 11.6415 45.4283 12.3389 44.9013 13.256C44.6691 16.0817 44.7176 20.4239 44.9393 22.6616C45.0497 24.1296 45.4654 24.7527 46.6024 24.8631L48.1056 25.0096V25.9639H36.8572V25.0096L37.7258 24.8631C38.8142 24.7527 39.1938 24.1305 39.2671 22.6616C39.5363 20.2764 39.6096 15.2739 39.2671 12.5216C39.1938 10.9441 38.8142 10.3562 37.7258 10.2097L36.8572 10.0993V9.43902L44.8927 7.89776L44.7823 12.0078C46.6661 7.75124 50.4089 7.23749 52.4392 8.37536L50.5278 13.256ZM24.1579 17.1948C24.1579 21.6835 25.369 25.3531 27.8151 25.3531C30.4571 25.3531 31.2154 21.7568 31.2154 17.1948C31.2154 12.6329 30.0414 9.07369 27.5582 9.07369C24.8943 9.07369 24.1579 12.5596 24.1579 17.1948ZM36.9029 17.1216C36.9029 22.2705 33.5026 26.4453 27.4364 26.4453C21.4674 26.4453 18.459 22.4703 18.459 17.2595C18.459 12.1467 21.8593 7.89014 27.9255 7.89014C33.8945 7.89014 36.9029 11.8898 36.9029 17.1121M21.2809 8.25643L20.0441 8.62367C18.9918 5.01502 17.1328 2.96095 13.9285 2.96095H9.74518C9.51304 5.35847 9.40267 9.06417 9.51303 13.0648L12.3006 12.9183C14.1844 12.9183 14.9788 11.5606 15.4402 9.58839H16.4925V17.9303H15.4222C14.9693 15.9133 14.1854 14.5433 12.2826 14.432L9.49496 14.3939C9.49496 17.3661 9.53301 19.9101 9.7271 21.4514C9.91072 23.6529 10.5225 24.6557 12.137 24.864L13.6535 25.0106V25.9648H0V25.0106L1.13787 24.864C2.71529 24.6452 3.36415 23.6529 3.54777 21.4514C3.85221 17.8551 3.92833 10.1745 3.54777 5.90553C3.36415 3.62217 2.71624 2.71359 1.13787 2.52997L0 2.34634V1.35689H21.2542L21.2809 8.25643Z"/>
</svg>