<svg width="349" height="84" viewBox="0 0 349 84" fill="none" xmlns="http://www.w3.org/2000/svg">
<path d="M0 25.3471V50.6941L47.6711 24.1648V0L0 25.3471Z" fill="#D88E8C"/>
<path d="M47.7573 48.5314V24.1648L69.4207 35.9877V60.1236L47.7573 48.5314Z" fill="#7BADD5"/>
<path d="M25.9502 84L47.7575 72.4079V48.5314L26.0653 59.8641L25.9502 84Z" fill="#EBCA71"/>
<path d="M111.101 26.9531H132.992V32.3911H117.511V39.5089H131.064V44.884H117.511V57.8598H111.101V26.9531Z" fill="#fff"/>
<path d="M142.984 32.2442H136.93V26.7221H142.984V32.2442ZM136.93 34.9737H142.984V57.8598H136.93V34.9737Z" fill="#fff"/>
<path d="M154.882 57.8598H148.912V26.9111H154.882V57.8598Z" fill="#fff"/>
<path d="M169.734 39.299C168.351 39.299 167.276 39.7329 166.508 40.6007C165.754 41.4686 165.279 42.6444 165.084 44.1281H174.363C174.266 42.5464 173.784 41.3496 172.918 40.5377C172.066 39.7119 171.005 39.299 169.734 39.299ZM169.734 34.3648C171.633 34.3648 173.344 34.7217 174.866 35.4356C176.388 36.1495 177.645 37.2763 178.637 38.816C179.531 40.1738 180.11 41.7485 180.375 43.5402C180.529 44.59 180.592 46.1018 180.564 48.0754H164.937C165.021 50.3711 165.74 51.9808 167.095 52.9046C167.918 53.4785 168.91 53.7655 170.069 53.7655C171.298 53.7655 172.297 53.4155 173.065 52.7157C173.484 52.3377 173.854 51.8128 174.175 51.1409H180.271C180.117 52.4987 179.412 53.8774 178.155 55.2772C176.2 57.5028 173.463 58.6156 169.943 58.6156C167.039 58.6156 164.476 57.6778 162.256 55.8021C160.035 53.9264 158.925 50.875 158.925 46.6477C158.925 42.6864 159.923 39.6489 161.92 37.5353C163.931 35.4216 166.536 34.3648 169.734 34.3648Z" fill="#fff"/>
<path d="M189.76 48.3064C189.956 49.7202 190.34 50.777 190.912 51.4769C191.96 52.7506 193.754 53.3875 196.296 53.3875C197.818 53.3875 199.054 53.2196 200.003 52.8836C201.805 52.2397 202.706 51.0429 202.706 49.2932C202.706 48.2714 202.259 47.4805 201.365 46.9206C200.471 46.3747 199.068 45.8918 197.155 45.4719L193.887 44.737C190.675 44.0091 188.454 43.2183 187.225 42.3644C185.145 40.9367 184.104 38.7041 184.104 35.6666C184.104 32.8951 185.11 30.5925 187.121 28.7588C189.132 26.9251 192.085 26.0082 195.982 26.0082C199.235 26.0082 202.008 26.8761 204.298 28.6118C206.602 30.3335 207.81 32.8391 207.922 36.1285H201.721C201.609 34.2668 200.8 32.944 199.291 32.1602C198.286 31.6423 197.036 31.3833 195.542 31.3833C193.88 31.3833 192.553 31.7193 191.562 32.3911C190.57 33.063 190.074 34.0009 190.074 35.2047C190.074 36.3105 190.563 37.1363 191.541 37.6822C192.169 38.0462 193.51 38.4731 195.563 38.963L200.883 40.2438C203.215 40.8037 204.975 41.5526 206.162 42.4904C208.006 43.9462 208.927 46.0528 208.927 48.8103C208.927 51.6378 207.845 53.9894 205.68 55.8651C203.53 57.7268 200.485 58.6576 196.547 58.6576C192.525 58.6576 189.362 57.7408 187.058 55.9071C184.754 54.0594 183.601 51.5259 183.601 48.3064H189.76Z" fill="#fff"/>
<path d="M226.859 43.1833C226.747 42.3294 226.461 41.5596 226 40.8737C225.329 39.9498 224.289 39.4879 222.878 39.4879C220.868 39.4879 219.492 40.4888 218.752 42.4904C218.361 43.5542 218.165 44.968 218.165 46.7317C218.165 48.4114 218.361 49.7622 218.752 50.784C219.464 52.6877 220.805 53.6395 222.774 53.6395C224.17 53.6395 225.162 53.2616 225.748 52.5057C226.335 51.7498 226.691 50.77 226.817 49.5662H232.912C232.773 51.3859 232.116 53.1076 230.943 54.7313C229.072 57.3489 226.3 58.6576 222.627 58.6576C218.954 58.6576 216.252 57.5658 214.52 55.3822C212.789 53.1986 211.923 50.3641 211.923 46.8787C211.923 42.9453 212.879 39.8869 214.793 37.7032C216.706 35.5196 219.345 34.4278 222.711 34.4278C225.574 34.4278 227.913 35.0717 229.728 36.3595C231.558 37.6472 232.64 39.9218 232.975 43.1833H226.859Z" fill="#fff"/>
<path d="M243.24 32.2442H237.186V26.7221H243.24V32.2442ZM237.186 34.9737H243.24V57.8598H237.186V34.9737Z" fill="#fff"/>
<path d="M258.05 39.299C256.667 39.299 255.592 39.7329 254.824 40.6007C254.07 41.4686 253.595 42.6444 253.399 44.1281H262.679C262.582 42.5464 262.1 41.3496 261.234 40.5377C260.382 39.7119 259.321 39.299 258.05 39.299ZM258.05 34.3648C259.949 34.3648 261.66 34.7217 263.182 35.4356C264.704 36.1495 265.961 37.2763 266.953 38.816C267.846 40.1738 268.426 41.7485 268.691 43.5402C268.845 44.59 268.908 46.1018 268.88 48.0754H253.253C253.337 50.3711 254.056 51.9808 255.41 52.9046C256.234 53.4785 257.226 53.7655 258.385 53.7655C259.614 53.7655 260.612 53.4155 261.381 52.7157C261.799 52.3377 262.17 51.8128 262.491 51.1409H268.587C268.433 52.4987 267.728 53.8774 266.471 55.2772C264.516 57.5028 261.779 58.6156 258.259 58.6156C255.355 58.6156 252.792 57.6778 250.571 55.8021C248.351 53.9264 247.241 50.875 247.241 46.6477C247.241 42.6864 248.239 39.6489 250.236 37.5353C252.247 35.4216 254.852 34.3648 258.05 34.3648Z" fill="#fff"/>
<path d="M285.575 34.4278C287.935 34.4278 289.863 35.0507 291.357 36.2965C292.865 37.5283 293.619 39.5789 293.619 42.4484V57.8598H287.502V43.9392C287.502 42.7354 287.342 41.8115 287.021 41.1676C286.434 39.9918 285.317 39.4039 283.669 39.4039C281.644 39.4039 280.254 40.2648 279.5 41.9865C279.109 42.8963 278.914 44.0581 278.914 45.4719V57.8598H272.965V35.0157H278.725V38.3541C279.493 37.1783 280.22 36.3315 280.904 35.8136C282.133 34.8897 283.69 34.4278 285.575 34.4278Z" fill="#fff"/>
<path d="M312.786 43.1833C312.675 42.3294 312.388 41.5596 311.928 40.8737C311.257 39.9498 310.217 39.4879 308.806 39.4879C306.795 39.4879 305.42 40.4888 304.68 42.4904C304.289 43.5542 304.093 44.968 304.093 46.7317C304.093 48.4114 304.289 49.7622 304.68 50.784C305.392 52.6877 306.733 53.6395 308.702 53.6395C310.098 53.6395 311.09 53.2616 311.676 52.5057C312.263 51.7498 312.619 50.77 312.745 49.5662H318.84C318.701 51.3859 318.044 53.1076 316.871 54.7313C315 57.3489 312.228 58.6576 308.555 58.6576C304.882 58.6576 302.18 57.5658 300.448 55.3822C298.716 53.1986 297.851 50.3641 297.851 46.8787C297.851 42.9453 298.807 39.8869 300.72 37.7032C302.634 35.5196 305.273 34.4278 308.639 34.4278C311.502 34.4278 313.841 35.0717 315.656 36.3595C317.486 37.6472 318.568 39.9218 318.903 43.1833H312.786Z" fill="#fff"/>
<path d="M332.037 39.299C330.655 39.299 329.58 39.7329 328.811 40.6007C328.057 41.4686 327.583 42.6444 327.387 44.1281H336.667C336.569 42.5464 336.087 41.3496 335.221 40.5377C334.37 39.7119 333.308 39.299 332.037 39.299ZM332.037 34.3648C333.937 34.3648 335.647 34.7217 337.17 35.4356C338.692 36.1495 339.949 37.2763 340.94 38.816C341.834 40.1738 342.414 41.7485 342.679 43.5402C342.833 44.59 342.895 46.1018 342.867 48.0754H327.24C327.324 50.3711 328.043 51.9808 329.398 52.9046C330.222 53.4785 331.213 53.7655 332.373 53.7655C333.602 53.7655 334.6 53.4155 335.368 52.7157C335.787 52.3377 336.157 51.8128 336.478 51.1409H342.574C342.421 52.4987 341.715 53.8774 340.458 55.2772C338.503 57.5028 335.766 58.6156 332.247 58.6156C329.342 58.6156 326.78 57.6778 324.559 55.8021C322.339 53.9264 321.228 50.875 321.228 46.6477C321.228 42.6864 322.227 39.6489 324.224 37.5353C326.235 35.4216 328.839 34.3648 332.037 34.3648Z" fill="#fff"/>
</svg>