<svg width="65" height="65" viewBox="0 0 65 65" fill="none" xmlns="http://www.w3.org/2000/svg">
<path id="Vector" d="M63.0501 26.8665L57.8157 25.5503C57.5172 25.468 57.2643 25.2334 57.1668 24.9166C56.6823 23.3658 56.0669 21.8485 55.3174 20.4348C55.1498 20.1362 55.1498 19.7858 55.3174 19.5177L58.0839 14.8835C58.6841 13.8659 58.5348 12.5679 57.6847 11.7331L53.2669 7.31527C52.4321 6.46525 51.1341 6.31597 50.1165 6.91614L45.4824 9.68263C45.2142 9.8502 44.8669 9.8502 44.5653 9.68263C43.1485 8.93312 41.6495 8.31464 40.0835 7.83324C39.7666 7.73269 39.532 7.50114 39.4497 7.18427L38.1335 1.94994C37.8502 0.801268 36.8173 0 35.6169 0H29.3831C28.201 0 27.1498 0.801268 26.8665 1.94994L25.5503 7.18427C25.468 7.50114 25.2334 7.73574 24.9165 7.83324C23.3657 8.31767 21.8484 8.93316 20.4347 9.68263C20.1362 9.8502 19.7858 9.8502 19.5176 9.68263L14.8835 6.91614C13.8659 6.31593 12.5679 6.46522 11.7331 7.31527L7.31526 11.7331C6.46525 12.5679 6.31596 13.8659 6.91613 14.8835L9.68262 19.5177C9.85019 19.7858 9.85019 20.1331 9.68262 20.4348C8.93311 21.8515 8.31463 23.3688 7.83323 24.9166C7.73268 25.2334 7.48285 25.468 7.18426 25.5503L1.94994 26.8665C0.801267 27.1499 0 28.1827 0 29.3832V35.6169C0 36.8174 0.801267 37.8502 1.94994 38.1336L7.18426 39.4498C7.48285 39.532 7.73573 39.7666 7.83323 40.0835C8.31766 41.6343 8.93314 43.1516 9.68262 44.5836C9.85019 44.8669 9.85019 45.2173 9.68262 45.4823L6.91613 50.1165C6.31592 51.1341 6.46521 52.4321 7.31526 53.2669L11.7331 57.6847C12.5679 58.5348 13.8659 58.684 14.8835 58.0839L19.5176 55.3174C19.7858 55.1498 20.1331 55.1498 20.4347 55.3174C21.8515 56.0669 23.3505 56.6854 24.9165 57.1668C25.2334 57.2673 25.468 57.4989 25.5503 57.8157L26.8665 63.0501C27.1498 64.1987 28.1827 65 29.3831 65H35.6169C36.8173 65 37.8502 64.1987 38.1335 63.0501L39.4497 57.8157C39.532 57.4989 39.7666 57.2643 40.0835 57.1668C41.6495 56.6823 43.1516 56.0668 44.5653 55.3174C44.8638 55.1498 45.2142 55.1498 45.4824 55.3174L50.1165 58.0839C51.1341 58.6841 52.4321 58.5348 53.2669 57.6847L57.6847 53.2669C58.5348 52.4321 58.684 51.1341 58.0839 50.1165L55.3174 45.4823C55.1498 45.2142 55.1498 44.8669 55.3174 44.5652C56.0669 43.1485 56.6854 41.6312 57.1668 40.0834C57.2673 39.7666 57.5172 39.532 57.8157 39.4497L63.0501 38.1335C64.1987 37.8501 65 36.8173 65 35.6168V29.3831C65 28.1826 64.1987 27.1499 63.0501 26.8665ZM49.1657 32.5C49.1657 41.6827 41.6828 49.1658 32.5 49.1658C10.3862 48.2304 10.3925 16.7664 32.5 15.8343C41.6827 15.8343 49.1657 23.3172 49.1657 32.5Z" fill="#272727"/>
</svg>
