<svg width="564" height="716" fill="none" xmlns="http://www.w3.org/2000/svg"><path fill="#272727" d="M0 0h124.4v125.6H0z"/><path d="M58 52.4a8.3 8.3 0 0 1-4-7.1V31.6c0-1.4.3-2.8 1-4l-8.1 4.9a8.3 8.3 0 0 0-4 7V52c0 1.4.3 2.8 1 4a7 7 0 0 0 9.5 2.2l7-4.3-2.5-1.5Zm20-4.7-7.5-4.5v2c0 2.9-1.5 5.6-4 7l-12.1 7.5A8.6 8.6 0 0 1 50 61l7.8 4.8a8.3 8.3 0 0 0 8.6 0l8-4.9 3-1.8.8-.5.2-.1a8.5 8.5 0 0 0 1.5-1.7c.7-1 1-2.3 1-3.6 0-2.3-1.1-4.4-3-5.5Zm-.4-15.2-8.4-5.1-2.7-1.6a7.4 7.4 0 0 0-2.5-1c-1.6-.4-3.3 0-4.8.8a6.9 6.9 0 0 0-3.5 6v8.5l2.5-1.5a8 8 0 0 1 8 0l12.6 7.5c1.2.7 2 1.6 2.8 2.7v-9.3c0-2.8-1.6-5.5-4-7ZM9.2 94.8V83.6h1.7l3.9 5.7 4-5.7h1.6v11.2H19v-9.2l-4 5.7h-.4l-4-5.8v9.3H9.2Zm13.7-10.3c0-.3 0-.5.2-.7l.6-.2c.3 0 .5 0 .7.2l.2.7c0 .2 0 .5-.2.6a1 1 0 0 1-.7.2 1 1 0 0 1-.6-.2.8.8 0 0 1-.2-.6Zm.2 10.3v-8h1.3v8H23Zm3.2-4c0-.8.2-1.6.6-2.2.3-.6.8-1.1 1.4-1.4.7-.3 1.4-.5 2.1-.5 1.1 0 2 .4 2.9 1.2l-.8.8c-.6-.5-1.2-.8-2-.8s-1.5.3-2 .8c-.6.6-.9 1.3-.9 2.1 0 1 .3 1.6.8 2.1.6.6 1.3.8 2 .8.9 0 1.6-.3 2.1-.8l.9.9a4 4 0 0 1-3 1.2l-1.6-.3a3.7 3.7 0 0 1-2.2-2.1c-.2-.5-.3-1.1-.3-1.8Zm8.8 4v-8h1.2l.1 1.2c.5-.9 1.3-1.3 2.5-1.3a3 3 0 0 1 1.8.6l-.6 1.1c-.4-.3-.9-.4-1.4-.4-.6 0-1.2.2-1.6.7-.5.4-.7 1-.7 1.7v4.4H35Zm6-4a4 4 0 0 1 4-4.1 4 4 0 0 1 3 1.2 4 4 0 0 1 1.3 3 4 4 0 0 1-4.2 4 4 4 0 0 1-3-1 4 4 0 0 1-1-3Zm1.3 0c0 .9.3 1.6.8 2.1.5.6 1.2.8 2 .8a2.7 2.7 0 0 0 2.8-2.9c0-.8-.2-1.5-.8-2-.5-.6-1.2-.9-2-.9s-1.4.3-2 .8c-.5.6-.8 1.3-.8 2.1Zm8.2 2.7.7-.9c.4.4.8.7 1.3.9a4.7 4.7 0 0 0 2.2.2c.2 0 .4 0 .6-.2.2 0 .4-.2.5-.4.2-.1.2-.3.2-.5a1 1 0 0 0-.5-1c-.4-.1-.9-.3-1.6-.3l-1-.2-.8-.2a3 3 0 0 1-.7-.4A1.8 1.8 0 0 1 51 89a2 2 0 0 1 1-1.8l1-.4a5 5 0 0 1 1.2-.1c1.2 0 2.2.4 3 1l-.8 1c-.3-.4-.7-.6-1-.7a3.9 3.9 0 0 0-2.6.2c-.4.2-.6.4-.6.8l.1.4.3.4.5.2a5 5 0 0 0 1.1.2 16.4 16.4 0 0 1 2 .4l.4.3a1.7 1.7 0 0 1 .8 1l.1.6c0 .6-.1 1-.4 1.4-.3.4-.7.6-1.2.8a5 5 0 0 1-1.7.3c-1.6 0-2.8-.5-3.5-1.5Zm8.1-2.7a4 4 0 0 1 4-4.1 4 4 0 0 1 3 1.2 4 4 0 0 1 1.2 3 4 4 0 0 1-4.1 4 4 4 0 0 1-3-1 4 4 0 0 1-1.1-3Zm1.3 0c0 .9.3 1.6.8 2.1.5.6 1.2.8 2 .8a2.7 2.7 0 0 0 2.8-2.9c0-.8-.3-1.5-.8-2-.5-.6-1.2-.9-2-.9s-1.5.3-2 .8c-.5.6-.8 1.3-.8 2.1Zm8-2.7V87h1.5v-.7c0-.8.3-1.5.8-2 .4-.6 1-.8 2-.8a3 3 0 0 1 1.7.6l-.5 1c-.5-.3-.9-.5-1.3-.5-.9 0-1.3.6-1.3 1.7v.7h2.4V88H71v6.7h-1.4V88H68Zm6.1-.1v-1.2h1.6v-2l1.3-.2v2.2h2.5V88H77v4.3c0 .5.1.9.3 1.1.2.3.5.4 1 .4l1-.3.4 1c-.5.3-1 .5-1.6.5-.8 0-1.4-.3-1.8-.7a3 3 0 0 1-.6-2V88h-1.6ZM85 91.8h1.4c0 .3 0 .6.2.8l.6.6.7.3a5.5 5.5 0 0 0 1.6.2 4 4 0 0 0 2.2-.6 1.7 1.7 0 0 0 .2-2.8c-.2-.2-.5-.4-1-.5l-1.3-.2h-1.8v-1.2h1.7c.8 0 1.5-.1 2-.5.6-.4.9-.8.9-1.4 0-.2 0-.4-.2-.7 0-.2-.2-.4-.5-.6l-.9-.4-1.3-.2a6.2 6.2 0 0 0-1.5.2l-.7.4c-.2 0-.4.3-.5.5l-.2.7H85a2.7 2.7 0 0 1 1-2c.2-.3.6-.5 1-.6l1.1-.4h1.2a6 6 0 0 1 2.2.3c.6.3 1.1.6 1.5 1.1.4.5.6 1 .6 1.7 0 .6-.2 1.1-.6 1.6-.4.5-.9.8-1.4.9a3 3 0 0 1 1.6 1c.4.4.6 1 .6 1.6a3 3 0 0 1-1.3 2.5c-.4.3-1 .5-1.5.7a6.7 6.7 0 0 1-3 0c-.3 0-.7 0-1.1-.2a4 4 0 0 1-1-.6c-.4-.3-.6-.6-.8-1a3 3 0 0 1-.3-1.2Zm11.1-.5v-4.5a3 3 0 0 1 1.4-2.6 6 6 0 0 1 3-.8 7 7 0 0 1 1.7.1c.5.2 1 .3 1.4.6a2.7 2.7 0 0 1 1.3 2.3h-1.3c0-.4-.2-.7-.5-1l-1.1-.7a5 5 0 0 0-3 .1c-.4.2-.8.4-1 .8-.4.3-.5.7-.5 1.2v2.4c.3-.5.8-.8 1.3-1 .6-.3 1.2-.4 1.9-.4l1.3.1 1.2.4 1 .7.7 1c.2.4.3.9.3 1.4 0 .5-.1.9-.3 1.3a3 3 0 0 1-.7 1l-1 .7-1.2.5a6.3 6.3 0 0 1-3.9-.5l-1-.7c-.3-.3-.6-.6-.7-1-.2-.4-.3-.9-.3-1.4Zm1.4 0c0 .5.1.8.3 1.1.2.4.4.6.7.8l1 .4a4.7 4.7 0 0 0 2.9-.2l.7-.5.5-.6.2-1a2 2 0 0 0-1-1.7l-1-.4a4.7 4.7 0 0 0-3.3.4 2 2 0 0 0-1 1.8Zm9.5.4h1.4a1.8 1.8 0 0 0 .7 1.4l.7.3a4.8 4.8 0 0 0 1.6.3c.9 0 1.6-.2 2.2-.7.5-.4.8-1 .8-1.7a2 2 0 0 0-.7-1.6c-.5-.4-1.2-.6-2.2-.6h-4.3v-5.5h8v1.3h-6.6v2.9h3c1.3 0 2.3.3 3 1 .8.5 1.2 1.4 1.2 2.5 0 1-.4 2-1.2 2.7-.8.6-1.9 1-3.2 1a8 8 0 0 1-2.5-.4l-1-.7c-.3-.2-.5-.5-.7-.9l-.2-1.3Z" fill="#fff"/><path fill="#272727" d="M146.4 0h124.4v125.6H146.4z"/><g clip-path="url(#a)"><path d="M232 46.9c0 .3-.1.5-.3.7l-16.4 9.7-.2.1a2 2 0 0 1-2-.1l-16.4-9.7a.8.8 0 0 1 0-1.4l16.4-9.7.2-.2a2 2 0 0 1 2 .2l16.3 9.7h.1c.2.2.4.4.4.7Z" fill="#fff" stroke="#272727" stroke-width=".5"/><path d="M198.4 40.4h10.8v9.9h-10.8v-9.9Zm31.7-10v-4.5a2 2 0 0 0-2-2.1h-27.9a2 2 0 0 0-2 2v4.6l16.5 4.4 15.4-4.4Z" fill="#fff"/><path d="M198 30.5h11v9.9h-11v-9.9ZM220 30.5h-11v9.9l11 9.9h10v-9.9l-10-9.9Z" fill="#fff" stroke="#272727" stroke-width=".1"/><path d="M209 40.4h11v9.9h-11v-9.9Z" fill="#fff" stroke="#272727" stroke-width=".1"/><path d="M209.2 50.2h11V60h-11V50Z" fill="#fff" stroke="#272727" stroke-width=".1"/><path d="M198.7 50.5H209V59h-10.3v-8.5Z" fill="#fff" stroke="#272727" stroke-width=".5"/><path d="M220.2 50.2h9.9V60h-9.9V50Z" fill="#fff" stroke="#272727" stroke-width=".1"/><path d="M232 48v-.1 17.6a2 2 0 0 1-.7 1.6h-.1l-.1.1-.3.2a2.5 2.5 0 0 1-.8.1h-31.7a2 2 0 0 1-2-2V47.3l.1.1L213 57l.3.1.9.5c.4 0 .8 0 1-.2l.3-.1L232 48Z" fill="#35B8F1" stroke="#272727" stroke-width=".5"/><path d="M232 48v-.1 17.6c0 1.1-.9 2-2 2h-31.7v.3-.3a2 2 0 0 1-2-2V48h.1l16.4 9.3.2.1c.7.4 1.6.4 2.3 0l.2-.1L232 48Z" fill="#fff" stroke="#272727" stroke-width=".5"/><path d="M198.3 67.8H230l1.2-.3-.3-.2m-32.6.5v-.3m0 .3c-1.3 0-2.3-1-2.3-2.3V47.2l2.3 20.6Zm0-.3H230c.3 0 .6 0 .9-.2m-32.6.2a2 2 0 0 1-2-2V47.3m2 20.2-2-20.2m34.6 20 .3-.1-17.8-10.4m17.5 10.5L213.3 57m0 0v-.2m0 .2-.3-.1-16.5-9.5h-.2m17 9.6v-.2m0 0-.1-.1-17-9.4" fill="#fff" stroke="#272727" stroke-width=".5"/><path d="M187 34h20.2c1 0 1.8.7 1.8 1.7v20.2c0 1-.8 1.7-1.8 1.7H187c-1 0-1.7-.8-1.7-1.7V35.7c0-1 .7-1.8 1.7-1.8Z" fill="#fff" stroke="#272727" stroke-width=".5"/><path d="M191.3 42.1c.5-1 1.3-2 2.3-2.5a7 7 0 0 1 3.7-1c1.2 0 2.3.3 3.4 1 1 .5 1.7 1.4 2.2 2.4.5 1 .8 2.3.8 3.5 0 1.3-.3 2.6-.8 3.8a6 6 0 0 1-2.3 2.5c-1.1.6-2.3 1-3.6.9-1.2 0-2.4-.3-3.4-.9-1-.6-1.8-1.4-2.3-2.4a7.7 7.7 0 0 1-.8-3.5c0-1.3.3-2.6.8-3.8Zm2.5 6c.2.7.7 1.3 1.3 1.7.5.4 1.3.6 2 .6s1.5-.2 2.1-.6c.6-.5 1-1 1.3-1.7a7.1 7.1 0 0 0 0-4.7c-.2-.7-.6-1.3-1.2-1.8-.6-.4-1.4-.6-2.1-.6a3.5 3.5 0 0 0-3.4 2.3 6.7 6.7 0 0 0 0 4.8Z" fill="#272727"/><path d="M220 30.5h10v9.9h-10v-9.9Z" fill="#fff" stroke="#272727" stroke-width=".1"/></g><path d="M184.6 95a6 6 0 0 1-3-.7 5.1 5.1 0 0 1-2-2c-.5-1-.7-2-.7-3.1 0-1.2.2-2.2.7-3 .5-1 1.2-1.6 2-2.1a6 6 0 0 1 3-.8 6 6 0 0 1 3 .8c.9.5 1.5 1.2 2 2 .5 1 .7 2 .7 3 0 1.2-.2 2.2-.7 3.1-.5.9-1.1 1.6-2 2a6 6 0 0 1-3 .8Zm0-1.5c.8 0 1.5-.1 2.2-.5.6-.4 1-.9 1.4-1.6a4.8 4.8 0 0 0 0-4.5c-.3-.7-.8-1.2-1.4-1.5a4 4 0 0 0-2.2-.6c-.8 0-1.5.2-2.1.6-.7.3-1.1.8-1.5 1.5-.4.7-.5 1.4-.5 2.3 0 .8.1 1.6.5 2.2a4 4 0 0 0 1.5 1.6c.6.4 1.3.5 2.1.5Zm15-6.6v7.9h-1.4v-1.1c-.3.4-.7.7-1.2.9-.5.2-1 .3-1.6.3-1 0-1.8-.3-2.4-1-.6-.6-.9-1.5-.9-2.6v-4.4h1.5v4.3c0 .7.2 1.3.5 1.7.4.4.9.6 1.6.6.7 0 1.2-.2 1.7-.6.4-.5.7-1.1.7-1.8v-4.2h1.5Zm7.3 7.6c-.5.3-1 .4-1.7.4-.8 0-1.4-.2-1.8-.7-.4-.5-.7-1.2-.7-2v-4h-1.5v-1.3h1.5v-2.2l1.5-.1v2.3h2.4v1.3h-2.4v4c0 .4.1.8.3 1 .2.2.5.3 1 .3.2 0 .6 0 1-.2l.4 1.2Zm1.4-11h1.5v11.3h-1.5V83.6Zm7.5 11.5c-.8 0-1.6-.2-2.2-.6-.6-.3-1.1-.8-1.5-1.5a4.4 4.4 0 0 1 0-4.2c.4-.6.9-1.1 1.5-1.5.6-.3 1.4-.5 2.2-.5.8 0 1.5.2 2.2.5.6.4 1 .9 1.4 1.5.4.6.5 1.3.5 2.1s-.1 1.5-.5 2.1c-.3.7-.8 1.2-1.4 1.5-.7.4-1.4.6-2.2.6Zm0-1.4c.5 0 1-.1 1.4-.4.4-.2.7-.6 1-1 .1-.4.3-.9.3-1.4 0-.5-.2-1-.4-1.4a2.5 2.5 0 0 0-2.3-1.3c-.6 0-1 .1-1.4.3l-1 1-.3 1.4c0 .5.1 1 .3 1.4a2.6 2.6 0 0 0 2.4 1.4Zm9.6 1.4c-.9 0-1.6-.2-2.2-.6-.7-.3-1.2-.8-1.5-1.5a4.4 4.4 0 0 1 0-4.2c.3-.6.8-1.1 1.5-1.5.6-.3 1.3-.5 2.2-.5.8 0 1.5.2 2.1.5.7.4 1.1.9 1.5 1.5.3.6.5 1.3.5 2.1s-.2 1.5-.5 2.1c-.4.7-.8 1.2-1.5 1.5-.6.4-1.3.6-2.1.6Zm0-1.4c.5 0 1-.1 1.3-.4.5-.2.8-.6 1-1 .2-.4.3-.9.3-1.4 0-.5 0-1-.3-1.4a2.5 2.5 0 0 0-2.3-1.3c-.6 0-1 .1-1.5.3a2.9 2.9 0 0 0-1.3 2.4c0 .5.2 1 .4 1.4a2.6 2.6 0 0 0 2.4 1.4Zm12.8 1.2h-2l-3.4-3.6v3.6h-1.5V83.6h1.5v6.7l3-3.4h2l-3.6 3.8 4 4Z" fill="#fff"/><path fill="#272727" d="M292.9 0h124.4v125.6H292.9z"/><path d="M347.7 36a17.2 17.2 0 0 0-8.4-2.6 20.6 20.6 0 0 1 36.4 6.4h-.3c-2 0-3.9.3-5.6 1.1l-8.2 3.5-13.9-8.3Z" fill="#fff" stroke="#272727"/><path d="m347.2 37 13.2 7.9-5.4 2.3-12.4 5.1-5.5 2.4-12 5a16.3 16.3 0 0 1 13.4-25.3c3.1 0 6.1 1 8.7 2.5ZM364.2 46l-1.6-.9 7.5-3.2c1.7-.7 3.5-1 5.3-1h.9c1.8.1 3.7.7 5.3 1.6a13 13 0 0 1 5.6 17.3l-11.5-6.9-3.4-2-8-4.9ZM325.6 60.6l11.9-5 5.5-2.3 12.4-5.2 6-2.6 2.3 1.3 8 4.8 3.5 2.1 11.5 6.9a13.2 13.2 0 0 1-11.3 6.5h-36.8a16.4 16.4 0 0 1-13-6.5Z" fill="#fff" stroke="#272727"/><path d="M325 95a6 6 0 0 1-3-.7 5.1 5.1 0 0 1-2-2c-.4-1-.7-2-.7-3.1 0-1.2.3-2.2.8-3 .4-1 1.1-1.6 2-2.1a6 6 0 0 1 3-.8 6 6 0 0 1 3 .8c.8.5 1.5 1.2 2 2 .4 1 .7 2 .7 3 0 1.2-.3 2.2-.8 3.1-.4.9-1.1 1.6-2 2a6 6 0 0 1-3 .8Zm0-1.5c.9 0 1.6-.1 2.2-.5.6-.4 1.1-.9 1.5-1.6.3-.6.5-1.4.5-2.2 0-.9-.2-1.6-.5-2.3-.4-.7-.9-1.2-1.5-1.5a4 4 0 0 0-2.1-.6c-.9 0-1.6.2-2.2.6-.6.3-1.1.8-1.5 1.5-.3.7-.5 1.4-.5 2.3 0 .8.2 1.6.5 2.2A4 4 0 0 0 323 93c.6.4 1.3.5 2.2.5Zm11.7-6.8c.7 0 1.3.2 1.8.5s1 .7 1.2 1.3c.3.5.4 1.2.4 1.9v4.4h-1.5v-4.3c0-.8-.2-1.4-.5-1.8a2 2 0 0 0-1.6-.6 2.4 2.4 0 0 0-2.4 2.5v4.2h-1.5v-8h1.3V88c.3-.4.7-.7 1.2-1 .5-.2 1-.3 1.6-.3Zm9.1 0a4 4 0 0 1 3 1.1c.7.8 1 1.8 1 3v.6h-6.5c0 .7.4 1.2.8 1.6a3 3 0 0 0 2 .6c.4 0 .9 0 1.3-.2s.8-.4 1-.7l1 .9c-.4.4-.9.8-1.5 1a5 5 0 0 1-2 .4c-.8 0-1.5-.2-2.1-.5-.7-.4-1.2-.9-1.5-1.5-.4-.6-.5-1.3-.5-2.2 0-.8.1-1.5.5-2.1.3-.6.8-1.1 1.4-1.5.6-.3 1.3-.5 2.1-.5Zm0 1.3c-.6 0-1.2.2-1.6.6-.5.4-.8.9-.9 1.6h5.1c0-.7-.3-1.2-.7-1.6-.5-.4-1-.6-1.8-.6Zm10.1-4.4a6 6 0 0 1 3 .7 5 5 0 0 1 2 2c.4.8.6 1.8.6 2.9 0 1-.2 2-.7 3a5 5 0 0 1-2 1.9 6 6 0 0 1-2.9.7h-4.2V83.6h4.2Zm0 9.7c.8 0 1.5-.2 2.1-.5.6-.4 1.1-.8 1.4-1.5a4.4 4.4 0 0 0 0-4.3c-.3-.6-.8-1-1.4-1.4-.6-.4-1.3-.6-2.1-.6h-2.6v8.3h2.6Zm11.2-6.6a3.3 3.3 0 0 1 2 .7l-.7 1.2c-.4-.3-.9-.4-1.3-.4a2 2 0 0 0-1.7.7 3 3 0 0 0-.6 2v3.9h-1.5v-8h1.3v1.4c.4-.5.7-.9 1.1-1.1.4-.2 1-.4 1.4-.4Zm3.9-1.2a1 1 0 0 1-.7-.3 1 1 0 0 1-.3-.7c0-.3 0-.5.3-.7.2-.2.4-.3.7-.3.3 0 .5.1.7.3.2.2.3.4.3.7a1 1 0 0 1-1 1Zm-.8 1.4h1.5v7.9h-1.5v-8Zm9.8 0h1.5l-3.3 7.9h-1.6l-3.4-8h1.7l1.1 3 1.4 3.4 1.4-3.4 1.2-3Zm6.2-.2a4 4 0 0 1 3 1.1c.7.8 1 1.8 1 3v.6h-6.5c0 .7.4 1.2.8 1.6a3 3 0 0 0 2 .6c.4 0 .9 0 1.3-.2s.8-.4 1-.7l1 .9c-.4.4-.9.8-1.5 1a5 5 0 0 1-2 .4c-.8 0-1.5-.2-2.1-.5-.7-.4-1.2-.9-1.5-1.5-.3-.6-.5-1.3-.5-2.2 0-.8.2-1.5.5-2.1.3-.6.8-1.1 1.4-1.5.6-.3 1.3-.5 2.1-.5Zm0 1.3c-.6 0-1.2.2-1.6.6-.5.4-.8.9-.9 1.6h5.2c-.1-.7-.4-1.2-.8-1.6-.5-.4-1-.6-1.8-.6Z" fill="#fff"/><path fill="#272727" d="M439.3 0h124.4v125.6H439.3z"/><path d="M485.6 35.5A14.5 14.5 0 0 1 500 20.8c8 0 14.3 6.7 14.3 14.7a14.3 14.3 0 1 1-28.6 0Z" fill="#fff" stroke="#272727"/><path d="M526 48.9c0 6.7-5.4 12.3-12.2 12.3-6.7 0-12.1-5.6-12.1-12.3 0-7 5.4-12.6 12.1-12.6 6.8 0 12.2 5.6 12.2 12.6Z" fill="#fff" stroke="#272727"/><path d="M492 60.8a9.7 9.7 0 0 1 9.5-9.7c5.4 0 9.6 4.4 9.6 9.7 0 5.4-4.2 10-9.6 10a9.8 9.8 0 0 1-9.5-10Z" fill="#fff" stroke="#272727"/><path opacity=".2" d="M501 33.2h-15.7a15.1 15.1 0 0 0 12.2 17.2h3.8a9.9 9.9 0 0 0-7 3.4 10.2 10.2 0 0 0-2.5 9.5h9.4c.5 0 1-.2 1.4-.7.5-.4.7-.9.7-1.4V35.3c0-.7-.2-1.2-.7-1.6a2 2 0 0 0-1.4-.5h-.2Z" fill="#272727"/><path opacity=".2" d="M501 33.2h-15.7a15.1 15.1 0 0 0 12.2 17.2h3.8a10.6 10.6 0 0 0-9.9 9.7h9.8c.5 0 1-.3 1.4-.7.5-.3.7-.9.7-1.4V35.1a1.8 1.8 0 0 0-.7-1.4 2 2 0 0 0-1.4-.5h-.2Z" fill="#272727"/><path opacity=".2" d="M499.4 33.2h-14a15.1 15.1 0 0 0 12 17.2h4a10.6 10.6 0 0 0-9.9 9.7h8c.6 0 1.1-.3 1.7-.7.3-.3.5-.9.5-1.4V35.1c0-.5-.2-1-.5-1.4l-1.6-.5h-.2Z" fill="#272727"/><path d="M478.6 33.2h20.8c.5 0 1 0 1.6.5.3.4.5.9.5 1.6v21.1c0 .6-.2 1-.5 1.4-.5.6-1 .7-1.6.7h-20.8a1.8 1.8 0 0 1-1.4-.7c-.3-.3-.7-.8-.7-1.4V35.3c0-.7.4-1.2.7-1.6a2 2 0 0 1 1.4-.5Z" fill="#fff"/><path d="M485.5 45.5c-.7-.3-1-.9-1.4-1.4-.4-.5-.5-1.2-.4-1.8 0-1 .2-1.7.7-2.6l2.3-1.4c2.3-.5 4.8-.5 7 0v3l-1.7-.7-2.3-.4c-.7 0-1.4 0-2 .6-.4 0-.6.3-.8.5v.9c0 .2 0 .5.2.7l1 .9 1.8.7h.4l2.2 1.2c.6.3 1.1.9 1.3 1.4.5.7.7 1.4.5 2.1 0 .9 0 1.8-.7 2.5-.6.7-1.3 1.2-2.1 1.6-.9.3-1.8.3-3 .3h-2.6l-2.2-.9v-3c.6.6 1.4 1 2.3 1.1.7.3 1.4.5 2.3.3.7 0 1.6 0 2.3-.5l.5-.5v-.7a1.4 1.4 0 0 0-.3-1l-1-1-2.4-.8-1.9-1.3v.2Z" fill="#272727"/><path d="M463.4 98.4a7.6 7.6 0 0 1-4.7-1.6l.9-1.2c.4.4 1 .8 1.7 1 .7.3 1.4.4 2.1.4a4 4 0 0 0 2.2-.5c.5-.3.8-.8.8-1.3 0-.6-.3-1-.8-1.2-.4-.3-1.2-.6-2.3-.7A7.2 7.2 0 0 1 460 92c-.7-.5-1-1.2-1-2.2 0-.6.2-1.1.5-1.6.4-.5 1-.8 1.6-1 .6-.4 1.3-.5 2.2-.5.7 0 1.5.1 2.2.4.7.2 1.3.6 1.9 1l-.8 1.2a5.2 5.2 0 0 0-3.3-1.2c-.8 0-1.5.2-2 .5s-.8.7-.8 1.3c0 .5.3.8.7 1.1.5.3 1.2.6 2.3.7 1 .2 2 .4 2.6.7.6.3 1 .6 1.4 1 .3.5.4 1 .4 1.6a3 3 0 0 1-.5 1.8c-.4.5-1 .9-1.6 1.1-.7.3-1.5.4-2.4.4Zm10.4-8.2c1 0 1.9.3 2.5 1 .6.6 1 1.5 1 2.6v4.4h-1.6V94c0-.7-.1-1.3-.5-1.7a2 2 0 0 0-1.6-.6 2.4 2.4 0 0 0-2.4 2.5v4.1h-1.5V87h1.5v4.3c.6-.7 1.5-1.1 2.6-1.1Zm13.4.1v8h-1.3V97l-1.3 1c-.5.2-1.1.3-1.8.3a3.8 3.8 0 0 1-3.5-2c-.2-.6-.4-1.3-.4-2.1s.2-1.5.5-2.2a3.7 3.7 0 0 1 3.4-2 4 4 0 0 1 1.8.4c.5.2 1 .6 1.3 1v-1.2h1.3ZM483 97c.8 0 1.5-.2 2-.7.4-.6.7-1.2.7-2s-.3-1.5-.8-2c-.4-.5-1-.8-1.9-.8-.5 0-1 .1-1.3.4-.4.2-.8.5-1 1a3 3 0 0 0-.3 1.4c0 .5.1 1 .3 1.4.2.4.6.7 1 1 .4.2.8.3 1.3.3Zm10.3-6.8a3.3 3.3 0 0 1 2 .6l-.7 1.2c-.4-.2-.9-.4-1.4-.4a2 2 0 0 0-1.6.8 3 3 0 0 0-.6 2v3.8h-1.5v-7.9h1.3v1.3c.4-.5.7-.8 1.1-1 .4-.3.9-.4 1.4-.4Zm6.4 0a4 4 0 0 1 3 1c.7.8 1 1.8 1 3.1v.6h-6.5c0 .6.3 1.2.8 1.6a3 3 0 0 0 1.9.6c.5 0 1-.1 1.4-.3.4-.2.8-.4 1-.7l1 1c-.4.4-1 .7-1.5 1a5 5 0 0 1-2 .3c-.8 0-1.5-.1-2.2-.5-.6-.3-1-.8-1.4-1.4-.4-.7-.6-1.4-.6-2.2 0-.8.2-1.5.6-2.2.3-.6.8-1 1.4-1.4.6-.4 1.3-.5 2-.5Zm0 1.3c-.7 0-1.2.2-1.7.5-.4.4-.7 1-.8 1.6h5.1c0-.6-.3-1.2-.8-1.5-.4-.4-1-.6-1.8-.6Zm11-4.5c.8 0 1.5.2 2.1.5.6.3 1 .8 1.4 1.4.3.5.5 1.2.5 2a4 4 0 0 1-.5 2c-.3.6-.8 1-1.4 1.3-.6.4-1.3.5-2 .5h-3.6v3.5h-1.6V87h5.1Zm0 6.3c.7 0 1.3-.2 1.8-.7.4-.4.7-1 .7-1.7 0-.8-.3-1.3-.7-1.8-.5-.4-1-.6-1.9-.6h-3.4v4.8h3.4Zm9 5.1c-.8 0-1.5-.2-2.1-.5-.7-.4-1.2-.9-1.5-1.5-.3-.6-.5-1.4-.5-2.1 0-.8.2-1.5.5-2.1.3-.7.8-1.2 1.5-1.5.6-.4 1.3-.6 2.2-.6.8 0 1.5.2 2.1.6.7.3 1.1.8 1.5 1.5.3.6.5 1.3.5 2 0 .8-.2 1.6-.5 2.2-.4.6-.8 1.1-1.5 1.5-.6.3-1.3.5-2.1.5Zm0-1.4c.6 0 1-.1 1.4-.3.5-.3.8-.6 1-1l.3-1.4c0-.5 0-1-.3-1.4a2.5 2.5 0 0 0-2.3-1.4c-.6 0-1 .1-1.4.4-.5.2-.8.6-1 1-.2.4-.3.9-.3 1.4 0 .5 0 1 .3 1.4a2.6 2.6 0 0 0 2.4 1.3Zm6.7-8a1 1 0 0 1-.7-.3 1 1 0 0 1-.3-.7c0-.3.1-.5.3-.7.2-.2.5-.3.7-.3.3 0 .6 0 .8.3.2.2.2.4.2.7a1 1 0 0 1-1 1Zm-.7 1.3h1.5v8h-1.5v-8Zm8-.1c.6 0 1.2.1 1.7.4.5.3 1 .7 1.2 1.3.3.6.4 1.2.4 2v4.3h-1.5V94c0-.7-.1-1.3-.5-1.7a2 2 0 0 0-1.6-.6c-.7 0-1.3.2-1.7.7-.5.4-.7 1-.7 1.7v4.2h-1.5v-7.9h1.3v1.1l1.3-1 1.5-.2Zm10.5 7.8c-.6.2-1.1.3-1.7.3-.8 0-1.4-.2-1.9-.7-.4-.4-.6-1.1-.6-2v-4h-1.5v-1.3h1.5v-2.1l1.5-.2v2.3h2.4v1.3h-2.4v4c0 .5 0 .8.3 1 .2.3.5.4.9.4.3 0 .7-.1 1-.3l.5 1.3Z" fill="#fff"/><path fill="#272727" d="M0 147.6h124.4v125.6H0z"/><g clip-path="url(#b)" fill="#fff" stroke="#272727"><path d="M42.1 214.9c-.9 0-1.6-.7-1.6-1.6v-9.5c0-4.9 4-9 9.1-9 5 0 9 4.1 9 9v9.5c0 .9-.6 1.6-1.6 1.6H42.1ZM67.7 214.9c-1 0-1.6-.7-1.6-1.6v-9.5c0-4.9 4-9 9-9s9.1 4.1 9.1 9v9.5c0 .9-.7 1.6-1.6 1.6h-15Z"/><path d="M42.1 214.9c-.9 0-1.6-.7-1.6-1.6v-9.5c0-4.9 4-9 9.1-9 5 0 9 4.1 9 9v9.5c0 .9-.6 1.6-1.6 1.6H42.1ZM67.2 182.8c0 2.7-2.2 4.8-4.8 4.8a4.8 4.8 0 0 1-4.9-4.8c0-2.6 2.2-4.7 4.9-4.7 2.6 0 4.8 2.1 4.8 4.7ZM54.4 187c0 2.7-2.1 4.8-4.8 4.8a4.8 4.8 0 0 1-4.8-4.8c0-2.6 2.1-4.7 4.8-4.7 2.7 0 4.8 2.1 4.8 4.7ZM67.7 214.9c-1 0-1.6-.7-1.6-1.6v-9.5c0-4.9 4-9 9-9s9.1 4.1 9.1 9v9.5c0 .9-.7 1.6-1.6 1.6h-15ZM80 187c0 2.7-2.2 4.8-4.9 4.8a4.8 4.8 0 0 1-4.8-4.8c0-2.6 2.2-4.7 4.8-4.7 2.7 0 4.9 2.1 4.9 4.7Z"/><g opacity=".1"><path d="M53.9 214.8h3.5-5.7c-.3-.4-.5-1-.5-1.5v-12.6c0-2 .5-3.7 1.4-5.3l1 .4a9.8 9.8 0 0 0-1.3 4.9v12.6c0 .8.7 1.5 1.6 1.5ZM73.6 200.7v12.6c0 .6-.2 1.1-.6 1.6h-5.7 3.6c.8 0 1.6-.8 1.6-1.6v-12.6c0-1.8-.5-3.5-1.4-4.9a9 9 0 0 1 1-.4c1 1.6 1.5 3.4 1.5 5.3Z"/></g><g opacity=".1"><path d="M53.1 195.6c-.8 1.5-1.3 3.2-1.3 5v12.7c0 .6.3 1.2.7 1.6a2 2 0 0 1-.8-1.6v-12.6c0-1.9.5-3.6 1.4-5.1ZM73 200.7v12.6a2 2 0 0 0 0 0v-12.6a10.3 10.3 0 0 1 0 0Z"/></g><path d="M53.9 214.9c-1 0-1.7-.7-1.7-1.6v-12.6a10 10 0 0 1 10.2-10 10 10 0 0 1 10.1 10v12.6c0 .9-.7 1.6-1.6 1.6h-17Z"/></g><path d="M42.3 231.1c.8 0 1.5.2 2 .5.7.3 1.1.8 1.4 1.4.4.5.5 1.2.5 2a4 4 0 0 1-.5 2c-.3.6-.7 1-1.3 1.3-.6.4-1.3.5-2.1.5h-3.6v3.5h-1.5v-11.2h5Zm-.1 6.3c.7 0 1.4-.2 1.8-.7.5-.4.7-1 .7-1.7 0-.8-.2-1.3-.7-1.8-.4-.4-1-.6-1.8-.6h-3.5v4.8h3.5Zm9-3.1a4 4 0 0 1 3 1c.7.8 1 1.8 1 3.1v.6h-6.5c0 .7.3 1.2.8 1.6a3 3 0 0 0 1.9.6c.4 0 .9-.1 1.3-.3.5-.2.8-.4 1-.7l1 1c-.4.4-.8.7-1.4 1a5 5 0 0 1-2 .3c-.8 0-1.6-.1-2.2-.5-.6-.3-1.1-.8-1.5-1.4-.3-.7-.5-1.4-.5-2.2 0-.8.2-1.5.5-2.1.4-.7.9-1.2 1.5-1.5.6-.4 1.3-.5 2-.5Zm0 1.3c-.7 0-1.2.2-1.7.6-.4.3-.7.8-.8 1.5h5c0-.6-.2-1.1-.7-1.5-.4-.4-1-.6-1.8-.6Zm9.4 7c-.8 0-1.6-.3-2.2-.6-.6-.4-1.1-.9-1.5-1.5-.3-.6-.5-1.3-.5-2.1s.2-1.5.5-2.1c.4-.7.9-1.2 1.5-1.5.6-.4 1.4-.5 2.2-.5.8 0 1.5.1 2.2.5.6.3 1 .8 1.4 1.5.4.6.5 1.3.5 2 0 .9-.1 1.6-.5 2.2-.3.6-.8 1.1-1.4 1.5-.7.3-1.4.5-2.2.5Zm0-1.5c.5 0 1 0 1.4-.3l1-1 .3-1.4c0-.5-.2-1-.4-1.4a2.5 2.5 0 0 0-2.3-1.4c-.6 0-1 .2-1.4.4-.4.2-.7.6-1 1-.2.4-.3.9-.3 1.4 0 .5.1 1 .3 1.4a2.6 2.6 0 0 0 2.4 1.3Zm10.2-6.8a4 4 0 0 1 2 .5c.7.3 1.2.8 1.5 1.4.3.7.5 1.4.5 2.2 0 .8-.2 1.5-.5 2.1-.3.7-.8 1.1-1.4 1.5a4 4 0 0 1-2 .5c-.7 0-1.2 0-1.7-.3a3 3 0 0 1-1.2-.9v4.7h-1.5v-11.6h1.3v1.2l1.3-1a4 4 0 0 1 1.7-.3Zm-.1 6.8c.7 0 1.4-.2 1.9-.7.5-.5.7-1.2.7-2s-.2-1.5-.7-2c-.5-.5-1.2-.8-2-.8-.5 0-1 .1-1.3.4-.4.2-.7.5-1 1a3 3 0 0 0-.3 1.4c0 .5.1 1 .3 1.4l1 1c.4.2.8.3 1.4.3Zm5.9-10H78v11.2h-1.5v-11.2Zm7.3 3.2a4 4 0 0 1 3 1c.7.8 1 1.8 1 3.1v.6h-6.5c0 .7.3 1.2.8 1.6a3 3 0 0 0 1.9.6c.5 0 1-.1 1.4-.3.4-.2.8-.4 1-.7l1 1c-.4.4-1 .7-1.5 1a5 5 0 0 1-2 .3c-.8 0-1.5-.1-2.2-.5-.6-.3-1-.8-1.4-1.4-.4-.7-.5-1.4-.5-2.2 0-.8.1-1.5.5-2.1.3-.7.8-1.2 1.4-1.5.6-.4 1.3-.5 2.1-.5Zm0 1.3c-.6 0-1.2.2-1.7.6-.4.3-.7.8-.8 1.5h5.1c0-.6-.3-1.1-.8-1.5-.4-.4-1-.6-1.7-.6Z" fill="#fff"/><path fill="#272727" d="M146.4 147.6h124.4v125.6H146.4z"/><g clip-path="url(#c)" fill="#fff" stroke="#272727"><path fill-rule="evenodd" clip-rule="evenodd" d="M188.7 171.4h39.9a2 2 0 0 1 2 2v7.3c0 1.1-.9 2-2 2h-39.9a2 2 0 0 1-2-2v-7.3c0-1 .9-2 2-2Z"/><path d="M200.5 179h-13.8v12h13.8v-12ZM230.6 179h-13.8v12h13.8v-12Z"/><path d="M216.8 179h-16.3v12h16.3v-12ZM200.5 191h-13.8v12.2h13.8v-12.1ZM230.6 191h-13.8v12.2h13.8v-12.1Z"/><path d="M216.8 191h-16.3v12.2h16.3v-12.1ZM198.5 203.2h-9.8a2 2 0 0 0-2 2v8.1c0 1.1 1 2 2 2h9.8a2 2 0 0 0 2-2v-8.1c0-1.1-.8-2-2-2ZM216.8 203.2h-16.3v12.1h16.3v-12.1Z"/><path d="M228.6 203.2h-9.8a2 2 0 0 0-2 2v8.1c0 1.1.9 2 2 2h9.8a2 2 0 0 0 2-2v-8.1c0-1.1-.9-2-2-2ZM186.7 203.2h13.8v12.1h-11.7l-2-2v-10.1Z"/><path d="M230.6 203.2h-13.8v12.1h11.7l2.1-2v-10.1Z"/></g><path d="M179.2 242.6c-1.1 0-2.1-.3-3-.8a5.4 5.4 0 0 1-2-2c-.6-1-.8-2-.8-3 0-1.2.2-2.2.7-3 .5-1 1.2-1.6 2.1-2.1a6 6 0 0 1 7.2 1l-1.1.9a4 4 0 0 0-3-1.2c-.9 0-1.6.2-2.3.5-.6.4-1.1.9-1.5 1.6-.3.6-.5 1.4-.5 2.2 0 .9.2 1.6.5 2.3a4 4 0 0 0 1.5 1.6c.7.3 1.4.5 2.3.5.6 0 1.1-.1 1.7-.3.5-.2 1-.6 1.4-1l1 1a5.7 5.7 0 0 1-4.2 1.8Zm13.4-8.2v8h-1.3v-1.2c-.3.4-.7.7-1.3 1-.5.2-1 .3-1.7.3a3.8 3.8 0 0 1-3.5-2c-.3-.6-.4-1.3-.4-2.1s.1-1.5.4-2.1a3.7 3.7 0 0 1 3.5-2 4 4 0 0 1 1.8.3c.5.3.9.6 1.2 1v-1.2h1.3Zm-4.1 6.7c.8 0 1.4-.2 1.9-.7.5-.5.8-1.2.8-2s-.3-1.5-.8-2-1.1-.8-1.9-.8c-.5 0-1 .1-1.4.4-.4.2-.7.5-1 1a3 3 0 0 0-.3 1.4c0 .5.2 1 .4 1.4a2.7 2.7 0 0 0 2.3 1.3Zm6.5-10h1.4v11.2H195v-11.2Zm7.3 3.2a4 4 0 0 1 3 1c.7.8 1 1.8 1 3.1v.6h-6.5c0 .7.3 1.2.8 1.6a3 3 0 0 0 1.9.6c.4 0 1-.1 1.3-.3.5-.2.8-.4 1-.7l1 1c-.3.4-.8.7-1.4 1a5 5 0 0 1-2 .3c-.8 0-1.5-.1-2.2-.5-.6-.3-1.1-.8-1.5-1.4-.3-.7-.5-1.4-.5-2.2 0-.8.2-1.5.5-2.1.4-.7.9-1.2 1.5-1.5.6-.4 1.3-.5 2-.5Zm0 1.3c-.7 0-1.2.2-1.7.6-.4.3-.7.8-.8 1.5h5.1c0-.6-.3-1.1-.8-1.5-.4-.4-1-.6-1.8-.6Zm9.9-1.3c.7 0 1.3.1 1.8.4.5.3.9.8 1.2 1.3.3.6.4 1.2.4 2v4.3H214V238c0-.7-.2-1.3-.6-1.7a2 2 0 0 0-1.5-.6c-.7 0-1.3.2-1.8.7-.4.4-.7 1-.7 1.7v4.2H208v-7.9h1.4v1.1c.3-.4.7-.7 1.2-.9.5-.2 1-.3 1.6-.3Zm13.4-3.2v11.2h-1.4v-1.1c-.3.4-.7.7-1.2 1l-1.8.3a3.7 3.7 0 0 1-3.4-2c-.4-.6-.5-1.3-.5-2.1s.1-1.6.5-2.2a3.7 3.7 0 0 1 3.4-2c.6 0 1.2.2 1.7.4s.9.4 1.2.8v-4.3h1.5Zm-4.2 10c.5 0 1 0 1.4-.3l1-1c.2-.4.3-.9.3-1.4 0-.6-.1-1-.4-1.4-.2-.5-.5-.8-.9-1-.4-.3-.9-.4-1.4-.4-.5 0-1 .1-1.4.4-.4.2-.7.5-.9 1a3 3 0 0 0-.3 1.4c0 .5 0 1 .3 1.4a2.7 2.7 0 0 0 2.3 1.3Zm14.2-6.7v8h-1.3v-1.2c-.3.4-.7.7-1.3 1-.5.2-1 .3-1.7.3a3.8 3.8 0 0 1-3.5-2c-.3-.6-.5-1.3-.5-2.1s.2-1.5.5-2.1a3.8 3.8 0 0 1 3.5-2 4 4 0 0 1 1.7.3c.6.3 1 .6 1.3 1v-1.2h1.3Zm-4.1 6.7c.8 0 1.4-.2 1.9-.7.5-.5.7-1.2.7-2s-.2-1.5-.7-2c-.5-.5-1.1-.8-2-.8-.4 0-.9.1-1.3.4-.4.2-.7.5-1 1a3 3 0 0 0-.3 1.4c0 .5.1 1 .4 1.4a2.7 2.7 0 0 0 2.3 1.3Zm10.3-6.8a3.3 3.3 0 0 1 1.9.6l-.7 1.3c-.4-.3-.8-.5-1.3-.5a2 2 0 0 0-1.7.8 3 3 0 0 0-.6 2v3.8H238v-7.9h1.4v1.4c.3-.5.7-1 1-1.1.5-.3 1-.4 1.5-.4Z" fill="#fff"/><path fill="#272727" d="M292.9 147.6h124.4v125.6H292.9z"/><path d="M356.6 185.3a7 7 0 1 0 0-14 7 7 0 0 0 0 14Z" fill="#F2F2F2"/><path opacity=".1" d="M356.2 179.8H350a7 7 0 0 0 8 5v-3c0-.7-.1-1.2-.6-1.6l-1.2-.4Z" fill="#272727"/><path opacity=".2" d="M354.6 181.2h-4.2a6.8 6.8 0 0 0 6.2 4v-2a2 2 0 0 0-2-1.8v-.2Z" fill="#272727"/><path d="M372.1 185.6a5.1 5.1 0 1 0 0-10.2 5.1 5.1 0 0 0 0 10.2Zm4.7 1.7H365a1 1 0 0 0-1 1V200a7.7 7.7 0 0 0 8.9 7.8 7.4 7.4 0 0 0 5.9-6v-12.5a2.2 2.2 0 0 0-2.2-2.1h.2Z" fill="#EEE"/><path d="M368.6 189.4v14a12 12 0 0 1-23 4.6l-.4-1.5c-.3-1-.5-2-.5-3.1v-14a2.2 2.2 0 0 1 2.3-2.1h20.2a2.2 2.2 0 0 1 1.2 1.2v1h.2Z" fill="#F2F2F2"/><path opacity=".2" d="M354.6 181.2h-4.2a6.8 6.8 0 0 0 6.2 4v-2a2 2 0 0 0-2-1.8v-.2Z" fill="#272727"/><path opacity=".1" d="M358 187.3v18.6c0 .6 0 1-.3 1.4l-1 .6h-11c-.4-.5-.5-1-.5-1.6-.3-1-.5-2-.5-3v-14a2.2 2.2 0 0 1 2.3-2.2h11v.2Z" fill="#272727"/><path opacity=".2" d="M356.6 187.3v20.6c0 .4-.3.9-.7 1.2l-1.3.3h-8.2a11 11 0 0 1-1.5-5.9v-14a2.2 2.2 0 0 1 2.1-2.2h9.6Z" fill="#272727"/><path opacity=".2" d="M356.6 187.3v17.2l-.1.7c0 .3-.3.5-.5.7l-.6.4h-10.2c-.3-.8-.5-1.8-.5-2.8v-14a2.2 2.2 0 0 1 2.3-2.2h9.6Z" fill="#272727"/><path opacity=".2" d="M346.9 187.3a2.2 2.2 0 0 0-2.2 2.1v14c0 1 .2 2.1.5 3h8c.6 0 1-.2 1.4-.5l.5-.7v-18h-8.2Z" fill="#272727"/><path d="M333.4 181.2h19.7a2 2 0 0 1 2.1 1.9v19.8a1.8 1.8 0 0 1-.6 1.6l-.8.3-.7.1h-19.7a2 2 0 0 1-2-2v-19.6a2 2 0 0 1 2-1.9v-.2Z" fill="#EEE"/><path d="M349.2 188.7h-4.5v11.9h-3v-12h-4.4v-3h11.9v3Z" fill="#272727"/><path d="M339.4 231.1v1.5h-3.7v9.7H334v-9.7h-3.7V231h9Zm3.2 3.2a4 4 0 0 1 3 1c.7.8 1 1.8 1 3.1v.6h-6.5c0 .7.4 1.2.8 1.6a3 3 0 0 0 2 .6l1.3-.3c.4-.2.8-.4 1-.7l1 1c-.4.4-.9.7-1.5 1a5 5 0 0 1-2 .3c-.8 0-1.5-.1-2.1-.5-.7-.3-1.2-.8-1.5-1.4-.4-.7-.5-1.4-.5-2.2 0-.8.1-1.5.5-2.1.3-.7.8-1.2 1.4-1.5.6-.4 1.3-.5 2.1-.5Zm0 1.3c-.6 0-1.2.2-1.6.6-.5.3-.8.8-.9 1.5h5.1c0-.6-.3-1.1-.7-1.5-.5-.4-1.1-.6-1.8-.6Zm13.5-1.2v8h-1.3v-1.2c-.3.4-.7.7-1.3 1-.5.2-1 .3-1.7.3a3.8 3.8 0 0 1-3.5-2c-.3-.6-.4-1.3-.4-2.1s.1-1.5.4-2.1a3.7 3.7 0 0 1 3.5-2 4 4 0 0 1 1.7.3c.6.3 1 .6 1.3 1v-1.2h1.3Zm-4.1 6.7c.8 0 1.4-.2 1.9-.7.5-.5.8-1.2.8-2s-.3-1.5-.8-2-1.1-.8-1.9-.8c-.5 0-1 .1-1.4.4-.4.2-.7.5-1 1a3 3 0 0 0-.3 1.4c0 .5.2 1 .4 1.4a2.7 2.7 0 0 0 2.3 1.3Zm15.7-6.8c1 0 1.8.3 2.4 1 .6.5.9 1.4.9 2.4v4.6h-1.5v-4.5c0-.7-.2-1.2-.5-1.6-.3-.4-.8-.5-1.4-.5a2 2 0 0 0-1.5.6c-.4.4-.6 1-.6 1.6v4.4H364v-4.5c0-.7-.2-1.2-.5-1.6-.3-.4-.8-.5-1.4-.5a2 2 0 0 0-1.5.6c-.5.4-.7 1-.7 1.6v4.4h-1.4v-7.9h1.3v1c.6-.7 1.4-1.1 2.4-1.1.6 0 1.1.1 1.6.4.5.3.8.6 1 1a3.1 3.1 0 0 1 2.9-1.4Zm8.4 8.2c-1.3 0-2.5-.4-3.5-1.2l.7-1.1c.3.3.8.5 1.3.7l1.5.3c.6 0 1-.1 1.4-.3.3-.2.5-.5.5-.8 0-.3-.2-.6-.5-.7-.3-.2-.8-.3-1.5-.4-2.1-.3-3.2-1-3.2-2.4a2 2 0 0 1 1-1.7c.6-.4 1.4-.6 2.4-.6 1.2 0 2.2.3 3 .9l-.6 1a4 4 0 0 0-2.4-.7c-.6 0-1.1.1-1.4.3-.4.2-.5.4-.5.8 0 .3.1.5.4.7.3.2.7.3 1.4.4 1.2.1 2 .4 2.6.8.5.3.7.9.7 1.6 0 .5 0 .9-.4 1.3-.2.3-.6.6-1.2.8-.5.2-1 .3-1.7.3Z" fill="#fff"/><path fill="#272727" d="M439.3 147.6h124.4v125.6H439.3z"/><path d="m503.8 207.8-5.6 5.8c-.7.7-1.8 1-2.8 1-1 0-2-.4-2.7-1l-17.1-17.1a4 4 0 0 1 0-5.7l5.6-5.6a4 4 0 0 1 5.5 0l17.1 17.1a3.7 3.7 0 0 1 0 5.5Z" fill="#fff" stroke="#272727"/><path d="m486.8 201.8 28.6-28.7.1.2.4-.4a4 4 0 0 1 5.5 0l6.2 6.3c.7.6 1 1.6 1 2.6s-.3 2.1-1 2.9l-29 28.9c-1.6 1.7-4.2 1.6-5.6 0l-6.2-6.2a4 4 0 0 1 0-5.6Z" fill="#fff" stroke="#272727"/><path d="M491.3 231.1v1.5h-3.7v9.7H486v-9.7h-3.8V231h9Zm3.4 11.4c-.8 0-1.6-.2-2.2-.5-.6-.4-1.1-.9-1.5-1.5-.3-.6-.5-1.3-.5-2.1s.2-1.5.5-2.1c.4-.7.9-1.2 1.5-1.5.6-.4 1.4-.5 2.2-.5.8 0 1.5.1 2.2.5.6.3 1 .8 1.4 1.5.4.6.5 1.3.5 2 0 .9-.1 1.6-.5 2.2-.3.6-.8 1.1-1.4 1.5-.7.3-1.4.5-2.2.5Zm0-1.4c.5 0 1 0 1.4-.3l1-1 .3-1.4c0-.5-.2-1-.4-1.4a2.5 2.5 0 0 0-2.3-1.4c-.6 0-1 .2-1.4.4-.4.2-.7.6-1 1-.2.4-.3.9-.3 1.4 0 .5.1 1 .3 1.4a2.6 2.6 0 0 0 2.4 1.3Zm10.2-10a6 6 0 0 1 3 .7 5 5 0 0 1 1.9 2c.5.9.7 1.8.7 3 0 1-.2 2-.7 2.9a5 5 0 0 1-2 2 6 6 0 0 1-3 .6h-4v-11.2h4Zm0 9.8c.8 0 1.5-.2 2-.6.7-.3 1.2-.8 1.5-1.4.4-.6.5-1.4.5-2.2 0-.8-.1-1.5-.5-2.1-.3-.6-.8-1.1-1.4-1.5-.6-.3-1.3-.5-2.1-.5h-2.6v8.3h2.6Zm11 1.6c-.7 0-1.5-.2-2.1-.5-.6-.4-1.1-.9-1.5-1.5-.3-.6-.5-1.3-.5-2.1s.2-1.5.5-2.1c.4-.7.9-1.2 1.5-1.5.6-.4 1.4-.5 2.2-.5.8 0 1.5.1 2.2.5.6.3 1 .8 1.4 1.5.4.6.6 1.3.6 2 0 .9-.2 1.6-.6 2.2-.3.6-.8 1.1-1.4 1.5-.7.3-1.4.5-2.2.5Zm0-1.4c.6 0 1 0 1.5-.3l1-1 .3-1.4c0-.5-.1-1-.4-1.4a2.5 2.5 0 0 0-2.3-1.4c-.5 0-1 .2-1.4.4-.4.2-.7.6-1 1-.2.4-.3.9-.3 1.4 0 .5.1 1 .3 1.4a2.6 2.6 0 0 0 2.4 1.3Z" fill="#fff"/><path fill="#272727" d="M0 295.1h124.4v125.6H0z"/><path d="m37.4 328.9 12.4-12.1H84c.8 0 1.6.3 2.2 1a3.1 3.1 0 0 1 .9 2.3v8.8H37.4ZM87 353l-9.3 12H49.8v-12H87Zm0-24.1H49.8v12H87v-12Z" fill="#fff" stroke="#272727"/><path d="M49.8 328.9H37.4v12h12.4v-12Zm37.2 12H49.8V353H87v-12Z" fill="#fff"/><path d="M49.8 341H37.4v-12.1h12.4v12Zm0 0H87v12H49.8v-12Z" stroke="#272727"/><path d="M49.8 341H37.4v12h12.4v-12ZM37.4 353h12.4v12h-9.3c-.8 0-1.5-.3-2.1-.8-.6-.6-1-1.4-1-2.2v-9Z" fill="#fff" stroke="#272727"/><path d="M45.7 380.8h1.5v9.7h6v1.5h-7.5v-11.2Zm9.7 2a1 1 0 0 1-.7-.4 1 1 0 0 1-.3-.7c0-.3.1-.5.3-.7.2-.2.5-.3.7-.3.3 0 .6.1.8.3.2.2.3.4.3.7a1 1 0 0 1-1 1Zm-.7 1.3h1.5v7.9h-1.5v-8Zm6.7 8c-1.3 0-2.5-.4-3.5-1.2l.7-1 1.3.7 1.6.2c.5 0 1 0 1.3-.3.3-.2.5-.4.5-.8 0-.3-.1-.5-.5-.7-.3-.2-.8-.3-1.5-.4-2.1-.2-3.2-1-3.2-2.4a2 2 0 0 1 1-1.6c.6-.5 1.4-.7 2.4-.7 1.2 0 2.2.3 3.1 1l-.7 1a4 4 0 0 0-2.3-.7c-.7 0-1.2 0-1.5.3-.3.1-.5.4-.5.7 0 .3.1.6.4.7.3.2.8.3 1.5.4 1.1.2 2 .4 2.5.8s.8 1 .8 1.7c0 .4-.2.8-.4 1.2-.3.4-.7.6-1.2.8-.5.3-1.1.4-1.8.4Zm10.2-.4c-.6.3-1.1.4-1.7.4-.8 0-1.5-.2-1.9-.7-.4-.5-.6-1.2-.6-2v-4h-1.6V384h1.6v-2.2l1.5-.1v2.3h2.4v1.3h-2.4v4c0 .4 0 .8.3 1 .1.2.4.3.9.3.3 0 .6 0 1-.2l.5 1.2Zm4.3.5c-1.3 0-2.5-.5-3.5-1.3l.7-1 1.3.7 1.6.2c.5 0 1 0 1.3-.3.3-.2.5-.4.5-.8 0-.3-.2-.5-.5-.7-.3-.2-.8-.3-1.5-.4-2.1-.2-3.2-1-3.2-2.4a2 2 0 0 1 1-1.6c.6-.5 1.4-.7 2.4-.7 1.2 0 2.2.3 3 1l-.6 1a4 4 0 0 0-2.3-.7c-.7 0-1.2 0-1.5.3-.4.1-.5.4-.5.7 0 .3.1.6.4.7.3.2.8.3 1.4.4 1.2.2 2 .4 2.6.8.5.4.8 1 .8 1.7 0 .4-.2.8-.4 1.2-.3.4-.7.6-1.2.8-.5.3-1.1.4-1.8.4Z" fill="#fff"/><path fill="#272727" d="M146.4 295.1h124.4v125.6H146.4z"/><g clip-path="url(#d)" fill="#fff" stroke="#272727"><path d="M200 363h-9.6a2 2 0 0 1-1.4-.5 2 2 0 0 1-.6-1.5v-20.8l7.1-2 6.5 2V361a2 2 0 0 1-.6 1.5 2 2 0 0 1-1.5.5ZM214.6 318.7H227c.6 0 1.1.3 1.5.6.4.4.7 1 .7 1.5V345c0 .6-.3 1.1-.7 1.5-.4.4-.9.6-1.5.6h-12.4l-2.4-15.1 2.4-13.3Z"/><path d="M188.4 320.8v20H202v14.3h11.4c.6 0 1.1-.3 1.5-.6.4-.4.7-1 .7-1.5v-34.3h-25.1c-.6 0-1.1.3-1.5.6a2 2 0 0 0-.6 1.5Z"/><path d="M202 318.7h13.6v15.1H202v-15Z"/></g><path d="M184.7 380.7c.8 0 1.5.1 2 .5.7.3 1.1.7 1.5 1.3.3.6.5 1.3.5 2a4 4 0 0 1-.5 2c-.4.6-.8 1-1.4 1.4-.6.3-1.3.5-2.1.5h-3.6v3.5h-1.5v-11.2h5.1Zm0 6.2c.7 0 1.3-.2 1.7-.6.5-.5.7-1 .7-1.8 0-.7-.2-1.3-.7-1.7-.4-.5-1-.7-1.8-.7h-3.5v4.8h3.5Zm5.6-6.2h1.5v11.2h-1.5v-11.2Zm11.5 3.3v7.9h-1.3v-1.2c-.3.4-.7.8-1.2 1-.6.2-1.2.4-1.8.4a3.8 3.8 0 0 1-3.5-2c-.3-.6-.4-1.4-.4-2.2 0-.8.1-1.5.5-2a3.7 3.7 0 0 1 3.4-2 4 4 0 0 1 1.8.3c.5.2.9.5 1.2 1V384h1.3Zm-4.1 6.7c.8 0 1.4-.3 2-.8.4-.5.7-1.2.7-2s-.3-1.4-.8-2c-.5-.5-1.1-.7-1.9-.7-.5 0-1 .1-1.4.3l-1 1a3 3 0 0 0-.3 1.4c0 .6.2 1 .4 1.5a2.7 2.7 0 0 0 2.3 1.3Zm10.6-6.9c.7 0 1.3.2 1.8.5s1 .7 1.2 1.3c.3.5.4 1.2.4 1.9v4.4h-1.5v-4.3c0-.8-.2-1.3-.5-1.8a2 2 0 0 0-1.6-.6c-.7 0-1.3.3-1.8.7-.4.5-.6 1-.6 1.8v4.2h-1.5v-8h1.3v1.2c.3-.4.8-.7 1.2-1 .5-.2 1-.3 1.6-.3Zm9.8 0c.7 0 1.3.2 1.8.5s.9.7 1.1 1.3c.3.5.5 1.2.5 1.9v4.4H220v-4.3c0-.8-.2-1.3-.6-1.8a2 2 0 0 0-1.6-.6 2.4 2.4 0 0 0-2.4 2.5v4.2h-1.5v-8h1.3v1.2l1.3-1c.5-.2 1-.3 1.6-.3Zm9 0a4 4 0 0 1 3 1.1c.8.8 1.1 1.8 1.1 3v.6h-6.5c0 .7.3 1.3.8 1.6a3 3 0 0 0 1.9.6c.5 0 1 0 1.4-.2l1-.7 1 .9c-.4.4-1 .8-1.5 1a5 5 0 0 1-2 .4c-.8 0-1.5-.2-2.2-.5-.6-.4-1.1-.8-1.5-1.5-.3-.6-.5-1.3-.5-2.2 0-.8.2-1.5.5-2 .4-.7.9-1.2 1.5-1.5.6-.4 1.3-.6 2-.6Zm.1 1.4c-.7 0-1.2.1-1.7.5-.4.4-.7.9-.8 1.6h5.1c0-.7-.3-1.2-.8-1.6-.4-.4-1-.5-1.8-.5Zm9.6-1.4a3.3 3.3 0 0 1 1.9.7l-.7 1.2c-.4-.3-.8-.4-1.3-.4a2 2 0 0 0-1.7.7 3 3 0 0 0-.6 2v3.9H233v-8h1.4v1.4c.3-.5.7-.9 1-1 .5-.3 1-.5 1.5-.5Z" fill="#fff"/><path fill="#272727" d="M292.9 295.1h124.4v125.6H292.9z"/><g clip-path="url(#e)" fill-rule="evenodd" clip-rule="evenodd" fill="#fff" stroke="#272727"><path d="M342.7 340.4v18a2.4 2.4 0 0 0 3.7 1.8l29-18.2a1.8 1.8 0 0 0 .9-1.6h-33.6ZM342.7 340.4v-17.8a2.4 2.4 0 0 1 3.7-2l29 18.3a1.8 1.8 0 0 1 .9 1.5h-33.6Z"/><path d="m337.1 329 15.2 10.3a1.3 1.3 0 0 1 0 2.2l-15.2 10.3a1.3 1.3 0 0 1-2-1.1v-20.5a1.3 1.3 0 0 1 2-1.1Z"/></g><path d="M331.5 390.1a7.6 7.6 0 0 1-4.7-1.7l.8-1.1a6.3 6.3 0 0 0 3.8 1.4 4 4 0 0 0 2.2-.5c.6-.4.8-.8.8-1.4 0-.5-.2-.9-.7-1.2-.5-.3-1.3-.5-2.3-.7a7.2 7.2 0 0 1-3.3-1c-.7-.6-1-1.4-1-2.3 0-.6.1-1.1.5-1.6s.9-.9 1.5-1.1a6.4 6.4 0 0 1 4.4 0c.7.2 1.4.6 2 1l-.9 1.1a5.2 5.2 0 0 0-3.3-1.2c-.8 0-1.4.2-2 .6-.4.3-.7.7-.7 1.2s.2 1 .7 1.2c.4.3 1.2.5 2.2.7 1.1.2 2 .4 2.6.7.7.2 1.1.6 1.4 1 .3.4.5 1 .5 1.6a3 3 0 0 1-.6 1.7c-.3.5-.9 1-1.6 1.2-.6.3-1.4.4-2.3.4Zm11-.5c-.5.3-1.1.4-1.7.4-.8 0-1.4-.2-1.8-.7-.5-.5-.7-1.1-.7-2v-4h-1.5V382h1.5v-2.1l1.5-.2v2.3h2.4v1.3h-2.4v4c0 .4.1.8.3 1 .2.2.5.4 1 .4l1-.3.4 1.2Zm5.3-7.8a3.3 3.3 0 0 1 1.9.7l-.7 1.2c-.4-.3-.9-.4-1.3-.4a2 2 0 0 0-1.7.7 3 3 0 0 0-.6 2v3.9H344v-8h1.4v1.4c.3-.5.6-.9 1-1 .5-.3 1-.5 1.4-.5Zm6.3 0a4 4 0 0 1 3 1.1c.7.8 1 1.8 1 3v.6h-6.5c0 .7.4 1.3.8 1.6a3 3 0 0 0 2 .6c.4 0 .8 0 1.3-.2.4-.2.8-.4 1-.7l1 .9c-.4.4-.9.8-1.5 1a5 5 0 0 1-2 .4c-.8 0-1.5-.2-2.1-.5-.7-.4-1.2-.8-1.5-1.5-.4-.6-.5-1.3-.5-2.2 0-.8.1-1.5.5-2 .3-.7.8-1.2 1.4-1.5.6-.4 1.3-.6 2.1-.6Zm0 1.4c-.6 0-1.2.1-1.6.5-.5.4-.8.9-.9 1.6h5.1c0-.7-.3-1.2-.7-1.6-.5-.4-1.1-.5-1.8-.5Zm13.5-1.2v7.9h-1.3v-1.2c-.3.4-.7.8-1.3 1a4 4 0 0 1-3.8-.2c-.5-.3-1-.8-1.4-1.4-.3-.6-.4-1.4-.4-2.2 0-.8.1-1.5.4-2a3.7 3.7 0 0 1 3.5-2 4 4 0 0 1 1.7.3c.6.2 1 .5 1.3 1V382h1.3Zm-4.1 6.7c.8 0 1.4-.3 1.9-.8s.8-1.2.8-2-.3-1.4-.8-2c-.5-.5-1.1-.7-1.9-.7-.5 0-1 .1-1.4.3l-1 1a3 3 0 0 0-.3 1.4c0 .6.2 1 .4 1.5a2.7 2.7 0 0 0 2.3 1.3Zm15.7-6.9c1 0 1.8.3 2.4 1 .6.6.9 1.4.9 2.5v4.6H381v-4.5c0-.7-.2-1.3-.5-1.6-.3-.4-.8-.6-1.4-.6a2 2 0 0 0-1.5.7c-.4.4-.6 1-.6 1.6v4.4h-1.5v-4.5c0-.7-.2-1.3-.5-1.6-.3-.4-.8-.6-1.4-.6a2 2 0 0 0-1.5.7c-.5.4-.7 1-.7 1.6v4.4H370v-8h1.3v1.1c.6-.8 1.4-1.2 2.4-1.2a3 3 0 0 1 1.6.4c.5.3.8.7 1 1.1a3.1 3.1 0 0 1 2.9-1.5Z" fill="#fff"/><path fill="#272727" d="M439.3 295.1h124.4v125.6H439.3z"/><g clip-path="url(#f)"><path d="M492.3 321.6h29.8c.5 0 1 .2 1.3.6.3.3.5.8.5 1.3v34.8c0 .5-.2 1-.5 1.3-.4.3-.8.5-1.3.5h-29.8c-.5 0-1-.2-1.3-.5-.4-.3-.5-.8-.5-1.3v-34.8c0-.5.1-1 .5-1.3.3-.4.8-.6 1.3-.6Z" fill="#fff" stroke="#272727"/><path d="M524 323.5c0-.5-.3-1-.6-1.3-.4-.4-.8-.6-1.3-.6h-29.8c-.5 0-1 .2-1.3.6-.4.3-.5.8-.5 1.3v34.8c0 .5.1 1 .5 1.3.3.3.8.5 1.3.5h21.9l9.7-28.8v-7.8Z" fill="#fff" stroke="#272727"/><path d="M524 331.3h-9.8v9.6l4.8 4.4 5-4.4v-9.6Z" fill="#fff" stroke="#272727"/><path d="M524 340.9h-9.8v9.6l4.8 4.7 5-4.7V341Z" fill="#fff" stroke="#272727"/><path d="M514.2 350.5h9.7v7.8c0 .5-.2 1-.5 1.3-.4.3-.8.5-1.3.5h-8v-9.6Z" fill="#fff" stroke="#272727"/><path opacity=".2" d="M499.8 329.9h-9.3v23.4h9.3c.4 0 1-.2 1.3-.6.3-.3.5-.8.5-1.3v-19.7c0-.5-.2-1-.5-1.3-.4-.3-.9-.5-1.3-.5Z" fill="#fff" stroke="#272727"/><path d="M481.2 329.9h18.6c.4 0 1 .2 1.3.5.3.4.5.8.5 1.3v18.4c0 .4-.2 1-.5 1.3-.4.3-.9.5-1.3.5h-18.6c-.5 0-1-.2-1.4-.5-.3-.4-.5-.9-.5-1.3v-18.4c0-.5.2-1 .5-1.3.4-.3.9-.5 1.4-.5Z" fill="#fff" stroke="#272727"/><path d="M484.9 334h3l5 9.3.6 1V334h2.5v13.8h-2.8l-5.3-9.2-.5-.9v10H485V334Z" fill="#272727"/><path d="M479.3 318.9h44.6v44h-44.6v-44Z" stroke="#272727"/></g><path d="M473.5 390.1a6 6 0 0 1-3-.7 5.1 5.1 0 0 1-2-2c-.5-1-.7-2-.7-3.1 0-1.2.2-2.2.7-3 .5-1 1.1-1.6 2-2.1a6 6 0 0 1 3-.8 6 6 0 0 1 3 .8c.8.5 1.5 1.2 2 2 .5 1 .7 2 .7 3 0 1.2-.2 2.2-.7 3.1-.5 1-1.2 1.6-2 2a6 6 0 0 1-3 .8Zm0-1.4c.8 0 1.5-.2 2.1-.6.7-.4 1.1-.9 1.5-1.5.4-.7.5-1.5.5-2.3 0-.9-.1-1.6-.5-2.3-.4-.6-.8-1.2-1.5-1.5a4 4 0 0 0-2.1-.6c-.8 0-1.5.2-2.2.6-.6.3-1 .9-1.4 1.5-.4.7-.6 1.4-.6 2.3 0 .8.2 1.6.6 2.3a4 4 0 0 0 1.4 1.5c.7.4 1.4.6 2.2.6Zm11.6-6.9c.7 0 1.3.2 1.8.5s1 .7 1.2 1.3c.3.5.4 1.2.4 1.9v4.4H487v-4.3c0-.8-.1-1.3-.5-1.8a2 2 0 0 0-1.6-.6 2.4 2.4 0 0 0-2.4 2.5v4.2H481v-8h1.3v1.2l1.3-1c.4-.2 1-.3 1.5-.3Zm9.2 0a4 4 0 0 1 3 1.1c.6.8 1 1.8 1 3v.6h-6.6c.1.7.4 1.3.9 1.6a3 3 0 0 0 1.8.6c.5 0 1 0 1.4-.2.5-.2.8-.4 1-.7l1 .9c-.4.4-.9.8-1.5 1a5 5 0 0 1-1.9.4c-.8 0-1.6-.2-2.2-.5-.6-.4-1.1-.8-1.5-1.5-.3-.6-.5-1.3-.5-2.2 0-.8.2-1.5.5-2 .4-.7.8-1.2 1.4-1.5.7-.4 1.4-.6 2.2-.6Zm0 1.4c-.7 0-1.3.1-1.7.5-.4.4-.7.9-.8 1.6h5c0-.7-.2-1.2-.7-1.6-.5-.4-1-.5-1.8-.5Zm13.7-4.5h1.6v11.2h-1.4l-6.5-8.6v8.6h-1.5v-11.2h1.4l6.4 8.5v-8.5Zm7.6 11.4c-.8 0-1.5-.2-2.2-.6-.6-.3-1-.8-1.4-1.5-.4-.6-.5-1.3-.5-2 0-.8.1-1.5.5-2.2.3-.6.8-1.1 1.4-1.4.7-.4 1.4-.6 2.2-.6.9 0 1.6.2 2.2.6.6.3 1.1.8 1.5 1.4.3.7.5 1.4.5 2.1 0 .8-.2 1.5-.5 2.1-.4.7-.9 1.2-1.5 1.5-.6.4-1.3.6-2.2.6Zm0-1.4c.6 0 1-.1 1.4-.4.4-.2.7-.6 1-1 .2-.4.3-.9.3-1.4 0-.5-.1-1-.3-1.3a2.5 2.5 0 0 0-2.4-1.4c-.5 0-1 .1-1.4.4-.4.2-.7.5-1 1-.1.4-.3.8-.3 1.3s.2 1 .4 1.4a2.6 2.6 0 0 0 2.3 1.4Zm11 1-1.8.3c-.8 0-1.4-.2-1.8-.7-.5-.5-.7-1.1-.7-2v-4h-1.5V382h1.5v-2.1l1.5-.2v2.3h2.4v1.3h-2.4v4c0 .4.1.8.3 1 .2.2.5.4 1 .4l1-.3.4 1.2Zm4.8-7.9a4 4 0 0 1 3 1.1c.7.8 1 1.8 1 3v.6H529c0 .7.4 1.3.8 1.6a3 3 0 0 0 1.9.6c.5 0 1 0 1.4-.2.4-.2.8-.4 1-.7l1 .9c-.4.4-.9.8-1.5 1a5 5 0 0 1-2 .4c-.8 0-1.5-.2-2.2-.5-.6-.4-1-.8-1.4-1.5-.4-.6-.5-1.3-.5-2.2 0-.8.1-1.5.5-2 .3-.7.8-1.2 1.4-1.5.6-.4 1.3-.6 2.1-.6Zm0 1.4c-.6 0-1.2.1-1.7.5-.4.4-.7.9-.8 1.6h5.1c0-.7-.3-1.2-.7-1.6-.5-.4-1.1-.5-1.8-.5Z" fill="#fff"/><path fill="#272727" d="M0 442.7h124.4v125.6H0z"/><g clip-path="url(#g)"><path d="m67 487.2 13.7 1.7v15c0 .6-.5 1-1.1 1h-26a1 1 0 0 1-1-1v-15l14.5-1.7Z" fill="#fff" stroke="#272727"/><path d="M53.7 471.4h25.9c.9 0 1.6.7 1.6 1.6v15.4H52.1V473c0-.9.7-1.6 1.6-1.6Z" fill="#fff" stroke="#272727"/><path d="M68 492.7h8.8v8.5H68v-8.5Z" stroke="#272727"/><path d="M72.4 485c3 0 5.3-2.2 5.3-5 0-2.9-2.4-5.2-5.3-5.2-3 0-5.3 2.3-5.3 5.1 0 2.9 2.4 5.1 5.3 5.1Z" fill="#fff" stroke="#272727"/><path d="M72.4 482.5c1.4 0 2.6-1.1 2.6-2.6 0-1.4-1.2-2.5-2.6-2.5a2.6 2.6 0 0 0-2.7 2.5c0 1.5 1.2 2.6 2.7 2.6Z" fill="#272727" stroke="#272727"/><path d="M44.8 479H61c1 0 1.7.8 1.7 1.6v15.6c0 .9-.8 1.6-1.7 1.6H44.8c-.9 0-1.6-.7-1.6-1.6v-15.6c0-.8.7-1.5 1.6-1.5Z" fill="#fff" stroke="#272727"/><path d="M56.2 485h-4.5v2.8h4.2v1.6h-4.2v4.1h-2.1v-10.1h6.6v1.6Z" fill="#272727"/></g><path d="M47 522.7h-6.3v3.8h6v1.4h-6v4.5h-1.5v-11.2h7.7v1.5Zm5.3 10c-.9 0-1.6-.3-2.2-.6-.7-.4-1.2-.9-1.5-1.5-.4-.6-.5-1.3-.5-2.1s.1-1.5.5-2.1c.3-.6.8-1.1 1.5-1.5.6-.4 1.3-.5 2.2-.5.8 0 1.5.1 2.1.5.7.4 1.1.9 1.5 1.5.3.6.5 1.3.5 2 0 .9-.2 1.6-.5 2.2-.4.6-.8 1.1-1.5 1.5-.6.3-1.3.5-2.1.5Zm0-1.5c.5 0 1 0 1.3-.3.4-.3.8-.6 1-1 .2-.4.3-1 .3-1.4 0-.5 0-1-.3-1.4a2.5 2.5 0 0 0-2.3-1.4c-.6 0-1 .2-1.5.4a2.9 2.9 0 0 0-1.3 2.4c0 .5.2 1 .4 1.4a2.6 2.6 0 0 0 2.4 1.3Zm9.7-6.8a3.3 3.3 0 0 1 2 .6l-.7 1.3c-.5-.3-.9-.4-1.4-.4a2 2 0 0 0-1.6.7 3 3 0 0 0-.6 2v3.8h-1.5v-7.9h1.3v1.4c.3-.5.7-.9 1.1-1.1.4-.3.9-.4 1.4-.4Zm12.4 0c1 0 1.8.3 2.4 1 .5.5.8 1.4.8 2.5v4.5h-1.5V528c0-.7-.1-1.2-.4-1.6-.4-.3-.8-.5-1.4-.5a2 2 0 0 0-1.6.6c-.4.4-.6 1-.6 1.6v4.4h-1.5V528c0-.7-.1-1.2-.5-1.6-.3-.3-.7-.5-1.3-.5a2 2 0 0 0-1.6.6c-.4.4-.6 1-.6 1.6v4.4H65v-7.9h1.3v1c.6-.7 1.4-1.1 2.4-1.1.6 0 1.2.1 1.6.4.5.3.9.6 1 1.1a3.1 3.1 0 0 1 3-1.5Zm8.4 8.2c-1.4 0-2.6-.4-3.6-1.2l.8-1.1c.3.3.7.6 1.2.7.5.2 1 .3 1.6.3.5 0 1-.1 1.3-.3.4-.2.5-.5.5-.8 0-.3-.1-.6-.4-.7-.3-.2-.8-.3-1.6-.4-2-.3-3.1-1-3.1-2.4a2 2 0 0 1 .9-1.7c.6-.4 1.4-.6 2.4-.6 1.2 0 2.2.3 3.1 1l-.7 1a4 4 0 0 0-2.3-.7c-.7 0-1.2 0-1.5.2-.3.2-.5.5-.5.8 0 .3.1.5.4.7.3.2.8.3 1.5.4 1.2.1 2 .4 2.5.8s.8 1 .8 1.6c0 .5-.1 1-.4 1.3-.3.3-.7.6-1.2.8-.5.2-1 .3-1.7.3Z" fill="#fff"/><path fill="#272727" d="M146.4 442.7h124.4v125.6H146.4z"/><path d="M208.7 470.1a18.3 18.3 0 0 0-18.4 18.3v18.4h18.4a18.3 18.3 0 0 0 0-36.7Zm0 12a6.4 6.4 0 0 1 0 12.8h-6.5v-6.5a6.4 6.4 0 0 1 6.5-6.4Z" fill="#fff" stroke="#272727"/><path d="M227 488.4a18.3 18.3 0 0 1-18.3 18.4h-18.4a12 12 0 0 1 12-12h6.4a6.4 6.4 0 0 0 6.4-6.4H227Z" fill="#fff" stroke="#272727"/><path d="M227 488.4a18.3 18.3 0 0 1-18.3 18.4h-18.4a12 12 0 0 1 12-12h6.4a6.4 6.4 0 0 0 6.4-6.4H227Z" stroke="#272727"/><path d="M227 488.4a18.3 18.3 0 0 1-18.3 18.4h-18.4a12 12 0 0 1 12-12h6.4a6.4 6.4 0 0 0 6.4-6.4H227Z" stroke="#272727"/><path d="M208.7 470.1a18.3 18.3 0 0 0-18.4 18.3v18.4a12 12 0 0 0 12-11.9v-6.5a6.4 6.4 0 0 1 11-4.5l8.4-8.4a18.3 18.3 0 0 0-13-5.4Z" fill="#fff" stroke="#272727"/><path d="M208.7 470.1a18.3 18.3 0 0 0-18.4 18.3v18.4a12 12 0 0 0 12-11.9v-6.5a6.4 6.4 0 0 1 11-4.5l8.4-8.4a18.3 18.3 0 0 0-13-5.4Z" fill="#fff" stroke="#272727"/><path d="M190.6 526.2h1.5v9.8h6v1.4h-7.5v-11.2Zm12.5 11.4c-.8 0-1.5-.2-2.2-.5-.6-.4-1-.9-1.4-1.5-.4-.6-.6-1.3-.6-2.1s.2-1.5.6-2.1c.3-.6.8-1.1 1.4-1.5.7-.4 1.4-.5 2.2-.5.8 0 1.6.1 2.2.5.6.4 1.1.9 1.5 1.5.3.6.5 1.3.5 2 0 .9-.2 1.6-.5 2.2-.4.6-.9 1.1-1.5 1.5-.6.3-1.4.5-2.2.5Zm0-1.4c.5 0 1 0 1.4-.3l1-1c.2-.4.3-1 .3-1.4 0-.5-.1-1-.3-1.4a2.5 2.5 0 0 0-2.4-1.4c-.5 0-1 .2-1.4.4l-1 1c-.2.4-.3.9-.3 1.4 0 .5.1 1 .4 1.4a2.5 2.5 0 0 0 2.3 1.3Zm9.6 1.4c-.8 0-1.5-.2-2.2-.5-.6-.4-1.1-.9-1.5-1.5-.3-.6-.5-1.3-.5-2.1s.2-1.5.5-2.1c.4-.6.9-1.1 1.5-1.5.7-.4 1.4-.5 2.2-.5.8 0 1.5.1 2.2.5.6.4 1 .9 1.4 1.5.4.6.6 1.3.6 2 0 .9-.2 1.6-.6 2.2-.3.6-.8 1.1-1.4 1.5-.7.3-1.4.5-2.2.5Zm0-1.4c.5 0 1 0 1.4-.3l1-1c.2-.4.3-1 .3-1.4 0-.5-.1-1-.4-1.4a2.5 2.5 0 0 0-2.3-1.4c-.5 0-1 .2-1.4.4l-1 1c-.2.4-.3.9-.3 1.4 0 .5.1 1 .3 1.4a2.6 2.6 0 0 0 2.4 1.3Zm10.3-6.8a4 4 0 0 1 2 .5c.6.3 1 .8 1.4 1.4.3.7.5 1.4.5 2.2 0 .8-.2 1.5-.5 2.1-.3.7-.8 1.2-1.4 1.5a4 4 0 0 1-2 .5c-.6 0-1.2 0-1.7-.3a3 3 0 0 1-1.2-.8v4.7h-1.5v-11.7h1.4v1.2c.3-.4.7-.7 1.2-1a4 4 0 0 1 1.8-.3Zm-.2 6.8c.8 0 1.4-.2 1.9-.7.5-.5.7-1.2.7-2s-.2-1.5-.7-2c-.5-.5-1.1-.8-2-.8-.4 0-.9.2-1.3.4s-.7.6-1 1a3 3 0 0 0-.3 1.4c0 .5.1 1 .4 1.4.2.4.5.8.9 1 .4.2.9.3 1.4.3Z" fill="#fff"/><path fill="#272727" d="M292.9 442.7h124.4v125.6H292.9z"/><g clip-path="url(#h)" stroke="#272727" stroke-width=".5"><path d="M354 466.4h-3v4.1h-15.3c-.9 0-1.8 0-2.6.5-.5.8-.4 1.7-.5 2.6v26.6c0 1.5-.1 3 .2 4.5.2 1 1.5 1.1 2.3 1.1h16v4.6h3l23.5-4v-35.9l-23.5-4Z" fill="#fff"/><path d="M351 472h-16.8v32.3H351v-3h-4v-3.6h4v-2h-4V492h4v-2h-4v-3.6h4v-2h-4v-3.6h4v-2h-4V475h4v-3Z" fill="#fff"/><path d="M344.9 475.1h-7.1v3.6h7.1v-3.6Z" fill="#fff"/><path d="m362.4 480-3.4-.3 4 8.4c-1.3 2.9-2.8 5.7-4.2 8.6l3.7-.2c.9-2.2 2-4.2 2.6-6.5.7 2.1 1.7 4 2.4 6.1l3.4-.1-4-7.7 3.7-7.9-3.4-.2c-.8 2-1.6 4-2.2 6-.7-2.1-1.7-4.2-2.6-6.3Z" fill="#272727"/><path d="M344.9 480.8h-7.1v3.6h7.1v-3.6Zm0 5.6h-7.1v3.6h7.1v-3.6Zm0 5.6h-7.1v3.6h7.1V492Zm0 5.7h-7.1v3.5h7.1v-3.5Z" fill="#fff"/></g><path d="M338 536h6.7v1.4h-8.2v-11.2h8.1v1.5h-6.5v3.4h6.3v1.4H338v3.5Zm12.7-2.7 2.9 4.1h-1.8l-2-3-2.2 3h-1.8l3-4-2.8-3.9h1.8l1.2 1.7.7 1.1.7-1 1.2-1.8h1.8l-2.7 3.8Zm7.6 4.3c-.8 0-1.6-.1-2.2-.5-.6-.3-1.1-.8-1.5-1.4-.3-.7-.5-1.4-.5-2.2 0-.8.2-1.5.5-2.2.4-.6.9-1 1.5-1.4.6-.4 1.3-.5 2.2-.5 1 0 2 .4 3 1.2l-1 1c-.3-.3-.6-.5-1-.6-.3-.2-.6-.3-1-.3-.5 0-1 .2-1.4.4-.4.2-.7.5-1 1a3 3 0 0 0-.3 1.4c0 .8.2 1.5.7 2 .5.5 1.2.7 2 .7.4 0 .8 0 1.1-.2a3 3 0 0 0 1-.6l.9 1-1.4 1-1.6.2Zm8-8.2a4 4 0 0 1 2.9 1c.7.8 1 1.8 1 3.1v.6h-6.5c0 .7.4 1.2.8 1.6a3 3 0 0 0 1.9.6c.5 0 1-.1 1.4-.3.4-.1.8-.4 1-.7l1 1c-.4.4-.9.7-1.5 1a5 5 0 0 1-2 .4c-.8 0-1.5-.2-2.2-.6-.6-.3-1-.8-1.4-1.4-.4-.6-.5-1.4-.5-2.2 0-.8.1-1.5.5-2.1.3-.7.8-1.1 1.4-1.5.6-.3 1.3-.5 2.1-.5Zm0 1.3c-.7 0-1.3.2-1.8.6-.4.3-.7.8-.8 1.5h5.1c0-.6-.3-1.1-.7-1.5-.5-.4-1.1-.6-1.8-.6Zm5.7-4.5h1.5v11.2H372v-11.2Z" fill="#fff"/><path fill="#272727" d="M439.3 442.7h124.4v125.6H439.3z"/><g clip-path="url(#i)"><path d="M502.7 466.4h2.8v4.6h16c1.2 0 2 .9 2 2v28.7c0 1 .1 2.2-.5 3.1-.7.6-1.6.5-2.5.5h-15v5.1h-3.1l-22.9-4v-35.9l23.2-4Z" fill="#fff"/><path d="M505.5 472.6H522v31.2h-16.5v-4.1h12v-2h-12V495h12v-2h-12v-3c2 .6 4.2.6 6-.7a7 7 0 0 0 3-5.5H508v-6.7l-2.5.5v-5.1Z" fill="#fff" stroke="#272727" stroke-width=".5"/><path d="M509 476.1c3.5.2 6.4 3.2 6.6 6.7H509v-6.7ZM487.5 480c2.8.1 6-1.1 8.3 1 2.1 2.6 1.6 7.5-1.6 9.1-1.1.6-2.4.6-3.7.5v6l-3-.2V480Z" fill="#272727"/><path d="M490.5 482.7c1 0 2.2-.2 2.9.7.6 1 .5 2.4 0 3.4s-1.8 1-2.8 1v-5Z" fill="#fff"/></g><path d="M463 526.2c.9 0 1.6.2 2.2.5.6.3 1 .8 1.3 1.4.4.6.5 1.2.5 2a4 4 0 0 1-.5 2c-.3.6-.7 1-1.3 1.4-.6.3-1.3.4-2.1.4h-3.6v3.5H458v-11.2h5Zm0 6.3c.8 0 1.4-.2 1.8-.7.5-.4.7-1 .7-1.7s-.2-1.3-.7-1.8c-.4-.4-1-.6-1.8-.6h-3.5v4.8h3.5Zm9.1 5.1c-.8 0-1.6-.2-2.2-.5-.6-.4-1.1-.9-1.5-1.5-.3-.6-.5-1.3-.5-2.1s.2-1.5.5-2.1c.4-.6.9-1.1 1.5-1.5.7-.4 1.4-.5 2.2-.5.8 0 1.5.1 2.2.5.6.4 1 .9 1.4 1.5.4.6.6 1.3.6 2 0 .9-.2 1.6-.6 2.2-.3.6-.8 1.1-1.4 1.5-.7.3-1.4.5-2.2.5Zm0-1.4c.5 0 1 0 1.4-.3l1-1c.2-.4.3-1 .3-1.4 0-.5-.1-1-.4-1.4a2.5 2.5 0 0 0-2.3-1.4c-.5 0-1 .2-1.4.4l-1 1c-.2.4-.3.9-.3 1.4 0 .5.1 1 .4 1.4a2.6 2.6 0 0 0 2.3 1.3Zm15.8-6.7h1.5l-2.6 8h-1.6l-.8-2.4-1.2-3.4-1.3 3.4-.8 2.3h-1.6l-2.7-7.9h1.6l1 3 1 3.2 2-6.2h1.4l2.1 6.3 2-6.3Zm6.2-.1a4 4 0 0 1 3 1c.7.8 1 1.8 1 3.1v.6h-6.5c0 .7.3 1.2.8 1.6a3 3 0 0 0 1.9.6c.5 0 1-.1 1.4-.3.4-.1.8-.4 1-.7l1 1c-.4.4-1 .7-1.5 1a5 5 0 0 1-2 .4c-.8 0-1.5-.2-2.2-.6-.6-.3-1-.8-1.4-1.4-.4-.6-.5-1.4-.5-2.2 0-.8.1-1.5.5-2.1.3-.7.8-1.1 1.4-1.5.6-.3 1.3-.5 2.1-.5Zm0 1.3c-.6 0-1.2.2-1.7.6-.4.3-.7.8-.8 1.5h5.1c0-.6-.3-1.1-.8-1.5-.4-.4-1-.6-1.8-.6Zm9.6-1.3a3.3 3.3 0 0 1 2 .6l-.8 1.3c-.4-.3-.8-.4-1.3-.4a2 2 0 0 0-1.6.7 3 3 0 0 0-.7 2v3.8H500v-7.9h1.3v1.4c.3-.5.7-.9 1-1.1.5-.3 1-.4 1.5-.4Zm8.4-3.2c.8 0 1.5.2 2 .5.7.3 1.1.8 1.4 1.4.4.6.5 1.2.5 2a4 4 0 0 1-.5 2c-.3.6-.7 1-1.3 1.4-.6.3-1.3.4-2.1.4h-3.6v3.5H507v-11.2h5Zm-.1 6.3c.8 0 1.4-.2 1.8-.7.5-.4.7-1 .7-1.7s-.2-1.3-.7-1.8c-.4-.4-1-.6-1.8-.6h-3.5v4.8h3.5Zm9.1 5.1c-.8 0-1.6-.2-2.2-.5-.6-.4-1.1-.9-1.5-1.5-.3-.6-.5-1.3-.5-2.1s.2-1.5.5-2.1c.4-.6.9-1.1 1.5-1.5.6-.4 1.4-.5 2.2-.5.8 0 1.5.1 2.2.5.6.4 1 .9 1.4 1.5.4.6.6 1.3.6 2 0 .9-.2 1.6-.6 2.2-.3.6-.8 1.1-1.4 1.5-.7.3-1.4.5-2.2.5Zm0-1.4c.5 0 1 0 1.4-.3l1-1c.2-.4.3-1 .3-1.4 0-.5-.1-1-.4-1.4a2.5 2.5 0 0 0-2.3-1.4c-.5 0-1 .2-1.4.4l-1 1c-.2.4-.3.9-.3 1.4 0 .5.1 1 .4 1.4a2.6 2.6 0 0 0 2.3 1.3Zm6.7-8a1 1 0 0 1-1-1c0-.3 0-.5.3-.7.2-.2.4-.3.7-.3.3 0 .5.1.7.3.2.2.3.4.3.7a1 1 0 0 1-1 1Zm-.8 1.3h1.5v8H527v-8Zm8-.1c.7 0 1.3.1 1.8.4.5.3.9.8 1.2 1.3.2.6.4 1.2.4 2v4.3h-1.5v-4.2c0-.8-.2-1.4-.6-1.8a2 2 0 0 0-1.5-.6c-.7 0-1.3.2-1.8.7-.5.4-.7 1-.7 1.7v4.2h-1.5v-7.9h1.4v1.1c.3-.4.7-.7 1.2-.9.5-.2 1-.3 1.6-.3Zm10.5 7.8c-.5.2-1 .4-1.7.4-.8 0-1.4-.3-1.8-.7-.4-.5-.6-1.2-.6-2v-4h-1.6v-1.4h1.6v-2l1.4-.2v2.2h2.4v1.3h-2.4v4c0 .5.1.8.3 1 .2.3.5.4 1 .4.2 0 .6 0 1-.2l.4 1.2Z" fill="#fff"/><path fill="#272727" d="M0 590.2h124.4v125.6H0z"/><g clip-path="url(#j)"><path d="M53.2 617.3h29.1c.4 0 .7 0 1 .3.2.3.3.6.3 1v7.4l-15.8 4.7-16-4.7v-7.4c0-.4.2-.7.5-1 .2-.2.6-.4 1-.4Z" fill="#fff" stroke="#272727"/><path d="M51.9 635.6V627h31.7v8.7l-15.8 4.7-16-4.7Z" fill="#fff" stroke="#272727"/><path d="M51.9 645.3v-8.8h31.7v8.8l-15.8 4.6-16-4.6Z" fill="#fff" stroke="#272727"/><path d="M51.9 653.4v-7.3h31.7v7.3c0 .4-.1.7-.4 1-.2.2-.5.4-.9.4h-29c-.4 0-.8-.2-1-.4-.3-.3-.4-.6-.4-1Z" fill="#fff" stroke="#272727"/><path d="M42.3 625h18.2c.5 0 1 .2 1.3.5.3.4.5.8.5 1.3v18.4a1.8 1.8 0 0 1-1.8 1.8H42.3c-.5 0-1-.2-1.3-.5-.3-.4-.5-.8-.5-1.3v-18.4a1.8 1.8 0 0 1 1.8-1.8Z" fill="#fff"/><path d="M56.8 642.9h-2.5l-2.8-9.5-3 9.5H46L43.3 629h2.4l2 9.6 2.8-9.3h2l2.8 9.4 1.9-9.7h2.3L56.8 643Z" fill="#272727"/></g><path d="M56.2 673.8H58L54 685h-1.8l-1.3-4.2-1.5-4.5-1.5 4.5-1.4 4.2H45l-3.8-11.2h1.6l1.8 5.7 1.2 3.6 3-9.3h1.5l3 9.3 1.2-3.6 1.8-5.7Zm6 11.4c-.9 0-1.6-.2-2.3-.6-.6-.3-1-.8-1.4-1.4-.4-.7-.6-1.4-.6-2.2 0-.7.2-1.4.6-2 .3-.7.8-1.2 1.4-1.5.7-.4 1.4-.6 2.2-.6.8 0 1.6.2 2.2.6.6.3 1.1.8 1.5 1.4.3.7.5 1.4.5 2.1 0 .8-.2 1.5-.5 2.2-.4.6-.9 1-1.5 1.4-.6.4-1.4.6-2.2.6Zm0-1.4c.4 0 1-.1 1.3-.4.4-.2.7-.5 1-1 .2-.4.3-.9.3-1.4 0-.5-.1-1-.3-1.3a2.5 2.5 0 0 0-2.4-1.4c-.5 0-1 .1-1.4.4-.4.2-.7.5-1 1a3 3 0 0 0 0 2.8 2.6 2.6 0 0 0 2.4 1.3Zm9.7-6.8a3.3 3.3 0 0 1 2 .6l-.8 1.2c-.4-.3-.8-.4-1.3-.4a2 2 0 0 0-1.7.8 3 3 0 0 0-.6 2v3.8H68v-7.9h1.4v1.3a2.7 2.7 0 0 1 2.5-1.5Zm10.6-3.2V685h-1.3v-1.2c-.4.4-.8.8-1.3 1-.5.3-1.1.4-1.8.4a3.7 3.7 0 0 1-3.4-2c-.3-.6-.5-1.3-.5-2.2 0-.8.2-1.5.5-2.1a3.7 3.7 0 0 1 3.4-2c.6 0 1.2.1 1.7.3.5.2.9.5 1.2.9v-4.3h1.5Zm-4.1 10c.5 0 1-.1 1.3-.4.4-.2.7-.5 1-1 .2-.3.3-.8.3-1.4 0-.5-.1-1-.3-1.4l-1-1c-.4-.2-.8-.3-1.3-.3-.6 0-1 .1-1.4.3l-1 1a3 3 0 0 0-.3 1.4c0 .6.1 1 .3 1.5l1 1c.4.2.8.3 1.4.3Z" fill="#fff"/><path fill="#272727" d="M146.4 590.2h124.4v125.6H146.4z"/><g clip-path="url(#k)"><path d="M210.8 625.5H231c1 0 1.7.7 1.7 1.5v18c0 .8-.8 1.5-1.7 1.5h-20.2c-1 0-1.6-.7-1.6-1.5v-18c0-.8.7-1.5 1.6-1.5Z" fill="#fff" stroke="#272727"/><path d="m220.5 626-8.7 8.3-.8.7-.3.3-.9.2c-.4 0-.8-.2-1.1-.5l-9.6-9a1.4 1.4 0 0 1 0-2l9.6-9c.6-.6 1.6-.7 2.3 0l9.5 9c.3.2.5.6.5 1s-.2.8-.5 1ZM200.1 652.2l-.5-1-.4-1a10.4 10.4 0 0 1 7.3-13.2c1-.3 2.2-.5 3.3-.5h1.1l1.2.2c5.2 1 8.9 5.3 8.9 10.3 0 5.8-5 10.5-11.2 10.5-4 0-7.7-2-9.7-5.3Z" fill="#fff" stroke="#272727"/><path opacity=".2" d="M209.3 635.4c-.2 0-.5-.2-.6-.4l-9.6-9-.4-.5h9c1 0 1.6.7 1.6 1.5v8.4Z" fill="#fff" stroke="#272727"/><path d="M186.3 625.5h21.4c1 0 1.6.7 1.6 1.5v20.2c0 .8-.7 1.5-1.6 1.5h-21.4c-1 0-1.6-.7-1.6-1.5V627c0-.8.7-1.5 1.6-1.5Z" fill="#fff" stroke="#272727"/><path d="m196.3 639.2.7 2 .8-2.1 3.1-8.6h2.9l-5.3 13.2h-3l-5.3-13.2h3l3 8.7Z" fill="#272727"/></g><path d="M199.7 673.8h1.7l-4.7 11.2H195l-4.6-11.2h1.7l2 5 1.8 4.4 3.8-9.4Zm3.6 2a1 1 0 0 1-.7-.3 1 1 0 0 1-.3-.7c0-.3.1-.6.3-.7.2-.2.4-.3.7-.3.3 0 .6 0 .7.3.2.1.3.4.3.7a1 1 0 0 1-1 1Zm-.7 1.3h1.5v7.9h-1.5v-7.9Zm6.7 8c-1.3 0-2.5-.3-3.5-1.1l.7-1.1 1.3.7 1.5.2c.6 0 1 0 1.4-.3.3-.1.5-.4.5-.7 0-.4-.2-.6-.5-.8l-1.5-.4c-2.1-.2-3.2-1-3.2-2.3a2 2 0 0 1 1-1.7c.6-.5 1.4-.7 2.4-.7 1.2 0 2.2.3 3 1l-.6 1a4 4 0 0 0-2.4-.7c-.6 0-1 .1-1.4.3-.4.2-.5.4-.5.8 0 .3.1.5.4.7l1.4.3c1.2.2 2 .4 2.6.8.5.4.8 1 .8 1.7 0 .4-.2.9-.5 1.2-.2.4-.6.7-1.1.9-.5.2-1.1.3-1.8.3Zm5.8-9.4a1 1 0 0 1-.7-.2 1 1 0 0 1-.3-.7c0-.3.1-.6.3-.7.2-.2.4-.3.7-.3.3 0 .6 0 .7.3.2.1.3.4.3.7a1 1 0 0 1-1 1Zm-.7 1.4h1.5v7.9h-1.5v-7.9Zm7.4 8a3.9 3.9 0 0 1-3.7-2 4.4 4.4 0 0 1 0-4.2c.4-.6.9-1 1.5-1.4.7-.4 1.4-.6 2.2-.6.8 0 1.6.2 2.2.6.6.3 1.1.8 1.4 1.4a4.2 4.2 0 0 1 0 4.2c-.3.7-.8 1.2-1.4 1.5-.6.4-1.4.6-2.2.6Zm0-1.3c.5 0 1-.1 1.4-.4.4-.2.7-.5 1-1 .2-.4.3-.9.3-1.4 0-.5-.1-1-.4-1.3a2.5 2.5 0 0 0-2.3-1.4c-.5 0-1 .1-1.4.4-.4.2-.7.5-1 1a3 3 0 0 0 0 2.8 2.6 2.6 0 0 0 2.4 1.3Z" fill="#fff"/><path fill="#272727" d="M292.9 590.2h124.4v125.6H292.9z"/><g clip-path="url(#l)" fill="#fff" stroke="#272727"><path d="m353.3 654.6-7.2-4.6h.5a8 8 0 0 0 4.3-1.2l3.7-2.3v8.5c-.5 0-.9-.2-1.3-.4ZM354.1 645.6l-10-6.2-.4-.4.3-.4 10.6-11.9V617c-.7 0-1.4.4-2 1l-18.3 20.7 19.8 6.9Zm0 0-3.6 2.3h-.1a7 7 0 0 1-7.8 0l-4.1-2.6-2.4-1.5-.8-.5-.2-.2h-.1l-.3.4.3-.4c-1.6-1-1.9-3-.7-4.4l19.8 6.9Z"/><path d="m354.6 644.7-9.4-5.9 9.4-10.6v16.5ZM355.6 655c.4 0 .9-.2 1.2-.4l-1.2.4Zm0 0V646l10.4-6.5.5-.4-.4-.4-10.3-11.7a7 7 0 0 1 8-1.7l12 13.5-20.2 16.3Zm19.6-11.9-18.4 11.5 19-15.9c1.2 1.3 1 3.3-.5 4.3l-.1.1Z"/><path d="M355.6 617c.7 0 1.4.4 2 1l5 5.7a8 8 0 0 0-7 2V617ZM355.6 644.7v-16.5l9.4 10.6-9.4 5.9Z"/></g><path d="M326 683.5h6.7v1.5h-8.2v-11.2h8.1v1.4h-6.5v3.4h6.3v1.4H326v3.5Zm12.8-6.5c.7 0 1.3.1 1.8.4.5.3 1 .7 1.2 1.3.3.5.4 1.2.4 2v4.3h-1.5v-4.3c0-.7-.1-1.3-.5-1.7a2 2 0 0 0-1.6-.7 2.4 2.4 0 0 0-2.4 2.5v4.2h-1.5v-7.9h1.3v1.1l1.3-1 1.5-.2Zm10.6 7.7c-.6.3-1.1.4-1.7.4-.8 0-1.5-.2-1.9-.7-.4-.4-.6-1.1-.6-2v-4h-1.6V677h1.6V675l1.5-.2v2.3h2.4v1.3h-2.4v4c0 .4 0 .8.3 1 .1.3.5.4.9.4l1-.3.5 1.2Zm5.2-7.7a3.3 3.3 0 0 1 2 .6l-.7 1.2c-.5-.3-.9-.4-1.4-.4a2 2 0 0 0-1.6.8 3 3 0 0 0-.6 2v3.8h-1.5v-7.9h1.3v1.3c.3-.5.7-.8 1.1-1 .4-.3.9-.4 1.4-.4Zm10.6.1v7.9H364v-1.2c-.3.4-.8.8-1.3 1-.5.3-1 .4-1.7.4a3.8 3.8 0 0 1-3.5-2c-.3-.6-.5-1.4-.5-2.2 0-.8.2-1.5.5-2a3.8 3.8 0 0 1 3.5-2 4 4 0 0 1 1.7.3c.5.2 1 .5 1.3 1V677h1.3Zm-4.1 6.7c.8 0 1.4-.3 1.9-.8s.7-1.1.7-2c0-.8-.2-1.4-.7-2-.5-.4-1.1-.7-2-.7-.4 0-.9.1-1.3.3l-1 1a3 3 0 0 0-.3 1.4c0 .6.1 1 .4 1.5.2.4.5.7.9 1 .4.2.9.3 1.4.3Zm10.8-10h1.5V685H372v-11.2Zm8.6 0a6 6 0 0 1 2.9.7 5 5 0 0 1 2 2c.4.8.7 1.8.7 2.9 0 1.1-.3 2-.7 3a5 5 0 0 1-2 1.9 6 6 0 0 1-3 .7h-4.1v-11.2h4.2Zm0 9.7c.7 0 1.4-.1 2-.5.7-.3 1.1-.8 1.5-1.4.3-.7.5-1.4.5-2.2 0-.8-.2-1.5-.5-2.1-.4-.7-.8-1.2-1.5-1.5-.6-.4-1.3-.5-2-.5h-2.7v8.2h2.7Z" fill="#fff"/><path fill="#272727" d="M439.3 590.2h124.4v125.6H439.3z"/><path d="M504.6 614.5h11.7c.7 0 1.3.6 1.3 1.3v40.4c0 .7-.6 1.3-1.3 1.3h-11.7c-.7 0-1.3-.6-1.3-1.3v-40.4c0-.7.6-1.3 1.3-1.3Z" fill="#fff" stroke="#272727"/><path d="M508.6 656.2v1.3h-13c-.7 0-1.3-.6-1.3-1.3v-29.4c0-.7.6-1.3 1.3-1.3h11.7c.7 0 1.3.6 1.3 1.3v29.4Z" fill="#fff" stroke="#272727"/><path d="M499.7 656.2v1.3h-13c-.7 0-1.3-.6-1.3-1.3v-18.4c0-.7.6-1.3 1.3-1.3h11.7c.7 0 1.3.6 1.3 1.3v18.4Z" fill="#fff" stroke="#272727"/><path d="M475.6 673.8c.8 0 1.5.2 2 .5.7.3 1.1.8 1.4 1.3.4.6.5 1.3.5 2a4 4 0 0 1-.5 2c-.3.6-.7 1.1-1.3 1.4-.6.3-1.3.5-2.1.5H472v3.5h-1.5v-11.2h5Zm-.1 6.3c.8 0 1.4-.3 1.8-.7.5-.4.7-1 .7-1.8 0-.7-.2-1.3-.7-1.7-.4-.4-1-.7-1.8-.7H472v4.9h3.5Zm9.1 5a3.9 3.9 0 0 1-3.7-2 4.4 4.4 0 0 1 0-4.2c.4-.6.9-1 1.5-1.4.7-.4 1.4-.6 2.2-.6.8 0 1.5.2 2.2.6.6.3 1 .8 1.4 1.4a4.2 4.2 0 0 1 0 4.2c-.3.7-.8 1.2-1.4 1.5-.7.4-1.4.6-2.2.6Zm0-1.3c.5 0 1-.1 1.4-.4.4-.2.7-.5 1-1 .2-.4.3-.9.3-1.4 0-.5-.1-1-.4-1.3a2.5 2.5 0 0 0-2.3-1.4c-.5 0-1 .1-1.4.4-.4.2-.7.5-1 1a3 3 0 0 0 0 2.8 2.6 2.6 0 0 0 2.4 1.3Zm15.8-6.7h1.5l-2.6 7.9h-1.6l-.8-2.3-1.2-3.5-1.3 3.5-.8 2.3H492l-2.7-7.9h1.6l1 3 1 3.2 2-6.2h1.4l2.1 6.2 2-6.2Zm6.2-.2a4 4 0 0 1 3 1.1c.7.8 1 1.8 1 3.1v.5h-6.5c0 .7.3 1.3.8 1.7a3 3 0 0 0 1.9.5c.5 0 1 0 1.4-.2.4-.2.8-.4 1-.7l1 1c-.4.4-1 .7-1.5 1a5 5 0 0 1-2 .3c-.8 0-1.5-.2-2.2-.5-.6-.3-1-.8-1.4-1.5-.4-.6-.5-1.3-.5-2.2 0-.8.1-1.5.5-2 .3-.7.8-1.2 1.4-1.5.6-.4 1.3-.6 2.1-.6Zm0 1.4c-.6 0-1.2.2-1.7.5-.4.4-.7.9-.8 1.6h5.1c0-.7-.3-1.2-.8-1.6-.4-.3-1-.5-1.8-.5Zm9.6-1.3a3.3 3.3 0 0 1 2 .6l-.8 1.2c-.4-.3-.8-.4-1.3-.4a2 2 0 0 0-1.6.8 3 3 0 0 0-.7 2v3.8h-1.4v-7.9h1.3v1.3a2.7 2.7 0 0 1 2.5-1.5Zm10.6 2.2c.5.2 1 .6 1.3 1 .4.6.5 1.1.5 1.7 0 1-.3 1.8-1 2.3-.7.5-1.6.8-3 .8h-5.1v-11.2h5.2a4 4 0 0 1 2.6.8c.7.5 1 1.2 1 2.1 0 .6-.2 1.1-.4 1.5-.3.5-.6.8-1 1Zm-5.8-4v3.4h3.8c.6 0 1-.2 1.4-.5.4-.3.6-.7.6-1.2s-.2-1-.6-1.2c-.3-.3-.8-.5-1.4-.5H521Zm3.9 8.4c.7 0 1.2-.2 1.6-.5.4-.4.6-.8.6-1.4 0-.5-.2-1-.6-1.3-.4-.3-1-.5-1.6-.5H521v3.7h3.9Zm6-9.8h1.5V685h-1.5v-11.2Z" fill="#fff"/><defs><clipPath id="a"><path fill="#fff" transform="translate(185 23.8)" d="M0 0h47.3v44H0z"/></clipPath><clipPath id="b"><path fill="#fff" transform="translate(36.7 171.3)" d="M0 0h51.1v44H0z"/></clipPath><clipPath id="c"><path fill="#fff" transform="translate(186.7 171.3)" d="M0 0h44v44H0z"/></clipPath><clipPath id="d"><path fill="#fff" transform="translate(188.2 316.9)" d="M0 0h41v48H0z"/></clipPath><clipPath id="e"><path fill="#fff" transform="translate(333 318.9)" d="M0 0h44v44H0z"/></clipPath><clipPath id="f"><path fill="#fff" transform="translate(479 318.9)" d="M0 0h45v44H0z"/></clipPath><clipPath id="g"><path fill="#fff" transform="translate(43.2 471.4)" d="M0 0h38v34H0z"/></clipPath><clipPath id="h"><path fill="#fff" transform="matrix(-1 0 0 1 377.6 466.4)" d="M0 0h44.9v44H0z"/></clipPath><clipPath id="i"><path fill="#fff" transform="translate(479.5 466.4)" d="M0 0h44v44H0z"/></clipPath><clipPath id="j"><path fill="#fff" transform="translate(40.2 614)" d="M0 0h44v44H0z"/></clipPath><clipPath id="k"><path fill="#fff" transform="translate(184.2 614)" d="M0 0h49v44H0z"/></clipPath><clipPath id="l"><path fill="#fff" transform="translate(333 614)" d="M0 0h44v44H0z"/></clipPath></defs></svg>