<svg width="251" height="16" viewBox="0 0 251 16" fill="none" xmlns="http://www.w3.org/2000/svg">
<g clip-path="url(#clip0_1396_456)">
<path d="M47.3456 3.09179C47.3108 2.78867 47.2628 2.48692 47.2361 2.18335C47.3658 2.47051 47.4738 2.76497 47.5944 3.05532C47.6293 3.16654 47.7413 3.23172 47.8301 3.30647C48.1794 3.58224 48.5161 3.87168 48.8689 4.14335C49.3863 4.41273 49.9395 4.62651 50.4568 4.8959C51.0398 5.60104 51.5925 6.32852 52.1725 7.0364C52.3976 7.2283 52.6389 7.40652 52.8847 7.57654C52.7908 7.448 52.6833 7.32857 52.5783 7.20824C52.8135 7.14534 53.0553 7.10386 53.2865 7.02911C53.0694 7.01042 52.8514 7.0054 52.6348 6.98717C52.9447 6.91834 53.2637 6.88963 53.5742 6.82217C53.1926 6.77658 52.8059 6.78023 52.4259 6.72371C52.8473 6.66035 53.2688 6.59745 53.6897 6.5309C53.9451 6.48213 54.1869 6.60155 54.4378 6.62799C54.2515 6.54184 54.0653 6.4525 53.8669 6.39142C53.5721 6.38276 53.2774 6.4092 52.9831 6.40054C53.293 6.3349 53.607 6.27884 53.9224 6.2369C54.1349 6.26881 54.3313 6.36134 54.5402 6.40965C54.3656 6.2998 54.1894 6.19041 54.0037 6.09742C53.7851 6.06643 53.5625 6.08238 53.3435 6.05868C53.5837 6.0172 53.8255 5.97435 54.0703 5.95658C54.2874 6.02495 54.4842 6.13708 54.7007 6.20818C54.5392 6.0605 54.3747 5.91464 54.199 5.78109C54.0072 5.74462 53.8043 5.77835 53.609 5.76377C53.8361 5.69494 54.0739 5.6603 54.307 5.61152C54.5094 5.75921 54.7053 5.91418 54.9148 6.05412C54.7679 5.8449 54.6074 5.64343 54.4539 5.43832C54.2808 5.4096 54.1077 5.38225 53.9386 5.33895C54.1521 5.32299 54.3671 5.31707 54.5816 5.30157C54.783 5.50851 54.9647 5.73095 55.1722 5.93378C55.043 5.66759 54.9006 5.40686 54.7648 5.14386C54.5781 5.08506 54.3883 5.03583 54.2031 4.97475C54.4388 4.96746 54.6735 5.00119 54.9092 5.01486C55.096 5.28835 55.261 5.57369 55.4558 5.84308C55.3534 5.53358 55.2393 5.22727 55.1257 4.92097C55.1162 4.85442 55.0354 4.84712 54.9829 4.82433C54.7926 4.76234 54.5983 4.71084 54.4146 4.63563C54.6957 4.66434 54.9723 4.72178 55.2519 4.76417C55.415 5.09418 55.5477 5.4374 55.7304 5.75921C55.6396 5.3859 55.5295 5.01623 55.4296 4.64474C55.1904 4.51392 54.9339 4.40818 54.7063 4.26095C55.0006 4.34664 55.2857 4.45695 55.5765 4.55358C55.7229 4.92279 55.8455 5.29975 56.006 5.6644C55.9323 5.2569 55.8344 4.85305 55.7511 4.44692C55.4876 4.26551 55.204 4.10688 54.9551 3.9086C55.2731 4.05264 55.5795 4.21673 55.893 4.36943C56.0212 4.75596 56.1191 5.15115 56.268 5.53176C56.2054 5.11925 56.1292 4.70765 56.0454 4.29878C55.794 4.04626 55.4735 3.85117 55.2136 3.60412C55.5507 3.78964 55.8677 4.00387 56.1978 4.19987C56.2912 4.59597 56.3921 4.99116 56.4739 5.38954C56.4719 4.96792 56.4028 4.5472 56.3508 4.12922C56.0903 3.83886 55.7829 3.58498 55.5205 3.29599C55.8541 3.53712 56.1882 3.78462 56.4956 4.05173C56.5925 4.42641 56.6188 4.81522 56.7258 5.18807C56.7117 4.78377 56.6677 4.38037 56.6395 3.97698C56.3765 3.66611 56.105 3.36072 55.8531 3.04256C56.1736 3.32243 56.4805 3.61734 56.7813 3.91407C56.8515 4.22448 56.8802 4.5431 56.9277 4.85715C56.9358 4.85806 56.9524 4.85943 56.9605 4.86034C56.9348 4.55951 56.9322 4.25776 56.9171 3.95692C56.9141 3.90177 56.906 3.84525 56.8696 3.79966C56.6465 3.48242 56.4083 3.17383 56.1908 2.85294C56.4855 3.15423 56.753 3.47832 57.0246 3.79647C57.0988 4.03532 57.0877 4.28966 57.1659 4.52851C57.1579 4.26687 57.1563 4.00341 57.1225 3.7436C56.9716 3.39809 56.7768 3.06854 56.6274 2.72212C56.8333 2.98968 56.9963 3.28232 57.1871 3.559C57.3168 3.72035 57.2896 3.92866 57.3375 4.11418C57.3633 3.9004 57.4067 3.67842 57.3355 3.46829C57.2598 3.19389 57.1785 2.9204 57.1149 2.64372C57.2618 2.91812 57.3673 3.20893 57.5086 3.48606C57.5985 3.21805 57.6581 2.94274 57.7403 2.67289C57.7615 2.94319 57.6999 3.21075 57.6954 3.4806C57.9225 3.21622 58.1073 2.92359 58.343 2.66514C58.2143 2.92359 58.0588 3.17064 57.9301 3.42909C58.2632 3.22853 58.5772 3.0029 58.9139 2.8069C58.5792 3.22397 58.235 3.63512 57.8968 4.04945C57.7307 4.27599 57.4975 4.4688 57.4027 4.73226C57.229 5.15662 57.0569 5.58098 56.8818 6.00444C56.8495 6.08831 56.7894 6.16397 56.6945 6.19588C56.3402 6.33217 55.9783 6.45113 55.6229 6.5856C55.4755 6.64212 55.3827 6.76792 55.2514 6.84496C54.9238 6.90284 54.5862 6.90467 54.2596 6.96711C54.5897 7.00312 54.9238 6.96073 55.255 6.98808C55.4437 7.03685 55.6214 7.11662 55.8066 7.17724C55.9515 7.23149 56.1191 7.27524 56.212 7.40014C56.2715 7.47489 56.2735 7.57016 56.2882 7.65813C56.428 7.80444 56.6536 7.93663 56.6334 8.15497C56.6208 8.30857 56.4542 8.38242 56.319 8.43803C56.4174 8.2794 56.2422 7.98495 56.0388 8.13856C56.0964 8.22288 56.1549 8.30766 56.2104 8.39381C56.0656 8.41068 55.9177 8.39062 55.8036 8.30447C55.5361 8.30128 55.2681 8.29718 55.0011 8.30629C55.1621 8.34869 55.3281 8.37148 55.4932 8.40019C54.9925 8.95218 54.4635 9.48229 53.9658 10.0361C54.1581 9.91167 54.3227 9.75669 54.5024 9.61858C54.5084 9.89663 54.4549 10.171 54.4973 10.4486C54.6679 10.5845 54.838 10.7221 55.0238 10.842C55.1197 10.8999 55.1681 10.9983 55.2327 11.0817C55.2454 10.9569 55.1863 10.8493 55.0763 10.7763C55.1156 10.7686 55.1939 10.7536 55.2327 10.7458C55.3438 10.8174 55.4185 10.9204 55.4876 11.0243C55.4952 10.9012 55.4498 10.7631 55.3034 10.7262C55.7991 10.6537 56.2857 10.5384 56.7808 10.4623C57.1013 10.6378 57.4279 10.8042 57.7479 10.981C57.9079 11.0658 57.9912 11.27 57.8862 11.4181C57.7842 11.5635 57.5788 11.5868 57.4052 11.5927C56.8171 11.6023 56.2301 11.6593 55.6507 11.7468C55.7966 11.6196 55.9545 11.5034 56.0944 11.3698C55.734 11.5763 55.3756 11.791 54.9829 11.9446C54.6372 12.0759 54.2919 12.2094 53.9507 12.3498C54.1642 12.1538 54.4024 11.9797 54.6043 11.7728C54.0304 12.1488 53.4762 12.5686 52.812 12.8102C52.4985 12.9228 52.1992 13.1211 51.8474 13.0983C51.585 13.0632 51.3427 12.9574 51.0928 12.8831C50.9283 12.8248 50.7521 12.7865 50.6017 12.7017C50.478 12.6256 50.4679 12.431 50.6073 12.3644C50.7925 12.2842 50.9959 12.2459 51.1897 12.1857C51.4653 12.2947 51.7429 12.4 52.015 12.5157C52.1447 12.5709 52.1513 12.7095 52.1498 12.822C52.2255 12.6912 52.1639 12.5308 52.0236 12.4597C51.6132 12.2441 51.2003 12.033 50.7895 11.8183C51.4567 11.6328 52.1255 11.4537 52.7999 11.2905C52.8695 11.3138 52.9402 11.3375 53.0124 11.3602C52.8418 11.2317 52.6808 11.0836 52.4688 11.0125C52.4365 10.9359 52.4052 10.8593 52.3744 10.7827C52.3451 10.7704 52.2866 10.7467 52.2578 10.7344C52.2068 10.5525 52.1715 10.3675 52.1164 10.1865C52.1175 10.3834 52.1432 10.579 52.1614 10.7754C52.0438 10.8356 51.9257 10.8944 51.808 10.9537C51.804 10.7025 51.8161 10.4509 51.7995 10.1997C51.745 10.4627 51.7273 10.7308 51.6859 10.9956C51.5284 11.0216 51.3719 11.0489 51.2155 11.0758C51.2654 10.7891 51.3331 10.5042 51.3714 10.2157C51.2442 10.4997 51.168 10.8001 51.0635 11.0909C50.9091 11.1004 50.7546 11.11 50.6012 11.1191C50.7087 10.8069 50.8455 10.5024 50.9384 10.1856C50.7541 10.4773 50.6133 10.7887 50.4392 11.0849C50.419 11.1474 50.3382 11.1269 50.2862 11.1378C50.1777 11.1446 50.0697 11.1497 49.9627 11.156C50.1389 10.8324 50.3322 10.5165 50.4962 10.1879C50.2312 10.5079 49.999 10.8493 49.7431 11.1752C49.5821 11.1962 49.4206 11.2189 49.2606 11.2413C49.5205 10.8862 49.8002 10.5425 50.048 10.1801C49.7265 10.4833 49.4388 10.8146 49.1304 11.1287C48.9734 11.2837 48.8422 11.4614 48.6584 11.5927C48.6292 11.4947 48.716 11.4209 48.7639 11.3434C49.1258 10.8484 49.4615 10.3365 49.834 9.84877C50.473 9.61174 51.1302 9.41347 51.7722 9.18055C52.1038 9.08665 52.387 8.8282 52.4026 8.5023C52.337 8.63995 52.2896 8.7931 52.1594 8.8943C51.9726 9.05656 51.7061 9.09668 51.4729 9.17872C51.434 9.10853 51.3947 9.03833 51.3568 8.96814C51.4431 8.8984 51.5299 8.82775 51.6107 8.75117C51.3856 8.86558 51.17 8.99366 50.9495 9.11445C50.899 9.02511 50.849 8.93532 50.7991 8.84598C51.0873 8.64405 51.3982 8.4672 51.6703 8.24704C51.2195 8.47449 50.7829 8.72428 50.3372 8.95993C50.2984 8.86421 50.26 8.76895 50.2226 8.67323C50.6305 8.4207 51.054 8.18824 51.4507 7.9225C50.9111 8.16955 50.3882 8.44577 49.8547 8.70285C49.8289 8.61488 49.8042 8.52737 49.7795 8.43985C50.2327 8.17411 50.6971 7.9225 51.1443 7.64856C50.5775 7.8833 50.0318 8.15861 49.4706 8.40521C49.4529 8.29991 49.4378 8.19508 49.4262 8.08933C49.8855 7.8719 50.3418 7.64901 50.7965 7.4243C50.2186 7.60343 49.6649 7.84364 49.0966 8.04785C49.0915 7.94666 49.088 7.84592 49.0844 7.74473C49.5412 7.56924 50.0147 7.43022 50.4664 7.24379C49.9026 7.36003 49.3499 7.51774 48.7897 7.6481C48.7947 7.53688 48.8008 7.42566 48.8068 7.31444C49.2374 7.21736 49.6765 7.14853 50.101 7.03184C49.5508 7.09429 49.0022 7.16676 48.453 7.23285C48.4676 7.13668 48.4843 7.0405 48.5004 6.94432C48.9037 6.8951 49.3136 6.88416 49.7134 6.81351C49.1531 6.8094 48.5928 6.83219 48.032 6.83265C48.0401 6.75106 48.0482 6.66901 48.0583 6.58742C48.504 6.58697 48.9507 6.59061 49.3969 6.57603C48.5943 6.48942 47.7837 6.46754 46.9781 6.40099C47.1164 6.34721 47.2588 6.30436 47.4016 6.2606C47.0634 6.12659 46.7116 6.02449 46.3724 5.89504C46.5203 5.88045 46.6687 5.87043 46.8176 5.85812C46.5269 5.6799 46.2165 5.52857 45.9267 5.34806C46.1418 5.35171 46.3573 5.36539 46.5723 5.3745C46.3442 5.16209 46.0883 4.97612 45.8652 4.75961C45.9848 4.77647 46.1029 4.79699 46.2225 4.81613C46.0999 4.64702 45.9116 4.51301 45.8445 4.31428C45.792 4.1748 45.738 4.03578 45.6875 3.89584C45.8197 4.01116 45.9101 4.16158 46.0489 4.27098C46.275 4.39632 46.5072 4.51301 46.7419 4.6256C46.5698 4.34391 46.2685 4.11509 46.222 3.78189C46.1847 3.62828 46.1438 3.47558 46.112 3.32106C46.3008 3.52572 46.4093 3.79237 46.6571 3.94917C46.8474 4.08409 47.0306 4.22722 47.2229 4.36032C47.0695 4.02438 46.7576 3.74041 46.7389 3.36254C46.7071 3.1597 46.6612 2.95869 46.6455 2.75448C46.8136 2.99743 46.9231 3.27229 47.1013 3.50886C47.3905 3.73357 47.6818 3.95783 47.9856 4.1666C47.8039 3.87852 47.5975 3.60412 47.4077 3.32015C47.3572 3.25269 47.3577 3.16882 47.3456 3.09179ZM47.8352 3.52526C48.0063 3.82018 48.2173 4.09458 48.403 4.38174C48.455 4.49569 48.5974 4.51666 48.7104 4.55951C49.0572 4.67164 49.3933 4.81112 49.7462 4.90957C49.3757 4.6926 48.9477 4.56908 48.5691 4.3667C48.3081 4.09868 48.1088 3.78371 47.8352 3.52526ZM47.2891 3.94507C47.4592 4.19166 47.655 4.42459 47.8513 4.65432C48.0416 4.73636 48.2501 4.77739 48.448 4.84211C48.7124 4.91504 48.9694 5.01441 49.2409 5.06546C48.8346 4.87675 48.395 4.75323 47.9816 4.57819C47.7307 4.38675 47.5419 4.1356 47.2891 3.94507ZM46.6894 4.21673C46.913 4.47427 47.1452 4.72861 47.3925 4.967C47.9356 5.10056 48.4808 5.2373 49.0325 5.33895C48.5307 5.14204 47.9866 5.04221 47.4799 4.85715C47.2053 4.65568 46.9781 4.40316 46.6894 4.21673ZM46.3073 4.59141C46.543 4.84439 46.8111 5.07412 47.074 5.30385C47.708 5.43786 48.346 5.56822 48.9875 5.67215C48.3909 5.47979 47.7635 5.37131 47.1614 5.19491C46.8636 5.00939 46.6077 4.77374 46.3073 4.59141ZM49.4004 5.37678C49.3807 5.31798 49.3605 5.26009 49.3398 5.2022C49.3333 5.30294 49.3338 5.40367 49.3348 5.50486C49.5614 5.37268 49.8007 5.25599 50.0137 5.10557C49.7997 5.17805 49.6043 5.28562 49.4004 5.37678ZM49.5019 5.78838C49.4897 5.74553 49.4645 5.65984 49.4519 5.61699C49.4332 5.71545 49.4332 5.81527 49.4362 5.91464C49.7245 5.751 50.0283 5.60605 50.2989 5.41826C50.0253 5.52765 49.7679 5.66577 49.5019 5.78838ZM46.435 5.47843C46.7454 5.60742 47.0695 5.7273 47.4127 5.76012C47.9291 5.83077 48.4449 5.90279 48.9613 5.97435L48.9699 5.93925C48.1239 5.7902 47.2835 5.61289 46.435 5.47843ZM49.7204 6.14847C49.7144 6.11565 49.7028 6.04956 49.6967 6.01674C49.6876 6.01765 49.6684 6.01902 49.6593 6.01948C49.6609 6.10335 49.6624 6.18722 49.6654 6.27109C49.9683 6.09514 50.2898 5.94199 50.5729 5.74006C50.2807 5.86177 50.0061 6.01538 49.7204 6.14847ZM47.1265 5.98073C47.4693 6.10927 47.8337 6.20271 48.2072 6.21502C48.5247 6.22551 48.8427 6.29798 49.1602 6.26698C48.4848 6.16124 47.8059 6.06232 47.1265 5.98073ZM50.052 6.4525C50.0349 6.39233 50.0172 6.33308 49.999 6.27382C49.9819 6.37456 49.9819 6.47666 49.9834 6.57876C50.2867 6.41193 50.6007 6.25878 50.8874 6.06871C50.6012 6.18266 50.3296 6.32396 50.052 6.4525ZM50.4639 6.71368C50.4447 6.65397 50.4266 6.59517 50.4064 6.53637C50.3983 6.63756 50.3953 6.73921 50.3943 6.8404C50.6663 6.68907 50.949 6.54959 51.2044 6.37501C50.9505 6.47484 50.7102 6.60018 50.4639 6.71368ZM50.904 6.96848C50.8914 6.92199 50.8662 6.82809 50.8541 6.7816C50.8374 6.88461 50.8344 6.98945 50.8339 7.09383C51.062 6.96256 51.3053 6.84997 51.5138 6.69363C51.3033 6.77157 51.1059 6.87504 50.904 6.96848ZM51.3376 7.20642C51.3164 7.15309 51.2977 7.09976 51.2771 7.04688C51.272 7.1426 51.271 7.23832 51.2715 7.33404C51.4461 7.23331 51.6258 7.1385 51.7874 7.02044C51.6334 7.07469 51.4855 7.14124 51.3376 7.20642ZM53.7437 7.25109C53.7347 7.29029 53.7614 7.34088 53.7973 7.36367C53.8503 7.34635 53.8911 7.3149 53.9194 7.26932C53.8972 7.21097 53.7902 7.22693 53.7437 7.25109ZM54.3611 7.25017C54.3898 7.26339 54.4479 7.28892 54.4766 7.30168C54.4585 7.33997 54.4413 7.3778 54.4247 7.41609C54.5044 7.35957 54.5836 7.30168 54.6614 7.24151C54.5599 7.24288 54.461 7.24516 54.3611 7.25017ZM51.6223 7.57335C51.7596 7.50133 51.8964 7.42657 52.018 7.33359C51.9075 7.36914 51.8005 7.41153 51.6945 7.45392C51.6819 7.42202 51.6576 7.3582 51.6455 7.3263C51.6359 7.4088 51.6284 7.49084 51.6223 7.57335ZM54.991 7.33997C54.996 7.37643 55.0066 7.44845 55.0122 7.48492C55.0667 7.44435 55.1222 7.40424 55.1787 7.36458C55.1151 7.35683 55.0526 7.34863 54.991 7.33997ZM53.1411 7.48674C53.1855 7.5109 53.2304 7.53551 53.2764 7.56013C53.2521 7.60343 53.2289 7.64719 53.2062 7.69095C53.3031 7.62668 53.398 7.56013 53.4904 7.48993C53.3733 7.48765 53.2572 7.48674 53.1411 7.48674ZM55.733 7.60753C55.739 7.71465 55.9343 7.7461 55.9843 7.64901C56.0045 7.6089 55.9909 7.56241 55.9944 7.52002C55.9666 7.54828 55.9101 7.6048 55.8824 7.63306C55.7642 7.62349 55.8405 7.51455 55.843 7.45484C55.7885 7.49312 55.7062 7.53096 55.733 7.60753ZM53.8603 7.56195C53.8957 7.57882 53.9663 7.61209 54.0017 7.62896C53.9835 7.66086 53.9477 7.72513 53.9295 7.7575C54.0274 7.69596 54.1213 7.62987 54.2137 7.56104C54.0956 7.55466 53.9774 7.55557 53.8603 7.56195ZM51.9676 7.71693C51.9479 7.67499 51.9292 7.63351 51.911 7.59203C51.906 7.67317 51.9004 7.75476 51.8959 7.83681C52.0534 7.75248 52.2124 7.66952 52.3572 7.56788C52.224 7.60981 52.0947 7.66223 51.9676 7.71693ZM54.5049 7.67636C54.5508 7.69961 54.5973 7.72285 54.6442 7.7461C54.621 7.78895 54.6003 7.83225 54.5791 7.8751C54.6735 7.81265 54.7669 7.74747 54.8562 7.67773C54.7386 7.67545 54.6215 7.67499 54.5049 7.67636ZM56.2059 7.74884C56.1923 7.76388 56.165 7.79442 56.1514 7.80946C56.3175 7.91384 56.4951 8.02004 56.5405 8.2124C56.5617 7.99908 56.3598 7.87373 56.2059 7.74884ZM52.1038 7.99725C52.0942 7.9772 52.074 7.93709 52.064 7.91749C52.0564 7.98221 52.0493 8.04785 52.0428 8.11303C52.1649 8.03964 52.2876 7.96535 52.4001 7.87965C52.2987 7.91338 52.2007 7.95486 52.1038 7.99725ZM53.2425 7.96489C53.2996 7.9854 53.3556 8.00455 53.4147 8.0246C53.3935 8.08067 53.3728 8.13719 53.3536 8.19416C53.4581 8.103 53.5585 8.00774 53.6574 7.91156C53.5181 7.92341 53.3793 7.94164 53.2425 7.96489ZM52.6696 8.01685C52.7014 8.02597 52.7645 8.04466 52.7958 8.05423C52.7852 8.08386 52.764 8.14311 52.7534 8.17274C52.8251 8.10665 52.8958 8.03919 52.9654 7.97082C52.866 7.9854 52.7676 8.00044 52.6696 8.01685ZM53.9517 8.05833C54.0097 8.07383 54.0663 8.08842 54.1268 8.10346C54.1082 8.15861 54.0905 8.21376 54.0733 8.26937C54.1708 8.17958 54.2621 8.08477 54.3474 7.9854C54.2142 8.00546 54.0824 8.03053 53.9517 8.05833ZM55.7405 8.02369C55.6784 8.0752 55.7007 8.14858 55.7274 8.20966C55.7446 8.07884 55.8612 8.04101 55.9924 8.04192C55.9147 8.00819 55.8152 7.95486 55.7405 8.02369ZM54.5493 8.20738C54.5796 8.21969 54.6407 8.2443 54.671 8.25661C54.6573 8.2949 54.6457 8.33364 54.6336 8.37239C54.7043 8.31268 54.7754 8.25296 54.8466 8.19325C54.7467 8.19736 54.6477 8.20237 54.5493 8.20738ZM52.1286 8.27576C52.123 8.32635 52.1185 8.37695 52.1144 8.428C52.2023 8.36965 52.2891 8.30994 52.3754 8.24932C52.2941 8.26892 52.2123 8.28578 52.1286 8.27576ZM52.7232 8.46082C52.7701 8.47449 52.817 8.48862 52.8655 8.5023C52.8579 8.5342 52.8433 8.59756 52.8357 8.62901C52.9129 8.5538 52.9866 8.47631 53.0593 8.397C52.9468 8.41569 52.8342 8.43757 52.7232 8.46082ZM53.3394 8.52554C53.3869 8.53329 53.4818 8.54788 53.5292 8.55562C53.5227 8.59574 53.509 8.67596 53.5025 8.71653C53.5948 8.62263 53.6761 8.52007 53.7523 8.41523C53.6125 8.44577 53.4747 8.48224 53.3394 8.52554ZM54.0128 8.59027C54.0547 8.59756 54.139 8.61169 54.1814 8.61898C54.1662 8.6673 54.1521 8.71562 54.1395 8.76393C54.2207 8.68371 54.298 8.59938 54.3722 8.51323C54.251 8.53557 54.1309 8.56064 54.0128 8.59027ZM54.6785 8.68827C54.6967 8.72701 54.7159 8.76575 54.7361 8.80496C54.7795 8.75846 54.8244 8.71243 54.8693 8.66639C54.8052 8.67368 54.7416 8.68097 54.6785 8.68827ZM52.81 8.93851C52.8478 8.94489 52.9235 8.95765 52.9614 8.96449C52.9513 9.01326 52.9427 9.06249 52.9346 9.11172C53.0083 9.02694 53.0805 8.94033 53.1502 8.85145C53.0351 8.87743 52.9215 8.90569 52.81 8.93851ZM53.4843 9.06705C53.5474 9.07525 53.611 9.08346 53.6751 9.09075C53.6655 9.14773 53.6574 9.20425 53.6499 9.26122C53.7362 9.15912 53.8164 9.05246 53.8901 8.94216C53.7528 8.97862 53.6171 9.0201 53.4843 9.06705ZM54.2258 9.07024C54.2561 9.08255 54.3166 9.10716 54.3469 9.11947L54.3106 9.22886C54.3807 9.16368 54.4504 9.09713 54.519 9.03013C54.4206 9.04243 54.3227 9.05611 54.2258 9.07024ZM52.3658 9.1491C52.4289 9.18465 52.4622 9.23524 52.4667 9.30134C52.5233 9.24846 52.5828 9.19787 52.6429 9.14773C52.55 9.1491 52.4577 9.15046 52.3658 9.1491ZM53.0028 9.38247C53.0396 9.39113 53.1138 9.408 53.1507 9.41666C53.137 9.46406 53.1244 9.51147 53.1128 9.55933C53.1936 9.48001 53.2713 9.39751 53.345 9.31228C53.2294 9.33142 53.1148 9.35467 53.0028 9.38247ZM52.0236 9.44355C52.0064 9.48366 52.0155 9.51967 52.0508 9.55203C52.1104 9.56525 52.173 9.51056 52.1922 9.46224C52.1558 9.41939 52.0725 9.42623 52.0236 9.44355ZM53.8179 9.48685C53.8502 9.49779 53.9149 9.51921 53.9477 9.5297C53.9376 9.55933 53.9179 9.61813 53.9078 9.64775C53.9769 9.58166 54.0461 9.51466 54.1142 9.4472C54.0153 9.4595 53.9159 9.47272 53.8179 9.48685ZM52.498 9.52514C52.5308 9.53973 52.597 9.5689 52.6298 9.58348C52.6156 9.61266 52.5874 9.67146 52.5732 9.70063C52.652 9.64411 52.7322 9.58759 52.8105 9.5297C52.706 9.52742 52.601 9.52605 52.498 9.52514ZM53.3662 9.73664C53.3859 9.77629 53.4066 9.81595 53.4283 9.85606C53.4712 9.8082 53.5151 9.76034 53.5595 9.71294C53.4944 9.72069 53.4298 9.72843 53.3662 9.73664ZM51.0509 9.73983C51.0741 9.78906 51.0822 9.84056 51.0656 9.89253C51.1241 9.84148 51.1867 9.79316 51.2503 9.74576C51.1832 9.74393 51.1165 9.74211 51.0509 9.73983ZM51.6067 9.73983C51.6395 9.78541 51.647 9.83418 51.6299 9.88523C51.6899 9.83737 51.7525 9.79179 51.8161 9.74667C51.7455 9.74439 51.6758 9.74211 51.6067 9.73983ZM52.178 9.84831C52.1715 9.88751 52.1952 9.93993 52.232 9.96272C52.286 9.94631 52.3264 9.91486 52.3532 9.86837C52.3274 9.81321 52.2255 9.82461 52.178 9.84831ZM52.7802 9.87566C52.7928 9.91395 52.818 9.99053 52.8307 10.0288C52.8882 9.97822 52.9493 9.93082 53.0109 9.88387C52.9331 9.88159 52.8564 9.87885 52.7802 9.87566ZM53.1148 10.115C53.1532 10.3415 53.1921 10.568 53.2451 10.7918C53.3586 11.0403 53.6721 11.1446 53.7988 11.3862C53.8184 11.2536 53.7463 11.141 53.6206 11.0758C53.668 11.0703 53.7634 11.0599 53.8109 11.0544C53.9078 11.1291 53.984 11.2221 54.0638 11.3119C54.0653 11.1925 54.0047 11.0886 53.8942 11.0248C54.0304 10.9979 54.1662 10.9673 54.303 10.9373C54.0915 10.8497 53.9038 10.6806 53.6554 10.7021C53.4717 10.5088 53.3031 10.3046 53.1148 10.115ZM55.6047 10.9614C55.9576 10.9295 56.3164 10.8835 56.6521 10.7768C56.2988 10.7973 55.9328 10.8388 55.6047 10.9614ZM54.6705 10.8265C54.8017 10.9035 54.8931 11.0179 54.9799 11.1333C55.0006 10.9655 54.8648 10.8137 54.6705 10.8265ZM55.6688 11.1465C55.842 11.1702 56.0156 11.1369 56.1877 11.115C56.4946 11.069 56.8086 11.0476 57.1089 10.9705C56.6228 10.9623 56.1433 11.0621 55.6688 11.1465ZM53.2547 11.1524C53.3763 11.2271 53.4677 11.3315 53.5469 11.4427C53.5731 11.2818 53.4404 11.1291 53.2547 11.1524ZM54.5458 11.3862C54.8269 11.3548 55.1126 11.3078 55.3751 11.2066C55.0919 11.2244 54.7987 11.2645 54.5458 11.3862ZM52.4218 11.6871C52.1821 11.7636 51.9373 11.832 51.7111 11.9378C51.9645 11.9109 52.1997 11.8106 52.4445 11.7477C52.7201 11.6579 53.0093 11.5964 53.2728 11.4788C52.9796 11.5102 52.7015 11.6064 52.4218 11.6871ZM53.2456 11.7404C52.8685 11.8708 52.4753 11.9761 52.126 12.1611C52.4602 12.075 52.7807 11.9514 53.1093 11.8498C53.4843 11.7181 53.875 11.6223 54.2424 11.4737C53.8992 11.523 53.5742 11.6424 53.2456 11.7404ZM50.9232 12.5691C51.221 12.657 51.5158 12.7541 51.8176 12.8321C51.5955 12.719 51.3573 12.6356 51.1261 12.5403C51.2246 12.4916 51.3235 12.4437 51.4184 12.3895C51.2554 12.4428 51.0277 12.4264 50.9232 12.5691Z" fill="#EEEEEE"/>
<path d="M-0.0615234 0.018207C4.86025 0.0186628 9.78153 0.0168396 14.7033 0.0191187C14.7018 1.65321 14.7028 3.28685 14.7023 4.92094C14.621 4.9182 14.5398 4.91501 14.4585 4.91091C14.246 4.41954 14.0264 3.93137 13.8099 3.44137C13.5338 2.82739 13.2703 2.20201 12.8741 1.64045C12.6091 1.26714 12.2775 0.922997 11.8565 0.687797C11.3775 0.412942 10.8112 0.289416 10.2499 0.253863C9.73509 0.2215 9.21823 0.239277 8.70238 0.234719C8.70288 4.3498 8.70187 8.46489 8.70288 12.5795C8.70743 13.0764 8.77456 13.6065 9.10567 14.0203C9.44738 14.442 10.0102 14.663 10.5659 14.7528C10.8011 14.7925 11.0383 14.8226 11.2746 14.8581C11.2725 14.9292 11.2705 15.0003 11.269 15.0715C8.63373 15.0705 5.99795 15.0728 3.36267 15.0705C3.36469 14.9994 3.36621 14.9283 3.36823 14.8577C3.87852 14.7806 4.41002 14.7387 4.87489 14.5158C5.312 14.3276 5.65573 13.9725 5.79302 13.5518C5.93587 13.1643 5.94142 12.7509 5.9389 12.3471C5.9389 8.30991 5.93789 4.27232 5.9394 0.235174C5.32664 0.2411 4.71135 0.211016 4.10162 0.280756C3.48886 0.352318 2.88367 0.561993 2.42132 0.940318C1.82118 1.42758 1.45574 2.09535 1.14129 2.75446C0.810173 3.47282 0.503287 4.19984 0.176716 4.91957C0.0969666 4.91866 0.0177217 4.9182 -0.0615234 4.91729C-0.0610187 3.28457 -0.0615234 1.65139 -0.0615234 0.018207Z" fill="#EEEEEE"/>
<path d="M62.458 0.0179443C65.1958 0.0184001 67.934 0.0184001 70.6718 0.0179443C70.6718 0.0462048 70.6723 0.103181 70.6728 0.131442C70.1398 0.229898 69.5886 0.302372 69.1035 0.538939C68.7381 0.706223 68.4277 0.974697 68.248 1.30835C68.035 1.70719 68.0007 2.15708 67.9976 2.59284C68.0012 5.81453 67.9966 9.03668 67.9996 12.2588C68.0072 12.7415 67.9754 13.2265 68.0335 13.7074C68.092 14.1705 68.3101 14.6345 68.7255 14.9267C69.2761 15.3306 69.9969 15.4308 70.6718 15.5507C70.6718 15.5776 70.6723 15.6318 70.6723 15.6587C67.934 15.6583 65.1958 15.6583 62.4575 15.6583C62.4575 15.6318 62.4575 15.5781 62.4575 15.5512C62.9658 15.4545 63.4928 15.3907 63.9622 15.1765C64.4129 14.986 64.8076 14.6496 64.9646 14.2152C65.1029 13.8811 65.1297 13.521 65.1327 13.1677C65.1327 9.87082 65.1327 6.57391 65.1327 3.27656C65.1221 2.78975 65.1685 2.29701 65.0661 1.81567C64.9883 1.39997 64.7526 1.00797 64.3821 0.747246C63.8365 0.349777 63.1238 0.249954 62.457 0.130986C62.457 0.102726 62.458 0.0462048 62.458 0.0179443Z" fill="#EEEEEE"/>
<path d="M71.1545 0.0188783C73.1619 0.0161435 75.1693 0.0188784 77.1771 0.017511C77.7197 0.890394 78.4173 1.67211 79.1128 2.44791C80.2495 3.69729 81.416 4.92435 82.5693 6.16097C84.2966 8.00018 86.0188 9.84349 87.7455 11.6832C87.7193 9.07772 87.697 6.47229 87.6703 3.86686C87.6678 3.08149 87.6269 2.27014 87.2801 1.53765C87.0777 1.10417 86.7138 0.729492 86.2459 0.517994C85.6902 0.262739 85.0592 0.208041 84.451 0.13192C84.4515 0.103204 84.452 0.0457714 84.4525 0.017511C88.7252 0.0184226 92.9984 0.0175109 97.2711 0.0179667C98.381 0.0229806 99.4909 0.00429227 100.6 0.0325527C101.959 0.0872504 103.328 0.295101 104.581 0.785101C106.221 1.38769 107.669 2.45156 108.573 3.83449C109.527 5.27122 109.883 7.00012 109.686 8.65792C109.497 10.2824 108.746 11.8673 107.491 13.0529C106.175 14.3328 104.357 15.1414 102.466 15.4568C101.056 15.7212 99.6106 15.6487 98.1806 15.6578C95.9017 15.6569 93.6223 15.6597 91.3433 15.6565C91.3484 15.631 91.3585 15.5794 91.363 15.5539C91.7502 15.4805 92.1494 15.4504 92.5259 15.3342C92.9974 15.1984 93.4496 14.9472 93.7071 14.5552C93.9645 14.1514 94.0296 13.6746 94.0286 13.2161C94.0291 9.90274 94.0301 6.58943 94.0281 3.27612C94.0195 2.44426 93.8696 1.54084 93.2281 0.901789C92.6511 0.320171 91.7471 0.116878 90.9098 0.132832C90.241 0.136934 89.5474 0.272311 89.0059 0.642887C88.432 1.03078 88.1135 1.65297 87.9898 2.27744C87.8661 2.84675 87.8929 3.42973 87.8904 4.00679C87.8899 8.00245 87.8899 11.9981 87.8899 15.9938C87.849 15.9942 87.7662 15.9951 87.7248 15.9956C85.1839 13.309 82.6627 10.6074 80.1279 7.91539C78.4612 6.14 76.793 4.36552 75.1264 2.59012C75.1501 5.22062 75.1753 7.85112 75.198 10.4816C75.2026 11.4826 75.2308 12.5018 75.5554 13.4672C75.7154 13.9349 75.9627 14.3911 76.362 14.7312C76.9202 15.223 77.7076 15.3816 78.4385 15.5498C78.439 15.5767 78.439 15.631 78.439 15.6578C76.2035 15.6583 73.968 15.6578 71.7324 15.6583C71.7324 15.6314 71.7319 15.5776 71.7319 15.5512C72.3099 15.4163 72.91 15.3028 73.4218 15.012C74.0366 14.6665 74.4268 14.0762 74.6317 13.4617C74.9643 12.4681 74.987 11.4192 74.977 10.3891C74.9775 7.75495 74.9734 5.1208 74.98 2.48711C74.3743 1.87951 73.756 1.26963 73.0084 0.801966C72.4911 0.480162 71.898 0.262739 71.2817 0.156078C71.1883 0.152887 71.1414 0.105027 71.1545 0.0188783ZM96.8996 0.13192C96.8996 4.46215 96.9001 8.79238 96.8996 13.1226C96.9001 13.5497 96.9193 13.9827 97.052 14.3952C97.155 14.7927 97.4422 15.1551 97.8485 15.3424C98.2896 15.5548 98.805 15.5539 99.2921 15.5503C100.46 15.5635 101.65 15.3962 102.709 14.9349C103.634 14.5343 104.431 13.9039 105.008 13.139C105.621 12.3423 105.998 11.4165 106.228 10.4739C106.453 9.53308 106.535 8.56721 106.517 7.6059C106.495 6.54476 106.345 5.47861 105.976 4.46808C105.661 3.59747 105.178 2.76789 104.503 2.08098C103.863 1.43418 103.058 0.921389 102.163 0.605966C101.221 0.268208 100.202 0.128274 99.1916 0.13192C98.4274 0.13192 97.6638 0.13192 96.8996 0.13192Z" fill="#EEEEEE"/>
<path d="M110.323 0.0193159C115.201 0.0165811 120.08 0.0188601 124.958 0.0184043C124.958 1.49342 124.958 2.96889 124.958 4.44435C124.928 4.44527 124.868 4.44663 124.837 4.44755C124.504 3.91424 124.178 3.37775 123.851 2.84171C123.641 2.50487 123.44 2.16164 123.177 1.85533C122.777 1.36488 122.25 0.955557 121.641 0.691641C120.938 0.378953 120.156 0.253604 119.383 0.185232C118.215 0.0990833 117.043 0.143297 115.872 0.132358C115.872 2.59785 115.878 5.0638 115.872 7.5293C116.754 7.50605 117.638 7.51973 118.518 7.45136C119.056 7.40623 119.614 7.32282 120.077 7.0548C120.543 6.78632 120.86 6.35558 121.084 5.90797C121.372 5.34504 121.555 4.7461 121.762 4.15674C121.794 4.15628 121.856 4.15537 121.887 4.15491C121.887 6.44127 121.885 8.72718 121.888 11.0135C121.857 11.014 121.795 11.0145 121.764 11.0145C121.524 10.364 121.322 9.69761 120.973 9.08454C120.72 8.62963 120.337 8.20846 119.809 8.00061C119.153 7.73578 118.417 7.72758 117.711 7.69704C117.098 7.68063 116.485 7.6779 115.872 7.66331C115.876 9.51437 115.873 11.3654 115.874 13.216C115.882 13.7261 115.937 14.2548 116.21 14.7116C116.413 15.0416 116.76 15.2886 117.154 15.4099C117.722 15.5913 118.333 15.5439 118.925 15.5503C119.95 15.5457 121.003 15.4595 121.952 15.0799C122.531 14.8501 123.05 14.5051 123.473 14.0812C123.861 13.7065 124.166 13.2712 124.453 12.8309C124.783 12.3245 125.122 11.8231 125.449 11.3153C125.479 11.2515 125.537 11.2223 125.621 11.2269C125.625 12.7042 125.619 14.1814 125.62 15.6583C120.521 15.6574 115.422 15.6606 110.322 15.6569C110.327 15.6309 110.337 15.579 110.343 15.553C110.778 15.4755 111.229 15.4472 111.645 15.2968C112.116 15.1459 112.532 14.8401 112.752 14.4308C112.952 14.0379 113.005 13.5998 113.003 13.1718C113.003 9.75185 113.003 6.33233 113.003 2.91236C112.996 2.42783 113.038 1.9269 112.855 1.46197C112.726 1.07954 112.4 0.770041 112.018 0.579967C111.502 0.31833 110.909 0.247679 110.341 0.129167C110.337 0.101818 110.328 0.0466648 110.323 0.0193159Z" fill="#EEEEEE"/>
<path d="M127.657 0.0173471C129.911 0.0191703 132.165 0.0173471 134.42 0.0182587C135.629 0.00184942 136.862 0.0679424 138.013 0.433961C138.97 0.724314 139.873 1.20657 140.548 1.89211C141.249 2.59497 141.679 3.51891 141.718 4.46654C141.798 5.59514 141.349 6.74744 140.485 7.56836C139.894 8.16046 139.119 8.58072 138.305 8.87609C137.248 9.24712 136.106 9.38751 134.977 9.37976C134.671 9.3793 134.367 9.37976 134.062 9.3793C134.062 9.3474 134.062 9.28267 134.062 9.25031C135.2 9.2617 136.388 8.94719 137.206 8.20422C137.985 7.52095 138.387 6.55827 138.524 5.60015C138.659 4.56044 138.589 3.47606 138.16 2.49469C137.847 1.79548 137.325 1.15779 136.614 0.750751C136.121 0.457207 135.552 0.27944 134.972 0.196482C134.392 0.107598 133.802 0.137682 133.216 0.132212C133.22 4.43281 133.216 8.73296 133.22 13.0331C133.231 13.5263 133.239 14.0496 133.512 14.4926C133.736 14.8441 134.146 15.0542 134.559 15.185C135.087 15.355 135.641 15.4457 136.188 15.5501C136.188 15.577 136.188 15.6312 136.188 15.6586C133.342 15.6581 130.497 15.6581 127.652 15.6581C127.652 15.6312 127.652 15.5775 127.652 15.5506C128.214 15.448 128.798 15.3701 129.303 15.108C129.722 14.8969 130.063 14.5432 130.191 14.1211C130.343 13.6963 130.32 13.2446 130.323 12.8043C130.32 9.44494 130.325 6.0856 130.321 2.7267C130.333 2.17426 130.308 1.57988 129.954 1.10674C129.596 0.627681 128.971 0.388835 128.368 0.267133C128.129 0.217449 127.889 0.176882 127.649 0.132212C127.651 0.103496 127.655 0.0460633 127.657 0.0173471Z" fill="#EEEEEE"/>
<path d="M142.413 0.0192628C147.291 0.0169837 152.169 0.0183512 157.047 0.0183512C157.047 1.49382 157.047 2.96929 157.047 4.44476C157.004 4.44476 156.963 4.44521 156.925 4.44567C156.469 3.72321 156.043 2.98615 155.578 2.2687C155.092 1.53895 154.381 0.915393 153.498 0.596323C152.384 0.182444 151.159 0.141877 149.971 0.132305C149.303 0.13276 148.636 0.131849 147.968 0.13276C147.969 2.59826 147.967 5.06375 147.969 7.52925C148.704 7.51056 149.44 7.51512 150.175 7.47911C150.685 7.45176 151.203 7.41438 151.689 7.2626C152.157 7.12175 152.566 6.8314 152.834 6.45763C153.358 5.76844 153.561 4.93977 153.86 4.1617C153.889 4.15805 153.947 4.15076 153.975 4.14711C153.974 6.43393 153.983 8.7212 153.971 11.0076C153.943 11.0112 153.886 11.0185 153.858 11.0222C153.571 10.2482 153.343 9.43911 152.844 8.7481C152.595 8.41125 152.25 8.12317 151.83 7.9723C151.287 7.76901 150.691 7.73938 150.112 7.70747C149.397 7.68012 148.683 7.68058 147.968 7.66326C147.968 9.52936 147.967 11.3955 147.969 13.2616C147.971 13.7803 148.045 14.32 148.343 14.773C148.598 15.1532 149.051 15.3948 149.525 15.4814C150.035 15.5812 150.56 15.5429 151.078 15.5493C152.221 15.5425 153.409 15.4221 154.422 14.9075C155.226 14.5068 155.846 13.8637 156.321 13.1636C156.75 12.5268 157.161 11.8791 157.596 11.2455C157.625 11.2414 157.683 11.2323 157.711 11.2277C157.713 12.7046 157.709 14.1814 157.71 15.6582C152.61 15.6578 147.511 15.6601 142.412 15.6569C142.417 15.6309 142.427 15.5785 142.432 15.552C142.896 15.4732 143.377 15.4413 143.815 15.2685C144.327 15.0857 144.765 14.7083 144.933 14.2288C145.093 13.8158 145.101 13.3728 145.097 12.9402C145.097 9.6579 145.097 6.37604 145.097 3.09373C145.086 2.54493 145.148 1.97653 144.942 1.44915C144.817 1.08404 144.507 0.7905 144.148 0.599969C143.623 0.321467 143.012 0.25036 142.43 0.129114C142.426 0.101765 142.417 0.0466116 142.413 0.0192628Z" fill="#EEEEEE"/>
<path d="M158.973 0.0179296C160.977 0.0188412 162.981 0.0179295 164.985 0.0183853C165.524 0.885799 166.216 1.66342 166.908 2.43374C168.103 3.75059 169.334 5.04008 170.547 6.3428C172.216 8.12321 173.883 9.90453 175.553 11.6845C175.528 9.24679 175.507 6.8091 175.483 4.37141C175.475 3.66489 175.494 2.95063 175.334 2.25506C175.232 1.82204 175.067 1.38993 174.76 1.03895C174.47 0.702106 174.048 0.473287 173.599 0.352041C173.193 0.246292 172.773 0.191595 172.355 0.143734C172.269 0.143734 172.234 0.102255 172.25 0.019297C176.466 0.0165621 180.683 0.0188412 184.899 0.0183853C186.058 0.0238551 187.218 0.00516672 188.377 0.0320597C189.745 0.0840225 191.125 0.292329 192.388 0.785064C194.068 1.39768 195.538 2.50166 196.444 3.92471C198.117 6.56068 197.878 10.0905 195.824 12.5036C194.829 13.6682 193.45 14.547 191.921 15.0479C190.584 15.4933 189.149 15.6683 187.727 15.6587C184.87 15.6574 182.014 15.6605 179.158 15.6569C179.163 15.6309 179.172 15.5785 179.177 15.5525C179.578 15.4805 179.991 15.4472 180.38 15.3219C180.838 15.1842 181.275 14.9303 181.521 14.5452C181.78 14.1454 181.834 13.67 181.836 13.2156C181.837 9.96378 181.836 6.71155 181.837 3.45978C181.845 2.58416 181.727 1.62832 181.071 0.937306C180.476 0.311018 179.514 0.103623 178.634 0.135074C177.812 0.145557 176.937 0.393064 176.414 0.995194C176.073 1.37534 175.882 1.84893 175.79 2.32663C175.691 2.81936 175.698 3.32212 175.699 3.82124C175.701 7.88071 175.696 11.9406 175.701 16.0001C175.632 15.9937 175.567 15.9869 175.505 15.9796C172.948 13.2365 170.369 10.5094 167.803 7.7736C166.181 6.04515 164.556 4.31899 162.934 2.59054C162.957 5.14355 162.981 7.69702 163.004 10.2505C163.008 11.3189 163.012 12.4079 163.352 13.4412C163.546 14.0324 163.899 14.6117 164.481 14.9595C164.94 15.2458 165.489 15.3711 166.022 15.4983C166.123 15.5293 166.29 15.5156 166.262 15.6569C164.02 15.6596 161.777 15.6596 159.534 15.6569C159.504 15.5224 159.659 15.5302 159.757 15.5019C160.324 15.3706 160.915 15.2375 161.39 14.9112C161.982 14.5183 162.324 13.8934 162.501 13.2625C162.843 12.1025 162.78 10.8927 162.785 9.70443C162.776 7.29499 162.798 4.88374 162.775 2.47522C162.136 1.83754 161.484 1.18891 160.678 0.720338C160.162 0.414943 159.569 0.237632 158.969 0.128692C158.97 0.100888 158.972 0.0457342 158.973 0.0179296ZM184.707 0.132339C184.708 4.47852 184.707 8.8247 184.707 13.1709C184.706 13.6618 184.746 14.1623 184.942 14.6249C185.097 14.9786 185.416 15.2695 185.81 15.4071C186.304 15.5867 186.848 15.5461 187.37 15.5493C188.201 15.5411 189.035 15.4331 189.823 15.1911C190.73 14.9157 191.563 14.4403 192.217 13.809C192.974 13.0934 193.485 12.1913 193.809 11.2519C194.169 10.2076 194.311 9.1105 194.326 8.01974C194.338 6.94675 194.227 5.86602 193.905 4.83041C193.632 3.94476 193.203 3.08738 192.569 2.36309C191.972 1.66342 191.181 1.10277 190.295 0.728999C189.271 0.306459 188.137 0.129604 187.015 0.132339C186.246 0.132339 185.476 0.131883 184.707 0.132339Z" fill="#EEEEEE"/>
<path d="M198.14 0.0180015C203.014 0.0180015 207.889 0.0193689 212.762 0.0170898C212.769 1.49165 212.761 2.96575 212.767 4.43985C212.723 4.44259 212.683 4.44578 212.646 4.44805C212.191 3.72696 211.764 2.99082 211.299 2.27474C210.806 1.52994 210.076 0.896355 209.172 0.580476C208.118 0.199415 206.964 0.146997 205.842 0.132866C205.123 0.131955 204.404 0.132411 203.686 0.132411C203.686 2.59791 203.686 5.0634 203.686 7.5289C204.422 7.51112 205.16 7.51477 205.896 7.47922C206.409 7.45187 206.93 7.41358 207.418 7.25951C207.885 7.11639 208.29 6.8233 208.557 6.44999C209.076 5.76125 209.28 4.93714 209.579 4.16272C209.607 4.15861 209.664 4.15041 209.693 4.14631C209.697 6.43404 209.69 8.72222 209.696 11.01C209.665 11.0118 209.604 11.0154 209.574 11.0172C209.285 10.2455 209.064 9.43466 208.562 8.74638C208.313 8.41181 207.971 8.1251 207.553 7.97377C207.032 7.77641 206.459 7.74313 205.901 7.71077C205.163 7.67932 204.424 7.6816 203.686 7.66337C203.686 9.52901 203.685 11.3942 203.686 13.2594C203.688 13.769 203.76 14.2968 204.043 14.7467C204.274 15.1073 204.683 15.3534 205.126 15.456C205.672 15.5872 206.242 15.543 206.802 15.5494C207.931 15.5412 209.102 15.4245 210.106 14.924C210.935 14.5147 211.579 13.8556 212.059 13.1295C212.439 12.5588 212.814 11.9849 213.195 11.4138C213.253 11.3304 213.294 11.2101 213.432 11.2274C213.435 12.7042 213.432 14.181 213.434 15.6583C208.332 15.6579 203.231 15.6602 198.13 15.657C198.134 15.631 198.144 15.579 198.149 15.5526C198.626 15.4733 199.12 15.4377 199.569 15.2554C199.998 15.0963 200.365 14.7991 200.568 14.419C200.764 14.0288 200.815 13.5944 200.815 13.1696C200.815 9.71908 200.815 6.26903 200.815 2.81852C200.813 2.36863 200.833 1.90553 200.669 1.47433C200.538 1.08005 200.204 0.758699 199.806 0.56908C199.29 0.316559 198.704 0.239983 198.138 0.130587C198.139 0.102327 198.14 0.0462619 198.14 0.0180015Z" fill="#EEEEEE"/>
<path d="M214.705 0.0192144C216.711 0.0155679 218.718 0.0205818 220.724 0.0164795C221.252 0.860191 221.924 1.61821 222.594 2.37167C223.778 3.67119 224.992 4.94838 226.192 6.23606C227.896 8.0502 229.593 9.86889 231.296 11.683C231.27 9.13913 231.249 6.59524 231.222 4.05134C231.213 3.43645 231.159 2.81837 230.992 2.22079C230.816 1.58174 230.45 0.948163 229.819 0.587158C229.279 0.271735 228.626 0.199261 228.002 0.1318C228.002 0.10354 228.003 0.0465633 228.003 0.0178471C230.221 0.0183029 232.44 0.017847 234.659 0.0183028C234.658 0.047019 234.658 0.103996 234.658 0.132712C234.257 0.18194 233.851 0.214303 233.466 0.330079C233.009 0.457707 232.583 0.695642 232.285 1.03613C231.936 1.41264 231.749 1.88577 231.629 2.35845C231.383 3.33252 231.455 4.33805 231.442 5.32899C231.444 8.88433 231.439 12.4392 231.444 15.9941C231.402 15.9946 231.317 15.995 231.274 15.9955C227.067 11.5331 222.877 7.05743 218.677 2.59046C218.7 5.20455 218.726 7.8191 218.748 10.4332C218.754 11.5048 218.776 12.6015 219.164 13.6262C219.388 14.2215 219.813 14.778 220.439 15.0775C220.921 15.3159 221.462 15.4266 221.989 15.5502C221.989 15.577 221.99 15.6313 221.99 15.6582C219.756 15.6582 217.522 15.6582 215.289 15.6582C215.289 15.6313 215.289 15.5775 215.289 15.5506C215.77 15.4376 216.263 15.3405 216.713 15.1422C217.169 14.943 217.556 14.6185 217.813 14.2237C218.265 13.5345 218.401 12.7241 218.485 11.9387C218.568 10.7851 218.51 9.62777 218.528 8.47228C218.525 6.47901 218.532 4.48528 218.524 2.492C218.447 2.38124 218.334 2.29783 218.242 2.19983C217.542 1.51747 216.801 0.82327 215.844 0.440842C215.488 0.287689 215.102 0.212935 214.723 0.128154C214.719 0.100805 214.71 0.0465633 214.705 0.0192144Z" fill="#EEEEEE"/>
<path d="M235.599 0.0181469C240.711 0.0181469 245.824 0.0176911 250.937 0.0181469C250.937 1.71879 250.938 3.41989 250.939 5.12053C250.908 5.11642 250.847 5.10776 250.817 5.10366C250.43 4.2759 250.093 3.42809 249.687 2.60717C249.312 1.86784 248.831 1.1276 248.066 0.665858C247.396 0.256537 246.568 0.131189 245.773 0.132556C245.415 0.131189 245.059 0.132556 244.703 0.1321C244.706 4.38621 244.704 8.64032 244.705 12.8944C244.7 13.3721 244.706 13.8644 244.905 14.3157C245.088 14.7487 245.493 15.0878 245.966 15.261C246.412 15.4356 246.902 15.4784 247.378 15.55C247.378 15.5769 247.378 15.6311 247.378 15.658C244.64 15.658 241.901 15.658 239.164 15.658C239.163 15.6311 239.163 15.5769 239.163 15.55C239.623 15.4803 240.097 15.4397 240.533 15.2765C240.977 15.1229 241.365 14.8271 241.577 14.4392C241.783 14.0444 241.836 13.6014 241.834 13.1693C241.834 8.82356 241.835 4.47783 241.832 0.1321C241.143 0.142584 240.447 0.0938121 239.766 0.2105C239.051 0.322175 238.374 0.6417 237.886 1.12988C237.253 1.75161 236.871 2.53743 236.524 3.31095C236.285 3.84562 236.049 4.3812 235.814 4.91678C235.767 5.00703 235.751 5.14696 235.603 5.12189C235.597 3.4208 235.6 1.71924 235.599 0.0181469Z" fill="#EEEEEE"/>
<path d="M15.6802 0.0181469C17.046 0.0181469 18.4119 0.0176911 19.7772 0.0181469C19.7767 2.17734 19.7792 4.33607 19.7742 6.49526C20.1941 5.8872 20.7822 5.37806 21.459 5.00657C22.1157 4.63144 22.9026 4.43908 23.6799 4.47737C24.5834 4.507 25.5031 4.79188 26.1527 5.37533C26.772 5.92914 27.1006 6.70038 27.2101 7.4707C27.2873 7.93928 27.2762 8.41469 27.2767 8.88691C27.2767 10.4043 27.2772 11.9222 27.2762 13.4396C27.2707 13.7691 27.3201 14.1292 27.5816 14.3795C27.8804 14.683 28.3428 14.7569 28.7566 14.8576C28.7546 14.9283 28.7536 14.9994 28.7526 15.0709C26.8956 15.0718 25.0392 15.0709 23.1822 15.0714C23.1817 14.9998 23.1812 14.9287 23.1817 14.8581C23.588 14.7592 24.0378 14.6867 24.3391 14.3972C24.5784 14.1661 24.6581 13.8384 24.6581 13.5307C24.6591 12.1651 24.6581 10.7991 24.6586 9.43343C24.6485 8.76065 24.7121 8.07055 24.488 7.41874C24.3225 6.89774 23.957 6.41549 23.4301 6.14337C22.8097 5.8202 22.041 5.77006 21.3616 5.95831C20.7766 6.10599 20.2618 6.40729 19.7772 6.72909C19.7757 8.98172 19.7787 11.2348 19.7767 13.4879C19.7707 13.8416 19.8655 14.2313 20.1795 14.4684C20.4783 14.704 20.8816 14.7642 21.2516 14.8581C21.2511 14.9292 21.2511 15.0003 21.2511 15.0714C19.3941 15.0709 17.5366 15.0718 15.6797 15.0709C15.6797 14.9998 15.6797 14.9287 15.6797 14.8581C16.0916 14.7555 16.5549 14.6849 16.8522 14.3804C17.0965 14.142 17.1591 13.8047 17.1566 13.4906C17.1561 9.52277 17.1571 5.55446 17.1561 1.5866C17.1616 1.26252 17.0819 0.915188 16.8184 0.679077C16.5166 0.403309 16.0774 0.332658 15.6797 0.234658C15.6797 0.162184 15.6797 0.0901655 15.6802 0.0181469Z" fill="#EEEEEE"/>
<path d="M32.3494 5.10077C33.1131 4.6951 33.9984 4.48907 34.8822 4.47676C35.7887 4.45853 36.7139 4.61442 37.515 5.0087C38.2827 5.38155 38.9181 5.97913 39.2755 6.69886C39.5748 7.2627 39.6909 7.89218 39.6889 8.51345C37.1884 8.51938 34.6864 8.50297 32.1863 8.52166C32.1061 9.49117 32.2207 10.4862 32.6083 11.3978C32.9334 12.1404 33.4603 12.8332 34.2058 13.279C34.9291 13.7289 35.8301 13.9144 36.7008 13.8565C37.9485 13.7681 39.1195 13.0474 39.6556 12.025C39.7298 12.0501 39.803 12.0761 39.8772 12.103C39.704 12.7685 39.2816 13.3619 38.7849 13.8693C38.0379 14.6232 37.0102 15.151 35.9038 15.321C34.9902 15.4569 34.0398 15.3912 33.1595 15.1328C32.2868 14.8721 31.4954 14.3866 30.9204 13.738C30.2784 13.0292 29.8822 12.1568 29.7035 11.2593C29.3956 9.75919 29.593 8.13604 30.4707 6.81281C30.9265 6.11314 31.5711 5.50964 32.3494 5.10077ZM34.2523 4.80677C33.6743 4.96676 33.2211 5.377 32.9359 5.8474C32.4806 6.59128 32.305 7.44001 32.1848 8.27415C33.796 8.2746 35.4071 8.2746 37.0183 8.27415C37.0188 7.43545 37.0496 6.55938 36.6695 5.77447C36.512 5.39614 36.2097 5.05884 35.8059 4.87651C35.3259 4.66456 34.756 4.66912 34.2523 4.80677Z" fill="#EEEEEE"/>
<path d="M51.9191 0.0286217C53.2233 -0.0707457 54.5543 0.0869658 55.7778 0.510417C56.9191 0.907886 57.9644 1.5205 58.8361 2.29493C60.1929 3.52152 61.112 5.1547 61.3356 6.88178C61.59 8.81671 60.9898 10.8209 59.7239 12.3948C58.8845 13.4578 57.7509 14.3302 56.4562 14.9109C54.1798 15.9634 51.3593 16.055 49.042 15.0541C47.9058 14.5896 46.8923 13.8936 46.0721 13.0458C44.9702 11.8903 44.2313 10.4462 44.0173 8.93021C43.7563 7.17578 44.1631 5.34113 45.1918 3.83102C46.5884 1.69052 49.1753 0.226445 51.9191 0.0286217ZM47.3456 3.09215C47.3577 3.16918 47.3572 3.25305 47.4076 3.32051C47.5974 3.60448 47.8039 3.87888 47.9856 4.16695C47.6817 3.95819 47.3905 3.73393 47.1013 3.50922C46.9231 3.27265 46.8135 2.99779 46.6455 2.75484C46.6611 2.95905 46.7071 3.16006 46.7388 3.3629C46.7575 3.74077 47.0695 4.02474 47.2229 4.36068C47.0306 4.22758 46.8474 4.08445 46.6571 3.94953C46.4093 3.79273 46.3007 3.52608 46.112 3.32142C46.1438 3.47594 46.1846 3.62864 46.222 3.78225C46.2684 4.11545 46.5698 4.34427 46.7419 4.62596C46.5072 4.51337 46.275 4.39668 46.0489 4.27134C45.9101 4.16194 45.8197 4.01152 45.6875 3.8962C45.7379 4.03614 45.7919 4.17516 45.8444 4.31464C45.9116 4.51337 46.0998 4.64738 46.2225 4.81649C46.1029 4.79735 45.9848 4.77683 45.8651 4.75997C46.0882 4.97648 46.3441 5.16245 46.5723 5.37486C46.3573 5.36575 46.1417 5.35207 45.9267 5.34842C46.2164 5.52893 46.5269 5.68026 46.8176 5.85848C46.6687 5.87079 46.5203 5.88081 46.3724 5.8954C46.7116 6.02485 47.0634 6.12695 47.4016 6.26096C47.2587 6.30472 47.1164 6.34757 46.9781 6.40135C47.7837 6.4679 48.5943 6.48978 49.3968 6.57639C48.9506 6.59097 48.5039 6.58733 48.0583 6.58778C48.0482 6.66937 48.0401 6.75142 48.032 6.83301C48.5928 6.83255 49.153 6.80976 49.7133 6.81387C49.3136 6.88452 48.9037 6.89546 48.5004 6.94468C48.4843 7.04086 48.4676 7.13704 48.453 7.23321C49.0021 7.16712 49.5508 7.09465 50.101 7.0322C49.6765 7.14889 49.2373 7.21772 48.8068 7.3148C48.8007 7.42602 48.7947 7.53724 48.7896 7.64846C49.3499 7.5181 49.9026 7.36039 50.4664 7.24415C50.0147 7.43058 49.5412 7.5696 49.0844 7.74509C49.0879 7.84628 49.0915 7.94702 49.0965 8.04821C49.6649 7.844 50.2186 7.60379 50.7965 7.42466C50.3417 7.64937 49.8854 7.87226 49.4261 8.08969C49.4377 8.19544 49.4529 8.30027 49.4705 8.40557C50.0318 8.15897 50.5774 7.88366 51.1443 7.64892C50.6971 7.92286 50.2327 8.17447 49.7794 8.44021C49.8042 8.52773 49.8289 8.61524 49.8546 8.70321C50.3882 8.44613 50.9111 8.16991 51.4507 7.92286C51.0539 8.1886 50.6304 8.42106 50.2226 8.67358C50.26 8.76931 50.2983 8.86457 50.3372 8.96029C50.7829 8.72464 51.2195 8.47485 51.6702 8.2474C51.3982 8.46756 51.0872 8.64441 50.799 8.84634C50.849 8.93568 50.899 9.02547 50.9494 9.11481C51.17 8.99402 51.3855 8.86594 51.6107 8.75153C51.5299 8.82811 51.4431 8.89876 51.3568 8.9685C51.3946 9.03869 51.434 9.10889 51.4729 9.17908C51.7061 9.09704 51.9726 9.05692 52.1593 8.89466C52.2895 8.79346 52.337 8.64031 52.4026 8.50266C52.387 8.82856 52.1038 9.08701 51.7722 9.18091C51.1301 9.41383 50.473 9.61211 49.834 9.84913C49.4614 10.3368 49.1258 10.8487 48.7639 11.3437C48.7159 11.4212 48.6291 11.4951 48.6584 11.5931C48.8421 11.4618 48.9734 11.284 49.1303 11.1291C49.4387 10.815 49.7264 10.4836 50.048 10.1805C49.8001 10.5429 49.5205 10.8866 49.2606 11.2416C49.4206 11.2193 49.5821 11.1965 49.7431 11.1755C49.999 10.8496 50.2312 10.5082 50.4962 10.1883C50.3321 10.5169 50.1388 10.8328 49.9627 11.1564C50.0697 11.15 50.1777 11.145 50.2862 11.1382C50.3382 11.1272 50.419 11.1477 50.4391 11.0853C50.6133 10.789 50.7541 10.4777 50.9383 10.186C50.8455 10.5028 50.7087 10.8072 50.6012 11.1195C50.7546 11.1104 50.9091 11.1008 51.0635 11.0912C51.168 10.8004 51.2442 10.5 51.3714 10.2161C51.333 10.5046 51.2654 10.7895 51.2154 11.0762C51.3719 11.0493 51.5284 11.0219 51.6859 10.996C51.7272 10.7311 51.7449 10.4631 51.7994 10.2001C51.8161 10.4513 51.804 10.7029 51.808 10.954C51.9256 10.8948 52.0437 10.836 52.1613 10.7758C52.1432 10.5793 52.1174 10.3838 52.1164 10.1869C52.1714 10.3678 52.2068 10.5529 52.2577 10.7348C52.2865 10.7471 52.3451 10.7708 52.3743 10.7831C52.4051 10.8597 52.4364 10.9362 52.4687 11.0128C52.6807 11.0839 52.8417 11.2321 53.0123 11.3606C52.9402 11.3378 52.8695 11.3141 52.7998 11.2909C52.1255 11.454 51.4567 11.6332 50.7894 11.8187C51.2003 12.0334 51.6132 12.2444 52.0235 12.46C52.1639 12.5311 52.2254 12.6916 52.1497 12.8224C52.1512 12.7098 52.1447 12.5712 52.015 12.5161C51.7429 12.4003 51.4653 12.295 51.1897 12.1861C50.9959 12.2463 50.7925 12.2845 50.6072 12.3648C50.4679 12.4313 50.478 12.6259 50.6017 12.7021C50.7521 12.7868 50.9282 12.8251 51.0928 12.8835C51.3426 12.9578 51.5849 13.0635 51.8474 13.0986C52.1992 13.1214 52.4985 12.9231 52.812 12.8106C53.4762 12.569 54.0304 12.1492 54.6043 11.7731C54.4024 11.9801 54.1642 12.1542 53.9507 12.3502C54.2919 12.2098 54.6371 12.0762 54.9829 11.945C55.3756 11.7914 55.7339 11.5767 56.0943 11.3702C55.9545 11.5037 55.7965 11.62 55.6506 11.7471C56.2301 11.6596 56.8171 11.6026 57.4051 11.5931C57.5788 11.5871 57.7842 11.5639 57.8862 11.4185C57.9912 11.2704 57.9079 11.0662 57.7479 10.9814C57.4278 10.8045 57.1013 10.6381 56.7808 10.4627C56.2856 10.5388 55.799 10.6541 55.3034 10.7266C55.4498 10.7635 55.4952 10.9016 55.4876 11.0247C55.4185 10.9207 55.3438 10.8177 55.2327 10.7462C55.1938 10.7539 55.1156 10.769 55.0762 10.7767C55.1863 10.8496 55.2453 10.9572 55.2327 11.0821C55.1681 10.9987 55.1196 10.9002 55.0237 10.8423C54.838 10.7225 54.6679 10.5848 54.4973 10.449C54.4549 10.1714 54.5084 9.89699 54.5023 9.61894C54.3227 9.75705 54.1581 9.91203 53.9658 10.0365C54.4635 9.48265 54.9925 8.95254 55.4932 8.40055C55.3281 8.37184 55.162 8.34905 55.001 8.30665C55.268 8.29754 55.5361 8.30164 55.8036 8.30483C55.9177 8.39098 56.0655 8.41104 56.2104 8.39417C56.1549 8.30802 56.0963 8.22324 56.0388 8.13892C56.2422 7.98531 56.4174 8.27976 56.3189 8.43839C56.4542 8.38278 56.6208 8.30893 56.6334 8.15532C56.6536 7.93699 56.428 7.8048 56.2881 7.65849C56.2735 7.57052 56.2715 7.47525 56.2119 7.4005C56.119 7.2756 55.9515 7.23185 55.8066 7.1776C55.6214 7.11698 55.4437 7.03721 55.2549 6.98844C54.9238 6.96109 54.5897 7.00348 54.2596 6.96747C54.5861 6.90503 54.9238 6.9032 55.2514 6.84532C55.3826 6.76828 55.4755 6.64248 55.6229 6.58596C55.9782 6.45149 56.3401 6.33253 56.6945 6.19624C56.7893 6.16433 56.8494 6.08867 56.8817 6.0048C57.0569 5.58134 57.229 5.15698 57.4026 4.73262C57.4975 4.46916 57.7307 4.27635 57.8968 4.04981C58.2349 3.63548 58.5792 3.22433 58.9138 2.80726C58.5772 3.00326 58.2632 3.22889 57.9301 3.42945C58.0588 3.171 58.2142 2.92395 58.343 2.6655C58.1072 2.92395 57.9225 3.21658 57.6954 3.48096C57.6999 3.21111 57.7615 2.94355 57.7403 2.67325C57.658 2.94309 57.5985 3.21841 57.5086 3.48642C57.3673 3.20929 57.2618 2.91848 57.1149 2.64408C57.1785 2.92076 57.2598 3.19425 57.3355 3.46865C57.4067 3.67878 57.3632 3.90076 57.3375 4.11454C57.2896 3.92902 57.3168 3.72071 57.1871 3.55936C56.9963 3.28268 56.8333 2.99004 56.6273 2.72248C56.7767 3.0689 56.9716 3.39845 57.1225 3.74396C57.1563 4.00377 57.1578 4.26723 57.1659 4.52887C57.0877 4.29002 57.0988 4.03568 57.0246 3.79683C56.753 3.47868 56.4855 3.15459 56.1907 2.8533C56.4083 3.17419 56.6465 3.48278 56.8696 3.80002C56.9059 3.84561 56.914 3.90213 56.917 3.95728C56.9322 4.25812 56.9347 4.55987 56.9605 4.8607C56.9524 4.85979 56.9357 4.85842 56.9276 4.85751C56.8802 4.54346 56.8514 4.22484 56.7813 3.91443C56.4804 3.6177 56.1736 3.32279 55.853 3.04292C56.1049 3.36108 56.3765 3.66647 56.6394 3.97734C56.6677 4.38073 56.7116 4.78413 56.7257 5.18843C56.6187 4.81558 56.5925 4.42677 56.4956 4.05209C56.1882 3.78498 55.8541 3.53748 55.5204 3.29635C55.7829 3.58534 56.0903 3.83922 56.3507 4.12958C56.4027 4.54756 56.4719 4.96828 56.4739 5.3899C56.3921 4.99152 56.2912 4.59633 56.1978 4.20023C55.8677 4.00423 55.5507 3.79 55.2135 3.60448C55.4735 3.85153 55.794 4.04662 56.0454 4.29914C56.1291 4.70801 56.2054 5.11961 56.2679 5.53212C56.119 5.15151 56.0211 4.75632 55.8929 4.36979C55.5795 4.21709 55.2731 4.053 54.9551 3.90896C55.2039 4.10724 55.4876 4.26587 55.7511 4.44728C55.8344 4.85341 55.9323 5.25726 56.006 5.66476C55.8455 5.30011 55.7228 4.92315 55.5764 4.55394C55.2857 4.45731 55.0005 4.347 54.7063 4.26131C54.9339 4.40854 55.1903 4.51428 55.4296 4.6451C55.5295 5.01659 55.6395 5.38626 55.7304 5.75957C55.5477 5.43776 55.4149 5.09454 55.2519 4.76453C54.9723 4.72214 54.6957 4.6647 54.4145 4.63599C54.5982 4.7112 54.7926 4.7627 54.9829 4.82469C55.0354 4.84748 55.1161 4.85478 55.1257 4.92133C55.2393 5.22763 55.3533 5.53394 55.4558 5.84344C55.261 5.57405 55.0959 5.28871 54.9092 5.01522C54.6735 5.00155 54.4387 4.96782 54.203 4.97511C54.3883 5.03619 54.5781 5.08542 54.7648 5.14422C54.9006 5.40722 55.0429 5.66795 55.1721 5.93414C54.9647 5.73131 54.783 5.50887 54.5816 5.30193C54.3671 5.31743 54.152 5.32335 53.9385 5.33931C54.1076 5.38261 54.2808 5.40996 54.4539 5.43867C54.6073 5.64379 54.7678 5.84526 54.9147 6.05448C54.7053 5.91454 54.5094 5.75957 54.307 5.61188C54.0738 5.66066 53.8361 5.6953 53.6089 5.76413C53.8043 5.77871 54.0072 5.74498 54.199 5.78145C54.3746 5.915 54.5392 6.06086 54.7007 6.20854C54.4842 6.13744 54.2873 6.02531 54.0703 5.95693C53.8255 5.97471 53.5837 6.01756 53.3435 6.05904C53.5625 6.08274 53.7851 6.06679 54.0037 6.09778C54.1894 6.19077 54.3656 6.30016 54.5402 6.41001C54.3312 6.3617 54.1349 6.26917 53.9224 6.23726C53.6069 6.2792 53.293 6.33526 52.9831 6.4009C53.2773 6.40956 53.5721 6.38312 53.8669 6.39178C54.0652 6.45286 54.2515 6.5422 54.4377 6.62835C54.1869 6.60191 53.9451 6.48249 53.6897 6.53126C53.2687 6.59781 52.8473 6.66071 52.4258 6.72407C52.8059 6.78059 53.1925 6.77694 53.5741 6.82253C53.2637 6.88999 52.9447 6.9187 52.6348 6.98753C52.8513 7.00576 53.0694 7.01078 53.2864 7.02947C53.0552 7.10422 52.8135 7.1457 52.5783 7.2086C52.6832 7.32893 52.7907 7.44836 52.8846 7.5769C52.6388 7.40688 52.3976 7.22866 52.1724 7.03676C51.5925 6.32888 51.0398 5.6014 50.4568 4.89626C49.9394 4.62687 49.3862 4.41309 48.8689 4.14371C48.5161 3.87204 48.1794 3.5826 47.8301 3.30683C47.7413 3.23208 47.6292 3.1669 47.5944 3.05568C47.4738 2.76533 47.3657 2.47087 47.236 2.18371C47.2628 2.48728 47.3107 2.78903 47.3456 3.09215Z" fill="#ED1B2F"/>
<path d="M47.834 3.52515C48.1075 3.78353 48.3068 4.09842 48.5677 4.36637C48.9462 4.5687 49.3741 4.6922 49.7445 4.90911C49.3918 4.81068 49.0557 4.67123 48.709 4.55913C48.596 4.5163 48.4537 4.49533 48.4017 4.38141C48.216 4.09432 48.0051 3.81999 47.834 3.52515Z" fill="#E41C29"/>
<path d="M47.2881 3.94531C47.5409 4.1358 47.7296 4.38689 47.9804 4.57828C48.3937 4.75327 48.8332 4.87677 49.2395 5.06543C48.968 5.01439 48.7111 4.91504 48.4467 4.84213C48.2489 4.77742 48.0405 4.73641 47.8502 4.65438C47.6539 4.42471 47.4581 4.19185 47.2881 3.94531Z" fill="#E41C29"/>
<path d="M46.6885 4.21692C46.9771 4.4033 47.2042 4.65576 47.4787 4.85718C47.9854 5.04219 48.5293 5.14199 49.0309 5.33886C48.4794 5.23723 47.9344 5.10052 47.3914 4.967C47.1442 4.72867 46.912 4.47439 46.6885 4.21692Z" fill="#E41C29"/>
<path d="M46.3066 4.59106C46.6069 4.77334 46.8627 5.00894 47.1605 5.19441C47.7625 5.37077 48.3897 5.47923 48.9862 5.67153C48.3448 5.56763 47.707 5.4373 47.0732 5.30333C46.8102 5.07365 46.5423 4.84398 46.3066 4.59106Z" fill="#E41C29"/>
<path d="M49.3993 5.37672C49.6034 5.28546 49.799 5.17777 50.0132 5.10522C49.8 5.2558 49.5605 5.37261 49.3336 5.50493C49.3326 5.40364 49.3321 5.3028 49.3387 5.20196C49.3594 5.25991 49.3796 5.31786 49.3993 5.37672Z" fill="#E41C29"/>
<path d="M49.5006 5.78805C49.7663 5.66557 50.0235 5.52761 50.2968 5.41833C50.0265 5.60593 49.723 5.75072 49.4351 5.91417C49.4321 5.81492 49.4321 5.7152 49.4507 5.61685C49.4633 5.65965 49.4885 5.74525 49.5006 5.78805Z" fill="#E41C29"/>
<path d="M46.4336 5.47827C47.2819 5.6127 48.1221 5.78997 48.9678 5.93899L48.9592 5.97407C48.443 5.90253 47.9273 5.83053 47.411 5.75989C47.0679 5.72708 46.7439 5.60723 46.4336 5.47827Z" fill="#E41C29"/>
<path d="M49.7202 6.14771C50.0056 6.01476 50.2798 5.86132 50.5718 5.73975C50.2889 5.94145 49.9678 6.09444 49.6652 6.27019C49.6622 6.18641 49.6607 6.10263 49.6592 6.01886C49.6683 6.0184 49.6874 6.01703 49.6965 6.01612C49.7025 6.04891 49.7141 6.11493 49.7202 6.14771Z" fill="#E41C29"/>
<path d="M47.125 5.98071C47.8042 6.06228 48.4829 6.16117 49.1581 6.26689C48.8407 6.29788 48.5228 6.22542 48.2054 6.21494C47.832 6.20264 47.4676 6.10922 47.125 5.98071Z" fill="#E41C29"/>
<path d="M50.0516 6.4521C50.3289 6.3237 50.6002 6.18255 50.8861 6.06873C50.5997 6.25859 50.2861 6.41158 49.983 6.57823C49.9815 6.47623 49.9815 6.37424 49.9987 6.27362C50.0168 6.33281 50.0345 6.392 50.0516 6.4521Z" fill="#E41C29"/>
<path d="M50.4623 6.71451C50.7089 6.6009 50.9494 6.47542 51.2035 6.37549C50.9479 6.55025 50.6649 6.68987 50.3926 6.84136C50.3936 6.74006 50.3966 6.63831 50.4047 6.53701C50.4249 6.59588 50.4431 6.65474 50.4623 6.71451Z" fill="#E41C29"/>
<path d="M50.9032 6.96887C51.1054 6.87533 51.3029 6.77175 51.5136 6.69373C51.3049 6.85023 51.0614 6.96294 50.833 7.09435C50.8335 6.98986 50.8365 6.88491 50.8532 6.78179C50.8653 6.82833 50.8906 6.92233 50.9032 6.96887Z" fill="#E41C29"/>
<path d="M51.3368 7.20704C51.4849 7.14179 51.6329 7.07517 51.787 7.02087C51.6253 7.13905 51.4454 7.23396 51.2706 7.3348C51.2701 7.23898 51.2711 7.14316 51.2762 7.04734C51.2969 7.10027 51.3156 7.15365 51.3368 7.20704Z" fill="#E41C29"/>
<path d="M53.742 7.25122C53.7885 7.22704 53.8956 7.21107 53.9179 7.26947C53.8896 7.3151 53.8486 7.34659 53.7956 7.36392C53.7597 7.34111 53.7329 7.29046 53.742 7.25122Z" fill="#E41C29"/>
<path d="M54.3604 7.25012C54.4604 7.24511 54.5594 7.24282 54.661 7.24146C54.5832 7.30169 54.5038 7.35963 54.424 7.41621C54.4407 7.37789 54.4579 7.34001 54.4761 7.30169C54.4473 7.28891 54.3892 7.26336 54.3604 7.25012Z" fill="#E41C29"/>
<path d="M51.6221 7.5736C51.6281 7.49101 51.6357 7.40888 51.6453 7.32629C51.6574 7.35823 51.6817 7.42211 51.6943 7.45406C51.8004 7.41162 51.9076 7.36919 52.0182 7.33359C51.8964 7.42668 51.7595 7.50151 51.6221 7.5736Z" fill="#E41C29"/>
<path d="M54.9902 7.33972C55.0519 7.34839 55.1145 7.3566 55.1782 7.36436C55.1216 7.40406 55.066 7.44421 55.0115 7.48482C55.0059 7.44832 54.9953 7.37622 54.9902 7.33972Z" fill="#E41C29"/>
<path d="M53.1396 7.48694C53.2559 7.48694 53.3721 7.48785 53.4893 7.49013C53.3968 7.5604 53.3018 7.62702 53.2048 7.69136C53.2276 7.64755 53.2508 7.60375 53.2751 7.5604C53.2291 7.53576 53.1841 7.51112 53.1396 7.48694Z" fill="#E41C29"/>
<path d="M55.7318 7.60793C55.705 7.53128 55.7874 7.49341 55.8419 7.45508C55.8394 7.51485 55.7631 7.62391 55.8813 7.63349C55.9091 7.6052 55.9657 7.54862 55.9935 7.52033C55.99 7.56276 56.0036 7.6093 55.9834 7.64946C55.9334 7.74665 55.7378 7.71516 55.7318 7.60793Z" fill="#E41C29"/>
<path d="M53.8584 7.56179C53.9756 7.5554 54.0939 7.55449 54.2121 7.56088C54.1196 7.62978 54.0256 7.69594 53.9276 7.75754C53.9458 7.72514 53.9817 7.6608 53.9999 7.62886C53.9645 7.61198 53.8938 7.57867 53.8584 7.56179Z" fill="#E41C29"/>
<path d="M51.9663 7.7172C52.0936 7.66245 52.223 7.60997 52.3564 7.56799C52.2113 7.66975 52.0522 7.75279 51.8945 7.8372C51.8991 7.75507 51.9046 7.6734 51.9097 7.59218C51.9279 7.6337 51.9466 7.67522 51.9663 7.7172Z" fill="#E41C29"/>
<path d="M54.5039 7.67655C54.6206 7.67518 54.7379 7.67564 54.8556 7.67792C54.7661 7.74773 54.6727 7.81298 54.5782 7.87549C54.5994 7.8326 54.6201 7.78925 54.6434 7.74636C54.5964 7.72309 54.5499 7.69982 54.5039 7.67655Z" fill="#E41C29"/>
<path d="M56.205 7.74841C56.3591 7.87344 56.5612 7.99892 56.54 8.21246C56.4945 8.01991 56.3166 7.91359 56.1504 7.8091C56.164 7.79404 56.1913 7.76347 56.205 7.74841Z" fill="#E41C29"/>
<path d="M52.1031 7.99687C52.2001 7.95444 52.2982 7.91292 52.3997 7.87915C52.287 7.96493 52.1643 8.03931 52.042 8.11277C52.0486 8.04752 52.0556 7.98182 52.0632 7.91702C52.0733 7.93664 52.0935 7.9768 52.1031 7.99687Z" fill="#E41C29"/>
<path d="M53.2412 7.96501C53.3781 7.94174 53.5171 7.92348 53.6565 7.91162C53.5575 8.0079 53.457 8.10326 53.3524 8.19452C53.3716 8.13749 53.3923 8.08091 53.4135 8.02478C53.3544 8.0047 53.2983 7.98554 53.2412 7.96501Z" fill="#E41C29"/>
<path d="M52.6689 8.01642C52.767 8 52.8655 7.98494 52.965 7.97034C52.8953 8.03878 52.8246 8.10631 52.7528 8.17247C52.7634 8.14281 52.7847 8.0835 52.7953 8.05384C52.7639 8.04426 52.7008 8.02555 52.6689 8.01642Z" fill="#E41C29"/>
<path d="M53.9512 8.05799C54.082 8.03016 54.2139 8.00506 54.3473 7.98499C54.2619 8.08446 54.1705 8.17936 54.0729 8.26925C54.0901 8.21359 54.1078 8.15838 54.1265 8.10316C54.0659 8.08811 54.0093 8.07351 53.9512 8.05799Z" fill="#E41C29"/>
<path d="M55.7392 8.02361C55.814 7.95471 55.9135 8.00809 55.9914 8.04186C55.86 8.04094 55.7433 8.07882 55.7261 8.20977C55.6993 8.14863 55.6771 8.07517 55.7392 8.02361Z" fill="#E41C29"/>
<path d="M54.5488 8.20763C54.6474 8.20261 54.7464 8.19759 54.8464 8.19348C54.7752 8.25326 54.7039 8.31303 54.6332 8.3728C54.6453 8.33402 54.657 8.29523 54.6706 8.25691C54.6403 8.24459 54.5791 8.21995 54.5488 8.20763Z" fill="#E41C29"/>
<path d="M52.1274 8.27549C52.2113 8.28553 52.2932 8.26864 52.3745 8.24902C52.2881 8.30971 52.2012 8.36948 52.1133 8.42789C52.1173 8.37678 52.1219 8.32614 52.1274 8.27549Z" fill="#E41C29"/>
<path d="M52.7217 8.46085C52.8328 8.43758 52.9455 8.41568 53.0582 8.39697C52.9854 8.47637 52.9117 8.55394 52.8344 8.62922C52.8419 8.59774 52.8566 8.53432 52.8642 8.50238C52.8157 8.48869 52.7687 8.47454 52.7217 8.46085Z" fill="#E41C29"/>
<path d="M53.3379 8.52583C53.4733 8.48248 53.6112 8.44598 53.7512 8.41541C53.6749 8.52035 53.5936 8.62302 53.5011 8.71701C53.5077 8.6764 53.5213 8.5961 53.5279 8.55594C53.4804 8.54819 53.3854 8.53358 53.3379 8.52583Z" fill="#E41C29"/>
<path d="M54.0117 8.59017C54.13 8.56052 54.2502 8.53542 54.3715 8.51306C54.2972 8.5993 54.2199 8.68371 54.1385 8.76402C54.1512 8.71565 54.1653 8.66729 54.1805 8.61892C54.138 8.61162 54.0537 8.59748 54.0117 8.59017Z" fill="#E41C29"/>
<path d="M54.6777 8.68865C54.7409 8.68135 54.8046 8.67405 54.8687 8.66675C54.8238 8.71283 54.7788 8.75892 54.7353 8.80546C54.7151 8.76622 54.6959 8.72743 54.6777 8.68865Z" fill="#E41C29"/>
<path d="M52.8096 8.93884C52.9212 8.90598 53.0349 8.87769 53.1501 8.85168C53.0804 8.94066 53.0081 9.02736 52.9344 9.11223C52.9425 9.06295 52.951 9.01367 52.9612 8.96484C52.9233 8.958 52.8475 8.94522 52.8096 8.93884Z" fill="#E41C29"/>
<path d="M53.4824 9.06716C53.6153 9.02016 53.7512 8.97864 53.8887 8.94214C53.8149 9.05256 53.7346 9.15933 53.6482 9.26154C53.6557 9.20451 53.6638 9.14793 53.6734 9.09089C53.6092 9.08359 53.5456 9.07538 53.4824 9.06716Z" fill="#E41C29"/>
<path d="M54.2246 9.07031C54.3216 9.05616 54.4196 9.04247 54.5182 9.03015C54.4495 9.09723 54.3797 9.16384 54.3095 9.22909L54.3459 9.11958C54.3156 9.10726 54.2549 9.08262 54.2246 9.07031Z" fill="#E41C29"/>
<path d="M52.3643 9.14883C52.4562 9.1502 52.5487 9.14883 52.6417 9.14746C52.5815 9.19765 52.5219 9.2483 52.4653 9.30123C52.4608 9.23507 52.4274 9.18442 52.3643 9.14883Z" fill="#E41C29"/>
<path d="M53.002 9.38228C53.1141 9.35445 53.2288 9.33118 53.3445 9.31201C53.2708 9.39734 53.1929 9.47993 53.1121 9.55932C53.1237 9.51141 53.1364 9.46396 53.15 9.4165C53.1131 9.40783 53.0388 9.39095 53.002 9.38228Z" fill="#E41C29"/>
<path d="M52.0231 9.44351C52.0721 9.42617 52.1555 9.41933 52.1918 9.46222C52.1726 9.51058 52.11 9.56534 52.0504 9.55211C52.015 9.51971 52.0059 9.48366 52.0231 9.44351Z" fill="#E41C29"/>
<path d="M53.8174 9.48696C53.9154 9.47282 54.0149 9.45959 54.114 9.44727C54.0458 9.5148 53.9765 9.58187 53.9073 9.64803C53.9174 9.61837 53.9371 9.55951 53.9472 9.52985C53.9144 9.51936 53.8497 9.49791 53.8174 9.48696Z" fill="#E41C29"/>
<path d="M52.4971 9.52502C52.6001 9.52594 52.7052 9.52731 52.8098 9.52959C52.7315 9.58754 52.6512 9.64412 52.5724 9.7007C52.5865 9.67149 52.6148 9.61263 52.6289 9.58343C52.5961 9.56883 52.5299 9.53963 52.4971 9.52502Z" fill="#E41C29"/>
<path d="M53.3652 9.73625C53.4289 9.72804 53.4936 9.72028 53.5588 9.71252C53.5143 9.75998 53.4703 9.80789 53.4274 9.8558C53.4057 9.81565 53.3849 9.77595 53.3652 9.73625Z" fill="#E41C29"/>
<path d="M51.0498 9.73987C51.1155 9.74215 51.1822 9.74397 51.2494 9.7458C51.1857 9.79325 51.1231 9.84162 51.0645 9.89273C51.0811 9.84071 51.073 9.78915 51.0498 9.73987Z" fill="#E41C29"/>
<path d="M51.6055 9.73987C51.6747 9.74215 51.7444 9.74443 51.8152 9.74671C51.7515 9.79188 51.6888 9.83751 51.6287 9.88542C51.6459 9.83432 51.6383 9.7855 51.6055 9.73987Z" fill="#E41C29"/>
<path d="M52.1769 9.84888C52.2244 9.82515 52.3264 9.81374 52.3522 9.86895C52.3254 9.9155 52.285 9.94698 52.2309 9.96341C52.1941 9.94059 52.1703 9.88812 52.1769 9.84888Z" fill="#E41C29"/>
<path d="M52.7783 9.87573C52.8546 9.87893 52.9314 9.88167 53.0092 9.88395C52.9476 9.93094 52.8864 9.9784 52.8288 10.029C52.8162 9.99072 52.791 9.91406 52.7783 9.87573Z" fill="#E41C29"/>
<path d="M53.1133 10.1149C53.3015 10.3044 53.47 10.5086 53.6537 10.7018C53.902 10.6804 54.0897 10.8495 54.3012 10.937C54.1644 10.967 54.0287 10.9976 53.8924 11.0244C54.0029 11.0882 54.0635 11.1921 54.062 11.3115C53.9822 11.2218 53.906 11.1288 53.8091 11.0541C53.7617 11.0595 53.6663 11.07 53.6189 11.0755C53.7446 11.1407 53.8167 11.2532 53.797 11.3858C53.6704 11.1443 53.357 11.0399 53.2435 10.7916C53.1905 10.5678 53.1516 10.3414 53.1133 10.1149Z" fill="#E41C29"/>
<path d="M55.6045 10.9613C55.9322 10.8388 56.2978 10.7973 56.6507 10.7769C56.3154 10.8834 55.9569 10.9294 55.6045 10.9613Z" fill="#E41C29"/>
<path d="M54.6699 10.8267C54.8645 10.8139 55.0004 10.9658 54.9797 11.1338C54.8927 11.0183 54.8013 10.9038 54.6699 10.8267Z" fill="#E41C29"/>
<path d="M55.668 11.1464C56.1424 11.0621 56.6219 10.9622 57.108 10.9704C56.8077 11.0475 56.4937 11.0689 56.1868 11.1149C56.0147 11.1368 55.8411 11.1701 55.668 11.1464Z" fill="#E41C29"/>
<path d="M53.2539 11.1529C53.4398 11.1296 53.5727 11.2825 53.5465 11.4435C53.4671 11.3322 53.3757 11.2277 53.2539 11.1529Z" fill="#E41C29"/>
<path d="M54.5449 11.3861C54.7975 11.2645 55.0905 11.2244 55.3733 11.2067C55.1111 11.3077 54.8258 11.3546 54.5449 11.3861Z" fill="#E41C29"/>
<path d="M52.4206 11.6872C52.7003 11.6065 52.9784 11.5103 53.2716 11.4789C53.0082 11.5965 52.7189 11.658 52.4434 11.7478C52.1986 11.8107 51.9633 11.911 51.71 11.9379C51.9361 11.8321 52.1809 11.7638 52.4206 11.6872Z" fill="#E41C29"/>
<path d="M53.2442 11.7403C53.5728 11.6424 53.8977 11.523 54.2409 11.4738C53.8735 11.6223 53.4829 11.718 53.108 11.8497C52.7795 11.9513 52.4591 12.0748 52.125 12.161C52.4742 11.9759 52.8673 11.8707 53.2442 11.7403Z" fill="#E41C29"/>
<path d="M50.9229 12.5689C51.0272 12.4264 51.2546 12.4428 51.4175 12.3895C51.3227 12.4437 51.2239 12.4915 51.1255 12.5402C51.3565 12.6354 51.5944 12.7187 51.8163 12.8316C51.5148 12.7538 51.2203 12.6568 50.9229 12.5689Z" fill="#E41C29"/>
</g>
<defs>
<clipPath id="clip0_1396_456">
<rect width="251" height="16" fill="white"/>
</clipPath>
</defs>
</svg>
