<svg width="1233" height="65" viewBox="0 0 1233 65" fill="none" xmlns="http://www.w3.org/2000/svg">
<mask id="mask0_205_1614" style="mask-type:luminance" maskUnits="userSpaceOnUse" x="0" y="5" width="51" height="55">
<path d="M50.6 5H0V60H50.6V5Z" fill="white"/>
</mask>
<g mask="url(#mask0_205_1614)">
<path d="M20.3465 6.28125L20.0623 6.45114C19.6101 6.72139 19.1842 7.02355 18.7868 7.35371L19.6066 6.78388H26.565L27.83 16.2489L21.505 22.4989L15.18 26.8431V31.8525C15.18 35.3513 17.0306 38.5957 20.0596 40.4074L26.7182 44.39L12.65 52.4992H9.93669L4.87957 49.4744C1.85052 47.6627 0 44.4183 0 40.9195V24.0747C0 20.5748 1.8517 17.3295 4.8823 15.5181L20.0623 6.44499C20.1564 6.38876 20.2511 6.33419 20.3465 6.28125Z" fill="url(#paint0_radial_205_1614)"/>
<path d="M20.3465 6.28125L20.0623 6.45114C19.6101 6.72139 19.1842 7.02355 18.7868 7.35371L19.6066 6.78388H26.565L27.83 16.2489L21.505 22.4989L15.18 26.8431V31.8525C15.18 35.3513 17.0306 38.5957 20.0596 40.4074L26.7182 44.39L12.65 52.4992H9.93669L4.87957 49.4744C1.85052 47.6627 0 44.4183 0 40.9195V24.0747C0 20.5748 1.8517 17.3295 4.8823 15.5181L20.0623 6.44499C20.1564 6.38876 20.2511 6.33419 20.3465 6.28125Z" fill="url(#paint1_linear_205_1614)"/>
<path d="M35.4191 26.25V31.8504C35.4191 35.3491 33.5685 38.5935 30.5394 40.4053L15.3594 49.4847C12.2541 51.3422 8.39043 51.4091 5.23047 49.6859L20.0586 58.555C23.28 60.4819 27.3179 60.4819 30.5394 58.555L45.7195 49.4754C48.7485 47.6636 50.5989 44.4192 50.5989 40.9205V36.875L49.3339 35L35.4191 26.25Z" fill="url(#paint2_radial_205_1614)"/>
<path d="M35.4191 26.25V31.8504C35.4191 35.3491 33.5685 38.5935 30.5394 40.4053L15.3594 49.4847C12.2541 51.3422 8.39043 51.4091 5.23047 49.6859L20.0586 58.555C23.28 60.4819 27.3179 60.4819 30.5394 58.555L45.7195 49.4754C48.7485 47.6636 50.5989 44.4192 50.5989 40.9205V36.875L49.3339 35L35.4191 26.25Z" fill="url(#paint3_linear_205_1614)"/>
<path d="M45.7174 15.5186L30.5374 6.44549C27.417 4.5804 23.5313 4.52262 20.3635 6.27215L20.062 6.4524C17.0314 8.2638 15.1797 11.509 15.1797 15.0089V26.8637L20.062 23.9455C23.2821 22.0209 27.3173 22.0209 30.5374 23.9455L45.7174 33.0186C48.6532 34.7735 50.4828 37.8738 50.5942 41.2476C50.5979 41.1387 50.5997 41.0295 50.5997 40.92V24.0751C50.5997 20.5753 48.748 17.33 45.7174 15.5186Z" fill="url(#paint4_radial_205_1614)"/>
<path d="M45.7174 15.5186L30.5374 6.44549C27.417 4.5804 23.5313 4.52262 20.3635 6.27215L20.062 6.4524C17.0314 8.2638 15.1797 11.509 15.1797 15.0089V26.8637L20.062 23.9455C23.2821 22.0209 27.3173 22.0209 30.5374 23.9455L45.7174 33.0186C48.6532 34.7735 50.4828 37.8738 50.5942 41.2476C50.5979 41.1387 50.5997 41.0295 50.5997 40.92V24.0751C50.5997 20.5753 48.748 17.33 45.7174 15.5186Z" fill="url(#paint5_linear_205_1614)"/>
</g>
<mask id="mask1_205_1614" style="mask-type:luminance" maskUnits="userSpaceOnUse" x="110" y="5" width="60" height="55">
<path d="M169.529 5H110.6V60H169.529V5Z" fill="white"/>
</mask>
<g mask="url(#mask1_205_1614)">
<path d="M165.789 5H152.71C152.219 4.99994 151.733 5.10338 151.279 5.3044C150.826 5.50543 150.413 5.8001 150.066 6.17157L119.196 39.1859C118.848 39.5572 118.573 39.998 118.384 40.4831C118.197 40.9683 118.1 41.4884 118.1 42.0136V56.0007C118.1 56.5259 118.197 57.046 118.384 57.5312C118.573 58.0164 118.848 58.4573 119.195 58.8287C119.543 59.2001 119.955 59.4947 120.408 59.6956C120.862 59.8966 121.348 60 121.84 60H134.919C135.41 60 135.896 59.8966 136.35 59.6956C136.803 59.4946 137.215 59.1999 137.562 58.8284L168.433 25.8141C169.135 25.0641 169.528 24.047 169.528 22.9864V8.99926C169.528 8.47407 169.432 7.95401 169.244 7.46879C169.056 6.98356 168.78 6.54268 168.433 6.17131C168.086 5.79994 167.674 5.50535 167.22 5.30438C166.766 5.1034 166.28 4.99998 165.789 5Z" fill="#28A8EA"/>
<path d="M165.794 59.9997H152.715C151.723 59.9997 150.771 59.5786 150.07 58.8287L143.819 52.1429V39.65C143.819 37.7537 144.523 35.9351 145.777 34.5942C147.031 33.2533 148.731 32.5 150.504 32.5H162.186L168.438 39.1859C169.139 39.9359 169.533 40.953 169.533 42.0136V56.001C169.533 57.0616 169.139 58.0788 168.438 58.8287C167.737 59.5787 166.785 59.9997 165.794 59.9997Z" fill="#0078D4"/>
<path d="M121.84 5H134.919C135.91 5 136.861 5.42132 137.562 6.17127L143.814 12.8571V25.35C143.814 27.2463 143.11 29.0649 141.856 30.4058C140.602 31.7467 138.902 32.5 137.128 32.5H125.447L119.195 25.8141C118.494 25.0642 118.1 24.047 118.1 22.9864V8.99896C118.1 7.93837 118.494 6.92122 119.195 6.17127C119.896 5.42132 120.847 5 121.84 5Z" fill="#50D9FF"/>
<path opacity="0.2" d="M141.671 19.1289V49.3099C141.674 49.4639 141.659 49.6177 141.629 49.7681C141.531 50.3881 141.231 50.9507 140.782 51.3558C140.332 51.7609 139.763 51.9821 139.175 51.9798H118.1V16.459H139.175C139.503 16.4584 139.828 16.527 140.131 16.6609C140.434 16.7949 140.709 16.9916 140.942 17.2396C141.174 17.4877 141.357 17.7822 141.483 18.1064C141.608 18.4306 141.672 18.7781 141.671 19.1289Z" fill="black"/>
<path opacity="0.1" d="M142.743 19.1282V47.0176C142.734 48.0267 142.355 48.9918 141.688 49.7053C141.021 50.4188 140.118 50.8239 139.175 50.8333H118.1V15.3125H139.175C140.12 15.316 141.026 15.7192 141.694 16.434C142.363 17.1488 142.74 18.1173 142.743 19.1282Z" fill="black"/>
<path opacity="0.2" d="M141.671 19.1289V47.0183C141.672 47.369 141.608 47.7165 141.483 48.0407C141.357 48.3649 141.174 48.6595 140.942 48.9076C140.709 49.1556 140.434 49.3522 140.131 49.4862C139.828 49.6201 139.503 49.6888 139.175 49.6882H118.1V16.459H139.175C139.503 16.4584 139.828 16.527 140.131 16.6609C140.434 16.7949 140.709 16.9916 140.942 17.2396C141.174 17.4877 141.357 17.7822 141.483 18.1064C141.608 18.4306 141.672 18.7781 141.671 19.1289Z" fill="black"/>
<path opacity="0.1" d="M140.6 19.1289V47.0183C140.601 47.369 140.536 47.7165 140.411 48.0407C140.286 48.3649 140.102 48.6595 139.87 48.9076C139.638 49.1556 139.363 49.3522 139.059 49.4862C138.756 49.6201 138.431 49.6888 138.104 49.6882H118.1V16.459H138.104C138.431 16.4584 138.756 16.527 139.059 16.6609C139.363 16.7949 139.638 16.9916 139.87 17.2396C140.102 17.4877 140.286 17.7822 140.411 18.1064C140.536 18.4306 140.601 18.7781 140.6 19.1289Z" fill="black"/>
<path d="M138.1 16.459H113.1C111.719 16.459 110.6 17.656 110.6 19.1326V45.8687C110.6 47.3453 111.719 48.5423 113.1 48.5423H138.1C139.481 48.5423 140.6 47.3453 140.6 45.8687V19.1326C140.6 17.656 139.481 16.459 138.1 16.459Z" fill="#0078D4"/>
<path d="M130.514 26.6347H123.499V31.0216H130.083V33.8332H123.499V38.3897H130.888V41.1894H120.315V23.8105H130.514V26.6347Z" fill="white"/>
</g>
<mask id="mask2_205_1614" style="mask-type:luminance" maskUnits="userSpaceOnUse" x="229" y="5" width="56" height="55">
<path d="M284.529 5.18945H229.529V59.8101H284.529V5.18945Z" fill="white"/>
</mask>
<g mask="url(#mask2_205_1614)">
<path d="M257.667 36.2008C266.143 36.2008 273.016 29.3763 273.016 20.9578C273.016 12.5394 266.143 5.71484 257.667 5.71484C249.19 5.71484 242.318 12.5394 242.318 20.9578C242.318 29.3763 249.19 36.2008 257.667 36.2008Z" fill="#036C70"/>
<path d="M270.458 48.9025C278.228 48.9025 284.527 42.6467 284.527 34.9298C284.527 27.2128 278.228 20.957 270.458 20.957C262.687 20.957 256.388 27.2128 256.388 34.9298C256.388 42.6467 262.687 48.9025 270.458 48.9025Z" fill="#1A9BA1"/>
<path d="M259.589 59.0649C265.593 59.0649 270.461 54.2309 270.461 48.2678C270.461 42.3047 265.593 37.4707 259.589 37.4707C253.584 37.4707 248.716 42.3047 248.716 48.2678C248.716 54.2309 253.584 59.0649 259.589 59.0649Z" fill="#37C6D0"/>
<path opacity="0.1" d="M260.227 19.4711V46.5781C260.221 47.5201 259.646 48.3662 258.769 48.7248C258.49 48.8422 258.189 48.9026 257.886 48.9027H248.728C248.716 48.6868 248.716 48.4835 248.716 48.2676C248.711 48.0556 248.72 47.8435 248.741 47.6324C248.975 43.5721 251.494 39.9895 255.251 38.3723V36.0097C246.889 34.6936 241.184 26.8942 242.509 18.5891C242.518 18.5317 242.528 18.4741 242.538 18.4168C242.601 17.9884 242.691 17.5642 242.806 17.1465H257.886C259.177 17.1514 260.222 18.1893 260.227 19.4711Z" fill="black"/>
<path opacity="0.2" d="M256.608 18.418H242.538C241.116 26.708 246.731 34.5727 255.079 35.9842C255.332 36.0269 255.586 36.0633 255.84 36.0935C251.875 37.9607 248.986 43.2641 248.74 47.6337C248.719 47.8447 248.71 48.0568 248.714 48.2688C248.714 48.4848 248.714 48.688 248.727 48.9039C248.75 49.3309 248.806 49.7555 248.893 50.1742H256.606C257.555 50.1679 258.407 49.5971 258.768 48.7261C258.886 48.4488 258.947 48.1507 258.947 47.8496V20.7425C258.942 19.4613 257.898 18.4236 256.608 18.418Z" fill="black"/>
<path opacity="0.2" d="M256.608 18.418H242.538C241.117 26.7088 246.732 34.5738 255.081 35.985C255.251 36.0139 255.423 36.0399 255.595 36.063C251.757 38.0649 248.982 43.3555 248.741 47.6337H256.608C257.896 47.624 258.939 46.5889 258.949 45.3091V20.7425C258.944 19.4608 257.898 18.4229 256.608 18.418Z" fill="black"/>
<path opacity="0.2" d="M255.328 18.418H242.537C241.195 26.2446 246.134 33.7817 253.883 35.734C250.949 39.0632 249.149 43.2281 248.741 47.6337H255.328C256.618 47.6288 257.663 46.5909 257.668 45.3091V20.7425C257.668 19.459 256.62 18.4187 255.328 18.418Z" fill="black"/>
<path d="M231.873 18.418H255.324C256.619 18.418 257.668 19.4604 257.668 20.7463V44.035C257.668 45.321 256.619 46.3634 255.324 46.3634H231.873C230.578 46.3634 229.529 45.321 229.529 44.035V20.7463C229.529 19.4604 230.578 18.418 231.873 18.418Z" fill="url(#paint6_linear_205_1614)"/>
<path d="M240 32.1045C239.45 31.7425 238.991 31.2607 238.658 30.6957C238.335 30.1052 238.174 29.4406 238.191 28.7688C238.162 27.8591 238.471 26.9707 239.059 26.2728C239.677 25.5739 240.476 25.0564 241.369 24.7764C242.387 24.4437 243.453 24.2797 244.525 24.2912C245.934 24.24 247.341 24.4357 248.682 24.8691V27.7907C248.099 27.4402 247.465 27.183 246.802 27.0286C246.082 26.8533 245.344 26.7654 244.603 26.7669C243.822 26.7384 243.045 26.9016 242.343 27.242C241.8 27.4743 241.448 28.0043 241.447 28.591C241.445 28.9469 241.583 29.2895 241.831 29.5462C242.124 29.8488 242.471 30.0951 242.854 30.2728C243.28 30.4836 243.92 30.7639 244.773 31.1137C244.867 31.1432 244.959 31.1797 245.047 31.2229C245.886 31.5487 246.695 31.9452 247.467 32.4081C248.051 32.7657 248.541 33.2559 248.897 33.8384C249.262 34.4987 249.438 35.2452 249.408 35.9978C249.45 36.9318 249.162 37.8509 248.595 38.5967C248.029 39.2825 247.273 39.7879 246.42 40.0499C245.417 40.3621 244.371 40.513 243.32 40.497C242.377 40.5013 241.436 40.4248 240.506 40.2684C239.721 40.1408 238.955 39.9173 238.225 39.6027V36.5224C238.923 37.0171 239.702 37.3868 240.528 37.6148C241.351 37.8695 242.206 38.0055 243.068 38.0188C243.866 38.0689 244.662 37.9011 245.37 37.5336C245.867 37.2554 246.169 36.7287 246.156 36.1629C246.159 35.7693 246.002 35.391 245.721 35.1137C245.371 34.7726 244.966 34.4922 244.522 34.2842C244.011 34.0302 243.257 33.6953 242.262 33.2795C241.47 32.9634 240.713 32.5698 240 32.1045Z" fill="white"/>
</g>
<mask id="mask3_205_1614" style="mask-type:luminance" maskUnits="userSpaceOnUse" x="344" y="15" width="56" height="35">
<path d="M399.529 15H344.529V50H399.529V15Z" fill="white"/>
</mask>
<g mask="url(#mask3_205_1614)">
<path d="M365.506 24.7196L365.506 24.7177L377.052 31.5876L383.932 28.7116V28.7128C385.33 28.1124 386.837 27.8034 388.361 27.8049C388.614 27.8049 388.865 27.8163 389.115 27.8329C388.288 24.629 386.541 21.7327 384.088 19.4959C381.635 17.2593 378.581 15.7784 375.297 15.2334C372.013 14.6884 368.64 15.1027 365.588 16.4259C362.537 17.7492 359.937 19.9244 358.107 22.6874C358.166 22.6866 358.224 22.683 358.282 22.683C360.834 22.6795 363.336 23.385 365.506 24.7196Z" fill="#0364B8"/>
<path d="M365.503 24.7184L365.502 24.7203C363.332 23.3857 360.831 22.6802 358.279 22.6836C358.22 22.6836 358.162 22.6873 358.103 22.6881C355.606 22.7188 353.164 23.4249 351.04 24.7307C348.916 26.0364 347.191 27.8923 346.049 30.099C344.907 32.3057 344.392 34.7798 344.56 37.2553C344.727 39.7308 345.571 42.1142 346.999 44.1493L357.181 39.8932L361.708 38.0011L371.785 33.7884L377.048 31.5883L365.503 24.7184Z" fill="#0078D4"/>
<path d="M389.108 27.8326C388.858 27.8161 388.607 27.8047 388.353 27.8047C386.83 27.8032 385.323 28.1122 383.925 28.7126L383.924 28.7114L377.044 31.5874L379.04 32.7745L385.579 36.6656L388.433 38.3634L398.189 44.1683C399.075 42.5336 399.534 40.7041 399.525 38.8473C399.515 36.9905 399.037 35.1658 398.133 33.5404C397.229 31.9149 395.93 30.5407 394.353 29.5435C392.776 28.5463 390.973 27.958 389.108 27.8326Z" fill="#1490DF"/>
<path d="M388.438 38.3638L385.586 36.6661L379.046 32.775L377.051 31.5879L371.788 33.7879L361.71 38.0006L357.184 39.8927L347.001 44.1488C348.267 45.9559 349.954 47.4319 351.918 48.4508C353.882 49.4698 356.065 50.0014 358.281 50.0002H388.359C390.376 50.0008 392.355 49.459 394.087 48.4323C395.819 47.4056 397.238 45.9323 398.195 44.1688L388.438 38.3638Z" fill="#28A8EA"/>
</g>
<path d="M499.573 40.6187C505.879 37.1782 513.598 42.0023 514.432 48.9094C514.507 49.5324 514.533 50.166 514.528 50.7935C514.519 51.8679 513.716 52.6684 512.697 52.6653C511.656 52.6623 510.827 51.8312 510.881 50.7262C511.04 47.4264 508.899 44.4312 505.849 43.4502C504.21 42.9237 502.672 43.0645 501.334 43.8757C501.614 44.9164 501.968 45.9434 502.157 47.0009C502.367 48.1794 502.471 49.3824 502.54 50.5777C502.604 51.6812 501.842 52.5031 500.832 52.552C499.778 52.6025 498.938 51.8603 498.908 50.7231C498.853 48.5789 498.488 46.5081 497.57 44.5613C495.924 41.0702 493.386 38.5265 489.561 37.6037C485.391 36.5966 481.828 37.8868 478.919 40.9601C476.6 43.4104 475.45 46.3948 475.231 49.7497C475.208 50.0926 475.211 50.4369 475.18 50.7797C475.082 51.8741 474.288 52.601 473.254 52.5536C472.263 52.5077 471.531 51.7042 471.531 50.6374C471.531 48.559 471.877 46.5372 472.572 44.5766C472.648 44.3608 472.72 44.145 472.807 43.891C471.494 43.1533 470.13 42.9405 468.673 43.3216C465.382 44.1802 463.169 47.0913 463.213 50.5532C463.226 51.4455 462.93 52.1312 462.107 52.5092C460.945 53.0418 459.63 52.2077 459.548 50.9129C459.215 45.5347 463.206 40.4948 468.498 39.6132C470.598 39.2627 472.051 39.5046 474.509 40.6187C477.52 36.237 481.642 33.678 487.012 33.6642C492.389 33.6458 496.514 36.1971 499.573 40.6187Z" fill="#0364B8"/>
<path d="M486.81 12.3263C491.847 12.3477 495.881 16.4249 495.855 21.4694C495.829 26.4481 491.734 30.4596 486.698 30.4381C481.773 30.4167 477.736 26.3333 477.752 21.3853C477.765 16.3575 481.817 12.3048 486.81 12.3263ZM481.416 21.3546C481.396 24.3146 483.768 26.742 486.708 26.7695C489.731 26.7986 492.176 24.4095 492.188 21.4174C492.201 18.4681 489.811 16.0239 486.886 15.9948C483.872 15.9642 481.438 18.3503 481.416 21.3546Z" fill="#28A8EA"/>
<path d="M476.635 28.786C476.646 32.6566 473.544 35.7604 469.656 35.7681C465.87 35.7757 462.735 32.6413 462.732 28.8426C462.728 24.9505 465.813 21.8421 469.685 21.8359C473.524 21.8314 476.623 24.9306 476.635 28.786ZM472.969 28.7722C472.958 26.954 471.498 25.503 469.685 25.5046C467.843 25.5076 466.391 26.9738 466.398 28.8273C466.404 30.6363 467.875 32.101 469.683 32.0995C471.517 32.0995 472.981 30.618 472.969 28.7722Z" fill="#0078D4"/>
<path d="M503.808 35.768C499.992 35.7022 496.881 32.5356 496.936 28.7752C496.994 24.8066 500.162 21.7579 504.145 21.8375C507.902 21.9124 510.928 25.1204 510.866 28.9665C510.807 32.7423 507.598 35.8339 503.808 35.768ZM507.203 28.8073C507.208 26.9983 505.743 25.5153 503.942 25.5045C502.103 25.4938 500.619 26.9554 500.604 28.792C500.59 30.6057 502.103 32.1117 503.927 32.0994C505.732 32.0857 507.199 30.6149 507.203 28.8073Z" fill="#1490DF"/>
<mask id="mask4_205_1614" style="mask-type:luminance" maskUnits="userSpaceOnUse" x="574" y="6" width="56" height="53">
<path d="M629.529 6.91797H574.529V58.0808H629.529V6.91797Z" fill="white"/>
</mask>
<g mask="url(#mask4_205_1614)">
<path d="M612.889 26.1035H627.096C628.438 26.1035 629.526 27.1915 629.526 28.5337V41.4741C629.526 46.4069 625.527 50.4058 620.594 50.4058H620.552C615.619 50.4065 611.619 46.4082 611.619 41.4754V41.474V27.3736C611.619 26.6722 612.187 26.1035 612.889 26.1035Z" fill="#5059C9"/>
<path d="M622.492 23.5448C625.671 23.5448 628.248 20.9678 628.248 17.789C628.248 14.6102 625.671 12.0332 622.492 12.0332C619.313 12.0332 616.736 14.6102 616.736 17.789C616.736 20.9678 619.313 23.5448 622.492 23.5448Z" fill="#5059C9"/>
<path d="M604.589 23.5459C609.18 23.5459 612.903 19.8236 612.903 15.2319C612.903 10.6403 609.18 6.91797 604.589 6.91797C599.997 6.91797 596.275 10.6403 596.275 15.2319C596.275 19.8236 599.997 23.5459 604.589 23.5459Z" fill="#7B83EB"/>
<path d="M615.672 26.1035H592.221C590.895 26.1363 589.846 27.2369 589.877 28.5632V43.3224C589.691 51.281 595.988 57.8855 603.947 58.0803C611.905 57.8855 618.202 51.281 618.016 43.3224V28.5632C618.047 27.2369 616.998 26.1363 615.672 26.1035Z" fill="#7B83EB"/>
<path opacity="0.1" d="M605.226 26.1035V46.786C605.219 47.7345 604.645 48.5866 603.768 48.9477C603.489 49.0658 603.189 49.1267 602.885 49.1267H591.003C590.836 48.7047 590.683 48.2826 590.555 47.8477C590.108 46.38 589.879 44.8543 589.877 43.3198V28.5593C589.846 27.2352 590.894 26.1363 592.218 26.1035H605.226Z" fill="black"/>
<path opacity="0.2" d="M603.947 26.1035V48.0651C603.947 48.3683 603.886 48.6684 603.768 48.9477C603.407 49.8247 602.555 50.3995 601.606 50.4058H591.604C591.386 49.9837 591.182 49.5616 591.003 49.1267C590.824 48.6919 590.683 48.2826 590.555 47.8477C590.108 46.38 589.879 44.8543 589.877 43.3198V28.5593C589.846 27.2352 590.894 26.1363 592.218 26.1035H603.947Z" fill="black"/>
<path opacity="0.2" d="M603.947 26.1035V45.507C603.937 46.7957 602.895 47.838 601.606 47.8477H590.555C590.108 46.38 589.879 44.8543 589.877 43.3198V28.5593C589.846 27.2352 590.894 26.1363 592.218 26.1035H603.947Z" fill="black"/>
<path opacity="0.2" d="M602.668 26.1035V45.507C602.658 46.7957 601.616 47.838 600.327 47.8477H590.555C590.108 46.38 589.879 44.8543 589.877 43.3198V28.5593C589.846 27.2352 590.894 26.1363 592.218 26.1035H602.668Z" fill="black"/>
<path opacity="0.1" d="M605.224 19.491V23.5201C605.007 23.5329 604.803 23.5457 604.585 23.5457C604.368 23.5457 604.163 23.5329 603.946 23.5201C603.514 23.4915 603.086 23.423 602.666 23.3155C600.076 22.7021 597.936 20.8856 596.911 18.4294C596.734 18.017 596.597 17.5887 596.501 17.1504H602.884C604.175 17.1553 605.22 18.2003 605.224 19.491Z" fill="black"/>
<path opacity="0.2" d="M603.943 20.7703V23.5203C603.511 23.4917 603.083 23.4232 602.663 23.3157C600.073 22.7023 597.933 20.8858 596.908 18.4297H601.602C602.892 18.4345 603.938 19.4796 603.943 20.7703Z" fill="black"/>
<path opacity="0.2" d="M603.943 20.7703V23.5203C603.511 23.4917 603.083 23.4232 602.663 23.3157C600.073 22.7023 597.933 20.8858 596.908 18.4297H601.602C602.892 18.4345 603.938 19.4796 603.943 20.7703Z" fill="black"/>
<path opacity="0.2" d="M602.663 20.7704V23.3157C600.073 22.7023 597.933 20.8858 596.908 18.4297H600.323C601.614 18.4346 602.658 19.4797 602.663 20.7704Z" fill="black"/>
<path d="M576.873 18.4297H600.324C601.619 18.4297 602.668 19.4794 602.668 20.7742V44.2246C602.668 45.5195 601.619 46.5692 600.324 46.5692H576.873C575.578 46.5692 574.529 45.5195 574.529 44.2246V20.7742C574.529 19.4794 575.578 18.4297 576.873 18.4297Z" fill="url(#paint7_linear_205_1614)"/>
<path d="M594.768 27.3552H590.08V40.1203H587.093V27.3552H582.427V24.8789H594.768V27.3552Z" fill="white"/>
</g>
<g clip-path="url(#clip0_205_1614)">
<path d="M753.899 23.6446L751.931 21.6699L717.829 55.8892L719.797 57.8639L753.899 23.6446Z" fill="url(#paint8_linear_205_1614)"/>
<path d="M715.86 59.5003C718.934 59.5003 721.426 56.9998 721.426 53.9152C721.426 50.8306 718.934 48.3301 715.86 48.3301C712.786 48.3301 710.294 50.8306 710.294 53.9152C710.294 56.9998 712.786 59.5003 715.86 59.5003Z" fill="url(#paint9_radial_205_1614)"/>
<path d="M749.961 25.2816C753.035 25.2816 755.527 22.781 755.527 19.6964C755.527 16.6119 753.035 14.1113 749.961 14.1113C746.887 14.1113 744.396 16.6119 744.396 19.6964C744.396 22.781 746.887 25.2816 749.961 25.2816Z" fill="url(#paint10_radial_205_1614)"/>
<path d="M711.924 57.8633L713.892 55.8887L693.125 35.0504L691.157 37.0251L711.924 57.8633Z" fill="url(#paint11_linear_205_1614)"/>
<path d="M695.094 38.6624C698.168 38.6624 700.66 36.1619 700.66 33.0773C700.66 29.9927 698.168 27.4922 695.094 27.4922C692.02 27.4922 689.528 29.9927 689.528 33.0773C689.528 36.1619 692.02 38.6624 695.094 38.6624Z" fill="url(#paint12_radial_205_1614)"/>
<path d="M700.556 19.6951L691.156 29.1269C690.07 30.2175 690.07 31.9856 691.156 33.0762L713.891 55.8891C714.978 56.9796 716.74 56.9796 717.826 55.8891L727.226 46.4573C728.313 45.3667 728.313 43.5986 727.226 42.508L704.491 19.6951C703.405 18.6046 701.642 18.6046 700.556 19.6951Z" fill="#195ABD"/>
<path d="M753.899 15.7463L744.5 6.31448C743.413 5.22392 741.651 5.22392 740.564 6.31448L704.495 42.5084C703.408 43.599 703.408 45.3671 704.495 46.4577L713.894 55.8895C714.981 56.98 716.743 56.98 717.83 55.8895L753.899 19.6956C754.986 18.605 754.986 16.8368 753.899 15.7463Z" fill="url(#paint13_linear_205_1614)"/>
</g>
<g clip-path="url(#clip1_205_1614)">
<path d="M846.512 18.75H870.045C871.416 18.75 872.528 19.8766 872.528 21.2663V43.7341C872.528 45.1238 871.416 46.2504 870.045 46.2504H846.512C845.14 46.2504 844.028 45.1238 844.028 43.7341V21.2663C844.028 19.8766 845.14 18.75 846.512 18.75Z" fill="#2B7CD3"/>
<path d="M858.956 18.7501C858.959 19.4175 858.695 20.0575 858.224 20.5238L848.099 30.7815L847.136 31.7577C847.011 31.8796 846.88 31.9943 846.742 32.1015C846.336 32.3614 845.865 32.4997 845.385 32.5003C844.726 32.503 844.095 32.2351 843.634 31.7577L832.546 20.5238C831.71 19.6878 831.573 18.3687 832.221 17.375C832.318 17.2328 832.427 17.0994 832.546 16.9763L843.634 5.74241C844.587 4.76278 846.143 4.75114 847.11 5.71638C847.119 5.72499 847.127 5.73366 847.136 5.74241L858.224 16.9763C858.695 17.4427 858.959 18.0827 858.956 18.7501Z" fill="#41A5EE"/>
<path d="M858.957 46.2502C858.957 53.8442 852.88 60.0001 845.385 59.9998C840.537 59.9995 836.057 57.3791 833.633 53.1253C833.371 52.6855 833.145 52.2258 832.954 51.7503C832.754 51.3032 832.582 50.844 832.438 50.3752C830.19 43.131 834.163 35.4116 841.313 33.1334C842.631 32.7135 844.004 32.4999 845.385 32.5C845.847 32.5 846.295 32.5275 846.743 32.5688C847.199 32.6085 847.652 32.6774 848.1 32.775C854.415 34.0903 858.949 39.7184 858.957 46.2502Z" fill="#103F91"/>
<path opacity="0.1" d="M848.1 19.8913V49.2342C848.093 50.2538 847.483 51.1697 846.553 51.5579C846.256 51.6849 845.938 51.7504 845.616 51.7504H832.954C832.754 51.3034 832.582 50.8442 832.438 50.3754C830.19 43.1312 834.163 35.4117 841.313 33.1335C842.631 32.7137 844.004 32.5001 845.385 32.5002C844.727 32.503 844.095 32.2351 843.635 31.7577L832.547 20.5238C831.71 19.6877 831.574 18.3687 832.221 17.375H845.616C846.545 17.3806 847.393 17.9111 847.815 18.75C848.005 19.0991 848.104 19.4923 848.1 19.8913Z" fill="black"/>
<path opacity="0.2" d="M846.743 21.2663V50.6092C846.743 50.9351 846.678 51.2578 846.553 51.5579C846.169 52.5008 845.265 53.1186 844.259 53.1255H833.633C833.371 52.6857 833.145 52.226 832.954 51.7504C832.754 51.3034 832.582 50.8442 832.438 50.3754C830.19 43.1312 834.163 35.4117 841.313 33.1335C842.631 32.7137 844.004 32.5001 845.385 32.5002C844.727 32.503 844.095 32.2351 843.635 31.7577L832.547 20.5238C832.076 20.0574 831.811 19.4174 831.814 18.75H844.259C844.947 18.7476 845.604 19.0427 846.064 19.5613C846.498 20.0203 846.741 20.6308 846.743 21.2663Z" fill="black"/>
<path opacity="0.2" d="M846.743 21.2663V47.8591C846.732 49.2445 845.626 50.365 844.259 50.3754H832.438C830.19 43.1312 834.163 35.4118 841.313 33.1336C842.631 32.7137 844.004 32.5001 845.385 32.5002C844.727 32.503 844.095 32.2351 843.635 31.7577L832.547 20.5238C832.076 20.0574 831.811 19.4174 831.814 18.75H844.259C844.947 18.7476 845.604 19.0427 846.064 19.5613C846.498 20.0203 846.741 20.6308 846.743 21.2663Z" fill="black"/>
<path opacity="0.2" d="M845.385 21.2663V32.5002C844.726 32.503 844.095 32.2351 843.634 31.7577L832.546 20.5238C832.075 20.0574 831.811 19.4174 831.813 18.75H842.901C844.271 18.7553 845.38 19.8788 845.385 21.2663Z" fill="black"/>
<path opacity="0.2" d="M845.385 32.5V47.8589C845.375 49.2443 844.269 50.3648 842.902 50.3752H832.438C830.19 43.131 834.163 35.4116 841.313 33.1334C842.631 32.7135 844.004 32.4999 845.385 32.5Z" fill="black"/>
<path d="M818.016 18.75H842.898C844.272 18.75 845.385 19.8784 845.385 21.2704V46.48C845.385 47.872 844.272 49.0004 842.898 49.0004H818.016C816.642 49.0004 815.528 47.872 815.528 46.48V21.2704C815.528 19.8784 816.642 18.75 818.016 18.75Z" fill="url(#paint14_linear_205_1614)"/>
<path d="M829.64 36.5264C830.097 37.8904 830.368 38.7512 830.454 39.1087H830.51C830.592 38.7512 830.886 37.8295 831.391 36.3435L835.01 25.6816H838.338L832.197 42.0677H828.633L822.583 25.6816H826.006L829.64 36.5264Z" fill="white"/>
</g>
<path d="M945.657 31.875V56.25C945.675 56.8243 945.845 57.3836 946.149 57.871C946.453 58.3584 946.881 58.7564 947.389 59.0245C947.898 59.2925 948.468 59.4211 949.042 59.397C949.616 59.373 950.173 59.1972 950.657 58.8875L990.207 34.025C990.585 33.8069 990.899 33.4936 991.119 33.1165C991.338 32.7393 991.455 32.3113 991.457 31.875H945.657Z" fill="#BC1948"/>
<path d="M945.657 31.8745V7.49948C945.675 6.92519 945.845 6.36586 946.149 5.87848C946.453 5.3911 946.881 4.9931 947.389 4.72503C947.898 4.45696 948.468 4.3284 949.042 4.35246C949.616 4.37652 950.173 4.55233 950.657 4.86198L990.207 29.7245C990.585 29.9426 990.899 30.2558 991.119 30.633C991.338 31.0102 991.455 31.4382 991.457 31.8745H945.657Z" fill="#E8467C"/>
<path d="M938.017 16.3884L958.779 30.3634C959.024 30.5323 959.224 30.7583 959.363 31.0217C959.501 31.2852 959.573 31.5783 959.573 31.8759C959.573 32.1734 959.501 32.4665 959.363 32.73C959.224 32.9935 959.024 33.2194 958.779 33.3884L938.017 47.3634C937.75 47.5341 937.443 47.629 937.127 47.6378C936.811 47.6466 936.498 47.569 936.223 47.4134C935.948 47.2578 935.72 47.0301 935.565 46.7547C935.41 46.4794 935.332 46.1669 935.342 45.8509V17.9009C935.332 17.5849 935.41 17.2723 935.565 16.997C935.72 16.7217 935.948 16.4939 936.223 16.3383C936.498 16.1827 936.811 16.1051 937.127 16.114C937.443 16.1228 937.75 16.2177 938.017 16.3884Z" fill="#8C193F"/>
<path d="M1085.03 5.41602C1081.47 5.41602 1077.95 6.11655 1074.66 7.47761C1071.38 8.83868 1068.39 10.8336 1065.88 13.3485C1060.8 18.4277 1057.94 25.3164 1057.94 32.4994V59.5827H1085.03C1092.21 59.5827 1099.1 56.7293 1104.18 51.6502C1109.26 46.571 1112.11 39.6823 1112.11 32.4994C1112.11 25.3164 1109.26 18.4277 1104.18 13.3485C1099.1 8.26943 1092.21 5.41602 1085.03 5.41602ZM1085.03 23.0202C1086.27 23.0202 1087.5 23.2654 1088.65 23.7417C1089.8 24.2181 1090.85 24.9163 1091.73 25.7966C1092.61 26.6768 1093.31 27.7218 1093.78 28.8718C1094.26 30.0219 1094.51 31.2545 1094.51 32.4994C1094.51 33.7442 1094.26 34.9768 1093.78 36.1269C1093.31 37.2769 1092.61 38.3219 1091.73 39.2021C1090.85 40.0824 1089.8 40.7806 1088.65 41.257C1087.5 41.7333 1086.27 41.9785 1085.03 41.9785H1075.55V32.4994C1075.55 29.9853 1076.55 27.5743 1078.32 25.7966C1080.1 24.0189 1082.51 23.0202 1085.03 23.0202Z" fill="url(#paint15_linear_205_1614)"/>
<path d="M1112.11 32.5C1112.11 39.6829 1109.26 46.5717 1104.18 51.6508C1099.1 56.7299 1092.21 59.5833 1085.03 59.5833H1057.94C1057.94 54.9144 1059.8 50.4367 1063.1 47.1353C1066.4 43.8339 1070.88 41.9792 1075.55 41.9792H1085.03C1087.54 41.9792 1089.95 40.9805 1091.73 39.2028C1093.51 37.4251 1094.51 35.014 1094.51 32.5H1112.11Z" fill="url(#paint16_linear_205_1614)"/>
<path d="M1085.03 5.41603C1081.47 5.41603 1077.95 6.11656 1074.66 7.47763C1071.38 8.83869 1068.39 10.8336 1065.88 13.3486C1060.8 18.4277 1057.94 25.3164 1057.94 32.4994V59.5827C1062.6 59.5827 1067.07 57.7354 1070.37 54.4457C1073.67 51.156 1075.53 46.6922 1075.55 42.0327L1075.6 41.9785H1075.55V32.4994C1075.54 30.6139 1076.1 28.7696 1077.15 27.2022C1078.19 25.6348 1079.69 24.4155 1081.43 23.7002C1083.18 22.985 1085.09 22.8062 1086.94 23.1868C1088.79 23.5674 1090.48 24.4901 1091.8 25.8369L1104.26 13.4327C1101.74 10.8896 1098.75 8.87137 1095.45 7.49518C1092.14 6.11899 1088.6 5.41226 1085.03 5.41603Z" fill="url(#paint17_linear_205_1614)"/>
<path d="M1085.03 5.41603C1081.47 5.41603 1077.95 6.11656 1074.66 7.47763C1071.38 8.83869 1068.39 10.8336 1065.88 13.3486C1060.8 18.4277 1057.94 25.3164 1057.94 32.4994V59.5827C1062.6 59.5827 1067.07 57.7354 1070.37 54.4457C1073.67 51.156 1075.53 46.6922 1075.55 42.0327L1075.6 41.9785H1075.55V32.4994C1075.54 30.6139 1076.1 28.7696 1077.15 27.2022C1078.19 25.6348 1079.69 24.4155 1081.43 23.7002C1083.18 22.985 1085.09 22.8062 1086.94 23.1868C1088.79 23.5674 1090.48 24.4901 1091.8 25.8369L1104.26 13.4327C1101.74 10.8896 1098.75 8.87137 1095.45 7.49518C1092.14 6.11899 1088.6 5.41226 1085.03 5.41603Z" fill="url(#paint18_radial_205_1614)"/>
<g clip-path="url(#clip2_205_1614)">
<path d="M1223.49 5H1208.91C1207.65 5 1206.64 6.01624 1206.64 7.26984V57.7302C1206.64 58.9838 1207.65 60 1208.91 60H1223.49C1224.74 60 1225.76 58.9838 1225.76 57.7302V7.26984C1225.76 6.01624 1224.74 5 1223.49 5Z" fill="url(#paint19_linear_205_1614)"/>
<g filter="url(#filter0_d_205_1614)">
<path d="M1214.5 57.7308V60.0007H1212.23H1197.65C1196.4 60.0007 1195.38 58.9844 1195.38 57.7308V20.9769C1195.38 19.7233 1196.4 18.707 1197.65 18.707H1212.23C1213.48 18.707 1214.5 19.7233 1214.5 20.9769V57.7308Z" fill="black"/>
</g>
<path d="M1214.5 57.7308V60.0007H1212.23H1197.65C1196.4 60.0007 1195.38 58.9844 1195.38 57.7308V20.9769C1195.38 19.7233 1196.4 18.707 1197.65 18.707H1212.23C1213.48 18.707 1214.5 19.7233 1214.5 20.9769V57.7308Z" fill="url(#paint20_linear_205_1614)"/>
<path fill-rule="evenodd" clip-rule="evenodd" d="M1203.41 57.7302V60H1201.14H1186.56C1185.31 60 1184.29 58.9838 1184.29 57.7302V34.7698C1184.29 33.5162 1185.31 32.5 1186.56 32.5H1201.14C1202.39 32.5 1203.41 33.5162 1203.41 34.7698V57.7302Z" fill="url(#paint21_linear_205_1614)"/>
</g>
<defs>
<filter id="filter0_d_205_1614" x="1195.38" y="10.9077" width="50.3166" height="72.4904" filterUnits="userSpaceOnUse" color-interpolation-filters="sRGB">
<feFlood flood-opacity="0" result="BackgroundImageFix"/>
<feColorMatrix in="SourceAlpha" type="matrix" values="0 0 0 0 0 0 0 0 0 0 0 0 0 0 0 0 0 0 127 0" result="hardAlpha"/>
<feOffset dx="15.5987" dy="7.79935"/>
<feGaussianBlur stdDeviation="7.79935"/>
<feColorMatrix type="matrix" values="0 0 0 0 0 0 0 0 0 0 0 0 0 0 0 0 0 0 0.0530212 0"/>
<feBlend mode="normal" in2="BackgroundImageFix" result="effect1_dropShadow_205_1614"/>
<feBlend mode="normal" in="SourceGraphic" in2="effect1_dropShadow_205_1614" result="shape"/>
</filter>
<radialGradient id="paint0_radial_205_1614" cx="0" cy="0" r="1" gradientUnits="userSpaceOnUse" gradientTransform="translate(16.9745 15.7968) rotate(110.753) scale(41.769 73.5097)">
<stop offset="0.06441" stop-color="#AE7FE2"/>
<stop offset="1" stop-color="#0078D4"/>
</radialGradient>
<linearGradient id="paint1_linear_205_1614" x1="17.0926" y1="49.8345" x2="11.1774" y2="39.4812" gradientUnits="userSpaceOnUse">
<stop stop-color="#114A8B"/>
<stop offset="1" stop-color="#0078D4" stop-opacity="0"/>
</linearGradient>
<radialGradient id="paint2_radial_205_1614" cx="0" cy="0" r="1" gradientUnits="userSpaceOnUse" gradientTransform="translate(8.13286 47.9389) rotate(-8.26933) scale(39.2688 25.6449)">
<stop offset="0.133928" stop-color="#D59DFF"/>
<stop offset="1" stop-color="#5E438F"/>
</radialGradient>
<linearGradient id="paint3_linear_205_1614" x1="45.9902" y1="34.221" x2="39.6401" y2="43.4356" gradientUnits="userSpaceOnUse">
<stop stop-color="#493474"/>
<stop offset="1" stop-color="#8C66BA" stop-opacity="0"/>
</linearGradient>
<radialGradient id="paint4_radial_205_1614" cx="0" cy="0" r="1" gradientUnits="userSpaceOnUse" gradientTransform="translate(46.8745 35.6295) rotate(-165.934) scale(31.5049 52.4814)">
<stop offset="0.0584996" stop-color="#50E6FF"/>
<stop offset="1" stop-color="#436DCD"/>
</radialGradient>
<linearGradient id="paint5_linear_205_1614" x1="16.4141" y1="6.3202" x2="25.9155" y2="6.3202" gradientUnits="userSpaceOnUse">
<stop stop-color="#2D3F80"/>
<stop offset="1" stop-color="#436DCD" stop-opacity="0"/>
</linearGradient>
<linearGradient id="paint6_linear_205_1614" x1="234.417" y1="16.5987" x2="252.59" y2="48.2917" gradientUnits="userSpaceOnUse">
<stop stop-color="#058F92"/>
<stop offset="0.5" stop-color="#038489"/>
<stop offset="1" stop-color="#026D71"/>
</linearGradient>
<linearGradient id="paint7_linear_205_1614" x1="579.417" y1="16.5977" x2="597.78" y2="48.4012" gradientUnits="userSpaceOnUse">
<stop stop-color="#5A62C3"/>
<stop offset="0.5" stop-color="#4D55BD"/>
<stop offset="1" stop-color="#3940AB"/>
</linearGradient>
<linearGradient id="paint8_linear_205_1614" x1="734.869" y1="38.7668" x2="736.843" y2="40.7338" gradientUnits="userSpaceOnUse">
<stop stop-opacity="0.13"/>
<stop offset="0.994" stop-opacity="0"/>
</linearGradient>
<radialGradient id="paint9_radial_205_1614" cx="0" cy="0" r="1" gradientUnits="userSpaceOnUse" gradientTransform="translate(715.86 53.9152) rotate(45.0987) scale(5.57552 5.57549)">
<stop offset="0.5" stop-opacity="0.13"/>
<stop offset="0.994" stop-opacity="0"/>
</radialGradient>
<radialGradient id="paint10_radial_205_1614" cx="0" cy="0" r="1" gradientUnits="userSpaceOnUse" gradientTransform="translate(749.961 19.6965) rotate(-134.901) scale(5.57552 5.57549)">
<stop offset="0.5" stop-opacity="0.13"/>
<stop offset="0.994" stop-opacity="0"/>
</radialGradient>
<linearGradient id="paint11_linear_205_1614" x1="703.54" y1="45.438" x2="701.566" y2="47.405" gradientUnits="userSpaceOnUse">
<stop stop-opacity="0.13"/>
<stop offset="0.994" stop-opacity="0"/>
</linearGradient>
<radialGradient id="paint12_radial_205_1614" cx="0" cy="0" r="1" gradientUnits="userSpaceOnUse" gradientTransform="translate(695.108 33.0915) rotate(-45.0987) scale(5.57468 5.57464)">
<stop offset="0.5" stop-opacity="0.13"/>
<stop offset="0.994" stop-opacity="0"/>
</radialGradient>
<linearGradient id="paint13_linear_205_1614" x1="709.195" y1="51.1736" x2="749.338" y2="11.1687" gradientUnits="userSpaceOnUse">
<stop stop-color="#2987E6"/>
<stop offset="0.994" stop-color="#58C1F5"/>
</linearGradient>
<linearGradient id="paint14_linear_205_1614" x1="820.715" y1="16.7806" x2="840.584" y2="50.7446" gradientUnits="userSpaceOnUse">
<stop stop-color="#2368C4"/>
<stop offset="0.5" stop-color="#1A5DBE"/>
<stop offset="1" stop-color="#1146AC"/>
</linearGradient>
<linearGradient id="paint15_linear_205_1614" x1="1090.99" y1="24.6452" x2="1082.05" y2="61.2077" gradientUnits="userSpaceOnUse">
<stop stop-color="#9237E3"/>
<stop offset="1" stop-color="#48E6F3"/>
</linearGradient>
<linearGradient id="paint16_linear_205_1614" x1="1075.55" y1="55.5208" x2="1099.38" y2="50.1042" gradientUnits="userSpaceOnUse">
<stop stop-color="#51E6FF"/>
<stop offset="1" stop-color="#71D4FF" stop-opacity="0"/>
</linearGradient>
<linearGradient id="paint17_linear_205_1614" x1="1069.05" y1="34.3952" x2="1082.86" y2="14.8952" gradientUnits="userSpaceOnUse">
<stop stop-color="#6E06E9"/>
<stop offset="1" stop-color="#AB5ADD" stop-opacity="0"/>
</linearGradient>
<radialGradient id="paint18_radial_205_1614" cx="0" cy="0" r="1" gradientUnits="userSpaceOnUse" gradientTransform="translate(1053.34 22.2077) rotate(-9.73942) scale(36.8225 96.811)">
<stop stop-color="#6D05E8"/>
<stop offset="1" stop-color="#6D05E8" stop-opacity="0"/>
</radialGradient>
<linearGradient id="paint19_linear_205_1614" x1="2162.59" y1="5" x2="2162.59" y2="5505" gradientUnits="userSpaceOnUse">
<stop stop-color="#EBBB14"/>
<stop offset="1" stop-color="#B25400"/>
</linearGradient>
<linearGradient id="paint20_linear_205_1614" x1="2151.33" y1="18.707" x2="2151.33" y2="4148.07" gradientUnits="userSpaceOnUse">
<stop stop-color="#F9E583"/>
<stop offset="1" stop-color="#DE9800"/>
</linearGradient>
<linearGradient id="paint21_linear_205_1614" x1="2140.24" y1="32.5" x2="2140.24" y2="2782.5" gradientUnits="userSpaceOnUse">
<stop stop-color="#F9E68B"/>
<stop offset="1" stop-color="#F3CD32"/>
</linearGradient>
<clipPath id="clip0_205_1614">
<rect width="66" height="54" fill="white" transform="translate(689.528 5.5)"/>
</clipPath>
<clipPath id="clip1_205_1614">
<rect width="57" height="55" fill="white" transform="translate(815.528 5)"/>
</clipPath>
<clipPath id="clip2_205_1614">
<rect width="55" height="55" fill="white" transform="translate(1177.53 5)"/>
</clipPath>
</defs>
</svg>
