<svg width="65" height="65" viewBox="0 0 65 65" fill="none" xmlns="http://www.w3.org/2000/svg">
<g clip-path="url(#clip0_205_145)">
<g clip-path="url(#clip1_205_145)">
<path d="M52.3321 18.0668C55.8575 18.0668 58.7219 15.2024 58.7219 11.7871V8.15155C58.7219 4.62613 55.8575 1.76172 52.3321 1.76172H11.7897C10.3288 1.76172 8.92768 2.34207 7.89464 3.37511C6.86161 4.40815 6.28125 5.80926 6.28125 7.27019V57.7278C6.28125 59.1888 6.86161 60.5899 7.89464 61.6229C8.92768 62.6559 10.3288 63.2363 11.7897 63.2363H52.3321C55.8575 63.2363 58.7219 60.3719 58.7219 56.8465V53.2109C58.7177 52.1477 58.4437 51.1029 57.9254 50.1746C57.4071 49.2463 56.6617 48.4647 55.7588 47.9032C54.856 47.3417 53.8254 47.0186 52.7636 46.9642C51.7017 46.9098 50.6435 47.1259 49.688 47.5922V17.4058C50.4592 17.8465 51.3406 18.0668 52.3321 18.0668ZM49.688 8.15155C49.6068 7.75153 49.6155 7.33847 49.7135 6.94223C49.8115 6.54599 49.9963 6.17648 50.2546 5.86044C50.513 5.5444 50.8383 5.28972 51.2071 5.11484C51.5759 4.93995 51.979 4.84923 52.3872 4.84923C52.7954 4.84923 53.1984 4.93995 53.5672 5.11484C53.9361 5.28972 54.2614 5.5444 54.5197 5.86044C54.778 6.17648 54.9629 6.54599 55.0609 6.94223C55.1589 7.33847 55.1676 7.75153 55.0863 8.15155V11.7871C55.0863 12.5176 54.7962 13.2182 54.2796 13.7347C53.7631 14.2512 53.0626 14.5414 52.3321 14.5414C51.6016 14.5414 50.9011 14.2512 50.3846 13.7347C49.868 13.2182 49.5779 12.5176 49.5779 11.7871V8.15155H49.688ZM15.3151 21.7024H40.6541C41.6457 21.7024 42.4168 22.4736 42.4168 23.4651C42.4168 24.5668 41.6457 25.2278 40.6541 25.2278H15.3151C14.3236 25.2278 13.5524 24.4566 13.5524 23.4651C13.5524 22.4736 14.3236 21.7024 15.3151 21.7024ZM13.5524 14.321C13.5524 13.3295 14.3236 12.5583 15.3151 12.5583H40.6541C41.6457 12.5583 42.4168 13.3295 42.4168 14.321C42.4168 15.4227 41.6457 16.1939 40.6541 16.1939H15.3151C14.3236 16.1939 13.5524 15.3126 13.5524 14.321ZM15.3151 30.8465H40.6541C41.6457 30.8465 42.4168 31.6177 42.4168 32.6092C42.4168 33.6007 41.6457 34.3719 40.6541 34.3719H15.3151C14.3236 34.3719 13.5524 33.6007 13.5524 32.6092C13.5524 31.6177 14.3236 30.8465 15.3151 30.8465ZM15.3151 39.8804H40.6541C41.6457 39.8804 42.4168 40.6516 42.4168 41.6431C42.4168 42.6346 41.6457 43.4058 40.6541 43.4058H15.3151C14.3236 43.4058 13.5524 42.6346 13.5524 41.6431C13.5524 40.5414 14.3236 39.8804 15.3151 39.8804ZM15.3151 48.8041H40.6541C41.6457 48.8041 42.4168 49.6855 42.4168 50.677C42.4168 51.6685 41.6457 52.4397 40.6541 52.4397H15.3151C14.3236 52.4397 13.5524 51.6685 13.5524 50.677C13.5524 49.5753 14.3236 48.9143 15.3151 48.9143V48.8041ZM52.3321 50.677C53.8745 50.677 55.0863 51.7787 55.0863 53.321V56.9566C55.0863 57.6871 54.7962 58.3877 54.2796 58.9042C53.7631 59.4207 53.0626 59.7109 52.3321 59.7109C51.6016 59.7109 50.9011 59.4207 50.3846 58.9042C49.868 58.3877 49.5779 57.6871 49.5779 56.9566V53.321C49.5779 51.8888 50.8999 50.677 52.3321 50.677Z" fill="#272727"/>
</g>
</g>
<defs>
<clipPath id="clip0_205_145">
<rect width="65" height="65" fill="white"/>
</clipPath>
<clipPath id="clip1_205_145">
<rect width="65" height="65" fill="white"/>
</clipPath>
</defs>
</svg>
