<svg xmlns="http://www.w3.org/2000/svg" width="1233" height="65" fill="none"><mask id="a" width="51" height="55" x="0" y="5" maskUnits="userSpaceOnUse" style="mask-type:luminance"><path fill="#fff" d="M50.6 5H0v55h50.6V5Z"/></mask><g mask="url(#a)"><path fill="url(#b)" d="m20.346 6.281-.284.17c-.452.27-.878.573-1.275.903l.82-.57h6.958l1.265 9.465-6.325 6.25-6.325 4.344v5.01c0 3.498 1.85 6.743 4.88 8.554l6.658 3.983L12.65 52.5H9.937L4.88 49.473C1.85 47.663 0 44.418 0 40.92V24.075c0-3.5 1.852-6.745 4.882-8.557l15.18-9.073c.094-.056.19-.11.284-.164Z"/><path fill="url(#c)" d="m20.346 6.281-.284.17c-.452.27-.878.573-1.275.903l.82-.57h6.958l1.265 9.465-6.325 6.25-6.325 4.344v5.01c0 3.498 1.85 6.743 4.88 8.554l6.658 3.983L12.65 52.5H9.937L4.88 49.473C1.85 47.663 0 44.418 0 40.92V24.075c0-3.5 1.852-6.745 4.882-8.557l15.18-9.073c.094-.056.19-.11.284-.164Z"/><path fill="url(#d)" d="M35.42 26.25v5.6c0 3.5-1.852 6.743-4.88 8.555l-15.18 9.08a10.225 10.225 0 0 1-10.13.2l14.829 8.87a10.224 10.224 0 0 0 10.48 0l15.18-9.08c3.03-1.811 4.88-5.056 4.88-8.555v-4.045L49.334 35l-13.915-8.75Z"/><path fill="url(#e)" d="M35.42 26.25v5.6c0 3.5-1.852 6.743-4.88 8.555l-15.18 9.08a10.225 10.225 0 0 1-10.13.2l14.829 8.87a10.224 10.224 0 0 0 10.48 0l15.18-9.08c3.03-1.811 4.88-5.056 4.88-8.555v-4.045L49.334 35l-13.915-8.75Z"/><path fill="url(#f)" d="m45.717 15.519-15.18-9.074a10.225 10.225 0 0 0-10.174-.173l-.301.18c-3.03 1.812-4.882 5.057-4.882 8.557v11.855l4.882-2.919a10.224 10.224 0 0 1 10.475 0l15.18 9.074a9.98 9.98 0 0 1 4.877 8.229c.004-.11.006-.218.006-.328V24.075c0-3.5-1.852-6.745-4.883-8.556Z"/><path fill="url(#g)" d="m45.717 15.519-15.18-9.074a10.225 10.225 0 0 0-10.174-.173l-.301.18c-3.03 1.812-4.882 5.057-4.882 8.557v11.855l4.882-2.919a10.224 10.224 0 0 1 10.475 0l15.18 9.074a9.98 9.98 0 0 1 4.877 8.229c.004-.11.006-.218.006-.328V24.075c0-3.5-1.852-6.745-4.883-8.556Z"/></g><mask id="h" width="60" height="55" x="110" y="5" maskUnits="userSpaceOnUse" style="mask-type:luminance"><path fill="#fff" d="M169.529 5H110.6v55h58.929V5Z"/></mask><g mask="url(#h)"><path fill="#28A8EA" d="M165.789 5H152.71a3.53 3.53 0 0 0-1.431.304 3.737 3.737 0 0 0-1.213.868l-30.87 33.014a4.037 4.037 0 0 0-.812 1.297 4.261 4.261 0 0 0-.284 1.53v13.988c0 .525.097 1.045.284 1.53.189.485.464.926.811 1.298.348.371.76.666 1.213.867.454.2.94.304 1.432.304h13.079a3.53 3.53 0 0 0 1.431-.304 3.733 3.733 0 0 0 1.212-.868l30.871-33.014a4.14 4.14 0 0 0 1.095-2.828V9a4.24 4.24 0 0 0-.284-1.53 4.035 4.035 0 0 0-.811-1.298 3.727 3.727 0 0 0-1.213-.867A3.53 3.53 0 0 0 165.789 5Z"/><path fill="#0078D4" d="M165.794 60h-13.079a3.621 3.621 0 0 1-2.645-1.171l-6.251-6.686V39.65c0-1.896.704-3.715 1.958-5.056 1.254-1.34 2.954-2.094 4.727-2.094h11.682l6.252 6.686a4.145 4.145 0 0 1 1.095 2.828V56c0 1.06-.394 2.078-1.095 2.828a3.62 3.62 0 0 1-2.644 1.17Z"/><path fill="#50D9FF" d="M121.84 5h13.079c.991 0 1.942.421 2.643 1.171l6.252 6.686V25.35c0 1.896-.704 3.715-1.958 5.056-1.254 1.34-2.954 2.094-4.728 2.094h-11.681l-6.252-6.686a4.145 4.145 0 0 1-1.095-2.828V9c0-1.06.394-2.078 1.095-2.828A3.62 3.62 0 0 1 121.84 5Z"/><path fill="#000" d="M141.671 19.129v30.18c.003.155-.012.309-.042.46a2.704 2.704 0 0 1-.847 1.587 2.386 2.386 0 0 1-1.607.624H118.1V16.459h21.075c.328 0 .653.068.956.202.303.134.578.33.811.579.232.248.415.542.541.866.125.325.189.672.188 1.023Z" opacity=".2"/><path fill="#000" d="M142.743 19.128v27.89a3.992 3.992 0 0 1-1.055 2.687 3.49 3.49 0 0 1-2.513 1.128H118.1v-35.52h21.075a3.467 3.467 0 0 1 2.519 1.121 3.963 3.963 0 0 1 1.049 2.694Z" opacity=".1"/><path fill="#000" d="M141.671 19.129v27.89c.001.35-.063.698-.188 1.022a2.697 2.697 0 0 1-.541.867 2.504 2.504 0 0 1-.811.578 2.353 2.353 0 0 1-.956.202H118.1V16.46h21.075c.328 0 .653.068.956.202.303.134.578.33.811.579.232.248.415.542.541.866.125.325.189.672.188 1.023Z" opacity=".2"/><path fill="#000" d="M140.6 19.129v27.89c.001.35-.064.698-.189 1.022a2.68 2.68 0 0 1-.541.867 2.483 2.483 0 0 1-.811.578 2.351 2.351 0 0 1-.955.202H118.1V16.46h20.004c.327 0 .652.068.955.202.304.134.579.33.811.579.232.248.416.542.541.866.125.325.19.672.189 1.023Z" opacity=".1"/><path fill="#0078D4" d="M138.1 16.459h-25c-1.381 0-2.5 1.197-2.5 2.674v26.736c0 1.476 1.119 2.673 2.5 2.673h25c1.381 0 2.5-1.197 2.5-2.673V19.133c0-1.477-1.119-2.674-2.5-2.674Z"/><path fill="#fff" d="M130.514 26.635h-7.015v4.387h6.584v2.811h-6.584v4.557h7.389v2.8h-10.573V23.81h10.199v2.825Z"/></g><mask id="i" width="56" height="55" x="229" y="5" maskUnits="userSpaceOnUse" style="mask-type:luminance"><path fill="#fff" d="M284.529 5.19h-55v54.62h55V5.19Z"/></mask><g mask="url(#i)"><path fill="#036C70" d="M257.667 36.2c8.476 0 15.349-6.824 15.349-15.242 0-8.419-6.873-15.243-15.349-15.243-8.477 0-15.349 6.824-15.349 15.243 0 8.418 6.872 15.243 15.349 15.243Z"/><path fill="#1A9BA1" d="M270.458 48.903c7.77 0 14.069-6.256 14.069-13.973 0-7.717-6.299-13.973-14.069-13.973-7.771 0-14.07 6.256-14.07 13.973 0 7.717 6.299 13.973 14.07 13.973Z"/><path fill="#37C6D0" d="M259.589 59.065c6.004 0 10.872-4.834 10.872-10.797 0-5.963-4.868-10.797-10.872-10.797-6.005 0-10.873 4.834-10.873 10.797 0 5.963 4.868 10.797 10.873 10.797Z"/><path fill="#000" d="M260.227 19.471v27.107a2.338 2.338 0 0 1-1.458 2.147c-.279.117-.58.178-.883.178h-9.158c-.012-.216-.012-.42-.012-.635a5.183 5.183 0 0 1 .025-.636 10.766 10.766 0 0 1 6.51-9.26V36.01c-8.362-1.316-14.067-9.116-12.742-17.42l.029-.173c.063-.429.153-.853.268-1.27h15.08a2.342 2.342 0 0 1 2.341 2.324Z" opacity=".1"/><path fill="#000" d="M256.608 18.418h-14.07c-1.422 8.29 4.193 16.155 12.541 17.566.253.043.507.08.761.11-3.965 1.867-6.854 7.17-7.1 11.54-.021.21-.03.423-.026.635 0 .216 0 .419.013.635.023.427.079.851.166 1.27h7.713a2.355 2.355 0 0 0 2.341-2.324V20.742a2.341 2.341 0 0 0-2.339-2.324Z" opacity=".2"/><path fill="#000" d="M256.608 18.418h-14.07c-1.421 8.29 4.194 16.156 12.543 17.567.17.029.342.055.514.078-3.838 2.002-6.613 7.292-6.854 11.57h7.867a2.351 2.351 0 0 0 2.341-2.324V20.743a2.342 2.342 0 0 0-2.341-2.325Z" opacity=".2"/><path fill="#000" d="M255.328 18.418h-12.791c-1.342 7.827 3.597 15.364 11.346 17.316a20.915 20.915 0 0 0-5.142 11.9h6.587a2.342 2.342 0 0 0 2.34-2.325V20.743a2.333 2.333 0 0 0-2.34-2.325Z" opacity=".2"/><path fill="url(#j)" d="M231.873 18.418h23.451a2.336 2.336 0 0 1 2.344 2.328v23.289a2.336 2.336 0 0 1-2.344 2.328h-23.451a2.336 2.336 0 0 1-2.344-2.328V20.746a2.336 2.336 0 0 1 2.344-2.328Z"/><path fill="#fff" d="M240 32.105a4.303 4.303 0 0 1-1.342-1.41 3.814 3.814 0 0 1-.467-1.926 3.69 3.69 0 0 1 .868-2.496 5.133 5.133 0 0 1 2.31-1.497 9.82 9.82 0 0 1 3.156-.485 12.09 12.09 0 0 1 4.157.578v2.922a6.517 6.517 0 0 0-1.88-.762 9.215 9.215 0 0 0-2.199-.262 4.783 4.783 0 0 0-2.26.475 1.471 1.471 0 0 0-.896 1.349c-.002.356.136.698.384.955.293.303.64.55 1.023.727.426.21 1.066.49 1.919.84.094.03.186.067.274.11a15.89 15.89 0 0 1 2.42 1.185 4.318 4.318 0 0 1 1.43 1.43c.365.66.541 1.407.511 2.16a3.997 3.997 0 0 1-.813 2.599 4.552 4.552 0 0 1-2.175 1.453 9.92 9.92 0 0 1-3.1.447 16.51 16.51 0 0 1-2.814-.229 9.692 9.692 0 0 1-2.281-.665v-3.08a7.376 7.376 0 0 0 2.303 1.092c.823.255 1.678.39 2.54.404a4.399 4.399 0 0 0 2.302-.485c.497-.279.799-.805.786-1.371a1.459 1.459 0 0 0-.435-1.05 4.38 4.38 0 0 0-1.199-.829 40.83 40.83 0 0 0-2.26-1.005A12.86 12.86 0 0 1 240 32.105Z"/></g><mask id="k" width="56" height="35" x="344" y="15" maskUnits="userSpaceOnUse" style="mask-type:luminance"><path fill="#fff" d="M399.529 15h-55v35h55V15Z"/></mask><g mask="url(#k)"><path fill="#0364B8" d="M365.506 24.72v-.002l11.546 6.87 6.88-2.876a11.195 11.195 0 0 1 5.183-.88 17.054 17.054 0 0 0-5.027-8.336 17.235 17.235 0 0 0-8.791-4.263 17.296 17.296 0 0 0-9.709 1.193 17.16 17.16 0 0 0-7.481 6.261c.059 0 .117-.004.175-.004a13.755 13.755 0 0 1 7.224 2.037Z"/><path fill="#0078D4" d="m365.503 24.718-.001.002a13.753 13.753 0 0 0-7.223-2.036c-.059 0-.117.003-.176.004-2.497.03-4.939.737-7.063 2.043a13.689 13.689 0 0 0-4.991 5.368 13.569 13.569 0 0 0-1.489 7.156 13.596 13.596 0 0 0 2.439 6.894l10.182-4.256 4.527-1.892 10.077-4.213 5.263-2.2-11.545-6.87Z"/><path fill="#1490DF" d="M389.108 27.833a11.194 11.194 0 0 0-5.183.88l-.001-.002-6.88 2.876 1.996 1.188 6.539 3.89 2.854 1.698 9.756 5.805a11.038 11.038 0 0 0-.056-10.628 11.13 11.13 0 0 0-3.78-3.996 11.223 11.223 0 0 0-5.245-1.711Z"/><path fill="#28A8EA" d="m388.438 38.364-2.852-1.698-6.54-3.891-1.995-1.187-5.263 2.2L361.71 38l-4.526 1.892-10.183 4.256a13.712 13.712 0 0 0 4.917 4.302 13.801 13.801 0 0 0 6.363 1.55h30.078c2.017 0 3.996-.542 5.728-1.569a11.127 11.127 0 0 0 4.108-4.263l-9.757-5.805Z"/></g><path fill="#0364B8" d="M499.573 40.619c6.306-3.44 14.025 1.383 14.859 8.29.075.623.101 1.257.096 1.885-.009 1.074-.812 1.874-1.831 1.871-1.041-.003-1.87-.834-1.816-1.939.159-3.3-1.982-6.295-5.032-7.276-1.639-.526-3.177-.386-4.515.426.28 1.04.634 2.067.823 3.125.21 1.178.314 2.381.383 3.577.064 1.103-.698 1.925-1.708 1.974-1.054.05-1.894-.692-1.924-1.829-.055-2.144-.42-4.215-1.338-6.162-1.646-3.49-4.184-6.035-8.009-6.957-4.17-1.007-7.733.283-10.642 3.356-2.319 2.45-3.469 5.435-3.688 8.79-.023.343-.02.687-.051 1.03-.098 1.094-.892 1.821-1.926 1.774-.991-.046-1.723-.85-1.723-1.917 0-2.078.346-4.1 1.041-6.06.076-.216.148-.432.235-.686-1.313-.738-2.677-.95-4.134-.57-3.291.86-5.504 3.77-5.46 7.232.013.893-.283 1.578-1.106 1.956-1.162.533-2.477-.301-2.559-1.596-.333-5.378 3.658-10.418 8.95-11.3 2.1-.35 3.553-.108 6.011 1.006 3.011-4.382 7.133-6.941 12.503-6.955 5.377-.018 9.502 2.533 12.561 6.955Z"/><path fill="#28A8EA" d="M486.81 12.326a9.068 9.068 0 0 1 9.045 9.143c-.026 4.98-4.121 8.99-9.157 8.97-4.925-.022-8.962-4.106-8.946-9.054.013-5.027 4.065-9.08 9.058-9.059Zm-5.394 9.029c-.02 2.96 2.352 5.387 5.292 5.415 3.023.029 5.468-2.36 5.48-5.353.013-2.949-2.377-5.393-5.302-5.422a5.386 5.386 0 0 0-5.47 5.36Z"/><path fill="#0078D4" d="M476.635 28.786c.011 3.87-3.091 6.974-6.979 6.982-3.786.008-6.921-3.127-6.924-6.925-.004-3.892 3.081-7 6.953-7.007 3.839-.005 6.938 3.095 6.95 6.95Zm-3.666-.014a3.274 3.274 0 0 0-3.284-3.267c-1.842.003-3.294 1.469-3.287 3.322a3.284 3.284 0 0 0 3.285 3.272 3.282 3.282 0 0 0 3.286-3.327Z"/><path fill="#1490DF" d="M503.808 35.768c-3.816-.066-6.927-3.232-6.872-6.993.058-3.968 3.226-7.017 7.209-6.938 3.757.075 6.783 3.283 6.721 7.13-.059 3.775-3.268 6.867-7.058 6.801Zm3.395-6.96c.005-1.81-1.46-3.293-3.261-3.303a3.305 3.305 0 0 0-3.338 3.287c-.014 1.814 1.499 3.32 3.323 3.307a3.305 3.305 0 0 0 3.276-3.292Z"/><mask id="l" width="56" height="53" x="574" y="6" maskUnits="userSpaceOnUse" style="mask-type:luminance"><path fill="#fff" d="M629.529 6.918h-55v51.163h55V6.918Z"/></mask><g mask="url(#l)"><path fill="#5059C9" d="M612.889 26.104h14.207a2.43 2.43 0 0 1 2.43 2.43v12.94a8.932 8.932 0 0 1-8.932 8.932h-.042a8.931 8.931 0 0 1-8.933-8.93V27.373c0-.702.568-1.27 1.27-1.27ZM622.492 23.545a5.756 5.756 0 1 0 0-11.512 5.756 5.756 0 0 0 0 11.512Z"/><path fill="#7B83EB" d="M604.589 23.546a8.314 8.314 0 1 0 0-16.629 8.314 8.314 0 0 0 0 16.629ZM615.672 26.104h-23.451a2.404 2.404 0 0 0-2.344 2.46v14.758c-.186 7.959 6.111 14.563 14.07 14.758 7.958-.194 14.255-6.799 14.069-14.758V28.563a2.404 2.404 0 0 0-2.344-2.46Z"/><path fill="#000" d="M605.226 26.104v20.682a2.356 2.356 0 0 1-2.341 2.34h-11.882c-.167-.421-.32-.843-.448-1.278a15.612 15.612 0 0 1-.678-4.528V28.56a2.4 2.4 0 0 1 2.341-2.456h13.008Z" opacity=".1"/><path fill="#000" d="M603.947 26.104v21.961c0 .303-.061.603-.179.883a2.354 2.354 0 0 1-2.162 1.458h-10.002a16.349 16.349 0 0 1-.601-1.28c-.179-.434-.32-.843-.448-1.278a15.612 15.612 0 0 1-.678-4.528V28.56a2.4 2.4 0 0 1 2.341-2.456h11.729Z" opacity=".2"/><path fill="#000" d="M603.947 26.104v19.403a2.359 2.359 0 0 1-2.341 2.34h-11.051a15.612 15.612 0 0 1-.678-4.527V28.56a2.4 2.4 0 0 1 2.341-2.456h11.729Z" opacity=".2"/><path fill="#000" d="M602.668 26.104v19.403a2.359 2.359 0 0 1-2.341 2.34h-9.772a15.612 15.612 0 0 1-.678-4.527V28.56a2.4 2.4 0 0 1 2.341-2.456h10.45Z" opacity=".2"/><path fill="#000" d="M605.224 19.491v4.03c-.217.012-.421.025-.639.025-.217 0-.422-.013-.639-.026a7.033 7.033 0 0 1-1.28-.204 8.311 8.311 0 0 1-5.755-4.887 7.087 7.087 0 0 1-.41-1.279h6.383a2.348 2.348 0 0 1 2.34 2.341Z" opacity=".1"/><path fill="#000" d="M603.943 20.77v2.75a7.033 7.033 0 0 1-1.28-.204 8.311 8.311 0 0 1-5.755-4.886h4.694a2.35 2.35 0 0 1 2.341 2.34Z" opacity=".2"/><path fill="#000" d="M603.943 20.77v2.75a7.033 7.033 0 0 1-1.28-.204 8.311 8.311 0 0 1-5.755-4.886h4.694a2.35 2.35 0 0 1 2.341 2.34Z" opacity=".2"/><path fill="#000" d="M602.663 20.77v2.546a8.311 8.311 0 0 1-5.755-4.886h3.415a2.349 2.349 0 0 1 2.34 2.34Z" opacity=".2"/><path fill="url(#m)" d="M576.873 18.43h23.451a2.344 2.344 0 0 1 2.344 2.344v23.45a2.344 2.344 0 0 1-2.344 2.345h-23.451a2.344 2.344 0 0 1-2.344-2.344v-23.45a2.344 2.344 0 0 1 2.344-2.345Z"/><path fill="#fff" d="M594.768 27.355h-4.688V40.12h-2.987V27.355h-4.666V24.88h12.341v2.476Z"/></g><g clip-path="url(#n)"><path fill="url(#o)" d="m753.899 23.645-1.968-1.975-34.102 34.22 1.968 1.974 34.102-34.22Z"/><path fill="url(#p)" d="M715.86 59.5c3.074 0 5.566-2.5 5.566-5.585 0-3.084-2.492-5.585-5.566-5.585s-5.566 2.5-5.566 5.585 2.492 5.585 5.566 5.585Z"/><path fill="url(#q)" d="M749.961 25.282c3.074 0 5.566-2.501 5.566-5.586 0-3.084-2.492-5.585-5.566-5.585s-5.565 2.5-5.565 5.585 2.491 5.586 5.565 5.586Z"/><path fill="url(#r)" d="m711.924 57.863 1.968-1.974-20.767-20.839-1.968 1.975 20.767 20.838Z"/><path fill="url(#s)" d="M695.094 38.662c3.074 0 5.566-2.5 5.566-5.585 0-3.084-2.492-5.585-5.566-5.585s-5.566 2.5-5.566 5.585 2.492 5.585 5.566 5.585Z"/><path fill="#195ABD" d="m700.556 19.695-9.4 9.432a2.8 2.8 0 0 0 0 3.95l22.735 22.812a2.775 2.775 0 0 0 3.935 0l9.4-9.432a2.8 2.8 0 0 0 0-3.949l-22.735-22.813a2.775 2.775 0 0 0-3.935 0Z"/><path fill="url(#t)" d="M753.899 15.746 744.5 6.314a2.777 2.777 0 0 0-3.936 0l-36.069 36.194a2.8 2.8 0 0 0 0 3.95l9.399 9.431a2.777 2.777 0 0 0 3.936 0l36.069-36.193a2.8 2.8 0 0 0 0-3.95Z"/></g><g clip-path="url(#u)"><path fill="#2B7CD3" d="M846.512 18.75h23.533c1.371 0 2.483 1.127 2.483 2.516v22.468c0 1.39-1.112 2.516-2.483 2.516h-23.533c-1.372 0-2.484-1.126-2.484-2.516V21.266c0-1.39 1.112-2.516 2.484-2.516Z"/><path fill="#41A5EE" d="M858.956 18.75a2.48 2.48 0 0 1-.732 1.774l-10.125 10.258-.963.976a4.648 4.648 0 0 1-.394.344c-.406.26-.877.398-1.357.398a2.42 2.42 0 0 1-1.751-.742l-11.088-11.234a2.518 2.518 0 0 1-.325-3.149c.097-.142.206-.276.325-.399l11.088-11.234a2.436 2.436 0 0 1 3.476-.026l.026.026 11.088 11.234a2.48 2.48 0 0 1 .732 1.774Z"/><path fill="#103F91" d="M858.957 46.25c0 7.594-6.077 13.75-13.572 13.75-4.848 0-9.328-2.62-11.752-6.875a9.88 9.88 0 0 1-.679-1.375c-.2-.447-.372-.906-.516-1.375-2.248-7.244 1.725-14.963 8.875-17.242a13.409 13.409 0 0 1 5.43-.564c.456.04.909.108 1.357.206 6.315 1.315 10.849 6.943 10.857 13.475Z"/><path fill="#000" d="M848.1 19.891v29.343a2.533 2.533 0 0 1-1.547 2.324 2.38 2.38 0 0 1-.937.192h-12.662c-.2-.447-.372-.906-.516-1.375-2.248-7.244 1.725-14.963 8.875-17.242a13.412 13.412 0 0 1 4.072-.633 2.417 2.417 0 0 1-1.75-.742l-11.088-11.234a2.518 2.518 0 0 1-.326-3.149h13.395a2.482 2.482 0 0 1 2.199 1.375c.19.35.289.742.285 1.141Z" opacity=".1"/><path fill="#000" d="M846.743 21.266V50.61c0 .326-.065.649-.19.949a2.5 2.5 0 0 1-2.294 1.568h-10.626c-.262-.44-.488-.9-.679-1.376-.2-.447-.372-.906-.516-1.375-2.248-7.244 1.725-14.963 8.875-17.242a13.412 13.412 0 0 1 4.072-.633 2.417 2.417 0 0 1-1.75-.742l-11.088-11.234a2.482 2.482 0 0 1-.733-1.774h12.445a2.402 2.402 0 0 1 1.805.811c.434.46.677 1.07.679 1.705Z" opacity=".2"/><path fill="#000" d="M846.743 21.266V47.86c-.011 1.386-1.117 2.506-2.484 2.516h-11.821c-2.248-7.244 1.725-14.963 8.875-17.241a13.409 13.409 0 0 1 4.072-.634 2.417 2.417 0 0 1-1.75-.742l-11.088-11.234a2.482 2.482 0 0 1-.733-1.774h12.445a2.402 2.402 0 0 1 1.805.811c.434.46.677 1.07.679 1.705Z" opacity=".2"/><path fill="#000" d="M845.385 21.266V32.5a2.419 2.419 0 0 1-1.751-.742l-11.088-11.234a2.486 2.486 0 0 1-.733-1.774h11.088c1.37.005 2.479 1.129 2.484 2.516Z" opacity=".2"/><path fill="#000" d="M845.385 32.5v15.359c-.01 1.385-1.116 2.506-2.483 2.516h-10.464c-2.248-7.244 1.725-14.963 8.875-17.242a13.409 13.409 0 0 1 4.072-.633Z" opacity=".2"/><path fill="url(#v)" d="M818.016 18.75h24.882c1.374 0 2.487 1.128 2.487 2.52v25.21c0 1.392-1.113 2.52-2.487 2.52h-24.882c-1.374 0-2.488-1.128-2.488-2.52V21.27c0-1.392 1.114-2.52 2.488-2.52Z"/><path fill="#fff" d="M829.64 36.526c.457 1.364.728 2.225.814 2.583h.056c.082-.358.376-1.28.881-2.766l3.619-10.661h3.328l-6.141 16.386h-3.564l-6.05-16.386h3.423l3.634 10.844Z"/></g><path fill="#BC1948" d="M945.657 31.875V56.25a3.256 3.256 0 0 0 1.732 2.775 3.254 3.254 0 0 0 3.268-.137l39.55-24.863a2.496 2.496 0 0 0 1.25-2.15h-45.8Z"/><path fill="#E8467C" d="M945.657 31.875V7.498a3.256 3.256 0 0 1 1.732-2.774 3.254 3.254 0 0 1 3.268.137l39.55 24.863a2.496 2.496 0 0 1 1.25 2.15h-45.8Z"/><path fill="#8C193F" d="m938.017 16.388 20.762 13.975a1.841 1.841 0 0 1 0 3.025l-20.762 13.975a1.741 1.741 0 0 1-2.452-.608 1.732 1.732 0 0 1-.223-.904V17.9a1.732 1.732 0 0 1 .881-1.563 1.738 1.738 0 0 1 1.794.05Z"/><path fill="url(#w)" d="M1085.03 5.416a27.067 27.067 0 0 0-19.15 7.932 27.087 27.087 0 0 0-7.94 19.151v27.084h27.09a27.077 27.077 0 0 0 27.08-27.083 27.077 27.077 0 0 0-27.08-27.084Zm0 17.604a9.497 9.497 0 0 1 6.7 2.776c.88.88 1.58 1.926 2.05 3.076a9.42 9.42 0 0 1 .73 3.627 9.42 9.42 0 0 1-.73 3.628 9.369 9.369 0 0 1-2.05 3.075 9.497 9.497 0 0 1-6.7 2.776h-9.48V32.5c0-2.514 1-4.925 2.77-6.702a9.49 9.49 0 0 1 6.71-2.777Z"/><path fill="url(#x)" d="M1112.11 32.5a27.077 27.077 0 0 1-27.08 27.083h-27.09a17.614 17.614 0 0 1 17.61-17.604h9.48a9.484 9.484 0 0 0 9.48-9.479h17.6Z"/><path fill="url(#y)" d="M1085.03 5.416a27.065 27.065 0 0 0-19.15 7.933 27.087 27.087 0 0 0-7.94 19.15v27.084c4.66 0 9.13-1.848 12.43-5.137 3.3-3.29 5.16-7.754 5.18-12.413l.05-.055h-.05V32.5a9.43 9.43 0 0 1 1.6-5.297 9.451 9.451 0 0 1 4.28-3.502 9.483 9.483 0 0 1 10.37 2.137l12.46-12.404a27.068 27.068 0 0 0-8.81-5.938 27.064 27.064 0 0 0-10.42-2.079Z"/><path fill="url(#z)" d="M1085.03 5.416a27.065 27.065 0 0 0-19.15 7.933 27.087 27.087 0 0 0-7.94 19.15v27.084c4.66 0 9.13-1.848 12.43-5.137 3.3-3.29 5.16-7.754 5.18-12.413l.05-.055h-.05V32.5a9.43 9.43 0 0 1 1.6-5.297 9.451 9.451 0 0 1 4.28-3.502 9.483 9.483 0 0 1 10.37 2.137l12.46-12.404a27.068 27.068 0 0 0-8.81-5.938 27.064 27.064 0 0 0-10.42-2.079Z"/><g clip-path="url(#A)"><path fill="url(#B)" d="M1223.49 5h-14.58a2.266 2.266 0 0 0-2.27 2.27v50.46c0 1.254 1.01 2.27 2.27 2.27h14.58c1.25 0 2.27-1.016 2.27-2.27V7.27c0-1.254-1.02-2.27-2.27-2.27Z"/><g filter="url(#C)"><path fill="#000" d="M1214.5 57.73V60h-16.85a2.272 2.272 0 0 1-2.27-2.27V20.978c0-1.254 1.02-2.27 2.27-2.27h14.58c1.25 0 2.27 1.016 2.27 2.27V57.73Z"/></g><path fill="url(#D)" d="M1214.5 57.73V60h-16.85a2.272 2.272 0 0 1-2.27-2.27V20.978c0-1.254 1.02-2.27 2.27-2.27h14.58c1.25 0 2.27 1.016 2.27 2.27V57.73Z"/><path fill="url(#E)" fill-rule="evenodd" d="M1203.41 57.73V60h-16.85a2.272 2.272 0 0 1-2.27-2.27V34.77c0-1.254 1.02-2.27 2.27-2.27h14.58c1.25 0 2.27 1.016 2.27 2.27v22.96Z" clip-rule="evenodd"/></g><defs><linearGradient id="c" x1="17.093" x2="11.177" y1="49.834" y2="39.481" gradientUnits="userSpaceOnUse"><stop stop-color="#114A8B"/><stop offset="1" stop-color="#0078D4" stop-opacity="0"/></linearGradient><linearGradient id="e" x1="45.99" x2="39.64" y1="34.221" y2="43.436" gradientUnits="userSpaceOnUse"><stop stop-color="#493474"/><stop offset="1" stop-color="#8C66BA" stop-opacity="0"/></linearGradient><linearGradient id="g" x1="16.414" x2="25.916" y1="6.32" y2="6.32" gradientUnits="userSpaceOnUse"><stop stop-color="#2D3F80"/><stop offset="1" stop-color="#436DCD" stop-opacity="0"/></linearGradient><linearGradient id="j" x1="234.417" x2="252.59" y1="16.599" y2="48.292" gradientUnits="userSpaceOnUse"><stop stop-color="#058F92"/><stop offset=".5" stop-color="#038489"/><stop offset="1" stop-color="#026D71"/></linearGradient><linearGradient id="m" x1="579.417" x2="597.78" y1="16.598" y2="48.401" gradientUnits="userSpaceOnUse"><stop stop-color="#5A62C3"/><stop offset=".5" stop-color="#4D55BD"/><stop offset="1" stop-color="#3940AB"/></linearGradient><linearGradient id="o" x1="734.869" x2="736.843" y1="38.767" y2="40.734" gradientUnits="userSpaceOnUse"><stop stop-opacity=".13"/><stop offset=".994" stop-opacity="0"/></linearGradient><linearGradient id="r" x1="703.54" x2="701.566" y1="45.438" y2="47.405" gradientUnits="userSpaceOnUse"><stop stop-opacity=".13"/><stop offset=".994" stop-opacity="0"/></linearGradient><linearGradient id="t" x1="709.195" x2="749.338" y1="51.174" y2="11.169" gradientUnits="userSpaceOnUse"><stop stop-color="#2987E6"/><stop offset=".994" stop-color="#58C1F5"/></linearGradient><linearGradient id="v" x1="820.715" x2="840.584" y1="16.781" y2="50.745" gradientUnits="userSpaceOnUse"><stop stop-color="#2368C4"/><stop offset=".5" stop-color="#1A5DBE"/><stop offset="1" stop-color="#1146AC"/></linearGradient><linearGradient id="w" x1="1090.99" x2="1082.05" y1="24.645" y2="61.208" gradientUnits="userSpaceOnUse"><stop stop-color="#9237E3"/><stop offset="1" stop-color="#48E6F3"/></linearGradient><linearGradient id="x" x1="1075.55" x2="1099.38" y1="55.521" y2="50.104" gradientUnits="userSpaceOnUse"><stop stop-color="#51E6FF"/><stop offset="1" stop-color="#71D4FF" stop-opacity="0"/></linearGradient><linearGradient id="y" x1="1069.05" x2="1082.86" y1="34.395" y2="14.895" gradientUnits="userSpaceOnUse"><stop stop-color="#6E06E9"/><stop offset="1" stop-color="#AB5ADD" stop-opacity="0"/></linearGradient><linearGradient id="B" x1="2162.59" x2="2162.59" y1="5" y2="5505" gradientUnits="userSpaceOnUse"><stop stop-color="#EBBB14"/><stop offset="1" stop-color="#B25400"/></linearGradient><linearGradient id="D" x1="2151.33" x2="2151.33" y1="18.707" y2="4148.07" gradientUnits="userSpaceOnUse"><stop stop-color="#F9E583"/><stop offset="1" stop-color="#DE9800"/></linearGradient><linearGradient id="E" x1="2140.24" x2="2140.24" y1="32.5" y2="2782.5" gradientUnits="userSpaceOnUse"><stop stop-color="#F9E68B"/><stop offset="1" stop-color="#F3CD32"/></linearGradient><radialGradient id="b" cx="0" cy="0" r="1" gradientTransform="matrix(-14.80043 39.05889 -68.74014 -26.04743 16.974 15.797)" gradientUnits="userSpaceOnUse"><stop offset=".064" stop-color="#AE7FE2"/><stop offset="1" stop-color="#0078D4"/></radialGradient><radialGradient id="d" cx="0" cy="0" r="1" gradientTransform="rotate(-8.269 335.644 -32.283) scale(39.2688 25.6449)" gradientUnits="userSpaceOnUse"><stop offset=".134" stop-color="#D59DFF"/><stop offset="1" stop-color="#5E438F"/></radialGradient><radialGradient id="f" cx="0" cy="0" r="1" gradientTransform="rotate(-165.934 25.635 14.923) scale(31.5049 52.4814)" gradientUnits="userSpaceOnUse"><stop offset=".058" stop-color="#50E6FF"/><stop offset="1" stop-color="#436DCD"/></radialGradient><radialGradient id="p" cx="0" cy="0" r="1" gradientTransform="matrix(3.9357 3.94927 -3.94925 3.93567 715.86 53.915)" gradientUnits="userSpaceOnUse"><stop offset=".5" stop-opacity=".13"/><stop offset=".994" stop-opacity="0"/></radialGradient><radialGradient id="q" cx="0" cy="0" r="1" gradientTransform="rotate(-134.901 379.07 -145.853) scale(5.57552 5.57549)" gradientUnits="userSpaceOnUse"><stop offset=".5" stop-opacity=".13"/><stop offset=".994" stop-opacity="0"/></radialGradient><radialGradient id="s" cx="0" cy="0" r="1" gradientTransform="matrix(3.9351 -3.94868 3.94865 3.93507 695.108 33.092)" gradientUnits="userSpaceOnUse"><stop offset=".5" stop-opacity=".13"/><stop offset=".994" stop-opacity="0"/></radialGradient><radialGradient id="z" cx="0" cy="0" r="1" gradientTransform="matrix(36.29179 -6.22917 16.37728 95.4157 1053.34 22.208)" gradientUnits="userSpaceOnUse"><stop stop-color="#6D05E8"/><stop offset="1" stop-color="#6D05E8" stop-opacity="0"/></radialGradient><clipPath id="n"><path fill="#fff" d="M689.528 5.5h66v54h-66z"/></clipPath><clipPath id="u"><path fill="#fff" d="M815.528 5h57v55h-57z"/></clipPath><clipPath id="A"><path fill="#fff" d="M1177.53 5h55v55h-55z"/></clipPath><filter id="C" width="50.317" height="72.49" x="1195.38" y="10.908" color-interpolation-filters="sRGB" filterUnits="userSpaceOnUse"><feFlood flood-opacity="0" result="BackgroundImageFix"/><feColorMatrix in="SourceAlpha" result="hardAlpha" values="0 0 0 0 0 0 0 0 0 0 0 0 0 0 0 0 0 0 127 0"/><feOffset dx="15.599" dy="7.799"/><feGaussianBlur stdDeviation="7.799"/><feColorMatrix values="0 0 0 0 0 0 0 0 0 0 0 0 0 0 0 0 0 0 0.0530212 0"/><feBlend in2="BackgroundImageFix" result="effect1_dropShadow_205_1614"/><feBlend in="SourceGraphic" in2="effect1_dropShadow_205_1614" result="shape"/></filter></defs></svg>