<svg width="65" height="65" viewBox="0 0 65 65" fill="none" xmlns="http://www.w3.org/2000/svg">
<path d="M32.5 0C26.0721 0 19.7886 1.90609 14.444 5.47724C9.09938 9.04838 4.93378 14.1242 2.47393 20.0628C0.014082 26.0014 -0.629527 32.536 0.624493 38.8404C1.87851 45.1448 4.97384 50.9357 9.51904 55.481C14.0642 60.0262 19.8552 63.1215 26.1596 64.3755C32.464 65.6295 38.9986 64.9859 44.9372 62.5261C50.8758 60.0662 55.9516 55.9006 59.5228 50.556C63.0939 45.2114 65 38.9279 65 32.5C65 23.8805 61.5759 15.614 55.481 9.51903C49.386 3.4241 41.1195 0 32.5 0ZM32.5 61.3383C26.7963 61.3383 21.2207 59.647 16.4783 56.4782C11.7359 53.3094 8.03957 48.8055 5.85687 43.5359C3.67416 38.2664 3.10307 32.468 4.2158 26.8739C5.32853 21.2798 8.07512 16.1413 12.1082 12.1082C16.1413 8.0751 21.2798 5.32852 26.8739 4.21579C32.468 3.10305 38.2664 3.67415 43.536 5.85685C48.8055 8.03956 53.3094 11.7358 56.4782 16.4783C59.647 21.2207 61.3383 26.7963 61.3383 32.5C61.3297 40.1457 58.2887 47.4759 52.8823 52.8823C47.4759 58.2886 40.1458 61.3297 32.5 61.3383Z" fill="#272727"/>
<path d="M32.4995 7.25781C27.5072 7.25781 22.6269 8.73821 18.476 11.5118C14.325 14.2854 11.0897 18.2276 9.17923 22.8399C7.26875 27.4522 6.76888 32.5275 7.74284 37.4239C8.71679 42.3203 11.1208 46.8179 14.6509 50.348C18.181 53.8781 22.6787 56.2822 27.5751 57.2561C32.4715 58.2301 37.5467 57.7302 42.159 55.8197C46.7714 53.9092 50.7136 50.674 53.4872 46.523C56.2607 42.372 57.7411 37.4918 57.7411 32.4995C57.7297 25.8085 55.0666 19.3948 50.3354 14.6636C45.6041 9.93233 39.1905 7.26927 32.4995 7.25781ZM32.4995 30.8311C34.8259 30.8213 37.0686 31.6986 38.7708 33.2844C40.473 34.8702 41.5067 37.0452 41.6614 39.3665C41.8161 41.6878 41.08 43.9808 39.6033 45.7784C38.1265 47.576 36.02 48.7431 33.7128 49.042V50.6561C33.6776 51.1104 33.4723 51.5346 33.1379 51.8441C32.8035 52.1535 32.3647 52.3254 31.9091 52.3254C31.4535 52.3254 31.0146 52.1535 30.6802 51.8441C30.3459 51.5346 30.1405 51.1104 30.1053 50.6561V48.8036C28.1683 48.2769 26.4578 47.1288 25.2366 45.5357C24.0154 43.9426 23.3509 41.9926 23.3453 39.9853C23.326 39.7367 23.3584 39.4868 23.4403 39.2512C23.5222 39.0157 23.6519 38.7996 23.8213 38.6166C23.9906 38.4336 24.196 38.2875 24.4245 38.1877C24.653 38.0878 24.8997 38.0362 25.1491 38.0362C25.3984 38.0362 25.6451 38.0878 25.8736 38.1877C26.1021 38.2875 26.3075 38.4336 26.4769 38.6166C26.6463 38.7996 26.776 39.0157 26.8579 39.2512C26.9398 39.4868 26.9721 39.7367 26.9528 39.9853C26.9528 41.0823 27.2781 42.1547 27.8876 43.0669C28.4971 43.979 29.3633 44.6899 30.3769 45.1098C31.3904 45.5296 32.5056 45.6394 33.5816 45.4254C34.6575 45.2114 35.6459 44.6831 36.4216 43.9074C37.1973 43.1317 37.7256 42.1434 37.9396 41.0674C38.1536 39.9915 38.0437 38.8762 37.6239 37.8627C37.2041 36.8492 36.4932 35.9829 35.581 35.3734C34.6689 34.7639 33.5965 34.4386 32.4995 34.4386C30.2806 34.443 28.1357 33.6403 26.4649 32.1802C24.7941 30.7201 23.7112 28.7022 23.4182 26.5027C23.1252 24.3032 23.642 22.0722 24.8724 20.2256C26.1027 18.379 27.9626 17.0428 30.1053 16.4661V14.2995C30.1405 13.8452 30.3459 13.421 30.6802 13.1116C31.0146 12.8021 31.4535 12.6302 31.9091 12.6302C32.3647 12.6302 32.8035 12.8021 33.1379 13.1116C33.4723 13.421 33.6776 13.8452 33.7128 14.2995V16.2495C35.9071 16.5452 37.9202 17.6253 39.3799 19.2902C40.8396 20.955 41.6473 23.092 41.6536 25.3061C41.6729 25.5548 41.6406 25.8047 41.5587 26.0402C41.4768 26.2758 41.3471 26.4918 41.1777 26.6749C41.0083 26.8579 40.8029 27.0039 40.5744 27.1038C40.3459 27.2036 40.0993 27.2552 39.8499 27.2552C39.6005 27.2552 39.3538 27.2036 39.1253 27.1038C38.8968 27.0039 38.6915 26.8579 38.5221 26.6749C38.3527 26.4918 38.223 26.2758 38.1411 26.0402C38.0592 25.8047 38.0269 25.5548 38.0461 25.3061C38.0504 24.2082 37.7288 23.1337 37.1219 22.2187C36.5151 21.3037 35.6503 20.5894 34.6372 20.1663C33.624 19.7431 32.5081 19.6302 31.4307 19.8418C30.3534 20.0533 29.363 20.5799 28.5851 21.3547C27.8072 22.1296 27.2768 23.1178 27.061 24.1944C26.8453 25.2709 26.9538 26.3873 27.373 27.4021C27.7922 28.4168 28.5031 29.2844 29.4157 29.8948C30.3283 30.5053 31.4015 30.8311 32.4995 30.8311Z" fill="#272727"/>
</svg>
