<svg width="55" height="65" viewBox="0 0 55 65" fill="none" xmlns="http://www.w3.org/2000/svg">
<path d="M27.1545 11.4121C22.5388 11.4121 18.1652 11.7989 14.5063 12.531C13.2184 12.7887 12.2037 13.0554 11.4292 13.2931V35.9754C11.4292 41.1564 14.5419 45.9637 19.5525 48.5212L27.1545 52.4014L34.7564 48.5212C39.767 45.9636 42.8797 41.1564 42.8797 35.9754V13.2931C42.1051 13.0554 41.0904 12.7886 39.8026 12.531C36.1437 11.799 31.7699 11.4121 27.1545 11.4121ZM38.1231 24.8539L25.5286 38.4168C25.1701 38.8028 24.6678 39.0231 24.1411 39.0255H24.1327C23.609 39.0255 23.1084 38.8098 22.7485 38.4291L16.1973 31.4985C15.4746 30.7339 15.5085 29.5283 16.2731 28.8056C17.0376 28.0829 18.2434 28.117 18.9658 28.8815L24.1204 34.3346L35.3315 22.2616C36.0476 21.4908 37.2525 21.4459 38.0236 22.1619C38.7944 22.8777 38.839 24.0831 38.1231 24.8539Z" fill="#272727"/>
<path d="M45.5293 2.15811C35.852 -0.71937 18.4568 -0.71937 8.77937 2.15811C2.9538 3.81394 0 6.13774 0 9.065V35.976C0 45.4737 5.50111 54.1816 14.3565 58.7016L26.2885 64.7918C26.8324 65.0694 27.4765 65.0694 28.0205 64.7918L39.9524 58.7016C48.8077 54.1816 54.3089 45.4736 54.3089 35.976V9.065C54.3088 6.13774 51.3549 3.81394 45.5293 2.15811ZM46.6894 35.976C46.6894 42.5959 42.7806 48.7034 36.4883 51.9151L28.0204 56.2373C27.4765 56.5149 26.8324 56.5149 26.2883 56.2373L17.8203 51.9151C11.5281 48.7034 7.61931 42.5959 7.61931 35.976V11.9344C7.61931 11.1471 8.10353 10.4411 8.83791 10.1574C9.76202 9.80041 11.3659 9.27454 13.7589 8.79578C21.4455 7.21208 32.8631 7.21208 40.5498 8.79578C42.9428 9.27454 44.5467 9.80041 45.4708 10.1574C46.205 10.4409 46.6894 11.1471 46.6894 11.9344V35.976Z" fill="#272727"/>
</svg>
