<svg width="65" height="65" viewBox="0 0 65 65" fill="none" xmlns="http://www.w3.org/2000/svg">
<g id="Layer 15">
<path id="Vector" d="M32.5 0C26.0721 0 19.7886 1.90609 14.444 5.47724C9.09938 9.04838 4.93378 14.1242 2.47393 20.0628C0.014082 26.0014 -0.629527 32.536 0.624493 38.8404C1.87851 45.1448 4.97384 50.9357 9.51904 55.481C14.0642 60.0262 19.8552 63.1215 26.1596 64.3755C32.464 65.6295 38.9986 64.9859 44.9372 62.5261C50.8758 60.0662 55.9516 55.9006 59.5228 50.556C63.0939 45.2114 65 38.9279 65 32.5C65 23.8805 61.5759 15.614 55.481 9.51903C49.386 3.4241 41.1195 0 32.5 0ZM32.5 61.3383C26.7963 61.3383 21.2207 59.647 16.4783 56.4782C11.7359 53.3094 8.03957 48.8055 5.85687 43.5359C3.67416 38.2664 3.10307 32.468 4.2158 26.8739C5.32853 21.2798 8.07512 16.1413 12.1082 12.1082C16.1413 8.0751 21.2798 5.32852 26.8739 4.21579C32.468 3.10305 38.2664 3.67415 43.536 5.85685C48.8055 8.03956 53.3094 11.7358 56.4782 16.4783C59.647 21.2207 61.3383 26.7963 61.3383 32.5C61.3297 40.1457 58.2887 47.4759 52.8823 52.8823C47.4759 58.2886 40.1458 61.3297 32.5 61.3383Z" fill="#272727"/>
<path id="Vector_2" d="M32.4992 7.2583C27.5068 7.2583 22.6266 8.7387 18.4757 11.5123C14.3247 14.2859 11.0894 18.2281 9.17893 22.8404C7.26844 27.4527 6.76858 32.528 7.74253 37.4244C8.71649 42.3208 11.1205 46.8184 14.6506 50.3485C18.1807 53.8786 22.6784 56.2827 27.5748 57.2566C32.4712 58.2306 37.5464 57.7307 42.1587 55.8202C46.7711 53.9097 50.7133 50.6744 53.4869 46.5235C56.2604 42.3725 57.7408 37.4923 57.7408 32.5C57.7294 25.809 55.0663 19.3953 50.3351 14.6641C45.6038 9.93282 39.1902 7.26976 32.4992 7.2583ZM32.4992 30.8316C34.8256 30.8217 37.0683 31.6991 38.7705 33.2849C40.4727 34.8707 41.5064 37.0457 41.6611 39.367C41.8158 41.6883 41.0797 43.9813 39.603 45.7789C38.1262 47.5765 36.0197 48.7436 33.7125 49.0425V50.6566C33.6773 51.1109 33.472 51.5351 33.1376 51.8445C32.8032 52.154 32.3644 52.3259 31.9088 52.3259C31.4532 52.3259 31.0143 52.154 30.6799 51.8445C30.3456 51.5351 30.1402 51.1109 30.105 50.6566V48.8041C28.168 48.2774 26.4575 47.1293 25.2363 45.5362C24.015 43.9431 23.3506 41.9931 23.345 39.9858C23.3257 39.7372 23.3581 39.4872 23.44 39.2517C23.5219 39.0162 23.6516 38.8001 23.821 38.6171C23.9903 38.4341 24.1957 38.288 24.4242 38.1882C24.6527 38.0883 24.8994 38.0367 25.1488 38.0367C25.3981 38.0367 25.6448 38.0883 25.8733 38.1882C26.1018 38.288 26.3072 38.4341 26.4766 38.6171C26.646 38.8001 26.7757 39.0162 26.8576 39.2517C26.9395 39.4872 26.9718 39.7372 26.9525 39.9858C26.9525 41.0828 27.2778 42.1552 27.8873 43.0674C28.4968 43.9795 29.363 44.6904 30.3766 45.1102C31.3901 45.5301 32.5053 45.6399 33.5813 45.4259C34.6572 45.2119 35.6455 44.6836 36.4213 43.9079C37.197 43.1322 37.7252 42.1438 37.9393 41.0679C38.1533 39.9919 38.0434 38.8767 37.6236 37.8632C37.2038 36.8497 36.4929 35.9834 35.5807 35.3739C34.6686 34.7644 33.5962 34.4391 32.4992 34.4391C30.2802 34.4435 28.1354 33.6408 26.4646 32.1807C24.7937 30.7206 23.7109 28.7027 23.4179 26.5032C23.1249 24.3036 23.6417 22.0726 24.8721 20.226C26.1024 18.3794 27.9623 17.0433 30.105 16.4666V14.3C30.1402 13.8457 30.3456 13.4215 30.6799 13.112C31.0143 12.8026 31.4532 12.6307 31.9088 12.6307C32.3644 12.6307 32.8032 12.8026 33.1376 13.112C33.472 13.4215 33.6773 13.8457 33.7125 14.3V16.25C35.9068 16.5457 37.9199 17.6258 39.3796 19.2907C40.8393 20.9555 41.647 23.0925 41.6533 25.3066C41.6726 25.5553 41.6403 25.8052 41.5584 26.0407C41.4765 26.2763 41.3468 26.4923 41.1774 26.6753C41.008 26.8584 40.8026 27.0044 40.5741 27.1043C40.3456 27.2041 40.099 27.2557 39.8496 27.2557C39.6002 27.2557 39.3535 27.2041 39.125 27.1043C38.8965 27.0044 38.6912 26.8584 38.5218 26.6753C38.3524 26.4923 38.2227 26.2763 38.1408 26.0407C38.0589 25.8052 38.0266 25.5553 38.0458 25.3066C38.0501 24.2087 37.7285 23.1342 37.1216 22.2192C36.5148 21.3042 35.65 20.5899 34.6369 20.1668C33.6237 19.7436 32.5078 19.6307 31.4304 19.8422C30.3531 20.0538 29.3627 20.5804 28.5848 21.3552C27.8069 22.1301 27.2765 23.1183 27.0607 24.1949C26.8449 25.2714 26.9535 26.3878 27.3727 27.4025C27.7919 28.4173 28.5028 29.2849 29.4154 29.8953C30.328 30.5058 31.4012 30.8316 32.4992 30.8316Z" fill="#272727"/>
</g>
</svg>
