<svg width="60" height="60" viewBox="0 0 60 60" fill="none" xmlns="http://www.w3.org/2000/svg">
<rect width="60" height="60" rx="30" fill="#272727"/>
<path d="M27.4993 38.8438H23.5026V30.3917C23.5026 27.9347 22.1594 26.0673 19.6041 26.0673C17.1471 26.0673 15.4764 28.1312 15.4764 30.5882V38.8438H11.5124V22.6603H15.0833L15.3453 24.8552C16.9833 23.25 18.6213 22.431 20.6525 22.431C24.4526 22.431 27.4993 25.2811 27.4993 30.3589V38.8438ZM38.7636 26.0346C36.2083 26.0346 34.1772 27.8364 34.1772 30.752C34.1772 33.5694 36.2083 35.5022 38.7636 35.5022C41.2861 35.5022 43.4483 33.6677 43.4483 30.752C43.4483 27.9347 41.2861 26.0346 38.7636 26.0346ZM43.7104 15.9445H47.7071V38.8438H43.9725L43.7104 36.6161C42.4655 38.5489 40.4671 39.2041 38.5015 39.2041C33.7513 39.2041 30.1805 36.0591 30.1805 30.752C30.1805 25.1828 33.6858 22.2999 38.4033 22.2999C40.1068 22.2999 42.7603 23.2172 43.7104 24.888V15.9445Z" fill="#7BADD5"/>
<path d="M11.874 43.0954V43.0901H12.2776L12.2992 43.5152C12.5252 43.2085 12.8266 43.0524 13.2087 43.0524C13.5532 43.0524 13.833 43.1654 14.0483 43.3861C14.2636 43.6067 14.3766 43.9081 14.3766 44.2849V45.7542H13.9353V44.2902C13.9353 44.0319 13.8599 43.8328 13.72 43.6821C13.5747 43.5368 13.3756 43.4614 13.128 43.4614C12.8858 43.4668 12.6867 43.5529 12.536 43.7144C12.3853 43.8812 12.3099 44.0857 12.3099 44.3279V45.7542H11.874V43.0954ZM17.5326 45.329H17.5272C17.3981 45.4851 17.2258 45.6035 17.0213 45.6842C16.8114 45.7649 16.5961 45.8026 16.3809 45.8026C15.9611 45.8026 15.6274 45.6788 15.369 45.4258C15.1107 45.1729 14.9815 44.8338 14.9815 44.414C14.9815 44.0158 15.1107 43.6821 15.369 43.4237C15.6274 43.1654 15.9557 43.0362 16.3593 43.0362C16.7899 43.0362 17.129 43.1708 17.3819 43.4399C17.6349 43.709 17.7371 44.0911 17.6887 44.597H15.4283C15.4498 44.8392 15.552 45.033 15.735 45.1783C15.9126 45.3236 16.1333 45.3936 16.3916 45.3936C16.5477 45.3936 16.7038 45.3666 16.8652 45.3074C17.0267 45.2482 17.1505 45.1675 17.2366 45.0599L17.5326 45.329ZM17.2689 44.2257V44.231C17.2581 43.9781 17.172 43.7843 17.0106 43.6444C16.8491 43.5045 16.6338 43.4345 16.3701 43.4345C16.1279 43.4345 15.918 43.5045 15.7458 43.6444C15.5682 43.7843 15.4605 43.9781 15.4283 44.2257H17.2689ZM19.029 42.3204V43.1008H19.8524V43.4776H19.0236V44.8823C19.0236 45.2267 19.1635 45.3936 19.4434 45.3936C19.5618 45.3936 19.6856 45.3613 19.8147 45.2967L19.9439 45.6627C19.7609 45.7488 19.5887 45.7918 19.4272 45.7918C18.8675 45.8026 18.5877 45.5012 18.5877 44.8823V43.4776H18.0548V43.1008H18.5877V42.3689L19.029 42.3204ZM23.0303 41.9868L23.0357 41.9814V45.7488H22.6213L22.5997 45.2644C22.4921 45.442 22.3522 45.5765 22.1745 45.668C21.9969 45.7595 21.8086 45.8026 21.6041 45.8026C21.2112 45.8026 20.8882 45.6842 20.6353 45.4366C20.3823 45.189 20.2586 44.8554 20.2586 44.4248C20.2586 43.9942 20.3823 43.6552 20.6353 43.413C20.8829 43.1708 21.2058 43.047 21.5987 43.047C21.7978 43.047 21.9916 43.0954 22.1799 43.1869C22.3629 43.2784 22.5028 43.4076 22.5943 43.5798V41.9868H23.0303ZM21.631 43.456H21.6363C21.3672 43.456 21.1412 43.5421 20.9636 43.7144C20.786 43.8866 20.6999 44.118 20.6999 44.4194C20.6999 44.7208 20.786 44.9522 20.9636 45.1245C21.1412 45.2967 21.3672 45.3828 21.6363 45.3828C21.9054 45.3828 22.1261 45.2967 22.3091 45.1137C22.4867 44.9361 22.5782 44.7047 22.5782 44.414C22.5782 44.1342 22.4867 43.9081 22.3037 43.7251C22.1207 43.5475 21.9001 43.456 21.631 43.456ZM23.6694 44.4302C23.6694 44.0211 23.7985 43.6875 24.0569 43.4291C24.3152 43.1708 24.6489 43.0362 25.0471 43.0362C25.4508 43.0362 25.7845 43.1654 26.0428 43.4237C26.3012 43.6821 26.4303 44.0211 26.4303 44.4302C26.4303 44.8338 26.2958 45.1621 26.0374 45.4205C25.7791 45.6788 25.4454 45.8026 25.0471 45.8026C24.6489 45.8026 24.3152 45.6788 24.0569 45.4205C23.7985 45.1621 23.6694 44.8338 23.6694 44.4302ZM25.9944 44.4302C25.9944 44.1396 25.9029 43.9027 25.7253 43.7198C25.5423 43.5368 25.3216 43.4399 25.0525 43.4399C24.778 43.4399 24.552 43.5314 24.3744 43.7144C24.1968 43.8974 24.1107 44.1396 24.1107 44.4302C24.1107 44.71 24.1968 44.9415 24.3744 45.1191C24.5466 45.3021 24.7727 45.3882 25.0471 45.3882C25.3162 45.3882 25.5423 45.3021 25.7199 45.1191C25.8975 44.9415 25.989 44.71 25.9944 44.4302ZM29.2808 45.3989L29.2754 45.3936C29.0009 45.668 28.6726 45.8026 28.2851 45.8026C27.8869 45.8026 27.5586 45.6842 27.2948 45.4366C27.0257 45.189 26.8966 44.8554 26.8966 44.4248C26.8966 43.9942 27.0257 43.6606 27.2895 43.413C27.5478 43.1708 27.8815 43.047 28.2851 43.047C28.6565 43.047 28.9794 43.1816 29.2485 43.4453L28.9686 43.7359C28.7857 43.5583 28.5596 43.4668 28.2959 43.4668C28.0214 43.4668 27.7954 43.5583 27.6124 43.7305C27.4294 43.9027 27.3433 44.1342 27.3433 44.4248C27.3433 44.7262 27.4294 44.9576 27.6124 45.1298C27.7954 45.3021 28.0214 45.3828 28.2905 45.3828C28.5704 45.3828 28.8018 45.2913 28.9848 45.1029L29.2808 45.3989ZM31.8998 45.7542H31.9052L31.8837 45.329C31.6576 45.6357 31.3455 45.7918 30.958 45.7972C30.6135 45.7972 30.3337 45.6896 30.1184 45.4689C29.9031 45.2482 29.8008 44.9469 29.8008 44.5647V43.0954H30.2422V44.5593C30.2422 44.8177 30.3121 45.0222 30.4574 45.1675C30.5974 45.3182 30.7965 45.3882 31.0495 45.3882C31.2863 45.3882 31.4854 45.3021 31.6361 45.1352C31.7868 44.9738 31.8675 44.7692 31.8675 44.5217V43.0954H32.3089V45.7542H31.8998ZM33.1182 43.0954L33.1236 43.1008H33.5326L33.5595 43.4883C33.6348 43.343 33.7425 43.2354 33.8824 43.16C34.0223 43.0901 34.1784 43.0524 34.3453 43.0524C34.5444 43.0524 34.7274 43.1008 34.8888 43.1923C35.0503 43.2892 35.1633 43.4345 35.2387 43.6336C35.3302 43.4399 35.4593 43.2946 35.6262 43.1977C35.7876 43.1008 35.9706 43.0524 36.1751 43.0524C36.5196 43.0524 36.7941 43.16 36.9932 43.3699C37.1923 43.5852 37.2946 43.8705 37.2946 44.2364V45.7542H36.8533V44.2364C36.8533 44.0158 36.7887 43.8328 36.6649 43.6875C36.5411 43.5421 36.3743 43.4668 36.1644 43.4668C35.9491 43.4668 35.7715 43.5421 35.6369 43.6928C35.5024 43.8435 35.4378 44.0265 35.4378 44.2472V45.7542H34.9965V44.2472C34.9965 44.0265 34.9265 43.8435 34.7974 43.6928C34.6682 43.5421 34.496 43.4668 34.2807 43.4668C34.0654 43.4668 33.8878 43.5421 33.7586 43.6928C33.6241 43.8435 33.5595 44.0265 33.5595 44.2472V45.7542H33.1182V43.0954ZM40.4534 45.329H40.448C40.3189 45.4851 40.1466 45.6035 39.9421 45.6842C39.7322 45.7649 39.5169 45.8026 39.3017 45.8026C38.8819 45.8026 38.5482 45.6788 38.2899 45.4258C38.0315 45.1729 37.9023 44.8338 37.9023 44.414C37.9023 44.0158 38.0315 43.6821 38.2899 43.4237C38.5482 43.1654 38.8765 43.0362 39.2801 43.0362C39.7107 43.0362 40.0498 43.1708 40.3027 43.4399C40.5557 43.709 40.6579 44.0911 40.6095 44.597H38.3491C38.3706 44.8392 38.4728 45.033 38.6558 45.1783C38.8334 45.3236 39.0541 45.3936 39.3124 45.3936C39.4685 45.3936 39.6246 45.3666 39.786 45.3074C39.9475 45.2482 40.0713 45.1675 40.1574 45.0599L40.4534 45.329ZM40.1897 44.2257V44.231C40.1789 43.9781 40.0928 43.7843 39.9314 43.6444C39.7699 43.5045 39.5546 43.4345 39.2909 43.4345C39.0487 43.4345 38.8388 43.5045 38.6666 43.6444C38.489 43.7843 38.3813 43.9781 38.3491 44.2257H40.1897ZM41.2227 43.0954V43.0901H41.6264L41.6479 43.5152C41.8739 43.2085 42.1753 43.0524 42.5574 43.0524C42.9019 43.0524 43.1818 43.1654 43.397 43.3861C43.6123 43.6067 43.7253 43.9081 43.7253 44.2849V45.7542H43.284V44.2902C43.284 44.0319 43.2087 43.8328 43.0687 43.6821C42.9234 43.5368 42.7243 43.4614 42.4767 43.4614C42.2345 43.4668 42.0354 43.5529 41.8847 43.7144C41.734 43.8812 41.6586 44.0857 41.6586 44.3279V45.7542H41.2227V43.0954ZM45.1769 42.3204V43.1008H46.0003V43.4776H45.1715V44.8823C45.1715 45.2267 45.3114 45.3936 45.5913 45.3936C45.7097 45.3936 45.8335 45.3613 45.9627 45.2967L46.0918 45.6627C45.9088 45.7488 45.7366 45.7918 45.5751 45.7918C45.0154 45.8026 44.7356 45.5012 44.7356 44.8823V43.4776H44.2027V43.1008H44.7356V42.3689L45.1769 42.3204ZM48.2794 43.6821L48.274 43.6875C48.0803 43.5152 47.8327 43.4291 47.5259 43.4291C47.3322 43.4291 47.1707 43.4614 47.0469 43.526C46.9231 43.596 46.8639 43.6928 46.8693 43.8166C46.8693 44.0319 47.09 44.1611 47.5313 44.2095C47.6551 44.2257 47.7573 44.2418 47.8381 44.2526C47.9188 44.2687 48.0157 44.2956 48.1341 44.3333C48.2471 44.371 48.3386 44.414 48.4032 44.4679C48.4678 44.5217 48.527 44.597 48.5808 44.6939C48.6292 44.7908 48.6507 44.8984 48.6507 45.0222C48.6454 45.2805 48.5377 45.4743 48.3278 45.6142C48.1125 45.7542 47.8488 45.8187 47.5367 45.8187C47.0092 45.8187 46.611 45.6519 46.3473 45.3182L46.6002 45.0114C46.8209 45.2859 47.1384 45.4205 47.5474 45.4205C47.7197 45.4205 47.8757 45.3882 48.0103 45.3236C48.1448 45.259 48.2148 45.1567 48.2202 45.0061C48.2202 44.8769 48.161 44.78 48.0372 44.7154C47.9134 44.6562 47.7358 44.6132 47.5044 44.5809C47.3537 44.5647 47.2245 44.5432 47.1169 44.5109C47.0092 44.484 46.8962 44.4409 46.7886 44.3871C46.6756 44.3333 46.5894 44.2633 46.5302 44.1665C46.471 44.0696 46.4441 43.9566 46.4441 43.8166C46.4441 43.639 46.4979 43.4883 46.611 43.3645C46.7186 43.2461 46.8532 43.16 47.0092 43.1062C47.1653 43.0578 47.3375 43.0362 47.5205 43.0362C47.9296 43.0362 48.2686 43.1546 48.5323 43.3915L48.2794 43.6821Z" fill="#7BADD5"/>
</svg>
