<svg width="54" height="54" viewBox="0 0 54 54" fill="none" xmlns="http://www.w3.org/2000/svg">
<g id="cpu_780477 1" clip-path="url(#clip0_1394_202)">
<g id="Group">
<g id="Group_2">
<path id="Vector" d="M30.7969 22.1484H23.2031C22.6206 22.1484 22.1484 22.6207 22.1484 23.2031V30.7969C22.1484 31.3793 22.6206 31.8516 23.2031 31.8516H30.7969C31.3794 31.8516 31.8516 31.3793 31.8516 30.7969V23.2031C31.8516 22.6207 31.3794 22.1484 30.7969 22.1484ZM29.7422 29.7422H24.2578V24.2578H29.7422V29.7422Z" fill="black"/>
</g>
</g>
<g id="Group_3">
<g id="Group_4">
<path id="Vector_2" d="M50.4141 5.69531C48.4367 5.69531 46.8281 7.30392 46.8281 9.28125C46.8281 11.2586 48.4367 12.8672 50.4141 12.8672C52.3914 12.8672 54 11.2586 54 9.28125C54 7.30392 52.3914 5.69531 50.4141 5.69531ZM50.4141 10.7578C49.5998 10.7578 48.9375 10.0955 48.9375 9.28125C48.9375 8.46703 49.5998 7.80469 50.4141 7.80469C51.2283 7.80469 51.8906 8.46703 51.8906 9.28125C51.8906 10.0955 51.2283 10.7578 50.4141 10.7578Z" fill="black"/>
</g>
</g>
<g id="Group_5">
<g id="Group_6">
<path id="Vector_3" d="M44.9918 8.53241C44.7956 8.33635 44.5235 8.22339 44.2461 8.22339C43.9677 8.22339 43.6955 8.33624 43.4994 8.53241C43.3032 8.72858 43.1914 9.00069 43.1914 9.27808C43.1914 9.55546 43.3032 9.82757 43.4994 10.0237C43.6966 10.2198 43.9677 10.3328 44.2461 10.3328C44.5235 10.3328 44.7956 10.2199 44.9918 10.0237C45.1879 9.82757 45.3008 9.55546 45.3008 9.27808C45.3008 9.00069 45.1879 8.72858 44.9918 8.53241Z" fill="black"/>
</g>
</g>
<g id="Group_7">
<g id="Group_8">
<path id="Vector_4" d="M43.8262 28.0547C44.2777 29.5189 45.6433 30.5859 47.2536 30.5859C49.2309 30.5859 50.8395 28.9773 50.8395 27C50.8395 25.0227 49.2308 23.4141 47.2536 23.4141C45.6432 23.4141 44.2776 24.4811 43.8262 25.9453H37.3363V17.7188C37.3363 17.1364 36.8641 16.6641 36.2816 16.6641H34.5941V10.3328H40.5027C41.0852 10.3328 41.5573 9.86048 41.5573 9.27809C41.5573 8.69569 41.0852 8.2234 40.5027 8.2234H33.5394C32.9569 8.2234 32.4847 8.69569 32.4847 9.27809V16.6641H28.055V10.1743C29.5191 9.72274 30.5863 8.35724 30.5863 6.74684C30.5863 4.76951 28.9777 3.1609 27.0003 3.1609C25.023 3.1609 23.4144 4.76951 23.4144 6.74684C23.4144 8.35724 24.4815 9.72285 25.9457 10.1743V16.6641H17.7191C17.1366 16.6641 16.6644 17.1364 16.6644 17.7188V19.4062H10.333V7.0143C11.7988 6.56385 12.8675 5.1975 12.8675 3.58594C12.8675 1.60861 11.2589 0 9.28159 0C7.30426 0 5.69565 1.60861 5.69565 3.58594C5.69565 5.19518 6.7612 6.55995 8.22363 7.01241V20.4609C8.22363 21.0433 8.69582 21.5156 9.27832 21.5156H16.6644V25.9453H10.1745C9.72298 24.4811 8.35737 23.4141 6.74707 23.4141C4.76974 23.4141 3.16113 25.0227 3.16113 27C3.16113 28.9773 4.76974 30.5859 6.74707 30.5859C8.35747 30.5859 9.72308 29.5189 10.1745 28.0547H16.6644V36.2812C16.6644 36.8636 17.1366 37.3359 17.7191 37.3359H19.4066V43.6672H13.498C12.9155 43.6672 12.4433 44.1395 12.4433 44.7219C12.4433 45.3043 12.9155 45.7766 13.498 45.7766H20.4613C21.0438 45.7766 21.516 45.3043 21.516 44.7219V37.3359H25.9457V43.8257C24.4815 44.2773 23.4144 45.6428 23.4144 47.2532C23.4144 49.2305 25.023 50.8391 27.0003 50.8391C28.9777 50.8391 30.5863 49.2305 30.5863 47.2532C30.5863 45.6428 29.5191 44.2772 28.055 43.8257V37.3359H36.2816C36.8641 37.3359 37.3363 36.8636 37.3363 36.2812V34.5938H43.6677V46.9857C42.2019 47.4361 41.1332 48.8025 41.1332 50.4141C41.1332 52.3914 42.7418 54 44.7191 54C46.6964 54 48.305 52.3914 48.305 50.4141C48.305 48.8048 47.2395 47.4401 45.777 46.9876V33.5391C45.777 32.9567 45.3049 32.4844 44.7224 32.4844H37.3363V28.0547H43.8262ZM47.2536 25.5234C48.0678 25.5234 48.7302 26.1858 48.7302 27C48.7302 27.8142 48.0677 28.4766 47.2536 28.4766C46.4394 28.4766 45.777 27.8142 45.777 27C45.777 26.1858 46.4394 25.5234 47.2536 25.5234ZM9.28159 5.0625C8.46737 5.0625 7.80503 4.40016 7.80503 3.58594C7.80503 2.77172 8.46737 2.10938 9.28159 2.10938C10.0958 2.10938 10.7582 2.77172 10.7582 3.58594C10.7582 4.40016 10.0958 5.0625 9.28159 5.0625ZM6.74707 28.4766C5.93285 28.4766 5.27051 27.8142 5.27051 27C5.27051 26.1858 5.93285 25.5234 6.74707 25.5234C7.56129 25.5234 8.22363 26.1858 8.22363 27C8.22363 27.8142 7.56129 28.4766 6.74707 28.4766ZM25.5238 6.74684C25.5238 5.93262 26.1861 5.27027 27.0003 5.27027C27.8146 5.27027 28.4769 5.93262 28.4769 6.74684C28.4769 7.56105 27.8146 8.2234 27.0003 8.2234C26.1861 8.2234 25.5238 7.56105 25.5238 6.74684ZM28.4769 47.2532C28.4769 48.0674 27.8146 48.7297 27.0003 48.7297C26.1861 48.7297 25.5238 48.0674 25.5238 47.2532C25.5238 46.4389 26.1861 45.7766 27.0003 45.7766C27.8146 45.7766 28.4769 46.4389 28.4769 47.2532ZM35.2269 35.2266H18.7738V18.7734H35.2269V35.2266ZM44.7191 48.9375C45.5333 48.9375 46.1956 49.5998 46.1956 50.4141C46.1956 51.2283 45.5333 51.8906 44.7191 51.8906C43.9049 51.8906 43.2425 51.2283 43.2425 50.4141C43.2425 49.5998 43.9049 48.9375 44.7191 48.9375Z" fill="black"/>
</g>
</g>
<g id="Group_9">
<g id="Group_10">
<path id="Vector_5" d="M3.58594 41.1328C1.60861 41.1328 0 42.7414 0 44.7188C0 46.6961 1.60861 48.3047 3.58594 48.3047C5.56327 48.3047 7.17188 46.6961 7.17188 44.7188C7.17188 42.7414 5.56327 41.1328 3.58594 41.1328ZM3.58594 46.1953C2.77172 46.1953 2.10938 45.533 2.10938 44.7188C2.10938 43.9045 2.77172 43.2422 3.58594 43.2422C4.40016 43.2422 5.0625 43.9045 5.0625 44.7188C5.0625 45.533 4.40016 46.1953 3.58594 46.1953Z" fill="black"/>
</g>
</g>
<g id="Group_11">
<g id="Group_12">
<path id="Vector_6" d="M10.5015 43.9763C10.3054 43.7801 10.0332 43.6672 9.75586 43.6672C9.47848 43.6672 9.20637 43.78 9.0102 43.9763C8.81402 44.1723 8.70117 44.4444 8.70117 44.7219C8.70117 44.9993 8.81402 45.2714 9.0102 45.4675C9.20637 45.6637 9.47848 45.7766 9.75586 45.7766C10.0332 45.7766 10.3054 45.6638 10.5015 45.4675C10.6977 45.2714 10.8105 44.9993 10.8105 44.7219C10.8105 44.4444 10.6977 44.1723 10.5015 43.9763Z" fill="black"/>
</g>
</g>
</g>
<defs>
<clipPath id="clip0_1394_202">
<rect width="54" height="54" fill="white"/>
</clipPath>
</defs>
</svg>
