<svg width="108" height="18" viewBox="0 0 108 18" fill="none" xmlns="http://www.w3.org/2000/svg">
<g clip-path="url(#clip0_1396_442)">
<g clip-path="url(#clip1_1396_442)">
<g clip-path="url(#clip2_1396_442)">
<path d="M18.7483 6.89787H11.5856L9.3807 0.0874023L7.16272 6.89787L0 6.88482L5.79281 11.099L3.57484 17.9094L9.36765 13.6953L15.1604 17.9094L12.9556 11.099L18.7483 6.89787Z" fill="#FFB905"/>
<path d="M13.4514 12.6383L12.9557 11.0988L9.38086 13.6952L13.4514 12.6383Z" fill="#BB8700"/>
<path d="M41.0608 6.89787H33.8981L31.6932 0.0874023L29.4752 6.89787L22.3125 6.88482L28.1053 11.099L25.8873 17.9094L31.6801 13.6953L37.473 17.9094L35.268 11.099L41.0608 6.89787Z" fill="#FFB905"/>
<path d="M35.764 12.6383L35.2683 11.0988L31.6934 13.6952L35.764 12.6383Z" fill="#BB8700"/>
<path d="M63.3744 6.89787H56.2117L54.0067 0.0874023L51.7887 6.89787L44.626 6.88482L50.4188 11.099L48.2009 17.9094L53.9937 13.6953L59.7864 17.9094L57.5816 11.099L63.3744 6.89787Z" fill="#FFB905"/>
<path d="M58.0775 12.6383L57.5817 11.0988L54.0068 13.6952L58.0775 12.6383Z" fill="#BB8700"/>
<path d="M85.6869 6.89787H78.5241L76.3192 0.0874023L74.1013 6.89787L66.9385 6.88482L72.7314 11.099L70.5134 17.9094L76.3062 13.6953L82.0989 17.9094L79.8941 11.099L85.6869 6.89787Z" fill="#FFB905"/>
<path d="M80.3899 12.6383L79.8941 11.0988L76.3193 13.6952L80.3899 12.6383Z" fill="#BB8700"/>
<path d="M108 6.89787H100.838L98.6326 0.0874023L96.4147 6.89787L89.252 6.88482L95.0447 11.099L92.8267 17.9094L98.6195 13.6953L104.412 17.9094L102.207 11.099L108 6.89787Z" fill="#FFB905"/>
<path d="M102.703 12.6383L102.208 11.0988L98.6328 13.6952L102.703 12.6383Z" fill="#BB8700"/>
</g>
</g>
</g>
<defs>
<clipPath id="clip0_1396_442">
<rect width="108" height="18" fill="white"/>
</clipPath>
<clipPath id="clip1_1396_442">
<rect width="108" height="18" fill="white"/>
</clipPath>
<clipPath id="clip2_1396_442">
<rect width="108" height="17.8252" fill="white" transform="translate(0 0.0874023)"/>
</clipPath>
</defs>
</svg>
