<svg xmlns="http://www.w3.org/2000/svg" shape-rendering="geometricPrecision" text-rendering="geometricPrecision" viewBox="0 0 620 170"><g mask="url(#a)" transform="matrix(1.3 0 0 1.2 19.07 -2.04)"><path fill="#272727" d="m22.4 71.2.5-1.3h.2l-.5 1.4h-.2v-.1ZM19.6 70l.7-1.3.1.1.2 1.3.5-1 .1.1-.6 1.3h-.2l-.1-1.4-.5 1h-.2V70Zm-3.4-1.8L17 67l.1.1-.8 1.2h-.1v-.1Zm-.4-.2v-.2l1 .6v.2l-1-.6Zm-2.1-3.2.1-.2.6.5-.1.2-.6-.5Zm-.2 1.4.9-1h.1l-.9 1.2-.1-.2Zm-.1-.9.6.4h-.1l-.5-.4Zm-.5.5.1-.2.6.5-.1.2-.6-.5Zm-2.1-1.9-.3-.3-.2-.3v-.2l.2-.2a.4.4 0 0 1 .3 0h.2l.3.3v.1l-.3-.2-.1-.1h-.3v.2c-.1 0-.1 0 0 .1v.2l.2.2 1-1v.2l-1 1Zm.5-1.6-.3.7v-.1l.1-.7.2.1Zm-3.7-2.2 1-.8.2.1-.5 1.3 1-.7v.2l-1.1.8-.1-.1.4-1.3-.9.7v-.2Zm-2.2-3.6 1.3-.2.1.2-1.5.2v-.1l.1-.1Zm1-1-1 1.1h-.1l1-1.2v.2l.1-.1Zm-.5.3H6l.4.7h-.2l-.3-.7ZM3.6 53l1.4-.5v.2l-1.3.5V53h-.1Zm-.1-.4h.1l.4 1h-.1l-.4-1ZM2.6 50l1.3-.4v.2l-1.3.4V50Zm-.2-3.1h.4l.2.1.2.2.1.2v.2l-.1.2-.2.2h-.3v.1a1 1 0 0 1-.4 0h-.2l-.2-.2v-.7l.2-.1.3-.1v-.1Zm.1.2-.3.1-.1.1a.3.3 0 0 0 0 .3v.2l.3.1h.5l.2-.2a.3.3 0 0 0 0-.3v-.1l-.1-.1h-.5v-.1Zm-1.4-5h1.4v.2l-1 .7h1v.2H1.1v-.1l1.1-.8H1.1v-.2Zm.2-4.2 1.3.6v.2L1.2 38v-.1h.1Zm1.3-.3-1.3.4h-.1v-.2l1.5-.3v.1h-.1Zm-.5 0h.2l-.1.8H2l.1-.8Zm1-4.1h.1l-.1.7h-.2l.2-.7Zm-1.4.4 1.4.3v.2L1.6 34v-.1h.1Zm1.7-5.5 1 1v.1l-1.2-1v-.2l.2.1Zm1.3.2-1.4-.1v-.2h1.5v.3h-.1Zm-.5-.2h.2l-.3.8h-.2l.3-.8Zm1.9-3.6h-.2l-.2.1-.1.1-.2.1h-.3a.4.4 0 0 1-.1-.3v-.3l.2-.2a.4.4 0 0 1 .5 0l-.1.1h-.3l-.1.2v.3h.4l.1-.1.2-.2h.4l.1.1v.1c.1.1 0 .2 0 .2a.7.7 0 0 1-.1.4h-.2l-.2.1h-.1v-.2h.4v-.2l.1-.1v-.2h-.2Zm1.9-3h-.5l-.1.2h-.5v-.1l-.1-.2v-.2l.1-.1.2-.2h.4v.2l-.2-.1h-.1l-.2.1v.4h.4l.2-.2h.5v.1l.1.2v.2a.8.8 0 0 1-.3.3h-.1s-.1.1-.2 0h-.2l.1-.1h.3A.6.6 0 0 0 8 22v-.2Zm2.2-3.4.2.3v.6l-.3.2h-.4l-.3-.2v-.1l-.2-.2v-.3a.5.5 0 0 1 0-.4l.3-.1h.4c.1 0 .2 0 .3.2Zm-.1.2v-.1l-.2-.1-.2-.1h-.2l-.1.1-.1.1v.4l.2.2.2.2h.2c.1.05.2.05.3 0l.1-.2v-.4l-.2-.1Zm3.5-3.1.2-.1v.5l-.2.2-.2.1H13l-.2-.3-.1-.1-.1-.2v-.3c0-.16.07-.3.2-.4l.2-.1h.2l.3.2h-.7v.2l-.1.1v.2l.1.2h.1c0 .2.1.2.2.2l.1.1h.4l.2-.2v-.3h-.2Zm2.2-2.8.7 1.2h-.1l-.8-1.1.2-.1Zm2-1.2.2 1.4h-.2l-.2-1.4.1-.1.1.1Zm1 1-1-1h-.1v-.1l1.2 1-.2.1h.1Zm-.3-.5v.2l-.7.3v-.1l.7-.4Zm2.8-2.3.4 1.4h-.1l-.5-1.3h.2v-.1Zm.4-.1v.1l-1 .4V10l1-.4Zm2.7-.9.3 1.4h-.2l-.3-1.3h.1l.1-.1Zm3-.1v.7l-.2.1-.3.1h-.2l-.2-.1-.2-.2v-.9l.2-.2h.6l.2.3v.2h.1Zm-.2.2v-.3l-.2-.2a.3.3 0 0 0-.3 0h-.1l-.1.1v.2c-.1 0-.1.1 0 .2v.3l.1.2c.1.05.2.05.3 0h.2v-.1l.1-.2v-.2ZM32 7.4v1.5h-.2l-.7-1.1v1h-.2V7.4h.2l.7 1.1v-1h.2v-.1Zm5.5.3-.3 1.5h-.1l.2-1.5h.2Zm.5.8v.1h-.7v-.2h.7v.1Zm.2-.6V8l-.8-.1v-.2l.8.2Zm3.6 1.3-.2.4-.1.1-.3.1H41l-.2-.1-.1-.2v-.3c-.1 0 0-.1 0-.2v-.1l.1-.3.2-.2a.5.5 0 0 1 .4 0h.2l.2.3v.5Zm-.2 0v-.5l-.2-.2h-.3l-.2.2V9l-.1.2v.2l.1.2h.5v-.2l.2-.2Zm4 .7.4.1.2.2.1.2v.3a.4.4 0 0 1-.3.2h-.2l-.5-.2v-.2l.4.2h.2a.2.2 0 0 0 .2-.1v-.3l-.2-.1-.2-.1-.6 1.1H45l.5-1.4.1.1Zm.1 1.6v-.7h.1l.1.8h-.2v-.1Zm5 2.4h.2l-.2.2h-.3l-.2-.1-.2-.2v-.7h.2l.1-.3.3-.1h.4c0 .2.1.2.2.3v.5l-.2-.1v-.5h-.7v.2l-.2.1v.2l-.1.2v.1l.1.2h.6Zm3.2 1 .3.4.2.2v.5a.4.4 0 0 1-.4.1h-.2l-.4-.4h.1l.3.1.1.1h.2l.2-.2v-.1l-.2-.2-.2-.2-.8 1-.2-.1 1-1.1v-.1Zm-.3 1.7.1-.7.2.1-.2.8-.1-.2Zm3.2 1.1-.3.8.8-.2.2.1-1 .2-.4.4-.2-.1.4-.4.4-1 .1.2Zm2.1 3.9-.2-.3.3.2.1.2h.3v-.2l.1-.1v-.2l-.2-.3-1 .8-.2-.2 1.2-.8.3.4v.3a.4.4 0 0 1-.1.4h-.4c-.1 0-.2 0-.2-.2Zm2.7 2.9-1.3.6-.1-.1 1.3-.7v.2h.1Zm.2.4h-.2l-.5-1h.2l.5 1Zm.9 3.6a1 1 0 0 1-.4 0h-.4l-.1-.3v-.4l.2-.2.2-.2h.6l.2.1.2.2v.5l-.2.1-.3.2Zm-.1-.2h.2l.2-.2v-.5h-.8l-.2.1-.1.2a.3.3 0 0 0 0 .3v.1h.1l.2.1h.3l.1-.1Zm.8 4.7h-.2l-.1-.6h.1l.2.6Zm1-1-1.3.4v-.2l1.3-.3v.2-.1Zm.2 4.2a1 1 0 0 1-.4 0H64l-.1-.2-.1-.3v-.2l.1-.2.2-.1.3-.1h.4l.2.1a.5.5 0 0 1 .3.4v.2l-.2.2-.2.2h-.3Zm0-.1.2-.1h.2v-.2l.1-.2v-.1l-.2-.2h-.7l-.1.1-.1.2v.3l.1.1h.4l.1.1Zm.1 5h-.5a.5.5 0 0 1-.1-.3.8.8 0 0 1 0-.5l.1-.2.3-.1h.6l.2.2.2.1v.6l-.2.1H65v-.1h.2l.1-.1v-.5l-.2-.1h-.8a.4.4 0 0 0-.1.3v.4h.4v-.2h.2v.5l-.1-.1Zm.5 3.8-1.4-.3v-.2l1.5.2v.2l-.1.1Zm-1.4 2.3v.2l-.2-.1-.1-.2v-.5l.2-.2h.7l.2.1.2.2.1.2v.2l-.1.3-.2.1h-.3v-.1h.2l.2-.1v-.5l-.2-.1h-.2l-.1-.1h-.5v.2c-.1 0-.1.1 0 .2v.1l.1.1Zm-.6 5.2-.2.4-.2.2-.2.1h-.2l-.1-.1-.1-.2v-.2l.2-.4h.1l-.1.3v.2a.3.3 0 0 0 0 .2h.4v-.1l.2-.3-1.2-.5v-.2l1.4.6Zm-1.7.2.8-.1-.1.2h-.7v-.1Zm-1.4 3.6-.2-.1.4-.7.1.1-.3.7Zm1.4 0-1.2-.7v-.2l1.3.7v.2h-.1Zm-.8.2h-.2l.4-.6h.1l-.3.6Zm.4.4.3-.7h.1l-.4.7Zm-2.6 2.3h.2l.2-.1.1-.1.2-.1h.2l.2.2v.3l-.1.2-.2.2a.4.4 0 0 1-.4 0v-.2h.4l.2-.1V59h-.4l-.1.1-.2.1h-.2c0 .1 0 .1-.1 0h-.2a.4.4 0 0 1-.1-.3v-.1l.1-.2.2-.2h.5l-.1.2h-.4a.6.6 0 0 0-.1.2v.2l.1.1Zm-2.6 2.7v-.1l.4-.6.1.2-.5.5Zm1.4.4-1-1 .1-.2 1 1v.2h-.1Zm-.8 0-.1-.1.4-.5.1.1-.4.5Zm.3.5v-.1l.4-.6.2.1-.6.6Zm-2.4 2.2-.4-1.2.1-.2.5 1.5-.1.1-.1-.1v-.1Zm-1.1-.7 1.2.7v.2l-1.4-.8h.2v-.1Zm.3.4v-.1l.6-.5v.1l-.6.5Zm-2.1 2.9-.4.2-.3.1h-.2l-.2-.2v-.3l.1-.2.4-.3v.1l-.2.2-.1.1a.3.3 0 0 0 0 .3v.1h.4l.2-.2-.6-1 .1-.2.8 1.3Zm-1.5-.8.7.4h-.2l-.6-.3.1-.1ZM47 69l-.2.1v-.5l.3-.1h.6l.2.3v.2l.1.2v.3a.5.5 0 0 1-.3.3h-.5l-.2-.2h.3l.2.1h.1l.2-.1v-.7l-.2-.3h-.1l-.2-.1h-.1l-.2.1v.4Zm-3.9 2v-.1l.7-.3v.2l-.7.2Zm1 .4-.5-1.4h.2l.4 1.3H44l.1.1Zm-1 .2-.4-1.3h.2l.4 1.3h-.2Zm.9-30.7H33.8v10.7H44V40.9Zm-10.9 0H22.9v10.7h10.2V40.9Zm0-11.7H22.9v11h10.2v-11Zm10.9 0H33.8v11H44v-11Zm.8-.6h12.4c-2.6-5.6-7-10-12.4-12.8v12.8Zm0 11.5h15a27 27 0 0 0-2.3-10.9H44.8v11-.1ZM22.1 51.6V40.8H6.8c0 3.8 1 7.4 2.6 10.8h12.7Zm0-22.4h-13a27 27 0 0 0-2.3 11h15.3v-11Zm0-.6v-13c-5.6 2.7-10 7.3-12.7 13h12.7Zm0 23.8H9.7c2.7 5.3 7 9.6 12.4 12.1V52.4Zm11-39.3c-3.5 0-7 .8-10.2 2.2v13.3h10.2V13.1Zm26.5 27.8H44.8v10.7h12.4c1.6-3.4 2.4-7 2.5-10.8l-.1.1ZM44.8 52.4v12a27 27 0 0 0 12-12h-12Zm-11-39.3v15.5H44V15.5a29.3 29.3 0 0 0-10.2-2.4ZM33.1 67V52.4H22.9v12.5c3.2 1.5 6.7 2.3 10.2 2.2V67ZM44 52.4H33.8V67c3.5 0 7-.8 10.2-2.3V52.4Z"/><path fill="#fff" d="M15.8 31.1h-1v-1.2h1v1.2Zm0 7.4h-1v-6.4h1v6.4Zm25.9-13.3-1.1.7h-2.7l-1.1-.7-.9-1-.3-1.2v-.7c0-.4.2-.8.3-1.1l.9-1 1.1-.7h2.7l1.1.7-.8.8-.3-.3a.8.8 0 0 0-.4-.2h-2l-.6.3-.5.7-.2.8v.7c0 .3 0 .6.2.8l.5.7.6.5h2l.7-.3.8.5ZM31 49.6h-1v-.9l-.8.7h-2.3l-1-.7-.7-1c-.1-.4-.2-.8-.1-1.2v-.6l.1-1.2.7-1 1-.7h2.3l.8.7V43h1v6.6Zm-1-3v-.7c0-.3 0-.6-.2-.9l-.3-.7-.6-.3h-1.7a.8.8 0 0 0-.7.3l-.3.7c-.1.3-.2.6-.1.9v.6l.1.9.3.6.7.4h1.7l.6-.4c.2-.1.2-.5.3-.6.2-.3.2-.6.2-.9v.1Zm20.1 8.5h-1l-.6.5-.5.5-.2.8v3.7h-1v-6.5h1v1l1-.7 1-.3h.3v1Z"/><path fill="#272727" d="M32.5 71.7c.9 0 1.6-.7 1.6-1.7 0-.9-.7-1.6-1.6-1.6-1 0-1.7.7-1.7 1.6 0 1 .8 1.7 1.7 1.7Z"/><mask id="a" width="400%" height="400%" x="-150%" y="-150%" mask-type="luminance"><path fill="#fff" d="M0 6.9h68.5v68.5H0V6.9Z"/></mask></g><g mask="url(#b)"><path fill="#272727" d="M187.5 79.5a38.4 38.4 0 1 0 0-76.8 38.4 38.4 0 0 0 0 76.8Z"/><path fill="#fff" d="m212.5 44.4-2 .6.5.1-.7.5.2-1.2 1-.9.1.5 1.2-1.6-1.8.8.4.1-.8.7.1-1.5 1-1.1.1.5 1-1.8-1.7 1 .4.1-.8 1v-1c0-2.3-.3-4.5-1-6.6-1 0-2-.3-2.5-.4a4 4 0 0 1 2 2.6 4 4 0 0 1-3.3-.7 4 4 0 0 1 1.3 2.8 4 4 0 0 1-2.9-1.2c.5.5 1.1 2 1 2.9-1-.1-2-.7-2.6-1.5.5 1.1.7 2 .6 3a5 5 0 0 1-2.4-1.2c.4 1 .5 2 .4 2.7a4 4 0 0 1-2.3-1.7c.3.8.5 2 .3 2.7a3 3 0 0 1-2-1.8c.5 1 .4 2.1.3 2.7-.4 0-.9-.3-1.1-.6v.5c-.1.7-.2 1.3-.5 1.8l.3.3c.5.6 1.1 1 1.6 1.2l-.8.2c.3.4 1 .5 1.4 1l-.8.2c.8.6 1.5.6 1.9.6h1c.4 0 1 .2 1.1.3.3.2.3.6.2.8 0 0 0 .2-.3.3-.2 0-.1 0 0 0 0 0 .1-.6-.1-.8l-.8-.2h-1c-.3 0-.5.3-.5.4 0 .3-.2.7-.6.5-.6-.3-1.3-.3-2.2-.6 0 .2 0 .5.2.8-.8-.2-1-.6-1.8-.9l.3.8c-.7-.1-1.2-.7-2.1-1h-.1l-.9.4a6 6 0 0 1 1.4 2.6l-1.1-.2.3 1.8s-.5 0-1.2-.5v2s-.6-.3-1.3-1c0 .7-.3 1.3-.5 2 0 0-.6-.4-1-1.2l-1 1.9s-.6-.6-1-1.8c-.5.8-1 1-1 1-.3-.5-.5-1.2-.5-1.9-.7.7-1.3 1-1.3 1v-2l-1.3.5c0-.6.2-1.2.4-1.8l-1.1.2c.2-1 1-2.2 1.4-2.7l-.8-.2c-1 .2-1.5.8-2.2.9l.3-.8c-.7.3-1 .7-1.7.9 0-.3 0-.6.2-.8l-2.2.7c-.5 0-.5-.7-.7-.8h-1.7c-.4 0-.6 0-.8.2-.3.2-.1.7 0 .8h-.1a.5.5 0 0 1-.3-.4c0-.2 0-.6.2-.7s.7-.4 1.1-.3a4.5 4.5 0 0 0 3-.8c-.3 0-.4-.2-.7-.3.4-.4 1.1-.5 1.4-.9-.3 0-.5-.2-.8-.3.7-.3 1.2-.5 1.6-1l.3-.3c-.2-.6-.4-1.2-.4-1.9v-.5l-1 .6c-.3-.6-.2-1.8.1-2.7-.5 1-1 1.5-1.9 1.8a5 5 0 0 1 .2-2.7 4 4 0 0 1-2.3 1.8c0-.8 0-1.9.4-2.8a5 5 0 0 1-2.4 1.2c0-1 .2-1.9.7-3-.6.8-1.8 1.3-2.8 1.4.1-.9.7-2 1-2.7-.8.6-1.8 1-2.8 1.1.2-1 .6-2 1.3-2.8-.8.7-2.1 1-3.1.9.2-1 .8-2.1 1.7-2.6-.5 0-1.4.3-2.4.2-.64 2.1-.98 4.3-1 6.5-.5-.4-.9-.5-1.3-.9l.2 1.4c.1 1 .5 1.7 1.2 2l.1 1c-.5-.3-1.1-.5-2-.5.5 1.8 1.3 2 2.3 2l.1.6c-.5-.2-1.2-.2-2 0 .6.8 1.3 1.3 2.5 1.5a4 4 0 0 0-2.1.4c.9.8 1.7 1 2.6 1v.3c-.6.2-1.2.5-1.5.8l2 .3c-.3.3-.6.8-.8 1.5l1.5-.3.3.6c-.3.5-.4 1.1-.2 1.8l1-.5.3.5c0 .8.1 1.6.6 2.1l.5-.7a23 23 0 0 0 39.4-6.9l1-.4v.4l1.5-1.3-2 .4.4.2-.8.4.4-1.3 1.2-.6v.4l1.3-1.2-1.9.6.5.2-1 .5.4-1.4.8-.5v.4l1.4-1.4v-.1Z"/><path fill="#fff" d="M178.3 33.3a7 7 0 0 1-1.6-1 4.8 4.8 0 0 1-1.6-5c.3-1.1.8-1.7.6-2.8 0-.7-.6-1.2-1-1.7a11 11 0 0 0-4.4-2.4c-1.2-.4-4.8-1.5-6.3-2.9-.4 1 .4 2.4 1.3 2.6-.8.1-1.5.5-1.8 1 .6.7 1.8 1.4 2.8 1.4-.5.3-1 1-1.2 1.3.8.5 2.2.9 3.2.8-.4.3-.8.8-1 1.2.7.3 2 .8 3.4.9-.5.2-1.2 1-1.6 1.6.8.3 2.4.5 3.4.6-.8.4-1.5 1-1.9 1.8.7.3 2 .7 3.2.7a3 3 0 0 0-1.1 1.7 8 8 0 0 0 2.7 0 6 6 0 0 0-1 2.6c.9 0 2-.2 2.7-.7-.1.7 0 1.5.2 2.1.3 0 .7-.2 1-.4v-3.4Zm33.6-13.9c-1.6 1.4-4 1.8-6.7 2.7-2 .6-3.2 1-5 2.4-.4.4-.9 1-.8 2l.2 3.2c0 1.1-.3 2-.8 2.5a7 7 0 0 1-1.7 1.4l-.2 3c.4.3 1 .5 1.3.5.3-.6.3-1.4.1-2a6 6 0 0 0 2.7.6c0-.7-.3-1.8-1-2.5a8 8 0 0 0 2.8 0c-.2-.7-.6-1.3-1.1-1.8 1.1 0 2.5-.4 3.2-.7a5.3 5.3 0 0 0-1.9-1.8c1-.1 2.6-.3 3.4-.6a6 6 0 0 0-1.6-1.6 11 11 0 0 0 3.4-1 5.02 5.02 0 0 0-1-1.1 8 8 0 0 0 3.2-.8c-.2-.3-.7-1-1.2-1.3 2.6-.7 2.7-2 2.7-3v-.1Z"/><path fill="#fff" d="M200.8 22.2a23 23 0 0 0-25.3-.6c1 .7 1.5 1.4 1.6 2.2.1.7.2 1.5-.2 2.7-.4 1.3-.6 2.6.3 4a5 5 0 0 0 3.2 2l4.2-.5a4 4 0 0 1 1.3-1.6c.9-.6.7-1.2.5-1.6a2 2 0 0 0-.9-.9c-.4-.2-1.7-.3-1.7.6-.2-.4-.4-.8-.2-1.3.1-.8 1.4-1 1.7-1-.3-.1-.1-.5.4-.6.7-.2 1.3-.2 2-.2 1.1 0 1.3.3 2 .9.7.7 1.7.9 2.1.5-.3.6-1.2 1-1.7.9l.4 2.6.3 1.7 4.8.6a3 3 0 0 0 1.7-1.1c.6-.6 1-1.4.9-3.4-.1-.5-.4-2-.3-2.6 0-1.5 1.2-2.5 3-3.3h-.1Z"/><path fill="#fff" d="m185.5 26.3.4.2.1.1.1.2.6-.3.6-.2c-1-.2-1.2.1-1.8 0Zm32.7 4.5c1.4-.6 2-2 1.4-3.4a2.6 2.6 0 0 0-3.5-1.3c-1.3.6-2 2.1-1.4 3.4a2.6 2.6 0 0 0 3.5 1.3Zm-1.6-3.7c1-.4 2.3-.2 2.6.5s-.4 1.8-1.4 2.2c-1.1.5-2.4.3-2.7-.4s.4-1.8 1.5-2.3Zm-.3 7.3-.5-2 .3-.2.2.6 4.3-1-.2-.7h.4l.8 3h.2v.4l-1.1.3-.1-.4.5-.1-.4-1.6-1.8.5.3 1.2.6-.1v.4l-1.4.3-.1-.4.5-.1-.3-1.2-2 .5.1.5h-.3v.1Zm-60.7-5.5-.2.6 2.8.8c.9.3 1.3.7 1.4 1.5v1.1c-.4 1.2-1.3 1.8-2.4 1.5l-3-.9-.1.6-.4-.1.7-2.1h.3l-.2.6 2.8.9c.7.2 1.1.2 1.4-.2l.4-.5c.2-1-.1-1.6-1-1.9l-2.8-.7-.2.6h-.3l.5-1.8h.3Zm5 1.2a.5.5 0 0 1-.32.37.5.5 0 0 1-.48-.07.54.54 0 0 1 .4-1 .5.5 0 0 1 .31.28.5.5 0 0 1-.01.42h.1Zm.9-2.2-.2.3-1.2-.6.2-.4.5.3c.4-.2.6-.4.8-.7.2-.4.2-.9-.2-1-.3-.3-.6-.2-1.4.2l-1.2.6c-.3 0-.6 0-1-.2-.7-.4-.8-1.3-.4-2 .2-.4.3-.5.6-.7l-.2-.2.2-.3 1.1.6-.2.4-.4-.3c-.4.2-.5.4-.7.6-.2.4 0 .8.2 1 .3.1.6 0 1.3-.4l.8-.3.6-.2c.3 0 .6 0 .8.2.8.4 1 1.3.6 2a2 2 0 0 1-.8 1h.2v.1Zm2-3.6a.5.5 0 0 1-.85.35.5.5 0 0 1-.15-.35c0-.2.2-.5.5-.5s.5.3.5.5Zm12-10-3.2 1.8-.2-.3.6-.2-2.1-4-.5.3-.2-.3 2.9-1.5-.1-.2.3-.2.6 1.1-.4.2-.2-.5-1.4.7.8 1.7 1.1-.6-.2-.5.3-.2.7 1.4-.3.2-.3-.5-1.1.6.9 1.7 1.5-.8-.3-.5.4-.2.5 1-.1-.2Zm3.2-1.1-2.1.7-.1-.3.6-.2-1.5-4.3-.5.2-.1-.3 2.2-.7c1-.3 1.7 0 2 .9.3.8-.2 1.7-1 2h-.5l-.1-.3h.2c.5-.2.6-.7.4-1.3-.2-.7-.6-1-1.1-.8l-.5.1 1.4 4.2.6-.2.1.3Zm6.4-1.7h-.4L182 6.9l-.5.1-1.1 5.3h-.5v.4l1.7-.3-.1-.3h-.6l.3-1.2 1.8-.4.7 1.2h-.5v.4l2-.3-.1-.3Zm-3.8-1.1.4-2.1 1 1.8-1.4.3Zm9.1 1h-.3c-.2 0-.2 0-.4-.3l-1.1-1.7c.7-.2 1-.7 1-1.4 0-.4 0-.7-.3-1-.3-.2-.7-.3-1.3-.3h-2.3V7h.6v4.5h-.6v.3h2.1v-.3h-.5v-2h.2l1.1 1.8c.3.4.4.5.8.5h1v-.4Zm-3.1-4.3h.5c.5 0 .8.3.8 1 0 .6-.3 1-.9 1h-.4v-2Zm6.6 5.3-2.4-.4v-.3l.8.1.7-4.3-1.3-.2-.1.6h-.5l.3-1.4.4.1v.2l3.6.6v-.2l.4.1-.2 1.3h-.4l.1-.7-1.3-.2-.7 4.3h.7v.4h-.1Zm7.3 2.5-2.1-.9v-.3l.7.3 1.2-3.2-3 3-.4-4.2-1.2 3 .6.3v.3l-1.7-.6v-.3l.7.2 1.6-4.2-.6-.2.1-.3 1.3.5.4 4 2.8-2.8 1.5.6-.2.3-.6-.2-1.6 4.1.6.3v.3h-.1Zm3.8 2.4-3.1-2 .2-.2.4.3 2.5-3.8-.5-.3.1-.3 2.7 1.8.1-.2.4.2-.7 1-.3-.2.3-.5-1.4-.8-1 1.5 1 .7.4-.5.3.3-.8 1.3-.3-.3.2-.4-1-.7-1 1.6 1.4 1 .3-.5.4.2-.6.8Zm-35.5.3-.5.3-2.5-3.4.5-.4c.7-.5 2-.2 2.6.7.7 1 .7 2.2-.1 2.8Zm1-3.4a2.5 2.5 0 0 0-3.6-.5l-2 1.4.2.3.5-.4 2.6 3.6.4.1 1.3-1c.6-.4 1-.9 1-1.5.2-.7 0-1.5-.4-2Zm41.1 2-.2.3.4.4-2.1 2.5.5-4.4-1.1-1-.3.2.5.4-.1.4-2.8 3-.5-.4-.2.3L207 19l.2-.2-.4-.4 2.3-2.5-.5 4 1.5-.4h.2l2-2.2.4.4.2-.2-1.3-1.2v-.1Zm5.2 5.7-.1.2-2.3-3h.2l-.2-.4-1.1.8.3.3.5-.4.8 1-3.6 2.7-.1-.2-.3.1 1.2 1.7.3-.2-.5-.6 3.5-2.6.8 1-.5.4.3.4 1-.8-.3-.4h.1Zm-22.7 53.5h-.4l-.3-1.3.4-.1.1.6c.4.2.7.2 1 .1.6 0 .8-.4.8-.8-.1-.4-.4-.6-1.2-.9s-1-.3-1.2-.5l-.5-.8c-.2-.8.3-1.5 1.3-1.7.3-.1.5-.1.8 0v-.3h.4l.3 1.2-.4.1-.2-.5c-.3-.1-.5-.2-.8-.1-.4 0-.7.4-.6.8 0 .3.3.4 1.1.7l.8.3.5.4c.2.2.4.5.4.8.2.8-.3 1.6-1.2 1.8a2 2 0 0 1-1.1 0v.2Zm8-2.5-3.5 1.3-.1-.3.5-.2-1.6-4.2-.6.3-.1-.3 3-1.2-.1-.2.4-.2.4 1.2-.3.1-.2-.5-1.6.6.7 1.7 1.2-.4-.2-.5.4-.2.5 1.4-.4.2-.2-.5-1.1.4.7 1.8 1.6-.6-.2-.5.3-.2.4 1h.1Zm5.1-3.2a3 3 0 0 1-1.3 1.2c-1.4.8-3 .5-3.7-.8a2.6 2.6 0 0 1 1-3.7 3 3 0 0 1 1.2-.5l-.2-.3.4-.2.7 1.2-.4.2-.2-.4c-.6 0-.8 0-1.2.2-.9.6-1 1.7-.4 2.8s1.9 1.5 2.8 1c.3-.2.5-.4.7-.8l-.3-.5.4-.3.5 1v-.1Zm2.3-8-.4.4 2 2.2c.5.6.7 1.3.4 2l-.7.9c-1 .8-2 .9-2.7 0l-2.1-2.3-.5.4-.2-.2 1.6-1.5.3.3-.5.4 2 2.1c.5.6.9.8 1.3.7l.6-.4c.7-.6.7-1.4 0-2l-2-2.2-.4.4-.2-.2 1.3-1.2.2.2Zm8.8-4.5-1 1.9-.3-.2.2-.5-4-2.1-.2.5-.3-.2 1-1.9.4.2-.3.5 4 2.1.2-.5.3.2Zm2-4.7-1 2.3h-.2l.2-.8-4-1.5-.5 1.2.6.3-.1.4-1.3-.5.2-.4h.2l1.3-3.4h-.2l.1-.4 1.3.4-.2.4-.6-.2-.5 1.2 4 1.6.4-.7.3.1Zm1.3-5.7-.4 2.1h-.3l.1-.6-2-.4-2.7 1v.5h-.4l.4-2.2h.3v.6l1.8-.7-1.5-1.4v.7h-.4l.3-1.9.4.1-.1.6 1.8 1.6 2.3.5.1-.6h.3v.1ZM211 59.9l.3-.4c.3-.4.8-.5 1.3-.1s.6 1 .3 1.3l-.3.4-1.6-1.2Zm5.4 0-.2.3c0 .1-.2.2-.5.2l-2-.2c.2-.7 0-1.2-.5-1.7a2 2 0 0 0-1-.3c-.4.1-.7.3-1.1.9l-1.4 1.8.3.2.3-.5 3.6 2.7-.3.5.2.2 1.3-1.8-.2-.2-.4.5-1.6-1.2.2-.1 2.1.1c.5 0 .6 0 .9-.3l.6-.8-.3-.2v-.1Zm-61.6-8.3-.5-2.1.3-.1.1.6 2-.5-.6-2.5-2 .5.2.6h-.4l-.5-2 .3-.1.2.5 4.3-1-.1-.6h.3l.5 2-.3.1-.1-.6-2 .5.7 2.5 1.9-.5-.2-.6h.4l.5 2-.3.1-.2-.5-4.3 1 .1.6h-.3v.1Zm4.6 4.9c1.4-.7 2-2.2 1.4-3.5a2.6 2.6 0 0 0-3.5-1.2c-1.4.6-2 2.1-1.4 3.4a2.6 2.6 0 0 0 3.5 1.3Zm-1.7-3.7c1.1-.5 2.4-.3 2.7.4s-.4 1.8-1.4 2.3c-1.1.4-2.3.2-2.7-.5-.3-.7.4-1.7 1.4-2.2Zm3.7 11L160 62l.3-.2.4.5 2.7-2-4 .9 1.8-3.7-2.6 2 .4.4-.3.2-1-1.4.2-.2.4.5 3.6-2.6-.4-.6.3-.1.8 1-1.8 3.7 3.8-.8 1 1.2-.3.2-.4-.5-3.6 2.6.4.6-.3.1Zm4 4-2.7-2.5.2-.2.5.4 3-3.3-.4-.4.2-.3 2.4 2.2.1-.1.3.2-.8 1-.3-.3.4-.4-1.2-1.1-1.3 1.3 1 .9.3-.4.3.2-1 1.2-.3-.3.3-.4-.9-.9-1.2 1.5 1.2 1.1.4-.4.3.3-.7.7h-.1Zm4.7 3.2-3-2 .1-.3.5.3 2.5-3.7-.5-.3.2-.3 1.8 1.2-.2.3-.5-.3-2.4 3.6 1.4.9.3-.5.4.2-.6.9Zm5.6 2.4-.3-.1.3-5.4-.4-.2-4 3.7-.4-.2-.1.3 1.5.7.1-.3-.6-.3 1-.9 1.7.8v1.3l-.5-.2-.2.3 1.7.8.2-.3Zm-2.5-3 1.5-1.5-.1 2-1.4-.6v.1Zm7.9 4.8-.6-.1-1.7-4.3-.8 3.3.6.1v.3l-1.8-.4v-.3l.7.1 1-4-.2-.4-.5-.1v-.3l1.5.3 1.7 4.1.7-3.2h-.6l.1-.4 1.7.4v.3l-.7-.1-1.1 4.7Zm4.8.4c.8 0 1.3-.2 1.8-.6a3 3 0 0 0 1-1.9c0-1.4-1.1-2.6-2.6-2.6l-2.4-.1v.3h.6l-.2 4.5h-.6v.3l2.4.1Zm-.6-4.5h.7c.9 0 1.6 1 1.6 2.2s-.8 2-1.8 2h-.6l.1-4.2Z"/><path fill="#272727" d="M187.7 52.8h-.3c-.1-.8-.7-1.3-1.5-1.5l-3.5-1.1c-2.2-.7-3.4-2.5-3.5-4.8-.3-4.13-.53-8.26-.7-12.4a43.6 43.6 0 0 1 18.9 0c-.1 3.6-.5 9.2-.7 12.4a5 5 0 0 1-3.5 4.8l-3.5 1c-.8.3-1.4.8-1.5 1.6h-.2Z"/><path fill="#fff" d="m187 44.6-.4-.3-.3-.7-.7-.3-.8-.7-.4.5-.7.2-.3.5-.6.6-.7.4-.5.8-.3.4-.5.4-.3-.3-.3.3-.4.7c-.1-.5-.3-1-.3-1.7l-.3-5.4c2.4-.5 5.6-.9 8.2-.9v6c-.1 0-.3-.1-.4-.4v-.1Zm.3 2.8H180a4.1 4.1 0 0 0 2.6 2.2l2.8.9.7.2c.6.2 1 .5 1.3.8v-4m7.8-3 .7-.4.2-2.2-.3.2c-.4.3-.8.6-1.6.6-.7 0-1.2-.2-1.6-.5-.3-.2-.5-.3-.9-.3s-.7.2-1 .4c-.5.2-1 .5-1.5.5s-1-.2-1.3-.3v2l.3.2c.3.2.6.3 1 .3l1-.3c.4-.3.9-.6 1.5-.6.7 0 1 .3 1.5.5.3.2.6.4 1 .4.5 0 .7-.2 1-.5Zm-6 4.8c-.5 0-1-.2-1.3-.4v2.6a3 3 0 0 1 1.3-.8l.8-.2c1.26-.44 2.53-.88 3.8-1.3l-1.2-.5c-.3-.2-.5-.3-.9-.3s-.7.2-1 .4c-.5.2-1 .5-1.5.5Zm6-7.9c.2-.2.5-.5 1-.6v-.7a44 44 0 0 0-8.3-.9v2.2l.3.2c.3.2.6.3 1 .3l1-.3c.44-.33.96-.54 1.5-.6.7 0 1 .3 1.5.5.3.2.6.4 1 .4.5 0 .7-.2 1-.5Zm-7.3 4.2v2.2l.3.1c.3.2.6.4 1 .4l1-.3c.4-.3.9-.6 1.5-.6.7 0 1 .3 1.5.5.3.2.6.4 1 .4s.6-.2.8-.3c.56-.83.88-1.8.9-2.8h-.1a2 2 0 0 1-1.6.7c-.7 0-1.2-.3-1.6-.5-.3-.2-.5-.3-.9-.3s-.7.2-1 .4c-.5.2-1 .5-1.5.5s-1-.2-1.3-.4Z"/><path fill="#fff" d="m179.1 39.5-.3-6a43.6 43.6 0 0 1 17.7 0l-.3 6a44.5 44.5 0 0 0-17 0h-.1Z"/><path fill="#272727" d="m180.8 34.8.1-.4-.4-.2h.5v-.5l.2.4.5-.1-.4.3.3.4-.4-.2-.4.3Zm3-.3-.5-.3-.3.3.1-.4-.4-.2h.5v-.5l.2.4h.5l-.4.2.2.5h.1Zm2-.2-.3-.3-.4.3.2-.4-.4-.3h.5v-.4l.2.4h.5l-.4.2.2.5h-.1Zm2.2 0-.3-.4-.4.3.2-.4-.4-.3h.5v-.4l.2.5h.5l-.4.2.1.4v.1Zm6.2.2-.4.2.2-.4-.3-.3h.4l.2-.3v.4h.5l-.4.3.1.4-.3-.3Zm-2.4-.5-.3-.3.4.1.2-.4v.4h.6l-.5.3.2.4-.4-.3-.4.3.2-.5Zm-2.1-.1-.4-.3h.5l.1-.4.1.4h.5l-.4.3.1.4-.4-.3-.3.3.2-.4Zm-8.5 4.4v-.4l-.4-.2h.5v-.6l.2.5.5-.1-.4.3.3.4-.4-.2-.3.3Zm2.8-.3-.4-.3-.4.4.1-.5-.4-.2h.5v-.5l.2.4h.5l-.4.3.3.4Zm2-.2-.4-.3-.3.4.1-.5-.4-.2h.5l.1-.5.1.5h.5l-.4.2.2.4Zm2.1 0-.4-.3-.3.3.1-.5-.3-.2h.4l.1-.5.2.5h.4l-.4.2.2.5Zm6 .2-.5.2.2-.4-.3-.3.5.1.1-.4v.4l.6.1-.5.2.1.5-.3-.4h.1Zm-2.4-.4-.3-.3h.4l.2-.4v.5h.6l-.5.2.2.5-.4-.4-.4.3.2-.4Zm-2-.2-.4-.3h.4l.2-.4v.5h.6l-.5.2.2.5-.4-.3-.3.2.1-.4h.1Zm-7.5-1.1.1-.5-.4-.2h.4l.1-.5.2.4h.4l-.3.3.2.4-.4-.3-.3.4Zm-2 .3v-.5l-.4-.2h.5v-.5l.2.4h.5l-.4.3.2.4-.4-.3-.3.4h.1Zm4.8-.6-.4-.3-.4.3.2-.4-.4-.3h.4l.1-.4.2.4h.5l-.4.2.2.5Zm2-.1-.3-.3-.4.3.2-.5-.4-.2h.4l.1-.5.2.5h.5l-.4.2.1.5Zm2.1 0-.3-.3-.4.3.2-.5-.4-.2h.5v-.5l.2.5h.5l-.4.3.1.4Zm6 .4-.5.2.2-.4-.3-.3h.5l.2-.4v.5h.5l-.5.2.1.5-.3-.3h.1Zm-2.4-.5-.3-.3h.5l.1-.4v.5h.6l-.5.2.2.5-.4-.4-.4.3.2-.4Zm-2-.2-.4-.3h.5l.1-.4.1.4h.5l-.4.3v.4l-.3-.3-.3.3.2-.4Zm-24 10.9c.6-1 2-1.2 1.4-3.9-1.5.7-2.2 2.5-1.5 3.9h.1Zm-.2-6.7a3 3 0 0 0-1.4 1.8c.5.5.7 1.3.7 1.9.9-.8 1.2-2.3.7-3.7Zm.9 9.2a3 3 0 0 0-2.1-.4 8 8 0 0 1 2.1.4Zm2.9 3.3c0 1 .7 2.3-.5 4-.1.2-.2.6.4-.1 1.3-1.5.2-2.7.1-4v.1Zm-2.4 1.6c0-.6.5-1.4 1.2-2 .4-.3.7-.5.3 0-.6.5-1.3 1.5-1.5 2Zm1.4 1.9c-.3-.7 0-1.7.2-2.3l.8-1.3c-.5.8-1 3-1 3.6Zm-2.1-8.8a.4.4 0 0 0-.7-.3c-.1.04-.2.12-.24.22a.43.43 0 0 0-.01.33.42.42 0 0 0 .55.25.4.4 0 0 0 .4-.5Zm3.8.6v-2.1c-1.3 1-1.7 2.6-1.2 3.8h-.2s-.2 0-.3.2a.5.5 0 1 0 .7-.1c-.3-1 0-2.4.5-3a8.01 8.01 0 0 0-.3 3.3l.5-.7.1.6c0-1 .4-2 1.4-2.6a6 6 0 0 0-1.2 2.9c.5-.7 1.8-1 1.8-3.7-.6.2-1.3.7-1.8 1.4Zm.9 2.8a.5.5 0 0 0-.8-.3.5.5 0 0 0-.2.3v.2c.06.27.32.45.6.4a.5.5 0 0 0 .4-.6Zm-.2 1.4a.5.5 0 0 0-.5-.3.5.5 0 0 0-.4.5.5.5 0 0 0 .8.2l.1-.4Z"/><path fill="#272727" d="M169 44.8a3 3 0 0 0-1.2 2.7.4.4 0 0 0-.3.2v.3c.09.19.3.27.5.2 0 .3.2.5.3.7l-.2-1v-.1c0-.8.1-1.5.5-2.1-.1.8-.3 2.4-.1 3.4.3-1 1.8-1.5.5-4.3Zm3.8 6.2a.4.4 0 0 0-.7.2c0 .2.2.3.4.3a.4.4 0 0 0 .3-.5Zm-2 0a.3.3 0 0 0-.3-.3.3.3 0 0 0-.4.3.29.29 0 0 0 .01.24c.04.08.1.14.19.16h.2c.2 0 .3-.2.3-.4Zm-4.7-4.7a.3.3 0 0 0-.3-.3 3.2 3.2 0 0 0-2.3-1.4 9 9 0 0 1 2.2 1.4.3.3 0 0 0-.2.4c.01.04.03.08.06.11.08.1.22.14.34.09h.2v-.3Zm0-2.2V44l-.1-.2a.4.4 0 0 0-.3 0c-.3-1-.6-1.8-1.7-2.6.62.81 1.15 1.68 1.6 2.6a.4.4 0 0 0-.3.5c.01.05.04.1.07.15a.4.4 0 0 0 .27.16.41.41 0 0 0 .46-.51Zm1.2 4-.1-.2a.3.3 0 0 0-.5 0c-1-.8-1.7-.8-2.2-.9.3.2 1.5.5 2.2 1v.2l.1.2a.3.3 0 0 0 .5-.2v-.1Zm.9 1.3c0-.3-.3-.4-.6-.4a.5.5 0 0 0-.3.6v.1c.07.1.18.17.3.2h.2c.3 0 .4-.3.4-.5Zm.6.8v-.1a.3.3 0 0 0-.3-.2c-.2 0-.2.1-.3.2-.9-.1-1.8 0-2.7.5 1-.3 2-.5 2.7-.5v.2a.3.3 0 0 0 .5.2.3.3 0 0 0 .1-.3Zm1 .5a.41.41 0 0 0-.06-.17.4.4 0 0 0-.14-.13.4.4 0 0 0-.3 0c-.3 0-.4.2-.4.5-.7 0-1.8.1-2.4 1a8 8 0 0 1 2.4-1 .4.4 0 0 0 .5.3.4.4 0 0 0 .3-.5h.1Zm5.7 2c1.9 1.5 3 3.5 3.2 5-.2-.1-.6-.3-1-.3-.2-1.6-1-3-2.4-4l.2-.6v-.1Zm-1.4 1.5c.4.2.6.2.8 0 .2-.3 0-.8 0-.9v.5c-.1.1-.2.3-.4.3-.1 0-.4 0-.5-.2-.1 0-.1-.2 0-.4v-.2s-.2 0-.3.2h-.4l-.2-.4c-.1-.2.2-.4.4-.5l-.7.1c-.2 0-.3-.4-.3-.6 0 0 .1-.2.3-.2h.4v-.2c-.3-.1-.8 0-.9.1v.6c.1.3.2.4.4.5h.3-.2l.2.6c.2.3.4.4.6.3l.2-.2-.1.2c0 .3.1.4.4.4Z"/><path fill="#272727" d="M173.7 52.3c.2-.2.5-.2.7 0-.2.1-.2.5-.1.7-.4 0-.5-.5-.6-.7Zm.7 0c.3 0 .4-.2.4-.3s.2-.2.2 0v.3h-.6Zm.2.4-.2.4-.2.2.4.1h.2l-.2-.7Zm26.2-.6v.7c.5 0 .6-.4.6-.7h-.6Zm-.1 0c-.3 0-.4-.1-.4-.3 0 0-.2-.2-.2 0l.1.3h.5Zm0 .8a1 1 0 0 1-.1-.4l-.2.7h.5l-.2-.3Z"/><path fill="#272727" d="M208.4 45.9h.5l-6.8 5.4-.1.2v.2h.3l.2.2c0 .2 0 .6-.3.6h-.6c.2 0 .5.2.3.4l-.2.4h-.4l-.4-.3.2.3v.4l-.6.2c-.2 0-.3-.2-.3-.4v-.4c-.2 0-.3.5 0 .9 0 .1.3.2.7 0 .3 0 .4-.1.4-.4v-.2l.1.2c.2 0 .4 0 .6-.3.3-.3.2-.4.2-.5l-.1-.1h.2c.2 0 .3-.2.4-.5v-.5l-.4-.2 6.7-5.3v.5l1.3-1.6-1.9.8Zm-3.6 1.6 4.8-6 .1.4.8-1.8-1.6 1.2h.5l-4.3 5.5-1 1.5.7-.8Z"/><path fill="#272727" d="m204.3 49.3 1.2-1 4-3.6v.4l1-1.7-1.7 1h.5l-4 3.8-1 1.1Zm4.4-.9-5.6 2.8-.2.2v.1l5.9-2.8v.4l1.4-1.3-2 .4.5.2Zm-8.5 6-.2-.2-1 2.1-.3.1-1.2 2.3.5-.2.2.6 1.2-2.3-.2-.4 1-2Z"/><path fill="#272727" d="m204.1 50.4 1.3-.6 3.7-2.5v.5l1.3-1.5-1.9.7.5.1-4 2.7-.9.6Zm-4.3 3.4v-.3l-1.4 1.4h-.4l-1.8 2 .5-.1v.4l1.6-2h.3l1.2-1.4Zm2.4-2.9.7-.5 6.5-7.2.1.5 1-1.8-1.7 1.1h.4l-6.8 7.5-.2.4Zm-5.8 4.9 2.4-1.7.7-.8-3 2h-.6l-2 1.3.6.1v.4l1.6-1.3h.3Zm-2 .2 1-.6.9-.6h.3l2.7-1.7-2.8 1.4h-.4l-2.3 1 .5.2v.3h.1Zm11-13.4h.4l-4.2 8.4h.1l.1.1 4.2-8.5.2.4.4-2-1.3 1.6h.1Zm.4 1.4h.5l-2.6 4-.9 1.7 3.7-5.6.2.5.6-2-1.5 1.4Z"/><mask id="b" width="400%" height="400%" x="-150%" y="-150%" mask-type="luminance"><path fill="#fff" d="M148.5 2.1h78.3v78.1h-78.3V2.1Z"/></mask></g><path fill="#272727" d="M35 148.4v2.9H14.8v-3H35v.1Zm31.5 0a11 11 0 0 1-7.5 2.9H37.8v-3h28.7v.1Zm30 0-1 2.9-1-3h2v.1Zm-9.7 0v2.9H72.4v-3h14.4v.1Zm31.7 0v2.9h-14.4v-3h14.4v.1Zm-48.8-5.5c-.2 1-.6 2-1.1 2.9H37.8v-3h32l-.1.1Zm28.7 0-1 2.9h-3.9l-1-3h5.9v.1Zm-11.6 0v2.9H72.4v-3h14.4v.1Zm31.7 0v2.9h-14.4v-3h14.4v.1Zm-83.5 0v2.9H14.8v-3H35v.1Zm-5.8-5.5v2.9h-8.6v-2.9h8.6Zm23 0v2.9h-8.6v-2.9h8.6Zm17.5 0c.2 1 .3 1.9.3 2.9h-9.6v-2.9h9.3Zm30.6 0-1 2.9h-7.7l-1-2.9h9.7Zm-13.5 0v2.9h-8.6v-2.9h8.6Zm26 0v2.9h-8.7v-2.9h8.7Zm-83.6-5.5v2.9h-8.6v-2.9h8.6Zm57.6 0v2.9h-8.6v-2.9h8.6Zm26 0v2.9h-8.7v-2.9h8.7Zm-46.6 0c.96.83 1.77 1.81 2.4 2.9h-25v-2.9h22.6Zm36 0-1 2.9H89.7l-1-2.9h13.5Zm-7.6-5.5.8 2.3.8-2.3h16.5v2.9h-8.6v-2.7l-1 2.7H87.7l-.9-2.7v2.7h-8.6v-2.9h16.4Zm-51 0h25c-.7 1.1-1.5 2-2.4 2.9H43.6v-2.9Zm-14.4 0v2.9h-8.6v-2.9h8.6Zm0-5.5v2.9h-8.6v-2.9h8.6Zm23 0v2.9h-8.6v-2.9h8.6Zm17.8 0c0 1 0 2-.3 2.9h-9.4v-2.9H70Zm22.7 0 1 2.9H78.3v-2.9h14.5-.1Zm20 0v2.9H97.3l1-2.9h14.5-.1ZM35 115.4v2.9H14.8v-2.9H35Zm33.6 0c.5 1 .9 1.9 1.1 2.9H37.8v-2.9h30.8Zm49.9 0v2.9H99.1l1-2.9h18.4Zm-27.7 0 1 2.9H72.4v-2.9h18.4ZM35 109.9v3H14.8v-3H35Zm24 0c2.8 0 5.4 1 7.5 3H37.8v-3H59Zm59.5 0v3H101l1-3h16.5Zm-29.6 0 1 3H72.3v-3h16.6Zm92.9 18.2a4 4 0 0 0-1.6 1.3c-.4.5-.6 1.2-.6 2a3 3 0 0 0 3.9 2.8c1-.3 1.7-1 2.1-2.2.2-.5.3-1.1.3-1.8v-3l-2 .3c-.7.1-1.4.3-2 .6h-.1Zm1.6-23.3a26 26 0 1 0-4.55 51.81 26 26 0 0 0 4.55-51.8Zm2 15.1c-.3-.6-1-.9-2.2-.9h-.3l-.7.2c-.4.2-.7.3-1 .6a6 6 0 0 0-2 2.8l-5.4-.5c0-.8.1-1.5.4-2.2s.7-1.4 1.2-2c.6-.6 1.2-1.2 2-1.7s1.7-.9 2.8-1.2c2.26-.59 4.64-.59 6.9 0a6.8 6.8 0 0 1 4.7 4.1c.2.5.2 1 .2 1.4V131l.3 1.2.6 1c.39.51.82.98 1.3 1.4l.2.2-4.2 4a63.12 63.12 0 0 1-2.5-2.4l-.3-.3-.5-.6a7.7 7.7 0 0 1-4.2 3c-.8.2-1.7.4-2.5.4-1 0-1.8-.1-2.6-.4s-1.5-.7-2.2-1.2a5.1 5.1 0 0 1-1.5-2 7 7 0 0 1-.6-3 7.2 7.2 0 0 1 2-4.7 13.2 13.2 0 0 1 6.6-3.1 21.3 21.3 0 0 1 4-.4v-2.5c0-.8 0-1.4-.3-1.8l-.2.1Zm10.5 22c-.79.77-1.66 1.44-2.6 2a19.8 19.8 0 0 1-21.8-1 24.52 24.52 0 0 1-4-3.4.8.8 0 0 1-.1-.3v-.2l.1-.2a.4.4 0 0 1 .5 0 32.01 32.01 0 0 0 5.5 3 24 24 0 0 0 14.8 1.8 33.6 33.6 0 0 0 7.7-2.5c.1 0 .2.1.2.3l-.3.6v-.1Zm3.5-1.7-.5 1.9c-.5 1-1 1.7-1.6 2.2-.2.2-.4.2-.5.2v-.5c.3-.5.5-1.2.8-2.2.3-.9.4-1.5.1-1.7l-.2-.2a2 2 0 0 0-.5-.1h-.6a6 6 0 0 0-1.2 0h-1.4l-.2.1h-.4c-.1-.3.2-.5.8-.8a5 5 0 0 1 2-.5h2c.7 0 1.2.2 1.3.4.2.2.2.6 0 1.2h.1Zm235.2-22.3c0-.8.8-1.2 2.1-1.2s2.1.3 2.1 1.2c0 1-1.3 1.2-2 1.2-1.4 0-2.2-.3-2.2-1.2Zm5.5 0c0-1.6-1.3-2.8-3.4-2.8-1.5 0-3.3.8-3.3 2.8s1.6 2.8 3.3 2.8c1.8 0 3.4-.9 3.4-2.8Zm-5.5 7.7v-1c0-.8.5-1 .8-1 .4 0 .9.3.9 1v1h-1.7Zm2.8 0v-1l2.6-1v-1.8l-2.9 1.2c-.2-.7-1-1.1-1.7-1.1-1.2 0-2 .8-2 2.3v3h6.6v-1.6h-2.7.1Zm-1.5 3c-1.6.2-2.5 1-2.5 2.7 0 2 1.5 2.9 3.3 2.9s3.4-1 3.4-2.9c0-1.5-1-2.5-2.4-2.7l-.1 1.5c.6 0 1.2.4 1.2 1.1 0 1.2-1.1 1.3-2 1.3-.8 0-2.2-.1-2.2-1.2 0-.8.6-1 1.4-1l-.1-1.7Zm4 7h-6.5v1.6h6.6v-1.5l-.1-.1Zm0 6.7v1l-5.3 1.6h5.4v1.3h-6.7v-2.4l4-1.1-4-1.2v-2.4h6.6v1.5h-5.4l5.4 1.7Zm-134.4 4h-24.7l-6-22.2v22.1h-10v-30.6h17.4l5.8 21.6v-21.6h10.3v4.6c-2.5 2.7-4 6-4 10.2 0 6 3.4 13.5 11.3 15.8l-.1.1Zm120.1-30.7v30.6H415v-24h-.1l-6.1 24H399l-6-24h-.2v24h-18.5l-2-6.6h-10l-1.8 6.6h-17.7l-.5-5.6c-.6-3.8-1.7-4.7-4-4.7h-3v10.3h-18.2c5.3-1.2 10-3.6 12.7-5.2l-3.8-14.5-10.1 2.7 2.1 8.2c-.6.5-2.7 1.2-4.2 1.2-4.8 0-7-4.9-7-9 0-6.8 6.7-9.4 12.8-9.4l3.4.2-1.2-4.8h21.1c8.4 0 11.7 4 11.7 8.3 0 6.4-6.1 7.7-7.3 7.9v.2a7 7 0 0 1 5.4 3.7l7-20.1h16.2l6.9 19.2v-19.2h17.5l4 16.8 4-16.8h17.4-.1Zm-177.2 0h11.7v30.6h-11.7v-30.6Zm119 6.6-3.3 10h6.8l-3.3-10h-.2Zm-32.2 6.8h3.5c2.8 0 4-1.5 4-3.3 0-2.3-2-3.2-4-3.2h-3.5v6.5Zm151-11.8a8.2 8.2 0 0 0-5.3 3.5 10 10 0 0 0-1.6 4.2c-.3 1.4-.2 3.4.2 5.3a20 20 0 0 0 4.5 8.9 17 17 0 0 0 6.9 4.5c2.4.8 5 .8 7.4 0a18.1 18.1 0 0 0 7-5.2l.4-.4a19 19 0 0 0 4-11.9l-.2-1.2c-.6-4-2.8-6.6-6.3-7.6l-2.2-.1c-1.5 0-1.7 0-2.5.2-1.2.3-2.6.9-3.8 1.6l-.3.1-.9-.4c-1.2-.7-2-1-3.1-1.3-.8-.2-1-.2-2.4-.2h-1.8Zm3.2 2.8c.7 0 1.4.3 2.2.7l.4.2-.8.9a19.51 19.51 0 0 0-5.1 9.4c-.2 1-.2 1.2-.2 3-.07 1.01 0 2.02.2 3l-1.5-1.8c-2-2.9-3-6.7-2.7-9.8.2-1 .6-2.5 1-3.2.6-1 1.8-2 2.9-2.3 1-.3 2.4-.4 3.6-.1Zm13.3 0c3 .8 4.7 4.2 4.2 8.6a15.5 15.5 0 0 1-4.1 8.6v-.6a15 15 0 0 0-1-8.4l-.7-1.3c-.3-.7-.5-.8-.8-.7a73.87 73.87 0 0 0-6.4 4c-.2.1-.1.6.2 1l.5.8c.3.4.4.5.6.5l3.4-2.1.8-.5.6 2a10 10 0 0 1-1.2 7.6 5.3 5.3 0 0 1-4.7 2c-1.5 0-2.4-.4-3.5-1.5-.6-.6-.8-.8-1-1.4a10.5 10.5 0 0 1-.5-7.5c1.1-4.8 5-9.2 9.1-10.7l2.1-.5c.6 0 1.8 0 2.4.2v-.1Zm20.6 2.7c-.8 0-1.6.2-1.8.3l-1 .4c-1 .4-1.8 1-2.7 1.9-.8.7-1 1-1.3 1.6-.7 1.4-1 2.7-1 4.4a8 8 0 0 0 1.2 3.9c.56.8 1.24 1.5 2 2.1.9.6 2.2 1.2 3 1.4h3.3c1.3-.34 2.5-1 3.5-1.9l.4-.4v.8l.1 1 .2.3h2.3c.2-.2.2-.5.2-3.6l-.1-3.4h-6.3l-.2.1c-.2.2-.2.3-.2 1.1 0 1 0 1 .2 1.1.3.2.3.2 1.3.2l1 .1c0 .2-.8.8-1.3 1-.8.4-1.7.6-2.6.5a4.4 4.4 0 0 1-4.2-3.4l-.2-1.5c0-.9 0-1 .3-1.6a4.7 4.7 0 0 1 2.9-3 6 6 0 0 1 2.7-.2c1.3.3 2.4 1 3 2.1.3.6.4.7 1 .4 1.1-.3 2.2-.8 2.3-1 0 0-.2-.7-.7-1.5-.8-1.2-1.8-2-3.2-2.6l-.8-.3a11 11 0 0 0-3.3-.3Zm22.2.3-.2.2v7.5l.1 7.6.1.2h3.6c3.6 0 3.7 0 5-.3a7.2 7.2 0 0 0 5.7-7.5c0-1.8-.1-2.3-.7-3.6-1-2-2.7-3.3-5.3-4-1.2-.2-1.6-.2-5-.2l-3.3.1Zm7.6 3.2c1 .3 1.9.9 2.5 1.9l.6 1c.2.7.2 1.7.1 2.4 0 .6-.3 1.4-.4 1.5l-.4.5a4 4 0 0 1-2.5 1.8 9 9 0 0 1-2.5.1h-1.9v-4.6l.1-4.8h2c1.4 0 2 0 2.4.2Zm29-3.3c-.4.1-.4.3-.4 3v2.8l-.4-.3c-1.3-1.3-3.7-1.4-5.5-.3l-1 .8a6.1 6.1 0 0 0-1 6.9c1 2 3 3.2 5 3 1.2 0 1.8-.3 2.6-1.1l.3-.3v.4c0 .2 0 .4.2.5 0 .2.1.2 1.4.2l1.4-.1c.1-.1.2-1 .2-7.6 0-7.5 0-7.6-.2-7.7-.2-.2-.2-.2-1.3-.2H582h.1Zm-1.9 7.6c.5.2 1.1.9 1.4 1.4.1.4.2.5.2 1.2s0 .8-.3 1.3c-.5 1-1.3 1.4-2.3 1.4-1.6 0-2.7-1.2-2.6-2.9 0-.8.3-1.4.9-1.9.6-.6 1-.7 1.8-.7l.9.2Zm14.4-7.4-.2.2v5.3l-.5-.3a4 4 0 0 0-1.5-1l-2.6.1c-1 .3-2.2 1-2.8 1.9l-.4.5-.5 1.2c-.3.8-.4 1.8-.3 2.7 0 .7.4 1.8.6 2.1a7 7 0 0 0 2.3 2.3c.8.4 1.4.6 2.2.6 1.2.1 2.1-.2 3-1l.4-.4v.3c0 .4.2.7.3.8h2.7c.3-.2.3-.6.3-7.8 0-7.7 0-7.6-.4-7.8h-1.3c-1 0-1.1 0-1.3.2v.1Zm-1.8 7.4c.5.3 1 .7 1.2 1.2l.3.5.1.8c0 .7 0 .8-.2 1.2-.5 1-1.2 1.5-2.2 1.6-1.1 0-2-.4-2.4-1.4-.3-.5-.3-.6-.3-1.3s0-.8.2-1.2l.8-1c.6-.6 1.8-.8 2.5-.4Zm18-5.3v.6l.1.6.1-.4v-.3l.2.3.2.2s.2 0 .2-.2l.2-.3v.3l.1.4c.2 0 .2 0 .2-.6 0-.5 0-.6-.2-.6l-.3.3-.2.3-.1-.2-.2-.4h-.3Zm-73.3 2.4c-2 .4-3.7 1.7-4.4 3.6a6 6 0 0 0-.2 3.4l.1.4a7 7 0 0 0 1.2 2 6.1 6.1 0 0 0 2 1.4l.7.3a7 7 0 0 0 3.2 0c.7-.1 1.8-.7 2.5-1.2a5.7 5.7 0 0 0-1.4-9.5c-1-.5-2.6-.7-3.7-.4Zm2 3 .5.3c1 .9 1.2 1.3 1.3 2.3 0 .6 0 .7-.3 1.2-.4.7-1 1.2-2 1.4s-2.2-.3-2.8-1.4c-.2-.6-.3-1.6 0-2.2.2-.5.8-1.3 1.3-1.5.6-.3 1.3-.3 2 0v-.1Zm26-3.1-1.6.4a5 5 0 0 0-3 3.1 6.2 6.2 0 0 0 .3 4.9 5 5 0 0 0 2.4 2.4l.4.2c0 .2 1.6.5 2.4.4 1 0 1.6-.3 2.4-1.1l.4-.3v.4l.1.5c.1.2.1.2 1.5.2l1.4-.1c.2-.1.2-.6.2-5.3 0-4.9 0-5.2-.2-5.3l-1.4-.1c-1.5 0-1.6 0-1.6.6v.4l-.4-.3a4 4 0 0 0-1.8-1h-1.7.2Zm2 3 .9.7c.5.5.5.6.7 1.1.4 1.4-.1 2.8-1.4 3.4-.6.3-1.5.3-2.2 0a3 3 0 0 1-1.2-1.3l-.1-1.2c0-.7 0-.9.2-1.2a3 3 0 0 1 1.5-1.4c.6-.2 1-.2 1.6 0v-.1Zm31-2.7c-.2.2-.2.5.2 1.8l2.8 8.8c.2.2.2.2 1 .2.7 0 .9 0 .8.1l-.1.6c-.3 1-.7 1.3-1.6 1.3-.5 0-.6 0-1.1-.3-.7-.4-1-.4-1.2-.1-.3.3-1 1.4-1 1.6 0 .3.3.6 1 1 1.4.6 3.5.6 4.8 0 .6-.4 1.3-1.1 1.6-1.8l.8-2.3a334.6 334.6 0 0 1 3-10.6v-.2l-1.6-.1-1.5.1-1 3.2-1.2 4.7c-.83-2.47-1.6-4.97-2.3-7.5-.1-.5-.2-.5-1.8-.5h-1.6Z"/><g mask="url(#c)" transform="translate(-662.18 6.3)"><g fill="#272727"><path d="M1024.9 82.5c-22.2 0-40-18.4-40-41.1a40.6 40.6 0 0 1 40-41.2c22 0 40 18.5 40 41.2s-18 41.1-40 41.1Zm0-76a34.4 34.4 0 0 0-34 34.9 34.4 34.4 0 0 0 34 34.8 34.4 34.4 0 0 0 33.8-34.8 34.4 34.4 0 0 0-33.8-34.8v-.1Z"/><path d="M1038.1 70.2c-1.3 0-6-8.6-6.7-11-1.3-5.2-1-7.4-1-8 .3-2.2 2.3-3.2 2.4-6.1l.8-8.8c-.8-.1-1.7-.5-2.5-1.1 2.3 3-1 6.9-6 11.9-5.2 5.3-16.7 10.2-16.7 10.2s4.8-11.8 10-17.1c3.9-3.9 7-6.9 9.6-6.9.7 0 1.4.3 2.1.8a6 6 0 0 1-1.2-2.5l-8.6.8c-2.8.1-3.8 2.2-5.9 2.4l-1.3.1c-2.2-.08-4.38-.41-6.5-1-2.7-.8-12.4-6.4-10.7-7.1.9-.4 3.7-.6 7.4-.6 3.5 0 8 .2 12.2.8 5.3.7 10.2 1.6 13.5 2.2l.2-.5-3.4-1.7s-2.7-3.1-2.4-3.4c.5 0 2.6 2.6 2.9 2.8l2 .7-1-.8s-1.3-5-1-5.1c.4 0 1.6 4.3 1.7 4.6l2 1.1-1-2.7s.5-4.5.8-4.5c.4 0 0 3.8-.1 4.2l1.7 2.7c.5-.2 1-.3 1.6-.3s1.3.2 1.9.4c-.8-1.7-.7-3.5.3-4.6.3-.4.8-.6 1.2-.7 0-.4.2-.7.4-.9a2 2 0 0 1 1.2-.5c.4 0 .8.2 1.2.5.3.4.4.8.5 1.2.5-1 1-2.5 1-3 0-1-1.3-3-1.3-3v-.3a.3.3 0 0 1 .4 0c.1.1 1.3 2 1.4 3.3.1.6-.7 2.4-1 3.2a7.48 7.48 0 0 1 2.9 3c1.01-.5 2.09-.84 3.2-1 1.2 0 3 1.3 3.2 1.3 0 .1.1.3 0 .4a.32.32 0 0 1-.15.04c-.05 0-.1-.01-.15-.04s-1.9-1.2-3-1.3c-.5 0-1.9.6-2.9 1.1.4 0 .8.2 1.2.5.6.7.6 1.8 0 2.4-.2.2-.5.4-.8.4-.15.5-.43.94-.8 1.3-.5.6-1.3.8-2.2.8-.7 0-1.5-.2-2.3-.5a5.02 5.02 0 0 1 0 3.5c1.3.8 2.6 1.6 2.7 1.8l3.4-.3.8.1c0 .4-4.4.9-4.4.9l-2.7-1.1 1 2c.4.2 4.7 1.4 4.6 1.8h-.2c-1 0-4.8-1-4.8-1l-.8-1 .7 2c.3.3 3 2.7 2.7 3-.5 0-3.3-2.5-3.3-2.5l-1.6-3.5-.6.2c.7 3.4 1.6 8.4 2.3 13.8.94 6.7.91 13.5-.1 20.2Zm17.5 6.9h-2v5.2h-1.2v-5.2h-1.9v-1h5v1h.1Zm2.4-1.1 1.6 4.6 1.6-4.6h1.6v6.3h-1.2v-4.7l-1.6 4.7h-.9l-1.6-4.7.1 3v1.7h-1.3v-6.4h1.7v.1Z"/></g><mask id="c" width="400%" height="400%" x="-150%" y="-150%" mask-type="luminance"><path fill="#fff" d="M984.1 0h83.5v82.3h-83.5V0Z"/></mask></g><path fill="#272727" d="M520.35 63.32h-3.7v-14.8h3.7v14.8Zm30-10.5c-.1-.1-1.3-.8-3.1-.8-2.4 0-4 1.6-4 3.9 0 2.2 1.5 4 4 4 1.7 0 3-.8 3.1-.9v4c-.4.1-1.7.5-3.4.5-4.2 0-7.8-2.9-7.8-7.6 0-4.4 3.3-7.6 7.8-7.6 1.8 0 3 .4 3.4.5v4Zm-38.8 0c-.2-.1-1.4-.8-3.2-.8-2.4 0-4 1.6-4 3.9 0 2.2 1.6 4 4 4 1.8 0 3-.8 3.2-.9v4c-.5.1-1.8.5-3.4.5-4.2 0-7.9-2.9-7.9-7.6 0-4.4 3.3-7.6 7.9-7.6 1.7 0 3 .4 3.4.5v4Zm50.5-.8a3.82 3.82 0 0 0-3.8 3.9c0 2.1 1.6 3.9 3.8 3.9a3.98 3.98 0 0 0 3.9-4c0-2-1.7-3.8-3.9-3.8Zm7.8 3.9c0 4.2-3.2 7.6-7.8 7.6a7.63 7.63 0 0 1-7.2-4.64 7.58 7.58 0 0 1 7.2-10.55c4.6 0 7.8 3.4 7.8 7.6Zm-35.3-4.1s-1.6-.5-2.9-.5c-1.5 0-2.3.5-2.3 1.2 0 1 1.1 1.2 1.7 1.4l1 .4c2.5.7 3.6 2.4 3.6 4.2 0 3.7-3.3 5-6.1 5-2 0-3.9-.4-4-.5v-3.2c.3.1 1.8.6 3.4.6 1.9 0 2.8-.6 2.8-1.4 0-.7-.8-1.2-1.7-1.5l-.8-.2c-2-.7-3.8-1.9-3.8-4.3 0-2.8 2-4.6 5.5-4.6 1.8 0 3.5.4 3.6.4v3.2-.2Zm-38.2-19.1a1.83 1.83 0 0 0-1.85-1.85 1.86 1.86 0 0 0-1.85 1.85v3.8a1.9 1.9 0 0 0 3.1 1.3c.4-.3.6-.8.6-1.3v-3.8Zm10.1-5.1a1.83 1.83 0 0 0-1.85-1.85c-.49 0-.96.2-1.3.55-.35.34-.55.81-.55 1.3v9a1.9 1.9 0 0 0 3.7 0v-9Zm10.2-7a1.83 1.83 0 0 0-1.85-1.85c-.49 0-.96.2-1.3.55-.35.34-.55.81-.55 1.3v19.6a1.9 1.9 0 0 0 3.1 1.3c.4-.3.6-.8.6-1.3v-19.6Zm10.1 7a1.83 1.83 0 0 0-1.85-1.85c-.49 0-.96.2-1.3.55-.35.34-.55.81-.55 1.3v9a1.9 1.9 0 0 0 3.7 0v-9Zm10.2 5a1.84 1.84 0 0 0-1.85-1.85c-.49 0-.96.2-1.3.55-.35.34-.55.81-.55 1.3v4a1.86 1.86 0 0 0 3.16 1.3c.35-.33.54-.8.54-1.3v-4Zm10.1-5a1.83 1.83 0 0 0-1.85-1.85c-.49 0-.96.2-1.3.55-.35.34-.55.81-.55 1.3v9a1.86 1.86 0 0 0 3.16 1.3c.35-.33.54-.8.54-1.3v-9Zm10.2-7a1.83 1.83 0 0 0-1.85-1.85c-.49 0-.96.2-1.3.55-.35.34-.55.81-.55 1.3v19.6c-.03.26 0 .51.08.75.07.25.2.47.37.66.35.38.84.6 1.35.6a1.79 1.79 0 0 0 1.42-.56 1.86 1.86 0 0 0 .48-1.45v-19.6Zm10.1 7c0-1-.8-1.9-1.8-1.9a1.81 1.81 0 0 0-1.38.52c-.18.19-.3.4-.4.64-.1.24-.13.49-.12.74v9c0 1 .9 1.8 1.9 1.8s1.8-.8 1.8-1.9v-9 .1Zm10.2 5a1.84 1.84 0 0 0-1.85-1.85c-.49 0-.96.2-1.3.55-.35.34-.55.81-.55 1.3v4a1.86 1.86 0 0 0 3.16 1.3c.35-.33.54-.8.54-1.3v-4Zm-2.2 28.7v.3h-.6v1.7h-.3v-1.7h-.6v-.3h1.5Zm.2 0h.4l.6 1.6.6-1.6h.4v2h-.3v-1.6l-.6 1.6h-.3l-.5-1.6v1.6h-.3v-2Z"/></svg>