<svg width="193" height="842" viewBox="0 0 193 842" fill="none" xmlns="http://www.w3.org/2000/svg">
<mask id="mask0_1693_345" style="mask-type:luminance" maskUnits="userSpaceOnUse" x="62" y="0" width="69" height="69">
<path d="M62.3999 0.25H130.9V68.75H62.3999V0.25Z" fill="white"/>
</mask>
<g mask="url(#mask0_1693_345)">
<path d="M84.8 64.55L85.3 63.25H85.5L85 64.65H84.8V64.55ZM82 63.35L82.7 62.05L82.8 62.15L83 63.45L83.5 62.45L83.6 62.55L83 63.85H82.8L82.7 62.45L82.2 63.45H82V63.35ZM78.6 61.55L79.4 60.35L79.5 60.45L78.7 61.65H78.6V61.55ZM78.2 61.35V61.15L79.2 61.75V61.95L78.2 61.35ZM76.1 58.15L76.2 57.95L76.8 58.45L76.7 58.65L76.1 58.15ZM75.9 59.55L76.8 58.55H76.9L76 59.75L75.9 59.55ZM75.8 58.65L76.4 59.05H76.3L75.8 58.65ZM75.3 59.15L75.4 58.95L76 59.45L75.9 59.65L75.3 59.15ZM73.2 57.25L72.9 56.95L72.7 56.65V56.45L72.9 56.25C72.9962 56.2111 73.1038 56.2111 73.2 56.25H73.4L73.7 56.55V56.65L73.4 56.45L73.3 56.35H73V56.55C72.9 56.55 72.9 56.55 73 56.65V56.85L73.2 57.05L74.2 56.05V56.25L73.2 57.25ZM73.7 55.65L73.4 56.35V56.25L73.5 55.55L73.7 55.65ZM70 53.45L71 52.65L71.2 52.75L70.7 54.05L71.7 53.35V53.55L70.6 54.35L70.5 54.25L70.9 52.95L70 53.65V53.45ZM67.8 49.85L69.1 49.65L69.2 49.85L67.7 50.05V49.95L67.8 49.85ZM68.8 48.85L67.8 49.95H67.7L68.7 48.75V48.95L68.8 48.85ZM68.3 49.15H68.4L68.8 49.85H68.6L68.3 49.15ZM66 46.35L67.4 45.85V46.05L66.1 46.55V46.35H66ZM65.9 45.95H66L66.4 46.95H66.3L65.9 45.95ZM65 43.35L66.3 42.95V43.15L65 43.55V43.35ZM64.8 40.25H65.2L65.4 40.35L65.6 40.55L65.7 40.75V40.95L65.6 41.15L65.4 41.35H65.1V41.45C64.968 41.4769 64.832 41.4769 64.7 41.45H64.5L64.3 41.25V40.55L64.5 40.45L64.8 40.35V40.25ZM64.9 40.45L64.6 40.55L64.5 40.65C64.4737 40.6956 64.4598 40.7473 64.4598 40.8C64.4598 40.8527 64.4737 40.9044 64.5 40.95V41.15L64.8 41.25H65.3L65.5 41.05C65.5263 41.0044 65.5402 40.9527 65.5402 40.9C65.5402 40.8473 65.5263 40.7956 65.5 40.75V40.65L65.4 40.55H64.9V40.45ZM63.5 35.45H64.9V35.65L63.9 36.35H64.9V36.55H63.5V36.45L64.6 35.65H63.5V35.45ZM63.7 31.25L65 31.85V32.05L63.6 31.35V31.25H63.7ZM65 30.95L63.7 31.35H63.6V31.15L65.1 30.85V30.95H65ZM64.5 30.95H64.7L64.6 31.75H64.4L64.5 30.95ZM65.5 26.85H65.6L65.5 27.55H65.3L65.5 26.85ZM64.1 27.25L65.5 27.55V27.75L64 27.35V27.25H64.1ZM65.8 21.75L66.8 22.75V22.85L65.6 21.85V21.65L65.8 21.75ZM67.1 21.95L65.7 21.85V21.65H67.2V21.95H67.1ZM66.6 21.75H66.8L66.5 22.55H66.3L66.6 21.75ZM68.5 18.15H68.3L68.1 18.25L68 18.35L67.8 18.45H67.5C67.4638 18.4094 67.4363 18.3619 67.4191 18.3103C67.4019 18.2587 67.3954 18.2042 67.4 18.15V17.85L67.6 17.65C67.6709 17.5932 67.7591 17.5623 67.85 17.5623C67.9409 17.5623 68.029 17.5932 68.1 17.65L68 17.75H67.7L67.6 17.95V18.25H68L68.1 18.15L68.3 17.95H68.7L68.8 18.05V18.15C68.9 18.25 68.8 18.35 68.8 18.35C68.8076 18.4904 68.7727 18.6297 68.7 18.75H68.5L68.3 18.85H68.2V18.65H68.6V18.45L68.7 18.35V18.15H68.5ZM70.4 15.15H69.9L69.8 15.35H69.3V15.25L69.2 15.05V14.85L69.3 14.75L69.5 14.55H69.9V14.75L69.7 14.65H69.6L69.4 14.75V15.15H69.8L70 14.95H70.5V15.05L70.6 15.25V15.45C70.5288 15.5752 70.4252 15.6788 70.3 15.75H70.2C70.2 15.75 70.1 15.85 70 15.75H69.8L69.9 15.65H70.2C70.2959 15.5729 70.3657 15.4681 70.4 15.35V15.15ZM72.6 11.75L72.8 12.05V12.65L72.5 12.85H72.1L71.8 12.65V12.55L71.6 12.35V12.05C71.5724 11.9869 71.5582 11.9188 71.5582 11.85C71.5582 11.7812 71.5724 11.7131 71.6 11.65L71.9 11.55H72.3C72.4 11.55 72.5 11.55 72.6 11.75ZM72.5 11.95V11.85L72.3 11.75L72.1 11.65H71.9L71.8 11.75L71.7 11.85V12.25L71.9 12.45L72.1 12.65H72.3C72.3456 12.6763 72.3974 12.6902 72.45 12.6902C72.5027 12.6902 72.5544 12.6763 72.6 12.65L72.7 12.45V12.05L72.5 11.95ZM76 8.85001L76.2 8.75V9.25L76 9.45L75.8 9.55H75.4L75.2 9.25L75.1 9.14999L75 8.95V8.64999C75 8.57237 75.0181 8.49582 75.0528 8.42639C75.0875 8.35696 75.1379 8.29657 75.2 8.25L75.4 8.14999H75.6L75.9 8.35001H75.2V8.55L75.1 8.64999V8.85001L75.2 9.05H75.3C75.3 9.25 75.4 9.25 75.5 9.25L75.6 9.35001H76L76.2 9.14999V8.85001H76ZM78.2 6.05L78.9 7.25H78.8L78 6.14999L78.2 6.05ZM80.2 4.85001L80.4 6.25H80.2L80 4.85001L80.1 4.75L80.2 4.85001ZM81.2 5.85001L80.2 4.85001H80.1V4.75L81.3 5.75L81.1 5.85001H81.2ZM80.9 5.35001V5.55L80.2 5.85001V5.75L80.9 5.35001ZM83.7 3.05L84.1 4.45H84L83.5 3.14999H83.7V3.05ZM84.1 2.95V3.05L83.1 3.45V3.35001L84.1 2.95ZM86.8 2.05L87.1 3.45H86.9L86.6 2.14999H86.7L86.8 2.05ZM89.8 1.95V2.64999L89.6 2.75L89.3 2.85001H89.1L88.9 2.75L88.7 2.55V1.64999L88.9 1.45H89.5L89.7 1.75V1.95H89.8ZM89.6 2.14999V1.85001L89.4 1.64999C89.3544 1.62366 89.3027 1.6098 89.25 1.6098C89.1973 1.6098 89.1456 1.62366 89.1 1.64999H89L88.9 1.75V1.95C88.8 1.95 88.8 2.04999 88.9 2.14999V2.45L89 2.64999C89.0456 2.67632 89.0974 2.69019 89.15 2.69019C89.2027 2.69019 89.2544 2.67632 89.3 2.64999H89.5V2.55L89.6 2.35001V2.14999ZM94.4 0.75V2.25H94.2L93.5 1.14999V2.14999H93.3V0.75H93.5L94.2 1.85001V0.850006H94.4V0.75ZM99.9 1.05L99.6 2.55H99.5L99.7 1.05H99.9ZM100.4 1.85001V1.95H99.7V1.75H100.4V1.85001ZM100.6 1.25V1.35001L99.8 1.25V1.05L100.6 1.25ZM104.2 2.55L104 2.95L103.9 3.05L103.6 3.14999H103.4L103.2 3.05L103.1 2.85001V2.55C103 2.55 103.1 2.45001 103.1 2.35001V2.25L103.2 1.95L103.4 1.75C103.463 1.72247 103.531 1.70825 103.6 1.70825C103.669 1.70825 103.737 1.72247 103.8 1.75H104L104.2 2.05V2.55ZM104 2.55V2.05L103.8 1.85001H103.5L103.3 2.05V2.35001L103.2 2.55V2.75L103.3 2.95H103.8V2.75L104 2.55ZM108 3.25L108.4 3.35001L108.6 3.55L108.7 3.75V4.05C108.669 4.1045 108.626 4.15098 108.574 4.18571C108.522 4.22045 108.462 4.24247 108.4 4.25H108.2L107.7 4.05V3.85001L108.1 4.05H108.3C108.339 4.05515 108.38 4.04838 108.415 4.03056C108.451 4.01275 108.48 3.98469 108.5 3.95V3.64999L108.3 3.55L108.1 3.45L107.5 4.55H107.4L107.9 3.14999L108 3.25ZM108.1 4.85001V4.14999H108.2L108.3 4.95H108.1V4.85001ZM113.1 7.25H113.3L113.1 7.45H112.8L112.6 7.35001L112.4 7.14999V6.45H112.6L112.7 6.14999L113 6.05H113.4C113.4 6.25 113.5 6.25001 113.6 6.35001V6.85001L113.4 6.75V6.25H112.7V6.45L112.5 6.55V6.75L112.4 6.95V7.05L112.5 7.25H113H113.1ZM116.3 8.25L116.6 8.64999L116.8 8.85001V9.35001C116.749 9.40142 116.684 9.43789 116.614 9.45551C116.543 9.47312 116.469 9.47122 116.4 9.45H116.2L115.8 9.05H115.9L116.2 9.14999L116.3 9.25H116.5L116.7 9.05V8.95L116.5 8.75L116.3 8.55L115.5 9.55L115.3 9.45L116.3 8.35001V8.25ZM116 9.95L116.1 9.25L116.3 9.35001L116.1 10.15L116 9.95ZM119.2 11.05L118.9 11.85L119.7 11.65L119.9 11.75L118.9 11.95L118.5 12.35L118.3 12.25L118.7 11.85L119.1 10.85L119.2 11.05ZM121.3 14.95L121.1 14.65L121.4 14.85L121.5 15.05H121.8V14.85L121.9 14.75V14.55L121.7 14.25L120.7 15.05L120.5 14.85L121.7 14.05L122 14.45V14.75C122.021 14.8195 122.023 14.8934 122.005 14.9639C121.988 15.0344 121.951 15.0987 121.9 15.15H121.5C121.4 15.15 121.3 15.15 121.3 14.95ZM124 17.85L122.7 18.45L122.6 18.35L123.9 17.65V17.85H124ZM124.2 18.25H124L123.5 17.25H123.7L124.2 18.25ZM125.1 21.85C124.968 21.8769 124.832 21.8769 124.7 21.85H124.3L124.2 21.55V21.15L124.4 20.95L124.6 20.75H125.2L125.4 20.85L125.6 21.05V21.55L125.4 21.65L125.1 21.85ZM125 21.65H125.2L125.4 21.45V20.95H124.6L124.4 21.05L124.3 21.25C124.274 21.2956 124.26 21.3473 124.26 21.4C124.26 21.4527 124.274 21.5044 124.3 21.55V21.65H124.4L124.6 21.75H124.9L125 21.65ZM125.8 26.35H125.6L125.5 25.75H125.6L125.8 26.35ZM126.8 25.35L125.5 25.75V25.55L126.8 25.25V25.45V25.35ZM127 29.55C126.868 29.5769 126.732 29.5769 126.6 29.55H126.4L126.3 29.35L126.2 29.05V28.85L126.3 28.65L126.5 28.55L126.8 28.45H127.2L127.4 28.55C127.481 28.5845 127.551 28.6396 127.604 28.7098C127.656 28.78 127.69 28.8629 127.7 28.95V29.15L127.5 29.35L127.3 29.55H127ZM127 29.45L127.2 29.35H127.4V29.15L127.5 28.95V28.85L127.3 28.65H126.6L126.5 28.75L126.4 28.95V29.25L126.5 29.35H126.9L127 29.45ZM127.1 34.45H126.6C126.535 34.3634 126.5 34.2582 126.5 34.15C126.447 33.9876 126.447 33.8124 126.5 33.65L126.6 33.45L126.9 33.35H127.5L127.7 33.55L127.9 33.65V34.25L127.7 34.35H127.4V34.25H127.6L127.7 34.15V33.65L127.5 33.55H126.7C126.664 33.5906 126.636 33.6381 126.619 33.6897C126.602 33.7413 126.595 33.7958 126.6 33.85V34.25H127V34.05H127.2V34.55L127.1 34.45ZM127.6 38.25L126.2 37.95V37.75L127.7 37.95V38.15L127.6 38.25ZM126.2 40.55V40.75L126 40.65L125.9 40.45V39.95L126.1 39.75H126.8L127 39.85L127.2 40.05L127.3 40.25V40.45L127.2 40.75L127 40.85H126.7V40.75H126.9L127.1 40.65V40.15L126.9 40.05H126.7L126.6 39.95H126.1V40.15C126 40.15 126 40.25 126.1 40.35V40.45L126.2 40.55ZM125.6 45.75L125.4 46.15L125.2 46.35L125 46.45H124.8L124.7 46.35L124.6 46.15V45.95L124.8 45.55H124.9L124.8 45.85V46.05C124.777 46.1147 124.777 46.1853 124.8 46.25H125.2V46.15L125.4 45.85L124.2 45.35V45.15L125.6 45.75ZM123.9 45.95L124.7 45.85L124.6 46.05H123.9V45.95ZM122.5 49.55L122.3 49.45L122.7 48.75L122.8 48.85L122.5 49.55ZM123.9 49.55L122.7 48.85V48.65L124 49.35V49.55H123.9ZM123.1 49.75H122.9L123.3 49.15H123.4L123.1 49.75ZM123.5 50.15L123.8 49.45H123.9L123.5 50.15ZM120.9 52.45H121.1L121.3 52.35L121.4 52.25L121.6 52.15H121.8L122 52.35V52.65L121.9 52.85L121.7 53.05C121.639 53.0851 121.57 53.1036 121.5 53.1036C121.43 53.1036 121.361 53.0851 121.3 53.05V52.85H121.7L121.9 52.75V52.35H121.5L121.4 52.45L121.2 52.55H121C121 52.65 121 52.65 120.9 52.55H120.7C120.664 52.5094 120.636 52.4619 120.619 52.4103C120.602 52.3587 120.595 52.3042 120.6 52.25V52.15L120.7 51.95L120.9 51.75H121.4L121.3 51.95H120.9C120.854 52.0098 120.82 52.0777 120.8 52.15V52.35L120.9 52.45ZM118.3 55.15V55.05L118.7 54.45L118.8 54.65L118.3 55.15ZM119.7 55.55L118.7 54.55L118.8 54.35L119.8 55.35V55.55H119.7ZM118.9 55.55L118.8 55.45L119.2 54.95L119.3 55.05L118.9 55.55ZM119.2 56.05V55.95L119.6 55.35L119.8 55.45L119.2 56.05ZM116.8 58.25L116.4 57.05L116.5 56.85L117 58.35L116.9 58.45L116.8 58.35V58.25ZM115.7 57.55L116.9 58.25V58.45L115.5 57.65H115.7V57.55ZM116 57.95V57.85L116.6 57.35V57.45L116 57.95ZM113.9 60.85L113.5 61.05L113.2 61.15H113L112.8 60.95V60.65L112.9 60.45L113.3 60.15V60.25L113.1 60.45L113 60.55C112.974 60.5956 112.96 60.6473 112.96 60.7C112.96 60.7527 112.974 60.8044 113 60.85V60.95H113.4L113.6 60.75L113 59.75L113.1 59.55L113.9 60.85ZM112.4 60.05L113.1 60.45H112.9L112.3 60.15L112.4 60.05ZM109.4 62.35L109.2 62.45V61.95L109.5 61.85H110.1L110.3 62.15V62.35L110.4 62.55V62.85C110.375 62.9189 110.335 62.9816 110.283 63.0334C110.232 63.0852 110.169 63.125 110.1 63.15H109.6L109.4 62.95H109.7L109.9 63.05H110L110.2 62.95V62.25L110 61.95H109.9L109.7 61.85H109.6L109.4 61.95V62.35ZM105.5 64.35V64.25L106.2 63.95V64.15L105.5 64.35ZM106.5 64.75L106 63.35H106.2L106.6 64.65H106.4L106.5 64.75ZM105.5 64.95L105.1 63.65H105.3L105.7 64.95H105.6H105.5ZM106.4 34.25H96.2V44.95H106.4V34.25ZM95.5 34.25H85.3V44.95H95.5V34.25ZM95.5 22.55H85.3V33.55H95.5V22.55ZM106.4 22.55H96.2V33.55H106.4V22.55ZM107.2 21.95H119.6C117 16.35 112.6 11.95 107.2 9.14999V21.95ZM107.2 33.45H122.2C122.199 29.6963 121.416 25.984 119.9 22.55H107.2V33.55V33.45ZM84.5 44.95V34.15H69.2C69.2 37.95 70.2 41.55 71.8 44.95H84.5ZM84.5 22.55H71.5C69.9703 26.0148 69.1867 29.7626 69.2 33.55H84.5V22.55ZM84.5 21.95V8.95C78.9 11.65 74.5 16.25 71.8 21.95H84.5ZM84.5 45.75H72.1C74.8 51.05 79.1 55.35 84.5 57.85V45.85V45.75ZM95.5 6.45C92 6.45 88.5 7.24999 85.3 8.64999V21.95H95.5V6.45ZM122 34.25H107.2V44.95H119.6C121.2 41.55 122 37.95 122.1 34.15L122 34.25ZM107.2 45.75V57.75C112.386 55.1437 116.594 50.9358 119.2 45.75H107.2ZM96.2 6.45V21.95H106.4V8.85001C103.172 7.4436 99.7166 6.63059 96.2 6.45ZM95.5 60.35V45.75H85.3V58.25C88.5 59.75 92 60.55 95.5 60.45V60.35ZM106.4 45.75H96.2V60.35C99.7 60.35 103.2 59.55 106.4 58.05V45.75Z" fill="#272727"/>
<path d="M78.2002 24.4501H77.2002V23.2501H78.2002V24.4501ZM78.2002 31.8501H77.2002V25.4501H78.2002V31.8501ZM104.1 18.5501L103 19.2501H100.3L99.2002 18.5501L98.3002 17.5501L98.0002 16.3501V15.6501C98.0002 15.2501 98.2002 14.8501 98.3002 14.5501L99.2002 13.5501L100.3 12.8501H103L104.1 13.5501L103.3 14.3501L103 14.0501C102.889 13.9468 102.75 13.8774 102.6 13.8501H100.6L100 14.1501L99.5002 14.8501L99.3002 15.6501V16.3501C99.3002 16.6501 99.3002 16.9501 99.5002 17.1501L100 17.8501L100.6 18.3501H102.6L103.3 18.0501L104.1 18.5501ZM93.4002 42.9501H92.4002V42.0501L91.6002 42.7501H89.3002L88.3002 42.0501L87.6002 41.0501C87.5002 40.6501 87.4002 40.2501 87.5002 39.8501V39.2501L87.6002 38.0501L88.3002 37.0501L89.3002 36.3501H91.6002L92.4002 37.0501V36.3501H93.4002V42.9501ZM92.4002 39.9501V39.2501C92.4002 38.9501 92.4002 38.6501 92.2002 38.3501L91.9002 37.6501L91.3002 37.3501H89.6002C89.4677 37.338 89.3344 37.3591 89.2122 37.4115C89.09 37.4638 88.9828 37.5458 88.9002 37.6501L88.6002 38.3501C88.5002 38.6501 88.4002 38.9501 88.5002 39.2501V39.8501L88.6002 40.7501L88.9002 41.3501L89.6002 41.7501H91.3002L91.9002 41.3501C92.1002 41.2501 92.1002 40.8501 92.2002 40.7501C92.4002 40.4501 92.4002 40.1501 92.4002 39.8501V39.9501ZM112.5 48.4501H111.5L110.9 48.9501L110.4 49.4501L110.2 50.2501V53.9501H109.2V47.4501H110.2V48.4501L111.2 47.7501L112.2 47.4501H112.5V48.4501Z" fill="white"/>
<path d="M94.9002 65.05C95.8002 65.05 96.5002 64.35 96.5002 63.35C96.5002 62.45 95.8002 61.75 94.9002 61.75C93.9002 61.75 93.2002 62.45 93.2002 63.35C93.2002 64.35 94.0002 65.05 94.9002 65.05Z" fill="#272727"/>
</g>
<mask id="mask1_1693_345" style="mask-type:luminance" maskUnits="userSpaceOnUse" x="57" y="120" width="79" height="79">
<path d="M57.5 120.75H135.8V198.85H57.5V120.75Z" fill="white"/>
</mask>
<g mask="url(#mask1_1693_345)">
<path d="M96.5001 198.15C106.684 198.15 116.452 194.104 123.653 186.903C130.854 179.702 134.9 169.934 134.9 159.75C134.9 149.566 130.854 139.799 123.653 132.597C116.452 125.396 106.684 121.35 96.5001 121.35C86.3158 121.35 76.5486 125.396 69.3472 132.597C62.1458 139.799 58.1001 149.566 58.1001 159.75C58.1001 169.934 62.1458 179.702 69.3472 186.903C76.5486 194.104 86.3158 198.15 96.5001 198.15Z" fill="#272727"/>
<path d="M121.5 163.05L119.5 163.65L120 163.75L119.3 164.25L119.5 163.05L120.5 162.15L120.6 162.65L121.8 161.05L120 161.85L120.4 161.95L119.6 162.65L119.7 161.15L120.7 160.05L120.8 160.55L121.8 158.75L120.1 159.75L120.5 159.85L119.7 160.85V159.85C119.7 157.55 119.4 155.35 118.7 153.25C117.7 153.25 116.7 152.95 116.2 152.85C116.699 153.118 117.134 153.487 117.479 153.936C117.824 154.384 118.07 154.9 118.2 155.45C117.632 155.581 117.043 155.586 116.473 155.465C115.903 155.344 115.366 155.1 114.9 154.75C115.292 155.107 115.608 155.539 115.831 156.02C116.054 156.5 116.18 157.021 116.2 157.55C115.661 157.556 115.126 157.453 114.628 157.246C114.129 157.04 113.678 156.735 113.3 156.35C113.8 156.85 114.4 158.35 114.3 159.25C113.3 159.15 112.3 158.55 111.7 157.75C112.2 158.85 112.4 159.75 112.3 160.75C111.406 160.576 110.576 160.161 109.9 159.55C110.3 160.55 110.4 161.55 110.3 162.25C109.35 161.986 108.531 161.381 108 160.55C108.3 161.35 108.5 162.55 108.3 163.25C107.85 163.126 107.434 162.899 107.087 162.587C106.74 162.274 106.471 161.885 106.3 161.45C106.8 162.45 106.7 163.55 106.6 164.15C106.2 164.15 105.7 163.85 105.5 163.55V164.05C105.4 164.75 105.3 165.35 105 165.85L105.3 166.15C105.8 166.75 106.4 167.15 106.9 167.35L106.1 167.55C106.4 167.95 107.1 168.05 107.5 168.55L106.7 168.75C107.5 169.35 108.2 169.35 108.6 169.35H109.6C110 169.35 110.6 169.55 110.7 169.65C111 169.85 111 170.25 110.9 170.45C110.9 170.45 110.9 170.65 110.6 170.75C110.5 170.75 110.4 170.75 110.6 170.75C110.6 170.75 110.7 170.15 110.5 169.95L109.7 169.75H108.7C108.4 169.75 108.2 170.05 108.2 170.15C108.2 170.45 108 170.85 107.6 170.65C107 170.35 106.3 170.35 105.4 170.05C105.4 170.25 105.4 170.55 105.6 170.85C104.8 170.65 104.6 170.25 103.8 169.95L104.1 170.75C103.4 170.65 102.9 170.05 102 169.75H101.9L101 170.15C101.676 170.887 102.157 171.78 102.4 172.75L101.3 172.55L101.6 174.35C101.6 174.35 101.1 174.35 100.4 173.85V175.85C100.4 175.85 99.8003 175.55 99.1003 174.85C99.1003 175.55 98.8003 176.15 98.6003 176.85C98.6003 176.85 98.0003 176.45 97.6003 175.65L96.6003 177.55C96.6003 177.55 96.0003 176.95 95.6003 175.75C95.1003 176.55 94.6003 176.75 94.6003 176.75C94.3003 176.25 94.1003 175.55 94.1003 174.85C93.4003 175.55 92.8003 175.85 92.8003 175.85V173.85L91.5003 174.35C91.5003 173.75 91.7003 173.15 91.9003 172.55L90.8003 172.75C91.0003 171.75 91.8003 170.55 92.2003 170.05L91.4003 169.85C90.4003 170.05 89.9003 170.65 89.2003 170.75L89.5003 169.95C88.8003 170.25 88.5003 170.65 87.8003 170.85C87.8003 170.55 87.8003 170.25 88.0003 170.05L85.8003 170.75C85.3003 170.75 85.3003 170.05 85.1003 169.95H83.4003C83.0003 169.95 82.8003 169.95 82.6003 170.15C82.3003 170.35 82.5003 170.85 82.6003 170.95H82.5003C82.4196 170.916 82.3494 170.861 82.2967 170.79C82.244 170.72 82.2108 170.637 82.2003 170.55C82.2003 170.35 82.2003 169.95 82.4003 169.85C82.6003 169.75 83.1003 169.45 83.5003 169.55C84.5635 169.648 85.6269 169.364 86.5003 168.75C86.2003 168.75 86.1003 168.55 85.8003 168.45C86.2003 168.05 86.9003 167.95 87.2003 167.55C86.9003 167.55 86.7003 167.35 86.4003 167.25C87.1003 166.95 87.6003 166.75 88.0003 166.25L88.3003 165.95C88.1003 165.35 87.9003 164.75 87.9003 164.05V163.55L86.9003 164.15C86.6003 163.55 86.7003 162.35 87.0003 161.45C86.5003 162.45 86.0003 162.95 85.1003 163.25C84.9174 162.349 84.9866 161.415 85.3003 160.55C84.7879 161.419 83.9664 162.061 83.0003 162.35C83.0003 161.55 83.0003 160.45 83.4003 159.55C82.7245 160.161 81.8947 160.576 81.0003 160.75C81.0003 159.75 81.2003 158.85 81.7003 157.75C81.1003 158.55 79.9003 159.05 78.9003 159.15C79.0003 158.25 79.6003 157.15 79.9003 156.45C79.1003 157.05 78.1003 157.45 77.1003 157.55C77.3003 156.55 77.7003 155.55 78.4003 154.75C77.6003 155.45 76.3003 155.75 75.3003 155.65C75.5003 154.65 76.1003 153.55 77.0003 153.05C76.5003 153.05 75.6003 153.35 74.6003 153.25C73.9573 155.358 73.6205 157.547 73.6003 159.75C73.1003 159.35 72.7003 159.25 72.3003 158.85L72.5003 160.25C72.6003 161.25 73.0003 161.95 73.7003 162.25L73.8003 163.25C73.3003 162.95 72.7003 162.75 71.8003 162.75C72.3003 164.55 73.1003 164.75 74.1003 164.75L74.2003 165.35C73.7003 165.15 73.0003 165.15 72.2003 165.35C72.8003 166.15 73.5003 166.65 74.7003 166.85C73.977 166.79 73.251 166.929 72.6003 167.25C73.5003 168.05 74.3003 168.25 75.2003 168.25V168.55C74.6003 168.75 74.0003 169.05 73.7003 169.35L75.7003 169.65C75.4003 169.95 75.1003 170.45 74.9003 171.15L76.4003 170.85L76.7003 171.45C76.4003 171.95 76.3003 172.55 76.5003 173.25L77.5003 172.75L77.8003 173.25C77.8003 174.05 77.9003 174.85 78.4003 175.35L78.9003 174.65C81.4874 177.786 84.8594 180.179 88.6727 181.588C92.486 182.996 96.6044 183.369 100.609 182.667C104.613 181.966 108.359 180.216 111.467 177.596C114.575 174.975 116.933 171.578 118.3 167.75L119.3 167.35V167.75L120.8 166.45L118.8 166.85L119.2 167.05L118.4 167.45L118.8 166.15L120 165.55V165.95L121.3 164.75L119.4 165.35L119.9 165.55L118.9 166.05L119.3 164.65L120.1 164.15V164.55L121.5 163.15V163.05Z" fill="white"/>
<path d="M87.3 151.95C86.724 151.691 86.1858 151.354 85.7 150.95C84.9766 150.362 84.44 149.576 84.1559 148.688C83.8718 147.8 83.8523 146.849 84.1 145.95C84.4 144.85 84.9 144.25 84.7 143.15C84.7 142.45 84.1 141.95 83.7 141.45C82.4376 140.322 80.9318 139.501 79.3 139.05C78.1 138.65 74.5 137.55 73 136.15C72.6 137.15 73.4 138.55 74.3 138.75C73.5 138.85 72.8 139.25 72.5 139.75C73.1 140.45 74.3 141.15 75.3 141.15C74.8 141.45 74.3 142.15 74.1 142.45C74.9 142.95 76.3 143.35 77.3 143.25C76.9 143.55 76.5 144.05 76.3 144.45C77 144.75 78.3 145.25 79.7 145.35C79.2 145.55 78.5 146.35 78.1 146.95C78.9 147.25 80.5 147.45 81.5 147.55C80.7 147.95 80 148.55 79.6 149.35C80.3 149.65 81.6 150.05 82.8 150.05C82.2474 150.472 81.8586 151.073 81.7 151.75C82.5935 151.903 83.5065 151.903 84.4 151.75C83.8673 152.526 83.5247 153.417 83.4 154.35C84.3 154.35 85.4 154.15 86.1 153.65C86 154.35 86.1 155.15 86.3 155.75C86.6 155.75 87 155.55 87.3 155.35V151.95ZM120.9 138.05C119.3 139.45 116.9 139.85 114.2 140.75C112.2 141.35 111 141.75 109.2 143.15C108.8 143.55 108.3 144.15 108.4 145.15L108.6 148.35C108.6 149.45 108.3 150.35 107.8 150.85C107.311 151.404 106.737 151.876 106.1 152.25L105.9 155.25C106.3 155.55 106.9 155.75 107.2 155.75C107.5 155.15 107.5 154.35 107.3 153.75C108.141 154.158 109.066 154.363 110 154.35C110 153.65 109.7 152.55 109 151.85C109.926 152.015 110.874 152.015 111.8 151.85C111.6 151.15 111.2 150.55 110.7 150.05C111.8 150.05 113.2 149.65 113.9 149.35C113.427 148.601 112.774 147.982 112 147.55C113 147.45 114.6 147.25 115.4 146.95C114.973 146.32 114.43 145.777 113.8 145.35C114.98 145.203 116.128 144.865 117.2 144.35C116.923 143.936 116.586 143.565 116.2 143.25C117.311 143.209 118.4 142.936 119.4 142.45C119.2 142.15 118.7 141.45 118.2 141.15C120.8 140.45 120.9 139.15 120.9 138.15V138.05Z" fill="white"/>
<path d="M109.8 140.85C106.104 138.287 101.737 136.864 97.2399 136.758C92.7431 136.651 88.3138 137.865 84.5 140.25C85.5 140.95 86 141.65 86.1 142.45C86.2 143.15 86.3 143.95 85.9 145.15C85.5 146.45 85.3 147.75 86.2 149.15C86.9645 150.209 88.113 150.927 89.4 151.15L93.6 150.65C93.8861 150.012 94.3343 149.461 94.9 149.05C95.8 148.45 95.6 147.85 95.4 147.45C95.206 147.06 94.89 146.744 94.5 146.55C94.1 146.35 92.8 146.25 92.8 147.15C92.6 146.75 92.4 146.35 92.6 145.85C92.7 145.05 94 144.85 94.3 144.85C94 144.75 94.2 144.35 94.7 144.25C95.4 144.05 96 144.05 96.7 144.05C97.8 144.05 98 144.35 98.7 144.95C99.4 145.65 100.4 145.85 100.8 145.45C100.5 146.05 99.6 146.45 99.1 146.35L99.5 148.95L99.8 150.65L104.6 151.25C105.277 151.092 105.878 150.703 106.3 150.15C106.9 149.55 107.3 148.75 107.2 146.75C107.1 146.25 106.8 144.75 106.9 144.15C106.9 142.65 108.1 141.65 109.9 140.85H109.8Z" fill="white"/>
<path d="M94.4999 144.95L94.8999 145.15L94.9999 145.25L95.0999 145.45L95.7 145.15L96.2999 144.95C95.2999 144.75 95.0999 145.05 94.4999 144.95ZM127.2 149.45C128.6 148.85 129.2 147.45 128.6 146.05C128.46 145.731 128.257 145.444 128.004 145.205C127.75 144.966 127.452 144.781 127.125 144.659C126.799 144.538 126.451 144.484 126.103 144.499C125.755 144.515 125.414 144.6 125.1 144.75C123.8 145.35 123.1 146.85 123.7 148.15C123.84 148.469 124.043 148.756 124.296 148.995C124.55 149.234 124.848 149.42 125.175 149.541C125.501 149.662 125.849 149.717 126.197 149.701C126.544 149.685 126.886 149.6 127.2 149.45ZM125.6 145.75C126.6 145.35 127.9 145.55 128.2 146.25C128.5 146.95 127.8 148.05 126.8 148.45C125.7 148.95 124.4 148.75 124.1 148.05C123.8 147.35 124.5 146.25 125.6 145.75ZM125.3 153.05L124.8 151.05L125.1 150.85L125.3 151.45L129.6 150.45L129.4 149.75H129.8L130.6 152.75H130.8V153.15L129.7 153.45L129.6 153.05L130.1 152.95L129.7 151.35L127.9 151.85L128.2 153.05L128.8 152.95V153.35L127.4 153.65L127.3 153.25L127.8 153.15L127.5 151.95L125.5 152.45L125.6 152.95H125.3V153.05ZM64.5999 147.55L64.3999 148.15L67.2 148.95C68.1 149.25 68.4999 149.65 68.5999 150.45V151.55C68.1999 152.75 67.3 153.35 66.2 153.05L63.2 152.15L63.0999 152.75L62.7 152.65L63.3999 150.55H63.7L63.4999 151.15L66.2999 152.05C66.9999 152.25 67.4 152.25 67.7 151.85L68.0999 151.35C68.2999 150.35 67.9999 149.75 67.0999 149.45L64.2999 148.75L64.0999 149.35H63.7999L64.2999 147.55H64.5999ZM69.5999 148.75C69.5839 148.834 69.5464 148.913 69.4911 148.979C69.4359 149.045 69.3646 149.095 69.2842 149.125C69.2039 149.155 69.1171 149.164 69.0323 149.151C68.9475 149.138 68.8674 149.103 68.7999 149.05C68.6673 148.997 68.5612 148.894 68.5049 148.762C68.4487 148.631 68.4469 148.483 68.4999 148.35C68.553 148.218 68.6565 148.111 68.7878 148.055C68.9191 147.999 69.0673 147.997 69.2 148.05C69.2691 148.072 69.3328 148.108 69.3867 148.156C69.4405 148.205 69.4831 148.264 69.5117 148.331C69.5402 148.397 69.5539 148.469 69.5519 148.542C69.5499 148.614 69.5321 148.685 69.4999 148.75H69.5999ZM70.4999 146.55L70.2999 146.85L69.0999 146.25L69.2999 145.85L69.7999 146.15C70.1999 145.95 70.3999 145.75 70.5999 145.45C70.7999 145.05 70.7999 144.55 70.3999 144.45C70.0999 144.15 69.7999 144.25 68.9999 144.65L67.7999 145.25C67.4999 145.25 67.1999 145.25 66.7999 145.05C66.0999 144.65 65.9999 143.75 66.3999 143.05C66.5999 142.65 66.6999 142.55 66.9999 142.35L66.7999 142.15L66.9999 141.85L68.0999 142.45L67.8999 142.85L67.4999 142.55C67.0999 142.75 66.9999 142.95 66.7999 143.15C66.5999 143.55 66.7999 143.95 66.9999 144.15C67.2999 144.25 67.5999 144.15 68.2999 143.75L69.0999 143.45L69.7 143.25C70 143.25 70.2999 143.25 70.4999 143.45C71.2999 143.85 71.4999 144.75 71.0999 145.45C70.9501 145.862 70.669 146.214 70.2999 146.45H70.4999V146.55ZM72.4999 142.95C72.4999 143.083 72.4472 143.21 72.3535 143.304C72.2597 143.397 72.1325 143.45 71.9999 143.45C71.8673 143.45 71.7401 143.397 71.6464 143.304C71.5526 143.21 71.4999 143.083 71.4999 142.95C71.4999 142.75 71.6999 142.45 71.9999 142.45C72.2999 142.45 72.4999 142.75 72.4999 142.95ZM84.4999 132.95L81.2999 134.75L81.0999 134.45L81.7 134.25L79.5999 130.25L79.0999 130.55L78.8999 130.25L81.7999 128.75L81.7 128.55L81.9999 128.35L82.5999 129.45L82.2 129.65L81.9999 129.15L80.5999 129.85L81.3999 131.55L82.4999 130.95L82.2999 130.45L82.5999 130.25L83.2999 131.65L82.9999 131.85L82.7 131.35L81.5999 131.95L82.4999 133.65L83.9999 132.85L83.7 132.35L84.0999 132.15L84.5999 133.15L84.4999 132.95ZM87.7 131.85L85.5999 132.55L85.4999 132.25L86.0999 132.05L84.5999 127.75L84.0999 127.95L83.9999 127.65L86.2 126.95C87.2 126.65 87.9 126.95 88.2 127.85C88.5 128.65 88 129.55 87.2 129.85H86.7L86.5999 129.55H86.7999C87.2999 129.35 87.4 128.85 87.2 128.25C87 127.55 86.5999 127.25 86.0999 127.45L85.5999 127.55L86.9999 131.75L87.5999 131.55L87.7 131.85ZM94.0999 130.15H93.7L90.9999 125.55L90.4999 125.65L89.3999 130.95H88.8999V131.35L90.5999 131.05L90.4999 130.75H89.8999L90.2 129.55L91.9999 129.15L92.7 130.35H92.2V130.75L94.2 130.45L94.0999 130.15ZM90.2999 129.05L90.7 126.95L91.7 128.75L90.2999 129.05ZM99.3999 130.05H99.0999C98.8999 130.05 98.9 130.05 98.7 129.75L97.5999 128.05C98.2999 127.85 98.5999 127.35 98.5999 126.65C98.5999 126.25 98.5999 125.95 98.2999 125.65C97.9999 125.45 97.5999 125.35 96.9999 125.35H94.7V125.65H95.2999V130.15H94.7V130.45H96.7999V130.15H96.2999V128.15H96.4999L97.5999 129.95C97.8999 130.35 97.9999 130.45 98.3999 130.45H99.3999V130.15V130.05ZM96.2999 125.75H96.7999C97.2999 125.75 97.5999 126.05 97.5999 126.75C97.5999 127.35 97.3 127.75 96.7 127.75H96.2999V125.75ZM102.9 131.05L100.5 130.65V130.35L101.3 130.45L102 126.15L100.7 125.95L100.6 126.55H100.1L100.4 125.15L100.8 125.25V125.45L104.4 126.05V125.85L104.8 125.95L104.6 127.25H104.2L104.3 126.55L103 126.35L102.3 130.65H103V131.05H102.9ZM110.2 133.55L108.1 132.65V132.35L108.8 132.65L110 129.45L107 132.45L106.6 128.25L105.4 131.25L106 131.55V131.85L104.3 131.25V130.95L105 131.15L106.6 126.95L106 126.75L106.1 126.45L107.4 126.95L107.8 130.95L110.6 128.15L112.1 128.75L111.9 129.05L111.3 128.85L109.7 132.95L110.3 133.25V133.55H110.2ZM114 135.95L110.9 133.95L111.1 133.75L111.5 134.05L114 130.25L113.5 129.95L113.6 129.65L116.3 131.45L116.4 131.25L116.8 131.45L116.1 132.45L115.8 132.25L116.1 131.75L114.7 130.95L113.7 132.45L114.7 133.15L115.1 132.65L115.4 132.95L114.6 134.25L114.3 133.95L114.5 133.55L113.5 132.85L112.5 134.45L113.9 135.45L114.2 134.95L114.6 135.15L114 135.95ZM78.4999 136.25L77.9999 136.55L75.4999 133.15L75.9999 132.75C76.6999 132.25 77.9999 132.55 78.5999 133.45C79.2999 134.45 79.2999 135.65 78.4999 136.25ZM79.4999 132.85C79.3025 132.573 79.0506 132.339 78.7596 132.163C78.4686 131.986 78.1447 131.871 77.8077 131.824C77.4706 131.778 77.1276 131.8 76.7996 131.89C76.4715 131.981 76.1654 132.137 75.8999 132.35L73.8999 133.75L74.0999 134.05L74.5999 133.65L77.2 137.25L77.5999 137.35L78.8999 136.35C79.4999 135.95 79.8999 135.45 79.8999 134.85C80.0999 134.15 79.8999 133.35 79.4999 132.85ZM120.6 134.85L120.4 135.15L120.8 135.55L118.7 138.05L119.2 133.65L118.1 132.65L117.8 132.85L118.3 133.25L118.2 133.65L115.4 136.65L114.9 136.25L114.7 136.55L116 137.65L116.2 137.45L115.8 137.05L118.1 134.55L117.6 138.55L119.1 138.15H119.3L121.3 135.95L121.7 136.35L121.9 136.15L120.6 134.95V134.85ZM125.8 140.55L125.7 140.75L123.4 137.75H123.6L123.4 137.35L122.3 138.15L122.6 138.45L123.1 138.05L123.9 139.05L120.3 141.75L120.2 141.55L119.9 141.65L121.1 143.35L121.4 143.15L120.9 142.55L124.4 139.95L125.2 140.95L124.7 141.35L125 141.75L126 140.95L125.7 140.55H125.8ZM103.1 194.05H102.7L102.4 192.75L102.8 192.65L102.9 193.25C103.3 193.45 103.6 193.45 103.9 193.35C104.5 193.35 104.7 192.95 104.7 192.55C104.6 192.15 104.3 191.95 103.5 191.65C102.7 191.35 102.5 191.35 102.3 191.15L101.8 190.35C101.6 189.55 102.1 188.85 103.1 188.65C103.4 188.55 103.6 188.55 103.9 188.65V188.35H104.3L104.6 189.55L104.2 189.65L104 189.15C103.7 189.05 103.5 188.95 103.2 189.05C102.8 189.05 102.5 189.45 102.6 189.85C102.6 190.15 102.9 190.25 103.7 190.55L104.5 190.85L105 191.25C105.2 191.45 105.4 191.75 105.4 192.05C105.6 192.85 105.1 193.65 104.2 193.85C103.84 193.953 103.459 193.953 103.1 193.85V194.05ZM111.1 191.55L107.6 192.85L107.5 192.55L108 192.35L106.4 188.15L105.8 188.45L105.7 188.15L108.7 186.95L108.6 186.75L109 186.55L109.4 187.75L109.1 187.85L108.9 187.35L107.3 187.95L108 189.65L109.2 189.25L109 188.75L109.4 188.55L109.9 189.95L109.5 190.15L109.3 189.65L108.2 190.05L108.9 191.85L110.5 191.25L110.3 190.75L110.6 190.55L111 191.55H111.1ZM116.2 188.35C115.897 188.872 115.444 189.29 114.9 189.55C113.5 190.35 111.9 190.05 111.2 188.75C111.007 188.446 110.88 188.104 110.826 187.748C110.772 187.392 110.792 187.028 110.886 186.68C110.98 186.332 111.146 186.008 111.372 185.727C111.598 185.447 111.88 185.216 112.2 185.05C112.559 184.798 112.968 184.627 113.4 184.55L113.2 184.25L113.6 184.05L114.3 185.25L113.9 185.45L113.7 185.05C113.1 185.05 112.9 185.05 112.5 185.25C111.6 185.85 111.5 186.95 112.1 188.05C112.7 189.15 114 189.55 114.9 189.05C115.2 188.85 115.4 188.65 115.6 188.25L115.3 187.75L115.7 187.45L116.2 188.45V188.35ZM118.5 180.35L118.1 180.75L120.1 182.95C120.6 183.55 120.8 184.25 120.5 184.95L119.8 185.85C118.8 186.65 117.8 186.75 117.1 185.85L115 183.55L114.5 183.95L114.3 183.75L115.9 182.25L116.2 182.55L115.7 182.95L117.7 185.05C118.2 185.65 118.6 185.85 119 185.75L119.6 185.35C120.3 184.75 120.3 183.95 119.6 183.35L117.6 181.15L117.2 181.55L117 181.35L118.3 180.15L118.5 180.35ZM127.3 175.85L126.3 177.75L126 177.55L126.2 177.05L122.2 174.95L122 175.45L121.7 175.25L122.7 173.35L123.1 173.55L122.8 174.05L126.8 176.15L127 175.65L127.3 175.85ZM129.3 171.15L128.3 173.45H128.1L128.3 172.65L124.3 171.15L123.8 172.35L124.4 172.65L124.3 173.05L123 172.55L123.2 172.15H123.4L124.7 168.75H124.5L124.6 168.35L125.9 168.75L125.7 169.15L125.1 168.95L124.6 170.15L128.6 171.75L129 171.05L129.3 171.15ZM130.6 165.45L130.2 167.55H129.9L130 166.95L128 166.55L125.3 167.55V168.05H124.9L125.3 165.85H125.6V166.45L127.4 165.75L125.9 164.35V165.05H125.5L125.8 163.15L126.2 163.25L126.1 163.85L127.9 165.45L130.2 165.95L130.3 165.35H130.6V165.45ZM120 178.55L120.3 178.15C120.6 177.75 121.1 177.65 121.6 178.05C122.1 178.45 122.2 179.05 121.9 179.35L121.6 179.75L120 178.55ZM125.4 178.55L125.2 178.85C125.2 178.95 125 179.05 124.7 179.05L122.7 178.85C122.9 178.15 122.7 177.65 122.2 177.15C121.899 176.963 121.554 176.86 121.2 176.85C120.8 176.95 120.5 177.15 120.1 177.75L118.7 179.55L119 179.75L119.3 179.25L122.9 181.95L122.6 182.45L122.8 182.65L124.1 180.85L123.9 180.65L123.5 181.15L121.9 179.95L122.1 179.85L124.2 179.95C124.7 179.95 124.8 179.95 125.1 179.65L125.7 178.85L125.4 178.65V178.55ZM63.7999 170.25L63.2999 168.15L63.5999 168.05L63.7 168.65L65.7 168.15L65.0999 165.65L63.0999 166.15L63.2999 166.75H62.8999L62.3999 164.75L62.7 164.65L62.8999 165.15L67.2 164.15L67.0999 163.55H67.3999L67.8999 165.55L67.5999 165.65L67.4999 165.05L65.4999 165.55L66.2 168.05L68.0999 167.55L67.8999 166.95H68.2999L68.7999 168.95L68.4999 169.05L68.2999 168.55L63.9999 169.55L64.0999 170.15H63.7999V170.25ZM68.3999 175.15C69.7999 174.45 70.3999 172.95 69.7999 171.65C69.6506 171.34 69.4411 171.063 69.1838 170.834C68.9264 170.606 68.6262 170.43 68.3007 170.319C67.9751 170.207 67.6306 170.161 67.2871 170.184C66.9437 170.206 66.6081 170.297 66.2999 170.45C64.8999 171.05 64.2999 172.55 64.8999 173.85C65.0401 174.169 65.2429 174.456 65.4962 174.695C65.7496 174.934 66.0483 175.12 66.3748 175.241C66.7012 175.362 67.0487 175.417 67.3965 175.401C67.7444 175.385 68.0856 175.3 68.3999 175.15ZM66.7 171.45C67.8 170.95 69.0999 171.15 69.3999 171.85C69.6999 172.55 68.9999 173.65 67.9999 174.15C66.8999 174.55 65.6999 174.35 65.2999 173.65C64.9999 172.95 65.7 171.95 66.7 171.45ZM70.3999 182.45L68.9999 180.65L69.2999 180.45L69.7 180.95L72.3999 178.95L68.3999 179.85L70.2 176.15L67.5999 178.15L67.9999 178.55L67.7 178.75L66.7 177.35L66.8999 177.15L67.2999 177.65L70.8999 175.05L70.4999 174.45L70.7999 174.35L71.5999 175.35L69.7999 179.05L73.5999 178.25L74.5999 179.45L74.2999 179.65L73.8999 179.15L70.2999 181.75L70.7 182.35L70.3999 182.45ZM74.3999 186.45L71.7 183.95L71.8999 183.75L72.3999 184.15L75.3999 180.85L74.9999 180.45L75.2 180.15L77.5999 182.35L77.7 182.25L77.9999 182.45L77.2 183.45L76.8999 183.15L77.2999 182.75L76.0999 181.65L74.7999 182.95L75.7999 183.85L76.0999 183.45L76.3999 183.65L75.3999 184.85L75.0999 184.55L75.3999 184.15L74.4999 183.25L73.2999 184.75L74.4999 185.85L74.8999 185.45L75.2 185.75L74.4999 186.45H74.3999ZM79.0999 189.65L76.0999 187.65L76.2 187.35L76.7 187.65L79.2 183.95L78.7 183.65L78.8999 183.35L80.7 184.55L80.4999 184.85L79.9999 184.55L77.5999 188.15L78.9999 189.05L79.2999 188.55L79.7 188.75L79.0999 189.65ZM84.7 192.05L84.3999 191.95L84.7 186.55L84.2999 186.35L80.2999 190.05L79.8999 189.85L79.7999 190.15L81.2999 190.85L81.3999 190.55L80.7999 190.25L81.7999 189.35L83.4999 190.15V191.45L82.9999 191.25L82.7999 191.55L84.4999 192.35L84.7 192.05ZM82.2 189.05L83.7 187.55L83.5999 189.55L82.2 188.95V189.05ZM90.0999 193.85L89.4999 193.75L87.7999 189.45L86.9999 192.75L87.5999 192.85V193.15L85.7999 192.75V192.45L86.4999 192.55L87.4999 188.55L87.2999 188.15L86.7999 188.05V187.75L88.2999 188.05L89.9999 192.15L90.7 188.95H90.0999L90.2 188.55L91.8999 188.95V189.25L91.2 189.15L90.0999 193.85ZM94.8999 194.25C95.6999 194.25 96.2 194.05 96.7 193.65C97.2563 193.162 97.6124 192.485 97.7 191.75C97.7 190.35 96.5999 189.15 95.0999 189.15L92.7 189.05V189.35H93.2999L93.0999 193.85H92.4999V194.15L94.8999 194.25ZM94.2999 189.75H94.9999C95.8999 189.75 96.5999 190.75 96.5999 191.95C96.5999 193.15 95.7999 193.95 94.7999 193.95H94.2L94.2999 189.75Z" fill="white"/>
<path d="M96.7002 171.45H96.4001C96.3001 170.65 95.7001 170.15 94.9001 169.95L91.4001 168.85C89.2001 168.15 88.0001 166.35 87.9001 164.05C87.6078 159.92 87.3745 155.787 87.2002 151.65C93.4244 150.268 99.8759 150.268 106.1 151.65C106 155.25 105.6 160.85 105.4 164.05C105.407 165.119 105.07 166.162 104.44 167.026C103.81 167.89 102.92 168.529 101.9 168.85L98.4001 169.85C97.6001 170.15 97.0001 170.65 96.9001 171.45H96.7002Z" fill="#272727"/>
<path d="M96.0002 163.25L95.6002 162.95L95.3002 162.25L94.6002 161.95L93.8002 161.25L93.4001 161.75L92.7002 161.95L92.4001 162.45L91.8002 163.05L91.1002 163.45L90.6002 164.25L90.3002 164.65L89.8002 165.05L89.5002 164.75L89.2002 165.05L88.8002 165.75C88.7002 165.25 88.5002 164.75 88.5002 164.05L88.2002 158.65C90.6002 158.15 93.8001 157.75 96.4001 157.75V163.75C96.3001 163.75 96.1002 163.65 96.0002 163.35V163.25ZM96.3002 166.05H89.0002C89.2506 166.582 89.6123 167.053 90.0609 167.433C90.5095 167.812 91.0344 168.091 91.6002 168.25L94.4001 169.15L95.1002 169.35C95.7002 169.55 96.1001 169.85 96.4001 170.15V166.15M104.2 163.15L104.9 162.75L105.1 160.55L104.8 160.75C104.4 161.05 104 161.35 103.2 161.35C102.5 161.35 102 161.15 101.6 160.85C101.3 160.65 101.1 160.55 100.7 160.55C100.3 160.55 100 160.75 99.7002 160.95C99.2002 161.15 98.7002 161.45 98.2002 161.45C97.7002 161.45 97.2001 161.25 96.9001 161.15V163.15L97.2002 163.35C97.5002 163.55 97.8002 163.65 98.2002 163.65L99.2002 163.35C99.6002 163.05 100.1 162.75 100.7 162.75C101.4 162.75 101.7 163.05 102.2 163.25C102.5 163.45 102.8 163.65 103.2 163.65C103.7 163.65 103.9 163.45 104.2 163.15ZM98.2002 167.95C97.7002 167.95 97.2001 167.75 96.9001 167.55V170.15C97.2573 169.776 97.7051 169.5 98.2002 169.35L99.0002 169.15C100.263 168.706 101.53 168.273 102.8 167.85L101.6 167.35C101.3 167.15 101.1 167.05 100.7 167.05C100.3 167.05 100 167.25 99.7002 167.45C99.2002 167.65 98.7002 167.95 98.2002 167.95Z" fill="white"/>
<path d="M104.2 160.05C104.4 159.85 104.7 159.55 105.2 159.45V158.75C102.468 158.188 99.6888 157.886 96.8999 157.85V160.05L97.2 160.25C97.5 160.45 97.8 160.55 98.2 160.55L99.2 160.25C99.6357 159.917 100.154 159.709 100.7 159.65C101.4 159.65 101.7 159.95 102.2 160.15C102.5 160.35 102.8 160.55 103.2 160.55C103.7 160.55 103.9 160.35 104.2 160.05ZM96.8999 164.25V166.45L97.2 166.55C97.5 166.75 97.8 166.95 98.2 166.95L99.2 166.65C99.6 166.35 100.1 166.05 100.7 166.05C101.4 166.05 101.7 166.35 102.2 166.55C102.5 166.75 102.8 166.95 103.2 166.95C103.6 166.95 103.8 166.75 104 166.65C104.563 165.823 104.876 164.851 104.9 163.85H104.8C104.604 164.08 104.358 164.263 104.08 164.384C103.803 164.505 103.502 164.562 103.2 164.55C102.5 164.55 102 164.25 101.6 164.05C101.3 163.85 101.1 163.75 100.7 163.75C100.3 163.75 100 163.95 99.7 164.15C99.2 164.35 98.7 164.65 98.2 164.65C97.7 164.65 97.1999 164.45 96.8999 164.25Z" fill="white"/>
<path d="M88.1003 158.15L87.8003 152.15C93.6382 150.94 99.6624 150.94 105.5 152.15L105.2 158.15C99.5863 157.058 93.8143 157.058 88.2003 158.15H88.1003Z" fill="white"/>
<path d="M89.8001 153.45L89.9001 153.05L89.5001 152.85H90.0001V152.35L90.2001 152.75L90.7001 152.65L90.3001 152.95L90.6001 153.35L90.2001 153.15L89.8001 153.45ZM92.8001 153.15L92.3001 152.85L92.0001 153.15L92.1001 152.75L91.7001 152.55H92.2001V152.05L92.4001 152.45H92.9001L92.5001 152.65L92.7001 153.15H92.8001ZM94.8001 152.95L94.5001 152.65L94.1001 152.95L94.3001 152.55L93.9001 152.25H94.4001V151.85L94.6001 152.25H95.1001L94.7001 152.45L94.9001 152.95H94.8001ZM97.0001 152.95L96.7001 152.55L96.3001 152.85L96.5001 152.45L96.1001 152.15H96.6001V151.75L96.8001 152.25H97.3001L96.9001 152.45L97.0001 152.85V152.95ZM103.2 153.15L102.8 153.35L103 152.95L102.7 152.65H103.1L103.3 152.35V152.75H103.8L103.4 153.05L103.5 153.45L103.2 153.15ZM100.8 152.65L100.5 152.35L100.9 152.45L101.1 152.05V152.45H101.7L101.2 152.75L101.4 153.15L101 152.85L100.6 153.15L100.8 152.65ZM98.7001 152.55L98.3001 152.25H98.8001L98.9001 151.85L99.0001 152.25H99.5001L99.1001 152.55L99.2001 152.95L98.8001 152.65L98.5001 152.95L98.7001 152.55ZM90.2001 156.95V156.55L89.8001 156.35H90.3001V155.75L90.5001 156.25L91.0001 156.15L90.6001 156.45L90.9001 156.85L90.5001 156.65L90.2001 156.95ZM93.0001 156.65L92.6001 156.35L92.2001 156.75L92.3001 156.25L91.9001 156.05H92.4001V155.55L92.6001 155.95H93.1001L92.7001 156.25L93.0001 156.65ZM95.0001 156.45L94.6001 156.15L94.3001 156.55L94.4001 156.05L94.0001 155.85H94.5001L94.6001 155.35L94.7001 155.85H95.2001L94.8001 156.05L95.0001 156.45ZM97.1001 156.45L96.7001 156.15L96.4001 156.45L96.5001 155.95L96.2001 155.75H96.6001L96.7001 155.25L96.9001 155.75H97.3001L96.9001 155.95L97.1001 156.45ZM103.1 156.65L102.6 156.85L102.8 156.45L102.5 156.15L103 156.25L103.1 155.85V156.25L103.7 156.35L103.2 156.55L103.3 157.05L103 156.65H103.1ZM100.7 156.25L100.4 155.95H100.8L101 155.55V156.05H101.6L101.1 156.25L101.3 156.75L100.9 156.35L100.5 156.65L100.7 156.25ZM98.7001 156.05L98.3001 155.75H98.7001L98.9001 155.35V155.85H99.5001L99.0001 156.05L99.2001 156.55L98.8001 156.25L98.5001 156.45L98.6001 156.05H98.7001ZM91.2001 154.95L91.3001 154.45L90.9001 154.25H91.3001L91.4001 153.75L91.6001 154.15H92.0001L91.7001 154.45L91.9001 154.85L91.5001 154.55L91.2001 154.95ZM89.2001 155.25V154.75L88.8001 154.55H89.3001V154.05L89.5001 154.45H90.0001L89.6001 154.75L89.8001 155.15L89.4001 154.85L89.1001 155.25H89.2001ZM94.0001 154.65L93.6001 154.35L93.2001 154.65L93.4001 154.25L93.0001 153.95H93.4001L93.5001 153.55L93.7001 153.95H94.2001L93.8001 154.15L94.0001 154.65ZM96.0001 154.55L95.7001 154.25L95.3001 154.55L95.5001 154.05L95.1001 153.85H95.5001L95.6001 153.35L95.8001 153.85H96.3001L95.9001 154.05L96.0001 154.55ZM98.1001 154.55L97.8001 154.25L97.4001 154.55L97.6001 154.05L97.2001 153.85H97.7001V153.35L97.9001 153.85H98.4001L98.0001 154.15L98.1001 154.55ZM104.1 154.95L103.6 155.15L103.8 154.75L103.5 154.45H104L104.2 154.05V154.55H104.7L104.2 154.75L104.3 155.25L104 154.95H104.1ZM101.7 154.45L101.4 154.15H101.9L102 153.75V154.25H102.6L102.1 154.45L102.3 154.95L101.9 154.55L101.5 154.85L101.7 154.45ZM99.7001 154.25L99.3001 153.95H99.8001L99.9001 153.55L100 153.95H100.5L100.1 154.25V154.65L99.8001 154.35L99.5001 154.65L99.7001 154.25ZM75.7001 165.15C76.3001 164.15 77.7001 163.95 77.1001 161.25C75.6001 161.95 74.9001 163.75 75.6001 165.15H75.7001ZM75.5001 158.45C74.8147 158.842 74.3116 159.489 74.1001 160.25C74.6001 160.75 74.8001 161.55 74.8001 162.15C75.7001 161.35 76.0001 159.85 75.5001 158.45ZM76.4001 167.65C75.773 167.263 75.0255 167.121 74.3001 167.25C75.0149 167.289 75.7211 167.423 76.4001 167.65ZM79.3001 170.95C79.3001 171.95 80.0001 173.25 78.8001 174.95C78.7001 175.15 78.6001 175.55 79.2001 174.85C80.5001 173.35 79.4001 172.15 79.3001 170.85V170.95ZM76.9001 172.55C76.9001 171.95 77.4001 171.15 78.1001 170.55C78.5001 170.25 78.8001 170.05 78.4001 170.55C77.8001 171.05 77.1001 172.05 76.9001 172.55ZM78.3001 174.45C78.0001 173.75 78.3001 172.75 78.5001 172.15L79.3001 170.85C78.8001 171.65 78.3001 173.85 78.3001 174.45ZM76.2001 165.65C76.2081 165.566 76.189 165.481 76.1458 165.408C76.1025 165.335 76.0372 165.278 75.9594 165.245C75.8816 165.212 75.7952 165.204 75.7126 165.223C75.6301 165.242 75.5557 165.286 75.5001 165.35C75.4476 165.37 75.3995 165.4 75.3585 165.438C75.3175 165.476 75.2844 165.522 75.2612 165.573C75.238 165.624 75.225 165.679 75.2231 165.736C75.2212 165.792 75.2304 165.847 75.2501 165.9C75.2698 165.953 75.2997 166.001 75.338 166.042C75.3763 166.083 75.4223 166.116 75.4733 166.139C75.5244 166.162 75.5796 166.175 75.6356 166.177C75.6917 166.179 75.7476 166.17 75.8001 166.15C75.8622 166.152 75.9239 166.139 75.9803 166.113C76.0368 166.087 76.0864 166.049 76.1252 166C76.164 165.952 76.191 165.895 76.204 165.834C76.217 165.773 76.2157 165.71 76.2001 165.65ZM80.0001 166.25V164.15C78.7001 165.15 78.3001 166.75 78.8001 167.95H78.6001C78.6001 167.95 78.4001 167.95 78.3001 168.15C78.2408 168.229 78.2062 168.324 78.2009 168.423C78.1955 168.522 78.2195 168.62 78.2699 168.705C78.3203 168.79 78.3947 168.858 78.4839 168.901C78.5731 168.944 78.6729 168.959 78.7708 168.945C78.8687 168.931 78.9602 168.888 79.0339 168.822C79.1075 168.756 79.1599 168.67 79.1844 168.574C79.209 168.478 79.2046 168.377 79.1718 168.284C79.1389 168.191 79.0792 168.109 79.0001 168.05C78.7001 167.05 79.0001 165.65 79.5001 165.05C79.1709 166.117 79.0687 167.241 79.2001 168.35L79.7001 167.65L79.8001 168.25C79.8001 167.25 80.2001 166.25 81.2001 165.65C80.5499 166.493 80.1357 167.494 80.0001 168.55C80.5001 167.85 81.8001 167.55 81.8001 164.85C81.2001 165.05 80.5001 165.55 80.0001 166.25ZM80.9001 169.05C80.8841 168.966 80.8467 168.887 80.7914 168.821C80.7361 168.756 80.6648 168.705 80.5845 168.675C80.5041 168.645 80.4173 168.636 80.3325 168.649C80.2476 168.662 80.1676 168.697 80.1001 168.75C79.9984 168.822 79.9271 168.929 79.9001 169.05V169.25C79.9266 169.383 80.0047 169.499 80.1172 169.574C80.2298 169.649 80.3675 169.677 80.5001 169.65C80.6327 169.623 80.7494 169.545 80.8244 169.433C80.8994 169.32 80.9266 169.183 80.9001 169.05ZM80.7001 170.45C80.6586 170.354 80.588 170.273 80.4984 170.22C80.4087 170.166 80.3044 170.141 80.2001 170.15C80.0855 170.173 79.9826 170.236 79.9095 170.328C79.8365 170.419 79.7978 170.533 79.8001 170.65C79.8284 170.726 79.8748 170.794 79.9354 170.848C79.9959 170.902 80.0687 170.941 80.1475 170.961C80.2262 170.98 80.3086 170.981 80.3875 170.961C80.4663 170.942 80.5393 170.904 80.6001 170.85L80.7001 170.45Z" fill="#272727"/>
<path d="M78 163.45C77.584 163.758 77.2548 164.169 77.0446 164.642C76.8343 165.115 76.75 165.635 76.8 166.15C76.7378 166.158 76.6783 166.18 76.6262 166.214C76.5741 166.249 76.5309 166.296 76.5 166.35V166.65C76.5435 166.74 76.6188 166.81 76.7113 166.847C76.8038 166.884 76.9067 166.885 77 166.85C77 167.15 77.2 167.35 77.3 167.55L77.1 166.55V166.45C77.1 165.65 77.2 164.95 77.6 164.35C77.5 165.15 77.3 166.75 77.5 167.75C77.8 166.75 79.3 166.25 78 163.45ZM81.8 169.65C81.7502 169.592 81.6847 169.549 81.6112 169.527C81.5377 169.504 81.4595 169.504 81.3857 169.525C81.3119 169.546 81.2457 169.588 81.1951 169.646C81.1444 169.703 81.1114 169.774 81.1 169.85C81.1 170.05 81.3 170.15 81.5 170.15C81.5534 170.139 81.6039 170.116 81.6483 170.084C81.6927 170.052 81.7301 170.012 81.7582 169.965C81.7863 169.918 81.8045 169.866 81.8116 169.812C81.8188 169.758 81.8149 169.703 81.8 169.65ZM79.8 169.65C79.8 169.571 79.7684 169.494 79.7121 169.438C79.6558 169.382 79.5796 169.35 79.5 169.35C79.4534 169.334 79.4033 169.329 79.3544 169.336C79.3054 169.344 79.2591 169.363 79.2195 169.393C79.1799 169.422 79.1482 169.462 79.1274 169.506C79.1065 169.551 79.0971 169.601 79.1 169.65C79.0844 169.689 79.0773 169.731 79.0792 169.774C79.081 169.816 79.0917 169.857 79.1105 169.895C79.1294 169.933 79.1561 169.966 79.1887 169.993C79.2214 170.019 79.2593 170.039 79.3 170.05H79.5C79.7 170.05 79.8 169.85 79.8 169.65ZM75.1 164.95C75.1 164.871 75.0684 164.794 75.0121 164.738C74.9559 164.682 74.8796 164.65 74.8 164.65C74.5414 164.264 74.2016 163.938 73.8044 163.696C73.4072 163.455 72.9621 163.302 72.5 163.25C73.2974 163.607 74.0385 164.079 74.7 164.65C74.6593 164.661 74.6213 164.681 74.5887 164.708C74.556 164.734 74.5294 164.768 74.5106 164.805C74.4917 164.843 74.4809 164.884 74.4791 164.927C74.4773 164.969 74.4844 165.011 74.5 165.05C74.5111 165.091 74.5307 165.129 74.5574 165.161C74.5842 165.194 74.6175 165.221 74.6553 165.24C74.693 165.258 74.7343 165.269 74.7765 165.271C74.8187 165.273 74.8607 165.266 74.9 165.25H75.1V164.95ZM75.1 162.75V162.65L75 162.45C74.9038 162.411 74.7962 162.411 74.7 162.45C74.4 161.45 74.1 160.65 73 159.85C73.615 160.664 74.1507 161.534 74.6 162.45C74.5466 162.462 74.4961 162.484 74.4517 162.516C74.4073 162.548 74.3699 162.588 74.3418 162.635C74.3137 162.682 74.2955 162.734 74.2883 162.788C74.2811 162.842 74.2851 162.898 74.3 162.95C74.3131 163.003 74.3365 163.052 74.3687 163.096C74.4009 163.139 74.4414 163.176 74.4879 163.204C74.5343 163.232 74.5857 163.25 74.6393 163.258C74.6928 163.266 74.7475 163.263 74.8 163.25C74.8525 163.237 74.9019 163.214 74.9454 163.181C74.9889 163.149 75.0257 163.109 75.0535 163.062C75.0814 163.016 75.0998 162.964 75.1078 162.911C75.1158 162.857 75.1131 162.803 75.1 162.75ZM76.3 166.75L76.2 166.55C76.1726 166.509 76.1355 166.475 76.0919 166.452C76.0482 166.428 75.9995 166.416 75.95 166.416C75.9005 166.416 75.8517 166.428 75.8081 166.452C75.7645 166.475 75.7274 166.509 75.7 166.55C74.7 165.75 74 165.75 73.5 165.65C73.8 165.85 75 166.15 75.7 166.65V166.85L75.8 167.05C75.855 167.099 75.9262 167.126 76 167.126C76.0738 167.126 76.145 167.099 76.2 167.05C76.2579 166.999 76.2937 166.927 76.3 166.85V166.75ZM77.2 168.05C77.2 167.75 76.9 167.65 76.6 167.65C76.4845 167.695 76.3898 167.781 76.3344 167.892C76.279 168.003 76.2667 168.131 76.3 168.25V168.35C76.3716 168.452 76.4786 168.523 76.6 168.55H76.8C77.1 168.55 77.2 168.25 77.2 168.05ZM77.8 168.85V168.75C77.7784 168.689 77.7375 168.636 77.6834 168.6C77.6293 168.564 77.5649 168.546 77.5 168.55C77.3 168.55 77.3 168.65 77.2 168.75C76.3 168.65 75.4 168.75 74.5 169.25C75.5 168.95 76.5 168.75 77.2 168.75V168.95C77.2043 169.006 77.2241 169.06 77.2573 169.105C77.2904 169.15 77.3356 169.185 77.3877 169.206C77.4398 169.227 77.4966 169.232 77.5518 169.223C77.607 169.213 77.6584 169.188 77.7 169.15C77.743 169.114 77.7751 169.067 77.7927 169.014C77.8104 168.961 77.8129 168.904 77.8 168.85ZM78.8 169.35C78.7925 169.288 78.7705 169.228 78.7357 169.176C78.701 169.124 78.6545 169.081 78.6 169.05C78.5038 169.011 78.3962 169.011 78.3 169.05C78 169.05 77.9 169.25 77.9 169.55C77.2 169.55 76.1 169.65 75.5 170.55C76.2401 170.088 77.0508 169.75 77.9 169.55C77.9116 169.603 77.934 169.654 77.9658 169.698C77.9977 169.743 78.0382 169.78 78.0851 169.808C78.1319 169.836 78.1841 169.855 78.2382 169.862C78.2924 169.869 78.3474 169.865 78.4 169.85C78.4534 169.839 78.5038 169.816 78.5482 169.784C78.5926 169.752 78.63 169.712 78.6581 169.665C78.6863 169.618 78.7045 169.566 78.7117 169.512C78.7189 169.458 78.7149 169.403 78.7 169.35H78.8ZM84.5 171.35C86.4 172.85 87.5 174.85 87.7 176.35C87.5 176.25 87.1 176.05 86.7 176.05C86.5 174.45 85.7 173.05 84.3 172.05L84.5 171.45V171.35ZM83.1 172.85C83.5 173.05 83.7 173.05 83.9 172.85C84.1 172.55 83.9 172.05 83.9 171.95V172.45C83.8 172.55 83.7 172.75 83.5 172.75C83.4 172.75 83.1 172.75 83 172.55C82.9 172.55 82.9 172.35 83 172.15V171.95C83 171.95 82.8 171.95 82.7 172.15H82.3L82.1 171.75C82 171.55 82.3 171.35 82.5 171.25L81.8 171.35C81.6 171.35 81.5 170.95 81.5 170.75C81.5 170.75 81.6 170.55 81.8 170.55H82.2V170.35C81.9 170.25 81.4 170.35 81.3 170.45V171.05C81.4 171.35 81.5 171.45 81.7 171.55H82H81.8L82 172.15C82.2 172.45 82.4 172.55 82.6 172.45L82.8 172.25L82.7 172.45C82.7 172.75 82.8 172.85 83.1 172.85Z" fill="#272727"/>
<path d="M82.7002 170.95C82.9002 170.75 83.2001 170.75 83.4001 170.95C83.2001 171.05 83.2002 171.45 83.3002 171.65C82.9002 171.65 82.8002 171.15 82.7002 170.95ZM83.4001 170.95C83.7001 170.95 83.8002 170.75 83.8002 170.65C83.8002 170.55 84.0002 170.45 84.0002 170.65V170.95H83.4001ZM83.6002 171.35L83.4001 171.75L83.2002 171.95L83.6002 172.05H83.8002L83.6002 171.35ZM109.8 170.75V171.45C110.3 171.45 110.4 171.05 110.4 170.75H109.8ZM109.7 170.75C109.4 170.75 109.3 170.65 109.3 170.45C109.3 170.45 109.1 170.25 109.1 170.45L109.2 170.75H109.7ZM109.7 171.55C109.639 171.425 109.605 171.289 109.6 171.15L109.4 171.85H109.9L109.7 171.55Z" fill="#272727"/>
<path d="M117.4 164.55H117.9L111.1 169.95L111 170.15V170.35H111.3L111.5 170.55C111.5 170.75 111.5 171.15 111.2 171.15H110.6C110.8 171.15 111.1 171.35 110.9 171.55L110.7 171.95H110.3L109.9 171.65L110.1 171.95V172.35L109.5 172.55C109.3 172.55 109.2 172.35 109.2 172.15V171.75C109 171.75 108.9 172.25 109.2 172.65C109.2 172.75 109.5 172.85 109.9 172.65C110.2 172.65 110.3 172.55 110.3 172.25V172.05L110.4 172.25C110.6 172.25 110.8 172.25 111 171.95C111.3 171.65 111.2 171.55 111.2 171.45L111.1 171.35H111.3C111.5 171.35 111.6 171.15 111.7 170.85V170.35L111.3 170.15L118 164.85V165.35L119.3 163.75L117.4 164.55ZM113.8 166.15L118.6 160.15L118.7 160.55L119.5 158.75L117.9 159.95H118.4L114.1 165.45L113.1 166.95L113.8 166.15Z" fill="#272727"/>
<path d="M113.3 167.95L114.5 166.95L118.5 163.35V163.75L119.5 162.05L117.8 163.05H118.3L114.3 166.85L113.3 167.95ZM117.7 167.05L112.1 169.85L111.9 170.05V170.15L117.8 167.35V167.75L119.2 166.45L117.2 166.85L117.7 167.05ZM109.2 173.05L109 172.85L108 174.95L107.7 175.05L106.5 177.35L107 177.15L107.2 177.75L108.4 175.45L108.2 175.05L109.2 173.05Z" fill="#272727"/>
<path d="M113.1 169.05L114.4 168.45L118.1 165.95V166.45L119.4 164.95L117.5 165.65L118 165.75L114 168.45L113.1 169.05ZM108.8 172.45V172.15L107.4 173.55H107L105.2 175.55L105.7 175.45V175.85L107.3 173.85H107.6L108.8 172.45ZM111.2 169.55L111.9 169.05L118.4 161.85L118.5 162.35L119.5 160.55L117.8 161.65H118.2L111.4 169.15L111.2 169.55ZM105.4 174.45L107.8 172.75L108.5 171.95L105.5 173.95H104.9L102.9 175.25L103.5 175.35V175.75L105.1 174.45H105.4ZM103.4 174.65L104.4 174.05L105.3 173.45H105.6L108.3 171.75L105.5 173.15H105.1L102.8 174.15L103.3 174.35V174.65H103.4ZM114.4 161.25H114.8L110.6 169.65H110.7L110.8 169.75L115 161.25L115.2 161.65L115.6 159.65L114.3 161.25H114.4ZM114.8 162.65H115.3L112.7 166.65L111.8 168.35L115.5 162.75L115.7 163.25L116.3 161.25L114.8 162.65Z" fill="#272727"/>
</g>
<path d="M67.3998 414.55V417.45H47.1998V414.45H67.3998V414.55ZM98.8998 414.55C96.8554 416.429 94.1762 417.465 91.3998 417.45H70.1998V414.45H98.8998V414.55ZM128.9 414.55L127.9 417.45L126.9 414.45H128.9V414.55ZM119.2 414.55V417.45H104.8V414.45H119.2V414.55ZM150.9 414.55V417.45H136.5V414.45H150.9V414.55ZM102.1 409.05C101.9 410.05 101.5 411.05 101 411.95H70.1998V408.95H102.2L102.1 409.05ZM130.8 409.05L129.8 411.95H125.9L124.9 408.95H130.8V409.05ZM119.2 409.05V411.95H104.8V408.95H119.2V409.05ZM150.9 409.05V411.95H136.5V408.95H150.9V409.05ZM67.3998 409.05V411.95H47.1998V408.95H67.3998V409.05ZM61.5998 403.55V406.45H52.9998V403.55H61.5998ZM84.5998 403.55V406.45H75.9998V403.55H84.5998ZM102.1 403.55C102.3 404.55 102.4 405.45 102.4 406.45H92.7998V403.55H102.1ZM132.7 403.55L131.7 406.45H124L123 403.55H132.7ZM119.2 403.55V406.45H110.6V403.55H119.2ZM145.2 403.55V406.45H136.5V403.55H145.1H145.2ZM61.5998 398.05V400.95H52.9998V398.05H61.5998ZM119.2 398.05V400.95H110.6V398.05H119.2ZM145.2 398.05V400.95H136.5V398.05H145.1H145.2ZM98.5998 398.05C99.5605 398.872 100.372 399.853 101 400.95H75.9998V398.05H98.5998ZM134.6 398.05L133.6 400.95H122.1L121.1 398.05H134.6ZM127 392.55L127.8 394.85L128.6 392.55H145.1V395.45H136.5V392.75L135.5 395.45H120.1L119.2 392.75V395.45H110.6V392.55H127ZM75.9998 392.55H101C100.3 393.65 99.4998 394.55 98.5998 395.45H75.9998V392.55ZM61.5998 392.55V395.45H52.9998V392.55H61.5998ZM61.5998 387.05V389.95H52.9998V387.05H61.5998ZM84.5998 387.05V389.95H75.9998V387.05H84.5998ZM102.4 387.05C102.4 388.05 102.4 389.05 102.1 389.95H92.6998V387.05H102.3H102.4ZM125.1 387.05L126.1 389.95H110.7V387.05H125.2H125.1ZM145.1 387.05V389.95H129.7L130.7 387.05H145.2H145.1ZM67.3998 381.55V384.45H47.1998V381.55H67.3998ZM101 381.55C101.5 382.55 101.9 383.45 102.1 384.45H70.1998V381.55H101ZM150.9 381.55V384.45H131.5L132.5 381.55H150.9ZM123.2 381.55L124.2 384.45H104.8V381.55H123.2ZM67.3998 376.05V379.05H47.1998V376.05H67.3998ZM91.3998 376.05C94.1998 376.05 96.7998 377.05 98.8998 379.05H70.1998V376.05H91.3998ZM150.9 376.05V379.05H133.4L134.4 376.05H150.9ZM121.3 376.05L122.3 379.05H104.7V376.05H121.2H121.3ZM94.1998 274.25C93.562 274.536 93.0104 274.984 92.5998 275.55C92.1998 276.05 91.9998 276.75 91.9998 277.55C92.0113 278.024 92.1351 278.489 92.3611 278.907C92.587 279.324 92.9088 279.681 93.2998 279.95C93.6743 280.21 94.1031 280.381 94.5536 280.45C95.0041 280.52 95.4645 280.485 95.8998 280.35C96.8998 280.05 97.5998 279.35 97.9998 278.15C98.1998 277.65 98.2998 277.05 98.2998 276.35V273.35L96.2998 273.65C95.5998 273.75 94.8998 273.95 94.2998 274.25H94.1998ZM95.7998 250.95C92.2073 250.634 88.5883 251.069 85.1729 252.227C81.7574 253.385 78.6203 255.241 75.9608 257.677C73.3013 260.113 71.1776 263.075 69.7248 266.376C68.2719 269.677 67.5216 273.244 67.5216 276.85C67.5216 280.457 68.2719 284.023 69.7248 287.324C71.1776 290.625 73.3013 293.588 75.9608 296.023C78.6203 298.459 81.7574 300.315 85.1729 301.473C88.5883 302.631 92.2073 303.066 95.7998 302.75C102.276 302.18 108.304 299.205 112.695 294.411C117.086 289.617 119.522 283.351 119.522 276.85C119.522 270.349 117.086 264.083 112.695 259.289C108.304 254.495 102.276 251.52 95.7998 250.95ZM97.7998 266.05C97.4998 265.45 96.7998 265.15 95.5998 265.15H95.2998L94.5998 265.35C94.1998 265.55 93.8998 265.65 93.5998 265.95C92.6741 266.668 91.9788 267.642 91.5998 268.75L86.1998 268.25C86.1998 267.45 86.2998 266.75 86.5998 266.05C86.8998 265.35 87.2998 264.65 87.7998 264.05C88.3998 263.45 88.9998 262.85 89.7998 262.35C90.5998 261.85 91.4998 261.45 92.5998 261.15C94.861 260.552 97.2386 260.552 99.4998 261.15C100.553 261.409 101.53 261.916 102.348 262.629C103.165 263.343 103.8 264.241 104.2 265.25C104.4 265.75 104.4 266.25 104.4 266.65V277.15L104.7 278.35L105.3 279.35C105.687 279.857 106.123 280.326 106.6 280.75L106.8 280.95L102.6 284.95C101.745 284.173 100.911 283.373 100.1 282.55L99.7998 282.25L99.2998 281.65C98.2866 283.104 96.8032 284.163 95.0998 284.65C94.2998 284.85 93.3998 285.05 92.5998 285.05C91.5998 285.05 90.7998 284.95 89.9998 284.65C89.1998 284.35 88.4998 283.95 87.7998 283.45C87.1416 282.918 86.6261 282.231 86.2998 281.45C85.881 280.507 85.6761 279.482 85.6998 278.45C85.7697 276.692 86.4811 275.02 87.6998 273.75C89.5651 272.118 91.8524 271.043 94.2998 270.65C95.6175 270.391 96.9568 270.257 98.2998 270.25V267.75C98.2998 266.95 98.2998 266.35 97.9998 265.95L97.7998 266.05ZM108.3 288.05C107.513 288.815 106.641 289.486 105.7 290.05C102.586 291.904 99.024 292.872 95.3998 292.85C91.2636 292.816 87.2421 291.487 83.8998 289.05C82.4485 288.063 81.1075 286.923 79.8998 285.65C79.8468 285.558 79.8128 285.456 79.7998 285.35V285.15L79.8998 284.95C79.9707 284.893 80.0589 284.862 80.1498 284.862C80.2407 284.862 80.3289 284.893 80.3998 284.95C82.1306 286.128 83.9727 287.132 85.8998 287.95C90.5169 290.106 95.7005 290.736 100.7 289.75C103.358 289.23 105.943 288.391 108.4 287.25C108.5 287.25 108.6 287.35 108.6 287.55L108.3 288.15V288.05ZM111.8 286.35L111.3 288.25C110.8 289.25 110.3 289.95 109.7 290.45C109.5 290.65 109.3 290.65 109.2 290.65V290.15C109.5 289.65 109.7 288.95 110 287.95C110.3 287.05 110.4 286.45 110.1 286.25L109.9 286.05C109.738 285.996 109.57 285.962 109.4 285.95H108.8C108.401 285.91 107.999 285.91 107.6 285.95C107.133 285.957 106.666 285.957 106.2 285.95L106 286.05H105.6C105.5 285.75 105.8 285.55 106.4 285.25C107.024 284.946 107.706 284.776 108.4 284.75H110.4C111.1 284.75 111.6 284.95 111.7 285.15C111.9 285.35 111.9 285.75 111.7 286.35H111.8ZM187 485.05C187 484.25 187.8 483.85 189.1 483.85C190.4 483.85 191.2 484.15 191.2 485.05C191.2 486.05 189.9 486.25 189.2 486.25C187.8 486.25 187 485.95 187 485.05ZM192.5 485.05C192.5 483.45 191.2 482.25 189.1 482.25C187.6 482.25 185.8 483.05 185.8 485.05C185.8 487.05 187.4 487.85 189.1 487.85C190.9 487.85 192.5 486.95 192.5 485.05ZM187 492.75V491.75C187 490.95 187.5 490.75 187.8 490.75C188.2 490.75 188.7 491.05 188.7 491.75V492.75H187ZM189.8 492.75V491.75L192.4 490.75V488.95L189.5 490.15C189.3 489.45 188.5 489.05 187.8 489.05C186.6 489.05 185.8 489.85 185.8 491.35V494.35H192.4V492.75H189.7H189.8ZM188.3 495.75C186.7 495.95 185.8 496.75 185.8 498.45C185.8 500.45 187.3 501.35 189.1 501.35C190.9 501.35 192.5 500.35 192.5 498.45C192.5 496.95 191.5 495.95 190.1 495.75L190 497.25C190.6 497.25 191.2 497.65 191.2 498.35C191.2 499.55 190.1 499.65 189.2 499.65C188.4 499.65 187 499.55 187 498.45C187 497.65 187.6 497.45 188.4 497.45L188.3 495.75ZM192.3 502.75H185.8V504.35H192.4V502.85L192.3 502.75ZM192.3 509.45V510.45L187 512.05H192.4V513.35H185.7V510.95L189.7 509.85L185.7 508.65V506.25H192.3V507.75H186.9L192.3 509.45ZM57.8998 513.45H33.1998L27.1998 491.25V513.35H17.1998V482.75H34.5998L40.3998 504.35V482.75H50.6998V487.35C48.1998 490.05 46.6998 493.35 46.6998 497.55C46.6998 503.55 50.0998 511.05 57.9998 513.35L57.8998 513.45ZM178 482.75V513.35H167.4V489.35H167.3L161.2 513.35H151.4L145.4 489.35H145.2V513.35H126.7L124.7 506.75H114.7L112.9 513.35H95.1998L94.6998 507.75C94.0998 503.95 92.9998 503.05 90.6998 503.05H87.6998V513.35H69.4998C74.7998 512.15 79.4998 509.75 82.1998 508.15L78.3998 493.65L68.2998 496.35L70.3998 504.55C69.7998 505.05 67.6998 505.75 66.1998 505.75C61.3998 505.75 59.1998 500.85 59.1998 496.75C59.1998 489.95 65.8998 487.35 71.9998 487.35L75.3998 487.55L74.1998 482.75H95.2998C103.7 482.75 107 486.75 107 491.05C107 497.45 100.9 498.75 99.6998 498.95V499.15C100.833 499.28 101.918 499.685 102.859 500.33C103.8 500.975 104.569 501.84 105.1 502.85L112.1 482.75H128.3L135.2 501.95V482.75H152.7L156.7 499.55L160.7 482.75H178.1H178ZM0.799805 482.75H12.4998V513.35H0.799805V482.75ZM119.8 489.35L116.5 499.35H123.3L120 489.35H119.8ZM87.5998 496.15H91.0998C93.8998 496.15 95.0998 494.65 95.0998 492.85C95.0998 490.55 93.0998 489.65 91.0998 489.65H87.5998V496.15ZM48.5998 583.35C47.528 583.552 46.5072 583.965 45.5972 584.566C44.6871 585.167 43.9061 585.944 43.2998 586.85C42.4547 588.111 41.9075 589.547 41.6998 591.05C41.3998 592.45 41.4998 594.45 41.8998 596.35C42.6242 599.649 44.1723 602.711 46.3998 605.25C48.2961 607.293 50.6657 608.838 53.2998 609.75C55.6998 610.55 58.2998 610.55 60.6998 609.75C63.4221 608.613 65.8251 606.828 67.6998 604.55L68.0998 604.15C70.743 600.751 72.1533 596.555 72.0998 592.25L71.8998 591.05C71.2998 587.05 69.0998 584.45 65.5998 583.45L63.3998 583.35C61.8998 583.35 61.6998 583.35 60.8998 583.55C59.6998 583.85 58.2998 584.45 57.0998 585.15L56.7998 585.25L55.8998 584.85C54.6998 584.15 53.8998 583.85 52.7998 583.55C51.9998 583.35 51.7998 583.35 50.3998 583.35H48.6998H48.5998ZM51.7998 586.15C52.4998 586.15 53.1998 586.45 53.9998 586.85L54.3998 587.05L53.5998 587.95C52.9676 588.558 52.3981 589.228 51.8998 589.95C50.2583 592.15 49.0996 594.672 48.4998 597.35C48.2998 598.35 48.2998 598.55 48.2998 600.35C48.2325 601.355 48.2998 602.363 48.4998 603.35L46.9998 601.55C44.9998 598.65 43.9998 594.85 44.2998 591.75C44.4998 590.75 44.8998 589.25 45.2998 588.55C45.8998 587.55 47.0998 586.55 48.1998 586.25C49.1998 585.95 50.5998 585.85 51.7998 586.15ZM65.0998 586.15C68.0998 586.95 69.7998 590.35 69.2998 594.75C68.8699 597.976 67.4355 600.985 65.1998 603.35V602.75C65.6793 599.912 65.3321 596.996 64.1998 594.35L63.4998 593.05C63.1998 592.35 62.9998 592.25 62.6998 592.35C60.4997 593.573 58.3635 594.908 56.2998 596.35C56.0998 596.45 56.1998 596.95 56.4998 597.35L56.9998 598.15C57.2998 598.55 57.3998 598.65 57.5998 598.65L60.9998 596.55L61.7998 596.05L62.3998 598.05C62.7115 599.333 62.766 600.666 62.56 601.97C62.354 603.275 61.8918 604.525 61.1998 605.65C60.6483 606.352 59.9283 606.904 59.1066 607.254C58.285 607.603 57.3882 607.74 56.4998 607.65C54.9998 607.65 54.0998 607.25 52.9998 606.15C52.3998 605.55 52.1998 605.35 51.9998 604.75C50.9133 602.397 50.7352 599.726 51.4998 597.25C52.5998 592.45 56.4998 588.05 60.5998 586.55L62.6998 586.05C63.2998 586.05 64.4998 586.05 65.0998 586.25V586.15ZM85.6998 588.85C84.8998 588.85 84.0998 589.05 83.8998 589.15L82.8998 589.55C81.8998 589.95 81.0998 590.55 80.1998 591.45C79.3998 592.15 79.1998 592.45 78.8998 593.05C78.1998 594.45 77.8998 595.75 77.8998 597.45C77.9559 598.832 78.3694 600.176 79.0998 601.35C79.6609 602.144 80.3346 602.851 81.0998 603.45C81.9998 604.05 83.2998 604.65 84.0998 604.85H87.3998C88.7004 604.503 89.9 603.852 90.8998 602.95L91.2998 602.55V603.35L91.3998 604.35L91.5999 604.65H93.8998C94.0998 604.45 94.0999 604.15 94.0999 601.05L93.9998 597.65H87.6998L87.4998 597.75C87.2998 597.95 87.2998 598.05 87.2998 598.85C87.2998 599.85 87.2998 599.85 87.4998 599.95C87.7998 600.15 87.7998 600.15 88.7998 600.15L89.7998 600.25C89.7998 600.45 88.9998 601.05 88.4998 601.25C87.6998 601.65 86.7998 601.85 85.8998 601.75C84.9213 601.731 83.977 601.387 83.2164 600.771C82.4557 600.155 81.9221 599.303 81.6998 598.35L81.4998 596.85C81.4998 595.95 81.4998 595.85 81.7998 595.25C82.0196 594.561 82.3957 593.931 82.8987 593.411C83.4017 592.89 84.0181 592.493 84.6998 592.25C85.5728 591.979 86.4963 591.91 87.3998 592.05C88.6998 592.35 89.7998 593.05 90.3998 594.15C90.6998 594.75 90.7998 594.85 91.3998 594.55C92.4998 594.25 93.5998 593.75 93.6998 593.55C93.6998 593.55 93.4998 592.85 92.9998 592.05C92.1998 590.85 91.1998 590.05 89.7998 589.45L88.9998 589.15C87.9212 588.884 86.8087 588.783 85.6998 588.85ZM107.9 589.15L107.7 589.35V596.85L107.8 604.45L107.9 604.65H111.5C115.1 604.65 115.2 604.65 116.5 604.35C118.192 603.993 119.7 603.039 120.747 601.662C121.793 600.284 122.309 598.576 122.2 596.85C122.2 595.05 122.1 594.55 121.5 593.25C120.5 591.25 118.8 589.95 116.2 589.25C115 589.05 114.6 589.05 111.2 589.05L107.9 589.15ZM115.5 592.35C116.5 592.65 117.4 593.25 118 594.25L118.6 595.25C118.8 595.95 118.8 596.95 118.7 597.65C118.7 598.25 118.4 599.05 118.3 599.15L117.9 599.65C117.623 600.1 117.259 600.491 116.83 600.8C116.401 601.109 115.915 601.33 115.4 601.45C114.575 601.6 113.734 601.633 112.9 601.55H111V596.95L111.1 592.15H113.1C114.5 592.15 115.1 592.15 115.5 592.35ZM144.5 589.05C144.1 589.15 144.1 589.35 144.1 592.05V594.85L143.7 594.55C142.4 593.25 140 593.15 138.2 594.25L137.2 595.05C136.348 595.96 135.796 597.11 135.617 598.343C135.438 599.577 135.642 600.836 136.2 601.95C137.2 603.95 139.2 605.15 141.2 604.95C142.4 604.95 143 604.65 143.8 603.85L144.1 603.55V603.95C144.1 604.15 144.1 604.35 144.3 604.45C144.3 604.65 144.4 604.65 145.7 604.65L147.1 604.55C147.2 604.45 147.3 603.55 147.3 596.95C147.3 589.45 147.3 589.35 147.1 589.25C146.9 589.05 146.9 589.05 145.8 589.05H144.4H144.5ZM142.6 596.65C143.1 596.85 143.7 597.55 144 598.05C144.1 598.45 144.2 598.55 144.2 599.25C144.2 599.95 144.2 600.05 143.9 600.55C143.4 601.55 142.6 601.95 141.6 601.95C140 601.95 138.9 600.75 139 599.05C139 598.25 139.3 597.65 139.9 597.15C140.5 596.55 140.9 596.45 141.7 596.45L142.6 596.65ZM157 589.25L156.8 589.45V594.75L156.3 594.45C155.882 594.007 155.369 593.665 154.8 593.45L152.2 593.55C151.2 593.85 150 594.55 149.4 595.45L149 595.95L148.5 597.15C148.2 597.95 148.1 598.95 148.2 599.85C148.2 600.55 148.6 601.65 148.8 601.95C149.375 602.887 150.163 603.675 151.1 604.25C151.9 604.65 152.5 604.85 153.3 604.85C154.5 604.95 155.4 604.65 156.3 603.85L156.7 603.45V603.75C156.7 604.15 156.9 604.45 157 604.55H159.7C160 604.35 160 603.95 160 596.75C160 589.05 160 589.15 159.6 588.95H158.3C157.3 588.95 157.2 588.95 157 589.15V589.25ZM155.2 596.65C155.7 596.95 156.2 597.35 156.4 597.85L156.7 598.35L156.8 599.15C156.8 599.85 156.8 599.95 156.6 600.35C156.1 601.35 155.4 601.85 154.4 601.95C153.3 601.95 152.4 601.55 152 600.55C151.7 600.05 151.7 599.95 151.7 599.25C151.7 598.55 151.7 598.45 151.9 598.05L152.7 597.05C153.3 596.45 154.5 596.25 155.2 596.65ZM173.2 591.35V591.95L173.3 592.55L173.4 592.15V591.85L173.6 592.15L173.8 592.35C173.8 592.35 174 592.35 174 592.15L174.2 591.85V592.15L174.3 592.55C174.5 592.55 174.5 592.55 174.5 591.95C174.5 591.45 174.5 591.35 174.3 591.35L174 591.65L173.8 591.95L173.7 591.75L173.5 591.35H173.3H173.2ZM99.8998 593.75C97.8998 594.15 96.1998 595.45 95.4998 597.35C95.4473 597.587 95.3806 597.821 95.2998 598.05C95.0947 598.938 95.0947 599.862 95.2998 600.75L95.3998 601.15C95.6851 601.879 96.0908 602.555 96.5999 603.15C97.1654 603.747 97.8457 604.223 98.5999 604.55L99.2998 604.85C100.352 605.097 101.447 605.097 102.5 604.85C103.2 604.75 104.3 604.15 105 603.65C105.722 603.023 106.274 602.224 106.606 601.327C106.938 600.429 107.039 599.463 106.9 598.517C106.76 597.571 106.385 596.675 105.808 595.912C105.232 595.148 104.472 594.543 103.6 594.15C102.6 593.65 101 593.45 99.8998 593.75ZM101.9 596.75L102.4 597.05C103.4 597.95 103.6 598.35 103.7 599.35C103.7 599.95 103.7 600.05 103.4 600.55C103 601.25 102.4 601.75 101.4 601.95C100.4 602.15 99.1999 601.65 98.5999 600.55C98.3999 599.95 98.2999 598.95 98.5999 598.35C98.7999 597.85 99.3998 597.05 99.8998 596.85C100.5 596.55 101.2 596.55 101.9 596.85V596.75ZM127.9 593.65L126.3 594.05C125.6 594.31 124.967 594.723 124.448 595.26C123.929 595.796 123.537 596.442 123.3 597.15C123.014 597.944 122.893 598.789 122.944 599.631C122.996 600.474 123.219 601.297 123.6 602.05C124.096 603.105 124.944 603.954 126 604.45L126.4 604.65C126.4 604.85 128 605.15 128.8 605.05C129.8 605.05 130.4 604.75 131.2 603.95L131.6 603.65V604.05L131.7 604.55C131.8 604.75 131.8 604.75 133.2 604.75L134.6 604.65C134.8 604.55 134.8 604.05 134.8 599.35C134.8 594.45 134.8 594.15 134.6 594.05L133.2 593.95C131.7 593.95 131.6 593.95 131.6 594.55V594.95L131.2 594.65C130.697 594.165 130.077 593.821 129.4 593.65H127.7H127.9ZM129.9 596.65L130.8 597.35C131.3 597.85 131.3 597.95 131.5 598.45C131.9 599.85 131.4 601.25 130.1 601.85C129.5 602.15 128.6 602.15 127.9 601.85C127.378 601.547 126.96 601.094 126.7 600.55L126.6 599.35C126.6 598.65 126.6 598.45 126.8 598.15C127.12 597.522 127.651 597.026 128.3 596.75C128.9 596.55 129.3 596.55 129.9 596.75V596.65ZM160.9 593.95C160.7 594.15 160.7 594.45 161.1 595.75L163.9 604.55C164.1 604.75 164.1 604.75 164.9 604.75C165.6 604.75 165.8 604.75 165.7 604.85L165.6 605.45C165.3 606.45 164.9 606.75 164 606.75C163.5 606.75 163.4 606.75 162.9 606.45C162.2 606.05 161.9 606.05 161.7 606.35C161.4 606.65 160.7 607.75 160.7 607.95C160.7 608.25 161 608.55 161.7 608.95C163.1 609.55 165.2 609.55 166.5 608.95C167.1 608.55 167.8 607.85 168.1 607.15L168.9 604.85C169.844 601.301 170.844 597.767 171.9 594.25V594.05L170.3 593.95L168.8 594.05L167.8 597.25L166.6 601.95C165.772 599.469 165.006 596.968 164.3 594.45C164.2 593.95 164.1 593.95 162.5 593.95H161H160.9Z" fill="#272727"/>
<mask id="mask2_1693_345" style="mask-type:luminance" maskUnits="userSpaceOnUse" x="54" y="662" width="85" height="83">
<path d="M54.8999 662.35H138.4V744.65H54.8999V662.35Z" fill="white"/>
</mask>
<g mask="url(#mask2_1693_345)">
<path d="M95.6998 744.85C73.4998 744.85 55.6998 726.45 55.6998 703.75C55.6204 698.418 56.5922 693.123 58.5595 688.167C60.5268 683.211 63.4512 678.69 67.1657 674.865C70.8801 671.039 75.3119 667.982 80.2079 665.869C85.1038 663.756 90.368 662.628 95.6998 662.55C117.7 662.55 135.7 681.05 135.7 703.75C135.7 726.45 117.7 744.85 95.6998 744.85ZM95.6998 668.85C91.1737 668.902 86.7024 669.847 82.5422 671.631C78.382 673.414 74.6146 676.001 71.456 679.243C68.2975 682.485 65.8098 686.319 64.1357 690.524C62.4615 694.73 61.6337 699.224 61.6998 703.75C61.647 708.268 62.4845 712.751 64.1647 716.945C65.8448 721.139 68.3346 724.961 71.4918 728.192C74.6491 731.424 78.412 734.002 82.5656 735.779C86.7192 737.556 91.1822 738.498 95.6998 738.55C104.789 738.392 113.445 734.643 119.779 728.123C126.112 721.602 129.607 712.84 129.5 703.75C129.607 694.661 126.112 685.898 119.779 679.378C113.445 672.857 104.789 669.108 95.6998 668.95V668.85Z" fill="#272727"/>
<path d="M108.9 732.55C107.6 732.55 102.9 723.95 102.2 721.55C100.9 716.35 101.2 714.15 101.2 713.55C101.5 711.35 103.5 710.35 103.6 707.45L104.4 698.65C103.6 698.55 102.7 698.15 101.9 697.55C104.2 700.55 100.9 704.45 95.9 709.45C90.7 714.75 79.2 719.65 79.2 719.65C79.2 719.65 84 707.85 89.2 702.55C93.1 698.65 96.2 695.65 98.8 695.65C99.5 695.65 100.2 695.95 100.9 696.45C100.31 695.722 99.8993 694.866 99.7 693.95L91.1 694.75C88.3 694.85 87.3 696.95 85.2 697.15L83.9 697.25C81.7016 697.173 79.5199 696.837 77.4 696.25C74.7 695.45 65 689.85 66.7 689.15C67.6 688.75 70.4 688.55 74.1 688.55C77.6 688.55 82.1 688.75 86.3 689.35C91.6 690.05 96.5 690.95 99.8 691.55L100 691.05L96.6 689.35C96.6 689.35 93.9 686.25 94.2 685.95C94.7 685.95 96.8 688.55 97.1 688.75L99.1 689.45L98.1 688.65C98.1 688.65 96.8 683.65 97.1 683.55C97.5 683.55 98.7 687.85 98.8 688.15L100.8 689.25L99.8 686.55C99.8 686.55 100.3 682.05 100.6 682.05C101 682.05 100.6 685.85 100.5 686.25L102.2 688.95C102.7 688.75 103.2 688.65 103.8 688.65C104.4 688.65 105.1 688.85 105.7 689.05C104.9 687.35 105 685.55 106 684.45C106.3 684.05 106.8 683.85 107.2 683.75C107.2 683.35 107.4 683.05 107.6 682.85C107.933 682.554 108.356 682.378 108.8 682.35C109.2 682.35 109.6 682.55 110 682.85C110.3 683.25 110.4 683.65 110.5 684.05C111 683.05 111.5 681.55 111.5 681.05C111.5 680.05 110.2 678.05 110.2 678.05V677.75C110.255 677.701 110.326 677.674 110.4 677.674C110.474 677.674 110.545 677.701 110.6 677.75C110.7 677.85 111.9 679.75 112 681.05C112.1 681.65 111.3 683.45 111 684.25C112.231 684.956 113.237 685.996 113.9 687.25C114.908 686.752 115.988 686.415 117.1 686.25C118.3 686.25 120.1 687.55 120.3 687.55C120.3 687.65 120.4 687.85 120.3 687.95C120.254 687.976 120.203 687.99 120.15 687.99C120.097 687.99 120.046 687.976 120 687.95C120 687.95 118.1 686.75 117 686.65C116.5 686.65 115.1 687.25 114.1 687.75C114.5 687.75 114.9 687.95 115.3 688.25C115.9 688.95 115.9 690.05 115.3 690.65C115.1 690.85 114.8 691.05 114.5 691.05C114.35 691.545 114.074 691.993 113.7 692.35C113.2 692.95 112.4 693.15 111.5 693.15C110.8 693.15 110 692.95 109.2 692.65C109.622 693.779 109.622 695.021 109.2 696.15C110.5 696.95 111.8 697.75 111.9 697.95L115.3 697.65L116.1 697.75C116.1 698.15 111.7 698.65 111.7 698.65L109 697.55L110 699.55C110.4 699.75 114.7 700.95 114.6 701.35H114.4C113.4 701.35 109.6 700.35 109.6 700.35L108.8 699.35L109.5 701.35C109.8 701.65 112.5 704.05 112.2 704.35C111.7 704.35 108.9 701.85 108.9 701.85L107.3 698.35L106.7 698.55C107.4 701.95 108.3 706.95 109 712.35C109.943 719.053 109.91 725.857 108.9 732.55ZM126.4 739.45H124.4V744.65H123.2V739.45H121.3V738.45H126.3V739.45H126.4ZM128.8 738.35L130.4 742.95L132 738.35H133.6V744.65H132.4V739.95L130.8 744.65H129.9L128.3 739.95L128.4 742.95V744.65H127.1V738.25H128.8V738.35Z" fill="#272727"/>
</g>
<path d="M81.8997 841.2H78.1997V826.4H81.8997V841.2ZM111.9 830.7C111.8 830.6 110.6 829.9 108.8 829.9C106.4 829.9 104.8 831.5 104.8 833.8C104.8 836 106.3 837.8 108.8 837.8C110.5 837.8 111.8 837 111.9 836.9V840.9C111.5 841 110.2 841.4 108.5 841.4C104.3 841.4 100.7 838.5 100.7 833.8C100.7 829.4 104 826.2 108.5 826.2C110.3 826.2 111.5 826.6 111.9 826.7V830.7ZM73.0997 830.7C72.8997 830.6 71.6997 829.9 69.8997 829.9C67.4997 829.9 65.8997 831.5 65.8997 833.8C65.8997 836 67.4997 837.8 69.8997 837.8C71.6997 837.8 72.8997 837 73.0997 836.9V840.9C72.5997 841 71.2997 841.4 69.6997 841.4C65.4997 841.4 61.7997 838.5 61.7997 833.8C61.7997 829.4 65.0997 826.2 69.6997 826.2C71.3997 826.2 72.6997 826.6 73.0997 826.7V830.7ZM123.6 829.9C123.092 829.9 122.59 830.001 122.122 830.198C121.654 830.396 121.231 830.684 120.877 831.048C120.523 831.412 120.245 831.842 120.06 832.315C119.875 832.788 119.786 833.293 119.8 833.8C119.8 835.9 121.4 837.7 123.6 837.7C124.643 837.674 125.635 837.241 126.364 836.494C127.092 835.746 127.5 834.744 127.5 833.7C127.5 831.7 125.8 829.9 123.6 829.9ZM131.4 833.8C131.4 838 128.2 841.4 123.6 841.4C122.585 841.427 121.575 841.25 120.63 840.88C119.685 840.51 118.823 839.954 118.096 839.246C117.369 838.537 116.791 837.691 116.397 836.755C116.002 835.82 115.799 834.815 115.8 833.8C115.8 829.6 119.1 826.2 123.6 826.2C128.2 826.2 131.4 829.6 131.4 833.8ZM96.0997 829.7C96.0997 829.7 94.4997 829.2 93.1997 829.2C91.6997 829.2 90.8997 829.7 90.8997 830.4C90.8997 831.4 91.9997 831.6 92.5997 831.8L93.5997 832.2C96.0997 832.9 97.1997 834.6 97.1997 836.4C97.1997 840.1 93.8997 841.4 91.0997 841.4C89.0997 841.4 87.1997 841 87.0997 840.9V837.7C87.3997 837.8 88.8998 838.3 90.4998 838.3C92.3998 838.3 93.2997 837.7 93.2997 836.9C93.2997 836.2 92.4997 835.7 91.5997 835.4L90.7997 835.2C88.7997 834.5 86.9998 833.3 86.9998 830.9C86.9998 828.1 88.9998 826.3 92.4998 826.3C94.2998 826.3 95.9997 826.7 96.0997 826.7V829.9V829.7ZM57.8997 810.6C57.8997 810.109 57.7048 809.639 57.3578 809.292C57.0109 808.945 56.5404 808.75 56.0497 808.75C55.5591 808.75 55.0885 808.945 54.7416 809.292C54.3946 809.639 54.1997 810.109 54.1997 810.6V814.4C54.2301 814.744 54.3541 815.074 54.5581 815.354C54.7622 815.633 55.0386 815.851 55.3576 815.985C55.6766 816.119 56.0261 816.163 56.3683 816.113C56.7106 816.062 57.0326 815.92 57.2997 815.7C57.6997 815.4 57.8997 814.9 57.8997 814.4V810.7V810.6ZM67.9998 805.5C67.9998 805.009 67.8048 804.539 67.4579 804.192C67.1109 803.845 66.6404 803.65 66.1497 803.65C65.6591 803.65 65.1886 803.845 64.8416 804.192C64.4947 804.539 64.2997 805.009 64.2997 805.5V814.5C64.3974 814.917 64.6333 815.289 64.9692 815.556C65.305 815.822 65.7211 815.967 66.1497 815.967C66.5784 815.967 66.9944 815.822 67.3303 815.556C67.6661 815.289 67.9021 814.917 67.9998 814.5V805.5ZM78.1997 798.5C78.1997 798.009 78.0048 797.539 77.6579 797.192C77.311 796.845 76.8404 796.65 76.3497 796.65C75.8591 796.65 75.3885 796.845 75.0416 797.192C74.6946 797.539 74.4998 798.009 74.4998 798.5V818.1C74.5302 818.444 74.654 818.774 74.8581 819.054C75.0621 819.333 75.3386 819.551 75.6576 819.685C75.9766 819.819 76.3261 819.863 76.6683 819.813C77.0106 819.762 77.3326 819.62 77.5997 819.4C77.9997 819.1 78.1997 818.6 78.1997 818.1V798.5ZM88.2997 805.5C88.2997 805.009 88.1048 804.539 87.7579 804.192C87.4109 803.845 86.9404 803.65 86.4497 803.65C85.9591 803.65 85.4885 803.845 85.1416 804.192C84.7947 804.539 84.5997 805.009 84.5997 805.5V814.5C84.6974 814.917 84.9334 815.289 85.2692 815.556C85.6051 815.822 86.0211 815.967 86.4497 815.967C86.8783 815.967 87.2944 815.822 87.6302 815.556C87.9661 815.289 88.2021 814.917 88.2997 814.5V805.5ZM98.4998 810.5C98.4998 810.009 98.3048 809.539 97.9579 809.192C97.6109 808.845 97.1404 808.65 96.6497 808.65C96.1591 808.65 95.6886 808.845 95.3416 809.192C94.9947 809.539 94.7997 810.009 94.7997 810.5V814.5C94.7997 814.991 94.9947 815.461 95.3416 815.808C95.6886 816.155 96.1591 816.35 96.6497 816.35C97.1404 816.35 97.6109 816.155 97.9579 815.808C98.3048 815.461 98.4998 814.991 98.4998 814.5V810.5ZM108.6 805.5C108.6 805.009 108.405 804.539 108.058 804.192C107.711 803.845 107.24 803.65 106.75 803.65C106.259 803.65 105.789 803.845 105.442 804.192C105.095 804.539 104.9 805.009 104.9 805.5V814.5C104.9 814.991 105.095 815.461 105.442 815.808C105.789 816.155 106.259 816.35 106.75 816.35C107.24 816.35 107.711 816.155 108.058 815.808C108.405 815.461 108.6 814.991 108.6 814.5V805.5ZM118.8 798.5C118.8 798.009 118.605 797.539 118.258 797.192C117.911 796.845 117.44 796.65 116.95 796.65C116.459 796.65 115.989 796.845 115.642 797.192C115.295 797.539 115.1 798.009 115.1 798.5V818.1C115.071 818.353 115.097 818.608 115.175 818.85C115.253 819.092 115.381 819.315 115.551 819.504C115.721 819.693 115.929 819.844 116.161 819.946C116.394 820.049 116.646 820.101 116.9 820.1C117.162 820.116 117.425 820.075 117.67 819.979C117.914 819.882 118.135 819.734 118.316 819.543C118.497 819.352 118.634 819.124 118.718 818.875C118.802 818.626 118.829 818.361 118.8 818.1V798.5ZM128.9 805.5C128.9 804.5 128.1 803.6 127.1 803.6C126.846 803.585 126.593 803.625 126.356 803.715C126.119 803.805 125.903 803.945 125.724 804.124C125.545 804.304 125.405 804.519 125.315 804.756C125.224 804.993 125.185 805.247 125.2 805.5V814.5C125.2 815.5 126.1 816.3 127.1 816.3C128.1 816.3 128.9 815.5 128.9 814.4V805.4V805.5ZM139.1 810.5C139.1 810.009 138.905 809.539 138.558 809.192C138.211 808.845 137.74 808.65 137.25 808.65C136.759 808.65 136.289 808.845 135.942 809.192C135.595 809.539 135.4 810.009 135.4 810.5V814.5C135.4 814.991 135.595 815.461 135.942 815.808C136.289 816.155 136.759 816.35 137.25 816.35C137.74 816.35 138.211 816.155 138.558 815.808C138.905 815.461 139.1 814.991 139.1 814.5V810.5ZM136.9 839.2V839.5H136.3V841.2H136V839.5H135.4V839.2H136.9ZM137.1 839.2H137.5L138.1 840.8L138.7 839.2H139.1V841.2H138.8V839.6L138.2 841.2H137.9L137.4 839.6V841.2H137.1V839.2Z" fill="#272727"/>
</svg>
