<svg width="220" height="508" viewBox="0 0 220 508" fill="none" xmlns="http://www.w3.org/2000/svg">
<rect x="94" width="32" height="32" rx="16" fill="#D88E8C"/>
<path d="M104.441 9.00044L103.148 10.293L115.856 23.0004L117.148 21.7079L104.441 9.00044Z" fill="black"/>
<path d="M102.852 21.7073L104.121 22.9766L116.828 10.2691L115.559 8.99987L102.852 21.7073Z" fill="black"/>
<path d="M0 50H220" stroke="#ECEAE5"/>
<rect x="94" y="68" width="32" height="32" rx="16" fill="#D88E8C"/>
<path d="M104.441 77.0004L103.148 78.293L115.856 91.0004L117.148 89.7079L104.441 77.0004Z" fill="black"/>
<path d="M102.852 89.7073L104.121 90.9766L116.828 78.2691L115.559 76.9999L102.852 89.7073Z" fill="black"/>
<path d="M0 118H220" stroke="#ECEAE5"/>
<rect x="94" y="136" width="32" height="32" rx="16" fill="#98C5C2"/>
<path d="M107.486 155.2L116.629 146.057L118 147.429L107.486 157.943L102 152.457L103.371 151.086L107.486 155.2Z" fill="black"/>
<path d="M0 186H220" stroke="#ECEAE5"/>
<rect x="94" y="204" width="32" height="32" rx="16" fill="#98C5C2"/>
<path d="M107.486 223.2L116.629 214.057L118 215.429L107.486 225.943L102 220.457L103.371 219.086L107.486 223.2Z" fill="black"/>
<path d="M0 254H220" stroke="#ECEAE5"/>
<rect x="94" y="272" width="32" height="32" rx="16" fill="#D88E8C"/>
<path d="M104.441 281L103.148 282.293L115.856 295L117.148 293.708L104.441 281Z" fill="black"/>
<path d="M102.852 293.707L104.121 294.977L116.828 282.269L115.559 281L102.852 293.707Z" fill="black"/>
<path d="M0 322H220" stroke="#ECEAE5"/>
<rect x="94" y="340" width="32" height="32" rx="16" fill="#D88E8C"/>
<path d="M104.441 349L103.148 350.293L115.856 363L117.148 361.708L104.441 349Z" fill="black"/>
<path d="M102.852 361.708L104.121 362.978L116.829 350.27L115.559 349.001L102.852 361.708Z" fill="black"/>
<path d="M0 390H220" stroke="#ECEAE5"/>
<rect x="94" y="408" width="32" height="32" rx="16" fill="#D88E8C"/>
<path d="M104.441 417L103.148 418.293L115.856 431L117.148 429.708L104.441 417Z" fill="black"/>
<path d="M102.852 429.708L104.121 430.978L116.829 418.27L115.559 417.001L102.852 429.708Z" fill="black"/>
<path d="M0 458H220" stroke="#ECEAE5"/>
<rect x="94" y="476" width="32" height="32" rx="16" fill="#98C5C2"/>
<path d="M107.486 495.2L116.629 486.057L118 487.429L107.486 497.943L102 492.457L103.371 491.086L107.486 495.2Z" fill="black"/>
</svg>
