<svg width="31" height="31" viewBox="0 0 31 31" fill="none" xmlns="http://www.w3.org/2000/svg">
<path d="M0.294922 30.2562H30.4143V0.198273H0.294922V30.2562Z" fill="white"/>
<path d="M23.9478 9.53331C22.433 8.02611 20.3813 7.17975 18.2422 7.17975C16.1032 7.17975 14.0515 8.02611 12.5367 9.53331L12.3408 9.67993L11.2144 9.58218C10.3101 9.58582 9.41562 9.76921 8.58316 10.1217C7.75069 10.4741 6.99693 10.9885 6.36589 11.6349C5.4069 12.5918 4.75379 13.8111 4.4892 15.1385C4.2246 16.4658 4.36038 17.8417 4.87937 19.0921C5.39836 20.3424 6.27725 21.4111 7.40488 22.1629C8.53251 22.9148 9.85823 23.316 11.2144 23.3159H18.4137C19.9999 23.2842 21.5417 22.7871 22.8467 21.8868C24.1518 20.9864 25.1624 19.7226 25.7525 18.2528C26.3426 16.7831 26.4862 15.1726 26.1653 13.622C25.8443 12.0714 25.0731 10.6494 23.9478 9.53331ZM11.2634 21.8497C10.2052 21.8187 9.17855 21.4828 8.30742 20.8824C7.43629 20.2821 6.75786 19.443 6.35399 18.4664C5.95013 17.4898 5.83808 16.4174 6.03137 15.3786C6.22467 14.3399 6.71504 13.3792 7.44332 12.6124C8.46961 11.6231 9.83653 11.0634 11.2634 11.0484H12.047L12.8795 11.2439C13.3942 11.3988 13.8757 11.6474 14.2998 11.977C14.5169 12.1128 14.7146 12.2772 14.8875 12.4658L15.0834 12.6124L17.2383 14.8118C17.376 14.957 17.4528 15.1494 17.4528 15.3494C17.4528 15.5494 17.376 15.7418 17.2383 15.887C17.1754 15.9526 17.0991 16.004 17.0146 16.0378C16.9302 16.0715 16.8394 16.0867 16.7485 16.0825C16.6502 16.0876 16.5518 16.0729 16.4593 16.0394C16.3667 16.0058 16.2819 15.954 16.2098 15.887L14.3977 14.1275L14.0549 13.7365L13.859 13.541C13.3422 13.0951 12.7175 12.7918 12.047 12.6613H11.2634C10.274 12.702 9.33366 13.1018 8.61873 13.7854C8.07489 14.3254 7.70421 15.0146 7.55379 15.7654C7.40337 16.5162 7.48 17.2946 7.77396 18.0018C8.06791 18.709 8.56592 19.313 9.20468 19.7371C9.84344 20.1612 10.5941 20.3862 11.3613 20.3835H12.047L12.6836 20.97C12.9949 21.3171 13.3584 21.6139 13.7611 21.8497H11.2634ZM22.9193 19.8947C22.2418 20.571 21.4221 21.0885 20.5196 21.4098L19.687 21.6542C19.2546 21.767 18.8112 21.8325 18.3647 21.8497H18.2177C16.6953 21.8457 15.2225 21.3096 14.0549 20.3346L13.5652 19.8947L10.4798 16.8156C10.342 16.6704 10.2652 16.478 10.2652 16.278C10.2652 16.078 10.342 15.8856 10.4798 15.7404C10.5427 15.6748 10.6189 15.6234 10.7034 15.5896C10.7879 15.5559 10.8786 15.5407 10.9695 15.5449C11.0678 15.5398 11.1662 15.5544 11.2588 15.588C11.3513 15.6216 11.4361 15.6734 11.5082 15.7404L14.5446 18.8195C14.85 19.0908 15.1776 19.336 15.5241 19.5526C16.3142 20.0513 17.2342 20.3064 18.1688 20.2857C18.5814 20.288 18.9928 20.2387 19.3932 20.1391C19.671 20.0934 19.9372 19.9938 20.1767 19.8458C20.7753 19.5862 21.3226 19.2221 21.7929 18.7706C22.7351 17.8113 23.2629 16.5216 23.2629 15.1783C23.2629 13.8351 22.7351 12.5453 21.7929 11.586C20.8226 10.6445 19.5222 10.1184 18.1688 10.1198C17.1553 10.1245 16.1663 10.4308 15.3282 10.9995C14.92 10.6493 14.4567 10.3685 13.957 10.1687C15.2494 8.98262 16.9609 8.3575 18.7152 8.43082C20.4694 8.50415 22.1226 9.26992 23.3111 10.5597C24.4996 11.8494 25.126 13.5575 25.0525 15.3082C24.9791 17.0588 24.2117 18.7087 22.9193 19.8947Z" fill="#AFBF99"/>
</svg>
