<svg width="62" height="29" viewBox="0 0 62 29" fill="none" xmlns="http://www.w3.org/2000/svg">
<path d="M50.651 6.83215H47.1584V10.3034H50.651C51.0479 10.3046 51.4281 10.4623 51.7084 10.7419C51.9886 11.0215 52.1461 11.4001 52.1464 11.795C52.1472 11.9906 52.109 12.1845 52.0341 12.3654C51.9593 12.5463 51.8492 12.7107 51.7102 12.8491C51.5712 12.9874 51.406 13.0971 51.2243 13.1717C51.0425 13.2463 50.8477 13.2844 50.651 13.2837H47.1584V16.7569H50.651C51.9737 16.7561 53.242 16.233 54.1773 15.3025C55.1125 14.3719 55.6383 13.11 55.6391 11.794C55.6383 10.478 55.1125 9.21617 54.1773 8.28562C53.242 7.35507 51.9737 6.83291 50.651 6.83215ZM30.7479 25.2005C34.9282 25.2005 38.5314 22.7645 40.2143 19.2397H44.6667V25.2005H47.1593V19.2397H50.652C54.7871 19.2397 58.1374 15.9063 58.1374 11.7959C58.1374 7.6856 54.7871 4.35025 50.652 4.35025H44.6658V13.2847H41.1144C40.3903 8.2348 36.0244 4.35025 30.7479 4.35025H18.4658L6.2385 25.2005H9.15228L12.643 19.2397H25.1983V25.2005H30.7479ZM61.6292 11.8055C61.6292 17.8352 56.7132 22.7129 50.651 22.7129V28.6679H41.175V24.0237C38.6113 26.8749 34.8936 28.6698 30.7479 28.6698H21.7085V22.7129H14.65L11.1592 28.6679H0.0839844L16.3771 0.87521H30.7489C34.8839 0.87521 38.6132 2.67397 41.176 5.52518V0.87521H50.652C53.5626 0.876477 56.3537 2.0273 58.4119 4.07482C60.4702 6.12235 61.6274 8.8991 61.6292 11.795V11.8055ZM21.7181 6.84268V13.2943H16.1473L14.1124 16.7674H25.2098V6.83215L21.7181 6.84268ZM38.7421 14.7716C38.7421 19.1575 35.1647 22.7129 30.7585 22.7129H27.7149V19.2397H30.7585C31.948 19.2375 33.0881 18.7657 33.9284 17.928C34.7688 17.0903 35.2407 15.9551 35.2407 14.7716C35.2382 13.587 34.7639 12.4516 33.9219 11.6142C33.0798 10.7767 31.9385 10.3054 30.7479 10.3034H27.7043V6.83215H30.7479C35.1561 6.83215 38.7315 10.3866 38.7315 14.7716" fill="white"/>
</svg>
