<svg width="49" height="33" viewBox="0 0 49 33" fill="none" xmlns="http://www.w3.org/2000/svg">
<path d="M4.84923 30.4688C4.47222 30.4689 4.09899 30.3946 3.75129 30.2503C3.40358 30.106 3.08837 29.8945 2.82407 29.6283C2.55977 29.3621 2.35166 29.0464 2.21189 28.6997C2.07212 28.353 2.00347 27.9822 2.00997 27.6089C2.00997 26.8633 2.30911 26.1482 2.84158 25.6209C3.37404 25.0937 4.09621 24.7975 4.84923 24.7975C5.60225 24.7975 6.32445 25.0937 6.85692 25.6209C7.38938 26.1482 7.68852 26.8633 7.68852 27.6089C7.69502 27.9822 7.62638 28.353 7.48661 28.6997C7.34683 29.0464 7.13873 29.3621 6.87443 29.6283C6.61013 29.8945 6.29491 30.106 5.94721 30.2503C5.5995 30.3946 5.22625 30.4689 4.84923 30.4688V30.4688ZM7.68852 30.8566C7.73684 31.1039 7.8618 31.3302 8.04605 31.504C8.2303 31.6778 8.46466 31.7903 8.71652 31.8261H9.0592C9.12411 31.8261 9.18635 31.8005 9.23226 31.7551C9.27816 31.7096 9.30396 31.648 9.30396 31.5837V23.731C9.30396 23.6668 9.27816 23.6051 9.23226 23.5597C9.18635 23.5142 9.12411 23.4887 9.0592 23.4887H7.93329C7.86837 23.4887 7.8061 23.5142 7.7602 23.5597C7.7143 23.6051 7.68852 23.6668 7.68852 23.731V24.3612C7.33244 23.9704 6.89278 23.6632 6.4016 23.4619C5.91042 23.2607 5.38008 23.1704 4.84923 23.1978C3.66777 23.1978 2.53472 23.6626 1.69929 24.4898C0.863874 25.317 0.394531 26.439 0.394531 27.6089C0.394531 28.7788 0.863874 29.9007 1.69929 30.728C2.53472 31.5552 3.66777 32.0199 4.84923 32.0199C5.37846 32.0344 5.90484 31.9382 6.39404 31.7378C6.88324 31.5373 7.32431 31.2371 7.68852 30.8566V30.8566ZM11.9964 29.6932C12.6759 30.1936 13.4993 30.4654 14.3461 30.4688C15.0804 30.4688 15.8636 30.081 15.8636 29.4024C15.8636 28.7238 14.1992 28.3845 13.1223 28.0452C12.0453 27.7058 11.1642 26.9303 11.1642 25.7669C11.1642 24.6036 12.7796 23.1494 14.3461 23.1494C15.2682 23.1556 16.169 23.4249 16.9406 23.9249C17.1854 24.1188 17.0385 24.3127 17.0385 24.3127L16.4021 25.1852C16.3868 25.2146 16.3656 25.2405 16.3397 25.2615C16.3139 25.2824 16.284 25.2979 16.2519 25.307C16.2198 25.3161 16.1862 25.3186 16.1531 25.3143C16.12 25.31 16.0881 25.2991 16.0595 25.2822C15.5714 24.9017 14.9673 24.6966 14.3461 24.7005C13.2691 24.7005 12.8286 25.1368 12.8286 25.67C12.8286 26.2032 13.5629 26.494 14.444 26.7364C15.3252 26.9787 17.528 27.6089 17.528 29.4024C17.528 31.1959 16.0105 32.0199 14.3461 32.0199C13.1694 32.0481 12.0162 31.6903 11.0663 31.002C11.0229 30.9579 10.9947 30.9012 10.9859 30.8403C10.9771 30.7793 10.9881 30.7171 11.0173 30.6627L11.6537 29.7902C11.669 29.7608 11.6903 29.7349 11.7161 29.7139C11.7419 29.693 11.7718 29.6775 11.8039 29.6684C11.836 29.6594 11.8696 29.6569 11.9027 29.6611C11.9358 29.6654 11.9677 29.6763 11.9964 29.6932V29.6932ZM25.9479 30.8566C25.9963 31.1039 26.1212 31.3302 26.3055 31.504C26.4897 31.6778 26.7241 31.7903 26.9759 31.8261H27.3186C27.3835 31.8261 27.4458 31.8005 27.4917 31.7551C27.5376 31.7096 27.5634 31.648 27.5634 31.5837V23.731C27.5634 23.6668 27.5376 23.6051 27.4917 23.5597C27.4458 23.5142 27.3835 23.4887 27.3186 23.4887H26.1927C26.1278 23.4887 26.0655 23.5142 26.0196 23.5597C25.9737 23.6051 25.9479 23.6668 25.9479 23.731V24.3612C25.5919 23.9704 25.1522 23.6632 24.661 23.4619C24.1698 23.2607 23.6395 23.1704 23.1087 23.1978C21.9272 23.1978 20.7941 23.6626 19.9587 24.4898C19.1233 25.317 18.654 26.439 18.654 27.6089C18.654 28.7788 19.1233 29.9007 19.9587 30.728C20.7941 31.5552 21.9272 32.0199 23.1087 32.0199C23.6379 32.0344 24.1643 31.9382 24.6535 31.7378C25.1427 31.5373 25.5837 31.2371 25.9479 30.8566V30.8566ZM23.1087 30.4688C22.7317 30.4689 22.3584 30.3946 22.0107 30.2503C21.663 30.106 21.3478 29.8945 21.0835 29.6283C20.8192 29.3621 20.6111 29.0464 20.4713 28.6997C20.3315 28.353 20.2629 27.9822 20.2694 27.6089C20.2694 26.8633 20.5685 26.1482 21.101 25.6209C21.6335 25.0937 22.3557 24.7975 23.1087 24.7975C23.8617 24.7975 24.5839 25.0937 25.1163 25.6209C25.6488 26.1482 25.9479 26.8633 25.9479 27.6089C25.9544 27.9822 25.8858 28.353 25.746 28.6997C25.6063 29.0464 25.3981 29.3621 25.1338 29.6283C24.8695 29.8945 24.5543 30.106 24.2066 30.2503C23.8589 30.3946 23.4857 30.4689 23.1087 30.4688V30.4688ZM37.6477 31.099V27.0272C37.6477 24.749 36.1791 23.1978 33.8294 23.1978C33.3727 23.194 32.9216 23.2974 32.5132 23.4997C32.1047 23.7019 31.7505 23.9971 31.4796 24.3612V24.3612C31.4737 24.2358 31.4419 24.1129 31.3862 24.0001C31.3305 23.8872 31.2521 23.7869 31.1559 23.7052C31.0596 23.6235 30.9474 23.5621 30.8263 23.5249C30.7052 23.4876 30.5777 23.4753 30.4516 23.4887H30.1089C30.044 23.4887 29.9818 23.5142 29.9359 23.5597C29.89 23.6051 29.8642 23.6668 29.8642 23.731V31.6322C29.8642 31.6964 29.89 31.7581 29.9359 31.8035C29.9818 31.849 30.044 31.8745 30.1089 31.8745H31.4307C31.4307 31.8261 31.4796 31.7776 31.4796 31.7291V27.0757C31.4796 26.4843 31.7169 25.9172 32.1392 25.499C32.5615 25.0808 33.1342 24.8459 33.7314 24.8459C34.029 24.8393 34.3248 24.8924 34.6011 25.0022C34.8773 25.1119 35.1282 25.2759 35.3386 25.4843C35.5491 25.6926 35.7147 25.9411 35.8255 26.2146C35.9363 26.4881 35.99 26.7811 35.9833 27.0757V30.9535V31.7291C35.995 31.7976 36.031 31.8596 36.0849 31.9041C36.1387 31.9485 36.2069 31.9724 36.277 31.9715H37.5987C37.5987 31.923 37.6477 31.8745 37.6477 31.8261V31.2929V31.099ZM46.3613 30.8566C46.4096 31.1039 46.5346 31.3302 46.7188 31.504C46.9031 31.6778 47.1374 31.7903 47.3893 31.8261H47.732C47.8021 31.827 47.8702 31.8031 47.9241 31.7587C47.978 31.7142 48.014 31.6522 48.0257 31.5837V23.731H47.9767C47.9767 23.6668 47.9509 23.6051 47.905 23.5597C47.8591 23.5142 47.7969 23.4887 47.732 23.4887H46.6061C46.5412 23.4887 46.4789 23.5142 46.433 23.5597C46.3871 23.6051 46.3613 23.6668 46.3613 23.731V24.3612C46.0052 23.9704 45.5656 23.6632 45.0744 23.4619C44.5832 23.2607 44.0529 23.1704 43.522 23.1978C42.3406 23.1978 41.2075 23.6626 40.3721 24.4898C39.5367 25.317 39.0673 26.439 39.0673 27.6089C39.0673 28.7788 39.5367 29.9007 40.3721 30.728C41.2075 31.5552 42.3406 32.0199 43.522 32.0199C44.0512 32.0344 44.5776 31.9382 45.0668 31.7378C45.556 31.5373 45.9971 31.2371 46.3613 30.8566V30.8566ZM43.522 30.4688C43.145 30.4689 42.7718 30.3946 42.4241 30.2503C42.0764 30.106 41.7612 29.8945 41.4969 29.6283C41.2326 29.3621 41.0244 29.0464 40.8847 28.6997C40.7449 28.353 40.6763 27.9822 40.6828 27.6089C40.6828 26.8633 40.9819 26.1482 41.5144 25.6209C42.0468 25.0937 42.769 24.7975 43.522 24.7975C44.275 24.7975 44.9972 25.0937 45.5297 25.6209C46.0622 26.1482 46.3613 26.8633 46.3613 27.6089C46.3678 27.9822 46.2992 28.353 46.1594 28.6997C46.0196 29.0464 45.8115 29.3621 45.5472 29.6283C45.2829 29.8945 44.9677 30.106 44.62 30.2503C44.2723 30.3946 43.899 30.4689 43.522 30.4688V30.4688Z" fill="white"/>
<path d="M29.3249 9.77078C28.2862 9.77078 27.2901 10.1793 26.5557 10.9066C25.8212 11.6338 25.4086 12.6202 25.4086 13.6486C25.4086 14.6771 25.8212 15.6634 26.5557 16.3907C27.2901 17.1179 28.2862 17.5265 29.3249 17.5265C30.3635 17.5265 31.3596 17.1179 32.0941 16.3907C32.8285 15.6634 33.2411 14.6771 33.2411 13.6486C33.2411 12.6202 32.8285 11.6338 32.0941 10.9066C31.3596 10.1793 30.3635 9.77078 29.3249 9.77078ZM19.1916 9.77078C18.4171 9.77078 17.6599 9.99822 17.0159 10.4243C16.3719 10.8504 15.8699 11.4561 15.5735 12.1646C15.2771 12.8732 15.1995 13.6529 15.3506 14.4052C15.5017 15.1574 15.8747 15.8484 16.4224 16.3907C16.9701 16.933 17.6679 17.3023 18.4276 17.452C19.1873 17.6016 19.9747 17.5248 20.6903 17.2313C21.4059 16.9378 22.0175 16.4408 22.4479 15.803C22.8782 15.1653 23.1079 14.4156 23.1079 13.6486C23.1079 12.6202 22.6953 11.6338 21.9608 10.9066C21.2264 10.1793 20.2303 9.77078 19.1916 9.77078ZM28.15 4.92347C28.15 5.95194 27.7374 6.93829 27.003 7.66553C26.2685 8.39277 25.2724 8.80132 24.2338 8.80132C23.1951 8.80132 22.199 8.39277 21.4646 7.66553C20.7301 6.93829 20.3175 5.95194 20.3175 4.92347C20.3175 3.895 20.7301 2.90866 21.4646 2.18142C22.199 1.45419 23.1951 1.04562 24.2338 1.04562C25.2724 1.04562 26.2685 1.45419 27.003 2.18142C27.7374 2.90866 28.15 3.895 28.15 4.92347Z" fill="white"/>
</svg>
