<svg width="121" height="30" viewBox="0 0 121 30" fill="none" xmlns="http://www.w3.org/2000/svg">
<path d="M16.0059 15.5629H8.13382V17.1253H10.0148C10.7538 17.1253 11.4626 17.4246 11.9852 17.9574C12.5078 18.4901 12.8013 19.2127 12.8013 19.9661C12.8013 20.7195 12.5078 21.4421 11.9852 21.9749C11.4626 22.5076 10.7538 22.8069 10.0148 22.8069H6.53153L0.261719 29.1987H6.81019C9.03946 29.1276 19.0712 28.1334 19.0712 21.3865C19.0931 20.2293 18.8227 19.0858 18.2859 18.0659C17.7491 17.046 16.9639 16.1841 16.0059 15.5629Z" fill="white"/>
<path d="M21.1595 20.8893C21.1595 17.3383 17.7459 15.3498 16.91 14.9947L16.0043 15.5628C16.9623 16.184 17.7475 17.0459 18.2843 18.0658C18.8211 19.0857 19.0915 20.2292 19.0696 21.3864C19.0696 28.1333 9.03786 29.1276 6.80859 29.1986C20.4629 29.0565 21.1595 23.0909 21.1595 20.8893Z" fill="#EBEBEB"/>
<path d="M7.92483 0.790749H0.261719V29.1986L6.53153 22.8068V17.1253H7.92483C7.92483 17.1253 12.5227 17.4093 16.0059 15.5628L16.4239 15.3498L16.9116 14.9947C18.0308 14.2452 18.8853 13.1501 19.3498 11.8698C19.6466 11.0522 19.7884 10.1846 19.7678 9.3131C19.7678 0.790749 12.244 0.790749 7.92483 0.790749ZM10.7114 12.8641H7.92483C7.5553 12.8641 7.20091 12.7144 6.93962 12.4481C6.67833 12.1817 6.53153 11.8204 6.53153 11.4437V8.6029C6.53153 8.22619 6.67833 7.86491 6.93962 7.59853C7.20091 7.33216 7.5553 7.18251 7.92483 7.18251H10.7114C11.4505 7.18251 12.1592 7.4818 12.6818 8.01455C13.2044 8.5473 13.498 9.26987 13.498 10.0233C13.498 10.7767 13.2044 11.4993 12.6818 12.032C12.1592 12.5648 11.4505 12.8641 10.7114 12.8641Z" fill="white"/>
<path d="M12.5924 7.89261C12.8754 8.16798 13.1013 8.49842 13.2569 8.86438C13.4124 9.23033 13.4944 9.62437 13.498 10.0232C13.498 10.7766 13.2044 11.4992 12.6818 12.0319C12.1592 12.5647 11.4505 12.864 10.7114 12.864H7.92483C7.5553 12.864 7.20091 12.7143 6.93962 12.448C6.67832 12.1816 6.53153 11.8203 6.53153 11.4436V8.6028C6.53153 8.6028 6.53153 5.19387 8.20348 3.41838C7.27535 3.68114 6.4115 4.13919 5.66759 4.76302C4.92367 5.38686 4.31619 6.16264 3.88428 7.04038C0.958368 12.3669 0.261719 29.1985 0.261719 29.1985L6.53153 24.2981V17.1251H7.92483C13.498 17.1251 18.3745 14.2844 18.3745 9.73912V9.38402C18.356 9.38402 18.3383 9.37653 18.3253 9.36321C18.3122 9.3499 18.3049 9.33183 18.3049 9.313C16.5632 8.2477 13.1497 7.96362 12.5924 7.89261Z" fill="#EBEBEB"/>
<path d="M11.0594 2.99236C10.0919 2.98918 9.12928 3.1328 8.2032 3.41848C6.53125 5.19397 6.53125 8.6029 6.53125 8.6029C6.53125 8.22619 6.67804 7.86491 6.93933 7.59853C7.20063 7.33216 7.55502 7.18251 7.92454 7.18251H10.7111C11.3995 7.19186 12.0638 7.44266 12.5921 7.89271C13.1494 7.96373 16.563 8.24781 18.3046 9.3131C18.3046 9.33193 18.3119 9.35 18.325 9.36332C18.338 9.37663 18.3558 9.38412 18.3742 9.38412C18.1652 5.83314 14.9607 2.99236 11.0594 2.99236ZM10.0145 22.8068H6.53125V24.2272H9.31783C11.6168 24.2272 12.8011 22.3097 12.8011 19.966C12.8011 20.7195 12.5075 21.442 11.9849 21.9748C11.4623 22.5075 10.7535 22.8068 10.0145 22.8068Z" fill="#EBEBEB"/>
<path d="M37.1819 9.88135L40.8741 21.3865H39.4808L38.4359 18.0486H33.9077L32.8627 21.3865H31.5391L35.2313 9.88135H37.1819ZM34.256 16.9123H38.0875L36.9032 13.0062L36.2066 10.8046H36.1369C35.9279 11.5148 35.7189 12.154 35.5099 13.0062L34.256 16.9123Z" fill="white"/>
<path d="M49.1637 17.5515V9.88135H50.4177V17.4094C50.4177 20.1792 48.8851 21.5996 46.3075 21.5996C43.7299 21.5996 42.4062 20.1082 42.4062 17.6225V9.88135H43.6602V17.4094C43.6602 19.469 44.7748 20.3922 46.4468 20.3922C48.1187 20.3922 49.1637 19.611 49.1637 17.5515Z" fill="white"/>
<path d="M55.0854 11.0887H52.0898V9.88135H59.4046V11.0887H56.409V21.3865H55.0854V11.0887Z" fill="white"/>
<path d="M64.4201 21.5994C61.7032 21.5994 60.0312 19.966 60.0312 15.7048C60.0312 11.4436 61.7729 9.73917 64.4898 9.73917C67.2067 9.73917 68.8787 11.3726 68.8787 15.5628C68.8787 19.7529 67.0674 21.5994 64.4201 21.5994ZM64.4898 20.3921C66.3707 20.3921 67.555 19.2558 67.555 15.7048C67.555 12.1538 66.3011 10.8755 64.4201 10.8755C62.5392 10.8755 61.3549 12.0118 61.3549 15.5628C61.3549 19.1138 62.6088 20.3921 64.4898 20.3921Z" fill="white"/>
<path d="M71.3184 9.88135H74.3139C77.7275 9.88135 79.2601 11.6568 79.2601 15.5629C79.2601 19.469 77.7972 21.3865 74.3139 21.3865H71.3184V9.88135ZM72.642 20.2502H74.3139C76.7522 20.2502 77.9365 18.9718 77.9365 15.7049C77.9365 12.438 76.6129 11.0887 74.1746 11.0887H72.642V20.2502Z" fill="white"/>
<path d="M81.7676 21.3865V9.88135H87.7587V11.0887H83.0215V14.9947H87.2014V16.1311H83.0215V20.2502H87.9677V21.3865H81.7676Z" fill="white"/>
<path d="M95.2119 18.4745C95.2119 15.8468 89.8477 16.415 89.8477 12.793C89.8477 11.0885 91.3106 9.73913 93.3309 9.73913C94.3796 9.70809 95.4087 10.0328 96.2568 10.6624L95.4905 11.7277C94.8718 11.188 94.0747 10.9087 93.2613 10.9465C91.9376 10.9465 91.1713 11.6567 91.1713 12.722C91.1713 15.4207 96.5355 14.8525 96.5355 18.4035C96.5355 20.108 95.2119 21.5994 92.7736 21.5994C91.4864 21.6389 90.2272 21.211 89.2207 20.3921L89.987 19.3268C90.8086 20.0225 91.8449 20.3998 92.9129 20.3921C94.4456 20.3921 95.2119 19.5398 95.2119 18.4745Z" fill="white"/>
<path d="M100.16 21.3865H98.8359V9.88135H100.16V21.3865ZM104.548 9.88135H106.081L102.041 15.6339L106.429 21.3865H104.757L100.578 15.7049L104.548 9.88135Z" fill="white"/>
<path d="M112.489 14.9238C112.194 15.2618 111.827 15.5269 111.417 15.6992C111.006 15.8714 110.563 15.9463 110.12 15.918C109.678 15.9363 109.238 15.8569 108.829 15.6852C108.42 15.5136 108.052 15.2538 107.751 14.9238C107.441 14.6064 107.195 14.2298 107.028 13.8154C106.861 13.4011 106.775 12.9572 106.776 12.5091C106.767 12.0599 106.849 11.6136 107.017 11.1981C107.185 10.7826 107.435 10.4069 107.751 10.0944C108.049 9.75516 108.414 9.4846 108.823 9.30088C109.231 9.11716 109.674 9.02452 110.12 9.02914C111.014 9.06425 111.863 9.44216 112.496 10.0873C113.128 10.7325 113.499 11.5974 113.534 12.5091C113.538 12.9642 113.447 13.4151 113.267 13.8315C113.087 14.248 112.821 14.6203 112.489 14.9238ZM108.1 10.3785C107.826 10.6574 107.611 10.9901 107.467 11.3563C107.323 11.7226 107.254 12.1148 107.264 12.5091C107.26 12.8921 107.332 13.272 107.475 13.626C107.619 13.9799 107.831 14.3006 108.1 14.5687C108.348 14.8659 108.658 15.103 109.008 15.2627C109.357 15.4224 109.737 15.5007 110.12 15.4919C110.513 15.5014 110.904 15.4237 111.264 15.2643C111.625 15.1049 111.948 14.8676 112.21 14.5687C112.478 14.3006 112.691 13.9799 112.834 13.626C112.978 13.272 113.05 12.8921 113.046 12.5091C113.055 12.1148 112.986 11.7226 112.842 11.3563C112.699 10.9901 112.484 10.6574 112.21 10.3785C111.934 10.1028 111.607 9.88559 111.249 9.73932C110.89 9.59304 110.506 9.52064 110.12 9.52629C109.744 9.52215 109.372 9.5955 109.024 9.74196C108.677 9.88842 108.363 10.1049 108.1 10.3785ZM110.05 10.5916L111.095 10.7336C111.272 10.8079 111.421 10.9373 111.521 11.1031C111.621 11.2689 111.667 11.4627 111.653 11.6569C111.661 11.8061 111.634 11.9552 111.573 12.0912C111.512 12.2273 111.42 12.3463 111.304 12.4381L110.747 12.5801C111.001 12.6377 111.224 12.7897 111.374 13.0062C111.444 13.0819 111.499 13.1712 111.535 13.2688C111.571 13.3664 111.587 13.4703 111.583 13.5744V14.1426C111.583 14.2136 111.583 14.2846 111.653 14.2846H111.026V13.8585C111.039 13.6983 111.015 13.5371 110.954 13.3886C110.894 13.2402 110.799 13.109 110.677 13.0062L109.911 12.8642H109.423V14.3556H108.796V10.5916H110.05ZM110.747 11.1597L109.981 11.0177H109.423V12.4381H109.981L110.608 12.296C110.73 12.2638 110.838 12.19 110.914 12.0867C110.99 11.9835 111.03 11.8569 111.026 11.7279C111.04 11.6157 111.021 11.5016 110.971 11.4004C110.922 11.2992 110.844 11.2154 110.747 11.1597Z" fill="white"/>
</svg>
