<svg width="35" height="20" viewBox="0 0 35 20" fill="none" xmlns="http://www.w3.org/2000/svg">
<path d="M19.0191 5.9566C17.8296 5.95193 16.6615 6.26896 15.6405 6.87353C14.6194 7.47809 13.7843 8.34727 13.2249 9.38741C12.7738 8.56222 12.1489 7.84278 11.3926 7.27786C10.6363 6.71294 9.76629 6.31575 8.8415 6.11322C7.91671 5.91069 6.95878 5.90756 6.03265 6.10402C5.10653 6.30049 4.23386 6.69195 3.4738 7.2519V1.79061C3.4738 1.44707 3.33608 1.1176 3.09093 0.874682C2.84578 0.631764 2.51328 0.495293 2.16658 0.495293C1.81989 0.495293 1.4874 0.631764 1.24225 0.874682C0.997101 1.1176 0.859375 1.44707 0.859375 1.79061V1.79061V12.5382C0.888151 13.9785 1.39816 15.3687 2.30953 16.4911C3.2209 17.6136 4.48219 18.4048 5.8959 18.741C7.30962 19.0772 8.79594 18.9394 10.1222 18.3491C11.4484 17.7588 12.5396 16.7494 13.2249 15.4789C13.7684 16.4894 14.5726 17.3392 15.5554 17.9415C16.5383 18.5437 17.6648 18.877 18.82 18.9074C19.9753 18.9377 21.118 18.664 22.1316 18.1141C23.1453 17.5642 23.9938 16.7579 24.5905 15.7772C25.1872 14.7966 25.5108 13.6767 25.5284 12.5317C25.546 11.3867 25.257 10.2576 24.6907 9.25939C24.1244 8.26119 23.3011 7.4296 22.3048 6.8494C21.3085 6.26921 20.1747 5.96114 19.0191 5.9566V5.9566ZM7.43078 16.3541C6.6467 16.361 5.87821 16.137 5.22285 15.7104C4.5675 15.2838 4.05484 14.6739 3.74992 13.958C3.445 13.2422 3.36158 12.4528 3.51025 11.6899C3.65891 10.927 4.03296 10.2251 4.58492 9.67323C5.13688 9.12137 5.84187 8.74445 6.6104 8.5903C7.37893 8.43615 8.17634 8.51173 8.90145 8.80744C9.62655 9.10315 10.2466 9.60566 10.683 10.2512C11.1194 10.8967 11.3524 11.6562 11.3524 12.4331C11.3525 13.467 10.9404 14.459 10.206 15.1934C9.47152 15.9277 8.4741 16.3448 7.43078 16.3541V16.3541ZM19.0191 16.3541C18.235 16.361 17.4665 16.137 16.8111 15.7104C16.1558 15.2838 15.6431 14.6739 15.3382 13.958C15.0333 13.2422 14.9499 12.4528 15.0985 11.6899C15.2472 10.927 15.6213 10.2251 16.1732 9.67323C16.7252 9.12137 17.4302 8.74445 18.1987 8.5903C18.9672 8.43615 19.7646 8.51173 20.4897 8.80744C21.2148 9.10315 21.8349 9.60566 22.2713 10.2512C22.7077 10.8967 22.9407 11.6562 22.9407 12.4331C22.9408 13.467 22.5287 14.459 21.7943 15.1934C21.0598 15.9277 20.0624 16.3448 19.0191 16.3541V16.3541Z" fill="white"/>
<path d="M34.3854 16.9142L31.0291 12.4681L34.3854 7.98706C34.5824 7.71164 34.6631 7.37092 34.6103 7.03744C34.5575 6.70396 34.3754 6.40407 34.1028 6.20163C33.8235 6.00061 33.4768 5.91392 33.1346 5.95955C32.7925 6.00519 32.4813 6.17964 32.2656 6.4467V6.4467L29.3685 10.2976L26.4715 6.4467C26.2524 6.21123 25.9531 6.06452 25.6312 6.0349C25.3094 6.00528 24.9879 6.09484 24.7289 6.2863C24.4698 6.47776 24.2914 6.75754 24.2283 7.07163C24.1652 7.38572 24.2217 7.71185 24.387 7.98706V7.98706L27.7434 12.4681L24.387 16.9142C24.2217 17.1894 24.1652 17.5155 24.2283 17.8296C24.2914 18.1437 24.4698 18.4235 24.7289 18.615C24.9879 18.8064 25.3094 18.896 25.6312 18.8664C25.9531 18.8367 26.2524 18.69 26.4715 18.4546V18.4546L29.3685 14.6386L32.2656 18.4546C32.4813 18.7216 32.7925 18.8961 33.1346 18.9417C33.4768 18.9873 33.8235 18.9006 34.1028 18.6996C34.3754 18.4972 34.5575 18.1973 34.6103 17.8638C34.6631 17.5303 34.5824 17.1896 34.3854 16.9142V16.9142Z" fill="white"/>
</svg>
