<svg width="78" height="23" viewBox="0 0 78 23" fill="none" xmlns="http://www.w3.org/2000/svg">
<g clip-path="url(#clip0_1376_7342)">
<path d="M37.6374 14.8499H33.4738C33.3655 14.8499 33.2769 14.9375 33.2769 15.0446V17.06C33.2769 17.1671 33.3655 17.2547 33.4738 17.2547H35.0979V19.7569C35.0979 19.7569 34.7337 19.8834 33.7297 19.8834C32.5387 19.8834 30.8851 19.455 30.8851 15.843C30.8851 12.2309 32.6175 11.7539 34.2317 11.7539C35.6393 11.7539 36.2397 11.9973 36.6235 12.1141C36.7417 12.1531 36.8598 12.0362 36.8598 11.9291L37.3224 9.98193C37.3224 9.93325 37.3027 9.87483 37.2437 9.83589C37.096 9.71906 36.1412 9.18358 33.7297 9.18358C30.954 9.18358 28.1094 10.3519 28.1094 15.9696C28.1094 21.5872 31.3674 22.4245 34.1136 22.4245C36.3873 22.4245 37.7653 21.4607 37.7653 21.4607C37.8244 21.4314 37.8244 21.3536 37.8244 21.3146V15.0446C37.8342 14.9375 37.7456 14.8499 37.6374 14.8499Z" fill="white"/>
<path d="M59.0658 9.85485C59.0658 9.74776 58.9773 9.66014 58.869 9.66014H56.5264C56.4181 9.66014 56.3295 9.74776 56.3295 9.85485V14.3334H52.6778V9.85485C52.6778 9.74776 52.5892 9.66014 52.4809 9.66014H50.1383C50.03 9.66014 49.9414 9.74776 49.9414 9.85485V21.9664C49.9414 22.0735 50.03 22.1611 50.1383 22.1611H52.4809C52.5892 22.1611 52.6778 22.0735 52.6778 21.9664V16.7966H56.3295L56.3197 21.9762C56.3197 22.0833 56.4082 22.1709 56.5165 22.1709H58.8591C58.9674 22.1709 59.056 22.0833 59.056 21.9762V9.85485H59.0658Z" fill="white"/>
<path d="M42.0549 11.4516C42.0549 10.6143 41.3758 9.9425 40.5489 9.9425C39.7123 9.9425 39.043 10.6143 39.043 11.4516C39.043 12.2889 39.7221 12.9607 40.5489 12.9607C41.3758 12.9607 42.0549 12.2791 42.0549 11.4516Z" fill="white"/>
<path d="M41.8867 19.4157C41.8867 19.1041 41.8867 13.8272 41.8867 13.8272C41.8867 13.7201 41.7982 13.6325 41.6899 13.6325H39.3571C39.2488 13.6325 39.1504 13.7396 39.1504 13.8467C39.1504 13.8467 39.1504 20.5742 39.1504 21.8594C39.1504 22.093 39.298 22.1612 39.4949 22.1612C39.4949 22.1612 40.489 22.1612 41.6013 22.1612C41.8277 22.1612 41.8867 22.0444 41.8867 21.8496C41.8867 21.431 41.8867 19.7467 41.8867 19.4157Z" fill="white"/>
<path d="M67.9634 13.6526H65.6404C65.5322 13.6526 65.4436 13.7402 65.4436 13.8473V19.7862C65.4436 19.7862 64.853 20.2146 64.0163 20.2146C63.1797 20.2146 62.9533 19.8349 62.9533 19.0268C62.9533 18.2187 62.9533 13.8473 62.9533 13.8473C62.9533 13.7402 62.8647 13.6526 62.7564 13.6526H60.3941C60.2859 13.6526 60.1973 13.7402 60.1973 13.8473C60.1973 13.8473 60.1973 17.0115 60.1973 19.4163C60.1973 21.821 61.5556 22.4149 63.4258 22.4149C64.9613 22.4149 66.1916 21.5777 66.1916 21.5777C66.1916 21.5777 66.2507 22.0158 66.2802 22.0742C66.3098 22.1229 66.3787 22.1813 66.4476 22.1813L67.9437 22.1715C68.052 22.1715 68.1405 22.0839 68.1405 21.9768V13.8473C68.1504 13.7402 68.0618 13.6526 67.9634 13.6526Z" fill="white"/>
<path d="M74.3124 13.3793C72.9935 13.3793 72.0978 13.9634 72.0978 13.9634V9.85485C72.0978 9.74776 72.0092 9.66014 71.9009 9.66014H69.5484C69.4401 9.66014 69.3516 9.74776 69.3516 9.85485V21.9664C69.3516 22.0735 69.4401 22.1611 69.5484 22.1611H71.1725C71.2414 22.1611 71.3005 22.1222 71.3398 22.054C71.3792 21.9859 71.4383 21.4991 71.4383 21.4991C71.4383 21.4991 72.4029 22.3948 74.214 22.3948C76.3499 22.3948 77.5704 21.3238 77.5704 17.5852C77.5803 13.8661 75.6314 13.3793 74.3124 13.3793ZM73.3872 20.2042C72.5801 20.1847 72.0387 19.8148 72.0387 19.8148V15.9788C72.0387 15.9788 72.5801 15.6478 73.2395 15.5894C74.0762 15.5115 74.8833 15.7646 74.8833 17.741C74.8833 19.8245 74.5191 20.2432 73.3872 20.2042Z" fill="white"/>
<path d="M48.6124 13.633H46.8604V11.3353C46.8604 11.2477 46.8112 11.2088 46.7127 11.2088H44.3209C44.2323 11.2088 44.1732 11.2477 44.1732 11.3353V13.7109C44.1732 13.7109 42.9724 13.9933 42.8937 14.0225C42.8149 14.0419 42.7559 14.1198 42.7559 14.2075V15.6971C42.7559 15.8042 42.8444 15.8918 42.9527 15.8918H44.1831C44.1831 15.8918 44.1831 17.4495 44.1831 19.4746C44.1831 22.1326 46.0729 22.3954 47.3427 22.3954C47.9234 22.3954 48.6223 22.2104 48.7404 22.1715C48.8093 22.1423 48.8487 22.0741 48.8487 21.9962V20.3606C48.8487 20.2535 48.7601 20.1659 48.6518 20.1659C48.5534 20.1659 48.2876 20.2048 48.0219 20.2048C47.1557 20.2048 46.8702 19.8057 46.8702 19.2994C46.8702 18.7834 46.8702 15.8918 46.8702 15.8918H48.6124C48.7207 15.8918 48.8093 15.8042 48.8093 15.6971V13.8278C48.8093 13.7207 48.7207 13.633 48.6124 13.633Z" fill="white"/>
</g>
<g clip-path="url(#clip1_1376_7342)">
<path d="M11.1456 0.975554C4.99086 0.975554 0 5.98146 0 12.1567C0 17.097 3.19355 21.2881 7.62208 22.7666C8.17908 22.8701 8.38363 22.524 8.38363 22.2287C8.38363 21.9621 8.37323 21.0812 8.36851 20.147C5.2677 20.8233 4.61341 18.8277 4.61341 18.8277C4.10641 17.5353 3.3759 17.1918 3.3759 17.1918C2.3647 16.4978 3.45212 16.512 3.45212 16.512C4.57136 16.5909 5.1607 17.6642 5.1607 17.6642C6.15477 19.3736 7.76806 18.8794 8.40408 18.5938C8.50408 17.871 8.79298 17.3778 9.11169 17.0986C6.63615 16.8158 4.03368 15.8571 4.03368 11.5728C4.03368 10.3521 4.46909 9.35462 5.18212 8.57162C5.06638 8.28995 4.68491 7.15276 5.29007 5.61262C5.29007 5.61262 6.22601 5.3121 8.35592 6.75876C9.24491 6.51094 10.1984 6.38677 11.1456 6.38256C12.0928 6.38677 13.047 6.51094 13.9378 6.75876C16.0652 5.3121 16.9998 5.61262 16.9998 5.61262C17.6064 7.15276 17.2248 8.28995 17.109 8.57162C17.8236 9.35462 18.2561 10.352 18.2561 11.5728C18.2561 15.8673 15.6487 16.8129 13.1669 17.0897C13.5666 17.4367 13.9228 18.1172 13.9228 19.1603C13.9228 20.6563 13.9099 21.8604 13.9099 22.2287C13.9099 22.5262 14.1105 22.8749 14.6755 22.7651C19.1016 21.285 22.2912 17.0953 22.2912 12.1567C22.2912 5.98146 17.301 0.975554 11.1456 0.975554Z" fill="white"/>
<path d="M4.17352 16.9035C4.14905 16.959 4.06181 16.9756 3.98252 16.9376C3.90167 16.9011 3.85621 16.8253 3.88243 16.7696C3.90647 16.7124 3.99371 16.6964 4.07439 16.7348C4.15543 16.7712 4.20158 16.8477 4.17352 16.9035ZM4.72178 17.3942C4.66863 17.4437 4.56469 17.4207 4.49415 17.3425C4.42125 17.2646 4.40761 17.1604 4.46155 17.1102C4.51636 17.0608 4.61714 17.0839 4.69022 17.1619C4.76312 17.2407 4.77728 17.3443 4.72169 17.3943M5.09792 18.0221C5.02956 18.0697 4.91784 18.0251 4.84888 17.9256C4.78061 17.8263 4.78061 17.707 4.85036 17.6592C4.91959 17.6114 5.02956 17.6544 5.09949 17.753C5.16767 17.8541 5.16767 17.9734 5.09783 18.0222M5.73393 18.7493C5.67283 18.8168 5.54276 18.7988 5.44748 18.7065C5.3501 18.6164 5.32292 18.4884 5.38419 18.4208C5.446 18.3531 5.57685 18.3721 5.67283 18.4636C5.7696 18.5536 5.79906 18.6825 5.73393 18.7493ZM6.55597 18.9948C6.52913 19.0824 6.40378 19.1222 6.27756 19.085C6.15151 19.0467 6.06899 18.9441 6.09443 18.8556C6.12065 18.7675 6.24653 18.726 6.37371 18.7658C6.49959 18.8039 6.58219 18.9057 6.55597 18.9948ZM7.49164 19.0989C7.49479 19.1912 7.38771 19.2677 7.25519 19.2693C7.12188 19.2722 7.0141 19.1976 7.0127 19.1069C7.0127 19.0138 7.11734 18.938 7.25055 18.9358C7.38307 18.9332 7.49164 19.0073 7.49164 19.0989ZM8.4107 19.0636C8.42661 19.1536 8.33448 19.246 8.20292 19.2705C8.07355 19.2942 7.95379 19.2387 7.93727 19.1495C7.92119 19.0573 8.01507 18.9649 8.14418 18.941C8.276 18.918 8.39392 18.9721 8.4107 19.0636Z" fill="white"/>
</g>
<defs>
<clipPath id="clip0_1376_7342">
<rect width="49.6086" height="14.0198" fill="white" transform="translate(28.0391 8.79422)"/>
</clipPath>
<clipPath id="clip1_1376_7342">
<rect width="22.3778" height="21.8386" fill="white" transform="translate(0 0.975158)"/>
</clipPath>
</defs>
</svg>
