<svg width="102" height="22" viewBox="0 0 102 22" fill="none" xmlns="http://www.w3.org/2000/svg">
<path d="M41.2005 8.21038H44.5352C43.9789 4.69381 40.9092 2.24441 36.9143 2.24441C32.1875 2.24441 28.6406 5.69128 28.6406 11.4641C28.6406 17.1339 32.028 20.6505 37.0109 20.6505C41.483 20.6505 44.6845 17.7975 44.6845 13.1789V11.0271H37.355V13.5636H41.5182C41.4655 16.119 39.7454 17.7365 37.0285 17.7365C34.0042 17.7365 31.9314 15.4889 31.9314 11.4293C31.9314 7.39585 34.0393 5.15698 36.9583 5.15698C39.1365 5.15698 40.6267 6.31126 41.2005 8.21038Z" fill="white"/>
<path d="M46.888 20.4055H50.0807V6.97517H46.888V20.4055ZM48.4983 4.84083C49.5127 4.84083 50.3413 4.06986 50.3413 3.12611C50.3413 2.18236 49.5127 1.40267 48.4983 1.40267C47.4838 1.40267 46.6465 2.17219 46.6465 3.12611C46.6465 4.08002 47.4692 4.84083 48.4924 4.84083H48.4983Z" fill="white"/>
<path d="M59.6432 6.9749H56.9702V3.74872H53.7775V6.9749H51.8555V9.4243H53.7775V16.8959C53.7599 19.4237 55.6132 20.6709 58.011 20.5969C58.6497 20.5843 59.2831 20.4781 59.8906 20.2818L59.3519 17.8048C59.0467 17.8833 58.7331 17.9248 58.4179 17.9282C57.6143 17.9282 56.9702 17.648 56.9702 16.3703V9.41704H59.6432V6.9749Z" fill="white"/>
<path d="M62.1133 20.4053H73.341V17.6844H65.3865V2.48851H62.1133V20.4053Z" fill="white"/>
<path d="M79.4565 20.6767C81.582 20.6767 82.8511 19.6879 83.4337 18.5598H83.5391V20.4052H86.6132V11.412C86.6132 7.86054 83.6943 6.79338 81.1091 6.79338C78.2605 6.79338 76.0735 8.0522 75.3679 10.5016L78.3498 10.9227C78.666 10.0036 79.5662 9.21665 81.1311 9.21665C82.614 9.21665 83.425 9.96874 83.425 11.29V11.3423C83.425 12.2512 82.4632 12.2962 80.0727 12.5488C77.4451 12.829 74.9317 13.6073 74.9317 16.6345C74.9229 19.277 76.8713 20.6767 79.4565 20.6767ZM80.506 18.3536C79.1739 18.3536 78.221 17.7496 78.221 16.5866C78.221 15.3699 79.2881 14.8632 80.7095 14.6614C81.5483 14.5481 83.2244 14.3376 83.6372 14.0066V15.5892C83.646 17.0803 82.4281 18.3493 80.506 18.3493V18.3536Z" fill="white"/>
<path d="M88.9648 20.4053H92.1048V18.2884H92.2893C92.7928 19.2684 93.8424 20.642 96.1714 20.642C99.3641 20.642 101.755 18.1301 101.755 13.7046C101.755 9.22545 99.2938 6.79347 96.1626 6.79347C93.7721 6.79347 92.7753 8.21927 92.2893 9.19061H92.1546V2.48851H88.9648V20.4053ZM92.096 13.6872C92.096 11.0738 93.2247 9.39097 95.2799 9.39097C97.4054 9.39097 98.5004 11.1841 98.5004 13.6872C98.5004 16.1903 97.3893 18.043 95.2799 18.043C93.2422 18.043 92.096 16.2934 92.096 13.6872Z" fill="white"/>
<path d="M22.621 8.62555L22.5902 8.54424L19.4869 0.515085C19.424 0.35743 19.3123 0.223691 19.1677 0.133228C19.0599 0.0647502 18.9374 0.0222857 18.81 0.00923688C18.6826 -0.00381195 18.5539 0.0129184 18.4342 0.0580868C18.3146 0.103255 18.2072 0.175605 18.1208 0.269338C18.0344 0.363071 17.9713 0.475579 17.9366 0.597845L15.8419 6.95874H7.35881L5.26403 0.597845C5.22909 0.475762 5.16587 0.363465 5.07941 0.269912C4.99296 0.176358 4.88566 0.104137 4.76607 0.0590051C4.64649 0.0138736 4.51792 -0.00291862 4.39064 0.00996799C4.26335 0.0228546 4.14086 0.0650629 4.03293 0.133228C3.88839 0.223691 3.77662 0.35743 3.71381 0.515085L0.611898 8.54569L0.579693 8.62555C0.133109 9.78318 0.0780918 11.0534 0.422935 12.2448C0.767778 13.4361 1.49379 14.484 2.49149 15.2304L2.5032 15.2391L2.52955 15.2594L7.25048 18.7687L9.59265 20.5241L11.0155 21.5913C11.1825 21.7163 11.386 21.784 11.5952 21.784C11.8044 21.784 12.0079 21.7163 12.1749 21.5913L13.5978 20.5241L15.9399 18.7687L20.6945 15.2391L20.7077 15.2289C21.7054 14.4828 22.4315 13.4353 22.7766 12.2443C23.1216 11.0532 23.067 9.78314 22.621 8.62555Z" fill="#EBEBEB"/>
<path d="M22.6205 8.62564L22.5898 8.54433C21.0777 8.85208 19.653 9.48772 18.4178 10.4057L11.6035 15.5165L15.9424 18.7688L20.697 15.2392L20.7102 15.229C21.7073 14.4825 22.4328 13.4348 22.7774 12.2438C23.1219 11.0528 23.0669 9.78293 22.6205 8.62564Z" fill="white"/>
<path d="M7.25 18.769L9.59217 20.5244L11.015 21.5916C11.182 21.7167 11.3855 21.7843 11.5947 21.7843C11.8039 21.7843 12.0075 21.7167 12.1744 21.5916L13.5973 20.5244L15.9394 18.769L11.6006 15.5167L7.25 18.769Z" fill="#EBEBEB"/>
<path d="M4.78242 10.4057C3.5476 9.48814 2.12338 8.85299 0.611898 8.54575L0.579693 8.6256C0.133109 9.78323 0.0780918 11.0535 0.422935 12.2448C0.767778 13.4362 1.49379 14.4841 2.49149 15.2304L2.5032 15.2391L2.52955 15.2595L7.25048 18.7688L11.5923 15.5165L4.78242 10.4057Z" fill="white"/>
</svg>
