<svg width="161" height="23" viewBox="0 0 161 23" fill="none" xmlns="http://www.w3.org/2000/svg">
<path d="M42.7557 20.9821C41.6145 21.791 39.8125 22.1021 37.9504 22.1021C31.9438 22.1021 28.5801 18.4308 28.5801 12.457C28.5801 6.48325 31.9438 2.74964 37.8904 2.74964C39.6323 2.74964 41.4343 3.06078 42.6957 4.05641V6.54547C41.2637 5.60363 39.5842 5.14691 37.8904 5.23871C33.6256 5.23871 31.0428 8.16337 31.0428 12.457C31.0428 16.7506 33.6857 19.6753 38.0105 19.6753C39.6426 19.6894 41.2526 19.2831 42.6957 18.493L42.7557 20.9821ZM44.4976 14.6349C44.4976 10.3413 46.9003 7.22997 51.0449 7.22997C55.1894 7.22997 57.5921 10.3413 57.5921 14.6349C57.5921 18.9286 55.1894 22.1644 51.0449 22.1644C46.9003 22.1644 44.4976 18.9286 44.4976 14.6349ZM46.7802 14.6349C46.7802 17.3729 48.1016 19.862 51.0449 19.862C53.9881 19.862 55.2495 17.3729 55.2495 14.6349C55.2495 11.897 53.9881 9.53235 51.0449 9.53235C48.1016 9.53235 46.7802 11.9592 46.7802 14.6349ZM72.1282 21.8532H69.7255V13.2037C69.7255 10.5902 68.7644 9.47012 66.4819 9.47012C64.1994 9.47012 62.7578 10.9636 62.7578 13.8882V21.8532H60.3552V7.5411H62.7578V9.84348C63.1818 9.02855 63.8168 8.35226 64.5914 7.89058C65.366 7.4289 66.2495 7.20013 67.1426 7.22997C70.3262 7.22997 72.1282 9.53236 72.1282 13.4526V21.8532ZM78.7354 7.5411H82.3394V9.78125H78.7354V21.8532H76.4529V9.78125H74.1704V7.5411H76.4529V5.92321C76.4529 3.24746 77.8945 1.44288 80.8378 1.44288C81.3855 1.46476 81.9293 1.54822 82.4596 1.69178V3.99418L80.9579 3.8075C79.4562 3.8075 78.7354 4.7409 78.7354 5.98544V7.5411ZM88.5863 21.9155C86.3038 21.9155 84.8622 20.7954 84.8622 18.1819V1.50511H87.2649V17.8707C87.2649 19.1775 88.1058 19.6131 89.1269 19.6131H89.7876V21.791C89.4018 21.928 88.9907 21.9705 88.5863 21.9155V21.9155ZM91.8299 7.5411H94.2326V16.1906C94.2326 18.7419 95.1936 19.9242 97.4761 19.9242C99.7586 19.9242 101.2 18.3685 101.2 15.5061V7.5411H103.603V21.8532H101.2V19.4886C100.779 20.3105 100.146 20.9955 99.3724 21.4678C98.5985 21.94 97.7135 22.1811 96.8154 22.1644C93.6319 22.1644 91.8299 19.862 91.8299 15.9417V7.5411ZM113.814 22.1644C108.588 22.1644 106.366 19.053 106.366 14.6349C106.366 10.2168 108.648 7.22997 112.853 7.22997C117.058 7.22997 118.86 10.2791 118.86 14.6349V15.755H108.769C109.069 18.1819 110.631 19.7997 113.874 19.7997C115.31 19.7837 116.733 19.51 118.079 18.9908V21.2932C116.736 21.903 115.28 22.2004 113.814 22.1644V22.1644ZM108.709 13.6393H116.457C116.337 11.0258 115.136 9.47012 112.793 9.47012C110.45 9.47012 108.949 11.1502 108.709 13.6393ZM133.456 21.8532H131.053V13.2037C131.053 10.5902 130.032 9.47012 127.81 9.47012C125.587 9.47012 124.085 10.9636 124.085 13.8882V21.8532H121.683V7.5411H124.085V9.84348C124.505 9.03816 125.13 8.36816 125.893 7.9071C126.656 7.44604 127.527 7.21176 128.41 7.22997C131.594 7.22997 133.456 9.53236 133.456 13.4526V21.8532ZM146.55 21.4799C145.466 21.9412 144.298 22.1535 143.127 22.1021C138.201 22.1021 135.919 19.053 135.919 14.6349C135.919 10.2168 138.201 7.22997 143.127 7.22997C144.265 7.17217 145.4 7.40731 146.43 7.91445V10.1546C145.445 9.70774 144.382 9.47478 143.307 9.47012C139.703 9.47012 138.261 11.8347 138.261 14.6349C138.261 17.4351 139.763 19.7997 143.367 19.7997C144.432 19.8058 145.489 19.6162 146.49 19.2397L146.55 21.4799ZM155.861 22.1644C150.695 22.1644 148.412 19.053 148.412 14.6349C148.412 10.2168 150.755 7.22997 154.96 7.22997C159.164 7.22997 160.906 10.2791 160.906 14.6349V15.755H150.815C151.175 18.1819 152.677 19.7997 155.921 19.7997C157.357 19.7837 158.779 19.51 160.125 18.9908V21.2932C158.782 21.903 157.327 22.2004 155.861 22.1644V22.1644ZM150.815 13.6393H158.504C158.383 11.0258 157.182 9.47012 154.839 9.47012C152.497 9.47012 151.055 11.1502 150.815 13.6393Z" fill="white"/>
<path d="M1.13195 17.6218L0.531285 18.6797C0.456004 18.8233 0.432791 18.99 0.46584 19.1498C0.498889 19.3096 0.586021 19.4518 0.711486 19.5508L4.85606 22.1644C4.99467 22.2424 5.15563 22.2664 5.30985 22.2322C5.46408 22.1979 5.6014 22.1077 5.69699 21.9777V21.9777L6.29765 20.982C7.91944 18.1818 9.54123 18.5552 12.4845 19.9864L16.569 21.9777C16.7127 22.0412 16.8745 22.0442 17.0203 21.9861C17.1661 21.928 17.2843 21.8134 17.3499 21.6665H17.4099L19.332 17.0618C19.3933 16.9129 19.3962 16.7452 19.3402 16.5942C19.2841 16.4432 19.1735 16.3208 19.0317 16.2528L14.9472 14.1993C9.4211 11.4614 4.73593 11.648 1.13195 17.684V17.6218Z" fill="white"/>
<path d="M19.5111 7.22998L20.1118 6.17212C20.1871 6.02853 20.2103 5.86178 20.1773 5.702C20.1442 5.54223 20.0571 5.39997 19.9316 5.30095L15.787 2.68742C15.7203 2.64145 15.6454 2.60978 15.5666 2.59427C15.4879 2.57877 15.407 2.57975 15.3286 2.59714C15.2502 2.61454 15.176 2.648 15.1103 2.69557C15.0446 2.74313 14.9888 2.80385 14.9461 2.87411V2.87411L14.2854 3.93195C12.7237 6.73216 11.0418 6.3588 8.15862 4.92759L4.07411 2.93632C3.92178 2.8698 3.75091 2.86486 3.59523 2.92246C3.43955 2.98006 3.31037 3.09602 3.23318 3.24746L1.31106 7.85225C1.27145 7.92431 1.24778 8.00458 1.24176 8.08727C1.23575 8.16996 1.24753 8.25302 1.27627 8.33042C1.305 8.40782 1.34997 8.47762 1.40793 8.53483C1.46588 8.59203 1.53538 8.63519 1.61139 8.66119L5.6959 10.7147C11.222 13.4526 15.9072 13.266 19.5111 7.22998V7.22998Z" fill="white"/>
</svg>
