<svg width="49" height="25" viewBox="0 0 49 25" fill="none" xmlns="http://www.w3.org/2000/svg">
<path fill-rule="evenodd" clip-rule="evenodd" d="M26.4481 24.802V12.0604H21.5059V24.802H26.4481ZM26.8343 10.9793L35.2513 0.631493H30.1551L21.7376 10.9793H26.8343ZM27.7608 12.0604V24.802H32.7028V18.3927C32.7028 17.0801 34.093 15.9989 36.333 16.6166V12.0604C34.6339 11.6743 32.7028 13.4118 32.7028 14.2612V12.0604H27.7608Z" fill="white"/>
<path fill-rule="evenodd" clip-rule="evenodd" d="M41.894 12.0268C38.3352 12.0268 35.4503 14.9114 35.4503 18.47C35.4503 22.0288 38.3352 24.9136 41.894 24.9136C45.4522 24.9136 48.3371 22.0288 48.3371 18.47C48.3371 14.9117 45.4522 12.0268 41.894 12.0268ZM41.894 16.5048C42.1521 16.5048 42.4077 16.5556 42.6461 16.6544C42.8846 16.7532 43.1012 16.8979 43.2838 17.0805C43.4663 17.263 43.611 17.4796 43.7098 17.7181C43.8086 17.9565 43.8594 18.2121 43.8594 18.4702C43.8595 18.859 43.7442 19.2391 43.5283 19.5624C43.3123 19.8857 43.0053 20.1377 42.6461 20.2865C42.2869 20.4353 41.8916 20.4743 41.5103 20.3985C41.1289 20.3226 40.7787 20.1354 40.5037 19.8605C40.2288 19.5855 40.0416 19.2353 39.9657 18.8539C39.8899 18.4726 39.9289 18.0773 40.0777 17.7181C40.2265 17.3589 40.4785 17.0519 40.8018 16.836C41.1251 16.62 41.5052 16.5047 41.894 16.5048ZM0.810547 12.0606V24.8022H5.7531V17.1573C5.7531 15.69 7.99248 15.3038 7.99248 17.2344V24.802H12.9348V17.0803C12.9348 15.3812 15.1744 15.0721 15.1744 17.1573V24.8022H20.1167V15.5361C20.1167 12.4471 17.2594 11.7521 16.1009 11.8291C14.9427 11.9062 13.2436 12.4468 12.7803 13.9139C12.3942 12.138 10.174 11.7553 8.91922 11.8291C7.60658 11.9062 6.52516 12.3697 5.7531 13.3733V12.0606H0.810547Z" fill="white"/>
</svg>
