<svg width="147" height="20" viewBox="0 0 147 20" fill="none" xmlns="http://www.w3.org/2000/svg">
<path d="M28.2772 2.67384H30.2464V12.5462C30.2464 15.1718 29.0755 16.9573 26.3613 16.9573C25.5634 16.9936 24.7665 16.8685 24.0195 16.5897V14.6992C24.655 14.977 25.3479 15.103 26.0419 15.0668C27.6918 15.0668 28.2772 14.1216 28.2772 12.7037V2.67384Z" fill="white"/>
<path d="M33.865 1.88616C34.1861 1.88506 34.4958 2.00334 34.7325 2.21743C34.9692 2.43152 35.1155 2.72572 35.1423 3.04144V3.19897C35.1815 3.38964 35.1773 3.58655 35.13 3.77541C35.0826 3.96428 34.9933 4.14039 34.8685 4.29104C34.7437 4.44168 34.5866 4.56307 34.4084 4.64643C34.2302 4.72979 34.0355 4.77304 33.8383 4.77304C33.6412 4.77304 33.4464 4.72979 33.2683 4.64643C33.0901 4.56307 32.9329 4.44168 32.8082 4.29104C32.6834 4.14039 32.5941 3.96428 32.5467 3.77541C32.4994 3.58655 32.4952 3.38964 32.5344 3.19897V3.19897C32.5198 3.04025 32.5372 2.88024 32.5856 2.72818C32.6339 2.57611 32.7123 2.43501 32.8162 2.31297C32.9201 2.19093 33.0474 2.09039 33.1909 2.01714C33.3344 1.94389 33.4911 1.89937 33.6521 1.88616H33.865ZM32.907 6.08716H34.7697V16.8522H32.907V6.08716Z" fill="white"/>
<path d="M37.6445 6.08716H39.454V7.97761C40.0927 6.71731 41.2103 5.8246 43.3392 5.92963V7.76757C40.891 7.505 39.454 8.24019 39.454 10.4982V16.9047H37.6445V6.08716Z" fill="white"/>
<path d="M52.1736 14.9618C51.8381 15.644 51.305 16.2127 50.6419 16.5959C49.9787 16.9791 49.2153 17.1597 48.4481 17.1148C45.5742 17.1148 44.084 14.6467 44.084 11.496C44.084 8.3452 45.6274 5.87711 48.7142 5.87711C49.4403 5.83058 50.1632 6.00768 50.7828 6.38395C51.4025 6.76022 51.8885 7.31708 52.1736 7.97761V6.08716H54.0896V16.8522H52.1736V14.9618ZM48.9803 15.3819C50.6834 15.3819 52.1736 14.3316 52.1736 11.916V11.0233C52.1736 8.60777 50.7899 7.55752 49.1932 7.55752C47.5966 7.55752 46 8.92284 46 11.4434C46 13.964 47.0111 15.3819 48.9803 15.3819V15.3819Z" fill="white"/>
<path d="M65.2132 17.1148C63.4248 17.1927 61.6464 16.8128 60.0508 16.012V14.0166C61.6932 14.8035 63.4939 15.2163 65.3197 15.2244C67.5018 15.2244 68.3001 14.3842 68.3001 13.1239C68.3001 11.8636 67.5018 11.1809 64.7875 10.4982C62.0732 9.81556 60.104 8.60777 60.104 6.29722C60.104 3.98667 61.8071 2.4638 65.16 2.4638C66.6996 2.43272 68.2212 2.79449 69.5774 3.51405V5.4045C68.1905 4.66474 66.6292 4.30227 65.0536 4.35425C63.1908 4.35425 62.0732 4.98441 62.0732 6.29722C62.0732 7.61004 62.9779 8.03014 65.5326 8.66029C68.0872 9.29044 70.2692 10.3932 70.2692 12.9663C70.2692 15.5394 68.7791 17.1148 65.2132 17.1148Z" fill="white"/>
<path d="M71.9727 11.4434C71.9727 8.18766 73.8886 5.87711 77.1351 5.87711C80.3816 5.87711 82.3508 8.24017 82.3508 11.4434C82.3508 14.6467 80.4348 17.1148 77.1351 17.1148C73.8354 17.1148 71.9727 14.6992 71.9727 11.4434ZM73.7822 11.4434C73.7822 13.4914 74.8466 15.3819 77.1351 15.3819C79.4236 15.3819 80.488 13.4914 80.488 11.4434C80.488 9.39545 79.4768 7.61003 77.1351 7.61003C74.7934 7.61003 73.7822 9.39545 73.7822 11.4434Z" fill="white"/>
<path d="M87.1405 6.08715H89.9612V7.76756H87.1405V16.8522H85.2778V7.76756H83.5215V6.08715H85.2778V4.87937C85.2778 2.88389 86.3954 1.51857 88.7904 1.51857C89.2035 1.51935 89.6149 1.57229 90.0145 1.6761V3.40902L88.8436 3.30399C88.6145 3.27179 88.3811 3.29081 88.1605 3.35965C87.9399 3.42849 87.7378 3.5454 87.5692 3.7017C87.4005 3.858 87.2697 4.04972 87.1863 4.26266C87.1028 4.4756 87.069 4.70431 87.0873 4.93188L87.1405 6.08715Z" fill="white"/>
<path d="M96.346 15.0668L97.5169 14.9093V16.6947C97.1046 16.8244 96.6716 16.8778 96.2396 16.8522C93.8979 16.8522 92.7802 15.5394 92.7802 13.4914V7.76757H90.9707V6.08716H92.727V3.77661H94.5897V6.08716H97.4637V7.76757H94.5897V13.4389C94.5897 14.4367 95.1752 15.0668 96.346 15.0668Z" fill="white"/>
<path d="M98.0508 6.08716H100.126L103.266 15.2244L106.46 6.08716H108.269L111.463 15.2244L114.603 6.08716H116.678L112.687 16.8522H110.238L108.376 11.6535L107.364 8.29269L106.353 11.6535L104.437 16.8522H102.042L98.0508 6.08716Z" fill="white"/>
<path d="M125.301 14.9618C124.98 15.6443 124.458 16.2152 123.802 16.5994C123.147 16.9837 122.389 17.1633 121.628 17.1148C118.701 17.1148 117.211 14.6467 117.211 11.496C117.211 8.3452 118.754 5.87711 121.841 5.87711C122.567 5.83058 123.29 6.00768 123.91 6.38395C124.529 6.76022 125.015 7.31708 125.301 7.97761V6.08716H127.217V16.8522H125.301V14.9618ZM122.107 15.3819C123.81 15.3819 125.301 14.3316 125.301 11.916V11.0233C125.301 8.60777 123.917 7.55752 122.32 7.55752C120.724 7.55752 119.127 8.92284 119.127 11.4434C119.127 13.964 120.191 15.3819 122.107 15.3819V15.3819Z" fill="white"/>
<path d="M130.09 6.08716H131.899V7.97761C132.538 6.71731 133.656 5.8246 135.785 5.92963V7.76757C133.39 7.505 131.899 8.24019 131.899 10.4982V16.9047H130.09V6.08716Z" fill="white"/>
<path d="M142.437 17.1148C138.339 17.1148 136.529 14.7517 136.529 11.4434C136.529 8.13515 138.392 5.87711 141.745 5.87711C145.098 5.87711 146.428 8.18766 146.428 11.4434V12.2836H138.445C138.711 14.1216 139.935 15.3294 142.49 15.3294C143.633 15.3251 144.766 15.1298 145.843 14.7517V16.4846C144.761 16.9145 143.603 17.1287 142.437 17.1148V17.1148ZM138.392 10.7083H144.512C144.406 8.71279 143.501 7.55751 141.639 7.55751C139.776 7.55751 138.605 8.81781 138.392 10.7083Z" fill="white"/>
<path d="M19.1233 9.23791L10.9805 1.25601L10.2354 0.468323L4.11494 6.50726L1.34744 9.23791C1.26928 9.30197 1.20638 9.38224 1.16321 9.473C1.12004 9.56376 1.09766 9.66277 1.09766 9.76303C1.09766 9.86329 1.12004 9.96232 1.16321 10.0531C1.20638 10.1438 1.26928 10.2241 1.34744 10.2882L6.88245 15.802L10.2354 19.0578L16.3026 13.0713L16.409 12.9663L19.1233 10.2882C19.2542 10.1437 19.3266 9.95678 19.3266 9.76303C19.3266 9.56928 19.2542 9.38232 19.1233 9.23791V9.23791ZM10.1822 12.5462L7.41466 9.76303L10.1822 7.03239L13.0029 9.76303L10.1822 12.5462Z" fill="white"/>
<path d="M10.181 7.03239C9.30998 6.16674 8.82118 4.99641 8.82118 3.7766C8.82118 2.5568 9.30998 1.38648 10.181 0.520836L4.06055 6.50726L7.36026 9.81554L10.181 7.03239Z" fill="#EBEBEB"/>
<path d="M13.0024 9.76303L10.1816 12.4937C10.6209 12.9233 10.9696 13.4345 11.2076 13.9979C11.4456 14.5612 11.5681 15.1654 11.5681 15.7757C11.5681 16.386 11.4456 16.9903 11.2076 17.5536C10.9696 18.1169 10.6209 18.6281 10.1816 19.0578L16.3021 13.0188L13.0024 9.76303Z" fill="#EBEBEB"/>
</svg>
