<svg width="38" height="39" viewBox="0 0 38 39" fill="none" xmlns="http://www.w3.org/2000/svg">
<g clip-path="url(#clip0_2214_1513)">
<path d="M13.6125 1.49035C7.6601 1.92807 2.59987 2.33062 2.36195 2.37776C1.69488 2.49598 1.08805 2.94567 0.802697 3.53753L0.552734 4.0583L0.576827 16.47L0.612213 28.8818L0.99318 29.651C1.20776 30.0767 2.6601 32.0648 4.24344 34.1112C7.37475 38.1457 7.60062 38.3709 8.79095 38.4892C9.13653 38.5243 11.7318 38.4061 14.5416 38.2407C17.3635 38.0634 21.8869 37.791 24.6018 37.6377C36.1972 36.9381 35.6017 36.9972 36.268 36.4293C37.1014 35.7431 37.042 36.867 37.0774 21.7818C37.1014 8.99142 37.0894 8.1519 36.8989 7.76132C36.673 7.3236 36.268 7.01608 30.9819 3.32428C27.4463 0.863328 27.1963 0.733134 25.6122 0.709191C24.9579 0.685996 19.5529 1.04066 13.6125 1.49035ZM26.9938 3.11103C27.4937 3.3355 31.149 5.86753 31.6843 6.35314C31.8274 6.49531 31.8748 6.61353 31.8033 6.68461C31.6369 6.82677 9.01607 8.16387 8.3618 8.06885C8.0644 8.02171 7.62396 7.84438 7.374 7.67827C6.33801 6.98016 3.76686 4.88585 3.76686 4.73246C3.76686 4.32991 3.68329 4.32991 13.7676 3.60861C15.6965 3.47841 18.8632 3.24197 20.7922 3.08784C24.97 2.75637 26.2206 2.76834 26.9938 3.11103ZM34.1847 9.58328C34.3511 9.74864 34.4942 10.0681 34.5416 10.3757C34.577 10.66 34.6011 15.9605 34.577 22.1364C34.5416 32.7375 34.5295 33.4004 34.327 33.7079C34.2081 33.8972 33.9701 34.0985 33.791 34.1576C33.2918 34.3589 9.58827 35.696 9.10039 35.5538C8.87452 35.4947 8.56433 35.3054 8.39794 35.14L8.11184 34.8325L8.07645 23.4032C8.05236 15.3814 8.07645 11.8317 8.17207 11.5122C8.24359 11.2758 8.42203 10.9915 8.57713 10.8972C8.79171 10.755 10.1966 10.6368 15.0302 10.3532C18.4235 10.1639 23.6735 9.84441 26.6858 9.66708C33.8512 9.22861 33.8278 9.22861 34.1847 9.58328Z" fill="white"/>
<path d="M27.8156 13.4999C26.5297 13.5829 25.3868 13.7012 25.2558 13.7722C24.8628 13.9735 24.6248 14.305 24.5774 14.6836C24.542 15.0742 24.661 15.1213 25.9462 15.2754L26.5056 15.3465V20.3986C26.5056 23.4035 26.4581 25.3916 26.3987 25.3325C26.3392 25.2614 24.6489 22.7062 22.6364 19.6534C20.6247 16.5894 18.9578 14.0685 18.9337 14.0453C18.9096 14.0214 17.6003 14.0925 16.029 14.1995C14.1001 14.3297 13.0407 14.4479 12.8262 14.5661C12.4806 14.7435 12.0996 15.3705 12.0996 15.785C12.0996 16.0334 12.5521 16.1636 13.5045 16.1636H14.0044V30.6929L13.1951 30.9413C12.5641 31.1306 12.3496 31.2488 12.2427 31.4852C12.0522 31.8878 12.0642 32.2544 12.2547 32.2544C12.3262 32.2544 13.6717 32.1714 15.2189 32.0771C18.2786 31.8998 18.6235 31.8167 18.945 31.1897C19.0406 31.0004 19.1234 30.7991 19.1234 30.74C19.1234 30.6929 18.707 30.5507 18.2064 30.4325C17.6944 30.3143 17.1824 30.196 17.0755 30.1721C16.873 30.113 16.8609 29.7463 16.8609 24.6583V19.2037L20.4801 24.8476C24.2777 30.7632 24.7543 31.4381 25.3378 31.7337C26.0644 32.1123 27.9097 31.8519 28.8381 31.2488L29.1242 31.0715L29.1482 23.0025L29.1836 14.9215L29.8146 14.8033C30.5645 14.6611 30.91 14.3185 30.91 13.7266C30.91 13.348 30.8859 13.324 30.5291 13.336C30.316 13.3457 29.0895 13.4168 27.8156 13.4999Z" fill="white"/>
</g>
<defs>
<clipPath id="clip0_2214_1513">
<rect width="36.5487" height="38.6573" fill="white" transform="translate(0.552734 0.276848)"/>
</clipPath>
</defs>
</svg>
