<svg width="41" height="41" viewBox="0 0 41 41" fill="none" xmlns="http://www.w3.org/2000/svg">
<path d="M18.9207 37.5638C11.0626 36.7125 4.84184 30.5764 3.82648 22.6747C3.70888 21.7597 3.70888 19.4727 3.82648 18.5573C4.56898 12.7791 8.01663 7.92384 13.2066 5.34706C17.3239 3.3031 22.3001 3.02832 26.5938 4.60808C32.0708 6.62339 36.1301 11.2867 37.4004 17.0227C37.863 19.1117 37.863 22.1204 37.4004 24.2094C36.2666 29.3289 32.9138 33.6216 28.2803 35.8856C26.6324 36.6909 25.2956 37.1214 23.4872 37.4293C22.4373 37.608 19.9932 37.68 18.9207 37.5638ZM19.9688 22.2256V13.8039L17.6856 13.7755C15.0691 13.7472 14.2903 13.8152 13.2862 14.149C11.0857 14.8786 9.46263 16.6254 8.88255 18.8883C8.64699 19.807 8.61327 21.182 8.80502 22.0506C9.32328 24.398 11.0045 26.2803 13.2916 27.0734C13.9811 27.3116 14.1508 27.34 15.0468 27.3701L16.0387 27.4013V26.2046V25.0082L15.2713 24.9714C14.0511 24.9118 13.1931 24.5324 12.3322 23.6692C11.2916 22.626 10.8798 21.1267 11.2082 19.5771C11.4717 18.3336 12.3323 17.2487 13.4934 16.696C14.3473 16.2896 14.6977 16.2301 16.2295 16.2301H17.5358V23.4041C17.5358 27.3496 17.5591 30.6013 17.5876 30.6297C17.616 30.658 18.1634 30.6722 18.804 30.6609L19.9688 30.6325V22.2108L19.9688 22.2256ZM27.043 27.3108C29.3779 26.9325 31.417 25.3542 32.2568 23.2751C32.6449 22.314 32.7529 21.7347 32.759 20.5786C32.7638 19.6729 32.7366 19.3888 32.5947 18.8619C32.0562 16.8619 30.7451 15.2779 28.9051 14.4039C28.0114 13.9797 27.4172 13.8365 26.3486 13.788L25.3923 13.7455L25.413 14.9728L25.4337 16.2L26.2946 16.2454C27.2211 16.2936 27.5787 16.3929 28.1966 16.772C29.1102 17.332 29.7941 18.1416 30.1316 19.0629C30.3493 19.6573 30.4011 21.0329 30.2312 21.7083C29.9265 22.9203 29.1287 23.9108 28.0116 24.4643C27.1976 24.8676 26.5108 24.9901 25.0407 24.9932L23.8991 24.996V17.7719V10.548H22.6639H21.4287V18.9696V27.3913L23.9926 27.3908C25.4271 27.3908 26.7708 27.3562 27.043 27.3108Z" fill="white"/>
</svg>
