<svg width="48" height="35" viewBox="0 0 48 35" fill="none" xmlns="http://www.w3.org/2000/svg">
<path d="M19.8484 4.47061C20.6198 3.64467 21.5481 2.98753 22.5769 2.53925C23.6056 2.09098 24.7131 1.86097 25.8319 1.86326C27.3179 1.86767 28.7758 2.27527 30.056 3.04418C31.3363 3.81308 32.3925 4.91556 33.1162 6.2383C34.4123 5.64962 35.8164 5.34836 37.2353 5.35446C39.8397 5.52715 42.2821 6.7034 44.0666 8.64444C45.8512 10.5855 46.8443 13.1459 46.8443 15.8059C46.8443 18.466 45.8512 21.0264 44.0666 22.9675C42.2821 24.9085 39.8397 26.0847 37.2353 26.2574C36.5664 26.2645 35.8985 26.2053 35.2408 26.0807C34.299 27.7572 32.7694 29.0081 30.9596 29.582C29.1497 30.1559 27.1938 30.0102 25.485 29.1741C24.8258 30.7711 23.7095 32.1284 22.2819 33.069C20.8543 34.0096 19.1817 34.4897 17.4823 34.4468C15.7829 34.4038 14.1357 33.8398 12.7556 32.8283C11.3755 31.8167 10.3266 30.4047 9.74574 28.7764C9.20557 28.9031 8.65232 28.9624 8.09811 28.9532C7.0618 28.9474 6.03676 28.7336 5.08151 28.3241C4.12626 27.9145 3.25951 27.3172 2.53075 26.5662C1.802 25.8153 1.2255 24.9253 0.834185 23.9473C0.442875 22.9692 0.24441 21.9222 0.25012 20.866C0.243914 19.4498 0.60069 18.0566 1.28514 16.8241C1.96958 15.5917 2.95796 14.5629 4.15243 13.8394C3.66365 12.6653 3.41292 11.4026 3.41532 10.1272C3.41532 7.6542 4.3792 5.28245 6.09493 3.53375C7.81065 1.78505 10.1377 0.802642 12.5641 0.802642C13.9751 0.790578 15.3693 1.11616 16.6344 1.75322C17.8996 2.39027 19.0004 3.32101 19.8484 4.47061" fill="white"/>
<path d="M7.05664 18.2586C7.05664 18.347 7.05663 18.347 7.09999 18.347L7.36016 18.5238C7.78364 18.7651 8.26256 18.8872 8.74765 18.8773C9.74491 18.8773 10.3519 18.347 10.3519 17.5074C10.3519 16.7561 9.65818 16.4467 9.00779 16.27H8.92107C8.44412 16.0932 8.05389 15.9606 8.05389 15.6513C8.05389 15.3419 8.2707 15.1652 8.66093 15.1652C9.08406 15.1678 9.50039 15.2739 9.87497 15.4745C9.87497 15.4745 10.005 15.5187 10.005 15.4303C10.005 15.3419 10.1785 14.9442 10.2218 14.9C10.2652 14.8558 10.2219 14.8116 10.1785 14.8116C9.76504 14.5415 9.28199 14.403 8.791 14.4139H8.70428C7.79374 14.4139 7.18671 14.9442 7.18671 15.7397C7.18671 16.5793 7.88046 16.8445 8.48748 17.0212H8.61755C9.05114 17.1538 9.48473 17.2864 9.48473 17.6399C9.48473 17.9493 9.22459 18.1702 8.791 18.1702C8.34747 18.1762 7.9114 18.0536 7.53358 17.8167L7.40351 17.7283C7.36015 17.6841 7.27344 17.6399 7.27344 17.7725L7.05664 18.3028V18.2586ZM21.235 18.2586C21.1917 18.347 21.235 18.347 21.235 18.347L21.5385 18.5238C21.962 18.7651 22.4409 18.8872 22.926 18.8773C23.9233 18.8773 24.487 18.347 24.487 17.5074C24.487 16.7561 23.8366 16.4467 23.1862 16.27H23.0995C22.6225 16.0932 22.2323 15.9606 22.2323 15.6513C22.2323 15.3419 22.4491 15.1652 22.8393 15.1652C23.2618 15.1727 23.6771 15.2785 24.0534 15.4745C24.0644 15.482 24.0769 15.4869 24.09 15.4887C24.1031 15.4905 24.1165 15.4892 24.129 15.4849C24.1416 15.4807 24.153 15.4735 24.1624 15.4641C24.1719 15.4546 24.1791 15.443 24.1834 15.4303C24.237 15.2462 24.3096 15.0684 24.4002 14.9V14.8116C23.9868 14.5415 23.5037 14.403 23.0127 14.4139H22.8827C22.0155 14.4139 21.4084 14.9442 21.4084 15.7397C21.4084 16.5793 22.0588 16.8445 22.7092 17.0212H22.7959C23.2729 17.1538 23.6631 17.2864 23.6631 17.6399C23.6631 17.9493 23.403 18.1702 23.0127 18.1702C22.5692 18.1762 22.1332 18.0536 21.7553 17.8167L21.5819 17.7283C21.5819 17.6841 21.4952 17.6841 21.4518 17.7725L21.2784 18.3028L21.235 18.2586ZM30.9041 16.5793C30.9256 16.9797 30.8355 17.3781 30.6439 17.7283C30.5559 17.856 30.439 17.9602 30.3032 18.0321C30.1674 18.104 30.0165 18.1416 29.8634 18.1416C29.7104 18.1416 29.5596 18.104 29.4237 18.0321C29.2879 17.9602 29.171 17.856 29.083 17.7283C28.8915 17.3781 28.8013 16.9797 28.8228 16.5793C28.8048 16.1933 28.895 15.8101 29.083 15.4745C29.171 15.3469 29.2879 15.2427 29.4237 15.1707C29.5596 15.0988 29.7104 15.0613 29.8634 15.0613C30.0165 15.0613 30.1674 15.0988 30.3032 15.1707C30.439 15.2427 30.5559 15.3469 30.6439 15.4745C30.8319 15.8101 30.9221 16.1933 30.9041 16.5793ZM31.7279 15.6955C31.6409 15.4377 31.5086 15.1981 31.3377 14.9884C31.1637 14.7926 30.9584 14.6283 30.7306 14.5023C30.4525 14.3972 30.1598 14.3376 29.8634 14.3255C29.5665 14.3327 29.2731 14.3925 28.9963 14.5023C28.7607 14.6158 28.5532 14.7819 28.3893 14.9884C28.2183 15.1981 28.0861 15.4377 27.999 15.6955C27.8251 16.2714 27.8251 16.8873 27.999 17.4632C28.0757 17.7388 28.2087 17.9948 28.3893 18.2144C28.5449 18.419 28.7559 18.5726 28.9963 18.6564C29.2667 18.787 29.5645 18.8477 29.8634 18.8331C30.162 18.8426 30.4587 18.7822 30.7306 18.6564C30.965 18.5612 31.1733 18.4096 31.3377 18.2144C31.5182 17.9948 31.6512 17.7388 31.7279 17.4632C31.8435 16.8798 31.8435 16.2788 31.7279 15.6955V15.6955ZM38.3618 17.9935C38.3574 17.9807 38.3503 17.9692 38.3408 17.9597C38.3314 17.9503 38.32 17.9431 38.3074 17.9389C38.2949 17.9346 38.2815 17.9333 38.2684 17.9351C38.2553 17.9369 38.2427 17.9418 38.2317 17.9493L37.8849 18.0377H37.4079C37.2407 18.0434 37.074 18.0152 36.9177 17.9544C36.7613 17.8937 36.6185 17.8018 36.4974 17.6841C36.2466 17.3579 36.123 16.9486 36.1505 16.5351C36.1464 16.1588 36.252 15.7896 36.454 15.4745C36.5661 15.3419 36.7063 15.2372 36.8641 15.1682C37.0219 15.0993 37.1931 15.068 37.3646 15.0768L38.2317 15.1652C38.2317 15.1652 38.2751 15.2094 38.3184 15.121C38.3618 15.0326 38.4485 14.7674 38.4919 14.5465C38.5353 14.3255 38.4919 14.4581 38.4485 14.4581L37.9282 14.3255H37.3212C37.0102 14.3328 36.7025 14.3925 36.4107 14.5023C36.1609 14.6127 35.9387 14.7788 35.7603 14.9884C35.5893 15.1981 35.4571 15.4377 35.37 15.6955C35.281 15.9812 35.2371 16.2795 35.24 16.5793C35.2038 17.1719 35.3898 17.7563 35.7603 18.2144C35.9657 18.4327 36.2163 18.6015 36.4938 18.7085C36.7714 18.8156 37.0688 18.8581 37.3646 18.8331C37.751 18.8366 38.1343 18.7615 38.4919 18.6122C38.4919 18.6122 38.5786 18.6122 38.5352 18.5238L38.3618 17.9935V17.9935ZM39.7493 16.1374C39.7887 15.9066 39.8617 15.6832 39.9661 15.4745C40.0501 15.3438 40.1666 15.2382 40.3037 15.1683C40.4408 15.0984 40.5936 15.0669 40.7466 15.0768C40.9001 15.0619 41.0547 15.0914 41.1927 15.1617C41.3307 15.232 41.4465 15.3404 41.527 15.4745C41.6553 15.6698 41.7163 15.903 41.7005 16.1374H39.7493ZM42.4809 15.5629C42.393 15.328 42.2764 15.1053 42.1341 14.9C41.9826 14.7399 41.807 14.6056 41.6137 14.5023C41.3672 14.3925 41.1022 14.3325 40.8333 14.3255C40.5223 14.3328 40.2146 14.3925 39.9227 14.5023C39.6871 14.6158 39.4797 14.7819 39.3157 14.9884C39.1441 15.214 39.0121 15.4682 38.9255 15.7397C38.7516 16.3156 38.7516 16.9315 38.9255 17.5074C39.0028 17.7695 39.1361 18.011 39.3157 18.2144C39.5104 18.4249 39.7469 18.5907 40.0095 18.7006C40.3331 18.7972 40.6696 18.8419 41.0067 18.8331C41.4831 18.8555 41.9581 18.7647 42.3942 18.568C42.3942 18.568 42.4376 18.5238 42.3942 18.4354L42.2208 17.9051H42.1341C41.7805 18.0679 41.3943 18.1436 41.0067 18.1261C40.6631 18.1395 40.3256 18.0301 40.0528 17.8167C39.8498 17.5522 39.7426 17.2244 39.7493 16.8887H42.4809C42.4923 16.8887 42.5036 16.8864 42.5141 16.8819C42.5246 16.8775 42.5342 16.871 42.5422 16.8628C42.5503 16.8546 42.5567 16.8448 42.561 16.8341C42.5654 16.8234 42.5676 16.8119 42.5676 16.8003C42.6141 16.4006 42.5847 15.9955 42.4809 15.6071V15.5629ZM17.853 16.1816C17.8924 15.9508 17.9655 15.7274 18.0698 15.5187C18.1538 15.388 18.2703 15.2824 18.4074 15.2125C18.5445 15.1426 18.6973 15.1111 18.8503 15.121C19.0039 15.1061 19.1584 15.1356 19.2964 15.2059C19.4344 15.2762 19.5502 15.3846 19.6307 15.5187C19.759 15.714 19.82 15.9471 19.8042 16.1816H17.853ZM20.5846 15.6071C20.4967 15.3722 20.3802 15.1495 20.2378 14.9442C20.0864 14.7841 19.9107 14.6498 19.7175 14.5465C19.471 14.4367 19.2059 14.3767 18.937 14.3697C18.626 14.377 18.3183 14.4367 18.0265 14.5465C17.7854 14.6718 17.5658 14.8359 17.3761 15.0326C17.2348 15.2698 17.1185 15.5217 17.0292 15.7839C16.8553 16.3598 16.8553 16.9756 17.0292 17.5516C17.1065 17.8137 17.2398 18.0551 17.4194 18.2586C17.6141 18.4691 17.8506 18.6349 18.1132 18.7447C18.4368 18.8414 18.7733 18.8861 19.1104 18.8773C19.5868 18.8997 20.0618 18.8089 20.4979 18.6122C20.4979 18.6122 20.5413 18.568 20.4979 18.4796L20.3245 17.9493H20.2378C19.8842 18.1121 19.498 18.1878 19.1104 18.1702C18.7668 18.1837 18.4294 18.0743 18.1565 17.8609C17.9535 17.5964 17.8464 17.2686 17.853 16.9329H20.5846C20.6076 16.9329 20.6297 16.9235 20.646 16.907C20.6622 16.8904 20.6714 16.8679 20.6714 16.8445C20.7178 16.4448 20.6884 16.0397 20.5846 15.6513V15.6071ZM11.9562 18.0377L11.7828 17.9051C11.7239 17.7812 11.6942 17.645 11.6961 17.5074C11.6924 17.4038 11.7143 17.301 11.7597 17.2084C11.8052 17.1157 11.8727 17.0362 11.9562 16.9771C12.0673 16.8943 12.194 16.8359 12.3283 16.8055C12.4626 16.775 12.6016 16.7733 12.7367 16.8003H13.4738V18.0819L12.7367 18.1702C12.464 18.2105 12.1864 18.1476 11.9562 17.9935V18.0377ZM13.0402 16.049H12.6066C12.3861 16.0312 12.1644 16.0613 11.9562 16.1374C11.7372 16.1793 11.53 16.2698 11.3492 16.4026C11.1972 16.5281 11.0655 16.6772 10.9589 16.8445C10.8652 17.052 10.8207 17.2791 10.8289 17.5074C10.8258 17.721 10.8703 17.9325 10.9589 18.1261C11.035 18.3016 11.1545 18.4539 11.3058 18.568C11.4808 18.6824 11.6705 18.7717 11.8695 18.8331H13.4304L14.1241 18.7006L14.2976 18.6122C14.3843 18.6122 14.3409 18.5238 14.3409 18.5238V15.9606C14.3653 15.7344 14.339 15.5054 14.2639 15.2911C14.1888 15.0767 14.0669 14.8825 13.9074 14.7232C13.5558 14.4274 13.1041 14.2845 12.65 14.3255L11.9562 14.4139C11.6494 14.4553 11.3542 14.5606 11.089 14.7232C11.0775 14.7232 11.0665 14.7279 11.0584 14.7362C11.0502 14.7445 11.0457 14.7557 11.0457 14.7674C11.0457 14.7792 11.0502 14.7904 11.0584 14.7987C11.0665 14.807 11.0775 14.8116 11.089 14.8116L11.2625 15.3419C11.3058 15.4303 11.3492 15.3861 11.3492 15.3861H11.3925C11.7688 15.1901 12.1841 15.0843 12.6066 15.0768C12.8422 15.0698 13.0726 15.1481 13.257 15.2977C13.4304 15.3861 13.4738 15.5629 13.4738 15.9606V16.049H13.0402V16.049ZM35.1099 14.5907C35.1072 14.5566 35.0916 14.5249 35.0665 14.5023L34.5896 14.4139C34.351 14.3964 34.112 14.4421 33.8959 14.5465L33.4189 14.9V14.5465C33.4189 14.523 33.4097 14.5005 33.3935 14.484C33.3772 14.4674 33.3552 14.4581 33.3322 14.4581H32.6384C32.6154 14.4581 32.5934 14.4674 32.5771 14.484C32.5609 14.5005 32.5517 14.523 32.5517 14.5465V18.7006C32.5517 18.724 32.5609 18.7465 32.5771 18.7631C32.5934 18.7796 32.6154 18.7889 32.6384 18.7889H33.3755C33.3985 18.7889 33.4206 18.7796 33.4369 18.7631C33.4531 18.7465 33.4623 18.724 33.4623 18.7006V16.5793C33.4425 16.34 33.472 16.0992 33.549 15.8722C33.5943 15.7128 33.6678 15.563 33.7658 15.4303L34.1126 15.2535H34.8064C34.8497 15.2977 34.8497 15.2535 34.8931 15.2094L35.1099 14.5907" fill="#AFBF99"/>
<path d="M28.3463 12.6462L28.0862 12.5578H27.696C27.2833 12.533 26.8779 12.6761 26.5686 12.9555C26.2463 13.307 26.0479 13.758 26.005 14.2371V14.4139H25.3979C25.3865 14.4139 25.3753 14.4162 25.3648 14.4206C25.3542 14.4251 25.3447 14.4316 25.3366 14.4398C25.3286 14.448 25.3222 14.4577 25.3178 14.4684C25.3135 14.4792 25.3112 14.4907 25.3112 14.5023L25.1811 15.0768C25.1811 15.1002 25.1903 15.1227 25.2065 15.1393C25.2228 15.1558 25.2449 15.1652 25.2679 15.1652H25.8749L25.2679 18.6563C25.2412 18.8989 25.1829 19.1367 25.0944 19.3634C25.0631 19.5064 25.0041 19.6416 24.921 19.7612L24.6608 19.9379H24.1405L23.9671 19.8495C23.9671 19.8495 23.9237 19.8495 23.8804 19.9379C23.8268 20.1221 23.7542 20.2998 23.6636 20.4682C23.6616 20.4922 23.6644 20.5163 23.6719 20.5391C23.6793 20.5619 23.6913 20.5829 23.707 20.6008L23.9671 20.6892H24.3573C24.5795 20.7175 24.8051 20.6922 25.016 20.6155C25.2268 20.5387 25.4171 20.4126 25.5714 20.2473C25.7211 20.0629 25.8385 19.8536 25.9182 19.6286C26.0207 19.3274 26.0934 19.0165 26.135 18.7005L26.7421 15.121H27.6526C27.6756 15.121 27.6977 15.1116 27.7139 15.0951C27.7302 15.0785 27.7393 15.056 27.7393 15.0326L27.8694 14.4581C27.8694 14.4465 27.8672 14.435 27.8628 14.4243C27.8585 14.4135 27.852 14.4038 27.844 14.3956C27.8359 14.3874 27.8264 14.3809 27.8159 14.3764C27.8053 14.372 27.7941 14.3697 27.7827 14.3697H26.8722C26.9155 14.3697 26.9155 14.0603 27.0456 13.751C27.0938 13.6426 27.1518 13.539 27.219 13.4417L27.4792 13.3091H28.0862C28.1729 13.3533 28.1729 13.3091 28.1729 13.2649L28.3897 12.6904C28.4331 12.6462 28.3897 12.602 28.3463 12.602V12.6462ZM16.1191 18.6563C16.1191 18.7005 16.1191 18.7447 16.0758 18.7447H15.3386C15.3273 18.7447 15.316 18.7424 15.3055 18.738C15.2949 18.7336 15.2854 18.7271 15.2773 18.7188C15.2693 18.7106 15.2629 18.7009 15.2585 18.6902C15.2542 18.6794 15.252 18.668 15.252 18.6563V12.7346C15.252 12.723 15.2542 12.7115 15.2585 12.7007C15.2629 12.69 15.2693 12.6803 15.2773 12.6721C15.2854 12.6639 15.2949 12.6574 15.3055 12.6529C15.316 12.6485 15.3273 12.6462 15.3386 12.6462H16.0758C16.1191 12.6462 16.1191 12.6904 16.1191 12.7346V18.6563Z" fill="#AFBF99"/>
</svg>
