<svg width="74" height="20" viewBox="0 0 74 20" fill="none" xmlns="http://www.w3.org/2000/svg">
<path fill-rule="evenodd" clip-rule="evenodd" d="M23.7227 15.2758L24.6237 13.2173C25.6793 13.9404 26.9394 14.3223 28.2276 14.3096C29.2144 14.3096 29.8151 13.9315 29.8151 13.3854C29.7722 11.873 24.0659 13.0493 24.023 9.22637C24.023 7.29391 25.7821 5.78155 28.2705 5.78155C29.7722 5.78155 31.2739 6.11763 32.3036 6.95783L31.4884 9.10034C30.497 8.44687 29.3364 8.08265 28.1418 8.05009C27.3695 8.05009 26.8547 8.38617 26.8547 8.84828C26.8547 10.3606 32.6039 9.56245 32.6897 13.2173C32.6897 15.1918 30.9735 16.6201 28.4851 16.6201C26.7921 16.6783 25.1242 16.2075 23.7227 15.2758V15.2758ZM58.8186 12.4611C58.5776 12.8534 58.2383 13.1789 57.8328 13.4068C57.4274 13.6347 56.9692 13.7574 56.5017 13.7635C55.8076 13.7635 55.1419 13.4935 54.6511 13.0129C54.1603 12.5323 53.8846 11.8805 53.8846 11.2008C53.8789 10.8608 53.9424 10.523 54.0713 10.2073C54.2003 9.89149 54.3922 9.60401 54.6358 9.36158C54.8794 9.11915 55.1698 8.92663 55.4902 8.79522C55.8105 8.66382 56.1544 8.59617 56.5017 8.59622C56.9692 8.60222 57.4274 8.72499 57.8328 8.9529C58.2383 9.1808 58.5776 9.50629 58.8186 9.89853L61.3071 8.55421C60.7089 7.50777 59.7732 6.68512 58.6465 6.21512C57.5198 5.74513 56.2657 5.65433 55.0806 5.95694C53.8955 6.25956 52.8464 6.9385 52.0976 7.88743C51.3488 8.83635 50.9426 10.0017 50.9426 11.2008C50.9426 12.4 51.3488 13.5653 52.0976 14.5143C52.8464 15.4632 53.8955 16.1421 55.0806 16.4447C56.2657 16.7474 57.5198 16.6566 58.6465 16.1866C59.7732 15.7166 60.7089 14.8939 61.3071 13.8475L58.8186 12.4611ZM33.9339 1.28648H37.1089V16.4101H33.9339V1.28648ZM62.5513 1.28648V16.4101H65.7262V11.873L69.4589 16.4101H73.492L68.7296 11.0328L73.1487 5.9916H69.2873L65.7262 10.1506V1.28648H62.5513Z" fill="white"/>
<path d="M46.4645 12.5032C46.1978 12.8975 45.834 13.2197 45.4065 13.4399C44.9791 13.6602 44.5019 13.7715 44.0189 13.7635C43.3248 13.7635 42.6591 13.4935 42.1683 13.0129C41.6775 12.5323 41.4018 11.8805 41.4018 11.2008C41.3961 10.8608 41.4596 10.523 41.5885 10.2073C41.7175 9.8915 41.9094 9.60401 42.153 9.36159C42.3966 9.11916 42.687 8.92663 43.0074 8.79523C43.3277 8.66383 43.6716 8.59618 44.0189 8.59623C44.5107 8.59308 44.9948 8.7154 45.4236 8.95111C45.8524 9.18683 46.2112 9.52783 46.4645 9.94054V12.5032ZM46.4645 5.99161V7.20989C45.9496 6.36969 44.6625 5.78156 43.3325 5.78156C40.5866 5.78156 38.3984 8.17613 38.3984 11.1588C38.3984 14.1416 40.5866 16.6201 43.3325 16.6201C44.6625 16.6201 45.9496 16.032 46.4645 15.1498V16.3681H49.6394V5.99161H46.4645Z" fill="white"/>
<path fill-rule="evenodd" clip-rule="evenodd" d="M4.24611 12.4611C4.23516 12.9703 4.02371 13.4556 3.65594 13.8157C3.28816 14.1758 2.7925 14.3829 2.2725 14.3936C1.75654 14.3826 1.2655 14.1742 0.904604 13.813C0.543709 13.4517 0.341675 12.9665 0.341797 12.4611C0.341797 11.9598 0.54521 11.4789 0.907288 11.1244C1.26937 10.7699 1.76045 10.5707 2.2725 10.5707H4.24611V12.4611ZM5.19002 12.4611C5.25959 12.0029 5.49498 11.5844 5.8533 11.2818C6.21162 10.9793 6.66902 10.8128 7.14217 10.8128C7.61532 10.8128 8.07273 10.9793 8.43105 11.2818C8.78937 11.5844 9.02476 12.0029 9.09433 12.4611V17.2503C9.02476 17.7085 8.78937 18.1271 8.43105 18.4296C8.07273 18.7322 7.61532 18.8986 7.14217 18.8986C6.66902 18.8986 6.21162 18.7322 5.8533 18.4296C5.49498 18.1271 5.25959 17.7085 5.19002 17.2503V12.4611Z" fill="white"/>
<path fill-rule="evenodd" clip-rule="evenodd" d="M7.16275 4.81533C6.90561 4.82092 6.64993 4.77616 6.41071 4.68367C6.1715 4.59117 5.95356 4.45281 5.76971 4.2767C5.58586 4.1006 5.43979 3.8903 5.34009 3.65816C5.24039 3.42602 5.18907 3.17671 5.18914 2.92488C5.14742 2.6501 5.16669 2.36975 5.24565 2.10293C5.3246 1.83611 5.46138 1.5891 5.64666 1.37873C5.83193 1.16835 6.06135 0.999557 6.31928 0.883856C6.57721 0.768155 6.85758 0.708267 7.14129 0.708267C7.425 0.708267 7.70538 0.768155 7.9633 0.883856C8.22123 0.999557 8.45065 1.16835 8.63593 1.37873C8.82121 1.5891 8.95798 1.83611 9.03694 2.10293C9.11589 2.36975 9.13517 2.6501 9.09345 2.92488V4.81533H7.16275ZM7.16275 5.78156C7.63075 5.84968 8.05819 6.08016 8.36718 6.43101C8.67617 6.78186 8.84616 7.22973 8.84616 7.69302C8.84616 8.1563 8.67617 8.60417 8.36718 8.95502C8.05819 9.30587 7.63075 9.53635 7.16275 9.60448H2.27162C1.991 9.64532 1.70468 9.62644 1.43218 9.54914C1.15968 9.47183 0.907404 9.3379 0.692549 9.15649C0.477693 8.97508 0.305308 8.75044 0.187143 8.49788C0.0689788 8.24533 0.0078125 7.97081 0.0078125 7.69302C0.0078125 7.41522 0.0689788 7.1407 0.187143 6.88814C0.305308 6.63559 0.477693 6.41096 0.692549 6.22954C0.907404 6.04813 1.15968 5.9142 1.43218 5.83689C1.70468 5.75959 1.991 5.74071 2.27162 5.78156H7.16275Z" fill="white"/>
<path fill-rule="evenodd" clip-rule="evenodd" d="M14.9283 7.71402C14.9283 7.2015 15.1362 6.70997 15.5064 6.34756C15.8765 5.98515 16.3785 5.78156 16.9019 5.78156C17.3699 5.84968 17.7973 6.08016 18.1063 6.43101C18.4153 6.78186 18.5853 7.22973 18.5853 7.69301C18.5853 8.1563 18.4153 8.60416 18.1063 8.95501C17.7973 9.30586 17.3699 9.53635 16.9019 9.60447H14.9283V7.71402ZM13.9844 7.71402C13.9732 8.21923 13.7603 8.70003 13.3914 9.0534C13.0225 9.40677 12.5269 9.60459 12.0108 9.60447C11.4987 9.60447 11.0076 9.4053 10.6456 9.05077C10.2835 8.69624 10.0801 8.2154 10.0801 7.71402V2.92487C10.08 2.41955 10.282 1.93428 10.6429 1.57306C11.0038 1.21184 11.4948 1.0034 12.0108 0.992416C12.5308 1.00314 13.0264 1.21018 13.3942 1.57029C13.762 1.93039 13.9734 2.41572 13.9844 2.92487V7.71402Z" fill="white"/>
<path fill-rule="evenodd" clip-rule="evenodd" d="M12.0108 15.3178C12.5308 15.3286 13.0264 15.5356 13.3942 15.8957C13.762 16.2558 13.9734 16.7411 13.9844 17.2503C13.9732 17.7555 13.7603 18.2363 13.3914 18.5897C13.0225 18.943 12.5269 19.1409 12.0108 19.1407C11.4987 19.1407 11.0076 18.9416 10.6456 18.587C10.2835 18.2325 10.0801 17.7517 10.0801 17.2503V15.3178H12.0108ZM12.0108 14.3936C11.4948 14.3826 11.0038 14.1742 10.6429 13.813C10.282 13.4517 10.08 12.9665 10.0801 12.4611C10.0801 11.9598 10.2835 11.4789 10.6456 11.1244C11.0076 10.7699 11.4987 10.5707 12.0108 10.5707H16.9019C17.414 10.5707 17.905 10.7699 18.2671 11.1244C18.6292 11.4789 18.8326 11.9598 18.8326 12.4611C18.8327 12.9665 18.6307 13.4517 18.2698 13.813C17.9089 14.1742 17.4179 14.3826 16.9019 14.3936H12.0108Z" fill="white"/>
</svg>
