<svg width="31" height="31" viewBox="0 0 31 31" fill="none" xmlns="http://www.w3.org/2000/svg">
<path d="M27.9827 0.616219H3.58854C1.95721 0.616219 0.634766 1.9413 0.634766 3.57587V28.0287C0.634766 29.6633 1.95721 30.9883 3.58854 30.9883H27.9827C29.614 30.9883 30.9365 29.6633 30.9365 28.0287V3.57587C30.9365 1.9413 29.614 0.616219 27.9827 0.616219Z" fill="white"/>
<path d="M25.5889 4.5964H19.1721C18.3845 4.5964 17.7461 5.23609 17.7461 6.02519V16.4554C17.7461 17.2445 18.3845 17.8842 19.1721 17.8842H25.5889C26.3764 17.8842 27.0149 17.2445 27.0149 16.4554V6.02519C27.0149 5.23609 26.3764 4.5964 25.5889 4.5964Z" fill="#AFBF99"/>
<path d="M12.3975 4.5964H5.98066C5.19312 4.5964 4.55469 5.23609 4.55469 6.02519V24.0484C4.55469 24.8375 5.19312 25.4772 5.98066 25.4772H12.3975C13.185 25.4772 13.8234 24.8375 13.8234 24.0484V6.02519C13.8234 5.23609 13.185 4.5964 12.3975 4.5964Z" fill="#AFBF99"/>
</svg>
