<svg width="41" height="33" viewBox="0 0 41 33" fill="none" xmlns="http://www.w3.org/2000/svg">
<path d="M5.07771 21.7294V25.644C5.07771 27.1398 3.42395 27.1717 3.42395 27.1717C3.42395 27.1717 1.7384 27.1398 1.7384 25.644V21.7294C1.7384 21.7294 1.67479 21.0611 0.720703 21.0611V25.7395C0.785301 26.4007 1.10251 27.0114 1.60616 27.4443C2.10982 27.8772 2.76102 28.0987 3.42395 28.0628C4.08349 28.0983 4.73098 27.8757 5.22952 27.4421C5.72805 27.0086 6.03856 26.398 6.0954 25.7395V21.0611C5.17312 21.0611 5.07771 21.7294 5.07771 21.7294Z" fill="white"/>
<path d="M28.2945 21.7294V25.644C28.2945 27.1398 26.6408 27.1716 26.6408 27.1716C26.6408 27.1716 24.9552 27.1398 24.9552 25.644V21.7294C24.9552 21.7294 24.8916 21.0611 23.9375 21.0611V25.7395C24.0097 26.4023 24.3239 27.0151 24.8198 27.4603C25.3158 27.9055 25.9586 28.1517 26.6249 28.1517C27.2911 28.1517 27.9339 27.9055 28.4299 27.4603C28.9258 27.0151 29.24 26.4023 29.3122 25.7395V21.0611C28.3581 21.0611 28.2945 21.7294 28.2945 21.7294Z" fill="white"/>
<path d="M15.2872 25.7395V21.0611C14.3649 21.0611 14.2695 21.7294 14.2695 21.7294V27.9673H15.2872V25.7395V25.7395Z" fill="white"/>
<path d="M32.1095 25.7395V21.0611C31.1554 21.0611 31.0918 21.7294 31.0918 21.7294V27.9673H32.1095V25.7395V25.7395Z" fill="white"/>
<path d="M39.9982 25.7395V21.0611C39.0441 21.0611 38.9805 21.7294 38.9805 21.7294V27.9673H39.9982V25.7395V25.7395Z" fill="white"/>
<path d="M10.6444 27.1716H8.8316V24.8484H10.6762C10.8352 24.8484 11.6303 24.9757 11.6303 25.9941C11.634 26.276 11.5365 26.5498 11.3556 26.7659C11.1747 26.982 10.9223 27.126 10.6444 27.1716V27.1716ZM8.8316 21.9522H10.3581C10.4984 21.9428 10.639 21.9636 10.7706 22.013C10.9022 22.0625 11.0217 22.1395 11.1211 22.239C11.2205 22.3384 11.2975 22.458 11.3469 22.5897C11.3963 22.7214 11.417 22.8621 11.4076 23.0025C11.4076 23.9572 10.3899 24.0209 10.3899 24.0209H8.8316V21.9522V21.9522ZM11.4394 24.4028C11.7303 24.2577 11.976 24.0356 12.1498 23.7607C12.3236 23.4858 12.4189 23.1686 12.4253 22.8433C12.4253 21.7294 11.4076 21.0611 10.4535 21.0611H7.8457V27.9673H11.185C11.185 27.9673 12.6161 27.5854 12.6161 26.2805C12.6161 24.9757 11.8529 24.4028 11.4394 24.4028V24.4028Z" fill="white"/>
<path d="M19.5804 27.2035C18.2447 27.2035 17.6086 26.0259 17.6086 24.5619C17.6086 23.098 18.2447 21.9204 19.5804 21.9204C20.9161 21.9204 21.5522 23.098 21.5522 24.5619C21.5522 26.0259 20.9161 27.2035 19.5804 27.2035ZM22.8243 27.0762H21.584C22.2189 26.4061 22.5719 25.5172 22.5699 24.5938C22.5699 23.0661 21.902 21.0611 19.5168 21.0611C19.5168 21.0611 16.7499 20.8702 16.5591 24.5301C16.3683 28.1901 19.5168 27.9673 19.5168 27.9673C20.287 27.8756 21.0632 27.8437 21.8384 27.8718H23.4285C23.4285 27.8718 23.3649 27.0762 22.8243 27.0762V27.0762Z" fill="white"/>
<path d="M38.1206 21.9204H33.0957V21.0611H38.1206V21.9204Z" fill="white"/>
<path d="M36.148 21.0611V27.9673H35.1621V21.0611H36.148Z" fill="white"/>
<path fill-rule="evenodd" clip-rule="evenodd" d="M14.0777 1.96564H13.0918V0.91539H14.0777V1.96564Z" fill="white"/>
<path fill-rule="evenodd" clip-rule="evenodd" d="M16.0503 7.15324H15.0645V6.10299H16.0503V7.15324Z" fill="white"/>
<path fill-rule="evenodd" clip-rule="evenodd" d="M16.0503 3.93883H15.0645V2.92041H16.0503V3.93883Z" fill="white"/>
<path fill-rule="evenodd" clip-rule="evenodd" d="M17.0367 2.92041H16.0508V1.90199H17.0367V2.92041Z" fill="white"/>
<path fill-rule="evenodd" clip-rule="evenodd" d="M17.0367 5.65744H16.0508V4.63901H17.0367V5.65744Z" fill="white"/>
<path fill-rule="evenodd" clip-rule="evenodd" d="M18.023 4.41623H17.0371V3.3978H18.023V4.41623Z" fill="white"/>
<path fill-rule="evenodd" clip-rule="evenodd" d="M13.0938 3.62058H14.0796V9.12644H15.0337V8.13984H16.0514V10.304H17.0691V6.70768H18.055V14.1231C18.1429 15.0857 18.4565 16.014 18.9705 16.8325C19.4844 17.6509 20.1841 18.3365 21.0127 18.8333C18.0868 18.8333 13.0938 17.4966 13.0938 11.577V3.62058V3.62058Z" fill="white"/>
<path fill-rule="evenodd" clip-rule="evenodd" d="M23.8418 15.2688C23.8418 15.2688 27.7854 15.046 28.9621 9.73113V1.07452C28.9621 1.07452 24.0008 0.501658 24.0008 4.16162C24.0008 7.82159 23.8418 15.2688 23.8418 15.2688V15.2688Z" fill="white"/>
<path d="M0.976562 30.0678H1.35819L2.28048 31.5636V30.0678H2.63031V32.1047H2.24868L1.32639 30.6088V32.1047H0.976562V30.0678Z" fill="white"/>
<path d="M6.34961 30.0678H7.81255V30.3861H6.69944V30.9271H7.71713V31.2135H6.69944V31.7864H7.81255V32.1047H6.34961V30.0678Z" fill="white"/>
<path d="M11.3125 30.0678H12.9662V30.3861H12.3302V32.1047H11.9486V30.3861H11.3125V30.0678Z" fill="white"/>
<path d="M16.4648 30.0678H16.8147L17.1963 31.6273L17.6098 30.0678H17.9596L18.373 31.6273L18.7547 30.0678H19.1045L18.532 32.1047H18.1822L17.7688 30.5452L17.3553 32.1047H17.0055L16.4648 30.0678Z" fill="white"/>
<path d="M22.7929 31.0862C22.7929 31.4681 22.9519 31.85 23.3972 31.85C23.8424 31.85 24.0014 31.4681 24.0014 31.0862C24.0014 30.7043 23.8424 30.3224 23.3972 30.3224C22.9519 30.3224 22.7929 30.7043 22.7929 31.0862ZM24.383 31.0862C24.3918 31.221 24.3727 31.3562 24.3271 31.4834C24.2814 31.6105 24.2102 31.7269 24.1178 31.8254C24.0253 31.9239 23.9137 32.0023 23.7897 32.0558C23.6658 32.1093 23.5322 32.1368 23.3972 32.1365C23.1188 32.1365 22.8519 32.0258 22.655 31.8289C22.4582 31.6319 22.3477 31.3648 22.3477 31.0862C22.3477 30.8077 22.4582 30.5405 22.655 30.3436C22.8519 30.1466 23.1188 30.036 23.3972 30.036C23.5322 30.0357 23.6658 30.0632 23.7897 30.1167C23.9137 30.1702 24.0253 30.2486 24.1178 30.3471C24.2102 30.4455 24.2814 30.562 24.3271 30.6891C24.3727 30.8162 24.3918 30.9514 24.383 31.0862V31.0862Z" fill="white"/>
<path d="M28.4201 31.0226H29.0244C29.0716 31.0276 29.1193 31.022 29.164 31.0062C29.2087 30.9903 29.2493 30.9647 29.2829 30.9311C29.3164 30.8976 29.342 30.8569 29.3578 30.8122C29.3736 30.7674 29.3792 30.7197 29.3742 30.6725C29.3742 30.4179 29.1834 30.3861 29.0244 30.3861H28.4201V31.0226ZM28.0703 30.0996H29.0562C29.5014 30.0996 29.7241 30.2906 29.7241 30.6407C29.7296 30.7522 29.6984 30.8624 29.6352 30.9544C29.5719 31.0465 29.4803 31.1151 29.3742 31.1499V31.1499C29.4698 31.1656 29.5558 31.2171 29.6149 31.2939C29.674 31.3707 29.7016 31.4671 29.6923 31.5636C29.6739 31.7493 29.7069 31.9365 29.7877 32.1047H29.406C29.38 32.0115 29.3692 31.9148 29.3742 31.8182C29.3742 31.4363 29.2788 31.2772 28.9608 31.2772H28.4201V32.1047H28.0703V30.0996V30.0996Z" fill="white"/>
<path d="M33.3828 30.0996H33.7326V31.0226L34.6231 30.0996H35.0684L34.2733 30.8953L35.132 32.1047H34.6867L34.0189 31.1499L33.7326 31.4363V32.1047H33.3828V30.0996Z" fill="white"/>
<path d="M38.8205 31.4363C38.8205 31.7546 39.0432 31.8819 39.3294 31.8819C39.6156 31.8819 39.7746 31.7227 39.7746 31.5636C39.7785 31.5098 39.7652 31.4561 39.7366 31.4104C39.708 31.3646 39.6657 31.3291 39.6156 31.309L39.0114 31.1499C38.8877 31.1343 38.7741 31.0738 38.692 30.98C38.6099 30.8861 38.5652 30.7654 38.5661 30.6407C38.5661 30.2269 38.916 30.036 39.2976 30.036C39.6792 30.036 40.0609 30.2588 40.0609 30.6725H39.711C39.711 30.4179 39.5202 30.3224 39.2658 30.3224C39.0114 30.3224 38.916 30.3861 38.916 30.577C38.916 30.768 39.0114 30.7998 39.1386 30.8634L39.7428 31.0226C39.8548 31.0514 39.9536 31.1176 40.0229 31.2102C40.0923 31.3027 40.1281 31.4161 40.1245 31.5318C40.1245 31.9773 39.711 32.1683 39.3294 32.1683C38.9478 32.1683 38.4707 31.9455 38.4707 31.4363H38.8205Z" fill="white"/>
</svg>
