<svg width="79" height="26" viewBox="0 0 79 26" fill="none" xmlns="http://www.w3.org/2000/svg">
<path d="M65.2036 20.5394C64.5388 19.7458 64.2015 18.6562 64.2015 17.2577C64.2015 15.8332 64.5388 14.7241 65.2003 13.9273C65.8618 13.1272 66.7624 12.7304 67.9282 12.7304C69.0842 12.7304 69.975 13.1272 70.6397 13.9273C71.3013 14.7241 71.6386 15.8332 71.6386 17.2577C71.6386 18.6497 71.3013 19.7393 70.6397 20.5361C69.975 21.3297 69.0842 21.7265 67.9282 21.7265C66.769 21.7265 65.8717 21.3329 65.2036 20.5394ZM60.108 8.4177H76.2593V25.6781H60.108V21.8956L60.5927 20.5491C60.6266 20.4623 60.6379 20.3683 60.6254 20.2759L60.108 16.3275V8.4177ZM61.1494 17.2544C61.1494 18.2529 61.3164 19.1831 61.657 20.0417C61.9976 20.9036 62.4986 21.6777 63.1634 22.3607C63.7856 22.9982 64.4995 23.4828 65.2986 23.808C66.1009 24.1333 66.9785 24.2959 67.9315 24.2959C68.8484 24.2959 69.713 24.1333 70.512 23.808C71.3111 23.4828 72.0348 22.9982 72.6767 22.3607C73.348 21.6777 73.8556 20.9069 74.1994 20.0483C74.5433 19.1896 74.7136 18.2594 74.7136 17.2544C74.7136 16.2527 74.5433 15.3225 74.1994 14.4672C73.8534 13.6064 73.3354 12.8242 72.6767 12.1677C72.0348 11.5172 71.3144 11.0294 70.5153 10.6976C69.6946 10.3637 68.8151 10.1956 67.9282 10.2033C67.0396 10.1837 66.1567 10.3483 65.3358 10.6865C64.5148 11.0247 63.7738 11.5292 63.1601 12.1677C62.5036 12.819 61.9906 13.5987 61.6537 14.4574C61.3103 15.35 61.1392 16.2989 61.1494 17.2544ZM77.4251 8.05669V24.8585L78.8333 23.46V6.44025L77.4251 8.05669ZM62.4921 5.48405L60.8481 7.26311H76.5737L78.139 5.46779L62.4921 5.48405ZM55.9687 6.88908L56.9609 4.0595L41.2419 6.23535L41.0356 6.91835L41.5269 8.84702L55.9687 6.88908ZM56.997 7.47451L57.7796 12.945L59.0044 21.5216L59.4498 20.2857L57.5635 5.85807L56.997 7.47451ZM40.4003 11.2115L40.718 11.3514L34.3813 25.6326L20.3652 19.3555L26.6986 5.07425L40.4003 11.2115ZM37.3777 14.8021C37.3777 13.95 37.2271 13.1174 36.9225 12.2978C36.6016 11.4327 36.1464 10.6879 35.5536 10.0699C34.9609 9.45196 34.2437 8.96085 33.3988 8.60634C32.5967 8.26031 31.7321 8.07994 30.8576 8.0762H30.8183C29.9315 8.08601 29.0567 8.28104 28.2508 8.64862C27.3667 9.02915 26.5971 9.5658 25.9454 10.2521C25.2904 10.9351 24.7599 11.7612 24.3473 12.7239C23.9102 13.7264 23.6798 14.8058 23.6694 15.8982C23.6694 16.7373 23.8135 17.5569 24.1017 18.3635C24.3957 19.1934 24.8656 19.951 25.4797 20.585C26.0938 21.2191 26.8378 21.7148 27.6614 22.0387C28.4899 22.39 29.3348 22.5656 30.1895 22.5656H30.2125C31.0737 22.5591 31.9284 22.377 32.7733 22.016C33.6491 21.6318 34.4402 21.0803 35.1017 20.393C35.7632 19.71 36.297 18.8839 36.7064 17.9277C37.1378 16.9407 37.3661 15.878 37.3777 14.8021ZM57.0035 15.7453L58.1006 23.421L42.4569 25.6033L40.8031 14.0248L42.0148 11.2928C42.0213 11.2863 42.0148 11.2766 42.0148 11.2701C42.0629 11.1594 42.0744 11.0364 42.0475 10.9188L41.8118 9.9756L55.9032 8.06645L57.0035 15.7453ZM55.2253 22.1526C55.2245 22.0143 55.2136 21.8762 55.1926 21.7395L53.5421 10.5773C53.4667 10.0634 53.2899 9.67313 53.005 9.41619C52.7749 9.21198 52.4751 9.10264 52.1667 9.11046C52.0801 9.11063 51.9936 9.11716 51.9079 9.12998C51.7113 9.14896 51.5215 9.21211 51.353 9.31466C51.1845 9.41721 51.0417 9.55647 50.9353 9.72191C50.7809 9.98266 50.7037 10.2814 50.7126 10.5838C50.7126 10.7106 50.7225 10.844 50.7454 10.9838L51.3578 15.277L46.5275 15.9828L45.9151 11.6896C45.8748 11.2581 45.6877 10.8532 45.3846 10.5415C45.162 10.3294 44.8645 10.2125 44.556 10.2163C44.4782 10.2172 44.4005 10.2238 44.3235 10.2358C44.1218 10.253 43.9263 10.3144 43.7514 10.4156C43.5764 10.5168 43.4262 10.6554 43.3116 10.8212C43.153 11.0816 43.0745 11.3823 43.0857 11.6864C43.0857 11.8236 43.0966 11.9606 43.1184 12.0962L44.7722 23.2616C44.8475 23.7755 45.0276 24.1658 45.3256 24.4162C45.5548 24.6146 45.8496 24.7154 46.1771 24.7122C46.2724 24.7127 46.3676 24.7061 46.462 24.6927C46.6528 24.673 46.8363 24.6092 46.9978 24.5064C47.1593 24.4036 47.2943 24.2647 47.392 24.1007C47.5351 23.8444 47.6063 23.5546 47.5983 23.2616C47.5975 23.1255 47.5865 22.9896 47.5656 22.8551L46.891 18.4416L51.7213 17.7391L52.3959 22.1493C52.4336 22.5848 52.6277 22.9923 52.9428 23.2974C53.177 23.5011 53.4797 23.6102 53.791 23.6031C53.8776 23.6031 53.964 23.5966 54.0497 23.5836C54.2444 23.5653 54.4325 23.5031 54.5993 23.4016C54.7662 23.3002 54.9075 23.1622 55.0124 22.9982C55.1608 22.7413 55.2345 22.4486 55.2253 22.1526ZM40.6263 10.0406L39.7192 6.45326L25.762 0.111096L26.8853 3.88712L40.6263 10.0406ZM25.7817 4.26765L24.737 0.768081L19.7953 12.4181L20.3979 16.4056L25.7817 4.26765ZM32.364 11.0066C31.9119 10.8076 31.4241 10.7014 30.9296 10.6944C30.391 10.6966 29.862 10.8366 29.3938 11.1009C28.467 11.6116 27.7072 12.5385 27.1243 13.898C26.7726 14.6674 26.58 15.4991 26.5578 16.3438C26.5578 16.7211 26.6069 17.0788 26.7019 17.4171C26.9868 18.4318 27.645 19.1473 28.6995 19.5962C29.1874 19.8011 29.659 19.9019 30.1175 19.9019C30.6557 19.9 31.1845 19.7611 31.6534 19.4986C32.5801 18.9912 33.3301 18.0806 33.8999 16.7503C34.2608 15.9604 34.459 15.1067 34.4828 14.2395C34.4828 13.872 34.4369 13.5207 34.3452 13.189C34.0669 12.171 33.4152 11.4522 32.3673 11.0099L32.364 11.0066ZM16.5467 12.0539L18.2431 23.1445L2.72385 25.5578L0.238281 10.4374L13.0493 8.48926L15.9376 8.05018L16.5467 12.0539ZM14.9093 21.8891C14.9097 21.7976 14.902 21.7061 14.8864 21.6159C14.855 21.4047 14.7667 21.2058 14.631 21.0402C14.4913 20.88 14.3101 20.7607 14.107 20.6955C13.8467 20.6133 13.5745 20.5748 13.3014 20.5816C13.0067 20.5816 12.6661 20.6142 12.283 20.6792L7.88492 21.4273C7.93077 21.089 8.09778 20.6467 8.39579 20.1068C8.82924 19.3471 9.31966 18.6208 9.86289 17.9342L10.3705 17.2577C10.4524 17.1569 10.5702 17.004 10.7209 16.8024C11.7295 15.4917 12.3517 14.4249 12.5875 13.5858C12.759 12.9913 12.8471 12.3762 12.8495 11.7579C12.8495 11.4132 12.8233 11.0749 12.7644 10.7367C12.725 10.4734 12.6478 10.2171 12.5351 9.9756C12.452 9.79075 12.3181 9.63294 12.1487 9.52027C11.913 9.40134 11.6495 9.34743 11.3857 9.36415C11.1139 9.36415 10.7897 9.39667 10.4065 9.46172L5.32403 10.3269C4.70837 10.4309 4.25318 10.6131 3.96172 10.8798C3.84909 10.9831 3.75989 11.109 3.70004 11.2492C3.64019 11.3894 3.61107 11.5406 3.61459 11.6929C3.61423 11.7801 3.6219 11.8672 3.63752 11.9531C3.70956 12.3824 3.93225 12.6979 4.29575 12.8572C4.54123 12.9593 4.80585 13.0081 5.07187 13.0003C5.27819 13.0003 5.50415 12.9776 5.74976 12.9353L10.007 12.223C10.0416 12.5609 9.99902 12.9022 9.88254 13.2215C9.75155 13.5727 9.43717 14.0704 8.93285 14.7078L8.27789 15.5177C7.13172 16.8967 6.31302 18.0741 5.81198 19.053C5.47641 19.6806 5.23062 20.3517 5.0817 21.0467C5.00552 21.4072 4.96602 21.7744 4.96381 22.1428C4.96381 22.3965 4.98345 22.6372 5.02275 22.8746C5.06627 23.1641 5.15233 23.4457 5.27819 23.7104C5.37128 23.9108 5.52308 24.0785 5.71373 24.1918C5.87747 24.2829 6.12308 24.3186 6.46039 24.3219C6.88611 24.3219 7.4592 24.2569 8.18293 24.1333L12.7971 23.3527C13.6158 23.2096 14.1823 23.0177 14.5098 22.7477C14.6386 22.6449 14.7417 22.5139 14.811 22.365C14.8803 22.216 14.914 22.0531 14.9093 21.8891ZM17.0805 7.04845L17.015 7.40296L18.9766 20.2304L19.4351 17.8561L17.4964 4.92464L17.0871 7.0517L17.0805 7.04845ZM16.8415 2.17962L1.23054 4.66445L0.303777 9.26007L15.9311 6.88583L16.8382 2.18287L16.8415 2.17962Z" fill="white"/>
</svg>
